<svg id="Make2D::visible::lines" xmlns="http://www.w3.org/2000/svg" viewBox="0 0 461.22 415.99"><defs><style>.cls-1{fill:#fff;}.cls-2,.cls-3{fill:none;stroke:#860038;stroke-linecap:round;stroke-linejoin:round;}.cls-3{stroke-width:2px;}.cls-4,.cls-5{fill:#860038;}.cls-5{fill-rule:evenodd;}</style></defs><rect class="cls-1" width="461.22" height="415.99"/><polyline class="cls-2" points="250.77 39.5 15.03 39.62 17.83 192.65 250.2 192.08"/><path class="cls-3" d="M264,398.58l-7.21-4.92c-5.35-3.76-7.39-7.8-7.24-14.34l1.29-345c0-10.29,7.76-19.84,18.54-19.86l149.15-.37h.29l9.9.16"/><polygon class="cls-4" points="354.75 184.44 354.9 172.95 365.55 172.58 365.63 166.84 354.98 167.2 355.14 155.68 349.79 155.85 349.64 167.38 338.92 167.75 338.85 173.52 349.56 173.14 349.41 184.64 354.75 184.44"/><path class="cls-3" d="M279.26,44.9,360,44.2l40.37-.35,20.18-.17c7.55-.07,14.6-.34,14.4,9.52q-2,94.73-4,189.45l-1,47.61q-.24,11.82-.49,23.64c-.05,2.25-.21,21.06-1.07,23.36-3,8.15-15.28,6.9-21.09,7.31L384,346.23l-47.34,3.38-46.48,3.31c-5.51.39-18.14,3.74-21.27-4.47-.87-2.31-.5-22.23-.48-24.45q.25-47.37.52-94.76t.53-94.73q.12-23.7.26-47.4.06-11.94.13-23.86C269.9,55.83,268.26,45,279.26,44.9Z"/><polygon class="cls-4" points="404.89 179.72 394.42 180.1 393.83 214.15 362.27 215.54 362.11 226.91 404.05 224.97 404.89 179.72"/><polygon class="cls-4" points="341 216.48 340.86 227.9 297.8 229.89 298.18 183.66 309.07 183.26 308.74 217.9 341 216.48"/><polygon class="cls-4" points="298.38 160.39 309.28 160.04 309.61 125.02 342.14 124.2 342.29 112.56 298.76 113.54 298.38 160.39"/><polygon class="cls-4" points="394.82 157.28 405.3 156.95 406.15 111.11 363.76 112.07 363.6 123.67 395.42 122.87 394.82 157.28"/><path class="cls-4" d="M323.51,30.65c0-2.34-.77-3.54-3.24-3.5S317,28.36,317,30.69s.77,3.54,3.24,3.5S323.48,33,323.51,30.65Z"/><path class="cls-4" d="M327,30.08c-.06,6.15,8.24,4,11.81,4l14.65-.1,14.67-.09,7.21-.05c2.6,0,5.66.84,5.72-3,.1-6.13-8.26-4-11.8-4L354.55,27l-14.66.08-7.22,0C330.07,27.1,327,26.27,327,30.08Z"/><path class="cls-4" d="M356.56,356.76c-8.16-3.7-17.09,1.23-20.67,8.8s-1.65,17.61,6.59,21.34,17.1-1.23,20.68-8.8S364.8,360.48,356.56,356.76Zm5.06,20.63c-3.18,6.71-11.09,11.08-18.33,7.8s-9-12.16-5.84-18.92,11.09-11.07,18.33-7.79S364.82,370.63,361.62,377.39Z"/><path class="cls-3" d="M275.29,401.82c-10.26.83-18-7.24-18-17.28q.8-174.87,1.58-349.74c0-10.42,7.85-20.12,18.79-20.15l151-.38c10.48,0,17.23,9.53,17,19.3q-3.69,168.5-7.39,337C438.08,380,430.86,389.23,421,390Z"/><path class="cls-5" d="M196.92,111.84c-.11.19,19.41-11.2,19.41-11.2v-3.9l-1-1c-12.24-11.64-38.45,3.65-47.36,11l-4.4,6.81,5.48-1.35c-8.4,10.55-5.4,17.45-5,18.17.88,2.48,2.9,4.47,6.17,5.78a18.89,18.89,0,0,0,7.72,1c10.45-.49,22.78-7,30.76-13.92l.18-.16,1.59-8-3.1,1.72a192.85,192.85,0,0,1-19.4,7.34c-5.66,1.76-8.27,2-10.12,1.62l-.22-.07a.93.93,0,0,1-.61-.79c-.08-3.54,6-11.15,9.08-14.45a36.52,36.52,0,0,1,11.16-8c2.55-1.08,4.2-1.5,5-1.43a17.45,17.45,0,0,1-1.06,2.47S197.09,111.52,196.92,111.84ZM167,111.3c.2-.26,1.64-2.25,2-2.69l5.1-1.17c-.78.77-1.64,1.7-2.52,2.74Zm40.8,10.89c-7.84,6.81-19.88,13.11-29.89,13.58a17.32,17.32,0,0,1-7.12-.91c-3-1.2-4.67-2.94-5.38-5a9.86,9.86,0,0,0,4.35,3.08,17.58,17.58,0,0,0,7.13.9c10.8-.5,24-7.8,31.66-15.19Zm-19.39,3.34A192.76,192.76,0,0,0,208,118.12c-30.71,25.94-59.69,15.09-31.17-12.18-2.6.59-5.22,1.16-7.78,1.87,9.13-7.55,34.18-21.65,45.36-11l-11.94,7.32c5.13-10.05-4.11-7.69-10.28-4.05a40.94,40.94,0,0,0-8.8,6.92C173.09,117.92,165.9,132.53,188.38,125.53Zm8.33-24.41a37.87,37.87,0,0,0-11.65,8.39c-2.89,3.11-9.57,11.2-9.46,15.46a4.38,4.38,0,0,0,0,.52,3.06,3.06,0,0,1-1.06-2.42c-.1-4.25,6.57-12.35,9.45-15.45a37.87,37.87,0,0,1,11.66-8.39c4.16-1.76,7.38-2.51,7.2.47C201.64,99.3,199.36,100,196.71,101.12ZM215,97.37l0,2.52-14.76,8.93c.16-.17,1.83-3.38,1.93-3.61Z"/><g id="Bud_Light" data-name="Bud Light"><path class="cls-4" d="M140.43,95.76v42.12a3.63,3.63,0,0,1-.55,1,7.38,7.38,0,0,1-1.24.77H61a6.34,6.34,0,0,1-1.2-.74,3.88,3.88,0,0,1-.58-1V95.76c.45-1.45,1.5-1.78,2.9-1.78q37.85,0,75.69,0h.56a2.07,2.07,0,0,1,2,1.46A1.94,1.94,0,0,0,140.43,95.76Zm-40.6-.37H61.89c-1,0-1.3.23-1.3,1.2v40.47c0,.92.26,1.17,1.17,1.18h76c1.05,0,1.26-.21,1.27-1.26V96.88c0-.14,0-.28,0-.42,0-.78-.28-1-1-1.07H99.83Z"/><path class="cls-4" d="M113.14,127.85h-3.39v6.25c-.21,0-.37.05-.53.05-1.72,0-3.44,0-5.16,0-.43,0-.52-.15-.52-.54q0-7.65,0-15.29c0-.15,0-.3,0-.48h6.12v5.93l.5,0c.81,0,1.63,0,2.44,0,.38,0,.51-.09.51-.49,0-1.64,0-3.28,0-4.92v-.55h6.15c0,.18,0,.36,0,.54,0,5,0,10.1,0,15.15,0,.45-.1.62-.59.61-1.7,0-3.41,0-5.11,0-.39,0-.5-.12-.5-.51,0-1.73,0-3.47,0-5.2Z"/><path class="cls-4" d="M108.63,115.81c0-.24,0-.42,0-.6V100.15c0-.65,0-.65.63-.65,2.9,0,5.79,0,8.68,0a6.94,6.94,0,0,1,5.55,2.69,7.41,7.41,0,0,1,1.42,3.67,10.36,10.36,0,0,1-.46,5,7.13,7.13,0,0,1-5.7,4.67,11.3,11.3,0,0,1-2.09.2c-2.49,0-5,0-7.46,0Zm6.18-3.66c2,.29,3.2-.47,3.58-2.37a12.89,12.89,0,0,0,.2-2.84,7.08,7.08,0,0,0-.41-2.19,2.68,2.68,0,0,0-3.37-1.62Z"/><path class="cls-4" d="M87.33,107l.38.21A4,4,0,0,1,90,110.85a4.37,4.37,0,0,1-2.24,4.23,5.57,5.57,0,0,1-2.73.72c-3.39,0-6.78,0-10.18,0l-.18,0V99.54c.12,0,.22,0,.33,0,3.42,0,6.84,0,10.26,0a5.83,5.83,0,0,1,2.16.54,3.47,3.47,0,0,1,2.12,3.22,3.52,3.52,0,0,1-1.82,3.4l-.36.21S87.38,107,87.33,107Zm-6.64,5.36c.85,0,1.66,0,2.47,0a1.07,1.07,0,0,0,.91-.79,2.68,2.68,0,0,0,0-1.79,1.13,1.13,0,0,0-1-.86c-.78-.06-1.58,0-2.39,0Zm0-7.9c0,.45,0,.9,0,1.35,0,.12.18.32.27.32.66,0,1.31,0,2,0a1,1,0,0,0,.87-.69,2.33,2.33,0,0,0,0-1.74,1.16,1.16,0,0,0-1.06-.8c-.59,0-1.19,0-1.78,0-.27,0-.34.12-.34.37C80.67,103.62,80.66,104,80.66,104.47Z"/><path class="cls-4" d="M106.72,99.5V100c0,3.2,0,6.41,0,9.61a10.29,10.29,0,0,1-.38,2.77,4.63,4.63,0,0,1-3.65,3.22,14.09,14.09,0,0,1-7.54-.12,5.06,5.06,0,0,1-3.84-5.11c0-3.52,0-7,0-10.56,0-.09,0-.18,0-.31h6.13v10.89a1.59,1.59,0,0,0,2.14,1.68,1.42,1.42,0,0,0,1.1-1.31c0-.38,0-.78,0-1.17,0-3.19,0-6.38,0-9.57,0-.45.13-.58.58-.57,1.62,0,3.25,0,4.88,0Z"/><path class="cls-4" d="M96.17,128.11h-1.9v-3.23h7.42c0,.16,0,.29,0,.43V133a.48.48,0,0,1-.32.54,16.52,16.52,0,0,1-10.48.61c-3.14-.91-4.76-3.16-5.18-6.33a11.42,11.42,0,0,1,.17-4.24,7.26,7.26,0,0,1,4.4-5.26,11.38,11.38,0,0,1,10.12.49,16,16,0,0,1,1.51,1l-2.8,3.24-.41-.3a5.55,5.55,0,0,0-2.85-1.21,3.09,3.09,0,0,0-3.75,2.78,9.21,9.21,0,0,0,.14,4.27,2.89,2.89,0,0,0,3.5,2.34c.14,0,.37-.19.37-.29C96.18,129.82,96.17,129,96.17,128.11Z"/><path class="cls-4" d="M120.73,117.82h.55c4.36,0,8.72,0,13.08,0,.47,0,.59.15.57.59q0,1.34,0,2.67c0,.49-.15.61-.61.59-.89,0-1.78,0-2.68,0-.62,0-.62,0-.62.6v11.86c-.2,0-.37,0-.53,0-1.79,0-3.57,0-5.35,0-.42,0-.56-.1-.56-.55,0-3.8,0-7.6,0-11.4,0-.45-.12-.58-.57-.57-1,0-1.94,0-2.91,0-.13,0-.37-.16-.38-.25C120.72,120.22,120.73,119.05,120.73,117.82Z"/><path class="cls-4" d="M71.06,117.83V130.1h5.15a1,1,0,0,1,.09.29c0,1.13,0,2.25,0,3.38,0,.42-.27.38-.54.38H66.25c-.39,0-.78,0-1.17,0s-.42-.09-.39-.38v-.05q0-7.74,0-15.47c0-.23,0-.43.34-.43Z"/><path class="cls-4" d="M77.68,117.85h6.41c0,.17,0,.32,0,.47q0,7.65,0,15.29c0,.43-.13.55-.55.55-1.79,0-3.59,0-5.39,0-.4,0-.54-.11-.54-.53,0-5.11,0-10.22,0-15.33C77.65,118.16,77.67,118,77.68,117.85Z"/><path class="cls-4" d="M134.9,133.05a1.12,1.12,0,0,1-1.15,1.15,1.15,1.15,0,0,1,0-2.3A1.12,1.12,0,0,1,134.9,133.05Zm-.18,0a1,1,0,0,0-.94-1,.94.94,0,0,0-1,.93,1,1,0,1,0,1.91,0Z"/><path class="cls-4" d="M134.07,133.22l.14.38-.09.06-.53-.6-.17.55h-.15a3.81,3.81,0,0,1,.12-1.08c0-.08.56,0,.84.06a2.42,2.42,0,0,1,0,.6Z"/></g><path class="cls-4" d="M151.72,150.36a.61.61,0,0,1-.61-.61V83.89a.61.61,0,0,1,.61-.61.61.61,0,0,1,.61.61v65.86A.61.61,0,0,1,151.72,150.36Z"/><path class="cls-4" d="M72.94,144.6a1.88,1.88,0,0,1-.13.72,1.54,1.54,0,0,1-.36.57,1.59,1.59,0,0,1-.56.38,2.11,2.11,0,0,1-1.46,0,1.73,1.73,0,0,1-.57-.38,1.85,1.85,0,0,1-.36-.57,2.06,2.06,0,0,1,0-1.44,1.85,1.85,0,0,1,.36-.57,1.7,1.7,0,0,1,.57-.37,1.9,1.9,0,0,1,.73-.14,2,2,0,0,1,.5.06,1.7,1.7,0,0,1,.44.18,1.56,1.56,0,0,1,.35.27,1.68,1.68,0,0,1,.27.37,1.47,1.47,0,0,1,.16.43A2,2,0,0,1,72.94,144.6Zm-.67,0a1.46,1.46,0,0,0-.08-.52,1.07,1.07,0,0,0-.22-.39.9.9,0,0,0-.35-.25,1.34,1.34,0,0,0-.46-.08,1.4,1.4,0,0,0-.47.08,1.07,1.07,0,0,0-.35.25,1.24,1.24,0,0,0-.22.39,1.72,1.72,0,0,0-.08.52,1.62,1.62,0,0,0,.08.52,1,1,0,0,0,.22.39,1.07,1.07,0,0,0,.35.25,1.4,1.4,0,0,0,.47.08,1.34,1.34,0,0,0,.46-.08.9.9,0,0,0,.35-.25.93.93,0,0,0,.22-.39A1.39,1.39,0,0,0,72.27,144.6Z"/><path class="cls-4" d="M74.18,143.36v1H75.5v.53H74.18v1.43h-.66v-3.52h2.22v.52Z"/><path class="cls-4" d="M76.94,143.36v1h1.32v.53H76.94v1.43h-.66v-3.52H78.5v.52Z"/><path class="cls-4" d="M79.7,146.36H79v-3.52h.66Z"/><path class="cls-4" d="M82.9,145.53a.18.18,0,0,1,.1,0l.26.29a1.49,1.49,0,0,1-.53.4,1.73,1.73,0,0,1-.75.14,1.8,1.8,0,0,1-.71-.13,1.45,1.45,0,0,1-.53-.37,1.5,1.5,0,0,1-.34-.57,2.28,2.28,0,0,1,0-1.46,1.69,1.69,0,0,1,.36-.56,1.75,1.75,0,0,1,.55-.38,2,2,0,0,1,.71-.13,1.65,1.65,0,0,1,.68.13,1.5,1.5,0,0,1,.51.33l-.22.3,0,.06-.08,0-.08,0-.08-.05-.11-.07-.14-.07-.19-.05-.24,0a1.23,1.23,0,0,0-.44.08.9.9,0,0,0-.33.25.93.93,0,0,0-.22.39,1.42,1.42,0,0,0-.08.52,1.69,1.69,0,0,0,.08.53,1.06,1.06,0,0,0,.23.39.88.88,0,0,0,.34.24,1,1,0,0,0,.42.09l.24,0,.2,0,.17-.08.17-.13,0,0Z"/><path class="cls-4" d="M84.37,146.36h-.66v-3.52h.66Z"/><path class="cls-4" d="M88.17,146.36h-.5a.2.2,0,0,1-.14,0,.19.19,0,0,1-.08-.1l-.27-.72H85.72l-.26.72a.24.24,0,0,1-.08.1.2.2,0,0,1-.14,0h-.51l1.39-3.52h.67ZM87,145l-.42-1.17a.75.75,0,0,1-.07-.18c0-.08,0-.15-.07-.24,0,.09,0,.16-.06.24s0,.13-.07.19L85.89,145Z"/><path class="cls-4" d="M90.6,145.82v.54H88.54v-3.52h.65v3Z"/><path class="cls-4" d="M93.32,142.84a2,2,0,0,1,.59.07,1.11,1.11,0,0,1,.41.18.76.76,0,0,1,.23.3.94.94,0,0,1,.07.39.67.67,0,0,1,0,.24.71.71,0,0,1-.11.21.86.86,0,0,1-.48.31c.49.11.73.37.73.79a1.07,1.07,0,0,1-.08.41.9.9,0,0,1-.25.33,1.53,1.53,0,0,1-.4.22,1.88,1.88,0,0,1-.55.07H92.11v-3.52Zm-.56.51v1h.53a.79.79,0,0,0,.5-.13.43.43,0,0,0,.18-.38.48.48,0,0,0-.16-.4.89.89,0,0,0-.49-.11Zm.67,2.5a.87.87,0,0,0,.3,0,.48.48,0,0,0,.2-.12.39.39,0,0,0,.11-.17.66.66,0,0,0,0-.21.64.64,0,0,0,0-.2.48.48,0,0,0-.12-.16.75.75,0,0,0-.2-.1,1.26,1.26,0,0,0-.3,0h-.66v1Z"/><path class="cls-4" d="M96,143.36v1h1.23v.5H96v1h1.56v.52H95.32v-3.52h2.22v.52Z"/><path class="cls-4" d="M98.78,143.36v1H100v.5H98.78v1h1.56v.52H98.12v-3.52h2.22v.52Z"/><path class="cls-4" d="M103.68,146.36h-.6a.25.25,0,0,1-.24-.13l-.74-1.13L102,145l-.15,0h-.28v1.37h-.66v-3.52H102a2.18,2.18,0,0,1,.61.07,1.15,1.15,0,0,1,.43.21.82.82,0,0,1,.24.32,1.11,1.11,0,0,1,.08.41,1,1,0,0,1-.06.34.8.8,0,0,1-.15.29.85.85,0,0,1-.24.22,1.26,1.26,0,0,1-.33.16l.12.08.09.12ZM102,144.52a1,1,0,0,0,.32-.05.58.58,0,0,0,.23-.13.5.5,0,0,0,.13-.19.7.7,0,0,0,0-.25.5.5,0,0,0-.18-.41.89.89,0,0,0-.54-.14h-.42v1.17Z"/><path class="cls-4" d="M107.12,143.48a.28.28,0,0,1-.06.08l-.08,0a.19.19,0,0,1-.12,0l-.14-.08-.19-.09a1,1,0,0,0-.26,0,.86.86,0,0,0-.24,0,.39.39,0,0,0-.17.09.3.3,0,0,0-.11.14.48.48,0,0,0,0,.18.31.31,0,0,0,.07.21.66.66,0,0,0,.18.14l.26.1.3.1.3.12a1,1,0,0,1,.26.18.83.83,0,0,1,.19.26,1,1,0,0,1,.07.37,1.13,1.13,0,0,1-.09.45,1,1,0,0,1-.23.36,1.11,1.11,0,0,1-.39.24,1.38,1.38,0,0,1-.52.09l-.33,0a1.58,1.58,0,0,1-.31-.09,1.25,1.25,0,0,1-.28-.15,1.55,1.55,0,0,1-.24-.19l.19-.31a.13.13,0,0,1,.07-.06.11.11,0,0,1,.08,0,.18.18,0,0,1,.13,0l.17.11.23.11a1,1,0,0,0,.31.05.66.66,0,0,0,.44-.14.46.46,0,0,0,.15-.38.31.31,0,0,0-.07-.22.65.65,0,0,0-.18-.15l-.26-.1-.3-.09c-.1,0-.2-.07-.3-.12a.93.93,0,0,1-.26-.18.64.64,0,0,1-.18-.27,1,1,0,0,1-.07-.41.94.94,0,0,1,.07-.37,1,1,0,0,1,.23-.33.92.92,0,0,1,.36-.22,1.22,1.22,0,0,1,.49-.09,1.48,1.48,0,0,1,.57.1,1.13,1.13,0,0,1,.45.27Z"/><path class="cls-4" d="M109.06,142.84a2.15,2.15,0,0,1,.61.08,1.34,1.34,0,0,1,.43.23.9.9,0,0,1,.25.36,1.33,1.33,0,0,1,.08.45,1.4,1.4,0,0,1-.08.47,1.08,1.08,0,0,1-.26.37,1.27,1.27,0,0,1-.43.24,1.82,1.82,0,0,1-.6.08h-.49v1.24h-.65v-3.52Zm0,1.77a1,1,0,0,0,.32,0,.67.67,0,0,0,.22-.13.57.57,0,0,0,.13-.21.76.76,0,0,0,0-.27.66.66,0,0,0,0-.25.53.53,0,0,0-.13-.2.66.66,0,0,0-.22-.12,1,1,0,0,0-.32,0h-.49v1.26Z"/><path class="cls-4" d="M114.29,144.6a2.09,2.09,0,0,1-.12.72,1.7,1.7,0,0,1-.37.57,1.59,1.59,0,0,1-.56.38,2.11,2.11,0,0,1-1.46,0,1.59,1.59,0,0,1-.56-.38,1.7,1.7,0,0,1-.37-.57,2.06,2.06,0,0,1,0-1.44,1.7,1.7,0,0,1,.37-.57,1.57,1.57,0,0,1,.56-.37,1.9,1.9,0,0,1,.73-.14,2.1,2.1,0,0,1,.51.06,1.63,1.63,0,0,1,.43.18,1.56,1.56,0,0,1,.35.27,1.41,1.41,0,0,1,.27.37,1.84,1.84,0,0,1,.17.43A2,2,0,0,1,114.29,144.6Zm-.67,0a1.72,1.72,0,0,0-.07-.52,1.26,1.26,0,0,0-.23-.39.9.9,0,0,0-.35-.25,1.36,1.36,0,0,0-.92,0,.9.9,0,0,0-.35.25,1.09,1.09,0,0,0-.23.39,1.72,1.72,0,0,0-.08.52,1.62,1.62,0,0,0,.08.52.94.94,0,0,0,.23.39.9.9,0,0,0,.35.25,1.36,1.36,0,0,0,.92,0,.9.9,0,0,0,.35-.25,1.06,1.06,0,0,0,.23-.39A1.64,1.64,0,0,0,113.62,144.6Z"/><path class="cls-4" d="M117.84,142.84v3.52h-.33a.25.25,0,0,1-.13,0,.28.28,0,0,1-.1-.09l-1.84-2.35c0,.11,0,.21,0,.3v2.16h-.58v-3.52h.42l0,0,0,0,0,.05,1.84,2.36c0-.05,0-.11,0-.16v-2.3Z"/><path class="cls-4" d="M120.5,143.48a.17.17,0,0,1-.06.08l-.08,0a.19.19,0,0,1-.11,0l-.14-.08-.2-.09a1,1,0,0,0-.26,0,.86.86,0,0,0-.24,0,.46.46,0,0,0-.17.09.28.28,0,0,0-.1.14.34.34,0,0,0,0,.18.38.38,0,0,0,.07.21.72.72,0,0,0,.19.14,1.28,1.28,0,0,0,.26.1l.3.1.3.12a1.51,1.51,0,0,1,.26.18.81.81,0,0,1,.18.26.82.82,0,0,1,.07.37,1.33,1.33,0,0,1-.08.45.88.88,0,0,1-.24.36,1,1,0,0,1-.38.24,1.42,1.42,0,0,1-.52.09l-.33,0a1.68,1.68,0,0,1-.32-.09,1.51,1.51,0,0,1-.28-.15,1.45,1.45,0,0,1-.23-.19l.19-.31.06-.06a.15.15,0,0,1,.09,0,.2.2,0,0,1,.13,0l.17.11.22.11a1,1,0,0,0,.32.05.63.63,0,0,0,.43-.14.46.46,0,0,0,.15-.38.36.36,0,0,0-.06-.22.58.58,0,0,0-.19-.15l-.26-.1-.3-.09a2.52,2.52,0,0,1-.29-.12,1,1,0,0,1-.27-.18.91.91,0,0,1-.18-.27,1,1,0,0,1-.07-.41,1,1,0,0,1,.08-.37,1,1,0,0,1,.22-.33,1.09,1.09,0,0,1,.36-.22,1.3,1.3,0,0,1,.49-.09,1.57,1.57,0,0,1,.58.1,1.2,1.2,0,0,1,.45.27Z"/><path class="cls-4" d="M124.66,144.6a1.88,1.88,0,0,1-.13.72,1.54,1.54,0,0,1-.36.57,1.59,1.59,0,0,1-.56.38,2.11,2.11,0,0,1-1.46,0,1.59,1.59,0,0,1-.56-.38,1.7,1.7,0,0,1-.37-.57,2.06,2.06,0,0,1,0-1.44,1.7,1.7,0,0,1,.37-.57,1.57,1.57,0,0,1,.56-.37,1.9,1.9,0,0,1,.73-.14,2,2,0,0,1,.5.06,1.71,1.71,0,0,1,.79.45,1.41,1.41,0,0,1,.27.37,1.84,1.84,0,0,1,.17.43A2.63,2.63,0,0,1,124.66,144.6Zm-.67,0a1.46,1.46,0,0,0-.08-.52,1.07,1.07,0,0,0-.22-.39.9.9,0,0,0-.35-.25,1.3,1.3,0,0,0-.46-.08,1.4,1.4,0,0,0-.47.08,1.07,1.07,0,0,0-.35.25,1.24,1.24,0,0,0-.22.39,1.72,1.72,0,0,0-.08.52,1.62,1.62,0,0,0,.08.52,1,1,0,0,0,.22.39,1.07,1.07,0,0,0,.35.25,1.4,1.4,0,0,0,.47.08,1.3,1.3,0,0,0,.46-.08.9.9,0,0,0,.35-.25.93.93,0,0,0,.22-.39A1.39,1.39,0,0,0,124,144.6Z"/><path class="cls-4" d="M128,146.36h-.59a.25.25,0,0,1-.24-.13l-.74-1.13a.28.28,0,0,0-.1-.09l-.14,0h-.28v1.37h-.66v-3.52h1.08a2.22,2.22,0,0,1,.61.07,1.18,1.18,0,0,1,.42.21.82.82,0,0,1,.24.32.94.94,0,0,1,.08.41,1,1,0,0,1,0,.34.8.8,0,0,1-.15.29,1.2,1.2,0,0,1-.57.38l.11.08.1.12Zm-1.68-1.84a1,1,0,0,0,.32-.05.58.58,0,0,0,.23-.13.64.64,0,0,0,.13-.19.69.69,0,0,0,0-.25.52.52,0,0,0-.17-.41.89.89,0,0,0-.54-.14h-.42v1.17Z"/></svg>