<svg xmlns="http://www.w3.org/2000/svg" viewBox="0 0 2380.02 1737.97"><defs><style>.cls-1{fill:#f5f7f9}.cls-2{fill:#ba3d53}.cls-3{fill:#8e2727}.cls-4{fill:#f4afbc}.cls-5{fill:#ffe6ba}.cls-6{fill:#d0b6d4}.cls-7{fill:#234561}.cls-8{fill:#a4dbeb}</style></defs><g id="Layer_1" data-name="Layer 1"><rect width="2380.02" height="1737.97" class="cls-1"/></g><g id="Layer_3" data-name="Layer 3"><rect width="814.19" height="814.19" x="800.46" y="523.51" class="cls-2"/><circle cx="944.84" cy="653.51" r="304.22" class="cls-3"/><path d="M1147.67,364.85c-14.19-5.25-27.78-11-40.47-19.65-15.48-10.67-30.81-21.47-47.39-30.4a280.84,280.84,0,0,0-47.07-19.44c-22.74-7.27-46.46-10.56-70.46-8.12-20.33,2.15-40.67,4.29-60.72,8.28-12.23,2.47-24.23,7.61-35.79,12.37-16.63,7-33.53,14.06-49.3,22.72-16.94,9.4-32.73,20.43-48.55,31.74-24.41,17.68-47.52,36.86-66.33,60.42-16.19,20.25-30.5,41.76-40.26,66.13-9.57,23.68-16.8,48-20.32,73.2-2.37,17.2-3.37,34.79-6.3,51.95-3.49,21-4.88,42.1-3.05,63.26,1.06,14.23,2.54,28.63,4.59,42.8,2.43,16.71,4.56,33.69,9.13,49.86a285.32,285.32,0,0,0,19.68,51.2c9.62,19.9,21,38.26,35.11,54.85,9.41,11.2,19.57,21.76,29.74,32.32,7.68,8,15.35,16.26,24.12,22.79,28.45,21.16,57.69,41.11,91.12,53.52,11.19,4.18,22,9.46,33.47,11.85,13.39,2.8,27.35,3.55,41.07,3.72,12.6.09,25.18-1.37,37.72-2.27.3-.26.88-.5,1.17-.76,17.87-2.89,35.7-5.22,53.47-8.81,15.79-3.19,31.6-6.65,47-11.55,29.13-9.48,57.32-21.28,84.07-36.55,27.63-15.77,52.83-34.66,74.7-58a226.29,226.29,0,0,0,17-19.91c7.63-10.51,14.85-21.19,21.81-32.17a220.6,220.6,0,0,0,25.56-56.56c3.32-11,5.95-22.12,9-33.39,1.39-11.39,2.78-22.78,4.31-34.3.55-3.6,1.22-7.05,1.91-10.79-.16-1.69-.31-3.38-.47-5.08,0-2.66.38-5.29.44-8,.45-4.31,1.05-8.75,1.64-12.91-.39-6.2-.65-12.24-1.19-18.31a47.8,47.8,0,0,0-.82-6.09c0-3.64-.16-7.44-.33-11-.54-2.14-1-4.14-1.5-6.28.49-.94.7-1.91,1.19-2.85l-.48-5.08c-.34-1-.41-2-.76-3-.87-7.35-1.71-15-2.58-22.33-.6-1.31-1.06-2.75-1.67-4.05-.19-1.14-.54-2.14-.61-3.13q-2.48-9.23-5-18.44c-4.68-12.68-9.34-25.64-14.18-38.18-3.77-9.81-8.95-19.44-11.44-29.57-3.14-12.71-4.41-26-8.39-38.74-4.31-14.05-9.06-27.71-16.55-40.31C1199.18,394.57,1176.75,375.54,1147.67,364.85ZM658,752.75c-16.88-43.42-22.28-88.67-22.28-134.91a68.24,68.24,0,0,1,2.2-16.8c2.4-9.91,10.19-14.8,18.74-18.8a31,31,0,0,0,9-5.65c1.5-1.29,2.6-4.85,1.71-6.18-1.4-1.92-4.19-3.95-6.57-4-4.63.08-9.34,1.27-13.89,2.06-4,.55-6.41-.47-5.64-5.32,4.9-34.54,14.84-67.16,32.59-97.38,14.22-24,32.25-44.58,52.28-63.7,32.39-31.12,69.46-55.29,110.13-73.18,45-19.81,92.14-29.94,141.52-24.77a184.67,184.67,0,0,1,68,21c11.33,6.16,22.31,13.13,33.44,20,1.49.81,2.63,2.43,5.53,4.89-12.08.51-22.44.31-32.62,1.52-11.87,1.37-23.56,4.16-35.47,6.08-7.37,1.14-15.06,2.82-22.46,2.41-35.55-2.47-69.2,5.42-101.77,17.88a200,200,0,0,0-59.21,35.73c-16,13.53-32.37,26.9-46.39,42.41-22.53,24.69-43,51.49-58.2,81.62-10.65,21.22-22,42.53-28.71,65.3-9.62,32.08-24.45,62.66-28.17,96.44-2.64,24.75-3.46,49.5.2,74.29.29,1.85.55,4,.69,5.94l-3,1C665.79,771.12,661.68,762.13,658,752.75ZM945.18,380.36c-35.69,20.64-71.11,41.3-102.75,67.84a822,822,0,0,0-87.68,86.18l-2.77-2.3c25.13-43.14,56.62-81,97-111C877.47,399.91,908.64,383.7,945.18,380.36ZM696.54,787.68q20.44,36.81,41.53,74.38C716.74,841.29,700.52,817.68,696.54,787.68ZM895.21,984.75c-4.05-.15-8.13,0-12.16-.47-5.28-.67-10.53-1.62-15.79-2.56-1.65-.4-3.17-.66-4.68-1.19-1.05-.92-2-2-3-2.88-.56,0-1.24-.23-1.8-.27-7.54-2.38-14.94-4.61-22.62-6.85-16.22-8.2-33.23-15.2-48.34-25.14a392.53,392.53,0,0,1-50-38.86,531.11,531.11,0,0,1-48.36-51.76c-9-10.76-14.94-23.94-22.19-36a22,22,0,0,1-1.59-5.16c.45-.39,1-.63,1.48-1,4.35,5.64,8.28,11.4,12.65,16.76,10.69,13,21.08,26.22,32.36,38.68,9.48,10.37,20.28,19.85,30.65,29.44,15.88,14.76,32.53,28.6,51.66,39.26,13.6,7.59,26.88,15.71,40.33,23.43,1,.49,2,.85,3,1.34,3.73.69,7.32,1.52,10.92,2.06,15.93,6.36,32,12.87,47.78,19.35A8.64,8.64,0,0,0,895.21,984.75Zm145.39-45.36c-19.2,11.62-37.41,25-60.25,28.79-9.36,1.55-18.75,1.56-28.2,2.4-2.53.1-4.95.62-7.63.85l-5-1.21-.9-1.05a35.44,35.44,0,0,0-4.17,1.52c-23.36-2.56-46-7.87-66-21.39a16.33,16.33,0,0,1,7.22-1c1.95.14,3.9.28,6,.3,6.24.88,12.64,1.63,18.88,2.51,7.4.4,14.79.8,22.32,1.36,1.09.36,2.3,1.15,3.56,1.1,7.14.11,14.3-.07,21.31-.11a4.93,4.93,0,0,0,1.07-1.19c7.24-1.28,14.37-3,21.55-3.45,24.52-1.84,47.81-8.12,70.95-16.09,1.16-.47,2.7-.5,5,.65C1044.66,935.63,1043.08,938,1040.6,939.39Zm92.46-24.72c-.69-2-1.26-3.88-2.28-7.18-17.16,8.55-33.57,16.45-49.85,24.5-.38-.45-.62-1-.88-1.32,1.85-2.39,3.3-4.95,5.41-7,19.71-18.59,39.29-37.33,62.12-52.61,11.34-7.44,20.92-17.8,30.33-27.76,13.36-14.15,26.48-28.88,38.53-44.25,9.91-13,18.26-27.53,27.25-41.3,1.57-2.41,3-4.68,5.21-8.17C1243.37,806.32,1184,890.25,1133.06,914.67Zm115.12-326.75c6.39,25.84,9.81,52.15,6.74,78.83-3.14,27.8-11.9,53.92-24.23,78.94-12.31,24.74-28.08,47-46.39,67.5-8.53,9.46-17.74,18.45-27.35,27.28,22.12-42.1,41.38-85.39,55.88-130.57s22-91.85,26.77-138.87c1.14-.19,2-.41,3.13-.61C1244.41,576.29,1246.79,582.07,1248.18,587.92Zm-33-82.3c7.23,10.48,5.93,22.57,6.06,34.21-.13,15.27-1.22,30.32-2.47,45.51a437.08,437.08,0,0,1-16.33,93.53c-8,27.58-17,54.94-27,81.82a354.42,354.42,0,0,1-25.31,53.21c-13.07,21.75-27.09,43-42.83,62.86-7.87,9.93-19.89,17.17-31.15,23.77-28.11,16.43-59.21,26.06-91,32.12-9.66,1.82-19.65,2.34-29.55,3.58-1.29.32-2.72.78-4,1.1a2.41,2.41,0,0,0-.92-.77c-.26-.29-.65-.74-.9-1-2,.41-4,.82-5.83,1.11-5.51.58-11,.87-16.5,1.45l-1.81-2.1-.15.13-.3.26-.3.26-1.34,1.16c-1.73-1.39-3.3-2.9-4.35-3.82-2.18,1.1-4.28,2.91-6.23,2.76-6-.3-12.07-1.59-18.06-2.17-8.06-.87-16.15-1.46-24.08-2.19a2.57,2.57,0,0,0-.92-.77l-5.74-2.1-.28,0-1.67-.12c-4.64-1.75-9.15-3.34-13.78-5.08-.73.36-1.48,1-2.21,1.38a30.61,30.61,0,0,0-5-.93c-.91-1.05-2.09-2.12-3-3.16-.85.22-2,.41-2.84.63a3.38,3.38,0,0,0-1.06-.92c-.56,0-1.24-.23-1.8-.27-15.63-4.8-27.48-15.2-38.27-26.78-9.86-10.82-19.73-21.63-28.69-33.22-29.62-37.92-52.81-79.28-57.54-128-2.19-21.88-1-44.36-1.05-66.5.12-26.76,11.84-49.16,26.56-70.5,3.75-5.33,7-11.26,10.33-16.76,15.19-23.83,33.94-44.73,53.75-64.71,19.06-19.34,38.26-38.53,59-56.2,16.28-13.8,34.49-25.35,52.56-36.78,15.71-9.91,32.19-18.65,48.76-27a278.74,278.74,0,0,1,36.56-15.11c16.24-5.67,32.15-.85,48.15,2.56a243.69,243.69,0,0,1,77.2,31.05c20.25,12.56,39.26,26.71,56.39,43.53C1190.78,471.59,1203.16,488.33,1215.21,505.62ZM1149,408.11c-30.11-13.7-60.09-27.26-91.69-41.78,6.35-.51,11.72-1.24,17-1.13,8,.17,16,1,24.12,1.64,12.12,1,20.09,9,27.94,16.63,7.08,6.68,13.57,13.89,20.07,20.81A28.7,28.7,0,0,1,1149,408.11Zm48.06,29c-9.38-11.76-18.6-23.65-28-35.41C1184.88,408.23,1193.36,420.76,1197.07,437.15Z" class="cls-4"/><circle cx="1511.66" cy="890.94" r="202.91" class="cls-5"/><path d="M1754.92,777.44c-10.8-20.86-26.36-37.52-45.15-51A132.36,132.36,0,0,0,1651,703c-8.29-1.23-16.77-.85-25.2-1.21-.84,0-1.71-.16-2.55-.19l-.89.23a6.9,6.9,0,0,0-1.12-.66l-22.55-1.06-5,.56c-2-.22-4-.29-6-.51-.62-.08-1.2-.05-1.82-.13-6,.59-12.12,1.06-18,1.62-21,1.88-41.77,4.8-62.18,10.72-16.75,4.86-33.67,9.05-49.42,16.41A333.88,333.88,0,0,0,1424,745.41c-11.75,7.16-22.66,15.79-34,23.57-10.75,7.39-20.45,16.06-25.74,28-6.56,14.91-12,30.23-17.47,45.47-2.88,7.89-4.82,16.13-7.16,24.24-.89,7.26-1.53,14.58-2.78,21.81-2,12.2.2,24.16,1,36.34.56,6.89.77,13.76,1.55,20.59,1.42,13.95,3.58,27.59,9.94,40.4,1.24,2.54,1.88,5.48,2.81,8.22.43.73.88,1.57,1.3,2.29.68,1.26,1.25,2.55,1.92,3.81.51,1.06,1.1,2,1.61,3,2.43,3.92,4.88,7.94,7.31,11.85.81.39,1.66.89,2.47,1.28.48,0,1,0,1.32,0l-.75,1.27c1.43,1.9,2.76,3.83,4.22,5.84.37.5.85,1,1.19,1.36,1.68,1,3.28,2.15,5,3.26,1.49,2.12,2.87,4.28,4.25,6.43,5.46,4.57,10.94,9.25,16.39,13.83l.2.78c.23-.06.53-.25.87-.34l3.2,2.76c1.26.27,2.41.58,3.67.85,2.76,1.92,5.48,3.73,8.23,5.66,1.75,1.22,3.49,2.45,5.34,3.64,1.52.81,3.14,1.59,4.66,2.39a197.42,197.42,0,0,0,54.82,18.35,161.8,161.8,0,0,0,67.32-1.78c16-4,31.56-9.83,47.24-15.14a231.36,231.36,0,0,0,52.87-25.28A302.95,302.95,0,0,0,1711.57,984a207.35,207.35,0,0,0,33.54-50.64,325.26,325.26,0,0,0,14.94-38.14,204.14,204.14,0,0,0,8.89-48.77C1770.22,822.07,1766.17,799.13,1754.92,777.44Zm-63.64-47.81c-22.16-8-44.7-14.61-67.87-18.6C1647.65,711.29,1670.55,716.54,1691.28,729.63Zm-314.35,281.26c-1.07-.92-2-1.65-2.87-2.37-1.15.65-2.4,1.33-3.66,2-.11,0-.84-1-.76-1.12a16.18,16.18,0,0,1,2.4-2.28c-3.74-7.64-7.78-16-12-24.5.3-.2.72-.42,1-.62,4.23,6.79,8.57,13.55,12.81,20.35.33.39.81.86,1.15,1.25Zm134.18,65.72c-4,.07-7.94.12-11.86.16,0-.47,0-1,0-1.43l11.89-.52C1511.17,1075.41,1511.09,1076,1511.11,1076.61Zm59.79-15c9.89-4.19,19.83-8.15,29.58-12.43a201.47,201.47,0,0,0,43.92-26.33c4-3,7.49-6.56,11.18-9.88a3.27,3.27,0,0,1-.26-.53c0,.22.2.3.26.53,2.79-2.15,5.54-4.4,8.42-6.68,4-4.25,8.36-8.33,12.25-12.66,2.79-3.1,5.29-6.36,7.91-9.65,3-2.79,6-5.46,9-8.25.14-.39.42-.7.56-1.09a4.64,4.64,0,0,1,.61-.87c2.31-2.62,4.54-5.1,6.88-7.6a10.46,10.46,0,0,1,3.66-2.48C1674.63,1016.22,1629.34,1047.91,1570.9,1061.61ZM1747,850.75c-2.81,26.83-12.78,50.83-27.81,73.14-.17.28-.45.59-.61.87-1.22,1.75-2.56,3.52-3.79,5.26-.07.62-.3,1.15-.38,1.77a9.81,9.81,0,0,1-1.23,1.26,59.39,59.39,0,0,1-3.13,5.93c-2.23,2.95-4.62,5.71-7,8.58l-.34.08-.34.09c-.19.64-.27,1.26-.46,1.9a13.18,13.18,0,0,1-.5,1.8l-.78.2c-.64.76-1.4,1.55-2.06,2.19,0,.23.14.56.19.79l-2.23.57c-1.92,2.75-3.72,5.48-5.67,8.12-1.67,2.33-3.65,4.39-5.45,6.64-.7.53-1.43,1-2.13,1.49-.77,1.63-1.58,3.15-2.35,4.77-.87.82-1.84,1.67-2.71,2.48-3.12,3.18-6.21,6.47-9.47,9.57-12.07,11.06-24,22.1-36.27,33-3.12,2.7-6.8,4.6-10.26,6.91-9.56,5.06-19,10.67-28.88,15.23a249.46,249.46,0,0,1-29,10.72c-10.37,3.23-21.2,5.16-31.71,8.31-16,4.81-32,4.35-48.09.58-14.69-3.42-28.57-9.3-41.87-16.16-4.27-2.25-8.2-5.06-12.3-7.6a37,37,0,0,0-3.73-1.55c-2.28-1.92-4.47-4-6.75-5.91l-.78.2c-5.15-4.77-10.46-9.26-15.3-14.23-3.91-4.13-7.27-8.88-10.9-13.32-.59-.44-1.26-.75-1.85-1.19a1.64,1.64,0,0,1-.7.06c-.62-1-1.22-2-1.84-3-.05-.22,0-.58-.09-.81s-.08-.33-.14-.56c-2.62-2.79-5.57-5.49-8-8.56a83.8,83.8,0,0,1-14.45-29.59c-2.62-9.35-5.57-18.61-7.07-28.24-2.26-14.45-4.54-29-4.44-43.59,0-9.66,3.49-19.49,6.41-29A196.45,196.45,0,0,1,1381,814.55c9.56-15.79,20.74-30.32,34.85-42.26a205,205,0,0,1,53.2-32.88c6.65-2.89,13.38-5.44,20.09-8.1a5.13,5.13,0,0,1,.54,1.17c-2.38,1.44-4.72,3-7.26,4.24-18.29,9.07-34.19,21.47-48.57,35.63-13.51,13.34-25.06,28.32-32,46.32a36.87,36.87,0,0,0-1.66,8.41c-.14.87.37,2.41,1.05,2.71a3.4,3.4,0,0,0,2.93-.63c3.32-3.82,6.88-7.59,9.77-11.67,6.29-9,11.73-18.49,18.35-27.09,9.85-12.76,22.43-22.77,35.06-32.54,15.37-11.67,32.49-20.21,50.57-26.84,7.52-2.75,15.15-5.06,22.72-7.58,17-5.65,34.63-6.68,52.33-5.94,18.54.76,36.94,2.39,54.9,7a259.05,259.05,0,0,1,49.42,17.69c8.13,3.89,15.74,9,23.41,13.83,9.47,5.81,13.26,15.58,17.59,25.09,1.42,3.21,2.44,6.77,3.55,10.18C1748.13,810.64,1749.16,830.53,1747,850.75Z" class="cls-6"/><circle cx="1071.51" cy="1226.95" r="193.71" class="cls-7"/><path d="M1313.12,1193.59c-4.45-8-8.41-16-10.81-25-2.89-11-5.65-22-9.74-32.69a169.14,169.14,0,0,0-13.94-27.55,104.88,104.88,0,0,0-29.2-31.61c-10.21-7.06-20.42-14.13-31.24-20.24-6.61-3.71-14.18-6.1-21.39-8.5-10.45-3.35-21-6.82-31.72-9.1-11.54-2.4-23.19-3.59-35-4.67-18.27-1.56-36.53-1.92-54.55,1.44-15.51,2.87-30.65,7.06-44.83,14.37a187.73,187.73,0,0,0-38.45,25.5c-7.93,7-15.38,14.61-23.55,21.32a153.17,153.17,0,0,0-26.56,27.78c-5.16,7-10.21,14.13-14.9,21.44-5.53,8.62-11.29,17.24-15.62,26.46a172.53,172.53,0,0,0-11.29,31.25,154.56,154.56,0,0,0-5.65,39c-.12,8.86.36,17.73.84,26.59.36,6.7.6,13.53,2,20,4.69,20.95,10.22,41.67,20.67,60.59,3.48,6.35,6.37,13,10.69,18.68a130.28,130.28,0,0,0,17.43,18c5.77,5,12.14,9.34,18.26,13.89.24,0,.6.12.84.12,9.38,5.75,18.51,11.74,28.12,17.13a268.24,268.24,0,0,0,26.2,13.29,273.63,273.63,0,0,0,53.23,16.52,192.5,192.5,0,0,0,57.44,3,140.61,140.61,0,0,0,15.74-2.39c7.69-1.8,15.26-3.84,22.83-6.12a134.27,134.27,0,0,0,34.25-15.8c5.89-3.71,11.54-7.78,17.42-11.74,5.17-4.67,10.34-9.34,15.63-14,1.68-1.44,3.36-2.75,5.16-4.19l1.8-2.51c1.09-1.2,2.29-2.28,3.37-3.48,1.92-1.79,4-3.59,5.89-5.27,2.28-3,4.56-5.86,6.73-8.86a27.78,27.78,0,0,0,2-3.11c1.44-1.68,2.88-3.47,4.21-5.15.6-1.2,1.2-2.28,1.8-3.47.6-.24,1.08-.6,1.68-.84l1.8-2.52c.24-.6.6-1.07.84-1.67,2.53-3.72,5.17-7.54,7.69-11.26.24-.83.6-1.68.84-2.51.37-.6.61-1.2,1-1.68l5-10.42c2.89-7.66,5.89-15.45,8.65-23.11,2.17-6,3.61-12.45,6.49-18.08,3.61-7.07,8.3-13.65,11.54-21.08,3.6-8.14,6.85-16.28,8.41-25A75,75,0,0,0,1313.12,1193.59Zm-379.6-16c9.49-26.58,25-49.46,43.38-70.65a41.3,41.3,0,0,1,7.69-6.83c5-3.59,10.58-2.75,16.1-1.2a19.13,19.13,0,0,0,6.37,1c1.2,0,3.13-1.2,3.25-2.15a5.8,5.8,0,0,0-1.45-4.43,54.37,54.37,0,0,0-7.21-4.55c-2-1.32-2.76-2.76-.48-4.67,16-13.9,33.53-24.91,53.72-31.74,16.1-5.39,32.56-7.66,49.38-8.5a229.72,229.72,0,0,1,79.79,10.06c28.6,8.74,54.32,22.75,75,44.66a112,112,0,0,1,23,36.53c2.76,7.3,5,14.85,7.45,22.39.36,1,.24,2.16.6,4.43-5.77-4.55-10.46-8.74-15.62-12.21-6-4.07-12.5-7.43-18.75-11.26-3.84-2.39-8-4.67-11.29-7.78-15.38-15.21-34-24.91-54-32.1a122.14,122.14,0,0,0-41.45-7.06c-12.74-.12-25.6-.48-38.22,1.08-20.18,2.39-40.25,6.58-59.24,14.37-13.34,5.51-27,10.77-39.17,18.56-17.18,10.9-36.17,19-51.31,33-11.06,10.3-21.27,21.31-29.44,34.13-.6,1-1.32,2-2,3l-1.81-.72C929.8,1189,931.48,1183.29,933.52,1177.54Zm280.22-57c-24.63-4.67-49.14-9.22-74.26-9.58a502,502,0,0,0-74.62,4.79l-.36-2.16c28.72-9.82,58.28-14.73,88.8-12.45C1174.81,1102.7,1195.6,1107.61,1213.74,1120.54ZM937.37,1208.8c-3.49,16.64-7,33.52-10.46,50.53C925.35,1241.36,927.27,1224.12,937.37,1208.8Zm13.09,169c-1.8-1.67-3.72-3.23-5.4-5-2.17-2.4-4.21-4.91-6.25-7.43a27.39,27.39,0,0,1-1.68-2.39c-.12-.83-.12-1.68-.24-2.51-.24-.24-.48-.6-.73-.84-2.52-4.07-5-8-7.69-12.1-4.2-10.18-9.25-20.12-12.25-30.65a236.18,236.18,0,0,1-7.57-37.61,318.3,318.3,0,0,1-1.69-42.86c.12-8.5,2.65-16.89,4.09-25.27a13.14,13.14,0,0,1,1.32-3c.36,0,.72.11,1.08.11-.24,4.32-.72,8.5-.84,12.7-.24,10.18-.72,20.36-.48,30.54.24,8.5,1.44,17.12,2.41,25.62,1.44,13,3.6,26,8.17,38.44,3.24,8.86,6.12,17.84,9.25,26.71.24.59.6,1.19.84,1.79,1.44,1.79,2.76,3.59,4.21,5.27,4.8,9.22,9.61,18.56,14.3,27.78A5.33,5.33,0,0,0,950.46,1377.76Zm85,36.76c-13.46-2.27-27.16-3.35-39.17-10.66-4.93-3-9.26-6.7-13.94-10-1.2-1-2.53-1.68-3.85-2.64l-1.8-2.51v-.84a21.63,21.63,0,0,0-2.52-1c-9.74-10.41-18-21.79-21.87-35.93a10.09,10.09,0,0,1,3.72,2.4c.84.84,1.68,1.68,2.65,2.52,2.52,2.87,5.16,5.74,7.69,8.62,3.24,3.11,6.48,6.22,9.73,9.46a6.28,6.28,0,0,0,1.2,1.91c3.24,2.88,6.61,5.63,9.85,8.39a3,3,0,0,0,1-.12c3.84,2.28,7.81,4.31,11.29,6.94,12,8.86,25.24,15.21,39.05,20.72a3.53,3.53,0,0,1,2,2.28A12.28,12.28,0,0,1,1035.42,1414.52Zm52.39,25.27c.48-1.19,1-2.27,1.8-4.19-11.29-2.87-22-5.75-32.68-8.5,0-.36.12-.72.12-1a41,41,0,0,1,5.29-1.08c16.46-.72,32.92-1.55,49.5.48,8.18,1.08,16.71.12,25-.72,11.77-1.2,23.67-2.75,35.33-5,9.73-2,19.34-5.39,29-8.14,1.68-.48,3.24-1,5.64-1.68C1181.66,1433.81,1121,1448.77,1087.81,1439.79Zm182.89-104.18c-7.33,14.37-16.22,27.78-28.24,38.8-12.49,11.49-26.91,20-42.53,26.58a187,187,0,0,1-48.19,12.58c-7.69,1-15.5,1.43-23.43,1.67,26.91-10.54,53-22.75,77.62-37.72s46.63-33.41,67.54-53c.6.36,1.08.6,1.68,1C1273.59,1328.78,1272.38,1332.38,1270.7,1335.61Zm17.55-50.77c-.84,7.66-6.25,12.69-10.82,18.08-6.13,6.95-12.62,13.41-19.23,19.88a265.51,265.51,0,0,1-44.7,36.4c-14.66,9.46-29.68,18.44-44.94,26.83a216.57,216.57,0,0,1-32.8,14.36,362.4,362.4,0,0,1-44.7,11.86c-7.57,1.44-16,0-23.8-1.44-19.46-3.59-37.61-11.49-54.67-21.32-5.17-3-10-6.7-15-10-.72-.36-1.56-.72-2.28-1.08a1.52,1.52,0,0,0-.12-.72v-.83c-1.09-.61-2.17-1.21-3.13-1.8-2.76-1.92-5.41-4-8.17-5.87v-1.68h-1.68c-.24-1.31-.36-2.63-.48-3.47-1.45-.36-3.13-.36-4-1.2-2.64-2.51-4.93-5.5-7.45-8.14-3.36-3.59-6.85-7.07-10.21-10.54a1.52,1.52,0,0,0-.12-.72l-1.81-3.23L958,1340l-.72-.72c-1.44-2.63-2.88-5.15-4.32-7.78-.48-.13-1.08-.13-1.56-.24a19.68,19.68,0,0,0-1.93-2.4c0-.84-.12-1.79-.12-2.63-.48-.24-1.08-.6-1.56-.84a2,2,0,0,0-.12-.84c-.24-.24-.48-.6-.72-.84-5.29-8.38-6.61-17.84-7-27.42-.24-8.86-.48-17.72,0-26.58,1.44-29.1,7.21-57.24,24.39-81.43,7.69-10.9,17.19-20.72,26-30.9,10.69-12.21,25-17.84,40.25-21.79,3.85-1,7.69-2.4,11.42-3.6,16.46-4.9,33.4-7.06,50.47-8.38,16.46-1.32,32.92-2.51,49.51-2.39,13,.12,26,2,38.81,4,11.17,1.68,22.23,4.19,33.16,6.94a169.65,169.65,0,0,1,22.84,7.55c9.73,3.83,15.14,12.33,21.14,20.24a147.26,147.26,0,0,1,23.2,44.78,194.42,194.42,0,0,1,8.65,42.28C1290.53,1259.57,1289.57,1272.14,1288.25,1284.84Zm8.29-70.9c-8.41-18.2-16.83-36.28-25.6-55.44a102.07,102.07,0,0,1,8.29,6.23c3.61,3.23,7,6.82,10.46,10.29,5.16,5.27,5.65,12.1,6.25,18.69.6,5.86.72,11.73,1,17.48A17,17,0,0,1,1296.54,1213.94Zm10.57,32.34c.36-9.11.84-18.21,1.2-27.31C1313,1228.2,1311.92,1237.29,1307.11,1246.28Z" class="cls-8"/></g></svg>