<svg xmlns="http://www.w3.org/2000/svg" viewBox="0 0 444.55 266.91"><defs><style>.cls-1{fill:#f5f7f9}</style></defs><g id="Layer_1" data-name="Layer 1"><rect width="444.55" height="266.91" class="cls-1"/><path d="M216.83,73.85A6.3,6.3,0,0,0,216,72.6a1.29,1.29,0,0,0-1.06-.33,4.88,4.88,0,0,0-2.13.59,13.62,13.62,0,0,0-2.67,1.74,9.24,9.24,0,0,0-2.19,2.34,4.66,4.66,0,0,0-.73,2.41,1.86,1.86,0,0,0,.36,1.21,1.6,1.6,0,0,0,1.09.56,6.29,6.29,0,0,0,2-.34,8.78,8.78,0,0,0,2-1c.68-.44,1.26-.83,1.72-1.19a10,10,0,0,0,1-.92c.46-.52.86-1,1.18-1.39a1.86,1.86,0,0,0,.36-.66,2.29,2.29,0,0,0,.12-.79A1.81,1.81,0,0,0,216.83,73.85ZM172.18,69.2a7.6,7.6,0,0,0-1.33-2.32A12.53,12.53,0,0,0,168.94,65a11.24,11.24,0,0,0-2.19-1.33,22,22,0,0,0-2.61-1c-1-.3-2-.58-3.23-.83a34.51,34.51,0,0,0-3.45-.58,30.54,30.54,0,0,0-3.25-.19,76.31,76.31,0,0,0-8.61.77,67.08,67.08,0,0,0-8,1.65,65.17,65.17,0,0,0-6.88,2.29,38.08,38.08,0,0,0-5.42,2.63c-1.55.94-3,1.9-4.34,2.89a46,46,0,0,0-3.69,3c-1.12,1-2.08,2-2.87,2.91a19.13,19.13,0,0,0-1.88,2.49,13,13,0,0,0-1,2,4.11,4.11,0,0,0-.34,1.42,7.71,7.71,0,0,0,.75,3.43,7.56,7.56,0,0,0,2.25,2.67,9.67,9.67,0,0,0,1.44.92,13,13,0,0,0,1.86.79c.7.23,1.44.47,2.22.68s1.62.41,2.5.58a28.32,28.32,0,0,0,3.89.39c1.73.09,3.84.14,6.39.14l8.28-.33a8.67,8.67,0,0,1,3.16.45A1.45,1.45,0,0,1,145,94.19,4.13,4.13,0,0,1,143.57,97a17.72,17.72,0,0,1-4.32,2.94,63.77,63.77,0,0,1-6.2,2.77c-2.23.83-4.58,1.6-7.08,2.27s-4.92,1.3-7.27,1.84-4.62,1-6.82,1.49-4,.75-5.33,1a21.24,21.24,0,0,1-2.87.33,7.21,7.21,0,0,1-1.21-.07c-.28,0-.41-.1-.41-.19s.19-.2.56-.39,1-.4,1.71-.67a16,16,0,0,0,2-.89,5.1,5.1,0,0,0,.73-.63.72.72,0,0,0,.24-.43c0-.1-.14-.17-.41-.17a4.21,4.21,0,0,0-1.06.17,19.91,19.91,0,0,1-4.41,1.18q-3.06.57-7.85,1.1a2.8,2.8,0,0,0-1.34.32.9.9,0,0,0-.44.82,4.48,4.48,0,0,0,1.2,3,10.77,10.77,0,0,0,3.58,2.51,25.81,25.81,0,0,0,4.67,1.71,18.66,18.66,0,0,0,4.42.56,69.81,69.81,0,0,0,9.48-.77,85.21,85.21,0,0,0,10.11-2.15,69,69,0,0,0,9.76-3.42,55.41,55.41,0,0,0,8.39-4.54,22.16,22.16,0,0,0,5.79-5.26,9.46,9.46,0,0,0,1.93-5.54,6.5,6.5,0,0,0-3.79-6q-3.79-2-11.38-2.12a87.52,87.52,0,0,1-12.68-.67c-2.82-.44-4.22-1.11-4.22-2a3.21,3.21,0,0,1,.79-1.86A12.34,12.34,0,0,1,122.16,81a61.92,61.92,0,0,1,18.56-9.14,75.31,75.31,0,0,1,21.84-3,10.58,10.58,0,0,1,2.69.25c.59.18.88.45.88.79A2.52,2.52,0,0,1,165,71.83a12.64,12.64,0,0,1-3.54,1.73c-3.14,1.07-6.27,2-9.38,2.83a23,23,0,0,0-3.5,1.15c-.77.35-1.16.68-1.16,1s.66.67,2,.85a46,46,0,0,0,6,.29,31.75,31.75,0,0,0,7.21-.73,18.81,18.81,0,0,0,5.65-2.19,13.88,13.88,0,0,0,3.28-2.51,3.57,3.57,0,0,0,1.1-2.36A7.18,7.18,0,0,0,172.18,69.2Z"/><path d="M295.53,88.57a2.24,2.24,0,0,0-.54-.63l-.7.51-1.46,1-1.59,1.13-1.12.82q-6.39,4.53-11.36,7.72t-8.61,5a39,39,0,0,1-7,2.72,25.22,25.22,0,0,1-6.44.9,1.31,1.31,0,0,1-.74-.58,2.21,2.21,0,0,1-.24-1.08,4.4,4.4,0,0,1,.33-1.53,13.5,13.5,0,0,1,1-2,13.11,13.11,0,0,1,1.11-1.62c.31-.36.57-.55.75-.55a1.5,1.5,0,0,1,.89.24,2.48,2.48,0,0,0,.82.92,2.12,2.12,0,0,0,1.16.31,6.66,6.66,0,0,0,2-.51,33.17,33.17,0,0,0,3.47-1.56,32.62,32.62,0,0,0,4.08-2.39,37.57,37.57,0,0,0,3.92-3,16.68,16.68,0,0,0,2.87-3.19,5.48,5.48,0,0,0,.95-2.86,3,3,0,0,0-.41-1.48,6.33,6.33,0,0,0-1.24-1.52,5.78,5.78,0,0,0-1.73-1.16,4.7,4.7,0,0,0-1.88-.4,14.63,14.63,0,0,0-4.71.86,26.63,26.63,0,0,0-5.37,2.59,34.67,34.67,0,0,0-5.31,4,36.08,36.08,0,0,0-4.3,4.59l-1.39,1c-1.91,1.45-3.62,2.73-5.16,3.84s-2.87,2.07-4,2.85-2.22,1.47-3.21,2-1.9,1.06-2.72,1.44-1.52.66-2.08.85a4.59,4.59,0,0,1-1.32.29,1.14,1.14,0,0,1-.7-.19.66.66,0,0,1-.24-.54,10.52,10.52,0,0,1,.12-1.51q.14-.81.36-1.74a8.46,8.46,0,0,1,.89-1.59c.43-.61.82-1.18,1.18-1.65.17-.24.41-.55.7-.89s.63-.75,1-1.22l2.19-2.47L241.06,95q.74-.83,1.74-1.89c.67-.72,1.28-1.41,1.88-2s1.14-1.24,1.66-1.81a1.6,1.6,0,0,0,.32-1.06.88.88,0,0,0-.21-.58,1.8,1.8,0,0,0-.61-.46l-2.27-.65a1.55,1.55,0,0,0-.38-.12,3.84,3.84,0,0,0-.63,0,2.18,2.18,0,0,0-.85.2,5.2,5.2,0,0,0-1.05.62q-3,2.48-6.91,5.36c-2.58,1.91-5.45,4-8.6,6.17l-.41.24c-.05,0-.08,0-.08-.17a1.38,1.38,0,0,1,.25-.45c.17-.24.45-.58.79-1l6.08-8.43a2,2,0,0,0,.41-1.15,1.06,1.06,0,0,0-.37-.77,3.78,3.78,0,0,0-1.13-.68,6.66,6.66,0,0,0-2.15-.65,1.7,1.7,0,0,0-1,.56,10.93,10.93,0,0,0-1.35,1.71c-.37.58-.8,1.21-1.24,1.92q-6,4.38-12.2,8.25-7.42,4.68-15,8.66c-.46.15-.85.29-1.17.36a3.34,3.34,0,0,1-.77.11A1,1,0,0,1,195,107a.83.83,0,0,1-.24-.66,4.41,4.41,0,0,1,.65-2,21,21,0,0,1,1.57-3.17,44.24,44.24,0,0,1,2.62-3.85c1-1.4,2-2.58,2.73-3.57s1.44-1.76,2-2.32,1-1.06,1.38-1.49l1-1a4.44,4.44,0,0,0,.58-.72.9.9,0,0,0,.19-.51.52.52,0,0,0-.12-.36,1.23,1.23,0,0,0-.36-.29,7.89,7.89,0,0,0-1.59-.48,9.09,9.09,0,0,0-1.67-.17,5.65,5.65,0,0,0-1.64.23,6.2,6.2,0,0,0-1.52.66A6.1,6.1,0,0,0,199,88.45c-.66.68-1.5,1.64-2.49,2.87h0q-4.78,3.41-9.29,6.36-6.66,4.32-12.71,7.56a5.58,5.58,0,0,1-.82.36,1.35,1.35,0,0,1-.48.12c-.22,0-.32-.13-.32-.41a4.84,4.84,0,0,1,.61-1.86,30.41,30.41,0,0,1,1.83-3.16c.41-.79,1.21-2.08,2.41-3.9s2.8-4.13,4.81-7a1,1,0,0,0,.16-.57,1,1,0,0,0-.51-.85,3.77,3.77,0,0,0-1.52-.44,8.74,8.74,0,0,0-2,.18,2.52,2.52,0,0,0-1.15.55c-.78.51-1.77,1.2-3,2.07s-2.58,1.89-4.19,3.09-2.82,2.1-3.67,2.72a7.87,7.87,0,0,1-1.43.9l-.09-.08a1.11,1.11,0,0,1,.14-.4,7,7,0,0,1,.39-.7,8.13,8.13,0,0,1,.48-.72c.13-.18.27-.34.37-.46a133.36,133.36,0,0,1,10.59-12.16q7.44-7.82,19.12-19.1a2.4,2.4,0,0,0,.43-.56,1.47,1.47,0,0,0,.13-.56.6.6,0,0,0-.18-.52,1.9,1.9,0,0,0-.74-.32,26.31,26.31,0,0,0-5.11.41,5.9,5.9,0,0,0-2.83,1.21,65.08,65.08,0,0,0-6.7,6.08Q177.61,73,173,78.49c-3.1,3.64-6,7.19-8.66,10.66s-5.18,6.87-7.47,10.17-4,6-5.14,8-1.71,3.49-1.71,4.31a2.38,2.38,0,0,0,.82,1.28,2.35,2.35,0,0,0,1.47.42,1.49,1.49,0,0,0,.73-.18,1.57,1.57,0,0,0,.57-.55,34.21,34.21,0,0,1,4.64-4.75q3.43-3,9.08-7.43c.32-.24.58-.43.78-.55a1.07,1.07,0,0,1,.43-.18c.15,0,.24,0,.24.15a6.44,6.44,0,0,1-.45,2,23.61,23.61,0,0,1-1.33,2.9,23.27,23.27,0,0,0-1.33,2.89,5.63,5.63,0,0,0-.45,2,6.18,6.18,0,0,0,.69,3.23,2.29,2.29,0,0,0,2.06,1.07,11.78,11.78,0,0,0,3.16-.41,24.5,24.5,0,0,0,5.81-3,97.79,97.79,0,0,0,8.32-6.13c1.21-1,2.48-2,3.79-3.1.55-.44,1.1-.9,1.64-1.36a31.3,31.3,0,0,0-2,4.13,9.18,9.18,0,0,0-.71,3.16,7.06,7.06,0,0,0,1.57,5,6.12,6.12,0,0,0,4.7,1.66,11.89,11.89,0,0,0,3.16-.41,24.38,24.38,0,0,0,5.8-3,97.79,97.79,0,0,0,8.32-6.13c1.22-1,2.48-2,3.8-3.09s2.66-2.22,4.08-3.42q.25-.23.51-.42a18.39,18.39,0,0,1-1.4,1.55,36.8,36.8,0,0,1-3.33,4c-1.42,1.5-3.11,3.18-5.11,5a2.73,2.73,0,0,0-.41,1.47,2.34,2.34,0,0,0,.67,1.83,2.86,2.86,0,0,0,2,.62,3,3,0,0,0,1.63-.41,56.82,56.82,0,0,0,6.45-4.46q4.52-3.47,11.57-9.35a1.49,1.49,0,0,1,.46-.3s0,0,0,0a.81.81,0,0,1-.12.27l-.36.58-3.49,4.79a11.18,11.18,0,0,0-1.45,2.7,7.54,7.54,0,0,0-.49,2.58,6.94,6.94,0,0,0,1.57,5,6.1,6.1,0,0,0,4.68,1.66,10.18,10.18,0,0,0,4.47-1.59,59,59,0,0,0,6.94-4.75c2.19-1.69,4.13-3.24,5.86-4.66a10.64,10.64,0,0,0-.22,2.22q0,7.64,6.25,7.64a19.56,19.56,0,0,0,6-1.13,47.63,47.63,0,0,0,7.59-3.38c2.78-1.51,5.41-3,7.89-4.65s4.78-3.23,6.94-4.9,4.1-3.28,5.86-4.79,3.29-2.95,4.66-4.3a2.42,2.42,0,0,0,.55-.68,1.71,1.71,0,0,0,.18-.77A1.27,1.27,0,0,0,295.53,88.57Zm-29.36,3.71c3.35-2.89,5.74-4.34,7.14-4.34a.53.53,0,0,1,.36.1.39.39,0,0,1,.12.31c0,.49-.45,1.18-1.34,2.08a35.47,35.47,0,0,1-4,3.35,43.25,43.25,0,0,1-4.44,3,6.16,6.16,0,0,1-2.67,1c-.15,0-.24-.05-.24-.17,0-.32.43-.92,1.27-1.81S264.48,93.73,266.17,92.28Z"/><path d="M349,149.32a1.46,1.46,0,0,0-.94.29,2.07,2.07,0,0,0-.69.85,80.83,80.83,0,0,1-7.75,7.33c-3,2.51-6.42,5.07-10.27,7.69a11.25,11.25,0,0,1-1.23.66,1.87,1.87,0,0,1-.75.22.51.51,0,0,1-.39-.12.47.47,0,0,1-.14-.37,5.39,5.39,0,0,1,.87-2.53,23.57,23.57,0,0,1,2.62-3.55q1.53-1.8,2.92-3.28c.92-1,1.86-2,2.8-2.89.48-.46.84-.82,1.11-1.09l.51-.5a.81.81,0,0,0,.21-.61,1.15,1.15,0,0,0-.57-.94,4.9,4.9,0,0,0-1.71-.69,1.51,1.51,0,0,0-.56-.17c-1.06,0-2.41.75-4.07,2.24a37.4,37.4,0,0,0-2.76,2.87c-1,1.09-2,2.38-3.09,3.84a66.44,66.44,0,0,0-4.16,6.12c-.32.56-.63,1.11-.9,1.62a12.48,12.48,0,0,0-1.69,5.33,4.1,4.1,0,0,0,.54,2.31,1.88,1.88,0,0,0,1.64.77,8.41,8.41,0,0,0,4.09-1.42,33.21,33.21,0,0,0,5.41-4.27l1.54-1.21c.09,0,.14.08.14.23a.36.36,0,0,1,0,.14,10.17,10.17,0,0,1-1.32,1.81c-.87,1.1-2.15,2.67-3.87,4.72s-3.08,3.6-4.07,4.64-1.62,1.57-1.9,1.61l-1.7-.24a19.79,19.79,0,0,0-4.34,1.13,36.84,36.84,0,0,0-5.08,2.41,36.13,36.13,0,0,0-5.17,3.5,39.27,39.27,0,0,0-4.65,4.41,19.21,19.21,0,0,0-3.28,4.78,10.91,10.91,0,0,0-1.09,4.63,3.66,3.66,0,0,0,.41,1.74,3.81,3.81,0,0,0,1.21,1.33,6.41,6.41,0,0,0,1.74.86,7.14,7.14,0,0,0,2,.29,14.84,14.84,0,0,0,4.13-.6,16.16,16.16,0,0,0,4-1.79,28.45,28.45,0,0,0,4-3.1,49.51,49.51,0,0,0,4.32-4.49c1.49-1.72,3-3.52,4.42-5.36s2.91-3.74,4.34-5.69q7.44-9.87,14-18t12.3-14.48a3.81,3.81,0,0,0,.5-.69,1.51,1.51,0,0,0,.15-.61C352.83,150.15,351.56,149.57,349,149.32Zm-29.93,33.8-.36.53-3.42,4.22c-1.12,1.38-2.39,2.8-3.75,4.27s-2.86,3-4.45,4.54c-3.19,3.11-5.74,5-7.63,5.57q-.33,0-.33-.24a5.84,5.84,0,0,1,.94-2.63,31,31,0,0,1,2.84-4,55.57,55.57,0,0,1,4.05-4.53c1.43-1.45,2.95-2.83,4.56-4.17a26.57,26.57,0,0,1,4.27-3,6.9,6.9,0,0,1,3.16-1c.17,0,.24.06.24.18S319.17,183,319.09,183.12Zm13.7-31a.47.47,0,0,0-.43-.25c-1.43,1-2.8,2-4.13,2.9-1,1.09-2,2.38-3.09,3.84a66.44,66.44,0,0,0-4.16,6.12c1.93-1.61,3.78-3.21,5.54-4.85,2.13-2,3.74-3.57,4.82-4.73s1.6-1.92,1.6-2.26A1.51,1.51,0,0,0,332.79,152.08Zm-95.85-15.17a7.68,7.68,0,0,0-.85-1.24,1.28,1.28,0,0,0-1.06-.33,4.92,4.92,0,0,0-2.14.58,15.61,15.61,0,0,0-2.66,1.75A8.9,8.9,0,0,0,228,140a4.37,4.37,0,0,0-.73,2.4,1.93,1.93,0,0,0,.35,1.22,1.72,1.72,0,0,0,1.1.56,5.81,5.81,0,0,0,2-.34,8.53,8.53,0,0,0,2-1c.69-.44,1.27-.85,1.73-1.19a6.11,6.11,0,0,0,1-.93c.46-.51.86-1,1.18-1.38a1.9,1.9,0,0,0,.36-.67,2.5,2.5,0,0,0,.12-.78A1.8,1.8,0,0,0,236.94,136.91Zm-80.88,39.43a3.2,3.2,0,0,0-.67-.73l-1.71-1.27a4.78,4.78,0,0,0,2.48,2.17A.69.69,0,0,1,156.06,176.34Zm10.62-47.28A9.62,9.62,0,0,0,165,126.2a13.72,13.72,0,0,0-2.55-2.32,15.27,15.27,0,0,0-3.18-1.69,41,41,0,0,0-6.91-2,37.14,37.14,0,0,0-7-.66,71,71,0,0,0-7.91.42,69.33,69.33,0,0,0-7.67,1.29c-2.51.56-4.84,1.19-7,1.87a51.6,51.6,0,0,0-5.79,2.23c-1.73.8-3.42,1.65-5,2.56s-3.21,1.86-4.73,2.88-2.87,2-4,2.84a31.59,31.59,0,0,0-2.9,2.41,45.65,45.65,0,0,0-4.3,4.54,9.2,9.2,0,0,0-1.47,2.39,6.5,6.5,0,0,0-.5,2.48l.41,1.71a5.43,5.43,0,0,0,.68,1.78,9.63,9.63,0,0,0,1.39,1.76,5.65,5.65,0,0,0,2,1.31,6.92,6.92,0,0,0,2.51.44,12.73,12.73,0,0,0,5.36-1.31,26.57,26.57,0,0,0,5.84-4c.89-.76,1.71-1.49,2.46-2.17s1.44-1.35,2-2,1.14-1.19,1.62-1.71.89-1,1.21-1.38.6-.73.77-1a1.3,1.3,0,0,0,.26-.46.16.16,0,0,0-.12-.15.92.92,0,0,0-.36,0,6,6,0,0,0-2.27.87c-1.08.58-2.5,1.45-4.22,2.61-1.11.65-2.33,1.3-3.68,2s-2.78,1.33-4.33,2-2.81,1.18-3.73,1.52a7.16,7.16,0,0,1-1.84.52,2.23,2.23,0,0,1-.67-.07c-.15,0-.22-.12-.22-.21a.92.92,0,0,1,.15-.39,4.22,4.22,0,0,1,.5-.62,29.68,29.68,0,0,1,6-5.56,49.92,49.92,0,0,1,8.49-4.87,95.09,95.09,0,0,1,9.77-3.9,83.88,83.88,0,0,1,9.81-2.65c3.28-.68,6.3-1.17,9-1.52a62.32,62.32,0,0,1,7.53-.51c2.26,0,4.22.09,5.86.24a21.13,21.13,0,0,1,4.05.74,6,6,0,0,1,2.34,1.19,2.23,2.23,0,0,1,.79,1.64,2.5,2.5,0,0,1-.35,1.23,4.88,4.88,0,0,1-1,1.28,48.8,48.8,0,0,1-8.11,6.25A89.75,89.75,0,0,1,142.78,146c-2,.89-4.32,1.8-6.93,2.68s-5.55,1.8-8.82,2.69h-.32a.36.36,0,0,1-.41-.41,1.28,1.28,0,0,1,.25-.6,10.75,10.75,0,0,1,.79-1c1.33-1.76,3.21-4,5.64-6.64s5.43-5.79,9-9.37a2,2,0,0,0,.49-.61,1.72,1.72,0,0,0,.15-.72,1.3,1.3,0,0,0-.2-.71,2.19,2.19,0,0,0-.63-.62,5.8,5.8,0,0,0-.79-.43,1.68,1.68,0,0,0-.66-.13,1.34,1.34,0,0,0-.64.17,3,3,0,0,0-.7.48A47.3,47.3,0,0,0,134,134q-2.57,1.86-5.28,4.25A137,137,0,0,0,116.24,151a170.64,170.64,0,0,0-11.86,15.39,15.52,15.52,0,0,0-1.21,2.68,7.2,7.2,0,0,0-.41,2.22,6.42,6.42,0,0,0,.25,1.85,5.48,5.48,0,0,0,.79,1.54,8.08,8.08,0,0,0,1,1.16,5.26,5.26,0,0,0,1,.71,3.69,3.69,0,0,0,.84.36,1.66,1.66,0,0,0,.58.12c.16,0,.26-.1.34-.32a3.42,3.42,0,0,0,.11-1,44.48,44.48,0,0,1,4.81-7.8c2.53-3.54,6-8,10.37-13.38.17-.22.31-.32.45-.32s.23.1.29.32q1.89,2.64,6.56,7.88c3.09,3.48,7.1,7.86,12,13.07a12,12,0,0,0,4,2.56,15.66,15.66,0,0,0,8.79.41c.88-.29,1.32-.74,1.32-1.33a1,1,0,0,0-.14-.55c0-.05-.05-.12-.08-.17a3.45,3.45,0,0,0-.67-.74l-1.71-1.26a83.42,83.42,0,0,1-6.78-6q-4.74-4.65-10.5-11.31a.86.86,0,0,1-.33-.57.8.8,0,0,1,.41-.64,3.66,3.66,0,0,1,1.21-.48q8.21-3.33,13.94-6.36a53.78,53.78,0,0,0,9-5.74,22.31,22.31,0,0,0,4.94-5.43,10.46,10.46,0,0,0,1.64-5.43A9.26,9.26,0,0,0,166.68,129.06Z"/><path d="M328.23,154.73c-1,1.09-2,2.38-3.09,3.84a66.44,66.44,0,0,0-4.16,6.12c-.42.36-.85.7-1.29,1.06q-3.62,2.92-7.67,5.79a53.85,53.85,0,0,1-7,4.29,11.64,11.64,0,0,1-4.77,1.43,5,5,0,0,1-5.67-5.69,9.46,9.46,0,0,1,.51-3,11.42,11.42,0,0,1,1.56-2.93,21.17,21.17,0,0,1,3.21-3.39,70.35,70.35,0,0,1,5.52-4.37,8.6,8.6,0,0,1-1.63-.17c-.61-.12-1.33-.29-2.12-.51a9.57,9.57,0,0,1-1.93-.76,3.09,3.09,0,0,1-1.07-.9c-.7.63-1.66,1.45-2.89,2.49s-2.7,2.29-4.42,3.76a3.9,3.9,0,0,1-1,.53c-1.29,1.15-2.55,2.22-3.76,3.25s-2.67,2.2-3.93,3.21c-3.42,2.77-6.3,4.93-8.7,6.54a24.77,24.77,0,0,1-5.6,3,10.18,10.18,0,0,1-1.59.31,15.47,15.47,0,0,1-1.86.1,3.85,3.85,0,0,1-1.91-.51,6.27,6.27,0,0,1-1.75-1.52,7,7,0,0,1-1.24-2.39,9.8,9.8,0,0,1,.72-7.4,28.2,28.2,0,0,1,1.84-3.43L259.49,166c-1.64,1.33-3.33,2.62-5.09,3.85s-3.56,2.39-5.43,3.5a32.38,32.38,0,0,1-5,2.49,10.84,10.84,0,0,1-3.7.84,7,7,0,0,1-5.72-2.29c-1.29-1.52-1.92-3.83-1.92-6.88a1.63,1.63,0,0,1,.16-.71,2.15,2.15,0,0,1,.46-.63,1.86,1.86,0,0,1,.7-.46,2.44,2.44,0,0,1,.89-.15,1.62,1.62,0,0,0,.1.51,4.56,4.56,0,0,0,.34.73,6.72,6.72,0,0,0,.94,1.42,4.67,4.67,0,0,0,1.79,1,7.77,7.77,0,0,0,2.46.35c1.86,0,3.61-1.15,5.2-3.45a26.68,26.68,0,0,0,2.05-3.47,21.28,21.28,0,0,0,1.33-3.52c.32-1.18.56-2.24.73-3.18a13.9,13.9,0,0,0,.24-2.46.52.52,0,0,0-.2-.43,1.33,1.33,0,0,0-.64-.13,2.2,2.2,0,0,0-.92.22l-.31.15a2.81,2.81,0,0,1-.51.6c-.27.24-.6.55-1,.89l-1.33,1.21c-.5.46-1.23,1.11-2.19,1.93l-3.53,3c-1.4,1.19-2.77,2.32-4.09,3.41s-2.58,2.1-3.79,3.1a102.37,102.37,0,0,1-8.32,6.13,24.29,24.29,0,0,1-5.81,3,11.39,11.39,0,0,1-3.16.41,6.12,6.12,0,0,1-4.68-1.65,7.06,7.06,0,0,1-1.57-5,9,9,0,0,1,.72-3.16,28.71,28.71,0,0,1,2.14-4.27c.93-1.61,1.91-3.13,2.88-4.55s2-2.75,3-4,1.83-2.18,2.49-2.87a5.92,5.92,0,0,1,1.49-1.23,6.37,6.37,0,0,1,1.52-.66,5.6,5.6,0,0,1,1.64-.22,7.45,7.45,0,0,1,1.65.17,7.32,7.32,0,0,1,1.59.49.84.84,0,0,1,.36.29.54.54,0,0,1,.12.36,1.15,1.15,0,0,1-.19.51,4,4,0,0,1-.58.72l-1,1-1.38,1.49c-.53.56-1.18,1.35-2,2.32s-1.69,2.17-2.73,3.57-1.92,2.68-2.62,3.85a19.66,19.66,0,0,0-1.57,3.17,4.34,4.34,0,0,0-.65,2,.9.9,0,0,0,.24.66,1,1,0,0,0,.74.22,3,3,0,0,0,.77-.12c.32-.08.71-.2,1.17-.35q7.44-3.9,14.71-8.48a.82.82,0,0,1,0-.25.71.71,0,0,1,.15-.36,2.58,2.58,0,0,1,.39-.33c.19-.13.46-.3.79-.49q3-2.09,7.11-5.43t9.29-8a5.73,5.73,0,0,1,1.16-1.22,1.79,1.79,0,0,1,1-.41,7.78,7.78,0,0,1,1.3.16c.55.1,1.2.25,1.95.46a6.44,6.44,0,0,1,1.71.67,1,1,0,0,1,.56.76,45.9,45.9,0,0,1-.22,4.65,40.09,40.09,0,0,1-.67,4.2c-.29,1.34-.6,2.5-.9,3.5a21.58,21.58,0,0,1-.93,2.55c-.3.68-.54,1.21-.7,1.59a4.89,4.89,0,0,0-.24.63.15.15,0,0,0,.17.17,1.86,1.86,0,0,0,.65-.24,70.1,70.1,0,0,0,6.92-4.06q3.11-2,6.75-4.67c.2-.24.41-.46.63-.7a92.66,92.66,0,0,1,7-6.81,2.84,2.84,0,0,0,.55-.55.9.9,0,0,0,.19-.51c0-.17-.14-.29-.43-.36a4.71,4.71,0,0,0-1.28-.12l-5.11.17a40.76,40.76,0,0,1-8.18-.61c-1.85-.41-2.84-1-2.94-1.83a5.93,5.93,0,0,1-1.9-.62,1,1,0,0,1-.63-.85.32.32,0,0,1,.33-.36,5.07,5.07,0,0,0,.56-.09l.82-.12,2.53-.35c1.5-.23,3.64-.53,6.44-.94s5.79-.79,9-1.11,6.56-.65,10.13-.93l5.61-7.46a1.64,1.64,0,0,1,1.09-.74,9.26,9.26,0,0,1,2.3-.23,6,6,0,0,1,2.19.3c.5.21.74.52.74.91a1.68,1.68,0,0,1-.16.56,6,6,0,0,1-.49.89l-2,2.84c-.13.42-.24.82-.32,1.14a3.79,3.79,0,0,0-.15.82.48.48,0,0,0,.29.43,1.89,1.89,0,0,0,.85.13l4.13-.08a37.59,37.59,0,0,1,6.94.56,13.78,13.78,0,0,1,4.75,1.71,4,4,0,0,1,1.33.65,1.05,1.05,0,0,1,.44.82.65.65,0,0,1-.39.55,3.74,3.74,0,0,1-1.18.34c-.53.08-1.7.22-3.53.44l-7.43.82c-3.13.34-5.76.6-7.91.8s-3.79.33-5,.38a6.14,6.14,0,0,0-2.55,1.38,57.6,57.6,0,0,0-4.56,4c-1.86,1.76-3.66,3.61-5.43,5.54s-3.49,4-5.16,6.06a45.76,45.76,0,0,0-3.78,5.38,7.9,7.9,0,0,0-1.26,3.47.82.82,0,0,0,.41.69,1.81,1.81,0,0,0,1,.29,3.37,3.37,0,0,0,.79-.12c.33-.09.7-.21,1.13-.36q7.71-4.56,15.2-9.52,6.1-4,12.06-8.39a13.18,13.18,0,0,1-1.71-1.46,6.25,6.25,0,0,1-1.19-1.73,2.47,2.47,0,0,1-.24-.82,3.13,3.13,0,0,1,.25-1.35,1.75,1.75,0,0,1,.79-.8,4.85,4.85,0,0,1,1.38-.39,13.23,13.23,0,0,1,2-.14,6.29,6.29,0,0,1,1.76.55c.87.35,2.05.92,3.52,1.64s2.64,1.28,3.58,1.64a6.78,6.78,0,0,0,2,.54,6.63,6.63,0,0,0,1.42-.17c.55-.12,1.18-.29,1.88-.51a12.68,12.68,0,0,1,1.9-.51,7.13,7.13,0,0,1,1.47-.17,4.34,4.34,0,0,1,1.09.13,1.6,1.6,0,0,1,.73.43,25.35,25.35,0,0,1,1.52,2.15,2.86,2.86,0,0,1,.52,1.09,1,1,0,0,1-.14.52,1.37,1.37,0,0,1-.39.41c-.17.12-.55.37-1.1.77s-1.29.9-2.23,1.55c-1.87,1.3-3.69,2.63-5.49,4-.89.68-1.76,1.4-2.59,2.15s-1.66,1.56-2.45,2.39A13.15,13.15,0,0,0,303,167.7a3.72,3.72,0,0,0-.58,1.79c0,.17.14.24.41.24,1.47,0,4.65-1.49,9.59-4.44C316.47,162.71,321.75,159.22,328.23,154.73Z"/><path d="M211,151.79a10.7,10.7,0,0,0-1-.7,1.6,1.6,0,0,0-.67-.24,1.67,1.67,0,0,0-.65.09,3.88,3.88,0,0,0-1.55-1.4,10,10,0,0,0-2.74-1,24.63,24.63,0,0,0-5.6,1.32,29,29,0,0,0-5.47,2.66,46.52,46.52,0,0,0-4.9,3.47,31.89,31.89,0,0,0-3.91,3.76c-.38.42-.74.83-1.08,1.24-.63.41-1.24.82-1.84,1.2q-5,3.18-8.61,5a37.5,37.5,0,0,1-7,2.71,24.81,24.81,0,0,1-6.44.91,1.31,1.31,0,0,1-.74-.58,2.28,2.28,0,0,1-.24-1.09,4.41,4.41,0,0,1,.33-1.54,13.5,13.5,0,0,1,1-1.95,13.94,13.94,0,0,1,1.11-1.62c.31-.36.57-.53.75-.53a1.43,1.43,0,0,1,.89.24,2.33,2.33,0,0,0,.82.9,2.12,2.12,0,0,0,1.16.31,6.66,6.66,0,0,0,2.05-.51,35.14,35.14,0,0,0,3.47-1.56,33.57,33.57,0,0,0,4.1-2.39,41.65,41.65,0,0,0,3.91-3,15.22,15.22,0,0,0,2.87-3.19,5.41,5.41,0,0,0,1-2.86,3.13,3.13,0,0,0-.41-1.48,6.16,6.16,0,0,0-1.25-1.52,5.61,5.61,0,0,0-1.72-1.16,4.7,4.7,0,0,0-1.88-.4,14.58,14.58,0,0,0-4.72.87,29.12,29.12,0,0,0-5.36,2.58,35.91,35.91,0,0,0-5.31,3.93,36.91,36.91,0,0,0-4.56,4.92,22.19,22.19,0,0,0-3.13,5.25,13.23,13.23,0,0,0-1,4.93,10.11,10.11,0,0,0,1.06,5c.58.46,1.16.87,1.71,1.27a2.58,2.58,0,0,1,.66.73.7.7,0,0,1,.09.17,7,7,0,0,0,2.73.48,19.62,19.62,0,0,0,6.05-1.13,48,48,0,0,0,7.58-3.38c1.75-.94,3.42-1.9,5-2.87-.05.1-.08.2-.13.31a5.42,5.42,0,0,0-.53,2.08,4.42,4.42,0,0,0,.3,1.61,6.58,6.58,0,0,0,.91,1.52,3.61,3.61,0,0,0,1.47,1.09,4.9,4.9,0,0,0,1.94.36,7,7,0,0,0,2.55-.6,18.68,18.68,0,0,0,3.23-1.79c1.19-.81,2.2-1.52,3.06-2.15a24.74,24.74,0,0,0,2-1.66l1.33-1.27c.4-.37.72-.7,1-1a7.56,7.56,0,0,1,.66-.61.78.78,0,0,1,.39-.21v0a5,5,0,0,1-.58,1,2.06,2.06,0,0,1-.41.56,2.09,2.09,0,0,0-.24.33L192.9,171c-1.47,1.53-2.82,3.05-4.08,4.54s-2.41,3-3.47,4.39c-.6.82-1.69,2.15-3.31,4s-3.73,4.27-6.36,7.2c-2.37,2.44-4.49,4.49-6.33,6.16a54.22,54.22,0,0,1-4.72,3.9,11.5,11.5,0,0,1-1.35.78,2.17,2.17,0,0,1-.77.26.6.6,0,0,1-.36-.09.26.26,0,0,1-.12-.24,6.09,6.09,0,0,1,1.44-3.16,40.92,40.92,0,0,1,4.29-4.76c1.91-1.85,3.93-3.64,6-5.37s4.34-3.38,6.66-5a4.08,4.08,0,0,0,.61-.5c.14-.14.21-.24.21-.32s-.05-.14-.17-.19a1.33,1.33,0,0,0-.5-.07,13.19,13.19,0,0,0-5.43,1.59,52.86,52.86,0,0,0-7.69,4.78,34.06,34.06,0,0,0-6.61,6,8.5,8.5,0,0,0-2.2,5.13,5.65,5.65,0,0,0,.82,3.14,5.15,5.15,0,0,0,2.44,2,9.64,9.64,0,0,0,1.71.54,8.22,8.22,0,0,0,1.71.19,18.34,18.34,0,0,0,4.06-1.37,25.78,25.78,0,0,0,4.26-2.49c1.45-1,2.78-2,4-3.11a40.62,40.62,0,0,0,3.4-3.23c1-1.09,2.05-2.25,3.07-3.48s2-2.51,3.06-3.86,1.86-2.5,2.53-3.44,1.16-1.67,1.48-2.2.77-1.21,1.34-2.07,1.24-1.84,2-3,2-2.82,3.52-4.94,3.47-4.75,5.77-7.84,4.09-5.48,5.35-7.14,2-2.6,2.24-2.82a2.24,2.24,0,0,0,.51-.68,1.61,1.61,0,0,0,.17-.74C212.22,153,211.83,152.41,211,151.79Zm-45.79,7.07c.83-.88,2.1-2.05,3.77-3.5,3.37-2.9,5.74-4.34,7.14-4.34a.5.5,0,0,1,.36.11.34.34,0,0,1,.12.3c0,.5-.44,1.18-1.33,2.09a38.06,38.06,0,0,1-4,3.35,43.25,43.25,0,0,1-4.44,3,6.3,6.3,0,0,1-2.67,1c-.17,0-.24-.06-.24-.16C164,160.35,164.41,159.75,165.25,158.86Zm40.62-4.21c-.72.71-1.78,1.69-3.2,2.93s-2.92,2.5-4.51,3.74-3.24,2.5-5,3.75c-3.49,2.49-6,3.79-7.35,3.89-.22,0-.32-.09-.32-.24a3.21,3.21,0,0,1,.82-1.5,30.53,30.53,0,0,1,2.44-2.72,39.85,39.85,0,0,1,3.74-3.38q2.1-1.73,4.71-3.5a36.9,36.9,0,0,1,5-2.91,19.65,19.65,0,0,1,4.46-1.55c.22,0,.32.05.32.17A5,5,0,0,1,205.87,154.65Z"/></g><g id="Layer_2" data-name="Layer 2"><path d="M18.67,245.82v2.89h3.46v1H18.67v3.65H17.39v-8.62h5.34v1Z"/><path d="M26,247.21a3.19,3.19,0,0,1,1.22.22,2.37,2.37,0,0,1,.92.63,2.87,2.87,0,0,1,.59,1,4,4,0,0,1,.2,1.3,4.08,4.08,0,0,1-.2,1.3,2.87,2.87,0,0,1-.59,1,2.6,2.6,0,0,1-.92.63,3.4,3.4,0,0,1-1.22.21,3.36,3.36,0,0,1-1.22-.21,2.73,2.73,0,0,1-.93-.63,2.87,2.87,0,0,1-.59-1,4.08,4.08,0,0,1-.2-1.3,4,4,0,0,1,.2-1.3,2.87,2.87,0,0,1,.59-1,2.48,2.48,0,0,1,.93-.63A3.16,3.16,0,0,1,26,247.21Zm0,5.36a1.48,1.48,0,0,0,1.29-.58,3.34,3.34,0,0,0,0-3.28,1.48,1.48,0,0,0-1.29-.58,1.5,1.5,0,0,0-1.3.58,3.34,3.34,0,0,0,0,3.28A1.5,1.5,0,0,0,26,252.57Z"/><path d="M31.34,248.47a2.79,2.79,0,0,1,.7-.94,1.52,1.52,0,0,1,1-.34,1.58,1.58,0,0,1,.38.05.91.91,0,0,1,.3.13l-.07.88a.19.19,0,0,1-.2.16l-.25,0-.36,0a1.5,1.5,0,0,0-.5.08,1.06,1.06,0,0,0-.39.24,1.75,1.75,0,0,0-.3.39,4.21,4.21,0,0,0-.25.52v3.82H30.23v-6.1h.67a.44.44,0,0,1,.27.07.55.55,0,0,1,.09.25Z"/><path d="M34.63,253.4v-6.1h.7a.29.29,0,0,1,.31.24l.08.58a3.1,3.1,0,0,1,.75-.66,1.76,1.76,0,0,1,1-.25,1.46,1.46,0,0,1,1,.33,1.94,1.94,0,0,1,.55.9,1.89,1.89,0,0,1,.34-.55,1.91,1.91,0,0,1,.47-.39,2,2,0,0,1,.55-.22,2.53,2.53,0,0,1,1.45.08,1.65,1.65,0,0,1,.65.45,1.87,1.87,0,0,1,.4.72,3.33,3.33,0,0,1,.14,1v3.88H41.79v-3.88a1.58,1.58,0,0,0-.29-1,1.06,1.06,0,0,0-.87-.35,1.28,1.28,0,0,0-.48.09,1,1,0,0,0-.4.26,1.32,1.32,0,0,0-.27.43,1.79,1.79,0,0,0-.1.6v3.88H38.21v-3.88a1.62,1.62,0,0,0-.29-1.05,1,1,0,0,0-.82-.33,1.27,1.27,0,0,0-.71.2,2.28,2.28,0,0,0-.59.54v4.52Z"/><path d="M49.55,252.53a2.36,2.36,0,0,1-.5.44,2.38,2.38,0,0,1-.6.29,3.66,3.66,0,0,1-.65.17,3.85,3.85,0,0,1-.67,0,3.2,3.2,0,0,1-1.17-.21,2.58,2.58,0,0,1-.93-.62,2.89,2.89,0,0,1-.61-1,4.07,4.07,0,0,1-.22-1.4,3.54,3.54,0,0,1,.2-1.19,2.81,2.81,0,0,1,.57-1,2.58,2.58,0,0,1,.9-.64,3,3,0,0,1,1.2-.23,2.9,2.9,0,0,1,1,.18,2.32,2.32,0,0,1,.81.53,2.43,2.43,0,0,1,.54.86,3.25,3.25,0,0,1,.19,1.16.77.77,0,0,1-.06.37.24.24,0,0,1-.22.09h-4a3.69,3.69,0,0,0,.16.95,1.94,1.94,0,0,0,.38.68,1.55,1.55,0,0,0,.58.4,2,2,0,0,0,.75.13,2.17,2.17,0,0,0,.67-.09c.19-.06.36-.13.5-.19l.34-.2A.51.51,0,0,1,49,252a.28.28,0,0,1,.23.11Zm-1-2.86a2.2,2.2,0,0,0-.1-.64,1.83,1.83,0,0,0-.29-.51,1.43,1.43,0,0,0-.47-.33,1.62,1.62,0,0,0-.64-.12,1.57,1.57,0,0,0-1.16.42,2.13,2.13,0,0,0-.54,1.18Z"/><path d="M52,248.47a2.79,2.79,0,0,1,.7-.94,1.52,1.52,0,0,1,1-.34,1.44,1.44,0,0,1,.37.05,1,1,0,0,1,.31.13l-.07.88a.19.19,0,0,1-.2.16l-.25,0-.36,0a1.5,1.5,0,0,0-.5.08,1,1,0,0,0-.39.24,1.75,1.75,0,0,0-.3.39,4.21,4.21,0,0,0-.25.52v3.82H50.9v-6.1h.67a.38.38,0,0,1,.26.07.45.45,0,0,1,.1.25Z"/></g></svg>