<svg id="Layer_1" data-name="Layer 1" xmlns="http://www.w3.org/2000/svg" viewBox="0 0 444.5 266.9"><defs><style>.cls-1{fill:#ba3d54;}.cls-2{fill-opacity:0.25;}.cls-3{fill:#fff;}</style></defs><rect class="cls-1" width="444.5" height="266.9"/><path class="cls-2" d="M85.5,115a6.55,6.55,0,0,1-3.08.5,21.31,21.31,0,0,1-5.14-.69A33.36,33.36,0,0,1,72,113a21.42,21.42,0,0,1-4.39-2.63L61.8,120a23.7,23.7,0,0,0,5.83,3.45A38.41,38.41,0,0,0,75,125.55a45.91,45.91,0,0,0,7.9.69,26.34,26.34,0,0,0,9.41-1.57,14.48,14.48,0,0,0,6.64-4.76,13.43,13.43,0,0,0,2.45-8.28,9.81,9.81,0,0,0-3.26-7.83q-3.21-2.82-9.53-4.27l-5.71-1.31c-1.17-.29-2.15-.57-2.94-.82s-1.13-.62-1.13-1.13a1.51,1.51,0,0,1,.94-1.37,7.5,7.5,0,0,1,3.45-.57,18.79,18.79,0,0,1,6.95,1.26,28.18,28.18,0,0,1,6.21,3.32l5.89-9.41q-7.33-5.88-19-5.89a27.73,27.73,0,0,0-10.6,1.82,14.82,14.82,0,0,0-6.64,4.95,12.57,12.57,0,0,0-2.26,7.46,10.54,10.54,0,0,0,1.88,6.58,11.93,11.93,0,0,0,4.89,3.64,39.27,39.27,0,0,0,6.33,2l6.27,1.37a9.6,9.6,0,0,1,2.57.88,1.44,1.44,0,0,1,.75,1.32A1.64,1.64,0,0,1,85.5,115Z"/><polygon class="cls-2" points="131.66 99.47 120.31 99.47 120.31 84.24 105.71 84.24 105.71 125.61 120.31 125.61 120.31 110.19 131.66 110.19 131.66 125.61 146.27 125.61 146.27 84.24 131.66 84.24 131.66 99.47"/><rect class="cls-2" x="152.54" y="84.24" width="14.61" height="41.37"/><polygon class="cls-2" points="186.08 110.25 185.83 101.73 185.95 101.73 188.21 106.81 198.11 125.61 213.91 125.61 213.91 84.24 201.25 84.24 201.25 99.6 201.5 108.12 201.37 108.12 199.12 103.11 189.21 84.24 173.41 84.24 173.41 125.61 186.08 125.61 186.08 110.25"/><polygon class="cls-2" points="255.29 114.89 234.79 114.89 234.79 110 250.71 110 250.71 100.1 234.79 100.1 234.79 94.96 254.54 94.96 254.54 84.24 220.19 84.24 220.19 125.61 255.29 125.61 255.29 114.89"/><path class="cls-2" d="M104.24,157.48A11.72,11.72,0,0,0,99.91,148q-4.32-3.63-12.41-3.64H65.06v41.38H79.35V172h4l7.34,13.73h15.86L96.47,169.83Q104.24,166.82,104.24,157.48Zm-15.8,4.07a5.85,5.85,0,0,1-3.45.82H79.35v-7.65H85a5.54,5.54,0,0,1,3.45.88,3.38,3.38,0,0,1,1.19,2.94A3.48,3.48,0,0,1,88.44,161.55Z"/><polygon class="cls-2" points="123.86 170.08 139.79 170.08 139.79 160.17 123.86 160.17 123.86 155.03 143.61 155.03 143.61 144.31 109.26 144.31 109.26 185.69 144.36 185.69 144.36 174.97 123.86 174.97 123.86 170.08"/><path class="cls-2" d="M168.62,170.7h7.59v.44a3.67,3.67,0,0,1-1.7,3,7.58,7.58,0,0,1-4.57,1.19q-4.2,0-6-2.19T162.1,165c0-3.59.59-6.21,1.76-7.84a5.73,5.73,0,0,1,4.89-2.5,5.17,5.17,0,0,1,3.82,1.25,6.94,6.94,0,0,1,1.76,4l13.6-4.89q-2.51-6.14-7.08-8.71t-12.23-2.63q-10.1,0-15.8,5.64t-5.64,15.8a23.59,23.59,0,0,0,2.7,11.78,17.33,17.33,0,0,0,7.46,7.08,25.25,25.25,0,0,0,11.09,2.32,28.15,28.15,0,0,0,10.28-1.75,14.5,14.5,0,0,0,7.09-5.71q2.63-4,2.63-10.72v-5.89H168.62Z"/><rect class="cls-2" x="193.74" y="144.31" width="14.61" height="41.37"/><path class="cls-2" d="M229.28,155a7.53,7.53,0,0,1,3.45-.56,18.8,18.8,0,0,1,7,1.25,28.77,28.77,0,0,1,6.2,3.32l5.9-9.4q-7.33-5.9-19.06-5.89a27.65,27.65,0,0,0-10.59,1.81,14.87,14.87,0,0,0-6.65,5,12.61,12.61,0,0,0-2.25,7.46,10.5,10.5,0,0,0,1.88,6.58,11.82,11.82,0,0,0,4.89,3.63,37.71,37.71,0,0,0,6.33,2l6.27,1.38a8.93,8.93,0,0,1,2.57.88,1.42,1.42,0,0,1,.75,1.31,1.61,1.61,0,0,1-.88,1.38,6.38,6.38,0,0,1-3.07.5,21.25,21.25,0,0,1-5.14-.69,32.47,32.47,0,0,1-5.33-1.81,21.71,21.71,0,0,1-4.39-2.64l-5.77,9.6a24.19,24.19,0,0,0,5.83,3.44,38.52,38.52,0,0,0,7.34,2.13,45.74,45.74,0,0,0,7.9.69,26.51,26.51,0,0,0,9.4-1.56,14.51,14.51,0,0,0,6.64-4.77,13.4,13.4,0,0,0,2.45-8.27,9.82,9.82,0,0,0-3.26-7.84q-3.19-2.82-9.53-4.26l-5.7-1.32c-1.17-.29-2.16-.56-2.95-.81s-1.13-.63-1.13-1.13A1.53,1.53,0,0,1,229.28,155Z"/><polygon class="cls-2" points="253.38 155.03 266.36 155.03 266.36 185.69 280.96 185.69 280.96 155.03 293.88 155.03 293.88 144.31 253.38 144.31 253.38 155.03"/><path class="cls-2" d="M337.42,157.48a11.75,11.75,0,0,0-4.33-9.53q-4.32-3.63-12.41-3.64H298.24v41.38h14.29V172h4l7.34,13.73h15.86l-10.1-15.86Q337.42,166.82,337.42,157.48Zm-15.8,4.07a5.85,5.85,0,0,1-3.45.82h-5.64v-7.65h5.64a5.54,5.54,0,0,1,3.45.88,3.41,3.41,0,0,1,1.19,2.94A3.5,3.5,0,0,1,321.62,161.55Z"/><polygon class="cls-2" points="365.83 144.31 361.45 153.78 358.5 161.3 355.55 153.78 351.17 144.31 336.62 144.31 351.1 171.33 351.1 185.69 365.71 185.69 365.71 171.33 380.19 144.31 365.83 144.31"/><path class="cls-3" d="M88.11,112.41a6.53,6.53,0,0,1-3.07.5,21.19,21.19,0,0,1-5.14-.69,33.47,33.47,0,0,1-5.33-1.82,21.42,21.42,0,0,1-4.39-2.63l-5.77,9.59a24.21,24.21,0,0,0,5.83,3.45,38.31,38.31,0,0,0,7.34,2.13,45.71,45.71,0,0,0,7.89.69,26.52,26.52,0,0,0,9.41-1.57,14.48,14.48,0,0,0,6.64-4.76A13.45,13.45,0,0,0,104,109a9.81,9.81,0,0,0-3.26-7.83q-3.19-2.84-9.53-4.27l-5.71-1.31c-1.17-.3-2.15-.57-2.94-.82s-1.13-.63-1.13-1.13a1.53,1.53,0,0,1,.94-1.38,7.66,7.66,0,0,1,3.45-.56,19,19,0,0,1,7,1.25A28.81,28.81,0,0,1,99,96.3l5.89-9.41Q97.52,81,85.79,81a27.73,27.73,0,0,0-10.6,1.82,14.88,14.88,0,0,0-6.64,5,12.57,12.57,0,0,0-2.26,7.46,10.54,10.54,0,0,0,1.88,6.58,12.06,12.06,0,0,0,4.89,3.64,39.25,39.25,0,0,0,6.33,2l6.27,1.38a9.47,9.47,0,0,1,2.57.88A1.44,1.44,0,0,1,89,111,1.65,1.65,0,0,1,88.11,112.41Z"/><polygon class="cls-3" points="134.27 96.86 122.93 96.86 122.93 81.63 108.32 81.63 108.32 123 122.93 123 122.93 107.58 134.27 107.58 134.27 123 148.88 123 148.88 81.63 134.27 81.63 134.27 96.86"/><rect class="cls-3" x="155.15" y="81.63" width="14.61" height="41.37"/><polygon class="cls-3" points="188.69 107.64 188.44 99.12 188.56 99.12 190.82 104.19 200.72 123 216.52 123 216.52 81.63 203.86 81.63 203.86 96.98 204.11 105.51 203.99 105.51 201.73 100.5 191.82 81.63 176.03 81.63 176.03 123 188.69 123 188.69 107.64"/><polygon class="cls-3" points="257.9 112.28 237.4 112.28 237.4 107.39 253.32 107.39 253.32 97.49 237.4 97.49 237.4 92.35 257.15 92.35 257.15 81.63 222.8 81.63 222.8 123 257.9 123 257.9 112.28"/><path class="cls-3" d="M106.85,154.87a11.74,11.74,0,0,0-4.32-9.53q-4.34-3.65-12.42-3.64H67.67v41.37H82V169.35h4l7.33,13.72h15.86L99.08,167.22Q106.85,164.21,106.85,154.87Zm-15.8,4.07a5.91,5.91,0,0,1-3.44.82H82v-7.65h5.65a5.53,5.53,0,0,1,3.44.88,3.38,3.38,0,0,1,1.19,2.94A3.48,3.48,0,0,1,91.05,158.94Z"/><polygon class="cls-3" points="126.48 167.47 142.4 167.47 142.4 157.56 126.48 157.56 126.48 152.42 146.22 152.42 146.22 141.7 111.87 141.7 111.87 183.07 146.97 183.07 146.97 172.35 126.48 172.35 126.48 167.47"/><path class="cls-3" d="M171.23,168.09h7.59v.44a3.69,3.69,0,0,1-1.69,3,7.7,7.7,0,0,1-4.58,1.19q-4.2,0-6-2.19c-1.21-1.51-1.82-4.22-1.82-8.15q0-5.4,1.76-7.84a5.74,5.74,0,0,1,4.89-2.51,5.17,5.17,0,0,1,3.82,1.26,6.84,6.84,0,0,1,1.76,4l13.6-4.89q-2.5-6.13-7.08-8.71t-12.23-2.64q-10.08,0-15.79,5.65t-5.65,15.79a23.63,23.63,0,0,0,2.7,11.79,17.45,17.45,0,0,0,7.46,7.08,25.29,25.29,0,0,0,11.1,2.32A28.23,28.23,0,0,0,181.33,182a14.49,14.49,0,0,0,7.08-5.71q2.64-4,2.63-10.72v-5.89H171.23Z"/><rect class="cls-3" x="196.35" y="141.7" width="14.61" height="41.37"/><path class="cls-3" d="M231.89,152.36a7.5,7.5,0,0,1,3.45-.57,18.81,18.81,0,0,1,7,1.26,28.64,28.64,0,0,1,6.21,3.32l5.89-9.4q-7.34-5.9-19.06-5.9a27.67,27.67,0,0,0-10.59,1.82,14.86,14.86,0,0,0-6.65,5,12.65,12.65,0,0,0-2.25,7.46,10.51,10.51,0,0,0,1.88,6.59,11.91,11.91,0,0,0,4.89,3.63,37.71,37.71,0,0,0,6.33,2l6.27,1.38a8.93,8.93,0,0,1,2.57.88,1.42,1.42,0,0,1,.75,1.31,1.62,1.62,0,0,1-.88,1.38,6.38,6.38,0,0,1-3.07.5,21.25,21.25,0,0,1-5.14-.69,32.83,32.83,0,0,1-5.33-1.82,22,22,0,0,1-4.39-2.63L214,177.43a23.7,23.7,0,0,0,5.83,3.45,38.2,38.2,0,0,0,7.33,2.13,45.83,45.83,0,0,0,7.9.69,26.28,26.28,0,0,0,9.4-1.57,14.51,14.51,0,0,0,6.65-4.76,13.4,13.4,0,0,0,2.44-8.27,9.79,9.79,0,0,0-3.26-7.84q-3.19-2.82-9.53-4.26l-5.7-1.32c-1.17-.29-2.15-.56-2.95-.81s-1.13-.63-1.13-1.13A1.53,1.53,0,0,1,231.89,152.36Z"/><polygon class="cls-3" points="255.99 152.42 268.97 152.42 268.97 183.07 283.58 183.07 283.58 152.42 296.49 152.42 296.49 141.7 255.99 141.7 255.99 152.42"/><path class="cls-3" d="M340,154.87a11.72,11.72,0,0,0-4.33-9.53q-4.32-3.65-12.41-3.64H300.85v41.37h14.29V169.35h4l7.34,13.72h15.86l-10.09-15.85Q340,164.21,340,154.87Zm-15.8,4.07a5.93,5.93,0,0,1-3.45.82h-5.64v-7.65h5.64a5.54,5.54,0,0,1,3.45.88,3.38,3.38,0,0,1,1.19,2.94A3.48,3.48,0,0,1,324.23,158.94Z"/><polygon class="cls-3" points="368.45 141.7 364.06 151.17 361.11 158.69 358.17 151.17 353.78 141.7 339.23 141.7 353.71 168.72 353.71 183.07 368.32 183.07 368.32 168.72 382.8 141.7 368.45 141.7"/></svg>