<svg xmlns="http://www.w3.org/2000/svg" viewBox="0 0 444.55 266.91"><defs><style>.cls-1{fill:#ba3d54;}.cls-2{opacity:0.3;}.cls-3{fill:#fff;}</style></defs><g id="Layer_1" data-name="Layer 1"><rect class="cls-1" width="444.55" height="266.91"/></g><g id="Layer_2" data-name="Layer 2"><g id="Logo"><g id="shadow" class="cls-2"><path d="M83.1,82.69q11.69,0,19,5.87l-5.87,9.38A28.7,28.7,0,0,0,90,94.62a18.85,18.85,0,0,0-6.93-1.25,7.45,7.45,0,0,0-3.44.57,1.52,1.52,0,0,0-.93,1.37c0,.5.37.88,1.12,1.13s1.77.52,2.94.81l5.68,1.31q6.32,1.44,9.5,4.25a9.76,9.76,0,0,1,3.25,7.81,13.35,13.35,0,0,1-2.44,8.25,14.45,14.45,0,0,1-6.62,4.74,26.11,26.11,0,0,1-9.37,1.57,45.6,45.6,0,0,1-7.88-.69,38.21,38.21,0,0,1-7.31-2.13,23.71,23.71,0,0,1-5.81-3.43l5.75-9.56A21.59,21.59,0,0,0,71.92,112a32.91,32.91,0,0,0,5.31,1.82,21.56,21.56,0,0,0,5.12.68,6.33,6.33,0,0,0,3.06-.5,1.62,1.62,0,0,0,.88-1.37,1.41,1.41,0,0,0-.75-1.31,8.93,8.93,0,0,0-2.57-.88l-6.24-1.37a38.7,38.7,0,0,1-6.31-2,11.94,11.94,0,0,1-4.88-3.63,10.48,10.48,0,0,1-1.87-6.56,12.54,12.54,0,0,1,2.25-7.43,14.8,14.8,0,0,1,6.62-4.94A27.56,27.56,0,0,1,83.1,82.69Z"/><path d="M120.11,83.32V98.5h11.31V83.32H146v41.23H131.42V109.18H120.11v15.37H105.56V83.32Z"/><path d="M166.79,83.32v41.23H152.23V83.32Z"/><path d="M213.4,83.32v41.23H197.66l-9.88-18.74-2.25-5.06h-.12l.25,8.49v15.31H173V83.32h15.74l9.88,18.8,2.24,5H201l-.25-8.5V83.32Z"/><path d="M219.65,124.55V83.32h34.24V94H234.21v5.12h15.87V109H234.21v4.88h20.43v10.68Z"/><path d="M87.41,143.19q8.06,0,12.37,3.62a11.69,11.69,0,0,1,4.31,9.5q0,9.31-7.75,12.31l10.06,15.81H90.6l-7.31-13.69h-4v13.69H65V143.19Zm-2.5,18a5.91,5.91,0,0,0,3.44-.82,3.48,3.48,0,0,0,1.18-3,3.4,3.4,0,0,0-1.18-2.93,5.53,5.53,0,0,0-3.44-.88H79.29v7.63Z"/><path d="M109.1,184.43V143.19h34.23v10.69H123.65V159h15.87v9.87H123.65v4.87h20.43v10.69Z"/><path d="M209.75,143.19v41.24H195.19V143.19Z"/><path d="M234.05,142.57q11.69,0,19,5.87l-5.87,9.37A28.82,28.82,0,0,0,241,154.5a18.94,18.94,0,0,0-6.94-1.25,7.64,7.64,0,0,0-3.44.56,1.53,1.53,0,0,0-.93,1.38c0,.5.37.87,1.12,1.12s1.77.52,2.94.81l5.68,1.32q6.32,1.42,9.5,4.24a9.78,9.78,0,0,1,3.25,7.81,13.31,13.31,0,0,1-2.44,8.25,14.4,14.4,0,0,1-6.62,4.75,26.34,26.34,0,0,1-9.37,1.56,46.39,46.39,0,0,1-7.87-.68,37.79,37.79,0,0,1-7.31-2.13,23.8,23.8,0,0,1-5.82-3.44l5.75-9.55a22.06,22.06,0,0,0,4.38,2.62,32.88,32.88,0,0,0,5.31,1.81,21.1,21.1,0,0,0,5.12.69,6.46,6.46,0,0,0,3.06-.5,1.64,1.64,0,0,0,.88-1.38,1.42,1.42,0,0,0-.75-1.31,9.35,9.35,0,0,0-2.56-.87l-6.25-1.38a37.75,37.75,0,0,1-6.31-2,11.92,11.92,0,0,1-4.88-3.62,10.48,10.48,0,0,1-1.87-6.56,12.59,12.59,0,0,1,2.25-7.44,14.78,14.78,0,0,1,6.62-4.93A27.56,27.56,0,0,1,234.05,142.57Z"/><path d="M295,143.19v10.69H282.12v30.55H267.57V153.88H254.63V143.19Z"/><path d="M321.71,143.19q8.06,0,12.37,3.62a11.71,11.71,0,0,1,4.31,9.5q0,9.31-7.75,12.31l10.06,15.81H324.89l-7.31-13.69h-4v13.69H299.34V143.19Zm-2.5,18a5.86,5.86,0,0,0,3.43-.82,3.46,3.46,0,0,0,1.19-3,3.38,3.38,0,0,0-1.19-2.93,5.48,5.48,0,0,0-3.43-.88h-5.62v7.63Z"/><path d="M381,143.19l-14.43,26.93v14.31H352V170.12L337.6,143.19h14.49l4.38,9.44,2.93,7.49,2.94-7.49,4.37-9.44Z"/><path d="M169.62,142.13q8.63,0,14,4.08a16,16,0,0,1,6.46,11.08H175.57a5.11,5.11,0,0,0-2.29-1.95,8.05,8.05,0,0,0-3.6-.73,7.62,7.62,0,0,0-6.15,2.56,10.09,10.09,0,0,0-2.17,6.87q0,5.06,2.42,7.55c1.62,1.66,4.1,2.5,7.45,2.5a9.26,9.26,0,0,0,7.7-3.78h-11v-9.55h22.41v13.51a26.69,26.69,0,0,1-7.88,8.28q-5,3.4-12.73,3.4a24.88,24.88,0,0,1-11.92-2.73,19.52,19.52,0,0,1-7.76-7.79,25.61,25.61,0,0,1,0-22.77,19.07,19.07,0,0,1,7.76-7.73A23.94,23.94,0,0,1,169.62,142.13Z"/><path d="M83.1,82.69q11.69,0,19,5.87l-5.87,9.38A28.7,28.7,0,0,0,90,94.62a18.85,18.85,0,0,0-6.93-1.25,7.45,7.45,0,0,0-3.44.57,1.52,1.52,0,0,0-.93,1.37c0,.5.37.88,1.12,1.13s1.77.52,2.94.81l5.68,1.31q6.32,1.44,9.5,4.25a9.76,9.76,0,0,1,3.25,7.81,13.35,13.35,0,0,1-2.44,8.25,14.45,14.45,0,0,1-6.62,4.74,26.11,26.11,0,0,1-9.37,1.57,45.6,45.6,0,0,1-7.88-.69,38.21,38.21,0,0,1-7.31-2.13,23.71,23.71,0,0,1-5.81-3.43l5.75-9.56A21.59,21.59,0,0,0,71.92,112a32.91,32.91,0,0,0,5.31,1.82,21.56,21.56,0,0,0,5.12.68,6.33,6.33,0,0,0,3.06-.5,1.62,1.62,0,0,0,.88-1.37,1.41,1.41,0,0,0-.75-1.31,8.93,8.93,0,0,0-2.57-.88l-6.24-1.37a38.7,38.7,0,0,1-6.31-2,11.94,11.94,0,0,1-4.88-3.63,10.48,10.48,0,0,1-1.87-6.56,12.54,12.54,0,0,1,2.25-7.43,14.8,14.8,0,0,1,6.62-4.94A27.56,27.56,0,0,1,83.1,82.69Z"/><path d="M120.11,83.32V98.5h11.31V83.32H146v41.23H131.42V109.18H120.11v15.37H105.56V83.32Z"/><path d="M166.79,83.32v41.23H152.23V83.32Z"/><path d="M213.4,83.32v41.23H197.66l-9.88-18.74-2.25-5.06h-.12l.25,8.49v15.31H173V83.32h15.74l9.88,18.8,2.24,5H201l-.25-8.5V83.32Z"/><path d="M219.65,124.55V83.32h34.24V94H234.21v5.12h15.87V109H234.21v4.88h20.43v10.68Z"/><path d="M87.41,143.19q8.06,0,12.37,3.62a11.69,11.69,0,0,1,4.31,9.5q0,9.31-7.75,12.31l10.06,15.81H90.6l-7.31-13.69h-4v13.69H65V143.19Zm-2.5,18a5.91,5.91,0,0,0,3.44-.82,3.48,3.48,0,0,0,1.18-3,3.4,3.4,0,0,0-1.18-2.93,5.53,5.53,0,0,0-3.44-.88H79.29v7.63Z"/><path d="M109.1,184.43V143.19h34.23v10.69H123.65V159h15.87v9.87H123.65v4.87h20.43v10.69Z"/><path d="M209.75,143.19v41.24H195.19V143.19Z"/><path d="M234.05,142.57q11.69,0,19,5.87l-5.87,9.37A28.82,28.82,0,0,0,241,154.5a18.94,18.94,0,0,0-6.94-1.25,7.64,7.64,0,0,0-3.44.56,1.53,1.53,0,0,0-.93,1.38c0,.5.37.87,1.12,1.12s1.77.52,2.94.81l5.68,1.32q6.32,1.42,9.5,4.24a9.78,9.78,0,0,1,3.25,7.81,13.31,13.31,0,0,1-2.44,8.25,14.4,14.4,0,0,1-6.62,4.75,26.34,26.34,0,0,1-9.37,1.56,46.39,46.39,0,0,1-7.87-.68,37.79,37.79,0,0,1-7.31-2.13,23.8,23.8,0,0,1-5.82-3.44l5.75-9.55a22.06,22.06,0,0,0,4.38,2.62,32.88,32.88,0,0,0,5.31,1.81,21.1,21.1,0,0,0,5.12.69,6.46,6.46,0,0,0,3.06-.5,1.64,1.64,0,0,0,.88-1.38,1.42,1.42,0,0,0-.75-1.31,9.35,9.35,0,0,0-2.56-.87l-6.25-1.38a37.75,37.75,0,0,1-6.31-2,11.92,11.92,0,0,1-4.88-3.62,10.48,10.48,0,0,1-1.87-6.56,12.59,12.59,0,0,1,2.25-7.44,14.78,14.78,0,0,1,6.62-4.93A27.56,27.56,0,0,1,234.05,142.57Z"/><path d="M295,143.19v10.69H282.12v30.55H267.57V153.88H254.63V143.19Z"/><path d="M321.71,143.19q8.06,0,12.37,3.62a11.71,11.71,0,0,1,4.31,9.5q0,9.31-7.75,12.31l10.06,15.81H324.89l-7.31-13.69h-4v13.69H299.34V143.19Zm-2.5,18a5.86,5.86,0,0,0,3.43-.82,3.46,3.46,0,0,0,1.19-3,3.38,3.38,0,0,0-1.19-2.93,5.48,5.48,0,0,0-3.43-.88h-5.62v7.63Z"/><path d="M381,143.19l-14.43,26.93v14.31H352V170.12L337.6,143.19h14.49l4.38,9.44,2.93,7.49,2.94-7.49,4.37-9.44Z"/></g><g id="main"><path class="cls-3" d="M169.68,168.58h11a9.26,9.26,0,0,1-7.69,3.77q-5,0-7.45-2.49c-1.62-1.67-2.42-4.18-2.42-7.55a10.12,10.12,0,0,1,2.17-6.88,7.64,7.64,0,0,1,6.14-2.56,8.19,8.19,0,0,1,3.6.73,5.14,5.14,0,0,1,2.3,2h14.53a16.1,16.1,0,0,0-6.46-11.07q-5.4-4.08-14-4.08a23.8,23.8,0,0,0-11.79,2.8,19,19,0,0,0-7.76,7.73,25.59,25.59,0,0,0,0,22.76,19.46,19.46,0,0,0,7.76,7.79,24.71,24.71,0,0,0,11.92,2.74q7.7,0,12.72-3.41a26.37,26.37,0,0,0,7.88-8.28V159h-22.4Z"/><path class="cls-3" d="M87.15,112.26a6.53,6.53,0,0,1-3.07.5,21.1,21.1,0,0,1-5.12-.69,33.55,33.55,0,0,1-5.31-1.81,21.51,21.51,0,0,1-4.37-2.63l-5.75,9.56a23.54,23.54,0,0,0,5.81,3.44,38.2,38.2,0,0,0,7.31,2.12,45.49,45.49,0,0,0,7.87.69,26.34,26.34,0,0,0,9.37-1.56,14.55,14.55,0,0,0,6.63-4.75,13.39,13.39,0,0,0,2.43-8.25,9.78,9.78,0,0,0-3.25-7.81q-3.18-2.8-9.49-4.25l-5.69-1.31c-1.16-.29-2.14-.56-2.93-.81s-1.13-.62-1.13-1.12a1.51,1.51,0,0,1,.94-1.38,7.57,7.57,0,0,1,3.43-.56,18.9,18.9,0,0,1,6.94,1.25A28.66,28.66,0,0,1,98,96.2l5.87-9.37q-7.32-5.88-19-5.88a27.46,27.46,0,0,0-10.55,1.82,14.76,14.76,0,0,0-6.63,4.93,12.59,12.59,0,0,0-2.25,7.44,10.5,10.5,0,0,0,1.88,6.56,11.89,11.89,0,0,0,4.87,3.62,38.7,38.7,0,0,0,6.31,2l6.25,1.38a9.23,9.23,0,0,1,2.56.87,1.42,1.42,0,0,1,.75,1.31A1.64,1.64,0,0,1,87.15,112.26Z"/><polygon class="cls-3" points="133.16 96.76 121.85 96.76 121.85 81.58 107.29 81.58 107.29 122.82 121.85 122.82 121.85 107.45 133.16 107.45 133.16 122.82 147.72 122.82 147.72 81.58 133.16 81.58 133.16 96.76"/><rect class="cls-3" x="153.97" y="81.58" width="14.56" height="41.24"/><polygon class="cls-3" points="187.4 107.51 187.15 99.01 187.27 99.01 189.52 104.07 199.39 122.82 215.14 122.82 215.14 81.58 202.51 81.58 202.51 96.89 202.76 105.38 202.64 105.38 200.39 100.39 190.52 81.58 174.77 81.58 174.77 122.82 187.4 122.82 187.4 107.51"/><polygon class="cls-3" points="256.38 112.13 235.95 112.13 235.95 107.26 251.82 107.26 251.82 97.39 235.95 97.39 235.95 92.26 255.63 92.26 255.63 81.58 221.39 81.58 221.39 122.82 256.38 122.82 256.38 112.13"/><path class="cls-3" d="M105.83,154.58a11.7,11.7,0,0,0-4.31-9.5q-4.32-3.63-12.37-3.62H66.78v41.23H81V169h4l7.31,13.68h15.81L98.08,166.88Q105.84,163.9,105.83,154.58Zm-15.75,4.06a5.88,5.88,0,0,1-3.43.81H81v-7.62h5.63a5.57,5.57,0,0,1,3.43.87,3.42,3.42,0,0,1,1.19,2.94A3.51,3.51,0,0,1,90.08,158.64Z"/><polygon class="cls-3" points="125.39 167.13 141.26 167.13 141.26 157.26 125.39 157.26 125.39 152.14 145.07 152.14 145.07 141.46 110.83 141.46 110.83 182.69 145.82 182.69 145.82 172.01 125.39 172.01 125.39 167.13"/><rect class="cls-3" x="196.92" y="141.46" width="14.56" height="41.24"/><path class="cls-3" d="M232.35,152.08a7.45,7.45,0,0,1,3.44-.57,18.89,18.89,0,0,1,6.93,1.25,28.7,28.7,0,0,1,6.19,3.32l5.87-9.38q-7.31-5.87-19-5.87a27.49,27.49,0,0,0-10.56,1.81,14.78,14.78,0,0,0-6.63,4.94,12.54,12.54,0,0,0-2.25,7.43,10.48,10.48,0,0,0,1.88,6.56,11.91,11.91,0,0,0,4.87,3.63,39,39,0,0,0,6.31,2l6.25,1.37a8.84,8.84,0,0,1,2.56.88,1.42,1.42,0,0,1,.75,1.31,1.61,1.61,0,0,1-.87,1.37,6.33,6.33,0,0,1-3.06.5,21.64,21.64,0,0,1-5.13-.68,33.59,33.59,0,0,1-5.31-1.82,21.5,21.5,0,0,1-4.37-2.62l-5.75,9.56a23.85,23.85,0,0,0,5.81,3.44,38.94,38.94,0,0,0,7.31,2.12,45.49,45.49,0,0,0,7.87.69,26.17,26.17,0,0,0,9.38-1.57,14.5,14.5,0,0,0,6.62-4.74,13.41,13.41,0,0,0,2.43-8.25,9.79,9.79,0,0,0-3.24-7.81q-3.19-2.82-9.5-4.25l-5.69-1.31c-1.16-.29-2.14-.56-2.93-.81s-1.13-.63-1.13-1.13A1.51,1.51,0,0,1,232.35,152.08Z"/><polygon class="cls-3" points="256.37 152.14 269.3 152.14 269.3 182.69 283.86 182.69 283.86 152.14 296.73 152.14 296.73 141.46 256.37 141.46 256.37 152.14"/><path class="cls-3" d="M340.13,154.58a11.68,11.68,0,0,0-4.32-9.5q-4.31-3.63-12.37-3.62H301.08v41.23h14.24V169h4l7.31,13.68h15.81l-10.06-15.81Q340.12,163.9,340.13,154.58Zm-15.75,4.06a5.9,5.9,0,0,1-3.44.81h-5.62v-7.62h5.62a5.58,5.58,0,0,1,3.44.87,3.42,3.42,0,0,1,1.19,2.94A3.51,3.51,0,0,1,324.38,158.64Z"/><polygon class="cls-3" points="368.45 141.46 364.07 150.89 361.14 158.39 358.2 150.89 353.83 141.46 339.33 141.46 353.77 168.38 353.77 182.69 368.32 182.69 368.32 168.38 382.76 141.46 368.45 141.46"/></g></g></g></svg>