<svg xmlns="http://www.w3.org/2000/svg" viewBox="0 0 2380.02 1737.97"><defs><style>.cls-1{fill:#f5f7f9}</style></defs><g id="Layer_1" data-name="Layer 1"><rect width="2380.02" height="1737.97" class="cls-1"/></g><g id="Layer_3" data-name="Layer 3"><rect width="425.2" height="425.2" x="445.19" y="385.4"/><rect width="425.2" height="425.2" x="927.08" y="385.4" rx="212.6"/><path d="M810.15,920.6c-9.65-3.57-18.89-7.49-27.51-13.36-10.52-7.26-20.95-14.6-32.22-20.67a190.53,190.53,0,0,0-32-13.21c-15.45-5-31.58-7.19-47.9-5.53-13.82,1.46-27.65,2.92-41.28,5.64-8.31,1.67-16.47,5.17-24.33,8.4-11.3,4.79-22.8,9.57-33.51,15.45-11.52,6.39-22.26,13.89-33,21.58-16.6,12-32.31,25.06-45.1,41.08-11,13.77-20.74,28.39-27.37,45a209.79,209.79,0,0,0-13.81,49.76c-1.62,11.7-2.3,23.65-4.29,35.32a171.9,171.9,0,0,0-2.08,43c.73,9.67,1.73,19.47,3.13,29.1,1.65,11.36,3.1,22.9,6.2,33.89a194.69,194.69,0,0,0,13.38,34.81,174.15,174.15,0,0,0,23.87,37.29c6.4,7.62,13.31,14.8,20.22,22,5.23,5.43,10.44,11.05,16.4,15.49,19.35,14.39,39.22,28,62,36.38,7.61,2.85,15,6.44,22.76,8.06,9.1,1.91,18.59,2.42,27.92,2.53,8.57.06,17.12-.93,25.64-1.54.21-.18.6-.34.8-.51,12.15-2,24.27-3.55,36.35-6a298.43,298.43,0,0,0,31.92-7.85,305.48,305.48,0,0,0,57.16-24.85c18.78-10.72,35.91-23.56,50.78-39.42a154.48,154.48,0,0,0,11.56-13.54c5.19-7.14,10.1-14.41,14.84-21.87A150.31,150.31,0,0,0,888,1198.53c2.26-7.46,4-15,6.13-22.7.94-7.75,1.88-15.49,2.93-23.32.37-2.45.83-4.8,1.3-7.34-.11-1.15-.22-2.3-.32-3.45,0-1.81.26-3.6.29-5.41.31-2.93.72-6,1.12-8.78-.27-4.21-.44-8.32-.81-12.44a31.15,31.15,0,0,0-.56-4.14c0-2.48-.11-5.06-.22-7.45-.37-1.46-.65-2.81-1-4.27.33-.64.47-1.3.81-1.94-.11-1.15-.22-2.3-.32-3.45-.24-.69-.29-1.36-.52-2-.59-5-1.17-10.19-1.76-15.18-.41-.89-.72-1.87-1.13-2.75-.14-.78-.37-1.46-.42-2.13q-1.68-6.27-3.37-12.54c-3.19-8.62-6.36-17.43-9.64-26-2.57-6.66-6.09-13.21-7.78-20.1-2.14-8.64-3-17.66-5.71-26.34-2.93-9.55-6.16-18.84-11.25-27.41C845.17,940.8,829.92,927.86,810.15,920.6ZM477.26,1184.32c-11.48-29.52-15.15-60.28-15.15-91.72a46.37,46.37,0,0,1,1.49-11.42c1.64-6.74,6.93-10.07,12.75-12.78a21.54,21.54,0,0,0,6.09-3.84c1-.88,1.76-3.3,1.16-4.21a6.62,6.62,0,0,0-4.47-2.71,62.89,62.89,0,0,0-9.44,1.41c-2.69.37-4.36-.33-3.83-3.62,3.32-23.48,10.08-45.66,22.15-66.21,9.67-16.34,21.92-30.3,35.54-43.31a256.05,256.05,0,0,1,74.88-49.75c30.61-13.47,62.64-20.35,96.21-16.83a125.56,125.56,0,0,1,46.22,14.26c7.69,4.18,15.16,8.93,22.73,13.58,1,.55,1.79,1.65,3.76,3.32-8.22.35-15.26.22-22.18,1-8.07.93-16,2.82-24.12,4.13-5,.78-10.23,1.92-15.26,1.64-24.17-1.68-47,3.69-69.2,12.16a135.89,135.89,0,0,0-40.25,24.29c-10.86,9.2-22,18.29-31.54,28.83-15.32,16.79-29.22,35-39.57,55.49-7.24,14.43-15,28.91-19.51,44.4-6.54,21.81-16.63,42.6-19.16,65.57-1.79,16.82-2.35,33.65.14,50.5.2,1.25.38,2.7.47,4l-2.05.7C482.54,1196.81,479.74,1190.69,477.26,1184.32ZM672.48,931.15c-24.26,14-48.34,28.07-69.85,46.12A557.06,557.06,0,0,0,543,1035.86l-1.89-1.57c17.09-29.33,38.5-55.1,66-75.46C626.45,944.43,647.64,933.41,672.48,931.15Zm-169,276.91q13.91,25,28.24,50.58C517.18,1244.52,506.15,1228.46,503.44,1208.06Zm135.07,134c-2.75-.11-5.52,0-8.26-.32-3.59-.46-7.16-1.1-10.74-1.75a32.11,32.11,0,0,1-3.18-.8c-.72-.63-1.33-1.34-2.05-2-.38,0-.84-.16-1.22-.19-5.12-1.61-10.16-3.13-15.38-4.65-11-5.58-22.59-10.34-32.87-17.1a266.27,266.27,0,0,1-34-26.41,361.87,361.87,0,0,1-32.89-35.19c-6.13-7.32-10.15-16.28-15.08-24.46a15,15,0,0,1-1.08-3.51c.31-.26.7-.42,1-.68,3,3.83,5.63,7.75,8.61,11.39,7.26,8.83,14.33,17.83,22,26.3,6.44,7,13.78,13.5,20.84,20,10.79,10,22.11,19.44,35.12,26.68,9.24,5.16,18.27,10.69,27.42,15.93.64.34,1.39.58,2,.91,2.54.48,5,1,7.42,1.41,10.83,4.32,21.75,8.74,32.49,13.15A6.06,6.06,0,0,0,638.51,1342.05Zm98.85-30.84c-13.06,7.9-25.44,17-41,19.57-6.37,1-12.75,1.06-19.18,1.64-1.72.06-3.36.41-5.18.57l-3.37-.82-.62-.71a22.53,22.53,0,0,0-2.83,1c-15.88-1.73-31.25-5.34-44.87-14.54a11.13,11.13,0,0,1,4.91-.68c1.33.09,2.65.19,4.08.2,4.25.6,8.59,1.11,12.84,1.71,5,.27,10.05.55,15.17.92a7.19,7.19,0,0,0,2.42.75c4.86.07,9.72,0,14.49-.08a3.24,3.24,0,0,0,.73-.8c4.92-.88,9.77-2,14.65-2.35,16.67-1.25,32.51-5.52,48.24-10.93a3.9,3.9,0,0,1,3.39.44C740.12,1308.65,739,1310.29,737.36,1311.21Zm62.86-16.81c-.47-1.37-.86-2.64-1.55-4.88-11.67,5.81-22.82,11.18-33.89,16.66-.26-.31-.43-.7-.6-.9a44.85,44.85,0,0,1,3.68-4.78c13.4-12.64,26.71-25.38,42.23-35.77,7.71-5,14.22-12.1,20.62-18.87,9.08-9.62,18-19.64,26.2-30.09,6.74-8.84,12.41-18.71,18.52-28.07,1.07-1.64,2-3.19,3.55-5.55C875.22,1220.74,834.87,1277.8,800.22,1294.4Zm78.27-222.14c4.34,17.56,6.66,35.45,4.58,53.59-2.14,18.9-8.1,36.66-16.48,53.67a208.14,208.14,0,0,1-31.54,45.89c-5.8,6.43-12,12.55-18.59,18.54,15-28.62,28.14-58,38-88.76s14.93-62.45,18.2-94.42c.77-.13,1.36-.28,2.13-.41C875.92,1064.35,877.54,1068.28,878.49,1072.26Zm-22.42-56c4.91,7.13,4,15.35,4.12,23.26-.09,10.38-.83,20.62-1.68,30.94a297.52,297.52,0,0,1-11.1,63.59c-5.46,18.75-11.58,37.35-18.33,55.63a241.4,241.4,0,0,1-17.21,36.17,403.67,403.67,0,0,1-29.12,42.74c-5.35,6.75-13.52,11.67-21.18,16.16-19.1,11.17-40.25,17.71-61.89,21.84-6.57,1.23-13.36,1.59-20.09,2.43-.87.22-1.85.53-2.72.75a1.7,1.7,0,0,0-.63-.52l-.62-.72c-1.35.29-2.71.57-4,.76-3.74.39-7.47.59-11.22,1l-1.23-1.43-.1.09-.2.17-.2.18-.92.79c-1.17-.94-2.24-2-2.95-2.6-1.49.75-2.91,2-4.24,1.88-4.08-.2-8.21-1.08-12.28-1.47-5.48-.6-11-1-16.37-1.49a1.64,1.64,0,0,0-.63-.53l-3.9-1.43h-.18l-1.14-.08c-3.15-1.19-6.22-2.27-9.37-3.46-.5.25-1,.69-1.5.94a20.93,20.93,0,0,0-3.38-.63c-.62-.71-1.42-1.44-2-2.15-.58.15-1.35.28-1.94.43a2.24,2.24,0,0,0-.71-.62c-.38,0-.85-.16-1.23-.19-10.62-3.26-18.68-10.33-26-18.21-6.7-7.35-13.41-14.7-19.5-22.58-20.14-25.78-35.91-53.9-39.12-87-1.49-14.88-.67-30.16-.72-45.21.09-18.19,8.06-33.42,18.07-47.93,2.55-3.63,4.74-7.66,7-11.39,10.32-16.2,23.07-30.42,36.54-44,13-13.15,26-26.19,40.12-38.21,11.07-9.38,23.46-17.23,35.74-25,10.68-6.74,21.88-12.68,33.15-18.33a188.86,188.86,0,0,1,24.85-10.27c11.05-3.86,21.86-.59,32.74,1.74a166,166,0,0,1,52.49,21.1A218.86,218.86,0,0,1,829.62,983C839.46,993.16,847.87,1004.55,856.07,1016.3Zm-45-66.29c-20.47-9.32-40.85-18.53-62.33-28.4,4.31-.35,8-.85,11.58-.77,5.42.11,10.9.71,16.4,1.11,8.24.7,13.65,6.15,19,11.31,4.81,4.54,9.22,9.44,13.64,14.15A18.57,18.57,0,0,1,811.06,950Zm32.67,19.74c-6.37-8-12.64-16.07-19-24.07C835.45,950.09,841.21,958.61,843.73,969.75Z"/><path d="M1920,989.69c-11.27-21.77-27.51-39.17-47.13-53.21A138,138,0,0,0,1811.5,912c-8.66-1.28-17.51-.89-26.31-1.26-.88,0-1.79-.17-2.67-.19l-.93.23a7.08,7.08,0,0,0-1.17-.69c-7.81-.38-15.73-.72-23.54-1.1l-5.2.58c-2-.23-4.18-.31-6.22-.53-.65-.09-1.26,0-1.9-.14-6.31.61-12.65,1.11-18.85,1.69-21.88,2-43.61,5-64.92,11.19-17.48,5.08-35.14,9.46-51.59,17.13a350.76,350.76,0,0,0-33.76,17.32c-12.27,7.49-23.66,16.49-35.51,24.61-11.22,7.72-21.35,16.77-26.87,29.26-6.85,15.56-12.47,31.56-18.24,47.47-3,8.23-5,16.84-7.48,25.31-.93,7.58-1.59,15.22-2.9,22.77-2.1,12.74.21,25.22,1.09,37.94.59,7.19.8,14.36,1.62,21.5,1.47,14.56,3.73,28.8,10.38,42.17,1.29,2.65,2,5.72,2.93,8.58.44.76.91,1.64,1.36,2.4.7,1.31,1.3,2.65,2,4,.53,1.11,1.15,2.07,1.68,3.18,2.54,4.08,5.1,8.29,7.63,12.37.85.41,1.73.93,2.58,1.33.5,0,1,0,1.38,0-.27.44-.53.88-.79,1.32,1.5,2,2.89,4,4.42,6.09.38.53.88,1,1.23,1.43,1.76,1,3.43,2.24,5.22,3.4,1.56,2.22,3,4.46,4.45,6.71,5.69,4.77,11.41,9.66,17.1,14.44l.21.82c.24-.06.56-.27.91-.36l3.34,2.88c1.32.29,2.52.61,3.84.89,2.87,2,5.71,3.9,8.59,5.91,1.82,1.27,3.64,2.55,5.57,3.8,1.58.84,3.28,1.66,4.86,2.5a206.51,206.51,0,0,0,57.23,19.15,168.87,168.87,0,0,0,70.29-1.86c16.73-4.13,33-10.26,49.32-15.8a241.75,241.75,0,0,0,55.2-26.39,316.88,316.88,0,0,0,67.62-58.69,216.65,216.65,0,0,0,35-52.87,337.06,337.06,0,0,0,15.59-39.82,212.71,212.71,0,0,0,9.28-50.92C1935.93,1036.29,1931.7,1012.34,1920,989.69Zm-66.43-49.91c-23.14-8.3-46.67-15.25-70.86-19.41C1808,920.64,1831.88,926.12,1853.52,939.78Zm-328.2,293.64c-1.11-1-2-1.71-3-2.47-1.19.68-2.51,1.38-3.82,2.09-.12,0-.88-1-.79-1.16a16.5,16.5,0,0,1,2.5-2.38c-3.9-8-8.12-16.73-12.49-25.58.32-.2.76-.44,1.08-.65,4.42,7.09,9,14.15,13.37,21.24.36.41.85.91,1.21,1.31Zm140.1,68.62c-4.21.07-8.3.12-12.39.17,0-.5,0-1,0-1.5,4.18-.19,8.24-.35,12.42-.55C1665.48,1300.78,1665.39,1301.42,1665.42,1302Zm62.41-15.66c10.33-4.38,20.71-8.52,30.89-13a210.86,210.86,0,0,0,45.85-27.49c4.16-3.18,7.83-6.85,11.67-10.32a5.7,5.7,0,0,1-.27-.55c.06.23.21.32.27.55,2.91-2.23,5.79-4.59,8.79-7,4.22-4.44,8.73-8.7,12.8-13.22,2.91-3.23,5.52-6.64,8.25-10.07,3.11-2.91,6.26-5.7,9.37-8.61.14-.41.44-.74.58-1.15a5.48,5.48,0,0,1,.64-.91c2.41-2.73,4.74-5.31,7.18-7.93a11.15,11.15,0,0,1,3.82-2.59C1836.13,1239,1788.85,1272.07,1727.83,1286.38Zm183.9-220.15c-2.93,28-13.34,53.07-29,76.36-.17.3-.46.62-.63.91-1.28,1.82-2.68,3.67-4,5.49-.08.65-.31,1.2-.39,1.85a10.79,10.79,0,0,1-1.29,1.32,62.53,62.53,0,0,1-3.27,6.19c-2.32,3.08-4.82,6-7.29,9l-.35.09-.35.09c-.2.67-.29,1.32-.49,2a12.76,12.76,0,0,1-.51,1.87l-.82.21c-.67.8-1.46,1.62-2.15,2.29,0,.24.15.59.2.82l-2.33.6c-2,2.87-3.89,5.72-5.92,8.48-1.74,2.43-3.81,4.58-5.7,6.93-.72.56-1.48,1-2.21,1.56-.81,1.7-1.65,3.28-2.46,5-.91.85-1.92,1.74-2.83,2.59-3.25,3.32-6.48,6.75-9.89,10-12.6,11.55-25.08,23.07-37.86,34.42-3.26,2.82-7.1,4.8-10.71,7.21-10,5.28-19.8,11.15-30.15,15.9a261.65,261.65,0,0,1-30.23,11.19c-10.82,3.38-22.13,5.39-33.1,8.68-16.75,5-33.41,4.54-50.21.6-15.33-3.56-29.83-9.7-43.72-16.87-4.45-2.35-8.56-5.28-12.84-7.93a36.16,36.16,0,0,0-3.89-1.62c-2.38-2-4.67-4.16-7-6.17l-.81.21c-5.38-5-10.92-9.67-16-14.85-4.08-4.32-7.58-9.27-11.37-13.91-.62-.46-1.32-.78-1.94-1.25a1.49,1.49,0,0,1-.73.06c-.65-1.08-1.27-2-1.91-3.12-.06-.23,0-.61-.1-.85l-.15-.58c-2.73-2.92-5.81-5.74-8.37-9a87.16,87.16,0,0,1-15.08-30.88c-2.74-9.76-5.82-19.43-7.39-29.49-2.35-15.09-4.74-30.29-4.63-45.5,0-10.09,3.64-20.35,6.69-30.34a204.49,204.49,0,0,1,21-47.31c10-16.48,21.65-31.66,36.38-44.12A214.17,214.17,0,0,1,1621.46,950c7-3,14-5.67,21-8.45a5.36,5.36,0,0,1,.56,1.22c-2.48,1.51-4.92,3.13-7.58,4.42-19.1,9.48-35.7,22.42-50.71,37.2-14.1,13.93-26.16,29.57-33.43,48.36a38,38,0,0,0-1.74,8.78c-.15.91.39,2.52,1.09,2.83a3.6,3.6,0,0,0,3.07-.65c3.46-4,7.18-7.93,10.2-12.19,6.56-9.39,12.24-19.3,19.15-28.28,10.28-13.33,23.42-23.77,36.61-34,16-12.18,33.91-21.09,52.79-28,7.85-2.87,15.82-5.27,23.73-7.91,17.77-5.9,36.15-7,54.62-6.21,19.36.8,38.57,2.5,57.32,7.31a269.13,269.13,0,0,1,51.59,18.47c8.5,4.06,16.44,9.38,24.45,14.43,9.88,6.07,13.84,16.27,18.36,26.19a111.19,111.19,0,0,1,3.7,10.64C1912.87,1024.36,1913.94,1045.13,1911.73,1066.23Z"/><path d="M1415.16,1056.5c-4.88-8.8-9.23-17.61-11.86-27.46-3.17-12.09-6.2-24.17-10.68-35.86A186.25,186.25,0,0,0,1377.33,963c-8.31-13.53-18.85-25.48-32-34.68-11.2-7.75-22.41-15.5-34.27-22.2-7.25-4.08-15.56-6.7-23.47-9.33-11.47-3.68-23.07-7.49-34.8-10-12.65-2.63-25.44-3.95-38.36-5.13-20-1.7-40.08-2.1-59.85,1.58-17,3.15-33.61,7.75-49.17,15.76a205.84,205.84,0,0,0-42.18,28c-8.71,7.62-16.88,16-25.84,23.38a168.16,168.16,0,0,0-29.14,30.48c-5.67,7.62-11.2,15.5-16.34,23.51-6.07,9.46-12.39,18.92-17.14,29a189.59,189.59,0,0,0-12.39,34.28,169.91,169.91,0,0,0-6.2,42.83c-.13,9.72.4,19.44.93,29.16.39,7.36.65,14.85,2.24,21.95,5.14,23,11.2,45.72,22.67,66.47,3.82,7,7,14.32,11.73,20.49,5.54,7.23,12.26,13.66,19.12,19.71,6.33,5.51,13.31,10.24,20,15.24.26,0,.65.13.92.13,10.28,6.3,20.3,12.87,30.85,18.79a296.64,296.64,0,0,0,28.73,14.58,300.1,300.1,0,0,0,58.4,18.12c20.83,4.07,41.79,5.53,63,3.29a153.2,153.2,0,0,0,17.26-2.62c8.44-2,16.75-4.21,25-6.71a147.46,147.46,0,0,0,37.57-17.34c6.46-4.07,12.66-8.53,19.12-12.87,5.67-5.12,11.33-10.25,17.13-15.37,1.85-1.58,3.7-3,5.67-4.6l2-2.76c1.19-1.32,2.51-2.5,3.69-3.81,2.11-2,4.35-3.94,6.46-5.78,2.51-3.29,5-6.43,7.38-9.72a31,31,0,0,0,2.24-3.42c1.59-1.84,3.17-3.8,4.62-5.64.66-1.32,1.32-2.5,2-3.81.66-.27,1.18-.67,1.84-.93.66-.91,1.32-1.84,2-2.76.26-.65.66-1.17.92-1.84,2.77-4.07,5.67-8.27,8.44-12.35.26-.91.66-1.83.92-2.75.4-.66.66-1.32,1.06-1.84l5.53-11.43c3.17-8.4,6.46-17,9.49-25.35,2.38-6.58,4-13.67,7.12-19.84,4-7.76,9.1-15,12.66-23.13,3.95-8.93,7.51-17.86,9.23-27.45Q1430.25,1083.55,1415.16,1056.5Zm-416.44-17.61c10.42-29.16,27.42-54.25,47.59-77.51a45.82,45.82,0,0,1,8.44-7.48c5.53-3.94,11.6-3,17.66-1.32a20.7,20.7,0,0,0,7,1c1.32,0,3.43-1.31,3.56-2.36a6.44,6.44,0,0,0-1.58-4.86,61.9,61.9,0,0,0-7.91-5c-2.24-1.45-3-3-.53-5.13,17.53-15.24,36.78-27.32,58.93-34.81,17.66-5.91,35.72-8.41,54.18-9.33a252.44,252.44,0,0,1,87.53,11c31.37,9.59,59.59,25,82.26,49A122.67,122.67,0,0,1,1381,992.26c3,8,5.53,16.29,8.17,24.56.4,1,.27,2.37.66,4.86-6.33-5-11.47-9.59-17.14-13.4-6.59-4.46-13.71-8.14-20.56-12.34-4.22-2.63-8.83-5.13-12.39-8.54-16.88-16.69-37.31-27.33-59.19-35.21a133.91,133.91,0,0,0-45.48-7.75c-14-.13-28.08-.53-41.92,1.18-22.15,2.63-44.17,7.23-65,15.76-14.64,6-29.67,11.83-43,20.37-18.85,12-39.68,20.89-56.29,36.26-12.13,11.29-23.33,23.38-32.3,37.44-.66,1-1.45,2.23-2.24,3.28l-2-.79C994.64,1051.51,996.48,1045.2,998.72,1038.89Zm307.42-62.53c-27-5.12-53.92-10.11-81.47-10.51a550.64,550.64,0,0,0-81.86,5.26l-.4-2.37c31.51-10.77,63.94-16.16,97.42-13.66C1263.43,956.79,1286.24,962.17,1306.14,976.36Zm-303.2,96.83c-3.82,18.25-7.64,36.77-11.47,55.43C989.76,1108.91,991.87,1090,1002.94,1073.19Zm14.37,185.36c-2-1.84-4.09-3.55-5.93-5.53-2.37-2.62-4.62-5.38-6.86-8.14a27.23,27.23,0,0,1-1.84-2.63c-.14-.91-.14-1.83-.27-2.75-.26-.27-.52-.66-.79-.92-2.77-4.47-5.53-8.8-8.43-13.27-4.62-11.17-10.15-22.07-13.45-33.63a261,261,0,0,1-8.31-41.25,350.68,350.68,0,0,1-1.84-47c.13-9.33,2.9-18.53,4.48-27.72a14.37,14.37,0,0,1,1.45-3.28c.4,0,.79.12,1.19.12-.27,4.74-.79,9.33-.93,13.93-.26,11.16-.79,22.34-.52,33.5.26,9.33,1.58,18.79,2.63,28.12,1.59,14.31,4,28.5,9,42.16,3.56,9.72,6.72,19.58,10.15,29.3.26.65.66,1.31.92,2,1.58,2,3,3.94,4.61,5.78,5.28,10.11,10.55,20.36,15.69,30.48A5.31,5.31,0,0,0,1017.31,1258.55Zm93.2,40.33c-14.76-2.5-29.79-3.68-43-11.7-5.41-3.28-10.16-7.35-15.3-11-1.31-1.05-2.76-1.84-4.21-2.89l-2-2.76v-.92a23,23,0,0,0-2.77-1c-10.68-11.43-19.77-23.91-24-39.41a11,11,0,0,1,4.08,2.62c.93.93,1.85,1.84,2.9,2.77,2.77,3.15,5.67,6.3,8.44,9.46,3.56,3.41,7.12,6.82,10.68,10.37a6.82,6.82,0,0,0,1.32,2.1c3.56,3.16,7.25,6.18,10.81,9.2a3.29,3.29,0,0,0,1-.13c4.22,2.5,8.57,4.73,12.39,7.62,13.19,9.72,27.69,16.68,42.85,22.72a3.91,3.91,0,0,1,2.24,2.51C1114.2,1298.74,1112.36,1299.27,1110.51,1298.88ZM1168,1326.6c.52-1.31,1-2.5,2-4.6-12.39-3.15-24.12-6.31-35.85-9.33,0-.4.13-.79.13-1.05a44.18,44.18,0,0,1,5.8-1.18c18.06-.79,36.12-1.71,54.31.52,9,1.19,18.33.13,27.42-.78,12.92-1.32,26-3,38.76-5.52,10.68-2.23,21.22-5.92,31.77-8.93,1.85-.53,3.56-1.06,6.2-1.85C1270.94,1320,1204.37,1336.45,1168,1326.6Zm200.64-114.3c-8,15.77-17.8,30.48-31,42.57-13.71,12.61-29.53,21.94-46.67,29.16a204.9,204.9,0,0,1-52.86,13.8c-8.44,1.05-17,1.57-25.71,1.84,29.53-11.56,58.14-25,85.16-41.39s51.15-36.65,74.09-58.19c.66.39,1.18.65,1.84,1.05C1371.79,1204.81,1370.47,1208.76,1368.63,1212.3Zm19.24-55.7c-.92,8.41-6.85,13.93-11.86,19.84-6.72,7.62-13.84,14.72-21.09,21.81a291.59,291.59,0,0,1-49,39.93q-24.14,15.57-49.31,29.43a236.59,236.59,0,0,1-36,15.76,395.32,395.32,0,0,1-49,13c-8.31,1.58-17.54,0-26.11-1.58-21.35-3.94-41.26-12.6-60-23.38-5.66-3.28-10.94-7.36-16.47-11-.8-.4-1.72-.79-2.51-1.19a1.69,1.69,0,0,0-.13-.79v-.91c-1.19-.66-2.37-1.32-3.43-2-3-2.11-5.93-4.34-9-6.44v-1.84h-1.85c-.26-1.45-.39-2.89-.53-3.81-1.58-.4-3.42-.4-4.35-1.31-2.9-2.76-5.4-6.05-8.17-8.94-3.69-3.94-7.51-7.75-11.2-11.56a1.6,1.6,0,0,0-.14-.79c-.65-1.18-1.31-2.36-2-3.54l-.13-.14-.8-.79c-1.58-2.88-3.16-5.65-4.74-8.53-.53-.14-1.19-.14-1.72-.26a19.29,19.29,0,0,0-2.11-2.63c0-.92-.13-2-.13-2.89-.52-.27-1.18-.66-1.71-.92a2.33,2.33,0,0,0-.13-.93c-.27-.26-.53-.65-.79-.91-5.8-9.2-7.25-19.58-7.65-30.09-.26-9.72-.53-19.44,0-29.16,1.58-31.93,7.91-62.79,26.76-89.33,8.44-12,18.85-22.73,28.48-33.9,11.73-13.4,27.42-19.57,44.16-23.91,4.22-1,8.43-2.62,12.52-3.94,18.06-5.38,36.65-7.75,55.37-9.19,18.06-1.45,36.12-2.76,54.31-2.63,14.24.13,28.48,2.23,42.58,4.33,12.26,1.84,24.39,4.6,36.39,7.62a188.23,188.23,0,0,1,25,8.28c10.68,4.2,16.61,13.53,23.2,22.2a161.66,161.66,0,0,1,25.45,49.13,213.56,213.56,0,0,1,9.49,46.38C1390.38,1128.88,1389.32,1142.68,1387.87,1156.6Zm9.1-77.77c-9.23-20-18.46-39.8-28.08-60.82,3.43,2.49,6.46,4.46,9.1,6.83,4,3.54,7.64,7.49,11.47,11.29,5.66,5.79,6.19,13.27,6.85,20.5.66,6.44.79,12.87,1,19.18A19,19,0,0,1,1397,1078.83Zm11.6,35.47c.4-10,.92-20,1.32-30C1415,1094.47,1413.84,1104.45,1408.57,1114.3Z"/></g></svg>