<svg xmlns="http://www.w3.org/2000/svg" viewBox="0 0 2380.02 1737.97"><defs><style>.cls-1{fill:#f5f7f9}</style></defs><g id="Layer_1" data-name="Layer 1"><rect width="2380.02" height="1737.97" class="cls-1"/><path d="M95.3,1603v17h20.3v6.1H95.3v21.46H87.75v-50.62h31.38v6.1Z"/><path d="M138.37,1611.1a18.88,18.88,0,0,1,7.14,1.28,15,15,0,0,1,5.43,3.7,16.38,16.38,0,0,1,3.43,5.82,24.92,24.92,0,0,1,0,15.28,16.08,16.08,0,0,1-3.43,5.81,14.92,14.92,0,0,1-5.43,3.69,20.49,20.49,0,0,1-14.31,0,15,15,0,0,1-5.44-3.69,16.18,16.18,0,0,1-3.48-5.81,24.53,24.53,0,0,1,0-15.28,16.48,16.48,0,0,1,3.48-5.82,15,15,0,0,1,5.44-3.7A19,19,0,0,1,138.37,1611.1Zm0,31.51c3.39,0,5.91-1.14,7.58-3.42s2.5-5.49,2.5-9.62-.83-7.35-2.5-9.64-4.19-3.44-7.58-3.44-6,1.14-7.66,3.44-2.53,5.5-2.53,9.64.85,7.34,2.53,9.62S134.94,1642.61,138.37,1642.61Z"/><path d="M169.71,1618.53a16.38,16.38,0,0,1,4.16-5.53,8.88,8.88,0,0,1,5.85-2,9.15,9.15,0,0,1,2.2.26,5.81,5.81,0,0,1,1.82.8l-.46,5.18a1.11,1.11,0,0,1-1.16,1,8.2,8.2,0,0,1-1.48-.19,11,11,0,0,0-2.12-.2,8.2,8.2,0,0,0-2.92.48,6.91,6.91,0,0,0-2.28,1.41,9.5,9.5,0,0,0-1.78,2.29,24,24,0,0,0-1.44,3.08v22.42h-6.87v-35.81h3.94a2.16,2.16,0,0,1,1.53.41,2.55,2.55,0,0,1,.58,1.42Z"/><path d="M189.06,1647.47v-35.81h4.13A1.68,1.68,0,0,1,195,1613l.5,3.42a18.26,18.26,0,0,1,4.38-3.86,10.51,10.51,0,0,1,5.66-1.49,8.43,8.43,0,0,1,5.78,2,11.29,11.29,0,0,1,3.25,5.31,11.08,11.08,0,0,1,2-3.28,11.31,11.31,0,0,1,2.75-2.26,12.09,12.09,0,0,1,3.23-1.3,14.52,14.52,0,0,1,3.47-.42,13.55,13.55,0,0,1,5.09.89,10,10,0,0,1,3.79,2.63,11.58,11.58,0,0,1,2.37,4.26,19.06,19.06,0,0,1,.81,5.79v22.8h-6.91v-22.8c0-2.68-.59-4.7-1.74-6.07a6.36,6.36,0,0,0-5.1-2,7.83,7.83,0,0,0-2.82.51,6.34,6.34,0,0,0-2.34,1.53,7.42,7.42,0,0,0-1.59,2.54,9.78,9.78,0,0,0-.58,3.53v22.8h-6.91v-22.8c0-2.78-.56-4.82-1.66-6.14a6,6,0,0,0-4.86-2,7.84,7.84,0,0,0-4.13,1.16,13.6,13.6,0,0,0-3.49,3.17v26.58Z"/><path d="M276.73,1642.36a13.79,13.79,0,0,1-2.93,2.56,17,17,0,0,1-3.53,1.74,20.92,20.92,0,0,1-3.85,1,25.19,25.19,0,0,1-3.93.32,18.51,18.51,0,0,1-6.86-1.25,15.47,15.47,0,0,1-5.47-3.67,16.91,16.91,0,0,1-3.59-6,24.22,24.22,0,0,1-1.29-8.23,20.27,20.27,0,0,1,1.17-7,16.6,16.6,0,0,1,3.33-5.62,15.32,15.32,0,0,1,5.3-3.77,17.35,17.35,0,0,1,7-1.37,16.51,16.51,0,0,1,6.05,1.07,13.53,13.53,0,0,1,4.77,3.12,14.48,14.48,0,0,1,3.16,5,19.16,19.16,0,0,1,1.14,6.84,4.4,4.4,0,0,1-.35,2.13,1.41,1.41,0,0,1-1.3.55H252.12a19.37,19.37,0,0,0,.92,5.59,11.2,11.2,0,0,0,2.24,4,8.74,8.74,0,0,0,3.4,2.36,11.85,11.85,0,0,0,4.4.78,13.34,13.34,0,0,0,4-.53,18.88,18.88,0,0,0,2.89-1.15q1.21-.61,2-1.14a2.9,2.9,0,0,1,1.47-.53,1.5,1.5,0,0,1,1.3.64Zm-5.68-16.78a11.69,11.69,0,0,0-.58-3.77,8.56,8.56,0,0,0-1.71-3,7.73,7.73,0,0,0-2.75-2,9.28,9.28,0,0,0-3.74-.7,9.18,9.18,0,0,0-6.82,2.5,12,12,0,0,0-3.15,6.94Z"/><path d="M291.14,1618.53a16.38,16.38,0,0,1,4.16-5.53,8.88,8.88,0,0,1,5.85-2,9.15,9.15,0,0,1,2.2.26,5.81,5.81,0,0,1,1.82.8l-.46,5.18a1.11,1.11,0,0,1-1.16,1,8.2,8.2,0,0,1-1.48-.19,11,11,0,0,0-2.12-.2,8.2,8.2,0,0,0-2.92.48,6.91,6.91,0,0,0-2.28,1.41A9.5,9.5,0,0,0,293,1622a24,24,0,0,0-1.44,3.08v22.42h-6.87v-35.81h3.94a2.16,2.16,0,0,1,1.53.41,2.55,2.55,0,0,1,.58,1.42Z"/></g><g id="Layer_3" data-name="Layer 3"><rect width="425.2" height="425.2" x="736.47" y="656.38" rx="57.5"/><rect width="425.2" height="425.2" x="1218.36" y="656.38"/></g></svg>