<?xml version="1.0" encoding="utf-8"?>
<!-- Generator: Adobe Illustrator 25.2.0, SVG Export Plug-In . SVG Version: 6.00 Build 0)  -->
<svg version="1.1" id="Layer_1" xmlns="http://www.w3.org/2000/svg" xmlns:xlink="http://www.w3.org/1999/xlink" x="0px" y="0px"
	 viewBox="0 0 780 448" style="enable-background:new 0 0 780 448;" xml:space="preserve">
<style type="text/css">
	.st0{fill:#FB9D9D;}
	.st1{fill:#93D1C6;}
	.st2{fill:#8E2727;}
	.st3{fill:#F4AFBC;}
	.st4{fill:#234561;}
	.st5{fill:#A4DBEB;}
</style>
<g id="Group-41" transform="translate(120.000000, 219.293445)">
	<circle id="Oval" class="st0" cx="-25" cy="24.7" r="95"/>
	<path id="Shape" class="st1" d="M88.4-27.9c-5-9.8-12.3-17.6-21.1-24c-8.2-5.9-17.4-9.6-27.4-11c-3.9-0.6-7.8-0.4-11.8-0.6
		c-0.4,0-0.8-0.1-1.2-0.1c-0.1,0-0.3,0.1-0.4,0.1c-0.1-0.1-0.3-0.2-0.5-0.3c-3.5-0.2-7-0.3-10.5-0.5c-0.8,0.1-1.6,0.2-2.3,0.3
		c-0.9-0.1-1.9-0.1-2.8-0.2c-0.3,0-0.6,0-0.8-0.1c-2.8,0.3-5.7,0.5-8.4,0.8c-9.8,0.9-19.5,2.3-29,5c-7.8,2.3-15.7,4.3-23,7.7
		C-56-48.4-61.2-45.9-66-43c-5.5,3.4-10.6,7.4-15.9,11.1c-5,3.5-9.5,7.5-12,13.2c-3.1,7-5.6,14.2-8.1,21.4
		c-1.3,3.7-2.2,7.6-3.3,11.4c-0.4,3.4-0.7,6.9-1.3,10.3c-0.9,5.7,0.1,11.4,0.5,17.1c0.3,3.2,0.4,6.5,0.7,9.7c0.7,6.6,1.7,13,4.6,19
		c0.6,1.2,0.9,2.6,1.3,3.9c0.2,0.3,0.4,0.7,0.6,1.1c0.3,0.6,0.6,1.2,0.9,1.8c0.2,0.5,0.5,0.9,0.8,1.4c1.1,1.8,2.3,3.7,3.4,5.6
		c0.4,0.2,0.8,0.4,1.2,0.6c0.2,0,0.4,0,0.6,0c-0.1,0.2-0.2,0.4-0.3,0.6c0.7,0.9,1.3,1.8,2,2.7c0.2,0.2,0.4,0.5,0.6,0.6
		c0.8,0.5,1.5,1,2.3,1.5c0.7,1,1.3,2,2,3c2.5,2.1,5.1,4.4,7.6,6.5c0,0.1,0.1,0.3,0.1,0.4c0.1,0,0.2-0.1,0.4-0.2
		c0.5,0.4,1,0.9,1.5,1.3c0.6,0.1,1.1,0.3,1.7,0.4c1.3,0.9,2.6,1.8,3.8,2.7c0.8,0.6,1.6,1.2,2.5,1.7c0.7,0.4,1.5,0.7,2.2,1.1
		c8.1,4.1,16.6,7.1,25.6,8.6c10.5,1.9,21,1.7,31.4-0.8c7.5-1.9,14.7-4.6,22-7.1c8.7-3,17-6.8,24.7-11.9c5.7-3.8,11.2-7.9,16.3-12.4
		c5-4.4,9.5-9.1,13.9-14c6.3-7.2,11.7-15.1,15.6-23.8c2.6-5.8,5.1-11.8,7-17.9C93,20,94.4,12.4,94.9,4.5
		C95.5-6.9,93.6-17.7,88.4-27.9z M58.7-50.4c-10.3-3.7-20.8-6.9-31.6-8.7C38.3-59,49-56.5,58.7-50.4z M-87.9,81.8
		c-0.5-0.4-0.9-0.8-1.3-1.1c-0.5,0.3-1.1,0.6-1.7,0.9c-0.1,0-0.4-0.5-0.4-0.5c0.2-0.3,0.5-0.5,1.1-1.1c-1.7-3.6-3.6-7.5-5.6-11.5
		c0.1-0.1,0.3-0.2,0.5-0.3c2,3.2,4,6.4,6,9.6c0.2,0.2,0.4,0.4,0.5,0.6L-87.9,81.8z M-25.3,112.7c-1.9,0-3.7,0.1-5.5,0.1
		c0-0.2,0-0.4,0-0.7c1.9-0.1,3.7-0.2,5.5-0.2C-25.3,112.1-25.3,112.4-25.3,112.7z M2.5,105.7c4.6-2,9.3-3.8,13.8-5.8
		c7.3-3.2,14.2-7.4,20.5-12.4c1.9-1.4,3.5-3.1,5.2-4.6c0-0.1-0.1-0.1-0.1-0.2c0,0.1,0.1,0.1,0.1,0.2c1.3-1,2.6-2.1,3.9-3.1
		c1.9-2,3.9-3.9,5.7-6c1.3-1.5,2.5-3,3.7-4.5c1.4-1.3,2.8-2.6,4.2-3.9c0.1-0.2,0.2-0.3,0.3-0.5c0.1-0.1,0.2-0.3,0.3-0.4
		c1.1-1.2,2.1-2.4,3.2-3.6c0.5-0.5,1.1-0.9,1.7-1.2C50.9,84.3,29.8,99.2,2.5,105.7z M84.7,6.5c-1.3,12.6-6,23.9-13,34.4
		c-0.1,0.1-0.2,0.3-0.3,0.4c-0.6,0.8-1.2,1.7-1.8,2.5c0,0.3-0.1,0.5-0.2,0.8c-0.2,0.2-0.4,0.4-0.6,0.6c-0.5,0.9-0.9,2-1.5,2.8
		c-1,1.4-2.2,2.7-3.3,4l-0.2,0l-0.2,0c-0.1,0.3-0.1,0.6-0.2,0.9c0,0.3-0.1,0.5-0.2,0.8c-0.1,0-0.2,0.1-0.4,0.1c-0.3,0.4-0.7,0.7-1,1
		c0,0.1,0.1,0.3,0.1,0.4c-0.4,0.1-0.7,0.2-1,0.3c-0.9,1.3-1.7,2.6-2.6,3.8c-0.8,1.1-1.7,2.1-2.5,3.1c-0.3,0.3-0.7,0.5-1,0.7
		c-0.4,0.8-0.7,1.5-1.1,2.2c-0.4,0.4-0.9,0.8-1.3,1.2c-1.5,1.5-2.9,3-4.4,4.5C42.6,76.4,37,81.6,31.3,86.7c-1.5,1.3-3.2,2.2-4.8,3.2
		c-4.5,2.4-8.8,5-13.5,7.2c-4.4,2-8.9,3.6-13.5,5c-4.8,1.5-9.9,2.4-14.8,3.9c-7.5,2.3-14.9,2-22.4,0.3c-6.8-1.6-13.3-4.4-19.5-7.6
		c-2-1.1-3.8-2.4-5.7-3.6c-0.5-0.3-1.2-0.5-1.7-0.7c-1.1-0.9-2.1-1.9-3.1-2.8c-0.1,0-0.2,0.1-0.4,0.1c-2.4-2.2-4.9-4.4-7.1-6.7
		c-1.8-1.9-3.4-4.2-5.1-6.3c-0.3-0.2-0.6-0.4-0.9-0.6c-0.1,0-0.2,0.1-0.3,0c-0.3-0.5-0.6-0.9-0.9-1.4c0-0.1,0-0.3,0-0.4
		c0-0.1,0-0.2-0.1-0.3c-1.2-1.3-2.6-2.6-3.7-4c-3.2-4.1-5.4-8.9-6.7-13.9c-1.2-4.4-2.6-8.7-3.3-13.3c-1.1-6.8-2.1-13.6-2.1-20.5
		c0-4.5,1.6-9.2,3-13.7c2.2-7.5,5.4-14.6,9.4-21.3c4.5-7.4,9.7-14.3,16.2-19.9C-62.3-36.8-54-41.9-45-45.8c3.1-1.4,6.2-2.6,9.4-3.8
		c0.1,0.2,0.2,0.3,0.2,0.6c-1.1,0.7-2.2,1.4-3.4,2c-8.5,4.3-15.9,10.1-22.6,16.7C-67.7-24-73.1-17-76.3-8.5c-0.5,1.2-0.6,2.6-0.8,4
		c-0.1,0.4,0.2,1.1,0.5,1.3c0.4,0.1,1.1,0,1.4-0.3c1.5-1.8,3.2-3.6,4.6-5.5c2.9-4.2,5.5-8.7,8.6-12.7c4.6-6,10.5-10.7,16.3-15.3
		c7.2-5.5,15.1-9.5,23.6-12.6c3.5-1.3,7.1-2.4,10.6-3.6c7.9-2.7,16.1-3.1,24.4-2.8c8.6,0.4,17.2,1.1,25.6,3.3c8,2,15.7,4.7,23,8.3
		c3.8,1.8,7.3,4.2,10.9,6.5c4.4,2.7,6.2,7.3,8.2,11.8c0.7,1.5,1.1,3.2,1.7,4.8C85.2-12.3,85.7-3,84.7,6.5z"/>
</g>
<g id="Group-40-Copy" transform="translate(697.000000, 319.293445)">
	<circle id="Oval_1_" class="st2" cx="-18.5" cy="23.2" r="92.5"/>
	<path id="Shape_1_" class="st3" d="M43.1-65.3c-4.3-1.6-8.4-3.4-12.3-6c-4.7-3.3-9.4-6.6-14.4-9.3C11.9-83.1,7-85,2.1-86.6
		c-6.9-2.2-14.1-3.2-21.4-2.5c-6.2,0.7-12.4,1.3-18.4,2.5c-3.7,0.8-7.4,2.3-10.9,3.8c-5.1,2.2-10.2,4.3-15,6.9
		c-5.1,2.9-9.9,6.2-14.8,9.7c-7.4,5.4-14.4,11.3-20.2,18.5c-4.9,6.2-9.3,12.8-12.2,20.2c-2.9,7.2-5.1,14.6-6.2,22.4
		c-0.7,5.3-1,10.6-1.9,15.9c-1.1,6.4-1.5,12.9-0.9,19.3c0.3,4.3,0.8,8.7,1.4,13.1c0.7,5.1,1.4,10.3,2.8,15.2
		c1.5,5.3,3.5,10.6,6,15.6c2.9,6.1,6.4,11.7,10.7,16.8c2.9,3.4,5.9,6.6,9,9.9c2.3,2.4,4.7,5,7.3,7c8.6,6.5,17.5,12.6,27.7,16.3
		c3.4,1.3,6.7,2.9,10.2,3.6c4.1,0.9,8.3,1.1,12.5,1.1c3.8,0,7.7-0.4,11.5-0.7c0.1-0.1,0.3-0.2,0.4-0.2c5.4-0.9,10.8-1.6,16.2-2.7
		c4.8-1,9.6-2,14.3-3.5c8.9-2.9,17.4-6.5,25.5-11.2c8.4-4.8,16.1-10.6,22.7-17.7c1.8-2,3.6-3.9,5.2-6.1c2.3-3.2,4.5-6.5,6.6-9.8
		c3.4-5.4,6-11.2,7.8-17.3c1-3.3,1.8-6.8,2.7-10.2c0.4-3.5,0.8-7,1.3-10.5c0.2-1.1,0.4-2.2,0.6-3.3c0-0.5-0.1-1-0.1-1.6
		c0-0.8,0.1-1.6,0.1-2.4c0.1-1.3,0.3-2.7,0.5-3.9c-0.1-1.9-0.2-3.7-0.4-5.6c0-0.6-0.1-1.3-0.2-1.9c0-1.1,0-2.3-0.1-3.3
		c-0.2-0.7-0.3-1.3-0.5-1.9c0.1-0.3,0.2-0.6,0.4-0.9c0-0.5-0.1-1-0.1-1.6c-0.1-0.3-0.1-0.6-0.2-0.9C81.6,9.3,81.3,7,81,4.7
		c-0.2-0.4-0.3-0.8-0.5-1.2c-0.1-0.3-0.2-0.7-0.2-1c-0.5-1.9-1-3.8-1.5-5.6C77.4-7,76-10.9,74.5-14.7c-1.1-3-2.7-5.9-3.5-9
		c-1-3.9-1.3-7.9-2.6-11.8c-1.3-4.3-2.8-8.5-5-12.3C58.8-56.3,51.9-62.1,43.1-65.3z M-105.7,53.1c-5.1-13.3-6.8-27.1-6.8-41.2
		c0-1.8,0.3-3.5,0.7-5.1c0.7-3,3.1-4.5,5.7-5.7c1-0.4,1.9-1,2.7-1.7c0.5-0.4,0.8-1.5,0.5-1.9c-0.4-0.6-1.3-1.2-2-1.2
		c-1.4,0-2.8,0.4-4.2,0.6c-1.2,0.2-1.9-0.1-1.7-1.6c1.5-10.5,4.5-20.5,9.9-29.7c4.3-7.3,9.8-13.6,15.9-19.5
		c9.8-9.5,21.1-16.9,33.5-22.3c13.7-6.1,28-9.1,43-7.6c7.3,0.8,14.2,3,20.7,6.4c3.4,1.9,6.8,4,10.2,6.1c0.5,0.2,0.8,0.7,1.7,1.5
		c-3.7,0.2-6.8,0.1-9.9,0.5c-3.6,0.4-7.2,1.3-10.8,1.9c-2.2,0.3-4.6,0.9-6.8,0.7c-10.8-0.8-21,1.7-30.9,5.5
		c-6.6,2.5-12.6,6.3-18,10.9c-4.9,4.1-9.8,8.2-14.1,13c-6.8,7.5-13.1,15.7-17.7,24.9c-3.2,6.5-6.7,13-8.7,19.9
		c-2.9,9.8-7.4,19.1-8.6,29.5c-0.8,7.6-1.1,15.1,0.1,22.7c0.1,0.6,0.2,1.2,0.2,1.8c-0.3,0.1-0.6,0.2-0.9,0.3
		C-103.3,58.7-104.6,56-105.7,53.1z M-18.4-60.6C-29.3-54.3-40-48-49.6-39.9C-59.2-31.8-68-23-76.3-13.6c-0.3-0.2-0.6-0.5-0.8-0.7
		c7.6-13.2,17.2-24.8,29.5-33.9C-39-54.6-29.5-59.6-18.4-60.6z M-94,63.8c4.1,7.5,8.4,15.1,12.6,22.7C-87.8,80.2-92.8,73-94,63.8z
		 M-33.6,124c-1.2,0-2.5,0-3.7-0.1c-1.6-0.2-3.2-0.5-4.8-0.8c-0.5-0.1-1-0.2-1.4-0.4c-0.3-0.3-0.6-0.6-0.9-0.9
		c-0.2,0-0.4-0.1-0.5-0.1c-2.3-0.7-4.5-1.4-6.9-2.1c-4.9-2.5-10.1-4.6-14.7-7.7c-5.3-3.5-10.5-7.5-15.2-11.9
		c-5.3-4.9-10.2-10.3-14.7-15.8c-2.7-3.3-4.5-7.3-6.7-11c-0.3-0.5-0.3-1.1-0.5-1.6c0.1-0.1,0.3-0.2,0.4-0.3c1.3,1.7,2.5,3.5,3.8,5.1
		c3.2,4,6.4,8,9.8,11.8c2.9,3.2,6.2,6.1,9.3,9c4.8,4.5,9.9,8.7,15.7,12c4.1,2.3,8.2,4.8,12.3,7.2c0.3,0.1,0.6,0.3,0.9,0.4
		c1.1,0.2,2.2,0.5,3.3,0.6c4.8,1.9,9.7,3.9,14.5,5.9C-33.6,123.6-33.6,123.8-33.6,124z M10.6,110.1c-5.8,3.5-11.4,7.6-18.3,8.8
		c-2.8,0.5-5.7,0.5-8.6,0.7c-0.8,0-1.5,0.2-2.3,0.3c-0.5-0.1-1-0.2-1.5-0.4c-0.1-0.1-0.2-0.2-0.3-0.3c-0.4,0.1-0.9,0.3-1.3,0.5
		c-7.1-0.8-14-2.4-20-6.5c0.7-0.3,1.5-0.3,2.2-0.3c0.6,0,1.2,0.1,1.8,0.1c1.9,0.3,3.8,0.5,5.7,0.8c2.2,0.1,4.5,0.2,6.8,0.4
		c0.3,0.1,0.7,0.4,1.1,0.3c2.2,0,4.3,0,6.5,0c0.1-0.1,0.2-0.2,0.3-0.4c2.2-0.4,4.4-0.9,6.5-1.1c7.4-0.6,14.5-2.5,21.6-4.9
		c0.4-0.1,0.8-0.2,1.5,0.2C11.8,109,11.3,109.7,10.6,110.1z M38.7,102.6c-0.2-0.6-0.4-1.2-0.7-2.2c-5.2,2.6-10.2,5-15.1,7.5
		c-0.1-0.1-0.2-0.3-0.3-0.4c0.6-0.7,1-1.5,1.6-2.1c6-5.7,11.9-11.4,18.9-16.1c3.4-2.3,6.4-5.4,9.2-8.5c4.1-4.3,8-8.8,11.7-13.5
		c3-4,5.5-8.4,8.3-12.6c0.5-0.7,0.9-1.4,1.6-2.5C72.2,69.5,54.1,95.1,38.7,102.6z M73.6,2.8c1.9,7.9,3,15.9,2,24.1
		c-1,8.5-3.6,16.5-7.4,24.1c-3.7,7.6-8.5,14.3-14.1,20.6c-2.6,2.9-5.4,5.6-8.3,8.3c6.7-12.9,12.6-26.1,17-39.9
		C67.3,26.2,69.6,12,71-2.4c0.3-0.1,0.6-0.1,1-0.2C72.5-0.8,73.2,1,73.6,2.8z M63.6-22.4c2.2,3.2,1.8,6.9,1.8,10.5
		c0,4.7-0.4,9.3-0.7,13.9c-0.7,9.7-2.2,19.3-5,28.6c-2.4,8.4-5.2,16.8-8.2,25c-2.1,5.6-4.7,11.1-7.7,16.3c-4,6.6-8.2,13.1-13,19.2
		c-2.4,3-6,5.2-9.5,7.3c-8.5,5-18,8-27.7,9.8c-2.9,0.6-6,0.7-9,1.1c-0.4,0.1-0.8,0.2-1.2,0.3c-0.1-0.1-0.2-0.2-0.3-0.2
		c-0.1-0.1-0.2-0.2-0.3-0.3c-0.6,0.1-1.2,0.3-1.8,0.3c-1.7,0.2-3.3,0.3-5,0.4c-0.2-0.2-0.4-0.5-0.5-0.6l0,0l-0.1,0.1l-0.1,0.1
		c-0.1,0.1-0.3,0.2-0.4,0.4c-0.5-0.4-1-0.9-1.3-1.2c-0.7,0.3-1.3,0.9-1.9,0.8c-1.8-0.1-3.7-0.5-5.5-0.7c-2.5-0.3-4.9-0.4-7.3-0.7
		c-0.1-0.1-0.2-0.2-0.3-0.2c-0.6-0.2-1.2-0.4-1.7-0.6l-0.1,0c-0.2,0-0.3,0-0.5,0c-1.4-0.5-2.8-1-4.2-1.6c-0.2,0.1-0.4,0.3-0.7,0.4
		c-0.5-0.1-1-0.2-1.5-0.3c-0.3-0.3-0.6-0.6-0.9-1c-0.3,0.1-0.6,0.1-0.9,0.2c-0.1-0.1-0.2-0.2-0.3-0.3c-0.2,0-0.4-0.1-0.5-0.1
		c-4.7-1.5-8.3-4.6-11.6-8.2c-3-3.3-6-6.6-8.7-10.1C-82,74.6-89,62-90.5,47.1c-0.7-6.7-0.3-13.5-0.3-20.3c0-8.2,3.6-15,8.1-21.5
		c1.1-1.6,2.1-3.4,3.1-5.1c4.6-7.3,10.3-13.7,16.3-19.8c5.8-5.9,11.6-11.8,17.9-17.2c4.9-4.2,10.5-7.7,16-11.2
		c4.8-3,9.8-5.7,14.8-8.2c3.6-1.8,7.3-3.3,11.1-4.6c4.9-1.7,9.8-0.3,14.6,0.8c8.3,1.8,16.2,5,23.5,9.5c6.2,3.8,11.9,8.2,17.1,13.3
		C56.2-32.7,60-27.6,63.6-22.4z M43.5-52.1c-9.1-4.2-18.3-8.3-27.9-12.8c1.9-0.2,3.6-0.4,5.2-0.3c2.4,0.1,4.9,0.3,7.3,0.5
		c3.7,0.3,6.1,2.8,8.5,5.1c2.2,2,4.1,4.2,6.1,6.4C43.1-52.9,43.3-52.5,43.5-52.1z M58.1-43.3c-2.8-3.6-5.7-7.2-8.5-10.8
		C54.4-52.1,57-48.3,58.1-43.3z"/>
</g>
<g id="Group-39" transform="translate(441.000000, 0.293445)">
	<ellipse id="Oval_2_" class="st4" cx="-21.5" cy="98.7" rx="98.5" ry="99"/>
	<path id="Shape_2_" class="st5" d="M102,81.8c-2.3-4.1-4.3-8.2-5.5-12.8c-1.5-5.6-2.9-11.3-5-16.7c-1.9-4.9-4.4-9.6-7.1-14.1
		c-3.9-6.3-8.8-11.9-14.9-16.2c-5.2-3.6-10.4-7.2-16-10.3c-3.4-1.9-7.3-3.1-10.9-4.3c-5.3-1.7-10.8-3.5-16.2-4.7
		C20.4,1.5,14.4,0.8,8.4,0.3c-9.3-0.8-18.7-1-27.9,0.7c-7.9,1.5-15.7,3.6-22.9,7.3c-7.1,3.6-13.7,7.8-19.7,13
		c-4.1,3.6-7.9,7.5-12,10.9c-5.1,4.2-9.7,8.9-13.6,14.2c-2.6,3.6-5.2,7.2-7.6,11c-2.8,4.4-5.8,8.8-8,13.5c-2.4,5.1-4.4,10.4-5.8,16
		c-1.8,6.6-2.8,13.2-2.9,20c-0.1,4.5,0.2,9.1,0.4,13.6c0.2,3.4,0.3,6.9,1,10.2c2.4,10.7,5.2,21.3,10.6,31c1.8,3.2,3.3,6.7,5.5,9.6
		c2.6,3.4,5.7,6.4,8.9,9.2c2.9,2.6,6.2,4.8,9.3,7.1c0.1,0,0.3,0.1,0.4,0.1c4.8,2.9,9.5,6,14.4,8.8c4.4,2.4,8.8,4.8,13.4,6.8
		c8.8,3.7,17.8,6.6,27.2,8.4c9.7,1.9,19.5,2.6,29.4,1.5c2.7-0.3,5.4-0.6,8.1-1.2c3.9-0.9,7.8-2,11.7-3.1c6.2-1.8,12-4.6,17.5-8.1
		c3-1.9,5.9-4,8.9-6c2.6-2.4,5.3-4.8,8-7.2c0.9-0.7,1.7-1.4,2.6-2.1c0.3-0.4,0.6-0.9,0.9-1.3c0.6-0.6,1.2-1.2,1.7-1.8
		c1-0.9,2-1.8,3-2.7c1.2-1.5,2.3-3,3.4-4.5c0.4-0.5,0.7-1,1-1.6c0.7-0.9,1.5-1.8,2.2-2.6c0.3-0.6,0.6-1.2,0.9-1.8
		c0.3-0.1,0.6-0.3,0.9-0.4c0.3-0.4,0.6-0.9,0.9-1.3c0.1-0.3,0.3-0.5,0.4-0.9c1.3-1.9,2.6-3.9,3.9-5.8c0.1-0.4,0.3-0.9,0.4-1.3
		c0.2-0.3,0.3-0.6,0.5-0.9c0.9-1.8,1.7-3.6,2.6-5.3c1.5-3.9,3-7.9,4.4-11.8c1.1-3.1,1.8-6.4,3.3-9.2c1.8-3.6,4.2-7,5.9-10.8
		c1.8-4.2,3.5-8.3,4.3-12.8C108.1,99.2,106.7,90.2,102,81.8z M-92.1,73.6C-87.3,60-79.4,48.3-70,37.5c1.2-1.3,2.5-2.5,3.9-3.5
		c2.6-1.8,5.4-1.4,8.2-0.6c1,0.3,2.2,0.6,3.3,0.5c0.6,0,1.6-0.6,1.7-1.1c0.1-0.7-0.2-1.8-0.7-2.3c-1.1-0.9-2.5-1.6-3.7-2.3
		c-1-0.7-1.4-1.4-0.2-2.4c8.2-7.1,17.1-12.7,27.5-16.2c8.2-2.8,16.7-3.9,25.3-4.3c14-0.7,27.6,1.1,40.8,5.1
		C50.6,14.8,63.8,22,74.3,33.2c5.2,5.5,9,11.8,11.7,18.7c1.4,3.7,2.6,7.6,3.8,11.5c0.2,0.5,0.1,1.1,0.3,2.3c-2.9-2.3-5.3-4.5-8-6.2
		c-3.1-2.1-6.4-3.8-9.6-5.8c-2-1.2-4.1-2.4-5.8-4C59,41.8,49.5,36.9,39.3,33.2c-6.8-2.4-14-3.6-21.2-3.6C11.5,29.5,5,29.3-1.5,30.1
		c-10.3,1.2-20.6,3.4-30.3,7.3c-6.8,2.8-13.8,5.5-20,9.5c-8.8,5.6-18.5,9.7-26.2,16.9c-5.7,5.3-10.9,10.9-15.1,17.5
		c-0.3,0.5-0.7,1-1,1.5c-0.3-0.1-0.6-0.2-0.9-0.4C-94,79.5-93.2,76.5-92.1,73.6z M51.2,44.4c-12.6-2.4-25.1-4.7-38-4.9
		C0.4,39.4-12.3,40.3-25,42c-0.1-0.4-0.1-0.7-0.2-1.1c14.7-5,29.8-7.5,45.4-6.4C31.3,35.3,41.9,37.8,51.2,44.4z M-90.2,89.6
		c-1.8,8.5-3.6,17.1-5.3,25.8C-96.3,106.2-95.3,97.4-90.2,89.6z M-83.5,176c-0.9-0.9-1.9-1.7-2.8-2.6c-1.1-1.2-2.2-2.5-3.2-3.8
		c-0.3-0.4-0.6-0.8-0.9-1.2c-0.1-0.4-0.1-0.9-0.1-1.3c-0.1-0.1-0.2-0.3-0.4-0.4c-1.3-2.1-2.6-4.1-3.9-6.2
		c-2.2-5.2-4.7-10.3-6.3-15.7c-1.8-6.2-3.1-12.8-3.9-19.2c-0.8-7.3-1-14.6-0.9-21.9c0.1-4.3,1.4-8.6,2.1-12.9c0.1-0.6,0.4-1,0.7-1.5
		c0.2,0,0.4,0.1,0.6,0.1c-0.1,2.2-0.4,4.3-0.4,6.5c-0.1,5.2-0.4,10.4-0.2,15.6c0.1,4.3,0.7,8.8,1.2,13.1c0.7,6.7,1.8,13.3,4.2,19.7
		c1.7,4.5,3.1,9.1,4.7,13.7c0.1,0.3,0.3,0.6,0.4,0.9c0.7,0.9,1.4,1.8,2.2,2.7c2.5,4.7,4.9,9.5,7.3,14.2
		C-83.2,175.7-83.4,175.9-83.5,176z M-40,194.8c-6.9-1.2-13.9-1.7-20-5.5c-2.5-1.5-4.7-3.4-7.1-5.1c-0.6-0.5-1.3-0.9-2-1.3
		c-0.3-0.4-0.6-0.9-0.9-1.3c0-0.1,0-0.3,0-0.4c-0.4-0.2-0.9-0.4-1.3-0.5c-5-5.3-9.2-11.1-11.2-18.4c0.8,0.2,1.4,0.7,1.9,1.2
		c0.4,0.4,0.9,0.9,1.4,1.3c1.3,1.5,2.6,2.9,3.9,4.4c1.7,1.6,3.3,3.2,5,4.8c0.2,0.3,0.3,0.7,0.6,1c1.7,1.5,3.4,2.9,5,4.3
		c0.1,0,0.3,0,0.5-0.1c2,1.2,4,2.2,5.8,3.6c6.1,4.5,12.9,7.8,20,10.6c0.4,0.1,0.7,0.4,1,1.2C-38.3,194.7-39.2,195-40,194.8z
		 M-13.2,207.7c0.2-0.6,0.5-1.2,0.9-2.1c-5.8-1.5-11.2-2.9-16.7-4.3c0-0.2,0.1-0.4,0.1-0.5c0.9-0.2,1.8-0.5,2.7-0.6
		c8.4-0.4,16.8-0.8,25.3,0.2c4.2,0.6,8.5,0.1,12.8-0.4c6-0.6,12.1-1.4,18.1-2.6c5-1,9.9-2.8,14.8-4.2c0.9-0.2,1.7-0.5,2.9-0.9
		C34.8,204.6,3.7,212.3-13.2,207.7z M80.3,154.4c-3.7,7.3-8.3,14.2-14.4,19.8c-6.4,5.9-13.8,10.2-21.8,13.6
		c-7.9,3.3-16.2,5.3-24.6,6.4c-3.9,0.5-7.9,0.7-12,0.9c13.8-5.4,27.1-11.6,39.7-19.3c12.6-7.7,23.8-17.1,34.5-27.1
		c0.3,0.2,0.6,0.3,0.9,0.5C81.8,150.9,81.2,152.8,80.3,154.4z M89.3,128.5c-0.4,3.9-3.2,6.5-5.5,9.2c-3.1,3.6-6.5,6.9-9.8,10.2
		c-6.9,7-14.6,13.3-22.9,18.6c-7.5,4.8-15.2,9.4-23,13.7c-5.3,2.9-11,5.4-16.8,7.3c-7.5,2.4-15.1,4.6-22.9,6.1
		c-3.9,0.7-8.2,0-12.2-0.7c-10-1.8-19.2-5.9-28-10.9c-2.6-1.5-5.1-3.4-7.7-5.1c-0.4-0.2-0.8-0.4-1.2-0.6c0-0.1,0-0.2-0.1-0.4
		c0-0.1,0-0.3,0-0.4c-0.6-0.3-1.1-0.6-1.6-0.9c-1.4-1-2.8-2-4.2-3c0-0.3,0-0.6,0-0.9h-0.1h-0.1h-0.1c-0.2,0-0.4,0-0.6,0
		c-0.1-0.7-0.2-1.3-0.2-1.8c-0.7-0.2-1.6-0.2-2-0.6c-1.4-1.3-2.5-2.8-3.8-4.2c-1.7-1.8-3.5-3.6-5.2-5.4c0-0.1,0-0.2-0.1-0.4
		c-0.3-0.5-0.6-1.1-0.9-1.7l-0.1-0.1c-0.1-0.1-0.2-0.2-0.4-0.4c-0.7-1.3-1.5-2.6-2.2-4c-0.2-0.1-0.6-0.1-0.8-0.1
		c-0.3-0.4-0.6-0.9-1-1.2c0-0.4-0.1-0.9-0.1-1.3c-0.2-0.1-0.6-0.3-0.8-0.4c0-0.1,0-0.3-0.1-0.4c-0.1-0.1-0.2-0.3-0.4-0.4
		c-2.7-4.3-3.4-9.1-3.6-14c-0.1-4.5-0.2-9.1,0-13.6c0.7-14.9,3.7-29.3,12.5-41.6c3.9-5.6,8.8-10.6,13.3-15.8
		c5.5-6.2,12.8-9.1,20.6-11.1c2-0.5,3.9-1.2,5.8-1.8c8.4-2.5,17.1-3.6,25.8-4.3c8.4-0.7,16.8-1.3,25.3-1.2c6.6,0.1,13.3,1,19.9,2
		c5.7,0.9,11.4,2.1,17,3.6c4,1,7.9,2.3,11.7,3.9c5,2,7.7,6.3,10.8,10.3c5.3,6.9,9.2,14.6,11.9,22.9c2.2,7,3.8,14.2,4.4,21.6
		C90.4,115.5,90,122,89.3,128.5z M93.5,92.2c-4.3-9.3-8.6-18.6-13.1-28.4c1.6,1.2,3,2.1,4.2,3.2c1.8,1.7,3.6,3.5,5.3,5.3
		c2.6,2.7,2.9,6.2,3.2,9.6c0.3,3,0.4,6,0.5,8.9C93.7,91.4,93.6,91.8,93.5,92.2z M98.9,108.7c0.2-4.7,0.4-9.3,0.6-14
		C101.9,99.5,101.4,104.2,98.9,108.7z"/>
</g>
</svg>
