<svg width="1000" height="1000" viewBox="0 0 1000 1000" fill="none" xmlns="http://www.w3.org/2000/svg">
<rect width="1000" height="1000" fill="white"/>
<circle cx="500.002" cy="331.25" r="281.25" fill="#DCE2EA"/>
<path d="M373.438 331.281C390.527 331.281 404.688 317.365 404.688 300.031C404.688 282.941 390.527 268.781 373.438 268.781C356.104 268.781 342.188 282.941 342.188 300.031C342.188 317.365 356.104 331.281 373.438 331.281ZM395.166 339.093H391.016C385.645 341.779 379.785 342.999 373.438 342.999C367.09 342.999 360.986 341.779 355.615 339.093H351.465C333.398 339.093 318.75 353.986 318.75 372.052V382.062C318.75 388.654 323.877 393.781 330.469 393.781H416.406C422.754 393.781 428.125 388.654 428.125 382.062V372.052C428.125 353.986 413.232 339.093 395.166 339.093Z" fill="#1F2937"/>
<path d="M516.406 325.421H498.828V307.843C498.828 305.768 496.997 303.937 494.922 303.937H491.016C488.818 303.937 487.109 305.768 487.109 307.843V325.421H469.531C467.334 325.421 465.625 327.252 465.625 329.328V333.234C465.625 335.431 467.334 337.14 469.531 337.14H487.109V354.718C487.109 356.915 488.818 358.624 491.016 358.624H494.922C496.997 358.624 498.828 356.915 498.828 354.718V337.14H516.406C518.481 337.14 520.312 335.431 520.312 333.234V329.328C520.312 327.252 518.481 325.421 516.406 325.421Z" fill="#1F2937"/>
<path d="M560.925 305.127L617.81 330.762C619.519 331.494 621.228 331.494 622.937 330.762L679.822 305.127C683.972 303.174 683.972 297.07 679.822 295.117L622.937 269.483C622.205 269.238 621.228 268.75 620.496 268.75C619.519 268.75 618.542 269.238 617.81 269.483L560.925 295.117C556.775 297.07 556.775 303.174 560.925 305.127ZM679.822 326.612L665.662 320.02L626.111 338.086C624.402 338.819 622.449 339.307 620.496 339.307C618.298 339.307 616.345 338.819 614.636 338.086L575.085 320.02L560.925 326.612C556.775 328.32 556.775 334.424 560.925 336.377L617.81 362.012C619.519 362.744 621.228 362.744 622.937 362.012L679.822 336.377C683.972 334.424 683.972 328.32 679.822 326.612ZM679.822 357.862L665.662 351.27L626.111 369.336C624.402 370.069 622.449 370.557 620.496 370.557C618.298 370.557 616.345 370.069 614.636 369.336L575.085 351.27L560.925 357.862C556.775 359.57 556.775 365.674 560.925 367.627L617.81 393.262C619.519 393.994 621.228 393.994 622.937 393.262L679.822 367.627C683.972 365.674 683.972 359.57 679.822 357.862Z" fill="#1F2937"/>
<path d="M149.894 697.712L144.644 718.187H133.619L138.869 697.712H149.894ZM165.294 697.712L160.044 718.187H149.019L154.269 697.712H165.294Z" fill="#1F2937"/>
<path d="M217.934 750.212C216.068 752.254 213.063 753.917 208.922 755.2C204.838 756.483 200.755 757.125 196.672 757.125C188.563 757.125 181.768 754.529 176.284 749.337C170.801 744.087 168.059 737.233 168.059 728.775C168.059 724.342 168.993 719.792 170.859 715.125C172.726 710.458 175.788 706.521 180.047 703.312C184.305 700.104 190.022 698.5 197.197 698.5C202.038 698.5 206.209 699.229 209.709 700.687C213.209 702.087 215.863 703.633 217.672 705.325L219.072 718.537L209.534 719.412L208.309 711.887C206.793 710.896 204.955 710.137 202.797 709.612C200.638 709.087 198.597 708.825 196.672 708.825C191.772 708.825 187.863 710.458 184.947 713.725C182.088 716.992 180.659 721.746 180.659 727.987C180.659 734.579 182.234 739.362 185.384 742.337C188.534 745.312 192.559 746.8 197.459 746.8C202.068 746.8 205.684 746.012 208.309 744.437L209.534 735.95L219.072 736.825L217.934 750.212Z" fill="#1F2937"/>
<path d="M266.72 736.562C266.72 742.804 264.679 747.792 260.595 751.525C256.512 755.258 251.32 757.125 245.02 757.125C238.954 757.125 233.995 755.375 230.145 751.875C226.354 748.317 224.458 743.358 224.458 737C224.458 731.225 226.208 726.267 229.708 722.125C233.208 717.983 238.516 715.912 245.633 715.912C252.749 715.912 258.029 717.983 261.47 722.125C264.97 726.208 266.72 731.021 266.72 736.562ZM255.083 736.212C255.083 732.187 254.149 729.242 252.283 727.375C250.416 725.508 248.141 724.575 245.458 724.575C242.541 724.575 240.237 725.625 238.545 727.725C236.912 729.767 236.095 732.654 236.095 736.387C236.095 739.771 236.854 742.629 238.37 744.962C239.945 747.296 242.279 748.462 245.37 748.462C248.287 748.462 250.62 747.383 252.37 745.225C254.179 743.008 255.083 740.004 255.083 736.212Z" fill="#1F2937"/>
<path d="M319.784 756.25H297.996V747.762H303.246V734.025C303.246 730.642 302.663 728.221 301.496 726.762C300.388 725.304 298.725 724.575 296.509 724.575C293.825 724.575 291.754 725.421 290.296 727.112C288.838 728.746 288.079 730.904 288.021 733.587V747.762H293.271V756.25H271.484V747.762H276.734V725.362H271.046V716.787H288.021V722.825C290.646 718.275 294.875 716 300.709 716C304.442 716 307.679 717.108 310.421 719.325C313.163 721.542 314.534 724.983 314.534 729.65V747.762H319.784V756.25Z" fill="#1F2937"/>
<path d="M356.776 744C356.193 748.55 354.618 751.875 352.051 753.975C349.485 756.075 346.16 757.125 342.076 757.125C337.701 757.125 334.143 756.046 331.401 753.887C328.718 751.671 327.376 748.521 327.376 744.437V724.837H321.776V716.787H327.376V704.8H338.664V716.787H352.839V724.837H338.664V742.512C338.664 745.954 340.239 747.675 343.389 747.675C344.089 747.675 345.022 747.383 346.189 746.8C347.414 746.158 348.201 744.379 348.551 741.462L356.776 744Z" fill="#1F2937"/>
<path d="M397.065 743.825C396.773 747.325 395.052 750.417 391.902 753.1C388.752 755.783 384.348 757.125 378.69 757.125C372.798 757.125 367.927 755.462 364.077 752.137C360.285 748.812 358.39 743.854 358.39 737.262C358.39 731.196 360.11 726.15 363.552 722.125C367.052 718.042 371.923 716 378.165 716C383.648 716 388.081 717.575 391.465 720.725C394.906 723.875 396.656 728.017 396.715 733.15C396.715 735.075 396.51 736.971 396.102 738.837H370.202C370.844 745.079 373.935 748.2 379.477 748.2C382.51 748.2 384.552 747.471 385.602 746.012C386.71 744.554 387.381 743.242 387.615 742.075L397.065 743.825ZM385.077 732.275C385.31 730.292 384.873 728.425 383.765 726.675C382.715 724.925 380.848 724.05 378.165 724.05C375.831 724.05 374.023 724.808 372.74 726.325C371.456 727.842 370.64 729.825 370.29 732.275H385.077Z" fill="#1F2937"/>
<path d="M445.049 756.25H425.187V747.762H428.074L422.299 741.55L416.612 747.762H419.149V756.25H400.687V747.762H406.112L416.962 736.825L405.062 725.275H401.124V716.787H421.074V725.275H418.362L423.699 731.137L429.387 725.275H426.762V716.787H443.912V725.275H439.974L429.212 735.6L441.199 747.762H445.049V756.25Z" fill="#1F2937"/>
<path d="M482.246 744C481.663 748.55 480.088 751.875 477.521 753.975C474.955 756.075 471.63 757.125 467.546 757.125C463.171 757.125 459.613 756.046 456.871 753.887C454.188 751.671 452.846 748.521 452.846 744.437V724.837H447.246V716.787H452.846V704.8H464.134V716.787H478.309V724.837H464.134V742.512C464.134 745.954 465.709 747.675 468.859 747.675C469.559 747.675 470.492 747.383 471.659 746.8C472.884 746.158 473.671 744.379 474.021 741.462L482.246 744Z" fill="#1F2937"/>
<path d="M544.893 756.25H502.193V746.275H508.318V709.35H502.193V699.375H528.006V709.35H520.043V746.275H534.918L536.668 735.25L546.643 736.125L544.893 756.25Z" fill="#1F2937"/>
<path d="M553.96 719.587C557.401 718.187 560.26 717.254 562.535 716.787C564.868 716.262 567.639 716 570.847 716C575.105 716 578.78 717.108 581.872 719.325C584.964 721.542 586.51 724.896 586.51 729.387V746.537C586.51 748.579 587.414 749.6 589.222 749.6C589.747 749.6 590.301 749.512 590.885 749.337L590.972 755.287C588.697 756.512 586.335 757.125 583.885 757.125C578.693 757.125 575.805 754.529 575.222 749.337V749.25C574.114 751.233 572.51 753.042 570.41 754.675C568.368 756.308 565.743 757.125 562.535 757.125C559.676 757.125 556.935 756.279 554.31 754.587C551.685 752.896 550.372 749.979 550.372 745.837C550.372 740.996 552.297 737.787 556.147 736.212C560.055 734.637 564.255 733.85 568.747 733.85C571.255 733.85 573.414 733.967 575.222 734.2V732.887C575.222 730.846 574.93 728.862 574.347 726.937C573.822 725.012 571.955 724.05 568.747 724.05C567.58 724.05 566.501 724.137 565.51 724.312C564.576 724.429 563.643 724.721 562.71 725.187L561.222 730.787L552.21 729.825L553.96 719.587ZM575.222 740.15V739.625C574.289 739.508 573.326 739.392 572.335 739.275C571.401 739.158 570.468 739.1 569.535 739.1C567.551 739.1 565.801 739.479 564.285 740.237C562.768 740.937 562.01 742.367 562.01 744.525C562.01 745.808 562.36 746.887 563.06 747.762C563.76 748.637 564.955 749.075 566.647 749.075C568.63 749.075 570.468 748.375 572.16 746.975C573.91 745.517 574.93 743.242 575.222 740.15Z" fill="#1F2937"/>
<path d="M636.849 725.275H632.999L620.311 756.25L616.549 766.137H621.711V774.887H599.924V766.137H606.224L609.374 756.862L595.549 725.275H591.524V716.787H611.649V725.275H607.711L615.761 743.475H616.286L622.236 725.275H618.824V716.787H636.849V725.275Z" fill="#1F2937"/>
<path d="M677.324 743.825C677.033 747.325 675.312 750.417 672.162 753.1C669.012 755.783 664.608 757.125 658.949 757.125C653.058 757.125 648.187 755.462 644.337 752.137C640.545 748.812 638.649 743.854 638.649 737.262C638.649 731.196 640.37 726.15 643.812 722.125C647.312 718.042 652.183 716 658.424 716C663.908 716 668.341 717.575 671.724 720.725C675.166 723.875 676.916 728.017 676.974 733.15C676.974 735.075 676.77 736.971 676.362 738.837H650.462C651.103 745.079 654.195 748.2 659.737 748.2C662.77 748.2 664.812 747.471 665.862 746.012C666.97 744.554 667.641 743.242 667.874 742.075L677.324 743.825ZM665.337 732.275C665.57 730.292 665.133 728.425 664.024 726.675C662.974 724.925 661.108 724.05 658.424 724.05C656.091 724.05 654.283 724.808 652.999 726.325C651.716 727.842 650.899 729.825 650.549 732.275H665.337Z" fill="#1F2937"/>
<path d="M707.022 716.262C708.13 716.262 709.355 716.437 710.697 716.787C712.097 717.079 713.467 717.633 714.809 718.45L716.559 732.275L707.984 733.237L706.497 726.5C705.33 725.8 704.309 725.45 703.434 725.45C702.151 725.45 701.013 725.946 700.022 726.937C699.088 727.929 698.622 729.387 698.622 731.312V747.762H705.622V756.25H682.084V747.762H687.334V725.362H681.647V716.787H697.747V724.312C698.388 722.037 699.409 720.142 700.809 718.625C702.268 717.05 704.338 716.262 707.022 716.262Z" fill="#1F2937"/>
<path d="M726.22 709.787V698.062H737.507V709.787H726.22ZM743.195 756.25H721.407V747.762H726.657V725.362H720.97V716.787H737.945V747.762H743.195V756.25Z" fill="#1F2937"/>
<path d="M796.03 756.25H774.242V747.762H779.492V734.025C779.492 730.642 778.909 728.221 777.742 726.762C776.634 725.304 774.971 724.575 772.755 724.575C770.071 724.575 768.001 725.421 766.542 727.112C765.084 728.746 764.326 730.904 764.267 733.587V747.762H769.517V756.25H747.73V747.762H752.98V725.362H747.292V716.787H764.267V722.825C766.892 718.275 771.121 716 776.955 716C780.688 716 783.926 717.108 786.667 719.325C789.409 721.542 790.78 724.983 790.78 729.65V747.762H796.03V756.25Z" fill="#1F2937"/>
<path d="M846.06 725.362H840.81V754.237C840.81 760.537 839.031 765.671 835.472 769.637C831.914 773.662 826.431 775.675 819.022 775.675C814.939 775.675 811.031 774.829 807.297 773.137C803.564 771.504 800.851 768.412 799.16 763.862L807.822 758.962C810.622 764.154 814.385 766.75 819.11 766.75C822.143 766.75 824.622 765.642 826.547 763.425C828.531 761.267 829.522 758.204 829.522 754.237V749.075C828.472 751.058 826.927 752.75 824.885 754.15C822.843 755.55 820.072 756.25 816.572 756.25C811.964 756.25 807.939 754.646 804.497 751.437C801.056 748.229 799.335 743.504 799.335 737.262C799.335 731.371 800.91 726.354 804.06 722.212C807.21 718.071 811.556 716 817.097 716C820.189 716 822.756 716.642 824.797 717.925C826.839 719.208 828.414 720.871 829.522 722.912V716.787H846.06V725.362ZM829.522 736.3V735.337C829.522 732.071 828.677 729.533 826.985 727.725C825.352 725.858 823.251 724.925 820.685 724.925C818.176 724.925 816.077 725.858 814.385 727.725C812.752 729.592 811.935 732.537 811.935 736.562C811.935 740.354 812.664 743.096 814.122 744.787C815.639 746.479 817.593 747.325 819.985 747.325C823.077 747.325 825.439 746.217 827.072 744C828.706 741.783 829.522 739.217 829.522 736.3Z" fill="#1F2937"/>
<path d="M848.804 718.1L854.054 697.625H865.079L859.829 718.1H848.804ZM864.204 718.1L869.454 697.625H880.479L875.229 718.1H864.204Z" fill="#1F2937"/>
<path d="M175.574 810.219V856.25H170.012V810.219H175.574Z" fill="#727B85"/>
<path d="M202.063 842C199.501 842.084 197.313 842.292 195.501 842.625C193.709 842.938 192.241 843.354 191.095 843.875C189.97 844.396 189.147 845.011 188.626 845.719C188.126 846.427 187.876 847.219 187.876 848.094C187.876 848.927 188.011 849.646 188.282 850.25C188.553 850.854 188.918 851.354 189.376 851.75C189.855 852.125 190.407 852.407 191.032 852.594C191.678 852.761 192.366 852.844 193.095 852.844C194.074 852.844 194.97 852.75 195.782 852.563C196.595 852.354 197.355 852.063 198.063 851.688C198.793 851.313 199.48 850.865 200.126 850.344C200.793 849.823 201.438 849.229 202.063 848.563V842ZM184.095 829.063C185.845 827.375 187.73 826.115 189.751 825.282C191.772 824.448 194.011 824.032 196.47 824.032C198.241 824.032 199.813 824.323 201.188 824.907C202.563 825.49 203.72 826.302 204.657 827.344C205.595 828.386 206.303 829.646 206.782 831.125C207.261 832.604 207.501 834.229 207.501 836V856.25H205.032C204.491 856.25 204.074 856.167 203.782 856C203.491 855.813 203.261 855.459 203.095 854.938L202.47 851.938C201.636 852.709 200.824 853.396 200.032 854C199.241 854.584 198.407 855.084 197.532 855.5C196.657 855.896 195.72 856.198 194.72 856.407C193.741 856.636 192.647 856.75 191.438 856.75C190.209 856.75 189.053 856.584 187.97 856.25C186.886 855.896 185.938 855.375 185.126 854.688C184.334 854 183.699 853.136 183.22 852.094C182.761 851.032 182.532 849.782 182.532 848.344C182.532 847.094 182.876 845.896 183.563 844.75C184.251 843.584 185.366 842.552 186.907 841.657C188.449 840.761 190.459 840.032 192.938 839.469C195.418 838.886 198.459 838.552 202.063 838.469V836C202.063 833.542 201.532 831.688 200.47 830.438C199.407 829.167 197.855 828.532 195.813 828.532C194.438 828.532 193.282 828.709 192.345 829.063C191.428 829.396 190.626 829.782 189.938 830.219C189.272 830.636 188.688 831.021 188.188 831.375C187.709 831.709 187.23 831.875 186.751 831.875C186.376 831.875 186.053 831.782 185.782 831.594C185.511 831.386 185.282 831.136 185.095 830.844L184.095 829.063Z" fill="#727B85"/>
<path d="M242.867 824.594L225.21 865.594C225.023 866.011 224.783 866.344 224.492 866.594C224.221 866.844 223.794 866.969 223.21 866.969H219.085L224.867 854.407L211.804 824.594H216.617C217.096 824.594 217.471 824.719 217.742 824.969C218.033 825.198 218.231 825.459 218.335 825.75L226.804 845.688C227.138 846.563 227.419 847.479 227.648 848.438C227.94 847.459 228.252 846.532 228.585 845.657L236.804 825.75C236.929 825.417 237.138 825.146 237.429 824.938C237.742 824.709 238.085 824.594 238.46 824.594H242.867Z" fill="#727B85"/>
<path d="M268.426 836.969C268.426 835.677 268.239 834.5 267.864 833.438C267.51 832.354 266.978 831.427 266.27 830.657C265.583 829.865 264.739 829.261 263.739 828.844C262.739 828.407 261.603 828.188 260.333 828.188C257.666 828.188 255.551 828.969 253.989 830.532C252.447 832.073 251.489 834.219 251.114 836.969H268.426ZM272.926 851.813C272.239 852.646 271.416 853.375 270.458 854C269.499 854.604 268.468 855.104 267.364 855.5C266.28 855.896 265.155 856.188 263.989 856.375C262.822 856.584 261.666 856.688 260.52 856.688C258.333 856.688 256.312 856.323 254.458 855.594C252.624 854.844 251.03 853.761 249.676 852.344C248.343 850.907 247.301 849.136 246.551 847.032C245.801 844.927 245.426 842.511 245.426 839.782C245.426 837.573 245.76 835.511 246.426 833.594C247.114 831.677 248.093 830.021 249.364 828.625C250.635 827.209 252.187 826.104 254.02 825.313C255.853 824.5 257.916 824.094 260.208 824.094C262.103 824.094 263.853 824.417 265.458 825.063C267.083 825.688 268.478 826.604 269.645 827.813C270.833 829 271.76 830.479 272.426 832.25C273.093 834 273.426 836 273.426 838.25C273.426 839.125 273.333 839.709 273.145 840C272.958 840.292 272.603 840.438 272.083 840.438H250.926C250.989 842.438 251.26 844.177 251.739 845.657C252.239 847.136 252.926 848.375 253.801 849.375C254.676 850.354 255.718 851.094 256.926 851.594C258.135 852.073 259.489 852.313 260.989 852.313C262.385 852.313 263.583 852.157 264.583 851.844C265.603 851.511 266.478 851.157 267.208 850.782C267.937 850.407 268.541 850.063 269.02 849.75C269.52 849.417 269.947 849.25 270.301 849.25C270.76 849.25 271.114 849.427 271.364 849.782L272.926 851.813Z" fill="#727B85"/>
<path d="M285.853 830.938C286.853 828.771 288.082 827.084 289.54 825.875C290.998 824.646 292.78 824.032 294.884 824.032C295.55 824.032 296.186 824.104 296.79 824.25C297.415 824.396 297.967 824.625 298.446 824.938L298.04 829.094C297.915 829.615 297.603 829.875 297.103 829.875C296.811 829.875 296.384 829.813 295.821 829.688C295.259 829.563 294.623 829.5 293.915 829.5C292.915 829.5 292.019 829.646 291.228 829.938C290.457 830.229 289.759 830.667 289.134 831.25C288.53 831.813 287.978 832.521 287.478 833.375C286.998 834.209 286.561 835.167 286.165 836.25V856.25H280.571V824.594H283.759C284.363 824.594 284.78 824.709 285.009 824.938C285.238 825.167 285.394 825.563 285.478 826.125L285.853 830.938Z" fill="#727B85"/>
<path d="M309.525 824.594V856.25H303.962V824.594H309.525ZM310.712 814.657C310.712 815.198 310.598 815.709 310.369 816.188C310.16 816.646 309.869 817.063 309.494 817.438C309.139 817.792 308.712 818.073 308.212 818.282C307.733 818.49 307.223 818.594 306.681 818.594C306.139 818.594 305.629 818.49 305.15 818.282C304.692 818.073 304.285 817.792 303.931 817.438C303.577 817.063 303.296 816.646 303.087 816.188C302.879 815.709 302.775 815.198 302.775 814.657C302.775 814.115 302.879 813.604 303.087 813.125C303.296 812.625 303.577 812.198 303.931 811.844C304.285 811.469 304.692 811.177 305.15 810.969C305.629 810.761 306.139 810.657 306.681 810.657C307.223 810.657 307.733 810.761 308.212 810.969C308.712 811.177 309.139 811.469 309.494 811.844C309.869 812.198 310.16 812.625 310.369 813.125C310.598 813.604 310.712 814.115 310.712 814.657Z" fill="#727B85"/>
<path d="M324.227 829.188C324.915 828.417 325.644 827.719 326.415 827.094C327.185 826.469 327.998 825.938 328.852 825.5C329.727 825.042 330.644 824.698 331.602 824.469C332.581 824.219 333.633 824.094 334.758 824.094C336.487 824.094 338.008 824.386 339.321 824.969C340.654 825.532 341.758 826.344 342.633 827.407C343.529 828.448 344.206 829.709 344.665 831.188C345.123 832.667 345.352 834.302 345.352 836.094V856.25H339.758V836.094C339.758 833.698 339.206 831.844 338.102 830.532C337.019 829.198 335.362 828.532 333.133 828.532C331.487 828.532 329.946 828.927 328.508 829.719C327.092 830.511 325.779 831.584 324.571 832.938V856.25H318.977V824.594H322.321C323.112 824.594 323.602 824.979 323.79 825.75L324.227 829.188Z" fill="#727B85"/>
<path d="M365.172 840.782C366.297 840.782 367.286 840.625 368.141 840.313C368.995 840 369.714 839.563 370.297 839C370.88 838.438 371.318 837.771 371.609 837C371.901 836.209 372.047 835.344 372.047 834.407C372.047 832.469 371.453 830.927 370.266 829.782C369.099 828.636 367.401 828.063 365.172 828.063C362.922 828.063 361.203 828.636 360.016 829.782C358.849 830.927 358.266 832.469 358.266 834.407C358.266 835.344 358.411 836.209 358.703 837C359.016 837.771 359.464 838.438 360.047 839C360.63 839.563 361.349 840 362.203 840.313C363.057 840.625 364.047 840.782 365.172 840.782ZM375.203 857.969C375.203 857.198 374.984 856.573 374.547 856.094C374.109 855.615 373.516 855.24 372.766 854.969C372.036 854.698 371.182 854.511 370.203 854.407C369.224 854.282 368.182 854.188 367.078 854.125C365.995 854.063 364.891 854 363.766 853.938C362.641 853.875 361.557 853.771 360.516 853.625C359.349 854.167 358.391 854.854 357.641 855.688C356.911 856.5 356.547 857.459 356.547 858.563C356.547 859.271 356.724 859.927 357.078 860.532C357.453 861.157 358.016 861.688 358.766 862.125C359.516 862.584 360.453 862.938 361.578 863.188C362.724 863.459 364.068 863.594 365.609 863.594C367.109 863.594 368.453 863.459 369.641 863.188C370.828 862.917 371.828 862.532 372.641 862.032C373.474 861.532 374.109 860.938 374.547 860.25C374.984 859.563 375.203 858.802 375.203 857.969ZM380.859 825.844V827.907C380.859 828.594 380.422 829.032 379.547 829.219L375.953 829.688C376.661 831.063 377.016 832.584 377.016 834.25C377.016 835.792 376.714 837.198 376.109 838.469C375.526 839.719 374.714 840.792 373.672 841.688C372.63 842.584 371.38 843.271 369.922 843.75C368.464 844.229 366.88 844.469 365.172 844.469C363.693 844.469 362.297 844.292 360.984 843.938C360.318 844.354 359.807 844.802 359.453 845.282C359.099 845.74 358.922 846.209 358.922 846.688C358.922 847.438 359.224 848.011 359.828 848.407C360.453 848.782 361.266 849.052 362.266 849.219C363.266 849.386 364.401 849.49 365.672 849.532C366.964 849.573 368.276 849.646 369.609 849.75C370.964 849.834 372.276 849.99 373.547 850.219C374.839 850.448 375.984 850.823 376.984 851.344C377.984 851.865 378.786 852.584 379.391 853.5C380.016 854.417 380.328 855.604 380.328 857.063C380.328 858.417 379.984 859.729 379.297 861C378.63 862.271 377.661 863.396 376.391 864.375C375.12 865.375 373.557 866.167 371.703 866.75C369.87 867.354 367.797 867.657 365.484 867.657C363.172 867.657 361.151 867.427 359.422 866.969C357.693 866.511 356.255 865.896 355.109 865.125C353.964 864.354 353.099 863.459 352.516 862.438C351.953 861.438 351.672 860.386 351.672 859.282C351.672 857.719 352.161 856.396 353.141 855.313C354.12 854.229 355.464 853.365 357.172 852.719C356.234 852.302 355.484 851.75 354.922 851.063C354.38 850.354 354.109 849.407 354.109 848.219C354.109 847.761 354.193 847.292 354.359 846.813C354.526 846.313 354.776 845.823 355.109 845.344C355.464 844.844 355.891 844.375 356.391 843.938C356.891 843.5 357.474 843.115 358.141 842.782C356.578 841.907 355.359 840.75 354.484 839.313C353.609 837.854 353.172 836.167 353.172 834.25C353.172 832.709 353.464 831.313 354.047 830.063C354.651 828.792 355.484 827.719 356.547 826.844C357.609 825.948 358.87 825.261 360.328 824.782C361.807 824.302 363.422 824.063 365.172 824.063C366.547 824.063 367.828 824.219 369.016 824.532C370.203 824.823 371.286 825.261 372.266 825.844H380.859Z" fill="#727B85"/>
<path d="M409.103 824.594V856.25H403.54V824.594H409.103ZM410.29 814.657C410.29 815.198 410.175 815.709 409.946 816.188C409.738 816.646 409.446 817.063 409.071 817.438C408.717 817.792 408.29 818.073 407.79 818.282C407.311 818.49 406.8 818.594 406.259 818.594C405.717 818.594 405.207 818.49 404.728 818.282C404.269 818.073 403.863 817.792 403.509 817.438C403.155 817.063 402.873 816.646 402.665 816.188C402.457 815.709 402.353 815.198 402.353 814.657C402.353 814.115 402.457 813.604 402.665 813.125C402.873 812.625 403.155 812.198 403.509 811.844C403.863 811.469 404.269 811.177 404.728 810.969C405.207 810.761 405.717 810.657 406.259 810.657C406.8 810.657 407.311 810.761 407.79 810.969C408.29 811.177 408.717 811.469 409.071 811.844C409.446 812.198 409.738 812.625 409.946 813.125C410.175 813.604 410.29 814.115 410.29 814.657Z" fill="#727B85"/>
<path d="M423.805 829.188C424.492 828.417 425.221 827.719 425.992 827.094C426.763 826.469 427.576 825.938 428.43 825.5C429.305 825.042 430.221 824.698 431.18 824.469C432.159 824.219 433.211 824.094 434.336 824.094C436.065 824.094 437.586 824.386 438.898 824.969C440.232 825.532 441.336 826.344 442.211 827.407C443.107 828.448 443.784 829.709 444.242 831.188C444.701 832.667 444.93 834.302 444.93 836.094V856.25H439.336V836.094C439.336 833.698 438.784 831.844 437.68 830.532C436.596 829.198 434.94 828.532 432.711 828.532C431.065 828.532 429.523 828.927 428.086 829.719C426.669 830.511 425.357 831.584 424.148 832.938V856.25H418.555V824.594H421.898C422.69 824.594 423.18 824.979 423.367 825.75L423.805 829.188Z" fill="#727B85"/>
<path d="M496.053 824.594V856.25H492.741C491.949 856.25 491.449 855.865 491.241 855.094L490.803 851.688C489.428 853.209 487.887 854.438 486.178 855.375C484.47 856.292 482.512 856.75 480.303 856.75C478.574 856.75 477.043 856.469 475.709 855.907C474.397 855.323 473.293 854.511 472.397 853.469C471.501 852.427 470.824 851.167 470.366 849.688C469.928 848.209 469.709 846.573 469.709 844.782V824.594H475.272V844.782C475.272 847.177 475.814 849.032 476.897 850.344C478.001 851.657 479.678 852.313 481.928 852.313C483.574 852.313 485.105 851.927 486.522 851.157C487.959 850.365 489.282 849.282 490.491 847.907V824.594H496.053Z" fill="#727B85"/>
<path d="M523.623 829.813C523.373 830.271 522.988 830.5 522.467 830.5C522.154 830.5 521.8 830.386 521.404 830.157C521.008 829.927 520.519 829.677 519.936 829.407C519.373 829.115 518.696 828.854 517.904 828.625C517.113 828.375 516.175 828.25 515.092 828.25C514.154 828.25 513.311 828.375 512.561 828.625C511.811 828.854 511.165 829.177 510.623 829.594C510.102 830.011 509.696 830.5 509.404 831.063C509.133 831.604 508.998 832.198 508.998 832.844C508.998 833.657 509.227 834.334 509.686 834.875C510.165 835.417 510.79 835.886 511.561 836.282C512.331 836.677 513.206 837.032 514.186 837.344C515.165 837.636 516.165 837.959 517.186 838.313C518.227 838.646 519.238 839.021 520.217 839.438C521.196 839.854 522.071 840.375 522.842 841C523.613 841.625 524.227 842.396 524.686 843.313C525.165 844.209 525.404 845.292 525.404 846.563C525.404 848.021 525.144 849.375 524.623 850.625C524.102 851.854 523.331 852.927 522.311 853.844C521.29 854.74 520.04 855.448 518.561 855.969C517.081 856.49 515.373 856.75 513.436 856.75C511.227 856.75 509.227 856.396 507.436 855.688C505.644 854.959 504.123 854.032 502.873 852.907L504.186 850.782C504.352 850.511 504.55 850.302 504.779 850.157C505.008 850.011 505.3 849.938 505.654 849.938C506.029 849.938 506.425 850.084 506.842 850.375C507.258 850.667 507.758 850.99 508.342 851.344C508.946 851.698 509.675 852.021 510.529 852.313C511.383 852.604 512.446 852.75 513.717 852.75C514.8 852.75 515.748 852.615 516.561 852.344C517.373 852.052 518.05 851.667 518.592 851.188C519.133 850.709 519.529 850.157 519.779 849.532C520.05 848.907 520.186 848.24 520.186 847.532C520.186 846.657 519.946 845.938 519.467 845.375C519.008 844.792 518.394 844.302 517.623 843.907C516.852 843.49 515.967 843.136 514.967 842.844C513.988 842.532 512.977 842.209 511.936 841.875C510.915 841.542 509.904 841.167 508.904 840.75C507.925 840.313 507.05 839.771 506.279 839.125C505.508 838.479 504.883 837.688 504.404 836.75C503.946 835.792 503.717 834.636 503.717 833.282C503.717 832.073 503.967 830.917 504.467 829.813C504.967 828.688 505.696 827.709 506.654 826.875C507.613 826.021 508.79 825.344 510.186 824.844C511.581 824.344 513.175 824.094 514.967 824.094C517.05 824.094 518.915 824.427 520.561 825.094C522.227 825.74 523.665 826.636 524.873 827.782L523.623 829.813Z" fill="#727B85"/>
<path d="M553.724 836.969C553.724 835.677 553.537 834.5 553.162 833.438C552.807 832.354 552.276 831.427 551.568 830.657C550.88 829.865 550.037 829.261 549.037 828.844C548.037 828.407 546.901 828.188 545.63 828.188C542.964 828.188 540.849 828.969 539.287 830.532C537.745 832.073 536.787 834.219 536.412 836.969H553.724ZM558.224 851.813C557.537 852.646 556.714 853.375 555.755 854C554.797 854.604 553.766 855.104 552.662 855.5C551.578 855.896 550.453 856.188 549.287 856.375C548.12 856.584 546.964 856.688 545.818 856.688C543.63 856.688 541.61 856.323 539.755 855.594C537.922 854.844 536.328 853.761 534.974 852.344C533.641 850.907 532.599 849.136 531.849 847.032C531.099 844.927 530.724 842.511 530.724 839.782C530.724 837.573 531.057 835.511 531.724 833.594C532.412 831.677 533.391 830.021 534.662 828.625C535.932 827.209 537.485 826.104 539.318 825.313C541.151 824.5 543.214 824.094 545.505 824.094C547.401 824.094 549.151 824.417 550.755 825.063C552.38 825.688 553.776 826.604 554.943 827.813C556.13 829 557.057 830.479 557.724 832.25C558.391 834 558.724 836 558.724 838.25C558.724 839.125 558.63 839.709 558.443 840C558.255 840.292 557.901 840.438 557.38 840.438H536.224C536.287 842.438 536.557 844.177 537.037 845.657C537.537 847.136 538.224 848.375 539.099 849.375C539.974 850.354 541.016 851.094 542.224 851.594C543.432 852.073 544.787 852.313 546.287 852.313C547.682 852.313 548.88 852.157 549.88 851.844C550.901 851.511 551.776 851.157 552.505 850.782C553.235 850.407 553.839 850.063 554.318 849.75C554.818 849.417 555.245 849.25 555.599 849.25C556.057 849.25 556.412 849.427 556.662 849.782L558.224 851.813Z" fill="#727B85"/>
<path d="M571.15 830.938C572.15 828.771 573.38 827.084 574.838 825.875C576.296 824.646 578.077 824.032 580.182 824.032C580.848 824.032 581.484 824.104 582.088 824.25C582.713 824.396 583.265 824.625 583.744 824.938L583.338 829.094C583.213 829.615 582.9 829.875 582.4 829.875C582.109 829.875 581.682 829.813 581.119 829.688C580.557 829.563 579.921 829.5 579.213 829.5C578.213 829.5 577.317 829.646 576.525 829.938C575.755 830.229 575.057 830.667 574.432 831.25C573.827 831.813 573.275 832.521 572.775 833.375C572.296 834.209 571.859 835.167 571.463 836.25V856.25H565.869V824.594H569.057C569.661 824.594 570.077 824.709 570.307 824.938C570.536 825.167 570.692 825.563 570.775 826.125L571.15 830.938Z" fill="#727B85"/>
<path d="M625.94 830.219C625.773 830.448 625.607 830.625 625.44 830.75C625.273 830.875 625.044 830.938 624.752 830.938C624.44 830.938 624.096 830.813 623.721 830.563C623.346 830.292 622.877 830 622.315 829.688C621.773 829.375 621.096 829.094 620.284 828.844C619.492 828.573 618.513 828.438 617.346 828.438C615.784 828.438 614.409 828.719 613.221 829.282C612.034 829.823 611.034 830.615 610.221 831.657C609.429 832.698 608.825 833.959 608.409 835.438C608.013 836.917 607.815 838.573 607.815 840.407C607.815 842.323 608.034 844.032 608.471 845.532C608.909 847.011 609.523 848.261 610.315 849.282C611.127 850.282 612.096 851.052 613.221 851.594C614.367 852.115 615.648 852.375 617.065 852.375C618.419 852.375 619.534 852.219 620.409 851.907C621.284 851.573 622.002 851.209 622.565 850.813C623.148 850.417 623.627 850.063 624.002 849.75C624.398 849.417 624.784 849.25 625.159 849.25C625.617 849.25 625.971 849.427 626.221 849.782L627.784 851.813C627.096 852.667 626.315 853.396 625.44 854C624.565 854.604 623.617 855.115 622.596 855.532C621.596 855.927 620.544 856.219 619.44 856.407C618.336 856.594 617.211 856.688 616.065 856.688C614.086 856.688 612.242 856.323 610.534 855.594C608.846 854.865 607.377 853.813 606.127 852.438C604.877 851.042 603.898 849.334 603.19 847.313C602.482 845.292 602.127 842.99 602.127 840.407C602.127 838.052 602.45 835.875 603.096 833.875C603.763 831.875 604.721 830.157 605.971 828.719C607.242 827.261 608.794 826.125 610.627 825.313C612.482 824.5 614.607 824.094 617.002 824.094C619.232 824.094 621.19 824.459 622.877 825.188C624.586 825.896 626.096 826.907 627.409 828.219L625.94 830.219Z" fill="#727B85"/>
<path d="M646.862 824.094C649.174 824.094 651.258 824.479 653.112 825.25C654.966 826.021 656.549 827.115 657.862 828.532C659.174 829.948 660.174 831.667 660.862 833.688C661.57 835.688 661.924 837.927 661.924 840.407C661.924 842.907 661.57 845.157 660.862 847.157C660.174 849.157 659.174 850.865 657.862 852.282C656.549 853.698 654.966 854.792 653.112 855.563C651.258 856.313 649.174 856.688 646.862 856.688C644.528 856.688 642.424 856.313 640.549 855.563C638.695 854.792 637.112 853.698 635.799 852.282C634.487 850.865 633.476 849.157 632.768 847.157C632.081 845.157 631.737 842.907 631.737 840.407C631.737 837.927 632.081 835.688 632.768 833.688C633.476 831.667 634.487 829.948 635.799 828.532C637.112 827.115 638.695 826.021 640.549 825.25C642.424 824.479 644.528 824.094 646.862 824.094ZM646.862 852.344C649.987 852.344 652.32 851.302 653.862 849.219C655.403 847.115 656.174 844.188 656.174 840.438C656.174 836.667 655.403 833.729 653.862 831.625C652.32 829.521 649.987 828.469 646.862 828.469C645.278 828.469 643.893 828.74 642.706 829.282C641.539 829.823 640.56 830.604 639.768 831.625C638.997 832.646 638.414 833.907 638.018 835.407C637.643 836.886 637.456 838.563 637.456 840.438C637.456 844.188 638.226 847.115 639.768 849.219C641.331 851.302 643.695 852.344 646.862 852.344Z" fill="#727B85"/>
<path d="M674.542 829.188C675.229 828.417 675.959 827.719 676.729 827.094C677.5 826.469 678.313 825.938 679.167 825.5C680.042 825.042 680.959 824.698 681.917 824.469C682.896 824.219 683.948 824.094 685.073 824.094C686.802 824.094 688.323 824.386 689.636 824.969C690.969 825.532 692.073 826.344 692.948 827.407C693.844 828.448 694.521 829.709 694.979 831.188C695.438 832.667 695.667 834.302 695.667 836.094V856.25H690.073V836.094C690.073 833.698 689.521 831.844 688.417 830.532C687.334 829.198 685.677 828.532 683.448 828.532C681.802 828.532 680.261 828.927 678.823 829.719C677.407 830.511 676.094 831.584 674.886 832.938V856.25H669.292V824.594H672.636C673.427 824.594 673.917 824.979 674.104 825.75L674.542 829.188Z" fill="#727B85"/>
<path d="M713.747 856.75C711.247 856.75 709.32 856.052 707.966 854.657C706.632 853.261 705.966 851.25 705.966 848.625V829.25H702.153C701.82 829.25 701.539 829.157 701.31 828.969C701.08 828.761 700.966 828.448 700.966 828.032V825.813L706.153 825.157L707.435 815.375C707.497 815.063 707.632 814.813 707.841 814.625C708.07 814.417 708.362 814.313 708.716 814.313H711.528V825.219H720.685V829.25H711.528V848.25C711.528 849.584 711.851 850.573 712.497 851.219C713.143 851.865 713.976 852.188 714.997 852.188C715.58 852.188 716.08 852.115 716.497 851.969C716.935 851.802 717.31 851.625 717.622 851.438C717.935 851.25 718.195 851.084 718.403 850.938C718.632 850.771 718.83 850.688 718.997 850.688C719.289 850.688 719.549 850.865 719.778 851.219L721.403 853.875C720.445 854.771 719.289 855.479 717.935 856C716.58 856.5 715.185 856.75 713.747 856.75Z" fill="#727B85"/>
<path d="M747.745 836.969C747.745 835.677 747.558 834.5 747.183 833.438C746.828 832.354 746.297 831.427 745.589 830.657C744.901 829.865 744.058 829.261 743.058 828.844C742.058 828.407 740.922 828.188 739.651 828.188C736.985 828.188 734.87 828.969 733.308 830.532C731.766 832.073 730.808 834.219 730.433 836.969H747.745ZM752.245 851.813C751.558 852.646 750.735 853.375 749.776 854C748.818 854.604 747.787 855.104 746.683 855.5C745.599 855.896 744.474 856.188 743.308 856.375C742.141 856.584 740.985 856.688 739.839 856.688C737.651 856.688 735.631 856.323 733.776 855.594C731.943 854.844 730.349 853.761 728.995 852.344C727.662 850.907 726.62 849.136 725.87 847.032C725.12 844.927 724.745 842.511 724.745 839.782C724.745 837.573 725.078 835.511 725.745 833.594C726.433 831.677 727.412 830.021 728.683 828.625C729.953 827.209 731.506 826.104 733.339 825.313C735.172 824.5 737.235 824.094 739.526 824.094C741.422 824.094 743.172 824.417 744.776 825.063C746.401 825.688 747.797 826.604 748.964 827.813C750.151 829 751.078 830.479 751.745 832.25C752.412 834 752.745 836 752.745 838.25C752.745 839.125 752.651 839.709 752.464 840C752.276 840.292 751.922 840.438 751.401 840.438H730.245C730.308 842.438 730.578 844.177 731.058 845.657C731.558 847.136 732.245 848.375 733.12 849.375C733.995 850.354 735.037 851.094 736.245 851.594C737.453 852.073 738.808 852.313 740.308 852.313C741.703 852.313 742.901 852.157 743.901 851.844C744.922 851.511 745.797 851.157 746.526 850.782C747.256 850.407 747.86 850.063 748.339 849.75C748.839 849.417 749.266 849.25 749.62 849.25C750.078 849.25 750.433 849.427 750.683 849.782L752.245 851.813Z" fill="#727B85"/>
<path d="M785.463 856.25H780.119C779.661 856.25 779.296 856.136 779.025 855.907C778.775 855.657 778.567 855.386 778.4 855.094L770.432 842.688C770.348 842.979 770.255 843.271 770.15 843.563C770.067 843.834 769.942 844.084 769.775 844.313L762.4 855.094C762.192 855.386 761.963 855.657 761.713 855.907C761.484 856.136 761.161 856.25 760.744 856.25H755.775L766.869 840L756.213 824.594H761.557C762.015 824.594 762.348 824.667 762.557 824.813C762.765 824.959 762.952 825.167 763.119 825.438L770.9 837.313C771.067 836.709 771.327 836.125 771.682 835.563L778.494 825.563C778.682 825.271 778.88 825.042 779.088 824.875C779.317 824.688 779.588 824.594 779.9 824.594H785.025L774.369 839.719L785.463 856.25Z" fill="#727B85"/>
<path d="M800.622 856.75C798.122 856.75 796.195 856.052 794.841 854.657C793.507 853.261 792.841 851.25 792.841 848.625V829.25H789.028C788.695 829.25 788.414 829.157 788.185 828.969C787.955 828.761 787.841 828.448 787.841 828.032V825.813L793.028 825.157L794.31 815.375C794.372 815.063 794.508 814.813 794.716 814.625C794.945 814.417 795.237 814.313 795.591 814.313H798.403V825.219H807.56V829.25H798.403V848.25C798.403 849.584 798.726 850.573 799.372 851.219C800.018 851.865 800.851 852.188 801.872 852.188C802.455 852.188 802.955 852.115 803.372 851.969C803.81 851.802 804.185 851.625 804.497 851.438C804.81 851.25 805.07 851.084 805.278 850.938C805.507 850.771 805.705 850.688 805.872 850.688C806.164 850.688 806.424 850.865 806.653 851.219L808.278 853.875C807.32 854.771 806.164 855.479 804.81 856C803.455 856.5 802.06 856.75 800.622 856.75Z" fill="#727B85"/>
<path d="M816.678 856.907C816.407 857.636 815.98 858.177 815.397 858.532C814.834 858.886 814.251 859.063 813.647 859.063H811.303L830.084 812.282C830.334 811.615 830.709 811.104 831.209 810.75C831.73 810.396 832.324 810.219 832.991 810.219H835.366L816.678 856.907Z" fill="#727B85"/>
<path d="M198.015 911.969C198.015 910.677 197.827 909.5 197.452 908.438C197.098 907.354 196.567 906.427 195.859 905.657C195.171 904.865 194.327 904.261 193.327 903.844C192.327 903.407 191.192 903.188 189.921 903.188C187.254 903.188 185.14 903.969 183.577 905.532C182.036 907.073 181.077 909.219 180.702 911.969H198.015ZM202.515 926.813C201.827 927.646 201.004 928.375 200.046 929C199.088 929.604 198.057 930.104 196.952 930.5C195.869 930.896 194.744 931.188 193.577 931.375C192.411 931.584 191.254 931.688 190.109 931.688C187.921 931.688 185.9 931.323 184.046 930.594C182.213 929.844 180.619 928.761 179.265 927.344C177.932 925.907 176.89 924.136 176.14 922.032C175.39 919.927 175.015 917.511 175.015 914.782C175.015 912.573 175.348 910.511 176.015 908.594C176.702 906.677 177.682 905.021 178.952 903.625C180.223 902.209 181.775 901.104 183.609 900.313C185.442 899.5 187.504 899.094 189.796 899.094C191.692 899.094 193.442 899.417 195.046 900.063C196.671 900.688 198.067 901.604 199.234 902.813C200.421 904 201.348 905.479 202.015 907.25C202.682 909 203.015 911 203.015 913.25C203.015 914.125 202.921 914.709 202.734 915C202.546 915.292 202.192 915.438 201.671 915.438H180.515C180.577 917.438 180.848 919.177 181.327 920.657C181.827 922.136 182.515 923.375 183.39 924.375C184.265 925.354 185.307 926.094 186.515 926.594C187.723 927.073 189.077 927.313 190.577 927.313C191.973 927.313 193.171 927.157 194.171 926.844C195.192 926.511 196.067 926.157 196.796 925.782C197.525 925.407 198.129 925.063 198.609 924.75C199.109 924.417 199.536 924.25 199.89 924.25C200.348 924.25 200.702 924.427 200.952 924.782L202.515 926.813Z" fill="#727B85"/>
<path d="M215.41 904.188C216.097 903.417 216.827 902.719 217.597 902.094C218.368 901.469 219.181 900.938 220.035 900.5C220.91 900.042 221.827 899.698 222.785 899.469C223.764 899.219 224.816 899.094 225.941 899.094C227.67 899.094 229.191 899.386 230.504 899.969C231.837 900.532 232.941 901.344 233.816 902.407C234.712 903.448 235.389 904.709 235.847 906.188C236.306 907.667 236.535 909.302 236.535 911.094V931.25H230.941V911.094C230.941 908.698 230.389 906.844 229.285 905.532C228.202 904.198 226.545 903.532 224.316 903.532C222.67 903.532 221.129 903.927 219.691 904.719C218.274 905.511 216.962 906.584 215.754 907.938V931.25H210.16V899.594H213.504C214.295 899.594 214.785 899.979 214.972 900.75L215.41 904.188Z" fill="#727B85"/>
<path d="M271.777 899.594L258.871 931.25H253.871L240.965 899.594H245.496C245.954 899.594 246.329 899.709 246.621 899.938C246.913 900.167 247.11 900.438 247.215 900.75L255.246 921.125C255.496 921.896 255.715 922.646 255.902 923.375C256.09 924.104 256.267 924.834 256.433 925.563C256.6 924.834 256.777 924.104 256.965 923.375C257.152 922.646 257.381 921.896 257.652 921.125L265.777 900.75C265.902 900.417 266.11 900.146 266.402 899.938C266.694 899.709 267.038 899.594 267.433 899.594H271.777Z" fill="#727B85"/>
<path d="M283.066 899.594V931.25H277.504V899.594H283.066ZM284.254 889.657C284.254 890.198 284.139 890.709 283.91 891.188C283.702 891.646 283.41 892.063 283.035 892.438C282.681 892.792 282.254 893.073 281.754 893.282C281.274 893.49 280.764 893.594 280.222 893.594C279.681 893.594 279.17 893.49 278.691 893.282C278.233 893.073 277.827 892.792 277.472 892.438C277.118 892.063 276.837 891.646 276.629 891.188C276.42 890.709 276.316 890.198 276.316 889.657C276.316 889.115 276.42 888.604 276.629 888.125C276.837 887.625 277.118 887.198 277.472 886.844C277.827 886.469 278.233 886.177 278.691 885.969C279.17 885.761 279.681 885.657 280.222 885.657C280.764 885.657 281.274 885.761 281.754 885.969C282.254 886.177 282.681 886.469 283.035 886.844C283.41 887.198 283.702 887.625 283.91 888.125C284.139 888.604 284.254 889.115 284.254 889.657Z" fill="#727B85"/>
<path d="M297.8 905.938C298.8 903.771 300.029 902.084 301.487 900.875C302.945 899.646 304.727 899.032 306.831 899.032C307.497 899.032 308.133 899.104 308.737 899.25C309.362 899.396 309.914 899.625 310.393 899.938L309.987 904.094C309.862 904.615 309.55 904.875 309.05 904.875C308.758 904.875 308.331 904.813 307.768 904.688C307.206 904.563 306.57 904.5 305.862 904.5C304.862 904.5 303.966 904.646 303.175 904.938C302.404 905.229 301.706 905.667 301.081 906.25C300.477 906.813 299.925 907.521 299.425 908.375C298.945 909.209 298.508 910.167 298.112 911.25V931.25H292.518V899.594H295.706C296.31 899.594 296.727 899.709 296.956 899.938C297.185 900.167 297.341 900.563 297.425 901.125L297.8 905.938Z" fill="#727B85"/>
<path d="M327.659 899.094C329.971 899.094 332.055 899.479 333.909 900.25C335.763 901.021 337.346 902.115 338.659 903.532C339.971 904.948 340.971 906.667 341.659 908.688C342.367 910.688 342.721 912.927 342.721 915.407C342.721 917.907 342.367 920.157 341.659 922.157C340.971 924.157 339.971 925.865 338.659 927.282C337.346 928.698 335.763 929.792 333.909 930.563C332.055 931.313 329.971 931.688 327.659 931.688C325.326 931.688 323.221 931.313 321.346 930.563C319.492 929.792 317.909 928.698 316.596 927.282C315.284 925.865 314.273 924.157 313.565 922.157C312.878 920.157 312.534 917.907 312.534 915.407C312.534 912.927 312.878 910.688 313.565 908.688C314.273 906.667 315.284 904.948 316.596 903.532C317.909 902.115 319.492 901.021 321.346 900.25C323.221 899.479 325.326 899.094 327.659 899.094ZM327.659 927.344C330.784 927.344 333.117 926.302 334.659 924.219C336.201 922.115 336.971 919.188 336.971 915.438C336.971 911.667 336.201 908.729 334.659 906.625C333.117 904.521 330.784 903.469 327.659 903.469C326.076 903.469 324.69 903.74 323.503 904.282C322.336 904.823 321.357 905.604 320.565 906.625C319.794 907.646 319.211 908.907 318.815 910.407C318.44 911.886 318.253 913.563 318.253 915.438C318.253 919.188 319.024 922.115 320.565 924.219C322.128 926.302 324.492 927.344 327.659 927.344Z" fill="#727B85"/>
<path d="M355.339 904.188C356.027 903.417 356.756 902.719 357.527 902.094C358.297 901.469 359.11 900.938 359.964 900.5C360.839 900.042 361.756 899.698 362.714 899.469C363.693 899.219 364.745 899.094 365.87 899.094C367.6 899.094 369.12 899.386 370.433 899.969C371.766 900.532 372.87 901.344 373.745 902.407C374.641 903.448 375.318 904.709 375.777 906.188C376.235 907.667 376.464 909.302 376.464 911.094V931.25H370.87V911.094C370.87 908.698 370.318 906.844 369.214 905.532C368.131 904.198 366.475 903.532 364.245 903.532C362.6 903.532 361.058 903.927 359.62 904.719C358.204 905.511 356.891 906.584 355.683 907.938V931.25H350.089V899.594H353.433C354.225 899.594 354.714 899.979 354.902 900.75L355.339 904.188Z" fill="#727B85"/>
<path d="M385.253 931.25V899.594H388.596C389.388 899.594 389.878 899.979 390.065 900.75L390.471 904C391.638 902.563 392.951 901.386 394.409 900.469C395.867 899.552 397.555 899.094 399.471 899.094C401.596 899.094 403.315 899.688 404.628 900.875C405.961 902.063 406.919 903.667 407.503 905.688C407.961 904.542 408.544 903.552 409.253 902.719C409.982 901.886 410.794 901.198 411.69 900.657C412.586 900.115 413.534 899.719 414.534 899.469C415.555 899.219 416.586 899.094 417.628 899.094C419.294 899.094 420.774 899.365 422.065 899.907C423.378 900.427 424.482 901.198 425.378 902.219C426.294 903.24 426.992 904.5 427.471 906C427.951 907.479 428.19 909.177 428.19 911.094V931.25H422.596V911.094C422.596 908.615 422.055 906.74 420.971 905.469C419.888 904.177 418.326 903.532 416.284 903.532C415.367 903.532 414.492 903.698 413.659 904.032C412.846 904.344 412.128 904.813 411.503 905.438C410.878 906.063 410.378 906.854 410.003 907.813C409.649 908.75 409.471 909.844 409.471 911.094V931.25H403.878V911.094C403.878 908.552 403.367 906.657 402.346 905.407C401.326 904.157 399.836 903.532 397.878 903.532C396.503 903.532 395.232 903.907 394.065 904.657C392.899 905.386 391.826 906.386 390.846 907.657V931.25H385.253Z" fill="#727B85"/>
<path d="M458.144 911.969C458.144 910.677 457.957 909.5 457.582 908.438C457.228 907.354 456.696 906.427 455.988 905.657C455.301 904.865 454.457 904.261 453.457 903.844C452.457 903.407 451.321 903.188 450.051 903.188C447.384 903.188 445.269 903.969 443.707 905.532C442.165 907.073 441.207 909.219 440.832 911.969H458.144ZM462.644 926.813C461.957 927.646 461.134 928.375 460.176 929C459.217 929.604 458.186 930.104 457.082 930.5C455.998 930.896 454.873 931.188 453.707 931.375C452.54 931.584 451.384 931.688 450.238 931.688C448.051 931.688 446.03 931.323 444.176 930.594C442.342 929.844 440.748 928.761 439.394 927.344C438.061 925.907 437.019 924.136 436.269 922.032C435.519 919.927 435.144 917.511 435.144 914.782C435.144 912.573 435.478 910.511 436.144 908.594C436.832 906.677 437.811 905.021 439.082 903.625C440.353 902.209 441.905 901.104 443.738 900.313C445.571 899.5 447.634 899.094 449.926 899.094C451.821 899.094 453.571 899.417 455.176 900.063C456.801 900.688 458.196 901.604 459.363 902.813C460.551 904 461.478 905.479 462.144 907.25C462.811 909 463.144 911 463.144 913.25C463.144 914.125 463.051 914.709 462.863 915C462.676 915.292 462.321 915.438 461.801 915.438H440.644C440.707 917.438 440.978 919.177 441.457 920.657C441.957 922.136 442.644 923.375 443.519 924.375C444.394 925.354 445.436 926.094 446.644 926.594C447.853 927.073 449.207 927.313 450.707 927.313C452.103 927.313 453.301 927.157 454.301 926.844C455.321 926.511 456.196 926.157 456.926 925.782C457.655 925.407 458.259 925.063 458.738 924.75C459.238 924.417 459.665 924.25 460.019 924.25C460.478 924.25 460.832 924.427 461.082 924.782L462.644 926.813Z" fill="#727B85"/>
<path d="M475.539 904.188C476.227 903.417 476.956 902.719 477.727 902.094C478.498 901.469 479.31 900.938 480.164 900.5C481.039 900.042 481.956 899.698 482.914 899.469C483.893 899.219 484.946 899.094 486.071 899.094C487.8 899.094 489.321 899.386 490.633 899.969C491.966 900.532 493.071 901.344 493.946 902.407C494.841 903.448 495.518 904.709 495.977 906.188C496.435 907.667 496.664 909.302 496.664 911.094V931.25H491.071V911.094C491.071 908.698 490.518 906.844 489.414 905.532C488.331 904.198 486.675 903.532 484.446 903.532C482.8 903.532 481.258 903.927 479.821 904.719C478.404 905.511 477.091 906.584 475.883 907.938V931.25H470.289V899.594H473.633C474.425 899.594 474.914 899.979 475.102 900.75L475.539 904.188Z" fill="#727B85"/>
<path d="M514.744 931.75C512.244 931.75 510.317 931.052 508.963 929.657C507.63 928.261 506.963 926.25 506.963 923.625V904.25H503.151C502.817 904.25 502.536 904.157 502.307 903.969C502.078 903.761 501.963 903.448 501.963 903.032V900.813L507.151 900.157L508.432 890.375C508.494 890.063 508.63 889.813 508.838 889.625C509.067 889.417 509.359 889.313 509.713 889.313H512.526V900.219H521.682V904.25H512.526V923.25C512.526 924.584 512.849 925.573 513.494 926.219C514.14 926.865 514.974 927.188 515.994 927.188C516.578 927.188 517.078 927.115 517.494 926.969C517.932 926.802 518.307 926.625 518.619 926.438C518.932 926.25 519.192 926.084 519.401 925.938C519.63 925.771 519.828 925.688 519.994 925.688C520.286 925.688 520.546 925.865 520.776 926.219L522.401 928.875C521.442 929.771 520.286 930.479 518.932 931C517.578 931.5 516.182 931.75 514.744 931.75Z" fill="#727B85"/>
<path d="M566.073 905.219C565.906 905.448 565.74 905.625 565.573 905.75C565.406 905.875 565.177 905.938 564.885 905.938C564.573 905.938 564.229 905.813 563.854 905.563C563.479 905.292 563.01 905 562.448 904.688C561.906 904.375 561.229 904.094 560.417 903.844C559.625 903.573 558.646 903.438 557.479 903.438C555.917 903.438 554.542 903.719 553.354 904.282C552.167 904.823 551.167 905.615 550.354 906.657C549.563 907.698 548.958 908.959 548.542 910.438C548.146 911.917 547.948 913.573 547.948 915.407C547.948 917.323 548.167 919.032 548.604 920.532C549.042 922.011 549.656 923.261 550.448 924.282C551.26 925.282 552.229 926.052 553.354 926.594C554.5 927.115 555.781 927.375 557.198 927.375C558.552 927.375 559.667 927.219 560.542 926.907C561.417 926.573 562.135 926.209 562.698 925.813C563.281 925.417 563.76 925.063 564.135 924.75C564.531 924.417 564.917 924.25 565.292 924.25C565.75 924.25 566.104 924.427 566.354 924.782L567.917 926.813C567.229 927.667 566.448 928.396 565.573 929C564.698 929.604 563.75 930.115 562.729 930.532C561.729 930.927 560.677 931.219 559.573 931.407C558.469 931.594 557.344 931.688 556.198 931.688C554.219 931.688 552.375 931.323 550.667 930.594C548.979 929.865 547.51 928.813 546.26 927.438C545.01 926.042 544.031 924.334 543.323 922.313C542.615 920.292 542.26 917.99 542.26 915.407C542.26 913.052 542.583 910.875 543.229 908.875C543.896 906.875 544.854 905.157 546.104 903.719C547.375 902.261 548.927 901.125 550.76 900.313C552.615 899.5 554.74 899.094 557.135 899.094C559.365 899.094 561.323 899.459 563.01 900.188C564.719 900.896 566.229 901.907 567.542 903.219L566.073 905.219Z" fill="#727B85"/>
<path d="M586.995 899.094C589.307 899.094 591.391 899.479 593.245 900.25C595.099 901.021 596.682 902.115 597.995 903.532C599.307 904.948 600.307 906.667 600.995 908.688C601.703 910.688 602.057 912.927 602.057 915.407C602.057 917.907 601.703 920.157 600.995 922.157C600.307 924.157 599.307 925.865 597.995 927.282C596.682 928.698 595.099 929.792 593.245 930.563C591.391 931.313 589.307 931.688 586.995 931.688C584.662 931.688 582.557 931.313 580.682 930.563C578.828 929.792 577.245 928.698 575.932 927.282C574.62 925.865 573.609 924.157 572.901 922.157C572.214 920.157 571.87 917.907 571.87 915.407C571.87 912.927 572.214 910.688 572.901 908.688C573.609 906.667 574.62 904.948 575.932 903.532C577.245 902.115 578.828 901.021 580.682 900.25C582.557 899.479 584.662 899.094 586.995 899.094ZM586.995 927.344C590.12 927.344 592.453 926.302 593.995 924.219C595.537 922.115 596.307 919.188 596.307 915.438C596.307 911.667 595.537 908.729 593.995 906.625C592.453 904.521 590.12 903.469 586.995 903.469C585.412 903.469 584.026 903.74 582.839 904.282C581.672 904.823 580.693 905.604 579.901 906.625C579.13 907.646 578.547 908.907 578.151 910.407C577.776 911.886 577.589 913.563 577.589 915.438C577.589 919.188 578.359 922.115 579.901 924.219C581.464 926.302 583.828 927.344 586.995 927.344Z" fill="#727B85"/>
<path d="M614.675 904.188C615.363 903.417 616.092 902.719 616.862 902.094C617.633 901.469 618.446 900.938 619.3 900.5C620.175 900.042 621.092 899.698 622.05 899.469C623.029 899.219 624.081 899.094 625.206 899.094C626.935 899.094 628.456 899.386 629.769 899.969C631.102 900.532 632.206 901.344 633.081 902.407C633.977 903.448 634.654 904.709 635.113 906.188C635.571 907.667 635.8 909.302 635.8 911.094V931.25H630.206V911.094C630.206 908.698 629.654 906.844 628.55 905.532C627.467 904.198 625.81 903.532 623.581 903.532C621.935 903.532 620.394 903.927 618.956 904.719C617.54 905.511 616.227 906.584 615.019 907.938V931.25H609.425V899.594H612.769C613.56 899.594 614.05 899.979 614.238 900.75L614.675 904.188Z" fill="#727B85"/>
<path d="M665.214 907.125C664.172 905.729 663.047 904.761 661.839 904.219C660.63 903.657 659.276 903.375 657.776 903.375C654.839 903.375 652.578 904.427 650.995 906.532C649.412 908.636 648.62 911.636 648.62 915.532C648.62 917.594 648.797 919.365 649.151 920.844C649.505 922.302 650.026 923.511 650.714 924.469C651.401 925.407 652.245 926.094 653.245 926.532C654.245 926.969 655.38 927.188 656.651 927.188C658.484 927.188 660.078 926.771 661.432 925.938C662.807 925.104 664.068 923.927 665.214 922.407V907.125ZM670.776 885.219V931.25H667.464C666.672 931.25 666.172 930.865 665.964 930.094L665.464 926.25C664.109 927.875 662.568 929.188 660.839 930.188C659.109 931.188 657.109 931.688 654.839 931.688C653.026 931.688 651.38 931.344 649.901 930.657C648.422 929.948 647.162 928.917 646.12 927.563C645.078 926.209 644.276 924.521 643.714 922.5C643.151 920.479 642.87 918.157 642.87 915.532C642.87 913.198 643.182 911.032 643.807 909.032C644.432 907.011 645.328 905.261 646.495 903.782C647.662 902.302 649.089 901.146 650.776 900.313C652.484 899.459 654.401 899.032 656.526 899.032C658.464 899.032 660.12 899.365 661.495 900.032C662.891 900.677 664.13 901.584 665.214 902.75V885.219H670.776Z" fill="#727B85"/>
<path d="M685.749 899.594V931.25H680.187V899.594H685.749ZM686.937 889.657C686.937 890.198 686.822 890.709 686.593 891.188C686.385 891.646 686.093 892.063 685.718 892.438C685.364 892.792 684.937 893.073 684.437 893.282C683.958 893.49 683.447 893.594 682.906 893.594C682.364 893.594 681.853 893.49 681.374 893.282C680.916 893.073 680.51 892.792 680.156 892.438C679.801 892.063 679.52 891.646 679.312 891.188C679.103 890.709 678.999 890.198 678.999 889.657C678.999 889.115 679.103 888.604 679.312 888.125C679.52 887.625 679.801 887.198 680.156 886.844C680.51 886.469 680.916 886.177 681.374 885.969C681.853 885.761 682.364 885.657 682.906 885.657C683.447 885.657 683.958 885.761 684.437 885.969C684.937 886.177 685.364 886.469 685.718 886.844C686.093 887.198 686.385 887.625 686.593 888.125C686.822 888.604 686.937 889.115 686.937 889.657Z" fill="#727B85"/>
<path d="M724.576 931.25H719.014V904.25H702.701V923.25C702.701 924.584 703.024 925.573 703.67 926.219C704.316 926.865 705.149 927.188 706.17 927.188C706.753 927.188 707.253 927.115 707.67 926.969C708.108 926.802 708.483 926.625 708.795 926.438C709.108 926.25 709.368 926.084 709.576 925.938C709.806 925.771 710.003 925.688 710.17 925.688C710.462 925.688 710.722 925.865 710.951 926.219L712.576 928.875C711.618 929.771 710.462 930.479 709.108 931C707.753 931.5 706.358 931.75 704.92 931.75C702.42 931.75 700.493 931.052 699.139 929.657C697.806 928.261 697.139 926.25 697.139 923.625V904.25H693.326C692.993 904.25 692.712 904.157 692.483 903.969C692.253 903.761 692.139 903.448 692.139 903.032V900.813L697.326 900.125L698.608 890.375C698.67 890.063 698.806 889.813 699.014 889.625C699.243 889.417 699.535 889.313 699.889 889.313H702.701V900.219H724.576V931.25ZM725.951 889.438C725.951 889.979 725.837 890.49 725.608 890.969C725.399 891.427 725.108 891.834 724.733 892.188C724.378 892.542 723.962 892.823 723.483 893.032C723.003 893.24 722.493 893.344 721.951 893.344C721.41 893.344 720.899 893.24 720.42 893.032C719.962 892.823 719.556 892.542 719.201 892.188C718.847 891.834 718.566 891.427 718.358 890.969C718.149 890.49 718.045 889.979 718.045 889.438C718.045 888.896 718.149 888.386 718.358 887.907C718.566 887.407 718.847 886.979 719.201 886.625C719.556 886.25 719.962 885.959 720.42 885.75C720.899 885.542 721.41 885.438 721.951 885.438C722.493 885.438 723.003 885.542 723.483 885.75C723.962 885.959 724.378 886.25 724.733 886.625C725.108 886.979 725.399 887.407 725.608 887.907C725.837 888.386 725.951 888.896 725.951 889.438Z" fill="#727B85"/>
<path d="M747.371 899.094C749.683 899.094 751.767 899.479 753.621 900.25C755.475 901.021 757.058 902.115 758.371 903.532C759.683 904.948 760.683 906.667 761.371 908.688C762.079 910.688 762.433 912.927 762.433 915.407C762.433 917.907 762.079 920.157 761.371 922.157C760.683 924.157 759.683 925.865 758.371 927.282C757.058 928.698 755.475 929.792 753.621 930.563C751.767 931.313 749.683 931.688 747.371 931.688C745.037 931.688 742.933 931.313 741.058 930.563C739.204 929.792 737.621 928.698 736.308 927.282C734.996 925.865 733.985 924.157 733.277 922.157C732.59 920.157 732.246 917.907 732.246 915.407C732.246 912.927 732.59 910.688 733.277 908.688C733.985 906.667 734.996 904.948 736.308 903.532C737.621 902.115 739.204 901.021 741.058 900.25C742.933 899.479 745.037 899.094 747.371 899.094ZM747.371 927.344C750.496 927.344 752.829 926.302 754.371 924.219C755.913 922.115 756.683 919.188 756.683 915.438C756.683 911.667 755.913 908.729 754.371 906.625C752.829 904.521 750.496 903.469 747.371 903.469C745.787 903.469 744.402 903.74 743.215 904.282C742.048 904.823 741.069 905.604 740.277 906.625C739.506 907.646 738.923 908.907 738.527 910.407C738.152 911.886 737.965 913.563 737.965 915.438C737.965 919.188 738.735 922.115 740.277 924.219C741.84 926.302 744.204 927.344 747.371 927.344Z" fill="#727B85"/>
<path d="M775.051 904.188C775.738 903.417 776.468 902.719 777.238 902.094C778.009 901.469 778.822 900.938 779.676 900.5C780.551 900.042 781.468 899.698 782.426 899.469C783.405 899.219 784.457 899.094 785.582 899.094C787.311 899.094 788.832 899.386 790.145 899.969C791.478 900.532 792.582 901.344 793.457 902.407C794.353 903.448 795.03 904.709 795.489 906.188C795.947 907.667 796.176 909.302 796.176 911.094V931.25H790.582V911.094C790.582 908.698 790.03 906.844 788.926 905.532C787.843 904.198 786.186 903.532 783.957 903.532C782.311 903.532 780.77 903.927 779.332 904.719C777.916 905.511 776.603 906.584 775.395 907.938V931.25H769.801V899.594H773.145C773.936 899.594 774.426 899.979 774.613 900.75L775.051 904.188Z" fill="#727B85"/>
<path d="M823.402 904.813C823.152 905.271 822.767 905.5 822.246 905.5C821.933 905.5 821.579 905.386 821.183 905.157C820.788 904.927 820.298 904.677 819.715 904.407C819.152 904.115 818.475 903.854 817.683 903.625C816.892 903.375 815.954 903.25 814.871 903.25C813.933 903.25 813.09 903.375 812.34 903.625C811.59 903.854 810.944 904.177 810.402 904.594C809.881 905.011 809.475 905.5 809.183 906.063C808.912 906.604 808.777 907.198 808.777 907.844C808.777 908.657 809.006 909.334 809.465 909.875C809.944 910.417 810.569 910.886 811.34 911.282C812.11 911.677 812.985 912.032 813.965 912.344C814.944 912.636 815.944 912.959 816.965 913.313C818.006 913.646 819.017 914.021 819.996 914.438C820.975 914.854 821.85 915.375 822.621 916C823.392 916.625 824.006 917.396 824.465 918.313C824.944 919.209 825.183 920.292 825.183 921.563C825.183 923.021 824.923 924.375 824.402 925.625C823.881 926.854 823.11 927.927 822.09 928.844C821.069 929.74 819.819 930.448 818.34 930.969C816.86 931.49 815.152 931.75 813.215 931.75C811.006 931.75 809.006 931.396 807.215 930.688C805.423 929.959 803.902 929.032 802.652 927.907L803.965 925.782C804.131 925.511 804.329 925.302 804.558 925.157C804.787 925.011 805.079 924.938 805.433 924.938C805.808 924.938 806.204 925.084 806.621 925.375C807.038 925.667 807.537 925.99 808.121 926.344C808.725 926.698 809.454 927.021 810.308 927.313C811.162 927.604 812.225 927.75 813.496 927.75C814.579 927.75 815.527 927.615 816.34 927.344C817.152 927.052 817.829 926.667 818.371 926.188C818.912 925.709 819.308 925.157 819.558 924.532C819.829 923.907 819.965 923.24 819.965 922.532C819.965 921.657 819.725 920.938 819.246 920.375C818.787 919.792 818.173 919.302 817.402 918.907C816.631 918.49 815.746 918.136 814.746 917.844C813.767 917.532 812.756 917.209 811.715 916.875C810.694 916.542 809.683 916.167 808.683 915.75C807.704 915.313 806.829 914.771 806.058 914.125C805.287 913.479 804.663 912.688 804.183 911.75C803.725 910.792 803.496 909.636 803.496 908.282C803.496 907.073 803.746 905.917 804.246 904.813C804.746 903.688 805.475 902.709 806.433 901.875C807.392 901.021 808.569 900.344 809.965 899.844C811.36 899.344 812.954 899.094 814.746 899.094C816.829 899.094 818.694 899.427 820.34 900.094C822.006 900.74 823.444 901.636 824.652 902.782L823.402 904.813Z" fill="#727B85"/>
</svg>
