<?xml version="1.0" encoding="utf-8"?>
<!-- Generator: Adobe Illustrator 25.4.1, SVG Export Plug-In . SVG Version: 6.00 Build 0)  -->
<svg version="1.1" id="Layer_1" xmlns="http://www.w3.org/2000/svg" xmlns:xlink="http://www.w3.org/1999/xlink" x="0px" y="0px"
	 viewBox="0 0 780 448" style="enable-background:new 0 0 780 448;" xml:space="preserve">
<style type="text/css">
	.st0{fill-rule:evenodd;clip-rule:evenodd;fill:#28B53D;}
</style>
<path class="st0" d="M372.1,102.7c-9.5-46.1,20-91.2,66.1-100.9c45.8-9.6,91.4,20.3,100.9,66.1c8.9,46.3-21.4,91-67.7,99.9
	C426.2,176.4,382.3,147.6,372.1,102.7L372.1,102.7z M446.9,87.1c1.9-0.2,3.5-1.5,4.2-3.3l4-11c0.2-0.7,0.9-1.2,1.6-1
	c0.3,0.1,0.6,0.3,0.8,0.5c0.6,0.8,1.7,1.1,2.6,0.9l1.3-0.3c1.5-0.3,2.4-1.7,2.1-3.2c0,0,0,0,0-0.1l-5.5-26.3c-0.5-2-2-3.5-4-4.1
	l-4.1-0.9c-1.5-0.4-2.4-1.8-2.1-3.3c0.1-0.5,0.4-1,0.7-1.3L462.8,17c-7.1-0.7-14.3-0.4-21.2,1c-37.2,7.7-61.1,44.2-53.3,81.4
	c0,0,0,0,0,0c0.8,3.7,1.9,7.3,2.9,10.6l21.2-4.4c1.4-0.2,2.6-1,3.4-2.1l5.3-8.1c0.8-1.2,2.4-1.5,3.6-0.7c0.2,0.1,0.4,0.3,0.6,0.5
	l11,13.9c1.3,1.5,3.3,2.1,5.3,1.7l2.4-0.5c2.9-0.7,4.8-3.6,4.3-6.5l-0.6-3c-0.3-1.4-1.2-2.6-2.5-3.3l-2.4-1.6
	c-1.2-0.8-1.6-2.5-0.8-3.7l1.6-2.4C444.3,88.4,445.5,87.5,446.9,87.1z M515.9,112.8c0.8-1.2,1.1-2.6,0.9-4l-0.3,0.1l-1.8-8.4
	c-0.2-1.4-1-2.6-2.2-3.4l-4.9-3.2c-0.7-0.2-0.9-0.9-1.1-1.9l-0.8-4c-0.1-0.7-0.7-1.2-1.4-1.1c-0.1,0-0.2,0-0.2,0l-2.4,0.5
	c-0.3,0.1-0.9,0.5-0.9,0.9l-0.6,5.4c0.1,0.6-0.3,1.1-0.8,1.2l-1.3,0.3c-0.7,0.1-1.1-0.1-1.6-0.7l-2.6-4c-0.5-0.9-1.6-1.1-3-0.8
	l-4,0.8c-0.5,0.1-0.9,0.3-1.3,0.6l-6.9,7.4l-1.7,1.3l-12,8.1c-0.9,0.6-1.4,1.6-1.2,2.7l0.7,3.4c0.2,0.7,0.5,1.4,1.1,1.9l4.9,3.2
	c1.3,0.9,2.9,1.2,4.4,0.8l3.4-0.7c0.2,0,0.3-0.1,0.4-0.2c0.3-0.2,0.5-0.3,0.9-0.4l6.7-3.2c0.7-0.4,1.5-0.7,2.3-0.8
	c2.3-0.4,4.7,0.1,6.6,1.4l5.3,3.5c1.3,0.7,2.9,0.9,4.3,0.5l5-1.1c1.4-0.2,2.6-1,3.4-2.1L515.9,112.8z M89,316.9
	c26.5,0.1,51.7-11.8,68.4-32.3c1.4-1.9,1.1-4.6-0.8-6.1c-0.9-0.7-2.1-1-3.3-0.8c-37.5,7-73.5-17.7-80.5-55.1
	c-5.4-28.8,8-57.8,33.4-72.5c2-1.1,2.7-3.6,1.6-5.5c-0.6-1.1-1.7-1.9-3-2.1c-3.4-0.9-8.9-1.2-13.3-1.5l-2.6-0.2
	c-48.6-0.5-88.5,38.5-89,87.1s38.5,88.5,87.1,89C87.7,316.9,88.4,316.9,89,316.9z M776.4,227.9l-20-3.2l-3.6-14.8
	c-3.4-15.4-15.9-27.2-31.5-29.7l-43.2-6.8c-15.6-2.5-31.2,4.9-39.2,18.6l-8,13l-20-3.1c-2.3-0.3-4.5,1.3-4.8,3.6
	c0,0.3-0.1,0.6,0,0.9l0.8,8.5c0,2.1,1.6,3.4,3.6,3.7l6.8,1.1c-5.4,3.3-9.1,8.9-10,15.1l-2.6,16.3c-0.9,5.3,0.2,10.7,3.2,15.1
	l-2.9,18.3c-1,5.9,3,11.5,8.9,12.5c0.1,0,0.1,0,0.2,0l10.9,1.7c6,0.9,11.6-3.2,12.6-9.2l1.7-10.9l87,13.7l-1.7,10.9
	c-1,5.9,3,11.5,8.9,12.5c0.1,0,0.2,0,0.3,0l10.9,1.7c6,0.9,11.6-3.2,12.6-9.2l2.9-18.3c4.1-3.4,6.8-8.2,7.7-13.4l2.6-16.3
	c0.9-6.3-1-12.8-5.2-17.5l7.1,1.1c1.8,0.4,3.6-0.7,4.2-2.5l3.3-7.8c0.9-2.2-0.2-4.7-2.4-5.5C777,228,776.7,227.9,776.4,227.9
	L776.4,227.9z M657.7,203.3c3.7-6,10.2-9.2,16.9-8.1l43.2,6.8c6.8,1.1,11.9,6,13.6,12.9l4.2,17.7l-87-13.7L657.7,203.3z
	 M631.7,255.3c-6.8-1.1-10.2-5.8-9.2-12.6c1-6.5,5.8-10.2,12.6-9.2c6.5,1,14.8,12.4,13.7,18.9c-0.9,5.7-8.6,4.4-14.8,3.3l0,0
	L631.7,255.3z M740.4,272.4c-0.8-0.1-1.6-0.2-2.5-0.4c-6.4-0.9-13.9-1.9-13-7.6c1-6.5,12.1-14.8,18.9-13.7c6.5,1,10.2,6.1,9.2,12.6
	C752,270,747,273.4,740.4,272.4L740.4,272.4z"/>
</svg>
