<svg width="1000" height="1000" viewBox="0 0 1000 1000" fill="none" xmlns="http://www.w3.org/2000/svg">
<rect width="1000" height="1000" fill="white"/>
<circle cx="500.004" cy="331.25" r="281.25" fill="#DCE2EA"/>
<path d="M303.91 300H405.473C407.426 300 409.379 298.291 409.379 296.094V280.469C409.379 278.516 407.426 276.563 405.473 276.563H303.91C301.713 276.563 300.004 278.516 300.004 280.469V296.094C300.004 298.291 301.713 300 303.91 300ZM421.098 319.531H319.535C317.338 319.531 315.629 321.484 315.629 323.438V339.063C315.629 341.26 317.338 342.969 319.535 342.969H421.098C423.051 342.969 425.004 341.26 425.004 339.063V323.438C425.004 321.484 423.051 319.531 421.098 319.531ZM405.473 362.5H303.91C301.713 362.5 300.004 364.453 300.004 366.406V382.031C300.004 384.229 301.713 385.938 303.91 385.938H405.473C407.426 385.938 409.379 384.229 409.379 382.031V366.406C409.379 364.453 407.426 362.5 405.473 362.5Z" fill="#1F2937"/>
<path d="M465.495 335.864H509.586L502.702 342.31C501.383 343.774 501.237 345.972 502.702 347.437L504.313 348.901C505.631 350.366 507.829 350.366 509.293 348.901L523.649 334.546C525.553 332.788 525.553 329.712 523.649 327.954L509.293 313.599C507.829 312.134 505.631 312.134 504.313 313.599L502.702 315.064C501.237 316.528 501.383 318.726 502.702 320.19L509.586 326.489H465.495L472.379 320.19C473.698 318.726 473.844 316.528 472.379 315.064L470.768 313.599C469.45 312.134 467.252 312.134 465.788 313.599L451.432 327.954C449.528 329.712 449.528 332.788 451.432 334.546L465.788 348.901C467.252 350.366 469.45 350.366 470.768 348.901L472.379 347.437C473.844 345.972 473.698 343.774 472.379 342.31L465.495 335.864Z" fill="#1F2937"/>
<path d="M702.422 370.313H643.096C642.852 375.195 639.434 378.125 635.039 378.125H620.391C615.752 378.125 612.09 373.975 612.334 370.313H553.984C551.787 370.313 550.078 372.266 550.078 374.219V378.125C550.078 386.914 556.914 393.75 565.703 393.75H690.703C699.248 393.75 706.328 386.914 706.328 378.125V374.219C706.328 372.266 704.375 370.313 702.422 370.313ZM690.703 280.469C690.703 274.121 685.332 268.75 678.984 268.75H577.422C570.83 268.75 565.703 274.121 565.703 280.469V362.5H690.703V280.469ZM675.078 346.875H581.328V284.375H675.078V346.875Z" fill="#1F2937"/>
<path d="M149.896 697.713L144.646 718.188H133.621L138.871 697.713H149.896ZM165.296 697.713L160.046 718.188H149.021L154.271 697.713H165.296Z" fill="#1F2937"/>
<path d="M214.678 716.875L204.703 717.75L202.953 709.35H188.078V725.275H211.966V735.163H188.078V746.275H197.353V756.25H170.228V746.275H176.353V709.35H170.228V699.375H212.928L214.678 716.875Z" fill="#1F2937"/>
<path d="M224.512 709.788V698.063H235.799V709.788H224.512ZM241.487 756.25H219.699V747.763H224.949V725.363H219.262V716.788H236.237V747.763H241.487V756.25Z" fill="#1F2937"/>
<path d="M292.134 756.25H275.597V748.9C274.488 751.175 272.855 753.129 270.697 754.763C268.538 756.338 265.68 757.125 262.122 757.125C256.93 757.125 252.847 755.346 249.872 751.788C246.897 748.229 245.409 743.388 245.409 737.263C245.409 731.371 246.868 726.354 249.784 722.213C252.701 718.071 257.105 716 262.997 716C266.205 716 268.83 716.642 270.872 717.925C272.913 719.209 274.488 720.842 275.597 722.825V704.625H267.722V696.05H286.884V747.763H292.134V756.25ZM275.597 736.3V735.338C275.597 732.071 274.722 729.534 272.972 727.725C271.28 725.859 269.151 724.925 266.584 724.925C264.076 724.925 261.859 725.859 259.934 727.725C258.068 729.592 257.134 732.538 257.134 736.563C257.134 740.354 258.009 743.242 259.759 745.225C261.509 747.209 263.58 748.2 265.972 748.2C268.947 748.2 271.28 746.946 272.972 744.438C274.722 741.929 275.597 739.217 275.597 736.3Z" fill="#1F2937"/>
<path d="M334.337 743.825C334.045 747.325 332.324 750.417 329.174 753.1C326.024 755.784 321.62 757.125 315.962 757.125C310.07 757.125 305.199 755.463 301.349 752.138C297.557 748.813 295.662 743.854 295.662 737.263C295.662 731.196 297.382 726.15 300.824 722.125C304.324 718.042 309.195 716 315.437 716C320.92 716 325.353 717.575 328.737 720.725C332.178 723.875 333.928 728.017 333.987 733.15C333.987 735.075 333.782 736.971 333.374 738.838H307.474C308.116 745.079 311.207 748.2 316.749 748.2C319.782 748.2 321.824 747.471 322.874 746.013C323.982 744.554 324.653 743.242 324.887 742.075L334.337 743.825ZM322.349 732.275C322.582 730.292 322.145 728.425 321.037 726.675C319.987 724.925 318.12 724.05 315.437 724.05C313.103 724.05 311.295 724.809 310.012 726.325C308.728 727.842 307.912 729.825 307.562 732.275H322.349Z" fill="#1F2937"/>
<path d="M359.921 756.25H338.134V747.763H343.384V704.625H337.696V696.05H354.671V747.763H359.921V756.25Z" fill="#1F2937"/>
<path d="M369.56 709.788V698.063H380.848V709.788H369.56ZM386.535 756.25H364.748V747.763H369.998V725.363H364.31V716.788H381.285V747.763H386.535V756.25Z" fill="#1F2937"/>
<path d="M424.058 744C423.474 748.55 421.899 751.875 419.333 753.975C416.766 756.075 413.441 757.125 409.358 757.125C404.983 757.125 401.424 756.046 398.683 753.888C395.999 751.671 394.658 748.521 394.658 744.438V724.838H389.058V716.788H394.658V704.8H405.945V716.788H420.12V724.838H405.945V742.513C405.945 745.954 407.52 747.675 410.67 747.675C411.37 747.675 412.303 747.384 413.47 746.8C414.695 746.159 415.483 744.379 415.833 741.463L424.058 744Z" fill="#1F2937"/>
<path d="M468.998 725.275H465.148L452.46 756.25L448.698 766.138H453.86V774.888H432.073V766.138H438.373L441.523 756.863L427.698 725.275H423.673V716.788H443.798V725.275H439.86L447.91 743.475H448.435L454.385 725.275H450.973V716.788H468.998V725.275Z" fill="#1F2937"/>
<path d="M530.719 739.013C530.719 744.904 528.735 749.396 524.769 752.488C520.802 755.579 515.348 757.125 508.406 757.125C504.556 757.125 500.706 756.629 496.856 755.638C493.064 754.646 490.06 753.159 487.844 751.175L489.594 737.088L498.956 737.963L498.869 744.875C500.852 745.925 502.544 746.567 503.944 746.8C505.344 746.975 506.539 747.063 507.531 747.063C510.623 747.063 513.16 746.684 515.144 745.925C517.127 745.109 518.119 743.271 518.119 740.413C518.119 737.263 516.952 735.163 514.619 734.113C512.285 733.004 509.544 732.159 506.394 731.575C503.652 731.109 500.881 730.438 498.081 729.563C495.339 728.629 493.035 727.142 491.169 725.1C489.302 723 488.369 719.909 488.369 715.825C488.369 709.467 490.527 705.004 494.844 702.438C499.16 699.813 503.885 698.5 509.019 698.5C512.752 698.5 516.31 699.084 519.694 700.25C523.077 701.359 525.673 702.875 527.481 704.8L528.006 717.138L518.644 718.013L517.856 711.363C516.398 710.371 514.91 709.7 513.394 709.35C511.935 709 510.506 708.825 509.106 708.825C506.773 708.825 504.819 709.234 503.244 710.05C501.727 710.867 500.969 712.296 500.969 714.338C500.969 716.729 501.96 718.392 503.944 719.325C505.927 720.259 508.202 721.017 510.769 721.6C513.102 722.067 515.814 722.738 518.906 723.613C522.056 724.429 524.798 726.004 527.131 728.338C529.523 730.613 530.719 734.171 530.719 739.013Z" fill="#1F2937"/>
<path d="M599.21 725.275H595.622L584.947 756.25H576.547L566.31 732.625H565.785L556.51 756.25H548.547L537.61 725.275H534.022V716.788H555.022V725.275H549.597L554.41 740.675H554.935L564.21 716.788H570.947L581.71 740.325H582.235L585.472 725.275H580.31V716.788H599.21V725.275Z" fill="#1F2937"/>
<path d="M607.939 709.788V698.063H619.227V709.788H607.939ZM624.914 756.25H603.127V747.763H608.377V725.363H602.689V716.788H619.664V747.763H624.914V756.25Z" fill="#1F2937"/>
<path d="M662.437 744C661.854 748.55 660.279 751.875 657.712 753.975C655.145 756.075 651.82 757.125 647.737 757.125C643.362 757.125 639.804 756.046 637.062 753.888C634.379 751.671 633.037 748.521 633.037 744.438V724.838H627.437V716.788H633.037V704.8H644.324V716.788H658.499V724.838H644.324V742.513C644.324 745.954 645.899 747.675 649.049 747.675C649.749 747.675 650.683 747.384 651.849 746.8C653.074 746.159 653.862 744.379 654.212 741.463L662.437 744Z" fill="#1F2937"/>
<path d="M702.025 741.55C701.617 745.167 700.042 748.667 697.3 752.05C694.617 755.434 690.096 757.125 683.738 757.125C678.021 757.125 673.296 755.463 669.563 752.138C665.888 748.813 664.05 743.825 664.05 737.175C664.05 730.175 666.063 724.896 670.088 721.338C674.113 717.779 678.984 716 684.7 716C686.859 716 689.163 716.292 691.613 716.875C694.121 717.4 696.571 718.304 698.963 719.588L700.713 731.575L691.7 732.538L690.388 726.063C688.113 725.304 686.129 724.925 684.438 724.925C682.046 724.925 680.004 725.859 678.313 727.725C676.621 729.534 675.775 732.509 675.775 736.65C675.775 744.35 678.779 748.2 684.788 748.2C689.221 748.2 691.817 745.4 692.575 739.8L702.025 741.55Z" fill="#1F2937"/>
<path d="M753.537 756.25H731.749V747.763H736.999V734.025C736.999 730.642 736.387 728.221 735.162 726.763C733.995 725.304 732.303 724.575 730.087 724.575C727.52 724.575 725.508 725.363 724.049 726.938C722.649 728.513 721.891 730.584 721.774 733.15V747.763H727.024V756.25H705.237V747.763H710.487V704.625H705.237V696.05H721.774V722.825C724.399 718.275 728.628 716 734.462 716C738.195 716 741.433 717.109 744.174 719.325C746.916 721.542 748.287 724.984 748.287 729.65V747.763H753.537V756.25Z" fill="#1F2937"/>
<path d="M795.629 743.825C795.337 747.325 793.617 750.417 790.467 753.1C787.317 755.784 782.912 757.125 777.254 757.125C771.362 757.125 766.492 755.463 762.642 752.138C758.85 748.813 756.954 743.854 756.954 737.263C756.954 731.196 758.675 726.15 762.117 722.125C765.617 718.042 770.487 716 776.729 716C782.212 716 786.646 717.575 790.029 720.725C793.471 723.875 795.221 728.017 795.279 733.15C795.279 735.075 795.075 736.971 794.667 738.838H768.767C769.408 745.079 772.5 748.2 778.042 748.2C781.075 748.2 783.117 747.471 784.167 746.013C785.275 744.554 785.946 743.242 786.179 742.075L795.629 743.825ZM783.642 732.275C783.875 730.292 783.437 728.425 782.329 726.675C781.279 724.925 779.412 724.05 776.729 724.05C774.396 724.05 772.587 724.809 771.304 726.325C770.021 727.842 769.204 729.825 768.854 732.275H783.642Z" fill="#1F2937"/>
<path d="M825.326 716.263C826.435 716.263 827.66 716.438 829.001 716.788C830.401 717.079 831.772 717.634 833.114 718.45L834.864 732.275L826.289 733.238L824.801 726.5C823.635 725.8 822.614 725.45 821.739 725.45C820.456 725.45 819.318 725.946 818.326 726.938C817.393 727.929 816.926 729.388 816.926 731.313V747.763H823.926V756.25H800.389V747.763H805.639V725.363H799.951V716.788H816.051V724.313C816.693 722.038 817.714 720.142 819.114 718.625C820.572 717.05 822.643 716.263 825.326 716.263Z" fill="#1F2937"/>
<path d="M838.049 718.1L843.299 697.625H854.324L849.074 718.1H838.049ZM853.449 718.1L858.699 697.625H869.724L864.474 718.1H853.449Z" fill="#1F2937"/>
<path d="M153.553 842C150.99 842.083 148.803 842.292 146.99 842.625C145.199 842.938 143.73 843.354 142.584 843.875C141.459 844.396 140.636 845.011 140.115 845.719C139.615 846.427 139.365 847.219 139.365 848.094C139.365 848.927 139.501 849.646 139.771 850.25C140.042 850.854 140.407 851.354 140.865 851.75C141.344 852.125 141.896 852.406 142.521 852.594C143.167 852.761 143.855 852.844 144.584 852.844C145.563 852.844 146.459 852.75 147.271 852.563C148.084 852.354 148.844 852.063 149.553 851.688C150.282 851.313 150.969 850.865 151.615 850.344C152.282 849.823 152.928 849.229 153.553 848.563V842ZM135.584 829.063C137.334 827.375 139.219 826.115 141.24 825.281C143.261 824.448 145.501 824.031 147.959 824.031C149.73 824.031 151.303 824.323 152.678 824.906C154.053 825.49 155.209 826.302 156.146 827.344C157.084 828.386 157.792 829.646 158.271 831.125C158.751 832.604 158.99 834.229 158.99 836V856.25H156.521C155.98 856.25 155.563 856.167 155.271 856C154.98 855.813 154.751 855.458 154.584 854.938L153.959 851.938C153.126 852.708 152.313 853.396 151.521 854C150.73 854.583 149.896 855.083 149.021 855.5C148.146 855.896 147.209 856.198 146.209 856.406C145.23 856.636 144.136 856.75 142.928 856.75C141.699 856.75 140.542 856.583 139.459 856.25C138.376 855.896 137.428 855.375 136.615 854.688C135.824 854 135.188 853.136 134.709 852.094C134.251 851.031 134.021 849.781 134.021 848.344C134.021 847.094 134.365 845.896 135.053 844.75C135.74 843.583 136.855 842.552 138.396 841.656C139.938 840.761 141.949 840.031 144.428 839.469C146.907 838.886 149.949 838.552 153.553 838.469V836C153.553 833.542 153.021 831.688 151.959 830.438C150.896 829.167 149.344 828.531 147.303 828.531C145.928 828.531 144.771 828.708 143.834 829.063C142.917 829.396 142.115 829.781 141.428 830.219C140.761 830.636 140.178 831.021 139.678 831.375C139.199 831.708 138.719 831.875 138.24 831.875C137.865 831.875 137.542 831.781 137.271 831.594C137.001 831.386 136.771 831.136 136.584 830.844L135.584 829.063Z" fill="#727B85"/>
<path d="M173.37 848.625C174.39 850 175.505 850.969 176.713 851.531C177.943 852.094 179.286 852.375 180.745 852.375C183.724 852.375 186.005 851.323 187.588 849.219C189.172 847.115 189.963 843.979 189.963 839.813C189.963 835.938 189.255 833.094 187.838 831.281C186.443 829.448 184.443 828.531 181.838 828.531C180.026 828.531 178.443 828.948 177.088 829.781C175.755 830.615 174.515 831.792 173.37 833.313V848.625ZM173.37 829.156C174.703 827.615 176.203 826.386 177.87 825.469C179.557 824.552 181.495 824.094 183.682 824.094C185.536 824.094 187.203 824.448 188.682 825.156C190.182 825.865 191.453 826.896 192.495 828.25C193.536 829.583 194.328 831.208 194.87 833.125C195.432 835.042 195.713 837.198 195.713 839.594C195.713 842.156 195.401 844.49 194.776 846.594C194.151 848.698 193.245 850.5 192.057 852C190.89 853.479 189.463 854.636 187.776 855.469C186.088 856.281 184.193 856.688 182.088 856.688C180.005 856.688 178.245 856.302 176.807 855.531C175.39 854.74 174.151 853.625 173.088 852.188L172.807 855.063C172.64 855.854 172.161 856.25 171.37 856.25H167.776V810.219H173.37V829.156Z" fill="#727B85"/>
<path d="M221.499 829.813C221.249 830.271 220.864 830.5 220.343 830.5C220.03 830.5 219.676 830.386 219.28 830.156C218.884 829.927 218.395 829.677 217.812 829.406C217.249 829.115 216.572 828.854 215.78 828.625C214.989 828.375 214.051 828.25 212.968 828.25C212.03 828.25 211.187 828.375 210.437 828.625C209.687 828.854 209.041 829.177 208.499 829.594C207.978 830.011 207.572 830.5 207.28 831.063C207.009 831.604 206.874 832.198 206.874 832.844C206.874 833.656 207.103 834.333 207.562 834.875C208.041 835.417 208.666 835.886 209.437 836.281C210.207 836.677 211.082 837.031 212.062 837.344C213.041 837.636 214.041 837.958 215.062 838.313C216.103 838.646 217.114 839.021 218.093 839.438C219.072 839.854 219.947 840.375 220.718 841C221.489 841.625 222.103 842.396 222.562 843.313C223.041 844.208 223.28 845.292 223.28 846.563C223.28 848.021 223.02 849.375 222.499 850.625C221.978 851.854 221.207 852.927 220.187 853.844C219.166 854.74 217.916 855.448 216.437 855.969C214.957 856.49 213.249 856.75 211.312 856.75C209.103 856.75 207.103 856.396 205.312 855.688C203.52 854.958 201.999 854.031 200.749 852.906L202.062 850.781C202.228 850.511 202.426 850.302 202.655 850.156C202.884 850.011 203.176 849.938 203.53 849.938C203.905 849.938 204.301 850.083 204.718 850.375C205.134 850.667 205.634 850.99 206.218 851.344C206.822 851.698 207.551 852.021 208.405 852.313C209.259 852.604 210.322 852.75 211.593 852.75C212.676 852.75 213.624 852.615 214.437 852.344C215.249 852.052 215.926 851.667 216.468 851.188C217.009 850.708 217.405 850.156 217.655 849.531C217.926 848.906 218.062 848.24 218.062 847.531C218.062 846.656 217.822 845.938 217.343 845.375C216.884 844.792 216.27 844.302 215.499 843.906C214.728 843.49 213.843 843.136 212.843 842.844C211.864 842.531 210.853 842.208 209.812 841.875C208.791 841.542 207.78 841.167 206.78 840.75C205.801 840.313 204.926 839.771 204.155 839.125C203.384 838.479 202.759 837.688 202.28 836.75C201.822 835.792 201.593 834.636 201.593 833.281C201.593 832.073 201.843 830.917 202.343 829.813C202.843 828.688 203.572 827.708 204.53 826.875C205.489 826.021 206.666 825.344 208.062 824.844C209.457 824.344 211.051 824.094 212.843 824.094C214.926 824.094 216.791 824.427 218.437 825.094C220.103 825.74 221.541 826.636 222.749 827.781L221.499 829.813Z" fill="#727B85"/>
<path d="M240.131 856.75C237.631 856.75 235.704 856.052 234.35 854.656C233.017 853.261 232.35 851.25 232.35 848.625V829.25H228.538C228.204 829.25 227.923 829.156 227.694 828.969C227.465 828.761 227.35 828.448 227.35 828.031V825.813L232.538 825.156L233.819 815.375C233.881 815.063 234.017 814.813 234.225 814.625C234.454 814.417 234.746 814.313 235.1 814.313H237.913V825.219H247.069V829.25H237.913V848.25C237.913 849.583 238.236 850.573 238.881 851.219C239.527 851.865 240.361 852.188 241.381 852.188C241.965 852.188 242.465 852.115 242.881 851.969C243.319 851.802 243.694 851.625 244.006 851.438C244.319 851.25 244.579 851.083 244.788 850.938C245.017 850.771 245.215 850.688 245.381 850.688C245.673 850.688 245.933 850.865 246.163 851.219L247.788 853.875C246.829 854.771 245.673 855.479 244.319 856C242.965 856.5 241.569 856.75 240.131 856.75Z" fill="#727B85"/>
<path d="M258.406 830.938C259.406 828.771 260.635 827.083 262.094 825.875C263.552 824.646 265.333 824.031 267.438 824.031C268.104 824.031 268.74 824.104 269.344 824.25C269.969 824.396 270.521 824.625 271 824.938L270.594 829.094C270.469 829.615 270.156 829.875 269.656 829.875C269.365 829.875 268.938 829.813 268.375 829.688C267.813 829.563 267.177 829.5 266.469 829.5C265.469 829.5 264.573 829.646 263.781 829.938C263.01 830.229 262.313 830.667 261.688 831.25C261.083 831.813 260.531 832.521 260.031 833.375C259.552 834.208 259.115 835.167 258.719 836.25V856.25H253.125V824.594H256.313C256.917 824.594 257.333 824.708 257.563 824.938C257.792 825.167 257.948 825.563 258.031 826.125L258.406 830.938Z" fill="#727B85"/>
<path d="M292.872 842C290.309 842.083 288.122 842.292 286.309 842.625C284.517 842.938 283.049 843.354 281.903 843.875C280.778 844.396 279.955 845.011 279.434 845.719C278.934 846.427 278.684 847.219 278.684 848.094C278.684 848.927 278.82 849.646 279.09 850.25C279.361 850.854 279.726 851.354 280.184 851.75C280.663 852.125 281.215 852.406 281.84 852.594C282.486 852.761 283.174 852.844 283.903 852.844C284.882 852.844 285.778 852.75 286.59 852.563C287.403 852.354 288.163 852.063 288.872 851.688C289.601 851.313 290.288 850.865 290.934 850.344C291.601 849.823 292.247 849.229 292.872 848.563V842ZM274.903 829.063C276.653 827.375 278.538 826.115 280.559 825.281C282.58 824.448 284.819 824.031 287.278 824.031C289.049 824.031 290.622 824.323 291.997 824.906C293.372 825.49 294.528 826.302 295.465 827.344C296.403 828.386 297.111 829.646 297.59 831.125C298.07 832.604 298.309 834.229 298.309 836V856.25H295.84C295.299 856.25 294.882 856.167 294.59 856C294.299 855.813 294.07 855.458 293.903 854.938L293.278 851.938C292.444 852.708 291.632 853.396 290.84 854C290.049 854.583 289.215 855.083 288.34 855.5C287.465 855.896 286.528 856.198 285.528 856.406C284.549 856.636 283.455 856.75 282.247 856.75C281.017 856.75 279.861 856.583 278.778 856.25C277.694 855.896 276.747 855.375 275.934 854.688C275.142 854 274.507 853.136 274.028 852.094C273.57 851.031 273.34 849.781 273.34 848.344C273.34 847.094 273.684 845.896 274.372 844.75C275.059 843.583 276.174 842.552 277.715 841.656C279.257 840.761 281.267 840.031 283.747 839.469C286.226 838.886 289.267 838.552 292.872 838.469V836C292.872 833.542 292.34 831.688 291.278 830.438C290.215 829.167 288.663 828.531 286.622 828.531C285.247 828.531 284.09 828.708 283.153 829.063C282.236 829.396 281.434 829.781 280.747 830.219C280.08 830.636 279.497 831.021 278.997 831.375C278.517 831.708 278.038 831.875 277.559 831.875C277.184 831.875 276.861 831.781 276.59 831.594C276.32 831.386 276.09 831.136 275.903 830.844L274.903 829.063Z" fill="#727B85"/>
<path d="M329.126 830.219C328.959 830.448 328.793 830.625 328.626 830.75C328.459 830.875 328.23 830.938 327.938 830.938C327.626 830.938 327.282 830.813 326.907 830.563C326.532 830.292 326.063 830 325.501 829.688C324.959 829.375 324.282 829.094 323.47 828.844C322.678 828.573 321.699 828.438 320.532 828.438C318.97 828.438 317.595 828.719 316.407 829.281C315.22 829.823 314.22 830.615 313.407 831.656C312.616 832.698 312.011 833.958 311.595 835.438C311.199 836.917 311.001 838.573 311.001 840.406C311.001 842.323 311.22 844.031 311.657 845.531C312.095 847.011 312.709 848.261 313.501 849.281C314.313 850.281 315.282 851.052 316.407 851.594C317.553 852.115 318.834 852.375 320.251 852.375C321.605 852.375 322.72 852.219 323.595 851.906C324.47 851.573 325.188 851.208 325.751 850.813C326.334 850.417 326.813 850.063 327.188 849.75C327.584 849.417 327.97 849.25 328.345 849.25C328.803 849.25 329.157 849.427 329.407 849.781L330.97 851.813C330.282 852.667 329.501 853.396 328.626 854C327.751 854.604 326.803 855.115 325.782 855.531C324.782 855.927 323.73 856.219 322.626 856.406C321.522 856.594 320.397 856.688 319.251 856.688C317.272 856.688 315.428 856.323 313.72 855.594C312.032 854.865 310.563 853.813 309.313 852.438C308.063 851.042 307.084 849.333 306.376 847.313C305.668 845.292 305.313 842.99 305.313 840.406C305.313 838.052 305.636 835.875 306.282 833.875C306.949 831.875 307.907 830.156 309.157 828.719C310.428 827.261 311.98 826.125 313.813 825.313C315.668 824.5 317.793 824.094 320.188 824.094C322.418 824.094 324.376 824.458 326.063 825.188C327.772 825.896 329.282 826.906 330.595 828.219L329.126 830.219Z" fill="#727B85"/>
<path d="M366.628 856.25H361.066V829.25H344.753V848.25C344.753 849.583 345.076 850.573 345.722 851.219C346.368 851.865 347.201 852.188 348.222 852.188C348.805 852.188 349.305 852.115 349.722 851.969C350.16 851.802 350.535 851.625 350.847 851.438C351.16 851.25 351.42 851.083 351.628 850.938C351.858 850.771 352.055 850.688 352.222 850.688C352.514 850.688 352.774 850.865 353.003 851.219L354.628 853.875C353.67 854.771 352.514 855.479 351.16 856C349.805 856.5 348.41 856.75 346.972 856.75C344.472 856.75 342.545 856.052 341.191 854.656C339.858 853.261 339.191 851.25 339.191 848.625V829.25H335.378C335.045 829.25 334.764 829.156 334.535 828.969C334.305 828.761 334.191 828.448 334.191 828.031V825.813L339.378 825.125L340.66 815.375C340.722 815.063 340.858 814.813 341.066 814.625C341.295 814.417 341.587 814.313 341.941 814.313H344.753V825.219H366.628V856.25ZM368.003 814.438C368.003 814.979 367.889 815.49 367.66 815.969C367.451 816.427 367.16 816.833 366.785 817.188C366.43 817.542 366.014 817.823 365.535 818.031C365.055 818.24 364.545 818.344 364.003 818.344C363.462 818.344 362.951 818.24 362.472 818.031C362.014 817.823 361.608 817.542 361.253 817.188C360.899 816.833 360.618 816.427 360.41 815.969C360.201 815.49 360.097 814.979 360.097 814.438C360.097 813.896 360.201 813.386 360.41 812.906C360.618 812.406 360.899 811.979 361.253 811.625C361.608 811.25 362.014 810.958 362.472 810.75C362.951 810.542 363.462 810.438 364.003 810.438C364.545 810.438 365.055 810.542 365.535 810.75C366.014 810.958 366.43 811.25 366.785 811.625C367.16 811.979 367.451 812.406 367.66 812.906C367.889 813.386 368.003 813.896 368.003 814.438Z" fill="#727B85"/>
<path d="M381.329 829.188C382.017 828.417 382.746 827.719 383.517 827.094C384.287 826.469 385.1 825.938 385.954 825.5C386.829 825.042 387.746 824.698 388.704 824.469C389.683 824.219 390.735 824.094 391.86 824.094C393.59 824.094 395.11 824.386 396.423 824.969C397.756 825.531 398.86 826.344 399.735 827.406C400.631 828.448 401.308 829.708 401.767 831.188C402.225 832.667 402.454 834.302 402.454 836.094V856.25H396.86V836.094C396.86 833.698 396.308 831.844 395.204 830.531C394.121 829.198 392.465 828.531 390.235 828.531C388.59 828.531 387.048 828.927 385.61 829.719C384.194 830.511 382.881 831.583 381.673 832.938V856.25H376.079V824.594H379.423C380.215 824.594 380.704 824.979 380.892 825.75L381.329 829.188Z" fill="#727B85"/>
<path d="M422.274 840.781C423.399 840.781 424.389 840.625 425.243 840.313C426.097 840 426.816 839.563 427.399 839C427.982 838.438 428.42 837.771 428.711 837C429.003 836.208 429.149 835.344 429.149 834.406C429.149 832.469 428.555 830.927 427.368 829.781C426.201 828.636 424.503 828.063 422.274 828.063C420.024 828.063 418.305 828.636 417.118 829.781C415.951 830.927 415.368 832.469 415.368 834.406C415.368 835.344 415.514 836.208 415.805 837C416.118 837.771 416.566 838.438 417.149 839C417.732 839.563 418.451 840 419.305 840.313C420.159 840.625 421.149 840.781 422.274 840.781ZM432.305 857.969C432.305 857.198 432.086 856.573 431.649 856.094C431.211 855.615 430.618 855.24 429.868 854.969C429.139 854.698 428.284 854.511 427.305 854.406C426.326 854.281 425.284 854.188 424.18 854.125C423.097 854.063 421.993 854 420.868 853.938C419.743 853.875 418.659 853.771 417.618 853.625C416.451 854.167 415.493 854.854 414.743 855.688C414.014 856.5 413.649 857.458 413.649 858.563C413.649 859.271 413.826 859.927 414.18 860.531C414.555 861.156 415.118 861.688 415.868 862.125C416.618 862.583 417.555 862.938 418.68 863.188C419.826 863.458 421.17 863.594 422.711 863.594C424.211 863.594 425.555 863.458 426.743 863.188C427.93 862.917 428.93 862.531 429.743 862.031C430.576 861.531 431.211 860.938 431.649 860.25C432.086 859.563 432.305 858.802 432.305 857.969ZM437.961 825.844V827.906C437.961 828.594 437.524 829.031 436.649 829.219L433.055 829.688C433.764 831.063 434.118 832.583 434.118 834.25C434.118 835.792 433.816 837.198 433.211 838.469C432.628 839.719 431.816 840.792 430.774 841.688C429.732 842.583 428.482 843.271 427.024 843.75C425.566 844.229 423.982 844.469 422.274 844.469C420.795 844.469 419.399 844.292 418.086 843.938C417.42 844.354 416.909 844.802 416.555 845.281C416.201 845.74 416.024 846.208 416.024 846.688C416.024 847.438 416.326 848.011 416.93 848.406C417.555 848.781 418.368 849.052 419.368 849.219C420.368 849.386 421.503 849.49 422.774 849.531C424.066 849.573 425.378 849.646 426.711 849.75C428.066 849.833 429.378 849.99 430.649 850.219C431.941 850.448 433.086 850.823 434.086 851.344C435.086 851.865 435.889 852.583 436.493 853.5C437.118 854.417 437.43 855.604 437.43 857.063C437.43 858.417 437.086 859.729 436.399 861C435.732 862.271 434.764 863.396 433.493 864.375C432.222 865.375 430.659 866.167 428.805 866.75C426.972 867.354 424.899 867.656 422.586 867.656C420.274 867.656 418.253 867.427 416.524 866.969C414.795 866.511 413.357 865.896 412.211 865.125C411.066 864.354 410.201 863.458 409.618 862.438C409.055 861.438 408.774 860.386 408.774 859.281C408.774 857.719 409.263 856.396 410.243 855.313C411.222 854.229 412.566 853.365 414.274 852.719C413.336 852.302 412.586 851.75 412.024 851.063C411.482 850.354 411.211 849.406 411.211 848.219C411.211 847.761 411.295 847.292 411.461 846.813C411.628 846.313 411.878 845.823 412.211 845.344C412.566 844.844 412.993 844.375 413.493 843.938C413.993 843.5 414.576 843.115 415.243 842.781C413.68 841.906 412.461 840.75 411.586 839.313C410.711 837.854 410.274 836.167 410.274 834.25C410.274 832.708 410.566 831.313 411.149 830.063C411.753 828.792 412.586 827.719 413.649 826.844C414.711 825.948 415.972 825.261 417.43 824.781C418.909 824.302 420.524 824.063 422.274 824.063C423.649 824.063 424.93 824.219 426.118 824.531C427.305 824.823 428.389 825.261 429.368 825.844H437.961Z" fill="#727B85"/>
<path d="M473.673 824.094C475.986 824.094 478.069 824.479 479.923 825.25C481.777 826.021 483.361 827.115 484.673 828.531C485.986 829.948 486.986 831.667 487.673 833.688C488.382 835.688 488.736 837.927 488.736 840.406C488.736 842.906 488.382 845.156 487.673 847.156C486.986 849.156 485.986 850.865 484.673 852.281C483.361 853.698 481.777 854.792 479.923 855.563C478.069 856.313 475.986 856.688 473.673 856.688C471.34 856.688 469.236 856.313 467.361 855.563C465.507 854.792 463.923 853.698 462.611 852.281C461.298 850.865 460.288 849.156 459.58 847.156C458.892 845.156 458.548 842.906 458.548 840.406C458.548 837.927 458.892 835.688 459.58 833.688C460.288 831.667 461.298 829.948 462.611 828.531C463.923 827.115 465.507 826.021 467.361 825.25C469.236 824.479 471.34 824.094 473.673 824.094ZM473.673 852.344C476.798 852.344 479.132 851.302 480.673 849.219C482.215 847.115 482.986 844.188 482.986 840.438C482.986 836.667 482.215 833.729 480.673 831.625C479.132 829.521 476.798 828.469 473.673 828.469C472.09 828.469 470.705 828.74 469.517 829.281C468.35 829.823 467.371 830.604 466.58 831.625C465.809 832.646 465.225 833.906 464.83 835.406C464.455 836.886 464.267 838.563 464.267 840.438C464.267 844.188 465.038 847.115 466.58 849.219C468.142 851.302 470.507 852.344 473.673 852.344Z" fill="#727B85"/>
<path d="M522.135 824.594V856.25H518.822C518.031 856.25 517.531 855.865 517.322 855.094L516.885 851.688C515.51 853.208 513.968 854.438 512.26 855.375C510.551 856.292 508.593 856.75 506.385 856.75C504.656 856.75 503.124 856.469 501.791 855.906C500.479 855.323 499.374 854.511 498.478 853.469C497.583 852.427 496.906 851.167 496.447 849.688C496.01 848.208 495.791 846.573 495.791 844.781V824.594H501.353V844.781C501.353 847.177 501.895 849.031 502.979 850.344C504.083 851.656 505.76 852.313 508.01 852.313C509.656 852.313 511.187 851.927 512.604 851.156C514.041 850.365 515.364 849.281 516.572 847.906V824.594H522.135Z" fill="#727B85"/>
<path d="M540.986 856.75C538.486 856.75 536.559 856.052 535.205 854.656C533.871 853.261 533.205 851.25 533.205 848.625V829.25H529.392C529.059 829.25 528.777 829.156 528.548 828.969C528.319 828.761 528.205 828.448 528.205 828.031V825.813L533.392 825.156L534.673 815.375C534.736 815.063 534.871 814.813 535.08 814.625C535.309 814.417 535.6 814.313 535.955 814.313H538.767V825.219H547.923V829.25H538.767V848.25C538.767 849.583 539.09 850.573 539.736 851.219C540.382 851.865 541.215 852.188 542.236 852.188C542.819 852.188 543.319 852.115 543.736 851.969C544.173 851.802 544.548 851.625 544.861 851.438C545.173 851.25 545.434 851.083 545.642 850.938C545.871 850.771 546.069 850.688 546.236 850.688C546.528 850.688 546.788 850.865 547.017 851.219L548.642 853.875C547.684 854.771 546.528 855.479 545.173 856C543.819 856.5 542.423 856.75 540.986 856.75Z" fill="#727B85"/>
<path d="M587.439 842C584.877 842.083 582.689 842.292 580.877 842.625C579.085 842.938 577.617 843.354 576.471 843.875C575.346 844.396 574.523 845.011 574.002 845.719C573.502 846.427 573.252 847.219 573.252 848.094C573.252 848.927 573.387 849.646 573.658 850.25C573.929 850.854 574.294 851.354 574.752 851.75C575.231 852.125 575.783 852.406 576.408 852.594C577.054 852.761 577.742 852.844 578.471 852.844C579.45 852.844 580.346 852.75 581.158 852.563C581.971 852.354 582.731 852.063 583.439 851.688C584.169 851.313 584.856 850.865 585.502 850.344C586.169 849.823 586.814 849.229 587.439 848.563V842ZM569.471 829.063C571.221 827.375 573.106 826.115 575.127 825.281C577.148 824.448 579.387 824.031 581.846 824.031C583.617 824.031 585.189 824.323 586.564 824.906C587.939 825.49 589.096 826.302 590.033 827.344C590.971 828.386 591.679 829.646 592.158 831.125C592.637 832.604 592.877 834.229 592.877 836V856.25H590.408C589.867 856.25 589.45 856.167 589.158 856C588.867 855.813 588.637 855.458 588.471 854.938L587.846 851.938C587.012 852.708 586.2 853.396 585.408 854C584.617 854.583 583.783 855.083 582.908 855.5C582.033 855.896 581.096 856.198 580.096 856.406C579.117 856.636 578.023 856.75 576.814 856.75C575.585 856.75 574.429 856.583 573.346 856.25C572.262 855.896 571.314 855.375 570.502 854.688C569.71 854 569.075 853.136 568.596 852.094C568.137 851.031 567.908 849.781 567.908 848.344C567.908 847.094 568.252 845.896 568.939 844.75C569.627 843.583 570.742 842.552 572.283 841.656C573.825 840.761 575.835 840.031 578.314 839.469C580.794 838.886 583.835 838.552 587.439 838.469V836C587.439 833.542 586.908 831.688 585.846 830.438C584.783 829.167 583.231 828.531 581.189 828.531C579.814 828.531 578.658 828.708 577.721 829.063C576.804 829.396 576.002 829.781 575.314 830.219C574.648 830.636 574.064 831.021 573.564 831.375C573.085 831.708 572.606 831.875 572.127 831.875C571.752 831.875 571.429 831.781 571.158 831.594C570.887 831.386 570.658 831.136 570.471 830.844L569.471 829.063Z" fill="#727B85"/>
<path d="M643.998 824.594V856.25H640.685C639.893 856.25 639.393 855.865 639.185 855.094L638.748 851.688C637.373 853.208 635.831 854.438 634.123 855.375C632.414 856.292 630.456 856.75 628.248 856.75C626.518 856.75 624.987 856.469 623.654 855.906C622.341 855.323 621.237 854.511 620.341 853.469C619.445 852.427 618.768 851.167 618.31 849.688C617.873 848.208 617.654 846.573 617.654 844.781V824.594H623.216V844.781C623.216 847.177 623.758 849.031 624.841 850.344C625.945 851.656 627.623 852.313 629.873 852.313C631.518 852.313 633.05 851.927 634.466 851.156C635.904 850.365 637.227 849.281 638.435 847.906V824.594H643.998Z" fill="#727B85"/>
<path d="M671.567 829.813C671.317 830.271 670.932 830.5 670.411 830.5C670.099 830.5 669.745 830.386 669.349 830.156C668.953 829.927 668.463 829.677 667.88 829.406C667.317 829.115 666.64 828.854 665.849 828.625C665.057 828.375 664.12 828.25 663.036 828.25C662.099 828.25 661.255 828.375 660.505 828.625C659.755 828.854 659.109 829.177 658.567 829.594C658.047 830.011 657.64 830.5 657.349 831.063C657.078 831.604 656.942 832.198 656.942 832.844C656.942 833.656 657.172 834.333 657.63 834.875C658.109 835.417 658.734 835.886 659.505 836.281C660.276 836.677 661.151 837.031 662.13 837.344C663.109 837.636 664.109 837.958 665.13 838.313C666.172 838.646 667.182 839.021 668.161 839.438C669.14 839.854 670.015 840.375 670.786 841C671.557 841.625 672.172 842.396 672.63 843.313C673.109 844.208 673.349 845.292 673.349 846.563C673.349 848.021 673.088 849.375 672.567 850.625C672.047 851.854 671.276 852.927 670.255 853.844C669.234 854.74 667.984 855.448 666.505 855.969C665.026 856.49 663.317 856.75 661.38 856.75C659.172 856.75 657.172 856.396 655.38 855.688C653.588 854.958 652.067 854.031 650.817 852.906L652.13 850.781C652.297 850.511 652.494 850.302 652.724 850.156C652.953 850.011 653.244 849.938 653.599 849.938C653.974 849.938 654.37 850.083 654.786 850.375C655.203 850.667 655.703 850.99 656.286 851.344C656.89 851.698 657.619 852.021 658.474 852.313C659.328 852.604 660.39 852.75 661.661 852.75C662.744 852.75 663.692 852.615 664.505 852.344C665.317 852.052 665.994 851.667 666.536 851.188C667.078 850.708 667.474 850.156 667.724 849.531C667.995 848.906 668.13 848.24 668.13 847.531C668.13 846.656 667.89 845.938 667.411 845.375C666.953 844.792 666.338 844.302 665.567 843.906C664.797 843.49 663.911 843.136 662.911 842.844C661.932 842.531 660.922 842.208 659.88 841.875C658.859 841.542 657.849 841.167 656.849 840.75C655.87 840.313 654.994 839.771 654.224 839.125C653.453 838.479 652.828 837.688 652.349 836.75C651.89 835.792 651.661 834.636 651.661 833.281C651.661 832.073 651.911 830.917 652.411 829.813C652.911 828.688 653.64 827.708 654.599 826.875C655.557 826.021 656.734 825.344 658.13 824.844C659.526 824.344 661.119 824.094 662.911 824.094C664.994 824.094 666.859 824.427 668.505 825.094C670.172 825.74 671.609 826.636 672.817 827.781L671.567 829.813Z" fill="#727B85"/>
<path d="M701.668 836.969C701.668 835.677 701.481 834.5 701.106 833.438C700.752 832.354 700.221 831.427 699.512 830.656C698.825 829.865 697.981 829.261 696.981 828.844C695.981 828.406 694.846 828.188 693.575 828.188C690.908 828.188 688.793 828.969 687.231 830.531C685.689 832.073 684.731 834.219 684.356 836.969H701.668ZM706.168 851.813C705.481 852.646 704.658 853.375 703.7 854C702.741 854.604 701.71 855.104 700.606 855.5C699.523 855.896 698.398 856.188 697.231 856.375C696.064 856.583 694.908 856.688 693.762 856.688C691.575 856.688 689.554 856.323 687.7 855.594C685.866 854.844 684.273 853.761 682.918 852.344C681.585 850.906 680.543 849.136 679.793 847.031C679.043 844.927 678.668 842.511 678.668 839.781C678.668 837.573 679.002 835.511 679.668 833.594C680.356 831.677 681.335 830.021 682.606 828.625C683.877 827.208 685.429 826.104 687.262 825.313C689.096 824.5 691.158 824.094 693.45 824.094C695.346 824.094 697.096 824.417 698.7 825.063C700.325 825.688 701.721 826.604 702.887 827.813C704.075 829 705.002 830.479 705.668 832.25C706.335 834 706.668 836 706.668 838.25C706.668 839.125 706.575 839.708 706.387 840C706.2 840.292 705.846 840.438 705.325 840.438H684.168C684.231 842.438 684.502 844.177 684.981 845.656C685.481 847.136 686.168 848.375 687.043 849.375C687.918 850.354 688.96 851.094 690.168 851.594C691.377 852.073 692.731 852.313 694.231 852.313C695.627 852.313 696.825 852.156 697.825 851.844C698.846 851.511 699.721 851.156 700.45 850.781C701.179 850.406 701.783 850.063 702.262 849.75C702.762 849.417 703.189 849.25 703.543 849.25C704.002 849.25 704.356 849.427 704.606 849.781L706.168 851.813Z" fill="#727B85"/>
<path d="M719.095 830.938C720.095 828.771 721.324 827.083 722.782 825.875C724.241 824.646 726.022 824.031 728.126 824.031C728.793 824.031 729.428 824.104 730.032 824.25C730.657 824.396 731.209 824.625 731.689 824.938L731.282 829.094C731.157 829.615 730.845 829.875 730.345 829.875C730.053 829.875 729.626 829.813 729.063 829.688C728.501 829.563 727.866 829.5 727.157 829.5C726.157 829.5 725.261 829.646 724.47 829.938C723.699 830.229 723.001 830.667 722.376 831.25C721.772 831.813 721.22 832.521 720.72 833.375C720.241 834.208 719.803 835.167 719.407 836.25V856.25H713.814V824.594H717.001C717.605 824.594 718.022 824.708 718.251 824.938C718.48 825.167 718.636 825.563 718.72 826.125L719.095 830.938Z" fill="#727B85"/>
<path d="M753.978 856.25V829.344L750.478 828.938C750.02 828.833 749.655 828.677 749.384 828.469C749.113 828.24 748.978 827.917 748.978 827.5V825.219H753.978V823.531C753.978 821.781 754.238 820.125 754.759 818.563C755.301 816.979 756.113 815.604 757.197 814.438C758.28 813.271 759.634 812.344 761.259 811.656C762.884 810.969 764.78 810.625 766.947 810.625C768.551 810.625 770.093 810.688 771.572 810.813C773.072 810.938 774.52 811.011 775.916 811.031H779.697V856.25H774.166V814.938C773.041 814.896 771.905 814.844 770.759 814.781C769.634 814.719 768.645 814.688 767.791 814.688C765.082 814.688 762.999 815.469 761.541 817.031C760.103 818.573 759.384 820.74 759.384 823.531V825.219H767.603V829.25H759.541V856.25H753.978Z" fill="#727B85"/>
<path d="M802.375 824.094C804.687 824.094 806.77 824.479 808.625 825.25C810.479 826.021 812.062 827.115 813.375 828.531C814.687 829.948 815.687 831.667 816.375 833.688C817.083 835.688 817.437 837.927 817.437 840.406C817.437 842.906 817.083 845.156 816.375 847.156C815.687 849.156 814.687 850.865 813.375 852.281C812.062 853.698 810.479 854.792 808.625 855.563C806.77 856.313 804.687 856.688 802.375 856.688C800.041 856.688 797.937 856.313 796.062 855.563C794.208 854.792 792.625 853.698 791.312 852.281C790 850.865 788.989 849.156 788.281 847.156C787.593 845.156 787.25 842.906 787.25 840.406C787.25 837.927 787.593 835.688 788.281 833.688C788.989 831.667 790 829.948 791.312 828.531C792.625 827.115 794.208 826.021 796.062 825.25C797.937 824.479 800.041 824.094 802.375 824.094ZM802.375 852.344C805.5 852.344 807.833 851.302 809.375 849.219C810.916 847.115 811.687 844.188 811.687 840.438C811.687 836.667 810.916 833.729 809.375 831.625C807.833 829.521 805.5 828.469 802.375 828.469C800.791 828.469 799.406 828.74 798.218 829.281C797.052 829.823 796.072 830.604 795.281 831.625C794.51 832.646 793.927 833.906 793.531 835.406C793.156 836.886 792.968 838.563 792.968 840.438C792.968 844.188 793.739 847.115 795.281 849.219C796.843 851.302 799.208 852.344 802.375 852.344Z" fill="#727B85"/>
<path d="M867.973 824.594L857.723 856.25H853.316C852.775 856.25 852.4 855.896 852.191 855.188L845.191 833.719C845.025 833.24 844.889 832.761 844.785 832.281C844.681 831.781 844.577 831.292 844.473 830.813C844.368 831.292 844.264 831.781 844.16 832.281C844.056 832.761 843.921 833.25 843.754 833.75L836.629 855.188C836.441 855.896 836.025 856.25 835.379 856.25H831.191L820.941 824.594H825.316C825.754 824.594 826.118 824.708 826.41 824.938C826.723 825.167 826.931 825.438 827.035 825.75L833.098 846.125C833.452 847.625 833.733 849.042 833.941 850.375C834.129 849.688 834.316 848.99 834.504 848.281C834.712 847.573 834.931 846.854 835.16 846.125L841.848 825.625C841.952 825.313 842.129 825.052 842.379 824.844C842.65 824.636 842.973 824.531 843.348 824.531H845.785C846.202 824.531 846.546 824.636 846.816 824.844C847.087 825.052 847.275 825.313 847.379 825.625L853.91 846.125C854.139 846.854 854.348 847.573 854.535 848.281C854.723 848.99 854.9 849.688 855.066 850.375C855.171 849.688 855.296 849 855.441 848.313C855.608 847.604 855.785 846.875 855.973 846.125L862.16 825.75C862.264 825.417 862.462 825.146 862.754 824.938C863.046 824.708 863.389 824.594 863.785 824.594H867.973Z" fill="#727B85"/>
<path d="M256.286 931.25V904.344L252.786 903.938C252.349 903.833 251.984 903.677 251.692 903.469C251.422 903.24 251.286 902.917 251.286 902.5V900.219H256.286V897.156C256.286 895.344 256.536 893.74 257.036 892.344C257.557 890.927 258.286 889.74 259.224 888.781C260.182 887.802 261.328 887.063 262.661 886.563C263.994 886.063 265.494 885.813 267.161 885.813C268.578 885.813 269.88 886.021 271.067 886.438L270.942 889.219C270.901 889.719 270.619 889.99 270.099 890.031C269.599 890.073 268.922 890.094 268.067 890.094C267.109 890.094 266.234 890.219 265.442 890.469C264.672 890.719 264.005 891.125 263.442 891.688C262.88 892.25 262.442 892.99 262.13 893.906C261.838 894.823 261.692 895.958 261.692 897.313V900.219H270.817V904.25H261.88V931.25H256.286Z" fill="#727B85"/>
<path d="M281.729 905.938C282.729 903.771 283.958 902.083 285.416 900.875C286.875 899.646 288.656 899.031 290.76 899.031C291.427 899.031 292.062 899.104 292.666 899.25C293.291 899.396 293.844 899.625 294.323 899.938L293.916 904.094C293.791 904.615 293.479 904.875 292.979 904.875C292.687 904.875 292.26 904.813 291.698 904.688C291.135 904.563 290.5 904.5 289.792 904.5C288.792 904.5 287.896 904.646 287.104 904.938C286.333 905.229 285.635 905.667 285.01 906.25C284.406 906.813 283.854 907.521 283.354 908.375C282.875 909.208 282.437 910.167 282.042 911.25V931.25H276.448V899.594H279.635C280.239 899.594 280.656 899.708 280.885 899.938C281.114 900.167 281.271 900.563 281.354 901.125L281.729 905.938Z" fill="#727B85"/>
<path d="M311.588 899.094C313.901 899.094 315.984 899.479 317.838 900.25C319.693 901.021 321.276 902.115 322.588 903.531C323.901 904.948 324.901 906.667 325.588 908.688C326.297 910.688 326.651 912.927 326.651 915.406C326.651 917.906 326.297 920.156 325.588 922.156C324.901 924.156 323.901 925.865 322.588 927.281C321.276 928.698 319.693 929.792 317.838 930.563C315.984 931.313 313.901 931.688 311.588 931.688C309.255 931.688 307.151 931.313 305.276 930.563C303.422 929.792 301.838 928.698 300.526 927.281C299.213 925.865 298.203 924.156 297.495 922.156C296.807 920.156 296.463 917.906 296.463 915.406C296.463 912.927 296.807 910.688 297.495 908.688C298.203 906.667 299.213 904.948 300.526 903.531C301.838 902.115 303.422 901.021 305.276 900.25C307.151 899.479 309.255 899.094 311.588 899.094ZM311.588 927.344C314.713 927.344 317.047 926.302 318.588 924.219C320.13 922.115 320.901 919.188 320.901 915.438C320.901 911.667 320.13 908.729 318.588 906.625C317.047 904.521 314.713 903.469 311.588 903.469C310.005 903.469 308.62 903.74 307.432 904.281C306.265 904.823 305.286 905.604 304.495 906.625C303.724 907.646 303.14 908.906 302.745 910.406C302.37 911.886 302.182 913.563 302.182 915.438C302.182 919.188 302.953 922.115 304.495 924.219C306.057 926.302 308.422 927.344 311.588 927.344Z" fill="#727B85"/>
<path d="M334.019 931.25V899.594H337.362C338.154 899.594 338.644 899.979 338.831 900.75L339.237 904C340.404 902.563 341.716 901.386 343.175 900.469C344.633 899.552 346.321 899.094 348.237 899.094C350.362 899.094 352.081 899.688 353.394 900.875C354.727 902.063 355.685 903.667 356.269 905.688C356.727 904.542 357.31 903.552 358.019 902.719C358.748 901.886 359.56 901.198 360.456 900.656C361.352 900.115 362.3 899.719 363.3 899.469C364.321 899.219 365.352 899.094 366.394 899.094C368.06 899.094 369.539 899.365 370.831 899.906C372.144 900.427 373.248 901.198 374.144 902.219C375.06 903.24 375.758 904.5 376.237 906C376.716 907.479 376.956 909.177 376.956 911.094V931.25H371.362V911.094C371.362 908.615 370.821 906.74 369.737 905.469C368.654 904.177 367.091 903.531 365.05 903.531C364.133 903.531 363.258 903.698 362.425 904.031C361.612 904.344 360.894 904.813 360.269 905.438C359.644 906.063 359.144 906.854 358.769 907.813C358.414 908.75 358.237 909.844 358.237 911.094V931.25H352.644V911.094C352.644 908.552 352.133 906.656 351.112 905.406C350.091 904.156 348.602 903.531 346.644 903.531C345.269 903.531 343.998 903.906 342.831 904.656C341.664 905.386 340.591 906.386 339.612 907.656V931.25H334.019Z" fill="#727B85"/>
<path d="M411.745 931.75C409.245 931.75 407.318 931.052 405.964 929.656C404.631 928.261 403.964 926.25 403.964 923.625V904.25H400.151C399.818 904.25 399.537 904.156 399.308 903.969C399.078 903.761 398.964 903.448 398.964 903.031V900.813L404.151 900.156L405.433 890.375C405.495 890.063 405.631 889.813 405.839 889.625C406.068 889.417 406.36 889.313 406.714 889.313H409.526V900.219H418.683V904.25H409.526V923.25C409.526 924.583 409.849 925.573 410.495 926.219C411.141 926.865 411.974 927.188 412.995 927.188C413.578 927.188 414.078 927.115 414.495 926.969C414.933 926.802 415.308 926.625 415.62 926.438C415.933 926.25 416.193 926.083 416.401 925.938C416.631 925.771 416.828 925.688 416.995 925.688C417.287 925.688 417.547 925.865 417.776 926.219L419.401 928.875C418.443 929.771 417.287 930.479 415.933 931C414.578 931.5 413.183 931.75 411.745 931.75Z" fill="#727B85"/>
<path d="M430.333 903.813C431.687 902.375 433.187 901.229 434.833 900.375C436.478 899.521 438.374 899.094 440.52 899.094C442.249 899.094 443.77 899.386 445.083 899.969C446.416 900.531 447.52 901.344 448.395 902.406C449.291 903.448 449.968 904.708 450.426 906.188C450.885 907.667 451.114 909.302 451.114 911.094V931.25H445.52V911.094C445.52 908.698 444.968 906.844 443.864 905.531C442.78 904.198 441.124 903.531 438.895 903.531C437.249 903.531 435.708 903.927 434.27 904.719C432.853 905.511 431.541 906.583 430.333 907.938V931.25H424.739V885.219H430.333V903.813Z" fill="#727B85"/>
<path d="M481.09 911.969C481.09 910.677 480.902 909.5 480.527 908.438C480.173 907.354 479.642 906.427 478.934 905.656C478.246 904.865 477.402 904.261 476.402 903.844C475.402 903.406 474.267 903.188 472.996 903.188C470.329 903.188 468.215 903.969 466.652 905.531C465.111 907.073 464.152 909.219 463.777 911.969H481.09ZM485.59 926.813C484.902 927.646 484.079 928.375 483.121 929C482.163 929.604 481.131 930.104 480.027 930.5C478.944 930.896 477.819 931.188 476.652 931.375C475.486 931.583 474.329 931.688 473.184 931.688C470.996 931.688 468.975 931.323 467.121 930.594C465.288 929.844 463.694 928.761 462.34 927.344C461.007 925.906 459.965 924.136 459.215 922.031C458.465 919.927 458.09 917.511 458.09 914.781C458.09 912.573 458.423 910.511 459.09 908.594C459.777 906.677 460.756 905.021 462.027 903.625C463.298 902.208 464.85 901.104 466.684 900.313C468.517 899.5 470.579 899.094 472.871 899.094C474.767 899.094 476.517 899.417 478.121 900.063C479.746 900.688 481.142 901.604 482.309 902.813C483.496 904 484.423 905.479 485.09 907.25C485.757 909 486.09 911 486.09 913.25C486.09 914.125 485.996 914.708 485.809 915C485.621 915.292 485.267 915.438 484.746 915.438H463.59C463.652 917.438 463.923 919.177 464.402 920.656C464.902 922.136 465.59 923.375 466.465 924.375C467.34 925.354 468.382 926.094 469.59 926.594C470.798 927.073 472.152 927.313 473.652 927.313C475.048 927.313 476.246 927.156 477.246 926.844C478.267 926.511 479.142 926.156 479.871 925.781C480.6 925.406 481.204 925.063 481.684 924.75C482.184 924.417 482.611 924.25 482.965 924.25C483.423 924.25 483.777 924.427 484.027 924.781L485.59 926.813Z" fill="#727B85"/>
<path d="M515.414 899.594V931.25H509.851V899.594H515.414ZM516.601 889.656C516.601 890.198 516.486 890.708 516.257 891.188C516.049 891.646 515.757 892.063 515.382 892.438C515.028 892.792 514.601 893.073 514.101 893.281C513.622 893.49 513.112 893.594 512.57 893.594C512.028 893.594 511.518 893.49 511.039 893.281C510.58 893.073 510.174 892.792 509.82 892.438C509.466 892.063 509.184 891.646 508.976 891.188C508.768 890.708 508.664 890.198 508.664 889.656C508.664 889.115 508.768 888.604 508.976 888.125C509.184 887.625 509.466 887.198 509.82 886.844C510.174 886.469 510.58 886.177 511.039 885.969C511.518 885.761 512.028 885.656 512.57 885.656C513.112 885.656 513.622 885.761 514.101 885.969C514.601 886.177 515.028 886.469 515.382 886.844C515.757 887.198 516.049 887.625 516.257 888.125C516.486 888.604 516.601 889.115 516.601 889.656Z" fill="#727B85"/>
<path d="M530.116 904.188C530.803 903.417 531.532 902.719 532.303 902.094C533.074 901.469 533.887 900.938 534.741 900.5C535.616 900.042 536.532 899.698 537.491 899.469C538.47 899.219 539.522 899.094 540.647 899.094C542.376 899.094 543.897 899.386 545.209 899.969C546.543 900.531 547.647 901.344 548.522 902.406C549.418 903.448 550.095 904.708 550.553 906.188C551.012 907.667 551.241 909.302 551.241 911.094V931.25H545.647V911.094C545.647 908.698 545.095 906.844 543.991 905.531C542.907 904.198 541.251 903.531 539.022 903.531C537.376 903.531 535.834 903.927 534.397 904.719C532.98 905.511 531.668 906.583 530.459 907.938V931.25H524.866V899.594H528.209C529.001 899.594 529.491 899.979 529.678 900.75L530.116 904.188Z" fill="#727B85"/>
<path d="M569.321 931.75C566.821 931.75 564.894 931.052 563.54 929.656C562.206 928.261 561.54 926.25 561.54 923.625V904.25H557.727C557.394 904.25 557.112 904.156 556.883 903.969C556.654 903.761 556.54 903.448 556.54 903.031V900.813L561.727 900.156L563.008 890.375C563.071 890.063 563.206 889.813 563.415 889.625C563.644 889.417 563.935 889.313 564.29 889.313H567.102V900.219H576.258V904.25H567.102V923.25C567.102 924.583 567.425 925.573 568.071 926.219C568.717 926.865 569.55 927.188 570.571 927.188C571.154 927.188 571.654 927.115 572.071 926.969C572.508 926.802 572.883 926.625 573.196 926.438C573.508 926.25 573.769 926.083 573.977 925.938C574.206 925.771 574.404 925.688 574.571 925.688C574.862 925.688 575.123 925.865 575.352 926.219L576.977 928.875C576.019 929.771 574.862 930.479 573.508 931C572.154 931.5 570.758 931.75 569.321 931.75Z" fill="#727B85"/>
<path d="M603.319 911.969C603.319 910.677 603.131 909.5 602.756 908.438C602.402 907.354 601.871 906.427 601.163 905.656C600.475 904.865 599.631 904.261 598.631 903.844C597.631 903.406 596.496 903.188 595.225 903.188C592.558 903.188 590.444 903.969 588.881 905.531C587.34 907.073 586.381 909.219 586.006 911.969H603.319ZM607.819 926.813C607.131 927.646 606.308 928.375 605.35 929C604.392 929.604 603.361 930.104 602.256 930.5C601.173 930.896 600.048 931.188 598.881 931.375C597.715 931.583 596.558 931.688 595.413 931.688C593.225 931.688 591.204 931.323 589.35 930.594C587.517 929.844 585.923 928.761 584.569 927.344C583.236 925.906 582.194 924.136 581.444 922.031C580.694 919.927 580.319 917.511 580.319 914.781C580.319 912.573 580.652 910.511 581.319 908.594C582.006 906.677 582.986 905.021 584.256 903.625C585.527 902.208 587.079 901.104 588.913 900.313C590.746 899.5 592.808 899.094 595.1 899.094C596.996 899.094 598.746 899.417 600.35 900.063C601.975 900.688 603.371 901.604 604.538 902.813C605.725 904 606.652 905.479 607.319 907.25C607.986 909 608.319 911 608.319 913.25C608.319 914.125 608.225 914.708 608.038 915C607.85 915.292 607.496 915.438 606.975 915.438H585.819C585.881 917.438 586.152 919.177 586.631 920.656C587.131 922.136 587.819 923.375 588.694 924.375C589.569 925.354 590.611 926.094 591.819 926.594C593.027 927.073 594.381 927.313 595.881 927.313C597.277 927.313 598.475 927.156 599.475 926.844C600.496 926.511 601.371 926.156 602.1 925.781C602.829 925.406 603.433 925.063 603.913 924.75C604.413 924.417 604.84 924.25 605.194 924.25C605.652 924.25 606.006 924.427 606.256 924.781L607.819 926.813Z" fill="#727B85"/>
<path d="M620.745 905.938C621.745 903.771 622.974 902.083 624.433 900.875C625.891 899.646 627.672 899.031 629.776 899.031C630.443 899.031 631.079 899.104 631.683 899.25C632.308 899.396 632.86 899.625 633.339 899.938L632.933 904.094C632.808 904.615 632.495 904.875 631.995 904.875C631.703 904.875 631.276 904.813 630.714 904.688C630.151 904.563 629.516 904.5 628.808 904.5C627.808 904.5 626.912 904.646 626.12 904.938C625.349 905.229 624.651 905.667 624.026 906.25C623.422 906.813 622.87 907.521 622.37 908.375C621.891 909.208 621.453 910.167 621.058 911.25V931.25H615.464V899.594H618.651C619.256 899.594 619.672 899.708 619.901 899.938C620.131 900.167 620.287 900.563 620.37 901.125L620.745 905.938Z" fill="#727B85"/>
<path d="M640.605 931.25V904.344L637.105 903.938C636.667 903.833 636.303 903.677 636.011 903.469C635.74 903.24 635.605 902.917 635.605 902.5V900.219H640.605V897.156C640.605 895.344 640.855 893.74 641.355 892.344C641.876 890.927 642.605 889.74 643.542 888.781C644.501 887.802 645.647 887.063 646.98 886.563C648.313 886.063 649.813 885.813 651.48 885.813C652.897 885.813 654.199 886.021 655.386 886.438L655.261 889.219C655.22 889.719 654.938 889.99 654.418 890.031C653.918 890.073 653.24 890.094 652.386 890.094C651.428 890.094 650.553 890.219 649.761 890.469C648.99 890.719 648.324 891.125 647.761 891.688C647.199 892.25 646.761 892.99 646.449 893.906C646.157 894.823 646.011 895.958 646.011 897.313V900.219H655.136V904.25H646.199V931.25H640.605Z" fill="#727B85"/>
<path d="M677.74 917C675.177 917.083 672.99 917.292 671.177 917.625C669.386 917.938 667.917 918.354 666.771 918.875C665.646 919.396 664.823 920.011 664.302 920.719C663.802 921.427 663.552 922.219 663.552 923.094C663.552 923.927 663.688 924.646 663.959 925.25C664.229 925.854 664.594 926.354 665.052 926.75C665.531 927.125 666.083 927.406 666.708 927.594C667.354 927.761 668.042 927.844 668.771 927.844C669.75 927.844 670.646 927.75 671.458 927.563C672.271 927.354 673.031 927.063 673.74 926.688C674.469 926.313 675.156 925.865 675.802 925.344C676.469 924.823 677.115 924.229 677.74 923.563V917ZM659.771 904.063C661.521 902.375 663.406 901.115 665.427 900.281C667.448 899.448 669.688 899.031 672.146 899.031C673.917 899.031 675.49 899.323 676.865 899.906C678.24 900.49 679.396 901.302 680.333 902.344C681.271 903.386 681.979 904.646 682.459 906.125C682.938 907.604 683.177 909.229 683.177 911V931.25H680.709C680.167 931.25 679.75 931.167 679.458 931C679.167 930.813 678.938 930.458 678.771 929.938L678.146 926.938C677.313 927.708 676.5 928.396 675.708 929C674.917 929.583 674.083 930.083 673.208 930.5C672.333 930.896 671.396 931.198 670.396 931.406C669.417 931.636 668.323 931.75 667.115 931.75C665.886 931.75 664.729 931.583 663.646 931.25C662.563 930.896 661.615 930.375 660.802 929.688C660.011 929 659.375 928.136 658.896 927.094C658.438 926.031 658.208 924.781 658.208 923.344C658.208 922.094 658.552 920.896 659.24 919.75C659.927 918.583 661.042 917.552 662.584 916.656C664.125 915.761 666.136 915.031 668.615 914.469C671.094 913.886 674.136 913.552 677.74 913.469V911C677.74 908.542 677.208 906.688 676.146 905.438C675.083 904.167 673.531 903.531 671.49 903.531C670.115 903.531 668.958 903.708 668.021 904.063C667.104 904.396 666.302 904.781 665.615 905.219C664.948 905.636 664.365 906.021 663.865 906.375C663.386 906.708 662.906 906.875 662.427 906.875C662.052 906.875 661.729 906.781 661.459 906.594C661.188 906.386 660.958 906.136 660.771 905.844L659.771 904.063Z" fill="#727B85"/>
<path d="M713.994 905.219C713.828 905.448 713.661 905.625 713.494 905.75C713.328 905.875 713.098 905.938 712.807 905.938C712.494 905.938 712.15 905.813 711.775 905.563C711.4 905.292 710.932 905 710.369 904.688C709.828 904.375 709.15 904.094 708.338 903.844C707.546 903.573 706.567 903.438 705.4 903.438C703.838 903.438 702.463 903.719 701.275 904.281C700.088 904.823 699.088 905.615 698.275 906.656C697.484 907.698 696.88 908.958 696.463 910.438C696.067 911.917 695.869 913.573 695.869 915.406C695.869 917.323 696.088 919.031 696.525 920.531C696.963 922.011 697.578 923.261 698.369 924.281C699.182 925.281 700.15 926.052 701.275 926.594C702.421 927.115 703.702 927.375 705.119 927.375C706.473 927.375 707.588 927.219 708.463 926.906C709.338 926.573 710.057 926.208 710.619 925.813C711.203 925.417 711.682 925.063 712.057 924.75C712.452 924.417 712.838 924.25 713.213 924.25C713.671 924.25 714.025 924.427 714.275 924.781L715.838 926.813C715.15 927.667 714.369 928.396 713.494 929C712.619 929.604 711.671 930.115 710.65 930.531C709.65 930.927 708.598 931.219 707.494 931.406C706.39 931.594 705.265 931.688 704.119 931.688C702.14 931.688 700.296 931.323 698.588 930.594C696.9 929.865 695.432 928.813 694.182 927.438C692.932 926.042 691.952 924.333 691.244 922.313C690.536 920.292 690.182 917.99 690.182 915.406C690.182 913.052 690.505 910.875 691.15 908.875C691.817 906.875 692.775 905.156 694.025 903.719C695.296 902.261 696.848 901.125 698.682 900.313C700.536 899.5 702.661 899.094 705.057 899.094C707.286 899.094 709.244 899.458 710.932 900.188C712.64 900.896 714.15 901.906 715.463 903.219L713.994 905.219Z" fill="#727B85"/>
<path d="M742.76 911.969C742.76 910.677 742.572 909.5 742.197 908.438C741.843 907.354 741.312 906.427 740.604 905.656C739.916 904.865 739.072 904.261 738.072 903.844C737.072 903.406 735.937 903.188 734.666 903.188C731.999 903.188 729.885 903.969 728.322 905.531C726.781 907.073 725.822 909.219 725.447 911.969H742.76ZM747.26 926.813C746.572 927.646 745.749 928.375 744.791 929C743.833 929.604 742.801 930.104 741.697 930.5C740.614 930.896 739.489 931.188 738.322 931.375C737.156 931.583 735.999 931.688 734.854 931.688C732.666 931.688 730.645 931.323 728.791 930.594C726.958 929.844 725.364 928.761 724.01 927.344C722.676 925.906 721.635 924.136 720.885 922.031C720.135 919.927 719.76 917.511 719.76 914.781C719.76 912.573 720.093 910.511 720.76 908.594C721.447 906.677 722.426 905.021 723.697 903.625C724.968 902.208 726.52 901.104 728.354 900.313C730.187 899.5 732.249 899.094 734.541 899.094C736.437 899.094 738.187 899.417 739.791 900.063C741.416 900.688 742.812 901.604 743.979 902.813C745.166 904 746.093 905.479 746.76 907.25C747.426 909 747.76 911 747.76 913.25C747.76 914.125 747.666 914.708 747.479 915C747.291 915.292 746.937 915.438 746.416 915.438H725.26C725.322 917.438 725.593 919.177 726.072 920.656C726.572 922.136 727.26 923.375 728.135 924.375C729.01 925.354 730.051 926.094 731.26 926.594C732.468 927.073 733.822 927.313 735.322 927.313C736.718 927.313 737.916 927.156 738.916 926.844C739.937 926.511 740.812 926.156 741.541 925.781C742.27 925.406 742.874 925.063 743.354 924.75C743.854 924.417 744.281 924.25 744.635 924.25C745.093 924.25 745.447 924.427 745.697 924.781L747.26 926.813Z" fill="#727B85"/>
</svg>
