<?xml version="1.0" encoding="utf-8"?>
<!-- Generator: Adobe Illustrator 16.0.0, SVG Export Plug-In . SVG Version: 6.00 Build 0)  -->
<!DOCTYPE svg PUBLIC "-//W3C//DTD SVG 1.1//EN" "http://www.w3.org/Graphics/SVG/1.1/DTD/svg11.dtd">
<svg version="1.1" id="Layer_1" xmlns="http://www.w3.org/2000/svg" xmlns:xlink="http://www.w3.org/1999/xlink" x="0px" y="0px"
	 width="687.984px" height="298.729px" viewBox="0 0 687.984 298.729" enable-background="new 0 0 687.984 298.729"
	 xml:space="preserve">
<g>
	<path fill="#CC2127" d="M95.46,159.729c0.21-4.789,0.21-9.57,0-14.32c-1.01-22.73-6.82-44.8-16.84-64.84
		c-9.33-18.65-22.29-35.54-38.43-49.55C54.34,17.67,69.65,7.65,87.54,0.03c27.13,27.19,46.27,60.87,55.92,97.38
		c4.71,17.85,7.16,36.38,7.16,55.16C131.85,152.569,113.32,155.01,95.46,159.729z"/>
	<path fill="#CC2127" d="M143.46,207.729c-8.96,33.92-26.05,65.141-49.78,90.98c-18.19-6.891-33.9-16.27-48.59-29.03
		c14.05-13.239,24.9-27.84,33.53-45.11C98.68,214.54,120.75,208.739,143.46,207.729z"/>
	<path fill="#3F2F85" d="M298.73,211.35c-7.57,17.75-17.52,32.96-30.73,47.03c-13.31-14.18-27.98-25.109-45.37-33.811h-0.01
		c-10.03-20.06-15.83-42.129-16.84-64.84C240.58,168.92,272.53,186.67,298.73,211.35z"/>
	<path fill="#3F2F85" d="M157.78,207.729c-4.79-0.209-9.57-0.209-14.32,0c-22.71,1.01-44.78,6.811-64.84,16.84
		c-16.8,8.4-32.18,19.76-45.33,33.76C20.08,244.26,10.14,229.04,2.57,211.29c26.4-24.85,58.4-42.45,92.89-51.561
		c17.86-4.72,36.39-7.16,55.16-7.16C150.62,171.34,153.06,189.87,157.78,207.729z"/>
	<path fill="#2BAA4A" d="M261.1,30.98c-16.41,14.23-28.77,30.17-38.48,49.59c-20.04,10.02-42.11,15.83-64.84,16.84
		c9.73-36.84,29.03-70.44,55.94-97.41C231.62,7.62,246.94,17.64,261.1,30.98z"/>
	<path fill="#2BAA4A" d="M256.19,269.72c-14.69,12.75-30.41,22.141-48.61,29.01c-23.93-26.039-40.91-57.33-49.8-91
		c-4.72-17.859-7.16-36.39-7.16-55.16c18.77,0,37.3-2.439,55.16-7.16c-0.21,4.79-0.21,9.57,0,14.32
		c1.01,22.711,6.81,44.78,16.84,64.84h0.01C230.98,241.29,242.28,256.61,256.19,269.72z"/>
	<path fill="#F6AC1B" d="M95.46,145.41c-35.94-9.5-68.82-28.1-95.46-54.02c6.92-18.37,16.38-34.21,29.27-49.01
		c14.19,16.26,30.05,28.54,49.35,38.19C88.64,100.61,94.45,122.68,95.46,145.41z"/>
	<path fill="#F6AC1B" d="M301.31,91.33c-26.88,26.17-59.86,44.66-95.53,54.08c-17.86,4.72-36.39,7.16-55.16,7.16
		c0-18.779-2.45-37.31-7.16-55.16c4.79,0.21,9.57,0.21,14.32,0c22.73-1.01,44.8-6.82,64.84-16.84c18.57-9.29,35.4-22.19,49.39-38.24
		C284.91,57.12,294.38,72.96,301.31,91.33z"/>
	<g>
		<path fill="#313131" d="M368.121,98.41h-6.973V55.686h6.973V98.41z"/>
		<path fill="#313131" d="M382.599,72.152c0.653-0.672,1.33-1.281,2.033-1.825c0.701-0.544,1.449-1.014,2.24-1.41
			c0.791-0.395,1.631-0.702,2.521-0.919s1.859-0.327,2.908-0.327c1.661,0,3.119,0.277,4.375,0.831s2.314,1.335,3.176,2.344
			c0.859,1.009,1.508,2.221,1.943,3.635c0.435,1.414,0.652,2.972,0.652,4.673V98.41h-6.35V79.154c0-2.037-0.47-3.62-1.409-4.747
			s-2.368-1.691-4.287-1.691c-1.425,0-2.745,0.327-3.961,0.979c-1.216,0.653-2.358,1.543-3.427,2.67V98.41h-6.379V68.147h3.857
			c0.869,0,1.424,0.405,1.661,1.216L382.599,72.152z"/>
		<path fill="#313131" d="M419.212,98.884c-2.513,0-4.446-0.707-5.801-2.121c-1.355-1.414-2.033-3.407-2.033-5.979V73.161h-3.322
			c-0.356,0-0.663-0.114-0.92-0.341c-0.258-0.227-0.386-0.568-0.386-1.024v-2.581l4.896-0.712l1.395-8.752
			c0.099-0.336,0.268-0.608,0.504-0.816c0.238-0.208,0.554-0.312,0.949-0.312h3.264v9.939h8.396v4.599h-8.396v17.178
			c0,1.088,0.268,1.919,0.802,2.493s1.246,0.86,2.136,0.86c0.494,0,0.92-0.064,1.275-0.193c0.357-0.128,0.663-0.267,0.92-0.416
			c0.258-0.148,0.48-0.287,0.668-0.416c0.188-0.128,0.371-0.193,0.549-0.193c0.356,0,0.643,0.198,0.861,0.594l1.898,3.115
			c-0.99,0.871-2.156,1.538-3.502,2.002C422.02,98.652,420.636,98.884,419.212,98.884z"/>
		<path fill="#313131" d="M435.619,83.783c0.079,1.721,0.346,3.209,0.802,4.465c0.454,1.256,1.063,2.299,1.825,3.13
			c0.761,0.831,1.67,1.449,2.729,1.854c1.059,0.406,2.24,0.608,3.546,0.608c1.246,0,2.323-0.143,3.233-0.43
			c0.91-0.286,1.701-0.603,2.374-0.949c0.673-0.346,1.246-0.663,1.721-0.949c0.476-0.287,0.909-0.43,1.306-0.43
			c0.514,0,0.91,0.198,1.188,0.593l1.809,2.344c-0.752,0.89-1.602,1.642-2.551,2.255c-0.949,0.613-1.959,1.113-3.026,1.499
			c-1.068,0.386-2.166,0.662-3.294,0.831c-1.127,0.168-2.225,0.252-3.293,0.252c-2.097,0-4.04-0.351-5.83-1.053
			c-1.79-0.702-3.343-1.735-4.658-3.1s-2.344-3.056-3.086-5.074c-0.741-2.018-1.112-4.341-1.112-6.972
			c0-2.097,0.331-4.055,0.994-5.875s1.612-3.402,2.849-4.747c1.235-1.345,2.738-2.408,4.51-3.189
			c1.77-0.781,3.772-1.172,6.008-1.172c1.859,0,3.58,0.302,5.162,0.905s2.947,1.488,4.095,2.655
			c1.147,1.167,2.042,2.596,2.685,4.287c0.643,1.691,0.965,3.615,0.965,5.771c0,0.989-0.109,1.651-0.326,1.988
			c-0.219,0.336-0.613,0.504-1.188,0.504H435.619z M450.839,79.866c0-1.068-0.153-2.062-0.459-2.982
			c-0.308-0.919-0.758-1.721-1.351-2.403c-0.593-0.683-1.331-1.217-2.21-1.603c-0.881-0.386-1.895-0.579-3.041-0.579
			c-2.314,0-4.135,0.663-5.46,1.988s-2.165,3.185-2.521,5.578H450.839z"/>
		<path fill="#313131" d="M468.522,73.754c0.949-1.918,2.097-3.427,3.441-4.525c1.345-1.098,2.957-1.646,4.837-1.646
			c0.652,0,1.266,0.074,1.839,0.223s1.087,0.371,1.543,0.667l-0.445,4.807c-0.079,0.336-0.202,0.569-0.37,0.697
			c-0.169,0.128-0.392,0.192-0.668,0.192c-0.297,0-0.723-0.054-1.275-0.163c-0.555-0.108-1.139-0.163-1.751-0.163
			c-0.89,0-1.677,0.129-2.358,0.386c-0.683,0.257-1.296,0.633-1.84,1.127c-0.545,0.495-1.023,1.098-1.439,1.81
			c-0.415,0.712-0.801,1.523-1.156,2.433V98.41H462.5V68.147h3.708c0.673,0,1.138,0.124,1.395,0.371
			c0.257,0.248,0.435,0.678,0.534,1.291L468.522,73.754z"/>
		<path fill="#313131" d="M490.358,72.152c0.653-0.672,1.33-1.281,2.032-1.825s1.449-1.014,2.24-1.41
			c0.791-0.395,1.632-0.702,2.521-0.919c0.891-0.218,1.859-0.327,2.908-0.327c1.662,0,3.12,0.277,4.376,0.831
			s2.314,1.335,3.175,2.344s1.508,2.221,1.943,3.635s0.652,2.972,0.652,4.673V98.41h-6.349V79.154c0-2.037-0.47-3.62-1.409-4.747
			s-2.369-1.691-4.287-1.691c-1.425,0-2.745,0.327-3.961,0.979c-1.217,0.653-2.359,1.543-3.428,2.67V98.41h-6.379V68.147h3.857
			c0.87,0,1.424,0.405,1.662,1.216L490.358,72.152z"/>
		<path fill="#313131" d="M516.941,72.36c3.422-3.185,7.496-4.777,12.225-4.777c1.74,0,3.288,0.282,4.643,0.846
			c1.355,0.563,2.492,1.36,3.412,2.388c0.92,1.029,1.622,2.25,2.107,3.665c0.484,1.414,0.727,2.981,0.727,4.702V98.41h-2.849
			c-0.613,0-1.078-0.094-1.395-0.282s-0.583-0.568-0.801-1.143l-0.623-2.462c-0.771,0.692-1.533,1.311-2.284,1.854
			c-0.752,0.544-1.528,1.004-2.33,1.379c-0.801,0.376-1.661,0.657-2.58,0.846c-0.92,0.188-1.934,0.282-3.042,0.282
			c-1.227,0-2.368-0.168-3.427-0.504c-1.059-0.336-1.973-0.846-2.744-1.528c-0.771-0.683-1.38-1.528-1.824-2.537
			c-0.445-1.009-0.668-2.196-0.668-3.561c0-1.167,0.312-2.304,0.935-3.412c0.623-1.107,1.651-2.101,3.085-2.981
			c1.434-0.88,3.323-1.607,5.668-2.181c2.344-0.574,5.236-0.9,8.678-0.979v-2.018c0-2.175-0.465-3.797-1.395-4.866
			c-0.93-1.068-2.295-1.602-4.094-1.602c-1.227,0-2.256,0.153-3.086,0.46c-0.831,0.307-1.553,0.638-2.166,0.994
			c-0.613,0.356-1.157,0.688-1.632,0.994c-0.476,0.307-0.979,0.46-1.513,0.46c-0.436,0-0.807-0.114-1.113-0.341
			c-0.307-0.227-0.559-0.509-0.756-0.846L516.941,72.36z M533.853,85.177c-2.275,0.079-4.193,0.262-5.756,0.549
			s-2.829,0.653-3.798,1.098c-0.97,0.445-1.667,0.975-2.092,1.587c-0.425,0.613-0.638,1.286-0.638,2.018
			c0,0.712,0.113,1.32,0.342,1.825c0.227,0.504,0.543,0.919,0.949,1.246c0.404,0.326,0.879,0.563,1.424,0.712
			c0.543,0.148,1.143,0.223,1.795,0.223c1.662,0,3.09-0.312,4.287-0.935s2.359-1.528,3.486-2.715V85.177z"/>
		<path fill="#313131" d="M576.458,98.41h-6.379V73.161h-14.746v17.178c0,1.088,0.268,1.919,0.801,2.493
			c0.534,0.574,1.246,0.86,2.137,0.86c0.494,0,0.92-0.064,1.275-0.193c0.356-0.128,0.662-0.267,0.92-0.416
			c0.257-0.148,0.479-0.287,0.668-0.416c0.188-0.128,0.371-0.193,0.549-0.193c0.355,0,0.643,0.198,0.86,0.594l1.898,3.115
			c-0.989,0.871-2.155,1.538-3.501,2.002c-1.346,0.465-2.729,0.697-4.153,0.697c-2.513,0-4.446-0.707-5.801-2.121
			s-2.032-3.407-2.032-5.979V73.161h-3.322c-0.357,0-0.664-0.114-0.92-0.341c-0.258-0.227-0.387-0.568-0.387-1.024v-2.581
			l4.896-0.712l1.395-8.752c0.098-0.336,0.267-0.608,0.504-0.816c0.237-0.208,0.553-0.312,0.949-0.312h3.264v9.939h21.125V98.41z
			 M577.763,58.86c0,0.574-0.113,1.112-0.341,1.617s-0.539,0.95-0.935,1.335c-0.396,0.386-0.855,0.692-1.379,0.919
			c-0.525,0.228-1.074,0.341-1.647,0.341s-1.112-0.114-1.616-0.341c-0.505-0.227-0.95-0.534-1.336-0.919
			c-0.385-0.386-0.692-0.831-0.92-1.335c-0.227-0.504-0.341-1.043-0.341-1.617c0-0.594,0.114-1.152,0.341-1.676
			c0.228-0.524,0.535-0.979,0.92-1.365c0.386-0.385,0.831-0.692,1.336-0.919c0.504-0.227,1.043-0.341,1.616-0.341
			s1.122,0.114,1.647,0.341c0.523,0.228,0.982,0.534,1.379,0.919c0.396,0.386,0.707,0.841,0.935,1.365S577.763,58.267,577.763,58.86
			z"/>
		<path fill="#313131" d="M597.583,67.672c2.235,0,4.257,0.366,6.067,1.098c1.81,0.732,3.353,1.77,4.629,3.115
			c1.275,1.345,2.259,2.977,2.951,4.896s1.039,4.075,1.039,6.468c0,2.394-0.347,4.55-1.039,6.468
			c-0.692,1.919-1.676,3.556-2.951,4.911c-1.276,1.355-2.819,2.398-4.629,3.13c-1.811,0.731-3.832,1.098-6.067,1.098
			c-2.255,0-4.288-0.366-6.097-1.098c-1.811-0.731-3.358-1.775-4.645-3.13c-1.285-1.355-2.274-2.992-2.967-4.911
			c-0.691-1.918-1.038-4.074-1.038-6.468c0-2.393,0.347-4.549,1.038-6.468c0.692-1.918,1.682-3.55,2.967-4.896
			c1.286-1.345,2.834-2.383,4.645-3.115C593.294,68.038,595.328,67.672,597.583,67.672z M597.583,93.87
			c2.729,0,4.762-0.915,6.097-2.744c1.336-1.83,2.003-4.445,2.003-7.848c0-3.402-0.667-6.028-2.003-7.877
			c-1.335-1.849-3.367-2.774-6.097-2.774c-2.77,0-4.827,0.925-6.171,2.774c-1.346,1.85-2.018,4.476-2.018,7.877
			c0,3.402,0.672,6.018,2.018,7.848C592.755,92.956,594.813,93.87,597.583,93.87z"/>
		<path fill="#313131" d="M624.344,72.152c0.653-0.672,1.33-1.281,2.032-1.825s1.449-1.014,2.24-1.41
			c0.791-0.395,1.632-0.702,2.521-0.919c0.891-0.218,1.859-0.327,2.908-0.327c1.662,0,3.12,0.277,4.376,0.831
			s2.314,1.335,3.175,2.344s1.508,2.221,1.943,3.635s0.652,2.972,0.652,4.673V98.41h-6.349V79.154c0-2.037-0.47-3.62-1.409-4.747
			s-2.369-1.691-4.287-1.691c-1.425,0-2.745,0.327-3.961,0.979c-1.217,0.653-2.359,1.543-3.428,2.67V98.41h-6.379V68.147h3.857
			c0.87,0,1.424,0.405,1.662,1.216L624.344,72.152z"/>
		<path fill="#313131" d="M650.927,72.36c3.422-3.185,7.496-4.777,12.225-4.777c1.74,0,3.288,0.282,4.643,0.846
			c1.355,0.563,2.492,1.36,3.412,2.388c0.92,1.029,1.622,2.25,2.107,3.665c0.484,1.414,0.727,2.981,0.727,4.702V98.41h-2.849
			c-0.613,0-1.078-0.094-1.395-0.282s-0.583-0.568-0.801-1.143l-0.623-2.462c-0.771,0.692-1.533,1.311-2.284,1.854
			c-0.752,0.544-1.528,1.004-2.33,1.379c-0.801,0.376-1.661,0.657-2.58,0.846c-0.92,0.188-1.934,0.282-3.042,0.282
			c-1.227,0-2.368-0.168-3.427-0.504c-1.059-0.336-1.973-0.846-2.744-1.528c-0.771-0.683-1.38-1.528-1.824-2.537
			c-0.445-1.009-0.668-2.196-0.668-3.561c0-1.167,0.312-2.304,0.935-3.412c0.623-1.107,1.651-2.101,3.085-2.981
			c1.434-0.88,3.323-1.607,5.668-2.181c2.344-0.574,5.236-0.9,8.678-0.979v-2.018c0-2.175-0.465-3.797-1.395-4.866
			c-0.93-1.068-2.295-1.602-4.094-1.602c-1.227,0-2.256,0.153-3.086,0.46c-0.831,0.307-1.553,0.638-2.166,0.994
			c-0.613,0.356-1.157,0.688-1.632,0.994c-0.476,0.307-0.979,0.46-1.513,0.46c-0.436,0-0.807-0.114-1.113-0.341
			c-0.307-0.227-0.559-0.509-0.756-0.846L650.927,72.36z M667.839,85.177c-2.275,0.079-4.193,0.262-5.756,0.549
			s-2.829,0.653-3.798,1.098c-0.97,0.445-1.667,0.975-2.092,1.587c-0.425,0.613-0.638,1.286-0.638,2.018
			c0,0.712,0.113,1.32,0.342,1.825c0.227,0.504,0.543,0.919,0.949,1.246c0.404,0.326,0.879,0.563,1.424,0.712
			c0.543,0.148,1.143,0.223,1.795,0.223c1.662,0,3.09-0.312,4.287-0.935s2.359-1.528,3.486-2.715V85.177z"/>
		<path fill="#313131" d="M687.984,54.499V98.41h-6.379V54.499H687.984z"/>
		<path fill="#313131" d="M383.49,134.191c-0.219,0.356-0.445,0.618-0.683,0.786c-0.237,0.168-0.534,0.252-0.89,0.252
			c-0.377,0-0.797-0.158-1.262-0.475c-0.465-0.316-1.038-0.667-1.721-1.053s-1.488-0.742-2.418-1.068
			c-0.93-0.327-2.037-0.49-3.323-0.49c-1.187,0-2.229,0.148-3.13,0.445c-0.9,0.296-1.656,0.712-2.27,1.246
			c-0.613,0.534-1.073,1.162-1.38,1.884c-0.307,0.722-0.46,1.509-0.46,2.359c0,1.088,0.287,1.993,0.86,2.715
			c0.573,0.722,1.33,1.34,2.271,1.854c0.938,0.515,2.012,0.964,3.219,1.35c1.206,0.386,2.438,0.796,3.693,1.231
			s2.487,0.93,3.693,1.483c1.207,0.554,2.28,1.256,3.22,2.106c0.939,0.851,1.696,1.889,2.271,3.115
			c0.572,1.227,0.859,2.72,0.859,4.479c0,1.899-0.326,3.68-0.979,5.342c-0.652,1.66-1.598,3.109-2.834,4.346
			s-2.759,2.211-4.568,2.923c-1.811,0.712-3.872,1.067-6.187,1.067c-1.364,0-2.695-0.133-3.991-0.4
			c-1.295-0.267-2.531-0.643-3.708-1.127c-1.177-0.484-2.28-1.072-3.308-1.766c-1.029-0.691-1.948-1.463-2.759-2.314l2.018-3.322
			c0.178-0.277,0.405-0.494,0.682-0.652s0.583-0.238,0.92-0.238c0.455,0,0.959,0.213,1.513,0.639
			c0.554,0.426,1.221,0.89,2.003,1.395c0.781,0.504,1.726,0.969,2.833,1.395c1.107,0.425,2.434,0.637,3.977,0.637
			c2.512,0,4.455-0.612,5.83-1.839c1.374-1.226,2.062-2.917,2.062-5.073c0-1.207-0.287-2.191-0.86-2.953
			c-0.574-0.761-1.33-1.398-2.27-1.913s-2.014-0.949-3.22-1.306c-1.206-0.355-2.433-0.736-3.679-1.142
			c-1.246-0.405-2.473-0.88-3.679-1.424s-2.28-1.256-3.219-2.136c-0.939-0.88-1.696-1.968-2.27-3.264
			c-0.574-1.295-0.86-2.913-0.86-4.851c0-1.543,0.301-3.036,0.905-4.48c0.603-1.444,1.483-2.725,2.641-3.842
			c1.157-1.117,2.586-2.013,4.288-2.685c1.701-0.672,3.639-1.009,5.814-1.009c2.453,0,4.703,0.386,6.75,1.157
			c2.047,0.771,3.812,1.869,5.297,3.293L383.49,134.191z"/>
		<path fill="#313131" d="M400.698,170.091c-2.513,0-4.446-0.707-5.801-2.121s-2.032-3.406-2.032-5.979v-17.623h-3.322
			c-0.357,0-0.664-0.114-0.92-0.341c-0.258-0.227-0.387-0.568-0.387-1.024v-2.581l4.896-0.712l1.395-8.752
			c0.098-0.336,0.267-0.608,0.504-0.816c0.237-0.208,0.553-0.312,0.949-0.312h3.264v9.939h8.396v4.599h-8.396v17.178
			c0,1.089,0.268,1.92,0.801,2.493c0.534,0.573,1.246,0.86,2.137,0.86c0.494,0,0.92-0.064,1.275-0.193
			c0.356-0.128,0.662-0.267,0.92-0.415c0.257-0.148,0.479-0.286,0.668-0.415c0.188-0.129,0.371-0.193,0.549-0.193
			c0.355,0,0.643,0.198,0.86,0.594l1.898,3.115c-0.989,0.871-2.155,1.538-3.501,2.002
			C403.505,169.858,402.122,170.091,400.698,170.091z"/>
		<path fill="#313131" d="M438.199,139.354v30.262h-3.856c-0.851,0-1.395-0.404-1.632-1.216l-0.475-2.819
			c-0.633,0.674-1.301,1.287-2.003,1.84c-0.702,0.555-1.449,1.029-2.239,1.424c-0.792,0.396-1.638,0.703-2.537,0.92
			c-0.9,0.218-1.865,0.326-2.893,0.326c-1.662,0-3.126-0.277-4.392-0.83c-1.267-0.554-2.329-1.336-3.189-2.344
			c-0.86-1.009-1.509-2.221-1.943-3.635s-0.653-2.972-0.653-4.673v-19.255h6.379v19.255c0,2.038,0.471,3.62,1.41,4.747
			s2.368,1.691,4.287,1.691c1.404,0,2.715-0.321,3.932-0.965c1.216-0.643,2.358-1.527,3.426-2.655v-22.074H438.199z"/>
		<path fill="#313131" d="M471.666,125.706v43.91h-3.856c-0.851,0-1.395-0.404-1.632-1.216l-0.564-3.294
			c-1.266,1.484-2.705,2.682-4.316,3.59c-1.612,0.91-3.486,1.365-5.622,1.365c-1.702,0-3.245-0.341-4.629-1.023
			c-1.384-0.682-2.571-1.676-3.56-2.982c-0.99-1.305-1.756-2.922-2.3-4.85c-0.544-1.93-0.815-4.14-0.815-6.632
			c0-2.255,0.301-4.341,0.904-6.26c0.604-1.918,1.469-3.585,2.596-5c1.128-1.414,2.497-2.521,4.109-3.323s3.417-1.202,5.415-1.202
			c1.78,0,3.293,0.282,4.54,0.846c1.246,0.563,2.363,1.35,3.352,2.359v-16.289H471.666z M465.287,146.801
			c-0.89-1.147-1.869-1.948-2.938-2.403c-1.067-0.455-2.225-0.682-3.471-0.682c-2.492,0-4.441,0.915-5.845,2.744
			c-1.405,1.83-2.106,4.536-2.106,8.115c0,1.859,0.158,3.446,0.475,4.763c0.316,1.314,0.771,2.388,1.365,3.219
			c0.593,0.83,1.314,1.434,2.165,1.81s1.81,0.563,2.878,0.563c1.622,0,3.021-0.351,4.198-1.053s2.271-1.696,3.278-2.982V146.801z"/>
		<path fill="#313131" d="M484.068,154.989c0.078,1.721,0.346,3.21,0.801,4.466c0.455,1.257,1.062,2.3,1.824,3.13
			s1.672,1.449,2.73,1.854c1.057,0.405,2.239,0.608,3.545,0.608c1.246,0,2.324-0.144,3.234-0.431
			c0.909-0.286,1.701-0.603,2.373-0.949c0.672-0.346,1.246-0.663,1.721-0.949s0.91-0.431,1.306-0.431
			c0.515,0,0.909,0.198,1.187,0.594l1.811,2.344c-0.752,0.891-1.603,1.643-2.552,2.255c-0.95,0.613-1.958,1.112-3.026,1.499
			c-1.068,0.385-2.166,0.662-3.293,0.83c-1.128,0.168-2.226,0.252-3.294,0.252c-2.097,0-4.04-0.352-5.83-1.053
			c-1.79-0.702-3.343-1.736-4.658-3.101s-2.344-3.056-3.085-5.073c-0.742-2.018-1.113-4.342-1.113-6.973
			c0-2.097,0.331-4.055,0.994-5.875c0.662-1.82,1.611-3.402,2.848-4.747s2.74-2.408,4.51-3.189c1.771-0.781,3.773-1.172,6.009-1.172
			c1.858,0,3.579,0.302,5.163,0.905c1.582,0.604,2.946,1.488,4.094,2.655c1.146,1.167,2.042,2.596,2.686,4.287
			c0.643,1.691,0.964,3.615,0.964,5.771c0,0.99-0.108,1.652-0.327,1.988c-0.217,0.336-0.613,0.504-1.186,0.504H484.068z
			 M499.289,151.073c0-1.068-0.154-2.062-0.461-2.982c-0.307-0.919-0.756-1.721-1.35-2.403c-0.594-0.683-1.33-1.217-2.211-1.603
			c-0.88-0.386-1.894-0.579-3.041-0.579c-2.314,0-4.134,0.663-5.459,1.988s-2.166,3.185-2.521,5.578H499.289z"/>
		<path fill="#313131" d="M516.911,143.359c0.653-0.672,1.33-1.281,2.032-1.825s1.449-1.014,2.24-1.41
			c0.791-0.395,1.632-0.702,2.521-0.919c0.891-0.218,1.859-0.327,2.908-0.327c1.662,0,3.12,0.277,4.376,0.831
			s2.314,1.335,3.175,2.344s1.508,2.221,1.943,3.635s0.652,2.972,0.652,4.673v19.255h-6.349v-19.255c0-2.037-0.47-3.62-1.409-4.747
			s-2.369-1.691-4.287-1.691c-1.425,0-2.745,0.327-3.961,0.979c-1.217,0.653-2.359,1.543-3.428,2.67v22.044h-6.379v-30.262h3.857
			c0.87,0,1.424,0.405,1.662,1.216L516.911,143.359z"/>
		<path fill="#313131" d="M553.523,170.091c-2.512,0-4.445-0.707-5.801-2.121c-1.354-1.414-2.031-3.406-2.031-5.979v-17.623h-3.323
			c-0.356,0-0.663-0.114-0.92-0.341c-0.257-0.227-0.386-0.568-0.386-1.024v-2.581l4.896-0.712l1.395-8.752
			c0.099-0.336,0.267-0.608,0.505-0.816c0.236-0.208,0.553-0.312,0.949-0.312h3.264v9.939h8.396v4.599h-8.396v17.178
			c0,1.089,0.267,1.92,0.801,2.493c0.533,0.573,1.246,0.86,2.137,0.86c0.494,0,0.919-0.064,1.275-0.193
			c0.355-0.128,0.662-0.267,0.92-0.415c0.256-0.148,0.479-0.286,0.667-0.415s0.371-0.193,0.549-0.193
			c0.356,0,0.643,0.198,0.86,0.594l1.898,3.115c-0.988,0.871-2.155,1.538-3.5,2.002
			C556.332,169.858,554.947,170.091,553.523,170.091z"/>
		<path fill="#313131" d="M378,235.216c1.642,0,3.11-0.277,4.405-0.831c1.296-0.554,2.394-1.325,3.294-2.313
			c0.899-0.989,1.587-2.182,2.062-3.576s0.713-2.941,0.713-4.643v-25.754h6.912v25.754c0,2.512-0.4,4.836-1.201,6.973
			c-0.801,2.136-1.953,3.98-3.457,5.533c-1.503,1.553-3.328,2.77-5.473,3.648c-2.146,0.881-4.564,1.32-7.255,1.32
			s-5.108-0.439-7.255-1.32c-2.146-0.879-3.971-2.096-5.473-3.648c-1.503-1.553-2.656-3.397-3.457-5.533
			c-0.801-2.137-1.202-4.461-1.202-6.973v-25.754h6.942v25.725c0,1.701,0.238,3.248,0.713,4.643s1.156,2.592,2.047,3.59
			c0.891,0.999,1.982,1.775,3.279,2.329C374.89,234.938,376.359,235.216,378,235.216z"/>
		<path fill="#313131" d="M408.886,214.565c0.652-0.672,1.33-1.28,2.033-1.824c0.701-0.544,1.448-1.014,2.239-1.41
			c0.791-0.395,1.632-0.701,2.522-0.919c0.89-0.218,1.858-0.327,2.907-0.327c1.661,0,3.12,0.277,4.376,0.832
			c1.256,0.553,2.314,1.334,3.175,2.344c0.86,1.008,1.509,2.221,1.943,3.635s0.653,2.971,0.653,4.672v19.256h-6.35v-19.256
			c0-2.037-0.471-3.619-1.41-4.746c-0.939-1.128-2.368-1.691-4.287-1.691c-1.424,0-2.744,0.326-3.961,0.979
			c-1.216,0.652-2.357,1.543-3.426,2.67v22.045h-6.379v-30.263h3.856c0.87,0,1.425,0.405,1.661,1.216L408.886,214.565z"/>
		<path fill="#313131" d="M443.925,201.423c0,0.573-0.113,1.117-0.341,1.631c-0.228,0.515-0.54,0.965-0.935,1.35
			c-0.396,0.387-0.855,0.693-1.38,0.92c-0.524,0.229-1.083,0.342-1.677,0.342c-0.573,0-1.112-0.113-1.617-0.342
			c-0.504-0.227-0.944-0.533-1.32-0.92c-0.375-0.385-0.678-0.835-0.904-1.35c-0.228-0.514-0.342-1.058-0.342-1.631
			c0-0.594,0.114-1.147,0.342-1.662c0.227-0.514,0.529-0.965,0.904-1.35c0.376-0.387,0.816-0.692,1.32-0.92
			c0.505-0.228,1.044-0.342,1.617-0.342c0.594,0,1.152,0.114,1.677,0.342s0.983,0.533,1.38,0.92c0.395,0.385,0.707,0.836,0.935,1.35
			C443.812,200.275,443.925,200.829,443.925,201.423z M442.857,210.561v30.263h-6.379v-30.263H442.857z"/>
		<path fill="#313131" d="M463.982,210.085c2.234,0,4.258,0.367,6.067,1.099s3.353,1.771,4.628,3.115s2.26,2.978,2.953,4.896
			c0.691,1.918,1.037,4.074,1.037,6.468s-0.346,4.55-1.037,6.468c-0.693,1.919-1.678,3.556-2.953,4.91
			c-1.275,1.355-2.818,2.398-4.628,3.131c-1.81,0.73-3.833,1.098-6.067,1.098c-2.255,0-4.287-0.367-6.098-1.098
			c-1.81-0.732-3.357-1.775-4.643-3.131c-1.286-1.354-2.275-2.991-2.967-4.91c-0.693-1.918-1.039-4.074-1.039-6.468
			s0.346-4.55,1.039-6.468c0.691-1.918,1.681-3.551,2.967-4.896c1.285-1.345,2.833-2.384,4.643-3.115
			C459.695,210.452,461.727,210.085,463.982,210.085z M463.982,236.284c2.729,0,4.762-0.915,6.097-2.744
			c1.335-1.83,2.003-4.445,2.003-7.848s-0.668-6.028-2.003-7.878c-1.335-1.849-3.367-2.774-6.097-2.774
			c-2.77,0-4.826,0.926-6.172,2.774c-1.345,1.85-2.018,4.476-2.018,7.878s0.673,6.018,2.018,7.848
			C459.156,235.369,461.212,236.284,463.982,236.284z"/>
		<path fill="#313131" d="M490.744,214.565c0.652-0.672,1.33-1.28,2.033-1.824c0.701-0.544,1.448-1.014,2.239-1.41
			c0.791-0.395,1.632-0.701,2.522-0.919c0.89-0.218,1.858-0.327,2.907-0.327c1.661,0,3.12,0.277,4.376,0.832
			c1.256,0.553,2.314,1.334,3.175,2.344c0.86,1.008,1.509,2.221,1.943,3.635s0.653,2.971,0.653,4.672v19.256h-6.35v-19.256
			c0-2.037-0.471-3.619-1.41-4.746c-0.939-1.128-2.368-1.691-4.287-1.691c-1.424,0-2.744,0.326-3.961,0.979
			c-1.216,0.652-2.357,1.543-3.426,2.67v22.045h-6.379v-30.263h3.856c0.87,0,1.425,0.405,1.661,1.216L490.744,214.565z"/>
	</g>
	
		<line fill="#010101" stroke="#313131" stroke-width="3" stroke-miterlimit="10" x1="326.312" y1="38.902" x2="326.312" y2="259.569"/>
</g>
</svg>
