<?xml version="1.0" encoding="utf-8"?>
<!-- Generator: Adobe Illustrator 21.1.0, SVG Export Plug-In . SVG Version: 6.00 Build 0)  -->
<svg version="1.1" id="Layer_1" xmlns="http://www.w3.org/2000/svg" xmlns:xlink="http://www.w3.org/1999/xlink" x="0px" y="0px"
	 viewBox="0 0 676.1 173.6" enable-background="new 0 0 676.1 173.6" xml:space="preserve">
<g>
	<g>
		<g>
			<path d="M84.4,46.4c-0.1,0.4-0.3,0.8-0.6,1.1c-0.3,0.3-0.6,0.6-1,0.8c-0.4,0.2-0.8,0.3-1.3,0.4c-0.5,0-0.9,0-1.3-0.1
				c-0.4-0.1-0.8-0.3-1.1-0.6c-0.3-0.3-0.6-0.6-0.8-0.9c-0.2-0.4-0.4-0.8-0.4-1.2s0-0.9,0.1-1.3c0.1-0.4,0.3-0.8,0.6-1.1
				c0.3-0.3,0.6-0.6,1-0.8s0.8-0.3,1.2-0.4c0.5-0.1,0.9,0,1.3,0.1c0.4,0.1,0.8,0.3,1.2,0.6c0.3,0.3,0.6,0.6,0.9,1
				c0.2,0.4,0.4,0.8,0.4,1.2S84.5,46,84.4,46.4z"/>
			<path d="M86.5,72l-5.6,0.6l-2-18.7l5.6-0.6l0.6,5.6c-0.3,0.7-0.5,1.4-0.7,2.2c-0.3,1.5-0.4,2.9-0.3,4.1c0.1,1.2,0.4,2.3,0.8,3.2
				c0.4,0.8,0.8,1.5,1.4,2L86.5,72z"/>
		</g>
		<path fill="#3599DC" d="M85.1,59c-0.3,0.7-0.5,1.4-0.7,2.2c-0.3,1.5-0.4,2.9-0.3,4.1c0.1,1.2,0.4,2.3,0.8,3.2
			c0.4,0.8,0.8,1.5,1.4,2L85.1,59z M102.1,57.5c-0.6,1-1,2.1-1.2,3.3c-0.2,1.2-0.2,2.4,0.1,3.6c0.2,0.9,0.4,1.7,0.7,2.4l2.3-11.4
			C103.2,56,102.5,56.7,102.1,57.5z"/>
		<path d="M100.1,46.2l-1.9,9.3c-0.4-0.6-1-1-1.5-1.5c-0.6-0.4-1.4-0.7-2.3-0.9c-1.2-0.2-2.3-0.2-3.4,0.1c-1.1,0.3-2,0.8-2.9,1.5
			c-0.9,0.7-1.6,1.6-2.2,2.7c-0.3,0.5-0.5,1-0.7,1.5l1.2,11.6c0.1,0.1,0.2,0.2,0.3,0.3c0.7,0.6,1.6,1,2.5,1.2
			c0.6,0.1,1.2,0.2,1.8,0.2c0.6,0,1.1-0.1,1.6-0.2c0.5-0.1,1-0.3,1.5-0.6c0.5-0.2,0.9-0.5,1.4-0.8l0.1,1.5c0.1,0.7,0.5,1.1,1.2,1.2
			l3.4,0.7l1.5-7.2c-0.3-0.7-0.5-1.5-0.7-2.4c-0.2-1.2-0.3-2.4-0.1-3.6c0.2-1.2,0.6-2.3,1.2-3.3c0.5-0.8,1.1-1.5,1.9-2.1l1.6-8
			L100.1,46.2z M95.8,67.1c-0.3,0.2-0.6,0.4-0.9,0.6c-0.3,0.2-0.6,0.3-0.9,0.4c-0.3,0.1-0.6,0.1-1,0.1c-0.3,0-0.7,0-1.1-0.1
			c-0.4-0.1-0.8-0.3-1.1-0.5s-0.6-0.6-0.7-1.1c-0.2-0.5-0.2-1-0.3-1.7s0.1-1.5,0.3-2.5c0.2-1,0.5-1.9,0.8-2.5
			c0.3-0.7,0.7-1.2,1.1-1.6c0.4-0.4,0.8-0.6,1.3-0.7c0.5-0.1,0.9-0.1,1.5,0c0.5,0.1,1,0.3,1.5,0.6c0.5,0.3,0.8,0.7,1.1,1.2
			L95.8,67.1z"/>
		<path fill="#E77E22" d="M102.1,57.5c-0.6,1-1,2.1-1.2,3.3c-0.2,1.2-0.2,2.4,0.1,3.6c0.2,0.9,0.4,1.7,0.7,2.4l2.3-11.4
			C103.2,56,102.5,56.7,102.1,57.5z"/>
		<path fill="#9C5AB7" d="M116.8,56.8c-0.3-0.4-0.5-0.8-0.9-1.1c-0.2,0.2-0.5,0.4-0.7,0.6l1,1.8c0.2,0.3,0.4,0.5,0.7,0.7
			c0.2,0.2,0.5,0.3,0.9,0.3C117.5,58.1,117.2,57.4,116.8,56.8z"/>
		<path fill="#9C5AB7" d="M117.5,66c-0.3-0.3-0.6-0.4-1.1-0.3c-0.3,0.1-0.6,0.2-0.9,0.4c-0.3,0.2-0.6,0.4-0.9,0.7
			c-0.1,0.1-0.1,0.1-0.2,0.2c0,0.2,0,0.4,0,0.5c0,0.9,0.1,1.6,0.4,2.2c0.2,0.6,0.5,1,0.9,1.4c0.1-0.1,0.3-0.2,0.4-0.2
			c0.7-0.4,1.3-0.8,1.8-1.4c0.6-0.5,1.1-1.2,1.5-2L117.5,66z"/>
		<path d="M118.1,60.2c-0.1-0.4-0.2-0.9-0.3-1.3c-0.3,0-0.6-0.1-0.9-0.3c-0.3-0.2-0.5-0.4-0.7-0.7l-1-1.8c0.2-0.2,0.5-0.4,0.7-0.6
			c-0.4-0.5-0.9-0.9-1.4-1.2c-0.9-0.6-1.9-1-2.9-1.1c-1.1-0.2-2.2-0.1-3.5,0.1c-1.4,0.3-2.6,0.8-3.6,1.5c-0.2,0.1-0.4,0.3-0.6,0.5
			l-2.3,11.4c0.2,0.6,0.5,1.2,0.9,1.8c0.7,1.1,1.6,2,2.6,2.7c1,0.7,2.1,1.1,3.3,1.3c1.2,0.2,2.5,0.2,3.8-0.1c0.6-0.1,1.3-0.3,2-0.5
			c0.5-0.2,1-0.4,1.5-0.7c-0.4-0.4-0.7-0.9-0.9-1.4c-0.3-0.7-0.4-1.4-0.4-2.2c0-0.2,0-0.3,0-0.5c-0.3,0.2-0.6,0.4-0.9,0.6
			c-0.4,0.2-1,0.4-1.6,0.6c-1.2,0.2-2.2,0.1-3.1-0.5c-0.9-0.5-1.6-1.6-2.1-3.1l10.6-2.1c0.2,0,0.4-0.1,0.6-0.2
			c0.2-0.1,0.3-0.2,0.3-0.4c0.1-0.2,0.1-0.4,0.1-0.7C118.3,61,118.2,60.6,118.1,60.2z M106.1,61.4c0-1.2,0.2-2.1,0.7-2.8
			c0.5-0.7,1.2-1.2,2.3-1.4c0.6-0.1,1.1-0.1,1.6,0c0.4,0.1,0.8,0.3,1.2,0.6c0.3,0.3,0.6,0.6,0.8,1c0.2,0.4,0.3,0.8,0.4,1.2
			L106.1,61.4z"/>
		<path d="M129.7,70.8c-0.4-0.5-0.7-1.1-0.9-1.8c-0.2-0.7-0.2-1.5-0.1-2.3l1.1-9.7l-1.6-0.2c-0.3,0-0.5-0.1-0.7-0.4
			c-0.2-0.2-0.2-0.5-0.2-0.8l0.2-1.4c-0.3-0.2-0.6-0.3-0.9-0.4c-0.9-0.4-1.9-0.6-3.1-0.6c-1.6,0-3.1,0.2-4.5,0.7
			c-1.1,0.4-2.1,1-3.1,1.7c0.3,0.3,0.6,0.7,0.9,1.1c0.4,0.6,0.7,1.4,1,2.2c0,0,0.1,0,0.1,0c0.4,0,0.8-0.1,1.1-0.2
			c0.3-0.2,0.6-0.3,1-0.5c0.3-0.2,0.7-0.3,1.1-0.5c0.4-0.1,1-0.2,1.6-0.2c0.8,0,1.5,0.2,1.9,0.7c0.5,0.5,0.7,1.3,0.7,2.4v0.8
			c-2.2,0-3.9,0.3-5.3,0.7c-1.4,0.4-2.5,0.9-3.4,1.4c-0.8,0.6-1.4,1.2-1.8,1.9c-0.2,0.5-0.4,1-0.5,1.5c0.1,0,0.1-0.1,0.2-0.2
			c0.3-0.3,0.6-0.5,0.9-0.7c0.3-0.2,0.6-0.4,0.9-0.4c0.4-0.1,0.8,0,1.1,0.3l2,1.7c-0.4,0.8-0.9,1.4-1.5,2c-0.6,0.5-1.2,1-1.8,1.4
			c-0.1,0.1-0.3,0.2-0.4,0.2c0.1,0.1,0.1,0.1,0.2,0.2c0.5,0.4,1.1,0.8,1.8,1c0.7,0.2,1.5,0.3,2.3,0.3c0.6,0,1.2-0.1,1.7-0.2
			c0.5-0.1,1-0.3,1.5-0.5c0.5-0.2,0.9-0.5,1.4-0.8c0.4-0.3,0.9-0.7,1.4-1l0.4,1c0.2,0.5,0.4,0.8,0.7,0.9c0.3,0.1,0.7,0.2,1.2,0.2
			h2.6v-0.5C130.4,71.6,130,71.2,129.7,70.8z M125.4,67.4c-0.6,0.6-1.1,1-1.7,1.2c-0.5,0.2-1.2,0.4-1.9,0.4c-0.7,0-1.2-0.1-1.5-0.4
			c-0.3-0.3-0.5-0.7-0.5-1.3c0-0.3,0.1-0.6,0.2-0.9c0.2-0.3,0.5-0.5,0.9-0.8c0.4-0.2,1-0.4,1.7-0.5c0.7-0.2,1.7-0.2,2.8-0.3V67.4z"
			/>
		<path fill="#2ECC71" d="M130.3,57.7c-0.3-0.9-0.8-1.7-1.4-2.3c-0.4-0.4-0.9-0.8-1.4-1.1l-0.2,1.4c0,0.4,0,0.6,0.2,0.8
			c0.2,0.2,0.4,0.3,0.7,0.4l1.6,0.2l-1.1,9.7c-0.1,0.8-0.1,1.6,0.1,2.3c0.2,0.7,0.5,1.3,0.9,1.8c0.3,0.4,0.7,0.8,1.1,1V60.7
			C130.8,59.6,130.7,58.6,130.3,57.7z"/>
		<path fill="#F2C50F" d="M138.1,56.3c-0.5,0.5-0.8,1-1.1,1.5l3.1,0.3l0.4-3.7C139.5,55,138.7,55.6,138.1,56.3z"/>
		<path d="M135.4,57.7l-1,9.3c0,0.4,0,0.8,0.2,1.1c0.2,0.3,0.5,0.5,0.9,0.5c0.2,0,0.4,0,0.5,0c0.1,0,0.3-0.1,0.4-0.1
			c0.1,0,0.2-0.1,0.3-0.1c0.1,0,0.2,0,0.3,0c0.2,0,0.3,0.1,0.4,0.2c0.1,0.1,0.2,0.2,0.3,0.4l1.4,2.8c-0.8,0.5-1.6,0.8-2.6,1
			c-0.9,0.2-1.9,0.2-2.8,0.1c-0.9-0.1-1.7-0.3-2.3-0.6c-0.2-0.1-0.3-0.2-0.5-0.3V60.7c0-1.1-0.2-2.1-0.5-3c-0.3-0.9-0.8-1.7-1.4-2.3
			c-0.4-0.4-0.9-0.8-1.4-1.1l0.1-0.8l3-0.2l1.6-4.4c0.2-0.6,0.7-0.8,1.3-0.7l2.9,0.3l-0.6,5.5l4.6,0.5l0,0.1
			c-0.9,0.5-1.7,1.1-2.3,1.8c-0.5,0.5-0.8,1-1.1,1.5L135.4,57.7z"/>
		<path d="M153.2,64.1c-0.3-0.2-0.7-0.2-1.1,0c-0.3,0.1-0.6,0.4-0.8,0.6c-0.2,0.3-0.5,0.6-0.7,0.9c-0.3,0.3-0.6,0.7-0.9,1
			c-0.4,0.3-0.8,0.6-1.4,0.9c-1.1,0.5-2.2,0.6-3.2,0.3c-1-0.3-1.9-1.2-2.7-2.5l9.9-4.5c0.2-0.1,0.4-0.2,0.5-0.3
			c0.1-0.1,0.2-0.3,0.2-0.5c0-0.2,0-0.4-0.1-0.7c-0.1-0.3-0.2-0.6-0.4-1c-0.6-1.2-1.3-2.2-2.1-3c-0.8-0.8-1.7-1.4-2.7-1.7
			c-1-0.4-2-0.5-3.1-0.4c-1.1,0.1-2.2,0.4-3.3,0.9c-0.3,0.1-0.6,0.3-0.9,0.5l-0.4,3.7l-3.1-0.3c-0.3,0.5-0.5,1-0.7,1.5
			c-0.4,1.1-0.5,2.2-0.5,3.5c0.1,1.2,0.4,2.4,0.9,3.5c0.7,1.5,1.5,2.8,2.5,3.7c1,0.9,2,1.6,3.2,2c1.1,0.4,2.3,0.6,3.5,0.5
			c1.2-0.1,2.4-0.4,3.6-1c0.6-0.3,1.2-0.6,1.8-1c0.6-0.4,1.2-0.8,1.7-1.3c0.5-0.5,1-1.1,1.5-1.8c0.4-0.7,0.8-1.4,1-2.2L153.2,64.1z
			 M141.1,62.3c-0.3-1.1-0.3-2.1,0-2.9c0.3-0.8,0.9-1.4,1.9-1.9c0.5-0.2,1.1-0.4,1.5-0.4c0.5,0,0.9,0.1,1.3,0.3
			c0.4,0.2,0.7,0.5,1,0.8c0.3,0.3,0.5,0.7,0.7,1.1L141.1,62.3z"/>
	</g>
	<g>
		<linearGradient id="SVGID_2_" gradientUnits="userSpaceOnUse" x1="369.5739" y1="58.0793" x2="447.3844" y2="58.0793">
			<stop  offset="0" style="stop-color:#FFF23A"/>
			<stop  offset="4.010540e-02" style="stop-color:#FEE62D"/>
			<stop  offset="0.1171" style="stop-color:#FED41A"/>
			<stop  offset="0.1964" style="stop-color:#FDC90F"/>
			<stop  offset="0.2809" style="stop-color:#FDC60B"/>
			<stop  offset="0.6685" style="stop-color:#F28F3F"/>
			<stop  offset="0.8876" style="stop-color:#ED693C"/>
			<stop  offset="1" style="stop-color:#E83E39"/>
		</linearGradient>
		<path fill="url(#SVGID_2_)" d="M376.2,46.4c-0.1,0.4-0.3,0.8-0.6,1.1c-0.3,0.3-0.6,0.6-1,0.8c-0.4,0.2-0.8,0.3-1.3,0.4
			c-0.5,0-0.9,0-1.3-0.1c-0.4-0.1-0.8-0.3-1.1-0.6c-0.3-0.3-0.6-0.6-0.8-0.9c-0.2-0.4-0.4-0.8-0.4-1.2s0-0.9,0.1-1.3
			c0.1-0.4,0.3-0.8,0.6-1.1c0.3-0.3,0.6-0.6,1-0.8s0.8-0.3,1.2-0.4c0.5-0.1,0.9,0,1.3,0.1c0.4,0.1,0.8,0.3,1.2,0.6
			c0.3,0.3,0.6,0.6,0.9,1c0.2,0.4,0.4,0.8,0.4,1.2S376.3,46,376.2,46.4z M378.2,70.5c-0.6-0.5-1.1-1.2-1.4-2c-0.4-0.9-0.7-2-0.8-3.2
			c-0.1-1.2,0-2.6,0.3-4.1c0.2-0.8,0.4-1.5,0.7-2.2l-0.6-5.6l-5.6,0.6l2,18.7l5.6-0.6L378.2,70.5z M397.4,47.4l-1.6,8
			c-0.8,0.6-1.4,1.3-1.9,2.1c-0.6,1-1,2.1-1.2,3.3c-0.2,1.2-0.2,2.4,0.1,3.6c0.2,0.9,0.4,1.7,0.7,2.4l-1.5,7.2l-3.4-0.7
			c-0.7-0.1-1.1-0.5-1.2-1.2l-0.1-1.5c-0.5,0.3-0.9,0.6-1.4,0.8c-0.5,0.2-1,0.4-1.5,0.6c-0.5,0.1-1.1,0.2-1.6,0.2
			c-0.6,0-1.2,0-1.8-0.2c-1-0.2-1.8-0.6-2.5-1.2c-0.1-0.1-0.2-0.2-0.3-0.3L376.9,59c0.2-0.5,0.4-1,0.7-1.5c0.6-1.1,1.4-2,2.2-2.7
			c0.9-0.7,1.8-1.2,2.9-1.5c1.1-0.3,2.2-0.3,3.4-0.1c1,0.2,1.7,0.5,2.3,0.9c0.6,0.4,1.1,0.9,1.5,1.5l1.9-9.3L397.4,47.4z
			 M389.2,59.3c-0.3-0.5-0.7-1-1.1-1.2c-0.5-0.3-0.9-0.5-1.5-0.6c-0.5-0.1-1-0.1-1.5,0c-0.5,0.1-0.9,0.4-1.3,0.7
			c-0.4,0.4-0.8,0.9-1.1,1.6c-0.3,0.7-0.6,1.5-0.8,2.5c-0.2,1-0.3,1.8-0.3,2.5s0.1,1.3,0.3,1.7c0.2,0.5,0.4,0.8,0.7,1.1
			s0.7,0.4,1.1,0.5c0.4,0.1,0.8,0.1,1.1,0.1c0.3,0,0.7-0.1,1-0.1c0.3-0.1,0.6-0.2,0.9-0.4c0.3-0.2,0.6-0.4,0.9-0.6L389.2,59.3z
			 M410.1,61.2c0,0.3,0,0.5-0.1,0.7c-0.1,0.2-0.2,0.3-0.3,0.4c-0.1,0.1-0.3,0.2-0.6,0.2l-10.6,2.1c0.5,1.5,1.2,2.5,2.1,3.1
			c0.9,0.5,1.9,0.7,3.1,0.5c0.6-0.1,1.2-0.3,1.6-0.6c0.3-0.2,0.7-0.4,0.9-0.6c0,0.2,0,0.4,0,0.5c0,0.9,0.1,1.6,0.4,2.2
			c0.2,0.6,0.5,1,0.9,1.4c-0.5,0.3-1,0.5-1.5,0.7c-0.7,0.2-1.3,0.4-2,0.5c-1.3,0.3-2.5,0.3-3.8,0.1c-1.2-0.2-2.3-0.6-3.3-1.3
			c-1-0.7-1.9-1.6-2.6-2.7c-0.3-0.5-0.6-1.1-0.9-1.8l2.3-11.4c0.2-0.2,0.4-0.3,0.6-0.5c1-0.7,2.2-1.2,3.6-1.5
			c1.2-0.2,2.4-0.3,3.5-0.1c1.1,0.2,2.1,0.5,2.9,1.1c0.5,0.3,1,0.7,1.4,1.2c-0.2,0.2-0.5,0.4-0.7,0.6l1,1.8c0.2,0.3,0.4,0.5,0.7,0.7
			c0.2,0.2,0.5,0.3,0.9,0.3c0.1,0.4,0.2,0.8,0.3,1.3C410,60.6,410.1,61,410.1,61.2z M404.8,60c-0.1-0.4-0.2-0.9-0.4-1.2
			c-0.2-0.4-0.5-0.7-0.8-1c-0.3-0.3-0.7-0.5-1.2-0.6c-0.5-0.1-1-0.1-1.6,0c-1,0.2-1.8,0.7-2.3,1.4c-0.5,0.7-0.7,1.7-0.7,2.8
			L404.8,60z M422.7,71.9v0.5h-2.6c-0.5,0-0.9-0.1-1.2-0.2c-0.3-0.2-0.5-0.5-0.7-0.9l-0.4-1c-0.5,0.4-0.9,0.8-1.4,1
			c-0.4,0.3-0.9,0.6-1.4,0.8c-0.5,0.2-1,0.4-1.5,0.5c-0.5,0.1-1.1,0.2-1.7,0.2c-0.9,0-1.6-0.1-2.3-0.3c-0.7-0.2-1.3-0.5-1.8-1
			c-0.1-0.1-0.1-0.1-0.2-0.2c0.1-0.1,0.3-0.2,0.4-0.2c0.7-0.4,1.3-0.8,1.8-1.4c0.6-0.5,1.1-1.2,1.5-2l-2-1.7
			c-0.3-0.3-0.6-0.4-1.1-0.3c-0.3,0.1-0.6,0.2-0.9,0.4c-0.3,0.2-0.6,0.4-0.9,0.7c-0.1,0.1-0.1,0.1-0.2,0.2c0.1-0.5,0.2-1,0.5-1.5
			c0.3-0.7,0.9-1.3,1.8-1.9c0.8-0.6,2-1.1,3.4-1.4c1.4-0.4,3.2-0.6,5.3-0.7v-0.8c0-1.1-0.2-1.9-0.7-2.4c-0.5-0.5-1.1-0.7-1.9-0.7
			c-0.7,0-1.2,0.1-1.6,0.2c-0.4,0.1-0.8,0.3-1.1,0.5c-0.3,0.2-0.7,0.3-1,0.5c-0.3,0.1-0.7,0.2-1.1,0.2c0,0-0.1,0-0.1,0
			c-0.3-0.8-0.6-1.5-1-2.2c-0.3-0.4-0.5-0.8-0.9-1.1c1-0.7,2-1.3,3.1-1.7c1.4-0.5,2.9-0.7,4.5-0.7c1.1,0,2.2,0.2,3.1,0.6
			c0.3,0.1,0.6,0.3,0.9,0.4l-0.2,1.4c0,0.4,0,0.6,0.2,0.8c0.2,0.2,0.4,0.3,0.7,0.4l1.6,0.2l-1.1,9.7c-0.1,0.8-0.1,1.6,0.1,2.3
			c0.2,0.7,0.5,1.3,0.9,1.8C421.8,71.2,422.2,71.6,422.7,71.9z M417.2,64.8c-1.1,0.1-2.1,0.1-2.8,0.3c-0.7,0.1-1.3,0.3-1.7,0.5
			c-0.4,0.2-0.7,0.5-0.9,0.8c-0.2,0.3-0.2,0.6-0.2,0.9c0,0.6,0.2,1.1,0.5,1.3c0.4,0.3,0.9,0.4,1.5,0.4c0.7,0,1.4-0.1,1.9-0.4
			c0.5-0.2,1.1-0.7,1.7-1.2V64.8z M428.8,57.9c0.3-0.5,0.7-1.1,1.1-1.5c0.6-0.7,1.4-1.3,2.3-1.8l0-0.1l-4.6-0.5l0.6-5.5l-2.9-0.3
			c-0.7-0.1-1.1,0.2-1.3,0.7l-1.6,4.4l-3,0.2l-0.1,0.8c0.5,0.3,1,0.7,1.4,1.1c0.6,0.7,1.1,1.4,1.4,2.3c0.3,0.9,0.5,1.9,0.5,3v11.2
			c0.2,0.1,0.3,0.2,0.5,0.3c0.7,0.3,1.4,0.5,2.3,0.6c1,0.1,1.9,0.1,2.8-0.1c0.9-0.2,1.8-0.5,2.6-1l-1.4-2.8
			c-0.1-0.2-0.2-0.3-0.3-0.4c-0.1-0.1-0.2-0.2-0.4-0.2c-0.1,0-0.2,0-0.3,0c-0.1,0-0.2,0.1-0.3,0.1c-0.1,0-0.2,0.1-0.4,0.1
			c-0.1,0-0.3,0-0.5,0c-0.4,0-0.7-0.2-0.9-0.5c-0.2-0.3-0.2-0.7-0.2-1.1l1-9.3L428.8,57.9z M447.4,65.3c-0.2,0.8-0.6,1.6-1,2.2
			c-0.4,0.7-0.9,1.2-1.5,1.8c-0.5,0.5-1.1,1-1.7,1.3c-0.6,0.4-1.2,0.7-1.8,1c-1.2,0.5-2.4,0.9-3.6,1c-1.2,0.1-2.4-0.1-3.5-0.5
			c-1.1-0.4-2.2-1.1-3.2-2c-1-0.9-1.8-2.2-2.5-3.7c-0.5-1.1-0.8-2.3-0.9-3.5c-0.1-1.2,0.1-2.4,0.5-3.5c0.2-0.5,0.4-1,0.7-1.5
			l3.1,0.3l0.4-3.7c0.3-0.2,0.6-0.3,0.9-0.5c1.1-0.5,2.2-0.8,3.3-0.9c1.1-0.1,2.1,0.1,3.1,0.4c1,0.4,1.9,0.9,2.7,1.7
			c0.8,0.8,1.5,1.8,2.1,3c0.2,0.4,0.3,0.7,0.4,1c0.1,0.3,0.1,0.5,0.1,0.7c0,0.2-0.1,0.3-0.2,0.5c-0.1,0.1-0.3,0.2-0.5,0.3l-9.9,4.5
			c0.8,1.4,1.7,2.2,2.7,2.5c1,0.3,2,0.2,3.2-0.3c0.6-0.3,1.1-0.6,1.4-0.9c0.4-0.3,0.7-0.7,0.9-1c0.2-0.3,0.5-0.6,0.7-0.9
			c0.2-0.3,0.5-0.5,0.8-0.6c0.4-0.2,0.8-0.2,1.1,0L447.4,65.3z M439.3,59.4c-0.2-0.4-0.4-0.8-0.7-1.1c-0.3-0.3-0.6-0.6-1-0.8
			c-0.4-0.2-0.8-0.3-1.3-0.3c-0.5,0-1,0.1-1.5,0.4c-1,0.4-1.6,1.1-1.9,1.9c-0.3,0.8-0.3,1.8,0,2.9L439.3,59.4z"/>
	</g>
	<g>
		<linearGradient id="SVGID_3_" gradientUnits="userSpaceOnUse" x1="515.4869" y1="58.0793" x2="593.2975" y2="58.0793">
			<stop  offset="0" style="stop-color:#E84C3C"/>
			<stop  offset="2.996115e-02" style="stop-color:#BE5E62"/>
			<stop  offset="6.464863e-02" style="stop-color:#947087"/>
			<stop  offset="0.1001" style="stop-color:#727FA6"/>
			<stop  offset="0.1361" style="stop-color:#578ABE"/>
			<stop  offset="0.1726" style="stop-color:#4493CF"/>
			<stop  offset="0.2101" style="stop-color:#3997D9"/>
			<stop  offset="0.25" style="stop-color:#3599DC"/>
			<stop  offset="0.5" style="stop-color:#E77E22"/>
			<stop  offset="0.75" style="stop-color:#9C5AB7"/>
			<stop  offset="1" style="stop-color:#F2C50F"/>
		</linearGradient>
		<path fill="url(#SVGID_3_)" d="M522.1,46.4c-0.1,0.4-0.3,0.8-0.6,1.1c-0.3,0.3-0.6,0.6-1,0.8c-0.4,0.2-0.8,0.3-1.3,0.4
			c-0.5,0-0.9,0-1.3-0.1c-0.4-0.1-0.8-0.3-1.1-0.6c-0.3-0.3-0.6-0.6-0.8-0.9c-0.2-0.4-0.4-0.8-0.4-1.2s0-0.9,0.1-1.3
			c0.1-0.4,0.3-0.8,0.6-1.1c0.3-0.3,0.6-0.6,1-0.8s0.8-0.3,1.2-0.4c0.5-0.1,0.9,0,1.3,0.1c0.4,0.1,0.8,0.3,1.2,0.6
			c0.3,0.3,0.6,0.6,0.9,1c0.2,0.4,0.4,0.8,0.4,1.2S522.2,46,522.1,46.4z M524.1,70.5c-0.6-0.5-1.1-1.2-1.4-2c-0.4-0.9-0.7-2-0.8-3.2
			c-0.1-1.2,0-2.6,0.3-4.1c0.2-0.8,0.4-1.5,0.7-2.2l-0.6-5.6l-5.6,0.6l2,18.7l5.6-0.6L524.1,70.5z M543.3,47.4l-1.6,8
			c-0.8,0.6-1.4,1.3-1.9,2.1c-0.6,1-1,2.1-1.2,3.3c-0.2,1.2-0.2,2.4,0.1,3.6c0.2,0.9,0.4,1.7,0.7,2.4l-1.5,7.2l-3.4-0.7
			c-0.7-0.1-1.1-0.5-1.2-1.2l-0.1-1.5c-0.5,0.3-0.9,0.6-1.4,0.8c-0.5,0.2-1,0.4-1.5,0.6c-0.5,0.1-1.1,0.2-1.6,0.2
			c-0.6,0-1.2,0-1.8-0.2c-1-0.2-1.8-0.6-2.5-1.2c-0.1-0.1-0.2-0.2-0.3-0.3L522.8,59c0.2-0.5,0.4-1,0.7-1.5c0.6-1.1,1.4-2,2.2-2.7
			c0.9-0.7,1.8-1.2,2.9-1.5c1.1-0.3,2.2-0.3,3.4-0.1c1,0.2,1.7,0.5,2.3,0.9c0.6,0.4,1.1,0.9,1.5,1.5l1.9-9.3L543.3,47.4z
			 M535.1,59.3c-0.3-0.5-0.7-1-1.1-1.2c-0.5-0.3-0.9-0.5-1.5-0.6c-0.5-0.1-1-0.1-1.5,0c-0.5,0.1-0.9,0.4-1.3,0.7
			c-0.4,0.4-0.8,0.9-1.1,1.6c-0.3,0.7-0.6,1.5-0.8,2.5c-0.2,1-0.3,1.8-0.3,2.5s0.1,1.3,0.3,1.7c0.2,0.5,0.4,0.8,0.7,1.1
			s0.7,0.4,1.1,0.5c0.4,0.1,0.8,0.1,1.1,0.1c0.3,0,0.7-0.1,1-0.1c0.3-0.1,0.6-0.2,0.9-0.4c0.3-0.2,0.6-0.4,0.9-0.6L535.1,59.3z
			 M556,61.2c0,0.3,0,0.5-0.1,0.7c-0.1,0.2-0.2,0.3-0.3,0.4c-0.1,0.1-0.3,0.2-0.6,0.2l-10.6,2.1c0.5,1.5,1.2,2.5,2.1,3.1
			c0.9,0.5,1.9,0.7,3.1,0.5c0.6-0.1,1.2-0.3,1.6-0.6c0.3-0.2,0.7-0.4,0.9-0.6c0,0.2,0,0.4,0,0.5c0,0.9,0.1,1.6,0.4,2.2
			c0.2,0.6,0.5,1,0.9,1.4c-0.5,0.3-1,0.5-1.5,0.7c-0.7,0.2-1.3,0.4-2,0.5c-1.3,0.3-2.5,0.3-3.8,0.1c-1.2-0.2-2.3-0.6-3.3-1.3
			c-1-0.7-1.9-1.6-2.6-2.7c-0.3-0.5-0.6-1.1-0.9-1.8l2.3-11.4c0.2-0.2,0.4-0.3,0.6-0.5c1-0.7,2.2-1.2,3.6-1.5
			c1.2-0.2,2.4-0.3,3.5-0.1c1.1,0.2,2.1,0.5,2.9,1.1c0.5,0.3,1,0.7,1.4,1.2c-0.2,0.2-0.5,0.4-0.7,0.6l1,1.8c0.2,0.3,0.4,0.5,0.7,0.7
			c0.2,0.2,0.5,0.3,0.9,0.3c0.1,0.4,0.2,0.8,0.3,1.3C556,60.6,556,61,556,61.2z M550.7,60c-0.1-0.4-0.2-0.9-0.4-1.2
			c-0.2-0.4-0.5-0.7-0.8-1c-0.3-0.3-0.7-0.5-1.2-0.6c-0.5-0.1-1-0.1-1.6,0c-1,0.2-1.8,0.7-2.3,1.4c-0.5,0.7-0.7,1.7-0.7,2.8
			L550.7,60z M568.6,71.9v0.5H566c-0.5,0-0.9-0.1-1.2-0.2c-0.3-0.2-0.5-0.5-0.7-0.9l-0.4-1c-0.5,0.4-0.9,0.8-1.4,1
			c-0.4,0.3-0.9,0.6-1.4,0.8c-0.5,0.2-1,0.4-1.5,0.5c-0.5,0.1-1.1,0.2-1.7,0.2c-0.9,0-1.6-0.1-2.3-0.3c-0.7-0.2-1.3-0.5-1.8-1
			c-0.1-0.1-0.1-0.1-0.2-0.2c0.1-0.1,0.3-0.2,0.4-0.2c0.7-0.4,1.3-0.8,1.8-1.4c0.6-0.5,1.1-1.2,1.5-2l-2-1.7
			c-0.3-0.3-0.6-0.4-1.1-0.3c-0.3,0.1-0.6,0.2-0.9,0.4c-0.3,0.2-0.6,0.4-0.9,0.7c-0.1,0.1-0.1,0.1-0.2,0.2c0.1-0.5,0.2-1,0.5-1.5
			c0.3-0.7,0.9-1.3,1.8-1.9c0.8-0.6,2-1.1,3.4-1.4c1.4-0.4,3.2-0.6,5.3-0.7v-0.8c0-1.1-0.2-1.9-0.7-2.4c-0.5-0.5-1.1-0.7-1.9-0.7
			c-0.7,0-1.2,0.1-1.6,0.2c-0.4,0.1-0.8,0.3-1.1,0.5c-0.3,0.2-0.7,0.3-1,0.5c-0.3,0.1-0.7,0.2-1.1,0.2c0,0-0.1,0-0.1,0
			c-0.3-0.8-0.6-1.5-1-2.2c-0.3-0.4-0.5-0.8-0.9-1.1c1-0.7,2-1.3,3.1-1.7c1.4-0.5,2.9-0.7,4.5-0.7c1.1,0,2.2,0.2,3.1,0.6
			c0.3,0.1,0.6,0.3,0.9,0.4l-0.2,1.4c0,0.4,0,0.6,0.2,0.8c0.2,0.2,0.4,0.3,0.7,0.4l1.6,0.2l-1.1,9.7c-0.1,0.8-0.1,1.6,0.1,2.3
			c0.2,0.7,0.5,1.3,0.9,1.8C567.7,71.2,568.1,71.6,568.6,71.9z M563.1,64.8c-1.1,0.1-2.1,0.1-2.8,0.3c-0.7,0.1-1.3,0.3-1.7,0.5
			c-0.4,0.2-0.7,0.5-0.9,0.8c-0.2,0.3-0.2,0.6-0.2,0.9c0,0.6,0.2,1.1,0.5,1.3c0.4,0.3,0.9,0.4,1.5,0.4c0.7,0,1.4-0.1,1.9-0.4
			c0.5-0.2,1.1-0.7,1.7-1.2V64.8z M574.7,57.9c0.3-0.5,0.7-1.1,1.1-1.5c0.6-0.7,1.4-1.3,2.3-1.8l0-0.1l-4.6-0.5l0.6-5.5l-2.9-0.3
			c-0.7-0.1-1.1,0.2-1.3,0.7l-1.6,4.4l-3,0.2l-0.1,0.8c0.5,0.3,1,0.7,1.4,1.1c0.6,0.7,1.1,1.4,1.4,2.3c0.3,0.9,0.5,1.9,0.5,3v11.2
			c0.2,0.1,0.3,0.2,0.5,0.3c0.7,0.3,1.4,0.5,2.3,0.6c1,0.1,1.9,0.1,2.8-0.1c0.9-0.2,1.8-0.5,2.6-1l-1.4-2.8
			c-0.1-0.2-0.2-0.3-0.3-0.4c-0.1-0.1-0.2-0.2-0.4-0.2c-0.1,0-0.2,0-0.3,0c-0.1,0-0.2,0.1-0.3,0.1c-0.1,0-0.2,0.1-0.4,0.1
			c-0.1,0-0.3,0-0.5,0c-0.4,0-0.7-0.2-0.9-0.5c-0.2-0.3-0.2-0.7-0.2-1.1l1-9.3L574.7,57.9z M593.3,65.3c-0.2,0.8-0.6,1.6-1,2.2
			c-0.4,0.7-0.9,1.2-1.5,1.8c-0.5,0.5-1.1,1-1.7,1.3c-0.6,0.4-1.2,0.7-1.8,1c-1.2,0.5-2.4,0.9-3.6,1c-1.2,0.1-2.4-0.1-3.5-0.5
			c-1.1-0.4-2.2-1.1-3.2-2c-1-0.9-1.8-2.2-2.5-3.7c-0.5-1.1-0.8-2.3-0.9-3.5c-0.1-1.2,0.1-2.4,0.5-3.5c0.2-0.5,0.4-1,0.7-1.5
			l3.1,0.3l0.4-3.7c0.3-0.2,0.6-0.3,0.9-0.5c1.1-0.5,2.2-0.8,3.3-0.9c1.1-0.1,2.1,0.1,3.1,0.4c1,0.4,1.9,0.9,2.7,1.7
			c0.8,0.8,1.5,1.8,2.1,3c0.2,0.4,0.3,0.7,0.4,1c0.1,0.3,0.1,0.5,0.1,0.7c0,0.2-0.1,0.3-0.2,0.5c-0.1,0.1-0.3,0.2-0.5,0.3l-9.9,4.5
			c0.8,1.4,1.7,2.2,2.7,2.5c1,0.3,2,0.2,3.2-0.3c0.6-0.3,1.1-0.6,1.4-0.9c0.4-0.3,0.7-0.7,0.9-1c0.2-0.3,0.5-0.6,0.7-0.9
			c0.2-0.3,0.5-0.5,0.8-0.6c0.4-0.2,0.8-0.2,1.1,0L593.3,65.3z M585.2,59.4c-0.2-0.4-0.4-0.8-0.7-1.1c-0.3-0.3-0.6-0.6-1-0.8
			c-0.4-0.2-0.8-0.3-1.3-0.3c-0.5,0-1,0.1-1.5,0.4c-1,0.4-1.6,1.1-1.9,1.9c-0.3,0.8-0.3,1.8,0,2.9L585.2,59.4z"/>
	</g>
	<g>
		<linearGradient id="SVGID_4_" gradientUnits="userSpaceOnUse" x1="77.7478" y1="111.8222" x2="155.5584" y2="111.8222">
			<stop  offset="0" style="stop-color:#E84C3C"/>
			<stop  offset="1" style="stop-color:#9C5AB7"/>
		</linearGradient>
		<path fill="url(#SVGID_4_)" d="M84.4,100.2c-0.1,0.4-0.3,0.8-0.6,1.1c-0.3,0.3-0.6,0.6-1,0.8c-0.4,0.2-0.8,0.3-1.3,0.4
			c-0.5,0-0.9,0-1.3-0.1c-0.4-0.1-0.8-0.3-1.1-0.6c-0.3-0.3-0.6-0.6-0.8-0.9c-0.2-0.4-0.4-0.8-0.4-1.2s0-0.9,0.1-1.3
			c0.1-0.4,0.3-0.8,0.6-1.1c0.3-0.3,0.6-0.6,1-0.8s0.8-0.3,1.2-0.4c0.5-0.1,0.9,0,1.3,0.1c0.4,0.1,0.8,0.3,1.2,0.6
			c0.3,0.3,0.6,0.6,0.9,1c0.2,0.4,0.4,0.8,0.4,1.2S84.5,99.8,84.4,100.2z M86.3,124.3c-0.6-0.5-1.1-1.2-1.4-2
			c-0.4-0.9-0.7-2-0.8-3.2c-0.1-1.2,0-2.6,0.3-4.1c0.2-0.8,0.4-1.5,0.7-2.2l-0.6-5.6l-5.6,0.6l2,18.7l5.6-0.6L86.3,124.3z
			 M105.6,101.1l-1.6,8c-0.8,0.6-1.4,1.3-1.9,2.1c-0.6,1-1,2.1-1.2,3.3c-0.2,1.2-0.2,2.4,0.1,3.6c0.2,0.9,0.4,1.7,0.7,2.4l-1.5,7.2
			l-3.4-0.7c-0.7-0.1-1.1-0.5-1.2-1.2l-0.1-1.5c-0.5,0.3-0.9,0.6-1.4,0.8c-0.5,0.2-1,0.4-1.5,0.6c-0.5,0.1-1.1,0.2-1.6,0.2
			c-0.6,0-1.2,0-1.8-0.2c-1-0.2-1.8-0.6-2.5-1.2c-0.1-0.1-0.2-0.2-0.3-0.3l-1.2-11.6c0.2-0.5,0.4-1,0.7-1.5c0.6-1.1,1.4-2,2.2-2.7
			c0.9-0.7,1.8-1.2,2.9-1.5c1.1-0.3,2.2-0.3,3.4-0.1c1,0.2,1.7,0.5,2.3,0.9c0.6,0.4,1.1,0.9,1.5,1.5l1.9-9.3L105.6,101.1z
			 M97.4,113.1c-0.3-0.5-0.7-1-1.1-1.2c-0.5-0.3-0.9-0.5-1.5-0.6c-0.5-0.1-1-0.1-1.5,0c-0.5,0.1-0.9,0.4-1.3,0.7
			c-0.4,0.4-0.8,0.9-1.1,1.6c-0.3,0.7-0.6,1.5-0.8,2.5c-0.2,1-0.3,1.8-0.3,2.5s0.1,1.3,0.3,1.7c0.2,0.5,0.4,0.8,0.7,1.1
			s0.7,0.4,1.1,0.5c0.4,0.1,0.8,0.1,1.1,0.1c0.3,0,0.7-0.1,1-0.1c0.3-0.1,0.6-0.2,0.9-0.4c0.3-0.2,0.6-0.4,0.9-0.6L97.4,113.1z
			 M118.3,115c0,0.3,0,0.5-0.1,0.7c-0.1,0.2-0.2,0.3-0.3,0.4c-0.1,0.1-0.3,0.2-0.6,0.2l-10.6,2.1c0.5,1.5,1.2,2.5,2.1,3.1
			c0.9,0.5,1.9,0.7,3.1,0.5c0.6-0.1,1.2-0.3,1.6-0.6c0.3-0.2,0.7-0.4,0.9-0.6c0,0.2,0,0.4,0,0.5c0,0.9,0.1,1.6,0.4,2.2
			c0.2,0.6,0.5,1,0.9,1.4c-0.5,0.3-1,0.5-1.5,0.7c-0.7,0.2-1.3,0.4-2,0.5c-1.3,0.3-2.5,0.3-3.8,0.1c-1.2-0.2-2.3-0.6-3.3-1.3
			c-1-0.7-1.9-1.6-2.6-2.7c-0.3-0.5-0.6-1.1-0.9-1.8l2.3-11.4c0.2-0.2,0.4-0.3,0.6-0.5c1-0.7,2.2-1.2,3.6-1.5
			c1.2-0.2,2.4-0.3,3.5-0.1c1.1,0.2,2.1,0.5,2.9,1.1c0.5,0.3,1,0.7,1.4,1.2c-0.2,0.2-0.5,0.4-0.7,0.6l1,1.8c0.2,0.3,0.4,0.5,0.7,0.7
			c0.2,0.2,0.5,0.3,0.9,0.3c0.1,0.4,0.2,0.8,0.3,1.3C118.2,114.4,118.3,114.7,118.3,115z M113,113.8c-0.1-0.4-0.2-0.9-0.4-1.2
			c-0.2-0.4-0.5-0.7-0.8-1c-0.3-0.3-0.7-0.5-1.2-0.6c-0.5-0.1-1-0.1-1.6,0c-1,0.2-1.8,0.7-2.3,1.4c-0.5,0.7-0.7,1.7-0.7,2.8
			L113,113.8z M130.8,125.6v0.5h-2.6c-0.5,0-0.9-0.1-1.2-0.2c-0.3-0.2-0.5-0.5-0.7-0.9l-0.4-1c-0.5,0.4-0.9,0.8-1.4,1
			c-0.4,0.3-0.9,0.6-1.4,0.8c-0.5,0.2-1,0.4-1.5,0.5c-0.5,0.1-1.1,0.2-1.7,0.2c-0.9,0-1.6-0.1-2.3-0.3c-0.7-0.2-1.3-0.5-1.8-1
			c-0.1-0.1-0.1-0.1-0.2-0.2c0.1-0.1,0.3-0.2,0.4-0.2c0.7-0.4,1.3-0.8,1.8-1.4c0.6-0.5,1.1-1.2,1.5-2l-2-1.7
			c-0.3-0.3-0.6-0.4-1.1-0.3c-0.3,0.1-0.6,0.2-0.9,0.4c-0.3,0.2-0.6,0.4-0.9,0.7c-0.1,0.1-0.1,0.1-0.2,0.2c0.1-0.5,0.2-1,0.5-1.5
			c0.3-0.7,0.9-1.3,1.8-1.9c0.8-0.6,2-1.1,3.4-1.4c1.4-0.4,3.2-0.6,5.3-0.7v-0.8c0-1.1-0.2-1.9-0.7-2.4c-0.5-0.5-1.1-0.7-1.9-0.7
			c-0.7,0-1.2,0.1-1.6,0.2c-0.4,0.1-0.8,0.3-1.1,0.5c-0.3,0.2-0.7,0.3-1,0.5c-0.3,0.1-0.7,0.2-1.1,0.2c0,0-0.1,0-0.1,0
			c-0.3-0.8-0.6-1.5-1-2.2c-0.3-0.4-0.5-0.8-0.9-1.1c1-0.7,2-1.3,3.1-1.7c1.4-0.5,2.9-0.7,4.5-0.7c1.1,0,2.2,0.2,3.1,0.6
			c0.3,0.1,0.6,0.3,0.9,0.4l-0.2,1.4c0,0.4,0,0.6,0.2,0.8c0.2,0.2,0.4,0.3,0.7,0.4l1.6,0.2l-1.1,9.7c-0.1,0.8-0.1,1.6,0.1,2.3
			c0.2,0.7,0.5,1.3,0.9,1.8C130,125,130.4,125.3,130.8,125.6z M125.4,118.5c-1.1,0.1-2.1,0.1-2.8,0.3c-0.7,0.1-1.3,0.3-1.7,0.5
			c-0.4,0.2-0.7,0.5-0.9,0.8c-0.2,0.3-0.2,0.6-0.2,0.9c0,0.6,0.2,1.1,0.5,1.3c0.4,0.3,0.9,0.4,1.5,0.4c0.7,0,1.4-0.1,1.9-0.4
			c0.5-0.2,1.1-0.7,1.7-1.2V118.5z M136.9,111.6c0.3-0.5,0.7-1.1,1.1-1.5c0.6-0.7,1.4-1.3,2.3-1.8l0-0.1l-4.6-0.5l0.6-5.5l-2.9-0.3
			c-0.7-0.1-1.1,0.2-1.3,0.7l-1.6,4.4l-3,0.2l-0.1,0.8c0.5,0.3,1,0.7,1.4,1.1c0.6,0.7,1.1,1.4,1.4,2.3c0.3,0.9,0.5,1.9,0.5,3v11.2
			c0.2,0.1,0.3,0.2,0.5,0.3c0.7,0.3,1.4,0.5,2.3,0.6c1,0.1,1.9,0.1,2.8-0.1c0.9-0.2,1.8-0.5,2.6-1l-1.4-2.8
			c-0.1-0.2-0.2-0.3-0.3-0.4c-0.1-0.1-0.2-0.2-0.4-0.2c-0.1,0-0.2,0-0.3,0c-0.1,0-0.2,0.1-0.3,0.1c-0.1,0-0.2,0.1-0.4,0.1
			c-0.1,0-0.3,0-0.5,0c-0.4,0-0.7-0.2-0.9-0.5c-0.2-0.3-0.2-0.7-0.2-1.1l1-9.3L136.9,111.6z M155.6,119c-0.2,0.8-0.6,1.6-1,2.2
			c-0.4,0.7-0.9,1.2-1.5,1.8c-0.5,0.5-1.1,1-1.7,1.3c-0.6,0.4-1.2,0.7-1.8,1c-1.2,0.5-2.4,0.9-3.6,1c-1.2,0.1-2.4-0.1-3.5-0.5
			c-1.1-0.4-2.2-1.1-3.2-2c-1-0.9-1.8-2.2-2.5-3.7c-0.5-1.1-0.8-2.3-0.9-3.5c-0.1-1.2,0.1-2.4,0.5-3.5c0.2-0.5,0.4-1,0.7-1.5
			l3.1,0.3l0.4-3.7c0.3-0.2,0.6-0.3,0.9-0.5c1.1-0.5,2.2-0.8,3.3-0.9c1.1-0.1,2.1,0.1,3.1,0.4c1,0.4,1.9,0.9,2.7,1.7
			c0.8,0.8,1.5,1.8,2.1,3c0.2,0.4,0.3,0.7,0.4,1c0.1,0.3,0.1,0.5,0.1,0.7c0,0.2-0.1,0.3-0.2,0.5c-0.1,0.1-0.3,0.2-0.5,0.3l-9.9,4.5
			c0.8,1.4,1.7,2.2,2.7,2.5c1,0.3,2,0.2,3.2-0.3c0.6-0.3,1.1-0.6,1.4-0.9c0.4-0.3,0.7-0.7,0.9-1c0.2-0.3,0.5-0.6,0.7-0.9
			c0.2-0.3,0.5-0.5,0.8-0.6c0.4-0.2,0.8-0.2,1.1,0L155.6,119z M147.5,113.1c-0.2-0.4-0.4-0.8-0.7-1.1c-0.3-0.3-0.6-0.6-1-0.8
			c-0.4-0.2-0.8-0.3-1.3-0.3c-0.5,0-1,0.1-1.5,0.4c-1,0.4-1.6,1.1-1.9,1.9c-0.3,0.8-0.3,1.8,0,2.9L147.5,113.1z"/>
	</g>
	<g>
		<linearGradient id="SVGID_5_" gradientUnits="userSpaceOnUse" x1="223.5635" y1="111.8222" x2="301.3741" y2="111.8222">
			<stop  offset="0" style="stop-color:#DDD6F3"/>
			<stop  offset="1" style="stop-color:#FAACA8"/>
		</linearGradient>
		<path fill="url(#SVGID_5_)" d="M230.2,100.2c-0.1,0.4-0.3,0.8-0.6,1.1c-0.3,0.3-0.6,0.6-1,0.8c-0.4,0.2-0.8,0.3-1.3,0.4
			c-0.5,0-0.9,0-1.3-0.1c-0.4-0.1-0.8-0.3-1.1-0.6c-0.3-0.3-0.6-0.6-0.8-0.9c-0.2-0.4-0.4-0.8-0.4-1.2s0-0.9,0.1-1.3
			c0.1-0.4,0.3-0.8,0.6-1.1c0.3-0.3,0.6-0.6,1-0.8s0.8-0.3,1.2-0.4c0.5-0.1,0.9,0,1.3,0.1c0.4,0.1,0.8,0.3,1.2,0.6
			c0.3,0.3,0.6,0.6,0.9,1c0.2,0.4,0.4,0.8,0.4,1.2S230.3,99.8,230.2,100.2z M232.2,124.3c-0.6-0.5-1.1-1.2-1.4-2
			c-0.4-0.9-0.7-2-0.8-3.2c-0.1-1.2,0-2.6,0.3-4.1c0.2-0.8,0.4-1.5,0.7-2.2l-0.6-5.6l-5.6,0.6l2,18.7l5.6-0.6L232.2,124.3z
			 M251.4,101.1l-1.6,8c-0.8,0.6-1.4,1.3-1.9,2.1c-0.6,1-1,2.1-1.2,3.3c-0.2,1.2-0.2,2.4,0.1,3.6c0.2,0.9,0.4,1.7,0.7,2.4l-1.5,7.2
			l-3.4-0.7c-0.7-0.1-1.1-0.5-1.2-1.2l-0.1-1.5c-0.5,0.3-0.9,0.6-1.4,0.8c-0.5,0.2-1,0.4-1.5,0.6c-0.5,0.1-1.1,0.2-1.6,0.2
			c-0.6,0-1.2,0-1.8-0.2c-1-0.2-1.8-0.6-2.5-1.2c-0.1-0.1-0.2-0.2-0.3-0.3l-1.2-11.6c0.2-0.5,0.4-1,0.7-1.5c0.6-1.1,1.4-2,2.2-2.7
			c0.9-0.7,1.8-1.2,2.9-1.5c1.1-0.3,2.2-0.3,3.4-0.1c1,0.2,1.7,0.5,2.3,0.9c0.6,0.4,1.1,0.9,1.5,1.5l1.9-9.3L251.4,101.1z
			 M243.2,113.1c-0.3-0.5-0.7-1-1.1-1.2c-0.5-0.3-0.9-0.5-1.5-0.6c-0.5-0.1-1-0.1-1.5,0c-0.5,0.1-0.9,0.4-1.3,0.7
			c-0.4,0.4-0.8,0.9-1.1,1.6c-0.3,0.7-0.6,1.5-0.8,2.5c-0.2,1-0.3,1.8-0.3,2.5s0.1,1.3,0.3,1.7c0.2,0.5,0.4,0.8,0.7,1.1
			s0.7,0.4,1.1,0.5c0.4,0.1,0.8,0.1,1.1,0.1c0.3,0,0.7-0.1,1-0.1c0.3-0.1,0.6-0.2,0.9-0.4c0.3-0.2,0.6-0.4,0.9-0.6L243.2,113.1z
			 M264.1,115c0,0.3,0,0.5-0.1,0.7c-0.1,0.2-0.2,0.3-0.3,0.4c-0.1,0.1-0.3,0.2-0.6,0.2l-10.6,2.1c0.5,1.5,1.2,2.5,2.1,3.1
			c0.9,0.5,1.9,0.7,3.1,0.5c0.6-0.1,1.2-0.3,1.6-0.6c0.3-0.2,0.7-0.4,0.9-0.6c0,0.2,0,0.4,0,0.5c0,0.9,0.1,1.6,0.4,2.2
			c0.2,0.6,0.5,1,0.9,1.4c-0.5,0.3-1,0.5-1.5,0.7c-0.7,0.2-1.3,0.4-2,0.5c-1.3,0.3-2.5,0.3-3.8,0.1c-1.2-0.2-2.3-0.6-3.3-1.3
			c-1-0.7-1.9-1.6-2.6-2.7c-0.3-0.5-0.6-1.1-0.9-1.8l2.3-11.4c0.2-0.2,0.4-0.3,0.6-0.5c1-0.7,2.2-1.2,3.6-1.5
			c1.2-0.2,2.4-0.3,3.5-0.1c1.1,0.2,2.1,0.5,2.9,1.1c0.5,0.3,1,0.7,1.4,1.2c-0.2,0.2-0.5,0.4-0.7,0.6l1,1.8c0.2,0.3,0.4,0.5,0.7,0.7
			c0.2,0.2,0.5,0.3,0.9,0.3c0.1,0.4,0.2,0.8,0.3,1.3C264,114.4,264.1,114.7,264.1,115z M258.8,113.8c-0.1-0.4-0.2-0.9-0.4-1.2
			c-0.2-0.4-0.5-0.7-0.8-1c-0.3-0.3-0.7-0.5-1.2-0.6c-0.5-0.1-1-0.1-1.6,0c-1,0.2-1.8,0.7-2.3,1.4c-0.5,0.7-0.7,1.7-0.7,2.8
			L258.8,113.8z M276.6,125.6v0.5h-2.6c-0.5,0-0.9-0.1-1.2-0.2c-0.3-0.2-0.5-0.5-0.7-0.9l-0.4-1c-0.5,0.4-0.9,0.8-1.4,1
			c-0.4,0.3-0.9,0.6-1.4,0.8c-0.5,0.2-1,0.4-1.5,0.5c-0.5,0.1-1.1,0.2-1.7,0.2c-0.9,0-1.6-0.1-2.3-0.3c-0.7-0.2-1.3-0.5-1.8-1
			c-0.1-0.1-0.1-0.1-0.2-0.2c0.1-0.1,0.3-0.2,0.4-0.2c0.7-0.4,1.3-0.8,1.8-1.4c0.6-0.5,1.1-1.2,1.5-2l-2-1.7
			c-0.3-0.3-0.6-0.4-1.1-0.3c-0.3,0.1-0.6,0.2-0.9,0.4c-0.3,0.2-0.6,0.4-0.9,0.7c-0.1,0.1-0.1,0.1-0.2,0.2c0.1-0.5,0.2-1,0.5-1.5
			c0.3-0.7,0.9-1.3,1.8-1.9c0.8-0.6,2-1.1,3.4-1.4c1.4-0.4,3.2-0.6,5.3-0.7v-0.8c0-1.1-0.2-1.9-0.7-2.4c-0.5-0.5-1.1-0.7-1.9-0.7
			c-0.7,0-1.2,0.1-1.6,0.2c-0.4,0.1-0.8,0.3-1.1,0.5c-0.3,0.2-0.7,0.3-1,0.5c-0.3,0.1-0.7,0.2-1.1,0.2c0,0-0.1,0-0.1,0
			c-0.3-0.8-0.6-1.5-1-2.2c-0.3-0.4-0.5-0.8-0.9-1.1c1-0.7,2-1.3,3.1-1.7c1.4-0.5,2.9-0.7,4.5-0.7c1.1,0,2.2,0.2,3.1,0.6
			c0.3,0.1,0.6,0.3,0.9,0.4l-0.2,1.4c0,0.4,0,0.6,0.2,0.8c0.2,0.2,0.4,0.3,0.7,0.4l1.6,0.2l-1.1,9.7c-0.1,0.8-0.1,1.6,0.1,2.3
			c0.2,0.7,0.5,1.3,0.9,1.8C275.8,125,276.2,125.3,276.6,125.6z M271.2,118.5c-1.1,0.1-2.1,0.1-2.8,0.3c-0.7,0.1-1.3,0.3-1.7,0.5
			c-0.4,0.2-0.7,0.5-0.9,0.8c-0.2,0.3-0.2,0.6-0.2,0.9c0,0.6,0.2,1.1,0.5,1.3c0.4,0.3,0.9,0.4,1.5,0.4c0.7,0,1.4-0.1,1.9-0.4
			c0.5-0.2,1.1-0.7,1.7-1.2V118.5z M282.8,111.6c0.3-0.5,0.7-1.1,1.1-1.5c0.6-0.7,1.4-1.3,2.3-1.8l0-0.1l-4.6-0.5l0.6-5.5l-2.9-0.3
			c-0.7-0.1-1.1,0.2-1.3,0.7l-1.6,4.4l-3,0.2l-0.1,0.8c0.5,0.3,1,0.7,1.4,1.1c0.6,0.7,1.1,1.4,1.4,2.3c0.3,0.9,0.5,1.9,0.5,3v11.2
			c0.2,0.1,0.3,0.2,0.5,0.3c0.7,0.3,1.4,0.5,2.3,0.6c1,0.1,1.9,0.1,2.8-0.1c0.9-0.2,1.8-0.5,2.6-1l-1.4-2.8
			c-0.1-0.2-0.2-0.3-0.3-0.4c-0.1-0.1-0.2-0.2-0.4-0.2c-0.1,0-0.2,0-0.3,0c-0.1,0-0.2,0.1-0.3,0.1c-0.1,0-0.2,0.1-0.4,0.1
			c-0.1,0-0.3,0-0.5,0c-0.4,0-0.7-0.2-0.9-0.5c-0.2-0.3-0.2-0.7-0.2-1.1l1-9.3L282.8,111.6z M301.4,119c-0.2,0.8-0.6,1.6-1,2.2
			c-0.4,0.7-0.9,1.2-1.5,1.8c-0.5,0.5-1.1,1-1.7,1.3c-0.6,0.4-1.2,0.7-1.8,1c-1.2,0.5-2.4,0.9-3.6,1c-1.2,0.1-2.4-0.1-3.5-0.5
			c-1.1-0.4-2.2-1.1-3.2-2c-1-0.9-1.8-2.2-2.5-3.7c-0.5-1.1-0.8-2.3-0.9-3.5c-0.1-1.2,0.1-2.4,0.5-3.5c0.2-0.5,0.4-1,0.7-1.5
			l3.1,0.3l0.4-3.7c0.3-0.2,0.6-0.3,0.9-0.5c1.1-0.5,2.2-0.8,3.3-0.9c1.1-0.1,2.1,0.1,3.1,0.4c1,0.4,1.9,0.9,2.7,1.7
			c0.8,0.8,1.5,1.8,2.1,3c0.2,0.4,0.3,0.7,0.4,1c0.1,0.3,0.1,0.5,0.1,0.7c0,0.2-0.1,0.3-0.2,0.5c-0.1,0.1-0.3,0.2-0.5,0.3l-9.9,4.5
			c0.8,1.4,1.7,2.2,2.7,2.5c1,0.3,2,0.2,3.2-0.3c0.6-0.3,1.1-0.6,1.4-0.9c0.4-0.3,0.7-0.7,0.9-1c0.2-0.3,0.5-0.6,0.7-0.9
			c0.2-0.3,0.5-0.5,0.8-0.6c0.4-0.2,0.8-0.2,1.1,0L301.4,119z M293.3,113.1c-0.2-0.4-0.4-0.8-0.7-1.1c-0.3-0.3-0.6-0.6-1-0.8
			c-0.4-0.2-0.8-0.3-1.3-0.3c-0.5,0-1,0.1-1.5,0.4c-1,0.4-1.6,1.1-1.9,1.9c-0.3,0.8-0.3,1.8,0,2.9L293.3,113.1z"/>
	</g>
	<g>
		<linearGradient id="SVGID_6_" gradientUnits="userSpaceOnUse" x1="369.3792" y1="111.8222" x2="447.1898" y2="111.8222">
			<stop  offset="0" style="stop-color:#FF5858"/>
			<stop  offset="1" style="stop-color:#F857A6"/>
		</linearGradient>
		<path fill="url(#SVGID_6_)" d="M376,100.2c-0.1,0.4-0.3,0.8-0.6,1.1c-0.3,0.3-0.6,0.6-1,0.8c-0.4,0.2-0.8,0.3-1.3,0.4
			c-0.5,0-0.9,0-1.3-0.1c-0.4-0.1-0.8-0.3-1.1-0.6c-0.3-0.3-0.6-0.6-0.8-0.9c-0.2-0.4-0.4-0.8-0.4-1.2s0-0.9,0.1-1.3
			c0.1-0.4,0.3-0.8,0.6-1.1c0.3-0.3,0.6-0.6,1-0.8s0.8-0.3,1.2-0.4c0.5-0.1,0.9,0,1.3,0.1c0.4,0.1,0.8,0.3,1.2,0.6
			c0.3,0.3,0.6,0.6,0.9,1c0.2,0.4,0.4,0.8,0.4,1.2S376.1,99.8,376,100.2z M378,124.3c-0.6-0.5-1.1-1.2-1.4-2c-0.4-0.9-0.7-2-0.8-3.2
			c-0.1-1.2,0-2.6,0.3-4.1c0.2-0.8,0.4-1.5,0.7-2.2l-0.6-5.6l-5.6,0.6l2,18.7l5.6-0.6L378,124.3z M397.2,101.1l-1.6,8
			c-0.8,0.6-1.4,1.3-1.9,2.1c-0.6,1-1,2.1-1.2,3.3c-0.2,1.2-0.2,2.4,0.1,3.6c0.2,0.9,0.4,1.7,0.7,2.4l-1.5,7.2l-3.4-0.7
			c-0.7-0.1-1.1-0.5-1.2-1.2l-0.1-1.5c-0.5,0.3-0.9,0.6-1.4,0.8c-0.5,0.2-1,0.4-1.5,0.6c-0.5,0.1-1.1,0.2-1.6,0.2
			c-0.6,0-1.2,0-1.8-0.2c-1-0.2-1.8-0.6-2.5-1.2c-0.1-0.1-0.2-0.2-0.3-0.3l-1.2-11.6c0.2-0.5,0.4-1,0.7-1.5c0.6-1.1,1.4-2,2.2-2.7
			c0.9-0.7,1.8-1.2,2.9-1.5c1.1-0.3,2.2-0.3,3.4-0.1c1,0.2,1.7,0.5,2.3,0.9c0.6,0.4,1.1,0.9,1.5,1.5l1.9-9.3L397.2,101.1z
			 M389,113.1c-0.3-0.5-0.7-1-1.1-1.2c-0.5-0.3-0.9-0.5-1.5-0.6c-0.5-0.1-1-0.1-1.5,0c-0.5,0.1-0.9,0.4-1.3,0.7
			c-0.4,0.4-0.8,0.9-1.1,1.6c-0.3,0.7-0.6,1.5-0.8,2.5c-0.2,1-0.3,1.8-0.3,2.5s0.1,1.3,0.3,1.7c0.2,0.5,0.4,0.8,0.7,1.1
			s0.7,0.4,1.1,0.5c0.4,0.1,0.8,0.1,1.1,0.1c0.3,0,0.7-0.1,1-0.1c0.3-0.1,0.6-0.2,0.9-0.4c0.3-0.2,0.6-0.4,0.9-0.6L389,113.1z
			 M409.9,115c0,0.3,0,0.5-0.1,0.7c-0.1,0.2-0.2,0.3-0.3,0.4c-0.1,0.1-0.3,0.2-0.6,0.2l-10.6,2.1c0.5,1.5,1.2,2.5,2.1,3.1
			c0.9,0.5,1.9,0.7,3.1,0.5c0.6-0.1,1.2-0.3,1.6-0.6c0.3-0.2,0.7-0.4,0.9-0.6c0,0.2,0,0.4,0,0.5c0,0.9,0.1,1.6,0.4,2.2
			c0.2,0.6,0.5,1,0.9,1.4c-0.5,0.3-1,0.5-1.5,0.7c-0.7,0.2-1.3,0.4-2,0.5c-1.3,0.3-2.5,0.3-3.8,0.1c-1.2-0.2-2.3-0.6-3.3-1.3
			c-1-0.7-1.9-1.6-2.6-2.7c-0.3-0.5-0.6-1.1-0.9-1.8l2.3-11.4c0.2-0.2,0.4-0.3,0.6-0.5c1-0.7,2.2-1.2,3.6-1.5
			c1.2-0.2,2.4-0.3,3.5-0.1c1.1,0.2,2.1,0.5,2.9,1.1c0.5,0.3,1,0.7,1.4,1.2c-0.2,0.2-0.5,0.4-0.7,0.6l1,1.8c0.2,0.3,0.4,0.5,0.7,0.7
			c0.2,0.2,0.5,0.3,0.9,0.3c0.1,0.4,0.2,0.8,0.3,1.3C409.8,114.4,409.9,114.7,409.9,115z M404.6,113.8c-0.1-0.4-0.2-0.9-0.4-1.2
			c-0.2-0.4-0.5-0.7-0.8-1c-0.3-0.3-0.7-0.5-1.2-0.6c-0.5-0.1-1-0.1-1.6,0c-1,0.2-1.8,0.7-2.3,1.4c-0.5,0.7-0.7,1.7-0.7,2.8
			L404.6,113.8z M422.5,125.6v0.5h-2.6c-0.5,0-0.9-0.1-1.2-0.2c-0.3-0.2-0.5-0.5-0.7-0.9l-0.4-1c-0.5,0.4-0.9,0.8-1.4,1
			c-0.4,0.3-0.9,0.6-1.4,0.8c-0.5,0.2-1,0.4-1.5,0.5c-0.5,0.1-1.1,0.2-1.7,0.2c-0.9,0-1.6-0.1-2.3-0.3c-0.7-0.2-1.3-0.5-1.8-1
			c-0.1-0.1-0.1-0.1-0.2-0.2c0.1-0.1,0.3-0.2,0.4-0.2c0.7-0.4,1.3-0.8,1.8-1.4c0.6-0.5,1.1-1.2,1.5-2l-2-1.7
			c-0.3-0.3-0.6-0.4-1.1-0.3c-0.3,0.1-0.6,0.2-0.9,0.4c-0.3,0.2-0.6,0.4-0.9,0.7c-0.1,0.1-0.1,0.1-0.2,0.2c0.1-0.5,0.2-1,0.5-1.5
			c0.3-0.7,0.9-1.3,1.8-1.9c0.8-0.6,2-1.1,3.4-1.4c1.4-0.4,3.2-0.6,5.3-0.7v-0.8c0-1.1-0.2-1.9-0.7-2.4c-0.5-0.5-1.1-0.7-1.9-0.7
			c-0.7,0-1.2,0.1-1.6,0.2c-0.4,0.1-0.8,0.3-1.1,0.5c-0.3,0.2-0.7,0.3-1,0.5c-0.3,0.1-0.7,0.2-1.1,0.2c0,0-0.1,0-0.1,0
			c-0.3-0.8-0.6-1.5-1-2.2c-0.3-0.4-0.5-0.8-0.9-1.1c1-0.7,2-1.3,3.1-1.7c1.4-0.5,2.9-0.7,4.5-0.7c1.1,0,2.2,0.2,3.1,0.6
			c0.3,0.1,0.6,0.3,0.9,0.4l-0.2,1.4c0,0.4,0,0.6,0.2,0.8c0.2,0.2,0.4,0.3,0.7,0.4l1.6,0.2l-1.1,9.7c-0.1,0.8-0.1,1.6,0.1,2.3
			c0.2,0.7,0.5,1.3,0.9,1.8C421.6,125,422,125.3,422.5,125.6z M417,118.5c-1.1,0.1-2.1,0.1-2.8,0.3c-0.7,0.1-1.3,0.3-1.7,0.5
			c-0.4,0.2-0.7,0.5-0.9,0.8c-0.2,0.3-0.2,0.6-0.2,0.9c0,0.6,0.2,1.1,0.5,1.3c0.4,0.3,0.9,0.4,1.5,0.4c0.7,0,1.4-0.1,1.9-0.4
			c0.5-0.2,1.1-0.7,1.7-1.2V118.5z M428.6,111.6c0.3-0.5,0.7-1.1,1.1-1.5c0.6-0.7,1.4-1.3,2.3-1.8l0-0.1l-4.6-0.5l0.6-5.5l-2.9-0.3
			c-0.7-0.1-1.1,0.2-1.3,0.7l-1.6,4.4l-3,0.2l-0.1,0.8c0.5,0.3,1,0.7,1.4,1.1c0.6,0.7,1.1,1.4,1.4,2.3c0.3,0.9,0.5,1.9,0.5,3v11.2
			c0.2,0.1,0.3,0.2,0.5,0.3c0.7,0.3,1.4,0.5,2.3,0.6c1,0.1,1.9,0.1,2.8-0.1c0.9-0.2,1.8-0.5,2.6-1l-1.4-2.8
			c-0.1-0.2-0.2-0.3-0.3-0.4c-0.1-0.1-0.2-0.2-0.4-0.2c-0.1,0-0.2,0-0.3,0c-0.1,0-0.2,0.1-0.3,0.1c-0.1,0-0.2,0.1-0.4,0.1
			c-0.1,0-0.3,0-0.5,0c-0.4,0-0.7-0.2-0.9-0.5c-0.2-0.3-0.2-0.7-0.2-1.1l1-9.3L428.6,111.6z M447.2,119c-0.2,0.8-0.6,1.6-1,2.2
			c-0.4,0.7-0.9,1.2-1.5,1.8c-0.5,0.5-1.1,1-1.7,1.3c-0.6,0.4-1.2,0.7-1.8,1c-1.2,0.5-2.4,0.9-3.6,1c-1.2,0.1-2.4-0.1-3.5-0.5
			c-1.1-0.4-2.2-1.1-3.2-2c-1-0.9-1.8-2.2-2.5-3.7c-0.5-1.1-0.8-2.3-0.9-3.5c-0.1-1.2,0.1-2.4,0.5-3.5c0.2-0.5,0.4-1,0.7-1.5
			l3.1,0.3l0.4-3.7c0.3-0.2,0.6-0.3,0.9-0.5c1.1-0.5,2.2-0.8,3.3-0.9c1.1-0.1,2.1,0.1,3.1,0.4c1,0.4,1.9,0.9,2.7,1.7
			c0.8,0.8,1.5,1.8,2.1,3c0.2,0.4,0.3,0.7,0.4,1c0.1,0.3,0.1,0.5,0.1,0.7c0,0.2-0.1,0.3-0.2,0.5c-0.1,0.1-0.3,0.2-0.5,0.3L434,119
			c0.8,1.4,1.7,2.2,2.7,2.5c1,0.3,2,0.2,3.2-0.3c0.6-0.3,1.1-0.6,1.4-0.9c0.4-0.3,0.7-0.7,0.9-1c0.2-0.3,0.5-0.6,0.7-0.9
			c0.2-0.3,0.5-0.5,0.8-0.6c0.4-0.2,0.8-0.2,1.1,0L447.2,119z M439.1,113.1c-0.2-0.4-0.4-0.8-0.7-1.1c-0.3-0.3-0.6-0.6-1-0.8
			c-0.4-0.2-0.8-0.3-1.3-0.3c-0.5,0-1,0.1-1.5,0.4c-1,0.4-1.6,1.1-1.9,1.9c-0.3,0.8-0.3,1.8,0,2.9L439.1,113.1z"/>
	</g>
	<g>
		<g>
			<path fill="#E84C3C" d="M230.3,46.4c-0.1,0.4-0.3,0.8-0.6,1.1c-0.3,0.3-0.6,0.6-1,0.8c-0.4,0.2-0.8,0.3-1.3,0.4
				c-0.5,0-0.9,0-1.3-0.1c-0.4-0.1-0.8-0.3-1.1-0.6c-0.3-0.3-0.6-0.6-0.8-0.9c-0.2-0.4-0.4-0.8-0.4-1.2s0-0.9,0.1-1.3
				c0.1-0.4,0.3-0.8,0.6-1.1c0.3-0.3,0.6-0.6,1-0.8s0.8-0.3,1.2-0.4c0.5-0.1,0.9,0,1.3,0.1c0.4,0.1,0.8,0.3,1.2,0.6
				c0.3,0.3,0.6,0.6,0.9,1c0.2,0.4,0.4,0.8,0.4,1.2S230.4,46,230.3,46.4z"/>
			<path fill="#E84C3C" d="M232.4,72l-5.6,0.6l-2-18.7l5.6-0.6L231,59c-0.3,0.7-0.5,1.4-0.7,2.2c-0.3,1.5-0.4,2.9-0.3,4.1
				c0.1,1.2,0.4,2.3,0.8,3.2c0.4,0.8,0.8,1.5,1.4,2L232.4,72z"/>
		</g>
		<path fill="#3599DC" d="M246,46.2l-1.9,9.3c-0.4-0.6-1-1-1.5-1.5c-0.6-0.4-1.4-0.7-2.3-0.9c-1.2-0.2-2.3-0.2-3.4,0.1
			c-1.1,0.3-2,0.8-2.9,1.5c-0.9,0.7-1.6,1.6-2.2,2.7c-0.3,0.5-0.5,1-0.7,1.5l1.2,11.6c0.1,0.1,0.2,0.2,0.3,0.3
			c0.7,0.6,1.6,1,2.5,1.2c0.6,0.1,1.2,0.2,1.8,0.2c0.6,0,1.1-0.1,1.6-0.2c0.5-0.1,1-0.3,1.5-0.6c0.5-0.2,0.9-0.5,1.4-0.8l0.1,1.5
			c0.1,0.7,0.5,1.1,1.2,1.2l3.4,0.7l1.5-7.2c-0.3-0.7-0.5-1.5-0.7-2.4c-0.2-1.2-0.3-2.4-0.1-3.6c0.2-1.2,0.6-2.3,1.2-3.3
			c0.5-0.8,1.1-1.5,1.9-2.1l1.6-8L246,46.2z M241.7,67.1c-0.3,0.2-0.6,0.4-0.9,0.6c-0.3,0.2-0.6,0.3-0.9,0.4c-0.3,0.1-0.6,0.1-1,0.1
			c-0.3,0-0.7,0-1.1-0.1c-0.4-0.1-0.8-0.3-1.1-0.5s-0.6-0.6-0.7-1.1c-0.2-0.5-0.2-1-0.3-1.7s0.1-1.5,0.3-2.5c0.2-1,0.5-1.9,0.8-2.5
			c0.3-0.7,0.7-1.2,1.1-1.6c0.4-0.4,0.8-0.6,1.3-0.7c0.5-0.1,0.9-0.1,1.5,0c0.5,0.1,1,0.3,1.5,0.6c0.5,0.3,0.8,0.7,1.1,1.2
			L241.7,67.1z"/>
		<path fill="#E77E22" d="M264.1,60.2c-0.1-0.4-0.2-0.9-0.3-1.3c-0.3,0-0.6-0.1-0.9-0.3c-0.3-0.2-0.5-0.4-0.7-0.7l-1-1.8
			c0.2-0.2,0.5-0.4,0.7-0.6c-0.4-0.5-0.9-0.9-1.4-1.2c-0.9-0.6-1.9-1-2.9-1.1c-1.1-0.2-2.2-0.1-3.5,0.1c-1.4,0.3-2.6,0.8-3.6,1.5
			c-0.2,0.1-0.4,0.3-0.6,0.5l-2.3,11.4c0.2,0.6,0.5,1.2,0.9,1.8c0.7,1.1,1.6,2,2.6,2.7c1,0.7,2.1,1.1,3.3,1.3
			c1.2,0.2,2.5,0.2,3.8-0.1c0.6-0.1,1.3-0.3,2-0.5c0.5-0.2,1-0.4,1.5-0.7c-0.4-0.4-0.7-0.9-0.9-1.4c-0.3-0.7-0.4-1.4-0.4-2.2
			c0-0.2,0-0.3,0-0.5c-0.3,0.2-0.6,0.4-0.9,0.6c-0.4,0.2-1,0.4-1.6,0.6c-1.2,0.2-2.2,0.1-3.1-0.5c-0.9-0.5-1.6-1.6-2.1-3.1l10.6-2.1
			c0.2,0,0.4-0.1,0.6-0.2c0.2-0.1,0.3-0.2,0.3-0.4c0.1-0.2,0.1-0.4,0.1-0.7C264.2,61,264.1,60.6,264.1,60.2z M252,61.4
			c0-1.2,0.2-2.1,0.7-2.8c0.5-0.7,1.2-1.2,2.3-1.4c0.6-0.1,1.1-0.1,1.6,0c0.4,0.1,0.8,0.3,1.2,0.6c0.3,0.3,0.6,0.6,0.8,1
			c0.2,0.4,0.3,0.8,0.4,1.2L252,61.4z"/>
		<path fill="#9C5AB7" d="M275.6,70.8c-0.4-0.5-0.7-1.1-0.9-1.8c-0.2-0.7-0.2-1.5-0.1-2.3l1.1-9.7l-1.6-0.2c-0.3,0-0.5-0.1-0.7-0.4
			c-0.2-0.2-0.2-0.5-0.2-0.8l0.2-1.4c-0.3-0.2-0.6-0.3-0.9-0.4c-0.9-0.4-1.9-0.6-3.1-0.6c-1.6,0-3.1,0.2-4.5,0.7
			c-1.1,0.4-2.1,1-3.1,1.7c0.3,0.3,0.6,0.7,0.9,1.1c0.4,0.6,0.7,1.4,1,2.2c0,0,0.1,0,0.1,0c0.4,0,0.8-0.1,1.1-0.2
			c0.3-0.2,0.6-0.3,1-0.5c0.3-0.2,0.7-0.3,1.1-0.5c0.4-0.1,1-0.2,1.6-0.2c0.8,0,1.5,0.2,1.9,0.7c0.5,0.5,0.7,1.3,0.7,2.4v0.8
			c-2.2,0-3.9,0.3-5.3,0.7c-1.4,0.4-2.5,0.9-3.4,1.4c-0.8,0.6-1.4,1.2-1.8,1.9c-0.2,0.5-0.4,1-0.5,1.5c0.1,0,0.1-0.1,0.2-0.2
			c0.3-0.3,0.6-0.5,0.9-0.7c0.3-0.2,0.6-0.4,0.9-0.4c0.4-0.1,0.8,0,1.1,0.3l2,1.7c-0.4,0.8-0.9,1.4-1.5,2c-0.6,0.5-1.2,1-1.8,1.4
			c-0.1,0.1-0.3,0.2-0.4,0.2c0.1,0.1,0.1,0.1,0.2,0.2c0.5,0.4,1.1,0.8,1.8,1c0.7,0.2,1.5,0.3,2.3,0.3c0.6,0,1.2-0.1,1.7-0.2
			c0.5-0.1,1-0.3,1.5-0.5c0.5-0.2,0.9-0.5,1.4-0.8c0.4-0.3,0.9-0.7,1.4-1l0.4,1c0.2,0.5,0.4,0.8,0.7,0.9c0.3,0.1,0.7,0.2,1.2,0.2
			h2.6v-0.5C276.3,71.6,275.9,71.2,275.6,70.8z M271.3,67.4c-0.6,0.6-1.1,1-1.7,1.2c-0.5,0.2-1.2,0.4-1.9,0.4
			c-0.7,0-1.2-0.1-1.5-0.4c-0.3-0.3-0.5-0.7-0.5-1.3c0-0.3,0.1-0.6,0.2-0.9c0.2-0.3,0.5-0.5,0.9-0.8c0.4-0.2,1-0.4,1.7-0.5
			c0.7-0.2,1.7-0.2,2.8-0.3V67.4z"/>
		<path fill="#2ECC71" d="M281.3,57.7l-1,9.3c0,0.4,0,0.8,0.2,1.1c0.2,0.3,0.5,0.5,0.9,0.5c0.2,0,0.4,0,0.5,0c0.1,0,0.3-0.1,0.4-0.1
			c0.1,0,0.2-0.1,0.3-0.1c0.1,0,0.2,0,0.3,0c0.2,0,0.3,0.1,0.4,0.2c0.1,0.1,0.2,0.2,0.3,0.4l1.4,2.8c-0.8,0.5-1.6,0.8-2.6,1
			c-0.9,0.2-1.9,0.2-2.8,0.1c-0.9-0.1-1.7-0.3-2.3-0.6c-0.2-0.1-0.3-0.2-0.5-0.3V60.7c0-1.1-0.2-2.1-0.5-3c-0.3-0.9-0.8-1.7-1.4-2.3
			c-0.4-0.4-0.9-0.8-1.4-1.1l0.1-0.8l3-0.2l1.6-4.4c0.2-0.6,0.7-0.8,1.3-0.7l2.9,0.3l-0.6,5.5l4.6,0.5l0,0.1
			c-0.9,0.5-1.7,1.1-2.3,1.8c-0.5,0.5-0.8,1-1.1,1.5L281.3,57.7z"/>
		<path fill="#F2C50F" d="M299.2,64.1c-0.3-0.2-0.7-0.2-1.1,0c-0.3,0.1-0.6,0.4-0.8,0.6c-0.2,0.3-0.5,0.6-0.7,0.9
			c-0.3,0.3-0.6,0.7-0.9,1c-0.4,0.3-0.8,0.6-1.4,0.9c-1.1,0.5-2.2,0.6-3.2,0.3c-1-0.3-1.9-1.2-2.7-2.5l9.9-4.5
			c0.2-0.1,0.4-0.2,0.5-0.3c0.1-0.1,0.2-0.3,0.2-0.5c0-0.2,0-0.4-0.1-0.7c-0.1-0.3-0.2-0.6-0.4-1c-0.6-1.2-1.3-2.2-2.1-3
			c-0.8-0.8-1.7-1.4-2.7-1.7c-1-0.4-2-0.5-3.1-0.4c-1.1,0.1-2.2,0.4-3.3,0.9c-0.3,0.1-0.6,0.3-0.9,0.5l-0.4,3.7l-3.1-0.3
			c-0.3,0.5-0.5,1-0.7,1.5c-0.4,1.1-0.5,2.2-0.5,3.5c0.1,1.2,0.4,2.4,0.9,3.5c0.7,1.5,1.5,2.8,2.5,3.7c1,0.9,2,1.6,3.2,2
			c1.1,0.4,2.3,0.6,3.5,0.5c1.2-0.1,2.4-0.4,3.6-1c0.6-0.3,1.2-0.6,1.8-1c0.6-0.4,1.2-0.8,1.7-1.3c0.5-0.5,1-1.1,1.5-1.8
			c0.4-0.7,0.8-1.4,1-2.2L299.2,64.1z M287,62.3c-0.3-1.1-0.3-2.1,0-2.9c0.3-0.8,0.9-1.4,1.9-1.9c0.5-0.2,1.1-0.4,1.5-0.4
			c0.5,0,0.9,0.1,1.3,0.3c0.4,0.2,0.7,0.5,1,0.8c0.3,0.3,0.5,0.7,0.7,1.1L287,62.3z"/>
	</g>
	<g>
		<g>
			<g id="mUsoxf_1_">
				
					<image overflow="visible" width="1920" height="1000" id="mUsoxf" xlink:href="E52733DEC6DE7987.jpg"  transform="matrix(3.679875e-02 0 0 3.679875e-02 517.5672 95.9784)">
				</image>
			</g>
			<path fill="#FFFFFF" d="M532.3,96v8.8c-0.5-0.5-1.2-0.8-1.8-1.1c-0.7-0.3-1.5-0.4-2.5-0.4c-1.2,0-2.3,0.2-3.3,0.8
				c-1,0.5-1.8,1.1-2.5,2v-2.4h-4.9V101c0.2,0.2,0.5,0.3,0.7,0.4c0.4,0.2,0.8,0.3,1.3,0.3c0.5,0,0.9-0.1,1.3-0.3
				c0.4-0.2,0.8-0.4,1.1-0.7c0.3-0.3,0.6-0.6,0.7-1c0.2-0.4,0.3-0.8,0.3-1.3c0-0.5-0.1-0.9-0.3-1.3c-0.2-0.4-0.4-0.8-0.7-1.1
				c-0.1,0-0.1-0.1-0.2-0.1H532.3z M537.9,96v10.1l0,0c0.8-0.9,1.8-1.5,2.9-2c1.1-0.5,2.4-0.8,3.9-0.8c1.2,0,2.4,0.2,3.4,0.6
				c1,0.4,1.9,1,2.7,1.7c0,0,0.1,0.1,0.1,0.1c1-0.7,2-1.3,3.1-1.7c1.4-0.5,2.9-0.7,4.5-0.7c1.1,0,2.2,0.2,3.1,0.6
				c0.3,0.1,0.6,0.3,0.9,0.4v0l3-0.6l1.1-4.6c0.2-0.6,0.6-0.9,1.2-0.9h2.9v5.5h4.7v1.2c0.4-0.3,0.9-0.5,1.4-0.7
				c1.1-0.5,2.4-0.8,3.9-0.8c1.2,0,2.4,0.2,3.4,0.6c1,0.4,1.9,1,2.7,1.7c0.7,0.7,1.2,1.4,1.6,2.3V96H537.9z M536.1,109
				c-0.4,1.1-0.6,2.3-0.6,3.6c0,1.7,0.2,3.1,0.8,4.4c0.4,1.1,1,2,1.7,2.8v-13.7C537.1,106.9,536.5,107.9,536.1,109z M524.1,122
				c-0.7-0.3-1.3-0.8-1.8-1.5v1.8h2.5C524.6,122.2,524.3,122.1,524.1,122z M533.1,121.4l-0.4-1.4c-0.4,0.4-0.8,0.8-1.2,1.1
				c-0.4,0.3-0.9,0.6-1.3,0.8c-0.3,0.2-0.7,0.3-1,0.4h4.9C533.6,122.2,533.3,121.9,533.1,121.4z M541.3,122c-1.2-0.4-2.2-1.1-3-1.9
				c-0.1-0.1-0.2-0.2-0.3-0.3v2.6h4.4C541.9,122.3,541.6,122.1,541.3,122z M550.9,121.3C550.9,121.3,550.9,121.3,550.9,121.3
				c-0.6,0.2-1.2,0.5-1.8,0.7c-0.3,0.1-0.7,0.2-1,0.3h4.6C552,122.1,551.4,121.8,550.9,121.3z M562.1,122.2
				c-0.3-0.2-0.5-0.5-0.7-0.9l-0.4-1c-0.5,0.4-0.9,0.8-1.4,1.1c-0.4,0.3-0.9,0.6-1.3,0.8c-0.2,0.1-0.5,0.2-0.8,0.3h5.1
				C562.4,122.3,562.2,122.2,562.1,122.2z M568.2,122.3c-0.7-0.3-1.3-0.6-1.7-1.1c-0.2-0.2-0.5-0.5-0.6-0.8v2h2.5
				C568.3,122.3,568.3,122.3,568.2,122.3z M577.1,122c-0.6-0.2-1.1-0.5-1.6-0.8c-0.7,0.4-1.4,0.8-2.1,1c-0.1,0-0.2,0.1-0.3,0.1h5
				C577.8,122.3,577.5,122.1,577.1,122z M574.1,118.4c-0.1-0.2-0.2-0.3-0.3-0.4c-0.1-0.1-0.2-0.1-0.4-0.1c-0.1,0-0.2,0-0.3,0.1
				c-0.1,0-0.2,0.1-0.3,0.1c0,0-0.1,0.1-0.2,0.1c0.4,0.7,0.9,1.4,1.5,1.9c0.4,0.4,0.9,0.8,1.4,1.1c0.1-0.1,0.2-0.1,0.3-0.2
				L574.1,118.4z M587,121.1c-0.7,0.4-1.4,0.8-2.1,1c-0.3,0.1-0.7,0.2-1,0.3h4.3v-2.2C587.8,120.5,587.4,120.8,587,121.1z
				 M587.7,114h-10.8c0.2,1.6,0.7,2.7,1.4,3.4c0.8,0.7,1.8,1.1,3,1.1c0.6,0,1.2-0.1,1.7-0.2c0.5-0.2,0.9-0.3,1.3-0.5
				c0.4-0.2,0.7-0.4,1-0.5c0.3-0.2,0.6-0.2,1-0.2c0.5,0,0.8,0.2,1,0.5l1,1.2v-4.7C588.1,114,587.9,114,587.7,114z M573.8,106.1
				c-0.4,0.4-0.8,0.9-1.1,1.4h2.6v-2.7C574.8,105.2,574.2,105.6,573.8,106.1z M571.3,112.6c0-1.3,0.2-2.5,0.7-3.6
				c0.2-0.6,0.5-1.1,0.8-1.5h-2v9.3c0,0.4,0.1,0.8,0.3,1.1c0.2,0.3,0.5,0.4,0.9,0.4c0.2,0,0.4,0,0.5-0.1c0.1,0,0.1,0,0.2-0.1
				c-0.2-0.4-0.4-0.8-0.6-1.2C571.5,115.7,571.3,114.3,571.3,112.6z M565.3,107.7c-0.3-0.9-0.8-1.7-1.5-2.3
				c-0.4-0.4-0.9-0.8-1.5-1.1v2.2c0,0.4,0.1,0.6,0.3,0.8c0.2,0.2,0.5,0.3,0.7,0.3h1.6v9.7c0,0.8,0.1,1.6,0.4,2.3
				c0.1,0.3,0.2,0.6,0.4,0.9v-9.7C565.8,109.6,565.7,108.6,565.3,107.7z M551.4,117.4c-0.2-0.3-0.6-0.5-1-0.5c-0.3,0-0.7,0.1-1,0.2
				c0,0,0,0,0,0c0,0.1,0,0.2,0,0.3c0,0.8,0.1,1.6,0.4,2.2c0.2,0.6,0.6,1.1,1,1.5c0.1-0.1,0.2-0.1,0.3-0.2c0.7-0.4,1.3-1,1.9-1.6
				L551.4,117.4z M551.7,113.5c-0.2,0.1-0.4,0.3-0.6,0.5h0.8c0.2,0,0.5,0,0.6-0.1c0.2-0.1,0.3-0.2,0.4-0.3c0.1-0.2,0.2-0.4,0.2-0.6
				c0-0.1,0-0.1,0-0.2C552.6,113,552.1,113.2,551.7,113.5z M552.5,108.3c-0.4-1-0.9-1.9-1.6-2.6c-0.2,0.2-0.4,0.3-0.6,0.5l1,1.8
				c0.2,0.3,0.4,0.5,0.6,0.7c0.2,0.2,0.5,0.3,0.8,0.3C552.7,108.7,552.6,108.5,552.5,108.3z M559.7,108.3c-0.5-0.5-1.1-0.7-1.9-0.7
				c-0.7,0-1.2,0.1-1.6,0.2c-0.4,0.2-0.8,0.3-1.1,0.5c-0.3,0.2-0.6,0.4-1,0.5c-0.3,0.2-0.7,0.2-1.1,0.2c-0.1,0-0.1,0-0.2,0
				c0.3,0.9,0.4,1.9,0.4,3c0,0.3,0,0.6,0,0.8c0.6-0.2,1.2-0.5,1.9-0.6c1.4-0.4,3.2-0.6,5.3-0.7v-0.8
				C560.4,109.5,560.2,108.8,559.7,108.3z M541.1,114c0.2,1.6,0.7,2.7,1.4,3.4c0.8,0.7,1.8,1.1,3,1.1c0.7,0,1.2-0.1,1.7-0.2
				c0.5-0.2,0.9-0.3,1.3-0.5c0.4-0.2,0.7-0.3,1-0.5c0-0.6,0.2-1.2,0.5-1.8c0.2-0.5,0.6-1,1.2-1.4H541.1z M522.2,106
				c-0.7,0.9-1.2,1.9-1.6,3.1c-0.4,1.2-0.6,2.5-0.6,3.9c0,1.5,0.2,2.9,0.5,4.1c0.3,1.2,0.8,2.2,1.4,3c0.1,0.2,0.2,0.3,0.3,0.4
				L522.2,106C522.3,106,522.2,106,522.2,106z M530.9,107.6c-0.5-0.2-1-0.3-1.6-0.3c-0.5,0-1,0.1-1.4,0.3c-0.4,0.2-0.8,0.5-1.1,1
				c-0.3,0.4-0.6,1-0.8,1.8c-0.2,0.7-0.3,1.6-0.3,2.6c0,1,0.1,1.8,0.2,2.5c0.1,0.7,0.3,1.2,0.6,1.6c0.3,0.4,0.6,0.7,0.9,0.9
				c0.4,0.2,0.8,0.3,1.2,0.3c0.4,0,0.8,0,1.1-0.1c0.3-0.1,0.6-0.2,0.9-0.3c0.3-0.1,0.5-0.3,0.8-0.5c0.2-0.2,0.5-0.5,0.7-0.8v-8
				C531.9,108.2,531.4,107.8,530.9,107.6z M548,109.4c-0.1-0.4-0.3-0.8-0.6-1.1c-0.3-0.3-0.6-0.6-1-0.8c-0.4-0.2-0.9-0.3-1.5-0.3
				c-1.1,0-1.9,0.3-2.5,0.9c-0.6,0.6-1,1.5-1.2,2.6h7C548.1,110.3,548.1,109.9,548,109.4z M557.6,115c-0.7,0.2-1.3,0.3-1.7,0.6
				c-0.4,0.2-0.7,0.5-0.9,0.7c-0.2,0.3-0.2,0.6-0.2,0.9c0,0.6,0.2,1.1,0.5,1.3c0.3,0.3,0.9,0.4,1.5,0.4c0.7,0,1.4-0.1,1.9-0.4
				c0.5-0.2,1.1-0.7,1.6-1.2v-2.6C559.3,114.8,558.3,114.9,557.6,115z M583.8,109.4c-0.1-0.4-0.3-0.8-0.6-1.1
				c-0.3-0.3-0.6-0.6-1-0.8c-0.4-0.2-0.9-0.3-1.5-0.3c-1.1,0-1.9,0.3-2.5,0.9c-0.6,0.6-1,1.5-1.2,2.6h7
				C584,110.3,583.9,109.9,583.8,109.4z"/>
		</g>
		<rect x="512.9" y="122.3" fill="#FFFFFF" width="82.4" height="14.8"/>
	</g>
</g>
</svg>
