<svg xmlns="http://www.w3.org/2000/svg" xmlns:xlink="http://www.w3.org/1999/xlink" id="Layer_1" x="0" y="0" enable-background="new 0 0 676.1 265.1" version="1.1" viewBox="0 0 676.1 265.1" xml:space="preserve"><g><g><rect width="39.9" height="39.9" x="77.7" y="70.5" fill="#2F6AFF"/></g><g><path fill="#2F6AFF" d="M97.9,62.1h-0.4c-10.9,0-19.8-8.8-19.8-19.8V42c0-10.9,8.8-19.8,19.8-19.8h0.4c10.9,0,19.8,8.8,19.8,19.8 v0.4C117.7,53.3,108.8,62.1,97.9,62.1z"/></g><g><path fill="#2F6AFF" d="M140.4,63.4c0,0.4-0.1,0.7-0.2,1.1s-0.4,0.6-0.6,0.9c-0.3,0.3-0.6,0.5-0.9,0.6c-0.4,0.2-0.7,0.2-1.1,0.2 c-0.4,0-0.8-0.1-1.1-0.2c-0.3-0.2-0.6-0.4-0.9-0.6c-0.3-0.3-0.5-0.5-0.6-0.9c-0.2-0.3-0.2-0.7-0.2-1.1c0-0.4,0.1-0.8,0.2-1.1 c0.2-0.3,0.4-0.7,0.6-0.9c0.3-0.3,0.6-0.5,0.9-0.6c0.3-0.2,0.7-0.2,1.1-0.2c0.4,0,0.8,0.1,1.1,0.2c0.4,0.2,0.7,0.4,0.9,0.6 c0.3,0.3,0.5,0.6,0.6,0.9C140.3,62.6,140.4,63,140.4,63.4z M139.8,68.8v18.6h-4.5V68.8H139.8z"/><path fill="#2F6AFF" d="M160.5,60.5v26.9h-2.7c-0.6,0-1-0.3-1.1-0.8l-0.4-1.8c-0.7,0.9-1.6,1.6-2.6,2.1c-1,0.5-2.1,0.8-3.4,0.8 c-1,0-1.9-0.2-2.8-0.6c-0.8-0.4-1.6-1-2.2-1.8c-0.6-0.8-1.1-1.8-1.4-3c-0.3-1.2-0.5-2.5-0.5-4.1c0-1.4,0.2-2.7,0.6-3.8 c0.4-1.2,0.9-2.2,1.6-3.1c0.7-0.9,1.5-1.5,2.5-2c1-0.5,2.1-0.7,3.3-0.7c1,0,1.9,0.2,2.7,0.5c0.7,0.3,1.4,0.8,2,1.3v-9.8H160.5z M156,73.5c-0.5-0.6-1.1-1.1-1.7-1.3c-0.6-0.3-1.2-0.4-1.9-0.4c-0.7,0-1.3,0.1-1.8,0.4c-0.5,0.3-1,0.6-1.4,1.1 c-0.4,0.5-0.7,1.2-0.9,2c-0.2,0.8-0.3,1.7-0.3,2.8c0,1.1,0.1,2,0.3,2.8c0.2,0.8,0.4,1.4,0.8,1.8c0.3,0.5,0.7,0.8,1.2,1 c0.5,0.2,1,0.3,1.6,0.3c0.9,0,1.7-0.2,2.4-0.6c0.7-0.4,1.3-0.9,1.8-1.6V73.5z"/><path fill="#2F6AFF" d="M168.3,78.6c0.1,1,0.2,1.8,0.5,2.5c0.3,0.7,0.6,1.3,1.1,1.7c0.4,0.5,1,0.8,1.5,1c0.6,0.2,1.3,0.3,2,0.3 c0.7,0,1.3-0.1,1.9-0.3c0.5-0.2,1-0.4,1.4-0.6c0.4-0.2,0.7-0.4,1-0.6s0.6-0.3,0.9-0.3c0.4,0,0.7,0.1,0.8,0.4l1.3,1.6 c-0.5,0.6-1.1,1.1-1.7,1.5c-0.6,0.4-1.3,0.7-1.9,0.9c-0.7,0.2-1.4,0.4-2,0.5c-0.7,0.1-1.4,0.1-2,0.1c-1.3,0-2.5-0.2-3.6-0.6 c-1.1-0.4-2.1-1.1-2.9-1.9c-0.8-0.8-1.5-1.9-1.9-3.1c-0.5-1.2-0.7-2.7-0.7-4.3c0-1.3,0.2-2.5,0.6-3.6c0.4-1.1,1-2.1,1.8-2.9 c0.8-0.8,1.7-1.5,2.8-2c1.1-0.5,2.4-0.7,3.7-0.7c1.2,0,2.3,0.2,3.2,0.6c1,0.4,1.8,0.9,2.6,1.6c0.7,0.7,1.3,1.6,1.7,2.6 c0.4,1,0.6,2.2,0.6,3.6c0,0.7-0.1,1.1-0.2,1.4c-0.1,0.2-0.4,0.4-0.8,0.4H168.3z M176.9,75.9c0-0.6-0.1-1.1-0.2-1.6 c-0.2-0.5-0.4-1-0.7-1.3c-0.3-0.4-0.7-0.7-1.2-0.9s-1.1-0.3-1.7-0.3c-1.3,0-2.3,0.4-3.1,1.1c-0.7,0.7-1.2,1.8-1.4,3.1H176.9z"/><path fill="#2F6AFF" d="M183.8,71.4c2.1-2,4.7-2.9,7.7-2.9c1.1,0,2.1,0.2,2.9,0.5c0.9,0.4,1.6,0.9,2.2,1.5s1,1.4,1.3,2.3 c0.3,0.9,0.5,1.8,0.5,2.9v11.7h-2c-0.4,0-0.7-0.1-1-0.2s-0.4-0.4-0.5-0.8l-0.4-1.3c-0.5,0.4-0.9,0.8-1.4,1.1s-0.9,0.6-1.4,0.8 c-0.5,0.2-1,0.4-1.5,0.5c-0.5,0.1-1.2,0.2-1.8,0.2c-0.8,0-1.5-0.1-2.2-0.3s-1.2-0.5-1.7-1c-0.5-0.4-0.9-0.9-1.1-1.6 c-0.3-0.6-0.4-1.4-0.4-2.2c0-0.5,0.1-0.9,0.2-1.4c0.2-0.5,0.4-0.9,0.8-1.3s0.8-0.8,1.4-1.2c0.6-0.4,1.3-0.7,2.1-1 c0.8-0.3,1.8-0.5,2.9-0.7c1.1-0.2,2.4-0.3,3.8-0.3v-1.1c0-1.2-0.3-2.2-0.8-2.8S192,72,190.9,72c-0.7,0-1.3,0.1-1.8,0.3 s-0.9,0.4-1.3,0.6s-0.7,0.4-1,0.6c-0.3,0.2-0.6,0.3-1,0.3c-0.3,0-0.6-0.1-0.8-0.2s-0.4-0.4-0.5-0.6L183.8,71.4z M194,79.4 c-1.3,0.1-2.4,0.2-3.3,0.3s-1.6,0.4-2.1,0.6c-0.5,0.3-0.9,0.5-1.1,0.9s-0.3,0.7-0.3,1.1c0,0.8,0.2,1.3,0.7,1.7 c0.5,0.3,1.1,0.5,1.8,0.5c0.9,0,1.7-0.2,2.4-0.5c0.7-0.3,1.3-0.8,2-1.5V79.4z"/><path fill="#2F6AFF" d="M208.6,87.7c-1.6,0-2.9-0.5-3.7-1.4c-0.9-0.9-1.3-2.2-1.3-3.8V72.1h-1.9c-0.2,0-0.4-0.1-0.6-0.2 c-0.2-0.2-0.3-0.4-0.3-0.7v-1.8l3-0.5l0.9-5.1c0.1-0.2,0.2-0.4,0.3-0.6s0.4-0.2,0.7-0.2h2.3v5.9h5v3.2h-5v10.1 c0,0.6,0.1,1,0.4,1.4s0.7,0.5,1.2,0.5c0.3,0,0.5,0,0.7-0.1c0.2-0.1,0.4-0.1,0.5-0.2c0.1-0.1,0.3-0.1,0.4-0.2 c0.1-0.1,0.2-0.1,0.3-0.1c0.1,0,0.2,0,0.3,0.1s0.2,0.2,0.3,0.3l1.3,2.2c-0.7,0.5-1.4,1-2.2,1.2S209.5,87.7,208.6,87.7z"/><path fill="#2F6AFF" d="M219.1,78.6c0.1,1,0.2,1.8,0.5,2.5c0.3,0.7,0.6,1.3,1.1,1.7c0.4,0.5,1,0.8,1.5,1c0.6,0.2,1.3,0.3,2,0.3 c0.7,0,1.3-0.1,1.9-0.3c0.5-0.2,1-0.4,1.4-0.6c0.4-0.2,0.7-0.4,1-0.6s0.6-0.3,0.9-0.3c0.4,0,0.7,0.1,0.8,0.4l1.3,1.6 c-0.5,0.6-1.1,1.1-1.7,1.5c-0.6,0.4-1.3,0.7-1.9,0.9c-0.7,0.2-1.4,0.4-2,0.5c-0.7,0.1-1.4,0.1-2,0.1c-1.3,0-2.5-0.2-3.6-0.6 c-1.1-0.4-2.1-1.1-2.9-1.9c-0.8-0.8-1.5-1.9-1.9-3.1c-0.5-1.2-0.7-2.7-0.7-4.3c0-1.3,0.2-2.5,0.6-3.6c0.4-1.1,1-2.1,1.8-2.9 c0.8-0.8,1.7-1.5,2.8-2c1.1-0.5,2.4-0.7,3.7-0.7c1.2,0,2.3,0.2,3.2,0.6c1,0.4,1.8,0.9,2.6,1.6c0.7,0.7,1.3,1.6,1.7,2.6 c0.4,1,0.6,2.2,0.6,3.6c0,0.7-0.1,1.1-0.2,1.4c-0.1,0.2-0.4,0.4-0.8,0.4H219.1z M227.7,75.9c0-0.6-0.1-1.1-0.2-1.6 c-0.2-0.5-0.4-1-0.7-1.3c-0.3-0.4-0.7-0.7-1.2-0.9s-1.1-0.3-1.7-0.3c-1.3,0-2.3,0.4-3.1,1.1c-0.7,0.7-1.2,1.8-1.4,3.1H227.7z"/></g></g><g><g><path fill="#E84C3C" d="M479.4,61.2c0,0.4,0,0.9-0.1,1.3c-0.1,0.4-0.3,0.8-0.6,1.1c-0.3,0.3-0.6,0.6-1,0.8 c-0.4,0.2-0.8,0.4-1.3,0.4c-0.5,0-0.9,0-1.3-0.1c-0.4-0.1-0.8-0.3-1.1-0.6s-0.6-0.6-0.8-0.9c-0.2-0.4-0.3-0.8-0.4-1.2 c0-0.5,0-0.9,0.1-1.3c0.1-0.4,0.3-0.8,0.6-1.1c0.3-0.3,0.6-0.6,1-0.8c0.4-0.2,0.8-0.3,1.3-0.4c0.5-0.1,0.9,0,1.4,0.1 c0.4,0.1,0.8,0.3,1.2,0.6c0.3,0.3,0.6,0.6,0.9,1S479.4,60.7,479.4,61.2z M479.4,66.3l2,18.7l-5.6,0.6l-2-18.7L479.4,66.3z"/><path fill="#3599DC" d="M500.5,60.3L495,86.9l-3.4-0.7c-0.7-0.1-1.1-0.5-1.2-1.2l-0.1-1.5c-0.4,0.3-0.9,0.6-1.4,0.8 c-0.5,0.2-1,0.4-1.5,0.6s-1.1,0.2-1.6,0.2c-0.6,0-1.2,0-1.8-0.2c-1-0.2-1.8-0.6-2.5-1.2c-0.7-0.6-1.3-1.4-1.7-2.3 c-0.4-0.9-0.7-2-0.8-3.2c-0.1-1.2,0-2.6,0.3-4.1c0.3-1.4,0.7-2.6,1.4-3.7c0.6-1.1,1.4-2,2.2-2.7s1.8-1.2,2.9-1.5 c1.1-0.3,2.2-0.3,3.4-0.1c1,0.2,1.7,0.5,2.3,0.9c0.6,0.4,1.1,0.9,1.5,1.5l1.9-9.3L500.5,60.3z M492.3,72.3c-0.3-0.5-0.7-1-1.2-1.2 c-0.4-0.3-0.9-0.5-1.5-0.6c-0.5-0.1-1-0.1-1.5,0c-0.5,0.1-0.9,0.4-1.3,0.7c-0.4,0.4-0.8,0.9-1.1,1.6c-0.3,0.7-0.6,1.5-0.8,2.5 c-0.2,1-0.3,1.8-0.3,2.5c0,0.7,0.1,1.3,0.3,1.7c0.2,0.5,0.4,0.8,0.7,1.1c0.3,0.3,0.7,0.4,1.1,0.5c0.4,0.1,0.8,0.1,1.1,0.1 c0.3,0,0.7-0.1,1-0.1c0.3-0.1,0.6-0.2,0.9-0.4c0.3-0.2,0.6-0.4,0.9-0.6L492.3,72.3z"/></g><g><path fill="#E84C3C" d="M535,61.2c0,0.4,0,0.9-0.1,1.3c-0.1,0.4-0.3,0.8-0.6,1.1s-0.6,0.6-1,0.8c-0.4,0.2-0.8,0.4-1.3,0.4 c-0.5,0-0.9,0-1.3-0.1c-0.4-0.1-0.8-0.3-1.1-0.6s-0.6-0.6-0.8-0.9c-0.2-0.4-0.3-0.8-0.4-1.2c0-0.5,0-0.9,0.1-1.3 c0.1-0.4,0.3-0.8,0.6-1.1c0.3-0.3,0.6-0.6,1-0.8c0.4-0.2,0.8-0.3,1.3-0.4c0.5-0.1,0.9,0,1.4,0.1c0.4,0.1,0.8,0.3,1.2,0.6 c0.3,0.3,0.6,0.6,0.9,1S535,60.7,535,61.2z M535,66.3l2,18.7l-5.6,0.6l-2-18.7L535,66.3z"/><path fill="#3599DC" d="M545.3,61.3l-5.4,26.6l-3.4-0.7c-0.7-0.1-1.1-0.5-1.2-1.2l-0.1-1.5c-0.4,0.3-0.9,0.6-1.4,0.8 c-0.5,0.2-1,0.4-1.5,0.6s-1.1,0.2-1.6,0.2c-0.6,0-1.2,0-1.8-0.2c-1-0.2-1.8-0.6-2.5-1.2c-0.7-0.6-1.3-1.4-1.7-2.3 c-0.4-0.9-0.7-2-0.8-3.2c-0.1-1.2,0-2.6,0.3-4.1c0.3-1.4,0.7-2.6,1.4-3.7c0.6-1.1,1.4-2,2.2-2.7s1.8-1.2,2.9-1.5 c1.1-0.3,2.2-0.3,3.4-0.1c1,0.2,1.7,0.5,2.3,0.9c0.6,0.4,1.1,0.9,1.5,1.5l1.9-9.3L545.3,61.3z M537.1,73.3c-0.3-0.5-0.7-1-1.2-1.2 c-0.4-0.3-0.9-0.5-1.5-0.6c-0.5-0.1-1-0.1-1.5,0c-0.5,0.1-0.9,0.4-1.3,0.7c-0.4,0.4-0.8,0.9-1.1,1.6s-0.6,1.5-0.8,2.5 c-0.2,1-0.3,1.8-0.3,2.5c0,0.7,0.1,1.3,0.3,1.7c0.2,0.5,0.4,0.8,0.7,1.1c0.3,0.3,0.7,0.4,1.1,0.5c0.4,0.1,0.8,0.1,1.1,0.1 c0.3,0,0.7-0.1,1-0.1c0.3-0.1,0.6-0.2,0.9-0.4c0.3-0.2,0.6-0.4,0.9-0.6L537.1,73.3z"/></g><g><path fill="#E84C3C" d="M584.3,78.2l-0.8,3.8c-0.3,0.2-0.6,0.4-0.9,0.6c-0.3,0.2-0.6,0.3-0.9,0.4c-0.3,0.1-0.6,0.1-1,0.1 c-0.3,0-0.7,0-1.1-0.1c-0.2,0-0.4-0.1-0.5-0.2l0.3,2.7L585,85L584.3,78.2z M583,61.1c0-0.5-0.2-0.9-0.4-1.2 c-0.2-0.4-0.5-0.7-0.9-1c-0.3-0.3-0.7-0.5-1.2-0.6c-0.4-0.1-0.9-0.2-1.4-0.1c-0.5,0-0.9,0.2-1.2,0.4c-0.4,0.2-0.7,0.5-1,0.8 c-0.3,0.3-0.5,0.7-0.6,1.1c-0.1,0.4-0.2,0.9-0.1,1.3c0,0.5,0.2,0.9,0.4,1.2c0.2,0.4,0.5,0.7,0.8,1c0.3,0.3,0.7,0.4,1.1,0.6 c0.4,0.1,0.8,0.2,1.3,0.1s0.9-0.2,1.3-0.4c0.4-0.2,0.7-0.5,1-0.8c0.3-0.3,0.5-0.7,0.6-1.1C583,62,583.1,61.6,583,61.1z"/><path fill="#E84C3C" d="M584.3,78.2l-0.8,3.8c-0.3,0.2-0.6,0.4-0.9,0.6c-0.3,0.2-0.6,0.3-0.9,0.4c-0.3,0.1-0.6,0.1-1,0.1 c-0.3,0-0.7,0-1.1-0.1c-0.2,0-0.4-0.1-0.5-0.2l-0.8-7.5l-0.7-6.9l-0.2-1.6l5.6-0.6l0.2,2.2l0.5,4.4L584.3,78.2z"/><path fill="#3599DC" d="M587.8,61.2l-1.9,9.3c-0.4-0.6-0.9-1.1-1.5-1.5c-0.3-0.2-0.7-0.4-1.1-0.5l0.5,4.4c0.1,0,0.1,0.1,0.2,0.1 c0.5,0.3,0.8,0.7,1.2,1.2l-0.8,3.9l-0.8,3.8c-0.3,0.2-0.6,0.4-0.9,0.6c-0.3,0.2-0.6,0.3-0.9,0.4c-0.3,0.1-0.6,0.1-1,0.1 c-0.3,0-0.7,0-1.1-0.1c-0.2,0-0.4-0.1-0.5-0.2c-0.2-0.1-0.4-0.2-0.6-0.4c-0.3-0.2-0.6-0.6-0.7-1.1c-0.2-0.5-0.3-1-0.3-1.7 c0-0.7,0.1-1.5,0.3-2.5c0.1-0.7,0.3-1.3,0.5-1.8l-0.7-6.9c-0.7,0.3-1.3,0.7-1.9,1.1c-0.9,0.7-1.6,1.6-2.2,2.7 c-0.6,1.1-1.1,2.3-1.3,3.7c-0.3,1.5-0.4,2.8-0.3,4.1c0.1,1.2,0.4,2.3,0.8,3.2c0.4,0.9,1,1.7,1.7,2.3c0.7,0.6,1.6,1,2.5,1.2 c0.6,0.1,1.2,0.2,1.8,0.2c0.6,0,1.1-0.1,1.6-0.2c0.5-0.1,1-0.3,1.5-0.6c0.5-0.2,0.9-0.5,1.4-0.8l0.1,1.5c0.1,0.7,0.5,1.1,1.2,1.2 l3.4,0.7l5.4-26.6L587.8,61.2z"/></g></g><g><path fill="#2F6AFF" d="M311.8,54.8c0,1.4-0.3,2.6-0.8,3.8c-0.6,1.2-1.3,2.2-2.2,3.1c-0.9,0.9-2,1.6-3.2,2.1 c-1.2,0.5-2.5,0.8-3.9,0.8c-1.4,0-2.6-0.3-3.8-0.8c-1.2-0.5-2.3-1.2-3.1-2.1c-0.9-0.9-1.6-1.9-2.1-3.1c-0.5-1.2-0.8-2.5-0.8-3.8 c0-1.4,0.3-2.7,0.8-3.9c0.5-1.2,1.2-2.3,2.1-3.2c0.9-0.9,1.9-1.6,3.1-2.1c1.2-0.5,2.5-0.8,3.8-0.8c1.4,0,2.7,0.3,3.9,0.8 c1.2,0.5,2.3,1.2,3.2,2.1c0.9,0.9,1.6,1.9,2.2,3.2C311.5,52.1,311.8,53.4,311.8,54.8z M304,68.6v18.6h-4.5V68.6H304z"/><path fill="#2F6AFF" d="M324.7,60.3v26.9H322c-0.6,0-1-0.3-1.1-0.8l-0.4-1.8c-0.7,0.9-1.6,1.6-2.6,2.1c-1,0.5-2.1,0.8-3.4,0.8 c-1,0-1.9-0.2-2.8-0.6c-0.8-0.4-1.6-1-2.2-1.8c-0.6-0.8-1.1-1.8-1.4-3c-0.3-1.2-0.5-2.5-0.5-4.1c0-1.4,0.2-2.7,0.6-3.8 c0.4-1.2,0.9-2.2,1.6-3.1c0.7-0.9,1.5-1.5,2.5-2c1-0.5,2.1-0.7,3.3-0.7c1,0,1.9,0.2,2.7,0.5c0.7,0.3,1.4,0.8,2,1.3v-9.8H324.7z M320.3,73.4c-0.5-0.6-1.1-1.1-1.7-1.3c-0.6-0.3-1.2-0.4-1.9-0.4c-0.7,0-1.3,0.1-1.8,0.4c-0.5,0.3-1,0.6-1.4,1.1 c-0.4,0.5-0.7,1.2-0.9,2c-0.2,0.8-0.3,1.7-0.3,2.8c0,1.1,0.1,2,0.3,2.8c0.2,0.8,0.4,1.4,0.8,1.8c0.3,0.5,0.7,0.8,1.2,1 c0.5,0.2,1,0.3,1.6,0.3c0.9,0,1.7-0.2,2.4-0.6c0.7-0.4,1.3-0.9,1.8-1.6V73.4z"/><path fill="#2F6AFF" d="M332.6,78.5c0.1,1,0.2,1.8,0.5,2.5c0.3,0.7,0.6,1.3,1.1,1.7s1,0.8,1.5,1c0.6,0.2,1.3,0.3,2,0.3 c0.7,0,1.3-0.1,1.9-0.3c0.5-0.2,1-0.4,1.4-0.6c0.4-0.2,0.7-0.4,1-0.6c0.3-0.2,0.6-0.3,0.9-0.3c0.4,0,0.7,0.1,0.8,0.4l1.3,1.6 c-0.5,0.6-1.1,1.1-1.7,1.5c-0.6,0.4-1.3,0.7-1.9,0.9c-0.7,0.2-1.4,0.4-2,0.5c-0.7,0.1-1.4,0.1-2,0.1c-1.3,0-2.5-0.2-3.6-0.6 c-1.1-0.4-2.1-1.1-2.9-1.9c-0.8-0.8-1.5-1.9-1.9-3.1c-0.5-1.2-0.7-2.7-0.7-4.3c0-1.3,0.2-2.5,0.6-3.6c0.4-1.1,1-2.1,1.8-2.9 c0.8-0.8,1.7-1.5,2.8-2c1.1-0.5,2.4-0.7,3.7-0.7c1.2,0,2.3,0.2,3.2,0.6c1,0.4,1.8,0.9,2.6,1.6c0.7,0.7,1.3,1.6,1.7,2.6 c0.4,1,0.6,2.2,0.6,3.6c0,0.7-0.1,1.1-0.2,1.4c-0.1,0.2-0.4,0.4-0.8,0.4H332.6z M341.1,75.8c0-0.6-0.1-1.1-0.2-1.6s-0.4-1-0.7-1.3 c-0.3-0.4-0.7-0.7-1.2-0.9c-0.5-0.2-1.1-0.3-1.7-0.3c-1.3,0-2.3,0.4-3.1,1.1c-0.7,0.7-1.2,1.8-1.4,3.1H341.1z"/><path fill="#2F6AFF" d="M348.1,71.2c2.1-2,4.7-2.9,7.7-2.9c1.1,0,2.1,0.2,2.9,0.5c0.9,0.4,1.6,0.9,2.2,1.5s1,1.4,1.3,2.3 c0.3,0.9,0.5,1.8,0.5,2.9v11.7h-2c-0.4,0-0.7-0.1-1-0.2c-0.2-0.1-0.4-0.4-0.5-0.8l-0.4-1.3c-0.5,0.4-0.9,0.8-1.4,1.1 c-0.4,0.3-0.9,0.6-1.4,0.8c-0.5,0.2-1,0.4-1.5,0.5c-0.5,0.1-1.2,0.2-1.8,0.2c-0.8,0-1.5-0.1-2.2-0.3c-0.7-0.2-1.2-0.5-1.7-1 c-0.5-0.4-0.9-0.9-1.1-1.6c-0.3-0.6-0.4-1.4-0.4-2.2c0-0.5,0.1-0.9,0.2-1.4c0.2-0.5,0.4-0.9,0.8-1.3c0.4-0.4,0.8-0.8,1.4-1.2 c0.6-0.4,1.3-0.7,2.1-1c0.8-0.3,1.8-0.5,2.9-0.7c1.1-0.2,2.4-0.3,3.8-0.3v-1.1c0-1.2-0.3-2.2-0.8-2.8c-0.5-0.6-1.3-0.9-2.3-0.9 c-0.7,0-1.3,0.1-1.8,0.3c-0.5,0.2-0.9,0.4-1.3,0.6c-0.4,0.2-0.7,0.4-1,0.6c-0.3,0.2-0.6,0.3-1,0.3c-0.3,0-0.6-0.1-0.8-0.2 c-0.2-0.2-0.4-0.4-0.5-0.6L348.1,71.2z M358.3,79.3c-1.3,0.1-2.4,0.2-3.3,0.3c-0.9,0.2-1.6,0.4-2.1,0.6c-0.5,0.3-0.9,0.5-1.1,0.9 c-0.2,0.3-0.3,0.7-0.3,1.1c0,0.8,0.2,1.3,0.7,1.7c0.5,0.3,1.1,0.5,1.8,0.5c0.9,0,1.7-0.2,2.4-0.5c0.7-0.3,1.3-0.8,2-1.5V79.3z"/><path fill="#2F6AFF" d="M372.8,87.5c-1.6,0-2.9-0.5-3.7-1.4c-0.9-0.9-1.3-2.2-1.3-3.8V72h-1.9c-0.2,0-0.4-0.1-0.6-0.2 c-0.2-0.2-0.3-0.4-0.3-0.7v-1.8l3-0.5l0.9-5.1c0.1-0.2,0.2-0.4,0.3-0.6c0.2-0.1,0.4-0.2,0.7-0.2h2.3v5.9h5V72h-5v10.1 c0,0.6,0.1,1,0.4,1.4c0.3,0.3,0.7,0.5,1.2,0.5c0.3,0,0.5,0,0.7-0.1c0.2-0.1,0.4-0.1,0.5-0.2c0.1-0.1,0.3-0.1,0.4-0.2 c0.1-0.1,0.2-0.1,0.3-0.1c0.1,0,0.2,0,0.3,0.1c0.1,0.1,0.2,0.2,0.3,0.3l1.3,2.2c-0.7,0.5-1.4,1-2.2,1.2 C374.6,87.4,373.7,87.5,372.8,87.5z"/><path fill="#2F6AFF" d="M383.4,78.5c0.1,1,0.2,1.8,0.5,2.5c0.3,0.7,0.6,1.3,1.1,1.7s1,0.8,1.5,1c0.6,0.2,1.3,0.3,2,0.3 c0.7,0,1.3-0.1,1.9-0.3c0.5-0.2,1-0.4,1.4-0.6c0.4-0.2,0.7-0.4,1-0.6c0.3-0.2,0.6-0.3,0.9-0.3c0.4,0,0.7,0.1,0.8,0.4l1.3,1.6 c-0.5,0.6-1.1,1.1-1.7,1.5c-0.6,0.4-1.3,0.7-1.9,0.9s-1.4,0.4-2,0.5c-0.7,0.1-1.4,0.1-2,0.1c-1.3,0-2.5-0.2-3.6-0.6 c-1.1-0.4-2.1-1.1-2.9-1.9c-0.8-0.8-1.5-1.9-1.9-3.1c-0.5-1.2-0.7-2.7-0.7-4.3c0-1.3,0.2-2.5,0.6-3.6c0.4-1.1,1-2.1,1.8-2.9 c0.8-0.8,1.7-1.5,2.8-2c1.1-0.5,2.4-0.7,3.7-0.7c1.2,0,2.3,0.2,3.2,0.6c1,0.4,1.8,0.9,2.6,1.6c0.7,0.7,1.3,1.6,1.7,2.6 c0.4,1,0.6,2.2,0.6,3.6c0,0.7-0.1,1.1-0.2,1.4c-0.1,0.2-0.4,0.4-0.8,0.4H383.4z M391.9,75.8c0-0.6-0.1-1.1-0.2-1.6 c-0.2-0.5-0.4-1-0.7-1.3c-0.3-0.4-0.7-0.7-1.2-0.9c-0.5-0.2-1.1-0.3-1.7-0.3c-1.3,0-2.3,0.4-3.1,1.1c-0.7,0.7-1.2,1.8-1.4,3.1 H391.9z"/></g><g><g><path fill="#E84C3C" d="M106.1,227.2H57.7v-68.4h48.4V227.2z M61.3,223.6h41.2v-61.3H61.3V223.6z"/></g><rect width="97.9" height="68.4" x="110.2" y="158.7" fill="#E84C3C"/><g><path fill="#FFF" d="M124,179.1c-0.1,0.5-0.4,0.9-0.7,1.3c-0.3,0.4-0.7,0.7-1.2,0.9c-0.4,0.2-0.9,0.4-1.5,0.5 c-0.5,0.1-1,0-1.5-0.1c-0.5-0.1-0.9-0.4-1.3-0.7c-0.4-0.3-0.7-0.6-0.9-1.1c-0.2-0.4-0.4-0.9-0.5-1.4c-0.1-0.5,0-1,0.1-1.5 c0.1-0.5,0.4-0.9,0.7-1.3c0.3-0.4,0.7-0.7,1.1-0.9c0.4-0.2,0.9-0.4,1.4-0.4c0.5-0.1,1,0,1.5,0.1c0.5,0.1,0.9,0.4,1.3,0.7 c0.4,0.3,0.7,0.7,1,1.1c0.2,0.4,0.4,0.9,0.5,1.4C124.2,178.2,124.1,178.7,124,179.1z"/><path fill="#FFF" d="M126.4,204.7l-6.3,0.7l-2.3-21.2l6.3-0.7l0.7,6.4c-0.3,0.8-0.6,1.6-0.8,2.5c-0.4,1.7-0.5,3.2-0.4,4.6 c0.1,1.4,0.4,2.6,0.9,3.7c0.4,0.9,1,1.7,1.6,2.3L126.4,204.7z"/><path fill="#FFF" d="M141.8,175.5l-2.2,10.6c-0.5-0.6-1.1-1.2-1.8-1.7c-0.7-0.5-1.6-0.8-2.6-1c-1.3-0.3-2.6-0.2-3.8,0.1 c-1.2,0.3-2.3,0.9-3.3,1.7c-1,0.8-1.8,1.8-2.5,3.1c-0.3,0.5-0.6,1.1-0.8,1.7l1.4,13.1c0.1,0.1,0.2,0.2,0.3,0.3 c0.8,0.7,1.8,1.1,2.9,1.3c0.7,0.1,1.4,0.2,2,0.2c0.6,0,1.2-0.1,1.8-0.2c0.6-0.2,1.1-0.4,1.7-0.6c0.5-0.3,1-0.6,1.6-0.9l0.2,1.7 c0.1,0.7,0.5,1.2,1.3,1.4l3.9,0.8l1.7-8.1c-0.3-0.8-0.6-1.7-0.8-2.7c-0.3-1.4-0.3-2.8-0.1-4.1c0.2-1.3,0.7-2.6,1.4-3.7 c0.6-0.9,1.3-1.7,2.1-2.3l1.9-9.1L141.8,175.5z M136.9,199.2c-0.3,0.3-0.7,0.5-1,0.7c-0.3,0.2-0.7,0.3-1,0.4 c-0.3,0.1-0.7,0.2-1.1,0.2c-0.4,0-0.8,0-1.3-0.1c-0.5-0.1-0.9-0.3-1.3-0.6c-0.4-0.3-0.6-0.7-0.8-1.2c-0.2-0.5-0.3-1.2-0.3-2 c0-0.8,0.1-1.7,0.3-2.8c0.2-1.1,0.5-2.1,0.9-2.9c0.4-0.8,0.8-1.4,1.2-1.8c0.5-0.4,1-0.7,1.5-0.8c0.5-0.1,1.1-0.1,1.7,0 c0.6,0.1,1.2,0.4,1.7,0.7c0.5,0.3,0.9,0.8,1.3,1.4L136.9,199.2z"/><path fill="#FFF" d="M162.3,191.3c-0.1-0.5-0.2-1-0.4-1.4c-0.4,0-0.7-0.1-1-0.3c-0.3-0.2-0.5-0.5-0.7-0.8l-1.1-2 c0.2-0.2,0.5-0.4,0.8-0.6c-0.5-0.5-1-1-1.6-1.4c-1-0.7-2.1-1.1-3.3-1.3c-1.2-0.2-2.6-0.2-3.9,0.1c-1.6,0.3-3,0.9-4.1,1.7 c-0.2,0.2-0.5,0.3-0.7,0.5l-2.6,12.9c0.3,0.7,0.6,1.4,1,2c0.8,1.3,1.8,2.3,3,3c1.2,0.7,2.4,1.2,3.8,1.5c1.4,0.2,2.8,0.2,4.3-0.1 c0.7-0.1,1.5-0.3,2.2-0.6c0.6-0.2,1.2-0.5,1.8-0.8c-0.5-0.5-0.8-1-1.1-1.6c-0.3-0.7-0.4-1.6-0.4-2.5c0-0.2,0-0.4,0-0.6 c-0.3,0.2-0.7,0.5-1.1,0.7c-0.5,0.3-1.1,0.5-1.8,0.6c-1.4,0.3-2.6,0.1-3.6-0.5c-1-0.6-1.8-1.8-2.3-3.5l12-2.4 c0.3-0.1,0.5-0.1,0.7-0.2c0.2-0.1,0.3-0.2,0.4-0.4c0.1-0.2,0.1-0.5,0.1-0.8C162.4,192.2,162.4,191.8,162.3,191.3z M148.6,192.7 c0-1.3,0.2-2.4,0.7-3.2c0.5-0.8,1.4-1.3,2.6-1.6c0.7-0.1,1.3-0.1,1.8,0c0.5,0.1,1,0.4,1.3,0.7c0.4,0.3,0.7,0.7,0.9,1.1 c0.2,0.4,0.4,0.9,0.5,1.4L148.6,192.7z"/><path fill="#FFF" d="M175.4,203.4c-0.5-0.6-0.8-1.3-1-2.1c-0.2-0.8-0.2-1.7-0.1-2.6l1.2-10.9l-1.8-0.2c-0.3,0-0.6-0.2-0.8-0.4 c-0.2-0.2-0.3-0.6-0.2-1l0.2-1.6c-0.3-0.2-0.7-0.4-1-0.5c-1-0.4-2.2-0.6-3.5-0.6c-1.8,0-3.5,0.3-5,0.8c-1.3,0.4-2.4,1.1-3.5,1.9 c0.4,0.4,0.7,0.8,1,1.3c0.5,0.7,0.8,1.6,1.1,2.5c0,0,0.1,0,0.1,0c0.5,0,0.9-0.1,1.3-0.2c0.4-0.2,0.7-0.4,1.1-0.6 c0.4-0.2,0.8-0.4,1.3-0.6c0.5-0.2,1.1-0.2,1.8-0.2c1,0,1.7,0.3,2.2,0.8c0.5,0.6,0.8,1.5,0.8,2.7v0.9c-2.4,0.1-4.5,0.3-6.1,0.7 c-1.6,0.4-2.9,1-3.8,1.6c-0.9,0.6-1.6,1.4-2,2.2c-0.3,0.6-0.5,1.2-0.5,1.7c0.1-0.1,0.2-0.1,0.2-0.2c0.4-0.3,0.7-0.6,1-0.8 c0.3-0.2,0.6-0.4,1-0.5c0.5-0.1,0.9,0,1.2,0.3l2.3,1.9c-0.5,0.9-1.1,1.6-1.7,2.2c-0.6,0.6-1.3,1.1-2.1,1.5 c-0.2,0.1-0.3,0.2-0.5,0.3c0.1,0.1,0.1,0.1,0.2,0.2c0.6,0.5,1.2,0.9,2,1.1c0.8,0.2,1.7,0.4,2.7,0.4c0.7,0,1.4-0.1,2-0.2 c0.6-0.1,1.2-0.3,1.7-0.5c0.5-0.2,1-0.5,1.5-0.9c0.5-0.3,1-0.7,1.5-1.2l0.5,1.2c0.2,0.5,0.5,0.9,0.8,1c0.3,0.2,0.8,0.2,1.4,0.2 h2.9v-0.6C176.1,204.2,175.7,203.8,175.4,203.4z M170.4,199.4c-0.6,0.6-1.2,1.1-1.9,1.4c-0.6,0.3-1.3,0.4-2.2,0.4 c-0.8,0-1.3-0.1-1.7-0.4c-0.4-0.3-0.6-0.8-0.6-1.5c0-0.4,0.1-0.7,0.3-1c0.2-0.3,0.5-0.6,1-0.9c0.5-0.2,1.1-0.5,2-0.6 c0.8-0.2,1.9-0.3,3.1-0.3V199.4z"/><path fill="#FFF" d="M181.8,188.5l-1.2,10.5c-0.1,0.5,0,0.9,0.2,1.2c0.2,0.4,0.5,0.5,1,0.6c0.2,0,0.4,0,0.6,0 c0.2,0,0.3-0.1,0.4-0.1c0.1-0.1,0.2-0.1,0.3-0.1c0.1,0,0.2,0,0.4,0c0.2,0,0.3,0.1,0.4,0.2c0.1,0.1,0.2,0.2,0.3,0.5l1.6,3.2 c-0.9,0.5-1.9,0.9-2.9,1.1c-1.1,0.2-2.1,0.2-3.2,0.1c-1-0.1-1.9-0.4-2.6-0.7c-0.2-0.1-0.3-0.2-0.5-0.3v-12.7 c0-1.2-0.2-2.3-0.6-3.4c-0.4-1-0.9-1.9-1.6-2.7c-0.5-0.5-1-0.9-1.6-1.2l0.1-0.9l3.4-0.3l1.8-5c0.2-0.6,0.7-0.9,1.5-0.8l3.3,0.4 l-0.7,6.2l5.2,0.6l0,0.1c-1,0.6-1.9,1.3-2.6,2.1c-0.5,0.6-0.9,1.1-1.3,1.8L181.8,188.5z"/><path fill="#FFF" d="M202.1,195.7c-0.4-0.2-0.8-0.2-1.3,0c-0.4,0.2-0.6,0.4-0.9,0.7c-0.2,0.3-0.5,0.6-0.8,1 c-0.3,0.4-0.6,0.7-1.1,1.1c-0.4,0.4-1,0.7-1.6,1c-1.3,0.6-2.5,0.7-3.6,0.3c-1.1-0.4-2.2-1.3-3.1-2.8l11.2-5.1 c0.3-0.1,0.5-0.2,0.6-0.4c0.1-0.1,0.2-0.3,0.2-0.5c0-0.2,0-0.5-0.1-0.7c-0.1-0.3-0.2-0.7-0.4-1.1c-0.6-1.4-1.4-2.6-2.4-3.5 c-0.9-0.9-2-1.6-3.1-2c-1.1-0.4-2.3-0.6-3.5-0.5c-1.2,0.1-2.5,0.4-3.8,1c-0.4,0.2-0.7,0.3-1,0.5L187,189l-3.5-0.4 c-0.3,0.5-0.6,1.1-0.8,1.7c-0.4,1.2-0.6,2.6-0.5,3.9c0.1,1.4,0.4,2.7,1,4c0.8,1.7,1.7,3.1,2.8,4.2c1.1,1.1,2.3,1.8,3.6,2.3 c1.3,0.5,2.6,0.6,4,0.5c1.4-0.1,2.8-0.5,4.1-1.1c0.7-0.3,1.3-0.7,2-1.1c0.7-0.4,1.3-0.9,2-1.5c0.6-0.6,1.2-1.2,1.7-2 s0.9-1.6,1.2-2.6L202.1,195.7z M188.3,193.7c-0.3-1.3-0.3-2.4,0-3.3c0.3-0.9,1.1-1.6,2.1-2.1c0.6-0.3,1.2-0.4,1.7-0.4 c0.5,0,1,0.1,1.4,0.4c0.4,0.2,0.8,0.5,1.1,0.9c0.3,0.4,0.6,0.8,0.8,1.3L188.3,193.7z"/><g display="none"><path fill="#FFF" d="M126.2,203c-0.7-0.6-1.2-1.4-1.6-2.3c-0.5-1-0.8-2.3-0.9-3.7c-0.1-1.4,0-2.9,0.4-4.6 c0.2-0.9,0.4-1.7,0.8-2.5L126.2,203z" display="inline"/><path fill="#FFF" d="M146.1,185.9l-2.6,12.9c-0.3-0.8-0.6-1.7-0.8-2.7c-0.3-1.4-0.3-2.8-0.1-4.1 c0.2-1.3,0.7-2.6,1.4-3.7C144.6,187.3,145.3,186.5,146.1,185.9z" display="inline"/><path fill="#FFF" d="M163.8,199.7c-0.5,0.9-1.1,1.6-1.7,2.2c-0.6,0.6-1.3,1.1-2.1,1.5 c-0.2,0.1-0.3,0.2-0.5,0.3c-0.5-0.5-0.8-1-1.1-1.6c-0.3-0.7-0.4-1.6-0.4-2.5c0-0.2,0-0.4,0-0.6c0.1-0.1,0.2-0.1,0.2-0.2 c0.4-0.3,0.7-0.6,1-0.8c0.3-0.2,0.6-0.4,1-0.5c0.5-0.1,0.9,0,1.2,0.3L163.8,199.7z" display="inline"/><path fill="#FFF" d="M161.9,189.9c-0.4,0-0.7-0.1-1-0.3c-0.3-0.2-0.5-0.5-0.7-0.8l-1.1-2 c0.2-0.2,0.5-0.4,0.8-0.6c0.4,0.4,0.7,0.8,1,1.3C161.2,188.2,161.6,189,161.9,189.9z" display="inline"/><path fill="#FFF" d="M176.7,191.8v12.7c-0.5-0.3-0.9-0.7-1.3-1.2c-0.5-0.6-0.8-1.3-1-2.1 c-0.2-0.8-0.2-1.7-0.1-2.6l1.2-10.9l-1.8-0.2c-0.3,0-0.6-0.2-0.8-0.4c-0.2-0.2-0.3-0.6-0.2-1l0.2-1.6c0.6,0.3,1.1,0.8,1.6,1.2 c0.7,0.7,1.3,1.6,1.6,2.7C176.5,189.5,176.7,190.6,176.7,191.8z" display="inline"/><path fill="#FFF" d="M187.5,184.8L187,189l-3.5-0.4c0.4-0.6,0.8-1.2,1.3-1.8 C185.6,186.1,186.5,185.4,187.5,184.8z" display="inline"/></g></g><rect width="18" height="18" x="199.2" y="218.2" fill="#FFF" transform="matrix(0.7071 -0.7071 0.7071 0.7071 -99.6504 213.7413)"/></g><g><rect width="97.9" height="68.4" x="308" y="158.7" fill="#3599DC"/><g><path fill="#FFF" d="M321.8,179.1c-0.1,0.5-0.4,0.9-0.7,1.3c-0.3,0.4-0.7,0.7-1.2,0.9c-0.4,0.2-0.9,0.4-1.5,0.5 c-0.5,0.1-1,0-1.5-0.1c-0.5-0.1-0.9-0.4-1.3-0.7c-0.4-0.3-0.7-0.6-0.9-1.1c-0.2-0.4-0.4-0.9-0.5-1.4s0-1,0.1-1.5 c0.1-0.5,0.4-0.9,0.7-1.3c0.3-0.4,0.7-0.7,1.1-0.9c0.4-0.2,0.9-0.4,1.4-0.4c0.5-0.1,1,0,1.5,0.1c0.5,0.1,0.9,0.4,1.3,0.7 c0.4,0.3,0.7,0.7,1,1.1c0.2,0.4,0.4,0.9,0.5,1.4S321.9,178.7,321.8,179.1z"/><path fill="#FFF" d="M324.2,204.7l-6.3,0.7l-2.3-21.2l6.3-0.7l0.7,6.4c-0.3,0.8-0.6,1.6-0.8,2.5c-0.4,1.7-0.5,3.2-0.4,4.6 c0.1,1.4,0.4,2.6,0.9,3.7c0.4,0.9,1,1.7,1.6,2.3L324.2,204.7z"/><path fill="#FFF" d="M339.6,175.5l-2.2,10.6c-0.5-0.6-1.1-1.2-1.8-1.7c-0.7-0.5-1.6-0.8-2.6-1c-1.3-0.3-2.6-0.2-3.8,0.1 c-1.2,0.3-2.3,0.9-3.3,1.7c-1,0.8-1.8,1.8-2.5,3.1c-0.3,0.5-0.6,1.1-0.8,1.7L324,203c0.1,0.1,0.2,0.2,0.3,0.3 c0.8,0.7,1.8,1.1,2.9,1.3c0.7,0.1,1.4,0.2,2,0.2c0.6,0,1.2-0.1,1.8-0.2c0.6-0.2,1.1-0.4,1.7-0.6c0.5-0.3,1-0.6,1.6-0.9l0.2,1.7 c0.1,0.7,0.5,1.2,1.3,1.4l3.9,0.8l1.7-8.1c-0.3-0.8-0.6-1.7-0.8-2.7c-0.3-1.4-0.3-2.8-0.1-4.1c0.2-1.3,0.7-2.6,1.4-3.7 c0.6-0.9,1.3-1.7,2.1-2.3l1.9-9.1L339.6,175.5z M334.7,199.2c-0.3,0.3-0.7,0.5-1,0.7c-0.3,0.2-0.7,0.3-1,0.4 c-0.3,0.1-0.7,0.2-1.1,0.2c-0.4,0-0.8,0-1.3-0.1c-0.5-0.1-0.9-0.3-1.3-0.6c-0.4-0.3-0.6-0.7-0.8-1.2c-0.2-0.5-0.3-1.2-0.3-2 c0-0.8,0.1-1.7,0.3-2.8c0.2-1.1,0.5-2.1,0.9-2.9c0.4-0.8,0.8-1.4,1.2-1.8c0.5-0.4,1-0.7,1.5-0.8c0.5-0.1,1.1-0.1,1.7,0 c0.6,0.1,1.2,0.4,1.7,0.7c0.5,0.3,0.9,0.8,1.3,1.4L334.7,199.2z"/><path fill="#FFF" d="M360,191.3c-0.1-0.5-0.2-1-0.4-1.4c-0.4,0-0.7-0.1-1-0.3c-0.3-0.2-0.5-0.5-0.7-0.8l-1.1-2 c0.2-0.2,0.5-0.4,0.8-0.6c-0.5-0.5-1-1-1.6-1.4c-1-0.7-2.1-1.1-3.3-1.3c-1.2-0.2-2.6-0.2-3.9,0.1c-1.6,0.3-3,0.9-4.1,1.7 c-0.2,0.2-0.5,0.3-0.7,0.5l-2.6,12.9c0.3,0.7,0.6,1.4,1,2c0.8,1.3,1.8,2.3,3,3c1.2,0.7,2.4,1.2,3.8,1.5c1.4,0.2,2.8,0.2,4.3-0.1 c0.7-0.1,1.5-0.3,2.2-0.6c0.6-0.2,1.2-0.5,1.8-0.8c-0.5-0.5-0.8-1-1.1-1.6c-0.3-0.7-0.4-1.6-0.4-2.5c0-0.2,0-0.4,0-0.6 c-0.3,0.2-0.7,0.5-1.1,0.7c-0.5,0.3-1.1,0.5-1.8,0.6c-1.4,0.3-2.6,0.1-3.6-0.5c-1-0.6-1.8-1.8-2.3-3.5l12-2.4 c0.3-0.1,0.5-0.1,0.7-0.2c0.2-0.1,0.3-0.2,0.4-0.4c0.1-0.2,0.1-0.5,0.1-0.8C360.2,192.2,360.1,191.8,360,191.3z M346.4,192.7 c0-1.3,0.2-2.4,0.7-3.2c0.5-0.8,1.4-1.3,2.6-1.6c0.7-0.1,1.3-0.1,1.8,0c0.5,0.1,1,0.4,1.3,0.7c0.4,0.3,0.7,0.7,0.9,1.1 c0.2,0.4,0.4,0.9,0.5,1.4L346.4,192.7z"/><path fill="#FFF" d="M373.1,203.4c-0.5-0.6-0.8-1.3-1-2.1c-0.2-0.8-0.2-1.7-0.1-2.6l1.2-10.9l-1.8-0.2c-0.3,0-0.6-0.2-0.8-0.4 c-0.2-0.2-0.3-0.6-0.2-1l0.2-1.6c-0.3-0.2-0.7-0.4-1-0.5c-1-0.4-2.2-0.6-3.5-0.6c-1.8,0-3.5,0.3-5,0.8c-1.3,0.4-2.4,1.1-3.5,1.9 c0.4,0.4,0.7,0.8,1,1.3c0.5,0.7,0.8,1.6,1.1,2.5c0,0,0.1,0,0.1,0c0.5,0,0.9-0.1,1.3-0.2c0.4-0.2,0.7-0.4,1.1-0.6 c0.4-0.2,0.8-0.4,1.3-0.6c0.5-0.2,1.1-0.2,1.8-0.2c1,0,1.7,0.3,2.2,0.8c0.5,0.6,0.8,1.5,0.8,2.7v0.9c-2.4,0.1-4.5,0.3-6.1,0.7 c-1.6,0.4-2.9,1-3.8,1.6c-0.9,0.6-1.6,1.4-2,2.2c-0.3,0.6-0.5,1.2-0.5,1.7c0.1-0.1,0.2-0.1,0.2-0.2c0.4-0.3,0.7-0.6,1-0.8 c0.3-0.2,0.6-0.4,1-0.5c0.5-0.1,0.9,0,1.2,0.3l2.3,1.9c-0.5,0.9-1.1,1.6-1.7,2.2c-0.6,0.6-1.3,1.1-2.1,1.5 c-0.2,0.1-0.3,0.2-0.5,0.3c0.1,0.1,0.1,0.1,0.2,0.2c0.6,0.5,1.2,0.9,2,1.1c0.8,0.2,1.7,0.4,2.7,0.4c0.7,0,1.4-0.1,2-0.2 c0.6-0.1,1.2-0.3,1.7-0.5c0.5-0.2,1-0.5,1.5-0.9c0.5-0.3,1-0.7,1.5-1.2l0.5,1.2c0.2,0.5,0.5,0.9,0.8,1c0.3,0.2,0.8,0.2,1.4,0.2 h2.9v-0.6C373.9,204.2,373.5,203.8,373.1,203.4z M368.2,199.4c-0.6,0.6-1.2,1.1-1.9,1.4c-0.6,0.3-1.3,0.4-2.2,0.4 c-0.8,0-1.3-0.1-1.7-0.4c-0.4-0.3-0.6-0.8-0.6-1.5c0-0.4,0.1-0.7,0.3-1c0.2-0.3,0.5-0.6,1-0.9c0.5-0.2,1.1-0.5,2-0.6 c0.8-0.2,1.9-0.3,3.1-0.3V199.4z"/><path fill="#FFF" d="M379.6,188.5l-1.2,10.5c-0.1,0.5,0,0.9,0.2,1.2c0.2,0.4,0.5,0.5,1,0.6c0.2,0,0.4,0,0.6,0 c0.2,0,0.3-0.1,0.4-0.1c0.1-0.1,0.2-0.1,0.3-0.1c0.1,0,0.2,0,0.4,0c0.2,0,0.3,0.1,0.4,0.2c0.1,0.1,0.2,0.2,0.3,0.5l1.6,3.2 c-0.9,0.5-1.9,0.9-2.9,1.1c-1.1,0.2-2.1,0.2-3.2,0.1c-1-0.1-1.9-0.4-2.6-0.7c-0.2-0.1-0.3-0.2-0.5-0.3v-12.7 c0-1.2-0.2-2.3-0.6-3.4c-0.4-1-0.9-1.9-1.6-2.7c-0.5-0.5-1-0.9-1.6-1.2l0.1-0.9l3.4-0.3l1.8-5c0.2-0.6,0.7-0.9,1.5-0.8l3.3,0.4 l-0.7,6.2l5.2,0.6l0,0.1c-1,0.6-1.9,1.3-2.6,2.1c-0.5,0.6-0.9,1.1-1.3,1.8L379.6,188.5z"/><path fill="#FFF" d="M399.8,195.7c-0.4-0.2-0.8-0.2-1.3,0c-0.4,0.2-0.6,0.4-0.9,0.7c-0.2,0.3-0.5,0.6-0.8,1 c-0.3,0.4-0.6,0.7-1.1,1.1c-0.4,0.4-1,0.7-1.6,1c-1.3,0.6-2.5,0.7-3.6,0.3c-1.1-0.4-2.2-1.3-3.1-2.8l11.2-5.1 c0.3-0.1,0.5-0.2,0.6-0.4c0.1-0.1,0.2-0.3,0.2-0.5c0-0.2,0-0.5-0.1-0.7c-0.1-0.3-0.2-0.7-0.4-1.1c-0.6-1.4-1.4-2.6-2.4-3.5 c-0.9-0.9-2-1.6-3.1-2c-1.1-0.4-2.3-0.6-3.5-0.5c-1.2,0.1-2.5,0.4-3.8,1c-0.4,0.2-0.7,0.3-1,0.5l-0.5,4.2l-3.5-0.4 c-0.3,0.5-0.6,1.1-0.8,1.7c-0.4,1.2-0.6,2.6-0.5,3.9c0.1,1.4,0.4,2.7,1,4c0.8,1.7,1.7,3.1,2.8,4.2c1.1,1.1,2.3,1.8,3.6,2.3 c1.3,0.5,2.6,0.6,4,0.5c1.4-0.1,2.8-0.5,4.1-1.1c0.7-0.3,1.3-0.7,2-1.1c0.7-0.4,1.3-0.9,2-1.5c0.6-0.6,1.2-1.2,1.7-2 c0.5-0.7,0.9-1.6,1.2-2.6L399.8,195.7z M386.1,193.7c-0.3-1.3-0.3-2.4,0-3.3c0.3-0.9,1.1-1.6,2.1-2.1c0.6-0.3,1.2-0.4,1.7-0.4 c0.5,0,1,0.1,1.4,0.4c0.4,0.2,0.8,0.5,1.1,0.9c0.3,0.4,0.6,0.8,0.8,1.3L386.1,193.7z"/><g display="none"><path fill="#FFF" d="M324,203c-0.7-0.6-1.2-1.4-1.6-2.3c-0.5-1-0.8-2.3-0.9-3.7c-0.1-1.4,0-2.9,0.4-4.6 c0.2-0.9,0.4-1.7,0.8-2.5L324,203z" display="inline"/><path fill="#FFF" d="M343.9,185.9l-2.6,12.9c-0.3-0.8-0.6-1.7-0.8-2.7c-0.3-1.4-0.3-2.8-0.1-4.1 c0.2-1.3,0.7-2.6,1.4-3.7C342.4,187.3,343.1,186.5,343.9,185.9z" display="inline"/><path fill="#FFF" d="M361.6,199.7c-0.5,0.9-1.1,1.6-1.7,2.2c-0.6,0.6-1.3,1.1-2.1,1.5 c-0.2,0.1-0.3,0.2-0.5,0.3c-0.5-0.5-0.8-1-1.1-1.6c-0.3-0.7-0.4-1.6-0.4-2.5c0-0.2,0-0.4,0-0.6c0.1-0.1,0.2-0.1,0.2-0.2 c0.4-0.3,0.7-0.6,1-0.8c0.3-0.2,0.6-0.4,1-0.5c0.5-0.1,0.9,0,1.2,0.3L361.6,199.7z" display="inline"/><path fill="#FFF" d="M359.7,189.9c-0.4,0-0.7-0.1-1-0.3c-0.3-0.2-0.5-0.5-0.7-0.8l-1.1-2 c0.2-0.2,0.5-0.4,0.8-0.6c0.4,0.4,0.7,0.8,1,1.3C359,188.2,359.4,189,359.7,189.9z" display="inline"/><path fill="#FFF" d="M374.4,191.8v12.7c-0.5-0.3-0.9-0.7-1.3-1.2c-0.5-0.6-0.8-1.3-1-2.1 c-0.2-0.8-0.2-1.7-0.1-2.6l1.2-10.9l-1.8-0.2c-0.3,0-0.6-0.2-0.8-0.4c-0.2-0.2-0.3-0.6-0.2-1l0.2-1.6c0.6,0.3,1.1,0.8,1.6,1.2 c0.7,0.7,1.3,1.6,1.6,2.7C374.2,189.5,374.4,190.6,374.4,191.8z" display="inline"/><path fill="#FFF" d="M385.3,184.8l-0.5,4.2l-3.5-0.4c0.4-0.6,0.8-1.2,1.3-1.8 C383.4,186.1,384.3,185.4,385.3,184.8z" display="inline"/></g></g><rect width="18" height="18" x="397" y="218.2" fill="#FFF" transform="matrix(0.7071 -0.7071 0.7071 0.7071 -41.7201 353.5973)"/><g><path fill="#3599DC" d="M303.9,227.7H256l47.9-68.5V227.7z M263.1,223.9h37.1v-53.1L263.1,223.9z"/></g></g><g><g><rect width="97.9" height="68.4" x="517.3" y="158.7" fill="#E77E22"/><g><path fill="#FFF" d="M531,179.1c-0.1,0.5-0.4,0.9-0.7,1.3c-0.3,0.4-0.7,0.7-1.2,0.9c-0.4,0.2-0.9,0.4-1.5,0.5 c-0.5,0.1-1,0-1.5-0.1c-0.5-0.1-0.9-0.4-1.3-0.7c-0.4-0.3-0.7-0.6-0.9-1.1c-0.2-0.4-0.4-0.9-0.5-1.4c-0.1-0.5,0-1,0.1-1.5 c0.1-0.5,0.4-0.9,0.7-1.3c0.3-0.4,0.7-0.7,1.1-0.9s0.9-0.4,1.4-0.4c0.5-0.1,1,0,1.5,0.1c0.5,0.1,0.9,0.4,1.3,0.7 c0.4,0.3,0.7,0.7,1,1.1c0.2,0.4,0.4,0.9,0.5,1.4C531.2,178.2,531.2,178.7,531,179.1z"/><path fill="#FFF" d="M533.4,204.7l-6.3,0.7l-2.3-21.2l6.3-0.7l0.7,6.4c-0.3,0.8-0.6,1.6-0.8,2.5c-0.4,1.7-0.5,3.2-0.4,4.6 c0.1,1.4,0.4,2.6,0.9,3.7c0.4,0.9,1,1.7,1.6,2.3L533.4,204.7z"/><path fill="#FFF" d="M548.8,175.5l-2.2,10.6c-0.5-0.6-1.1-1.2-1.8-1.7c-0.7-0.5-1.6-0.8-2.6-1c-1.3-0.3-2.6-0.2-3.8,0.1 c-1.2,0.3-2.3,0.9-3.3,1.7c-1,0.8-1.8,1.8-2.5,3.1c-0.3,0.5-0.6,1.1-0.8,1.7l1.4,13.1c0.1,0.1,0.2,0.2,0.3,0.3 c0.8,0.7,1.8,1.1,2.9,1.3c0.7,0.1,1.4,0.2,2,0.2c0.6,0,1.2-0.1,1.8-0.2c0.6-0.2,1.1-0.4,1.7-0.6c0.5-0.3,1-0.6,1.6-0.9l0.2,1.7 c0.1,0.7,0.5,1.2,1.3,1.4l3.9,0.8l1.7-8.1c-0.3-0.8-0.6-1.7-0.8-2.7c-0.3-1.4-0.3-2.8-0.1-4.1c0.2-1.3,0.7-2.6,1.4-3.7 c0.6-0.9,1.3-1.7,2.1-2.3l1.9-9.1L548.8,175.5z M544,199.2c-0.3,0.3-0.7,0.5-1,0.7c-0.3,0.2-0.7,0.3-1,0.4 c-0.3,0.1-0.7,0.2-1.1,0.2c-0.4,0-0.8,0-1.3-0.1c-0.5-0.1-0.9-0.3-1.3-0.6c-0.4-0.3-0.6-0.7-0.8-1.2c-0.2-0.5-0.3-1.2-0.3-2 c0-0.8,0.1-1.7,0.3-2.8c0.2-1.1,0.5-2.1,0.9-2.9c0.4-0.8,0.8-1.4,1.2-1.8c0.5-0.4,1-0.7,1.5-0.8c0.5-0.1,1.1-0.1,1.7,0 c0.6,0.1,1.2,0.4,1.7,0.7c0.5,0.3,0.9,0.8,1.3,1.4L544,199.2z"/><path fill="#FFF" d="M569.3,191.3c-0.1-0.5-0.2-1-0.4-1.4c-0.4,0-0.7-0.1-1-0.3c-0.3-0.2-0.5-0.5-0.7-0.8l-1.1-2 c0.2-0.2,0.5-0.4,0.8-0.6c-0.5-0.5-1-1-1.6-1.4c-1-0.7-2.1-1.1-3.3-1.3c-1.2-0.2-2.6-0.2-3.9,0.1c-1.6,0.3-3,0.9-4.1,1.7 c-0.2,0.2-0.5,0.3-0.7,0.5l-2.6,12.9c0.3,0.7,0.6,1.4,1,2c0.8,1.3,1.8,2.3,3,3c1.2,0.7,2.4,1.2,3.8,1.5c1.4,0.2,2.8,0.2,4.3-0.1 c0.7-0.1,1.5-0.3,2.2-0.6c0.6-0.2,1.2-0.5,1.8-0.8c-0.5-0.5-0.8-1-1.1-1.6c-0.3-0.7-0.4-1.6-0.4-2.5c0-0.2,0-0.4,0-0.6 c-0.3,0.2-0.7,0.5-1.1,0.7c-0.5,0.3-1.1,0.5-1.8,0.6c-1.4,0.3-2.6,0.1-3.6-0.5c-1-0.6-1.8-1.8-2.3-3.5l12-2.4 c0.3-0.1,0.5-0.1,0.7-0.2c0.2-0.1,0.3-0.2,0.4-0.4c0.1-0.2,0.1-0.5,0.1-0.8C569.5,192.2,569.4,191.8,569.3,191.3z M555.7,192.7 c0-1.3,0.2-2.4,0.7-3.2c0.5-0.8,1.4-1.3,2.6-1.6c0.7-0.1,1.3-0.1,1.8,0c0.5,0.1,1,0.4,1.3,0.7c0.4,0.3,0.7,0.7,0.9,1.1 c0.2,0.4,0.4,0.9,0.5,1.4L555.7,192.7z"/><path fill="#FFF" d="M582.4,203.4c-0.5-0.6-0.8-1.3-1-2.1c-0.2-0.8-0.2-1.7-0.1-2.6l1.2-10.9l-1.8-0.2c-0.3,0-0.6-0.2-0.8-0.4 c-0.2-0.2-0.3-0.6-0.2-1l0.2-1.6c-0.3-0.2-0.7-0.4-1-0.5c-1-0.4-2.2-0.6-3.5-0.6c-1.8,0-3.5,0.3-5,0.8c-1.3,0.4-2.4,1.1-3.5,1.9 c0.4,0.4,0.7,0.8,1,1.3c0.5,0.7,0.8,1.6,1.1,2.5c0,0,0.1,0,0.1,0c0.5,0,0.9-0.1,1.3-0.2c0.4-0.2,0.7-0.4,1.1-0.6 c0.4-0.2,0.8-0.4,1.3-0.6c0.5-0.2,1.1-0.2,1.8-0.2c1,0,1.7,0.3,2.2,0.8c0.5,0.6,0.8,1.5,0.8,2.7v0.9c-2.4,0.1-4.5,0.3-6.1,0.7 c-1.6,0.4-2.9,1-3.8,1.6c-0.9,0.6-1.6,1.4-2,2.2c-0.3,0.6-0.5,1.2-0.5,1.7c0.1-0.1,0.2-0.1,0.2-0.2c0.4-0.3,0.7-0.6,1-0.8 c0.3-0.2,0.6-0.4,1-0.5c0.5-0.1,0.9,0,1.2,0.3l2.3,1.9c-0.5,0.9-1.1,1.6-1.7,2.2c-0.6,0.6-1.3,1.1-2.1,1.5 c-0.2,0.1-0.3,0.2-0.5,0.3c0.1,0.1,0.1,0.1,0.2,0.2c0.6,0.5,1.2,0.9,2,1.1c0.8,0.2,1.7,0.4,2.7,0.4c0.7,0,1.4-0.1,2-0.2 c0.6-0.1,1.2-0.3,1.7-0.5c0.5-0.2,1-0.5,1.5-0.9c0.5-0.3,1-0.7,1.5-1.2l0.5,1.2c0.2,0.5,0.5,0.9,0.8,1c0.3,0.2,0.8,0.2,1.4,0.2 h2.9v-0.6C583.2,204.2,582.8,203.8,582.4,203.4z M577.5,199.4c-0.6,0.6-1.2,1.1-1.9,1.4c-0.6,0.3-1.3,0.4-2.2,0.4 c-0.8,0-1.3-0.1-1.7-0.4c-0.4-0.3-0.6-0.8-0.6-1.5c0-0.4,0.1-0.7,0.3-1c0.2-0.3,0.5-0.6,1-0.9c0.5-0.2,1.1-0.5,2-0.6 c0.8-0.2,1.9-0.3,3.1-0.3V199.4z"/><path fill="#FFF" d="M588.8,188.5l-1.2,10.5c-0.1,0.5,0,0.9,0.2,1.2c0.2,0.4,0.5,0.5,1,0.6c0.2,0,0.4,0,0.6,0 c0.2,0,0.3-0.1,0.4-0.1c0.1-0.1,0.2-0.1,0.3-0.1c0.1,0,0.2,0,0.4,0c0.2,0,0.3,0.1,0.4,0.2c0.1,0.1,0.2,0.2,0.3,0.5l1.6,3.2 c-0.9,0.5-1.9,0.9-2.9,1.1c-1.1,0.2-2.1,0.2-3.2,0.1c-1-0.1-1.9-0.4-2.6-0.7c-0.2-0.1-0.3-0.2-0.5-0.3v-12.7 c0-1.2-0.2-2.3-0.6-3.4c-0.4-1-0.9-1.9-1.6-2.7c-0.5-0.5-1-0.9-1.6-1.2l0.1-0.9l3.4-0.3l1.8-5c0.2-0.6,0.7-0.9,1.5-0.8l3.3,0.4 l-0.7,6.2l5.2,0.6l0,0.1c-1,0.6-1.9,1.3-2.6,2.1c-0.5,0.6-0.9,1.1-1.3,1.8L588.8,188.5z"/><path fill="#FFF" d="M609.1,195.7c-0.4-0.2-0.8-0.2-1.3,0c-0.4,0.2-0.6,0.4-0.9,0.7c-0.2,0.3-0.5,0.6-0.8,1 c-0.3,0.4-0.6,0.7-1.1,1.1c-0.4,0.4-1,0.7-1.6,1c-1.3,0.6-2.5,0.7-3.6,0.3c-1.1-0.4-2.2-1.3-3.1-2.8L608,192 c0.3-0.1,0.5-0.2,0.6-0.4c0.1-0.1,0.2-0.3,0.2-0.5c0-0.2,0-0.5-0.1-0.7c-0.1-0.3-0.2-0.7-0.4-1.1c-0.6-1.4-1.4-2.6-2.4-3.5 c-0.9-0.9-2-1.6-3.1-2c-1.1-0.4-2.3-0.6-3.5-0.5c-1.2,0.1-2.5,0.4-3.8,1c-0.4,0.2-0.7,0.3-1,0.5l-0.5,4.2l-3.5-0.4 c-0.3,0.5-0.6,1.1-0.8,1.7c-0.4,1.2-0.6,2.6-0.5,3.9c0.1,1.4,0.4,2.7,1,4c0.8,1.7,1.7,3.1,2.8,4.2c1.1,1.1,2.3,1.8,3.6,2.3 c1.3,0.5,2.6,0.6,4,0.5c1.4-0.1,2.8-0.5,4.1-1.1c0.7-0.3,1.3-0.7,2-1.1c0.7-0.4,1.3-0.9,2-1.5c0.6-0.6,1.2-1.2,1.7-2 c0.5-0.7,0.9-1.6,1.2-2.6L609.1,195.7z M595.3,193.7c-0.3-1.3-0.3-2.4,0-3.3c0.3-0.9,1.1-1.6,2.1-2.1c0.6-0.3,1.2-0.4,1.7-0.4 c0.5,0,1,0.1,1.4,0.4c0.4,0.2,0.8,0.5,1.1,0.9c0.3,0.4,0.6,0.8,0.8,1.3L595.3,193.7z"/><g display="none"><path fill="#FFF" d="M533.3,203c-0.7-0.6-1.2-1.4-1.6-2.3c-0.5-1-0.8-2.3-0.9-3.7c-0.1-1.4,0-2.9,0.4-4.6 c0.2-0.9,0.4-1.7,0.8-2.5L533.3,203z" display="inline"/><path fill="#FFF" d="M553.2,185.9l-2.6,12.9c-0.3-0.8-0.6-1.7-0.8-2.7c-0.3-1.4-0.3-2.8-0.1-4.1 c0.2-1.3,0.7-2.6,1.4-3.7C551.6,187.3,552.3,186.5,553.2,185.9z" display="inline"/><path fill="#FFF" d="M570.8,199.7c-0.5,0.9-1.1,1.6-1.7,2.2c-0.6,0.6-1.3,1.1-2.1,1.5 c-0.2,0.1-0.3,0.2-0.5,0.3c-0.5-0.5-0.8-1-1.1-1.6c-0.3-0.7-0.4-1.6-0.4-2.5c0-0.2,0-0.4,0-0.6c0.1-0.1,0.2-0.1,0.2-0.2 c0.4-0.3,0.7-0.6,1-0.8c0.3-0.2,0.6-0.4,1-0.5c0.5-0.1,0.9,0,1.2,0.3L570.8,199.7z" display="inline"/><path fill="#FFF" d="M568.9,189.9c-0.4,0-0.7-0.1-1-0.3c-0.3-0.2-0.5-0.5-0.7-0.8l-1.1-2 c0.2-0.2,0.5-0.4,0.8-0.6c0.4,0.4,0.7,0.8,1,1.3C568.3,188.2,568.6,189,568.9,189.9z" display="inline"/><path fill="#FFF" d="M583.7,191.8v12.7c-0.5-0.3-0.9-0.7-1.3-1.2c-0.5-0.6-0.8-1.3-1-2.1 c-0.2-0.8-0.2-1.7-0.1-2.6l1.2-10.9l-1.8-0.2c-0.3,0-0.6-0.2-0.8-0.4c-0.2-0.2-0.3-0.6-0.2-1l0.2-1.6c0.6,0.3,1.1,0.8,1.6,1.2 c0.7,0.7,1.3,1.6,1.6,2.7C583.5,189.5,583.7,190.6,583.7,191.8z" display="inline"/><path fill="#FFF" d="M594.5,184.8l-0.5,4.2l-3.5-0.4c0.4-0.6,0.8-1.2,1.3-1.8 C592.6,186.1,593.5,185.4,594.5,184.8z" display="inline"/></g></g><rect width="18" height="18" x="606.2" y="218.2" fill="#FFF" transform="matrix(0.7071 -0.7071 0.7071 0.7071 19.5699 501.5644)"/></g><circle cx="477" cy="193" r="34.3" fill="none" stroke="#E77E22" stroke-miterlimit="10" stroke-width="4"/></g></svg>