<svg xmlns="http://www.w3.org/2000/svg" xmlns:xlink="http://www.w3.org/1999/xlink" id="Layer_1" x="0" y="0" enable-background="new 0 0 676.1 226.5" version="1.1" viewBox="0 0 676.1 226.5" xml:space="preserve"><g><polygon fill="none" stroke="#000" stroke-linecap="round" stroke-linejoin="round" stroke-width=".217" points="216.2 35.9 194.9 48.2 194.9 72.7 216.2 85 237.5 72.7 237.5 48.2"/><circle cx="237.5" cy="48.2" r="3.9" fill="none" stroke="#000" stroke-linecap="round" stroke-linejoin="round" stroke-width=".217"/><line x1="194.9" x2="216.2" y1="48.2" y2="60.5" fill="none" stroke="#000" stroke-linecap="round" stroke-linejoin="round" stroke-width=".217"/><line x1="237.5" x2="216.2" y1="48.2" y2="60.5" fill="none" stroke="#000" stroke-linecap="round" stroke-linejoin="round" stroke-width=".217"/><circle cx="237.5" cy="72.7" r="3.9" fill="none" stroke="#000" stroke-linecap="round" stroke-linejoin="round" stroke-width=".217"/><circle cx="237.5" cy="60.5" r="3.9" fill="none" stroke="#000" stroke-linecap="round" stroke-linejoin="round" stroke-width=".217"/><circle cx="216.2" cy="85" r="3.9" fill="none" stroke="#000" stroke-linecap="round" stroke-linejoin="round" stroke-width=".217"/><circle cx="194.9" cy="48.2" r="3.9" fill="none" stroke="#000" stroke-linecap="round" stroke-linejoin="round" stroke-width=".217"/><circle cx="194.9" cy="60.5" r="3.9" fill="none" stroke="#000" stroke-linecap="round" stroke-linejoin="round" stroke-width=".217"/><circle cx="194.9" cy="72.7" r="3.9" fill="none" stroke="#000" stroke-linecap="round" stroke-linejoin="round" stroke-width=".217"/><circle cx="205.6" cy="78.9" r="3.9" fill="none" stroke="#000" stroke-linecap="round" stroke-linejoin="round" stroke-width=".217"/><circle cx="216.2" cy="60.5" r="3.9" fill="none" stroke="#000" stroke-linecap="round" stroke-linejoin="round" stroke-width=".217"/><circle cx="216.2" cy="35.9" r="3.9" fill="none" stroke="#000" stroke-linecap="round" stroke-linejoin="round" stroke-width=".217"/><circle cx="226.8" cy="42" r="3.9" fill="none" stroke="#000" stroke-linecap="round" stroke-linejoin="round" stroke-width=".217"/><circle cx="205.6" cy="42" r="3.9" fill="none" stroke="#000" stroke-linecap="round" stroke-linejoin="round" stroke-width=".217"/><circle cx="226.8" cy="78.9" r="3.9" fill="none" stroke="#000" stroke-linecap="round" stroke-linejoin="round" stroke-width=".217"/><line x1="216.2" x2="216.2" y1="60.5" y2="85" fill="none" stroke="#000" stroke-linecap="round" stroke-linejoin="round" stroke-width=".217"/><circle cx="216.2" cy="72.7" r="3.9" fill="none" stroke="#000" stroke-linecap="round" stroke-linejoin="round" stroke-width=".217"/><circle cx="205.6" cy="54.3" r="3.9" fill="none" stroke="#000" stroke-linecap="round" stroke-linejoin="round" stroke-width=".217"/><circle cx="226.8" cy="54.3" r="3.9" fill="none" stroke="#000" stroke-linecap="round" stroke-linejoin="round" stroke-width=".217"/><line x1="194.9" x2="237.5" y1="48.2" y2="48.2" fill="none" stroke="#000" stroke-linecap="round" stroke-linejoin="round" stroke-width=".217"/><line x1="216.2" x2="216.2" y1="60.5" y2="35.9" fill="none" stroke="#000" stroke-linecap="round" stroke-linejoin="round" stroke-width=".217"/><line x1="216.2" x2="194.9" y1="60.5" y2="72.7" fill="none" stroke="#000" stroke-linecap="round" stroke-linejoin="round" stroke-width=".217"/><line x1="194.9" x2="216.2" y1="48.2" y2="85" fill="none" stroke="#000" stroke-linecap="round" stroke-linejoin="round" stroke-width=".217"/><line x1="216.2" x2="237.5" y1="85" y2="48.2" fill="none" stroke="#000" stroke-linecap="round" stroke-linejoin="round" stroke-width=".217"/><line x1="216.2" x2="237.5" y1="60.5" y2="72.7" fill="none" stroke="#000" stroke-linecap="round" stroke-linejoin="round" stroke-width=".217"/><circle cx="205.6" cy="66.6" r="3.9" fill="none" stroke="#000" stroke-linecap="round" stroke-linejoin="round" stroke-width=".217"/><circle cx="226.8" cy="66.6" r="3.9" fill="none" stroke="#000" stroke-linecap="round" stroke-linejoin="round" stroke-width=".217"/><circle cx="216.2" cy="48.2" r="3.9" fill="none" stroke="#000" stroke-linecap="round" stroke-linejoin="round" stroke-width=".217"/></g><g><polygon fill="none" stroke="#000" stroke-linecap="round" stroke-linejoin="round" stroke-width=".217" points="99 32 77.7 44.3 77.7 68.8 99 81.1 120.3 68.8 120.3 44.3"/><line x1="77.7" x2="99" y1="44.3" y2="56.6" fill="none" stroke="#000" stroke-linecap="round" stroke-linejoin="round" stroke-width=".217"/><line x1="120.3" x2="99" y1="44.3" y2="56.6" fill="none" stroke="#000" stroke-linecap="round" stroke-linejoin="round" stroke-width=".217"/><line x1="99" x2="99" y1="56.6" y2="81.1" fill="none" stroke="#000" stroke-linecap="round" stroke-linejoin="round" stroke-width=".217"/><line x1="77.7" x2="120.3" y1="44.3" y2="44.3" fill="none" stroke="#000" stroke-linecap="round" stroke-linejoin="round" stroke-width=".217"/><line x1="99" x2="99" y1="56.6" y2="32" fill="none" stroke="#000" stroke-linecap="round" stroke-linejoin="round" stroke-width=".217"/><line x1="99" x2="77.7" y1="56.6" y2="68.8" fill="none" stroke="#000" stroke-linecap="round" stroke-linejoin="round" stroke-width=".217"/><line x1="77.7" x2="99" y1="44.3" y2="81.1" fill="none" stroke="#000" stroke-linecap="round" stroke-linejoin="round" stroke-width=".217"/><line x1="99" x2="120.3" y1="81.1" y2="44.3" fill="none" stroke="#000" stroke-linecap="round" stroke-linejoin="round" stroke-width=".217"/><line x1="99" x2="120.3" y1="56.6" y2="68.8" fill="none" stroke="#000" stroke-linecap="round" stroke-linejoin="round" stroke-width=".217"/></g><g><circle cx="354.7" cy="48.2" r="3.9" fill="#313131"/><circle cx="354.7" cy="72.7" r="3.9" fill="#313131"/><circle cx="354.7" cy="60.5" r="3.9" fill="#313131"/><circle cx="333.4" cy="85" r="3.9" fill="#313131"/><circle cx="312.2" cy="48.2" r="3.9" fill="#313131"/><circle cx="312.2" cy="60.5" r="3.9" fill="#313131"/><circle cx="312.2" cy="72.7" r="3.9" fill="#313131"/><circle cx="322.8" cy="78.9" r="3.9" fill="#313131"/><circle cx="333.4" cy="60.5" r="3.9" fill="#313131"/><circle cx="333.4" cy="35.9" r="3.9" fill="#313131"/><circle cx="344.1" cy="42" r="3.9" fill="#313131"/><circle cx="322.8" cy="42" r="3.9" fill="#313131"/><circle cx="344.1" cy="78.9" r="3.9" fill="#313131"/><circle cx="333.4" cy="72.7" r="3.9" fill="#313131"/><circle cx="322.8" cy="54.3" r="3.9" fill="#313131"/><circle cx="344.1" cy="54.3" r="3.9" fill="#313131"/><circle cx="322.8" cy="66.6" r="3.9" fill="#313131"/><circle cx="344.1" cy="66.6" r="3.9" fill="#313131"/><circle cx="333.4" cy="48.2" r="3.9" fill="#313131"/></g><g><circle cx="124.2" cy="158.8" r="3.9" fill="#313131"/><circle cx="124.2" cy="146.5" r="3.9" fill="#313131"/><circle cx="81.6" cy="146.5" r="3.9" fill="#313131"/><circle cx="81.6" cy="158.8" r="3.9" fill="#313131"/><circle cx="92.3" cy="164.9" r="3.9" fill="#313131"/><circle cx="102.9" cy="122" r="3.9" fill="#313131"/><circle cx="113.5" cy="128.1" r="3.9" fill="#313131"/><circle cx="92.3" cy="128.1" r="3.9" fill="#313131"/><circle cx="113.5" cy="164.9" r="3.9" fill="#313131"/><circle cx="92.3" cy="152.7" r="3.9" fill="#313131"/><circle cx="113.5" cy="152.7" r="3.9" fill="#313131"/><circle cx="102.9" cy="134.2" r="3.9" fill="#313131"/></g><g><circle cx="429.4" cy="48.2" r="4.7" fill="#E00E7D"/><circle cx="471.9" cy="72.7" r="3.9" fill="#313131"/><circle cx="471.9" cy="60.5" r="3.9" fill="#313131"/><circle cx="429.4" cy="60.5" r="3.9" fill="#313131"/><circle cx="429.4" cy="72.7" r="3.9" fill="#313131"/><circle cx="440" cy="78.9" r="3.9" fill="#313131"/><circle cx="450.7" cy="35.9" r="3.9" fill="#313131"/><circle cx="461.3" cy="42" r="3.9" fill="#313131"/><circle cx="440" cy="42" r="3.9" fill="#313131"/><circle cx="461.3" cy="78.9" r="3.9" fill="#313131"/><circle cx="440" cy="66.6" r="3.9" fill="#313131"/><circle cx="461.3" cy="66.6" r="3.9" fill="#313131"/><circle cx="450.7" cy="48.2" r="3.9" fill="#313131"/><circle cx="450.7" cy="85" r="4.7" fill="#E00E7D"/><circle cx="450.7" cy="72.7" r="4.7" fill="#E00E7D"/><circle cx="450.7" cy="60.5" r="4.7" fill="#E00E7D"/><circle cx="461.3" cy="54.3" r="4.7" fill="#E00E7D"/><circle cx="471.9" cy="48.2" r="4.7" fill="#E00E7D"/><circle cx="440" cy="54.3" r="4.7" fill="#E00E7D"/></g><g><circle cx="557.2" cy="66.6" r="4.7" fill="#2AD891"/><circle cx="567.9" cy="48.2" r="4.7" fill="#2AD891"/><circle cx="557.2" cy="54.3" r="4.7" fill="#2AD891"/><circle cx="589.1" cy="48.2" r="3.9" fill="#313131"/><circle cx="589.1" cy="72.7" r="3.9" fill="#313131"/><circle cx="589.1" cy="60.5" r="3.9" fill="#313131"/><circle cx="567.9" cy="85" r="3.9" fill="#313131"/><circle cx="546.6" cy="48.2" r="3.9" fill="#313131"/><circle cx="546.6" cy="60.5" r="3.9" fill="#313131"/><circle cx="546.6" cy="72.7" r="3.9" fill="#313131"/><circle cx="567.9" cy="60.5" r="3.9" fill="#313131"/><circle cx="567.9" cy="35.9" r="3.9" fill="#313131"/><circle cx="578.5" cy="42" r="3.9" fill="#313131"/><circle cx="557.2" cy="42" r="3.9" fill="#313131"/><circle cx="578.5" cy="78.9" r="3.9" fill="#313131"/><circle cx="567.9" cy="72.7" r="3.9" fill="#313131"/><circle cx="578.5" cy="54.3" r="3.9" fill="#313131"/><circle cx="578.5" cy="66.6" r="3.9" fill="#313131"/><circle cx="557.2" cy="78.9" r="4.7" fill="#2AD891"/></g><g><g><circle cx="557.2" cy="140.4" r="3.7" fill="#E00E7D"/><path fill="#313131" d="M557.2,137.7c1.5,0,2.7,1.2,2.7,2.7c0,1.5-1.2,2.7-2.7,2.7c-1.5,0-2.7-1.2-2.7-2.7 C554.6,138.9,555.8,137.7,557.2,137.7 M557.2,135.7c-2.6,0-4.7,2.1-4.7,4.7c0,2.6,2.1,4.7,4.7,4.7c2.6,0,4.7-2.1,4.7-4.7 C561.9,137.8,559.8,135.7,557.2,135.7L557.2,135.7z"/></g><g><circle cx="567.9" cy="158.8" r="3.7" fill="#E00E7D"/><path fill="#313131" d="M567.9,156.1c1.5,0,2.7,1.2,2.7,2.7c0,1.5-1.2,2.7-2.7,2.7s-2.7-1.2-2.7-2.7 C565.2,157.3,566.4,156.1,567.9,156.1 M567.9,154.1c-2.6,0-4.7,2.1-4.7,4.7s2.1,4.7,4.7,4.7c2.6,0,4.7-2.1,4.7-4.7 S570.5,154.1,567.9,154.1L567.9,154.1z"/></g><g><circle cx="557.2" cy="152.7" r="3.7" fill="#E00E7D"/><path fill="#313131" d="M557.2,150c1.5,0,2.7,1.2,2.7,2.7c0,1.5-1.2,2.7-2.7,2.7c-1.5,0-2.7-1.2-2.7-2.7 C554.6,151.2,555.8,150,557.2,150 M557.2,148c-2.6,0-4.7,2.1-4.7,4.7c0,2.6,2.1,4.7,4.7,4.7c2.6,0,4.7-2.1,4.7-4.7 C561.9,150.1,559.8,148,557.2,148L557.2,148z"/></g><circle cx="589.1" cy="158.8" r="3.9" fill="#313131"/><circle cx="589.1" cy="134.2" r="3.9" fill="#313131"/><circle cx="589.1" cy="146.5" r="3.9" fill="#313131"/><circle cx="567.9" cy="122" r="3.9" fill="#313131"/><circle cx="546.6" cy="158.8" r="3.9" fill="#313131"/><circle cx="546.6" cy="146.5" r="3.9" fill="#313131"/><circle cx="546.6" cy="134.2" r="3.9" fill="#313131"/><circle cx="567.9" cy="146.5" r="3.9" fill="#313131"/><circle cx="567.9" cy="171.1" r="3.9" fill="#313131"/><circle cx="578.5" cy="164.9" r="3.9" fill="#313131"/><circle cx="557.2" cy="164.9" r="3.9" fill="#313131"/><circle cx="578.5" cy="128.1" r="3.9" fill="#313131"/><circle cx="567.9" cy="134.2" r="3.9" fill="#313131"/><circle cx="578.5" cy="152.7" r="3.9" fill="#313131"/><circle cx="578.5" cy="140.4" r="3.9" fill="#313131"/><g><circle cx="557.2" cy="128.1" r="3.7" fill="#E00E7D"/><path fill="#313131" d="M557.2,125.4c1.5,0,2.7,1.2,2.7,2.7c0,1.5-1.2,2.7-2.7,2.7c-1.5,0-2.7-1.2-2.7-2.7 C554.6,126.6,555.8,125.4,557.2,125.4 M557.2,123.4c-2.6,0-4.7,2.1-4.7,4.7s2.1,4.7,4.7,4.7c2.6,0,4.7-2.1,4.7-4.7 S559.8,123.4,557.2,123.4L557.2,123.4z"/></g></g><g><circle cx="441.4" cy="128.4" r="4.5" fill="#E84C3C"/><circle cx="431.2" cy="134.3" r="4.5" fill="#E84C3C"/><circle cx="441.4" cy="140.2" r="4.5" fill="#E84C3C"/><circle cx="472" cy="134.3" r="4.5" fill="#E84C3C"/><circle cx="461.8" cy="140.2" r="4.5" fill="#E84C3C"/><circle cx="451.6" cy="146.1" r="4.5" fill="#E84C3C"/><circle cx="461.8" cy="152" r="3.7" fill="#313131"/><circle cx="441.4" cy="152" r="3.7" fill="#313131"/><circle cx="461.8" cy="163.8" r="3.7" fill="#313131"/><circle cx="441.4" cy="163.8" r="3.7" fill="#313131"/><circle cx="431.2" cy="157.9" r="3.7" fill="#313131"/><circle cx="431.2" cy="146.1" r="3.7" fill="#313131"/><circle cx="472" cy="146.1" r="3.7" fill="#313131"/><circle cx="472" cy="157.9" r="3.7" fill="#313131"/><circle cx="451.6" cy="157.9" r="3.7" fill="#313131"/><circle cx="451.6" cy="169.7" r="3.7" fill="#313131"/><circle cx="451.6" cy="134.3" r="4.5" fill="#E84C3C"/><circle cx="461.8" cy="128.4" r="4.5" fill="#E84C3C"/><circle cx="451.6" cy="122.5" r="4.5" fill="#E84C3C"/></g><g><circle cx="208.9" cy="151.3" r="4.5" fill="#2AD891"/><circle cx="219.1" cy="133.6" r="4.5" fill="#2AD891"/><circle cx="198.7" cy="133.6" r="4.5" fill="#E00E7D"/><g><circle cx="208.9" cy="139.5" r="3.7" fill="#E00E7D"/><path fill="#2AD891" d="M208.9,136.6c1.6,0,2.8,1.3,2.8,2.8s-1.3,2.8-2.8,2.8s-2.8-1.3-2.8-2.8S207.4,136.6,208.9,136.6 M208.9,135c-2.5,0-4.5,2-4.5,4.5s2,4.5,4.5,4.5s4.5-2,4.5-4.5S211.4,135,208.9,135L208.9,135z"/></g><circle cx="239.6" cy="133.6" r="4.5" fill="#E00E7D"/><circle cx="229.4" cy="139.5" r="4.5" fill="#E00E7D"/><circle cx="219.1" cy="145.4" r="4.5" fill="#E00E7D"/><circle cx="219.1" cy="157.2" r="4.5" fill="#E00E7D"/><circle cx="219.1" cy="169" r="4.5" fill="#E00E7D"/><circle cx="229.4" cy="151.3" r="3.7" fill="#313131"/><circle cx="229.4" cy="163.1" r="3.7" fill="#313131"/><circle cx="208.9" cy="127.7" r="3.7" fill="#313131"/><circle cx="229.4" cy="127.7" r="3.7" fill="#313131"/><circle cx="219.1" cy="121.8" r="3.7" fill="#313131"/><circle cx="198.7" cy="157.2" r="3.7" fill="#313131"/><circle cx="198.7" cy="145.4" r="3.7" fill="#313131"/><circle cx="239.6" cy="145.4" r="3.7" fill="#313131"/><circle cx="239.6" cy="157.2" r="3.7" fill="#313131"/><circle cx="208.9" cy="163.1" r="4.5" fill="#2AD891"/></g><g><circle cx="325.2" cy="151.3" r="4.5" fill="#2AD891"/><circle cx="335.4" cy="133.6" r="4.5" fill="#2AD891"/><circle cx="315" cy="133.6" r="4.5" fill="#E00E7D"/><g><circle cx="325.2" cy="139.5" r="4.5" fill="#E00E7D"/></g><circle cx="355.8" cy="133.6" r="4.5" fill="#E00E7D"/><circle cx="345.6" cy="139.5" r="4.5" fill="#E00E7D"/><circle cx="335.4" cy="145.4" r="4.5" fill="#E00E7D"/><circle cx="335.4" cy="157.2" r="4.5" fill="#E00E7D"/><circle cx="335.4" cy="169" r="4.5" fill="#E00E7D"/><circle cx="345.6" cy="151.3" r="3.7" fill="#313131"/><circle cx="345.6" cy="163.1" r="3.7" fill="#313131"/><circle cx="325.2" cy="127.7" r="3.7" fill="#313131"/><circle cx="345.6" cy="127.7" r="3.7" fill="#313131"/><circle cx="335.4" cy="121.8" r="3.7" fill="#313131"/><circle cx="315" cy="157.2" r="3.7" fill="#313131"/><circle cx="315" cy="145.4" r="3.7" fill="#313131"/><circle cx="355.8" cy="145.4" r="3.7" fill="#313131"/><circle cx="355.8" cy="157.2" r="3.7" fill="#313131"/><circle cx="325.2" cy="163.1" r="4.5" fill="#2AD891"/></g></svg>