<?xml version="1.0" encoding="utf-8"?>
<!-- Generator: Adobe Illustrator 21.1.0, SVG Export Plug-In . SVG Version: 6.00 Build 0)  -->
<svg version="1.1" id="Layer_1" xmlns="http://www.w3.org/2000/svg" xmlns:xlink="http://www.w3.org/1999/xlink" x="0px" y="0px"
	 viewBox="0 0 676.1 281.1" enable-background="new 0 0 676.1 281.1" xml:space="preserve">
<g>
	<g>
		<g>
			<path fill="#313131" d="M106.6,39.5c0,0.3-0.1,0.7-0.2,1s-0.3,0.6-0.6,0.8c-0.2,0.2-0.5,0.4-0.8,0.5c-0.3,0.1-0.7,0.2-1,0.2
				c-0.3,0-0.7-0.1-1-0.2c-0.3-0.1-0.6-0.3-0.8-0.5c-0.2-0.2-0.4-0.5-0.6-0.8s-0.2-0.6-0.2-1c0-0.3,0.1-0.7,0.2-1
				c0.1-0.3,0.3-0.6,0.6-0.8s0.5-0.4,0.8-0.5c0.3-0.1,0.6-0.2,1-0.2c0.4,0,0.7,0.1,1,0.2c0.3,0.1,0.6,0.3,0.8,0.5
				c0.2,0.2,0.4,0.5,0.6,0.8C106.5,38.8,106.6,39.2,106.6,39.5z M106.2,43.4v14.3h-4.3V43.4H106.2z"/>
			<path fill="#313131" d="M120.9,37.1v20.6h-2.6c-0.5,0-0.9-0.2-1-0.7l-0.3-1.1c-0.3,0.3-0.6,0.6-0.9,0.8c-0.3,0.2-0.7,0.5-1,0.6
				s-0.8,0.3-1.2,0.4c-0.4,0.1-0.9,0.1-1.4,0.1c-0.7,0-1.4-0.2-2.1-0.5s-1.2-0.8-1.6-1.4s-0.8-1.4-1.1-2.3c-0.3-0.9-0.4-1.9-0.4-3.1
				c0-1.1,0.1-2.1,0.4-3c0.3-0.9,0.7-1.7,1.2-2.4c0.5-0.7,1.2-1.2,1.9-1.6c0.8-0.4,1.6-0.6,2.5-0.6c0.7,0,1.4,0.1,1.9,0.3
				c0.5,0.2,1,0.5,1.4,0.9v-7.2H120.9z M116.7,47.3c-0.3-0.4-0.7-0.6-1-0.8s-0.8-0.2-1.2-0.2c-0.4,0-0.8,0.1-1.1,0.2
				c-0.3,0.2-0.6,0.4-0.9,0.8c-0.2,0.3-0.4,0.8-0.6,1.3c-0.1,0.6-0.2,1.2-0.2,2c0,0.8,0.1,1.4,0.2,1.9c0.1,0.5,0.3,0.9,0.5,1.2
				c0.2,0.3,0.4,0.5,0.7,0.7c0.3,0.1,0.6,0.2,0.9,0.2c0.3,0,0.6,0,0.8-0.1c0.3-0.1,0.5-0.1,0.7-0.3s0.4-0.3,0.6-0.4
				c0.2-0.2,0.4-0.4,0.6-0.6V47.3z"/>
			<path fill="#313131" d="M126.2,51.3c0.1,1.2,0.5,2.1,1.1,2.6c0.6,0.5,1.3,0.8,2.3,0.8c0.5,0,0.9-0.1,1.3-0.2
				c0.4-0.1,0.7-0.3,1-0.4c0.3-0.1,0.5-0.3,0.8-0.4c0.2-0.1,0.5-0.2,0.7-0.2c0.3,0,0.6,0.1,0.8,0.4l1.2,1.5
				c-0.4,0.5-0.9,0.9-1.4,1.2c-0.5,0.3-1,0.6-1.6,0.7c-0.5,0.2-1.1,0.3-1.6,0.4c-0.5,0.1-1.1,0.1-1.5,0.1c-1,0-1.9-0.2-2.8-0.5
				c-0.9-0.3-1.6-0.8-2.3-1.5c-0.7-0.6-1.2-1.4-1.6-2.4c-0.4-1-0.6-2.1-0.6-3.3c0-1,0.2-1.9,0.5-2.7c0.3-0.9,0.8-1.6,1.4-2.2
				c0.6-0.6,1.4-1.2,2.2-1.5c0.9-0.4,1.9-0.6,2.9-0.6c0.9,0,1.8,0.1,2.6,0.4c0.8,0.3,1.5,0.7,2,1.3c0.6,0.6,1,1.2,1.3,2.1
				c0.3,0.8,0.5,1.7,0.5,2.8c0,0.3,0,0.6,0,0.8c0,0.2-0.1,0.4-0.2,0.5s-0.2,0.2-0.3,0.2s-0.3,0.1-0.5,0.1H126.2z M131.6,48.9
				c0-0.3,0-0.7-0.1-1s-0.2-0.6-0.4-0.9s-0.5-0.5-0.8-0.6s-0.7-0.2-1.2-0.2c-0.8,0-1.4,0.2-1.9,0.7c-0.5,0.5-0.8,1.1-0.9,2H131.6z"
				/>
			<path fill="#313131" d="M136.1,45.4c0.9-0.8,1.8-1.3,2.9-1.7c1.1-0.4,2.2-0.6,3.4-0.6c0.9,0,1.6,0.1,2.3,0.4
				c0.7,0.3,1.3,0.7,1.8,1.2c0.5,0.5,0.9,1.1,1.1,1.8c0.3,0.7,0.4,1.4,0.4,2.3v8.9h-2c-0.4,0-0.7-0.1-0.9-0.2
				c-0.2-0.1-0.4-0.3-0.5-0.7l-0.3-0.8c-0.4,0.3-0.7,0.6-1,0.8c-0.3,0.2-0.7,0.4-1,0.6c-0.4,0.2-0.7,0.3-1.1,0.4s-0.8,0.1-1.3,0.1
				c-0.7,0-1.2-0.1-1.8-0.3c-0.5-0.2-1-0.4-1.4-0.8c-0.4-0.3-0.7-0.7-0.9-1.2c-0.2-0.5-0.3-1.1-0.3-1.7c0-0.5,0.1-1,0.4-1.6
				s0.7-1,1.3-1.4c0.6-0.4,1.5-0.8,2.6-1.1c1.1-0.3,2.4-0.5,4.1-0.5v-0.6c0-0.8-0.2-1.4-0.5-1.8c-0.3-0.4-0.8-0.6-1.5-0.6
				c-0.5,0-0.9,0.1-1.2,0.2s-0.6,0.2-0.9,0.4c-0.3,0.1-0.5,0.3-0.7,0.4c-0.2,0.1-0.5,0.2-0.9,0.2c-0.3,0-0.5-0.1-0.7-0.2
				c-0.2-0.1-0.4-0.3-0.5-0.5L136.1,45.4z M143.8,51.9c-0.9,0-1.6,0.1-2.1,0.2c-0.6,0.1-1,0.2-1.3,0.4c-0.3,0.2-0.5,0.4-0.7,0.6
				c-0.1,0.2-0.2,0.4-0.2,0.7c0,0.5,0.1,0.8,0.4,1s0.7,0.3,1.2,0.3c0.6,0,1-0.1,1.4-0.3c0.4-0.2,0.8-0.5,1.3-0.9V51.9z"/>
			<path fill="#313131" d="M154.4,58c-0.7,0-1.3-0.1-1.8-0.3c-0.5-0.2-1-0.5-1.3-0.8s-0.6-0.8-0.8-1.3c-0.2-0.5-0.3-1.1-0.3-1.7
				v-7.4H149c-0.2,0-0.4-0.1-0.6-0.2s-0.2-0.4-0.2-0.6v-1.7l2.3-0.4l0.8-3.5c0.1-0.4,0.4-0.7,0.9-0.7h2.2v4.2h3.5v2.9h-3.5v7.1
				c0,0.3,0.1,0.6,0.2,0.8c0.2,0.2,0.4,0.3,0.7,0.3c0.2,0,0.3,0,0.4,0c0.1,0,0.2-0.1,0.3-0.1c0.1,0,0.2-0.1,0.2-0.1
				c0.1,0,0.1,0,0.2,0c0.1,0,0.2,0,0.3,0.1c0.1,0.1,0.2,0.2,0.2,0.3l1.3,2c-0.6,0.4-1.2,0.7-1.9,0.9C155.9,57.8,155.1,58,154.4,58z"
				/>
			<path fill="#313131" d="M162.1,51.3c0.1,1.2,0.5,2.1,1.1,2.6c0.6,0.5,1.3,0.8,2.3,0.8c0.5,0,0.9-0.1,1.3-0.2
				c0.4-0.1,0.7-0.3,1-0.4c0.3-0.1,0.5-0.3,0.8-0.4c0.2-0.1,0.5-0.2,0.7-0.2c0.3,0,0.6,0.1,0.8,0.4l1.2,1.5
				c-0.4,0.5-0.9,0.9-1.4,1.2c-0.5,0.3-1,0.6-1.6,0.7c-0.5,0.2-1.1,0.3-1.6,0.4c-0.5,0.1-1.1,0.1-1.5,0.1c-1,0-1.9-0.2-2.8-0.5
				c-0.9-0.3-1.6-0.8-2.3-1.5c-0.7-0.6-1.2-1.4-1.6-2.4c-0.4-1-0.6-2.1-0.6-3.3c0-1,0.2-1.9,0.5-2.7c0.3-0.9,0.8-1.6,1.4-2.2
				c0.6-0.6,1.4-1.2,2.2-1.5c0.9-0.4,1.9-0.6,2.9-0.6c0.9,0,1.8,0.1,2.6,0.4c0.8,0.3,1.5,0.7,2,1.3c0.6,0.6,1,1.2,1.3,2.1
				c0.3,0.8,0.5,1.7,0.5,2.8c0,0.3,0,0.6,0,0.8c0,0.2-0.1,0.4-0.2,0.5s-0.2,0.2-0.3,0.2s-0.3,0.1-0.5,0.1H162.1z M167.5,48.9
				c0-0.3,0-0.7-0.1-1s-0.2-0.6-0.4-0.9s-0.5-0.5-0.8-0.6s-0.7-0.2-1.2-0.2c-0.8,0-1.4,0.2-1.9,0.7c-0.5,0.5-0.8,1.1-0.9,2H167.5z"
				/>
		</g>
		<g>
			<circle fill="#F2C50F" cx="93.1" cy="38.1" r="3"/>
		</g>
		<g>
			<circle fill="#3599DC" cx="93.1" cy="56.8" r="3"/>
		</g>
		<g>
			<circle fill="#9C5AB7" cx="93.1" cy="47.4" r="3"/>
		</g>
		<g>
			<circle fill="#E77E22" cx="76.9" cy="66.1" r="3"/>
		</g>
		<g>
			<circle fill="#E84C3C" cx="60.7" cy="38.1" r="3"/>
		</g>
		<g>
			<circle fill="#E84C3C" cx="60.7" cy="47.4" r="3"/>
		</g>
		<g>
			<circle fill="#9C5AB7" cx="60.7" cy="56.8" r="3"/>
		</g>
		<g>
			<circle fill="#2ECC71" cx="68.8" cy="61.5" r="3"/>
		</g>
		<g>
			<circle fill="#313131" cx="76.9" cy="47.4" r="3"/>
		</g>
		<g>
			<circle fill="#2ECC71" cx="76.9" cy="28.7" r="3"/>
		</g>
		<g>
			<circle fill="#3599DC" cx="85" cy="33.4" r="3"/>
		</g>
		<g>
			<circle fill="#E84C3C" cx="68.8" cy="33.4" r="3"/>
		</g>
		<g>
			<circle fill="#2ECC71" cx="85" cy="61.5" r="3"/>
		</g>
		<g>
			<circle fill="#3599DC" cx="76.9" cy="56.8" r="3"/>
		</g>
		<g>
			<circle fill="#F2C50F" cx="68.8" cy="42.8" r="3"/>
		</g>
		<g>
			<circle fill="#E77E22" cx="85" cy="42.8" r="3"/>
		</g>
		<g>
			<circle fill="#E77E22" cx="68.8" cy="52.1" r="3"/>
		</g>
		<g>
			<circle fill="#F2C50F" cx="85" cy="52.1" r="3"/>
		</g>
		<g>
			<circle fill="#9C5AB7" cx="76.9" cy="38.1" r="3"/>
		</g>
	</g>
	<g>
		<g>
			<path fill="#313131" d="M563.3,39.5c0,0.3-0.1,0.7-0.2,1s-0.3,0.6-0.6,0.8c-0.2,0.2-0.5,0.4-0.8,0.5c-0.3,0.1-0.7,0.2-1,0.2
				c-0.3,0-0.7-0.1-1-0.2c-0.3-0.1-0.6-0.3-0.8-0.5c-0.2-0.2-0.4-0.5-0.6-0.8s-0.2-0.6-0.2-1c0-0.3,0.1-0.7,0.2-1
				c0.1-0.3,0.3-0.6,0.6-0.8s0.5-0.4,0.8-0.5c0.3-0.1,0.6-0.2,1-0.2c0.4,0,0.7,0.1,1,0.2c0.3,0.1,0.6,0.3,0.8,0.5
				c0.2,0.2,0.4,0.5,0.6,0.8C563.2,38.8,563.3,39.2,563.3,39.5z M562.8,43.4v14.3h-4.3V43.4H562.8z"/>
			<path fill="#313131" d="M577.6,37.1v20.6H575c-0.5,0-0.9-0.2-1-0.7l-0.3-1.1c-0.3,0.3-0.6,0.6-0.9,0.8c-0.3,0.2-0.7,0.5-1,0.6
				s-0.8,0.3-1.2,0.4c-0.4,0.1-0.9,0.1-1.4,0.1c-0.7,0-1.4-0.2-2.1-0.5s-1.2-0.8-1.6-1.4s-0.8-1.4-1.1-2.3c-0.3-0.9-0.4-1.9-0.4-3.1
				c0-1.1,0.1-2.1,0.4-3c0.3-0.9,0.7-1.7,1.2-2.4c0.5-0.7,1.2-1.2,1.9-1.6c0.8-0.4,1.6-0.6,2.5-0.6c0.7,0,1.4,0.1,1.9,0.3
				c0.5,0.2,1,0.5,1.4,0.9v-7.2H577.6z M573.3,47.3c-0.3-0.4-0.7-0.6-1-0.8s-0.8-0.2-1.2-0.2c-0.4,0-0.8,0.1-1.1,0.2
				c-0.3,0.2-0.6,0.4-0.9,0.8c-0.2,0.3-0.4,0.8-0.6,1.3c-0.1,0.6-0.2,1.2-0.2,2c0,0.8,0.1,1.4,0.2,1.9c0.1,0.5,0.3,0.9,0.5,1.2
				c0.2,0.3,0.4,0.5,0.7,0.7c0.3,0.1,0.6,0.2,0.9,0.2c0.3,0,0.6,0,0.8-0.1c0.3-0.1,0.5-0.1,0.7-0.3s0.4-0.3,0.6-0.4
				c0.2-0.2,0.4-0.4,0.6-0.6V47.3z"/>
			<path fill="#313131" d="M582.9,51.3c0.1,1.2,0.5,2.1,1.1,2.6c0.6,0.5,1.3,0.8,2.3,0.8c0.5,0,0.9-0.1,1.3-0.2
				c0.4-0.1,0.7-0.3,1-0.4c0.3-0.1,0.5-0.3,0.8-0.4c0.2-0.1,0.5-0.2,0.7-0.2c0.3,0,0.6,0.1,0.8,0.4l1.2,1.5
				c-0.4,0.5-0.9,0.9-1.4,1.2c-0.5,0.3-1,0.6-1.6,0.7c-0.5,0.2-1.1,0.3-1.6,0.4c-0.5,0.1-1.1,0.1-1.5,0.1c-1,0-1.9-0.2-2.8-0.5
				c-0.9-0.3-1.6-0.8-2.3-1.5c-0.7-0.6-1.2-1.4-1.6-2.4c-0.4-1-0.6-2.1-0.6-3.3c0-1,0.2-1.9,0.5-2.7c0.3-0.9,0.8-1.6,1.4-2.2
				c0.6-0.6,1.4-1.2,2.2-1.5c0.9-0.4,1.9-0.6,2.9-0.6c0.9,0,1.8,0.1,2.6,0.4c0.8,0.3,1.5,0.7,2,1.3c0.6,0.6,1,1.2,1.3,2.1
				c0.3,0.8,0.5,1.7,0.5,2.8c0,0.3,0,0.6,0,0.8c0,0.2-0.1,0.4-0.2,0.5s-0.2,0.2-0.3,0.2s-0.3,0.1-0.5,0.1H582.9z M588.2,48.9
				c0-0.3,0-0.7-0.1-1s-0.2-0.6-0.4-0.9s-0.5-0.5-0.8-0.6s-0.7-0.2-1.2-0.2c-0.8,0-1.4,0.2-1.9,0.7c-0.5,0.5-0.8,1.1-0.9,2H588.2z"
				/>
			<path fill="#313131" d="M592.7,45.4c0.9-0.8,1.8-1.3,2.9-1.7c1.1-0.4,2.2-0.6,3.4-0.6c0.9,0,1.6,0.1,2.3,0.4
				c0.7,0.3,1.3,0.7,1.8,1.2c0.5,0.5,0.9,1.1,1.1,1.8c0.3,0.7,0.4,1.4,0.4,2.3v8.9h-2c-0.4,0-0.7-0.1-0.9-0.2
				c-0.2-0.1-0.4-0.3-0.5-0.7l-0.3-0.8c-0.4,0.3-0.7,0.6-1,0.8c-0.3,0.2-0.7,0.4-1,0.6c-0.4,0.2-0.7,0.3-1.1,0.4s-0.8,0.1-1.3,0.1
				c-0.7,0-1.2-0.1-1.8-0.3c-0.5-0.2-1-0.4-1.4-0.8c-0.4-0.3-0.7-0.7-0.9-1.2c-0.2-0.5-0.3-1.1-0.3-1.7c0-0.5,0.1-1,0.4-1.6
				s0.7-1,1.3-1.4c0.6-0.4,1.5-0.8,2.6-1.1c1.1-0.3,2.4-0.5,4.1-0.5v-0.6c0-0.8-0.2-1.4-0.5-1.8c-0.3-0.4-0.8-0.6-1.5-0.6
				c-0.5,0-0.9,0.1-1.2,0.2s-0.6,0.2-0.9,0.4c-0.3,0.1-0.5,0.3-0.7,0.4c-0.2,0.1-0.5,0.2-0.9,0.2c-0.3,0-0.5-0.1-0.7-0.2
				c-0.2-0.1-0.4-0.3-0.5-0.5L592.7,45.4z M600.4,51.9c-0.9,0-1.6,0.1-2.1,0.2c-0.6,0.1-1,0.2-1.3,0.4c-0.3,0.2-0.5,0.4-0.7,0.6
				c-0.1,0.2-0.2,0.4-0.2,0.7c0,0.5,0.1,0.8,0.4,1s0.7,0.3,1.2,0.3c0.6,0,1-0.1,1.4-0.3c0.4-0.2,0.8-0.5,1.3-0.9V51.9z"/>
			<path fill="#313131" d="M611.1,58c-0.7,0-1.3-0.1-1.8-0.3c-0.5-0.2-1-0.5-1.3-0.8s-0.6-0.8-0.8-1.3c-0.2-0.5-0.3-1.1-0.3-1.7
				v-7.4h-1.2c-0.2,0-0.4-0.1-0.6-0.2s-0.2-0.4-0.2-0.6v-1.7l2.3-0.4l0.8-3.5c0.1-0.4,0.4-0.7,0.9-0.7h2.2v4.2h3.5v2.9h-3.5v7.1
				c0,0.3,0.1,0.6,0.2,0.8c0.2,0.2,0.4,0.3,0.7,0.3c0.2,0,0.3,0,0.4,0c0.1,0,0.2-0.1,0.3-0.1c0.1,0,0.2-0.1,0.2-0.1
				c0.1,0,0.1,0,0.2,0c0.1,0,0.2,0,0.3,0.1c0.1,0.1,0.2,0.2,0.2,0.3l1.3,2c-0.6,0.4-1.2,0.7-1.9,0.9C612.5,57.8,611.8,58,611.1,58z"
				/>
			<path fill="#313131" d="M618.7,51.3c0.1,1.2,0.5,2.1,1.1,2.6c0.6,0.5,1.3,0.8,2.3,0.8c0.5,0,0.9-0.1,1.3-0.2
				c0.4-0.1,0.7-0.3,1-0.4c0.3-0.1,0.5-0.3,0.8-0.4c0.2-0.1,0.5-0.2,0.7-0.2c0.3,0,0.6,0.1,0.8,0.4l1.2,1.5
				c-0.4,0.5-0.9,0.9-1.4,1.2c-0.5,0.3-1,0.6-1.6,0.7c-0.5,0.2-1.1,0.3-1.6,0.4c-0.5,0.1-1.1,0.1-1.5,0.1c-1,0-1.9-0.2-2.8-0.5
				c-0.9-0.3-1.6-0.8-2.3-1.5c-0.7-0.6-1.2-1.4-1.6-2.4c-0.4-1-0.6-2.1-0.6-3.3c0-1,0.2-1.9,0.5-2.7c0.3-0.9,0.8-1.6,1.4-2.2
				c0.6-0.6,1.4-1.2,2.2-1.5c0.9-0.4,1.9-0.6,2.9-0.6c0.9,0,1.8,0.1,2.6,0.4c0.8,0.3,1.5,0.7,2,1.3c0.6,0.6,1,1.2,1.3,2.1
				c0.3,0.8,0.5,1.7,0.5,2.8c0,0.3,0,0.6,0,0.8c0,0.2-0.1,0.4-0.2,0.5s-0.2,0.2-0.3,0.2s-0.3,0.1-0.5,0.1H618.7z M624.1,48.9
				c0-0.3,0-0.7-0.1-1s-0.2-0.6-0.4-0.9s-0.5-0.5-0.8-0.6s-0.7-0.2-1.2-0.2c-0.8,0-1.4,0.2-1.9,0.7c-0.5,0.5-0.8,1.1-0.9,2H624.1z"
				/>
		</g>
		<g>
			<circle fill="#9C5AB7" cx="549.8" cy="38.1" r="3"/>
		</g>
		<g>
			<circle fill="#3599DC" cx="549.8" cy="56.8" r="3"/>
		</g>
		<g>
			<circle fill="#3599DC" cx="549.8" cy="47.4" r="3"/>
		</g>
		<g>
			<circle fill="#2ECC71" cx="533.6" cy="66.1" r="3"/>
		</g>
		<g>
			<circle fill="#E77E22" cx="517.4" cy="38.1" r="3"/>
		</g>
		<g>
			<circle fill="#F2C50F" cx="517.4" cy="47.4" r="3"/>
		</g>
		<g>
			<circle fill="#F2C50F" cx="517.4" cy="56.8" r="3"/>
		</g>
		<g>
			<circle fill="#F2C50F" cx="525.5" cy="61.5" r="3"/>
		</g>
		<g>
			<circle fill="#313131" cx="533.6" cy="47.4" r="3"/>
		</g>
		<g>
			<circle fill="#E84C3C" cx="533.6" cy="28.7" r="3"/>
		</g>
		<g>
			<circle fill="#E84C3C" cx="541.7" cy="33.4" r="3"/>
		</g>
		<g>
			<circle fill="#E84C3C" cx="525.5" cy="33.4" r="3"/>
		</g>
		<g>
			<circle fill="#3599DC" cx="541.7" cy="61.5" r="3"/>
		</g>
		<g>
			<circle fill="#2ECC71" cx="533.6" cy="56.8" r="3"/>
		</g>
		<g>
			<circle fill="#E77E22" cx="525.5" cy="42.8" r="3"/>
		</g>
		<g>
			<circle fill="#9C5AB7" cx="541.7" cy="42.8" r="3"/>
		</g>
		<g>
			<circle fill="#F2C50F" cx="525.5" cy="52.1" r="3"/>
		</g>
		<g>
			<circle fill="#3599DC" cx="541.7" cy="52.1" r="3"/>
		</g>
		<g>
			<circle fill="#E84C3C" cx="533.6" cy="38.1" r="3"/>
		</g>
	</g>
	<g>
		<g>
			<path fill="#313131" d="M258.8,39.5c0,0.3-0.1,0.7-0.2,1s-0.3,0.6-0.6,0.8c-0.2,0.2-0.5,0.4-0.8,0.5c-0.3,0.1-0.7,0.2-1,0.2
				c-0.3,0-0.7-0.1-1-0.2c-0.3-0.1-0.6-0.3-0.8-0.5c-0.2-0.2-0.4-0.5-0.6-0.8s-0.2-0.6-0.2-1c0-0.3,0.1-0.7,0.2-1
				c0.1-0.3,0.3-0.6,0.6-0.8s0.5-0.4,0.8-0.5c0.3-0.1,0.6-0.2,1-0.2c0.4,0,0.7,0.1,1,0.2c0.3,0.1,0.6,0.3,0.8,0.5
				c0.2,0.2,0.4,0.5,0.6,0.8C258.8,38.8,258.8,39.2,258.8,39.5z M258.4,43.4v14.3h-4.3V43.4H258.4z"/>
			<path fill="#313131" d="M273.2,37.1v20.6h-2.6c-0.5,0-0.9-0.2-1-0.7l-0.3-1.1c-0.3,0.3-0.6,0.6-0.9,0.8c-0.3,0.2-0.7,0.5-1,0.6
				s-0.8,0.3-1.2,0.4c-0.4,0.1-0.9,0.1-1.4,0.1c-0.7,0-1.4-0.2-2.1-0.5s-1.2-0.8-1.6-1.4s-0.8-1.4-1.1-2.3c-0.3-0.9-0.4-1.9-0.4-3.1
				c0-1.1,0.1-2.1,0.4-3c0.3-0.9,0.7-1.7,1.2-2.4c0.5-0.7,1.2-1.2,1.9-1.6c0.8-0.4,1.6-0.6,2.5-0.6c0.7,0,1.4,0.1,1.9,0.3
				c0.5,0.2,1,0.5,1.4,0.9v-7.2H273.2z M268.9,47.3c-0.3-0.4-0.7-0.6-1-0.8s-0.8-0.2-1.2-0.2c-0.4,0-0.8,0.1-1.1,0.2
				c-0.3,0.2-0.6,0.4-0.9,0.8c-0.2,0.3-0.4,0.8-0.6,1.3c-0.1,0.6-0.2,1.2-0.2,2c0,0.8,0.1,1.4,0.2,1.9c0.1,0.5,0.3,0.9,0.5,1.2
				c0.2,0.3,0.4,0.5,0.7,0.7c0.3,0.1,0.6,0.2,0.9,0.2c0.3,0,0.6,0,0.8-0.1c0.3-0.1,0.5-0.1,0.7-0.3s0.4-0.3,0.6-0.4
				c0.2-0.2,0.4-0.4,0.6-0.6V47.3z"/>
			<path fill="#313131" d="M278.4,51.3c0.1,1.2,0.5,2.1,1.1,2.6c0.6,0.5,1.3,0.8,2.3,0.8c0.5,0,0.9-0.1,1.3-0.2
				c0.4-0.1,0.7-0.3,1-0.4c0.3-0.1,0.5-0.3,0.8-0.4c0.2-0.1,0.5-0.2,0.7-0.2c0.3,0,0.6,0.1,0.8,0.4l1.2,1.5
				c-0.4,0.5-0.9,0.9-1.4,1.2c-0.5,0.3-1,0.6-1.6,0.7c-0.5,0.2-1.1,0.3-1.6,0.4c-0.5,0.1-1.1,0.1-1.5,0.1c-1,0-1.9-0.2-2.8-0.5
				c-0.9-0.3-1.6-0.8-2.3-1.5c-0.7-0.6-1.2-1.4-1.6-2.4c-0.4-1-0.6-2.1-0.6-3.3c0-1,0.2-1.9,0.5-2.7c0.3-0.9,0.8-1.6,1.4-2.2
				c0.6-0.6,1.4-1.2,2.2-1.5c0.9-0.4,1.9-0.6,2.9-0.6c0.9,0,1.8,0.1,2.6,0.4c0.8,0.3,1.5,0.7,2,1.3c0.6,0.6,1,1.2,1.3,2.1
				c0.3,0.8,0.5,1.7,0.5,2.8c0,0.3,0,0.6,0,0.8c0,0.2-0.1,0.4-0.2,0.5s-0.2,0.2-0.3,0.2s-0.3,0.1-0.5,0.1H278.4z M283.8,48.9
				c0-0.3,0-0.7-0.1-1s-0.2-0.6-0.4-0.9s-0.5-0.5-0.8-0.6s-0.7-0.2-1.2-0.2c-0.8,0-1.4,0.2-1.9,0.7c-0.5,0.5-0.8,1.1-0.9,2H283.8z"
				/>
			<path fill="#313131" d="M288.3,45.4c0.9-0.8,1.8-1.3,2.9-1.7c1.1-0.4,2.2-0.6,3.4-0.6c0.9,0,1.6,0.1,2.3,0.4
				c0.7,0.3,1.3,0.7,1.8,1.2c0.5,0.5,0.9,1.1,1.1,1.8c0.3,0.7,0.4,1.4,0.4,2.3v8.9h-2c-0.4,0-0.7-0.1-0.9-0.2
				c-0.2-0.1-0.4-0.3-0.5-0.7l-0.3-0.8c-0.4,0.3-0.7,0.6-1,0.8c-0.3,0.2-0.7,0.4-1,0.6c-0.4,0.2-0.7,0.3-1.1,0.4s-0.8,0.1-1.3,0.1
				c-0.7,0-1.2-0.1-1.8-0.3c-0.5-0.2-1-0.4-1.4-0.8c-0.4-0.3-0.7-0.7-0.9-1.2c-0.2-0.5-0.3-1.1-0.3-1.7c0-0.5,0.1-1,0.4-1.6
				s0.7-1,1.3-1.4c0.6-0.4,1.5-0.8,2.6-1.1c1.1-0.3,2.4-0.5,4.1-0.5v-0.6c0-0.8-0.2-1.4-0.5-1.8c-0.3-0.4-0.8-0.6-1.5-0.6
				c-0.5,0-0.9,0.1-1.2,0.2s-0.6,0.2-0.9,0.4c-0.3,0.1-0.5,0.3-0.7,0.4c-0.2,0.1-0.5,0.2-0.9,0.2c-0.3,0-0.5-0.1-0.7-0.2
				c-0.2-0.1-0.4-0.3-0.5-0.5L288.3,45.4z M296,51.9c-0.9,0-1.6,0.1-2.1,0.2c-0.6,0.1-1,0.2-1.3,0.4c-0.3,0.2-0.5,0.4-0.7,0.6
				c-0.1,0.2-0.2,0.4-0.2,0.7c0,0.5,0.1,0.8,0.4,1s0.7,0.3,1.2,0.3c0.6,0,1-0.1,1.4-0.3c0.4-0.2,0.8-0.5,1.3-0.9V51.9z"/>
			<path fill="#313131" d="M306.6,58c-0.7,0-1.3-0.1-1.8-0.3c-0.5-0.2-1-0.5-1.3-0.8s-0.6-0.8-0.8-1.3c-0.2-0.5-0.3-1.1-0.3-1.7
				v-7.4h-1.2c-0.2,0-0.4-0.1-0.6-0.2s-0.2-0.4-0.2-0.6v-1.7l2.3-0.4l0.8-3.5c0.1-0.4,0.4-0.7,0.9-0.7h2.2v4.2h3.5v2.9h-3.5v7.1
				c0,0.3,0.1,0.6,0.2,0.8c0.2,0.2,0.4,0.3,0.7,0.3c0.2,0,0.3,0,0.4,0c0.1,0,0.2-0.1,0.3-0.1c0.1,0,0.2-0.1,0.2-0.1
				c0.1,0,0.1,0,0.2,0c0.1,0,0.2,0,0.3,0.1c0.1,0.1,0.2,0.2,0.2,0.3l1.3,2c-0.6,0.4-1.2,0.7-1.9,0.9C308.1,57.8,307.4,58,306.6,58z"
				/>
			<path fill="#313131" d="M314.3,51.3c0.1,1.2,0.5,2.1,1.1,2.6c0.6,0.5,1.3,0.8,2.3,0.8c0.5,0,0.9-0.1,1.3-0.2
				c0.4-0.1,0.7-0.3,1-0.4c0.3-0.1,0.5-0.3,0.8-0.4c0.2-0.1,0.5-0.2,0.7-0.2c0.3,0,0.6,0.1,0.8,0.4l1.2,1.5
				c-0.4,0.5-0.9,0.9-1.4,1.2c-0.5,0.3-1,0.6-1.6,0.7c-0.5,0.2-1.1,0.3-1.6,0.4c-0.5,0.1-1.1,0.1-1.5,0.1c-1,0-1.9-0.2-2.8-0.5
				c-0.9-0.3-1.6-0.8-2.3-1.5c-0.7-0.6-1.2-1.4-1.6-2.4c-0.4-1-0.6-2.1-0.6-3.3c0-1,0.2-1.9,0.5-2.7c0.3-0.9,0.8-1.6,1.4-2.2
				c0.6-0.6,1.4-1.2,2.2-1.5c0.9-0.4,1.9-0.6,2.9-0.6c0.9,0,1.8,0.1,2.6,0.4c0.8,0.3,1.5,0.7,2,1.3c0.6,0.6,1,1.2,1.3,2.1
				c0.3,0.8,0.5,1.7,0.5,2.8c0,0.3,0,0.6,0,0.8c0,0.2-0.1,0.4-0.2,0.5s-0.2,0.2-0.3,0.2s-0.3,0.1-0.5,0.1H314.3z M319.7,48.9
				c0-0.3,0-0.7-0.1-1s-0.2-0.6-0.4-0.9s-0.5-0.5-0.8-0.6s-0.7-0.2-1.2-0.2c-0.8,0-1.4,0.2-1.9,0.7c-0.5,0.5-0.8,1.1-0.9,2H319.7z"
				/>
		</g>
		<g>
			<circle fill="#F2C50F" cx="245.3" cy="38.1" r="3"/>
		</g>
		<g>
			<circle fill="#3599DC" cx="245.3" cy="56.8" r="3"/>
		</g>
		<g>
			<circle fill="#9C5AB7" cx="245.3" cy="47.4" r="3"/>
		</g>
		<g>
			<circle fill="#E77E22" cx="229.1" cy="66.1" r="3"/>
		</g>
		<g>
			<circle fill="#E84C3C" cx="212.9" cy="38.1" r="3"/>
		</g>
		<g>
			<circle fill="#E84C3C" cx="212.9" cy="47.4" r="3"/>
		</g>
		<g>
			<circle fill="#9C5AB7" cx="212.9" cy="56.8" r="3"/>
		</g>
		<g>
			<circle fill="#2ECC71" cx="221" cy="61.5" r="3"/>
		</g>
		<g>
			<circle fill="#2ECC71" cx="229.1" cy="28.7" r="3"/>
		</g>
		<g>
			<circle fill="#3599DC" cx="237.2" cy="33.4" r="3"/>
		</g>
		<g>
			<circle fill="#E84C3C" cx="221" cy="33.4" r="3"/>
		</g>
		<g>
			<circle fill="#2ECC71" cx="237.2" cy="61.5" r="3"/>
		</g>
		<g>
			<circle fill="#3599DC" cx="229.1" cy="56.8" r="3"/>
		</g>
		<g>
			<circle fill="#F2C50F" cx="221" cy="42.8" r="3"/>
		</g>
		<g>
			<circle fill="#E77E22" cx="237.2" cy="42.8" r="3"/>
		</g>
		<g>
			<circle fill="#E77E22" cx="221" cy="52.1" r="3"/>
		</g>
		<g>
			<circle fill="#F2C50F" cx="237.2" cy="52.1" r="3"/>
		</g>
		<g>
			<circle fill="#9C5AB7" cx="229.1" cy="38.1" r="3"/>
		</g>
	</g>
	<g>
		<g>
			<path fill="#313131" d="M393.6,47c0,0.4-0.1,0.7-0.2,1.1c-0.2,0.3-0.4,0.6-0.6,0.9c-0.3,0.3-0.6,0.5-0.9,0.6s-0.7,0.2-1.1,0.2
				c-0.4,0-0.8-0.1-1.1-0.2c-0.3-0.2-0.6-0.4-0.9-0.6c-0.3-0.3-0.5-0.6-0.6-0.9c-0.2-0.3-0.2-0.7-0.2-1.1c0-0.4,0.1-0.8,0.2-1.1
				c0.2-0.3,0.4-0.6,0.6-0.9c0.3-0.3,0.6-0.5,0.9-0.6c0.3-0.1,0.7-0.2,1.1-0.2c0.4,0,0.8,0.1,1.1,0.2s0.7,0.3,0.9,0.6
				c0.3,0.3,0.5,0.6,0.6,0.9C393.5,46.3,393.6,46.6,393.6,47z M393.1,51.5v16.2h-4.8V51.5H393.1z"/>
			<path fill="#313131" d="M409.8,44.3v23.4h-3c-0.6,0-1-0.3-1.2-0.8l-0.4-1.2c-0.3,0.3-0.7,0.7-1,0.9c-0.4,0.3-0.7,0.5-1.1,0.7
				c-0.4,0.2-0.9,0.4-1.3,0.5c-0.5,0.1-1,0.2-1.5,0.2c-0.8,0-1.6-0.2-2.3-0.6c-0.7-0.4-1.3-0.9-1.9-1.6c-0.5-0.7-0.9-1.6-1.2-2.6
				c-0.3-1-0.4-2.2-0.4-3.5c0-1.2,0.2-2.3,0.5-3.4c0.3-1,0.8-1.9,1.4-2.7c0.6-0.8,1.3-1.3,2.2-1.8c0.9-0.4,1.8-0.6,2.8-0.6
				c0.8,0,1.6,0.1,2.1,0.4s1.1,0.6,1.6,1v-8.2H409.8z M405,55.8c-0.4-0.4-0.8-0.7-1.2-0.9c-0.4-0.2-0.9-0.2-1.3-0.2
				c-0.4,0-0.9,0.1-1.2,0.3c-0.4,0.2-0.7,0.5-1,0.9c-0.3,0.4-0.5,0.9-0.6,1.5c-0.2,0.6-0.2,1.4-0.2,2.3c0,0.9,0.1,1.6,0.2,2.2
				c0.1,0.6,0.3,1.1,0.5,1.4c0.2,0.4,0.5,0.6,0.8,0.8c0.3,0.2,0.7,0.2,1,0.2c0.4,0,0.7,0,1-0.1c0.3-0.1,0.5-0.2,0.8-0.3
				c0.2-0.1,0.5-0.3,0.7-0.5c0.2-0.2,0.4-0.4,0.6-0.7V55.8z"/>
			<path fill="#313131" d="M415.8,60.4c0.2,1.4,0.6,2.3,1.2,2.9c0.7,0.6,1.5,0.9,2.6,0.9c0.6,0,1-0.1,1.5-0.2
				c0.4-0.1,0.8-0.3,1.1-0.5c0.3-0.2,0.6-0.3,0.9-0.5c0.3-0.1,0.5-0.2,0.8-0.2c0.4,0,0.7,0.1,0.9,0.4l1.4,1.7c-0.5,0.6-1,1-1.6,1.4
				c-0.6,0.4-1.2,0.6-1.8,0.8c-0.6,0.2-1.2,0.3-1.8,0.4c-0.6,0.1-1.2,0.1-1.7,0.1c-1.1,0-2.2-0.2-3.2-0.6c-1-0.4-1.9-0.9-2.6-1.6
				c-0.7-0.7-1.3-1.6-1.8-2.7c-0.4-1.1-0.6-2.3-0.6-3.8c0-1.1,0.2-2.1,0.6-3.1c0.4-1,0.9-1.8,1.6-2.5c0.7-0.7,1.5-1.3,2.5-1.7
				c1-0.4,2.1-0.6,3.3-0.6c1.1,0,2.1,0.2,2.9,0.5c0.9,0.3,1.7,0.8,2.3,1.5c0.6,0.6,1.1,1.4,1.5,2.3c0.4,0.9,0.5,2,0.5,3.1
				c0,0.4,0,0.7,0,0.9c0,0.2-0.1,0.4-0.2,0.5c-0.1,0.1-0.2,0.2-0.3,0.3c-0.1,0.1-0.3,0.1-0.5,0.1H415.8z M421.8,57.6
				c0-0.4,0-0.8-0.1-1.1c-0.1-0.4-0.3-0.7-0.5-1c-0.2-0.3-0.5-0.5-0.9-0.7c-0.4-0.2-0.8-0.3-1.3-0.3c-0.9,0-1.6,0.3-2.2,0.8
				c-0.5,0.5-0.9,1.3-1,2.3H421.8z"/>
			<path fill="#313131" d="M426.9,53.7c1-0.9,2.1-1.5,3.3-1.9s2.5-0.6,3.8-0.6c1,0,1.9,0.2,2.6,0.5s1.5,0.8,2,1.3
				c0.5,0.6,1,1.2,1.3,2c0.3,0.8,0.4,1.6,0.4,2.6v10.1h-2.2c-0.5,0-0.8-0.1-1-0.2c-0.2-0.1-0.4-0.4-0.6-0.8l-0.3-0.9
				c-0.4,0.3-0.8,0.6-1.2,0.9c-0.4,0.3-0.8,0.5-1.2,0.7c-0.4,0.2-0.8,0.3-1.3,0.4c-0.5,0.1-1,0.1-1.5,0.1c-0.7,0-1.4-0.1-2-0.3
				s-1.1-0.5-1.5-0.9s-0.7-0.8-1-1.4s-0.3-1.2-0.3-1.9c0-0.6,0.1-1.2,0.4-1.8c0.3-0.6,0.8-1.1,1.5-1.6c0.7-0.5,1.7-0.9,2.9-1.2
				c1.2-0.3,2.8-0.5,4.6-0.6v-0.7c0-0.9-0.2-1.6-0.6-2.1c-0.4-0.4-0.9-0.6-1.7-0.6c-0.6,0-1,0.1-1.4,0.2c-0.4,0.1-0.7,0.3-1,0.4
				c-0.3,0.2-0.6,0.3-0.8,0.4c-0.3,0.1-0.6,0.2-1,0.2c-0.3,0-0.6-0.1-0.8-0.2s-0.4-0.4-0.6-0.6L426.9,53.7z M435.6,61.1
				c-1,0-1.8,0.1-2.4,0.2c-0.6,0.1-1.1,0.3-1.5,0.5c-0.4,0.2-0.6,0.4-0.8,0.6c-0.1,0.2-0.2,0.5-0.2,0.8c0,0.6,0.2,0.9,0.5,1.2
				s0.7,0.3,1.3,0.3c0.6,0,1.2-0.1,1.6-0.3c0.5-0.2,0.9-0.6,1.4-1.1V61.1z"/>
			<path fill="#313131" d="M447.7,67.9c-0.8,0-1.4-0.1-2-0.3c-0.6-0.2-1.1-0.5-1.5-1c-0.4-0.4-0.7-0.9-0.9-1.5
				c-0.2-0.6-0.3-1.2-0.3-2v-8.4h-1.4c-0.2,0-0.5-0.1-0.6-0.2c-0.2-0.2-0.3-0.4-0.3-0.7V52l2.6-0.5l1-3.9c0.1-0.5,0.5-0.7,1.1-0.7
				h2.5v4.7h4v3.3h-4v8c0,0.4,0.1,0.7,0.3,0.9c0.2,0.2,0.4,0.4,0.8,0.4c0.2,0,0.3,0,0.4-0.1c0.1,0,0.2-0.1,0.3-0.1
				c0.1,0,0.2-0.1,0.2-0.1c0.1,0,0.2-0.1,0.3-0.1c0.1,0,0.3,0,0.4,0.1c0.1,0.1,0.2,0.2,0.3,0.3l1.5,2.3c-0.6,0.5-1.3,0.8-2.1,1.1
				C449.3,67.8,448.5,67.9,447.7,67.9z"/>
			<path fill="#313131" d="M456.4,60.4c0.2,1.4,0.6,2.3,1.2,2.9c0.7,0.6,1.5,0.9,2.6,0.9c0.6,0,1-0.1,1.5-0.2
				c0.4-0.1,0.8-0.3,1.1-0.5c0.3-0.2,0.6-0.3,0.9-0.5c0.3-0.1,0.5-0.2,0.8-0.2c0.4,0,0.7,0.1,0.9,0.4l1.4,1.7c-0.5,0.6-1,1-1.6,1.4
				c-0.6,0.4-1.2,0.6-1.8,0.8c-0.6,0.2-1.2,0.3-1.8,0.4c-0.6,0.1-1.2,0.1-1.7,0.1c-1.1,0-2.2-0.2-3.2-0.6c-1-0.4-1.9-0.9-2.6-1.6
				c-0.7-0.7-1.3-1.6-1.8-2.7c-0.4-1.1-0.6-2.3-0.6-3.8c0-1.1,0.2-2.1,0.6-3.1c0.4-1,0.9-1.8,1.6-2.5c0.7-0.7,1.5-1.3,2.5-1.7
				c1-0.4,2.1-0.6,3.3-0.6c1.1,0,2.1,0.2,2.9,0.5c0.9,0.3,1.7,0.8,2.3,1.5c0.6,0.6,1.1,1.4,1.5,2.3c0.4,0.9,0.5,2,0.5,3.1
				c0,0.4,0,0.7,0,0.9c0,0.2-0.1,0.4-0.2,0.5c-0.1,0.1-0.2,0.2-0.3,0.3c-0.1,0.1-0.3,0.1-0.5,0.1H456.4z M462.5,57.6
				c0-0.4,0-0.8-0.1-1.1c-0.1-0.4-0.3-0.7-0.5-1c-0.2-0.3-0.5-0.5-0.9-0.7c-0.4-0.2-0.8-0.3-1.3-0.3c-0.9,0-1.6,0.3-2.2,0.8
				c-0.5,0.5-0.9,1.3-1,2.3H462.5z"/>
		</g>
		<g>
			<circle fill="#F2C50F" cx="406.5" cy="38.1" r="3"/>
		</g>
		<g>
			<circle fill="#3599DC" cx="406.5" cy="56.8" r="3"/>
		</g>
		<g>
			<circle fill="#9C5AB7" cx="406.5" cy="47.4" r="3"/>
		</g>
		<g>
			<circle fill="#E77E22" cx="390.3" cy="66.1" r="3"/>
		</g>
		<g>
			<circle fill="#E84C3C" cx="374.1" cy="38.1" r="3"/>
		</g>
		<g>
			<circle fill="#E84C3C" cx="374.1" cy="47.4" r="3"/>
		</g>
		<g>
			<circle fill="#9C5AB7" cx="374.1" cy="56.8" r="3"/>
		</g>
		<g>
			<circle fill="#2ECC71" cx="382.2" cy="61.5" r="3"/>
		</g>
		<g>
			<circle fill="#2ECC71" cx="390.3" cy="28.7" r="3"/>
		</g>
		<g>
			<circle fill="#3599DC" cx="398.4" cy="33.4" r="3"/>
		</g>
		<g>
			<circle fill="#E84C3C" cx="382.2" cy="33.4" r="3"/>
		</g>
		<g>
			<circle fill="#2ECC71" cx="398.4" cy="61.5" r="3"/>
		</g>
		<g>
			<circle fill="#3599DC" cx="390.3" cy="56.8" r="3"/>
		</g>
		<g>
			<circle fill="#F2C50F" cx="382.2" cy="42.8" r="3"/>
		</g>
		<g>
			<circle fill="#E77E22" cx="398.4" cy="42.8" r="3"/>
		</g>
		<g>
			<circle fill="#E77E22" cx="382.2" cy="52.1" r="3"/>
		</g>
		<g>
			<circle fill="#F2C50F" cx="398.4" cy="52.1" r="3"/>
		</g>
		<g>
			<circle fill="#9C5AB7" cx="390.3" cy="38.1" r="3"/>
		</g>
	</g>
</g>
<g>
	<g>
		<g>
			<path fill="#313131" d="M362.5,200.9c0,0.4-0.1,0.8-0.2,1.1c-0.2,0.4-0.4,0.7-0.7,0.9c-0.3,0.3-0.6,0.5-1,0.6s-0.8,0.2-1.2,0.2
				c-0.4,0-0.8-0.1-1.2-0.2c-0.4-0.2-0.7-0.4-1-0.6c-0.3-0.3-0.5-0.6-0.7-0.9c-0.2-0.4-0.2-0.7-0.2-1.1c0-0.4,0.1-0.8,0.2-1.2
				c0.2-0.4,0.4-0.7,0.7-0.9c0.3-0.3,0.6-0.5,1-0.6c0.4-0.2,0.7-0.2,1.2-0.2c0.4,0,0.8,0.1,1.2,0.2s0.7,0.4,1,0.6
				c0.3,0.3,0.5,0.6,0.7,0.9C362.4,200.1,362.5,200.5,362.5,200.9z M362,205.5v17h-5.1v-17H362z"/>
			<path fill="#313131" d="M379.5,198v24.5h-3.1c-0.6,0-1-0.3-1.2-0.9l-0.4-1.3c-0.3,0.4-0.7,0.7-1.1,1c-0.4,0.3-0.8,0.5-1.2,0.8
				c-0.4,0.2-0.9,0.4-1.4,0.5c-0.5,0.1-1,0.2-1.6,0.2c-0.9,0-1.7-0.2-2.5-0.6c-0.8-0.4-1.4-1-1.9-1.7c-0.5-0.7-1-1.7-1.3-2.7
				c-0.3-1.1-0.5-2.3-0.5-3.7c0-1.3,0.2-2.4,0.5-3.5s0.8-2,1.5-2.8c0.6-0.8,1.4-1.4,2.3-1.9c0.9-0.4,1.9-0.7,3-0.7
				c0.9,0,1.6,0.1,2.2,0.4c0.6,0.3,1.1,0.6,1.6,1V198H379.5z M374.5,210.1c-0.4-0.4-0.8-0.7-1.2-0.9c-0.4-0.2-0.9-0.3-1.4-0.3
				c-0.5,0-0.9,0.1-1.3,0.3c-0.4,0.2-0.7,0.5-1,0.9c-0.3,0.4-0.5,0.9-0.7,1.6s-0.2,1.4-0.2,2.4c0,0.9,0.1,1.6,0.2,2.3
				c0.1,0.6,0.3,1.1,0.5,1.5c0.2,0.4,0.5,0.6,0.8,0.8c0.3,0.2,0.7,0.2,1.1,0.2c0.4,0,0.7,0,1-0.1c0.3-0.1,0.6-0.2,0.8-0.3
				s0.5-0.3,0.7-0.5c0.2-0.2,0.4-0.4,0.7-0.7V210.1z"/>
			<path fill="#313131" d="M385.8,214.9c0.2,1.4,0.6,2.4,1.3,3.1c0.7,0.6,1.6,1,2.7,1c0.6,0,1.1-0.1,1.5-0.2
				c0.4-0.1,0.8-0.3,1.1-0.5c0.3-0.2,0.6-0.3,0.9-0.5c0.3-0.1,0.6-0.2,0.9-0.2c0.4,0,0.7,0.1,0.9,0.4l1.5,1.8
				c-0.5,0.6-1.1,1.1-1.7,1.5c-0.6,0.4-1.2,0.7-1.9,0.9c-0.6,0.2-1.3,0.4-1.9,0.4c-0.6,0.1-1.2,0.1-1.8,0.1c-1.2,0-2.3-0.2-3.3-0.6
				c-1-0.4-2-1-2.7-1.7c-0.8-0.8-1.4-1.7-1.8-2.8c-0.5-1.1-0.7-2.5-0.7-4c0-1.1,0.2-2.2,0.6-3.2c0.4-1,0.9-1.9,1.7-2.7
				c0.7-0.8,1.6-1.4,2.6-1.8c1-0.4,2.2-0.7,3.5-0.7c1.1,0,2.2,0.2,3.1,0.5c0.9,0.3,1.7,0.9,2.4,1.5c0.7,0.7,1.2,1.5,1.6,2.4
				c0.4,1,0.6,2.1,0.6,3.3c0,0.4,0,0.7,0,0.9s-0.1,0.4-0.2,0.6c-0.1,0.1-0.2,0.2-0.4,0.3s-0.3,0.1-0.6,0.1H385.8z M392.2,212
				c0-0.4-0.1-0.8-0.2-1.2c-0.1-0.4-0.3-0.7-0.5-1c-0.2-0.3-0.5-0.5-0.9-0.7c-0.4-0.2-0.8-0.3-1.4-0.3c-1,0-1.7,0.3-2.3,0.8
				c-0.5,0.6-0.9,1.3-1.1,2.4H392.2z"/>
			<path fill="#313131" d="M397.5,207.9c1-0.9,2.2-1.6,3.4-2c1.2-0.4,2.6-0.7,4-0.7c1,0,2,0.2,2.8,0.5c0.8,0.3,1.5,0.8,2.1,1.4
				c0.6,0.6,1,1.3,1.3,2.1c0.3,0.8,0.5,1.7,0.5,2.7v10.6h-2.3c-0.5,0-0.8-0.1-1.1-0.2c-0.2-0.1-0.5-0.4-0.6-0.8l-0.4-0.9
				c-0.4,0.4-0.8,0.7-1.2,0.9c-0.4,0.3-0.8,0.5-1.2,0.7c-0.4,0.2-0.9,0.3-1.3,0.4c-0.5,0.1-1,0.1-1.6,0.1c-0.8,0-1.5-0.1-2.1-0.3
				c-0.6-0.2-1.2-0.5-1.6-0.9s-0.8-0.9-1-1.5c-0.2-0.6-0.4-1.3-0.4-2c0-0.6,0.2-1.2,0.5-1.9c0.3-0.6,0.8-1.2,1.6-1.7
				c0.8-0.5,1.8-1,3-1.3s2.9-0.5,4.8-0.6v-0.7c0-1-0.2-1.7-0.6-2.2s-1-0.7-1.7-0.7c-0.6,0-1.1,0.1-1.5,0.2c-0.4,0.1-0.7,0.3-1,0.4
				c-0.3,0.2-0.6,0.3-0.9,0.4c-0.3,0.1-0.6,0.2-1,0.2c-0.3,0-0.6-0.1-0.9-0.3c-0.2-0.2-0.4-0.4-0.6-0.6L397.5,207.9z M406.6,215.6
				c-1,0-1.8,0.1-2.5,0.3c-0.7,0.1-1.2,0.3-1.6,0.5c-0.4,0.2-0.6,0.4-0.8,0.7c-0.1,0.3-0.2,0.5-0.2,0.8c0,0.6,0.2,1,0.5,1.2
				s0.8,0.4,1.4,0.4c0.7,0,1.2-0.1,1.7-0.3c0.5-0.2,1-0.6,1.5-1.1V215.6z"/>
			<path fill="#313131" d="M419.3,222.8c-0.8,0-1.5-0.1-2.1-0.4c-0.6-0.2-1.1-0.6-1.6-1c-0.4-0.4-0.7-1-1-1.6s-0.3-1.3-0.3-2v-8.8
				h-1.4c-0.3,0-0.5-0.1-0.7-0.3c-0.2-0.2-0.3-0.4-0.3-0.7v-2l2.7-0.5l1-4.1c0.1-0.5,0.5-0.8,1.1-0.8h2.7v5h4.2v3.5h-4.2v8.4
				c0,0.4,0.1,0.7,0.3,1c0.2,0.3,0.5,0.4,0.8,0.4c0.2,0,0.3,0,0.5-0.1c0.1,0,0.2-0.1,0.3-0.1c0.1,0,0.2-0.1,0.3-0.1s0.2-0.1,0.3-0.1
				c0.2,0,0.3,0,0.4,0.1c0.1,0.1,0.2,0.2,0.3,0.3l1.5,2.4c-0.7,0.5-1.4,0.9-2.2,1.1C421,222.7,420.1,222.8,419.3,222.8z"/>
			<path fill="#313131" d="M428.4,214.9c0.2,1.4,0.6,2.4,1.3,3.1c0.7,0.6,1.6,1,2.7,1c0.6,0,1.1-0.1,1.5-0.2
				c0.4-0.1,0.8-0.3,1.1-0.5c0.3-0.2,0.6-0.3,0.9-0.5c0.3-0.1,0.6-0.2,0.9-0.2c0.4,0,0.7,0.1,0.9,0.4l1.5,1.8
				c-0.5,0.6-1.1,1.1-1.7,1.5c-0.6,0.4-1.2,0.7-1.9,0.9c-0.6,0.2-1.3,0.4-1.9,0.4c-0.6,0.1-1.2,0.1-1.8,0.1c-1.2,0-2.3-0.2-3.3-0.6
				c-1-0.4-2-1-2.7-1.7c-0.8-0.8-1.4-1.7-1.8-2.8c-0.5-1.1-0.7-2.5-0.7-4c0-1.1,0.2-2.2,0.6-3.2c0.4-1,0.9-1.9,1.7-2.7
				c0.7-0.8,1.6-1.4,2.6-1.8c1-0.4,2.2-0.7,3.5-0.7c1.1,0,2.2,0.2,3.1,0.5c0.9,0.3,1.7,0.9,2.4,1.5c0.7,0.7,1.2,1.5,1.6,2.4
				c0.4,1,0.6,2.1,0.6,3.3c0,0.4,0,0.7,0,0.9s-0.1,0.4-0.2,0.6c-0.1,0.1-0.2,0.2-0.4,0.3s-0.3,0.1-0.6,0.1H428.4z M434.8,212
				c0-0.4-0.1-0.8-0.2-1.2c-0.1-0.4-0.3-0.7-0.5-1c-0.2-0.3-0.5-0.5-0.9-0.7c-0.4-0.2-0.8-0.3-1.4-0.3c-1,0-1.7,0.3-2.3,0.8
				c-0.5,0.6-0.9,1.3-1.1,2.4H434.8z"/>
		</g>
		<g>
			<path fill="#313131" d="M343.6,199.4c0.8,0,1.4,0.6,1.4,1.4c0,0.8-0.7,1.4-1.4,1.4c-0.8,0-1.4-0.6-1.4-1.4
				C342.1,200.1,342.8,199.4,343.6,199.4 M343.6,197.9c-1.6,0-3,1.3-3,3c0,1.6,1.3,3,3,3c1.6,0,3-1.3,3-3
				C346.6,199.2,345.2,197.9,343.6,197.9L343.6,197.9z"/>
		</g>
		<g>
			<path fill="#313131" d="M343.6,218.1c0.8,0,1.4,0.6,1.4,1.4c0,0.8-0.7,1.4-1.4,1.4c-0.8,0-1.4-0.6-1.4-1.4
				C342.1,218.8,342.8,218.1,343.6,218.1 M343.6,216.6c-1.6,0-3,1.3-3,3c0,1.6,1.3,3,3,3c1.6,0,3-1.3,3-3
				C346.6,217.9,345.2,216.6,343.6,216.6L343.6,216.6z"/>
		</g>
		<g>
			<circle fill="#313131" cx="343.6" cy="210.2" r="3"/>
		</g>
		<g>
			<path fill="#313131" d="M327.4,227.5c0.8,0,1.4,0.6,1.4,1.4s-0.7,1.4-1.4,1.4c-0.8,0-1.4-0.6-1.4-1.4S326.6,227.5,327.4,227.5
				 M327.4,225.9c-1.6,0-3,1.3-3,3s1.3,3,3,3c1.6,0,3-1.3,3-3S329,225.9,327.4,225.9L327.4,225.9z"/>
		</g>
		<g>
			<path fill="#313131" d="M311.2,199.4c0.8,0,1.4,0.6,1.4,1.4c0,0.8-0.7,1.4-1.4,1.4c-0.8,0-1.4-0.6-1.4-1.4
				C309.8,200.1,310.4,199.4,311.2,199.4 M311.2,197.9c-1.6,0-3,1.3-3,3c0,1.6,1.3,3,3,3c1.6,0,3-1.3,3-3
				C314.2,199.2,312.8,197.9,311.2,197.9L311.2,197.9z"/>
		</g>
		<g>
			<circle fill="#313131" cx="311.2" cy="210.2" r="3"/>
		</g>
		<g>
			<path fill="#313131" d="M311.2,218.1c0.8,0,1.4,0.6,1.4,1.4c0,0.8-0.7,1.4-1.4,1.4c-0.8,0-1.4-0.6-1.4-1.4
				C309.8,218.8,310.4,218.1,311.2,218.1 M311.2,216.6c-1.6,0-3,1.3-3,3c0,1.6,1.3,3,3,3c1.6,0,3-1.3,3-3
				C314.2,217.9,312.8,216.6,311.2,216.6L311.2,216.6z"/>
		</g>
		<g>
			<path fill="#313131" d="M319.3,222.8c0.8,0,1.4,0.6,1.4,1.4s-0.7,1.4-1.4,1.4c-0.8,0-1.4-0.6-1.4-1.4S318.5,222.8,319.3,222.8
				 M319.3,221.3c-1.6,0-3,1.3-3,3s1.3,3,3,3c1.6,0,3-1.3,3-3S320.9,221.3,319.3,221.3L319.3,221.3z"/>
		</g>
		<g>
			<path fill="#313131" d="M327.4,208.8c0.8,0,1.4,0.6,1.4,1.4s-0.7,1.4-1.4,1.4c-0.8,0-1.4-0.6-1.4-1.4S326.6,208.8,327.4,208.8
				 M327.4,207.2c-1.6,0-3,1.3-3,3s1.3,3,3,3c1.6,0,3-1.3,3-3S329,207.2,327.4,207.2L327.4,207.2z"/>
		</g>
		<g>
			<path fill="#313131" d="M327.4,190.1c0.8,0,1.4,0.6,1.4,1.4s-0.7,1.4-1.4,1.4c-0.8,0-1.4-0.6-1.4-1.4S326.6,190.1,327.4,190.1
				 M327.4,188.5c-1.6,0-3,1.3-3,3s1.3,3,3,3c1.6,0,3-1.3,3-3S329,188.5,327.4,188.5L327.4,188.5z"/>
		</g>
		<g>
			<circle fill="#313131" cx="335.5" cy="196.2" r="3"/>
		</g>
		<g>
			<circle fill="#313131" cx="319.3" cy="196.2" r="3"/>
		</g>
		<g>
			<circle fill="#313131" cx="335.5" cy="224.2" r="3"/>
		</g>
		<g>
			<path fill="#313131" d="M327.4,218.1c0.8,0,1.4,0.6,1.4,1.4c0,0.8-0.7,1.4-1.4,1.4c-0.8,0-1.4-0.6-1.4-1.4
				C326,218.8,326.6,218.1,327.4,218.1 M327.4,216.6c-1.6,0-3,1.3-3,3c0,1.6,1.3,3,3,3c1.6,0,3-1.3,3-3
				C330.4,217.9,329,216.6,327.4,216.6L327.4,216.6z"/>
		</g>
		<g>
			<path fill="#313131" d="M319.3,204.1c0.8,0,1.4,0.6,1.4,1.4c0,0.8-0.7,1.4-1.4,1.4c-0.8,0-1.4-0.6-1.4-1.4
				C317.9,204.7,318.5,204.1,319.3,204.1 M319.3,202.6c-1.6,0-3,1.3-3,3c0,1.6,1.3,3,3,3c1.6,0,3-1.3,3-3
				C322.3,203.9,320.9,202.6,319.3,202.6L319.3,202.6z"/>
		</g>
		<g>
			<circle fill="#313131" cx="335.5" cy="205.5" r="3"/>
		</g>
		<g>
			<circle fill="#313131" cx="319.3" cy="214.9" r="3"/>
		</g>
		<g>
			<path fill="#313131" d="M335.5,213.4c0.8,0,1.4,0.6,1.4,1.4c0,0.8-0.7,1.4-1.4,1.4c-0.8,0-1.4-0.6-1.4-1.4
				C334.1,214.1,334.7,213.4,335.5,213.4 M335.5,211.9c-1.6,0-3,1.3-3,3s1.3,3,3,3s3-1.3,3-3S337.1,211.9,335.5,211.9L335.5,211.9z"
				/>
		</g>
		<g>
			<path fill="#313131" d="M327.4,199.4c0.8,0,1.4,0.6,1.4,1.4c0,0.8-0.7,1.4-1.4,1.4c-0.8,0-1.4-0.6-1.4-1.4
				C326,200.1,326.6,199.4,327.4,199.4 M327.4,197.9c-1.6,0-3,1.3-3,3c0,1.6,1.3,3,3,3c1.6,0,3-1.3,3-3
				C330.4,199.2,329,197.9,327.4,197.9L327.4,197.9z"/>
		</g>
	</g>
	<g>
		
			<text transform="matrix(1 0 0 1 198.9993 230.4265)" fill="#313131" font-family="'Lato-Black'" font-size="31.218px" letter-spacing="-1">i</text>
		<circle fill="#F2C50F" cx="219" cy="200.9" r="3"/>
		<circle fill="#3599DC" cx="219" cy="219.6" r="3"/>
		<circle fill="#9C5AB7" cx="219" cy="210.2" r="3"/>
		<circle fill="#E84C3C" cx="186.6" cy="200.9" r="3"/>
		<circle fill="#E84C3C" cx="186.6" cy="210.2" r="3"/>
		<circle fill="#9C5AB7" cx="186.6" cy="219.6" r="3"/>
		<circle fill="#2ECC71" cx="194.7" cy="224.2" r="3"/>
		<circle fill="#2ECC71" cx="202.8" cy="191.5" r="3"/>
		<circle fill="#3599DC" cx="210.9" cy="196.2" r="3"/>
		<circle fill="#E84C3C" cx="194.7" cy="196.2" r="3"/>
		<circle fill="#2ECC71" cx="210.9" cy="224.2" r="3"/>
		<circle fill="#F2C50F" cx="194.7" cy="205.5" r="3"/>
		<circle fill="#E77E22" cx="210.9" cy="205.5" r="3"/>
		<circle fill="#E77E22" cx="194.7" cy="214.9" r="3"/>
		<circle fill="#F2C50F" cx="210.9" cy="214.9" r="3"/>
		<circle fill="#9C5AB7" cx="202.8" cy="200.9" r="3"/>
	</g>
	<g>
		<g>
			<circle fill="#E00E7D" cx="68.8" cy="205.5" r="3.6"/>
		</g>
		<g>
			<circle fill="#E00E7D" cx="76.9" cy="219.6" r="3.6"/>
		</g>
		<g>
			<circle fill="#E00E7D" cx="68.8" cy="214.9" r="3.6"/>
		</g>
		<circle fill="none" stroke="#313131" stroke-width="1.5228" stroke-miterlimit="10" cx="93.1" cy="219.6" r="3"/>
		<circle fill="none" stroke="#313131" stroke-width="1.5228" stroke-miterlimit="10" cx="93.1" cy="200.9" r="3"/>
		<circle fill="none" stroke="#313131" stroke-width="1.5228" stroke-miterlimit="10" cx="93.1" cy="210.2" r="3"/>
		<circle fill="none" stroke="#313131" stroke-width="1.5228" stroke-miterlimit="10" cx="76.9" cy="191.5" r="3"/>
		<circle fill="none" stroke="#313131" stroke-width="1.5228" stroke-miterlimit="10" cx="60.7" cy="219.6" r="3"/>
		<circle fill="none" stroke="#313131" stroke-width="1.5228" stroke-miterlimit="10" cx="60.7" cy="210.2" r="3"/>
		<circle fill="none" stroke="#313131" stroke-width="1.5228" stroke-miterlimit="10" cx="60.7" cy="200.9" r="3"/>
		<circle fill="none" stroke="#313131" stroke-width="1.5228" stroke-miterlimit="10" cx="76.9" cy="210.2" r="3"/>
		<circle fill="none" stroke="#313131" stroke-width="1.5228" stroke-miterlimit="10" cx="76.9" cy="228.9" r="3"/>
		<circle fill="none" stroke="#313131" stroke-width="1.5228" stroke-miterlimit="10" cx="85" cy="224.2" r="3"/>
		<circle fill="none" stroke="#313131" stroke-width="1.5228" stroke-miterlimit="10" cx="68.8" cy="224.2" r="3"/>
		<circle fill="none" stroke="#313131" stroke-width="1.5228" stroke-miterlimit="10" cx="85" cy="196.2" r="3"/>
		<circle fill="none" stroke="#313131" stroke-width="1.5228" stroke-miterlimit="10" cx="76.9" cy="200.9" r="3"/>
		<circle fill="none" stroke="#313131" stroke-width="1.5228" stroke-miterlimit="10" cx="85" cy="214.9" r="3"/>
		<circle fill="none" stroke="#313131" stroke-width="1.5228" stroke-miterlimit="10" cx="85" cy="205.5" r="3"/>
		<g>
			<circle fill="#E00E7D" cx="68.8" cy="196.2" r="3.6"/>
		</g>
	</g>
	<g>
		<rect x="553.7" y="208.4" fill="#313131" width="5.4" height="15"/>
		<path fill="#313131" d="M569.5,223.4l-0.3-1.9c-0.9,1.1-2.2,2.2-4.1,2.2c-3,0-5.2-2.3-5.2-7.4c0-5.8,3-8,6.1-8
			c1.3,0,2.1,0.2,2.9,0.4v-6.4l5.4-0.8v21.8H569.5z M569,212.8c-0.5-0.2-0.8-0.3-1.5-0.3c-1.2,0-2.1,0.9-2.1,3.4c0,2.2,0.8,3,1.8,3
			c0.7,0,1.3-0.5,1.9-1.1V212.8z"/>
		<path fill="#313131" d="M589,217.5h-8.5c0.3,1.9,1.6,2.5,3.4,2.5c1.5,0,3.1-0.5,4.7-1.4l0.5,3.6c-1.6,0.9-3.7,1.5-6,1.5
			c-4.7,0-8-2.4-8-7.7c0-4.9,3.1-7.9,7.2-7.9c4.7,0,6.7,3.4,6.7,7.9C589,216.6,589,217.2,589,217.5z M582.2,211.4
			c-1.1,0-1.8,1.1-1.8,3.3h3.7C583.9,212.5,583.2,211.4,582.2,211.4z"/>
		<path fill="#313131" d="M597.9,223.4l-0.3-1.8c-1.3,1.3-2.6,2.1-4.5,2.1c-2.3,0-4-1.4-4-4.1c0-3.4,2.5-5.1,8.2-5.6v-0.1
			c0-1.1-0.6-1.6-2-1.6c-1.6,0-3.1,0.4-4.7,1.1l-0.6-3.9c1.7-0.7,3.7-1.1,6.2-1.1c4.3,0,6.5,1.3,6.5,5.4v9.9H597.9z M597.4,216.2
			c-2.2,0.5-2.9,1.3-2.9,2.5c0,0.8,0.5,1.3,1.1,1.3c0.6,0,1.1-0.2,1.8-0.8V216.2z"/>
		<path fill="#313131" d="M610.8,223.6c-3.4,0-5.9-1.3-5.9-5.4v-5.4H603v-4.3h1.9v-4.3l5.4-0.8v5.1h2.7l0.7,4.3h-3.4v4.6
			c0,1.2,0.6,1.7,1.8,1.7c0.3,0,0.7-0.1,1-0.2l0.6,4.4C612.8,223.5,612.1,223.6,610.8,223.6z"/>
		<path fill="#313131" d="M627.2,217.5h-8.5c0.3,1.9,1.6,2.5,3.4,2.5c1.5,0,3.1-0.5,4.7-1.4l0.5,3.6c-1.6,0.9-3.7,1.5-6,1.5
			c-4.7,0-8-2.4-8-7.7c0-4.9,3.1-7.9,7.2-7.9c4.7,0,6.7,3.4,6.7,7.9C627.2,216.6,627.2,217.2,627.2,217.5z M620.3,211.4
			c-1.1,0-1.8,1.1-1.8,3.3h3.7C622.1,212.5,621.4,211.4,620.3,211.4z"/>
		<g>
			<path fill="#313131" d="M547.4,199.4c0.8,0,1.4,0.7,1.4,1.4c0,0.8-0.7,1.4-1.4,1.4s-1.4-0.7-1.4-1.4
				C546,200.1,546.6,199.4,547.4,199.4 M547.4,197.9c-1.6,0-3,1.3-3,3c0,1.6,1.3,3,3,3s3-1.3,3-3
				C550.4,199.2,549.1,197.9,547.4,197.9L547.4,197.9z"/>
		</g>
		<g>
			<path fill="#313131" d="M547.4,218.1c0.8,0,1.4,0.7,1.4,1.4c0,0.8-0.7,1.4-1.4,1.4s-1.4-0.7-1.4-1.4
				C546,218.8,546.6,218.1,547.4,218.1 M547.4,216.6c-1.6,0-3,1.3-3,3c0,1.6,1.3,3,3,3s3-1.3,3-3
				C550.4,217.9,549.1,216.6,547.4,216.6L547.4,216.6z"/>
		</g>
		<g>
			<circle fill="#313131" cx="547.4" cy="210.2" r="3"/>
		</g>
		<g>
			<path fill="#313131" d="M531.2,227.5c0.8,0,1.4,0.7,1.4,1.4c0,0.8-0.7,1.4-1.4,1.4c-0.8,0-1.4-0.7-1.4-1.4
				C529.8,228.1,530.4,227.5,531.2,227.5 M531.2,225.9c-1.6,0-3,1.3-3,3c0,1.6,1.3,3,3,3c1.6,0,3-1.3,3-3
				C534.2,227.3,532.9,225.9,531.2,225.9L531.2,225.9z"/>
		</g>
		<g>
			<path fill="#313131" d="M515,199.4c0.8,0,1.4,0.7,1.4,1.4c0,0.8-0.7,1.4-1.4,1.4c-0.8,0-1.4-0.7-1.4-1.4
				C513.6,200.1,514.2,199.4,515,199.4 M515,197.9c-1.6,0-3,1.3-3,3c0,1.6,1.3,3,3,3c1.6,0,3-1.3,3-3
				C518,199.2,516.7,197.9,515,197.9L515,197.9z"/>
		</g>
		<g>
			<circle fill="#313131" cx="515" cy="210.2" r="3"/>
		</g>
		<g>
			<path fill="#313131" d="M515,218.1c0.8,0,1.4,0.7,1.4,1.4c0,0.8-0.7,1.4-1.4,1.4c-0.8,0-1.4-0.7-1.4-1.4
				C513.6,218.8,514.2,218.1,515,218.1 M515,216.6c-1.6,0-3,1.3-3,3c0,1.6,1.3,3,3,3c1.6,0,3-1.3,3-3
				C518,217.9,516.7,216.6,515,216.6L515,216.6z"/>
		</g>
		<g>
			<path fill="#313131" d="M523.1,222.8c0.8,0,1.4,0.7,1.4,1.4c0,0.8-0.7,1.4-1.4,1.4c-0.8,0-1.4-0.7-1.4-1.4
				C521.7,223.4,522.3,222.8,523.1,222.8 M523.1,221.3c-1.6,0-3,1.3-3,3c0,1.6,1.3,3,3,3c1.6,0,3-1.3,3-3
				C526.1,222.6,524.8,221.3,523.1,221.3L523.1,221.3z"/>
		</g>
		<g>
			<path fill="#313131" d="M531.2,208.8c0.8,0,1.4,0.7,1.4,1.4c0,0.8-0.7,1.4-1.4,1.4c-0.8,0-1.4-0.7-1.4-1.4
				C529.8,209.4,530.4,208.8,531.2,208.8 M531.2,207.2c-1.6,0-3,1.3-3,3c0,1.6,1.3,3,3,3c1.6,0,3-1.3,3-3
				C534.2,208.6,532.9,207.2,531.2,207.2L531.2,207.2z"/>
		</g>
		<g>
			<path fill="#313131" d="M531.2,190.1c0.8,0,1.4,0.7,1.4,1.4c0,0.8-0.7,1.4-1.4,1.4c-0.8,0-1.4-0.7-1.4-1.4
				C529.8,190.7,530.4,190.1,531.2,190.1 M531.2,188.5c-1.6,0-3,1.3-3,3s1.3,3,3,3c1.6,0,3-1.3,3-3S532.9,188.5,531.2,188.5
				L531.2,188.5z"/>
		</g>
		<g>
			<circle fill="#313131" cx="539.3" cy="196.2" r="3"/>
		</g>
		<g>
			<circle fill="#313131" cx="523.1" cy="196.2" r="3"/>
		</g>
		<g>
			<circle fill="#313131" cx="539.3" cy="224.2" r="3"/>
		</g>
		<g>
			<path fill="#313131" d="M531.2,218.1c0.8,0,1.4,0.7,1.4,1.4c0,0.8-0.7,1.4-1.4,1.4c-0.8,0-1.4-0.7-1.4-1.4
				C529.8,218.8,530.4,218.1,531.2,218.1 M531.2,216.6c-1.6,0-3,1.3-3,3c0,1.6,1.3,3,3,3c1.6,0,3-1.3,3-3
				C534.2,217.9,532.9,216.6,531.2,216.6L531.2,216.6z"/>
		</g>
		<g>
			<path fill="#313131" d="M523.1,204.1c0.8,0,1.4,0.7,1.4,1.4c0,0.8-0.7,1.4-1.4,1.4c-0.8,0-1.4-0.7-1.4-1.4
				C521.7,204.7,522.3,204.1,523.1,204.1 M523.1,202.6c-1.6,0-3,1.3-3,3c0,1.6,1.3,3,3,3c1.6,0,3-1.3,3-3
				C526.1,203.9,524.8,202.6,523.1,202.6L523.1,202.6z"/>
		</g>
		<g>
			<circle fill="#313131" cx="539.3" cy="205.5" r="3"/>
		</g>
		<g>
			<circle fill="#313131" cx="523.1" cy="214.9" r="3"/>
		</g>
		<g>
			<path fill="#313131" d="M539.3,213.4c0.8,0,1.4,0.7,1.4,1.4c0,0.8-0.7,1.4-1.4,1.4c-0.8,0-1.4-0.7-1.4-1.4
				C537.9,214.1,538.5,213.4,539.3,213.4 M539.3,211.9c-1.6,0-3,1.3-3,3s1.3,3,3,3c1.6,0,3-1.3,3-3S541,211.9,539.3,211.9
				L539.3,211.9z"/>
		</g>
		<g>
			<path fill="#313131" d="M531.2,199.4c0.8,0,1.4,0.7,1.4,1.4c0,0.8-0.7,1.4-1.4,1.4c-0.8,0-1.4-0.7-1.4-1.4
				C529.8,200.1,530.4,199.4,531.2,199.4 M531.2,197.9c-1.6,0-3,1.3-3,3c0,1.6,1.3,3,3,3c1.6,0,3-1.3,3-3
				C534.2,199.2,532.9,197.9,531.2,197.9L531.2,197.9z"/>
		</g>
	</g>
</g>
<g>
	<g>
		<g>
			<path fill="#313131" d="M255.5,118.1c0,0.3-0.1,0.7-0.2,1s-0.3,0.6-0.6,0.8c-0.2,0.2-0.5,0.4-0.8,0.5c-0.3,0.1-0.7,0.2-1,0.2
				c-0.3,0-0.7-0.1-1-0.2c-0.3-0.1-0.6-0.3-0.8-0.5c-0.2-0.2-0.4-0.5-0.6-0.8s-0.2-0.6-0.2-1c0-0.3,0.1-0.7,0.2-1
				c0.1-0.3,0.3-0.6,0.6-0.8s0.5-0.4,0.8-0.5c0.3-0.1,0.6-0.2,1-0.2c0.4,0,0.7,0.1,1,0.2c0.3,0.1,0.6,0.3,0.8,0.5
				c0.2,0.2,0.4,0.5,0.6,0.8C255.5,117.5,255.5,117.8,255.5,118.1z M255.1,122v14.3h-4.3V122H255.1z"/>
			<path fill="#313131" d="M269.9,115.7v20.6h-2.6c-0.5,0-0.9-0.2-1-0.7l-0.3-1.1c-0.3,0.3-0.6,0.6-0.9,0.8c-0.3,0.2-0.7,0.5-1,0.6
				s-0.8,0.3-1.2,0.4c-0.4,0.1-0.9,0.1-1.4,0.1c-0.7,0-1.4-0.2-2.1-0.5s-1.2-0.8-1.6-1.4s-0.8-1.4-1.1-2.3c-0.3-0.9-0.4-1.9-0.4-3.1
				c0-1.1,0.1-2.1,0.4-3c0.3-0.9,0.7-1.7,1.2-2.4c0.5-0.7,1.2-1.2,1.9-1.6c0.8-0.4,1.6-0.6,2.5-0.6c0.7,0,1.4,0.1,1.9,0.3
				c0.5,0.2,1,0.5,1.4,0.9v-7.2H269.9z M265.6,125.9c-0.3-0.4-0.7-0.6-1-0.8s-0.8-0.2-1.2-0.2c-0.4,0-0.8,0.1-1.1,0.2
				c-0.3,0.2-0.6,0.4-0.9,0.8c-0.2,0.3-0.4,0.8-0.6,1.3c-0.1,0.6-0.2,1.2-0.2,2c0,0.8,0.1,1.4,0.2,1.9c0.1,0.5,0.3,0.9,0.5,1.2
				c0.2,0.3,0.4,0.5,0.7,0.7c0.3,0.1,0.6,0.2,0.9,0.2c0.3,0,0.6,0,0.8-0.1c0.3-0.1,0.5-0.1,0.7-0.3s0.4-0.3,0.6-0.4
				c0.2-0.2,0.4-0.4,0.6-0.6V125.9z"/>
			<path fill="#313131" d="M275.1,130c0.1,1.2,0.5,2.1,1.1,2.6c0.6,0.5,1.3,0.8,2.3,0.8c0.5,0,0.9-0.1,1.3-0.2
				c0.4-0.1,0.7-0.3,1-0.4c0.3-0.1,0.5-0.3,0.8-0.4c0.2-0.1,0.5-0.2,0.7-0.2c0.3,0,0.6,0.1,0.8,0.4l1.2,1.5
				c-0.4,0.5-0.9,0.9-1.4,1.2c-0.5,0.3-1,0.6-1.6,0.7c-0.5,0.2-1.1,0.3-1.6,0.4c-0.5,0.1-1.1,0.1-1.5,0.1c-1,0-1.9-0.2-2.8-0.5
				c-0.9-0.3-1.6-0.8-2.3-1.5c-0.7-0.6-1.2-1.4-1.6-2.4c-0.4-1-0.6-2.1-0.6-3.3c0-1,0.2-1.9,0.5-2.7c0.3-0.9,0.8-1.6,1.4-2.2
				c0.6-0.6,1.4-1.2,2.2-1.5c0.9-0.4,1.9-0.6,2.9-0.6c0.9,0,1.8,0.1,2.6,0.4c0.8,0.3,1.5,0.7,2,1.3c0.6,0.6,1,1.2,1.3,2.1
				c0.3,0.8,0.5,1.7,0.5,2.8c0,0.3,0,0.6,0,0.8c0,0.2-0.1,0.4-0.2,0.5s-0.2,0.2-0.3,0.2s-0.3,0.1-0.5,0.1H275.1z M280.5,127.5
				c0-0.3,0-0.7-0.1-1s-0.2-0.6-0.4-0.9s-0.5-0.5-0.8-0.6s-0.7-0.2-1.2-0.2c-0.8,0-1.4,0.2-1.9,0.7c-0.5,0.5-0.8,1.1-0.9,2H280.5z"
				/>
			<path fill="#313131" d="M285,124c0.9-0.8,1.8-1.3,2.9-1.7c1.1-0.4,2.2-0.6,3.4-0.6c0.9,0,1.6,0.1,2.3,0.4
				c0.7,0.3,1.3,0.7,1.8,1.2c0.5,0.5,0.9,1.1,1.1,1.8c0.3,0.7,0.4,1.4,0.4,2.3v8.9h-2c-0.4,0-0.7-0.1-0.9-0.2
				c-0.2-0.1-0.4-0.3-0.5-0.7l-0.3-0.8c-0.4,0.3-0.7,0.6-1,0.8c-0.3,0.2-0.7,0.4-1,0.6c-0.4,0.2-0.7,0.3-1.1,0.4s-0.8,0.1-1.3,0.1
				c-0.7,0-1.2-0.1-1.8-0.3c-0.5-0.2-1-0.4-1.4-0.8c-0.4-0.3-0.7-0.7-0.9-1.2c-0.2-0.5-0.3-1.1-0.3-1.7c0-0.5,0.1-1,0.4-1.6
				s0.7-1,1.3-1.4c0.6-0.4,1.5-0.8,2.6-1.1c1.1-0.3,2.4-0.5,4.1-0.5v-0.6c0-0.8-0.2-1.4-0.5-1.8c-0.3-0.4-0.8-0.6-1.5-0.6
				c-0.5,0-0.9,0.1-1.2,0.2s-0.6,0.2-0.9,0.4c-0.3,0.1-0.5,0.3-0.7,0.4c-0.2,0.1-0.5,0.2-0.9,0.2c-0.3,0-0.5-0.1-0.7-0.2
				c-0.2-0.1-0.4-0.3-0.5-0.5L285,124z M292.7,130.5c-0.9,0-1.6,0.1-2.1,0.2c-0.6,0.1-1,0.2-1.3,0.4c-0.3,0.2-0.5,0.4-0.7,0.6
				c-0.1,0.2-0.2,0.4-0.2,0.7c0,0.5,0.1,0.8,0.4,1s0.7,0.3,1.2,0.3c0.6,0,1-0.1,1.4-0.3c0.4-0.2,0.8-0.5,1.3-0.9V130.5z"/>
			<path fill="#313131" d="M303.3,136.6c-0.7,0-1.3-0.1-1.8-0.3c-0.5-0.2-1-0.5-1.3-0.8s-0.6-0.8-0.8-1.3c-0.2-0.5-0.3-1.1-0.3-1.7
				V125h-1.2c-0.2,0-0.4-0.1-0.6-0.2s-0.2-0.4-0.2-0.6v-1.7l2.3-0.4l0.8-3.5c0.1-0.4,0.4-0.7,0.9-0.7h2.2v4.2h3.5v2.9h-3.5v7.1
				c0,0.3,0.1,0.6,0.2,0.8c0.2,0.2,0.4,0.3,0.7,0.3c0.2,0,0.3,0,0.4,0c0.1,0,0.2-0.1,0.3-0.1c0.1,0,0.2-0.1,0.2-0.1
				c0.1,0,0.1,0,0.2,0c0.1,0,0.2,0,0.3,0.1c0.1,0.1,0.2,0.2,0.2,0.3l1.3,2c-0.6,0.4-1.2,0.7-1.9,0.9
				C304.8,136.5,304.1,136.6,303.3,136.6z"/>
			<path fill="#313131" d="M311,130c0.1,1.2,0.5,2.1,1.1,2.6c0.6,0.5,1.3,0.8,2.3,0.8c0.5,0,0.9-0.1,1.3-0.2c0.4-0.1,0.7-0.3,1-0.4
				c0.3-0.1,0.5-0.3,0.8-0.4c0.2-0.1,0.5-0.2,0.7-0.2c0.3,0,0.6,0.1,0.8,0.4l1.2,1.5c-0.4,0.5-0.9,0.9-1.4,1.2
				c-0.5,0.3-1,0.6-1.6,0.7c-0.5,0.2-1.1,0.3-1.6,0.4c-0.5,0.1-1.1,0.1-1.5,0.1c-1,0-1.9-0.2-2.8-0.5c-0.9-0.3-1.6-0.8-2.3-1.5
				c-0.7-0.6-1.2-1.4-1.6-2.4c-0.4-1-0.6-2.1-0.6-3.3c0-1,0.2-1.9,0.5-2.7c0.3-0.9,0.8-1.6,1.4-2.2c0.6-0.6,1.4-1.2,2.2-1.5
				c0.9-0.4,1.9-0.6,2.9-0.6c0.9,0,1.8,0.1,2.6,0.4c0.8,0.3,1.5,0.7,2,1.3c0.6,0.6,1,1.2,1.3,2.1c0.3,0.8,0.5,1.7,0.5,2.8
				c0,0.3,0,0.6,0,0.8c0,0.2-0.1,0.4-0.2,0.5s-0.2,0.2-0.3,0.2s-0.3,0.1-0.5,0.1H311z M316.4,127.5c0-0.3,0-0.7-0.1-1
				s-0.2-0.6-0.4-0.9s-0.5-0.5-0.8-0.6s-0.7-0.2-1.2-0.2c-0.8,0-1.4,0.2-1.9,0.7c-0.5,0.5-0.8,1.1-0.9,2H316.4z"/>
		</g>
		<g>
			<circle fill="#9C5AB7" cx="217.7" cy="125.7" r="3.6"/>
		</g>
		<g>
			<circle fill="#9C5AB7" cx="225.8" cy="139.7" r="3.6"/>
		</g>
		<g>
			<circle fill="#9C5AB7" cx="217.7" cy="135" r="3.6"/>
		</g>
		<g>
			<circle fill="#313131" cx="242" cy="139.7" r="3"/>
		</g>
		<g>
			<circle fill="#313131" cx="242" cy="121" r="3"/>
		</g>
		<g>
			<circle fill="#313131" cx="242" cy="130.3" r="3"/>
		</g>
		<g>
			<circle fill="#313131" cx="225.8" cy="111.6" r="3"/>
		</g>
		<g>
			<circle fill="#313131" cx="209.6" cy="139.7" r="3"/>
		</g>
		<g>
			<circle fill="#313131" cx="209.6" cy="130.3" r="3"/>
		</g>
		<g>
			<circle fill="#313131" cx="209.6" cy="121" r="3"/>
		</g>
		<g>
			<circle fill="#313131" cx="225.8" cy="130.3" r="3"/>
		</g>
		<g>
			<circle fill="#313131" cx="225.8" cy="149" r="3"/>
		</g>
		<g>
			<circle fill="#313131" cx="233.9" cy="144.4" r="3"/>
		</g>
		<g>
			<circle fill="#313131" cx="217.7" cy="144.4" r="3"/>
		</g>
		<g>
			<circle fill="#313131" cx="233.9" cy="116.3" r="3"/>
		</g>
		<g>
			<circle fill="#313131" cx="225.8" cy="121" r="3"/>
		</g>
		<g>
			<circle fill="#313131" cx="233.9" cy="135" r="3"/>
		</g>
		<g>
			<circle fill="#313131" cx="233.9" cy="125.7" r="3"/>
		</g>
		<g>
			<circle fill="#9C5AB7" cx="217.7" cy="116.3" r="3.6"/>
		</g>
		<g>
			<path fill="#9C5AB7" d="M253.8,143.1v0.6H251v-4.9h0.7v4.4H253.8z"/>
			<path fill="#9C5AB7" d="M256.9,143.1c-0.1,0.1-0.2,0.2-0.3,0.2s-0.2,0.1-0.3,0.2s-0.2,0.1-0.4,0.1c-0.1,0-0.3,0-0.4,0
				c-0.2,0-0.5,0-0.7-0.1s-0.4-0.2-0.5-0.4c-0.1-0.2-0.3-0.4-0.3-0.6c-0.1-0.2-0.1-0.5-0.1-0.8c0-0.2,0-0.5,0.1-0.7
				c0.1-0.2,0.2-0.4,0.3-0.5c0.1-0.2,0.3-0.3,0.5-0.4c0.2-0.1,0.4-0.1,0.7-0.1c0.2,0,0.4,0,0.6,0.1c0.2,0.1,0.3,0.2,0.5,0.3
				c0.1,0.1,0.2,0.3,0.3,0.5c0.1,0.2,0.1,0.4,0.1,0.7c0,0.1,0,0.2,0,0.2c0,0-0.1,0-0.1,0h-2.3c0,0.2,0,0.4,0.1,0.6s0.1,0.3,0.2,0.4
				c0.1,0.1,0.2,0.2,0.3,0.2c0.1,0.1,0.3,0.1,0.4,0.1c0.2,0,0.3,0,0.4-0.1c0.1,0,0.2-0.1,0.3-0.1c0.1,0,0.1-0.1,0.2-0.1
				c0.1,0,0.1-0.1,0.1-0.1c0.1,0,0.1,0,0.1,0.1L256.9,143.1z M256.4,141.5c0-0.1,0-0.3-0.1-0.4s-0.1-0.2-0.2-0.3
				c-0.1-0.1-0.2-0.2-0.3-0.2c-0.1,0-0.2-0.1-0.4-0.1c-0.3,0-0.5,0.1-0.7,0.3c-0.2,0.2-0.3,0.4-0.3,0.7H256.4z"/>
			<path fill="#9C5AB7" d="M257.6,140.6c0.2-0.2,0.4-0.3,0.6-0.4s0.5-0.1,0.7-0.1c0.2,0,0.4,0,0.5,0.1c0.2,0.1,0.3,0.2,0.4,0.3
				c0.1,0.1,0.2,0.3,0.2,0.4c0.1,0.2,0.1,0.3,0.1,0.5v2.2h-0.3c-0.1,0-0.1,0-0.1,0c0,0-0.1-0.1-0.1-0.1l-0.1-0.3
				c-0.1,0.1-0.2,0.2-0.3,0.2c-0.1,0.1-0.2,0.1-0.3,0.2c-0.1,0-0.2,0.1-0.3,0.1c-0.1,0-0.2,0-0.4,0c-0.1,0-0.3,0-0.4-0.1
				c-0.1,0-0.2-0.1-0.3-0.2c-0.1-0.1-0.2-0.2-0.2-0.3s-0.1-0.3-0.1-0.4c0-0.1,0-0.3,0.1-0.4c0.1-0.1,0.2-0.2,0.4-0.3
				c0.2-0.1,0.4-0.2,0.7-0.2c0.3-0.1,0.6-0.1,1-0.1v-0.3c0-0.3-0.1-0.5-0.2-0.6s-0.3-0.2-0.5-0.2c-0.2,0-0.3,0-0.4,0.1
				c-0.1,0-0.2,0.1-0.3,0.1s-0.1,0.1-0.2,0.1s-0.1,0.1-0.2,0.1c0,0-0.1,0-0.1,0s-0.1,0-0.1-0.1L257.6,140.6z M259.6,142.1
				c-0.3,0-0.5,0-0.7,0.1c-0.2,0-0.4,0.1-0.5,0.1s-0.2,0.1-0.3,0.2s-0.1,0.2-0.1,0.3c0,0.1,0,0.2,0,0.2c0,0.1,0.1,0.1,0.1,0.2
				c0.1,0,0.1,0.1,0.2,0.1c0.1,0,0.1,0,0.2,0c0.1,0,0.2,0,0.3,0c0.1,0,0.2-0.1,0.3-0.1c0.1,0,0.2-0.1,0.2-0.1
				c0.1-0.1,0.1-0.1,0.2-0.2V142.1z"/>
			<path fill="#9C5AB7" d="M261.7,140.8c0.1-0.2,0.2-0.4,0.4-0.6c0.2-0.1,0.4-0.2,0.6-0.2c0.1,0,0.1,0,0.2,0c0.1,0,0.1,0,0.2,0.1
				l0,0.5c0,0.1,0,0.1-0.1,0.1c0,0-0.1,0-0.1,0s-0.1,0-0.2,0c-0.1,0-0.2,0-0.3,0c-0.1,0-0.2,0.1-0.2,0.1c-0.1,0.1-0.1,0.1-0.2,0.2
				c-0.1,0.1-0.1,0.2-0.1,0.3v2.2h-0.6v-3.5h0.3c0.1,0,0.1,0,0.1,0c0,0,0,0.1,0.1,0.1L261.7,140.8z"/>
			<path fill="#9C5AB7" d="M264.2,140.7c0.1-0.1,0.2-0.2,0.2-0.2c0.1-0.1,0.2-0.1,0.3-0.2c0.1,0,0.2-0.1,0.3-0.1c0.1,0,0.2,0,0.3,0
				c0.2,0,0.4,0,0.5,0.1c0.1,0.1,0.3,0.2,0.4,0.3c0.1,0.1,0.2,0.3,0.2,0.4c0,0.2,0.1,0.3,0.1,0.5v2.2h-0.6v-2.2
				c0-0.3-0.1-0.5-0.2-0.6c-0.1-0.1-0.3-0.2-0.5-0.2c-0.2,0-0.3,0-0.5,0.1c-0.2,0.1-0.3,0.2-0.4,0.4v2.6h-0.6v-3.5h0.4
				c0.1,0,0.1,0,0.2,0.1L264.2,140.7z"/>
			<path fill="#9C5AB7" d="M268.2,139.1c0,0.1,0,0.1,0,0.2c0,0.1-0.1,0.1-0.1,0.1s-0.1,0.1-0.1,0.1s-0.1,0-0.2,0s-0.1,0-0.2,0
				s-0.1-0.1-0.1-0.1c0,0-0.1-0.1-0.1-0.1c0-0.1,0-0.1,0-0.2c0-0.1,0-0.1,0-0.2s0.1-0.1,0.1-0.1c0,0,0.1-0.1,0.1-0.1s0.1,0,0.2,0
				s0.1,0,0.2,0s0.1,0.1,0.1,0.1s0.1,0.1,0.1,0.1S268.2,139,268.2,139.1z M268.1,140.2v3.5h-0.6v-3.5H268.1z"/>
			<path fill="#9C5AB7" d="M269.7,140.7c0.1-0.1,0.2-0.2,0.2-0.2c0.1-0.1,0.2-0.1,0.3-0.2c0.1,0,0.2-0.1,0.3-0.1c0.1,0,0.2,0,0.3,0
				c0.2,0,0.4,0,0.5,0.1c0.1,0.1,0.3,0.2,0.4,0.3c0.1,0.1,0.2,0.3,0.2,0.4c0,0.2,0.1,0.3,0.1,0.5v2.2h-0.6v-2.2
				c0-0.3-0.1-0.5-0.2-0.6c-0.1-0.1-0.3-0.2-0.5-0.2c-0.2,0-0.3,0-0.5,0.1c-0.2,0.1-0.3,0.2-0.4,0.4v2.6h-0.6v-3.5h0.4
				c0.1,0,0.1,0,0.2,0.1L269.7,140.7z"/>
			<path fill="#9C5AB7" d="M275.8,140.3v0.2c0,0.1,0,0.1-0.1,0.1l-0.4,0.1c0.1,0.2,0.1,0.3,0.1,0.5c0,0.2,0,0.3-0.1,0.5
				s-0.2,0.3-0.3,0.4s-0.3,0.2-0.4,0.2c-0.2,0.1-0.3,0.1-0.5,0.1c-0.2,0-0.3,0-0.5-0.1c-0.1,0-0.1,0.1-0.2,0.1
				c0,0.1-0.1,0.1-0.1,0.2c0,0.1,0,0.1,0.1,0.2c0.1,0,0.2,0.1,0.3,0.1c0.1,0,0.2,0,0.4,0c0.1,0,0.3,0,0.4,0c0.1,0,0.3,0,0.4,0.1
				c0.1,0,0.3,0.1,0.4,0.1s0.2,0.1,0.3,0.2c0.1,0.1,0.1,0.2,0.1,0.4c0,0.1,0,0.3-0.1,0.4c-0.1,0.1-0.2,0.3-0.3,0.4
				c-0.1,0.1-0.3,0.2-0.5,0.3c-0.2,0.1-0.4,0.1-0.7,0.1c-0.3,0-0.5,0-0.7-0.1c-0.2-0.1-0.3-0.1-0.5-0.2s-0.2-0.2-0.3-0.3
				s-0.1-0.2-0.1-0.3c0-0.2,0.1-0.3,0.2-0.4c0.1-0.1,0.3-0.2,0.4-0.3c-0.1,0-0.2-0.1-0.2-0.2c-0.1-0.1-0.1-0.2-0.1-0.3
				c0-0.1,0-0.1,0-0.2c0-0.1,0-0.1,0.1-0.2c0-0.1,0.1-0.1,0.1-0.2c0.1,0,0.1-0.1,0.2-0.1c-0.2-0.1-0.3-0.2-0.4-0.4
				c-0.1-0.2-0.1-0.3-0.1-0.6c0-0.2,0-0.3,0.1-0.5s0.2-0.3,0.3-0.4c0.1-0.1,0.3-0.2,0.4-0.2c0.2-0.1,0.3-0.1,0.5-0.1
				c0.2,0,0.3,0,0.4,0c0.1,0,0.2,0.1,0.4,0.1H275.8z M275.2,143.8c0-0.1,0-0.2-0.1-0.2c0-0.1-0.1-0.1-0.2-0.1
				c-0.1,0-0.2-0.1-0.3-0.1c-0.1,0-0.2,0-0.3,0s-0.2,0-0.4,0c-0.1,0-0.2,0-0.4,0c-0.1,0.1-0.2,0.1-0.3,0.2s-0.1,0.2-0.1,0.3
				c0,0.1,0,0.2,0.1,0.2c0,0.1,0.1,0.1,0.2,0.2c0.1,0,0.2,0.1,0.3,0.1c0.1,0,0.3,0,0.4,0c0.2,0,0.3,0,0.4,0s0.2-0.1,0.3-0.1
				s0.2-0.1,0.2-0.2C275.2,144,275.2,143.9,275.2,143.8z M274.1,141.9c0.1,0,0.2,0,0.3-0.1s0.2-0.1,0.2-0.1c0.1-0.1,0.1-0.1,0.1-0.2
				c0-0.1,0-0.2,0-0.3c0-0.2-0.1-0.4-0.2-0.5c-0.1-0.1-0.3-0.2-0.6-0.2c-0.2,0-0.4,0.1-0.6,0.2c-0.1,0.1-0.2,0.3-0.2,0.5
				c0,0.1,0,0.2,0,0.3c0,0.1,0.1,0.2,0.1,0.2c0.1,0.1,0.1,0.1,0.2,0.1S274,141.9,274.1,141.9z"/>
			<path fill="#9C5AB7" d="M283.5,138.7v4.9h-0.6V140c0,0,0-0.1,0-0.2s0-0.1,0-0.2l-1.7,3.1c-0.1,0.1-0.1,0.2-0.2,0.2h-0.1
				c-0.1,0-0.2-0.1-0.2-0.2l-1.7-3.1c0,0.1,0,0.2,0,0.3v3.6h-0.6v-4.9h0.5c0.1,0,0.1,0,0.1,0c0,0,0.1,0,0.1,0.1l1.7,3
				c0,0.1,0.1,0.1,0.1,0.2s0.1,0.1,0.1,0.2c0-0.1,0-0.1,0.1-0.2c0-0.1,0.1-0.1,0.1-0.2l1.7-3c0-0.1,0.1-0.1,0.1-0.1c0,0,0.1,0,0.1,0
				H283.5z"/>
			<path fill="#9C5AB7" d="M287.3,143.1c-0.1,0.1-0.2,0.2-0.3,0.2s-0.2,0.1-0.3,0.2s-0.2,0.1-0.4,0.1c-0.1,0-0.3,0-0.4,0
				c-0.2,0-0.5,0-0.7-0.1s-0.4-0.2-0.5-0.4c-0.1-0.2-0.3-0.4-0.3-0.6c-0.1-0.2-0.1-0.5-0.1-0.8c0-0.2,0-0.5,0.1-0.7
				c0.1-0.2,0.2-0.4,0.3-0.5c0.1-0.2,0.3-0.3,0.5-0.4c0.2-0.1,0.4-0.1,0.7-0.1c0.2,0,0.4,0,0.6,0.1c0.2,0.1,0.3,0.2,0.5,0.3
				c0.1,0.1,0.2,0.3,0.3,0.5c0.1,0.2,0.1,0.4,0.1,0.7c0,0.1,0,0.2,0,0.2c0,0-0.1,0-0.1,0h-2.3c0,0.2,0,0.4,0.1,0.6s0.1,0.3,0.2,0.4
				c0.1,0.1,0.2,0.2,0.3,0.2c0.1,0.1,0.3,0.1,0.4,0.1c0.2,0,0.3,0,0.4-0.1c0.1,0,0.2-0.1,0.3-0.1c0.1,0,0.1-0.1,0.2-0.1
				c0.1,0,0.1-0.1,0.1-0.1c0.1,0,0.1,0,0.1,0.1L287.3,143.1z M286.8,141.5c0-0.1,0-0.3-0.1-0.4s-0.1-0.2-0.2-0.3
				c-0.1-0.1-0.2-0.2-0.3-0.2c-0.1,0-0.2-0.1-0.4-0.1c-0.3,0-0.5,0.1-0.7,0.3c-0.2,0.2-0.3,0.4-0.3,0.7H286.8z"/>
			<path fill="#9C5AB7" d="M291,138.6v5h-0.4c-0.1,0-0.1,0-0.2-0.1l-0.1-0.4c-0.1,0.2-0.3,0.3-0.5,0.4c-0.2,0.1-0.4,0.2-0.7,0.2
				c-0.2,0-0.4,0-0.5-0.1s-0.3-0.2-0.4-0.3s-0.2-0.3-0.3-0.6s-0.1-0.5-0.1-0.8c0-0.3,0-0.5,0.1-0.7c0.1-0.2,0.2-0.4,0.3-0.6
				s0.3-0.3,0.5-0.4c0.2-0.1,0.4-0.1,0.6-0.1c0.2,0,0.4,0,0.5,0.1c0.2,0.1,0.3,0.2,0.4,0.3v-1.9H291z M290.4,141
				c-0.1-0.2-0.2-0.3-0.4-0.3s-0.3-0.1-0.4-0.1c-0.3,0-0.6,0.1-0.7,0.3c-0.2,0.2-0.3,0.6-0.3,1c0,0.2,0,0.4,0.1,0.6
				c0,0.2,0.1,0.3,0.2,0.4c0.1,0.1,0.2,0.2,0.3,0.2c0.1,0,0.2,0.1,0.4,0.1c0.2,0,0.4,0,0.5-0.1c0.1-0.1,0.3-0.2,0.4-0.4V141z"/>
			<path fill="#9C5AB7" d="M292.7,139.1c0,0.1,0,0.1,0,0.2c0,0.1-0.1,0.1-0.1,0.1s-0.1,0.1-0.1,0.1s-0.1,0-0.2,0s-0.1,0-0.2,0
				s-0.1-0.1-0.1-0.1c0,0-0.1-0.1-0.1-0.1c0-0.1,0-0.1,0-0.2c0-0.1,0-0.1,0-0.2s0.1-0.1,0.1-0.1c0,0,0.1-0.1,0.1-0.1s0.1,0,0.2,0
				s0.1,0,0.2,0s0.1,0.1,0.1,0.1s0.1,0.1,0.1,0.1S292.7,139,292.7,139.1z M292.6,140.2v3.5H292v-3.5H292.6z"/>
			<path fill="#9C5AB7" d="M293.5,140.6c0.2-0.2,0.4-0.3,0.6-0.4s0.5-0.1,0.7-0.1c0.2,0,0.4,0,0.5,0.1c0.2,0.1,0.3,0.2,0.4,0.3
				c0.1,0.1,0.2,0.3,0.2,0.4c0.1,0.2,0.1,0.3,0.1,0.5v2.2h-0.3c-0.1,0-0.1,0-0.1,0c0,0-0.1-0.1-0.1-0.1l-0.1-0.3
				c-0.1,0.1-0.2,0.2-0.3,0.2c-0.1,0.1-0.2,0.1-0.3,0.2c-0.1,0-0.2,0.1-0.3,0.1c-0.1,0-0.2,0-0.4,0c-0.1,0-0.3,0-0.4-0.1
				c-0.1,0-0.2-0.1-0.3-0.2c-0.1-0.1-0.2-0.2-0.2-0.3s-0.1-0.3-0.1-0.4c0-0.1,0-0.3,0.1-0.4c0.1-0.1,0.2-0.2,0.4-0.3
				c0.2-0.1,0.4-0.2,0.7-0.2c0.3-0.1,0.6-0.1,1-0.1v-0.3c0-0.3-0.1-0.5-0.2-0.6s-0.3-0.2-0.5-0.2c-0.2,0-0.3,0-0.4,0.1
				c-0.1,0-0.2,0.1-0.3,0.1s-0.1,0.1-0.2,0.1s-0.1,0.1-0.2,0.1c0,0-0.1,0-0.1,0s-0.1,0-0.1-0.1L293.5,140.6z M295.5,142.1
				c-0.3,0-0.5,0-0.7,0.1c-0.2,0-0.4,0.1-0.5,0.1s-0.2,0.1-0.3,0.2s-0.1,0.2-0.1,0.3c0,0.1,0,0.2,0,0.2c0,0.1,0.1,0.1,0.1,0.2
				c0.1,0,0.1,0.1,0.2,0.1c0.1,0,0.1,0,0.2,0c0.1,0,0.2,0,0.3,0c0.1,0,0.2-0.1,0.3-0.1c0.1,0,0.2-0.1,0.2-0.1
				c0.1-0.1,0.1-0.1,0.2-0.2V142.1z"/>
		</g>
	</g>
	<g>
		<g>
			<path fill="#313131" d="M106.6,118.1c0,0.3-0.1,0.7-0.2,1s-0.3,0.6-0.6,0.8c-0.2,0.2-0.5,0.4-0.8,0.5c-0.3,0.1-0.7,0.2-1,0.2
				c-0.3,0-0.7-0.1-1-0.2c-0.3-0.1-0.6-0.3-0.8-0.5c-0.2-0.2-0.4-0.5-0.6-0.8s-0.2-0.6-0.2-1c0-0.3,0.1-0.7,0.2-1
				c0.1-0.3,0.3-0.6,0.6-0.8s0.5-0.4,0.8-0.5c0.3-0.1,0.6-0.2,1-0.2c0.4,0,0.7,0.1,1,0.2c0.3,0.1,0.6,0.3,0.8,0.5
				c0.2,0.2,0.4,0.5,0.6,0.8C106.6,117.5,106.6,117.8,106.6,118.1z M106.2,122v14.3h-4.3V122H106.2z"/>
			<path fill="#313131" d="M121,115.7v20.6h-2.6c-0.5,0-0.9-0.2-1-0.7l-0.3-1.1c-0.3,0.3-0.6,0.6-0.9,0.8c-0.3,0.2-0.7,0.5-1,0.6
				s-0.8,0.3-1.2,0.4c-0.4,0.1-0.9,0.1-1.4,0.1c-0.7,0-1.4-0.2-2.1-0.5s-1.2-0.8-1.6-1.4s-0.8-1.4-1.1-2.3c-0.3-0.9-0.4-1.9-0.4-3.1
				c0-1.1,0.1-2.1,0.4-3c0.3-0.9,0.7-1.7,1.2-2.4c0.5-0.7,1.2-1.2,1.9-1.6c0.8-0.4,1.6-0.6,2.5-0.6c0.7,0,1.4,0.1,1.9,0.3
				c0.5,0.2,1,0.5,1.4,0.9v-7.2H121z M116.7,125.9c-0.3-0.4-0.7-0.6-1-0.8s-0.8-0.2-1.2-0.2c-0.4,0-0.8,0.1-1.1,0.2
				c-0.3,0.2-0.6,0.4-0.9,0.8c-0.2,0.3-0.4,0.8-0.6,1.3c-0.1,0.6-0.2,1.2-0.2,2c0,0.8,0.1,1.4,0.2,1.9c0.1,0.5,0.3,0.9,0.5,1.2
				c0.2,0.3,0.4,0.5,0.7,0.7c0.3,0.1,0.6,0.2,0.9,0.2c0.3,0,0.6,0,0.8-0.1c0.3-0.1,0.5-0.1,0.7-0.3s0.4-0.3,0.6-0.4
				c0.2-0.2,0.4-0.4,0.6-0.6V125.9z"/>
			<path fill="#313131" d="M126.2,130c0.1,1.2,0.5,2.1,1.1,2.6c0.6,0.5,1.3,0.8,2.3,0.8c0.5,0,0.9-0.1,1.3-0.2
				c0.4-0.1,0.7-0.3,1-0.4c0.3-0.1,0.5-0.3,0.8-0.4c0.2-0.1,0.5-0.2,0.7-0.2c0.3,0,0.6,0.1,0.8,0.4l1.2,1.5
				c-0.4,0.5-0.9,0.9-1.4,1.2c-0.5,0.3-1,0.6-1.6,0.7c-0.5,0.2-1.1,0.3-1.6,0.4c-0.5,0.1-1.1,0.1-1.5,0.1c-1,0-1.9-0.2-2.8-0.5
				c-0.9-0.3-1.6-0.8-2.3-1.5c-0.7-0.6-1.2-1.4-1.6-2.4c-0.4-1-0.6-2.1-0.6-3.3c0-1,0.2-1.9,0.5-2.7c0.3-0.9,0.8-1.6,1.4-2.2
				c0.6-0.6,1.4-1.2,2.2-1.5c0.9-0.4,1.9-0.6,2.9-0.6c0.9,0,1.8,0.1,2.6,0.4c0.8,0.3,1.5,0.7,2,1.3c0.6,0.6,1,1.2,1.3,2.1
				c0.3,0.8,0.5,1.7,0.5,2.8c0,0.3,0,0.6,0,0.8c0,0.2-0.1,0.4-0.2,0.5s-0.2,0.2-0.3,0.2s-0.3,0.1-0.5,0.1H126.2z M131.6,127.5
				c0-0.3,0-0.7-0.1-1s-0.2-0.6-0.4-0.9s-0.5-0.5-0.8-0.6s-0.7-0.2-1.2-0.2c-0.8,0-1.4,0.2-1.9,0.7c-0.5,0.5-0.8,1.1-0.9,2H131.6z"
				/>
			<path fill="#313131" d="M136.1,124c0.9-0.8,1.8-1.3,2.9-1.7c1.1-0.4,2.2-0.6,3.4-0.6c0.9,0,1.6,0.1,2.3,0.4
				c0.7,0.3,1.3,0.7,1.8,1.2c0.5,0.5,0.9,1.1,1.1,1.8c0.3,0.7,0.4,1.4,0.4,2.3v8.9h-2c-0.4,0-0.7-0.1-0.9-0.2
				c-0.2-0.1-0.4-0.3-0.5-0.7l-0.3-0.8c-0.4,0.3-0.7,0.6-1,0.8c-0.3,0.2-0.7,0.4-1,0.6c-0.4,0.2-0.7,0.3-1.1,0.4s-0.8,0.1-1.3,0.1
				c-0.7,0-1.2-0.1-1.8-0.3c-0.5-0.2-1-0.4-1.4-0.8c-0.4-0.3-0.7-0.7-0.9-1.2c-0.2-0.5-0.3-1.1-0.3-1.7c0-0.5,0.1-1,0.4-1.6
				s0.7-1,1.3-1.4c0.6-0.4,1.5-0.8,2.6-1.1c1.1-0.3,2.4-0.5,4.1-0.5v-0.6c0-0.8-0.2-1.4-0.5-1.8c-0.3-0.4-0.8-0.6-1.5-0.6
				c-0.5,0-0.9,0.1-1.2,0.2s-0.6,0.2-0.9,0.4c-0.3,0.1-0.5,0.3-0.7,0.4c-0.2,0.1-0.5,0.2-0.9,0.2c-0.3,0-0.5-0.1-0.7-0.2
				c-0.2-0.1-0.4-0.3-0.5-0.5L136.1,124z M143.8,130.5c-0.9,0-1.6,0.1-2.1,0.2c-0.6,0.1-1,0.2-1.3,0.4c-0.3,0.2-0.5,0.4-0.7,0.6
				c-0.1,0.2-0.2,0.4-0.2,0.7c0,0.5,0.1,0.8,0.4,1s0.7,0.3,1.2,0.3c0.6,0,1-0.1,1.4-0.3c0.4-0.2,0.8-0.5,1.3-0.9V130.5z"/>
			<path fill="#313131" d="M154.4,136.6c-0.7,0-1.3-0.1-1.8-0.3c-0.5-0.2-1-0.5-1.3-0.8s-0.6-0.8-0.8-1.3c-0.2-0.5-0.3-1.1-0.3-1.7
				V125H149c-0.2,0-0.4-0.1-0.6-0.2s-0.2-0.4-0.2-0.6v-1.7l2.3-0.4l0.8-3.5c0.1-0.4,0.4-0.7,0.9-0.7h2.2v4.2h3.5v2.9h-3.5v7.1
				c0,0.3,0.1,0.6,0.2,0.8c0.2,0.2,0.4,0.3,0.7,0.3c0.2,0,0.3,0,0.4,0c0.1,0,0.2-0.1,0.3-0.1c0.1,0,0.2-0.1,0.2-0.1
				c0.1,0,0.1,0,0.2,0c0.1,0,0.2,0,0.3,0.1c0.1,0.1,0.2,0.2,0.2,0.3l1.3,2c-0.6,0.4-1.2,0.7-1.9,0.9
				C155.9,136.5,155.2,136.6,154.4,136.6z"/>
			<path fill="#313131" d="M162.1,130c0.1,1.2,0.5,2.1,1.1,2.6c0.6,0.5,1.3,0.8,2.3,0.8c0.5,0,0.9-0.1,1.3-0.2
				c0.4-0.1,0.7-0.3,1-0.4c0.3-0.1,0.5-0.3,0.8-0.4c0.2-0.1,0.5-0.2,0.7-0.2c0.3,0,0.6,0.1,0.8,0.4l1.2,1.5
				c-0.4,0.5-0.9,0.9-1.4,1.2c-0.5,0.3-1,0.6-1.6,0.7c-0.5,0.2-1.1,0.3-1.6,0.4c-0.5,0.1-1.1,0.1-1.5,0.1c-1,0-1.9-0.2-2.8-0.5
				c-0.9-0.3-1.6-0.8-2.3-1.5c-0.7-0.6-1.2-1.4-1.6-2.4c-0.4-1-0.6-2.1-0.6-3.3c0-1,0.2-1.9,0.5-2.7c0.3-0.9,0.8-1.6,1.4-2.2
				c0.6-0.6,1.4-1.2,2.2-1.5c0.9-0.4,1.9-0.6,2.9-0.6c0.9,0,1.8,0.1,2.6,0.4c0.8,0.3,1.5,0.7,2,1.3c0.6,0.6,1,1.2,1.3,2.1
				c0.3,0.8,0.5,1.7,0.5,2.8c0,0.3,0,0.6,0,0.8c0,0.2-0.1,0.4-0.2,0.5s-0.2,0.2-0.3,0.2s-0.3,0.1-0.5,0.1H162.1z M167.5,127.5
				c0-0.3,0-0.7-0.1-1s-0.2-0.6-0.4-0.9s-0.5-0.5-0.8-0.6s-0.7-0.2-1.2-0.2c-0.8,0-1.4,0.2-1.9,0.7c-0.5,0.5-0.8,1.1-0.9,2H167.5z"
				/>
		</g>
		<g>
			<path fill="#9C5AB7" d="M68.8,123.6c1.1,0,2,0.9,2,2s-0.9,2-2,2s-2-0.9-2-2S67.7,123.6,68.8,123.6 M68.8,122.1
				c-2,0-3.6,1.6-3.6,3.6c0,2,1.6,3.6,3.6,3.6c2,0,3.6-1.6,3.6-3.6C72.4,123.7,70.8,122.1,68.8,122.1L68.8,122.1z"/>
		</g>
		<g>
			<path fill="#9C5AB7" d="M76.9,137.6c1.1,0,2,0.9,2,2s-0.9,2-2,2s-2-0.9-2-2S75.8,137.6,76.9,137.6 M76.9,136.1
				c-2,0-3.6,1.6-3.6,3.6s1.6,3.6,3.6,3.6s3.6-1.6,3.6-3.6S78.9,136.1,76.9,136.1L76.9,136.1z"/>
		</g>
		<g>
			<path fill="#9C5AB7" d="M68.8,133c1.1,0,2,0.9,2,2s-0.9,2-2,2s-2-0.9-2-2S67.7,133,68.8,133 M68.8,131.4c-2,0-3.6,1.6-3.6,3.6
				c0,2,1.6,3.6,3.6,3.6c2,0,3.6-1.6,3.6-3.6C72.4,133,70.8,131.4,68.8,131.4L68.8,131.4z"/>
		</g>
		<g>
			<circle fill="#313131" cx="93.1" cy="139.7" r="3"/>
		</g>
		<g>
			<circle fill="#313131" cx="93.1" cy="121" r="3"/>
		</g>
		<g>
			<circle fill="#313131" cx="93.1" cy="130.3" r="3"/>
		</g>
		<g>
			<circle fill="#313131" cx="76.9" cy="111.6" r="3"/>
		</g>
		<g>
			<circle fill="#313131" cx="60.7" cy="139.7" r="3"/>
		</g>
		<g>
			<circle fill="#313131" cx="60.7" cy="130.3" r="3"/>
		</g>
		<g>
			<circle fill="#313131" cx="60.7" cy="121" r="3"/>
		</g>
		<g>
			<circle fill="#313131" cx="76.9" cy="130.3" r="3"/>
		</g>
		<g>
			<circle fill="#313131" cx="76.9" cy="149" r="3"/>
		</g>
		<g>
			<circle fill="#313131" cx="85" cy="144.4" r="3"/>
		</g>
		<g>
			<circle fill="#313131" cx="68.8" cy="144.4" r="3"/>
		</g>
		<g>
			<circle fill="#313131" cx="85" cy="116.3" r="3"/>
		</g>
		<g>
			<circle fill="#313131" cx="76.9" cy="121" r="3"/>
		</g>
		<g>
			<circle fill="#313131" cx="85" cy="135" r="3"/>
		</g>
		<g>
			<circle fill="#313131" cx="85" cy="125.7" r="3"/>
		</g>
		<g>
			<path fill="#9C5AB7" d="M68.8,114.3c1.1,0,2,0.9,2,2c0,1.1-0.9,2-2,2s-2-0.9-2-2C66.8,115.2,67.7,114.3,68.8,114.3 M68.8,112.7
				c-2,0-3.6,1.6-3.6,3.6c0,2,1.6,3.6,3.6,3.6c2,0,3.6-1.6,3.6-3.6C72.4,114.3,70.8,112.7,68.8,112.7L68.8,112.7z"/>
		</g>
		<g>
			<path fill="#9C5AB7" d="M104.9,143.1v0.6h-2.8v-4.9h0.7v4.4H104.9z"/>
			<path fill="#9C5AB7" d="M108,143.1c-0.1,0.1-0.2,0.2-0.3,0.2s-0.2,0.1-0.3,0.2s-0.2,0.1-0.4,0.1c-0.1,0-0.3,0-0.4,0
				c-0.2,0-0.5,0-0.7-0.1s-0.4-0.2-0.5-0.4c-0.1-0.2-0.3-0.4-0.3-0.6c-0.1-0.2-0.1-0.5-0.1-0.8c0-0.2,0-0.5,0.1-0.7
				c0.1-0.2,0.2-0.4,0.3-0.5c0.1-0.2,0.3-0.3,0.5-0.4c0.2-0.1,0.4-0.1,0.7-0.1c0.2,0,0.4,0,0.6,0.1c0.2,0.1,0.3,0.2,0.5,0.3
				c0.1,0.1,0.2,0.3,0.3,0.5c0.1,0.2,0.1,0.4,0.1,0.7c0,0.1,0,0.2,0,0.2c0,0-0.1,0-0.1,0h-2.3c0,0.2,0,0.4,0.1,0.6s0.1,0.3,0.2,0.4
				c0.1,0.1,0.2,0.2,0.3,0.2c0.1,0.1,0.3,0.1,0.4,0.1c0.2,0,0.3,0,0.4-0.1c0.1,0,0.2-0.1,0.3-0.1c0.1,0,0.1-0.1,0.2-0.1
				c0.1,0,0.1-0.1,0.1-0.1c0.1,0,0.1,0,0.1,0.1L108,143.1z M107.5,141.5c0-0.1,0-0.3-0.1-0.4s-0.1-0.2-0.2-0.3
				c-0.1-0.1-0.2-0.2-0.3-0.2c-0.1,0-0.2-0.1-0.4-0.1c-0.3,0-0.5,0.1-0.7,0.3c-0.2,0.2-0.3,0.4-0.3,0.7H107.5z"/>
			<path fill="#9C5AB7" d="M108.7,140.6c0.2-0.2,0.4-0.3,0.6-0.4s0.5-0.1,0.7-0.1c0.2,0,0.4,0,0.5,0.1c0.2,0.1,0.3,0.2,0.4,0.3
				c0.1,0.1,0.2,0.3,0.2,0.4c0.1,0.2,0.1,0.3,0.1,0.5v2.2H111c-0.1,0-0.1,0-0.1,0c0,0-0.1-0.1-0.1-0.1l-0.1-0.3
				c-0.1,0.1-0.2,0.2-0.3,0.2c-0.1,0.1-0.2,0.1-0.3,0.2c-0.1,0-0.2,0.1-0.3,0.1c-0.1,0-0.2,0-0.4,0c-0.1,0-0.3,0-0.4-0.1
				c-0.1,0-0.2-0.1-0.3-0.2c-0.1-0.1-0.2-0.2-0.2-0.3s-0.1-0.3-0.1-0.4c0-0.1,0-0.3,0.1-0.4c0.1-0.1,0.2-0.2,0.4-0.3
				c0.2-0.1,0.4-0.2,0.7-0.2c0.3-0.1,0.6-0.1,1-0.1v-0.3c0-0.3-0.1-0.5-0.2-0.6s-0.3-0.2-0.5-0.2c-0.2,0-0.3,0-0.4,0.1
				c-0.1,0-0.2,0.1-0.3,0.1s-0.1,0.1-0.2,0.1s-0.1,0.1-0.2,0.1c0,0-0.1,0-0.1,0s-0.1,0-0.1-0.1L108.7,140.6z M110.7,142.1
				c-0.3,0-0.5,0-0.7,0.1c-0.2,0-0.4,0.1-0.5,0.1s-0.2,0.1-0.3,0.2s-0.1,0.2-0.1,0.3c0,0.1,0,0.2,0,0.2c0,0.1,0.1,0.1,0.1,0.2
				c0.1,0,0.1,0.1,0.2,0.1c0.1,0,0.1,0,0.2,0c0.1,0,0.2,0,0.3,0c0.1,0,0.2-0.1,0.3-0.1c0.1,0,0.2-0.1,0.2-0.1
				c0.1-0.1,0.1-0.1,0.2-0.2V142.1z"/>
			<path fill="#9C5AB7" d="M112.8,140.8c0.1-0.2,0.2-0.4,0.4-0.6c0.2-0.1,0.4-0.2,0.6-0.2c0.1,0,0.1,0,0.2,0c0.1,0,0.1,0,0.2,0.1
				l0,0.5c0,0.1,0,0.1-0.1,0.1c0,0-0.1,0-0.1,0s-0.1,0-0.2,0c-0.1,0-0.2,0-0.3,0c-0.1,0-0.2,0.1-0.2,0.1c-0.1,0.1-0.1,0.1-0.2,0.2
				c-0.1,0.1-0.1,0.2-0.1,0.3v2.2h-0.6v-3.5h0.3c0.1,0,0.1,0,0.1,0c0,0,0,0.1,0.1,0.1L112.8,140.8z"/>
			<path fill="#9C5AB7" d="M115.3,140.7c0.1-0.1,0.2-0.2,0.2-0.2c0.1-0.1,0.2-0.1,0.3-0.2c0.1,0,0.2-0.1,0.3-0.1c0.1,0,0.2,0,0.3,0
				c0.2,0,0.4,0,0.5,0.1c0.1,0.1,0.3,0.2,0.4,0.3c0.1,0.1,0.2,0.3,0.2,0.4c0,0.2,0.1,0.3,0.1,0.5v2.2H117v-2.2
				c0-0.3-0.1-0.5-0.2-0.6c-0.1-0.1-0.3-0.2-0.5-0.2c-0.2,0-0.3,0-0.5,0.1c-0.2,0.1-0.3,0.2-0.4,0.4v2.6h-0.6v-3.5h0.4
				c0.1,0,0.1,0,0.2,0.1L115.3,140.7z"/>
			<path fill="#9C5AB7" d="M119.3,139.1c0,0.1,0,0.1,0,0.2c0,0.1-0.1,0.1-0.1,0.1s-0.1,0.1-0.1,0.1s-0.1,0-0.2,0s-0.1,0-0.2,0
				s-0.1-0.1-0.1-0.1c0,0-0.1-0.1-0.1-0.1c0-0.1,0-0.1,0-0.2c0-0.1,0-0.1,0-0.2s0.1-0.1,0.1-0.1c0,0,0.1-0.1,0.1-0.1s0.1,0,0.2,0
				s0.1,0,0.2,0s0.1,0.1,0.1,0.1s0.1,0.1,0.1,0.1S119.3,139,119.3,139.1z M119.2,140.2v3.5h-0.6v-3.5H119.2z"/>
			<path fill="#9C5AB7" d="M120.8,140.7c0.1-0.1,0.2-0.2,0.2-0.2c0.1-0.1,0.2-0.1,0.3-0.2c0.1,0,0.2-0.1,0.3-0.1c0.1,0,0.2,0,0.3,0
				c0.2,0,0.4,0,0.5,0.1c0.1,0.1,0.3,0.2,0.4,0.3c0.1,0.1,0.2,0.3,0.2,0.4c0,0.2,0.1,0.3,0.1,0.5v2.2h-0.6v-2.2
				c0-0.3-0.1-0.5-0.2-0.6c-0.1-0.1-0.3-0.2-0.5-0.2c-0.2,0-0.3,0-0.5,0.1c-0.2,0.1-0.3,0.2-0.4,0.4v2.6h-0.6v-3.5h0.4
				c0.1,0,0.1,0,0.2,0.1L120.8,140.7z"/>
			<path fill="#9C5AB7" d="M126.9,140.3v0.2c0,0.1,0,0.1-0.1,0.1l-0.4,0.1c0.1,0.2,0.1,0.3,0.1,0.5c0,0.2,0,0.3-0.1,0.5
				s-0.2,0.3-0.3,0.4s-0.3,0.2-0.4,0.2c-0.2,0.1-0.3,0.1-0.5,0.1c-0.2,0-0.3,0-0.5-0.1c-0.1,0-0.1,0.1-0.2,0.1
				c0,0.1-0.1,0.1-0.1,0.2c0,0.1,0,0.1,0.1,0.2c0.1,0,0.2,0.1,0.3,0.1c0.1,0,0.2,0,0.4,0c0.1,0,0.3,0,0.4,0c0.1,0,0.3,0,0.4,0.1
				c0.1,0,0.3,0.1,0.4,0.1s0.2,0.1,0.3,0.2c0.1,0.1,0.1,0.2,0.1,0.4c0,0.1,0,0.3-0.1,0.4c-0.1,0.1-0.2,0.3-0.3,0.4
				c-0.1,0.1-0.3,0.2-0.5,0.3c-0.2,0.1-0.4,0.1-0.7,0.1c-0.3,0-0.5,0-0.7-0.1c-0.2-0.1-0.3-0.1-0.5-0.2s-0.2-0.2-0.3-0.3
				s-0.1-0.2-0.1-0.3c0-0.2,0.1-0.3,0.2-0.4c0.1-0.1,0.3-0.2,0.4-0.3c-0.1,0-0.2-0.1-0.2-0.2c-0.1-0.1-0.1-0.2-0.1-0.3
				c0-0.1,0-0.1,0-0.2c0-0.1,0-0.1,0.1-0.2c0-0.1,0.1-0.1,0.1-0.2c0.1,0,0.1-0.1,0.2-0.1c-0.2-0.1-0.3-0.2-0.4-0.4
				c-0.1-0.2-0.1-0.3-0.1-0.6c0-0.2,0-0.3,0.1-0.5s0.2-0.3,0.3-0.4c0.1-0.1,0.3-0.2,0.4-0.2c0.2-0.1,0.3-0.1,0.5-0.1
				c0.2,0,0.3,0,0.4,0c0.1,0,0.2,0.1,0.4,0.1H126.9z M126.3,143.8c0-0.1,0-0.2-0.1-0.2c0-0.1-0.1-0.1-0.2-0.1
				c-0.1,0-0.2-0.1-0.3-0.1c-0.1,0-0.2,0-0.3,0s-0.2,0-0.4,0c-0.1,0-0.2,0-0.4,0c-0.1,0.1-0.2,0.1-0.3,0.2s-0.1,0.2-0.1,0.3
				c0,0.1,0,0.2,0.1,0.2c0,0.1,0.1,0.1,0.2,0.2c0.1,0,0.2,0.1,0.3,0.1c0.1,0,0.3,0,0.4,0c0.2,0,0.3,0,0.4,0s0.2-0.1,0.3-0.1
				s0.2-0.1,0.2-0.2C126.3,144,126.3,143.9,126.3,143.8z M125.2,141.9c0.1,0,0.2,0,0.3-0.1s0.2-0.1,0.2-0.1c0.1-0.1,0.1-0.1,0.1-0.2
				c0-0.1,0-0.2,0-0.3c0-0.2-0.1-0.4-0.2-0.5c-0.1-0.1-0.3-0.2-0.6-0.2c-0.2,0-0.4,0.1-0.6,0.2c-0.1,0.1-0.2,0.3-0.2,0.5
				c0,0.1,0,0.2,0,0.3c0,0.1,0.1,0.2,0.1,0.2c0.1,0.1,0.1,0.1,0.2,0.1S125.1,141.9,125.2,141.9z"/>
			<path fill="#9C5AB7" d="M134.6,138.7v4.9H134V140c0,0,0-0.1,0-0.2s0-0.1,0-0.2l-1.7,3.1c-0.1,0.1-0.1,0.2-0.2,0.2H132
				c-0.1,0-0.2-0.1-0.2-0.2l-1.7-3.1c0,0.1,0,0.2,0,0.3v3.6h-0.6v-4.9h0.5c0.1,0,0.1,0,0.1,0c0,0,0.1,0,0.1,0.1l1.7,3
				c0,0.1,0.1,0.1,0.1,0.2s0.1,0.1,0.1,0.2c0-0.1,0-0.1,0.1-0.2c0-0.1,0.1-0.1,0.1-0.2l1.7-3c0-0.1,0.1-0.1,0.1-0.1c0,0,0.1,0,0.1,0
				H134.6z"/>
			<path fill="#9C5AB7" d="M138.4,143.1c-0.1,0.1-0.2,0.2-0.3,0.2s-0.2,0.1-0.3,0.2s-0.2,0.1-0.4,0.1c-0.1,0-0.3,0-0.4,0
				c-0.2,0-0.5,0-0.7-0.1s-0.4-0.2-0.5-0.4c-0.1-0.2-0.3-0.4-0.3-0.6c-0.1-0.2-0.1-0.5-0.1-0.8c0-0.2,0-0.5,0.1-0.7
				c0.1-0.2,0.2-0.4,0.3-0.5c0.1-0.2,0.3-0.3,0.5-0.4c0.2-0.1,0.4-0.1,0.7-0.1c0.2,0,0.4,0,0.6,0.1c0.2,0.1,0.3,0.2,0.5,0.3
				c0.1,0.1,0.2,0.3,0.3,0.5c0.1,0.2,0.1,0.4,0.1,0.7c0,0.1,0,0.2,0,0.2c0,0-0.1,0-0.1,0H136c0,0.2,0,0.4,0.1,0.6s0.1,0.3,0.2,0.4
				c0.1,0.1,0.2,0.2,0.3,0.2c0.1,0.1,0.3,0.1,0.4,0.1c0.2,0,0.3,0,0.4-0.1c0.1,0,0.2-0.1,0.3-0.1c0.1,0,0.1-0.1,0.2-0.1
				c0.1,0,0.1-0.1,0.1-0.1c0.1,0,0.1,0,0.1,0.1L138.4,143.1z M137.9,141.5c0-0.1,0-0.3-0.1-0.4s-0.1-0.2-0.2-0.3
				c-0.1-0.1-0.2-0.2-0.3-0.2c-0.1,0-0.2-0.1-0.4-0.1c-0.3,0-0.5,0.1-0.7,0.3c-0.2,0.2-0.3,0.4-0.3,0.7H137.9z"/>
			<path fill="#9C5AB7" d="M142.1,138.6v5h-0.4c-0.1,0-0.1,0-0.2-0.1l-0.1-0.4c-0.1,0.2-0.3,0.3-0.5,0.4c-0.2,0.1-0.4,0.2-0.7,0.2
				c-0.2,0-0.4,0-0.5-0.1s-0.3-0.2-0.4-0.3s-0.2-0.3-0.3-0.6s-0.1-0.5-0.1-0.8c0-0.3,0-0.5,0.1-0.7c0.1-0.2,0.2-0.4,0.3-0.6
				s0.3-0.3,0.5-0.4c0.2-0.1,0.4-0.1,0.6-0.1c0.2,0,0.4,0,0.5,0.1c0.2,0.1,0.3,0.2,0.4,0.3v-1.9H142.1z M141.5,141
				c-0.1-0.2-0.2-0.3-0.4-0.3s-0.3-0.1-0.4-0.1c-0.3,0-0.6,0.1-0.7,0.3c-0.2,0.2-0.3,0.6-0.3,1c0,0.2,0,0.4,0.1,0.6
				c0,0.2,0.1,0.3,0.2,0.4c0.1,0.1,0.2,0.2,0.3,0.2c0.1,0,0.2,0.1,0.4,0.1c0.2,0,0.4,0,0.5-0.1c0.1-0.1,0.3-0.2,0.4-0.4V141z"/>
			<path fill="#9C5AB7" d="M143.8,139.1c0,0.1,0,0.1,0,0.2c0,0.1-0.1,0.1-0.1,0.1s-0.1,0.1-0.1,0.1s-0.1,0-0.2,0s-0.1,0-0.2,0
				s-0.1-0.1-0.1-0.1c0,0-0.1-0.1-0.1-0.1c0-0.1,0-0.1,0-0.2c0-0.1,0-0.1,0-0.2s0.1-0.1,0.1-0.1c0,0,0.1-0.1,0.1-0.1s0.1,0,0.2,0
				s0.1,0,0.2,0s0.1,0.1,0.1,0.1s0.1,0.1,0.1,0.1S143.8,139,143.8,139.1z M143.7,140.2v3.5h-0.6v-3.5H143.7z"/>
			<path fill="#9C5AB7" d="M144.6,140.6c0.2-0.2,0.4-0.3,0.6-0.4s0.5-0.1,0.7-0.1c0.2,0,0.4,0,0.5,0.1c0.2,0.1,0.3,0.2,0.4,0.3
				c0.1,0.1,0.2,0.3,0.2,0.4c0.1,0.2,0.1,0.3,0.1,0.5v2.2h-0.3c-0.1,0-0.1,0-0.1,0c0,0-0.1-0.1-0.1-0.1l-0.1-0.3
				c-0.1,0.1-0.2,0.2-0.3,0.2c-0.1,0.1-0.2,0.1-0.3,0.2c-0.1,0-0.2,0.1-0.3,0.1c-0.1,0-0.2,0-0.4,0c-0.1,0-0.3,0-0.4-0.1
				c-0.1,0-0.2-0.1-0.3-0.2c-0.1-0.1-0.2-0.2-0.2-0.3s-0.1-0.3-0.1-0.4c0-0.1,0-0.3,0.1-0.4c0.1-0.1,0.2-0.2,0.4-0.3
				c0.2-0.1,0.4-0.2,0.7-0.2c0.3-0.1,0.6-0.1,1-0.1v-0.3c0-0.3-0.1-0.5-0.2-0.6s-0.3-0.2-0.5-0.2c-0.2,0-0.3,0-0.4,0.1
				c-0.1,0-0.2,0.1-0.3,0.1s-0.1,0.1-0.2,0.1s-0.1,0.1-0.2,0.1c0,0-0.1,0-0.1,0s-0.1,0-0.1-0.1L144.6,140.6z M146.6,142.1
				c-0.3,0-0.5,0-0.7,0.1c-0.2,0-0.4,0.1-0.5,0.1s-0.2,0.1-0.3,0.2s-0.1,0.2-0.1,0.3c0,0.1,0,0.2,0,0.2c0,0.1,0.1,0.1,0.1,0.2
				c0.1,0,0.1,0.1,0.2,0.1c0.1,0,0.1,0,0.2,0c0.1,0,0.2,0,0.3,0c0.1,0,0.2-0.1,0.3-0.1c0.1,0,0.2-0.1,0.2-0.1
				c0.1-0.1,0.1-0.1,0.2-0.2V142.1z"/>
		</g>
	</g>
	<g>
		<g>
			<path fill="#313131" d="M403.8,118c0,0.3-0.1,0.7-0.2,1s-0.3,0.6-0.6,0.8c-0.2,0.2-0.5,0.4-0.8,0.5c-0.3,0.1-0.7,0.2-1,0.2
				c-0.3,0-0.7-0.1-1-0.2c-0.3-0.1-0.6-0.3-0.8-0.5c-0.2-0.2-0.4-0.5-0.6-0.8s-0.2-0.6-0.2-1c0-0.3,0.1-0.7,0.2-1
				c0.1-0.3,0.3-0.6,0.6-0.8s0.5-0.4,0.8-0.5c0.3-0.1,0.6-0.2,1-0.2c0.4,0,0.7,0.1,1,0.2c0.3,0.1,0.6,0.3,0.8,0.5
				c0.2,0.2,0.4,0.5,0.6,0.8C403.7,117.3,403.8,117.7,403.8,118z M403.3,121.9v14.3H399v-14.3H403.3z"/>
			<path fill="#313131" d="M418.1,115.6v20.6h-2.6c-0.5,0-0.9-0.2-1-0.7l-0.3-1.1c-0.3,0.3-0.6,0.6-0.9,0.8c-0.3,0.2-0.7,0.5-1,0.6
				s-0.8,0.3-1.2,0.4c-0.4,0.1-0.9,0.1-1.4,0.1c-0.7,0-1.4-0.2-2.1-0.5s-1.2-0.8-1.6-1.4s-0.8-1.4-1.1-2.3c-0.3-0.9-0.4-1.9-0.4-3.1
				c0-1.1,0.1-2.1,0.4-3c0.3-0.9,0.7-1.7,1.2-2.4c0.5-0.7,1.2-1.2,1.9-1.6c0.8-0.4,1.6-0.6,2.5-0.6c0.7,0,1.4,0.1,1.9,0.3
				c0.5,0.2,1,0.5,1.4,0.9v-7.2H418.1z M413.8,125.8c-0.3-0.4-0.7-0.6-1-0.8s-0.8-0.2-1.2-0.2c-0.4,0-0.8,0.1-1.1,0.2
				c-0.3,0.2-0.6,0.4-0.9,0.8c-0.2,0.3-0.4,0.8-0.6,1.3c-0.1,0.6-0.2,1.2-0.2,2c0,0.8,0.1,1.4,0.2,1.9c0.1,0.5,0.3,0.9,0.5,1.2
				c0.2,0.3,0.4,0.5,0.7,0.7c0.3,0.1,0.6,0.2,0.9,0.2c0.3,0,0.6,0,0.8-0.1c0.3-0.1,0.5-0.1,0.7-0.3s0.4-0.3,0.6-0.4
				c0.2-0.2,0.4-0.4,0.6-0.6V125.8z"/>
			<path fill="#313131" d="M423.3,129.8c0.1,1.2,0.5,2.1,1.1,2.6c0.6,0.5,1.3,0.8,2.3,0.8c0.5,0,0.9-0.1,1.3-0.2
				c0.4-0.1,0.7-0.3,1-0.4c0.3-0.1,0.5-0.3,0.8-0.4c0.2-0.1,0.5-0.2,0.7-0.2c0.3,0,0.6,0.1,0.8,0.4l1.2,1.5
				c-0.4,0.5-0.9,0.9-1.4,1.2c-0.5,0.3-1,0.6-1.6,0.7c-0.5,0.2-1.1,0.3-1.6,0.4c-0.5,0.1-1.1,0.1-1.5,0.1c-1,0-1.9-0.2-2.8-0.5
				c-0.9-0.3-1.6-0.8-2.3-1.5c-0.7-0.6-1.2-1.4-1.6-2.4c-0.4-1-0.6-2.1-0.6-3.3c0-1,0.2-1.9,0.5-2.7c0.3-0.9,0.8-1.6,1.4-2.2
				c0.6-0.6,1.4-1.2,2.2-1.5c0.9-0.4,1.9-0.6,2.9-0.6c0.9,0,1.8,0.1,2.6,0.4c0.8,0.3,1.5,0.7,2,1.3c0.6,0.6,1,1.2,1.3,2.1
				c0.3,0.8,0.5,1.7,0.5,2.8c0,0.3,0,0.6,0,0.8c0,0.2-0.1,0.4-0.2,0.5s-0.2,0.2-0.3,0.2s-0.3,0.1-0.5,0.1H423.3z M428.7,127.3
				c0-0.3,0-0.7-0.1-1s-0.2-0.6-0.4-0.9s-0.5-0.5-0.8-0.6s-0.7-0.2-1.2-0.2c-0.8,0-1.4,0.2-1.9,0.7c-0.5,0.5-0.8,1.1-0.9,2H428.7z"
				/>
			<path fill="#313131" d="M433.2,123.9c0.9-0.8,1.8-1.3,2.9-1.7c1.1-0.4,2.2-0.6,3.4-0.6c0.9,0,1.6,0.1,2.3,0.4
				c0.7,0.3,1.3,0.7,1.8,1.2c0.5,0.5,0.9,1.1,1.1,1.8c0.3,0.7,0.4,1.4,0.4,2.3v8.9h-2c-0.4,0-0.7-0.1-0.9-0.2
				c-0.2-0.1-0.4-0.3-0.5-0.7l-0.3-0.8c-0.4,0.3-0.7,0.6-1,0.8c-0.3,0.2-0.7,0.4-1,0.6c-0.4,0.2-0.7,0.3-1.1,0.4s-0.8,0.1-1.3,0.1
				c-0.7,0-1.2-0.1-1.8-0.3c-0.5-0.2-1-0.4-1.4-0.8c-0.4-0.3-0.7-0.7-0.9-1.2c-0.2-0.5-0.3-1.1-0.3-1.7c0-0.5,0.1-1,0.4-1.6
				s0.7-1,1.3-1.4c0.6-0.4,1.5-0.8,2.6-1.1c1.1-0.3,2.4-0.5,4.1-0.5v-0.6c0-0.8-0.2-1.4-0.5-1.8c-0.3-0.4-0.8-0.6-1.5-0.6
				c-0.5,0-0.9,0.1-1.2,0.2s-0.6,0.2-0.9,0.4c-0.3,0.1-0.5,0.3-0.7,0.4c-0.2,0.1-0.5,0.2-0.9,0.2c-0.3,0-0.5-0.1-0.7-0.2
				c-0.2-0.1-0.4-0.3-0.5-0.5L433.2,123.9z M440.9,130.4c-0.9,0-1.6,0.1-2.1,0.2c-0.6,0.1-1,0.2-1.3,0.4c-0.3,0.2-0.5,0.4-0.7,0.6
				c-0.1,0.2-0.2,0.4-0.2,0.7c0,0.5,0.1,0.8,0.4,1s0.7,0.3,1.2,0.3c0.6,0,1-0.1,1.4-0.3c0.4-0.2,0.8-0.5,1.3-0.9V130.4z"/>
			<path fill="#313131" d="M451.5,136.4c-0.7,0-1.3-0.1-1.8-0.3c-0.5-0.2-1-0.5-1.3-0.8s-0.6-0.8-0.8-1.3c-0.2-0.5-0.3-1.1-0.3-1.7
				v-7.4h-1.2c-0.2,0-0.4-0.1-0.6-0.2s-0.2-0.4-0.2-0.6v-1.7l2.3-0.4l0.8-3.5c0.1-0.4,0.4-0.7,0.9-0.7h2.2v4.2h3.5v2.9h-3.5v7.1
				c0,0.3,0.1,0.6,0.2,0.8c0.2,0.2,0.4,0.3,0.7,0.3c0.2,0,0.3,0,0.4,0c0.1,0,0.2-0.1,0.3-0.1c0.1,0,0.2-0.1,0.2-0.1
				c0.1,0,0.1,0,0.2,0c0.1,0,0.2,0,0.3,0.1c0.1,0.1,0.2,0.2,0.2,0.3l1.3,2c-0.6,0.4-1.2,0.7-1.9,0.9
				C453,136.3,452.3,136.4,451.5,136.4z"/>
			<path fill="#313131" d="M459.2,129.8c0.1,1.2,0.5,2.1,1.1,2.6c0.6,0.5,1.3,0.8,2.3,0.8c0.5,0,0.9-0.1,1.3-0.2
				c0.4-0.1,0.7-0.3,1-0.4c0.3-0.1,0.5-0.3,0.8-0.4c0.2-0.1,0.5-0.2,0.7-0.2c0.3,0,0.6,0.1,0.8,0.4l1.2,1.5
				c-0.4,0.5-0.9,0.9-1.4,1.2c-0.5,0.3-1,0.6-1.6,0.7c-0.5,0.2-1.1,0.3-1.6,0.4c-0.5,0.1-1.1,0.1-1.5,0.1c-1,0-1.9-0.2-2.8-0.5
				c-0.9-0.3-1.6-0.8-2.3-1.5c-0.7-0.6-1.2-1.4-1.6-2.4c-0.4-1-0.6-2.1-0.6-3.3c0-1,0.2-1.9,0.5-2.7c0.3-0.9,0.8-1.6,1.4-2.2
				c0.6-0.6,1.4-1.2,2.2-1.5c0.9-0.4,1.9-0.6,2.9-0.6c0.9,0,1.8,0.1,2.6,0.4c0.8,0.3,1.5,0.7,2,1.3c0.6,0.6,1,1.2,1.3,2.1
				c0.3,0.8,0.5,1.7,0.5,2.8c0,0.3,0,0.6,0,0.8c0,0.2-0.1,0.4-0.2,0.5s-0.2,0.2-0.3,0.2s-0.3,0.1-0.5,0.1H459.2z M464.6,127.3
				c0-0.3,0-0.7-0.1-1s-0.2-0.6-0.4-0.9s-0.5-0.5-0.8-0.6s-0.7-0.2-1.2-0.2c-0.8,0-1.4,0.2-1.9,0.7c-0.5,0.5-0.8,1.1-0.9,2H464.6z"
				/>
		</g>
		<g>
			<path fill="#E84C3C" d="M400.6,138.6c0.3,0,0.6,0,0.8,0.1c0.2,0.1,0.4,0.2,0.6,0.3c0.2,0.1,0.3,0.3,0.3,0.5
				c0.1,0.2,0.1,0.4,0.1,0.6c0,0.2,0,0.4-0.1,0.6s-0.2,0.4-0.4,0.5c-0.2,0.1-0.3,0.2-0.6,0.3c-0.2,0.1-0.5,0.1-0.8,0.1h-0.8v1.8
				h-0.7v-4.9H400.6z M400.6,141.1c0.2,0,0.4,0,0.5-0.1s0.3-0.1,0.4-0.2c0.1-0.1,0.2-0.2,0.2-0.3s0.1-0.3,0.1-0.4
				c0-0.3-0.1-0.6-0.3-0.7c-0.2-0.2-0.5-0.3-0.9-0.3h-0.8v2H400.6z"/>
			<path fill="#E84C3C" d="M403.8,140.5c0.1-0.2,0.3-0.3,0.5-0.4c0.2-0.1,0.4-0.1,0.6-0.1c0.2,0,0.4,0,0.5,0.1
				c0.1,0.1,0.3,0.2,0.4,0.3c0.1,0.1,0.2,0.3,0.2,0.4c0,0.2,0.1,0.3,0.1,0.5v2.2h-0.6v-2.2c0-0.3-0.1-0.5-0.2-0.6
				c-0.1-0.1-0.3-0.2-0.5-0.2c-0.2,0-0.3,0-0.5,0.1c-0.2,0.1-0.3,0.2-0.4,0.4v2.6h-0.6v-5h0.6V140.5z"/>
			<path fill="#E84C3C" d="M409.9,140l-1.9,4.5c0,0,0,0.1-0.1,0.1s-0.1,0-0.1,0h-0.5l0.6-1.4l-1.4-3.3h0.5c0.1,0,0.1,0,0.1,0
				c0,0,0.1,0.1,0.1,0.1l0.9,2.2c0,0.1,0.1,0.2,0.1,0.3c0-0.1,0.1-0.2,0.1-0.3l0.9-2.2c0,0,0-0.1,0.1-0.1s0.1,0,0.1,0H409.9z"/>
			<path fill="#E84C3C" d="M412.4,140.6c0,0.1-0.1,0.1-0.1,0.1c0,0-0.1,0-0.1,0c0,0-0.1-0.1-0.2-0.1s-0.1-0.1-0.2-0.1
				c-0.1,0-0.2,0-0.3,0c-0.1,0-0.2,0-0.3,0c-0.1,0-0.2,0.1-0.2,0.1c-0.1,0-0.1,0.1-0.1,0.2s0,0.1,0,0.2c0,0.1,0,0.2,0.1,0.2
				c0.1,0.1,0.1,0.1,0.2,0.2s0.2,0.1,0.3,0.1s0.2,0.1,0.3,0.1c0.1,0,0.2,0.1,0.3,0.1c0.1,0,0.2,0.1,0.3,0.2c0.1,0.1,0.2,0.2,0.2,0.3
				c0.1,0.1,0.1,0.2,0.1,0.4c0,0.2,0,0.3-0.1,0.4c-0.1,0.1-0.1,0.3-0.3,0.4c-0.1,0.1-0.2,0.2-0.4,0.2s-0.3,0.1-0.6,0.1
				c-0.2,0-0.5,0-0.7-0.1c-0.2-0.1-0.4-0.2-0.5-0.3l0.1-0.2c0,0,0-0.1,0.1-0.1c0,0,0.1,0,0.1,0c0,0,0.1,0,0.1,0c0,0,0.1,0.1,0.2,0.1
				c0.1,0,0.1,0.1,0.2,0.1c0.1,0,0.2,0,0.3,0c0.1,0,0.2,0,0.3,0c0.1,0,0.2-0.1,0.2-0.1c0.1-0.1,0.1-0.1,0.1-0.2c0-0.1,0-0.1,0-0.2
				c0-0.1,0-0.2-0.1-0.2c-0.1-0.1-0.1-0.1-0.2-0.2c-0.1,0-0.2-0.1-0.3-0.1s-0.2-0.1-0.3-0.1c-0.1,0-0.2-0.1-0.3-0.1
				s-0.2-0.1-0.3-0.2s-0.2-0.2-0.2-0.3c-0.1-0.1-0.1-0.2-0.1-0.4c0-0.1,0-0.3,0.1-0.4s0.1-0.2,0.2-0.3c0.1-0.1,0.2-0.2,0.4-0.2
				c0.2-0.1,0.3-0.1,0.5-0.1c0.2,0,0.4,0,0.6,0.1c0.2,0.1,0.3,0.2,0.5,0.3L412.4,140.6z"/>
			<path fill="#E84C3C" d="M414.1,138.9c0,0.1,0,0.1,0,0.2c0,0.1-0.1,0.1-0.1,0.1s-0.1,0.1-0.1,0.1s-0.1,0-0.2,0s-0.1,0-0.2,0
				s-0.1-0.1-0.1-0.1c0,0-0.1-0.1-0.1-0.1c0-0.1,0-0.1,0-0.2c0-0.1,0-0.1,0-0.2s0.1-0.1,0.1-0.1c0,0,0.1-0.1,0.1-0.1s0.1,0,0.2,0
				s0.1,0,0.2,0s0.1,0.1,0.1,0.1s0.1,0.1,0.1,0.1S414.1,138.9,414.1,138.9z M414,140v3.5h-0.6V140H414z"/>
			<path fill="#E84C3C" d="M417.4,140.6C417.4,140.7,417.3,140.7,417.4,140.6c-0.1,0.1-0.1,0.1-0.1,0.1c0,0-0.1,0-0.1,0
				c0,0-0.1-0.1-0.2-0.1c-0.1,0-0.1-0.1-0.2-0.1c-0.1,0-0.2,0-0.3,0c-0.2,0-0.3,0-0.5,0.1c-0.1,0.1-0.2,0.1-0.3,0.3
				c-0.1,0.1-0.2,0.3-0.2,0.4c0,0.2-0.1,0.3-0.1,0.5c0,0.2,0,0.4,0.1,0.6c0,0.2,0.1,0.3,0.2,0.4s0.2,0.2,0.3,0.3s0.3,0.1,0.4,0.1
				c0.1,0,0.3,0,0.4-0.1c0.1,0,0.2-0.1,0.2-0.1s0.1-0.1,0.2-0.1c0,0,0.1-0.1,0.1-0.1c0.1,0,0.1,0,0.1,0.1l0.2,0.2
				c-0.1,0.1-0.2,0.2-0.3,0.2c-0.1,0.1-0.2,0.1-0.3,0.2s-0.2,0.1-0.3,0.1s-0.2,0-0.4,0c-0.2,0-0.4,0-0.6-0.1
				c-0.2-0.1-0.3-0.2-0.5-0.3c-0.1-0.2-0.2-0.3-0.3-0.6s-0.1-0.5-0.1-0.8c0-0.3,0-0.5,0.1-0.7c0.1-0.2,0.2-0.4,0.3-0.6
				c0.1-0.2,0.3-0.3,0.5-0.4s0.4-0.1,0.7-0.1c0.2,0,0.5,0,0.6,0.1c0.2,0.1,0.4,0.2,0.5,0.3L417.4,140.6z"/>
			<path fill="#E84C3C" d="M418.1,140.5c0.2-0.2,0.4-0.3,0.6-0.4s0.5-0.1,0.7-0.1c0.2,0,0.4,0,0.5,0.1c0.2,0.1,0.3,0.2,0.4,0.3
				c0.1,0.1,0.2,0.3,0.2,0.4c0.1,0.2,0.1,0.3,0.1,0.5v2.2h-0.3c-0.1,0-0.1,0-0.1,0c0,0-0.1-0.1-0.1-0.1l-0.1-0.3
				c-0.1,0.1-0.2,0.2-0.3,0.2c-0.1,0.1-0.2,0.1-0.3,0.2c-0.1,0-0.2,0.1-0.3,0.1c-0.1,0-0.2,0-0.4,0c-0.1,0-0.3,0-0.4-0.1
				c-0.1,0-0.2-0.1-0.3-0.2c-0.1-0.1-0.2-0.2-0.2-0.3s-0.1-0.3-0.1-0.4c0-0.1,0-0.3,0.1-0.4c0.1-0.1,0.2-0.2,0.4-0.3
				c0.2-0.1,0.4-0.2,0.7-0.2c0.3-0.1,0.6-0.1,1-0.1v-0.3c0-0.3-0.1-0.5-0.2-0.6s-0.3-0.2-0.5-0.2c-0.2,0-0.3,0-0.4,0.1
				c-0.1,0-0.2,0.1-0.3,0.1s-0.1,0.1-0.2,0.1s-0.1,0.1-0.2,0.1c0,0-0.1,0-0.1,0s-0.1,0-0.1-0.1L418.1,140.5z M420.1,141.9
				c-0.3,0-0.5,0-0.7,0.1c-0.2,0-0.4,0.1-0.5,0.1s-0.2,0.1-0.3,0.2s-0.1,0.2-0.1,0.3c0,0.1,0,0.2,0,0.2c0,0.1,0.1,0.1,0.1,0.2
				c0.1,0,0.1,0.1,0.2,0.1c0.1,0,0.1,0,0.2,0c0.1,0,0.2,0,0.3,0c0.1,0,0.2-0.1,0.3-0.1c0.1,0,0.2-0.1,0.2-0.1
				c0.1-0.1,0.1-0.1,0.2-0.2V141.9z"/>
			<path fill="#E84C3C" d="M422.3,138.4v5h-0.6v-5H422.3z"/>
			<path fill="#E84C3C" d="M428.6,142.5C428.6,142.5,428.7,142.5,428.6,142.5l0.4,0.3c-0.2,0.2-0.4,0.4-0.7,0.5
				c-0.3,0.1-0.6,0.2-1,0.2c-0.4,0-0.7-0.1-1-0.2c-0.3-0.1-0.5-0.3-0.7-0.5c-0.2-0.2-0.4-0.5-0.5-0.8c-0.1-0.3-0.2-0.6-0.2-1
				s0.1-0.7,0.2-1c0.1-0.3,0.3-0.6,0.5-0.8c0.2-0.2,0.5-0.4,0.8-0.5c0.3-0.1,0.6-0.2,1-0.2c0.3,0,0.7,0.1,0.9,0.2
				c0.3,0.1,0.5,0.3,0.7,0.5l-0.2,0.3c0,0,0,0-0.1,0.1c0,0-0.1,0-0.1,0c0,0-0.1,0-0.2-0.1c-0.1,0-0.1-0.1-0.2-0.1
				c-0.1-0.1-0.2-0.1-0.4-0.1c-0.1,0-0.3-0.1-0.5-0.1c-0.3,0-0.5,0-0.7,0.1c-0.2,0.1-0.4,0.2-0.5,0.4c-0.2,0.2-0.3,0.4-0.4,0.6
				c-0.1,0.2-0.1,0.5-0.1,0.8c0,0.3,0,0.6,0.1,0.8s0.2,0.4,0.4,0.6c0.2,0.2,0.3,0.3,0.5,0.4c0.2,0.1,0.4,0.1,0.7,0.1
				c0.1,0,0.3,0,0.4,0s0.2,0,0.3-0.1c0.1,0,0.2-0.1,0.3-0.1c0.1-0.1,0.2-0.1,0.3-0.2C428.5,142.5,428.6,142.5,428.6,142.5z"/>
			<path fill="#E84C3C" d="M431,140c0.3,0,0.5,0,0.7,0.1c0.2,0.1,0.4,0.2,0.5,0.4s0.3,0.3,0.3,0.6c0.1,0.2,0.1,0.5,0.1,0.7
				c0,0.3,0,0.5-0.1,0.7s-0.2,0.4-0.3,0.6s-0.3,0.3-0.5,0.4c-0.2,0.1-0.4,0.1-0.7,0.1c-0.3,0-0.5,0-0.7-0.1
				c-0.2-0.1-0.4-0.2-0.5-0.4c-0.1-0.2-0.3-0.3-0.3-0.6c-0.1-0.2-0.1-0.5-0.1-0.7c0-0.3,0-0.5,0.1-0.7c0.1-0.2,0.2-0.4,0.3-0.6
				c0.1-0.2,0.3-0.3,0.5-0.4C430.5,140,430.7,140,431,140z M431,143.1c0.3,0,0.6-0.1,0.8-0.3c0.2-0.2,0.3-0.6,0.3-1
				c0-0.4-0.1-0.7-0.3-1c-0.2-0.2-0.4-0.3-0.8-0.3c-0.2,0-0.3,0-0.5,0.1c-0.1,0.1-0.2,0.1-0.3,0.3c-0.1,0.1-0.1,0.2-0.2,0.4
				c0,0.2-0.1,0.3-0.1,0.6c0,0.4,0.1,0.7,0.3,1C430.4,142.9,430.6,143.1,431,143.1z"/>
			<path fill="#E84C3C" d="M433.4,143.5V140h0.4c0.1,0,0.1,0,0.2,0.1l0,0.4c0.1-0.2,0.3-0.3,0.4-0.4c0.2-0.1,0.3-0.2,0.6-0.2
				c0.2,0,0.4,0.1,0.6,0.2c0.1,0.1,0.2,0.3,0.3,0.5c0.1-0.1,0.1-0.2,0.2-0.3c0.1-0.1,0.2-0.2,0.3-0.2c0.1-0.1,0.2-0.1,0.3-0.1
				c0.1,0,0.2,0,0.3,0c0.2,0,0.3,0,0.5,0.1c0.1,0.1,0.3,0.1,0.4,0.3c0.1,0.1,0.2,0.2,0.2,0.4c0.1,0.2,0.1,0.4,0.1,0.6v2.2h-0.6v-2.2
				c0-0.3-0.1-0.5-0.2-0.6c-0.1-0.1-0.3-0.2-0.5-0.2c-0.1,0-0.2,0-0.3,0.1c-0.1,0-0.2,0.1-0.2,0.2c-0.1,0.1-0.1,0.2-0.2,0.3
				c0,0.1-0.1,0.2-0.1,0.4v2.2h-0.6v-2.2c0-0.3-0.1-0.5-0.2-0.6c-0.1-0.1-0.3-0.2-0.5-0.2c-0.2,0-0.3,0-0.4,0.1s-0.2,0.2-0.4,0.3
				v2.6H433.4z"/>
			<path fill="#E84C3C" d="M439.6,140.6c0.1-0.2,0.3-0.3,0.5-0.4c0.2-0.1,0.4-0.2,0.7-0.2c0.2,0,0.4,0,0.5,0.1
				c0.2,0.1,0.3,0.2,0.4,0.3s0.2,0.3,0.3,0.6c0.1,0.2,0.1,0.5,0.1,0.8c0,0.3,0,0.5-0.1,0.7c-0.1,0.2-0.2,0.4-0.3,0.6
				c-0.1,0.2-0.3,0.3-0.5,0.4c-0.2,0.1-0.4,0.1-0.6,0.1c-0.2,0-0.4,0-0.5-0.1c-0.2-0.1-0.3-0.2-0.4-0.3v1.5H439V140h0.4
				c0.1,0,0.1,0,0.2,0.1L439.6,140.6z M439.7,142.7c0.1,0.2,0.2,0.3,0.4,0.3c0.1,0.1,0.3,0.1,0.4,0.1c0.3,0,0.6-0.1,0.7-0.3
				c0.2-0.2,0.3-0.6,0.3-1c0-0.2,0-0.4-0.1-0.6s-0.1-0.3-0.2-0.4c-0.1-0.1-0.2-0.2-0.3-0.2c-0.1,0-0.2-0.1-0.4-0.1
				c-0.2,0-0.4,0-0.5,0.1c-0.1,0.1-0.3,0.2-0.4,0.4V142.7z"/>
			<path fill="#E84C3C" d="M445.7,140v3.5h-0.4c-0.1,0-0.1,0-0.2-0.1l0-0.4c-0.2,0.2-0.3,0.3-0.5,0.4c-0.2,0.1-0.4,0.2-0.6,0.2
				c-0.2,0-0.4,0-0.5-0.1c-0.1-0.1-0.3-0.2-0.4-0.3c-0.1-0.1-0.2-0.3-0.2-0.4c0-0.2-0.1-0.3-0.1-0.5V140h0.6v2.2
				c0,0.3,0.1,0.5,0.2,0.6c0.1,0.1,0.3,0.2,0.5,0.2c0.2,0,0.3,0,0.5-0.1c0.2-0.1,0.3-0.2,0.4-0.4V140H445.7z"/>
			<path fill="#E84C3C" d="M449.9,143.5h-0.6v-3h-1.8v2.1c0,0.1,0,0.3,0.1,0.3s0.2,0.1,0.3,0.1c0.1,0,0.1,0,0.2,0s0.1,0,0.1-0.1
				s0.1,0,0.1-0.1c0,0,0,0,0.1,0c0,0,0.1,0,0.1,0.1l0.2,0.3c-0.1,0.1-0.2,0.2-0.4,0.2c-0.1,0.1-0.3,0.1-0.5,0.1
				c-0.3,0-0.5-0.1-0.6-0.2c-0.1-0.2-0.2-0.4-0.2-0.7v-2.1h-0.4c0,0-0.1,0-0.1,0c0,0,0-0.1,0-0.1v-0.2l0.6-0.1l0.1-1.1
				c0,0,0-0.1,0-0.1c0,0,0.1,0,0.1,0h0.3v1.2h2.4V143.5z M450.1,138.9c0,0.1,0,0.1,0,0.2c0,0.1-0.1,0.1-0.1,0.1c0,0-0.1,0.1-0.1,0.1
				s-0.1,0-0.2,0s-0.1,0-0.2,0s-0.1-0.1-0.1-0.1c0,0-0.1-0.1-0.1-0.1c0-0.1,0-0.1,0-0.2s0-0.1,0-0.2s0.1-0.1,0.1-0.1
				c0,0,0.1-0.1,0.1-0.1s0.1,0,0.2,0s0.1,0,0.2,0s0.1,0.1,0.1,0.1s0.1,0.1,0.1,0.1S450.1,138.8,450.1,138.9z"/>
			<path fill="#E84C3C" d="M451.5,140.5c0.1-0.1,0.2-0.2,0.2-0.2c0.1-0.1,0.2-0.1,0.3-0.2c0.1,0,0.2-0.1,0.3-0.1c0.1,0,0.2,0,0.3,0
				c0.2,0,0.4,0,0.5,0.1c0.1,0.1,0.3,0.2,0.4,0.3c0.1,0.1,0.2,0.3,0.2,0.4c0,0.2,0.1,0.3,0.1,0.5v2.2h-0.6v-2.2
				c0-0.3-0.1-0.5-0.2-0.6c-0.1-0.1-0.3-0.2-0.5-0.2c-0.2,0-0.3,0-0.5,0.1c-0.2,0.1-0.3,0.2-0.4,0.4v2.6h-0.6V140h0.4
				c0.1,0,0.1,0,0.2,0.1L451.5,140.5z"/>
			<path fill="#E84C3C" d="M457.7,140.2v0.2c0,0.1,0,0.1-0.1,0.1l-0.4,0.1c0.1,0.2,0.1,0.3,0.1,0.5c0,0.2,0,0.3-0.1,0.5
				s-0.2,0.3-0.3,0.4s-0.3,0.2-0.4,0.2c-0.2,0.1-0.3,0.1-0.5,0.1c-0.2,0-0.3,0-0.5-0.1c-0.1,0-0.1,0.1-0.2,0.1
				c0,0.1-0.1,0.1-0.1,0.2c0,0.1,0,0.1,0.1,0.2c0.1,0,0.2,0.1,0.3,0.1c0.1,0,0.2,0,0.4,0c0.1,0,0.3,0,0.4,0c0.1,0,0.3,0,0.4,0.1
				c0.1,0,0.3,0.1,0.4,0.1s0.2,0.1,0.3,0.2c0.1,0.1,0.1,0.2,0.1,0.4c0,0.1,0,0.3-0.1,0.4c-0.1,0.1-0.2,0.3-0.3,0.4
				c-0.1,0.1-0.3,0.2-0.5,0.3c-0.2,0.1-0.4,0.1-0.7,0.1c-0.3,0-0.5,0-0.7-0.1c-0.2-0.1-0.3-0.1-0.5-0.2s-0.2-0.2-0.3-0.3
				s-0.1-0.2-0.1-0.3c0-0.2,0.1-0.3,0.2-0.4c0.1-0.1,0.3-0.2,0.4-0.3c-0.1,0-0.2-0.1-0.2-0.2c-0.1-0.1-0.1-0.2-0.1-0.3
				c0-0.1,0-0.1,0-0.2c0-0.1,0-0.1,0.1-0.2c0-0.1,0.1-0.1,0.1-0.2c0.1,0,0.1-0.1,0.2-0.1c-0.2-0.1-0.3-0.2-0.4-0.4
				c-0.1-0.2-0.1-0.3-0.1-0.6c0-0.2,0-0.3,0.1-0.5s0.2-0.3,0.3-0.4c0.1-0.1,0.3-0.2,0.4-0.2c0.2-0.1,0.3-0.1,0.5-0.1
				c0.2,0,0.3,0,0.4,0c0.1,0,0.2,0.1,0.4,0.1H457.7z M457.1,143.7c0-0.1,0-0.2-0.1-0.2c0-0.1-0.1-0.1-0.2-0.1
				c-0.1,0-0.2-0.1-0.3-0.1c-0.1,0-0.2,0-0.3,0s-0.2,0-0.4,0c-0.1,0-0.2,0-0.4,0c-0.1,0.1-0.2,0.1-0.3,0.2s-0.1,0.2-0.1,0.3
				c0,0.1,0,0.2,0.1,0.2c0,0.1,0.1,0.1,0.2,0.2c0.1,0,0.2,0.1,0.3,0.1c0.1,0,0.3,0,0.4,0c0.2,0,0.3,0,0.4,0s0.2-0.1,0.3-0.1
				s0.2-0.1,0.2-0.2C457,143.9,457.1,143.8,457.1,143.7z M456,141.8c0.1,0,0.2,0,0.3-0.1s0.2-0.1,0.2-0.1c0.1-0.1,0.1-0.1,0.1-0.2
				c0-0.1,0-0.2,0-0.3c0-0.2-0.1-0.4-0.2-0.5c-0.1-0.1-0.3-0.2-0.6-0.2c-0.2,0-0.4,0.1-0.6,0.2c-0.1,0.1-0.2,0.3-0.2,0.5
				c0,0.1,0,0.2,0,0.3c0,0.1,0.1,0.2,0.1,0.2c0.1,0.1,0.1,0.1,0.2,0.1S455.8,141.8,456,141.8z"/>
		</g>
		<g>
			<circle fill="#313131" cx="391.5" cy="121" r="3"/>
		</g>
		<g>
			<circle fill="#E84C3C" cx="367.3" cy="134.9" r="3.6"/>
		</g>
		<g>
			<circle fill="#E84C3C" cx="367.3" cy="125.6" r="3.6"/>
		</g>
		<g>
			<circle fill="#E84C3C" cx="375.4" cy="121" r="3.6"/>
		</g>
		<g>
			<circle fill="#E84C3C" cx="375.4" cy="130.3" r="3.6"/>
		</g>
		<g>
			<circle fill="#313131" cx="383.5" cy="134.9" r="3"/>
		</g>
		<g>
			<circle fill="#313131" cx="383.5" cy="125.6" r="3"/>
		</g>
		<g>
			<circle fill="#313131" cx="375.4" cy="139.6" r="3"/>
		</g>
		<g>
			<circle fill="#313131" cx="383.5" cy="144.3" r="3"/>
		</g>
		<g>
			<circle fill="#313131" cx="367.3" cy="116.3" r="3"/>
		</g>
		<g>
			<circle fill="#313131" cx="383.5" cy="116.3" r="3"/>
		</g>
		<g>
			<circle fill="#313131" cx="375.4" cy="111.6" r="3"/>
		</g>
		<g>
			<circle fill="#313131" cx="359.2" cy="139.6" r="3"/>
		</g>
		<g>
			<circle fill="#313131" cx="359.2" cy="130.3" r="3"/>
		</g>
		<g>
			<circle fill="#313131" cx="359.2" cy="121" r="3"/>
		</g>
		<g>
			<circle fill="#313131" cx="375.4" cy="148.9" r="3"/>
		</g>
		<g>
			<circle fill="#313131" cx="391.5" cy="130.3" r="3"/>
		</g>
		<g>
			<circle fill="#313131" cx="391.5" cy="139.6" r="3"/>
		</g>
		<g>
			<circle fill="#E84C3C" cx="367.3" cy="144.3" r="3.6"/>
		</g>
	</g>
	<g>
		<g>
			<g>
				<circle cx="530.7" cy="121.2" r="2.3"/>
			</g>
			<g>
				<path d="M530.7,119.8c0.8,0,1.5,0.7,1.5,1.5c0,0.8-0.7,1.5-1.5,1.5c-0.8,0-1.5-0.7-1.5-1.5C529.2,120.4,529.9,119.8,530.7,119.8
					 M530.7,118.2c-1.7,0-3,1.4-3,3c0,1.7,1.4,3,3,3c1.7,0,3-1.4,3-3C533.7,119.6,532.4,118.2,530.7,118.2L530.7,118.2z"/>
			</g>
		</g>
		<g>
			<g>
				<circle cx="530.7" cy="140.3" r="2.3"/>
			</g>
			<g>
				<path d="M530.7,138.9c0.8,0,1.5,0.7,1.5,1.5c0,0.8-0.7,1.5-1.5,1.5c-0.8,0-1.5-0.7-1.5-1.5C529.2,139.5,529.9,138.9,530.7,138.9
					 M530.7,137.3c-1.7,0-3,1.4-3,3c0,1.7,1.4,3,3,3c1.7,0,3-1.4,3-3C533.7,138.7,532.4,137.3,530.7,137.3L530.7,137.3z"/>
			</g>
		</g>
		<g>
			<g>
				<circle cx="530.7" cy="130.8" r="2.9"/>
			</g>
			<g>
				<path d="M530.7,128.1c1.5,0,2.7,1.2,2.7,2.7s-1.2,2.7-2.7,2.7c-1.5,0-2.7-1.2-2.7-2.7S529.2,128.1,530.7,128.1 M530.7,127.8
					c-1.7,0-3,1.4-3,3s1.4,3,3,3c1.7,0,3-1.4,3-3S532.4,127.8,530.7,127.8L530.7,127.8z"/>
			</g>
		</g>
		<g>
			<g>
				<circle cx="514.2" cy="149.9" r="2.3"/>
			</g>
			<g>
				<path d="M514.2,148.4c0.8,0,1.5,0.7,1.5,1.5s-0.7,1.5-1.5,1.5c-0.8,0-1.5-0.7-1.5-1.5S513.3,148.4,514.2,148.4 M514.2,146.9
					c-1.7,0-3,1.4-3,3s1.4,3,3,3c1.7,0,3-1.4,3-3S515.8,146.9,514.2,146.9L514.2,146.9z"/>
			</g>
		</g>
		<g>
			<g>
				<circle cx="497.6" cy="121.2" r="2.3"/>
			</g>
			<g>
				<path d="M497.6,119.8c0.8,0,1.5,0.7,1.5,1.5c0,0.8-0.7,1.5-1.5,1.5c-0.8,0-1.5-0.7-1.5-1.5C496.1,120.4,496.8,119.8,497.6,119.8
					 M497.6,118.2c-1.7,0-3,1.4-3,3c0,1.7,1.4,3,3,3s3-1.4,3-3C500.7,119.6,499.3,118.2,497.6,118.2L497.6,118.2z"/>
			</g>
		</g>
		<g>
			<g>
				<circle cx="497.6" cy="130.8" r="2.9"/>
			</g>
			<g>
				<path d="M497.6,128.1c1.5,0,2.7,1.2,2.7,2.7s-1.2,2.7-2.7,2.7s-2.7-1.2-2.7-2.7S496.1,128.1,497.6,128.1 M497.6,127.8
					c-1.7,0-3,1.4-3,3s1.4,3,3,3s3-1.4,3-3S499.3,127.8,497.6,127.8L497.6,127.8z"/>
			</g>
		</g>
		<g>
			<g>
				<circle cx="497.6" cy="140.3" r="2.3"/>
			</g>
			<g>
				<path d="M497.6,138.9c0.8,0,1.5,0.7,1.5,1.5c0,0.8-0.7,1.5-1.5,1.5c-0.8,0-1.5-0.7-1.5-1.5C496.1,139.5,496.8,138.9,497.6,138.9
					 M497.6,137.3c-1.7,0-3,1.4-3,3c0,1.7,1.4,3,3,3s3-1.4,3-3C500.7,138.7,499.3,137.3,497.6,137.3L497.6,137.3z"/>
			</g>
		</g>
		<g>
			<g>
				<circle cx="505.9" cy="145.1" r="2.3"/>
			</g>
			<g>
				<path d="M505.9,143.6c0.8,0,1.5,0.7,1.5,1.5s-0.7,1.5-1.5,1.5c-0.8,0-1.5-0.7-1.5-1.5S505.1,143.6,505.9,143.6 M505.9,142.1
					c-1.7,0-3,1.4-3,3c0,1.7,1.4,3,3,3s3-1.4,3-3C508.9,143.4,507.6,142.1,505.9,142.1L505.9,142.1z"/>
			</g>
		</g>
		<g>
			<g>
				<circle cx="514.2" cy="130.8" r="2.3"/>
			</g>
			<g>
				<path d="M514.2,129.3c0.8,0,1.5,0.7,1.5,1.5s-0.7,1.5-1.5,1.5c-0.8,0-1.5-0.7-1.5-1.5S513.3,129.3,514.2,129.3 M514.2,127.8
					c-1.7,0-3,1.4-3,3s1.4,3,3,3c1.7,0,3-1.4,3-3S515.8,127.8,514.2,127.8L514.2,127.8z"/>
			</g>
		</g>
		<g>
			<g>
				<circle cx="514.2" cy="111.7" r="2.3"/>
			</g>
			<g>
				<path d="M514.2,110.2c0.8,0,1.5,0.7,1.5,1.5c0,0.8-0.7,1.5-1.5,1.5c-0.8,0-1.5-0.7-1.5-1.5C512.7,110.9,513.3,110.2,514.2,110.2
					 M514.2,108.7c-1.7,0-3,1.4-3,3c0,1.7,1.4,3,3,3c1.7,0,3-1.4,3-3C517.2,110,515.8,108.7,514.2,108.7L514.2,108.7z"/>
			</g>
		</g>
		<g>
			<g>
				<circle cx="522.4" cy="116.5" r="2.9"/>
			</g>
			<g>
				<path d="M522.4,113.8c1.5,0,2.7,1.2,2.7,2.7s-1.2,2.7-2.7,2.7c-1.5,0-2.7-1.2-2.7-2.7S520.9,113.8,522.4,113.8 M522.4,113.4
					c-1.7,0-3,1.4-3,3c0,1.7,1.4,3,3,3c1.7,0,3-1.4,3-3C525.5,114.8,524.1,113.4,522.4,113.4L522.4,113.4z"/>
			</g>
		</g>
		<g>
			<g>
				<circle cx="505.9" cy="116.5" r="2.9"/>
			</g>
			<g>
				<path d="M505.9,113.8c1.5,0,2.7,1.2,2.7,2.7s-1.2,2.7-2.7,2.7c-1.5,0-2.7-1.2-2.7-2.7S504.4,113.8,505.9,113.8 M505.9,113.4
					c-1.7,0-3,1.4-3,3c0,1.7,1.4,3,3,3s3-1.4,3-3C508.9,114.8,507.6,113.4,505.9,113.4L505.9,113.4z"/>
			</g>
		</g>
		<g>
			<g>
				<circle cx="522.4" cy="145.1" r="2.9"/>
			</g>
			<g>
				<path d="M522.4,142.4c1.5,0,2.7,1.2,2.7,2.7s-1.2,2.7-2.7,2.7c-1.5,0-2.7-1.2-2.7-2.7S520.9,142.4,522.4,142.4 M522.4,142.1
					c-1.7,0-3,1.4-3,3c0,1.7,1.4,3,3,3c1.7,0,3-1.4,3-3C525.5,143.4,524.1,142.1,522.4,142.1L522.4,142.1z"/>
			</g>
		</g>
		<g>
			<g>
				<circle cx="514.2" cy="140.3" r="2.3"/>
			</g>
			<g>
				<path d="M514.2,138.9c0.8,0,1.5,0.7,1.5,1.5c0,0.8-0.7,1.5-1.5,1.5c-0.8,0-1.5-0.7-1.5-1.5C512.7,139.5,513.3,138.9,514.2,138.9
					 M514.2,137.3c-1.7,0-3,1.4-3,3c0,1.7,1.4,3,3,3c1.7,0,3-1.4,3-3C517.2,138.7,515.8,137.3,514.2,137.3L514.2,137.3z"/>
			</g>
		</g>
		<g>
			<g>
				<circle cx="505.9" cy="126" r="2.3"/>
			</g>
			<g>
				<path d="M505.9,124.5c0.8,0,1.5,0.7,1.5,1.5s-0.7,1.5-1.5,1.5c-0.8,0-1.5-0.7-1.5-1.5S505.1,124.5,505.9,124.5 M505.9,123
					c-1.7,0-3,1.4-3,3s1.4,3,3,3s3-1.4,3-3S507.6,123,505.9,123L505.9,123z"/>
			</g>
		</g>
		<g>
			<g>
				<circle cx="522.4" cy="126" r="2.9"/>
			</g>
			<g>
				<path d="M522.4,123.3c1.5,0,2.7,1.2,2.7,2.7s-1.2,2.7-2.7,2.7c-1.5,0-2.7-1.2-2.7-2.7S520.9,123.3,522.4,123.3 M522.4,123
					c-1.7,0-3,1.4-3,3s1.4,3,3,3c1.7,0,3-1.4,3-3S524.1,123,522.4,123L522.4,123z"/>
			</g>
		</g>
		<g>
			<g>
				<circle cx="505.9" cy="135.6" r="2.9"/>
			</g>
			<g>
				<path d="M505.9,132.9c1.5,0,2.7,1.2,2.7,2.7s-1.2,2.7-2.7,2.7c-1.5,0-2.7-1.2-2.7-2.7S504.4,132.9,505.9,132.9 M505.9,132.5
					c-1.7,0-3,1.4-3,3c0,1.7,1.4,3,3,3s3-1.4,3-3C508.9,133.9,507.6,132.5,505.9,132.5L505.9,132.5z"/>
			</g>
		</g>
		<g>
			<g>
				<circle cx="522.4" cy="135.6" r="2.3"/>
			</g>
			<g>
				<path d="M522.4,134.1c0.8,0,1.5,0.7,1.5,1.5c0,0.8-0.7,1.5-1.5,1.5c-0.8,0-1.5-0.7-1.5-1.5C521,134.8,521.6,134.1,522.4,134.1
					 M522.4,132.5c-1.7,0-3,1.4-3,3c0,1.7,1.4,3,3,3c1.7,0,3-1.4,3-3C525.5,133.9,524.1,132.5,522.4,132.5L522.4,132.5z"/>
			</g>
		</g>
		<g>
			<g>
				<circle cx="514.2" cy="121.2" r="2.3"/>
			</g>
			<g>
				<path d="M514.2,119.8c0.8,0,1.5,0.7,1.5,1.5c0,0.8-0.7,1.5-1.5,1.5c-0.8,0-1.5-0.7-1.5-1.5C512.7,120.4,513.3,119.8,514.2,119.8
					 M514.2,118.2c-1.7,0-3,1.4-3,3c0,1.7,1.4,3,3,3c1.7,0,3-1.4,3-3C517.2,119.6,515.8,118.2,514.2,118.2L514.2,118.2z"/>
			</g>
		</g>
		<g>
			<g>
				<path d="M548.6,125.3v10.9h-3.3v-10.9H548.6z"/>
			</g>
			<g>
				<path d="M559.8,120.5v15.7h-2c-0.4,0-0.7-0.2-0.8-0.5l-0.3-0.8c-0.2,0.2-0.4,0.4-0.7,0.6c-0.2,0.2-0.5,0.4-0.8,0.5
					c-0.3,0.1-0.6,0.2-0.9,0.3c-0.3,0.1-0.7,0.1-1,0.1c-0.6,0-1.1-0.1-1.6-0.4c-0.5-0.3-0.9-0.6-1.3-1.1c-0.4-0.5-0.6-1.1-0.8-1.8
					c-0.2-0.7-0.3-1.5-0.3-2.4c0-0.8,0.1-1.6,0.3-2.3c0.2-0.7,0.5-1.3,1-1.8c0.4-0.5,0.9-0.9,1.5-1.2c0.6-0.3,1.2-0.4,1.9-0.4
					c0.6,0,1,0.1,1.4,0.2s0.7,0.4,1.1,0.7v-5.5H559.8z M556.6,128.2c-0.2-0.3-0.5-0.5-0.8-0.6c-0.3-0.1-0.6-0.2-0.9-0.2
					c-0.3,0-0.6,0.1-0.8,0.2c-0.3,0.1-0.5,0.3-0.7,0.6c-0.2,0.3-0.3,0.6-0.4,1s-0.2,0.9-0.2,1.5c0,0.6,0,1.1,0.1,1.5
					c0.1,0.4,0.2,0.7,0.4,1c0.2,0.2,0.3,0.4,0.5,0.5s0.4,0.2,0.7,0.2c0.2,0,0.5,0,0.6-0.1c0.2,0,0.4-0.1,0.5-0.2
					c0.2-0.1,0.3-0.2,0.5-0.3c0.1-0.1,0.3-0.3,0.4-0.4V128.2z"/>
			</g>
			<g>
				<path d="M563.8,131.3c0.1,0.9,0.4,1.6,0.8,2c0.4,0.4,1,0.6,1.7,0.6c0.4,0,0.7,0,1-0.1c0.3-0.1,0.5-0.2,0.7-0.3
					c0.2-0.1,0.4-0.2,0.6-0.3c0.2-0.1,0.4-0.1,0.6-0.1c0.3,0,0.5,0.1,0.6,0.3l0.9,1.2c-0.3,0.4-0.7,0.7-1.1,0.9
					c-0.4,0.2-0.8,0.4-1.2,0.6c-0.4,0.1-0.8,0.2-1.2,0.3c-0.4,0.1-0.8,0.1-1.2,0.1c-0.8,0-1.5-0.1-2.1-0.4s-1.3-0.6-1.8-1.1
					c-0.5-0.5-0.9-1.1-1.2-1.8c-0.3-0.7-0.4-1.6-0.4-2.5c0-0.7,0.1-1.4,0.4-2.1c0.2-0.7,0.6-1.2,1.1-1.7c0.5-0.5,1-0.9,1.7-1.2
					c0.7-0.3,1.4-0.4,2.2-0.4c0.7,0,1.4,0.1,2,0.3c0.6,0.2,1.1,0.6,1.5,1c0.4,0.4,0.8,1,1,1.6c0.2,0.6,0.4,1.3,0.4,2.1
					c0,0.2,0,0.4,0,0.6c0,0.2-0.1,0.3-0.1,0.4c-0.1,0.1-0.1,0.2-0.2,0.2c-0.1,0-0.2,0.1-0.4,0.1H563.8z M567.9,129.4
					c0-0.3,0-0.5-0.1-0.8c-0.1-0.2-0.2-0.5-0.3-0.7c-0.2-0.2-0.3-0.3-0.6-0.5s-0.5-0.2-0.9-0.2c-0.6,0-1.1,0.2-1.5,0.5
					c-0.4,0.4-0.6,0.9-0.7,1.5H567.9z"/>
			</g>
			<g>
				<path d="M571.4,126.8c0.7-0.6,1.4-1,2.2-1.3c0.8-0.3,1.7-0.4,2.6-0.4c0.7,0,1.3,0.1,1.8,0.3c0.5,0.2,1,0.5,1.3,0.9
					c0.4,0.4,0.6,0.8,0.8,1.4c0.2,0.5,0.3,1.1,0.3,1.7v6.8h-1.5c-0.3,0-0.5,0-0.7-0.1c-0.2-0.1-0.3-0.3-0.4-0.5l-0.2-0.6
					c-0.3,0.2-0.5,0.4-0.8,0.6c-0.3,0.2-0.5,0.3-0.8,0.4c-0.3,0.1-0.6,0.2-0.9,0.3c-0.3,0.1-0.6,0.1-1,0.1c-0.5,0-0.9-0.1-1.4-0.2
					c-0.4-0.1-0.8-0.3-1-0.6c-0.3-0.3-0.5-0.6-0.7-0.9c-0.2-0.4-0.2-0.8-0.2-1.3c0-0.4,0.1-0.8,0.3-1.2c0.2-0.4,0.5-0.8,1-1.1
					c0.5-0.3,1.1-0.6,2-0.8s1.9-0.4,3.1-0.4v-0.5c0-0.6-0.1-1.1-0.4-1.4s-0.6-0.4-1.1-0.4c-0.4,0-0.7,0-0.9,0.1
					c-0.2,0.1-0.5,0.2-0.7,0.3c-0.2,0.1-0.4,0.2-0.6,0.3c-0.2,0.1-0.4,0.1-0.7,0.1c-0.2,0-0.4-0.1-0.6-0.2c-0.2-0.1-0.3-0.2-0.4-0.4
					L571.4,126.8z M577.2,131.8c-0.7,0-1.2,0.1-1.6,0.2c-0.4,0.1-0.8,0.2-1,0.3c-0.2,0.1-0.4,0.3-0.5,0.4c-0.1,0.2-0.1,0.3-0.1,0.5
					c0,0.4,0.1,0.6,0.3,0.8c0.2,0.2,0.5,0.2,0.9,0.2c0.4,0,0.8-0.1,1.1-0.2c0.3-0.1,0.6-0.4,1-0.7V131.8z"/>
			</g>
			<g>
				<path d="M585.3,136.4c-0.5,0-1-0.1-1.4-0.2c-0.4-0.2-0.7-0.4-1-0.6c-0.3-0.3-0.5-0.6-0.6-1c-0.1-0.4-0.2-0.8-0.2-1.3v-5.6h-0.9
					c-0.2,0-0.3-0.1-0.4-0.2c-0.1-0.1-0.2-0.3-0.2-0.5v-1.3l1.7-0.3l0.6-2.7c0.1-0.3,0.3-0.5,0.7-0.5h1.7v3.2h2.7v2.2h-2.7v5.4
					c0,0.3,0.1,0.5,0.2,0.6c0.1,0.2,0.3,0.2,0.5,0.2c0.1,0,0.2,0,0.3,0c0.1,0,0.2-0.1,0.2-0.1c0.1,0,0.1-0.1,0.2-0.1
					c0.1,0,0.1,0,0.2,0c0.1,0,0.2,0,0.2,0.1c0.1,0,0.1,0.1,0.2,0.2l1,1.5c-0.4,0.3-0.9,0.6-1.4,0.7
					C586.4,136.3,585.9,136.4,585.3,136.4z"/>
			</g>
			<g>
				<path d="M591.2,131.3c0.1,0.9,0.4,1.6,0.8,2c0.4,0.4,1,0.6,1.7,0.6c0.4,0,0.7,0,1-0.1c0.3-0.1,0.5-0.2,0.7-0.3
					c0.2-0.1,0.4-0.2,0.6-0.3c0.2-0.1,0.4-0.1,0.6-0.1c0.3,0,0.5,0.1,0.6,0.3l0.9,1.2c-0.3,0.4-0.7,0.7-1.1,0.9
					c-0.4,0.2-0.8,0.4-1.2,0.6c-0.4,0.1-0.8,0.2-1.2,0.3c-0.4,0.1-0.8,0.1-1.2,0.1c-0.8,0-1.5-0.1-2.1-0.4s-1.3-0.6-1.8-1.1
					c-0.5-0.5-0.9-1.1-1.2-1.8c-0.3-0.7-0.4-1.6-0.4-2.5c0-0.7,0.1-1.4,0.4-2.1c0.2-0.7,0.6-1.2,1.1-1.7c0.5-0.5,1-0.9,1.7-1.2
					c0.7-0.3,1.4-0.4,2.2-0.4c0.7,0,1.4,0.1,2,0.3c0.6,0.2,1.1,0.6,1.5,1c0.4,0.4,0.8,1,1,1.6c0.2,0.6,0.4,1.3,0.4,2.1
					c0,0.2,0,0.4,0,0.6c0,0.2-0.1,0.3-0.1,0.4c-0.1,0.1-0.1,0.2-0.2,0.2c-0.1,0-0.2,0.1-0.4,0.1H591.2z M595.3,129.4
					c0-0.3,0-0.5-0.1-0.8c-0.1-0.2-0.2-0.5-0.3-0.7c-0.2-0.2-0.3-0.3-0.6-0.5s-0.5-0.2-0.9-0.2c-0.6,0-1.1,0.2-1.5,0.5
					c-0.4,0.4-0.6,0.9-0.7,1.5H595.3z"/>
			</g>
		</g>
		<g>
			<line x1="514.2" y1="149.9" x2="566.2" y2="119.5"/>
			
				<rect x="510" y="134.3" transform="matrix(0.8635 -0.5043 0.5043 0.8635 5.7822 290.7726)" fill="#FF1515" width="60.2" height="0.8"/>
		</g>
		<g>
			<line x1="514.2" y1="111.7" x2="556.6" y2="136.2"/>
			
				<rect x="535" y="99.4" transform="matrix(0.4997 -0.8662 0.8662 0.4997 160.4945 525.7618)" fill="#FF1515" width="0.8" height="49"/>
		</g>
		<g>
			<path d="M604.3,127.8h1.8v2.1c-0.3,0.2-0.5,0.3-0.8,0.4c-0.3,0.1-0.6,0.1-0.9,0.1c-0.4,0-0.8-0.1-1.1-0.2s-0.6-0.3-0.9-0.5
				c-0.2-0.2-0.4-0.5-0.6-0.8s-0.2-0.6-0.2-1c0-0.4,0.1-0.7,0.2-1c0.1-0.3,0.3-0.6,0.5-0.8c0.2-0.2,0.5-0.4,0.8-0.5s0.7-0.2,1.1-0.2
				c0.2,0,0.4,0,0.6,0.1c0.2,0,0.3,0.1,0.5,0.1c0.2,0.1,0.3,0.1,0.4,0.2c0.1,0.1,0.2,0.2,0.3,0.3l-0.3,0.5c-0.1,0.1-0.1,0.1-0.2,0.1
				c-0.1,0-0.2,0-0.3-0.1c-0.1-0.1-0.2-0.1-0.3-0.1s-0.2-0.1-0.2-0.1c-0.1,0-0.2,0-0.3-0.1s-0.2,0-0.3,0c-0.2,0-0.4,0-0.6,0.1
				c-0.2,0.1-0.3,0.2-0.4,0.3s-0.2,0.3-0.3,0.5c-0.1,0.2-0.1,0.4-0.1,0.6c0,0.3,0,0.5,0.1,0.7c0.1,0.2,0.2,0.4,0.3,0.5
				c0.1,0.1,0.3,0.2,0.5,0.3c0.2,0.1,0.4,0.1,0.6,0.1c0.1,0,0.3,0,0.4,0c0.1,0,0.2-0.1,0.3-0.1v-0.8h-0.5c-0.1,0-0.1,0-0.2-0.1
				c0,0-0.1-0.1-0.1-0.1V127.8z"/>
			<path d="M611.4,130.3h-0.9c-0.1,0-0.2,0-0.2-0.1c-0.1,0-0.1-0.1-0.1-0.2l-0.3-0.9H608l-0.3,0.9c0,0.1-0.1,0.1-0.1,0.2
				c-0.1,0.1-0.1,0.1-0.2,0.1h-0.9l1.9-4.9h1.2L611.4,130.3z M609.6,128.4l-0.5-1.4c0-0.1-0.1-0.2-0.1-0.3c0-0.1-0.1-0.2-0.1-0.4
				c0,0.1-0.1,0.3-0.1,0.4s-0.1,0.2-0.1,0.3l-0.5,1.3H609.6z"/>
			<path d="M617.6,125.4v4.9h-1v-2.8c0-0.1,0-0.1,0-0.2c0-0.1,0-0.2,0-0.2l-1.3,2.5c0,0.1-0.1,0.1-0.2,0.2c-0.1,0-0.1,0.1-0.2,0.1
				h-0.2c-0.1,0-0.2,0-0.2-0.1c-0.1,0-0.1-0.1-0.2-0.2L613,127c0,0.1,0,0.2,0,0.2c0,0.1,0,0.1,0,0.2v2.8h-1v-4.9h0.9
				c0,0,0.1,0,0.1,0c0,0,0.1,0,0.1,0c0,0,0.1,0,0.1,0.1c0,0,0,0.1,0.1,0.1l1.3,2.5c0,0.1,0.1,0.2,0.1,0.3s0.1,0.2,0.1,0.3
				c0-0.1,0.1-0.2,0.1-0.3s0.1-0.2,0.1-0.3l1.3-2.5c0,0,0-0.1,0.1-0.1c0,0,0.1,0,0.1-0.1c0,0,0.1,0,0.1,0c0,0,0.1,0,0.1,0H617.6z"/>
			<path d="M619.9,126.3v1.2h1.6v0.8h-1.6v1.2h2v0.9h-3.2v-4.9h3.2v0.9H619.9z"/>
			<path d="M606.4,133.5c0,0.4-0.1,0.7-0.2,1c-0.1,0.3-0.3,0.6-0.5,0.8c-0.2,0.2-0.5,0.4-0.8,0.5s-0.7,0.2-1.1,0.2h-1.9v-4.9h1.9
				c0.4,0,0.7,0.1,1.1,0.2c0.3,0.1,0.6,0.3,0.8,0.5s0.4,0.5,0.5,0.8C606.3,132.8,606.4,133.2,606.4,133.5z M605.2,133.5
				c0-0.2,0-0.5-0.1-0.7c-0.1-0.2-0.2-0.4-0.3-0.5c-0.1-0.1-0.3-0.2-0.4-0.3c-0.2-0.1-0.4-0.1-0.6-0.1H603v3.2h0.8
				c0.2,0,0.4,0,0.6-0.1c0.2-0.1,0.3-0.2,0.4-0.3c0.1-0.1,0.2-0.3,0.3-0.5C605.2,134,605.2,133.8,605.2,133.5z"/>
			<path d="M608.5,131.9v1.2h1.6v0.8h-1.6v1.2h2v0.9h-3.2v-4.9h3.2v0.9H608.5z"/>
			<path d="M614.2,132.1c0,0.1-0.1,0.1-0.1,0.1c0,0-0.1,0-0.1,0c-0.1,0-0.1,0-0.2,0c-0.1,0-0.1-0.1-0.2-0.1c-0.1,0-0.2-0.1-0.3-0.1
				c-0.1,0-0.2,0-0.3,0c-0.2,0-0.4,0-0.5,0.1c-0.1,0.1-0.2,0.2-0.2,0.4c0,0.1,0,0.2,0.1,0.2c0.1,0.1,0.1,0.1,0.2,0.2
				c0.1,0,0.2,0.1,0.4,0.1s0.3,0.1,0.4,0.1s0.3,0.1,0.4,0.2c0.1,0.1,0.3,0.1,0.4,0.3s0.2,0.2,0.2,0.4s0.1,0.3,0.1,0.5
				c0,0.2,0,0.4-0.1,0.6c-0.1,0.2-0.2,0.4-0.3,0.5c-0.2,0.1-0.3,0.3-0.6,0.3c-0.2,0.1-0.5,0.1-0.8,0.1c-0.2,0-0.3,0-0.5,0
				s-0.3-0.1-0.5-0.1s-0.3-0.1-0.4-0.2c-0.1-0.1-0.2-0.2-0.3-0.3l0.3-0.5c0,0,0.1-0.1,0.1-0.1c0,0,0.1,0,0.1,0c0.1,0,0.1,0,0.2,0.1
				c0.1,0,0.1,0.1,0.2,0.1c0.1,0.1,0.2,0.1,0.3,0.1c0.1,0,0.2,0.1,0.4,0.1c0.2,0,0.4,0,0.5-0.1c0.1-0.1,0.2-0.2,0.2-0.4
				c0-0.1,0-0.2-0.1-0.3c-0.1-0.1-0.1-0.1-0.2-0.2c-0.1,0-0.2-0.1-0.4-0.1s-0.3-0.1-0.4-0.1c-0.1,0-0.3-0.1-0.4-0.2
				s-0.2-0.1-0.4-0.3c-0.1-0.1-0.2-0.2-0.2-0.4c-0.1-0.2-0.1-0.4-0.1-0.6c0-0.2,0-0.4,0.1-0.5c0.1-0.2,0.2-0.3,0.3-0.5
				c0.1-0.1,0.3-0.2,0.5-0.3c0.2-0.1,0.5-0.1,0.7-0.1c0.2,0,0.3,0,0.4,0c0.1,0,0.3,0.1,0.4,0.1c0.1,0,0.2,0.1,0.4,0.2
				c0.1,0.1,0.2,0.1,0.3,0.2L614.2,132.1z"/>
			<path d="M616.6,136h-1.2v-4.9h1.2V136z"/>
			<path d="M620.2,133.4h1.8v2.1c-0.3,0.2-0.5,0.3-0.8,0.4c-0.3,0.1-0.6,0.1-0.9,0.1c-0.4,0-0.8-0.1-1.1-0.2s-0.6-0.3-0.9-0.5
				c-0.2-0.2-0.4-0.5-0.6-0.8s-0.2-0.6-0.2-1c0-0.4,0.1-0.7,0.2-1c0.1-0.3,0.3-0.6,0.5-0.8c0.2-0.2,0.5-0.4,0.8-0.5s0.7-0.2,1.1-0.2
				c0.2,0,0.4,0,0.6,0.1c0.2,0,0.3,0.1,0.5,0.1c0.2,0.1,0.3,0.1,0.4,0.2c0.1,0.1,0.2,0.2,0.3,0.3l-0.3,0.5c-0.1,0.1-0.1,0.1-0.2,0.1
				c-0.1,0-0.2,0-0.3-0.1c-0.1-0.1-0.2-0.1-0.3-0.1s-0.2-0.1-0.2-0.1c-0.1,0-0.2,0-0.3-0.1s-0.2,0-0.3,0c-0.2,0-0.4,0-0.6,0.1
				c-0.2,0.1-0.3,0.2-0.4,0.3s-0.2,0.3-0.3,0.5c-0.1,0.2-0.1,0.4-0.1,0.6c0,0.3,0,0.5,0.1,0.7c0.1,0.2,0.2,0.4,0.3,0.5
				c0.1,0.1,0.3,0.2,0.5,0.3c0.2,0.1,0.4,0.1,0.6,0.1c0.1,0,0.3,0,0.4,0c0.1,0,0.2-0.1,0.3-0.1v-0.8h-0.5c-0.1,0-0.1,0-0.2-0.1
				c0,0-0.1-0.1-0.1-0.1V133.4z"/>
			<path d="M627.2,131.1v4.9h-0.6c-0.1,0-0.2,0-0.2,0s-0.1-0.1-0.2-0.1l-2.3-3c0,0.1,0,0.2,0,0.3s0,0.2,0,0.2v2.7h-1v-4.9h0.6
				c0,0,0.1,0,0.1,0c0,0,0.1,0,0.1,0c0,0,0.1,0,0.1,0.1c0,0,0.1,0.1,0.1,0.1l2.4,3c0-0.1,0-0.2,0-0.3c0-0.1,0-0.2,0-0.3v-2.6H627.2z
				"/>
		</g>
	</g>
</g>
</svg>
