<?xml version="1.0" encoding="utf-8"?>
<!-- Generator: Adobe Illustrator 21.1.0, SVG Export Plug-In . SVG Version: 6.00 Build 0)  -->
<svg version="1.1" xmlns="http://www.w3.org/2000/svg" xmlns:xlink="http://www.w3.org/1999/xlink" x="0px" y="0px"
	 viewBox="0 0 684.7 262.5" enable-background="new 0 0 684.7 262.5" xml:space="preserve">
<g id="Default">
</g>
<g id="grid">
	<g>
		<g>
			<path fill="#313131" d="M116.1,178.9c5,0,9,4,9,9s-4,9-9,9s-9-4-9-9S111.1,178.9,116.1,178.9 M116.1,169.9c-9.9,0-18,8.1-18,18
				s8.1,18,18,18c9.9,0,18-8.1,18-18S126,169.9,116.1,169.9L116.1,169.9z"/>
		</g>
		<rect x="300.5" y="109.4" fill="#313131" width="23.5" height="78.5"/>
		<g>
			<path fill="#313131" d="M116.1,65.6c5,0,9,4,9,9s-4,9-9,9s-9-4-9-9S111.1,65.6,116.1,65.6 M116.1,56.6c-9.9,0-18,8.1-18,18
				s8.1,18,18,18c9.9,0,18-8.1,18-18S126,56.6,116.1,56.6L116.1,56.6z"/>
		</g>
		<g>
			<path fill="#313131" d="M67,93.9c5,0,9,4,9,9s-4,9-9,9s-9-4-9-9S62.1,93.9,67,93.9 M67,84.9c-9.9,0-18,8.1-18,18s8.1,18,18,18
				c9.9,0,18-8.1,18-18S77,84.9,67,84.9L67,84.9z"/>
		</g>
		<g>
			<path fill="#313131" d="M116.1,9c5,0,9,4,9,9s-4,9-9,9s-9-4-9-9S111.1,9,116.1,9 M116.1,0c-9.9,0-18,8.1-18,18
				c0,9.9,8.1,18,18,18c9.9,0,18-8.1,18-18C134.1,8.1,126,0,116.1,0L116.1,0z"/>
		</g>
		<g>
			<path fill="#313131" d="M67,207.2c5,0,9,4,9,9s-4,9-9,9s-9-4-9-9S62.1,207.2,67,207.2 M67,198.2c-9.9,0-18,8.1-18,18
				s8.1,18,18,18c9.9,0,18-8.1,18-18S77,198.2,67,198.2L67,198.2z"/>
		</g>
		<g>
			<path fill="#313131" d="M18,178.9c5,0,9,4,9,9s-4,9-9,9s-9-4-9-9S13,178.9,18,178.9 M18,169.9c-9.9,0-18,8.1-18,18s8.1,18,18,18
				s18-8.1,18-18S27.9,169.9,18,169.9L18,169.9z"/>
		</g>
		<g>
			<path fill="#313131" d="M18,65.6c5,0,9,4,9,9s-4,9-9,9s-9-4-9-9S13,65.6,18,65.6 M18,56.6c-9.9,0-18,8.1-18,18s8.1,18,18,18
				s18-8.1,18-18S27.9,56.6,18,56.6L18,56.6z"/>
		</g>
		<g>
			<path fill="#313131" d="M116.1,235.5c5,0,9,4,9,9c0,5-4,9-9,9s-9-4-9-9C107.1,239.6,111.1,235.5,116.1,235.5 M116.1,226.5
				c-9.9,0-18,8.1-18,18c0,9.9,8.1,18,18,18c9.9,0,18-8.1,18-18C134.1,234.6,126,226.5,116.1,226.5L116.1,226.5z"/>
		</g>
		<g>
			<path fill="#313131" d="M214.2,178.9c5,0,9,4,9,9s-4,9-9,9s-9-4-9-9S209.2,178.9,214.2,178.9 M214.2,169.9c-9.9,0-18,8.1-18,18
				s8.1,18,18,18c9.9,0,18-8.1,18-18S224.1,169.9,214.2,169.9L214.2,169.9z"/>
		</g>
		<g>
			<path fill="#313131" d="M214.2,65.6c5,0,9,4,9,9s-4,9-9,9s-9-4-9-9S209.2,65.6,214.2,65.6 M214.2,56.6c-9.9,0-18,8.1-18,18
				s8.1,18,18,18c9.9,0,18-8.1,18-18S224.1,56.6,214.2,56.6L214.2,56.6z"/>
		</g>
		<g>
			<path fill="#313131" d="M116.1,122.3c5,0,9,4,9,9c0,5-4,9-9,9s-9-4-9-9C107.1,126.3,111.1,122.3,116.1,122.3 M116.1,113.3
				c-9.9,0-18,8.1-18,18c0,9.9,8.1,18,18,18c9.9,0,18-8.1,18-18C134.1,121.3,126,113.3,116.1,113.3L116.1,113.3z"/>
		</g>
		<g>
			<path fill="#313131" d="M165.1,150.6c5,0,9,4,9,9s-4,9-9,9s-9-4-9-9S160.2,150.6,165.1,150.6 M165.1,141.6c-9.9,0-18,8.1-18,18
				c0,9.9,8.1,18,18,18c9.9,0,18-8.1,18-18C183.1,149.6,175.1,141.6,165.1,141.6L165.1,141.6z"/>
		</g>
		<path fill="#313131" d="M382.6,74.6v39.7c-2.3-2-4.8-3.5-7.6-4.7c-2.8-1.2-6.2-1.7-10.3-1.7c-5,0-9.6,1-13.7,3.1
			c-4.1,2.1-7.7,4.9-10.6,8.6c-3,3.7-5.2,8-6.8,13c-1.6,5-2.4,10.5-2.4,16.3c0,6.4,0.7,12,2.1,17c1.4,5,3.4,9.2,5.9,12.6
			c2.5,3.4,5.5,6,9,7.9c3.5,1.8,7.3,2.7,11.3,2.7c2.7,0,5.2-0.3,7.5-0.8c2.3-0.5,4.4-1.3,6.4-2.3c2-1,3.9-2.2,5.6-3.5
			c1.7-1.4,3.4-2.9,4.9-4.5c0.6,2,1.2,4,1.8,6c0.9,2.6,2.8,3.9,5.8,3.9H406V74.6H382.6z M382.6,163.7c-1,1.2-2,2.3-3.1,3.2
			c-1,0.9-2.1,1.7-3.3,2.3c-1.2,0.6-2.4,1.1-3.8,1.4s-2.9,0.5-4.6,0.5c-1.9,0-3.6-0.4-5.1-1.1c-1.5-0.8-2.8-2-3.9-3.8
			c-1.1-1.7-1.9-4-2.5-6.8c-0.6-2.8-0.9-6.3-0.9-10.5c0-4.3,0.4-7.9,1.1-11c0.8-3,1.8-5.5,3.1-7.4c1.3-1.9,2.9-3.3,4.7-4.1
			c1.8-0.9,3.8-1.3,6-1.3c2.3,0,4.4,0.4,6.5,1.2c2.1,0.8,4,2.2,5.8,4.1V163.7z"/>
		<path fill="#313131" d="M484.3,152.5c0.7-0.2,1.2-0.7,1.6-1.4c0.4-0.7,0.7-1.5,0.8-2.7c0.2-1.1,0.2-2.5,0.2-4.3
			c0-5.6-0.9-10.7-2.6-15.2c-1.7-4.5-4.2-8.2-7.3-11.3c-3.1-3.1-6.8-5.4-11.1-7c-4.3-1.6-9.1-2.4-14.3-2.4c-6,0-11.4,1-16.2,3.1
			s-8.8,4.9-12.2,8.4c-3.4,3.5-5.9,7.6-7.7,12.3c-1.8,4.7-2.7,9.7-2.7,14.9c0,7,1,13.1,3.1,18.3c2.1,5.2,5,9.6,8.6,13.2
			c3.6,3.5,7.8,6.2,12.6,8c4.8,1.8,10,2.7,15.5,2.7c2.7,0,5.5-0.2,8.4-0.6s5.9-1.1,8.8-2s5.8-2.3,8.6-4.1c2.8-1.7,5.4-4,7.8-6.8
			c-2.3-2.8-4.5-5.6-6.8-8.4c-1-1.4-2.4-2-4.2-2c-1.4,0-2.8,0.3-4.1,1c-1.3,0.7-2.7,1.4-4.2,2.2c-1.5,0.8-3.3,1.5-5.3,2.2
			c-2,0.7-4.3,1-7,1c-5.1,0-9.3-1.5-12.5-4.4c-3.2-3-5.2-7.7-6-14.3h45.2C482.7,152.9,483.6,152.7,484.3,152.5z M436.7,139.2
			c0.8-4.8,2.5-8.5,5-11c2.5-2.5,6-3.8,10.4-3.8c2.5,0,4.7,0.4,6.4,1.3c1.8,0.8,3.2,2,4.3,3.4c1.1,1.4,1.9,3,2.4,4.7
			c0.5,1.8,0.7,3.6,0.7,5.5H436.7z"/>
		<path fill="#313131" d="M556,126.5c-1.4-3.8-3.5-7-6.1-9.8c-2.6-2.7-5.9-4.9-9.7-6.4c-3.8-1.5-8.1-2.3-12.8-2.3
			c-6.6,0-12.8,1-18.6,3.1c-5.8,2-11,5.2-15.8,9.3c1.4,2.5,2.8,4.9,4.2,7.3c0.7,1.1,1.6,2.1,2.7,2.9c1.1,0.8,2.5,1.2,4.1,1.2
			c1.8,0,3.4-0.3,4.7-0.9c1.3-0.6,2.7-1.3,4-2c1.4-0.8,3-1.4,4.7-2c1.8-0.6,4-0.9,6.8-0.9c3.5,0,6.2,1,8.1,3.1c1.9,2,2.8,5.4,2.8,10
			v3.3c-9,0.2-16.4,1.1-22.3,2.7c-5.9,1.6-10.6,3.6-14.1,6c-3.5,2.4-5.9,5-7.3,7.9c-1.4,2.9-2.1,5.8-2.1,8.6c0,3.5,0.6,6.7,1.7,9.4
			c1.1,2.7,2.7,5,4.7,6.8c2,1.8,4.5,3.2,7.4,4.1c2.9,0.9,6.2,1.4,9.8,1.4c2.7,0,5.1-0.2,7.3-0.6c2.2-0.4,4.3-1.1,6.2-2
			c1.9-0.9,3.8-2,5.6-3.2c1.8-1.3,3.7-2.7,5.7-4.4c0.5,1.4,1.1,2.9,1.7,4.3c0.8,1.9,1.7,3.2,2.8,3.8c1.1,0.6,2.8,0.9,5,0.9h10.7v-49
			C558.1,134.4,557.4,130.2,556,126.5z M535.3,166.9c-2.3,2.4-4.6,4.1-6.9,5.1c-2.3,1.1-4.9,1.6-8,1.6c-2.8,0-5-0.5-6.4-1.6
			c-1.5-1.1-2.2-3-2.2-5.6c0-1.4,0.3-2.6,1-3.8c0.7-1.2,1.9-2.2,3.7-3.1c1.8-0.9,4.2-1.7,7.2-2.3c3-0.6,6.9-1,11.6-1.2V166.9z"/>
		<path fill="#313131" d="M592.4,189.1c-3.7,0-7-0.5-9.9-1.6c-2.8-1.1-5.2-2.6-7.2-4.6c-1.9-2-3.4-4.4-4.4-7.2c-1-2.8-1.5-6-1.5-9.5
			c0-13.5,0-27,0-40.6c-2.2,0-4.4,0-6.7,0c-1.2,0-2.2-0.4-3.1-1.2c-0.9-0.8-1.3-1.9-1.3-3.4c0-3.1,0-6.1,0-9.2
			c4.2-0.8,8.3-1.6,12.5-2.4c1.5-6.4,3.1-12.8,4.6-19.1c0.6-2.4,2.3-3.6,5.1-3.6c4.1,0,8.2,0,12.3,0c0,7.6,0,15.3,0,22.9
			c6.5,0,13,0,19.4,0c0,5.3,0,10.7,0,16c-6.5,0-13,0-19.4,0c0,13,0,26,0,39c0,1.8,0.4,3.3,1.3,4.5c0.9,1.2,2.2,1.8,3.8,1.8
			c0.9,0,1.6-0.1,2.2-0.3c0.6-0.2,1.1-0.4,1.5-0.6c0.4-0.2,0.8-0.4,1.2-0.6c0.4-0.2,0.8-0.3,1.3-0.3c0.7,0,1.3,0.2,1.7,0.5
			c0.4,0.3,0.9,0.8,1.3,1.6c2.4,3.7,4.7,7.4,7.1,11.1c-3,2.3-6.4,4-10.2,5.1C600.3,188.5,596.4,189.1,592.4,189.1z"/>
		<path fill="#313131" d="M682,152.5c0.7-0.2,1.2-0.7,1.6-1.4c0.4-0.7,0.7-1.5,0.8-2.7c0.2-1.1,0.2-2.5,0.2-4.3
			c0-5.6-0.9-10.7-2.6-15.2c-1.7-4.5-4.2-8.2-7.3-11.3c-3.1-3.1-6.8-5.4-11.1-7s-9.1-2.4-14.3-2.4c-6,0-11.4,1-16.1,3.1
			c-4.8,2.1-8.8,4.9-12.2,8.4c-3.4,3.5-5.9,7.6-7.7,12.3c-1.8,4.7-2.7,9.7-2.7,14.9c0,7,1,13.1,3.1,18.3c2.1,5.2,4.9,9.6,8.5,13.2
			c3.6,3.5,7.8,6.2,12.6,8c4.8,1.8,10,2.7,15.5,2.7c2.7,0,5.5-0.2,8.4-0.6c3-0.4,5.9-1.1,8.9-2s5.8-2.3,8.6-4.1
			c2.8-1.7,5.4-4,7.8-6.8c-2.3-2.8-4.5-5.6-6.8-8.4c-1-1.4-2.4-2-4.2-2c-1.4,0-2.8,0.3-4,1c-1.3,0.7-2.7,1.4-4.2,2.2
			s-3.3,1.5-5.3,2.2c-2,0.7-4.3,1-7,1c-5.1,0-9.3-1.5-12.5-4.4c-3.2-3-5.2-7.7-6-14.3h45.2C680.4,152.9,681.3,152.7,682,152.5z
			 M634.4,139.2c0.8-4.8,2.5-8.5,5-11c2.5-2.5,6-3.8,10.4-3.8c2.5,0,4.7,0.4,6.4,1.3c1.8,0.8,3.2,2,4.3,3.4c1.1,1.4,1.9,3,2.3,4.7
			c0.5,1.8,0.7,3.6,0.7,5.5H634.4z"/>
		<g>
			<circle fill="#313131" cx="67" cy="159.6" r="18"/>
			<circle fill="#313131" cx="165.1" cy="102.9" r="18"/>
			<circle fill="#313131" cx="165.1" cy="46.3" r="18"/>
			<circle fill="#313131" cx="214.2" cy="131.3" r="18"/>
			<circle fill="#313131" cx="165.1" cy="216.2" r="18"/>
			<circle fill="#313131" cx="18" cy="131.3" r="18"/>
			<circle fill="#313131" cx="67" cy="46.3" r="18"/>
		</g>
	</g>
</g>
</svg>
