<?xml version="1.0" encoding="utf-8"?>
<!-- Generator: Adobe Illustrator 24.0.1, SVG Export Plug-In . SVG Version: 6.00 Build 0)  -->
<svg version="1.1" id="Layer_1" xmlns="http://www.w3.org/2000/svg" xmlns:xlink="http://www.w3.org/1999/xlink" x="0px" y="0px"
	 viewBox="0 0 1213 732.5" style="enable-background:new 0 0 1213 732.5;" xml:space="preserve">
<style type="text/css">
	.st0{fill:#18212D;}
</style>
<g>
	<path class="st0" d="M843.7,518.7c-2.6,2.7-3.5-0.7-5.3-1.8c-1.2-10.7-2.4-21.2-3.6-31.6c-0.3-2.8-0.2-5.4,2.4-7
		c2.4-1.5,4.8-0.6,7,0.6c6,3.5,12,7,18,10.5c1.1,0.7,2.3,1.3,3.7,2.1c-5.5-5.1-5.8-14.3-0.7-21.9c5.2-7.9,14.5-9.1,21.6-6.2
		c9.8,4,13.9,13,11.1,23.2c-2,7.2-8,11.9-15.1,11.2c6.7-0.4,10.9,2.9,15.3,6.6c11.7,9.8,14.4,26.3,8.8,39.6
		c-4.1,9.8-17.3,20.6-29.8,20c-6.9-0.3-13.5-0.7-19.5-4.7c-9.8-6.5-16.1-15.1-16.4-27.3c-0.1-2.8-0.1-5.7,0.2-8.5
		C841.8,521.9,842.9,520.3,843.7,518.7z"/>
	<path class="st0" d="M1106.1,396.2c-19.7,7.7-40.5,15.2-61.2,22.4c-4.6-2-5.5-3.3-4.9-7.8c1.3-11.4,2.7-22.8,4.2-34.2
		c0.4-2.8-1.1-6.2,2.4-7.7c-2.6,1.6-5.2,3.4-7.9,4.8c-5.7,2.9-11.3,5.8-17.1,8.5c-5.5,2.6-8.8,0.6-8.9-5.5
		c-0.2-13.2-0.3-26.4-0.2-39.7c0-5.3,1.1-6.9,4.3-7.5c0.9-0.2,2-0.4,2.8,0c6.1,2.8,12.1,5.8,17.4,8.3c-1.1-3.7,0.1-6.4,4.2-7.4
		c4.8-1.1,8.3,0.9,8.6,5.5c0.2,2.7-0.5,5.5-1,8.3c1-4.1,2.6-5.3,5.7-4c1.2,0.5,2.2,1.4,3.2,2.3c8.7,8.2,17.4,16.4,26,24.7
		c7.2,6.8,14.3,13.7,21.4,20.6C1107.2,389.8,1108.6,392.1,1106.1,396.2z"/>
	<path class="st0" d="M756.7,66.9c-2.9,1.3-5,2.2-6.9,3.1c-6.1-5-11.5-9.6-17.4-14.4c0.1-5-1.7-9.9-3.1-14.9
		c-3.4-11.6,3.3-31.5,19.7-38c11.9-4.7,23.5-3.4,33.9,3.9c7.5,5.3,11.9,13,12.8,22.3c0.8,8.2-0.3,16.1-5,23.3
		C783.5,63.4,767.6,70.5,756.7,66.9z"/>
	<path class="st0" d="M504.9,216.6c-1.6,0.2-3.2,0.3-4.8,0.5c-6.2-4.4-7.9-8.3-5.6-13.7c3-7,5-6.9,13.9-6.4c4.5,0.3,7,4.3,7.5,11.1
		c-1.2,1.9-2.5,3.8-3.9,5.9c-0.5-0.3-1-0.6-1.4-0.8c0.1-0.5,0-1,0.2-1.1c1.3-0.9,2.7-1.8,4.1-2.5c3.4-1.9,6.8-4.1,10.4-5.5
		c3.5-1.4,6.6,1.1,6.8,5.3c0.3,5.7,0.2,11.3,0.2,17c0,7.3,0.1,14.7-0.1,22c-0.2,6-0.7,12-1.3,18c-0.5,4.7-4.5,6.3-8.9,4
		c-7.4-3.8-14.7-7.6-22-11.4c-8.7-4.5-17.4-9-26-13.5c-2.2-1.1-4.3-2.4-6.3-3.9c-4.8-3.5-4.6-7.8,0.7-10.5c5.7-3,11.5-5.6,17.2-8.4
		c0.2-0.1,0.4-0.1,0.5-0.2C492.1,219.6,497.9,216.1,504.9,216.6z"/>
	<path class="st0" d="M562.7,276.3c9-0.4,15.2,1.8,20.4,6.8c4.3,4.1,8.5,8.1,9.7,14.2c0.2,0.9,0.7,1.7,1.3,2.4
		c7.2,8.7,5.3,20.6-3.9,27.9c-3.4,2.7-6.9,5.1-11.8,4.6c-2.3-0.2-4.8,0.8-7.2,1.4c-12.2,2.9-22.1-1.5-29.6-10.8
		c-7.4-9.2-8.3-20.1-3-30.3C543.8,282.5,552.4,276.2,562.7,276.3z"/>
	<path class="st0" d="M819,587c5.9,2.6,9.6,7.4,11.1,13.9c2.4-3.5,5.7-5.9,10.4-4.4c4.6,1.6,6.4,5.7,7.3,10c0.8,3.6-1.5,6.1-4.3,8
		c-7.9,5.4-15.9,10.7-23.9,16c-6.5,4.4-13.9,3.9-20.7,1.8c-15.8-4.8-21.2-22.5-14.3-35.2c3.2-5.9,7.2-11.7,15.2-11.2
		c-1,0-2.2,0-3.4,0c-2-2.8-2.4-5.7-1.1-8.7c2.2-5.2,4.5-10.4,6.7-15.5c1.1-2.5,2.5-4.7,6-5.6c5.7,2,12.1,3.4,17.6,7.7
		C827.7,572.9,821.2,579.2,819,587z"/>
	<path class="st0" d="M74.7,372.3c-18.6,0.3-28-15.5-28.3-28.4c-0.3-15.4,13.5-28.7,27.8-28.4c16.9,0.3,28.5,11.8,29.1,27.7
		C104,359.1,90.2,372.9,74.7,372.3z"/>
	<path class="st0" d="M312.8,77.4c7.8-1.4,15.5-2.8,23.5-4.2c6.4-12.7,19.1-14.4,28-11.5c9.6,3.1,17.1,11.9,16.2,24.6
		c-0.7,9.5-9,18.7-18.3,20.3c-1.6,5.7-2.1,11.9-6.4,16.8c-2.9,1.7-5.2,0.9-7.5-1.5c-4.9-5-9.8-9.9-14.8-14.7
		c-6.6-6.4-13.5-12.5-20.1-18.9C309.5,84.4,309.4,82.3,312.8,77.4z"/>
	<path class="st0" d="M487.5,615.3c-1.5-4.1-3.1-8.1-4.3-12.2c-1.3-4.4,0.2-6.8,4.7-6.9c4.8-0.1,9.7,0.5,14.6,1.1
		c5,0.6,10,1.3,15,2.2s6.5,4.7,3.3,8.6c-2.3,2.8-5.1,5.2-8.1,7.3c1.3-0.7,2.6-1.3,3.8-2c2.6,0.6,4.6,1.7,4.8,4.3
		c0.1,2-0.1,4.2-0.9,6c-5.5,12.5-11.1,25-16.7,37.5c-2.7,6-7,6.6-11.2,1.5c-8.1-9.9-16.2-19.8-24.4-29.7c-1.9-2.3-3.8-4.6-5.7-6.8
		c-1.9-2.2-2.5-4.6-1.4-7.4c1.2-3,3.8-3.4,6.5-3.4C474.5,615.3,481.2,615.3,487.5,615.3z"/>
	<path class="st0" d="M1129.7,178.6c7-0.1,9.3,3.3,6.5,9.5c-2,4.3-4.5,8.3-6.8,12.4c-4.2,7.3-8.4,14.6-12.6,21.9
		c-1.7,2.9-3.1,6-4.7,9c-3.4,6.3-9.3,6.6-13.4,0.7c-5.4-7.9-10.6-15.9-16-23.9c-2.4-3.6-5-7.1-7.3-10.8c-1-1.6-1.8-3.4-2.1-5.1
		c-0.7-4,0.9-6.2,4.9-6.7c8.4-1.2,16.8-2.3,25.2-3.5c8-1.1,15.9-2.1,23.9-3.1C1128.3,178.7,1129.2,178.6,1129.7,178.6z"/>
	<path class="st0" d="M768.1,117.8c-13,0.1-24.5-10.7-24.9-22.8c-0.7-16.8,12.5-27.3,24.2-27c15.2,0.3,25,10.1,25.9,25
		C794,106.3,782,117.7,768.1,117.8z"/>
	<path class="st0" d="M323.2,605.7c-3.5-0.7-4.8-2.4-5.1-4.9c-0.7-5.2-1.5-10.5-2.3-15.7c-0.9-5.9-1.9-11.9-2.9-17.8
		c-0.6-3.5-1.1-7.1-1.5-10.6c-0.6-5.5,2.1-8,7.4-6.4c8.1,2.4,16.2,5.2,24.2,7.9c7.1,2.4,14.3,4.8,21.4,7.2c0.5,0.2,1.1,0.1,1.6,0.4
		c2,1,4.3,1.7,4.7,4.4c0.4,2.9-1.1,4.6-3.3,6c-3,2-5.8,4.1-8.7,6.2c-10.1,7-20.1,14-30.2,20.9C326.8,604.3,324.8,604.9,323.2,605.7z
		"/>
	<path class="st0" d="M1116.2,402.1c7.6-0.8,15.3-1.6,22.9-2.3c2.1-0.2,4.1-0.1,6.2-0.3c2.8-0.2,5.5-0.3,8.3-0.6
		c2.5-0.3,5-0.5,6.7,1.8c1.6,2.2,1.3,4.7-0.1,6.9c-3.7,6.1-7.5,12.1-11.3,18.1c-4.1,6.5-8.1,13-12.2,19.4c-0.5,0.8-1,1.6-1.6,2.3
		c-4.2,5.8-8.7,5.8-12.3-0.3c-7-11.7-13.9-23.4-20.8-35.1c-2.7-4.7-1.4-7.8,4-9.1c3.3-0.8,6.7-1.1,10.1-1.6
		C1116.2,401.7,1116.2,401.9,1116.2,402.1z"/>
	<path class="st0" d="M527.5,719c-5.1,3.2-10.7,3.8-16.4,2.8c-3.2-0.6-3.5-3.5-3.5-6.3s0.4-5.4,3.6-6.2c2.2-0.5,4.5-0.8,6.7-1.2
		c4.8-0.7,9.6-1.3,15.2-2c1.4-2.3,3.4-5.2,5.1-8.2c2.9-4.9,5.7-9.8,8.3-14.7c1.3-2.4,3.2-3.8,5.9-3.7c2.6,0.1,4.1,1.7,5.1,4
		c3.6,8.5,7.2,16.9,10.8,25.4c1.9,4.5,3.6,9,5.4,13.5c0.5,1.2,1,2.5,1.2,3.8c0.5,3.5-0.7,5.5-4.3,6c-3.5,0.5-7.1,0.4-10.7,0.3
		c-3.5-0.1-7.1-0.7-10.6-0.9c-6.2-0.4-12.4-0.8-18.6-1.2c-4.2-0.3-6.4-1.7-7-4.6C523.2,722.5,524.6,720.2,527.5,719z"/>
	<path class="st0" d="M273.4,372.1c0.4-14,11.6-23.1,23.5-22.4c13.2,0.9,21.4,9.7,22,22.9c0.5,11.2-10.6,23.9-25.8,22.6
		C282.3,394.3,272.8,383.5,273.4,372.1z"/>
	<path class="st0" d="M789.8,547.6c2.1,11.2-10.1,21.9-21.3,21.7c-12.6-0.2-21.8-9.8-22.2-21.5c-0.4-11.8,11-24,23.1-22.9
		c6.3,0.6,10.8,3.4,15.2,7.6C789.2,536.9,790.6,542,789.8,547.6z"/>
	<path class="st0" d="M104.6,421.6c-0.8,7.7-1.4,13.6-2,19.6c-0.5,5.6-0.9,11.3-1.4,16.9c-0.1,0.9,0,1.9-0.1,2.8
		c-0.8,5-3.9,6.8-8.6,4.8c-2.6-1.1-4.9-2.7-7.3-4.2c-9.9-6-19.8-12.1-29.7-18.2c-5.5-3.4-5.4-8.2,0.7-10.9c8.9-3.9,18.1-7.4,27.2-11
		c3.9-1.5,7.8-3,11.6-4.5C101.4,414.7,104.6,416.8,104.6,421.6z"/>
	<path class="st0" d="M655.7,118.1c-12.4,0.9-22.4-12-21.8-21.9c0.7-13.4,10.1-21.2,22.3-21.7c10.4-0.4,22.5,9.4,21.9,22.7
		C677.5,108.3,669.3,118.5,655.7,118.1z"/>
	<path class="st0" d="M547.1,632.5c-0.9-10.3,8.6-22.4,21.8-21.8c11.4,0.5,21.7,8.5,21.6,22.3c0,11-10,21.8-21.7,21.2
		C555.5,653.5,546.9,645.3,547.1,632.5z"/>
	<path class="st0" d="M727.4,302.8c-11.7,1.1-22.6-10-22-22.1c0.4-9.5,8.1-22,22.5-21.1c12.2,0.8,20.4,8.8,21.3,20.7
		C749.9,292.2,738,304.3,727.4,302.8z"/>
	<path class="st0" d="M800.3,119c-1.1-12.2,11.5-22.4,21.9-21.7c13.2,0.9,21.8,11.2,21.5,23.1c-0.4,12.7-11.5,21.4-26.1,20.2
		C807.9,139.9,798.8,129,800.3,119z"/>
	<path class="st0" d="M1.6,117.2c-0.4-4.9-1-9.7-1.3-14.6c-0.2-3.4-1.4-7.5,2.6-9.7c3.6-2,6.4,0.6,9.2,2.5
		c9.9,6.8,19.7,13.7,29.6,20.5c1.1,0.7,2.1,1.6,3,2.6c2.6,3.2,2.3,6.4-1.2,8.7c-3.1,2.1-6.5,3.9-9.8,5.7c-7,3.9-14.1,7.9-21.2,11.7
		c-5.8,3.1-9.7,1.1-10.2-5.3c-0.5-7.3-0.9-14.6-1.4-22C1.2,117.2,1.4,117.2,1.6,117.2z"/>
	<path class="st0" d="M219.5,671.2c4.1-5.1,8-10.2,12.1-15.1c2.1-2.5,4.7-3.6,8.1-2.8c4.3,1.1,6.5,5.6,4,9.2
		c-3.2,4.6-6.9,8.8-10.4,13.2c-1.2,1.4-2.3,2.9-3.6,4.3c-1.4,1.5-3,2.8-4.6,4.1c-1.7,1.4-3.8,2.3-5.2,3.9c-5.2,5.9-10.2,12-15.3,18
		c-0.6,0.7-1.1,1.6-1.7,2.3c-3.9,3.9-8.1,3.4-10.6-1.4c-1.9-3.7-3.5-7.5-5.2-11.3c-1.9-4.3-3.7-8.6-5.5-13c-0.9-2.1-1.8-4.2-2.2-6.4
		c-0.9-4.3,0.8-6.7,5.1-7.1c2.8-0.3,5.7-0.2,8.5,0c4.5,0.2,9,0.5,13.5,0.9C210.9,670.3,215.4,670.8,219.5,671.2z"/>
	<path class="st0" d="M206.3,174.1c-5.7-0.8-11.3-1.6-16.8-2.3c-5-0.6-10.1-1-15.1-1.7c-6.8-0.9-9.3-4.5-7.7-11
		c0.7-2.8,2.5-4.4,5.2-4c9.9,1.1,19.7,2.6,29.6,3.6c2.7,0.3,5.6-0.2,8.3-0.7c3.7-0.8,7.2-2.2,10.9-3c4.2-0.9,6.8,0.5,8,4.3
		c2.8,9.1,5.6,18.2,8.2,27.4c0.6,1.9,0.6,4,1,6.6c-2,1.2-3.7,2.6-5.7,3.4c-3.5,1.4-7.1,2.5-10.7,3.6c-4.3,1.3-7.2-0.2-8.6-4.7
		C210.5,188.3,208.4,181,206.3,174.1z"/>
	<path class="st0" d="M1033.9,638.2c0.8,11.1-9.3,21.8-20.8,21.2c-13.6-0.8-20.7-9.2-21.1-21.3c-0.3-11.5,10.9-21.2,20.4-20.7
		C1025.6,618.1,1034.1,625.9,1033.9,638.2z"/>
	<path class="st0" d="M1153.8,373.7c0,6.4,0.1,12.9,0,19.3c-0.1,6.3-3.3,8.9-9.2,5.9c-6.2-3.2-12.3-6.4-18.5-9.6
		c-4.2-2.2-8.2-4.6-12.5-6.4c-4.7-2-5-7.1-1.2-10c1.7-1.3,3.3-2.5,5-3.7c8.5-6.4,17.1-12.8,25.6-19.3c2.4-1.9,4.8-3,7.8-1.7
		c2.7,1.2,2.8,3.8,2.8,6.3c0,6.4,0,12.8,0,19.3C1153.7,373.7,1153.7,373.7,1153.8,373.7z"/>
	<path class="st0" d="M966.2,685.8c12.4-0.5,20.9,9.4,20.8,20.4c-0.1,13.1-9.8,19.8-21.1,20.6c-10.7,0.7-19.6-9.4-19.9-21
		C945.7,696,955.3,685.2,966.2,685.8z"/>
	<path class="st0" d="M516.6,95.1c10.8-1,19.2,7.8,20.2,19.1c0.9,9.9-10.9,21.3-20.5,20.9c-9.8-0.4-19.9-9.3-20.3-19.1
		C495.5,103.8,503.6,95.6,516.6,95.1z"/>
	<path class="st0" d="M745.8,150.9c7.4,10,14.5,19.3,21.4,28.9c1.4,2,1.8,4.8,2.8,7.6c-2.3,2.1-4.3,4-6.4,5.8
		c-2.3,2-4.6,3.9-6.9,5.8c-3.6,2.9-6.9,2.7-9.8-1c-6-7.6-11.8-15.4-17.6-23.1c-1.7-2.2-3.5-4.4-5-6.8c-1.9-3.1-1.3-5.5,1.6-7.9
		c3-2.5,6.1-4.9,9.2-7.4C738.3,150.3,741.9,149,745.8,150.9z"/>
	<path class="st0" d="M523.2,480c-8.8-7.9-17.9-16-26.8-24c0-2.3,0-4.2,0-6.1c5.2-4.3,11.5-5.7,17.3-8.1c5.7-2.4,11.5-4.5,17.3-6.7
		c1.2-0.5,2.5-0.8,3.8-0.9c4.6-0.3,6.8,2,6,6.6c-0.9,4.6-2.1,9.1-3.3,13.7c-1.7,6.3-3.5,12.6-5.2,18.9
		C530.7,478.9,529.2,480.1,523.2,480z"/>
	<path class="st0" d="M687.9,234.2c11.4-0.1,18.6,7,19,17.9c0.4,12.2-9.4,20-19.1,19.8c-9.9-0.2-18.7-9.2-18.7-19.4
		C669,242.1,677.2,234.2,687.9,234.2z"/>
	<path class="st0" d="M1213,378.2c-0.1,11.3-7.3,19-18,19c-9.3,0-18.5-8.5-18.5-17.1c0-13.1,6.4-20.2,18.2-20.1
		C1206.2,360,1213,366.8,1213,378.2z"/>
</g>
</svg>
