<?xml version="1.0" encoding="UTF-8"?>
<svg width="258px" height="432px" viewBox="0 0 258 432" version="1.1" xmlns="http://www.w3.org/2000/svg" xmlns:xlink="http://www.w3.org/1999/xlink">
    <!-- Generator: Sketch 59.1 (86144) - https://sketch.com -->
    <title>baggageticket</title>
    <desc>Created with Sketch.</desc>
    <g id="baggageticket" stroke="none" stroke-width="1" fill="none" fill-rule="evenodd">
        <g id="Group-2">
            <rect id="Rectangle" fill="#194F8E" x="0.823877658" y="0" width="256.5" height="432"></rect>
            <rect id="Rectangle" fill="#FFFFFF" x="13.5738777" y="0" width="231" height="432"></rect>
            <path d="M39.8238777,291.75 L39.8238777,342.75 L37.5738777,342.75 L37.5738777,291.75 L39.8238777,291.75 Z M42.0738777,291.75 L42.0738777,342.75 L41.3238777,342.75 L41.3238777,291.75 L42.0738777,291.75 Z M45.0738777,291.75 L45.0738777,342.75 L44.3238777,342.75 L44.3238777,291.75 L45.0738777,291.75 Z M47.3238777,291.75 L47.3238777,342.75 L46.5738777,342.75 L46.5738777,291.75 L47.3238777,291.75 Z M51.0738777,291.75 L51.0738777,342.75 L48.8238777,342.75 L48.8238777,291.75 L51.0738777,291.75 Z M54.0738777,291.75 L54.0738777,342.75 L51.8238777,342.75 L51.8238777,291.75 L54.0738777,291.75 Z M56.3238777,291.75 L56.3238777,342.75 L55.5738777,342.75 L55.5738777,291.75 L56.3238777,291.75 Z M59.3238777,291.75 L59.3238777,342.75 L58.5738777,342.75 L58.5738777,291.75 L59.3238777,291.75 Z M61.5738777,291.75 L61.5738777,342.75 L60.0738777,342.75 L60.0738777,291.75 L61.5738777,291.75 Z M66.0738777,291.75 L66.0738777,342.75 L64.5738777,342.75 L64.5738777,291.75 L66.0738777,291.75 Z M69.8238777,291.75 L69.8238777,342.75 L67.5738777,342.75 L67.5738777,291.75 L69.8238777,291.75 Z M73.5738777,291.75 L73.5738777,342.75 L72.0738777,342.75 L72.0738777,291.75 L73.5738777,291.75 Z M78.0738777,291.75 L78.0738777,342.75 L76.5738777,342.75 L76.5738777,291.75 L78.0738777,291.75 Z M80.3238777,291.75 L80.3238777,342.75 L79.5738777,342.75 L79.5738777,291.75 L80.3238777,291.75 Z M81.8238777,291.75 L81.8238777,342.75 L81.0738777,342.75 L81.0738777,291.75 L81.8238777,291.75 Z M87.0738777,291.75 L87.0738777,342.75 L84.8238777,342.75 L84.8238777,291.75 L87.0738777,291.75 Z M90.8238777,291.75 L90.8238777,342.75 L88.5738777,342.75 L88.5738777,291.75 L90.8238777,291.75 Z M93.8238777,291.75 L93.8238777,342.75 L92.3238777,342.75 L92.3238777,291.75 L93.8238777,291.75 Z M97.5738777,291.75 L97.5738777,342.75 L95.3238777,342.75 L95.3238777,291.75 L97.5738777,291.75 Z M99.0738777,291.75 L99.0738777,342.75 L98.3238777,342.75 L98.3238777,291.75 L99.0738777,291.75 Z M101.323878,291.75 L101.323878,342.75 L100.573878,342.75 L100.573878,291.75 L101.323878,291.75 Z M105.073878,291.75 L105.073878,342.75 L102.823878,342.75 L102.823878,291.75 L105.073878,291.75 Z M106.573878,291.75 L106.573878,342.75 L105.823878,342.75 L105.823878,291.75 L106.573878,291.75 Z M108.073878,291.75 L108.073878,342.75 L107.323878,342.75 L107.323878,291.75 L108.073878,291.75 Z M111.073878,291.75 L111.073878,342.75 L109.573878,342.75 L109.573878,291.75 L111.073878,291.75 Z M114.823878,291.75 L114.823878,342.75 L111.823878,342.75 L111.823878,291.75 L114.823878,291.75 Z M120.073878,291.75 L120.073878,342.75 L117.823878,342.75 L117.823878,291.75 L120.073878,291.75 Z M122.323878,291.75 L122.323878,342.75 L121.573878,342.75 L121.573878,291.75 L122.323878,291.75 Z M126.073878,291.75 L126.073878,342.75 L123.823878,342.75 L123.823878,291.75 L126.073878,291.75 Z M127.573878,291.75 L127.573878,342.75 L126.823878,342.75 L126.823878,291.75 L127.573878,291.75 Z M130.573878,291.75 L130.573878,342.75 L128.323878,342.75 L128.323878,291.75 L130.573878,291.75 Z M133.573878,291.75 L133.573878,342.75 L131.323878,342.75 L131.323878,291.75 L133.573878,291.75 Z M135.823878,291.75 L135.823878,342.75 L134.323878,342.75 L134.323878,291.75 L135.823878,291.75 Z M138.823878,291.75 L138.823878,342.75 L136.573878,342.75 L136.573878,291.75 L138.823878,291.75 Z M141.073878,291.75 L141.073878,342.75 L139.573878,342.75 L139.573878,291.75 L141.073878,291.75 Z M143.323878,291.75 L143.323878,342.75 L142.573878,342.75 L142.573878,291.75 L143.323878,291.75 Z M144.823878,291.75 L144.823878,342.75 L144.073878,342.75 L144.073878,291.75 L144.823878,291.75 Z M148.573878,291.75 L148.573878,342.75 L146.323878,342.75 L146.323878,291.75 L148.573878,291.75 Z M150.073878,291.75 L150.073878,342.75 L149.323878,342.75 L149.323878,291.75 L150.073878,291.75 Z M153.823878,291.75 L153.823878,342.75 L151.573878,342.75 L151.573878,291.75 L153.823878,291.75 Z M156.823878,291.75 L156.823878,342.75 L156.073878,342.75 L156.073878,291.75 L156.823878,291.75 Z M160.573878,291.75 L160.573878,342.75 L159.823878,342.75 L159.823878,291.75 L160.573878,291.75 Z M162.823878,291.75 L162.823878,342.75 L161.323878,342.75 L161.323878,291.75 L162.823878,291.75 Z M164.323878,291.75 L164.323878,342.75 L163.573878,342.75 L163.573878,291.75 L164.323878,291.75 Z M168.823878,291.75 L168.823878,342.75 L166.573878,342.75 L166.573878,291.75 L168.823878,291.75 Z M171.073878,291.75 L171.073878,342.75 L170.323878,342.75 L170.323878,291.75 L171.073878,291.75 Z M175.573878,291.75 L175.573878,342.75 L173.323878,342.75 L173.323878,291.75 L175.573878,291.75 Z M178.573878,291.75 L178.573878,342.75 L176.323878,342.75 L176.323878,291.75 L178.573878,291.75 Z M181.573878,291.75 L181.573878,342.75 L180.073878,342.75 L180.073878,291.75 L181.573878,291.75 Z M185.323878,291.75 L185.323878,342.75 L184.573878,342.75 L184.573878,291.75 L185.323878,291.75 Z M189.073878,291.75 L189.073878,342.75 L186.823878,342.75 L186.823878,291.75 L189.073878,291.75 Z M190.573878,291.75 L190.573878,342.75 L189.823878,342.75 L189.823878,291.75 L190.573878,291.75 Z M192.073878,291.75 L192.073878,342.75 L191.323878,342.75 L191.323878,291.75 L192.073878,291.75 Z M194.323878,291.75 L194.323878,342.75 L192.823878,342.75 L192.823878,291.75 L194.323878,291.75 Z M195.823878,291.75 L195.823878,342.75 L195.073878,342.75 L195.073878,291.75 L195.823878,291.75 Z M199.573878,291.75 L199.573878,342.75 L198.073878,342.75 L198.073878,291.75 L199.573878,291.75 Z M201.823878,291.75 L201.823878,342.75 L200.323878,342.75 L200.323878,291.75 L201.823878,291.75 Z M204.823878,291.75 L204.823878,342.75 L202.573878,342.75 L202.573878,291.75 L204.823878,291.75 Z M207.073878,291.75 L207.073878,342.75 L205.573878,342.75 L205.573878,291.75 L207.073878,291.75 Z M210.823878,291.75 L210.823878,342.75 L207.823878,342.75 L207.823878,291.75 L210.823878,291.75 Z M213.823878,291.75 L213.823878,342.75 L212.323878,342.75 L212.323878,291.75 L213.823878,291.75 Z M217.573878,291.75 L217.573878,342.75 L215.323878,342.75 L215.323878,291.75 L217.573878,291.75 Z M218.323878,342.75 L218.323878,291.75 L220.573878,291.75 L220.573878,342.75 L218.323878,342.75 Z" id="Combined-Shape" fill="#000000" fill-rule="nonzero"></path>
            <text id="rehanbutt.com/radiology" fill="#000000" transform="translate(5.125000, 333.750000) rotate(-270.000000) translate(-5.125000, -333.750000) " font-family="Helvetica" font-size="6" font-weight="normal">
                <tspan x="-37.25" y="336.25">rehanbutt.com/radiology</tspan>
            </text>
            <path d="M24.5631355,23.5 L24.5631355,10.703125 L28.1314948,10.703125 C29.3385321,10.703125 30.2804172,10.9902315 30.9571784,11.5644531 C31.6339396,12.1386747 31.9723152,12.9999943 31.9723152,14.1484375 C31.9723152,14.7578155 31.8185081,15.2954078 31.5108894,15.7612305 C31.2032707,16.2270531 30.7770054,16.5683583 30.2320808,16.7851562 C30.9234905,16.9375008 31.4552235,17.2993135 31.8272956,17.8706055 C32.1993678,18.4418974 32.3854011,19.1113243 32.3854011,19.8789062 C32.3854011,21.0566465 32.0528849,21.9545868 31.3878425,22.5727539 C30.7228001,23.1909211 29.8043523,23.5 28.6324714,23.5 L24.5631355,23.5 Z M26.3473152,17.5322266 L26.3473152,22.1464844 L28.6324714,22.1464844 C29.2652871,22.1464844 29.7530752,21.9516621 30.0958503,21.5620117 C30.4386255,21.1723613 30.6100105,20.6142614 30.6100105,19.8876953 C30.6100105,19.1669886 30.4635276,18.5942404 30.1705573,18.1694336 C29.8775871,17.7446268 29.4264198,17.5322266 28.8170417,17.5322266 L26.3473152,17.5322266 Z M26.3473152,16.2490234 L28.3072761,16.2490234 C28.8932165,16.2490234 29.3531729,16.0717791 29.6871589,15.7172852 C30.021145,15.3627912 30.1881355,14.8515658 30.1881355,14.1835938 C30.1881355,13.4804652 30.0138208,12.9531268 29.6651863,12.6015625 C29.3165517,12.2499982 28.8053263,12.0742188 28.1314948,12.0742188 L26.3473152,12.0742188 L26.3473152,16.2490234 Z M42.5767761,10.703125 L42.5767761,19.5712891 C42.5767761,20.8955144 42.1973854,21.9121058 41.4385925,22.6210938 C40.6797996,23.3300817 39.6881103,23.6845703 38.4634948,23.6845703 C37.2564576,23.6845703 36.2808814,23.3300817 35.536737,22.6210938 C34.7925927,21.9121058 34.4205261,20.8955144 34.4205261,19.5712891 L34.4205261,10.703125 L36.1871277,10.703125 L36.1871277,19.5712891 C36.1871277,20.4853561 36.3922037,21.1738258 36.802362,21.6367188 C37.2125203,22.0996117 37.7662257,22.3310547 38.4634948,22.3310547 C39.190061,22.3310547 39.7613443,22.1084007 40.177362,21.6630859 C40.5933797,21.2177712 40.8013855,20.5205126 40.8013855,19.5712891 L40.8013855,10.703125 L42.5767761,10.703125 Z M52.4429558,12.0742188 L49.1558464,12.0742188 L49.1558464,23.5 L47.3716667,23.5 L47.3716667,12.0742188 L44.1021355,12.0742188 L44.1021355,10.703125 L52.4429558,10.703125 L52.4429558,12.0742188 Z M61.7378464,12.0742188 L58.450737,12.0742188 L58.450737,23.5 L56.6665573,23.5 L56.6665573,12.0742188 L53.3970261,12.0742188 L53.3970261,10.703125 L61.7378464,10.703125 L61.7378464,12.0742188 Z M62.9731667,23.2890625 L61.8569558,25.8818359 L60.7934792,25.8818359 L61.3120339,23.2275391 L61.3120339,21.6191406 L62.9731667,21.6191406 L62.9731667,23.2890625 Z M71.1742761,17.9892578 L71.1742761,23.5 L69.3900964,23.5 L69.3900964,10.7119141 L73.3715417,10.7119141 C74.5844384,10.7119141 75.521929,11.0253875 76.1840417,11.6523438 C76.8461544,12.2793 77.1772058,13.1787051 77.1772058,14.3505859 C77.1772058,15.018558 77.0233987,15.60156 76.71578,16.0996094 C76.4081612,16.5976587 75.964318,16.9873033 75.384237,17.2685547 C76.0229121,17.4853526 76.4843332,17.8530248 76.7685143,18.371582 C77.0526955,18.8901393 77.1947839,19.5302696 77.1947839,20.2919922 L77.1947839,21.4082031 C77.1947839,21.8007832 77.2343343,22.1655257 77.3134362,22.5024414 C77.3925382,22.8393572 77.5287673,23.1044912 77.7221276,23.2978516 L77.7221276,23.5 L75.8852136,23.5 C75.6859938,23.3066397 75.5585537,23.0151387 75.5028893,22.6254883 C75.447225,22.2358379 75.4193933,21.8242209 75.4193933,21.390625 L75.4193933,20.3095703 C75.4193933,19.594723 75.2567972,19.029299 74.9316003,18.6132812 C74.6064033,18.1972635 74.1596305,17.9892578 73.5912683,17.9892578 L71.1742761,17.9892578 Z M71.1742761,16.6269531 L73.2836511,16.6269531 C74.0043578,16.6269531 74.5360908,16.4321309 74.8788659,16.0424805 C75.2216411,15.6528301 75.3930261,15.1005895 75.3930261,14.3857422 C75.3930261,13.6533167 75.2260355,13.084963 74.8920495,12.6806641 C74.5580635,12.2763652 74.0512326,12.0742188 73.3715417,12.0742188 L71.1742761,12.0742188 L71.1742761,16.6269531 Z M86.3402604,17.5585938 L81.5941667,17.5585938 L81.5941667,22.1464844 L87.0961198,22.1464844 L87.0961198,23.5 L79.809987,23.5 L79.809987,10.703125 L87.0433854,10.703125 L87.0433854,12.0742188 L81.5941667,12.0742188 L81.5941667,16.1962891 L86.3402604,16.1962891 L86.3402604,17.5585938 Z M97.4281198,23.5 L95.6527292,23.5 L95.6527292,17.8574219 L90.7484323,17.8574219 L90.7484323,23.5 L88.9642526,23.5 L88.9642526,10.703125 L90.7484323,10.703125 L90.7484323,16.4951172 L95.6527292,16.4951172 L95.6527292,10.703125 L97.4281198,10.703125 L97.4281198,23.5 Z M106.098987,20.265625 L102.020862,20.265625 L101.089221,23.5 L99.2786745,23.5 L103.216174,10.703125 L104.938831,10.703125 L108.841174,23.5 L107.030628,23.5 L106.098987,20.265625 Z M102.433948,18.8505859 L105.69469,18.8505859 L104.095081,13.2607422 L104.042346,13.2607422 L102.433948,18.8505859 Z M118.944659,23.5 L117.169268,23.5 L112.317706,13.9814453 L112.264971,13.9990234 L112.264971,23.5 L110.480792,23.5 L110.480792,10.703125 L112.264971,10.703125 L117.116534,20.1953125 L117.169268,20.1777344 L117.169268,10.703125 L118.944659,10.703125 L118.944659,23.5 Z" id="BUTT,REHAN" fill="#000000" fill-rule="nonzero"></path>
            <rect id="Rectangle" fill="#000000" x="19.5738777" y="168" width="192" height="73.5"></rect>
            <path d="M71.2682136,214.766602 C71.2682136,222.266639 69.2321011,228.125955 65.1598152,232.344727 C61.0875292,236.563498 55.6676615,238.672852 48.9000495,238.672852 C42.1324376,238.672852 36.7272182,236.563498 32.6842292,232.344727 C28.6412403,228.125955 26.6197761,222.266639 26.6197761,214.766602 L26.6197761,196.836914 C26.6197761,189.366174 28.6412403,183.499533 32.6842292,179.236816 C36.7272182,174.9741 42.1177893,172.842773 48.8561042,172.842773 C55.5944192,172.842773 61.0142868,174.9741 65.1158698,179.236816 C69.2174529,183.499533 71.2682136,189.366174 71.2682136,196.836914 L71.2682136,214.766602 Z M58.8316902,196.749023 C58.8316902,192.178688 57.9820893,188.729016 56.282862,186.399902 C54.5836348,184.070789 52.1080736,182.90625 48.8561042,182.90625 C45.5748378,182.90625 43.1139249,184.063465 41.4732917,186.37793 C39.8326585,188.692394 39.0123542,192.149391 39.0123542,196.749023 L39.0123542,214.766602 C39.0123542,219.395531 39.8473068,222.867176 41.517237,225.181641 C43.1871673,227.496105 45.6480801,228.65332 48.9000495,228.65332 C52.1227219,228.65332 54.5836348,227.496105 56.282862,225.181641 C57.9820893,222.867176 58.8316902,219.395531 58.8316902,214.766602 L58.8316902,196.749023 Z M94.1725105,212.305664 L94.1725105,237.75 L81.6920417,237.75 L81.6920417,173.80957 L102.566065,173.80957 C108.864925,173.80957 113.808723,175.472151 117.397608,178.797363 C120.986493,182.122575 122.780909,186.744111 122.780909,192.662109 C122.780909,196.00197 122.033846,198.880359 120.539698,201.297363 C119.04555,203.714368 116.862955,205.640618 113.991846,207.076172 C117.273113,208.189459 119.638812,210.035143 121.089014,212.613281 C122.539217,215.191419 123.264307,218.414043 123.264307,222.28125 L123.264307,226.807617 C123.264307,228.565438 123.469383,230.447744 123.879542,232.45459 C124.2897,234.461436 125.007466,235.918941 126.032862,236.827148 L126.032862,237.75 L113.11294,237.75 C112.087544,236.812495 111.44302,235.289073 111.179346,233.179688 C110.915673,231.070302 110.783839,228.917003 110.783839,226.719727 L110.783839,222.369141 C110.783839,219.175765 110.13199,216.700204 108.828272,214.942383 C107.524555,213.184562 105.656898,212.305664 103.225245,212.305664 L94.1725105,212.305664 Z M94.1725105,202.330078 L102.52212,202.330078 C105.070961,202.330078 107.004535,201.553719 108.322901,200.000977 C109.641267,198.448234 110.30044,196.236342 110.30044,193.365234 C110.30044,190.435532 109.641267,188.106454 108.322901,186.37793 C107.004535,184.649405 105.085609,183.785156 102.566065,183.785156 L94.1725105,183.785156 L94.1725105,202.330078 Z M154.298487,173.765625 C160.86102,173.765625 166.280888,176.24851 170.558253,181.214355 C174.835618,186.180201 176.974268,192.57418 176.974268,200.396484 L176.974268,211.163086 C176.974268,218.985391 174.835618,225.372046 170.558253,230.323242 C166.280888,235.274439 160.86102,237.75 154.298487,237.75 L134.96255,237.75 L134.96255,173.765625 L154.298487,173.765625 Z M153.595362,183.785156 L147.486964,183.785156 L147.486964,227.774414 L153.595362,227.774414 C157.081708,227.774414 159.769669,226.258316 161.659327,223.226074 C163.548985,220.193832 164.4938,216.172877 164.4938,211.163086 L164.4938,211.163086 L164.4938,200.308594 C164.4938,195.3281 163.548985,191.329117 161.659327,188.311523 C159.769669,185.29393 157.081708,183.785156 153.595362,183.785156 L153.595362,183.785156 Z" id="ORD" fill="#FFFFFF" fill-rule="nonzero"></path>
            <path d="M9.20019531,171.116211 L5.62304688,171.116211 L5.62304688,182.981445 L4.56835938,182.981445 L4.56835938,171.116211 L1,171.116211 L1,170.18457 L9.20019531,170.18457 L9.20019531,171.116211 Z M14.4345391,170 C15.694311,170 16.6874651,170.413082 17.4140312,171.239258 C18.1405974,172.065434 18.503875,173.251945 18.503875,174.798828 L18.503875,178.384766 C18.503875,179.937508 18.1420622,181.122555 17.4184258,181.939941 C16.6947893,182.757328 15.7031,183.166016 14.4433281,183.166016 C13.2069938,183.166016 12.2358121,182.757328 11.5297539,181.939941 C10.8236957,181.122555 10.4706719,179.937508 10.4706719,178.384766 L10.4706719,174.798828 C10.4706719,173.246086 10.8222309,172.05811 11.5253594,171.234863 C12.2284879,170.411617 13.1982048,170 14.4345391,170 Z M14.4345391,170.958008 C13.491175,170.958008 12.7675494,171.277341 12.2636406,171.916016 C11.7597319,172.554691 11.5077812,173.50683 11.5077812,174.772461 L11.5077812,174.772461 L11.5077812,178.384766 C11.5077812,179.667975 11.7597319,180.628903 12.2636406,181.267578 C12.7675494,181.906253 13.4941046,182.225586 14.4433281,182.225586 C15.4159892,182.225586 16.1615872,181.906253 16.6801445,181.267578 C17.1987018,180.628903 17.4579766,179.667975 17.4579766,178.384766 L17.4579766,178.384766 L17.4579766,174.772461 C17.4579766,173.50683 17.197237,172.554691 16.67575,171.916016 C16.154263,171.277341 15.4072002,170.958008 14.4345391,170.958008 Z" id="TO" fill="#000000" fill-rule="nonzero" transform="translate(9.751937, 176.583008) rotate(-90.000000) translate(-9.751937, -176.583008) "></path>
            <path d="M40.6822761,110.560547 L40.6822761,133.5 L28.157862,133.5 L28.157862,69.515625 L50.3941902,69.515625 C56.7809408,69.515625 61.819953,71.4052545 65.5113777,75.1845703 C69.2028024,78.9638861 71.048487,83.9150084 71.048487,90.0380859 C71.048487,96.1904604 69.1954782,101.148907 65.489405,104.913574 C61.7833318,108.678241 56.7516438,110.560547 50.3941902,110.560547 L40.6822761,110.560547 Z M40.6822761,100.541016 L50.3941902,100.541016 C53.0602191,100.541016 55.0963316,99.5595801 56.5025886,97.5966797 C57.9088456,95.6337792 58.6119636,93.1435698 58.6119636,90.1259766 C58.6119636,87.0790863 57.9161698,84.5522561 56.5245613,82.5454102 C55.1329527,80.5385642 53.0895161,79.5351562 50.3941902,79.5351562 L40.6822761,79.5351562 L40.6822761,100.541016 Z M94.392237,133.5 L81.9557136,133.5 L81.9557136,69.515625 L94.392237,69.515625 L94.392237,133.5 Z M143.40005,79.5351562 L128.985987,79.5351562 L128.985987,133.5 L116.505518,133.5 L116.505518,79.5351562 L102.179346,79.5351562 L102.179346,69.515625 L143.40005,69.515625 L143.40005,79.5351562 Z" id="PIT" fill="#000000" fill-rule="nonzero"></path>
            <path d="M30.4781745,43.1992188 L25.8111823,43.1992188 L24.7213386,46.75 L23.6314948,46.75 L27.6832527,33.953125 L28.6412605,33.953125 L32.649073,46.75 L31.5592292,46.75 L30.4781745,43.1992188 Z M26.1100105,42.2324219 L30.1881355,42.2324219 L28.1842292,35.6494141 L28.1314948,35.6494141 L26.1100105,42.2324219 Z M35.0357605,45.8359375 L41.1881042,45.8359375 L41.1881042,46.75 L33.9195495,46.75 L33.9195495,45.9150391 L39.8170105,34.8759766 L34.0601745,34.8759766 L34.0601745,33.953125 L40.9595886,33.953125 L40.9595886,34.7441406 L35.0357605,45.8359375 Z M45.0952995,39.7714844 L46.1851433,39.7714844 C46.9117094,39.7714844 47.4522313,39.542971 47.8067253,39.0859375 C48.1612193,38.628904 48.3384636,38.0312537 48.3384636,37.2929688 C48.3384636,36.4960898 48.1626841,35.8647484 47.8111198,35.3989258 C47.4595556,34.9331031 46.9410061,34.7001953 46.2554558,34.7001953 C45.6109213,34.7001953 45.0879773,34.9374976 44.6866081,35.4121094 C44.2852389,35.8867211 44.0845573,36.5165976 44.0845573,37.3017578 L43.1001823,37.3017578 L43.0826042,37.2578125 C43.0591666,36.2558544 43.3462731,35.4238314 43.9439323,34.7617188 C44.5415916,34.0996061 45.3120917,33.7685547 46.2554558,33.7685547 C47.2105387,33.7685547 47.9722498,34.0820281 48.540612,34.7089844 C49.1089742,35.3359406 49.3931511,36.2089788 49.3931511,37.328125 C49.3931511,37.9316436 49.2437385,38.4970677 48.9449089,39.0244141 C48.6460793,39.5517604 48.2183492,39.9443346 47.6617058,40.2021484 C48.3238185,40.4248058 48.8101417,40.8056614 49.1206901,41.3447266 C49.4312386,41.8837918 49.5865105,42.5253869 49.5865105,43.2695312 C49.5865105,44.4121151 49.2774315,45.3085905 48.6592644,45.9589844 C48.0410972,46.6093783 47.2486247,46.9345703 46.281823,46.9345703 C45.3325995,46.9345703 44.5328028,46.6181672 43.8824089,45.9853516 C43.232015,45.3525359 42.9185416,44.4677791 42.9419792,43.3310547 L42.9683464,43.2871094 L43.9527214,43.2871094 C43.9527214,44.1015666 44.1665864,44.7607397 44.594323,45.2646484 C45.0220595,45.7685547 45.5845538,46.0205078 46.281823,46.0205078 C46.9849515,46.0205078 47.5342624,45.7861352 47.9297722,45.3173828 C48.325282,44.8486305 48.5230339,44.1777387 48.5230339,43.3046875 C48.5230339,42.414058 48.325282,41.7563498 47.9297722,41.331543 C47.5342624,40.9067362 46.9527252,40.6943359 46.1851433,40.6943359 L45.0952995,40.6943359 L45.0952995,39.7714844 Z M53.7749558,39.7714844 L54.8647995,39.7714844 C55.5913656,39.7714844 56.1318876,39.542971 56.4863815,39.0859375 C56.8408755,38.628904 57.0181198,38.0312537 57.0181198,37.2929688 C57.0181198,36.4960898 56.8423403,35.8647484 56.4907761,35.3989258 C56.1392118,34.9331031 55.6206623,34.7001953 54.935112,34.7001953 C54.2905775,34.7001953 53.7676336,34.9374976 53.3662644,35.4121094 C52.9648952,35.8867211 52.7642136,36.5165976 52.7642136,37.3017578 L51.7798386,37.3017578 L51.7622605,37.2578125 C51.7388228,36.2558544 52.0259293,35.4238314 52.6235886,34.7617188 C53.2212478,34.0996061 53.9917479,33.7685547 54.935112,33.7685547 C55.8901949,33.7685547 56.6519061,34.0820281 57.2202683,34.7089844 C57.7886305,35.3359406 58.0728073,36.2089788 58.0728073,37.328125 C58.0728073,37.9316436 57.9233948,38.4970677 57.6245651,39.0244141 C57.3257355,39.5517604 56.8980054,39.9443346 56.341362,40.2021484 C57.0034747,40.4248058 57.489798,40.8056614 57.8003464,41.3447266 C58.1108948,41.8837918 58.2661667,42.5253869 58.2661667,43.2695312 C58.2661667,44.4121151 57.9570878,45.3085905 57.3389206,45.9589844 C56.7207535,46.6093783 55.9282809,46.9345703 54.9614792,46.9345703 C54.0122557,46.9345703 53.212459,46.6181672 52.5620651,45.9853516 C51.9116713,45.3525359 51.5981978,44.4677791 51.6216355,43.3310547 L51.6480026,43.2871094 L52.6323776,43.2871094 C52.6323776,44.1015666 52.8462427,44.7607397 53.2739792,45.2646484 C53.7017157,45.7685547 54.2642101,46.0205078 54.9614792,46.0205078 C55.6646077,46.0205078 56.2139186,45.7861352 56.6094284,45.3173828 C57.0049382,44.8486305 57.2026901,44.1777387 57.2026901,43.3046875 C57.2026901,42.414058 57.0049382,41.7563498 56.6094284,41.331543 C56.2139186,40.9067362 55.6323815,40.6943359 54.8647995,40.6943359 L53.7749558,40.6943359 L53.7749558,39.7714844 Z M67.1919167,46.75 L60.5034401,46.75 L60.5034401,45.9238281 L63.9751198,41.1777344 C64.6079355,40.3105425 65.0517787,39.5854521 65.3066628,39.0024414 C65.5615469,38.4194307 65.688987,37.8554715 65.688987,37.3105469 C65.688987,36.5253867 65.5117427,35.8940454 65.1572487,35.4165039 C64.8027548,34.9389625 64.3149667,34.7001953 63.6938698,34.7001953 C62.9145691,34.7001953 62.3271726,34.9653294 61.9316628,35.4956055 C61.536153,36.0258816 61.3384011,36.742183 61.3384011,37.6445312 L60.345237,37.6445312 L60.3276589,37.6005859 C60.3042213,36.5224555 60.5957223,35.6142615 61.2021706,34.8759766 C61.808619,34.1376916 62.6391771,33.7685547 63.6938698,33.7685547 C64.6196557,33.7685547 65.3593944,34.0864226 65.9131081,34.722168 C66.4668218,35.3579133 66.7436745,36.208979 66.7436745,37.2753906 C66.7436745,37.9843785 66.5635005,38.7036096 66.2031472,39.4331055 C65.887838,40.0714143 65.4659895,40.7624258 64.9375917,41.5061558 L61.7866433,45.8359375 L67.1919167,45.8359375 L67.1919167,46.75 Z M73.2260651,46.8027344 L72.1713776,46.8027344 L72.1713776,35.0957031 L69.5434479,35.4560547 L69.5434479,34.7001953 L73.2260651,33.9267578 L73.2260651,46.8027344 Z" id="AZ3321" fill="#000000" fill-rule="nonzero"></path>
            <path d="M25.8199714,149.450195 L25.8199714,154.75 L24.7652839,154.75 L24.7652839,141.953125 L28.5533698,141.953125 C29.6725161,141.953125 30.5396949,142.295895 31.1549323,142.981445 C31.7701698,143.666996 32.0777839,144.57226 32.0777839,145.697266 C32.0777839,146.83399 31.7701698,147.743649 31.1549323,148.42627 C30.5396949,149.10889 29.6725161,149.450195 28.5533698,149.450195 L25.8199714,149.450195 Z M25.8199714,148.527344 L28.5533698,148.527344 C29.3736864,148.527344 29.9889147,148.25928 30.399073,147.723145 C30.8092313,147.187009 31.0143073,146.517582 31.0143073,145.714844 C31.0143073,144.900387 30.8092313,144.2251 30.399073,143.688965 C29.9889147,143.152829 29.3736864,142.884766 28.5533698,142.884766 L25.8199714,142.884766 L25.8199714,148.527344 Z M35.677362,154.75 L34.6138855,154.75 L34.6138855,141.953125 L35.677362,141.953125 L35.677362,154.75 Z M45.8072136,142.884766 L42.2300651,142.884766 L42.2300651,154.75 L41.1753776,154.75 L41.1753776,142.884766 L37.6070183,142.884766 L37.6070183,141.953125 L45.8072136,141.953125 L45.8072136,142.884766 Z M55.1196823,142.884766 L51.5425339,142.884766 L51.5425339,154.75 L50.4878464,154.75 L50.4878464,142.884766 L46.919487,142.884766 L46.919487,141.953125 L55.1196823,141.953125 L55.1196823,142.884766 Z M62.9731667,151.612305 C62.9731667,150.915036 62.7695555,150.348147 62.3623269,149.911621 C61.9550983,149.475095 61.2387968,149.089845 60.2134011,148.755859 C59.0473796,148.398436 58.1640877,147.937015 57.5634987,147.371582 C56.9629098,146.80615 56.6626198,146.048833 56.6626198,145.099609 C56.6626198,144.121089 56.9980657,143.321292 57.6689675,142.700195 C58.3398693,142.079098 59.2055833,141.768555 60.2661354,141.768555 C61.3794223,141.768555 62.2744328,142.134762 62.951194,142.867188 C63.6279552,143.599613 63.9575418,144.493159 63.9399636,145.547852 L63.9135964,145.600586 L62.9204323,145.600586 C62.9204323,144.750972 62.6845948,144.055178 62.2129128,143.513184 C61.7412307,142.971189 61.0923115,142.700195 60.2661354,142.700195 C59.4633971,142.700195 58.8393799,142.925779 58.3940651,143.376953 C57.9487504,143.828127 57.7260964,144.393551 57.7260964,145.073242 C57.7260964,145.706058 57.9414263,146.237791 58.3720925,146.668457 C58.7636072,147.059972 59.4032902,147.406689 60.2911577,147.708617 L60.5649636,147.797852 C61.701688,148.149416 62.5644723,148.625485 63.1533425,149.226074 C63.7422126,149.826663 64.0366433,150.616206 64.0366433,151.594727 C64.0366433,152.620122 63.6894788,153.433102 62.9951394,154.033691 C62.3007999,154.63428 61.408719,154.93457 60.3188698,154.93457 C59.2465988,154.93457 58.3135027,154.612308 57.5195534,153.967773 C56.7256041,153.323239 56.3432837,152.388678 56.3725808,151.164062 L56.3901589,151.111328 L57.3745339,151.111328 C57.3745339,152.107427 57.6631052,152.841306 58.2402565,153.312988 C58.8174079,153.78467 59.510272,154.020508 60.3188698,154.020508 C61.1157488,154.020508 61.757344,153.800783 62.2436745,153.361328 C62.7300051,152.921873 62.9731667,152.338871 62.9731667,151.612305 Z M66.3969636,154.75 L66.3969636,141.953125 L69.6137604,141.953125 C70.7153285,141.953125 71.576648,142.234372 72.1977448,142.796875 C72.8188417,143.359378 73.1293854,144.203119 73.1293854,145.328125 C73.1293854,145.972659 72.9682542,146.536619 72.645987,147.02002 C72.3237198,147.50342 71.8959897,147.841796 71.3627839,148.035156 C72.0248966,148.169923 72.5580944,148.5332 72.9623933,149.125 C73.3666922,149.7168 73.5688386,150.40527 73.5688386,151.19043 C73.5688386,152.338873 73.2597596,153.219235 72.6415925,153.831543 C72.0234253,154.443851 71.1899376,154.75 70.1411042,154.75 L66.3969636,154.75 Z M67.4516511,148.588867 L67.4516511,153.835938 L70.1411042,153.835938 C70.8852485,153.835938 71.4667857,153.605959 71.8857331,153.145996 C72.3046805,152.686033 72.5141511,152.040043 72.5141511,151.208008 C72.5141511,150.434566 72.3281178,149.80469 71.9560456,149.318359 C71.5839734,148.832029 71.0346625,148.588867 70.3080964,148.588867 L67.4516511,148.588867 Z M67.4516511,147.683594 L69.9477448,147.683594 C70.6098575,147.666016 71.128407,147.453615 71.5034089,147.046387 C71.8784108,146.639158 72.0659089,146.054691 72.0659089,145.292969 C72.0659089,144.49609 71.8564383,143.89551 71.4374909,143.491211 C71.0185435,143.086912 70.4106394,142.884766 69.6137604,142.884766 L67.4516511,142.884766 L67.4516511,147.683594 Z M83.3119714,141.953125 L83.3119714,150.90918 C83.3119714,152.215827 82.9633421,153.213375 82.2660729,153.901855 C81.5688038,154.590335 80.6606098,154.93457 79.5414636,154.93457 C78.445755,154.93457 77.5580685,154.590335 76.8783776,153.901855 C76.1986867,153.213375 75.8588464,152.215827 75.8588464,150.90918 L75.8588464,141.953125 L76.8959558,141.953125 L76.8959558,150.90918 C76.8959558,151.911138 77.1405822,152.680173 77.6298425,153.216309 C78.1191027,153.752444 78.7563034,154.020508 79.5414636,154.020508 C80.3676396,154.020508 81.0282775,153.764163 81.5233972,153.251465 C82.0185168,152.738767 82.2660729,151.958013 82.2660729,150.90918 L82.2660729,141.953125 L83.3119714,141.953125 Z M87.1752214,148.975586 L87.1752214,154.75 L86.1205339,154.75 L86.1205339,141.961914 L89.794362,141.961914 C90.9428052,141.961914 91.8217027,142.263669 92.4310807,142.867188 C93.0404588,143.470706 93.3451432,144.349604 93.3451432,145.503906 C93.3451432,146.183597 93.184012,146.788572 92.8617448,147.318848 C92.5394776,147.849124 92.0824509,148.240233 91.4906511,148.492188 C92.1410449,148.691407 92.6083254,149.048826 92.8925065,149.564453 C93.1766876,150.080081 93.3187761,150.721676 93.3187761,151.489258 L93.3187761,152.693359 C93.3187761,153.091799 93.3568616,153.449217 93.4330339,153.765625 C93.5092061,154.082033 93.6381111,154.339843 93.8197526,154.539062 L93.8197526,154.75 L92.7386979,154.75 C92.5570564,154.539061 92.4325459,154.246096 92.3651628,153.871094 C92.2977796,153.496092 92.2640886,153.097658 92.2640886,152.675781 L92.2640886,151.506836 C92.2640886,150.733395 92.0678015,150.118166 91.6752214,149.661133 C91.2826413,149.204099 90.7435842,148.975586 90.0580339,148.975586 L87.1752214,148.975586 Z M87.1752214,148.061523 L89.6713151,148.061523 C90.5736634,148.061523 91.2343013,147.831545 91.6532487,147.371582 C92.0721961,146.911619 92.2816667,146.286137 92.2816667,145.495117 C92.2816667,144.657222 92.0765906,144.012698 91.6664323,143.561523 C91.256274,143.110349 90.6322568,142.884766 89.794362,142.884766 L87.1752214,142.884766 L87.1752214,148.061523 Z M103.949604,153.009766 C103.715228,153.490237 103.283103,153.93115 102.653217,154.33252 C102.023331,154.733889 101.22207,154.93457 100.249409,154.93457 C98.9661993,154.93457 97.9334948,154.527348 97.1512643,153.712891 C96.3690339,152.898433 95.9779245,151.7295 95.9779245,150.206055 L95.9779245,146.400391 C95.9779245,144.906243 96.3470614,143.760746 97.0853464,142.963867 C97.8236313,142.166988 98.8109261,141.768555 100.04726,141.768555 C101.254298,141.768555 102.188859,142.083493 102.850971,142.713379 C103.513084,143.343265 103.858784,144.220697 103.888081,145.345703 L103.870503,145.398438 L102.886128,145.398438 C102.850971,144.537105 102.599021,143.872073 102.130268,143.40332 C101.661516,142.934568 100.967187,142.700195 100.04726,142.700195 C99.1156151,142.700195 98.3802709,143.015134 97.8412057,143.64502 C97.3021405,144.274905 97.032612,145.187494 97.032612,146.382812 L97.032612,150.206055 C97.032612,151.448248 97.3226482,152.394528 97.9027292,153.044922 C98.4828102,153.695316 99.2650289,154.020508 100.249409,154.020508 C100.970116,154.020508 101.547258,153.891603 101.980854,153.633789 C102.41445,153.375975 102.716205,153.062502 102.886128,152.693359 L102.886128,149.371094 L100.231831,149.371094 L100.231831,148.448242 L103.949604,148.448242 L103.949604,153.009766 Z M114.870471,154.75 L113.824573,154.75 L113.824573,148.870117 L108.076526,148.870117 L108.076526,154.75 L107.021839,154.75 L107.021839,141.953125 L108.076526,141.953125 L108.076526,147.956055 L113.824573,147.956055 L113.824573,141.953125 L114.870471,141.953125 L114.870471,154.75 Z" id="PITTSBURGH" fill="#000000" fill-rule="nonzero"></path>
            <path d="M31.7525886,255.282227 L31.7789558,255.334961 C31.767237,256.583014 31.4391153,257.536618 30.7945808,258.195801 C30.1500463,258.854984 29.2623599,259.18457 28.1314948,259.18457 C26.9537546,259.18457 26.0191936,258.768559 25.3277839,257.936523 C24.6363742,257.104488 24.2906745,255.917976 24.2906745,254.376953 L24.2906745,250.834961 C24.2906745,249.305656 24.637839,248.12061 25.3321784,247.279785 C26.0265178,246.438961 26.959614,246.018555 28.1314948,246.018555 C29.2740787,246.018555 30.1646948,246.340817 30.8033698,246.985352 C31.4420449,247.629886 31.767237,248.590814 31.7789558,249.868164 L31.7525886,249.920898 L30.7770027,249.920898 C30.7477056,248.907221 30.513333,248.158694 30.0738777,247.675293 C29.6344223,247.191892 28.9869679,246.950195 28.1314948,246.950195 C27.2525842,246.950195 26.5670442,247.281247 26.0748542,247.943359 C25.5826643,248.605472 25.336573,249.560541 25.336573,250.808594 L25.336573,254.376953 C25.336573,255.648444 25.5826643,256.615231 26.0748542,257.277344 C26.5670442,257.939456 27.2525842,258.270508 28.1314948,258.270508 C28.9869679,258.270508 29.6344223,258.03467 30.0738777,257.562988 C30.513333,257.091306 30.7477056,256.33106 30.7770027,255.282227 L31.7525886,255.282227 Z M42.1549011,259 L41.1090027,259 L41.1090027,253.120117 L35.3609558,253.120117 L35.3609558,259 L34.3062683,259 L34.3062683,246.203125 L35.3609558,246.203125 L35.3609558,252.206055 L41.1090027,252.206055 L41.1090027,246.203125 L42.1549011,246.203125 L42.1549011,259 Z M46.4576042,259 L45.3941276,259 L45.3941276,246.203125 L46.4576042,246.203125 L46.4576042,259 Z M56.6929245,255.282227 L56.7192917,255.334961 C56.7075729,256.583014 56.3794512,257.536618 55.7349167,258.195801 C55.0903822,258.854984 54.2026958,259.18457 53.0718308,259.18457 C51.8940905,259.18457 50.9595295,258.768559 50.2681198,257.936523 C49.5767101,257.104488 49.2310105,255.917976 49.2310105,254.376953 L49.2310105,250.834961 C49.2310105,249.305656 49.578175,248.12061 50.2725144,247.279785 C50.9668538,246.438961 51.8999499,246.018555 53.0718308,246.018555 C54.2144146,246.018555 55.1050307,246.340817 55.7437058,246.985352 C56.3823808,247.629886 56.7075729,248.590814 56.7192917,249.868164 L56.6929245,249.920898 L55.7173386,249.920898 C55.6880416,248.907221 55.4536689,248.158694 55.0142136,247.675293 C54.5747583,247.191892 53.9273038,246.950195 53.0718308,246.950195 C52.1929201,246.950195 51.5073801,247.281247 51.0151901,247.943359 C50.5230002,248.605472 50.2769089,249.560541 50.2769089,250.808594 L50.2769089,254.376953 C50.2769089,255.648444 50.5230002,256.615231 51.0151901,257.277344 C51.5073801,257.939456 52.1929201,258.270508 53.0718308,258.270508 C53.9273038,258.270508 54.5747583,258.03467 55.0142136,257.562988 C55.4536689,257.091306 55.6880416,256.33106 55.7173386,255.282227 L56.6929245,255.282227 Z M64.9594948,255.449219 L60.2925026,255.449219 L59.2026589,259 L58.1128151,259 L62.1645729,246.203125 L63.1225808,246.203125 L67.1303933,259 L66.0405495,259 L64.9594948,255.449219 Z M60.5913308,254.482422 L64.6694558,254.482422 L62.6655495,247.899414 L62.6128151,247.899414 L60.5913308,254.482422 Z M76.6010651,257.259766 C76.366689,257.740237 75.9345644,258.18115 75.3046784,258.58252 C74.6747925,258.983889 73.8735309,259.18457 72.9008698,259.18457 C71.6176603,259.18457 70.5849558,258.777348 69.8027253,257.962891 C69.0204948,257.148433 68.6293854,255.9795 68.6293854,254.456055 L68.6293854,250.650391 C68.6293854,249.156243 68.9985224,248.010746 69.7368073,247.213867 C70.4750923,246.416988 71.4623871,246.018555 72.6987214,246.018555 C73.9057587,246.018555 74.8403196,246.333493 75.5024323,246.963379 C76.164545,247.593265 76.5102447,248.470697 76.5395417,249.595703 L76.5219636,249.648438 L75.5375886,249.648438 C75.5024321,248.787105 75.2504815,248.122073 74.7817292,247.65332 C74.3129769,247.184568 73.6186479,246.950195 72.6987214,246.950195 C71.7670761,246.950195 71.0317319,247.265134 70.4926667,247.89502 C69.9536015,248.524905 69.6840729,249.437494 69.6840729,250.632812 L69.6840729,254.456055 C69.6840729,255.698248 69.9741091,256.644528 70.5541901,257.294922 C71.1342712,257.945316 71.9164899,258.270508 72.9008698,258.270508 C73.6215765,258.270508 74.1987192,258.141603 74.6323151,257.883789 C75.065911,257.625975 75.3676658,257.312502 75.5375886,256.943359 L75.5375886,253.621094 L72.8832917,253.621094 L72.8832917,252.698242 L76.6010651,252.698242 L76.6010651,257.259766 Z M83.118612,246.018555 C84.3783839,246.018555 85.3715381,246.431636 86.0981042,247.257812 C86.8246703,248.083989 87.1879479,249.2705 87.1879479,250.817383 L87.1879479,254.40332 C87.1879479,255.956062 86.8261352,257.141109 86.1024987,257.958496 C85.3788623,258.775883 84.387173,259.18457 83.1274011,259.18457 C81.8910668,259.18457 80.9198851,258.775883 80.2138268,257.958496 C79.5077686,257.141109 79.1547448,255.956062 79.1547448,254.40332 L79.1547448,250.817383 C79.1547448,249.264641 79.5063038,248.076664 80.2094323,247.253418 C80.9125608,246.430172 81.8822777,246.018555 83.118612,246.018555 Z M83.118612,246.976562 C82.1752479,246.976562 81.4516223,247.295895 80.9477136,247.93457 C80.4438048,248.573245 80.1918542,249.525384 80.1918542,250.791016 L80.1918542,250.791016 L80.1918542,254.40332 C80.1918542,255.68653 80.4438048,256.647458 80.9477136,257.286133 C81.4516223,257.924808 82.1781776,258.244141 83.1274011,258.244141 C84.1000622,258.244141 84.8456602,257.924808 85.3642175,257.286133 C85.8827748,256.647458 86.1420495,255.68653 86.1420495,254.40332 L86.1420495,254.40332 L86.1420495,250.791016 C86.1420495,249.525384 85.8813099,248.573245 85.3598229,247.93457 C84.838336,247.295895 84.0912731,246.976562 83.118612,246.976562 Z" id="CHICAGO" fill="#000000" fill-rule="nonzero"></path>
            <path d="M-3.89160156,89.0136719 L-8.9453125,89.0136719 L-8.9453125,94.9814453 L-10,94.9814453 L-10,82.1845703 L-3.14453125,82.1845703 L-3.14453125,83.1162109 L-8.9453125,83.1162109 L-8.9453125,88.0820312 L-3.89160156,88.0820312 L-3.89160156,89.0136719 Z M0.0331718698,89.2070312 L0.0331718698,94.9814453 L-1.02151563,94.9814453 L-1.02151563,82.1933594 L2.65231249,82.1933594 C3.80075574,82.1933594 4.6796532,82.4951142 5.28903124,83.0986328 C5.89840929,83.7021515 6.20309374,84.5810489 6.20309374,85.7353516 C6.20309374,86.4150425 6.04196254,87.0200169 5.71969531,87.550293 C5.39742807,88.0805691 4.94040139,88.4716784 4.34860156,88.7236328 C4.99899543,88.9228526 5.46627592,89.2802709 5.75045703,89.7958984 C6.03463813,90.311526 6.17672656,90.9531212 6.17672656,91.7207031 L6.17672656,92.9248047 C6.17672656,93.3232442 6.21481211,93.6806625 6.29098437,93.9970703 C6.36715663,94.3134781 6.49606159,94.5712881 6.67770312,94.7705078 L6.67770312,94.9814453 L5.59664843,94.9814453 C5.4150069,94.7705068 5.29049643,94.4775409 5.22311328,94.1025391 C5.15573013,93.7275372 5.12203906,93.3291037 5.12203906,92.9072266 L5.12203906,91.7382812 C5.12203906,90.9648399 4.92575196,90.3496117 4.53317187,89.8925781 C4.14059178,89.4355446 3.60153467,89.2070312 2.91598437,89.2070312 L0.0331718698,89.2070312 Z M0.0331718698,88.2929688 L2.52926562,88.2929688 C3.43161388,88.2929688 4.09225181,88.0629906 4.51119921,87.6030273 C4.93014662,87.1430641 5.13961718,86.5175821 5.13961718,85.7265625 C5.13961718,84.8886677 4.93454111,84.2441429 4.52438281,83.7929688 C4.11422451,83.3417946 3.49020731,83.1162109 2.65231249,83.1162109 L0.0331718698,83.1162109 L0.0331718698,88.2929688 Z M16.710875,90.3847656 C16.710875,91.9375078 16.3490622,93.1225545 15.6254258,93.9399414 C14.9017893,94.7573283 13.9101,95.1660156 12.6503281,95.1660156 C11.4139938,95.1660156 10.4428121,94.7573283 9.7367539,93.9399414 C9.03069568,93.1225545 8.67767186,91.9375078 8.67767186,90.3847656 L8.67767186,86.7988281 C8.67767186,85.246086 9.02923085,84.0581096 9.73235936,83.2348633 C10.4354879,82.411617 11.4052047,82 12.6415391,82 C13.901311,82 14.8944651,82.4130818 15.6210312,83.2392578 C16.3475974,84.0654338 16.710875,85.2519454 16.710875,86.7988281 L16.710875,90.3847656 Z M15.6649766,86.7724609 C15.6649766,85.5068296 15.404237,84.5546907 14.88275,83.9160156 C14.361263,83.2773406 13.6142002,82.9580078 12.6415391,82.9580078 C11.698175,82.9580078 10.9745494,83.2773406 10.4706406,83.9160156 C9.96673185,84.5546907 9.71478124,85.5068296 9.71478124,86.7724609 L9.71478124,90.3847656 C9.71478124,91.6679752 9.96673185,92.6289031 10.4706406,93.2675781 C10.9745494,93.9062532 11.7011046,94.2255859 12.6503281,94.2255859 C13.6229892,94.2255859 14.3685872,93.9062532 14.8871445,93.2675781 C15.4057018,92.6289031 15.6649766,91.6679752 15.6649766,90.3847656 L15.6649766,86.7724609 Z M20.582914,82.1845703 L24.1424844,93.390625 L24.1952187,93.390625 L27.7635781,82.1845703 L29.1258828,82.1845703 L29.1258828,94.9814453 L28.0799844,94.9814453 L28.0799844,89.3652344 L28.1854531,84.1357422 L28.1327187,84.1269531 L24.520414,94.9814453 L23.817289,94.9814453 L20.2137734,84.1445312 L20.161039,84.1533203 L20.2665078,89.3652344 L20.2665078,94.9814453 L19.2293984,94.9814453 L19.2293984,82.1845703 L20.582914,82.1845703 Z" id="FROM" fill="#000000" fill-rule="nonzero" transform="translate(9.562941, 88.583008) rotate(-90.000000) translate(-9.562941, -88.583008) "></path>
            <path d="M178.693995,41.7929688 C178.693995,43.4453208 178.399564,44.7153276 177.810694,45.6030273 C177.221824,46.4907271 176.411773,46.9345703 175.380518,46.9345703 C174.343404,46.9345703 173.527494,46.4892623 172.932764,45.5986328 C172.338035,44.7080034 172.040675,43.4394614 172.040675,41.7929688 L172.040675,38.9277344 C172.040675,37.2871012 172.335105,36.0170943 172.923975,35.1176758 C173.512845,34.2182572 174.325826,33.7685547 175.36294,33.7685547 C176.400055,33.7685547 177.2145,34.2167924 177.8063,35.1132812 C178.398099,36.0097701 178.693995,37.2812418 178.693995,38.9277344 L178.693995,41.7929688 Z M177.639307,38.7431641 C177.639307,37.4423763 177.444485,36.4433629 177.054835,35.7460938 C176.665184,35.0488246 176.101225,34.7001953 175.36294,34.7001953 C174.630515,34.7001953 174.07095,35.0502895 173.684229,35.7504883 C173.297509,36.4506871 173.104151,37.4482357 173.104151,38.7431641 L173.104151,41.9599609 C173.104151,43.2490299 173.300438,44.2480433 173.693018,44.9570312 C174.085598,45.6660192 174.648093,46.0205078 175.380518,46.0205078 C176.112944,46.0205078 176.672509,45.667484 177.059229,44.9614258 C177.44595,44.2553676 177.639307,43.2548893 177.639307,41.9599609 L177.639307,38.7431641 Z M187.250604,37.2490234 C187.250604,37.9462925 187.082149,38.5541966 186.745233,39.0727539 C186.408317,39.5913112 185.958615,39.9648426 185.396112,40.1933594 C186.040647,40.4394544 186.557731,40.8422824 186.947382,41.4018555 C187.337032,41.9614286 187.531854,42.6132775 187.531854,43.3574219 C187.531854,44.5117245 187.215451,45.3964813 186.582635,46.0117188 C185.94982,46.6269562 185.129516,46.9345703 184.121698,46.9345703 C183.096302,46.9345703 182.267209,46.6269562 181.634393,46.0117188 C181.001578,45.3964813 180.685175,44.5117245 180.685175,43.3574219 C180.685175,42.6074181 180.877067,41.9526395 181.260858,41.3930664 C181.644649,40.8334933 182.161734,40.433595 182.812128,40.1933594 C182.243765,39.9589832 181.796993,39.583987 181.471796,39.0683594 C181.146599,38.5527318 180.984003,37.9462925 180.984003,37.2490234 C180.984003,36.1474554 181.272574,35.2919952 181.849725,34.6826172 C182.426877,34.0732391 183.178334,33.7685547 184.10412,33.7685547 C185.018187,33.7685547 185.771109,34.074704 186.362909,34.6870117 C186.954709,35.2993195 187.250604,36.1533148 187.250604,37.2490234 Z M186.477167,43.3574219 C186.477167,42.5546835 186.251583,41.9028345 185.800409,41.4018555 C185.349235,40.9008764 184.783811,40.6503906 184.10412,40.6503906 C183.41271,40.6503906 182.847286,40.9008764 182.407831,41.4018555 C181.968375,41.9028345 181.748651,42.5546835 181.748651,43.3574219 C181.748651,44.1894573 181.965446,44.8413062 182.399042,45.3129883 C182.832638,45.7846703 183.406851,46.0205078 184.121698,46.0205078 C184.807248,46.0205078 185.371207,45.7846703 185.813592,45.3129883 C186.255978,44.8413062 186.477167,44.1894573 186.477167,43.3574219 Z M186.178339,37.2490234 C186.178339,36.5107385 185.980587,35.9013696 185.585077,35.4208984 C185.189567,34.9404273 184.69592,34.7001953 184.10412,34.7001953 C183.494742,34.7001953 182.99963,34.9316383 182.618768,35.3945312 C182.237907,35.8574242 182.047479,36.4755821 182.047479,37.2490234 C182.047479,38.0048866 182.239372,38.6069314 182.623163,39.0551758 C183.006954,39.5034202 183.506461,39.7275391 184.121698,39.7275391 C184.719357,39.7275391 185.21154,39.5019554 185.59826,39.0507812 C185.984981,38.5996071 186.178339,37.9990272 186.178339,37.2490234 Z M200.197807,41.7929688 C200.197807,43.4453208 199.903377,44.7153276 199.314507,45.6030273 C198.725636,46.4907271 197.915586,46.9345703 196.884331,46.9345703 C195.847216,46.9345703 195.031306,46.4892623 194.436577,45.5986328 C193.841847,44.7080034 193.544487,43.4394614 193.544487,41.7929688 L193.544487,38.9277344 C193.544487,37.2871012 193.838918,36.0170943 194.427788,35.1176758 C195.016658,34.2182572 195.829638,33.7685547 196.866753,33.7685547 C197.903867,33.7685547 198.718312,34.2167924 199.310112,35.1132812 C199.901912,36.0097701 200.197807,37.2812418 200.197807,38.9277344 L200.197807,41.7929688 Z M199.14312,38.7431641 C199.14312,37.4423763 198.948298,36.4433629 198.558647,35.7460938 C198.168997,35.0488246 197.605038,34.7001953 196.866753,34.7001953 C196.134327,34.7001953 195.574762,35.0502895 195.188042,35.7504883 C194.801321,36.4506871 194.607964,37.4482357 194.607964,38.7431641 L194.607964,41.9599609 C194.607964,43.2490299 194.804251,44.2480433 195.196831,44.9570312 C195.589411,45.6660192 196.151905,46.0205078 196.884331,46.0205078 C197.616756,46.0205078 198.176321,45.667484 198.563042,44.9614258 C198.949762,44.2553676 199.14312,43.2548893 199.14312,41.9599609 L199.14312,38.7431641 Z M202.804221,40.9580078 L203.401878,33.953125 L208.605003,33.953125 L208.605003,34.9638672 L204.298362,34.9638672 L203.911643,39.4726562 C204.169457,39.1914048 204.450704,38.9702156 204.755393,38.809082 C205.060082,38.6479484 205.455586,38.5585938 205.941917,38.5410156 C206.867703,38.5234374 207.608906,38.8896447 208.16555,39.6396484 C208.722193,40.3896522 209.00051,41.4003843 209.00051,42.671875 C209.00051,43.9668033 208.726587,45.0009727 208.178733,45.7744141 C207.630879,46.5478554 206.814969,46.9345703 205.730979,46.9345703 C204.846209,46.9345703 204.110865,46.6386748 203.524925,46.046875 C202.938984,45.4550752 202.657737,44.582037 202.681175,43.4277344 L202.698753,43.3837891 L203.65676,43.3837891 C203.65676,44.2392621 203.845723,44.8925759 204.223655,45.34375 C204.601587,45.7949241 205.104023,46.0205078 205.730979,46.0205078 C206.463405,46.0205078 207.015645,45.7348661 207.387717,45.1635742 C207.75979,44.5922823 207.945823,43.7675835 207.945823,42.6894531 C207.945823,41.7402296 207.75686,40.9799833 207.378928,40.4086914 C207.000997,39.8373995 206.478053,39.5517578 205.810081,39.5517578 C205.171406,39.5517578 204.690942,39.6791979 204.368675,39.934082 C204.046407,40.1889661 203.812035,40.5800755 203.66555,41.1074219 L202.804221,40.9580078 Z M221.7983,46.75 L215.109823,46.75 L215.109823,45.9238281 L218.581503,41.1777344 C219.214318,40.3105425 219.658162,39.5854521 219.913046,39.0024414 C220.16793,38.4194307 220.29537,37.8554715 220.29537,37.3105469 C220.29537,36.5253867 220.118125,35.8940454 219.763632,35.4165039 C219.409138,34.9389625 218.921349,34.7001953 218.300253,34.7001953 C217.520952,34.7001953 216.933555,34.9653294 216.538046,35.4956055 C216.142536,36.0258816 215.944784,36.742183 215.944784,37.6445312 L214.95162,37.6445312 L214.934042,37.6005859 C214.910604,36.5224555 215.202105,35.6142615 215.808553,34.8759766 C216.415002,34.1376916 217.24556,33.7685547 218.300253,33.7685547 C219.226039,33.7685547 219.965777,34.0864226 220.519491,34.722168 C221.073205,35.3579133 221.350057,36.208979 221.350057,37.2753906 C221.350057,37.9843785 221.169883,38.7036096 220.80953,39.4331055 C220.494221,40.0714143 220.072372,40.7624258 219.543974,41.5061558 L216.393026,45.8359375 L221.7983,45.8359375 L221.7983,46.75 Z M230.381276,41.7929688 C230.381276,43.4453208 230.086845,44.7153276 229.497975,45.6030273 C228.909105,46.4907271 228.099055,46.9345703 227.067799,46.9345703 C226.030685,46.9345703 225.214775,46.4892623 224.620046,45.5986328 C224.025316,44.7080034 223.727956,43.4394614 223.727956,41.7929688 L223.727956,38.9277344 C223.727956,37.2871012 224.022386,36.0170943 224.611257,35.1176758 C225.200127,34.2182572 226.013107,33.7685547 227.050221,33.7685547 C228.087336,33.7685547 228.901781,34.2167924 229.493581,35.1132812 C230.085381,36.0097701 230.381276,37.2812418 230.381276,38.9277344 L230.381276,41.7929688 Z M229.326589,38.7431641 C229.326589,37.4423763 229.131766,36.4433629 228.742116,35.7460938 C228.352466,35.0488246 227.788506,34.7001953 227.050221,34.7001953 C226.317796,34.7001953 225.758231,35.0502895 225.37151,35.7504883 C224.98479,36.4506871 224.791432,37.4482357 224.791432,38.7431641 L224.791432,41.9599609 C224.791432,43.2490299 224.987719,44.2480433 225.380299,44.9570312 C225.77288,45.6660192 226.335374,46.0205078 227.067799,46.0205078 C227.800225,46.0205078 228.35979,45.667484 228.74651,44.9614258 C229.133231,44.2553676 229.326589,43.2548893 229.326589,41.9599609 L229.326589,38.7431641 Z M236.635151,46.8027344 L235.580464,46.8027344 L235.580464,35.0957031 L232.952534,35.4560547 L232.952534,34.7001953 L236.635151,33.9267578 L236.635151,46.8027344 Z M244.207385,33.7685547 C245.256219,33.7685547 246.092636,34.1728475 246.716663,34.9814453 C247.340689,35.7900431 247.652698,36.9619064 247.652698,38.4970703 L247.652698,42.2412109 C247.652698,43.7294996 247.318717,44.883785 246.650745,45.7041016 C245.982773,46.5244182 245.112664,46.9345703 244.040393,46.9345703 C243.67711,46.9345703 243.302114,46.8891606 242.915393,46.7983398 C242.528673,46.7075191 242.168325,46.5771493 241.834339,46.4072266 L242.018909,45.4931641 C242.335317,45.680665 242.65172,45.8154293 242.968128,45.8974609 C243.284535,45.9794926 243.641954,46.0205078 244.040393,46.0205078 C244.807975,46.0205078 245.421739,45.6953158 245.881702,45.0449219 C246.341665,44.394528 246.571643,43.4658263 246.571643,42.2587891 L246.571643,41.1074219 C246.319689,41.61719 245.988637,42.0082994 245.578479,42.2807617 C245.168321,42.553224 244.714224,42.6894531 244.216174,42.6894531 C243.231795,42.6894531 242.442252,42.2866251 241.847522,41.480957 C241.252793,40.6752889 240.955432,39.6250065 240.955432,38.3300781 C240.955432,37.0410092 241.268906,35.9585005 241.895862,35.0825195 C242.522818,34.2065386 243.293318,33.7685547 244.207385,33.7685547 Z M244.242542,34.7001953 C243.615585,34.7001953 243.091177,35.054684 242.669299,35.7636719 C242.247422,36.4726598 242.036487,37.32812 242.036487,38.3300781 C242.036487,39.314458 242.232774,40.1347623 242.625354,40.7910156 C243.017934,41.4472689 243.548202,41.7753906 244.216174,41.7753906 C244.813834,41.7753906 245.311876,41.5878925 245.710315,41.2128906 C246.108755,40.8378888 246.395861,40.3691434 246.571643,39.8066406 L246.571643,39.8066406 L246.571643,38.4179688 C246.571643,37.2050721 246.365102,36.2822297 245.952014,35.6494141 C245.538926,35.0165984 244.969108,34.7001953 244.242542,34.7001953 Z" id="08052019" fill="#000000" fill-rule="nonzero"></path>
            <path d="M89.8505631,276.375 L89.8505631,507.375 L88.9488777,507.375 L88.9488777,276.375 L89.8505631,276.375 Z M90.7522484,276.375 L90.7522484,507.375 L90.3014057,507.375 L90.3014057,276.375 L90.7522484,276.375 Z M92.1047765,276.375 L92.1047765,507.375 L91.6539338,507.375 L91.6539338,276.375 L92.1047765,276.375 Z M95.7115181,276.375 L95.7115181,507.375 L93.9081473,507.375 L93.9081473,276.375 L95.7115181,276.375 Z M97.0640462,276.375 L97.0640462,507.375 L96.6132035,507.375 L96.6132035,276.375 L97.0640462,276.375 Z M97.9657316,276.375 L97.9657316,507.375 L97.5148889,507.375 L97.5148889,276.375 L97.9657316,276.375 Z M99.3182597,276.375 L99.3182597,507.375 L98.867417,507.375 L98.867417,276.375 L99.3182597,276.375 Z M100.670788,276.375 L100.670788,507.375 L99.7691024,507.375 L99.7691024,276.375 L100.670788,276.375 Z M102.023316,276.375 L102.023316,507.375 L101.572473,507.375 L101.572473,276.375 L102.023316,276.375 Z M104.277529,276.375 L104.277529,507.375 L103.826687,507.375 L103.826687,276.375 L104.277529,276.375 Z M105.630057,276.375 L105.630057,507.375 L104.728372,507.375 L104.728372,276.375 L105.630057,276.375 Z M106.982586,276.375 L106.982586,507.375 L106.531743,507.375 L106.531743,276.375 L106.982586,276.375 Z M109.236799,276.375 L109.236799,507.375 L108.785956,507.375 L108.785956,276.375 L109.236799,276.375 Z M110.589327,276.375 L110.589327,507.375 L109.687642,507.375 L109.687642,276.375 L110.589327,276.375 Z M111.941855,276.375 L111.941855,507.375 L111.491012,507.375 L111.491012,276.375 L111.941855,276.375 Z M114.646911,276.375 L114.646911,507.375 L113.745226,507.375 L113.745226,276.375 L114.646911,276.375 Z M115.999439,276.375 L115.999439,507.375 L115.097754,507.375 L115.097754,276.375 L115.999439,276.375 Z M117.80281,276.375 L117.80281,507.375 L116.901125,507.375 L116.901125,276.375 L117.80281,276.375 Z M119.155338,276.375 L119.155338,507.375 L118.704496,507.375 L118.704496,276.375 L119.155338,276.375 Z M120.507866,276.375 L120.507866,507.375 L119.606181,507.375 L119.606181,276.375 L120.507866,276.375 Z M122.76208,276.375 L122.76208,507.375 L122.311237,507.375 L122.311237,276.375 L122.76208,276.375 Z M124.565451,276.375 L124.565451,507.375 L123.663765,507.375 L123.663765,276.375 L124.565451,276.375 Z M125.917979,276.375 L125.917979,507.375 L125.467136,507.375 L125.467136,276.375 L125.917979,276.375 Z M126.819664,276.375 L126.819664,507.375 L126.368821,507.375 L126.368821,276.375 L126.819664,276.375 Z M129.073878,276.375 L129.073878,507.375 L128.623035,507.375 L128.623035,276.375 L129.073878,276.375 Z M131.778934,276.375 L131.778934,507.375 L130.877248,507.375 L130.877248,276.375 L131.778934,276.375 Z M132.680619,276.375 L132.680619,507.375 L132.229777,507.375 L132.229777,276.375 L132.680619,276.375 Z M134.033147,276.375 L134.033147,507.375 L133.582305,507.375 L133.582305,276.375 L134.033147,276.375 Z M135.836518,276.375 L135.836518,507.375 L134.934833,507.375 L134.934833,276.375 L135.836518,276.375 Z M136.738204,276.375 L136.738204,507.375 L136.287361,507.375 L136.287361,276.375 L136.738204,276.375 Z M138.992417,276.375 L138.992417,507.375 L138.541574,507.375 L138.541574,276.375 L138.992417,276.375 Z M140.795788,276.375 L140.795788,507.375 L139.894102,507.375 L139.894102,276.375 L140.795788,276.375 Z M143.050001,276.375 L143.050001,507.375 L142.599159,507.375 L142.599159,276.375 L143.050001,276.375 Z M143.951687,276.375 L143.951687,507.375 L143.500844,507.375 L143.500844,276.375 L143.951687,276.375 Z M146.656743,276.375 L146.656743,507.375 L144.853372,507.375 L144.853372,276.375 L146.656743,276.375 Z M147.558428,276.375 L147.558428,507.375 L147.107586,507.375 L147.107586,276.375 L147.558428,276.375 Z M148.910956,276.375 L148.910956,507.375 L148.460114,507.375 L148.460114,276.375 L148.910956,276.375 Z M151.16517,276.375 L151.16517,507.375 L149.361799,507.375 L149.361799,276.375 L151.16517,276.375 Z M152.517698,276.375 L152.517698,507.375 L152.066855,507.375 L152.066855,276.375 L152.517698,276.375 Z M154.321069,276.375 L154.321069,507.375 L153.419383,507.375 L153.419383,276.375 L154.321069,276.375 Z M156.124439,276.375 L156.124439,507.375 L155.222754,507.375 L155.222754,276.375 L156.124439,276.375 Z M157.476968,276.375 L157.476968,507.375 L156.575282,507.375 L156.575282,276.375 L157.476968,276.375 Z M159.280338,276.375 L159.280338,507.375 L158.378653,507.375 L158.378653,276.375 L159.280338,276.375 Z M161.534552,276.375 L161.534552,507.375 L161.083709,507.375 L161.083709,276.375 L161.534552,276.375 Z M162.436237,276.375 L162.436237,507.375 L161.985395,507.375 L161.985395,276.375 L162.436237,276.375 Z M164.239608,276.375 L164.239608,507.375 L163.337923,507.375 L163.337923,276.375 L164.239608,276.375 Z M166.944664,276.375 L166.944664,507.375 L165.592136,507.375 L165.592136,276.375 L166.944664,276.375 Z M167.84635,276.375 L167.84635,507.375 L167.395507,507.375 L167.395507,276.375 L167.84635,276.375 Z M169.198878,276.375 L169.198878,507.375 L168.297192,507.375 L168.297192,276.375 L169.198878,276.375 Z" id="Combined-Shape" fill="#000000" fill-rule="nonzero" transform="translate(129.073878, 391.875000) rotate(-270.000000) translate(-129.073878, -391.875000) "></path>
            <text id="weee-flights!" fill="#000000" transform="translate(5.948878, 390.750000) rotate(-270.000000) translate(-5.948878, -390.750000) " font-family="Helvetica" font-size="6" font-weight="normal">
                <tspan x="-10.7269036" y="393.25">weee flights!</tspan>
            </text>
            <line x1="13.5738777" y1="161.25" x2="243.823878" y2="161.25" id="Line-2" stroke="#000000" stroke-width="0.75" stroke-linecap="square"></line>
            <line x1="13.5738777" y1="265.5" x2="243.823878" y2="265.5" id="Line-2-Copy" stroke="#000000" stroke-width="0.75" stroke-linecap="square"></line>
        </g>
    </g>
</svg>