<?xml version="1.0" encoding="utf-8"?>
<!-- Generator: Adobe Illustrator 24.0.1, SVG Export Plug-In . SVG Version: 6.00 Build 0)  -->
<svg version="1.1" id="Layer_1" xmlns="http://www.w3.org/2000/svg" xmlns:xlink="http://www.w3.org/1999/xlink" x="0px" y="0px"
	 viewBox="0 0 258 432" style="enable-background:new 0 0 258 432;" xml:space="preserve">
<style type="text/css">
	.st0{fill-rule:evenodd;clip-rule:evenodd;fill:#194F8E;}
	.st1{fill-rule:evenodd;clip-rule:evenodd;fill:#FFFFFF;}
	.st2{fill-rule:evenodd;clip-rule:evenodd;}
	.st3{fill:#FFFFFF;}
	.st4{fill:none;stroke:#000000;stroke-width:0.75;stroke-linecap:square;}
</style>
<title>baggageticket</title>
<desc>Created with Sketch.</desc>
<g id="baggageticket">
	<g id="Group-2">
		<rect id="Rectangle" x="0.8" class="st0" width="256.5" height="432"/>
		<rect id="Rectangle_1_" x="13.6" class="st1" width="231" height="432"/>
		<path id="Combined-Shape" d="M39.8,291.8v51h-2.2v-51H39.8z M42.1,291.8v51h-0.8v-51H42.1z M45.1,291.8v51h-0.8v-51H45.1z
			 M47.3,291.8v51h-0.8v-51H47.3z M51.1,291.8v51h-2.2v-51H51.1z M54.1,291.8v51h-2.2v-51H54.1z M56.3,291.8v51h-0.8v-51H56.3z
			 M59.3,291.8v51h-0.8v-51H59.3z M61.6,291.8v51h-1.5v-51H61.6z M66.1,291.8v51h-1.5v-51H66.1z M69.8,291.8v51h-2.2v-51H69.8z
			 M73.6,291.8v51h-1.5v-51H73.6z M78.1,291.8v51h-1.5v-51H78.1z M80.3,291.8v51h-0.8v-51H80.3z M81.8,291.8v51h-0.8v-51H81.8z
			 M87.1,291.8v51h-2.2v-51H87.1z M90.8,291.8v51h-2.2v-51H90.8z M93.8,291.8v51h-1.5v-51H93.8z M97.6,291.8v51h-2.2v-51H97.6z
			 M99.1,291.8v51h-0.8v-51H99.1z M101.3,291.8v51h-0.8v-51H101.3z M105.1,291.8v51h-2.2v-51H105.1z M106.6,291.8v51h-0.8v-51H106.6
			z M108.1,291.8v51h-0.8v-51H108.1z M111.1,291.8v51h-1.5v-51H111.1z M114.8,291.8v51h-3v-51H114.8z M120.1,291.8v51h-2.2v-51
			H120.1z M122.3,291.8v51h-0.8v-51H122.3z M126.1,291.8v51h-2.2v-51H126.1z M127.6,291.8v51h-0.8v-51H127.6z M130.6,291.8v51h-2.2
			v-51H130.6z M133.6,291.8v51h-2.2v-51H133.6z M135.8,291.8v51h-1.5v-51H135.8z M138.8,291.8v51h-2.2v-51H138.8z M141.1,291.8v51
			h-1.5v-51H141.1z M143.3,291.8v51h-0.8v-51H143.3z M144.8,291.8v51h-0.8v-51H144.8z M148.6,291.8v51h-2.2v-51H148.6z M150.1,291.8
			v51h-0.8v-51H150.1z M153.8,291.8v51h-2.2v-51H153.8z M156.8,291.8v51h-0.8v-51H156.8z M160.6,291.8v51h-0.8v-51H160.6z
			 M162.8,291.8v51h-1.5v-51H162.8z M164.3,291.8v51h-0.8v-51H164.3z M168.8,291.8v51h-2.2v-51H168.8z M171.1,291.8v51h-0.8v-51
			H171.1z M175.6,291.8v51h-2.2v-51H175.6z M178.6,291.8v51h-2.2v-51H178.6z M181.6,291.8v51h-1.5v-51H181.6z M185.3,291.8v51h-0.8
			v-51H185.3z M189.1,291.8v51h-2.2v-51H189.1z M190.6,291.8v51h-0.8v-51H190.6z M192.1,291.8v51h-0.8v-51H192.1z M194.3,291.8v51
			h-1.5v-51H194.3z M195.8,291.8v51h-0.8v-51H195.8z M199.6,291.8v51h-1.5v-51H199.6z M201.8,291.8v51h-1.5v-51H201.8z M204.8,291.8
			v51h-2.2v-51H204.8z M207.1,291.8v51h-1.5v-51H207.1z M210.8,291.8v51h-3v-51H210.8z M213.8,291.8v51h-1.5v-51H213.8z
			 M217.6,291.8v51h-2.2v-51H217.6z M218.3,342.8v-51h2.2v51H218.3z"/>
		<path id="BUTT_x2C_REHAN" d="M24.6,23.5V10.7h3.6c1.2,0,2.1,0.3,2.8,0.9s1,1.4,1,2.6c0,0.6-0.2,1.1-0.5,1.6s-0.7,0.8-1.3,1
			c0.7,0.2,1.2,0.5,1.6,1.1s0.6,1.2,0.6,2c0,1.2-0.3,2.1-1,2.7c-0.7,0.6-1.6,0.9-2.8,0.9H24.6z M26.3,17.5v4.6h2.3
			c0.6,0,1.1-0.2,1.5-0.6s0.5-0.9,0.5-1.7c0-0.7-0.1-1.3-0.4-1.7s-0.7-0.6-1.4-0.6H26.3z M26.3,16.2h2c0.6,0,1-0.2,1.4-0.5
			s0.5-0.9,0.5-1.5c0-0.7-0.2-1.2-0.5-1.6s-0.9-0.5-1.5-0.5h-1.8V16.2z M42.6,10.7v8.9c0,1.3-0.4,2.3-1.1,3s-1.8,1.1-3,1.1
			c-1.2,0-2.2-0.4-2.9-1.1s-1.1-1.7-1.1-3v-8.9h1.8v8.9c0,0.9,0.2,1.6,0.6,2.1c0.4,0.5,1,0.7,1.7,0.7c0.7,0,1.3-0.2,1.7-0.7
			c0.4-0.4,0.6-1.1,0.6-2.1v-8.9H42.6z M52.4,12.1h-3.3v11.4h-1.8V12.1h-3.3v-1.4h8.3V12.1z M61.7,12.1h-3.3v11.4h-1.8V12.1h-3.3
			v-1.4h8.3V12.1z M63,23.3l-1.1,2.6h-1.1l0.5-2.7v-1.6H63V23.3z M71.2,18v5.5h-1.8V10.7h4c1.2,0,2.2,0.3,2.8,0.9
			c0.7,0.6,1,1.5,1,2.7c0,0.7-0.2,1.3-0.5,1.7c-0.3,0.5-0.8,0.9-1.3,1.2c0.6,0.2,1.1,0.6,1.4,1.1s0.4,1.2,0.4,1.9v1.1
			c0,0.4,0,0.8,0.1,1.1s0.2,0.6,0.4,0.8v0.2h-1.8c-0.2-0.2-0.3-0.5-0.4-0.9s-0.1-0.8-0.1-1.2v-1.1c0-0.7-0.2-1.3-0.5-1.7
			c-0.3-0.4-0.8-0.6-1.3-0.6H71.2z M71.2,16.6h2.1c0.7,0,1.3-0.2,1.6-0.6c0.3-0.4,0.5-0.9,0.5-1.7c0-0.7-0.2-1.3-0.5-1.7
			c-0.3-0.4-0.8-0.6-1.5-0.6h-2.2V16.6z M86.3,17.6h-4.7v4.6h5.5v1.4h-7.3V10.7H87v1.4h-5.4v4.1h4.7V17.6z M97.4,23.5h-1.8v-5.6
			h-4.9v5.6H89V10.7h1.8v5.8h4.9v-5.8h1.8V23.5z M106.1,20.3H102l-0.9,3.2h-1.8l3.9-12.8h1.7l3.9,12.8H107L106.1,20.3z M102.4,18.9
			h3.3l-1.6-5.6H104L102.4,18.9z M118.9,23.5h-1.8l-4.9-9.5l-0.1,0v9.5h-1.8V10.7h1.8l4.9,9.5l0.1,0v-9.5h1.8V23.5z"/>
		<rect id="Rectangle_2_" x="19.6" y="168" class="st2" width="192" height="73.5"/>
		<path id="ORD" class="st3" d="M71.3,214.8c0,7.5-2,13.4-6.1,17.6s-9.5,6.3-16.3,6.3s-12.2-2.1-16.2-6.3s-6.1-10.1-6.1-17.6v-17.9
			c0-7.5,2-13.3,6.1-17.6s9.4-6.4,16.2-6.4s12.2,2.1,16.3,6.4s6.2,10.1,6.2,17.6V214.8z M58.8,196.7c0-4.6-0.8-8-2.5-10.3
			c-1.7-2.3-4.2-3.5-7.4-3.5c-3.3,0-5.7,1.2-7.4,3.5c-1.6,2.3-2.5,5.8-2.5,10.4v18c0,4.6,0.8,8.1,2.5,10.4c1.7,2.3,4.1,3.5,7.4,3.5
			c3.2,0,5.7-1.2,7.4-3.5c1.7-2.3,2.5-5.8,2.5-10.4V196.7z M94.2,212.3v25.4H81.7v-63.9h20.9c6.3,0,11.2,1.7,14.8,5
			c3.6,3.3,5.4,7.9,5.4,13.9c0,3.3-0.7,6.2-2.2,8.6s-3.7,4.3-6.5,5.8c3.3,1.1,5.6,3,7.1,5.5s2.2,5.8,2.2,9.7v4.5
			c0,1.8,0.2,3.6,0.6,5.6c0.4,2,1.1,3.5,2.2,4.4v0.9h-12.9c-1-0.9-1.7-2.5-1.9-4.6c-0.3-2.1-0.4-4.3-0.4-6.5v-4.4
			c0-3.2-0.7-5.7-2-7.4s-3.2-2.6-5.6-2.6H94.2z M94.2,202.3h8.3c2.5,0,4.5-0.8,5.8-2.3s2-3.8,2-6.6c0-2.9-0.7-5.3-2-7
			s-3.2-2.6-5.8-2.6h-8.4V202.3z M154.3,173.8c6.6,0,12,2.5,16.3,7.4c4.3,5,6.4,11.4,6.4,19.2v10.8c0,7.8-2.1,14.2-6.4,19.2
			c-4.3,5-9.7,7.4-16.3,7.4H135v-64H154.3z M153.6,183.8h-6.1v44h6.1c3.5,0,6.2-1.5,8.1-4.5c1.9-3,2.8-7.1,2.8-12.1l0,0v-10.9
			c0-5-0.9-9-2.8-12C159.8,185.3,157.1,183.8,153.6,183.8L153.6,183.8z"/>
		<path id="TO" d="M4.3,177.1v3.6h11.9v1.1H4.3v3.6H3.4v-8.2H4.3z M3.2,171.9c0-1.3,0.4-2.3,1.2-3s2-1.1,3.6-1.1h3.6
			c1.6,0,2.7,0.4,3.6,1.1s1.2,1.7,1.2,3c0,1.2-0.4,2.2-1.2,2.9s-2,1.1-3.6,1.1H8c-1.6,0-2.7-0.4-3.6-1.1S3.2,173.1,3.2,171.9z
			 M4.1,171.9c0,0.9,0.3,1.7,1,2.2s1.6,0.8,2.9,0.8l0,0h3.6c1.3,0,2.2-0.3,2.9-0.8s1-1.2,1-2.2c0-1-0.3-1.7-1-2.2s-1.6-0.8-2.9-0.8
			l0,0H7.9c-1.3,0-2.2,0.3-2.9,0.8S4.1,170.9,4.1,171.9z"/>
		<path id="PIT" d="M40.7,110.6v22.9H28.2v-64h22.2c6.4,0,11.4,1.9,15.1,5.7C69.2,79,71,83.9,71,90c0,6.2-1.9,11.1-5.6,14.9
			c-3.7,3.8-8.7,5.6-15.1,5.6H40.7z M40.7,100.5h9.7c2.7,0,4.7-1,6.1-2.9c1.4-2,2.1-4.5,2.1-7.5c0-3-0.7-5.6-2.1-7.6
			c-1.4-2-3.4-3-6.1-3h-9.7V100.5z M94.4,133.5H82v-64h12.4V133.5z M143.4,79.5H129v54h-12.5v-54h-14.3v-10h41.2V79.5z"/>
		<path id="AZ3321" d="M30.5,43.2h-4.7l-1.1,3.6h-1.1L27.7,34h1l4,12.8h-1.1L30.5,43.2z M26.1,42.2h4.1l-2-6.6h-0.1L26.1,42.2z
			 M35,45.8h6.2v0.9h-7.3v-0.8l5.9-11h-5.8V34H41v0.8L35,45.8z M45.1,39.8h1.1c0.7,0,1.3-0.2,1.6-0.7c0.4-0.5,0.5-1.1,0.5-1.8
			c0-0.8-0.2-1.4-0.5-1.9c-0.4-0.5-0.9-0.7-1.6-0.7c-0.6,0-1.2,0.2-1.6,0.7c-0.4,0.5-0.6,1.1-0.6,1.9h-1l0,0c0-1,0.3-1.8,0.9-2.5
			s1.4-1,2.3-1c1,0,1.7,0.3,2.3,0.9s0.9,1.5,0.9,2.6c0,0.6-0.1,1.2-0.4,1.7c-0.3,0.5-0.7,0.9-1.3,1.2c0.7,0.2,1.1,0.6,1.5,1.1
			c0.3,0.5,0.5,1.2,0.5,1.9c0,1.1-0.3,2-0.9,2.7s-1.4,1-2.4,1c-0.9,0-1.7-0.3-2.4-0.9s-1-1.5-0.9-2.7l0,0h1c0,0.8,0.2,1.5,0.6,2
			c0.4,0.5,1,0.8,1.7,0.8c0.7,0,1.3-0.2,1.6-0.7c0.4-0.5,0.6-1.1,0.6-2c0-0.9-0.2-1.5-0.6-2c-0.4-0.4-1-0.6-1.7-0.6h-1.1V39.8z
			 M53.8,39.8h1.1c0.7,0,1.3-0.2,1.6-0.7S57,38,57,37.3c0-0.8-0.2-1.4-0.5-1.9s-0.9-0.7-1.6-0.7c-0.6,0-1.2,0.2-1.6,0.7
			s-0.6,1.1-0.6,1.9h-1l0,0c0-1,0.3-1.8,0.9-2.5s1.4-1,2.3-1c1,0,1.7,0.3,2.3,0.9s0.9,1.5,0.9,2.6c0,0.6-0.1,1.2-0.4,1.7
			s-0.7,0.9-1.3,1.2c0.7,0.2,1.1,0.6,1.5,1.1s0.5,1.2,0.5,1.9c0,1.1-0.3,2-0.9,2.7s-1.4,1-2.4,1c-0.9,0-1.7-0.3-2.4-0.9
			s-1-1.5-0.9-2.7l0,0h1c0,0.8,0.2,1.5,0.6,2c0.4,0.5,1,0.8,1.7,0.8c0.7,0,1.3-0.2,1.6-0.7s0.6-1.1,0.6-2c0-0.9-0.2-1.5-0.6-2
			s-1-0.6-1.7-0.6h-1.1V39.8z M67.2,46.8h-6.7v-0.8l3.5-4.7c0.6-0.9,1.1-1.6,1.3-2.2s0.4-1.1,0.4-1.7c0-0.8-0.2-1.4-0.5-1.9
			s-0.8-0.7-1.5-0.7c-0.8,0-1.4,0.3-1.8,0.8c-0.4,0.5-0.6,1.2-0.6,2.1h-1l0,0c0-1.1,0.3-2,0.9-2.7s1.4-1.1,2.5-1.1
			c0.9,0,1.7,0.3,2.2,1s0.8,1.5,0.8,2.6c0,0.7-0.2,1.4-0.5,2.2c-0.3,0.6-0.7,1.3-1.3,2.1l-3.2,4.3h5.4V46.8z M73.2,46.8h-1.1V35.1
			l-2.6,0.4v-0.8l3.7-0.8V46.8z"/>
		<path id="PITTSBURGH" d="M25.8,149.5v5.3h-1.1V142h3.8c1.1,0,2,0.3,2.6,1c0.6,0.7,0.9,1.6,0.9,2.7c0,1.1-0.3,2-0.9,2.7
			c-0.6,0.7-1.5,1-2.6,1H25.8z M25.8,148.5h2.7c0.8,0,1.4-0.3,1.8-0.8s0.6-1.2,0.6-2c0-0.8-0.2-1.5-0.6-2s-1-0.8-1.8-0.8h-2.7V148.5
			z M35.7,154.8h-1.1V142h1.1V154.8z M45.8,142.9h-3.6v11.9h-1.1v-11.9h-3.6V142h8.2V142.9z M55.1,142.9h-3.6v11.9h-1.1v-11.9h-3.6
			V142h8.2V142.9z M63,151.6c0-0.7-0.2-1.3-0.6-1.7c-0.4-0.4-1.1-0.8-2.1-1.2c-1.2-0.4-2-0.8-2.6-1.4s-0.9-1.3-0.9-2.3
			c0-1,0.3-1.8,1-2.4s1.5-0.9,2.6-0.9c1.1,0,2,0.4,2.7,1.1s1,1.6,1,2.7l0,0.1h-1c0-0.8-0.2-1.5-0.7-2.1c-0.5-0.5-1.1-0.8-1.9-0.8
			c-0.8,0-1.4,0.2-1.9,0.7c-0.4,0.5-0.7,1-0.7,1.7c0,0.6,0.2,1.2,0.6,1.6c0.4,0.4,1,0.7,1.9,1l0.3,0.1c1.1,0.4,2,0.8,2.6,1.4
			s0.9,1.4,0.9,2.4c0,1-0.3,1.8-1,2.4s-1.6,0.9-2.7,0.9c-1.1,0-2-0.3-2.8-1s-1.2-1.6-1.1-2.8l0-0.1h1c0,1,0.3,1.7,0.9,2.2
			s1.3,0.7,2.1,0.7c0.8,0,1.4-0.2,1.9-0.7C62.7,152.9,63,152.3,63,151.6z M66.4,154.8V142h3.2c1.1,0,2,0.3,2.6,0.8
			c0.6,0.6,0.9,1.4,0.9,2.5c0,0.6-0.2,1.2-0.5,1.7s-0.8,0.8-1.3,1c0.7,0.1,1.2,0.5,1.6,1.1s0.6,1.3,0.6,2.1c0,1.1-0.3,2-0.9,2.6
			c-0.6,0.6-1.5,0.9-2.5,0.9H66.4z M67.5,148.6v5.2h2.7c0.7,0,1.3-0.2,1.7-0.7s0.6-1.1,0.6-1.9c0-0.8-0.2-1.4-0.6-1.9
			s-0.9-0.7-1.6-0.7H67.5z M67.5,147.7h2.5c0.7,0,1.2-0.2,1.6-0.6s0.6-1,0.6-1.8c0-0.8-0.2-1.4-0.6-1.8s-1-0.6-1.8-0.6h-2.2V147.7z
			 M83.3,142v9c0,1.3-0.3,2.3-1,3c-0.7,0.7-1.6,1-2.7,1c-1.1,0-2-0.3-2.7-1c-0.7-0.7-1-1.7-1-3v-9h1v9c0,1,0.2,1.8,0.7,2.3
			c0.5,0.5,1.1,0.8,1.9,0.8c0.8,0,1.5-0.3,2-0.8c0.5-0.5,0.7-1.3,0.7-2.3v-9H83.3z M87.2,149v5.8h-1.1V142h3.7c1.1,0,2,0.3,2.6,0.9
			c0.6,0.6,0.9,1.5,0.9,2.6c0,0.7-0.2,1.3-0.5,1.8c-0.3,0.5-0.8,0.9-1.4,1.2c0.7,0.2,1.1,0.6,1.4,1.1c0.3,0.5,0.4,1.2,0.4,1.9v1.2
			c0,0.4,0,0.8,0.1,1.1s0.2,0.6,0.4,0.8v0.2h-1.1c-0.2-0.2-0.3-0.5-0.4-0.9s-0.1-0.8-0.1-1.2v-1.2c0-0.8-0.2-1.4-0.6-1.8
			c-0.4-0.5-0.9-0.7-1.6-0.7H87.2z M87.2,148.1h2.5c0.9,0,1.6-0.2,2-0.7c0.4-0.5,0.6-1.1,0.6-1.9c0-0.8-0.2-1.5-0.6-1.9
			c-0.4-0.5-1-0.7-1.9-0.7h-2.6V148.1z M103.9,153c-0.2,0.5-0.7,0.9-1.3,1.3c-0.6,0.4-1.4,0.6-2.4,0.6c-1.3,0-2.3-0.4-3.1-1.2
			c-0.8-0.8-1.2-2-1.2-3.5v-3.8c0-1.5,0.4-2.6,1.1-3.4c0.7-0.8,1.7-1.2,3-1.2c1.2,0,2.1,0.3,2.8,0.9c0.7,0.6,1,1.5,1,2.6l0,0.1h-1
			c0-0.9-0.3-1.5-0.8-2c-0.5-0.5-1.2-0.7-2.1-0.7c-0.9,0-1.7,0.3-2.2,0.9c-0.5,0.6-0.8,1.5-0.8,2.7v3.8c0,1.2,0.3,2.2,0.9,2.8
			c0.6,0.7,1.4,1,2.3,1c0.7,0,1.3-0.1,1.7-0.4c0.4-0.3,0.7-0.6,0.9-0.9v-3.3h-2.7v-0.9h3.7V153z M114.9,154.8h-1v-5.9h-5.7v5.9H107
			V142h1.1v6h5.7v-6h1V154.8z"/>
		<path id="CHICAGO" d="M31.8,255.3L31.8,255.3c0,1.3-0.3,2.3-1,2.9s-1.5,1-2.7,1c-1.2,0-2.1-0.4-2.8-1.2s-1-2-1-3.6v-3.5
			c0-1.5,0.3-2.7,1-3.6s1.6-1.3,2.8-1.3c1.1,0,2,0.3,2.7,1c0.6,0.6,1,1.6,1,2.9l0,0.1h-1c0-1-0.3-1.8-0.7-2.2S29,247,28.1,247
			c-0.9,0-1.6,0.3-2.1,1s-0.7,1.6-0.7,2.9v3.6c0,1.3,0.2,2.2,0.7,2.9s1.2,1,2.1,1c0.9,0,1.5-0.2,1.9-0.7s0.7-1.2,0.7-2.3H31.8z
			 M42.2,259h-1v-5.9h-5.7v5.9h-1.1v-12.8h1.1v6h5.7v-6h1V259z M46.5,259h-1.1v-12.8h1.1V259z M56.7,255.3L56.7,255.3
			c0,1.3-0.3,2.3-1,2.9s-1.5,1-2.7,1c-1.2,0-2.1-0.4-2.8-1.2s-1-2-1-3.6v-3.5c0-1.5,0.3-2.7,1-3.6s1.6-1.3,2.8-1.3
			c1.1,0,2,0.3,2.7,1s1,1.6,1,2.9l0,0.1h-1c0-1-0.3-1.8-0.7-2.2s-1.1-0.7-1.9-0.7c-0.9,0-1.6,0.3-2.1,1s-0.7,1.6-0.7,2.9v3.6
			c0,1.3,0.2,2.2,0.7,2.9s1.2,1,2.1,1c0.9,0,1.5-0.2,1.9-0.7s0.7-1.2,0.7-2.3H56.7z M65,255.4h-4.7l-1.1,3.6h-1.1l4.1-12.8h1l4,12.8
			H66L65,255.4z M60.6,254.5h4.1l-2-6.6h-0.1L60.6,254.5z M76.6,257.3c-0.2,0.5-0.7,0.9-1.3,1.3c-0.6,0.4-1.4,0.6-2.4,0.6
			c-1.3,0-2.3-0.4-3.1-1.2c-0.8-0.8-1.2-2-1.2-3.5v-3.8c0-1.5,0.4-2.6,1.1-3.4c0.7-0.8,1.7-1.2,3-1.2c1.2,0,2.1,0.3,2.8,0.9
			c0.7,0.6,1,1.5,1,2.6l0,0.1h-1c0-0.9-0.3-1.5-0.8-2s-1.2-0.7-2.1-0.7c-0.9,0-1.7,0.3-2.2,0.9c-0.5,0.6-0.8,1.5-0.8,2.7v3.8
			c0,1.2,0.3,2.2,0.9,2.8c0.6,0.7,1.4,1,2.3,1c0.7,0,1.3-0.1,1.7-0.4s0.7-0.6,0.9-0.9v-3.3h-2.7v-0.9h3.7V257.3z M83.1,246
			c1.3,0,2.3,0.4,3,1.2c0.7,0.8,1.1,2,1.1,3.6v3.6c0,1.6-0.4,2.7-1.1,3.6c-0.7,0.8-1.7,1.2-3,1.2c-1.2,0-2.2-0.4-2.9-1.2
			c-0.7-0.8-1.1-2-1.1-3.6v-3.6c0-1.6,0.4-2.7,1.1-3.6C80.9,246.4,81.9,246,83.1,246z M83.1,247c-0.9,0-1.7,0.3-2.2,1
			c-0.5,0.6-0.8,1.6-0.8,2.9l0,0v3.6c0,1.3,0.3,2.2,0.8,2.9c0.5,0.6,1.2,1,2.2,1c1,0,1.7-0.3,2.2-1c0.5-0.6,0.8-1.6,0.8-2.9l0,0
			v-3.6c0-1.3-0.3-2.2-0.8-2.9C84.8,247.3,84.1,247,83.1,247z"/>
		<path id="FROM" d="M10,102v5.1h6v1.1H3.2v-6.9h0.9v5.8h5V102H10z M10.2,98.1H16v1.1H3.2v-3.7c0-1.1,0.3-2,0.9-2.6s1.5-0.9,2.6-0.9
			c0.7,0,1.3,0.2,1.8,0.5s0.9,0.8,1.2,1.4c0.2-0.7,0.6-1.1,1.1-1.4s1.2-0.4,1.9-0.4h1.2c0.4,0,0.8,0,1.1-0.1s0.6-0.2,0.8-0.4H16v1.1
			c-0.2,0.2-0.5,0.3-0.9,0.4S14.3,93,13.9,93h-1.2c-0.8,0-1.4,0.2-1.8,0.6s-0.7,0.9-0.7,1.6V98.1z M9.3,98.1v-2.5
			c0-0.9-0.2-1.6-0.7-2S7.5,93,6.7,93c-0.8,0-1.5,0.2-1.9,0.6s-0.7,1-0.7,1.9v2.6H9.3z M11.4,81.4c1.6,0,2.7,0.4,3.6,1.1
			c0.8,0.7,1.2,1.7,1.2,3c0,1.2-0.4,2.2-1.2,2.9c-0.8,0.7-2,1.1-3.6,1.1H7.8c-1.6,0-2.7-0.4-3.6-1.1C3.4,87.7,3,86.7,3,85.5
			c0-1.3,0.4-2.3,1.2-3c0.8-0.7,2-1.1,3.6-1.1H11.4z M7.8,82.5c-1.3,0-2.2,0.3-2.9,0.8s-1,1.3-1,2.2c0,0.9,0.3,1.7,1,2.2
			s1.6,0.8,2.9,0.8h3.6c1.3,0,2.2-0.3,2.9-0.8s1-1.2,1-2.2c0-1-0.3-1.7-1-2.2s-1.6-0.8-2.9-0.8H7.8z M3.2,77.6L14.4,74V74L3.2,70.4
			V69H16v1h-5.6L5.1,70l0,0.1L16,73.6v0.7L5.1,77.9l0,0.1l5.2-0.1H16v1H3.2V77.6z"/>
		<path id="_x30_8052019" d="M178.7,41.8c0,1.7-0.3,2.9-0.9,3.8c-0.6,0.9-1.4,1.3-2.4,1.3c-1,0-1.9-0.4-2.4-1.3
			c-0.6-0.9-0.9-2.2-0.9-3.8v-2.9c0-1.6,0.3-2.9,0.9-3.8c0.6-0.9,1.4-1.3,2.4-1.3c1,0,1.9,0.4,2.4,1.3c0.6,0.9,0.9,2.2,0.9,3.8V41.8
			z M177.6,38.7c0-1.3-0.2-2.3-0.6-3c-0.4-0.7-1-1-1.7-1c-0.7,0-1.3,0.4-1.7,1.1s-0.6,1.7-0.6,3V42c0,1.3,0.2,2.3,0.6,3
			s1,1.1,1.7,1.1c0.7,0,1.3-0.4,1.7-1.1s0.6-1.7,0.6-3V38.7z M187.3,37.2c0,0.7-0.2,1.3-0.5,1.8c-0.3,0.5-0.8,0.9-1.3,1.1
			c0.6,0.2,1.2,0.6,1.6,1.2c0.4,0.6,0.6,1.2,0.6,2c0,1.2-0.3,2-0.9,2.7c-0.6,0.6-1.5,0.9-2.5,0.9c-1,0-1.9-0.3-2.5-0.9
			c-0.6-0.6-0.9-1.5-0.9-2.7c0-0.8,0.2-1.4,0.6-2c0.4-0.6,0.9-1,1.6-1.2c-0.6-0.2-1-0.6-1.3-1.1s-0.5-1.1-0.5-1.8
			c0-1.1,0.3-2,0.9-2.6c0.6-0.6,1.3-0.9,2.3-0.9c0.9,0,1.7,0.3,2.3,0.9C187,35.3,187.3,36.2,187.3,37.2z M186.5,43.4
			c0-0.8-0.2-1.5-0.7-2c-0.5-0.5-1-0.8-1.7-0.8c-0.7,0-1.3,0.3-1.7,0.8c-0.4,0.5-0.7,1.2-0.7,2c0,0.8,0.2,1.5,0.7,2
			c0.4,0.5,1,0.7,1.7,0.7c0.7,0,1.2-0.2,1.7-0.7C186.3,44.8,186.5,44.2,186.5,43.4z M186.2,37.2c0-0.7-0.2-1.3-0.6-1.8
			c-0.4-0.5-0.9-0.7-1.5-0.7c-0.6,0-1.1,0.2-1.5,0.7c-0.4,0.5-0.6,1.1-0.6,1.9c0,0.8,0.2,1.4,0.6,1.8c0.4,0.4,0.9,0.7,1.5,0.7
			c0.6,0,1.1-0.2,1.5-0.7C186,38.6,186.2,38,186.2,37.2z M200.2,41.8c0,1.7-0.3,2.9-0.9,3.8c-0.6,0.9-1.4,1.3-2.4,1.3
			c-1,0-1.9-0.4-2.4-1.3c-0.6-0.9-0.9-2.2-0.9-3.8v-2.9c0-1.6,0.3-2.9,0.9-3.8c0.6-0.9,1.4-1.3,2.4-1.3c1,0,1.9,0.4,2.4,1.3
			c0.6,0.9,0.9,2.2,0.9,3.8V41.8z M199.1,38.7c0-1.3-0.2-2.3-0.6-3c-0.4-0.7-1-1-1.7-1c-0.7,0-1.3,0.4-1.7,1.1
			c-0.4,0.7-0.6,1.7-0.6,3V42c0,1.3,0.2,2.3,0.6,3c0.4,0.7,1,1.1,1.7,1.1c0.7,0,1.3-0.4,1.7-1.1c0.4-0.7,0.6-1.7,0.6-3V38.7z
			 M202.8,41l0.6-7h5.2v1h-4.3l-0.4,4.5c0.3-0.3,0.5-0.5,0.8-0.7c0.3-0.2,0.7-0.3,1.2-0.3c0.9,0,1.7,0.3,2.2,1.1
			c0.6,0.8,0.8,1.8,0.8,3c0,1.3-0.3,2.3-0.8,3.1c-0.5,0.8-1.4,1.2-2.4,1.2c-0.9,0-1.6-0.3-2.2-0.9c-0.6-0.6-0.9-1.5-0.8-2.6l0,0h1
			c0,0.9,0.2,1.5,0.6,2c0.4,0.5,0.9,0.7,1.5,0.7c0.7,0,1.3-0.3,1.7-0.9c0.4-0.6,0.6-1.4,0.6-2.5c0-0.9-0.2-1.7-0.6-2.3
			c-0.4-0.6-0.9-0.9-1.6-0.9c-0.6,0-1.1,0.1-1.4,0.4c-0.3,0.3-0.6,0.6-0.7,1.2L202.8,41z M221.8,46.8h-6.7v-0.8l3.5-4.7
			c0.6-0.9,1.1-1.6,1.3-2.2s0.4-1.1,0.4-1.7c0-0.8-0.2-1.4-0.5-1.9s-0.8-0.7-1.5-0.7c-0.8,0-1.4,0.3-1.8,0.8s-0.6,1.2-0.6,2.1h-1
			l0,0c0-1.1,0.3-2,0.9-2.7c0.6-0.7,1.4-1.1,2.5-1.1c0.9,0,1.7,0.3,2.2,1c0.6,0.6,0.8,1.5,0.8,2.6c0,0.7-0.2,1.4-0.5,2.2
			c-0.3,0.6-0.7,1.3-1.3,2.1l-3.2,4.3h5.4V46.8z M230.4,41.8c0,1.7-0.3,2.9-0.9,3.8s-1.4,1.3-2.4,1.3c-1,0-1.9-0.4-2.4-1.3
			s-0.9-2.2-0.9-3.8v-2.9c0-1.6,0.3-2.9,0.9-3.8c0.6-0.9,1.4-1.3,2.4-1.3c1,0,1.9,0.4,2.4,1.3c0.6,0.9,0.9,2.2,0.9,3.8V41.8z
			 M229.3,38.7c0-1.3-0.2-2.3-0.6-3s-1-1-1.7-1c-0.7,0-1.3,0.4-1.7,1.1s-0.6,1.7-0.6,3V42c0,1.3,0.2,2.3,0.6,3s1,1.1,1.7,1.1
			c0.7,0,1.3-0.4,1.7-1.1s0.6-1.7,0.6-3V38.7z M236.6,46.8h-1.1V35.1l-2.6,0.4v-0.8l3.7-0.8V46.8z M244.2,33.8c1,0,1.9,0.4,2.5,1.2
			s0.9,2,0.9,3.5v3.7c0,1.5-0.3,2.6-1,3.5s-1.5,1.2-2.6,1.2c-0.4,0-0.7,0-1.1-0.1s-0.7-0.2-1.1-0.4l0.2-0.9c0.3,0.2,0.6,0.3,0.9,0.4
			s0.7,0.1,1.1,0.1c0.8,0,1.4-0.3,1.8-1s0.7-1.6,0.7-2.8v-1.2c-0.3,0.5-0.6,0.9-1,1.2s-0.9,0.4-1.4,0.4c-1,0-1.8-0.4-2.4-1.2
			s-0.9-1.9-0.9-3.2c0-1.3,0.3-2.4,0.9-3.2S243.3,33.8,244.2,33.8z M244.2,34.7c-0.6,0-1.2,0.4-1.6,1.1s-0.6,1.6-0.6,2.6
			c0,1,0.2,1.8,0.6,2.5s0.9,1,1.6,1c0.6,0,1.1-0.2,1.5-0.6s0.7-0.8,0.9-1.4l0,0v-1.4c0-1.2-0.2-2.1-0.6-2.8S245,34.7,244.2,34.7z"/>
		<path id="Combined-Shape_1_" d="M244.6,352.7h-231v-0.9h231V352.7z M244.6,353.6h-231v-0.5h231V353.6z M244.6,354.9h-231v-0.5h231
			V354.9z M244.6,358.5h-231v-1.8h231V358.5z M244.6,359.9h-231v-0.5h231V359.9z M244.6,360.8h-231v-0.5h231V360.8z M244.6,362.1
			h-231v-0.5h231V362.1z M244.6,363.5h-231v-0.9h231V363.5z M244.6,364.8h-231v-0.5h231V364.8z M244.6,367.1h-231v-0.5h231V367.1z
			 M244.6,368.4h-231v-0.9h231V368.4z M244.6,369.8h-231v-0.5h231V369.8z M244.6,372h-231v-0.5h231V372z M244.6,373.4h-231v-0.9h231
			V373.4z M244.6,374.7h-231v-0.5h231V374.7z M244.6,377.4h-231v-0.9h231V377.4z M244.6,378.8h-231v-0.9h231V378.8z M244.6,380.6
			h-231v-0.9h231V380.6z M244.6,382h-231v-0.5h231V382z M244.6,383.3h-231v-0.9h231V383.3z M244.6,385.6h-231v-0.5h231V385.6z
			 M244.6,387.4h-231v-0.9h231V387.4z M244.6,388.7h-231v-0.5h231V388.7z M244.6,389.6h-231v-0.5h231V389.6z M244.6,391.9h-231v-0.5
			h231V391.9z M244.6,394.6h-231v-0.9h231V394.6z M244.6,395.5h-231V395h231V395.5z M244.6,396.8h-231v-0.5h231V396.8z M244.6,398.6
			h-231v-0.9h231V398.6z M244.6,399.5h-231v-0.5h231V399.5z M244.6,401.8h-231v-0.5h231V401.8z M244.6,403.6h-231v-0.9h231V403.6z
			 M244.6,405.9h-231v-0.5h231V405.9z M244.6,406.8h-231v-0.5h231V406.8z M244.6,409.5h-231v-1.8h231V409.5z M244.6,410.4h-231v-0.5
			h231V410.4z M244.6,411.7h-231v-0.5h231V411.7z M244.6,414h-231v-1.8h231V414z M244.6,415.3h-231v-0.5h231V415.3z M244.6,417.1
			h-231v-0.9h231V417.1z M244.6,418.9h-231V418h231V418.9z M244.6,420.3h-231v-0.9h231V420.3z M244.6,422.1h-231v-0.9h231V422.1z
			 M244.6,424.3h-231v-0.5h231V424.3z M244.6,425.2h-231v-0.5h231V425.2z M244.6,427h-231v-0.9h231V427z M244.6,429.7h-231v-1.4h231
			V429.7z M244.6,430.6h-231v-0.5h231V430.6z M244.6,432h-231v-0.9h231V432z"/>
		<line id="Line-2" class="st4" x1="13.6" y1="161.2" x2="243.8" y2="161.2"/>
		<line id="Line-2-Copy" class="st4" x1="13.6" y1="265.5" x2="243.8" y2="265.5"/>
	</g>
</g>
</svg>
