<?xml version="1.0" encoding="UTF-8"?>
<svg width="250px" height="200px" viewBox="0 0 250 200" version="1.1" xmlns="http://www.w3.org/2000/svg" xmlns:xlink="http://www.w3.org/1999/xlink">
    <!-- Generator: Sketch 61.2 (89653) - https://sketch.com -->
    <title>ceslogo</title>
    <desc>Created with Sketch.</desc>
    <g id="ceslogo" stroke="none" stroke-width="1" fill="none" fill-rule="evenodd">
        <g id="ces-logo-copy" transform="translate(0.000000, 28.000000)" fill-rule="nonzero">
            <polygon id="Path" fill-opacity="0.44" fill="#1F2937" points="134.238017 14.5973891 138 32.9565564 93.534837 38.5 89.5 1"></polygon>
            <polygon id="Path" fill-opacity="0.44" fill="#1F2937" points="216.539463 134.5 217.5 114.636908 170 105 173.453526 127.114423"></polygon>
            <polyline id="Path" fill-opacity="0.49" fill="#1F2937" points="0 50.7778496 53.5711449 144 173.5 127.242905 173.150449 123.703152 100.594705 114.704323 93.4918347 39 0 50.7778496"></polyline>
            <polygon id="Path" fill="#1F2937" points="137.927357 33 170.832701 104.121598 173.5 127 100.618124 114.437816 93.5 38.5698362"></polygon>
            <polygon id="Path" fill-opacity="0.32" fill="#1F2937" points="250 0 235.547118 118.5 217.658886 115.888339 221.242337 41.2534438 134.258861 14.8087491 133 8.73221069"></polygon>
            <g id="Path" transform="translate(134.000000, 14.500000)">
                <g id="path-1-link" fill="#FFFFFF">
                    <polygon id="path-1" points="0.425138162 0.405 18.889107 90.699 83.8221985 101.459 87.4055213 26.8429999"></polygon>
                </g>
                <g id="path-1-link" fill="#1F2937" fill-opacity="0.82">
                    <polygon id="path-1" points="0.425138162 0.405 18.889107 90.699 83.8221985 101.459 87.4055213 26.8429999"></polygon>
                </g>
            </g>
            <path d="M197.259662,46.45 C196.495582,46.45 195.844514,46.7330001 195.298458,47.287 C194.762402,47.8349999 194.486373,48.496 194.486373,49.2839999 C194.486373,50.071 194.755401,50.746 195.298458,51.2969999 C195.828513,51.8540001 196.495582,52.1339999 197.259662,52.1339999 C198.036743,52.1339999 198.692812,51.8540001 199.231868,51.2969999 C199.767924,50.746 200.047953,50.071 200.047953,49.2839999 C200.047953,48.496 199.767924,47.8349999 199.231868,47.287 C198.67881,46.7330001 198.035743,46.45 197.259662,46.45 Z M200.5,49.273 C200.5,50.1869999 200.178967,50.965 199.546901,51.607 C198.919835,52.2500001 198.158756,52.5749999 197.267663,52.5749999 C196.37657,52.5749999 195.615491,52.2509999 194.993426,51.607 C194.373361,50.9639999 194.055328,50.1929999 194.055328,49.273 C194.055328,48.373 194.374361,47.602 194.993426,46.963 C195.623491,46.324 196.38057,46 197.267663,46 C198.157756,46 198.919835,46.324 199.546901,46.963 C200.178967,47.602 200.5,48.373 200.5,49.273 Z M198.114751,48.5600001 C198.114751,48.3029999 198.041744,48.124 197.882727,48.0359999 C197.728711,47.9450001 197.476685,47.899 197.131649,47.899 L196.602594,47.899 L196.602594,49.2089999 L197.164652,49.2089999 C197.425679,49.2089999 197.616699,49.1849999 197.750713,49.1249999 C197.994739,49.033 198.114751,48.8450001 198.114751,48.5600001 Z M195.965527,47.464 L197.201656,47.464 C197.645702,47.464 197.970736,47.512 198.177758,47.602 C198.545796,47.7470001 198.723815,48.0509999 198.723815,48.508 C198.723815,48.8390001 198.599802,49.072 198.378779,49.2239999 C198.261767,49.306 198.079748,49.3610001 197.860725,49.399 C198.137754,49.438 198.339775,49.5620001 198.462788,49.75 C198.598802,49.9400001 198.656808,50.1239999 198.656808,50.3150001 L198.656808,50.572 L198.665809,50.8400001 L198.700812,51.0260001 L198.722815,51.0779999 L198.136754,51.0779999 L198.123752,51.0359999 L198.09875,50.884 L198.09875,50.5979999 C198.09875,50.176 197.993739,49.9019999 197.772716,49.765 C197.645702,49.6940001 197.414678,49.651 197.083644,49.651 L196.601593,49.651 L196.601593,51.0779999 L195.965527,51.0779999 L195.965527,47.464 Z M91.567639,67.0109999 C87.1871821,62.6300001 80.7315088,59.8649999 72.8926913,59.8649999 C60.5564047,59.8649999 52.4855629,68.971 52.4855629,82.1129999 C52.4855629,95.5989999 61.2464766,104.361 73.4667511,104.361 C81.3075689,104.361 86.956158,102.054 92.7217593,97.328 L92.7217593,112.428 C86.3770976,116.233 79.8094126,117.5 72.8916912,117.5 C51.4484547,117.5 37.5,102.977 37.5,82.1129999 C37.5,61.1330001 52.0235147,46.7210001 72.8916912,46.7210001 C79.8094126,46.7210001 86.0320616,48.1049999 91.5666389,51.3329999 L91.5666389,67.0109999 L91.567639,67.0109999 Z M144.750186,103.552 L144.750186,116.349 L100.367557,116.349 L100.367557,47.875 L144.061114,47.875 L144.061114,60.67 L114.77706,60.67 L114.77706,75.6569999 L141.639861,75.6569999 L141.639861,88.219 L114.77706,88.219 L114.77706,103.551 L144.750186,103.551 L144.750186,103.552 Z M151.270866,98.0189999 C156.457407,101.939 162.223008,105.05 169.830801,105.05 C175.711415,105.05 180.897956,102.976 180.897956,97.3269999 C180.897956,92.1389999 176.632511,90.179 169.483765,88.1039999 C155.765334,84.299 150.118746,78.538 150.118746,67.0100001 C150.118746,53.9840001 160.264804,46.72 172.944126,46.72 C180.670932,46.7210001 186.315521,48.682 191.160026,51.793 L191.160026,66.202 C185.739461,61.8230001 180.207884,59.1710001 173.407174,59.1710001 C167.525561,59.1710001 164.298224,62.0540001 164.298224,66.3179999 C164.298224,71.161 168.216633,73.12 176.172463,75.311 C189.891894,79.229 195.194447,85.3379999 195.194447,96.866 C195.194447,111.161 183.897268,117.501 169.831801,117.499001 C162.33802,117.499001 155.650322,115.427 151.271866,112.544 L151.271866,98.0189999 L151.270866,98.0189999 Z" id="Combined-Shape" fill="#FFFFFF"></path>
        </g>
    </g>
</svg>