<?xml version="1.0" encoding="UTF-8"?>
<svg width="250px" height="200px" viewBox="0 0 250 200" version="1.1" xmlns="http://www.w3.org/2000/svg" xmlns:xlink="http://www.w3.org/1999/xlink">
    <!-- Generator: Sketch 61.2 (89653) - https://sketch.com -->
    <title>intersectlogo</title>
    <desc>Created with Sketch.</desc>
    <g id="intersectlogo" stroke="none" stroke-width="1" fill="none" fill-rule="evenodd">
        <path d="M99.7423519,2.33724318 C100.199899,2.51335245 100.592647,3.46958619 100.609465,4.07755891 C100.710373,7.70066079 100.706415,11.3272255 100.711857,14.9523061 C100.733126,28.8753266 100.741535,42.7988419 100.762805,56.7218624 C100.765278,58.4438746 100.805344,60.1658869 100.840959,61.8878991 C100.880531,63.78701 101.049205,63.9482786 103.009484,63.9962634 C103.503634,64.0081359 103.998774,63.9759812 104.492925,63.9888431 C106.466065,64.0388067 106.724269,64.3435351 106.531852,66.3668129 C106.323607,68.5548221 106.324101,68.5815353 104.102155,68.6062697 C100.633208,68.6448555 101.086303,68.6008282 100.89537,71.6990651 C100.870638,72.1042153 100.902295,72.5133231 100.864207,72.9164946 C100.782096,73.7797268 101.555227,74.8626009 99.9718673,75.2989166 C97.8265909,75.8895752 96.3134711,75.759472 95.5165977,74.5197815 C94.6361292,73.1504825 93.8001787,71.7505127 92.9948963,70.3352076 C92.3241573,69.1583426 91.425387,68.6107219 90.0107016,68.6374352 C85.3140451,68.7269739 80.6154101,68.6958084 75.9177643,68.7432986 C73.840749,68.7640755 73.6191479,68.9436476 73.600846,70.9961121 C73.5568226,75.9286556 73.5835335,80.8611991 73.5884799,85.7937427 C73.5914478,88.5902193 73.5993621,91.3871906 73.6186533,94.1836673 C73.6334926,96.3479314 73.8165114,96.5725202 76.0419203,96.5740043 C84.8569929,96.5814246 93.6730549,96.5532273 102.488622,96.5369026 C102.900662,96.5359132 103.312701,96.5185991 103.724741,96.5136522 C106.79253,96.479024 106.99583,96.8070028 106.504152,99.7444658 C106.30481,100.934687 105.710247,100.905995 104.829778,100.908469 C95.5304477,100.933698 86.2306227,100.98663 76.9312924,101.030162 C76.4371418,101.032636 75.9424966,101.028184 75.4478513,101.015322 C74.2122275,100.984156 73.6404177,101.569373 73.6646553,102.815495 C73.6997751,104.62754 73.6799893,106.440575 73.6933447,108.253116 C73.747261,115.652178 73.7878219,123.051241 73.8709223,130.450304 C73.89516,132.637323 73.9515495,132.663047 76.0770401,132.693718 C78.3820868,132.726368 80.6886176,132.727357 82.9936643,132.697676 C85.0385277,132.672446 85.1557586,132.532449 85.1839534,130.381542 C85.2022553,128.980583 85.1735659,127.579624 85.1839534,126.179159 C85.1982981,124.303299 85.3105826,124.092561 87.0354105,124.093056 C91.0548977,124.095035 95.0743848,124.204361 99.093872,124.244925 C99.9036062,124.25284 100.713835,124.11037 101.524064,124.100971 C107.951484,124.028746 114.378904,123.976309 120.806324,123.908042 C122.693891,123.88776 122.726537,123.873909 122.718128,122.016352 C122.655308,108.093331 122.59051,94.1708054 122.499,80.2482795 C122.468332,75.6160122 122.336262,70.9847342 122.294217,66.3529616 C122.275529,64.2999406 122.59061,63.8862004 124.508081,63.866844 L124.698688,63.8661602 C131.329902,63.8819903 137.974471,63.7251739 144.588372,64.0897596 C149.160873,64.342051 153.614659,65.3764456 157.465472,68.346558 C160.406632,70.6156963 162.358008,73.4205826 163.373514,76.8730168 C164.649699,81.2104495 164.75308,85.6013087 163.610944,90.034711 C162.124535,95.8032789 158.493839,99.6791668 153.274343,102.242645 C152.68522,102.532038 152.049601,102.725461 151.440693,102.977753 C149.567966,103.754414 149.544718,103.786074 150.59386,105.62236 C153.165026,110.123535 155.716406,114.637077 158.347919,119.102634 C161.003669,123.60925 159.564252,122.731177 164.757037,122.888488 C169.581312,123.034916 174.220095,124.107402 178.679322,125.923405 C179.295155,126.174212 180.287908,126.899921 180.217174,127.192282 C179.919397,128.432962 179.328296,129.616258 178.713452,130.749096 C178.648654,130.868316 177.686074,130.59129 177.194891,130.373132 C173.397005,128.69119 169.480404,127.494042 165.291749,127.407472 C164.765446,127.396589 164.235186,127.59397 163.706411,127.694391 C163.875085,128.211341 163.966594,128.771329 164.226283,129.237326 C165.42926,131.39516 166.67082,133.530237 167.913863,135.66482 C168.48221,136.640841 168.149314,137.009384 167.103139,136.964368 C166.7742,136.950022 166.434874,136.918362 166.115333,136.97723 C163.818695,137.402167 162.448528,136.423178 161.529972,134.32075 C160.809274,132.670962 159.764583,131.160677 158.839596,129.602901 C157.603478,127.519272 157.592101,127.517293 155.342949,128.057493 C147.470176,129.947205 141.806488,134.611627 138.206954,141.807373 C132.820268,152.57774 133.06858,170.281669 138.946449,180.78441 C143.477894,188.881478 150.535492,193.142234 159.834822,193.624556 C165.617225,193.924338 171.342744,193.573108 176.922837,191.936677 C178.260852,191.544389 178.47998,192.01929 178.523509,193.175379 C178.61848,195.715112 178.548241,195.954046 176.045336,196.553115 C169.919155,198.019373 163.753402,198.459646 157.427384,197.926866 C149.964672,197.297622 143.84591,194.278535 138.731278,188.973985 C135.339991,185.456747 133.089849,181.216768 131.753318,176.600331 C128.737466,166.182676 128.354116,155.665589 131.566342,145.198465 C134.851776,134.492902 141.825779,127.388179 152.612507,124.134115 C152.927102,124.039135 153.249116,123.964437 153.561237,123.860552 C155.031817,123.369326 155.123821,123.174419 154.330905,121.783353 C151.477297,116.775617 148.556911,111.805477 145.77008,106.761629 C145.022176,105.407665 144.11104,104.932763 142.617211,104.97778 C138.359305,105.105905 134.097936,105.113325 129.838052,105.18456 C127.364331,105.226114 127.341577,105.240955 127.343061,107.666909 C127.349492,116.565869 127.387085,125.464828 127.367299,134.364283 C127.365815,135.20278 127.256993,136.602255 126.826652,136.765997 C125.817575,137.149876 124.572553,137.035603 123.447235,136.908468 C123.170234,136.877302 122.813595,136.033363 122.789852,135.548073 C122.709719,133.904222 122.792325,132.25295 122.7577,130.605141 C122.716644,128.654088 122.592983,128.511618 120.617865,128.494798 C117.321549,128.466106 114.024738,128.501724 110.727928,128.506671 C104.547336,128.515575 98.3667435,128.510134 92.1861513,128.536847 C90.0245517,128.546741 89.0698864,129.919997 89.9740978,131.880449 C90.1848167,132.337542 91.1399767,132.667994 91.7617457,132.682835 C94.8908714,132.758028 98.0239543,132.711032 101.155059,132.703612 C102.22646,132.701138 103.298356,132.676404 104.369758,132.684814 C106.515529,132.700644 107.639858,134.547318 106.567467,136.423178 C106.351801,136.800131 105.634071,137.066274 105.139921,137.080125 C101.352917,137.18302 97.5634396,137.21468 93.7749518,137.257224 C93.2817905,137.26316 92.7881346,137.190935 92.2944786,137.182031 C89.9884426,137.137509 89.8618134,137.234963 89.8534044,139.456116 C89.8351025,144.232833 89.8301561,149.010044 89.8504365,153.78676 C89.862308,156.45066 89.9157297,156.46649 92.6976145,156.465501 C102.010795,156.462533 111.323975,156.463027 120.63765,156.468964 C122.837338,156.470448 123.91418,158.220657 122.881856,160.16528 C122.724559,160.461104 122.277399,160.722299 121.930653,160.773747 C121.20303,160.882084 120.452158,160.858833 119.71118,160.857844 C110.733369,160.846961 101.755063,160.822721 92.7772524,160.819258 L92.3827519,160.81996 C89.8780279,160.832605 89.8386357,161.042057 89.8499419,163.697359 C89.8855563,172.34749 89.8984171,180.997621 89.923644,189.647752 C89.932053,192.499139 89.9444191,192.53624 92.8272115,192.546629 C102.140887,192.578784 111.454562,192.584225 120.768731,192.608465 C123.093564,192.614896 124.146664,194.105888 123.145996,196.17171 C122.926374,196.62435 121.944998,196.91028 121.3074,196.923142 C118.094679,196.987946 114.879485,196.932046 111.665281,196.928089 C103.752441,196.919185 95.8400956,196.921658 87.9277505,196.906323 C85.5381194,196.902365 85.5128925,196.883072 85.4975585,194.363621 C85.4515565,186.538632 85.4362225,178.714136 85.3902205,170.889641 C85.3417453,162.81978 85.269527,154.750414 85.2121482,146.680553 C85.1953303,144.318908 85.2383644,141.955285 85.1691141,139.595124 C85.1003584,137.228037 85.0543564,137.209733 82.5821195,137.167685 C79.0389757,137.107333 75.494348,137.117721 71.9521935,137.025709 C69.3300791,136.957937 69.3513489,136.905994 69.2944647,134.338064 C69.263302,132.923254 69.1999874,131.596993 67.4820845,130.943509 C60.9849194,128.470558 54.3744805,127.137866 47.4257043,128.543278 C46.9429306,128.640731 46.4670819,128.782707 45.9976636,128.934082 C41.9252494,130.246986 41.8485793,130.353839 41.8189006,134.597281 C41.8025773,136.933697 41.8025773,136.933697 39.3070922,136.977724 C37.0747582,137.016805 36.7013011,137.260192 36.4797,139.445233 C35.6368245,147.772827 38.2589389,150.970001 44.9940284,154.444697 C49.2741936,156.653483 53.9213855,158.142002 58.3375781,160.103443 C60.7336396,161.167519 63.1015064,162.376044 65.2888276,163.813611 C72.095146,168.286588 73.9728193,174.336139 72.6971292,182.038941 C71.2972832,190.49268 65.4941053,194.845448 57.5743405,196.698553 C52.1327484,197.972377 46.5961843,197.633021 41.1006758,197.006744 C38.671473,196.730213 36.2773901,196.139555 33.8739089,195.660201 C33.3139705,195.548401 32.757,195.356957 32.2381171,195.118517 C30.9421466,194.523406 30.2105663,192.795952 30.7972156,191.316832 C31.3838648,189.838207 32.5962403,190.594586 33.5306251,190.882001 C34.8463815,191.286161 36.1077268,191.866926 37.3987508,192.356174 C37.7014737,192.470941 38.0254664,192.581752 38.3435232,192.594119 C43.0233618,192.767755 47.7111146,193.167958 52.3810603,193.014605 C56.732949,192.87164 60.6530125,191.311885 64.071011,188.355624 C68.9492023,184.136917 70.1220061,173.514956 63.7049735,168.591811 C61.0032213,166.519064 57.8167167,165.024114 54.7227108,163.531638 C51.841897,162.142057 48.8201092,161.027028 45.8092037,159.932281 C42.3630104,158.679729 39.3664496,156.724223 36.587038,154.39968 C34.6445662,152.775121 33.3001205,150.692481 32.5062149,148.312038 C31.3057109,144.712186 31.3160984,141.001524 32.0328394,137.327469 C32.5447972,134.70265 33.7403547,132.315776 35.7055802,130.448325 C36.8125962,129.396616 37.2226571,128.262294 37.2147428,126.742115 C37.1395567,112.655353 37.1291692,98.5680954 37.1034476,84.4808382 C37.0955333,80.2829077 37.1103727,76.085472 37.0930601,71.8880362 C37.0821779,69.1623001 37.0257883,69.1232197 34.3418433,69.1251985 C33.8476927,69.1256931 33.3530475,69.129156 32.8584023,69.1385551 C31.9616105,69.1553745 31.4991172,69.5961423 31.5015904,70.5132957 C31.5045583,71.6669103 31.4313508,72.8234931 31.4976332,73.9726555 C31.5703461,75.2469742 31.0480007,75.8158665 29.7797303,75.7421579 C29.2865691,75.7134659 28.7904399,75.7218756 28.2962893,75.737211 C27.2684165,75.7698604 26.779707,75.2974325 26.8044393,74.2556176 C26.8291715,73.1851107 26.7579426,72.1106463 26.8227412,71.0436022 C26.9058416,69.677766 26.3632157,69.1044215 24.965843,69.1316294 C22.2472728,69.1855505 19.5252401,69.1835718 16.8081538,69.0905702 C16.1928151,69.0692986 15.1209189,68.6478236 15.0724437,68.2985732 C14.9097054,67.1231923 15.0437543,65.8844911 15.2510106,64.7026792 C15.2846465,64.512224 16.2719584,64.4122968 16.8210146,64.402403 C19.5366169,64.3514501 22.2546924,64.2891193 24.9698001,64.3455138 C26.4111963,64.3751951 26.779707,63.7776109 26.7737713,62.4211738 C26.7401354,54.4294738 26.7945464,46.4367844 26.7940517,38.4450844 C26.7935571,27.5663797 26.7663516,16.6886643 26.7614051,5.81045431 C26.7604159,3.29298224 28.3096447,2.09237215 30.6216165,2.95560437 C31.0633347,3.12083048 31.4120596,4.11119776 31.4313508,4.73252708 C31.5238494,7.69670328 31.49516,10.664837 31.4956547,13.6314866 C31.4986225,29.4501552 31.4976332,45.2688238 31.4976332,61.0869977 C31.4976332,61.5816866 31.4956547,62.0758809 31.4887296,62.5705699 C31.4733956,63.7593074 31.9670516,64.4192225 33.2462041,64.4142756 C38.603212,64.3915199 43.9602198,64.3855836 49.3177223,64.3934986 C50.6310054,64.3954774 50.995559,63.6920297 50.9841821,62.5072497 C50.9545034,59.5406 50.9965483,56.5739504 50.9876446,53.6073008 C50.9386748,37.7050297 50.8827799,21.8032534 50.8298528,5.90098239 C50.8278742,5.40678812 50.8446922,4.91110979 50.8189706,4.41790491 C50.7536774,3.17771971 51.3027337,2.73447841 52.5635844,2.62564684 C54.5738226,2.45250571 55.8519858,3.01496705 56.9896699,4.84976836 C66.1885872,19.6869741 75.4983051,34.4549233 84.7931837,49.2322717 C87.5498416,53.6152158 90.3678354,57.9600688 93.1576346,62.322236 C93.2906941,62.5305001 93.4311734,62.7343119 93.5518668,62.9495016 C94.0643193,63.8607186 94.9047215,64.3618385 95.7926097,63.8453833 C96.2422422,63.5841875 96.4885755,62.6319113 96.4870916,61.9927732 C96.4757148,56.9682175 96.3579892,51.9441565 96.3213855,46.9196008 C96.2961585,43.4672903 96.3048767,40.0144233 96.3108124,36.5616258 L96.3144604,33.1088747 L96.3144604,33.1088747 C96.3144604,24.0481519 96.0196519,14.9869343 96.0191572,5.92670621 C96.0191572,5.59724337 96.0102536,5.26728584 96.0122322,4.937823 C96.0231144,2.40946777 97.3522261,1.41761642 99.7423519,2.33724318 Z M232.094754,123.485944 C235.019363,123.487453 235.00211,123.554104 234.999832,126.288278 C234.998166,127.728928 234.437695,128.120441 233.095914,128.10563 C228.98973,128.061689 224.88256,128.110567 220.775883,128.129328 L217.449344,128.139387 C216.340416,128.145127 215.231549,128.157469 214.123175,128.189067 C212.328876,128.240413 212.17853,128.463077 212.191839,130.215752 C212.284512,142.793051 212.335284,155.371338 212.469364,167.948636 C212.566473,177.081311 212.767592,186.212997 212.93322,195.345178 C212.954416,196.496513 212.643864,197.273121 211.296168,197.207951 C210.726331,197.180797 210.152056,197.235105 209.580247,197.25831 C208.560848,197.300275 208.129034,196.861366 208.118682,195.794949 C208.094528,193.349102 207.907704,190.904737 207.889958,188.458891 C207.803201,176.47602 207.759329,164.49315 207.681445,152.51028 C207.635109,145.355414 207.559196,138.200547 207.486241,131.045681 C207.45765,128.23597 207.407371,128.195485 204.529591,128.239919 L195.785095,128.383528 C192.870346,128.430245 189.955596,128.471964 187.0406,128.497143 C186.276544,128.504055 184.933284,128.332737 184.848992,127.995532 C184.561115,126.844691 184.593156,125.561041 184.796247,124.379096 C184.841597,124.112985 186.074439,123.91945 186.762089,123.916488 C191.908703,123.895423 197.055537,123.893448 202.202443,123.894472 L209.92284,123.896246 L209.92284,123.896246 C217.312985,123.896246 224.704116,123.482022 232.094754,123.485944 Z M55.3316191,11.6932953 C55.1174377,11.8674258 54.8572543,12.1637445 54.8666525,12.403174 C54.9131492,13.6359388 55.1159537,14.8647462 55.1248574,16.096027 C55.2361525,31.4951993 55.3256833,46.8943717 55.4142248,62.2930494 C55.4241177,64.0130828 55.6239544,64.2777414 57.3977522,64.3361147 C59.1265373,64.393004 60.8587849,64.3771739 62.5895485,64.3672801 C63.5793337,64.3618385 64.1654883,64.7056474 64.0858504,65.8078144 C64.0502359,66.2990405 64.0621074,66.799171 64.110088,67.2899024 C64.2342439,68.551854 63.6955753,69.1182728 62.4188959,69.0945277 C60.6060212,69.0613836 58.7916625,69.1153047 56.9792823,69.0871074 C55.9499256,69.0712774 55.433516,69.5145187 55.4439035,70.5434717 C55.455775,71.6960969 55.4236231,72.8536691 55.5151324,74.0003581 C55.6056525,75.1331958 55.2509919,75.7485888 54.0366379,75.6951624 C53.5434766,75.6733961 53.0458635,75.6684492 52.5536914,75.7030774 C51.3759412,75.7851958 50.9193836,75.234607 50.9703321,74.0854446 C51.0212805,72.9338087 50.941148,71.7762365 50.9950643,70.6250954 C51.0504646,69.4447675 50.5063548,68.9762971 49.3770798,69.0074625 C47.6487893,69.055942 45.919015,69.0668252 44.1907245,69.1123365 C41.9138725,69.1716992 41.8159328,69.2498601 41.8129649,71.5016842 C41.8010934,80.1503311 41.8080184,88.798978 41.8095024,97.447625 L41.809997,104.122463 L41.809997,104.122463 C41.8139542,110.550451 41.8119756,116.978439 41.8297828,123.406428 C41.8362132,125.702774 41.8639134,125.691891 43.9854467,125.060173 C45.009857,124.755444 46.0481174,124.473966 47.0987438,124.284501 C53.5701874,123.115551 59.8887856,123.978288 66.1307138,125.777472 C69.2276876,126.670385 69.2311501,126.669891 69.2083964,123.31491 C69.1287585,111.564564 69.0412063,99.8147116 68.9684934,88.0643649 C68.92447,80.9492538 68.8987485,73.8346373 68.870059,66.7195261 C68.8591769,64.0081359 68.8661019,64.0328704 71.6207812,64.0422695 C76.6483553,64.0580995 81.6764241,64.0590889 86.7039982,64.0294076 C88.3417686,64.0195138 88.4510852,63.7771162 87.6591582,62.3603271 C87.4983985,62.0724181 87.3198315,61.7948976 87.1447271,61.515893 C76.9159584,45.2856432 66.6871896,29.0553934 56.4574316,12.8256383 C56.2823272,12.5476231 56.1329443,12.2448735 55.9133219,12.0064334 C55.7649283,11.8451648 55.4008694,11.6369008 55.3316191,11.6932953 Z M129.190066,68.2372318 C127.235723,68.2505884 127.121955,68.3500209 127.071501,70.3906128 C126.999481,73.2760345 127.026548,76.163989 127.040255,79.0516903 L127.046274,81.2173752 L127.046274,81.2173752 C127.046274,84.0999215 127.104147,86.9824802 127.13531,89.864538 C127.166473,92.7376915 127.257488,95.6093608 127.314372,98.4815249 C127.359384,100.736812 127.431108,100.870873 129.705981,100.85059 C134.151853,100.81151 138.598713,100.738296 143.043101,100.598299 C144.432559,100.554766 145.843287,100.371237 147.194164,100.044247 C152.77574,98.6947358 157.039582,95.7147296 158.448332,89.8610752 C159.035476,87.4232481 159.242237,84.810301 159.111651,82.3037121 C158.910825,78.4411808 157.627715,74.8937663 154.636596,72.1789134 C151.960565,69.7499906 148.483209,68.790294 145.199754,68.4306552 C139.918427,67.8518691 134.53174,68.2011195 129.190066,68.2372318 Z" id="Combined-Shape-Copy-4" fill="#1F2937"></path>
    </g>
</svg>