<?xml version="1.0" encoding="UTF-8"?>
<svg width="215px" height="250px" viewBox="0 0 215 250" version="1.1" xmlns="http://www.w3.org/2000/svg" xmlns:xlink="http://www.w3.org/1999/xlink">
    <!-- Generator: Sketch 59.1 (86144) - https://sketch.com -->
    <title>Combined Shape</title>
    <desc>Created with Sketch.</desc>
    <defs>
        <linearGradient x1="50%" y1="0%" x2="50%" y2="100%" id="linearGradient-1">
            <stop stop-color="#27D5E4" offset="0%"></stop>
            <stop stop-color="#11ABC4" offset="100%"></stop>
        </linearGradient>
    </defs>
    <g id="Page-1" stroke="none" stroke-width="1" fill="none" fill-rule="evenodd">
        <g id="Desktop-HD-Copy-7" transform="translate(-613.000000, -7185.000000)" fill="url(#linearGradient-1)">
            <path d="M720.5,7226.9928 L828,7281.1503 L828,7394.21108 C828,7416.30247 810.09139,7434.21108 788,7434.21108 L653,7434.21108 C630.90861,7434.21108 613,7416.30247 613,7394.21108 L613,7280.6453 L720.5,7226.9928 Z M665.06,7320.58 L644.78,7320.58 L644.78,7372.36 C644.78,7377.72003 645.639991,7382.63998 647.36,7387.12 C649.080009,7391.60002 651.559984,7395.45998 654.8,7398.7 C658.040016,7401.94002 661.979977,7404.45999 666.62,7406.26 C671.260023,7408.06001 676.499971,7408.96 682.34,7408.96 C688.140029,7408.96 693.359977,7408.06001 698,7406.26 C702.640023,7404.45999 706.579984,7401.94002 709.82,7398.7 C713.060016,7395.45998 715.549991,7391.60002 717.29,7387.12 C719.030009,7382.63998 719.9,7377.72003 719.9,7372.36 L719.9,7372.36 L719.9,7320.58 L699.62,7320.58 L699.62,7372.36 C699.62,7375.44002 699.230004,7378.18999 698.45,7380.61 C697.669996,7383.03001 696.540007,7385.08 695.06,7386.76 C693.579993,7388.44001 691.770011,7389.73 689.63,7390.63 C687.489989,7391.53 685.060014,7391.98 682.34,7391.98 C679.619986,7391.98 677.190011,7391.53 675.05,7390.63 C672.909989,7389.73 671.100007,7388.43001 669.62,7386.73 C668.139993,7385.02999 667.010004,7382.97001 666.23,7380.55 C665.449996,7378.12999 665.06,7375.38002 665.06,7372.3 L665.06,7372.3 L665.06,7320.58 Z M766.58,7320.58 L735.74,7320.58 L735.74,7408 L756.02,7408 L756.02,7378.78 L766.58,7378.78 C772.62003,7378.78 777.849978,7378.05001 782.27,7376.59 C786.690022,7375.12999 790.339986,7373.10001 793.22,7370.5 C796.100014,7367.89999 798.24,7364.78002 799.64,7361.14 C801.040007,7357.49998 801.74,7353.50002 801.74,7349.14 C801.74,7345.09998 801.060007,7341.34002 799.7,7337.86 C798.339993,7334.37998 796.230014,7331.36001 793.37,7328.8 C790.509986,7326.23999 786.870022,7324.23001 782.45,7322.77 C778.029978,7321.30999 772.740031,7320.58 766.58,7320.58 L766.58,7320.58 Z M766.58,7335.76 C769.140013,7335.76 771.349991,7336.08 773.21,7336.72 C775.070009,7337.36 776.609994,7338.26999 777.83,7339.45 C779.050006,7340.63001 779.959997,7342.03999 780.56,7343.68 C781.160003,7345.32001 781.46,7347.13999 781.46,7349.14 C781.46,7353.66002 780.300012,7357.17999 777.98,7359.7 C775.659988,7362.22001 771.860026,7363.48 766.58,7363.48 L766.58,7363.48 L756.02,7363.48 L756.02,7335.76 Z M652.298,7284.972 L647.456,7284.972 L647.456,7311 L662.702,7311 L662.702,7307.004 L652.298,7307.004 L652.298,7284.972 Z M682.574,7284.972 L666.158,7284.972 L666.158,7311 L682.574,7311 L682.574,7307.13 L671.018,7307.13 L671.018,7299.768 L680.126,7299.768 L680.126,7296.042 L671.018,7296.042 L671.018,7288.824 L682.574,7288.824 L682.574,7284.972 Z M687.65,7284.972 L683.762,7284.972 L694.274,7311 L698.648,7311 L709.16,7284.972 L705.254,7284.972 C704.845998,7284.972 704.501001,7285.086 704.219,7285.314 C703.936999,7285.542 703.748,7285.794 703.652,7286.07 L703.652,7286.07 L697.42976,7302.26172 C697.27232,7302.69084 697.126401,7303.1526 696.992,7303.647 C696.823999,7304.265 696.668001,7304.91 696.524,7305.582 C696.355999,7304.91 696.179001,7304.265 695.993,7303.647 C695.806999,7303.029 695.612001,7302.462 695.408,7301.946 L695.408,7301.946 L689.27,7286.07 C689.137999,7285.746 688.940001,7285.482 688.676,7285.278 C688.411999,7285.074 688.070002,7284.972 687.65,7284.972 L687.65,7284.972 Z M728.276,7284.972 L711.86,7284.972 L711.86,7311 L728.276,7311 L728.276,7307.13 L716.72,7307.13 L716.72,7299.768 L725.828,7299.768 L725.828,7296.042 L716.72,7296.042 L716.72,7288.824 L728.276,7288.824 L728.276,7284.972 Z M737.402,7284.972 L732.56,7284.972 L732.56,7311 L747.806,7311 L747.806,7307.004 L737.402,7307.004 L737.402,7284.972 Z M767.678,7284.972 L751.262,7284.972 L751.262,7311 L767.678,7311 L767.678,7307.13 L756.122,7307.13 L756.122,7299.768 L765.23,7299.768 L765.23,7296.042 L756.122,7296.042 L756.122,7288.824 L767.678,7288.824 L767.678,7284.972 Z M781.88,7284.972 L771.962,7284.972 L771.962,7311 L781.88,7311 C783.86001,7311 785.659992,7310.682 787.28,7310.046 C788.900008,7309.41 790.285994,7308.51601 791.438,7307.364 C792.590006,7306.21199 793.483997,7304.83801 794.12,7303.242 C794.756003,7301.64599 795.074,7299.89401 795.074,7297.986 C795.074,7296.07799 794.756003,7294.32601 794.12,7292.73 C793.483997,7291.13399 792.590006,7289.76301 791.438,7288.617 C790.285994,7287.47099 788.900008,7286.577 787.28,7285.935 C785.659992,7285.293 783.86001,7284.972 781.88,7284.972 L781.88,7284.972 Z M781.88,7288.824 C783.152006,7288.824 784.294995,7289.034 785.309,7289.454 C786.323005,7289.874 787.186996,7290.477 787.901,7291.263 C788.615004,7292.049 789.160998,7293.00899 789.539,7294.143 C789.917002,7295.27701 790.106,7296.55799 790.106,7297.986 C790.106,7299.41401 789.917002,7300.69499 789.539,7301.829 C789.160998,7302.96301 788.615004,7303.923 787.901,7304.709 C787.186996,7305.495 786.323005,7306.098 785.309,7306.518 C784.294995,7306.938 783.152006,7307.148 781.88,7307.148 L781.88,7307.148 L776.822,7307.148 L776.822,7288.824 Z M720.5,7185 L828,7239.1575 L828,7268.1575 L720.5,7214 L613,7267.6525 L613,7238.6525 L720.5,7185 Z" id="Combined-Shape"></path>
        </g>
    </g>
</svg>