<svg id="Layer_1" data-name="Layer 1" xmlns="http://www.w3.org/2000/svg" xmlns:xlink="http://www.w3.org/1999/xlink" viewBox="0 0 1058.54 1052.25"><defs><style>.cls-1{fill:#b9e5f4;opacity:0.6;}.cls-1,.cls-20,.cls-21,.cls-22,.cls-23,.cls-24,.cls-25,.cls-26,.cls-27,.cls-28,.cls-29,.cls-30{stroke:#010101;}.cls-1,.cls-13,.cls-20,.cls-21,.cls-22,.cls-23,.cls-24,.cls-25,.cls-26,.cls-27,.cls-28,.cls-29,.cls-30{stroke-linecap:round;stroke-linejoin:round;}.cls-1,.cls-21,.cls-22,.cls-23,.cls-24,.cls-25,.cls-26,.cls-27,.cls-28,.cls-29,.cls-30{stroke-width:2.9px;}.cls-2{fill:#f4f4f4;}.cls-3{fill:#f2d73a;}.cls-4{fill:#4078bc;}.cls-5{fill:#9dc3e8;}.cls-6{fill:#010101;}.cls-7{fill:#b5b5b5;}.cls-8{fill:#f3f3f3;}.cls-9{fill:#c8c8c8;}.cls-10{fill:#dededd;}.cls-11{fill:#7b8cba;}.cls-12{fill:#511b1a;}.cls-13,.cls-20,.cls-23{fill:none;}.cls-13{stroke:#353635;stroke-width:0.85px;}.cls-14{fill:#e586a7;}.cls-15{fill:#353635;}.cls-16{fill:#e4b290;}.cls-17{fill:#ade0eb;}.cls-18{fill:url(#linear-gradient);}.cls-19{fill:url(#linear-gradient-2);}.cls-20{stroke-width:10px;}.cls-21{fill:#bfd545;}.cls-22{fill:#00b1b5;}.cls-24{fill:#c2e1e2;}.cls-25{fill:#9cb3b3;}.cls-26{fill:#889096;}.cls-27{fill:#dcdddf;}.cls-28{fill:#fbdb60;}.cls-29{fill:#25444a;}.cls-30{fill:#f17c3c;}</style><linearGradient id="linear-gradient" x1="415.39" y1="230.71" x2="455.34" y2="230.71" gradientUnits="userSpaceOnUse"><stop offset="0" stop-color="#e586a7" stop-opacity="0.2"/><stop offset="1" stop-color="#fff" stop-opacity="0"/></linearGradient><linearGradient id="linear-gradient-2" x1="274.4" y1="230.71" x2="314.34" y2="230.71" gradientUnits="userSpaceOnUse"><stop offset="0" stop-color="#fff" stop-opacity="0"/><stop offset="1" stop-color="#e586a7" stop-opacity="0.2"/></linearGradient></defs><title>Artboard 1</title><path id="back_window" data-name="back window" class="cls-1" d="M949.59,472.18H109A22.55,22.55,0,0,1,87,444.24l74.19-302.41a22.57,22.57,0,0,1,21.91-17.18H875.4a22.57,22.57,0,0,1,21.91,17.18Q934.42,293,971.5,444.24A22.55,22.55,0,0,1,949.59,472.18Z"/><g id="Penguin"><path class="cls-2" d="M842.09,488.78a52.69,52.69,0,0,1-24.46,9.68A83.34,83.34,0,0,1,783.54,496a130.52,130.52,0,0,1-34.44-15.67c-8.67-5.73-12.74-10.76-14.71-14.58s-1.85-6.46-.9-8.38a8.29,8.29,0,0,1,4.61-3.82,11.9,11.9,0,0,1,6.7-.48c2.92.48,6.87,1.67,12.37,2.87a61.15,61.15,0,0,0,20.64,1.43c8.07-.95,17.15-4.06,24-7.29s11.36-6.58,16.15-12.8a97.07,97.07,0,0,0,13.45-25.47,115.65,115.65,0,0,0,6.32-31c.1-1.41.19-2.85.26-4.31.66-13.94-.3-30.56-2.81-42.76s-6.58-20-10.88-25.77a39.26,39.26,0,0,0-13.94-12.2,48.47,48.47,0,0,0-16.44-4.55,77.75,77.75,0,0,0-16.68-.12,40.32,40.32,0,0,0-13.52,3.59c-4.12,2-8.07,4.84-12.55,10.5s-9.3,13.72-10.85,34.25a25.83,25.83,0,0,1,3.42,1.33c3.38,1.63,7.7,5,6.14,9.51-1.38,3.95-6.28,6.14-9.66,7.17-7.29,2.23-17.29,2-24.33-1.36-3.37-1.62-7.7-5-6.13-9.51,1.36-3.91,6.18-6.1,9.56-7.14-1.56-20.53-6.46-28.72-10.85-34.25s-8.44-8.52-12.56-10.5A40.27,40.27,0,0,0,682.37,291a77.84,77.84,0,0,0-16.69.12,48.47,48.47,0,0,0-16.44,4.55,39.23,39.23,0,0,0-13.93,12.2c-4.31,5.8-8.38,13.57-10.89,25.77s-3.47,28.82-2.81,42.76c.07,1.46.16,2.9.26,4.31a115.65,115.65,0,0,0,6.32,31,97.37,97.37,0,0,0,13.45,25.47c4.79,6.22,9.33,9.57,16.15,12.8s15.91,6.34,24,7.29a61.09,61.09,0,0,0,20.63-1.43c5.5-1.2,9.45-2.39,12.38-2.87a11.91,11.91,0,0,1,6.7.48,8.31,8.31,0,0,1,4.6,3.82c.95,1.92,1.07,4.55-.9,8.38s-6,8.85-14.71,14.58A130.52,130.52,0,0,1,676,496a83.34,83.34,0,0,1-34.09,2.51,52.6,52.6,0,0,1-24.45-9.68,61.09,61.09,0,0,1-9.81-9.35A333.64,333.64,0,0,0,626.58,539,30.86,30.86,0,0,0,655,557.79H804.58A30.86,30.86,0,0,0,833,539a333.64,333.64,0,0,0,18.9-59.54A61.44,61.44,0,0,1,842.09,488.78Zm-70-168.15a9.66,9.66,0,1,1-6.81,11.84A9.65,9.65,0,0,1,772.12,320.63Zm-90,0a9.66,9.66,0,1,1-6.82,11.84A9.66,9.66,0,0,1,682.07,320.63Z"/><path class="cls-3" d="M749.85,350.2c-1.38,3.95-6.28,6.14-9.66,7.17-7.29,2.23-17.29,2-24.33-1.36-3.37-1.62-7.7-5-6.13-9.51,1.36-3.91,6.18-6.1,9.56-7.14l.09,0a37.73,37.73,0,0,1,20.91,0,25.83,25.83,0,0,1,3.42,1.33C747.09,342.32,751.41,345.7,749.85,350.2Z"/><path class="cls-4" d="M687.09,339.28a9.66,9.66,0,1,1,6.82-11.84A9.66,9.66,0,0,1,687.09,339.28Z"/><path class="cls-4" d="M777.15,339.28A9.66,9.66,0,1,1,784,327.44,9.65,9.65,0,0,1,777.15,339.28Z"/><path class="cls-5" d="M685.85,336.92a3.48,3.48,0,1,1,2.45-4.26A3.48,3.48,0,0,1,685.85,336.92Z"/><path class="cls-5" d="M776,336.92a3.47,3.47,0,1,1,2.45-4.26A3.47,3.47,0,0,1,776,336.92Z"/><path class="cls-6" d="M851.89,479.43a61.44,61.44,0,0,1-9.8,9.35,52.69,52.69,0,0,1-24.46,9.68A83.34,83.34,0,0,1,783.54,496a130.52,130.52,0,0,1-34.44-15.67c-8.67-5.73-12.74-10.76-14.71-14.58s-1.85-6.46-.9-8.38a8.29,8.29,0,0,1,4.61-3.82,11.9,11.9,0,0,1,6.7-.48c2.92.48,6.87,1.67,12.37,2.87a61.15,61.15,0,0,0,20.64,1.43c8.07-.95,17.15-4.06,24-7.29s11.36-6.58,16.15-12.8a97.07,97.07,0,0,0,13.45-25.47c3.65-10.17,5.92-21.41,6.58-35.34s-.3-30.56-2.81-42.76-6.58-20-10.88-25.77a39.26,39.26,0,0,0-13.94-12.2,48.47,48.47,0,0,0-16.44-4.55,77.75,77.75,0,0,0-16.68-.12,40.32,40.32,0,0,0-13.52,3.59c-4.12,2-8.07,4.84-12.55,10.5s-9.3,13.72-10.85,34.25a37.73,37.73,0,0,0-20.91,0l-.09,0c-1.56-20.53-6.46-28.72-10.85-34.25s-8.44-8.52-12.56-10.5A40.27,40.27,0,0,0,682.37,291a77.84,77.84,0,0,0-16.69.12,48.47,48.47,0,0,0-16.44,4.55,39.23,39.23,0,0,0-13.93,12.2c-4.31,5.8-8.38,13.57-10.89,25.77s-3.47,28.82-2.81,42.76,2.93,25.17,6.58,35.34a97.37,97.37,0,0,0,13.45,25.47c4.79,6.22,9.33,9.57,16.15,12.8s15.91,6.34,24,7.29a61.09,61.09,0,0,0,20.63-1.43c5.5-1.2,9.45-2.39,12.38-2.87a11.91,11.91,0,0,1,6.7.48,8.31,8.31,0,0,1,4.6,3.82c.95,1.92,1.07,4.55-.9,8.38s-6,8.85-14.71,14.58A130.52,130.52,0,0,1,676,496a83.34,83.34,0,0,1-34.09,2.51,52.6,52.6,0,0,1-24.45-9.68,61.09,61.09,0,0,1-9.81-9.35A334.24,334.24,0,0,1,629.1,272.29a92.58,92.58,0,0,1,42.17-44.57,140.41,140.41,0,0,1,56.9-15.37,29.18,29.18,0,0,1,3.24,0,140.4,140.4,0,0,1,56.89,15.37,92.58,92.58,0,0,1,42.17,44.57A334.24,334.24,0,0,1,851.89,479.43Z"/></g><g id="Naara"><path class="cls-7" d="M261.51,574V602.4H191.65a1.62,1.62,0,0,1-1.89-1.67c-1.23-10.35,2.52-16.22,6.13-19.84A19.94,19.94,0,0,1,207.74,575c4.42-.76,9.62-1,24.43-1Z"/><path class="cls-8" d="M255.35,574.05V602.4H240.69c-7.41,0-10-.1-12.22-.47a10,10,0,0,1-5.92-2.95c-1.81-1.82-3.69-4.75-3.07-9.92a.82.82,0,0,1,1-.84h20.26c-7.41,0-10-.09-12.22-.48a9.84,9.84,0,0,1-5.92-2.94c-1.81-1.81-3.69-4.74-3.07-9.92a.84.84,0,0,1,.56-.75c3.16-.07,7.09-.08,12.13-.08Z"/><path class="cls-7" d="M364.87,602.4H472.55c.71,0,.47-.61.47-1.06v-9.23c0-1,2-.37,2.53-.39A23,23,0,0,0,495,579.67c7.6-13.2,6.18-33.93-3-46a34.6,34.6,0,0,0-20.18-13.39c-.92-.24-1.86-.45-2.8-.61s-.52-2-.52-2.53q0-3-.09-6c-.11-4-.32-8-.63-12-1.27-16.5-3.81-31.55-12.64-46.26a86.64,86.64,0,0,0-7-9.85l-1.9-2.36c-.75-.93-1.62-.85-2.63-.85H286.1c-1,0-1.88-.09-2.63.84l-1.9,2.36a86.64,86.64,0,0,0-7,9.85c-8.84,14.72-11.38,29.78-12.65,46.3q-.46,6-.63,12-.07,3-.09,6c0,.89,1,2.23-.53,2.51-.94.17-1.88.37-2.8.61a34.6,34.6,0,0,0-20.16,13.39c-9.23,12.09-10.65,32.8-3.06,46a23,23,0,0,0,19.48,12.06c.54,0,2.54-.66,2.54.39v9.22c0,.46-.24,1.07.47,1.07H364.87Z"/><path class="cls-9" d="M416.46,602.4h63.22c2.29,0,3.33-.86,3.74-3.11a27.26,27.26,0,0,0,0-11.32,18.76,18.76,0,0,0-3.92-8.27,15.15,15.15,0,0,0-7.22-4.78c-3.1-1-7-1.3-10.38.42-1.57-3.89-6.17-7.27-13.87-7.27s-12.3,3.38-13.87,7.27c-3.38-1.72-7.28-1.4-10.38-.42a15.15,15.15,0,0,0-7.22,4.78,18.76,18.76,0,0,0-3.92,8.27,27.26,27.26,0,0,0,0,11.32C413.14,601.54,414.17,602.4,416.46,602.4Z"/><path class="cls-9" d="M250.05,602.4h63.22c2.29,0,3.32-.86,3.74-3.11a27.26,27.26,0,0,0,0-11.32,18.76,18.76,0,0,0-3.92-8.27,15.15,15.15,0,0,0-7.22-4.78c-3.1-1-7-1.3-10.38.42-1.57-3.89-6.17-7.27-13.87-7.27s-12.3,3.38-13.87,7.27c-3.38-1.72-7.28-1.4-10.38-.42a15.15,15.15,0,0,0-7.22,4.78,18.76,18.76,0,0,0-3.92,8.27,27.26,27.26,0,0,0,0,11.32C246.72,601.54,247.76,602.4,250.05,602.4Z"/><path class="cls-8" d="M364.87,461.12c-10.27,0-15.92,2.4-20,5.94s-6.53,8.22-7.83,14.14-1.42,13.1-1.1,36.92c-.32,23.83-.2,31,1.1,36.92s3.77,10.61,7.83,14.14,9.71,5.94,20,5.94,15.91-2.4,20-5.94,6.53-8.21,7.83-14.14,1.43-13.09,1.1-36.92c.33-23.82.2-31-1.1-36.92s-3.77-10.6-7.83-14.14S375.13,461.12,364.87,461.12Z"/><path class="cls-10" d="M309.4,450.2C287.24,452.75,283.9,467,282,483.62s-2.28,35.5-2.17,54a464.9,464.9,0,0,0,3.73,60.11h51.62a464.9,464.9,0,0,0,3.73-60.11c.11-18.46-.3-37.36-2.17-54S331.56,452.75,309.4,450.2Z"/><path class="cls-10" d="M420.33,450.2c22.16,2.55,25.51,16.83,27.38,33.42s2.27,35.5,2.17,54a466.69,466.69,0,0,1-3.73,60.11H394.52a464.9,464.9,0,0,1-3.73-60.11c-.1-18.46.3-37.36,2.17-54S398.18,452.75,420.33,450.2Z"/><path class="cls-8" d="M277.79,602.4H341c2.28,0,3.32-.86,3.74-3.11a27.26,27.26,0,0,0,0-11.32,18.76,18.76,0,0,0-3.92-8.27,15.15,15.15,0,0,0-7.22-4.78c-3.1-1-7-1.3-10.38.42-1.57-3.89-6.17-7.27-13.87-7.27s-12.3,3.38-13.87,7.27c-3.38-1.72-7.28-1.4-10.38-.42a15.15,15.15,0,0,0-7.22,4.78A18.76,18.76,0,0,0,274,588a27.26,27.26,0,0,0,0,11.32C274.46,601.54,275.5,602.4,277.79,602.4Z"/><path class="cls-8" d="M388.73,602.4h63.21c2.29,0,3.33-.86,3.74-3.11a27.26,27.26,0,0,0,0-11.32,18.76,18.76,0,0,0-3.92-8.27,15.15,15.15,0,0,0-7.22-4.78c-3.1-1-7-1.3-10.38.42-1.57-3.89-6.17-7.27-13.87-7.27s-12.3,3.38-13.87,7.27c-3.37-1.72-7.27-1.4-10.37-.42a15.18,15.18,0,0,0-7.23,4.78,18.87,18.87,0,0,0-3.92,8.27,27.29,27.29,0,0,0,.05,11.32C385.4,601.54,386.44,602.4,388.73,602.4Z"/><path class="cls-9" d="M288,407.94H441.71c6.6.9,13.31,8.94,15.08,13.58,2.25,5.91,1.84,10.46-2.26,15.76a105,105,0,0,1-8.4,9c-6.13,6.22-12.23,12.44-18.62,18.47-9.42,8.9-19.32,17.35-29.59,25.54-4.15,3.31-25.29,21.62-33.06,21.62s-28.88-18.3-33-21.61c-10.28-8.19-20.18-16.65-29.6-25.54-6.39-6-12.49-12.25-18.61-18.47a105.17,105.17,0,0,1-8.41-9c-4.1-5.3-4.52-9.84-2.27-15.77C274.71,416.88,281.42,408.84,288,407.94Z"/><path class="cls-8" d="M364.87,407.94H309.94c-2.61,0-18.64-.36-21.29.11a14.64,14.64,0,0,0-5.53,2.25c-8,5.22-9.25,13.86-2.83,20.49,7.94,8.19,30.5,25.1,40,31.75,7.07,4.93,14.29,9.69,21.6,14.36,4.56,2.91,9.14,5.81,13.78,8.63,2.83,1.72,5.11,3.76,9.15,3.76s6.31-2,9.15-3.76c4.64-2.83,9.22-5.72,13.78-8.64,7.31-4.66,14.53-9.43,21.6-14.35,9.54-6.66,32.1-23.56,40-31.75,6.42-6.63,5.2-15.26-2.81-20.48a14.56,14.56,0,0,0-5.53-2.26c-2.72-.48-18.61-.11-21.28-.11Z"/><path class="cls-9" d="M405.36,436.24c-2.44,3.77-34.58,25.67-40.49,25.68s-38.06-21.92-40.5-25.68Z"/><path id="Collar" class="cls-11" d="M288.79,419.74a120.35,120.35,0,0,0,152.16,0,1.71,1.71,0,0,0,.7-1.47V404.73a120.34,120.34,0,0,1-153.56,0v13.54A1.71,1.71,0,0,0,288.79,419.74Z"/><path class="cls-7" d="M485.06,231.88c-.12,2.2-.32,4.21-.59,6.13s-.62,3.78-1,5.63a81.63,81.63,0,0,1-3.55,11.46A116.22,116.22,0,0,1,474,267.67a109.87,109.87,0,0,1-8.85,14.07,94.49,94.49,0,0,1-7.22,8.54c.07.33.14.66.22,1a124.39,124.39,0,0,1,2.8,29.31c-.39,10.13-2.56,19.37-3.73,30.39s-1.32,23.8-4.42,33.78c-2.7,8.68-7.63,15.22-11.2,20a120.31,120.31,0,0,1-153.55,0c-3.56-4.75-8.5-11.29-11.2-20-3.1-10-3.26-22.76-4.42-33.78s-3.34-20.26-3.72-30.39a123.89,123.89,0,0,1,2.79-29.31c.08-.33.15-.67.22-1a92.79,92.79,0,0,1-7.21-8.55,108.77,108.77,0,0,1-8.85-14.07,116.4,116.4,0,0,1-5.85-12.57,80.25,80.25,0,0,1-3.54-11.46c-.43-1.85-.77-3.7-1-5.63s-.47-3.93-.6-6.13-.17-4.61-.08-7.37.33-5.87.77-9.5c.35-2.95.84-6.25,1.61-10.16.39-1.94.85-4,1.4-6.31s1.21-4.74,2-7.39,1.63-5.5,2.62-8.55q.73-2.29,1.55-4.71l1.7-5c.59-1.69,1.19-3.43,1.79-5.18s1.21-3.53,1.8-5.31l.87-2.67c.29-.9.58-1.8.87-2.73l.45-1.39c.16-.48.31-1,.47-1.43s.32-1,.47-1.45c.09-.24.16-.48.25-.73s.16-.51.23-.72a0,0,0,0,1,0,0s0,0,0,0v0l0-.08,0-.15c0-.09.07-.19.11-.28a10.86,10.86,0,0,1,.25-.58c.09-.19.18-.38.28-.56s.22-.37.33-.55a9.49,9.49,0,0,1,.74-1,11,11,0,0,1,.89-.92,9.31,9.31,0,0,1,1-.78,7.8,7.8,0,0,1,1.08-.63,9.4,9.4,0,0,1,4.77-1,10.08,10.08,0,0,1,2.57.46,11.18,11.18,0,0,1,2.45,1.09,10.86,10.86,0,0,1,1.11.76c.18.13.35.27.52.42a2.52,2.52,0,0,1,.25.21l.13.11a.47.47,0,0,0,.1.1l1.07,1,1,1c.68.67,1.34,1.35,2,2s1.31,1.35,1.95,2,1.29,1.4,1.93,2.12c1.3,1.44,2.61,2.94,4,4.54s2.79,3.32,4.33,5.17c6.33,7.62,14.47,17.67,22,27.83A253.4,253.4,0,0,1,334.2,217l.22-.08a85.73,85.73,0,0,1,60.9,0l.21.08a255.42,255.42,0,0,1,15.81-23.41c7.57-10.16,15.71-20.21,22-27.83,1.54-1.85,3-3.56,4.33-5.17s2.67-3.1,4-4.54c.64-.72,1.29-1.42,1.94-2.12s1.29-1.37,1.94-2,1.32-1.36,2-2l1-1,1.06-1,.11-.1.12-.11c.09-.07.16-.15.25-.21s.34-.29.52-.42a12.09,12.09,0,0,1,1.11-.76,11.18,11.18,0,0,1,2.45-1.09,10.08,10.08,0,0,1,2.57-.46,9.21,9.21,0,0,1,2.47.18,9,9,0,0,1,2.3.8,7.8,7.8,0,0,1,1.08.63,10.6,10.6,0,0,1,1,.78c.31.29.6.6.88.92a8.29,8.29,0,0,1,.74,1,6.16,6.16,0,0,1,.33.55c.1.18.19.37.29.56s.08.18.12.29a1.26,1.26,0,0,1,.12.29,1.62,1.62,0,0,1,.11.28c0,.06,0,.11.05.15l0,.08,0,0v0s0,0,0,0c.07.21.16.47.24.72l.24.73.48,1.45.46,1.43.45,1.39c.29.93.58,1.83.87,2.73s.58,1.79.87,2.67c.59,1.78,1.2,3.56,1.8,5.31s1.21,3.49,1.79,5.18l1.7,5q.81,2.42,1.55,4.71c1,3.05,1.87,5.9,2.62,8.55s1.41,5.11,2,7.39,1,4.37,1.4,6.31c.77,3.91,1.27,7.21,1.61,10.16.44,3.63.68,6.74.77,9.5S485.19,229.67,485.06,231.88Z"/><path class="cls-8" d="M352.51,423.09c-26.51-4.62-52.76-10.42-63-41-3.53-10.52-3.55-21.14-4.33-31.88-.63-8.69-1.75-17.29-3.23-25.87-1.21-7.1-2.55-13.92-1.18-21.3,1.13-6.1,6-17.5,14.26-15.26,4.79,1.29,8.49,9.41,10.58,12.57,10.95,16.57,22.82-1.3,33.16-6.18a26.92,26.92,0,0,1,10.65-2.21c2.22-.1,6.47.13,8.06-2.43,1.25-2,1.37-4.14,1.66-6.34.59-4.61.84-9.25,1.22-13.87.63-7.53,1.44-15,2.52-22.49.3-2.06,1.36-4.9,3.32-2.79,1,1.11,1.65,9.63,1.79,10.79,1,8.42,1.54,16.87,2.35,25.31.33,3.39-.15,6.67,2.27,9.78,2,2.61,10.64,2.11,12.91,2.49,5.68,1,9.68,4,13.95,7.34,3.92,3.07,7.33,6.36,12.69,7.32,10.82,1.94,14.75-13.73,20.08-18,4.62-3.67,9.77-.32,12.64,3.63,7.83,10.8,4.23,24.21,2.39,35s-2.56,21.87-3.36,32.87c-.46,6.37-1,12.63-2.8,18.84A52,52,0,0,1,427.27,403a55.73,55.73,0,0,1-20.91,13.09A134.39,134.39,0,0,1,389,421C376.8,423.71,365.14,425.29,352.51,423.09Z"/><path class="cls-8" d="M444.32,268.69Q413.27,237,411.4,228.9c.67-1.17,1.37-2.34,2.08-3.49.84-1.36,1.69-2.71,2.57-4s1.78-2.71,2.69-4.05,1.83-2.67,2.76-4q2-2.91,4.12-5.77c1.39-1.92,2.8-3.82,4.21-5.71l2.18-2.91,2.21-2.9,2.21-2.88,1.11-1.44c.38-.48.75-1,1.12-1.43s.67-.81,1-1.19a13.33,13.33,0,0,1,3.81-2.81,11.2,11.2,0,0,1,2.82-1,9.23,9.23,0,0,1,2.71-.11,7.94,7.94,0,0,1,2.54.73,8.38,8.38,0,0,1,2.27,1.62,9.6,9.6,0,0,1,1.74,2.38,11.71,11.71,0,0,1,1,2.85c.08.33.15.67.22,1s.15.68.23,1c.15.69.29,1.37.44,2.06.46,2.23.9,4.48,1.29,6.74s.75,4.54,1.05,6.82c.16,1.13.29,2.27.42,3.41s.24,2.28.34,3.42c.29,3.26.49,6.51.5,9.74,0,1.56,0,3.13-.16,4.68-.06.88-.15,1.76-.27,2.63s-.24,1.58-.4,2.36c-.22,1.14-.49,2.28-.81,3.4a64.81,64.81,0,0,1-4.39,11.16q-1.72,3.49-3.71,6.88c-1.41,2.42-2.9,4.8-4.5,7.11C446.05,266.4,445.2,267.56,444.32,268.69Z"/><path class="cls-8" d="M347.05,290.15c3.82-11.53,4.86-16.45,5.33-20.38a60.11,60.11,0,0,0-1-18.6,8.91,8.91,0,0,0-3-5,8.59,8.59,0,0,0-5.22-1.83c-1.77,0-3.31.77-6.95,3.64a98.61,98.61,0,0,0-13.9,13.29,71.62,71.62,0,0,0-9.8,15.71,30.24,30.24,0,0,0-3,10.74,57.85,57.85,0,0,0,.15,10.38,23.45,23.45,0,0,0,1.14,5.68,6.17,6.17,0,0,0,3.59,1.55,11.23,11.23,0,0,0,4.53-.53,16.71,16.71,0,0,0,3.2-1.43c.65-.37,1.28-.78,1.89-1.21,1.35-.93,2.64-1.93,3.92-2.94,1.46-1.14,2.9-2.3,4.4-3.38a31.53,31.53,0,0,1,8.44-4.52,21.22,21.22,0,0,1,2.34-.62c.53-.11,1.06-.2,1.59-.28C345.46,290.28,346.25,290.21,347.05,290.15Z"/><path class="cls-8" d="M382.68,290.15c-3.82-11.54-4.85-16.45-5.33-20.38a48.43,48.43,0,0,1-.14-10.21,49,49,0,0,1,1.18-8.39,8.91,8.91,0,0,1,3-5,8.61,8.61,0,0,1,5.22-1.83c1.77,0,3.31.77,6.95,3.64a98.07,98.07,0,0,1,13.9,13.29,71.24,71.24,0,0,1,9.8,15.71,30.29,30.29,0,0,1,3,10.74,58.78,58.78,0,0,1-.16,10.38,23,23,0,0,1-1.14,5.68,6.49,6.49,0,0,1-1.7,1.09,6.86,6.86,0,0,1-1.9.46,9.74,9.74,0,0,1-1.79,0,12.39,12.39,0,0,1-2.76-.55,16.15,16.15,0,0,1-3.2-1.44c-.65-.37-1.27-.78-1.88-1.2-1.34-.93-2.64-1.94-3.92-2.95-1.46-1.14-2.9-2.29-4.4-3.37a31.09,31.09,0,0,0-8.46-4.52,21.22,21.22,0,0,0-2.34-.62c-.53-.11-1.05-.2-1.57-.27C384.26,290.28,383.47,290.21,382.68,290.15Z"/><path class="cls-8" d="M285.42,268.69q31-31.65,32.91-39.79c-.67-1.17-1.37-2.34-2.08-3.49-.83-1.36-1.69-2.71-2.56-4s-1.79-2.71-2.7-4.05-1.83-2.67-2.76-4c-1.35-1.94-2.73-3.86-4.12-5.77s-2.79-3.82-4.21-5.71l-2.18-2.91-2.2-2.9-2.22-2.88-1.11-1.44c-.37-.48-.75-1-1.12-1.43a14.64,14.64,0,0,0-1-1.19,13.33,13.33,0,0,0-3.81-2.81,11.07,11.07,0,0,0-2.82-1,9.21,9.21,0,0,0-2.71-.11,7.88,7.88,0,0,0-2.53.73,8.42,8.42,0,0,0-2.28,1.62,10.13,10.13,0,0,0-1.74,2.38,12.6,12.6,0,0,0-1,2.85c-.08.33-.15.67-.22,1s-.15.68-.22,1c-.15.69-.3,1.37-.44,2.06-.47,2.23-.91,4.48-1.3,6.74s-.75,4.54-1.05,6.82c-.15,1.13-.29,2.27-.42,3.41s-.23,2.28-.34,3.42c-.29,3.26-.49,6.51-.5,9.74,0,1.56,0,3.13.16,4.68.06.88.15,1.76.27,2.63s.24,1.58.4,2.36c.22,1.14.5,2.28.81,3.4a64.81,64.81,0,0,0,4.39,11.16q1.73,3.49,3.71,6.88c1.41,2.42,2.9,4.8,4.51,7.11C283.69,266.4,284.54,267.56,285.42,268.69Z"/><g id="Mouth"><path class="cls-12" d="M395.34,367.2a25.36,25.36,0,0,1-4.65.8,28.16,28.16,0,0,1-11.93-1.66,26,26,0,0,1-10.34-6.68,5.25,5.25,0,0,0-7.11,0A26,26,0,0,1,351,366.34,28.14,28.14,0,0,1,339.05,368a25.21,25.21,0,0,1-4.65-.8c-.17,9.59,2,15,4.07,19s4,6.71,6.28,8.6a24.53,24.53,0,0,0,8.08,4,37.93,37.93,0,0,0,24.07,0,24.58,24.58,0,0,0,8.09-4c2.31-1.89,4.22-4.57,6.27-8.6S395.5,376.79,395.34,367.2Z"/><path class="cls-13" d="M413,357.37c-6.24,4.75-9.67,6.68-12.83,8.08a27.43,27.43,0,0,1-9.45,2.55,28.16,28.16,0,0,1-11.93-1.66,26,26,0,0,1-10.34-6.68,5.25,5.25,0,0,0-7.11,0A26,26,0,0,1,351,366.34,28.14,28.14,0,0,1,339.05,368a27.43,27.43,0,0,1-9.46-2.55c-3.15-1.4-6.59-3.33-12.83-8.08"/><path class="cls-14" d="M346.79,392.43c9.81-8.06,26.34-8.06,36.15,0C373.13,400.48,356.6,400.48,346.79,392.43Z"/></g><path class="cls-15" d="M344,286.78c-.12-.35-1.4-1-2.41-1.64a21.4,21.4,0,0,1-3.4-3c-1.65-1.67-4.24-4.3-7.39-5.46a16.17,16.17,0,0,0-9.62,0,9.22,9.22,0,0,0-5.68,4.11,13,13,0,0,0-1.9,7.51c.18,2.74,1.36,5.46,4.27,6.72s7.57,1,11,0a20,20,0,0,0,7.33-4.07,35.78,35.78,0,0,1,3.39-2.65,6.67,6.67,0,0,1,2.55-.9C343,287.22,344.08,287.14,344,286.78Z"/><path class="cls-15" d="M385.78,286.78c.12-.35,1.4-1,2.41-1.64a21,21,0,0,0,3.4-3c1.66-1.67,4.24-4.3,7.4-5.46a16.14,16.14,0,0,1,9.61,0,9.27,9.27,0,0,1,5.69,4.11,13,13,0,0,1,1.89,7.51c-.18,2.74-1.36,5.46-4.27,6.72s-7.57,1-11,0a20,20,0,0,1-7.34-4.07,37.35,37.35,0,0,0-3.38-2.65,6.78,6.78,0,0,0-2.56-.9C386.69,287.22,385.66,287.14,385.78,286.78Z"/><circle class="cls-16" cx="327.48" cy="286.08" r="7.51"/><path class="cls-17" d="M394.74,286.08a7.51,7.51,0,1,1,7.51,7.51A7.51,7.51,0,0,1,394.74,286.08Z"/><path class="cls-15" d="M364.87,309.62c-12.21.91-16.82,2.73-19.71,4.65a9.57,9.57,0,0,0-4.62,6.89,21.67,21.67,0,0,0,.81,10.69A23.22,23.22,0,0,0,348.11,342c2.93,2.42,6.27,3.44,16.76,3.87,10.49-.43,13.82-1.45,16.76-3.87a23.4,23.4,0,0,0,6.76-10.13,21.78,21.78,0,0,0,.8-10.69,9.57,9.57,0,0,0-4.62-6.89C381.68,312.35,377.08,310.53,364.87,309.62Z"/><circle class="cls-15" cx="329.63" cy="286.49" r="2.12"/><circle class="cls-15" cx="400.1" cy="286.49" r="2.12"/><g id="Inner_Ear" data-name="Inner Ear"><path class="cls-18" d="M441.84,264.27q-24.94-25.42-26.45-32c.54-.94,1.1-1.88,1.67-2.8.68-1.1,1.37-2.18,2.07-3.25s1.43-2.18,2.16-3.25,1.47-2.15,2.22-3.22q1.64-2.33,3.31-4.64t3.38-4.58l1.76-2.34,1.77-2.33c.59-.77,1.18-1.55,1.78-2.32l.89-1.15c.3-.39.6-.78.9-1.15s.53-.65.82-1a11.48,11.48,0,0,1,3.06-2.26,9.26,9.26,0,0,1,2.28-.76,6.94,6.94,0,0,1,2.17-.1,6.8,6.8,0,0,1,2,.59,6.93,6.93,0,0,1,1.83,1.31,7.62,7.62,0,0,1,1.39,1.91,9.44,9.44,0,0,1,.84,2.28l.18.81c0,.28.12.55.18.83.12.55.23,1.1.35,1.65.37,1.79.73,3.6,1,5.42s.61,3.64.85,5.47c.12.92.23,1.84.33,2.75s.19,1.83.27,2.75c.24,2.62.4,5.22.41,7.82,0,1.26,0,2.51-.13,3.77,0,.7-.12,1.41-.22,2.11s-.19,1.26-.32,1.89c-.18.92-.4,1.83-.65,2.74a52.27,52.27,0,0,1-3.53,9c-.92,1.88-1.92,3.72-3,5.53s-2.33,3.86-3.62,5.71C443.23,262.44,442.55,263.36,441.84,264.27Z"/><path class="cls-19" d="M287.89,264.27q24.94-25.42,26.45-32c-.54-.94-1.1-1.88-1.67-2.8-.67-1.1-1.36-2.18-2.06-3.25s-1.44-2.18-2.17-3.25-1.47-2.15-2.22-3.22q-1.64-2.33-3.31-4.64t-3.38-4.58l-1.75-2.34L296,205.89l-1.78-2.32-.9-1.15-.89-1.15c-.27-.34-.54-.65-.83-1a11.13,11.13,0,0,0-.94-.87,10.75,10.75,0,0,0-2.12-1.39,9.19,9.19,0,0,0-2.27-.76,7,7,0,0,0-2.18-.1,6.66,6.66,0,0,0-2,.59,6.77,6.77,0,0,0-1.83,1.31,7.65,7.65,0,0,0-1.4,1.91,9.88,9.88,0,0,0-.84,2.28c-.06.27-.12.54-.17.81l-.18.83-.36,1.65q-.56,2.69-1,5.42t-.84,5.47c-.13.92-.24,1.84-.34,2.75s-.19,1.83-.27,2.75c-.24,2.62-.4,5.22-.4,7.82,0,1.26,0,2.51.12,3.77.05.7.13,1.41.22,2.11s.2,1.26.32,1.89c.18.92.4,1.83.65,2.74a52.27,52.27,0,0,0,3.53,9c.92,1.88,1.92,3.72,3,5.53s2.33,3.86,3.62,5.71C286.5,262.44,287.18,263.36,287.89,264.27Z"/></g></g><circle id="Steering_Wheel" data-name="Steering Wheel" class="cls-20" cx="729.12" cy="498.31" r="67.38"/><g id="Mystery_Machine" data-name="Mystery Machine"><polygon class="cls-21" points="529.27 529.11 50.82 529.11 128.59 841.68 529.27 841.68 929.95 841.68 1007.72 529.11 529.27 529.11"/><path class="cls-22" d="M341.18,685c-2.68-32.51-10-51.45-21.44-67.07s-27-27.94-35.86-30.48q-3.37,23.79,1.55,42.66C235.6,594,199.55,585.82,178.74,587.75a118.85,118.85,0,0,0,29.39,57.07q-47.41,16.95-74.87,35.83,15.45,6.66,44.84,7.73a146.66,146.66,0,0,1-31.43,53.74c-10.52,11.59-18.35,16.84-38.63,17l20.55,82.58H930L950.5,759.1c-20.28-.14-28.11-5.39-38.63-17a146.8,146.8,0,0,1-31.43-53.74q29.4-1.08,44.84-7.73-27.46-18.87-74.88-35.83a118.78,118.78,0,0,0,29.4-57.07C859,585.82,822.94,594,773.11,630.09q4.92-18.87,1.55-42.66c-8.87,2.54-24.43,14.85-35.86,30.48S720,652.47,717.36,685q-16.89-20.55-50.81-33.64H392Q358.08,664.44,341.18,685Z"/><path class="cls-23" d="M949.59,472.18H109A22.55,22.55,0,0,1,87,444.24l74.19-302.41a22.57,22.57,0,0,1,21.91-17.18H875.4a22.57,22.57,0,0,1,21.91,17.18Q934.42,293,971.5,444.24A22.55,22.55,0,0,1,949.59,472.18Z"/><polygon class="cls-24" points="529.27 841.68 107.59 841.68 149.58 931.3 529.27 931.3 908.96 931.3 950.95 841.68 529.27 841.68"/><polygon class="cls-25" points="529.27 900.22 135.02 900.22 149.58 931.3 529.27 931.3 908.96 931.3 923.52 900.22 529.27 900.22"/><polygon class="cls-25" points="529.27 17.9 204.39 17.9 204.39 27.77 529.27 27.77 854.15 27.77 854.15 17.9 529.27 17.9"/><polygon class="cls-24" points="529.27 1.45 189.94 1.45 171 76.71 204.39 75.21 204.39 17.9 529.27 17.9 854.15 17.9 854.15 75.21 887.54 76.71 868.61 1.45 529.27 1.45"/><path class="cls-22" d="M900.35,91.55H158.19L50.82,529.12h956.9Zm49.24,380.63H109A22.55,22.55,0,0,1,87,444.24l74.19-302.41a22.57,22.57,0,0,1,21.91-17.18H875.4a22.57,22.57,0,0,1,21.91,17.18Q934.42,293,971.5,444.24A22.55,22.55,0,0,1,949.59,472.18Z"/><path class="cls-23" d="M949.59,472.18H109A22.55,22.55,0,0,1,87,444.24l74.19-302.41a22.57,22.57,0,0,1,21.91-17.18H875.4a22.57,22.57,0,0,1,21.91,17.18Q934.42,293,971.5,444.24A22.55,22.55,0,0,1,949.59,472.18Z"/><path class="cls-22" d="M529.27,37.62c-125.24,0-220,.54-366.24,34.18q-2.43,9.87-4.85,19.75H900.36q-2.43-9.89-4.85-19.75C749.26,38.16,654.51,37.62,529.27,37.62Z"/><polygon class="cls-22" points="529.27 529.11 72.53 529.11 93.12 487.22 529.27 487.22 965.42 487.22 986.01 529.11 529.27 529.11"/><polygon class="cls-21" points="529.27 529.11 72.53 529.11 86.6 558.68 529.27 558.68 971.94 558.68 986.01 529.11 529.27 529.11"/><polygon class="cls-24" points="42.5 411.49 54.24 414.35 54.7 485.04 43.75 487.89 42.5 411.49"/><polygon class="cls-24" points="1.45 416.74 2.59 486.18 43.75 487.89 42.5 411.49 1.45 416.74"/><polygon class="cls-24" points="55.61 509.61 61.95 483.75 21.52 454.37 21.52 471.7 55.61 509.61"/><path class="cls-26" d="M300.72,723.63a52.69,52.69,0,1,1-43.49-60.5A52.69,52.69,0,0,1,300.72,723.63Z"/><circle class="cls-27" cx="248.73" cy="715.12" r="37.63" transform="translate(-184.89 94.44) rotate(-15.76)"/><path class="cls-26" d="M280.12,800.15a26.16,26.16,0,1,1-26.49-25.84A26.16,26.16,0,0,1,280.12,800.15Z"/><circle class="cls-28" cx="253.96" cy="800.47" r="14.39" transform="translate(-491.64 414.03) rotate(-45)"/><path class="cls-29" d="M181.67,1041.4V931.3h98.91v110.1c0,6.64-2.75,9.4-9.4,9.4H191.07C184.43,1050.8,181.67,1048,181.67,1041.4Z"/><line class="cls-29" x1="255.14" y1="931.3" x2="255.14" y2="1050.8"/><line class="cls-29" x1="259.43" y1="931.3" x2="259.43" y2="1050.8"/><line class="cls-29" x1="233.27" y1="931.3" x2="233.27" y2="1050.8"/><line class="cls-29" x1="228.98" y1="931.3" x2="228.98" y2="1050.8"/><line class="cls-29" x1="202.82" y1="931.3" x2="202.82" y2="1050.8"/><line class="cls-29" x1="207.11" y1="931.3" x2="207.11" y2="1050.8"/><path class="cls-21" d="M368,664a161.34,161.34,0,1,1,165.67,156.9A161.34,161.34,0,0,1,368,664Z"/><path class="cls-30" d="M413.56,592.85c-7.19,12.45-7.84,23.78,1.44,35s28.48,22.25,54.81,31.83c-26.33,9.58-45.53,20.63-54.81,31.82s-8.63,22.54-1.44,35,16.68,18.68,31,16.24,33.51-13.54,55-31.55c-4.87,27.59-4.9,49.75.16,63.38s15.2,18.74,29.57,18.74,24.52-5.1,29.57-18.74,5-35.79.16-63.38c21.46,18,40.63,29.11,55,31.55s23.83-3.79,31-16.24,7.84-23.78-1.44-35-28.48-22.24-54.81-31.82c26.33-9.58,45.53-20.64,54.81-31.83s8.63-22.53,1.44-35-16.68-18.68-31-16.24-33.51,13.54-55,31.55c4.87-27.59,4.9-49.74-.16-63.38S543.64,526,529.27,526s-24.52,5.11-29.57,18.74-5,35.79-.16,63.38c-21.46-18-40.63-29.11-55-31.55S420.74,580.4,413.56,592.85Z"/><path class="cls-30" d="M500.06,644a33.13,33.13,0,1,0,44.84-13.59A33.13,33.13,0,0,0,500.06,644Z"/><path class="cls-29" d="M876.87,1041.4V931.3H778v110.1c0,6.64,2.75,9.4,9.4,9.4h80.1C874.11,1050.8,876.87,1048,876.87,1041.4Z"/><line class="cls-29" x1="851.43" y1="931.3" x2="851.43" y2="1050.8"/><line class="cls-29" x1="855.72" y1="931.3" x2="855.72" y2="1050.8"/><line class="cls-29" x1="829.56" y1="931.3" x2="829.56" y2="1050.8"/><line class="cls-29" x1="825.27" y1="931.3" x2="825.27" y2="1050.8"/><line class="cls-29" x1="799.11" y1="931.3" x2="799.11" y2="1050.8"/><line class="cls-29" x1="803.4" y1="931.3" x2="803.4" y2="1050.8"/><path class="cls-26" d="M757.82,723.63a52.69,52.69,0,1,0,43.49-60.5A52.69,52.69,0,0,0,757.82,723.63Z"/><path class="cls-26" d="M778.42,800.15a26.16,26.16,0,1,0,26.49-25.84A26.16,26.16,0,0,0,778.42,800.15Z"/><path class="cls-28" d="M790.19,800.15a14.39,14.39,0,1,0,14.72-14.07A14.39,14.39,0,0,0,790.19,800.15Z"/><circle class="cls-27" cx="809.81" cy="715.12" r="37.63" transform="translate(-98.38 1300.26) rotate(-74.24)"/><polygon class="cls-24" points="1016.04 411.49 1004.3 414.35 1003.84 485.04 1014.79 487.89 1016.04 411.49"/><polygon class="cls-24" points="1057.09 416.74 1055.95 486.18 1014.79 487.89 1016.04 411.49 1057.09 416.74"/><polygon class="cls-24" points="1002.93 509.61 996.59 483.75 1037.02 454.37 1037.02 471.7 1002.93 509.61"/></g></svg>