<?xml version="1.0" encoding="UTF-8"?>
<svg width="161px" height="136px" viewBox="0 0 161 136" version="1.1" xmlns="http://www.w3.org/2000/svg" xmlns:xlink="http://www.w3.org/1999/xlink">
    <!-- Generator: Sketch 59.1 (86144) - https://sketch.com -->
    <title>pennyhai</title>
    <desc>Created with Sketch.</desc>
    <defs>
        <polygon id="path-1" points="0.025798384 0.409193364 106.976722 0.409193364 106.976722 115.34268 0.025798384 115.34268"></polygon>
        <polygon id="path-3" points="0 0.530083478 107.084879 0.530083478 107.084879 69.3198988 0 69.3198988"></polygon>
        <polygon id="path-5" points="0.487399 0.409202067 67.730858 0.409202067 67.730858 115.342747 0.487399 115.342747"></polygon>
    </defs>
    <g id="pennyhai" stroke="none" stroke-width="1" fill="none" fill-rule="evenodd">
        <g id="Group-26-Copy">
            <g id="Group-25" transform="translate(0.694993, 0.636507)">
                <g id="Group-21" transform="translate(0.000000, 0.167722)">
                    <path d="M101.121989,33.7231535 C103.086014,34.02344 104.434225,35.85513 104.132378,37.8165023 C103.83284,39.7767218 101.998673,41.1225356 100.036379,40.8216727 C98.0717776,40.5219626 96.7241439,38.6896962 97.0248365,36.7306294 C97.3249519,34.7698335 99.1591189,33.4240197 101.121989,33.7231535 M131.796095,47.2124149 C133.759542,47.512125 135.107176,49.343815 134.80706,51.3051873 C134.507522,53.2654068 132.672778,54.611797 130.709331,54.3103577 C128.74646,54.011224 127.398249,52.1789576 127.699519,50.2193144 C127.999057,48.2596713 129.833801,46.9132811 131.796095,47.2124149 M130.406907,114.889845 C127.431147,115.572261 124.199134,115.510014 120.623721,114.52097 C117.046576,113.531351 113.127761,111.613206 109.389592,108.56135 C105.653732,105.51007 102.099673,101.324503 100.008099,98.0720715 C97.9153713,94.8219457 97.2839746,92.5038031 97.1864371,90.9072703 C97.0877453,89.3090084 97.5229127,88.4323562 98.1358407,87.9240018 C98.749923,87.4173764 99.5388803,87.2790486 100.27878,87.3124778 C101.016949,87.345907 101.705483,87.5516696 102.631801,88.1539716 C103.557541,88.7539683 104.72222,89.7516572 106.417872,90.9827742 C108.111793,92.2150439 110.335533,93.6784363 113.229338,94.5614284 C116.122566,95.4455733 119.684129,95.7481653 122.490208,95.6715087 C125.296864,95.5954284 127.346306,95.136065 129.909985,93.7378019 C132.471354,92.3389625 135.545806,89.9994944 138.312639,87.0876952 C140.788015,84.4825225 143.01868,81.4191392 145.118334,77.4785273 C145.365352,77.0139766 145.611216,76.5390513 145.854194,76.0508696 C148.167391,71.4105499 150.335725,65.6123115 151.309369,61.0878413 C152.28359,56.5610655 152.064852,53.3074815 151.468661,50.6907815 C150.871893,48.0723524 149.897095,46.0890783 148.55177,44.4527762 C147.206445,42.8170505 145.489438,41.528297 143.631608,40.4447296 C141.776087,39.3605858 139.779165,38.4827809 137.967507,37.9052626 C136.155271,37.3277442 134.528299,37.0493596 132.826876,37.1012325 C131.124875,37.1554109 129.350154,37.5392704 126.975779,38.7905602 C124.649885,40.0147608 121.750885,42.0677752 118.143728,48.8164405 C118.496364,49.123067 118.819565,49.4458317 119.109869,49.783582 C120.014833,50.841213 120.982128,52.6400501 119.771855,53.9368728 C118.712793,55.0723131 116.713563,55.0844168 115.408061,54.9299508 C112.591016,54.5962351 109.21414,53.0290969 107.325721,50.8221929 C106.420758,49.7645619 105.453463,47.9657248 106.663736,46.6689021 C107.714717,45.5421073 109.684513,45.5207817 110.989438,45.6712132 C113.539842,38.4568445 113.097749,34.9346741 112.432878,32.3952071 C111.751847,29.800409 110.837649,28.2344235 109.729531,26.9439409 C108.619681,25.6557637 107.314179,24.6448183 105.663544,23.6995787 C104.013486,22.7549154 102.018295,21.8771105 99.963082,21.2413792 C97.9107541,20.6050716 95.7978261,20.2102611 93.680858,20.3238051 C91.56389,20.4367728 89.4428819,21.058095 87.1054444,22.3871941 C84.7685841,23.7145642 82.2176029,25.7491349 79.532147,29.5237535 C76.8472682,33.2960666 74.0284917,38.8072748 72.1631589,43.645288 C71.9669296,44.1542188 71.7810889,44.6556569 71.6056368,45.150755 C70.1119854,49.3582242 69.3547711,53.0700189 69.1031358,56.6527077 C68.8203347,60.6567198 69.1683532,64.5010786 69.8643902,67.332763 C70.5610042,70.1644473 71.6067911,71.9851864 73.4438438,74.1039065 C75.2826279,76.2220502 77.9115237,78.6427859 80.5184879,80.1770712 C83.1231435,81.7119329 85.7064448,82.3626497 87.7610812,82.7782093 C89.8128319,83.1954981 91.337072,83.3799351 92.4065217,83.6571669 C93.4771258,83.9326697 94.0917853,84.3009674 94.6169873,84.8220019 C95.1393036,85.3441892 95.5715852,86.0196897 95.6102539,86.8133452 C95.6489227,87.6081534 95.2945556,88.5211166 94.0496537,89.527451 C92.8024432,90.533209 90.6652751,91.633491 86.8497691,92.2859369 C83.0359946,92.9406883 77.5450366,93.1487563 72.7685841,92.4565411 C67.9921316,91.764326 63.9278761,90.1718277 60.7824356,88.2058445 C57.6358407,86.2387086 55.4103694,83.9009696 53.9045979,81.2479586 C53.0544633,79.7494079 52.4351866,78.151146 51.9688534,76.5989933 C50.427299,84.1430432 49.5823586,91.8680718 49.4755868,99.6835899 C49.4115237,104.287022 52.1102539,108.482964 56.3303386,110.338861 L107.281858,132.744499 C111.499634,134.599244 116.421528,133.754868 119.779935,130.600419 C125.479242,125.2431 130.615256,119.405669 135.148153,113.177462 C133.685668,113.881205 132.086399,114.50368 130.406907,114.889845" id="Fill-1" fill="#F3F3F3"></path>
                    <line x1="118.143267" y1="48.8178237" x2="118.143844" y2="48.8160946" id="Stroke-3" stroke="#EC2224" stroke-linecap="round" stroke-linejoin="round"></line>
                    <path d="M119.772085,53.9370457 C118.712447,55.072486 116.713217,55.0840133 115.407715,54.9301237 C112.591247,54.596408 109.214371,53.0292698 107.325952,50.8223658 C106.420412,49.7647348 105.453117,47.9658977 106.66339,46.669075 C107.714371,45.5422802 109.684167,45.5203783 110.989092,45.6713861 C111.002943,45.6725388 111.014486,45.6736915 111.026029,45.6754206 C113.411947,45.9589925 116.201289,47.1249802 118.143959,48.816037 C118.496595,49.1226635 118.819796,49.4460047 119.1101,49.7837549 C120.015063,50.8413859 120.982359,52.640223 119.772085,53.9370457" id="Fill-5" fill="#F1D63A"></path>
                    <path d="M100.036437,40.8219032 C98.0718353,40.5216167 96.7242016,38.6899267 97.0248942,36.7302836 C97.3250096,34.770064 99.1585995,33.4242503 101.122047,33.723384 C103.086072,34.0230942 104.434282,35.8553605 104.132436,37.8161564 C103.832897,39.7769523 101.998153,41.1221897 100.036437,40.8219032" id="Fill-7" fill="#3F77BB"></path>
                    <path d="M130.7091,54.3101848 C128.746806,54.0110511 127.398596,52.1793611 127.699288,50.2191415 C127.999404,48.2594983 129.833571,46.9131082 131.796441,47.2128183 C133.759311,47.5119521 135.106945,49.3436421 134.807407,51.3050144 C134.507291,53.2658103 132.672547,54.611624 130.7091,54.3101848" id="Fill-9" fill="#3F77BB"></path>
                    <path d="M99.9648711,39.8335514 C99.2572913,39.7257711 98.7719123,39.0658324 98.8804155,38.3597845 C98.9883417,37.654313 99.6491728,37.1690131 100.356175,37.2767935 C101.063178,37.3851502 101.548557,38.0445125 101.440054,38.7511368 C101.332128,39.4571847 100.671874,39.9413318 99.9648711,39.8335514" id="Fill-11" fill="#9CC2E7"></path>
                    <path d="M130.662351,53.3325534 C129.954771,53.224773 129.469392,52.5648344 129.577895,51.8587865 C129.685821,51.1533149 130.346653,50.6685914 131.053655,50.7757955 C131.760658,50.8841522 132.246037,51.5435145 132.137534,52.2501388 C132.029608,52.9561867 131.369354,53.4409102 130.662351,53.3325534" id="Fill-13" fill="#9CC2E7"></path>
                    <g id="Group-17" transform="translate(51.943055, 0.000000)">
                        <mask id="mask-2" fill="white">
                            <use xlink:href="#path-1"></use>
                        </mask>
                        <g id="Clip-16"></g>
                        <path d="M83.2050981,113.177174 C81.7426125,113.881493 80.1433436,114.503968 78.4638515,114.890133 C75.4880916,115.571973 72.2560793,115.510302 68.6806656,114.520682 C65.1035206,113.531063 61.1847057,111.612918 57.4465371,108.561062 C53.7106772,105.509782 50.1566179,101.324791 48.0650442,98.0723597 C45.9723163,94.8216575 45.3409196,92.5040913 45.2433821,90.9069821 C45.1446903,89.3092966 45.5798576,88.4320681 46.1927857,87.9242899 C46.806868,87.4176645 47.5958253,87.2787604 48.3357253,87.3121896 C49.0738938,87.3461952 49.7624279,87.5513814 50.6887457,88.1536835 C51.6144863,88.7542565 52.7791651,89.751369 54.4748172,90.982486 C56.168738,92.2153321 58.3924779,93.6787245 61.285706,94.5611403 C64.1795114,95.4452851 67.7410735,95.7484535 70.5471528,95.6717968 C73.3538092,95.5951402 75.4032513,95.1357768 77.9669296,93.7375138 C80.5282993,92.3392507 83.6021739,89.9992062 86.3695845,87.087407 C89.1364179,84.1767606 91.5962101,80.6932066 93.9111389,76.0511578 C96.2243363,71.4102617 98.3920931,65.6125997 99.366314,61.0875531 C100.340535,56.5613537 100.121797,53.3077697 99.525606,50.6910697 C98.928838,48.0720642 97.95404,46.0893664 96.6087149,44.4530644 C95.2633898,42.8173387 93.5463832,41.5280088 91.6885533,40.4450178 C89.8330319,39.360874 87.83611,38.4824928 86.0244517,37.9049744 C84.2122162,37.327456 82.5852443,37.0490714 80.8838207,37.1015207 C79.1818199,37.1556991 77.4070989,37.5395586 75.0327241,38.790272 C72.7068295,40.0144726 69.8078299,42.067487 66.2006733,48.8161523 C64.2580031,47.1245191 61.4692382,45.9591078 59.0827434,45.6755359 C59.0717776,45.6738068 59.0596576,45.6726541 59.0463832,45.6715014 C61.5967872,38.4565563 61.1546941,34.9343859 60.489823,32.3954952 C59.8087918,29.8006971 58.8945941,28.2341353 57.7864756,26.944229 C56.6766256,25.6554755 55.3705464,24.6451065 53.7204886,23.6998669 C52.0704309,22.7546272 50.0752405,21.8773987 48.0200269,21.2410911 C45.967122,20.6053598 43.8547711,20.2099729 41.737803,20.323517 C39.6208349,20.437061 37.4998269,21.0583831 35.1623894,22.3874823 C32.825529,23.714276 30.2745479,25.7494231 27.589092,29.5234653 C24.9042132,33.2957784 22.0854367,38.807563 20.2201039,43.6449998 C18.3536168,48.4841657 17.4411504,52.647831 17.1600808,56.6529959 C16.8772797,60.657008 17.2252982,64.5013668 17.9213351,67.3324748 C18.6179492,70.1641592 19.6637361,71.9848982 21.5007888,74.1036183 C23.3389958,76.2223384 25.9684686,78.6424977 28.5754329,80.176783 C31.1800885,81.7116447 33.7633898,82.3623615 35.8180262,82.7784975 C37.8697768,83.1952099 39.3940169,83.3802232 40.4634667,83.6568787 C41.5340708,83.9329579 42.1487303,84.3006792 42.6733551,84.8222901 C43.1962486,85.3444773 43.6285302,86.0199779 43.6671989,86.8136334 C43.7058676,87.6084416 43.3515006,88.5214047 42.1065987,89.5277391 C40.8593882,90.5334972 38.7222201,91.6332028 34.9067141,92.2862251 C31.0929396,92.9409765 25.6019815,93.1490444 20.825529,92.4568293 C16.0490766,91.7646142 11.9848211,90.1721159 8.83938053,88.2061327 C5.69278569,86.2389968 3.46731435,83.9006814 1.9615429,81.2482467 C1.11140823,79.7496961 0.492131589,78.1508578 0.025798384,76.5987051 C5.27493267,50.8697431 18.6081377,27.246821 38.3892074,9.35009157 C44.1935552,4.09882424 51.6173721,0.977804305 59.4342247,0.505184482 C66.81591,0.057348381 74.2079838,1.18010864 81.1233359,3.79796137 C81.4990573,3.94090005 81.8655444,4.10170606 82.2251058,4.28210851 C88.8259138,7.60773824 94.6464217,12.2964727 99.2993651,18.0353454 C104.229915,24.1142738 106.936726,31.6900237 106.975394,39.5107291 C107.111023,66.1664871 98.6645056,91.9375239 83.2050981,113.177174" id="Fill-15" fill="#020303" mask="url(#mask-2)"></path>
                    </g>
                    <g id="Group-20" transform="translate(0.000000, 50.720176)">
                        <mask id="mask-4" fill="white">
                            <use xlink:href="#path-3"></use>
                        </mask>
                        <g id="Clip-19"></g>
                        <path d="M90.3315121,69.3198988 L16.7541747,69.3198988 C7.500808,69.3198988 -0.000346287033,61.8294509 -0.000346287033,52.589157 L-0.000346287033,17.261978 C-0.000346287033,8.02110768 7.500808,0.530083478 16.7541747,0.530083478 L90.3315121,0.530083478 C99.5843017,0.530083478 107.084879,8.02110768 107.084879,17.261978 L107.084879,52.589157 C107.084879,61.8294509 99.5843017,69.3198988 90.3315121,69.3198988" id="Fill-18" fill="#F2A41D" mask="url(#mask-4)"></path>
                    </g>
                </g>
                <path d="M49.1917468,69.4174775 L49.1917468,99.7112554 L44.2623509,99.7112554 L44.2623509,86.2263168 L29.0317815,86.2263168 L29.0317815,99.7112554 L24.0813197,99.7112554 L24.0813197,69.4174775 L29.0317815,69.4174775 L29.0317815,82.6710053 L44.2623509,82.6710053 L44.2623509,69.4174775 L49.1917468,69.4174775 Z M66.4576183,90.3285992 C64.842566,90.3846991 63.4803249,90.5144281 62.3708542,90.7177901 C61.2613834,90.9211521 60.3625852,91.1806101 59.6744325,91.4961719 C58.9862797,91.8117337 58.4912385,92.1868959 58.189294,92.6216699 C57.8873494,93.0564439 57.7363794,93.5332856 57.7363794,94.0522094 C57.7363794,94.5571082 57.8171308,94.9883695 57.978636,95.3460062 C58.1401412,95.7036428 58.3648408,95.9981627 58.6527414,96.2295747 C58.9406421,96.4609867 59.2776914,96.6292837 59.6638996,96.734471 C60.0501077,96.8396582 60.4749303,96.8922511 60.9383801,96.8922511 C62.1180705,96.8922511 63.1327295,96.6713612 63.9823875,96.2295747 C64.8320454,95.7877882 65.6571141,95.1461556 66.4576183,94.3046576 L66.4576183,90.3285992 Z M54.4501154,81.2404658 C56.8797159,78.9824461 59.7727227,77.8534531 63.1292228,77.8534531 C64.3650889,77.8534531 65.4640102,78.0533059 66.4260196,78.4530175 C67.3880291,78.8527291 68.1955431,79.4172255 68.848586,80.1465238 C69.5016289,80.8758221 70.000181,81.7418509 70.3442574,82.744636 C70.6883338,83.7474212 70.8603694,84.8588832 70.8603694,86.0790553 L70.8603694,99.7112554 L68.8380531,99.7112554 C68.4026912,99.7112554 68.0726637,99.6446378 67.8479608,99.5114006 C67.6232578,99.3781634 67.4336676,99.1081869 67.2791843,98.7014628 L66.8368026,96.9553631 C66.2890892,97.446237 65.7484059,97.8845106 65.2147364,98.2701972 C64.681067,98.6558838 64.1298509,98.9819594 63.5610716,99.2484338 C62.9922923,99.5149082 62.3813903,99.714761 61.7283474,99.8479982 C61.0753045,99.9812354 60.3555638,100.047853 59.5691035,100.047853 C58.6983796,100.047853 57.8873547,99.9286425 57.1360042,99.6902181 C56.3846538,99.4517936 55.7351316,99.0906561 55.1874182,98.6067948 C54.6397048,98.1229334 54.2078604,97.523375 53.8918719,96.8081017 C53.5758834,96.0928284 53.4178915,95.251343 53.4178915,94.2836202 C53.4178915,93.4561471 53.6390801,92.6497236 54.081464,91.8643254 C54.5238479,91.0789273 55.2541215,90.3741832 56.2723067,89.7500722 C57.2904918,89.1259611 58.6316673,88.6105513 60.2958734,88.2038273 C61.9600795,87.7971032 64.0139739,87.5656947 66.4576183,87.5095949 L66.4576183,86.0790553 C66.4576183,84.5363089 66.1275908,83.3862789 65.467526,82.6289306 C64.8074611,81.8715824 63.8384443,81.492914 62.5604463,81.492914 C61.6897225,81.492914 60.9594489,81.6016058 60.3696037,81.8189928 C59.7797585,82.0363798 59.2671626,82.2712945 58.8318007,82.5237439 C58.3964388,82.7761933 58.0102364,83.011108 57.673182,83.228495 C57.3361276,83.445882 56.9780127,83.5545738 56.5988265,83.5545738 C56.2898599,83.5545738 56.0265401,83.4739315 55.8088592,83.3126444 C55.5911782,83.1513572 55.4121207,82.9515045 55.2716814,82.71308 L54.4501154,81.2404658 Z M81.4694498,78.2531627 L81.4694498,99.7112554 L76.940304,99.7112554 L76.940304,78.2531627 L81.4694498,78.2531627 Z M82.2278184,71.7736602 C82.2278184,72.1803843 82.147067,72.5660651 81.9855618,72.9307142 C81.8240565,73.2953634 81.6028679,73.6144266 81.3219892,73.8879135 C81.0411106,74.1614003 80.714594,74.3787841 80.3424298,74.5400712 C79.9702655,74.7013583 79.5735304,74.7820007 79.1522124,74.7820007 C78.7449383,74.7820007 78.3622469,74.7013583 78.0041266,74.5400712 C77.6460063,74.3787841 77.3335335,74.1614003 77.0666987,73.8879135 C76.799864,73.6144266 76.5856972,73.2953634 76.424192,72.9307142 C76.2626868,72.5660651 76.1819354,72.1803843 76.1819354,71.7736602 C76.1819354,71.3529112 76.2626868,70.960218 76.424192,70.5955688 C76.5856972,70.2309197 76.799864,69.9118565 77.0666987,69.6383696 C77.3335335,69.3648827 77.6460063,69.147499 78.0041266,68.9862119 C78.3622469,68.8249248 78.7449383,68.7442824 79.1522124,68.7442824 C79.5735304,68.7442824 79.9702655,68.8249248 80.3424298,68.9862119 C80.714594,69.147499 81.0411106,69.3648827 81.3219892,69.6383696 C81.6028679,69.9118565 81.8240565,70.2309197 81.9855618,70.5955688 C82.147067,70.960218 82.2278184,71.3529112 82.2278184,71.7736602 Z" id="Hai" fill="#FEFEFE" fill-rule="nonzero"></path>
                <g id="Group-24" transform="translate(91.188919, 0.167722)">
                    <mask id="mask-6" fill="white">
                        <use xlink:href="#path-5"></use>
                    </mask>
                    <g id="Clip-23"></g>
                    <path d="M60.0533859,18.0351725 C55.4004425,12.2962998 49.5805117,7.60756533 42.9791266,4.28251197 C42.6195652,4.10153316 42.2530781,3.94072714 41.8773567,3.79778846 C34.9620046,1.17993573 27.5699307,0.057751837 20.1888226,0.505011572 C13.4298769,0.91365481 6.96758369,3.30557221 1.58916891,7.33897895 C1.59378607,7.41333011 1.60302039,7.48595218 1.60532897,7.56087972 C1.63303194,8.49113386 1.61283186,9.42081163 1.56781454,10.3493367 C1.76231243,10.9297369 1.85350135,11.5424135 1.79751828,12.1718048 C1.54530589,15.0104056 1.13322432,17.8190353 0.487399,20.5936595 C1.16035013,20.4512972 1.82695267,20.3590787 2.49240092,20.3239204 C4.60936899,20.2098 6.72171989,20.6051868 8.77404771,21.2409181 C10.8292613,21.8772258 12.8244517,22.7544543 14.4745094,23.699694 C16.1251443,24.6449336 17.4306464,25.6558789 18.5404963,26.9440561 C19.6486149,28.2333861 20.5628126,29.8005242 21.2438438,32.3953223 C21.9087149,34.934213 22.350808,38.4569598 19.800404,45.6713284 C19.8142555,45.6724812 19.8257984,45.6736339 19.8367641,45.675363 C22.2232589,45.9589349 25.0120239,47.1249226 26.9552713,48.8159794 C30.5618507,42.0673141 33.4608503,40.0148761 35.7867449,38.7906755 C38.1611197,37.5393857 39.9358407,37.1549498 41.6378415,37.1013478 C43.3392651,37.0488985 44.966237,37.3278595 46.7784725,37.9053778 C48.590708,38.4828962 50.5876299,39.3607011 52.4431512,40.4448448 C54.3009811,41.5284122 56.0174105,42.8171658 57.3627357,44.4528915 C58.7086379,46.0891935 59.6828588,48.0718913 60.2802039,50.6908968 C60.8758176,53.3075968 61.0951327,56.5611808 60.1197576,61.0873802 C59.1461139,65.6124268 56.9783571,71.4100888 54.6651597,76.0509849 C52.3502309,80.6930337 49.8910158,84.1765876 47.1241824,87.0878105 C44.3567718,89.9990333 41.2828973,92.3390778 38.7209504,93.7379172 C36.1578492,95.1361803 34.1078299,95.5949673 31.3017507,95.6716239 C28.4950943,95.7482806 24.9335321,95.4456886 22.0408811,94.5609674 C19.1459215,93.6785516 16.9233359,92.2151592 15.228838,90.9823131 C13.5331858,89.7517725 12.3685071,88.7540835 11.4427664,88.1535105 C10.5164486,87.5512085 9.82849173,87.3460223 9.08974606,87.3120167 C8.34984609,87.2791639 7.56031166,87.4174916 6.94680646,87.924117 C6.33387841,88.4324715 5.89871104,89.3091237 5.99740285,90.9073856 C6.09494036,92.5039184 6.72749134,94.822061 8.81964217,98.0721868 C10.9112159,101.324618 14.464698,105.510185 18.2005579,108.560889 C21.9387264,111.612745 25.8575414,113.531466 29.4346864,114.520509 C33.0106772,115.510129 36.2421124,115.572377 39.2178723,114.88996 C40.8973644,114.503795 42.4966333,113.88132 43.9585417,113.177001 C59.4185264,91.9379273 67.8650442,66.1657378 67.7294152,39.5111325 C67.6901693,31.6898508 64.9839361,24.1141008 60.0533859,18.0351725" id="Fill-22" fill="#020303" mask="url(#mask-6)"></path>
                </g>
            </g>
        </g>
    </g>
</svg>