<svg id="Layer_01" data-name="Layer 01" xmlns="http://www.w3.org/2000/svg" viewBox="0 0 695.59 1041.58"><defs><style>.cls-1,.cls-3{fill:#fff;}.cls-1,.cls-4{stroke:#7c1f5e;stroke-linecap:round;stroke-linejoin:round;stroke-width:3px;}.cls-2{fill:#681a4f;}.cls-4,.cls-8{fill:none;}.cls-5{fill:#7c1f5e;}.cls-6{opacity:0.1;}.cls-7{fill:#313131;}</style></defs><title>Artboard 3</title><path class="cls-1" d="M343.67,1004.09c-73.38,0-164.93-11.6-220.61-52.15s-75.5-103.45-69.68-191c5.9-88.77,38.16-202.89,87.39-274.45,41.74,16.78,102,28.51,193.4,31.69,107.49,3.73,172.89-7.34,216.15-26.09,47.12,71.8,77.88,182.36,83.64,268.85,5.82,87.57-14,150.48-69.68,191S417.05,1004.09,343.67,1004.09Z"/><path class="cls-1" d="M351,68.44C229.66,65.35,145.1,88,95.63,131.61S31.81,239.8,28.91,295.84s5.66,103.51,42,143.67,100.45,73,263.27,78.65S563.22,495.51,602.25,458s50.87-84.31,51.86-140.41S645.27,196,599,149.09,469.84,73.69,348.58,68.35"/><path class="cls-2" d="M166.7,1033.23a246.74,246.74,0,0,0,40.44-12.34c25.11-10.06,45.31-23,55.88-42,5.28-9.5,8.14-20.54,9.2-33.9,2.11-26.7-3.05-62.67-16.16-88.86C249.5,843.06,241,832.4,229.1,824s-27-14.61-41.94-18-29.65-4-47.09-1.86a256.75,256.75,0,0,0-54.08,13c-16.5,6.05-29.32,13.29-41.07,23.12S22.5,862.52,15.79,875.41s-9.46,26.28-9.33,40.92c.26,29.3,12.07,63.66,26.11,86.47,7,11.4,14.61,19.92,23.65,26,18.06,12.11,41.92,14.38,68.86,11.9A247.2,247.2,0,0,0,166.7,1033.23Z"/><path class="cls-3" d="M156.85,904.06c12.75-2.51,23.21-3.9,31.38-3.33s14.06,3.09,19,8.3,8.85,13.11,12.65,23.39,7.42,22.94,6,32.27-7.82,15.34-18.29,21.9-25,13.68-47.53,19.12-38.7,5.71-51,4.64-20.77-3.49-26.26-11.16-8-20.6-9.34-31.47S72.05,948,74,941.13s6.09-11.8,13.11-16,17-7.76,29.44-11.33S144.11,906.56,156.85,904.06Z"/><path class="cls-3" d="M130.54,883.27a50.53,50.53,0,0,1-17.75.54c-6.69-1.07-12.8-3.88-15.6-8.73-5.6-9.7,2-27.53,23.34-33.34,21.6-4.54,36.53,7.85,36,19-.29,5.59-4.44,10.88-9.91,14.88A50.76,50.76,0,0,1,130.54,883.27Z"/><path class="cls-3" d="M192.69,878.9c-6.92-4.29-10.23-9.5-11.27-14.66a17.78,17.78,0,0,1,3.5-14.59,20,20,0,0,1,15.86-7.93c7.15-.07,16,3.32,22.33,7.32a35,35,0,0,1,12.76,14c2.81,5.34,4.77,11.41,2.08,16s-10,7.74-18.92,7.63A55.88,55.88,0,0,1,192.69,878.9Z"/><path class="cls-3" d="M73.23,907.7c4.2-7,4.78-13.11,3.36-18.18a17.8,17.8,0,0,0-9.78-11.39,20,20,0,0,0-17.73.16c-6.39,3.2-12.76,10.27-16.53,16.7a35,35,0,0,0-5,18.24c-.07,6,1,12.33,5.44,15.21s12.44,2.33,20.32-1.83A55.93,55.93,0,0,0,73.23,907.7Z"/><path class="cls-2" d="M520.64,1030.58a246.74,246.74,0,0,1-40.44-12.34c-25.11-10.06-45.32-23-55.88-42-5.28-9.51-8.15-20.54-9.2-33.9-2.11-26.7,3-62.67,16.16-88.86,6.56-13.1,15.11-23.75,27-32.17s27-14.61,41.94-18,29.65-4,47.08-1.86a256.65,256.65,0,0,1,54.09,13c16.49,6,29.32,13.29,41.07,23.11s22.41,22.25,29.12,35.14S681,899,680.88,913.68c-.27,29.29-12.07,63.66-26.12,86.47-7,11.4-14.6,19.92-23.64,26-18.06,12.11-41.93,14.38-68.86,11.9A248,248,0,0,1,520.64,1030.58Z"/><path class="cls-3" d="M614.11,905.05c-4.21-7-4.78-13.11-3.36-18.18a17.77,17.77,0,0,1,9.78-11.39,20,20,0,0,1,17.73.16c6.39,3.2,12.76,10.27,16.53,16.7a34.94,34.94,0,0,1,5,18.24c.07,6-1,12.33-5.45,15.21S641.91,928.12,634,924A55.87,55.87,0,0,1,614.11,905.05Z"/><path class="cls-3" d="M494.65,876.24c6.91-4.28,10.23-9.49,11.27-14.65A17.75,17.75,0,0,0,502.41,847a19.92,19.92,0,0,0-15.85-7.93c-7.15-.08-16.05,3.32-22.33,7.32a35.06,35.06,0,0,0-12.77,14c-2.81,5.34-4.76,11.41-2.08,16s10,7.74,18.92,7.63A55.78,55.78,0,0,0,494.65,876.24Z"/><path class="cls-3" d="M556.8,880.62a50.53,50.53,0,0,0,17.75.54c6.69-1.07,12.8-3.88,15.6-8.73,5.6-9.7-2-27.54-23.34-33.34-21.6-4.54-36.53,7.85-36,19,.28,5.59,4.44,10.88,9.91,14.88A50.56,50.56,0,0,0,556.8,880.62Z"/><path class="cls-3" d="M530.48,901.41c-12.74-2.51-23.2-3.9-31.37-3.33s-14.06,3.09-19,8.3-8.86,13.11-12.65,23.39-7.43,22.94-6,32.27,7.82,15.33,18.29,21.9,25,13.68,47.52,19.11,38.71,5.72,51,4.65,20.77-3.49,26.26-11.16,8-20.6,9.34-31.47,1.4-19.71-.6-26.59-6.08-11.8-13.1-16-17-7.76-29.45-11.34S543.23,903.91,530.48,901.41Z"/><path class="cls-4" d="M281.07,427.09c27.63,19.12,46.26,6.24,56.64-10.94C346.88,434,373,445.34,396.42,429.2"/><path class="cls-5" d="M421.88,321.93c-12.5-26.36-10.52-71,9.4-105.38a130.37,130.37,0,0,1,16.37-22.33c4.73-5.05,7.77-6.84,12-7.85s9.71-1.24,20.36-.14,26.47,3.53,40.08,7.59c27.21,8.13,45.54,22.83,53.83,33.38,4.15,5.28,5.78,9.52,7.69,17.93a192.86,192.86,0,0,1,4.58,33.38c.84,21.44-3.38,42.4-8.15,55.39-1.45,3.79-3.56,4.9-7.5,4-18.88-4.53-65.14-27.79-143.2-12.25C424.64,326.14,423.07,324.44,421.88,321.93Z"/><path class="cls-5" d="M260.29,316.32c14.29-25.43,15.41-70.07-2.07-105.78a131.25,131.25,0,0,0-14.79-23.42c-4.37-5.36-7.26-7.36-11.43-8.66s-9.61-1.91-20.31-1.55-26.66,1.68-40.51,4.79c-27.71,6.22-47,19.61-56,29.57-4.5,5-6.42,9.09-8.91,17.34a191.87,191.87,0,0,0-6.88,33c-2.33,21.33.42,42.53,4.28,55.82,1.18,3.88,3.21,5.14,7.21,4.46,19.14-3.21,73.06-31.36,143.7-2.29C257.13,320.65,258.92,318.74,260.29,316.32Z"/><path class="cls-5" d="M340.77,328c29.89,1,40.66,6.28,46.34,9.88s6.27,5.58,6.6,8.65a41.63,41.63,0,0,1-.33,11.14,20.26,20.26,0,0,1-5.5,11c-3.34,3.51-8.57,7-16.12,8.95s-17.39,2.53-32.78,2-25.18-1.76-32.57-4.27S294,369.05,291,365.31A20.31,20.31,0,0,1,286.23,354a41.17,41.17,0,0,1,.45-11.12c.53-3.05,1.26-5,7.18-8.18S310.88,327,340.77,328Z"/><path class="cls-2" d="M228.5,75.8c-58.05,9.79-102.2,28.77-132.87,55.81-21.7,19.14-36.65,42.32-46.83,67C10.93,183.05,0,147.75,0,118.17A118.17,118.17,0,0,1,23.36,47.59C36,30.44,50.33,20,73.07,11.69S126.92-2.85,159.5,1.35,226.14,20.18,228.5,75.8Z"/><path class="cls-2" d="M641,219.22c-8.44-25.37-21.74-49.53-42.07-70.13C570.24,120,527.5,98,470.27,84.2c6.22-55.32,41.22-67.55,74-69.48s63.39,6.43,85.5,16.31,35.73,21.29,47.1,39.26a118.15,118.15,0,0,1,18.4,72C693.19,171.83,679.88,206.29,641,219.22Z"/><path class="cls-2" d="M140.77,486.47c41.74,16.78,102,28.51,193.4,31.69,107.49,3.73,172.89-7.34,216.15-26.09C579.81,537,602.9,597.13,617.45,657c-140.91-38-210.35-51.15-273.78-51.15S210.8,619,69.89,657C85.05,594.61,109.49,531.94,140.77,486.47Z"/><path class="cls-5" d="M574.71,479.37C641.78,568,644,621,639.87,655.71c-4.19,34.92-14.86,51.29-31.07,69a235.9,235.9,0,0,1-67.08,51.49C512.6,791,476.11,801.64,450.38,807s-40.7,5.52-52.18,2.65-19.46-8.75-26-17.37-11.76-20-14.86-31.69a128.64,128.64,0,0,1-4-33.27c.1-9.45,1.33-16.22,5.82-21.44s12.25-8.89,26.29-14.51,34.38-13.2,53.81-21.26,37.95-16.62,55.12-32.19,33-38.14,43.43-63.4c10.07-24.36,15.15-51.2,5-79.36A192.89,192.89,0,0,0,574.71,479.37Z"/><path class="cls-5" d="M116.08,474.85a234.71,234.71,0,0,0,31,14.07c-13.38,30.44-8.33,59.47,2.49,85.63C160,599.81,175.86,622.39,193,638s35.69,24.12,55.12,32.19,39.76,15.64,53.8,21.26,21.8,9.29,26.29,14.51,5.72,12,5.82,21.44a128.6,128.6,0,0,1-4,33.27c-3.1,11.73-8.28,23.08-14.86,31.69s-14.56,14.49-26,17.37S262.69,812.42,237,807s-62.23-16-91.35-30.86a236,236,0,0,1-67.07-51.49c-16.21-17.68-26.88-34-31.07-69C43.24,620.4,45.64,566.15,116.08,474.85Z"/><g id="shadows" class="cls-6"><path class="cls-7" d="M54.24,749.9c1.4-15.76,3.58-32.2,6.49-49,4.86,8.73,10.82,16.11,17.81,23.74a236,236,0,0,0,67.07,51.49c15.76,8,33.66,14.81,50.86,20.22Q101.21,776.38,54.24,749.9Z"/><path class="cls-7" d="M633.1,749.9c-1.4-15.76-3.58-32.2-6.49-49-4.86,8.73-10.82,16.11-17.81,23.74a235.9,235.9,0,0,1-67.08,51.49c-15.75,8-33.66,14.81-50.85,20.22Q586.12,776.38,633.1,749.9Z"/></g><rect class="cls-8" x="557.95" y="367.85" width="4.35" height="3.91" transform="translate(-97.75 502.83) rotate(-44.87)"/><ellipse class="cls-5" cx="560.12" cy="369.81" rx="2.18" ry="1.96" transform="translate(-97.75 502.83) rotate(-44.87)"/><rect class="cls-8" x="532.9" y="376.72" width="4.87" height="4.38" transform="translate(-114.86 464.94) rotate(-42.83)"/><ellipse class="cls-5" cx="535.34" cy="378.91" rx="2.43" ry="2.19" transform="translate(-114.86 464.94) rotate(-42.83)"/><rect class="cls-8" x="527.71" y="364.05" width="4.3" height="3.87" transform="matrix(0.82, -0.58, 0.58, 0.82, -114.09, 371.69)"/><ellipse class="cls-5" cx="529.86" cy="365.99" rx="2.15" ry="1.94" transform="translate(-114.09 371.69) rotate(-35.14)"/><rect class="cls-8" x="499.21" y="386.38" width="4.09" height="3.68" transform="translate(-131.82 422.67) rotate(-40.87)"/><ellipse class="cls-5" cx="501.25" cy="388.22" rx="2.05" ry="1.84" transform="translate(-131.82 422.67) rotate(-40.87)"/><rect class="cls-8" x="497.52" y="356.46" width="4.97" height="4.47" transform="translate(-115.01 337.97) rotate(-33.72)"/><ellipse class="cls-5" cx="500" cy="358.7" rx="2.48" ry="2.24" transform="translate(-115.01 337.97) rotate(-33.72)"/><rect class="cls-8" x="461.65" y="365.8" width="4.33" height="3.9" transform="translate(-126.81 328.78) rotate(-34.63)"/><ellipse class="cls-5" cx="463.82" cy="367.75" rx="2.17" ry="1.95" transform="translate(-126.81 328.78) rotate(-34.63)"/><rect class="cls-8" x="432.05" y="353.83" width="5.28" height="4.75" transform="translate(-127.16 343.33) rotate(-38.02)"/><ellipse class="cls-5" cx="434.69" cy="356.21" rx="2.64" ry="2.38" transform="translate(-127.16 343.33) rotate(-38.02)"/><ellipse class="cls-5" cx="120.12" cy="369.9" rx="2.43" ry="2.19" transform="translate(-204.87 156.27) rotate(-38.69)"/><ellipse class="cls-5" cx="142.59" cy="342.33" rx="2.33" ry="2.09" transform="translate(-200.33 201.16) rotate(-45.01)"/><ellipse class="cls-5" cx="162.95" cy="347.7" rx="2.24" ry="2.01" transform="translate(-178.45 171.93) rotate(-37.65)"/><ellipse class="cls-5" cx="193.09" cy="371.74" rx="2.8" ry="2.52" transform="translate(-189.91 202.07) rotate(-38.66)"/><ellipse class="cls-5" cx="212.58" cy="353.31" rx="2.31" ry="2.08" transform="translate(-168.39 195.56) rotate(-36.47)"/><ellipse class="cls-5" cx="241.21" cy="349.74" rx="2.51" ry="2.26" transform="translate(-179.56 290.93) rotate(-47.45)"/><path class="cls-3" d="M235.27,304.36c4.73-.08,10.45,4.85,14.64,2.25,4.9-3,6.22-18,6.53-23.39.65-11.14-1.76-22.81-11.74-29.27a19.81,19.81,0,0,0-15.32-2.83c-9.52,2.27-13.87,12.29-15,21.15-.87,6.68,0,13.47,1,20.09.45,3,1,6.19,3.09,8.41a9.43,9.43,0,0,0,5.79,2.78c3.87.47,7.06,0,11,.81"/><path class="cls-7" d="M225.77,288.37c-.33,3.95,0,8.27,1.52,11.34,1.79,3.74,4,4.28,9.17,4.73,1.67.14,5.43,1,8.25-4.74a27.69,27.69,0,0,0,2.08-6.41,21.57,21.57,0,0,0-.27-10c-3.12-11.05-16.46-11.18-19.92.44A22.74,22.74,0,0,0,225.77,288.37Z"/><path class="cls-3" d="M451.45,311.34c-4.73-.08-10.44,4.85-14.64,2.25-4.9-3-6.21-18-6.53-23.4-.65-11.13,1.76-22.8,11.74-29.26a19.81,19.81,0,0,1,15.32-2.84c9.52,2.28,13.88,12.3,15,21.15.87,6.69,0,13.47-1,20.1-.45,3-1,6.18-3.09,8.41a9.49,9.49,0,0,1-5.78,2.78c-3.87.47-7.07,0-11.05.81"/><path class="cls-7" d="M461,295.34c.32,4-.06,8.28-1.53,11.34-1.79,3.74-4,4.28-9.16,4.73-1.68.15-5.44,1-8.25-4.74a27.23,27.23,0,0,1-2.09-6.41,21.67,21.67,0,0,1,.27-9.95c3.13-11.05,16.46-11.18,19.93.43A23.59,23.59,0,0,1,461,295.34Z"/></svg>