<?xml version="1.0" encoding="UTF-8"?>
<svg width="100px" height="34px" viewBox="0 0 100 34" version="1.1" xmlns="http://www.w3.org/2000/svg" xmlns:xlink="http://www.w3.org/1999/xlink">
    <!-- Generator: Sketch 59.1 (86144) - https://sketch.com -->
    <title>Rehan Logo Copy</title>
    <desc>Created with Sketch.</desc>
    <g id="Page-1" stroke="none" stroke-width="1" fill="none" fill-rule="evenodd">
        <g id="Desktop-HD-Copy-6" transform="translate(-1021.000000, -12599.000000)" fill="#1F2937">
            <g id="Group-6" transform="translate(1021.000000, 12591.000000)">
                <path d="M20.1851852,23.4378378 L14.8613103,23.4378378 C12.510284,23.4378378 10.3703704,21.6912625 10.3703704,18.9703813 C10.3703704,16.9141429 12.510284,15.1675676 14.8613103,15.1675676 L20.1851852,15.1675676 L20.1851852,23.4378378 Z M43.8888889,8 L43.8888889,15.1354092 L28.7959887,15.1354092 L28.7959887,23.3426288 L41.8799105,23.3426288 L41.8799105,28.5930008 L28.7959887,28.5930008 L28.7959887,34.8121246 L43.8888889,34.8121246 L43.8888889,42 L19.9345193,42 L19.9345193,28.5930008 L17.0829439,28.5930008 C13.9151579,34.4223753 11.8569491,38.2111877 9.79874024,42 L9.79874024,42 L0,42 C2.76447551,37.7689722 5.52895101,33.5379443 8.75922171,28.5930008 C4.32659352,27.3188206 1.39170514,23.9553596 1.39170514,18.3470929 C1.39170514,11.8731331 7.05698645,8 15.2481652,8 L15.2481652,8 L43.8888889,8 Z M57.3640624,8 L57.3640624,23.3426288 L68.3704221,23.3426288 L68.3704221,8 L77.215966,8 L100,42 L89.693117,42 L77.215966,23.3519978 L77.215966,42 L68.3704221,42 L68.3704221,28.5930008 L57.3640624,28.5930008 L57.3640624,42 L48.5185185,42 L48.5185185,8 L57.3640624,8 Z M100,8 L100,33.7297297 L91.2962963,20.6296397 L91.2962963,8 L100,8 Z" id="Rehan-Logo-Copy"></path>
            </g>
        </g>
    </g>
</svg>