<?xml version="1.0" encoding="UTF-8"?>
<svg width="250px" height="200px" viewBox="0 0 250 200" version="1.1" xmlns="http://www.w3.org/2000/svg" xmlns:xlink="http://www.w3.org/1999/xlink">
    <!-- Generator: Sketch 61.2 (89653) - https://sketch.com -->
    <title>rsnalogo</title>
    <desc>Created with Sketch.</desc>
    <g id="rsnalogo" stroke="none" stroke-width="1" fill="none" fill-rule="evenodd">
        <g id="Group-Copy" transform="translate(0.000000, 67.000000)" fill-rule="nonzero">
            <path d="M89.4654088,37.1283317 C64.4654088,25.6545479 84.2767296,-12.2246562 113.836478,3.96438123 C114.937107,4.43590659 116.981132,5.37895732 117.45283,5.06460707 C118.710692,4.43590659 120.754717,1.13522906 120.754717,1.13522906 L120.754717,1.13522906 L123.899371,1.13522906 L123.899371,23.7684464 L120.283019,23.7684464 C114.622642,4.43590659 101.257862,0.0350032167 93.8679245,6.63635828 C91.3522013,8.83680997 88.9937107,14.9666397 92.7672956,18.7388426 C96.6981132,22.5110455 107.075472,25.6545479 111.163522,26.9119488 C137.106918,34.4563546 130.974843,67.1487797 101.572327,66.205729 C96.2264151,66.0485538 91.8238994,64.948328 87.1069182,62.7478763 C86.163522,62.276351 84.2767296,61.3333002 83.0188679,62.7478763 C81.918239,64.0052773 80.9748428,65.2626782 80.9748428,65.2626782 L80.9748428,65.2626782 L59.4339623,65.2626782 C54.245283,57.2467471 46.8553459,46.4016638 38.5220126,35.5565805 L38.5220126,35.5565805 L38.5220126,65.2626782 L23.8993711,65.2626782 L23.8993711,44.2012121 L38.5220126,31.1556771 C38.6715174,31.1690474 40.306262,31.3128522 41.509434,31.3128522 C45.754717,31.3128522 52.3584906,30.2126264 54.245283,23.4540962 C54.8742138,20.7821191 55.1886792,18.4244923 55.0314465,16.3812158 L55.0314465,16.3812158 L66.1949686,6.63635828 C74.0566038,14.9666397 72.327044,30.8413268 55.0314465,34.1420044 L55.0314465,34.1420044 L55.1322661,34.2794028 C57.5325066,37.5635427 67.6920973,52.2877581 73.2704403,57.089572 C74.5283019,58.3469729 76.4150943,59.4471988 76.4150943,59.4471988 L76.4150943,59.4471988 L76.4150943,41.6864102 L80.6603774,41.6864102 C89.3081761,67.3059548 106.761006,65.2626782 112.421384,58.3469729 C116.037736,53.9460696 114.937107,45.7729633 104.245283,42.6294609 C98.1132075,40.7433594 94.8113208,39.6431336 89.4654088,37.1283317 Z M149.685535,1.13522906 L180.81761,44.5155623 L180.81761,13.3948885 C180.81761,13.3948885 181.132075,9.30833533 178.930818,7.10788364 C176.827393,5.15541937 171.709061,5.21215764 171.258253,5.22105777 L171.226415,5.22178219 L171.226415,1.13522906 L195.440252,1.13522906 L195.440252,5.06460707 C195.440252,5.06460707 190.72327,4.90743195 188.207547,6.95070852 C185.534591,9.15116021 185.691824,13.2377133 185.691824,13.2377133 L185.691824,13.2377133 L185.691824,59.761549 C187.421384,58.8184983 189.779874,56.6180466 191.509434,52.8458437 C195.91195,43.7296867 198.742138,37.1283317 200.157233,33.8276541 C204.402516,23.7684464 212.106918,3.02133051 212.893082,1.13522906 L212.893082,1.13522906 L218.553459,1.13522906 C218.553459,1.13522906 238.679245,49.5451662 239.937107,52.3743184 C241.509434,55.832171 242.45283,58.1897978 245.283019,60.0758993 C247.169811,61.3333002 249.685535,61.1761251 249.685535,61.1761251 L249.685535,61.1761251 L249.685535,65.2626782 L217.610063,65.2626782 L217.610063,61.1761251 C217.610063,61.1761251 222.641509,61.1761251 224.213836,60.8617749 C226.100629,60.3902495 226.886792,58.9756734 225.628931,55.832171 C224.213836,52.5314935 220.597484,44.044037 220.597484,44.044037 L220.597484,44.044037 L200.943396,44.044037 C200.943396,44.044037 197.327044,51.7456179 196.540881,55.9893461 C196.383648,57.089572 196.383648,57.8754476 196.540881,58.3469729 C196.855346,59.2900237 197.327044,59.9187241 198.27044,60.3902495 C200,61.1761251 206.132075,61.01895 206.132075,61.01895 L206.132075,61.01895 L206.132075,65.1055031 L178.144654,65.1055031 L141.666667,16.2240406 L141.666366,53.4830308 C141.659661,53.6852209 141.560428,57.446402 143.396226,58.9756734 C146.110897,61.2370706 151.718755,61.1847661 152.172016,61.176729 L152.201258,61.1761251 L152.201258,65.2626782 L127.672956,65.2626782 L127.672956,61.1761251 C127.672956,61.1761251 132.704403,61.3333002 135.220126,59.1328485 C136.949686,57.7182725 136.792453,53.3173691 136.792453,53.3173691 L136.792453,12.2946626 C136.792453,6.16483292 132.232704,5.06460707 127.672956,5.06460707 L127.672956,5.06460707 L127.672956,1.13522906 L149.685535,1.13522906 Z M210.534591,20.1534186 L202.515723,39.3287834 L218.553459,39.3287834 L210.534591,20.1534186 Z M53.4591195,1.13522906 C57.0754717,1.13522906 60.0628931,2.07827978 62.5786164,3.49285587 L62.5786164,3.49285587 L53.7735849,11.3516119 C51.8867925,7.579409 48.7421384,5.53613244 47.0125786,5.37895732 C44.1823899,5.06460707 38.5220126,6.32200804 38.5220126,10.4085612 L38.5220126,10.4085612 L38.5220126,24.8686723 L23.8993711,37.7570321 L23.8993711,37.7570321 L23.8993711,11.8231373 C23.8993711,9.62268557 23.1132075,7.89375924 22.4842767,7.26505876 C20.9119497,5.53613244 18.7106918,5.37895732 17.1383648,5.22178219 L17.1383648,5.22178219 L15.408805,5.22178219 L15.408805,1.13522906 L15.408805,1.13522906 Z" id="Combined-Shape" fill="#1F2937"></path>
            <polyline id="Path" fill="#9DA1A7" points="23.8993711 44.044037 23.8993711 44.044037 23.8993711 65.2626782 -1.02571786e-12 65.2626782 23.8993711 44.044037"></polyline>
        </g>
    </g>
</svg>