<?xml version="1.0" encoding="UTF-8"?>
<svg width="250px" height="200px" viewBox="0 0 250 200" version="1.1" xmlns="http://www.w3.org/2000/svg" xmlns:xlink="http://www.w3.org/1999/xlink">
    <!-- Generator: Sketch 61.2 (89653) - https://sketch.com -->
    <title>siclogo</title>
    <desc>Created with Sketch.</desc>
    <g id="siclogo" stroke="none" stroke-width="1" fill="none" fill-rule="evenodd">
        <path d="M178.341214,30.726105 L184.550739,30.726105 C188.574676,30.7256817 188.766372,30.5170143 188.53558,26.3834531 C188.445617,24.7780264 188.134532,24.4347622 186.505955,24.4169852 C183.642705,24.385664 180.779454,24.4072502 177.915783,24.4072502 C173.026691,24.4072502 168.138019,24.3771988 163.250189,24.4440739 C162.585558,24.4533856 161.406375,24.8728367 161.356769,25.2372639 C161.07511,27.3006584 161.064601,27.7459284 161.311788,29.7780016 C161.352985,30.1136471 162.104216,30.5144748 162.592705,30.6469553 C163.182086,30.8061012 163.83915,30.7222956 164.466786,30.7239887 C166.68012,30.7290678 168.892613,30.726105 171.192546,30.726105 L171.192546,69.6571746 C169.013264,69.6571746 167.000454,69.6880726 164.989747,69.6504024 C161.263864,69.5801412 160.870382,69.3287245 161.028447,74.0036357 C161.079314,75.5218708 161.565281,75.9789921 163.117347,75.9832247 C170.869689,76.0056575 178.621611,76.004811 186.373534,75.985341 C188.097538,75.9806851 188.460331,75.5840901 188.532637,73.8973974 C188.554077,73.4055688 188.539784,72.9124704 188.536841,72.4197953 C188.520446,69.8954702 188.29554,69.6664863 185.759349,69.6588676 C183.335823,69.6512489 180.911455,69.6571746 178.341214,69.6571746 L178.341214,30.726105 Z M165.383573,150.195339 C165.530749,150.191968 165.236397,150.19871 165.383573,150.195339 C165.383573,147.258908 165.328487,144.321213 165.408383,141.386889 C165.444125,140.067855 165.620316,138.721007 165.955455,137.4458 C167.34185,132.167557 172.73058,129.428349 178.447722,131.018354 C181.870606,131.970334 183.931485,134.200049 184.636666,137.678844 C185.397774,141.434087 185.386421,141.436194 189.189018,141.384781 C189.468231,141.380567 189.747445,141.376353 190.026658,141.375932 C191.248215,141.372982 191.900834,140.750549 191.731372,139.541505 C191.460989,137.612681 191.31928,135.616009 190.693574,133.796332 C187.784122,125.328808 177.201775,121.168583 168.614709,125.080593 C162.077168,128.059166 159.275365,133.577617 158.630735,140.429851 C158.027315,146.855191 158.091232,153.286009 158.615177,159.717669 C159.476364,170.277527 166.071934,175.608448 173.398757,176.307578 C182.497574,177.176118 190.440011,171.886918 191.689742,161.965506 C192.050533,159.104087 191.640544,158.674663 188.719738,158.661599 C188.300498,158.659914 187.881678,158.655699 187.462859,158.662864 C185.232097,158.701212 185.116879,158.798981 184.979375,161.007626 C184.845656,163.166543 184.30489,165.198193 182.693528,166.70855 C179.663392,169.548898 175.994514,170.084519 172.155754,169.01707 C168.340541,167.955522 166.200187,165.159422 165.741841,161.286604 C165.307042,157.612693 165.383573,153.879785 165.383573,150.195339 L165.383573,150.195339 Z M74.7432829,76.3973315 C78.5002614,76.4572971 81.9626081,75.5075605 85.1239732,73.4531057 C94.4912319,67.365332 94.0302348,52.455016 83.5559903,47.8756723 C81.1947029,46.8431663 78.6433441,46.244355 76.1859626,45.4284852 C74.1955048,44.7675969 72.120806,44.2697136 70.2509949,43.3579833 C67.7944601,42.1603608 66.8944785,39.8977157 66.9901492,37.2288249 C67.0837032,34.6207442 68.2198982,32.6089411 70.6180146,31.5118243 C73.7306978,30.0878528 76.911959,30.1178356 79.9683404,31.6727178 C81.8080958,32.6085188 83.0031324,34.1435533 83.2727882,36.2735985 C83.7342087,39.9238979 83.7354787,39.9238979 87.439542,39.898138 C87.6507794,39.8964488 87.8620169,39.9048947 88.072831,39.8956043 C89.8694075,39.814524 90.4548612,39.2283815 90.342681,37.3897185 C90.1877453,34.8378028 89.5548796,32.4205985 88.1227829,30.2432565 C83.9501027,23.8974619 74.9117648,21.708718 67.6395244,25.384355 C62.5253771,27.9692095 59.8719978,32.1562432 60.0070373,37.9234966 C60.1416536,43.6700578 62.8746173,47.8072608 68.1623265,50.110446 C69.8827051,50.8600159 71.763946,51.2443024 73.5736455,51.7890601 C75.8545019,52.4757083 78.1768437,53.049182 80.4069015,53.8705416 C82.4130222,54.6091318 83.7913571,56.1146058 84.4229528,58.1960873 C85.812294,62.7728972 83.7168525,67.0823958 79.2220246,68.7821245 C76.1885025,69.9290719 73.1355077,69.7973165 70.2069694,68.4261316 C67.6107385,67.2099282 66.1562058,65.0718595 65.5834518,62.2733248 C65.3417352,61.0968169 66.2150475,59.4532531 64.7605147,58.8278374 C63.6763883,58.3616261 62.2921269,58.5883973 61.0416351,58.5119623 C60.8312444,58.4988713 60.6191603,58.5170299 60.4083461,58.5102732 C59.1633576,58.4684662 58.5525046,59.1352666 58.6028799,60.309663 C58.6617215,61.7049186 58.6875442,63.1343799 59.0130784,64.4802272 C60.7105977,71.4902886 66.9291909,76.1604252 74.7432829,76.3973315 L74.7432829,76.3973315 Z M225,200 L124.789339,200 C124.817202,199.862867 124.868284,199.72489 124.868284,199.587758 C124.867018,166.962381 124.863218,134.337005 124.850553,101.711207 C124.850553,101.179131 124.743323,100.647056 124.674933,100.009494 L122.213286,100.009494 C90.569881,100.009494 58.9264757,100.007806 27.2830703,100.017933 C26.5223283,100.017933 25.7611642,100.143251 25,100.210341 L25,7.2475359e-13 L224.931609,7.2475359e-13 L224.931609,2.82535818 C224.931609,67.7115485 224.931187,132.597739 224.934564,197.483507 C224.934564,198.322338 224.977203,199.160747 225,200 L225,200 Z" id="Fill-1-Copy" fill="#1F2937"></path>
    </g>
</svg>