<svg id="Background" xmlns="http://www.w3.org/2000/svg" viewBox="0 0 827.97 913.9"><defs><style>.cls-1{fill:#db1b1b;}.cls-2{fill:#181819;}.cls-3{fill:#5d6e77;}.cls-4{fill:#57555a;}.cls-30,.cls-5{fill:#ededed;}.cls-6{fill:#f4f4f4;}.cls-15,.cls-24,.cls-27,.cls-29,.cls-7{fill:none;}.cls-7{stroke:red;stroke-width:0.29px;}.cls-24,.cls-27,.cls-29,.cls-30,.cls-7{stroke-linecap:round;stroke-linejoin:round;}.cls-8{fill:#f2d738;}.cls-9{fill:#3279ce;}.cls-10{fill:#9bc3ea;}.cls-11{fill:#02adee;}.cls-12{fill:#044fa2;}.cls-13{fill:#fff;}.cls-14{fill:#fdfefe;}.cls-16{fill:#f9f5c2;}.cls-17{fill:#c5d1d1;}.cls-18{fill:#e1feff;}.cls-19{fill:#fffc92;}.cls-20{fill:#a8a8a8;}.cls-21{fill:#303030;}.cls-22{fill:#c1c1c1;}.cls-23{fill:#ffec00;}.cls-24,.cls-30{stroke:#3f3838;stroke-width:1.77px;}.cls-25{fill:#68686b;}.cls-26{fill:#272728;}.cls-27{stroke:#272728;}.cls-27,.cls-29{stroke-width:5.31px;}.cls-28{fill:#363638;}.cls-29{stroke:#181819;}.cls-31{fill:#dbb861;}</style></defs><title>Artboard 7</title><g id="The_Tube" data-name="The Tube"><g id="Tube"><path class="cls-1" d="M140.59,89.59c1.44-3.81,3.62-4.79,7.43-3.34s4.79,3.62,3.35,7.43a7.07,7.07,0,0,1-2.08,3.18c-1.31,1-3,1-5.36.16C140.12,95.58,139.14,93.4,140.59,89.59Z"/><path class="cls-1" d="M161,92.75c0-3.68,1.52-5.2,5.2-5.2s5.2,1.52,5.2,5.2c0,2.42-.66,3.9-2.15,4.64a7,7,0,0,1-3.05.56C162.55,98,161,96.43,161,92.75Z"/><path class="cls-1" d="M274.87,118.48V359.86c0,5.36-1.76,8.59-6.24,11.51l-28.76,18.72-27.67,18-.81.53a13,13,0,0,1-7.49,2.23H31.83c-4.38,0-6.1-2-5.44-6.33L61.31,177.12a37.87,37.87,0,0,1,6.41-16.25c4.89-7.15,10.1-14.1,15.64-20.76q7.52-9.06,15.86-17.4,4.22-4.24,8.66-8.29a5,5,0,0,1,3.7-1.43h157.8C273.26,113,274.87,114.6,274.87,118.48Z"/><path class="cls-1" d="M297.44,187.09v266.7c0,3.88-1.6,5.49-5.49,5.49h-1.6c-3.88,0-5.49-1.61-5.49-5.49V187.09c0-3.89,1.61-5.5,5.49-5.5H292C295.84,181.59,297.44,183.2,297.44,187.09Z"/><path class="cls-1" d="M543.11,187.09v266.7c0,3.88-1.61,5.49-5.49,5.49H536c-3.89,0-5.5-1.61-5.5-5.49V187.09c0-3.89,1.61-5.5,5.5-5.5h1.6C541.5,181.59,543.11,183.2,543.11,187.09Z"/><path class="cls-1" d="M656.54,92.75c0-3.68,1.52-5.2,5.2-5.2s5.2,1.52,5.2,5.2-1.52,5.2-5.2,5.2a7,7,0,0,1-3-.56C657.2,96.65,656.54,95.17,656.54,92.75Z"/><path class="cls-1" d="M676.6,93.68c-1.44-3.81-.46-6,3.35-7.43s6-.47,7.43,3.34.47,6-3.34,7.43c-2.33.89-4,.86-5.36-.16A7.07,7.07,0,0,1,676.6,93.68Z"/><path class="cls-1" d="M801.57,404.53c.67,4.33-1,6.33-5.42,6.33H624.08a13,13,0,0,1-7.5-2.23l-57.23-37.26c-4.49-2.92-6.24-6.15-6.24-11.51V118.48c0-3.88,1.61-5.49,5.49-5.49H716.38a5.11,5.11,0,0,1,3.72,1.43q4.41,4,8.66,8.29,8.32,8.33,15.84,17.4c5.54,6.66,10.77,13.61,15.66,20.76a38.09,38.09,0,0,1,6.39,16.25Z"/><path class="cls-1" d="M827.34,469.86Q804.68,322.31,782,174.76a53,53,0,0,0-8.94-22.65c-31.06-45.46-65-68.77-93-87.23C649.83,45,626.42,30.72,592.5,19.48S514.14,0,414,0,269.39,8.23,235.47,19.48,178.14,45,147.92,64.88c-28.06,18.46-62,41.77-93,87.23a53,53,0,0,0-8.94,22.65Q23.29,322.32.63,469.86A55.32,55.32,0,0,0,0,478.19V696.88c0,3.89,1.61,5.5,5.49,5.5H43.22v45.47c0,3.88,1.61,5.49,5.49,5.49H779.25c3.89,0,5.5-1.61,5.5-5.49V702.38h37.73c3.88,0,5.49-1.61,5.49-5.5V478.19A55.32,55.32,0,0,0,827.34,469.86Zm-41.09-31.79-233.8,67.87a13.32,13.32,0,0,1-3.82.55H525.48V98.14h-223V506.49H279.33a13.32,13.32,0,0,1-3.82-.55L41.73,438.07a27.43,27.43,0,0,1-19.49-30.54Q40,292,57.69,176.57a41.63,41.63,0,0,1,7-17.75,278.49,278.49,0,0,1,17-22.39q8.16-9.68,17.2-18.54c5.49-5.36,11.23-10.48,17.15-15.37,5.46-4.52,11.09-8.82,16.85-13,5.35-3.86,10.8-7.58,16.29-11.25S160,71.18,165.4,67.69c10-6.41,20.09-12.67,30.53-18.28q7.51-4,15.27-7.62,8-3.69,16.24-6.84,8.91-3.41,18-6.18,10.26-3.14,20.74-5.49,8.91-2,17.92-3.48V78.94L414,79.27l129.87-.33V19.8q9,1.5,17.91,3.48,10.47,2.36,20.75,5.49,9.11,2.79,18,6.18,8.24,3.13,16.26,6.84,7.72,3.56,15.25,7.62c10.45,5.61,20.55,11.87,30.54,18.28q8.16,5.24,16.21,10.61c5.5,3.67,11,7.39,16.32,11.25,5.74,4.15,11.37,8.45,16.85,13,5.91,4.89,11.64,10,17.13,15.37q9.06,8.85,17.2,18.54a273.88,273.88,0,0,1,17,22.39,41.5,41.5,0,0,1,7,17.75q17.75,115.49,35.46,231A27.46,27.46,0,0,1,786.25,438.07Z"/><rect class="cls-2" x="296.11" y="666.59" width="235.74" height="86.75"/><path class="cls-2" d="M543.86,19.8V78.94L414,79.27l-129.87-.33V19.8c2.48-.4,5-.79,7.44-1.15,10.57-1.56,21.22-2.71,31.87-3.59,13.39-1.14,26.8-1.86,40.23-2.34,16.76-.61,33.55-.84,50.33-.84s33.55.23,50.33.84c13.41.48,26.84,1.2,40.21,2.34,10.67.88,21.3,2,31.89,3.59C538.9,19,541.38,19.4,543.86,19.8Z"/><path class="cls-3" d="M805.73,407.53Q788,292,770.27,176.57a41.5,41.5,0,0,0-7-17.75,273.88,273.88,0,0,0-17-22.39q-8.13-9.68-17.2-18.54c-5.49-5.36-11.22-10.48-17.13-15.37-5.48-4.52-11.11-8.82-16.85-13-5.37-3.86-10.82-7.58-16.32-11.25S668,71.18,662.57,67.69C652.58,61.28,642.48,55,632,49.41q-7.51-4-15.25-7.62-8-3.69-16.26-6.84-8.88-3.41-18-6.18-10.26-3.14-20.75-5.49-8.89-2-17.91-3.48V78.94L414,79.27l-129.87-.33V19.8q-9,1.5-17.92,3.48-10.47,2.36-20.74,5.49-9.12,2.79-18,6.18-8.24,3.13-16.24,6.84-7.77,3.56-15.27,7.62C185.49,55,175.38,61.28,165.4,67.69q-8.16,5.24-16.23,10.61c-5.49,3.67-10.94,7.39-16.29,11.25-5.76,4.15-11.39,8.45-16.85,13-5.92,4.89-11.66,10-17.15,15.37q-9,8.85-17.2,18.54a278.49,278.49,0,0,0-17,22.39,41.63,41.63,0,0,0-7,17.75Q40,292.06,22.24,407.53a27.43,27.43,0,0,0,19.49,30.54l233.78,67.87a13.32,13.32,0,0,0,3.82.55h23.15V98.14h223V506.49h23.15a13.32,13.32,0,0,0,3.82-.55l233.8-67.87A27.46,27.46,0,0,0,805.73,407.53Zm-639.5-320c3.68,0,5.2,1.52,5.2,5.2,0,2.42-.66,3.9-2.15,4.64a7,7,0,0,1-3.05.56c-3.68,0-5.2-1.52-5.2-5.2S162.55,87.55,166.23,87.55Zm-25.64,2c1.44-3.81,3.62-4.79,7.43-3.34s4.79,3.62,3.35,7.43a7.07,7.07,0,0,1-2.08,3.18c-1.31,1-3,1-5.36.16C140.12,95.58,139.14,93.4,140.59,89.59ZM274.87,359.86c0,5.36-1.76,8.59-6.24,11.51l-28.76,18.72-27.67,18-.81.53a13,13,0,0,1-7.49,2.23H31.83c-4.38,0-6.1-2-5.44-6.33L61.31,177.12a37.87,37.87,0,0,1,6.41-16.25c4.89-7.15,10.1-14.1,15.64-20.76q7.52-9.06,15.86-17.4,4.22-4.24,8.66-8.29a5,5,0,0,1,3.7-1.43h157.8c3.88,0,5.49,1.61,5.49,5.49Zm22.57,93.93c0,3.88-1.6,5.49-5.49,5.49h-1.6c-3.88,0-5.49-1.61-5.49-5.49V187.09c0-3.89,1.61-5.5,5.49-5.5H292c3.89,0,5.49,1.61,5.49,5.5Zm245.67,0c0,3.88-1.61,5.49-5.49,5.49H536c-3.89,0-5.5-1.61-5.5-5.49V187.09c0-3.89,1.61-5.5,5.5-5.5h1.6c3.88,0,5.49,1.61,5.49,5.5ZM680,86.25c3.81-1.45,6-.47,7.43,3.34s.47,6-3.34,7.43c-2.33.89-4,.86-5.36-.16a7.07,7.07,0,0,1-2.08-3.18C675.16,89.87,676.14,87.69,680,86.25Zm-18.21,1.3c3.68,0,5.2,1.52,5.2,5.2s-1.52,5.2-5.2,5.2a7,7,0,0,1-3-.56c-1.49-.74-2.15-2.22-2.15-4.64C656.54,89.07,658.06,87.55,661.74,87.55ZM796.15,410.86H624.08a13,13,0,0,1-7.5-2.23l-57.23-37.26c-4.49-2.92-6.24-6.15-6.24-11.51V118.48c0-3.88,1.61-5.49,5.49-5.49H716.38a5.11,5.11,0,0,1,3.72,1.43q4.41,4,8.66,8.29,8.32,8.33,15.84,17.4c5.54,6.66,10.77,13.61,15.66,20.76a38.09,38.09,0,0,1,6.39,16.25l34.92,227.41C802.24,408.86,800.53,410.86,796.15,410.86Z"/><path class="cls-4" d="M140.59,89.59c1.44-3.81,3.62-4.79,7.43-3.34s4.79,3.62,3.35,7.43a7.07,7.07,0,0,1-2.08,3.18c-1.31,1-3,1-5.36.16C140.12,95.58,139.14,93.4,140.59,89.59Z"/><path class="cls-4" d="M161,92.75c0-3.68,1.52-5.2,5.2-5.2s5.2,1.52,5.2,5.2c0,2.42-.66,3.9-2.15,4.64a7,7,0,0,1-3.05.56C162.55,98,161,96.43,161,92.75Z"/><path class="cls-4" d="M274.87,118.48V359.86c0,5.36-1.76,8.59-6.24,11.51l-28.76,18.72-27.67,18-.81.53a13,13,0,0,1-7.49,2.23H31.83c-4.38,0-6.1-2-5.44-6.33L61.31,177.12a37.87,37.87,0,0,1,6.41-16.25c4.89-7.15,10.1-14.1,15.64-20.76q7.52-9.06,15.86-17.4,4.22-4.24,8.66-8.29a5,5,0,0,1,3.7-1.43h157.8C273.26,113,274.87,114.6,274.87,118.48Z"/><path class="cls-4" d="M297.44,187.09v266.7c0,3.88-1.6,5.49-5.49,5.49h-1.6c-3.88,0-5.49-1.61-5.49-5.49V187.09c0-3.89,1.61-5.5,5.49-5.5H292C295.84,181.59,297.44,183.2,297.44,187.09Z"/><rect class="cls-4" x="302.48" y="98.14" width="223" height="408.35"/><path class="cls-4" d="M543.11,187.09v266.7c0,3.88-1.61,5.49-5.49,5.49H536c-3.89,0-5.5-1.61-5.5-5.49V187.09c0-3.89,1.61-5.5,5.5-5.5h1.6C541.5,181.59,543.11,183.2,543.11,187.09Z"/><path class="cls-4" d="M656.54,92.75c0-3.68,1.52-5.2,5.2-5.2s5.2,1.52,5.2,5.2-1.52,5.2-5.2,5.2a7,7,0,0,1-3-.56C657.2,96.65,656.54,95.17,656.54,92.75Z"/><path class="cls-4" d="M676.6,93.68c-1.44-3.81-.46-6,3.35-7.43s6-.47,7.43,3.34.47,6-3.34,7.43c-2.33.89-4,.86-5.36-.16A7.07,7.07,0,0,1,676.6,93.68Z"/><path class="cls-4" d="M796.15,410.86H624.08a13,13,0,0,1-7.5-2.23l-57.23-37.26c-4.49-2.92-6.24-6.15-6.24-11.51V118.48c0-3.88,1.61-5.49,5.49-5.49H716.38a5.11,5.11,0,0,1,3.72,1.43q4.41,4,8.66,8.29,8.32,8.33,15.84,17.4c5.54,6.66,10.77,13.61,15.66,20.76a38.09,38.09,0,0,1,6.39,16.25l34.92,227.41C802.24,408.86,800.53,410.86,796.15,410.86Z"/><polygon class="cls-2" points="413.99 845.27 763.85 845.27 763.85 774.36 779.25 774.36 779.25 753.34 413.99 753.34 48.71 753.34 48.71 774.36 64.11 774.36 64.11 845.27 413.99 845.27"/><g id="Windows"><path class="cls-5" d="M261.14,132.23V356.88a4.88,4.88,0,0,1-2.5,4.61l-53.38,34.74a5.13,5.13,0,0,1-3,.9H47.82c-4.37,0-6.09-2-5.42-6.34L74.88,179.21a24.66,24.66,0,0,1,4.18-10.58,256.36,256.36,0,0,1,22.19-28.15c3.83-4.21,7.82-8.31,11.94-12.24a5.13,5.13,0,0,1,3.8-1.52H255.63C259.53,126.72,261.14,128.33,261.14,132.23Z"/><path class="cls-5" d="M780.14,397.13H625.71a5.2,5.2,0,0,1-3-.9Q596,378.88,569.34,361.49a4.88,4.88,0,0,1-2.5-4.61V132.23c0-3.9,1.61-5.51,5.49-5.51H711a5.07,5.07,0,0,1,3.79,1.52c4.13,3.93,8.12,8,12,12.24a257.66,257.66,0,0,1,22.2,28.15,24.88,24.88,0,0,1,4.16,10.58Q769.33,285,785.57,390.79C786.23,395.13,784.53,397.13,780.14,397.13Z"/></g><path class="cls-6" d="M227.42,294.41c-1.73-8.39-4.53-13.74-7.49-17.73a27,27,0,0,0-9.58-8.39A33.22,33.22,0,0,0,199,265.17a53.27,53.27,0,0,0-11.48-.09,27.83,27.83,0,0,0-9.29,2.47,23.64,23.64,0,0,0-8.64,7.22c-3,3.8-6.39,9.44-7.46,23.56a16.28,16.28,0,0,1,2.36.92c2.32,1.11,5.29,3.44,4.21,6.54-.94,2.71-4.31,4.22-6.64,4.93-5,1.53-11.89,1.39-16.73-.94-2.32-1.12-5.3-3.44-4.22-6.54.94-2.69,4.26-4.19,6.58-4.91-1.07-14.12-4.45-19.76-7.47-23.56a23.7,23.7,0,0,0-8.63-7.22,27.83,27.83,0,0,0-9.3-2.47,53.18,53.18,0,0,0-11.47.09,33.16,33.16,0,0,0-11.31,3.12A27.07,27.07,0,0,0,90,276.68c-3,4-5.75,9.34-7.48,17.73a128.19,128.19,0,0,0-1.93,29.4q.08,1.51.18,3a.92.92,0,0,1,0,.16l.12,1.37c0,.35.06.7.1,1.05s.09.86.14,1.29.12,1.1.2,1.64.11.86.18,1.29c.08.62.18,1.24.29,1.84,0,.3.1.59.16.88.12.72.26,1.43.41,2.13.1.49.21,1,.32,1.45l.3,1.28c.15.61.31,1.2.47,1.79l.3,1c.41,1.42.86,2.79,1.34,4.14a66.74,66.74,0,0,0,9.25,17.52,27.42,27.42,0,0,0,11.11,8.8,57.14,57.14,0,0,0,16.49,5,41.89,41.89,0,0,0,14.19-1c1.17-.25,2.23-.51,3.2-.74l3.28-.81.37-.09c.6-.14,1.15-.25,1.66-.33a8.25,8.25,0,0,1,4.61.33,5.73,5.73,0,0,1,3.17,2.63c.65,1.32.74,3.13-.62,5.76-.12.23-.24.46-.39.7s-.28.47-.44.72c-1.57,2.4-4.34,5.34-9.29,8.61-.94.62-1.95,1.25-3,1.88A90.37,90.37,0,0,1,118,406a57.58,57.58,0,0,1-23.44,1.73,36.26,36.26,0,0,1-16.82-6.66,38.12,38.12,0,0,1-4.5-4c-.79-.81-1.53-1.64-2.24-2.47.18.82.36,1.65.55,2.47q1.58,6.9,3.59,13.73H203.9a13,13,0,0,0,7.49-2.23l.81-.53A58.67,58.67,0,0,1,191.92,406a90.56,90.56,0,0,1-20.66-8.9c-1.08-.63-2.09-1.26-3-1.88a42.88,42.88,0,0,1-5.17-3.95c-.58-.53-1.11-1-1.6-1.54l-.47-.51c-.32-.35-.62-.7-.88-1l-.44-.55a17.61,17.61,0,0,1-1.55-2.45.54.54,0,0,1-.05-.11,9.31,9.31,0,0,1-1-2.83,4.6,4.6,0,0,1,.4-2.82,5.71,5.71,0,0,1,3.16-2.63,7.39,7.39,0,0,1,1.22-.35,8.62,8.62,0,0,1,3.18,0l.21,0c1.88.31,4.36,1,7.74,1.8l.77.17a41.91,41.91,0,0,0,14.19,1,57.11,57.11,0,0,0,16.5-5,27.39,27.39,0,0,0,11.1-8.8,66.44,66.44,0,0,0,9.25-17.52c.48-1.35.93-2.72,1.34-4.14q.19-.63.36-1.26c.13-.47.25-.94.37-1.41.36-1.42.68-2.87,1-4.37,0,0,0-.05,0-.08.09-.47.17-.95.26-1.44s.2-1.22.29-1.84l.18-1.29c.07-.54.14-1.09.2-1.64s.1-.86.14-1.29.07-.7.1-1.05l.12-1.37c.07-1,.14-2.06.19-3.13A129.32,129.32,0,0,0,227.42,294.41Zm-101.84,3.86a6.64,6.64,0,1,1,4.69-8.14A6.63,6.63,0,0,1,125.58,298.27Zm61.94,0a6.64,6.64,0,1,1,4.69-8.14A6.63,6.63,0,0,1,187.52,298.27Z"/><line class="cls-7" x1="162.17" y1="298.33" x2="162.17" y2="298.33"/><path class="cls-8" d="M168.74,305.79c-.94,2.71-4.31,4.22-6.64,4.93-5,1.53-11.89,1.39-16.73-.94-2.32-1.12-5.3-3.44-4.22-6.54.94-2.69,4.26-4.19,6.58-4.91l.06,0a25.85,25.85,0,0,1,14.38,0,16.28,16.28,0,0,1,2.36.92C166.85,300.36,169.82,302.69,168.74,305.79Z"/><path class="cls-9" d="M125.58,298.27a6.64,6.64,0,1,1,4.69-8.14A6.63,6.63,0,0,1,125.58,298.27Z"/><path class="cls-9" d="M187.52,298.27a6.64,6.64,0,1,1,4.69-8.14A6.63,6.63,0,0,1,187.52,298.27Z"/><path class="cls-10" d="M124.73,296.65a2.39,2.39,0,1,1,1.68-2.93A2.39,2.39,0,0,1,124.73,296.65Z"/><path class="cls-10" d="M186.71,296.65a2.39,2.39,0,1,1,1.69-2.93A2.38,2.38,0,0,1,186.71,296.65Z"/><g id="Oyster_Card" data-name="Oyster Card"><rect class="cls-11" x="141.39" y="354.83" width="23.38" height="37.43" rx="0.94" transform="translate(-236.56 267.95) rotate(-52.55)"/><path class="cls-12" d="M153.05,388.25l7,5.39a.94.94,0,0,0,1.31-.17l13.08-17.08a.94.94,0,0,0-.18-1.31l-7-5.34A25.74,25.74,0,0,1,153.05,388.25Z"/><path class="cls-13" d="M150.5,386.3l2.55,1.95a25.74,25.74,0,0,0,14.28-18.51l-2.54-1.95A22.91,22.91,0,0,1,150.5,386.3Z"/><path class="cls-13" d="M161.38,390a1.58,1.58,0,0,0-2.47-1.89l-.6-.46-.34.45.6.45A1.58,1.58,0,0,0,161,390.4l.59.46.34-.44ZM159,388.87l1.55,1.18A1,1,0,0,1,159,388.87Zm.34-.45a1,1,0,0,1,1.55,1.19Z"/><g id="Logo"><path class="cls-12" d="M144.66,357.67l.07,0a1.33,1.33,0,0,1,1.84.05,1.3,1.3,0,0,1,.29,1.58A1.37,1.37,0,0,1,144.4,358a.14.14,0,0,0,0-.06Zm.41.56a.7.7,0,0,0,.12,1,.71.71,0,1,0,.87-1.12A.7.7,0,0,0,145.07,358.23Z"/><path class="cls-12" d="M152.59,364.29a.52.52,0,0,0,0,.54,1.07,1.07,0,0,0,.63.49l.23.08a.29.29,0,0,1,.17.28.32.32,0,0,1-.26.26.82.82,0,0,1-.27,0,1.57,1.57,0,0,1-.51-.23,1.64,1.64,0,0,1-.57-.54,1.25,1.25,0,0,1,0-1.33,1.4,1.4,0,0,1,.64-.61,1.33,1.33,0,0,1,1.36.14,1.48,1.48,0,0,1,.4.39,1,1,0,0,1,.07,1.14,2.68,2.68,0,0,1-.18.28.3.3,0,0,1-.47.07l-.95-.73Zm1.22.27a.47.47,0,0,0,0-.46.62.62,0,0,0-.67-.33,2.77,2.77,0,0,0-.26.1Z"/><path class="cls-12" d="M147.67,360.47l.78-.45.45-.26a.36.36,0,0,1,.52.16.36.36,0,0,1-.16.49l-.76.42c-.42.23-.84.46-1.27.68a2.4,2.4,0,0,1-.75.27,1.09,1.09,0,0,1-.73-.07.32.32,0,0,1-.12-.49.27.27,0,0,1,.27-.09,1.61,1.61,0,0,0,.86-.15.14.14,0,0,0,.08-.1c.15-.64.3-1.29.46-1.94a.51.51,0,0,1,.11-.22.37.37,0,0,1,.43-.06.38.38,0,0,1,.21.37l0,.12c-.11.41-.22.82-.32,1.22Z"/><path class="cls-12" d="M148.83,362.83a1.64,1.64,0,0,1-.47-.51.83.83,0,0,1-.08-.22.27.27,0,0,1,.14-.3.26.26,0,0,1,.32,0,1.15,1.15,0,0,1,.21.23,1.32,1.32,0,0,0,.39.39.49.49,0,0,0,.17.06.13.13,0,0,0,.15-.17,1.21,1.21,0,0,0-.09-.2l-.31-.47a.67.67,0,0,1-.09-.21.72.72,0,0,1,.68-1,1.12,1.12,0,0,1,.59.17,2,2,0,0,1,.56.51.56.56,0,0,1,.09.17.31.31,0,0,1-.5.33c-.07-.07-.12-.15-.19-.21a3.07,3.07,0,0,0-.26-.25.26.26,0,0,0-.13-.06.14.14,0,0,0-.17.19,1.51,1.51,0,0,0,.11.22c.1.15.2.28.29.43a1.6,1.6,0,0,1,.1.23.74.74,0,0,1-.71,1,1.32,1.32,0,0,1-.69-.25Z"/><path class="cls-12" d="M152.38,362.19l.21.16a.3.3,0,0,1,0,.51.27.27,0,0,1-.31,0,2.4,2.4,0,0,1-.26-.18h0c-.22.29-.44.57-.65.86a.71.71,0,0,0-.12.47.35.35,0,0,1,0,.2.24.24,0,0,1-.32.14.54.54,0,0,1-.34-.35.8.8,0,0,1,.07-.69,3.29,3.29,0,0,1,.28-.44c.15-.21.3-.4.46-.6l0-.07a1.09,1.09,0,0,1-.17-.13.3.3,0,0,1,0-.43.32.32,0,0,1,.43,0l.15.11.26-.34a.37.37,0,0,1,.62,0,.36.36,0,0,1,0,.44Z"/><path class="cls-12" d="M155.75,365.14l.08,0a.56.56,0,0,1,.66.2.26.26,0,0,1,0,.32.27.27,0,0,1-.29.15l-.27-.06-.14,0a.58.58,0,0,0-.64.2c-.21.25-.41.51-.61.77a.34.34,0,0,1-.08.09.38.38,0,0,1-.55-.51l.72-.93.43-.57a.38.38,0,0,1,.63,0,.31.31,0,0,1,.05.32l0,.07Z"/><path class="cls-12" d="M157.21,366.21a.29.29,0,0,1-.41.05.28.28,0,0,1-.06-.41.29.29,0,0,1,.42-.06A.3.3,0,0,1,157.21,366.21Zm-.07-.06a.21.21,0,0,0,0-.3.21.21,0,0,0-.3,0,.22.22,0,0,0,0,.31A.21.21,0,0,0,157.14,366.15Z"/><path class="cls-14" d="M145.07,358.23a.7.7,0,0,1,1-.13.71.71,0,1,1-.87,1.12A.7.7,0,0,1,145.07,358.23Zm.1.08a.57.57,0,0,0,.11.81.58.58,0,0,0,.81-.11.58.58,0,0,0-.92-.7Z"/><path class="cls-11" d="M145.17,358.31a.58.58,0,0,1,.92.7.58.58,0,0,1-.81.11A.57.57,0,0,1,145.17,358.31Z"/><path class="cls-12" d="M157,366.1a.07.07,0,0,1,0,0s0,0,0,.06,0,0,0-.06a.48.48,0,0,1,0-.12h0l0,.07h-.05s0,0,0-.05.09-.13.13-.19h0a1.14,1.14,0,0,1,.16.14C157.16,366,157.1,366.09,157,366.1ZM157,366l.1,0s0,0,0,0,0,0-.06-.05Z"/></g><path class="cls-13" d="M136.1,370.89l-.27-.21-.58.77-.19-.15.58-.76-.27-.21.12-.15.73.56Z"/><path class="cls-13" d="M136.06,371.21l.14,0a.14.14,0,0,1,.12,0,.13.13,0,0,1,.06.07l-.11.12h-.05l0,0,0,0,0,0H136l-.06,0-.3.4-.18-.13.5-.65.1.07,0,0s0,0,0,.05Z"/><path class="cls-13" d="M136.37,371.41a.5.5,0,0,1,.35.11.41.41,0,0,1,.09.1.28.28,0,0,1,0,.23l-.06.12-.32.41-.08-.07,0,0s0,0,0,0l0-.05h-.15l-.06,0-.07,0L136,372a.16.16,0,0,1,0-.08.14.14,0,0,1,0-.09.36.36,0,0,1,0-.09l.08-.06a.2.2,0,0,1,.11,0,.34.34,0,0,1,.16,0,.75.75,0,0,1,.2.12l0,0a.19.19,0,0,0,0-.11s0-.06-.05-.09l-.07,0h-.1l-.05,0s0,0,0,0,0,0,0,0Zm.13.56-.11-.07-.09,0h-.05l0,0s0,.05,0,.07,0,0,.05.06a.12.12,0,0,0,.08,0h.1Z"/><path class="cls-13" d="M137.2,372h.13l.07,0,.06,0a.32.32,0,0,1,.08.09.23.23,0,0,1,0,.11.23.23,0,0,1,0,.11.3.3,0,0,1-.06.11l-.31.41-.18-.13.32-.41a.17.17,0,0,0,0-.11.1.1,0,0,0-.05-.08s-.05,0-.08,0h-.1l-.36.46-.17-.13.5-.65.1.08s0,0,0,.07Z"/><path class="cls-13" d="M138.11,372.82h-.05l0,0,0,0,0,0-.05,0s0,0-.08,0a.05.05,0,0,0-.05,0l0,0s0,0,0,.05a.21.21,0,0,0,0,.06l0,.06,0,.07a.19.19,0,0,1,0,.07.11.11,0,0,1,0,.08.13.13,0,0,1,0,.07.2.2,0,0,1-.08.08.2.2,0,0,1-.11,0l-.11,0a.42.42,0,0,1-.13-.07l-.06-.06-.05-.06,0-.07s0-.05,0-.07l.09,0h0l0,0,0,0v0l0,0,.05.05,0,0h.07l0,0a.07.07,0,0,0,0-.05l0,0,0-.05,0-.07,0-.06s0-.05,0-.08a.25.25,0,0,1,0-.08.2.2,0,0,1,0-.08.46.46,0,0,1,.07-.07l.1,0a.21.21,0,0,1,.11,0l.12.07a.25.25,0,0,1,.11.12.24.24,0,0,1,0,.13Z"/><path class="cls-13" d="M138.47,373h.14l.07,0,.07,0a.23.23,0,0,1,.08.09.28.28,0,0,1,0,.13,1,1,0,0,1,0,.14.4.4,0,0,1-.09.15.34.34,0,0,1-.12.12.37.37,0,0,1-.14.07.33.33,0,0,1-.14,0,.31.31,0,0,1-.13-.06.22.22,0,0,1-.08-.09.36.36,0,0,1,0-.09l-.19.26-.18-.13.66-.86.11.08a0,0,0,0,1,0,.06Zm-.29.4a.19.19,0,0,0,0,.08l.05.06.07,0h.07l.08,0,.09-.08.06-.1a.31.31,0,0,0,0-.08.15.15,0,0,0,0-.07l0,0a.12.12,0,0,0-.09,0h-.1Z"/><path class="cls-13" d="M139.39,373.57a.49.49,0,0,1,.12.13.34.34,0,0,1,.05.14.43.43,0,0,1,0,.16.89.89,0,0,1-.09.16.49.49,0,0,1-.13.12.27.27,0,0,1-.15.05.26.26,0,0,1-.15,0,.37.37,0,0,1-.15-.08.68.68,0,0,1-.12-.12.44.44,0,0,1,0-.15.31.31,0,0,1,0-.16.37.37,0,0,1,.08-.15.4.4,0,0,1,.13-.13l.15,0a.38.38,0,0,1,.15,0A.55.55,0,0,1,139.39,373.57Zm-.41.54a.14.14,0,0,0,.15,0,.27.27,0,0,0,.15-.12.34.34,0,0,0,.08-.18.15.15,0,0,0-.07-.14.14.14,0,0,0-.15,0,.32.32,0,0,0-.15.12.34.34,0,0,0-.08.18A.14.14,0,0,0,139,374.11Z"/><path class="cls-13" d="M139.9,374.15l.14,0a.15.15,0,0,1,.12,0,.13.13,0,0,1,.06.07l-.11.12h-.05l0,0,0,0-.05,0h-.09l-.06,0-.3.4-.18-.13.5-.65.1.07,0,0a.11.11,0,0,1,0,.05Z"/><path class="cls-13" d="M140,375.11A.16.16,0,0,1,140,375a.13.13,0,0,1,0-.08.14.14,0,0,1,0-.09.59.59,0,0,1,0-.08l.27-.35-.06-.05,0,0v0l.06-.07.12.06.16-.14s0,0,.06,0l.09.07-.15.2.17.13-.1.12-.16-.13-.26.34a.06.06,0,0,0,0,0s0,0,0,.05h.07v0s0,0,0,0l0,.12-.11,0A.21.21,0,0,1,140,375.11Z"/><path class="cls-13" d="M140.62,375.56l.4-.52,0-.05,0,0a.06.06,0,0,1,0,0l.05-.07.1.07,0,0,.09-.09.11,0a.25.25,0,0,1,.12,0l.12.06,0,0,0,0-.07.08s0,0,0,0l0,0-.05,0h-.05l0,0-.06.06,0,0,.16.13-.1.12-.15-.12-.4.52Z"/><path class="cls-13" d="M141.82,375.43l.11.12a.3.3,0,0,1,0,.15.26.26,0,0,1,0,.15.48.48,0,0,1-.08.16.71.71,0,0,1-.13.12.47.47,0,0,1-.15.06.45.45,0,0,1-.16,0,.55.55,0,0,1-.15-.08.33.33,0,0,1-.11-.13.35.35,0,0,1-.06-.14.44.44,0,0,1,0-.16.4.4,0,0,1,.08-.16.71.71,0,0,1,.13-.12.3.3,0,0,1,.15-.05.26.26,0,0,1,.15,0A.35.35,0,0,1,141.82,375.43Zm-.42.54a.14.14,0,0,0,.15,0,.51.51,0,0,0,.16-.12.45.45,0,0,0,.08-.18.16.16,0,0,0-.07-.14.2.2,0,0,0-.16,0,.35.35,0,0,0-.15.13.34.34,0,0,0-.08.18A.17.17,0,0,0,141.4,376Z"/><path class="cls-13" d="M142.33,376a.31.31,0,0,1,.13,0,.16.16,0,0,1,.12,0,.16.16,0,0,1,.06.08l-.11.12h-.05l0,0,0,0,0,0h-.1l-.06,0-.3.4-.17-.14.49-.65.11.08,0,0s0,0,0,0Z"/><path class="cls-13" d="M143.18,377.28l-.12.15-.54-.42.7-.91.19.14-.58.77Z"/><path class="cls-13" d="M143.93,377a.45.45,0,0,1,.11.13.27.27,0,0,1,.05.14.29.29,0,0,1,0,.16.6.6,0,0,1-.08.16.71.71,0,0,1-.13.12l-.15.06a.47.47,0,0,1-.16,0,.37.37,0,0,1-.15-.08.41.41,0,0,1-.11-.12.3.3,0,0,1-.05-.15.26.26,0,0,1,0-.15.48.48,0,0,1,.08-.16.71.71,0,0,1,.13-.12l.15-.06h.15Zm-.42.54a.17.17,0,0,0,.15,0,.43.43,0,0,0,.16-.13.45.45,0,0,0,.08-.18.15.15,0,0,0-.07-.13.2.2,0,0,0-.16,0,.35.35,0,0,0-.15.13.29.29,0,0,0-.08.18A.16.16,0,0,0,143.51,377.58Z"/><path class="cls-13" d="M144.46,377.59h.13l.07,0,.06,0a.32.32,0,0,1,.08.09.23.23,0,0,1,0,.11.23.23,0,0,1,0,.11.41.41,0,0,1-.06.11l-.32.41-.17-.13.32-.42a.21.21,0,0,0,0-.1.16.16,0,0,0-.06-.09.19.19,0,0,0-.08,0h-.09l-.36.47-.17-.13.49-.65.11.08s0,0,0,.06Z"/><path class="cls-13" d="M145.87,378.09l-.72.94L145,379a.06.06,0,0,1,0-.07l0-.07h-.14l-.07,0-.07-.05a.24.24,0,0,1-.08-.09.25.25,0,0,1,0-.12.4.4,0,0,1,0-.15.6.6,0,0,1,.09-.15.34.34,0,0,1,.12-.12l.14-.07h.14a.42.42,0,0,1,.14.06.28.28,0,0,1,.07.09.36.36,0,0,1,0,.09l.25-.34Zm-.53.32a.19.19,0,0,0,0-.08l0-.06-.07,0h-.07s0,0-.08,0a.24.24,0,0,0-.08.09l-.07.09a.31.31,0,0,0,0,.08.15.15,0,0,0,0,.07l0,0a.19.19,0,0,0,.1,0h.09Z"/><path class="cls-13" d="M146.09,378.7a.49.49,0,0,1,.12.13.34.34,0,0,1,0,.14.43.43,0,0,1,0,.16.65.65,0,0,1-.09.16.49.49,0,0,1-.13.12.3.3,0,0,1-.15,0,.26.26,0,0,1-.15,0,.37.37,0,0,1-.15-.08.46.46,0,0,1-.12-.12.44.44,0,0,1-.05-.15.31.31,0,0,1,0-.16.37.37,0,0,1,.08-.15.29.29,0,0,1,.13-.12.47.47,0,0,1,.15-.06.38.38,0,0,1,.15,0Zm-.41.54a.17.17,0,0,0,.15,0,.35.35,0,0,0,.15-.13.34.34,0,0,0,.08-.18.15.15,0,0,0-.07-.14.17.17,0,0,0-.15,0,.4.4,0,0,0-.15.12.34.34,0,0,0-.08.18A.14.14,0,0,0,145.68,379.24Z"/><path class="cls-13" d="M146.62,379.25h.14l.06,0,.07,0,.08.09,0,.1a.5.5,0,0,1,0,.12l-.06.11-.32.41-.17-.13.31-.42a.14.14,0,0,0,0-.1.14.14,0,0,0-.05-.09.11.11,0,0,0-.08,0h-.1l-.35.47-.18-.13.5-.65.11.08s0,0,0,.06Z"/></g><path d="M242.69,371.87q-1,9.15-2.82,18.22l-27.67,18A58.67,58.67,0,0,1,191.92,406a90.56,90.56,0,0,1-20.66-8.9c-1.08-.63-2.09-1.26-3-1.88a42.88,42.88,0,0,1-5.17-3.95c-.58-.53-1.11-1-1.6-1.54l-.47-.51c-.32-.35-.62-.7-.88-1l-.44-.55a17.61,17.61,0,0,1-1.55-2.45.54.54,0,0,1-.05-.11,9.31,9.31,0,0,1-1-2.83,4.6,4.6,0,0,1,.4-2.82,5.71,5.71,0,0,1,3.16-2.63,7.39,7.39,0,0,1,1.22-.35,8.62,8.62,0,0,1,3.18,0l.21,0c1.88.31,4.36,1,7.74,1.8l.77.17a41.91,41.91,0,0,0,14.19,1,57.11,57.11,0,0,0,16.5-5,27.39,27.39,0,0,0,11.1-8.8,66.44,66.44,0,0,0,9.25-17.52c.48-1.35.93-2.72,1.34-4.14q.19-.63.36-1.26c.13-.47.25-.94.37-1.41.35-1.41.67-2.87,1-4.37,0,0,0-.05,0-.08.09-.47.17-.95.26-1.44s.2-1.22.29-1.84l.18-1.29c.07-.54.14-1.09.2-1.64s.1-.86.14-1.29.07-.7.1-1.05l.12-1.37c.07-1,.14-2.06.19-3.13a129.32,129.32,0,0,0-1.93-29.4c-1.73-8.39-4.53-13.74-7.49-17.73a27,27,0,0,0-9.58-8.39A33.22,33.22,0,0,0,199,265.17a53.27,53.27,0,0,0-11.48-.09,27.83,27.83,0,0,0-9.29,2.47,23.64,23.64,0,0,0-8.64,7.22c-3,3.8-6.39,9.44-7.46,23.56a25.85,25.85,0,0,0-14.38,0l-.06,0c-1.07-14.12-4.45-19.76-7.47-23.56a23.7,23.7,0,0,0-8.63-7.22,27.83,27.83,0,0,0-9.3-2.47,53.18,53.18,0,0,0-11.47.09,33.16,33.16,0,0,0-11.31,3.12A27.07,27.07,0,0,0,90,276.68c-3,4-5.75,9.34-7.48,17.73a128.19,128.19,0,0,0-1.93,29.4q.08,1.51.18,3a.92.92,0,0,1,0,.16l.12,1.37c0,.35.06.7.1,1.05s.09.86.14,1.29.12,1.1.2,1.64.11.86.18,1.29c.08.62.18,1.24.29,1.84,0,.3.1.59.16.88.12.72.26,1.43.41,2.13.1.49.21,1,.32,1.45l.3,1.28c.15.61.31,1.2.47,1.79l.3,1c.41,1.42.86,2.79,1.34,4.14a66.74,66.74,0,0,0,9.25,17.52,27.42,27.42,0,0,0,11.11,8.8,57.14,57.14,0,0,0,16.49,5,41.89,41.89,0,0,0,14.19-1c1.17-.25,2.23-.51,3.2-.74l3.28-.81.37-.09c.6-.14,1.15-.25,1.66-.33a8.25,8.25,0,0,1,4.61.33,5.73,5.73,0,0,1,3.17,2.63c.65,1.32.74,3.13-.62,5.76-.12.23-.24.46-.39.7s-.28.47-.44.72c-1.57,2.4-4.34,5.34-9.29,8.61-.94.62-1.95,1.25-3,1.88A90.37,90.37,0,0,1,118,406a57.58,57.58,0,0,1-23.44,1.73,36.26,36.26,0,0,1-16.82-6.66,38.12,38.12,0,0,1-4.5-4c-.79-.81-1.53-1.64-2.24-2.47A229.82,229.82,0,0,1,85.7,252.2a63.63,63.63,0,0,1,29-30.65A96.55,96.55,0,0,1,153.84,211a20.55,20.55,0,0,1,2.22,0,96.59,96.59,0,0,1,39.14,10.58,63.56,63.56,0,0,1,29,30.65A229.83,229.83,0,0,1,242.69,371.87Z"/><g id="Windows-2" data-name="Windows"><path class="cls-15" d="M261.14,132.23V356.88a4.88,4.88,0,0,1-2.5,4.61l-53.38,34.74a5.13,5.13,0,0,1-3,.9H47.82c-4.37,0-6.09-2-5.42-6.34L74.88,179.21a24.66,24.66,0,0,1,4.18-10.58,256.36,256.36,0,0,1,22.19-28.15c3.83-4.21,7.82-8.31,11.94-12.24a5.13,5.13,0,0,1,3.8-1.52H255.63C259.53,126.72,261.14,128.33,261.14,132.23Z"/><path class="cls-15" d="M780.14,397.13H625.71a5.2,5.2,0,0,1-3-.9Q596,378.88,569.34,361.49a4.88,4.88,0,0,1-2.5-4.61V132.23c0-3.9,1.61-5.51,5.49-5.51H711a5.07,5.07,0,0,1,3.79,1.52c4.13,3.93,8.12,8,12,12.24a257.66,257.66,0,0,1,22.2,28.15,24.88,24.88,0,0,1,4.16,10.58Q769.33,285,785.57,390.79C786.23,395.13,784.53,397.13,780.14,397.13Z"/></g><path class="cls-4" d="M296.11,753.34H48.71c-3.88,0-5.49-1.61-5.49-5.49V702.38H296.11Z"/><rect class="cls-16" x="188" y="615.43" width="41.87" height="41.87"/><path class="cls-2" d="M269.38,113H111.58a5,5,0,0,0-3.7,1.43q-4.44,4-8.66,8.29Q90.9,131,83.36,140.11c-5.54,6.66-10.75,13.61-15.64,20.76a37.87,37.87,0,0,0-6.41,16.25L26.39,404.53c-.66,4.33,1.06,6.33,5.44,6.33H203.9a13,13,0,0,0,7.49-2.23l.81-.53,27.67-18,28.76-18.72c4.48-2.92,6.24-6.15,6.24-11.51V118.48C274.87,114.6,273.26,113,269.38,113Zm-8.24,243.89a4.86,4.86,0,0,1-2.5,4.6l-15.95,10.39-37.43,24.36a5.13,5.13,0,0,1-3,.9H47.82c-4.37,0-6.09-2-5.42-6.34L74.88,179.21a24.66,24.66,0,0,1,4.18-10.58,256.36,256.36,0,0,1,22.19-28.15c3.83-4.21,7.82-8.31,11.94-12.24a5.13,5.13,0,0,1,3.8-1.52H255.63c3.9,0,5.51,1.61,5.51,5.51Z"/><path class="cls-2" d="M88,552c6.4,28.29,52.84,33,73.71,32.33,14.64-.49,28.12-2.82,41.62-9,11.59-5.35,26.87-16.2,23.31-32-6.4-28.28-52.84-33-73.71-32.32-14.64.49-28.12,2.81-41.62,9C99.72,525.41,84.44,536.26,88,552Z"/><path class="cls-2" d="M740,552c-6.4,28.29-52.84,33-73.71,32.33-14.65-.49-28.12-2.82-41.62-9-11.59-5.35-26.88-16.2-23.31-32,6.4-28.28,52.84-33,73.7-32.32,14.65.49,28.13,2.81,41.63,9C728.25,525.41,743.53,536.26,740,552Z"/><rect class="cls-17" x="142.68" y="527.08" width="41.22" height="41.22"/><path d="M218.68,913.9h27.49c7.77,0,11-3.22,11-11v-63.2H207.69v63.2C207.69,910.68,210.91,913.9,218.68,913.9Z"/><path d="M609.29,913.9H581.8c-7.77,0-11-3.22-11-11v-63.2h49.46v63.2C620.28,910.68,617.06,913.9,609.29,913.9Z"/><path class="cls-2" d="M207.69,902.91v-63.2h15.89V913.9h-4.9C210.91,913.9,207.69,910.68,207.69,902.91Z"/><path class="cls-2" d="M620.28,902.91v-63.2h-15.9V913.9h4.91C617.06,913.9,620.28,910.68,620.28,902.91Z"/><rect class="cls-17" x="644.07" y="527.08" width="41.22" height="41.22"/><path class="cls-18" d="M222.14,551.26c2.52-6.41.91-10.1-5.5-12.62s-10.1-.91-12.62,5.49-.91,10.1,5.49,12.62S219.62,557.66,222.14,551.26Z"/><path class="cls-18" d="M605.83,551.26c-2.52-6.41-.91-10.1,5.5-12.62s10.1-.91,12.62,5.49.91,10.1-5.5,12.62S608.35,557.66,605.83,551.26Z"/><path class="cls-19" d="M96.81,548.12a21.07,21.07,0,1,0,20.65-21.5A21.08,21.08,0,0,0,96.81,548.12Z"/><path class="cls-19" d="M731.16,548.12a21.07,21.07,0,1,1-20.65-21.5A21.08,21.08,0,0,1,731.16,548.12Z"/><polygon class="cls-20" points="255.61 851.56 255.61 766.55 413.99 766.55 572.36 766.55 572.36 851.56 413.99 851.56 255.61 851.56"/><rect class="cls-21" x="493.17" y="766.55" width="40.94" height="85.01"/><rect class="cls-21" x="272.06" y="766.55" width="40.94" height="85.01"/><rect class="cls-21" x="415.23" y="782.51" width="64.82" height="28.18"/><rect class="cls-21" x="347.59" y="789.17" width="32.54" height="17.17"/><circle class="cls-21" cx="433.16" cy="830.16" r="12.04"/><path class="cls-21" d="M390.38,831.44c0,5.44,2.25,7.69,7.68,7.69s7.69-2.25,7.69-7.69-2.25-7.68-7.69-7.68S390.38,826,390.38,831.44Z"/><path class="cls-21" d="M350.41,830.93c0,7.61,3.15,10.76,10.76,10.76s10.76-3.15,10.76-10.76-3.15-10.76-10.76-10.76S350.41,823.32,350.41,830.93Z"/><rect class="cls-22" x="504.3" y="795.82" width="18.69" height="18.69"/><rect class="cls-22" x="283.19" y="795.82" width="18.69" height="18.69"/><polygon class="cls-23" points="513.64 799.22 507.41 810.01 519.87 810.01 513.64 799.22"/><polygon class="cls-23" points="292.78 798.39 286.55 809.19 299.01 809.19 292.78 798.39"/><rect class="cls-24" x="169.61" y="597.67" width="82.88" height="75.75" rx="8.24"/><rect class="cls-24" x="62.14" y="599.66" width="94.78" height="73.76" rx="8.24"/><rect class="cls-24" x="62.14" y="505.86" width="190.36" height="83.68" rx="8.24"/><rect class="cls-24" x="575.47" y="505.86" width="190.36" height="83.68" rx="8.24"/><rect class="cls-24" x="671.05" y="599.66" width="94.78" height="73.76" rx="8.24"/><path class="cls-25" d="M297.44,187.09v266.7c0,3.88-1.6,5.49-5.49,5.49h-1.6c-3.88,0-5.49-1.61-5.49-5.49V187.09c0-3.89,1.61-5.5,5.49-5.5H292C295.84,181.59,297.44,183.2,297.44,187.09Z"/><path class="cls-25" d="M543.11,187.09v266.7c0,3.88-1.61,5.49-5.49,5.49H536c-3.89,0-5.5-1.61-5.5-5.49V187.09c0-3.89,1.61-5.5,5.5-5.5h1.6C541.5,181.59,543.11,183.2,543.11,187.09Z"/><path class="cls-15" d="M780.14,397.13H625.71a5.2,5.2,0,0,1-3-.9Q596,378.88,569.34,361.49a4.88,4.88,0,0,1-2.5-4.61V132.23c0-3.9,1.61-5.51,5.49-5.51H711a5.07,5.07,0,0,1,3.79,1.52c4.13,3.93,8.12,8,12,12.24a257.66,257.66,0,0,1,22.2,28.15,24.88,24.88,0,0,1,4.16,10.58Q769.33,285,785.57,390.79C786.23,395.13,784.53,397.13,780.14,397.13Z"/><path class="cls-2" d="M801.57,404.53,766.65,177.12a38.09,38.09,0,0,0-6.39-16.25c-4.89-7.15-10.12-14.1-15.66-20.76q-7.53-9.06-15.84-17.4-4.25-4.24-8.66-8.29a5.11,5.11,0,0,0-3.72-1.43H558.6c-3.88,0-5.49,1.61-5.49,5.49V359.86c0,5.36,1.75,8.59,6.24,11.51l57.23,37.26a13,13,0,0,0,7.5,2.23H796.15C800.53,410.86,802.24,408.86,801.57,404.53Zm-21.43-7.4H625.71a5.2,5.2,0,0,1-3-.9Q596,378.88,569.34,361.48a4.86,4.86,0,0,1-2.5-4.6V132.23c0-3.9,1.61-5.51,5.49-5.51H711a5.07,5.07,0,0,1,3.79,1.52c4.13,3.93,8.12,8,12,12.24a257.66,257.66,0,0,1,22.2,28.15,24.88,24.88,0,0,1,4.16,10.58Q769.33,285,785.57,390.79C786.23,395.13,784.53,397.13,780.14,397.13Z"/><path class="cls-2" d="M112.32,668.35c10.14-.35,18.89-2.47,27.64-7.93H112.32Z"/><path class="cls-2" d="M112.32,623.81H151a32.15,32.15,0,0,0-7.25-7.83H112.32Z"/><path class="cls-2" d="M153.09,646a22.54,22.54,0,0,0,1.9-7.83H112.32V646Z"/><path class="cls-2" d="M109,657.14v-7.83H68.75a31.39,31.39,0,0,0,6.88,7.83Z"/><path class="cls-2" d="M109,612.7v-7.35c-10.15.17-19,2.14-27.85,7.35Z"/><path class="cls-2" d="M76.39,616a32.15,32.15,0,0,0-7.25,7.83H109V616Z"/><path class="cls-2" d="M109,646V638.2H65.14A22.54,22.54,0,0,0,67,646Z"/><path class="cls-2" d="M109,634.92v-7.83H67.32a22.93,22.93,0,0,0-2.14,7.83Z"/><path class="cls-2" d="M155,634.92a22.93,22.93,0,0,0-2.14-7.83H112.32v7.83Z"/><path class="cls-2" d="M144.5,657.14a31.39,31.39,0,0,0,6.88-7.83H112.32v7.83Z"/><path class="cls-2" d="M109,660.42H80.17c9.16,5.71,18.26,7.8,28.87,8Z"/><path class="cls-2" d="M138.94,612.7c-8.47-5-16.93-7-26.62-7.31v7.31Z"/><path class="cls-2" d="M715.65,623.81H677a32.39,32.39,0,0,1,7.26-7.83h31.42Z"/><path class="cls-2" d="M689,612.7c8.47-5,16.93-7,26.62-7.31v7.31Z"/><path class="cls-2" d="M718.93,660.42H747.8c-9.16,5.71-18.27,7.8-28.87,8Z"/><path class="cls-2" d="M683.46,657.14a31.59,31.59,0,0,1-6.88-7.83h39.07v7.83Z"/><path class="cls-2" d="M673,634.92a23.14,23.14,0,0,1,2.13-7.83h40.5v7.83Z"/><path class="cls-2" d="M718.93,634.92v-7.83h41.72a22.69,22.69,0,0,1,2.13,7.83Z"/><path class="cls-2" d="M718.93,646V638.2h43.9a22.77,22.77,0,0,1-1.9,7.83Z"/><path class="cls-2" d="M751.58,616a32.35,32.35,0,0,1,7.25,7.83h-39.9V616Z"/><path class="cls-2" d="M718.93,612.7v-7.35c10.15.17,19,2.14,27.85,7.35Z"/><path class="cls-2" d="M718.93,657.14v-7.83h40.29a31.59,31.59,0,0,1-6.88,7.83Z"/><path class="cls-2" d="M674.88,646a22.54,22.54,0,0,1-1.9-7.83h42.67V646Z"/><path class="cls-2" d="M715.65,668.35c-10.14-.35-18.9-2.47-27.64-7.93h27.64Z"/><path class="cls-4" d="M531.86,753.34H779.25c3.89,0,5.5-1.61,5.5-5.49V702.38H531.86Z"/><path class="cls-26" d="M151.37,93.68a7.07,7.07,0,0,1-2.08,3.18c-1.31,1-3,1-5.36.16-3.81-1.44-4.79-3.62-3.34-7.43s3.62-4.79,7.43-3.34S152.81,89.87,151.37,93.68Z"/><line class="cls-27" x1="264.6" y1="242.26" x2="166.23" y2="92.75"/><line class="cls-27" x1="145.98" y1="91.63" x2="249.14" y2="254.4"/><rect class="cls-26" x="252.66" y="150.34" width="8.47" height="194.72" rx="2.75"/><path class="cls-26" d="M171.43,92.75c0,2.42-.66,3.9-2.15,4.64a7,7,0,0,1-3.05.56c-3.68,0-5.2-1.52-5.2-5.2s1.52-5.2,5.2-5.2S171.43,89.07,171.43,92.75Z"/><path class="cls-28" d="M250.81,237.27c-7.77,4.25-9.23,9.22-5,17s9.22,9.24,17,5,9.23-9.22,5-17S258.59,233,250.81,237.27Z"/><rect class="cls-26" x="566.84" y="150.34" width="8.46" height="194.72" rx="2.75"/><line class="cls-27" x1="681.99" y1="91.63" x2="578.83" y2="254.4"/><line class="cls-27" x1="563.36" y1="242.26" x2="661.74" y2="92.75"/><path class="cls-26" d="M684,97c-2.33.89-4,.86-5.36-.16a7.07,7.07,0,0,1-2.08-3.18c-1.44-3.81-.46-6,3.35-7.43s6-.47,7.43,3.34S687.85,95.58,684,97Z"/><path class="cls-26" d="M666.94,92.75c0,3.68-1.52,5.2-5.2,5.2a7,7,0,0,1-3-.56c-1.49-.74-2.15-2.22-2.15-4.64,0-3.68,1.52-5.2,5.2-5.2S666.94,89.07,666.94,92.75Z"/><path class="cls-28" d="M579.24,239.43c6.24,5.72,6.46,10.67.74,16.92s-10.67,6.46-16.91.74-6.46-10.67-.75-16.91S573,233.72,579.24,239.43Z"/><path class="cls-29" d="M64.11,793.66C41,807.53,43.43,831,73.57,824.07"/><path class="cls-29" d="M64.11,805.4C41,819.27,43.43,842.74,73.57,835.81"/><path class="cls-29" d="M763.85,805.4c23.09,13.87,20.69,37.34-9.45,30.41"/><path class="cls-29" d="M763.85,793.66c23.09,13.87,20.69,37.35-9.45,30.41"/><polygon class="cls-2" points="413.99 437.79 497.11 437.79 497.11 465.73 413.99 465.73 330.86 465.73 330.86 437.79 413.99 437.79"/><polygon class="cls-30" points="413.99 117.65 490.45 117.65 490.45 355.32 413.99 355.32 337.51 355.32 337.51 117.65 413.99 117.65"/><rect class="cls-24" x="302.48" y="98.14" width="223" height="568.45"/><polygon class="cls-4" points="413.99 18.63 443 18.63 443 41.41 536.48 41.41 536.48 68.55 413.99 68.55 291.49 68.55 291.49 41.41 384.97 41.41 384.97 18.63 413.99 18.63"/><polygon class="cls-4" points="413.99 707.52 520.23 707.52 520.23 714.5 413.99 714.5 307.74 714.5 307.74 707.52 413.99 707.52"/><polygon class="cls-4" points="413.99 695.38 520.23 695.38 520.23 702.37 413.99 702.37 307.74 702.37 307.74 695.38 413.99 695.38"/><polygon class="cls-4" points="413.99 731.79 520.23 731.79 520.23 738.78 413.99 738.78 307.74 738.78 307.74 731.79 413.99 731.79"/><polygon class="cls-4" points="413.99 719.65 520.23 719.65 520.23 726.64 413.99 726.64 307.74 726.64 307.74 719.65 413.99 719.65"/><path class="cls-13" d="M359.21,442.64v16.71h-1.78a1.56,1.56,0,0,1-.68-.13,1.7,1.7,0,0,1-.54-.46l-8.33-10.59c0,.27,0,.53.06.8s0,.5,0,.72v9.66H344.9V442.64h1.82l.38,0a.9.9,0,0,1,.28.08,1.18,1.18,0,0,1,.24.17,2.27,2.27,0,0,1,.25.27l8.39,10.64c0-.29-.06-.57-.07-.84s0-.53,0-.78v-9.56Z"/><path class="cls-13" d="M367.28,447.3a6.74,6.74,0,0,1,2.43.42,5.41,5.41,0,0,1,1.87,1.22,5.29,5.29,0,0,1,1.21,1.91,7.78,7.78,0,0,1,0,5.1,5.25,5.25,0,0,1-3.08,3.15,6.74,6.74,0,0,1-2.43.43,6.81,6.81,0,0,1-2.45-.43,5.28,5.28,0,0,1-3.1-3.15,7.78,7.78,0,0,1,0-5.1,5.32,5.32,0,0,1,3.1-3.13A6.81,6.81,0,0,1,367.28,447.3Zm0,9.84a2.28,2.28,0,0,0,2-.94,6.21,6.21,0,0,0,0-5.57,2.28,2.28,0,0,0-2-.94,2.31,2.31,0,0,0-2,.94,6.21,6.21,0,0,0,0,5.57A2.31,2.31,0,0,0,367.28,457.14Z"/><path class="cls-13" d="M378.2,449.44a5.31,5.31,0,0,1,1.3-1.6,2.73,2.73,0,0,1,1.73-.59,2.17,2.17,0,0,1,1.32.38l-.21,2.35a.58.58,0,0,1-.18.32.62.62,0,0,1-.33.08,4.72,4.72,0,0,1-.53-.05,5,5,0,0,0-.64-.05,2.09,2.09,0,0,0-.78.13,1.94,1.94,0,0,0-.61.35,2.7,2.7,0,0,0-.47.57,4.16,4.16,0,0,0-.4.76v7.26h-3.18V447.48h1.88a1,1,0,0,1,.67.17,1.12,1.12,0,0,1,.26.6Z"/><path class="cls-13" d="M388,459.54a3.91,3.91,0,0,1-1.42-.24,2.83,2.83,0,0,1-1.05-.67,3,3,0,0,1-.65-1.06,4.44,4.44,0,0,1-.22-1.41v-6.4h-1.11a.63.63,0,0,1-.44-.16.65.65,0,0,1-.17-.48v-1.25l1.9-.34.64-3.08a.65.65,0,0,1,.7-.52h1.66v3.62h3.06v2.21h-3.06V456a1.17,1.17,0,0,0,.24.78.83.83,0,0,0,.67.29,1.1,1.1,0,0,0,.39-.06,1.49,1.49,0,0,0,.28-.11l.21-.12a.49.49,0,0,1,.2-.05.33.33,0,0,1,.23.07.56.56,0,0,1,.19.21l.95,1.52a4.56,4.56,0,0,1-1.48.78A5.53,5.53,0,0,1,388,459.54Z"/><path class="cls-13" d="M395.77,448.64a6.9,6.9,0,0,1,.7-.54,4.46,4.46,0,0,1,.77-.43,5,5,0,0,1,.88-.28,5.34,5.34,0,0,1,1-.09,4.21,4.21,0,0,1,1.71.33,3.45,3.45,0,0,1,1.26.93,4,4,0,0,1,.77,1.43,5.84,5.84,0,0,1,.26,1.82v7.54H400v-7.54a2.38,2.38,0,0,0-.46-1.54,1.69,1.69,0,0,0-1.36-.54,2.83,2.83,0,0,0-1.26.28,4.6,4.6,0,0,0-1.12.81v8.53H392.6V442.18h3.17Z"/><path class="cls-13" d="M408.19,453.91a3.74,3.74,0,0,0,.95,2.44,2.9,2.9,0,0,0,2.09.77,3.46,3.46,0,0,0,1.13-.16,5.63,5.63,0,0,0,.84-.34l.66-.35a1.28,1.28,0,0,1,.58-.15.69.69,0,0,1,.58.27l.92,1.15a4.9,4.9,0,0,1-1.12,1,6.43,6.43,0,0,1-1.27.61,6.66,6.66,0,0,1-1.32.31,9.77,9.77,0,0,1-1.29.09,6.54,6.54,0,0,1-2.32-.41,5.47,5.47,0,0,1-1.88-1.21,5.84,5.84,0,0,1-1.26-2,7.73,7.73,0,0,1-.46-2.75,6.36,6.36,0,0,1,.4-2.28,5.31,5.31,0,0,1,3-3.13,6,6,0,0,1,2.42-.46,5.94,5.94,0,0,1,2.1.36,4.53,4.53,0,0,1,1.66,1,4.59,4.59,0,0,1,1.08,1.7,6.34,6.34,0,0,1,.39,2.3,4.8,4.8,0,0,1,0,.59,1.26,1.26,0,0,1-.12.36.37.37,0,0,1-.22.19.9.9,0,0,1-.36.06Zm5-1.89a3.31,3.31,0,0,0-.14-.95,2,2,0,0,0-.42-.79,2.09,2.09,0,0,0-.72-.55,2.55,2.55,0,0,0-1.05-.2,2.42,2.42,0,0,0-1.79.64,3.36,3.36,0,0,0-.84,1.85Z"/><path class="cls-13" d="M421,449.44a5.31,5.31,0,0,1,1.3-1.6,2.71,2.71,0,0,1,1.73-.59,2.14,2.14,0,0,1,1.31.38l-.2,2.35a.58.58,0,0,1-.18.32.62.62,0,0,1-.33.08,4.72,4.72,0,0,1-.53-.05,5.13,5.13,0,0,0-.65-.05,2,2,0,0,0-.77.13,1.94,1.94,0,0,0-.61.35,2.7,2.7,0,0,0-.47.57,4.16,4.16,0,0,0-.4.76v7.26H418V447.48h1.88a1,1,0,0,1,.66.17,1.12,1.12,0,0,1,.27.6Z"/><path class="cls-13" d="M429.63,448.86a7.26,7.26,0,0,1,.74-.63,5.28,5.28,0,0,1,.82-.5,4.63,4.63,0,0,1,.93-.32,4.74,4.74,0,0,1,1.09-.11,4.22,4.22,0,0,1,1.72.33,3.54,3.54,0,0,1,1.26.93A4,4,0,0,1,437,450a6.16,6.16,0,0,1,.26,1.82v7.54h-3.17v-7.54a2.32,2.32,0,0,0-.46-1.54,1.69,1.69,0,0,0-1.36-.54A2.82,2.82,0,0,0,431,450a4.42,4.42,0,0,0-1.12.81v8.53h-3.18V447.48h2a.76.76,0,0,1,.79.55Z"/><path class="cls-13" d="M455.56,456.54v2.81h-9.91V442.64h3.45v13.9Z"/><path class="cls-13" d="M460.88,444.11a1.67,1.67,0,0,1-.16.74,2.22,2.22,0,0,1-.43.62,2,2,0,0,1-1.41.56,1.85,1.85,0,0,1-.74-.15,1.92,1.92,0,0,1-.62-.41,2,2,0,0,1-.42-.62,1.82,1.82,0,0,1-.16-.74,2,2,0,0,1,.16-.76,1.85,1.85,0,0,1,.42-.61,1.79,1.79,0,0,1,.62-.42,1.85,1.85,0,0,1,.74-.15,2.08,2.08,0,0,1,.78.15,1.93,1.93,0,0,1,.63.42,2,2,0,0,1,.43.61A1.79,1.79,0,0,1,460.88,444.11Zm-.38,3.37v11.87h-3.18V447.48Z"/><path class="cls-13" d="M466.17,448.86a6.32,6.32,0,0,1,.74-.63,5.28,5.28,0,0,1,.82-.5,4.43,4.43,0,0,1,.93-.32,4.68,4.68,0,0,1,1.09-.11,4.21,4.21,0,0,1,1.71.33,3.45,3.45,0,0,1,1.26.93,4,4,0,0,1,.78,1.43,6.16,6.16,0,0,1,.25,1.82v7.54h-3.16v-7.54a2.38,2.38,0,0,0-.46-1.54,1.69,1.69,0,0,0-1.36-.54,2.87,2.87,0,0,0-1.26.28,4.37,4.37,0,0,0-1.11.81v8.53h-3.18V447.48h2a.76.76,0,0,1,.79.55Z"/><path class="cls-13" d="M478.81,453.91a3.79,3.79,0,0,0,.95,2.44,2.9,2.9,0,0,0,2.09.77A3.46,3.46,0,0,0,483,457a5.63,5.63,0,0,0,.84-.34l.66-.35a1.28,1.28,0,0,1,.58-.15.69.69,0,0,1,.58.27l.92,1.15a4.9,4.9,0,0,1-1.12,1,6.63,6.63,0,0,1-1.26.61,6.93,6.93,0,0,1-1.33.31,9.54,9.54,0,0,1-1.29.09,6.54,6.54,0,0,1-2.32-.41,5.47,5.47,0,0,1-1.88-1.21,5.84,5.84,0,0,1-1.26-2,7.73,7.73,0,0,1-.46-2.75,6.36,6.36,0,0,1,.4-2.28,5.36,5.36,0,0,1,3-3.13,6.43,6.43,0,0,1,4.51-.1,4.53,4.53,0,0,1,1.66,1,4.74,4.74,0,0,1,1.09,1.7,6.56,6.56,0,0,1,.38,2.3,4.8,4.8,0,0,1,0,.59,1,1,0,0,1-.12.36.37.37,0,0,1-.22.19.88.88,0,0,1-.35.06Zm5-1.89a3.31,3.31,0,0,0-.14-.95,2,2,0,0,0-.42-.79,2.09,2.09,0,0,0-.72-.55,2.55,2.55,0,0,0-1-.2,2.4,2.4,0,0,0-1.78.64,3.29,3.29,0,0,0-.84,1.85Z"/><path class="cls-31" d="M331.54,53.69h5.73v6.9A9,9,0,0,1,334.55,62a10.88,10.88,0,0,1-3.06.43,10.5,10.5,0,0,1-3.73-.64A8.46,8.46,0,0,1,324.91,60a7.82,7.82,0,0,1-1.83-2.71,8.87,8.87,0,0,1-.65-3.42,9.32,9.32,0,0,1,.62-3.44,7.69,7.69,0,0,1,1.75-2.69,8,8,0,0,1,2.76-1.77,9.93,9.93,0,0,1,3.62-.63,10.78,10.78,0,0,1,1.94.17,8.94,8.94,0,0,1,1.66.46,8.18,8.18,0,0,1,1.39.69,8.57,8.57,0,0,1,1.15.89l-1,1.54a.94.94,0,0,1-.6.45,1.06,1.06,0,0,1-.81-.18c-.27-.17-.54-.32-.81-.46a6.56,6.56,0,0,0-.85-.35,6.28,6.28,0,0,0-1-.23,8.81,8.81,0,0,0-1.22-.08,5.29,5.29,0,0,0-2.11.41,4.3,4.3,0,0,0-1.61,1.14,5.14,5.14,0,0,0-1,1.77,7,7,0,0,0-.35,2.31,7.28,7.28,0,0,0,.39,2.47,5.19,5.19,0,0,0,1.1,1.84,4.76,4.76,0,0,0,1.71,1.14,6.09,6.09,0,0,0,2.22.39,5.58,5.58,0,0,0,1.48-.17,7.39,7.39,0,0,0,1.27-.45V56.25h-1.89a.73.73,0,0,1-.52-.18.58.58,0,0,1-.19-.45Z"/><path class="cls-31" d="M356.24,53.84a9.22,9.22,0,0,1-.62,3.4,7.85,7.85,0,0,1-4.44,4.5,9.75,9.75,0,0,1-7,0,8.17,8.17,0,0,1-2.7-1.79,7.86,7.86,0,0,1-1.75-2.71,9.75,9.75,0,0,1,0-6.79,7.82,7.82,0,0,1,1.75-2.7,8,8,0,0,1,2.7-1.79,9.75,9.75,0,0,1,7,0,7.71,7.71,0,0,1,2.7,1.8,7.94,7.94,0,0,1,1.74,2.7A9.15,9.15,0,0,1,356.24,53.84Zm-3.54,0a7.45,7.45,0,0,0-.34-2.35,4.91,4.91,0,0,0-1-1.78,4.4,4.4,0,0,0-1.57-1.11,5.88,5.88,0,0,0-4.21,0A4.39,4.39,0,0,0,344,49.71a5,5,0,0,0-1,1.78,7.44,7.44,0,0,0-.35,2.35,7.52,7.52,0,0,0,.35,2.37A5.08,5.08,0,0,0,344,58a4.39,4.39,0,0,0,1.59,1.11,6,6,0,0,0,4.21,0A4.4,4.4,0,0,0,351.36,58a5,5,0,0,0,1-1.77A7.53,7.53,0,0,0,352.7,53.84Z"/><path class="cls-31" d="M368.69,59.39V62.2h-9.92V45.49h3.46v13.9Z"/><path class="cls-31" d="M385.78,53.84a9,9,0,0,1-.62,3.37,7.5,7.5,0,0,1-1.74,2.64,7.88,7.88,0,0,1-2.7,1.73,9.36,9.36,0,0,1-3.5.62h-6.43V45.49h6.43a9.36,9.36,0,0,1,3.5.63,7.88,7.88,0,0,1,2.7,1.73,7.69,7.69,0,0,1,1.74,2.64A8.92,8.92,0,0,1,385.78,53.84Zm-3.55,0a7.55,7.55,0,0,0-.35-2.36,4.91,4.91,0,0,0-1-1.77,4.34,4.34,0,0,0-1.57-1.12,5.38,5.38,0,0,0-2.1-.39h-3V59.5h3a5.38,5.38,0,0,0,2.1-.39A4.22,4.22,0,0,0,380.89,58a5,5,0,0,0,1-1.77A7.59,7.59,0,0,0,382.23,53.84Z"/><path class="cls-31" d="M391.8,48.2v4.3h5.57v2.61H391.8V59.5H399v2.7H388.32V45.49H399V48.2Z"/><path class="cls-31" d="M414.86,62.2h-3.12a1.35,1.35,0,0,1-1.26-.66l-3.18-5.13a1.42,1.42,0,0,0-.44-.44,1.37,1.37,0,0,0-.69-.14H405V62.2h-3.45V45.49h5.25a10.75,10.75,0,0,1,3,.37,5.89,5.89,0,0,1,2,1A4,4,0,0,1,413,48.4a5.23,5.23,0,0,1,.36,2,5.1,5.1,0,0,1-.23,1.57,4.79,4.79,0,0,1-.69,1.35,4.91,4.91,0,0,1-1.1,1.08,5.57,5.57,0,0,1-1.5.76,3.38,3.38,0,0,1,.62.45,2.84,2.84,0,0,1,.52.61Zm-8.09-8.79a4.21,4.21,0,0,0,1.45-.22,2.74,2.74,0,0,0,1-.59,2.29,2.29,0,0,0,.58-.88,3.21,3.21,0,0,0,.18-1.1,2.24,2.24,0,0,0-.79-1.84,3.68,3.68,0,0,0-2.4-.66H405v5.29Z"/><path class="cls-31" d="M425.55,48.7a1.43,1.43,0,0,1-.33.38.73.73,0,0,1-.43.12,1.08,1.08,0,0,1-.55-.18l-.68-.38a6.94,6.94,0,0,0-.9-.39,3.59,3.59,0,0,0-1.19-.18,2.57,2.57,0,0,0-1.79.54,1.79,1.79,0,0,0-.6,1.4,1.33,1.33,0,0,0,.32.91,2.79,2.79,0,0,0,.87.63,7.1,7.1,0,0,0,1.21.47c.46.14.92.29,1.4.46a12,12,0,0,1,1.39.58,4.68,4.68,0,0,1,1.21.84,3.85,3.85,0,0,1,.87,1.24,4.32,4.32,0,0,1,.33,1.78,5.76,5.76,0,0,1-.4,2.13,5,5,0,0,1-1.15,1.74A5.18,5.18,0,0,1,423.29,62a6.79,6.79,0,0,1-2.5.43,8.38,8.38,0,0,1-1.58-.16,9.53,9.53,0,0,1-1.52-.45,8.89,8.89,0,0,1-1.38-.69,6.39,6.39,0,0,1-1.13-.9l1-1.64a1,1,0,0,1,.33-.3.88.88,0,0,1,.44-.12,1.15,1.15,0,0,1,.66.23l.79.5a5.92,5.92,0,0,0,1,.51,4,4,0,0,0,1.42.23,2.87,2.87,0,0,0,1.88-.55,2,2,0,0,0,.66-1.65,1.53,1.53,0,0,0-.33-1,2.77,2.77,0,0,0-.86-.66,5.88,5.88,0,0,0-1.21-.45l-1.39-.42a11.21,11.21,0,0,1-1.39-.56,4.13,4.13,0,0,1-1.21-.85,3.93,3.93,0,0,1-.86-1.31,5,5,0,0,1-.33-2,4.62,4.62,0,0,1,1.45-3.36,5.55,5.55,0,0,1,1.76-1.1,6.54,6.54,0,0,1,2.39-.41,8.17,8.17,0,0,1,2.79.47,6.23,6.23,0,0,1,2.17,1.29Z"/><path class="cls-31" d="M442.79,53.69h5.73v6.9A9,9,0,0,1,445.8,62a11,11,0,0,1-3.06.43,10.46,10.46,0,0,1-3.73-.64A8.5,8.5,0,0,1,436.15,60a7.82,7.82,0,0,1-1.83-2.71,8.86,8.86,0,0,1-.64-3.42,9.31,9.31,0,0,1,.61-3.44,7.71,7.71,0,0,1,1.76-2.69,8,8,0,0,1,2.76-1.77,9.89,9.89,0,0,1,3.62-.63,10.66,10.66,0,0,1,1.93.17,8.94,8.94,0,0,1,1.66.46,7.83,7.83,0,0,1,1.39.69,8.08,8.08,0,0,1,1.16.89l-1,1.54a.9.9,0,0,1-.59.45,1.05,1.05,0,0,1-.81-.18c-.28-.17-.55-.32-.81-.46a7.2,7.2,0,0,0-.85-.35,6.42,6.42,0,0,0-1-.23,8.7,8.7,0,0,0-1.22-.08,5.33,5.33,0,0,0-2.11.41,4.27,4.27,0,0,0-1.6,1.14,5.14,5.14,0,0,0-1,1.77,7,7,0,0,0-.36,2.31,7.28,7.28,0,0,0,.39,2.47,5.21,5.21,0,0,0,1.11,1.84,4.76,4.76,0,0,0,1.71,1.14,6,6,0,0,0,2.22.39,5.63,5.63,0,0,0,1.48-.17,7.7,7.7,0,0,0,1.27-.45V56.25H443.5a.71.71,0,0,1-.52-.18.58.58,0,0,1-.19-.45Z"/><path class="cls-31" d="M464.66,62.2h-3.12a1.35,1.35,0,0,1-1.26-.66l-3.18-5.13a1.51,1.51,0,0,0-.43-.44,1.44,1.44,0,0,0-.7-.14H454.8V62.2h-3.46V45.49h5.25a10.87,10.87,0,0,1,3,.37,5.93,5.93,0,0,1,2,1,4,4,0,0,1,1.17,1.54,5.23,5.23,0,0,1,.37,2,5.1,5.1,0,0,1-.24,1.57,4.79,4.79,0,0,1-.69,1.35,4.71,4.71,0,0,1-1.1,1.08,5.57,5.57,0,0,1-1.5.76,3.38,3.38,0,0,1,.62.45,2.58,2.58,0,0,1,.52.61Zm-8.09-8.79a4.21,4.21,0,0,0,1.45-.22,2.65,2.65,0,0,0,1-.59,2.29,2.29,0,0,0,.58-.88,3.21,3.21,0,0,0,.18-1.1,2.24,2.24,0,0,0-.79-1.84,3.66,3.66,0,0,0-2.4-.66H454.8v5.29Z"/><path class="cls-31" d="M469.78,48.2v4.3h5.57v2.61h-5.57V59.5h7.16v2.7H466.3V45.49h10.64V48.2Z"/><path class="cls-31" d="M483,48.2v4.3h5.57v2.61H483V59.5h7.16v2.7H479.52V45.49h10.64V48.2Z"/><path class="cls-31" d="M507.05,45.49V62.2h-1.78a1.53,1.53,0,0,1-.68-.13,1.58,1.58,0,0,1-.54-.45L495.72,51c0,.27,0,.54,0,.8s0,.5,0,.72V62.2h-3.05V45.49h1.82l.37,0a.83.83,0,0,1,.28.08.81.81,0,0,1,.24.17,1.81,1.81,0,0,1,.26.28l8.38,10.64c0-.3,0-.58-.07-.85s0-.53,0-.78V45.49Z"/><path class="cls-31" d="M408,28.63a13.38,13.38,0,0,1-.47,3.8,7.74,7.74,0,0,1-1.3,2.67,5.25,5.25,0,0,1-2,1.57,5.91,5.91,0,0,1-2.45.51,5.83,5.83,0,0,1-2.44-.51,5.22,5.22,0,0,1-2-1.57,7.9,7.9,0,0,1-1.28-2.67,13.75,13.75,0,0,1-.47-3.8,13.72,13.72,0,0,1,.47-3.79,7.94,7.94,0,0,1,1.28-2.66,5.19,5.19,0,0,1,2-1.56,5.68,5.68,0,0,1,2.44-.52,5.76,5.76,0,0,1,2.45.52,5.22,5.22,0,0,1,2,1.56,7.77,7.77,0,0,1,1.3,2.66A13.35,13.35,0,0,1,408,28.63Zm-3.28,0a13.91,13.91,0,0,0-.25-2.92,5.87,5.87,0,0,0-.65-1.82,2.28,2.28,0,0,0-.92-.93,2.33,2.33,0,0,0-1.08-.27,2.23,2.23,0,0,0-1.06.27,2.26,2.26,0,0,0-.91.93,5.89,5.89,0,0,0-.64,1.82,13.91,13.91,0,0,0-.25,2.92,14,14,0,0,0,.25,2.94,5.79,5.79,0,0,0,.64,1.82,2.21,2.21,0,0,0,.91.93,2.23,2.23,0,0,0,1.06.27,2.33,2.33,0,0,0,1.08-.27,2.22,2.22,0,0,0,.92-.93,5.78,5.78,0,0,0,.65-1.82A14,14,0,0,0,404.75,28.63Z"/><path class="cls-31" d="M421.39,28.63a13.75,13.75,0,0,1-.47,3.8,7.92,7.92,0,0,1-1.3,2.67,5.28,5.28,0,0,1-2,1.57,6.09,6.09,0,0,1-4.88,0,5.14,5.14,0,0,1-1.95-1.57,7.72,7.72,0,0,1-1.28-2.67,13.75,13.75,0,0,1-.47-3.8,13.72,13.72,0,0,1,.47-3.79,7.76,7.76,0,0,1,1.28-2.66,5.12,5.12,0,0,1,1.95-1.56,6,6,0,0,1,4.88,0,5.25,5.25,0,0,1,2,1.56,8,8,0,0,1,1.3,2.66A13.72,13.72,0,0,1,421.39,28.63Zm-3.28,0a13.91,13.91,0,0,0-.25-2.92,5.87,5.87,0,0,0-.65-1.82,2.36,2.36,0,0,0-.93-.93,2.3,2.3,0,0,0-1.07-.27,2.27,2.27,0,0,0-1.07.27,2.39,2.39,0,0,0-.91.93,6.16,6.16,0,0,0-.64,1.82,14.71,14.71,0,0,0-.24,2.92,14.79,14.79,0,0,0,.24,2.94,6.06,6.06,0,0,0,.64,1.82,2.32,2.32,0,0,0,.91.93,2.27,2.27,0,0,0,1.07.27,2.28,2.28,0,0,0,2-1.2,5.78,5.78,0,0,0,.65-1.82A14,14,0,0,0,418.11,28.63Z"/><path class="cls-31" d="M434.75,28.63a13.75,13.75,0,0,1-.47,3.8A7.92,7.92,0,0,1,433,35.1a5.28,5.28,0,0,1-2,1.57,6.12,6.12,0,0,1-4.89,0,5.12,5.12,0,0,1-1.94-1.57,7.73,7.73,0,0,1-1.29-2.67,13.77,13.77,0,0,1-.46-3.8,13.75,13.75,0,0,1,.46-3.79,7.76,7.76,0,0,1,1.29-2.66,5.09,5.09,0,0,1,1.94-1.56,6,6,0,0,1,4.89,0,5.25,5.25,0,0,1,2,1.56,8,8,0,0,1,1.3,2.66A13.72,13.72,0,0,1,434.75,28.63Zm-3.28,0a14.61,14.61,0,0,0-.25-2.92,6.14,6.14,0,0,0-.65-1.82,2.36,2.36,0,0,0-.93-.93,2.33,2.33,0,0,0-1.08-.27,2.26,2.26,0,0,0-1.06.27,2.33,2.33,0,0,0-.91.93,5.89,5.89,0,0,0-.64,1.82,14.71,14.71,0,0,0-.24,2.92,14.79,14.79,0,0,0,.24,2.94,5.79,5.79,0,0,0,.64,1.82,2.22,2.22,0,0,0,2,1.2,2.33,2.33,0,0,0,1.08-.27,2.3,2.3,0,0,0,.93-.93,6,6,0,0,0,.65-1.82A14.69,14.69,0,0,0,431.47,28.63Z"/><path class="cls-13" d="M634.06,722.49q1.16-.22,2.22-.33c.71-.07,1.4-.1,2.07-.1a14.1,14.1,0,0,1,5.18.88,10.76,10.76,0,0,1,3.77,2.43,10,10,0,0,1,2.3,3.62,12.65,12.65,0,0,1,.77,4.47,13.71,13.71,0,0,1-1,5.44,12.48,12.48,0,0,1-2.92,4.21,13.17,13.17,0,0,1-4.44,2.73,15.83,15.83,0,0,1-5.64,1,15,15,0,0,1-3.39-.37,16.46,16.46,0,0,1-3-1,16.78,16.78,0,0,1-2.6-1.46,16,16,0,0,1-2.16-1.72l2.18-3a2.14,2.14,0,0,1,1.8-.95,2.59,2.59,0,0,1,1.36.41l1.52.92a12.54,12.54,0,0,0,2,.91,8.21,8.21,0,0,0,2.75.41,7.06,7.06,0,0,0,2.91-.55,5.69,5.69,0,0,0,2-1.52,6.35,6.35,0,0,0,1.21-2.29,9.93,9.93,0,0,0,.39-2.83,5.93,5.93,0,0,0-1.65-4.49,6.74,6.74,0,0,0-4.82-1.58,14.82,14.82,0,0,0-5.21,1l-4.4-1.23,3.14-18.34H649v3a4,4,0,0,1-.22,1.34,2.64,2.64,0,0,1-.72,1.06,3.33,3.33,0,0,1-1.28.69,6.66,6.66,0,0,1-1.92.24h-9.63Z"/><path class="cls-13" d="M679.76,741.19v5.22H658.85v-5.22h7.4V720.8c0-.45,0-.9,0-1.36s.05-.94.08-1.42l-4.88,4.06a2.57,2.57,0,0,1-1,.49,2.25,2.25,0,0,1-.93,0,2.29,2.29,0,0,1-.77-.3,2.33,2.33,0,0,1-.51-.45l-2.24-3,11.46-9.71h5.83v32.08Z"/><path class="cls-13" d="M696.71,722.52l-1.13,1.36a10.42,10.42,0,0,1,2.11-.67,12.48,12.48,0,0,1,2.44-.23,12,12,0,0,1,4.06.7,10.2,10.2,0,0,1,3.52,2.08,10.31,10.31,0,0,1,2.48,3.48,12,12,0,0,1,.93,4.92,12.63,12.63,0,0,1-1,4.9,12,12,0,0,1-2.72,4,13,13,0,0,1-4.22,2.73,14.22,14.22,0,0,1-5.45,1,14.75,14.75,0,0,1-5.48-1,11.45,11.45,0,0,1-6.7-6.89,15.39,15.39,0,0,1,.17-10.83,24.08,24.08,0,0,1,3.25-5.7l8.65-11.66a4.24,4.24,0,0,1,1.52-1.16,5.23,5.23,0,0,1,2.28-.48h6.3Zm.93,18.6a6.8,6.8,0,0,0,2.57-.49,6.19,6.19,0,0,0,2-1.36,6.43,6.43,0,0,0,1.33-2,6.52,6.52,0,0,0,.49-2.56,7.5,7.5,0,0,0-.46-2.72,5.49,5.49,0,0,0-3.34-3.32,7.54,7.54,0,0,0-2.62-.43,6.28,6.28,0,0,0-2.49.47,5.53,5.53,0,0,0-1.94,1.34,6.05,6.05,0,0,0-1.26,2,7.23,7.23,0,0,0-.45,2.59,8.81,8.81,0,0,0,.38,2.66,5.65,5.65,0,0,0,1.16,2.05,5.07,5.07,0,0,0,1.91,1.3A7.14,7.14,0,0,0,697.64,741.12Z"/><path class="cls-13" d="M739.35,741.19v5.22H718.44v-5.22h7.4V720.8c0-.45,0-.9,0-1.36s0-.94.08-1.42l-4.89,4.06a2.51,2.51,0,0,1-1,.49,2.2,2.2,0,0,1-.92,0,2.29,2.29,0,0,1-.77-.3,2.19,2.19,0,0,1-.52-.45l-2.23-3,11.46-9.71h5.83v32.08Z"/><path class="cls-13" d="M771,727.76a30.08,30.08,0,0,1-1.06,8.48,17.43,17.43,0,0,1-2.9,5.94,11.65,11.65,0,0,1-4.38,3.5,13.16,13.16,0,0,1-5.46,1.14,13,13,0,0,1-5.44-1.14,11.46,11.46,0,0,1-4.34-3.5,17.4,17.4,0,0,1-2.87-5.94,35,35,0,0,1,0-16.94,17.49,17.49,0,0,1,2.87-5.94,11.34,11.34,0,0,1,4.34-3.49,13,13,0,0,1,5.44-1.15,13.16,13.16,0,0,1,5.46,1.15,11.53,11.53,0,0,1,4.38,3.49,17.52,17.52,0,0,1,2.9,5.94A29.83,29.83,0,0,1,771,727.76Zm-7.32,0a31.77,31.77,0,0,0-.56-6.53,13.37,13.37,0,0,0-1.45-4.05,5,5,0,0,0-4.47-2.67,5,5,0,0,0-2.37.59,5.15,5.15,0,0,0-2,2.08,13.41,13.41,0,0,0-1.43,4.05,39.87,39.87,0,0,0,0,13.08,13.48,13.48,0,0,0,1.43,4.06,5.21,5.21,0,0,0,2,2.08,5.13,5.13,0,0,0,2.37.59,5,5,0,0,0,4.47-2.67,13.44,13.44,0,0,0,1.45-4.06A31.85,31.85,0,0,0,763.71,727.76Z"/></g></g></svg>