<svg xmlns="http://www.w3.org/2000/svg" viewBox="0 0 414.25 473.83"><defs><style>.cls-1{fill:#fff;}.cls-2{fill:#280a22;}.cls-3{fill:#3f123b;}.cls-4{fill:#771c62;}.cls-5{fill:#8c2378;}.cls-6{fill:#1aaac1;}.cls-7{fill:#afafaf;}.cls-8{opacity:0.2;}.cls-9{fill:#2d2d2d;opacity:0.5;}.cls-10{fill:#d1d1d1;}.cls-11{fill:#b2b2b2;}.cls-12{fill:#aaa;}.cls-13{fill:#bcbcbc;}.cls-14{fill:#d3d3d3;}.cls-15{fill:none;stroke:#b2b2b2;stroke-miterlimit:10;stroke-width:0.5px;}.cls-16{fill:#969696;}.cls-17{fill:#12809e;}.cls-18{font-size:2.4px;fill:#7a7a7a;}.cls-18,.cls-20{font-family:Lato-Black, Lato;font-weight:800;}.cls-19{fill:#4f4f4f;}.cls-20{font-size:5.54px;fill:#333;}</style></defs><title>Artboard 3</title><g id="Ship"><path class="cls-1" d="M93.78,391.81c-2.35-2-4.51-3.74-6.58-5.59-13.42-12-25.67-25.08-35.45-40.32a176.79,176.79,0,0,1-24.2-58.62c-3.69-17.09-4.27-34.37-3.63-51.75a171.57,171.57,0,0,1,8-46.22A176,176,0,0,1,75.52,118c12.31-12.39,25.71-23.27,41-31.81A171.59,171.59,0,0,1,144,73.72c.93-.32,1.41-.6,1.23-1.85-2.54-18.12,1.66-34.51,13.16-48.78A60,60,0,0,1,198.21.6a62.2,62.2,0,0,1,70,50.28A61.11,61.11,0,0,1,268.44,72c-.2,1.26.2,1.63,1.24,2a172.73,172.73,0,0,1,32.75,15.65c14.38,8.76,26.95,19.7,38.51,31.86a173.89,173.89,0,0,1,44.36,83.28c3.44,15.27,4.26,30.75,4.12,46.35a176,176,0,0,1-17.69,76.41,168.41,168.41,0,0,1-32.84,46.24c-5.92,5.88-12.21,11.38-18.34,17.06l-.7.63c.58.4,1.07.78,1.6,1.09a716.42,716.42,0,0,0,64,33.93c7.06,3.31,14.26,6.32,21.3,9.65,3.23,1.53,6.37,3.32,7.28,7.32a9,9,0,0,1-3.58,9.45,10.57,10.57,0,0,1-6.21,2c-26.91-.1-53.82-.06-80.73-.11-8.29,0-16.59-.19-24.88-.28H297c.18,1.81.5,3.51.51,5.22a13.81,13.81,0,0,1-10.91,13.52,27.54,27.54,0,0,1-5.72.63q-75.28,0-150.58,0c-4.42,0-8.6-1.05-11.82-4.39a14,14,0,0,1-3.79-12.91c.1-.52.19-1.05.33-1.78h-1.73l-95.36,0c-3,0-6-.08-8.94.18-3.9.34-6-2.13-7.65-4.88-2.48-4.19-1.35-8.51,2.26-11.78a19.25,19.25,0,0,1,5.65-3.45c5.95-2.52,11.85-5.15,17.77-7.72,16.93-7.35,33.15-16.09,49.28-25,4.81-2.67,9.39-5.78,14.11-8.64C91.38,392.84,92.48,392.43,93.78,391.81Z"/><path class="cls-2" d="M345.12,189.4a149.94,149.94,0,1,0-83.57,194.88A149.92,149.92,0,0,0,345.12,189.4Z"/><path class="cls-3" d="M353.73,270.26a150,150,0,0,1-295.65,0Zm-8.6-80.86a150,150,0,0,0-289,63.78,2.78,2.78,0,0,1,.62.7,1.94,1.94,0,0,1,1.21-.41,2,2,0,0,1,2,1.91,2.41,2.41,0,0,1,2,2,2,2,0,0,1,.73-.14,1.92,1.92,0,0,1,1.24.45h1.76c.56-.5,6-5,16.85-5s16.29,4.48,16.85,5h8.28v-7.28h1.46v-.63H112v-1.06h3.58V225h1v-5.68h.75l3.34-4.88,3.33,4.88h.75V225h1v10.4h3.4v2h2.76v-2h.6v-8.51H133v-.59h10.6v.59h.52v12h.46v3.63h2V227.56h.65v-1h.89v-.92h2.08v-.53h.28v-4.82h4.18v-3.37h5.75V218h2.09v-1.06h1.65v3.37h2.12a1.94,1.94,0,0,0,0,.24,51,51,0,0,0,.8,6,7.51,7.51,0,0,0,.92,2.37,4.17,4.17,0,0,0,3.66,2,4.31,4.31,0,0,0,2.21-.57v2.16h1.24v-3.27q.1-.13.21-.3a7.65,7.65,0,0,0,.92-2.38,51,51,0,0,0,.8-6c.42-4.07,1.13-11.35,1.5-15.7.31-3.7.4-5.39.39-6.57h13.81v.9h-.45v39.27H193v-3.68H194v-5.87h2.32V225h.43l2.57-4.11c0-11,0-23.41,0-37.66a6.63,6.63,0,1,1,13.26,0c0,8.93,0,17.16,0,24.75l4.65-2.86,4.81,3h1.16v1.42h1.12v.86h.31v.48h.59v4.66h1.57v-2.8H227v-.55h1.29v.55h.24v2.8h.53v-2.8h.24v-.55h1.28v.55h.24v2.8h1.86V211h.23v-.55h.91c.34,3.63.72,7.54,1,10.13a49.77,49.77,0,0,0,.79,6,7.28,7.28,0,0,0,.93,2.37,4.36,4.36,0,0,0,7.31,0,7.18,7.18,0,0,0,.92-2.38c.09-.38.17-.8.27-1.47h1.05v2.57H251v2.3h.64v2h1.67v1h.37V219.36h7.85v3.85H265v3.28h2.65v28.16h3.44v-19h1.65v-2.84h1v-1.49h1.83v-1.72h2.09v1.72h1.83v1.49h1.05v2.84h1.64v18.06a1.63,1.63,0,0,1,.31,0h0a1.45,1.45,0,0,1,2.51-.9v-20h4v-1.12h8.22v1.12h4v24.81h14.95c.57-.5,6-5,16.85-5s16.29,4.48,16.86,5h0a1.6,1.6,0,0,1,1.37-.79h.05a1.84,1.84,0,0,1-.05-.41,2,2,0,0,1,2-2,1.93,1.93,0,0,1,1.26.46,2.5,2.5,0,0,1,1.05-1.5A149.41,149.41,0,0,0,345.13,189.4Z"/><path class="cls-4" d="M212.58,208l-.17.1h-1.16v1.42h-1.12v1.34h-.89v27.55h-1v-9.55h-2.32V225h-.43l-4.19-6.71v-9.09h-.39v9.09l-1.62,2.6c0-11,0-23.41,0-37.66a6.63,6.63,0,1,1,13.26,0C212.57,192.2,212.57,200.43,212.58,208Zm.35,77.49h-14c-.11,4.95-.24,9.14-.41,12.92h14.84C213.17,294.65,213,290.46,212.93,285.51Zm1.29,26.67c-.16-1.86-.3-3.7-.43-5.59H198.05c-.13,1.89-.27,3.73-.43,5.59q-.41,4.83-1,9.81h18.54Q214.62,317,214.22,312.18Zm1.37,13.18H196.25c-.49,4-1.06,8.08-1.75,12.26h22.84C216.65,333.44,216.08,329.36,215.59,325.36Zm16.34,67.95c-1-2.49-1.85-4.91-2.65-7.28s-1.63-5-2.37-7.41a319,319,0,0,1-9.12-38.28H194.05a317.29,317.29,0,0,1-9.13,38.28c-.73,2.42-1.5,4.87-2.35,7.38s-1.67,4.79-2.65,7.27c-4.64,11.89-11.57,25.3-24.27,42.07H256.18C243.5,418.59,236.56,405.19,231.93,393.31ZM258,437.75H153.79q-3.19,4.14-6.9,8.56h118Q261.21,441.89,258,437.75Zm11,13.37H142.79q-4.56,5.28-9.87,11h146Q273.58,456.39,269,451.12Z"/><path class="cls-4" d="M310.77,382.44q-6.67-4.9-12.35-9.81a157.56,157.56,0,1,0-185,0q-5.67,4.9-12.34,9.81a172.78,172.78,0,1,1,209.7,0Z"/><path class="cls-2" d="M352.89,274.69a150.38,150.38,0,0,1-18,46.75c-.66,1.14-1.35,2.26-2.05,3.37a149.06,149.06,0,0,1-40.23,42.58q-2.92-2.79-5.44-5.5a140.67,140.67,0,0,0,24.94-22.1H271.44c-.47-.91-.92-1.82-1.34-2.72h44.41a140.37,140.37,0,0,0,9.28-12.26H265.21c-.37-1.13-.73-2.25-1.08-3.37H326a142.47,142.47,0,0,0,8.5-15.4H259.83c-.67-2.76-1.27-5.47-1.81-8.16h80q2.55-6.35,4.46-12.92H255.89c-.44-3.37-.8-6.78-1.09-10.27Zm-195.87,0H58.91a151.59,151.59,0,0,0,18,46.75c.67,1.14,1.35,2.26,2.06,3.37a149.06,149.06,0,0,0,40.27,42.57q2.91-2.79,5.41-5.5a141.88,141.88,0,0,1-25-22.09h40.72c.47-.91.92-1.82,1.35-2.72H97.29A142.38,142.38,0,0,1,88,324.81h58.61c.38-1.13.74-2.25,1.09-3.37H85.81A140.41,140.41,0,0,1,77.32,306H152c.68-2.76,1.28-5.47,1.81-8.16h-80Q71.19,291.46,69.3,285h86.63C156.37,281.59,156.73,278.18,157,274.69Z"/><path class="cls-5" d="M213,285.51h-14c.06-3.1.12-6.49.16-10.27h13.7C212.83,279,212.89,282.41,213,285.51Zm.39,12.92H198.5c0,.09,0,.18,0,.26,0,1-.09,1.95-.14,2.89,0,.73-.07,1.46-.12,2.17,0,.91-.11,1.81-.17,2.69,0,.05,0,.1,0,.15h15.74C213.61,304,213.46,301.35,213.34,298.43ZM215.19,322H196.65c-.12,1.12-.26,2.24-.4,3.37h19.34C215.45,324.23,215.31,323.11,215.19,322Zm2.15,15.63H194.5c-.14.9-.29,1.81-.45,2.72h23.74C217.63,339.43,217.48,338.52,217.34,337.62Z"/><path class="cls-6" d="M259.1,340.34H246.82c-.3-.91-.59-1.81-.86-2.72h12C258.29,338.52,258.68,339.43,259.1,340.34Z"/><path class="cls-6" d="M253.48,325.36H242.75c-.25-1.12-.48-2.25-.69-3.37h10.38c.16.54.33,1.09.5,1.64S253.29,324.78,253.48,325.36Z"/><path class="cls-6" d="M248.32,306.59h-8.53c-.29-2.66-.53-5.36-.74-8.16h7.55C247.11,301.12,247.68,303.83,248.32,306.59Z"/><path class="cls-6" d="M244.55,285.51h-6.16c-.12-3.24-.2-6.65-.26-10.27h5.34C243.76,278.71,244.11,282.12,244.55,285.51Z"/><path class="cls-6" d="M165.87,337.62c-.27.91-.56,1.81-.86,2.72H152.73c.41-.91.81-1.82,1.18-2.72Z"/><path class="cls-6" d="M169.77,322c-.21,1.12-.44,2.25-.69,3.37H158.35l.54-1.73c.17-.55.34-1.1.5-1.64Z"/><path class="cls-6" d="M172.78,298.43c-.21,2.8-.45,5.5-.74,8.16H163.5c.65-2.76,1.22-5.47,1.73-8.16Z"/><path class="cls-6" d="M173.7,275.24c-.06,3.62-.14,7-.26,10.27h-6.16c.44-3.39.79-6.8,1.08-10.27Z"/><g id="Center_Haul" data-name="Center Haul"><path class="cls-7" d="M206,171.17c5.72,0,6.57-2.6,7.13-5.93s.85-7.41,1.17-11,.69-6.78,1.15-10.68,1-8.52,1.48-12.11.92-6.11,1.12-9.34a65.08,65.08,0,0,0-.93-14.5H194.84a65.08,65.08,0,0,0-.93,14.5c.2,3.23.63,5.76,1.12,9.34s1,8.22,1.48,12.11.82,7.06,1.15,10.68.6,7.68,1.17,11S200.24,171.17,206,171.17Z"/><path class="cls-8" d="M207.23,127.15a86.93,86.93,0,0,0,3-13.9h-8.5a86.93,86.93,0,0,0,3,13.9l.51,37.1a.76.76,0,0,0,1.52,0Z"/><path class="cls-9" d="M198.36,161.78c.13,1.21.29,2.37.47,3.46.56,3.33,1.41,5.93,7.13,5.93s6.57-2.6,7.13-5.93c.19-1.09.34-2.25.47-3.46-3.66,3.82-6.13,5.25-7.6,5.25S202,165.6,198.36,161.78Z"/></g><path class="cls-10" d="M237.37,154.33v23.12l-26.29-36.24c-.14-1.56-.19-3.49-.21-5,0-2.2,0-3.62,1.54-7.56C212.83,131.53,214,132.15,237.37,154.33Z"/><path class="cls-10" d="M174.55,154.33v23.12l26.29-36.24c.14-1.56.2-3.49.21-5,0-2.2,0-3.62-1.54-7.56C199.09,131.53,197.94,132.15,174.55,154.33Z"/><circle id="Body" class="cls-10" cx="205.96" cy="61.89" r="50.44" transform="matrix(0.39, -0.92, 0.92, 0.39, 68.42, 227.22)"/><g id="Right_Engine" data-name="Right Engine"><polygon class="cls-10" points="243.58 201.43 244.85 202.29 244.89 221.95 241.43 223.65 243.58 201.43"/><path class="cls-7" d="M240.21,118.19a3.36,3.36,0,0,0-3,1.61,11.18,11.18,0,0,0-1.22,3.67,20.47,20.47,0,0,0-.32,4.18c0,2.5,0,6.9,0,9.19a13.61,13.61,0,0,0,.1,2.71,9,9,0,0,1,.2,1,12.46,12.46,0,0,1,.05,1.39v44.09c0,8.68,0,9-.06,9.5a18.78,18.78,0,0,0-.2,2.18,58.76,58.76,0,0,0,.37,6.85c.37,4.34,1.07,11.58,1.49,15.65a49.37,49.37,0,0,0,.74,5.63,4.65,4.65,0,0,0,.56,1.49,1.3,1.3,0,0,0,1.26.67,1.33,1.33,0,0,0,1.27-.67,4.67,4.67,0,0,0,.55-1.49,49.37,49.37,0,0,0,.74-5.63c.43-4.07,1.12-11.31,1.49-15.65a62.75,62.75,0,0,0,.38-6.85,20.65,20.65,0,0,0-.21-2.18c-.05-.49-.05-.82-.05-9.5V142c0-.47,0-1,0-1.39a9,9,0,0,1,.2-1,13.61,13.61,0,0,0,.1-2.71c0-2.29,0-6.69,0-9.19a19.74,19.74,0,0,0-.32-4.18,11.18,11.18,0,0,0-1.22-3.67A3.36,3.36,0,0,0,240.21,118.19Z"/><path class="cls-8" d="M237.92,121.38c.9.26,1,.55,1,3.41s0,8.29,0,11,0,2.81.06,3a5.81,5.81,0,0,0,.33.7,3.36,3.36,0,0,0,.42.61.77.77,0,0,0,1.08,0,3.36,3.36,0,0,0,.42-.61,5.81,5.81,0,0,0,.33-.7c.07-.17.07-.23.06-3s0-8.17,0-11,.06-3.15,1-3.41V119a3.57,3.57,0,0,0-4.58,0Z"/><path class="cls-9" d="M239.15,138c0,.75.25,1.08,1,1.12s1.08-.25,1.12-1-.25-1.08-1-1.12S239.19,137.27,239.15,138Z"/><path class="cls-9" d="M240.71,118.22a4.18,4.18,0,0,0-1,0V136.9a1.17,1.17,0,0,1,1,0Z"/></g><g id="Left_Engine" data-name="Left Engine"><polygon class="cls-10" points="168.34 201.43 167.07 202.29 167.03 221.95 170.5 223.65 168.34 201.43"/><path class="cls-7" d="M171.71,118.19a3.36,3.36,0,0,1,2.95,1.61,11.18,11.18,0,0,1,1.22,3.67,20.47,20.47,0,0,1,.32,4.18c0,2.5,0,6.9,0,9.19a13.61,13.61,0,0,1-.1,2.71,9,9,0,0,0-.2,1,12.46,12.46,0,0,0,0,1.39v44.09c0,8.68,0,9,.06,9.5a18.78,18.78,0,0,1,.2,2.18,58.76,58.76,0,0,1-.37,6.85c-.37,4.34-1.07,11.58-1.49,15.65a49.37,49.37,0,0,1-.74,5.63,4.65,4.65,0,0,1-.56,1.49,1.3,1.3,0,0,1-1.26.67,1.33,1.33,0,0,1-1.27-.67,4.67,4.67,0,0,1-.55-1.49,49.37,49.37,0,0,1-.74-5.63c-.43-4.07-1.12-11.31-1.49-15.65a58.76,58.76,0,0,1-.37-6.85,18.78,18.78,0,0,1,.2-2.18c0-.49,0-.82,0-9.5V142c0-.47,0-1,0-1.39a9,9,0,0,0-.2-1,13.61,13.61,0,0,1-.1-2.71c0-2.29,0-6.69,0-9.19a19.74,19.74,0,0,1,.32-4.18,11.18,11.18,0,0,1,1.22-3.67A3.36,3.36,0,0,1,171.71,118.19Z"/><path class="cls-8" d="M174,121.38c-.9.26-.94.55-1,3.41s0,8.29,0,11,0,2.81-.06,3a5.81,5.81,0,0,1-.33.7,3.36,3.36,0,0,1-.42.61.77.77,0,0,1-1.08,0,3.36,3.36,0,0,1-.42-.61,5.81,5.81,0,0,1-.33-.7c-.07-.17-.07-.23-.06-3s0-8.17,0-11-.06-3.15-1-3.41V119a3.57,3.57,0,0,1,4.58,0Z"/><path class="cls-9" d="M172.77,138.07c0,.75-.29,1.07-1.05,1.08s-1.07-.3-1.08-1.05.3-1.07,1.06-1.08S172.76,137.32,172.77,138.07Z"/><path class="cls-9" d="M171.21,118.22a4.18,4.18,0,0,1,1,0V136.9a1.17,1.17,0,0,0-1,0Z"/></g><path class="cls-11" d="M212.07,71.93c2.34-4.63,5.46-11.06,1.49-16.35a9.58,9.58,0,0,0-15.11-.27c-4.23,5.23-1.19,11.61,1.13,16.32,1.68,3.39,1.73,4.86,6.15,4.86C210.43,76.49,210.15,75.72,212.07,71.93Z"/><path class="cls-12" d="M209.49,73.06c2.35-3.66,4.44-7,4.45-11.71a8,8,0,1,0-16.09,0c0,4.7,2.11,8.05,4.46,11.71a1.92,1.92,0,0,0,1.84,1h3.49A1.94,1.94,0,0,0,209.49,73.06Z"/><path class="cls-13" d="M209.33,68.15h-6.87c-3.73-4.46-3.24-12.41,3.44-12.41S213.06,63.69,209.33,68.15Z"/><circle class="cls-14" cx="205.9" cy="61.33" r="2.3"/><circle class="cls-15" cx="205.96" cy="61.33" r="49.15"/><circle class="cls-15" cx="205.96" cy="61.33" r="43.67" transform="translate(-8.58 48.96) rotate(-13.28)"/><circle class="cls-15" cx="205.96" cy="61.33" r="38.18"/><circle class="cls-15" cx="205.96" cy="61.33" r="32.7"/><circle class="cls-15" cx="205.96" cy="61.33" r="27.22"/><circle class="cls-15" cx="205.96" cy="61.33" r="21.73"/><line class="cls-15" x1="214.29" y1="41.22" x2="225.05" y2="15.25"/><line class="cls-15" x1="217.45" y1="49.84" x2="241.23" y2="26.06"/><line class="cls-15" x1="220.97" y1="55.11" x2="252.05" y2="42.24"/><line class="cls-15" x1="190.95" y1="55.11" x2="159.87" y2="42.24"/><line class="cls-15" x1="194.47" y1="49.84" x2="170.69" y2="26.06"/><line class="cls-15" x1="197.64" y1="41.25" x2="186.87" y2="15.25"/><line class="cls-15" x1="205.96" y1="39.6" x2="205.96" y2="11.45"/><circle class="cls-15" cx="205.96" cy="61.33" r="16.25"/><line class="cls-15" x1="222.21" y1="61.33" x2="255.84" y2="61.33"/><line class="cls-15" x1="220.97" y1="67.55" x2="252.05" y2="80.42"/><line class="cls-15" x1="190.95" y1="67.55" x2="159.87" y2="80.42"/><line class="cls-15" x1="189.71" y1="61.33" x2="156.08" y2="61.33"/><line class="cls-15" x1="217.45" y1="72.82" x2="241.23" y2="96.6"/><line class="cls-15" x1="212.18" y1="76.34" x2="225.05" y2="107.42"/><line class="cls-15" x1="199.74" y1="76.34" x2="186.87" y2="107.42"/><line class="cls-15" x1="194.47" y1="72.82" x2="170.69" y2="96.6"/><line class="cls-15" x1="205.96" y1="77.58" x2="205.96" y2="111.21"/><path class="cls-16" d="M199.31,102q-.45,5.33-.88,10.63l-.06.74,6.31,1.71,1.28.35,1.28-.35,6.31-1.71-.06-.74q-.44-5.31-.88-10.63c-.26-3.1-1.46-4.68-4.39-5.73v-3.5c0-1.6-.66-2.26-2.26-2.26s-2.26.66-2.26,2.26v3.5C200.77,97.28,199.57,98.86,199.31,102Z"/><path class="cls-11" d="M207.24,107.94v7.58h-2.56v-7.58c-6.44-1.51-5.34-11,1.28-11S213.68,106.43,207.24,107.94Z"/><path class="cls-10" d="M202.14,102.51A3.82,3.82,0,1,0,206,98.69,3.82,3.82,0,0,0,202.14,102.51Z"/><path class="cls-4" d="M203.67,102.51c0,1.62.67,2.29,2.29,2.29s2.29-.67,2.29-2.29-.67-2.28-2.29-2.28S203.67,100.9,203.67,102.51Z"/><path class="cls-17" d="M246.6,298.43h-7.55c-.29-4.06-.51-8.32-.66-12.92h6.16C245.09,289.81,245.77,294.09,246.6,298.43Zm1.72,8.16h-8.53c.16,1.61.35,3.2.56,4.78.47,3.56,1,7.08,1.71,10.62h10.38C250.83,316.64,249.47,311.55,248.32,306.59Zm5.16,18.77H242.75c.87,4,1.92,8.08,3.21,12.26h12C256.13,333.39,254.72,329.3,253.48,325.36Zm29.81,48.73q-2.91-2.85-5.44-5.64a105.94,105.94,0,0,1-18.75-28.11H246.82A208.87,208.87,0,0,0,260,371.17q1.26,2.44,2.62,5,1.77,3.28,3.74,6.68c2.69,4.65,5.65,9.41,8.92,14.17h36.49A202.85,202.85,0,0,1,283.29,374.09Zm32.1,25.32H277c2,2.87,4.18,5.74,6.46,8.56h45.75C324.25,405.07,319.67,402.22,315.39,399.41Zm22.19,13.37H287.44a145.38,145.38,0,0,0,10.58,11h60.5C351,420,344,416.36,337.58,412.78Zm41.28,20.59H309.62a113.18,113.18,0,0,0,15.9,9.75h75.83Q389.46,438.17,378.86,433.37ZM10.47,443.12H86.29a113.18,113.18,0,0,0,15.9-9.75H33Q22.36,438.17,10.47,443.12Zm113.89-30.34a145.23,145.23,0,0,1-10.57,11H53.3c7.53-3.73,14.49-7.39,20.94-11Zm10.48-13.37c-2,2.87-4.19,5.74-6.47,8.56H82.63q7.4-4.35,13.8-8.56Zm17.89-59.07H165a208.87,208.87,0,0,1-13.2,30.83c-.84,1.62-1.7,3.27-2.61,4.94q-1.77,3.28-3.72,6.68c-2.7,4.66-5.67,9.44-8.95,14.21H100.05a202.39,202.39,0,0,0,28.55-23c1.94-1.9,3.74-3.78,5.42-5.63A105.6,105.6,0,0,0,152.73,340.34Zm16.35-15c-.87,4-1.92,8.08-3.21,12.26h-12c1.79-4.23,3.2-8.32,4.44-12.26Zm3-18.77c-.16,1.61-.35,3.2-.56,4.78-.47,3.56-1,7.08-1.71,10.62H159.39c1.61-5.35,3-10.44,4.11-15.4Zm1.4-21.08c-.15,4.6-.37,8.86-.66,12.92h-7.55c.83-4.34,1.51-8.62,2.05-12.92Zm70-10.27h-5.34c-.18-10.45-.18-22.69-.18-37.86,0-1.53.63-2.17,2.17-2.17s2.16.64,2.16,2.17C242.28,251.62,242.52,263.74,243.47,275.24Zm-69.59-37.86c0,15.17,0,27.41-.18,37.86h-5.34c.95-11.5,1.19-23.62,1.19-37.86,0-1.53.63-2.17,2.17-2.17S173.88,235.85,173.88,237.38Z"/><text class="cls-18" transform="matrix(-0.76, -0.65, 0.65, -0.76, 218.64, 46.36)">U</text><text class="cls-18" transform="matrix(-0.82, -0.57, 0.57, -0.82, 217.02, 44.99)">P</text><text class="cls-18" transform="matrix(-0.89, -0.46, 0.46, -0.89, 215.48, 43.92)">M</text><text class="cls-18" transform="translate(213.13 42.74) rotate(-159.45)">C</text><text class="cls-18" transform="translate(211.38 42.11) rotate(-163.7)"> </text><text class="cls-18" transform="translate(210.58 41.87) rotate(-167.63)">E</text><text class="cls-18" transform="translate(208.94 41.51) rotate(-173.66)">N</text><text class="cls-18" transform="translate(206.75 41.31) rotate(-179.07)">T</text><text class="cls-18" transform="translate(205 41.31) rotate(174.93)">E</text><text class="cls-18" transform="translate(203.32 41.47) rotate(169.33)">R</text><text class="cls-18" transform="matrix(-0.96, 0.29, -0.29, -0.96, 201.46, 41.84)">P</text><text class="cls-18" transform="translate(199.71 42.37) rotate(157.6)">R</text><text class="cls-18" transform="translate(197.99 43.11) rotate(153.05)">I</text><text class="cls-18" transform="matrix(-0.86, 0.52, -0.52, -0.86, 197.09, 43.57)">S</text><text class="cls-18" transform="matrix(-0.81, 0.59, -0.59, -0.81, 195.7, 44.42)">E</text><text class="cls-18" transform="matrix(-0.75, 0.66, -0.66, -0.75, 194.36, 45.42)">S</text><path class="cls-19" d="M211.55,111.18l-.3,0,.1,1.19c0,.34.21.57.49.54a.41.41,0,0,0,.4-.34l.6.32,0-.41-.59-.26v-.12l.56,0-.08-1-.3,0,.05.63-.26,0,0-.55-.22,0,0,.54-.35,0Zm.43,1,0,.22a.18.18,0,0,1-.17.2.18.18,0,0,1-.18-.17l0-.22Z"/><polygon class="cls-19" points="212.48 108.75 212.52 109.17 211.78 109.76 212.56 109.69 212.59 110.06 212.03 110.11 212.07 110.57 212.63 110.52 212.66 110.89 211.23 111.01 211.2 110.64 211.85 110.59 211.81 110.13 211.16 110.19 211.13 109.82 212.48 108.75"/><polygon class="cls-19" points="211.05 108.87 212.14 108.77 211.62 109.19 211.08 109.23 211.05 108.87"/><text class="cls-20" transform="translate(229.32 34.83) rotate(-141.58)">B</text><text class="cls-20" transform="matrix(-0.85, -0.52, 0.52, -0.85, 225.95, 32.2)">K</text><text class="cls-20" transform="translate(222.09 29.92) rotate(-155.28)">S</text><text class="cls-20" transform="translate(218.78 28.39) rotate(-162.41)">Q</text><text class="cls-20" transform="translate(213.96 26.97) rotate(-167.99)"> </text><text class="cls-20" transform="translate(212.27 26.58) rotate(-172.39)">6</text><text class="cls-20" transform="translate(208.56 26.12) rotate(-178.41)">4</text><text class="cls-20" transform="translate(204.85 26.04) rotate(175.65)">2</text><text class="cls-20" transform="matrix(-0.98, 0.18, -0.18, -0.98, 201.13, 26.35)">5</text><text class="cls-20" transform="translate(197.53 27.07) rotate(165.17)"> </text><text class="cls-20" transform="matrix(-0.95, 0.31, -0.31, -0.95, 195.91, 27.5)">-</text><text class="cls-20" transform="translate(193.55 28.3) rotate(158.35)"> </text><text class="cls-20" transform="translate(191.94 28.91) rotate(153.97)">2</text><text class="cls-20" transform="translate(188.58 30.59) rotate(147.85)">0</text><text class="cls-20" transform="matrix(-0.79, 0.62, -0.62, -0.79, 185.45, 32.59)">0</text></g></svg>