<?xml version="1.0" encoding="UTF-8"?>
<svg version="1.1" viewBox="0 0 2582 1618" xmlns="http://www.w3.org/2000/svg">
<g fill="none" fill-rule="evenodd" opacity=".1">
<path d="m2152 1601.6l3.6753 1.4125 4.8062 0.84753 1.1309 3.1076-9.895 3.3901-11.874 4.2376-6.5024 3.3901-2.5444-3.1076 6.7852-1.695 3.6753-0.56502 4.2407-6.4977 6.5024-4.5201zm63.894-59.609l-0.56543 9.6053-2.8272 4.8026-7.0679 18.646-10.46 11.018-14.984 11.865-7.6333 5.9327-3.3926-3.1076 6.7852-4.2376 9.6123-5.3677 12.439-11.865 9.0469-14.973 4.2407-12.995 2.8272-7.9102 1.979-1.4126zm-1247.9-617.63l153.64 6.7798-4.8014 65.821-2.8244 50.849 0.56487 5.6499 12.427 11.582 5.6487 3.1074h5.0838l1.4122-3.3899 1.977 2.5424 6.7784 0.56499 3.1068-1.695v-0.56499l2.8244 1.4125-1.1297 10.452 12.71 1.9774 6.7784 2.5424 11.862 1.9774 7.3433 5.0849 7.9082-5.3674 7.6258 1.695 6.2136 8.7573 2.2595 0.28249v5.9324l9.3204 3.1074 7.0609-5.9324 4.2365 1.4125 5.9311 0.28249 1.6946 5.9324 14.687 5.6499 6.496-1.4125 5.3663-11.3h0.28243l3.1068 5.3674 12.992 2.5424 9.6028 3.6724 9.0379 2.8249 6.7784-3.3899 1.977-6.4974h10.168l5.9311 2.8249 8.473-5.6499h1.1297l1.4122 3.9549h13.274l5.3663-5.0849 3.6716 1.13 4.8014 5.9324 9.3204 5.3674 9.6028 2.8249 7.0609 3.9549 7.6257 5.6499 8.7555-3.3899 5.9311 2.26 1.977 56.499 1.977 26.837 1.6946 11.582 7.3433 12.43 2.5419 12.712 11.862 16.667 0.84731 8.7573 1.6946 2.26-1.977 21.752-8.1906 13.56 3.6716 7.3448-1.4122 6.7798-2.2595 20.34-3.6716 8.4748 0.8473 11.865-15.816 4.5199-27.961 12.712-2.8244 5.3674-7.3433 5.3674-5.9311 4.2374-3.6716 2.26-16.099 14.972-7.6258 5.9324-14.969 9.0398-16.099 6.7798-17.793 9.6048-5.0838 4.2374-16.381 10.17-9.6028 1.695-11.015 15.537-11.297 0.84748-2.8244 5.3674 6.496 5.3674-4.2365 15.537-3.6716 12.712-3.1068 11.017-2.2595 12.712 2.2595 6.7798 5.0838 19.775 2.8244 17.232 5.0838 7.6273-2.8244 4.2374-8.7555 5.3674-16.099-11.017-15.534-3.1074-3.6717 1.4125-9.0379-1.695-11.862-8.7573-14.687-3.1074-21.465-9.6048-5.9311-11.017-3.6716-18.362-9.0379-5.3674-1.6946-6.4974 1.6946-1.695 0.8473-9.6048-3.6716-1.695-1.6946-2.8249 3.6716-12.43-4.519-6.4974-9.0379-3.6724-9.6028-12.43-10.168-18.645-11.862-7.3448 0.56487-5.3674-14.969-34.747-2.2595-11.865-5.0838-5.3674-0.56487-4.2374-16.946-14.972-7.3433-8.7573v-3.1074l-7.3433-5.9324-19.206-3.1074-20.9-1.695-8.7555-6.4974-12.71 5.0849-10.168 4.2374-6.496 9.0398-2.8243 10.452-12.427 17.232-6.7784 6.7798-7.3433-2.8249-5.0838-3.1074-5.3663-1.695-11.015-6.4974v-1.695l-5.0838-5.3674-14.687-5.9324-20.9-22.035-6.496-13.277v-22.882l-9.0379-18.362-1.4122-7.6273-4.519-2.8249-3.1068-5.9324-14.122-5.9324-3.6717-4.5199-20.053-22.317-3.6717-9.0398-13.274-6.4974-4.2365-12.43-7.3433-8.1923-4.8014-1.4125-1.6946-15.255 104.5 10.17 82.753 5.3674 20.9-276zm305.88 532.5l1.6946 0.56498-13.557 18.645-12.427 18.362-5.6487 18.645-0.84731 14.69 2.5419 17.232 7.3433 20.34 1.4122 14.69 0.56487 4.2374-2.5419 0.84748-1.6946-20.057-7.6258-20.34-1.6946-19.775 4.2365-23.164 9.3204-19.492 9.8852-15.255 9.0379-10.17zm792.22-218.85l14.701 1.9776 14.701 0.84753 6.5024 20.623 10.46 27.403 14.984 26.556 10.46 17.798 13.57 15.538 11.309 10.453 4.5234 8.1928-3.1099 3.6726-1.979 3.9551 8.1987 20.906 8.1987 8.1928 7.3506 14.973 10.178 16.386 12.722 23.166 3.6753 21.471 1.4136 33.901 1.6963 5.0852-0.84815 9.6053-6.7852 3.6726 0.84815 5.3677-1.6963 5.3677 0.84814 6.7802 1.4136 5.3677-7.6333 9.0403-8.7642 4.2376-11.026 0.56502-4.2407 4.5201-6.7852 2.8251-3.6753-1.4125-3.1099-2.8251-0.84815-8.1928-2.2617-9.6053-9.6123-14.69-10.178-6.4977-11.026-0.84753-2.2617 3.6726-8.7642-12.43-1.6963-10.17-7.3506-11.3-5.0889-3.1076-4.5234 5.9327-5.0889-0.84753-5.937-14.125-8.1987-11.018-8.1987-14.973-7.3506-8.7578-10.178-10.453 5.937-6.7802 9.0469-15.538-0.56543-4.5201-12.722-2.8251-4.5234 1.695 0.84815 1.695 7.3506 2.8251-4.2407 12.713-2.2617 1.4125-5.0889-11.3-3.6753-13.56-0.84815-7.6277 4.2407-13.278v-26.838l-8.4814-10.453-3.6753-8.7578-14.701-3.6726-5.3716-1.6951-4.5234-7.3452-9.6123-4.5202-3.1099-9.6053-7.6333-2.8251-6.7852-10.453-11.874-4.2376-8.1987-4.2376h-7.3506l-11.309 2.2601-0.56543 5.3677 2.2617 2.8251-1.4136 3.1076-8.7642-0.56502-10.46 10.17-10.178 5.3677h-11.026l-9.0469 3.6726-0.84814-7.6277-4.5234-5.3677-8.1987-3.1076-4.5234-4.2376-22.9-11.018-21.486-5.0852-12.439 1.695-16.963 1.4126-16.963 5.9327-9.3296 1.6951-0.84815-23.731-8.1987-5.6502-4.5234-4.5201 0.84815-7.9102 100.08-11.865 18.659-1.4126h16.68l7.0679 11.865 4.8062 4.8026 23.183 0.84752 91.6-5.3677 14.984-1.9776h11.591l0.56543 7.9102 11.591 2.8251 1.1309-14.69-4.2407-12.43 1.979-2.2601zm-499.86-89.812l-0.28302 1.9746 1.1321 14.386 5.6604 12.694-0.28302 5.3596 6.2265 5.6416-1.1321 5.6416-3.9623 1.1283 2.5472 7.3341-24.34 41.748-2.2642 23.977 2.2642 6.77 93.681-3.9492 3.6793-0.56416 0.56605 1.4104-2.8302 20.592 9.6228 9.5908 6.2265 18.335-5.3774 4.7954-5.0944 5.3596 2.8302 5.0775 8.7737 1.6925 1.6981-7.3341 5.3774-5.9237 4.2453-0.56417 0.84907 7.6162 3.6793 5.3596-5.0944 8.7446h-9.0567v1.4104l5.0944 2.8208-0.56604 1.6925-6.5095-0.84625-3.1132 7.6162 9.0567 6.4879 16.415 2.2567 9.6228 7.6162h3.6793v4.2312l-6.5095 8.7446-3.1132-2.8208h-8.2077l-2.8302-4.2312-11.321-5.3596-11.887-1.6925-1.6981-8.7446-1.6981-2.2567-3.1132 3.6671-5.9435 1.4104 0.56605 4.2312-2.2642 4.5133 5.9435 0.84624-2.2642 1.4104-6.5095 9.5908-9.6228 3.6671-1.6981-1.6925 6.5095-2.2567-2.2642-8.1804-3.6793-2.8208-5.0944 4.2312-7.3586 1.6925-2.8302 6.77-10.189 3.6671-23.774-10.155-4.5284-4.5133 3.6793-2.2566 2.2642-4.5133-5.0944-5.0775-12.736-0.84625-0.84907-6.4879-4.2453-6.77-9.0567-1.6925-5.0944 2.8208-5.0944-4.2312-8.7737 2.8208-2.2642 4.2312 7.6416 4.5133 7.3586-1.4104 9.0567 3.1029-2.2642 5.9237-9.0567-2.8208-9.0567-3.1029-10.472 4.2312-18.396-3.1029-29.151-10.155-22.925 0.84625-13.302 4.2312-0.56605-10.437 3.6793-8.4625 2.2642-20.592 1.4151-7.3341-3.3963-6.77 7.9246-12.976 1.9812-23.413-1.6981-2.2567-0.84906-8.7446-12.17-16.925-2.5472-12.412-7.3586-12.694-1.4151-10.437-1.9812-26.798-1.1321-27.362 71.322-0.28208 74.718-2.2567zm150.73-135.41l-0.56699 17.811 0.56699 47.213-2.835 127.5 7.9379 53.715 4.8194 41.841-1.134 4.5234h-14.742l-4.2525-2.2617-5.9534-0.84814-19.278 5.3715-5.103-2.2617-7.3709 11.874-3.1185 2.2617-6.237-18.094-9.3554-9.3295 2.835-20.073-1.701-3.958-5.3864 0.84814-23.247 1.979-68.606 1.979-1.4175-4.2407 2.268-23.182 24.381-42.407-1.701-5.3715 2.5515-0.84814 1.9845-8.7641-6.5204-5.6542 0.2835-4.8061-5.67-12.722-1.134-14.136 0.56699-2.5444 3.402-7.0678-0.85049-11.874-4.2525-7.916 4.2525-3.958-4.536-7.0678 1.701-5.3715 2.835-16.115 8.5049-7.0678-2.268-6.5024 9.9224-14.418 8.2214-3.1098-0.2835-6.7851-1.4175-4.5234 7.3709-14.418 7.9379-3.6753 0.567-9.0468 36.855-1.1308 55.566-4.5234 13.608-0.84814zm127.94-11.054l-0.28306 6.2254 2.2645 15.846 9.907 22.355 10.756 45.276 5.095 14.149 3.9628 18.959 5.6611 18.393 7.6425 9.6211 1.4153 10.187 5.095 1.9808 0.56611 4.8105-4.812 13.583-2.2645 14.432 4.5289 12.734 1.1322 14.715-2.8306 7.3573 2.5475 3.1127 4.2458 2.2638 1.4153 6.2254-15.851-0.28297-18.965 1.6978-72.746 8.2062-29.721 4.2446-1.1322 11.319 5.6611 5.6595 7.0764 5.0935 0.84917 21.506-14.719 7.0743-7.6425-0.84892 7.6425-5.3765v-2.8297l-8.7748-16.978-6.5103-1.6978-4.2459 12.451-3.6797 7.6403-1.6983-0.56595h-8.2087l-4.5289-41.597-7.9256-53.199 0.84917-39.899 1.9814-87.722-0.56611-47.257 0.56611-18.11 34.533-2.2638 66.235-6.2254 25.475-2.2638zm120.54-13.817l1.4126 3.9518-6.2152 2.5405-2.5426 6.21 1.13 5.6455 3.9551 4.5164 12.148 7.6214 9.0403-0.28228 9.0403 13.267 1.695 4.5164 6.4977 7.9036 1.4126 4.7986 13.278 5.0809 8.4753 6.21 6.4977 8.4682 6.4977 3.6695 5.6502 5.0809 3.9551 7.6214 5.9327 5.3632 11.583 5.0809 7.6278 16.936 4.8027 14.396 7.9103 1.9759 5.9327 5.3632 5.6502 16.09 8.1928 4.5164 4.8027-2.2582 1.13 3.3873-9.3228 17.501 1.4125 7.3391-4.2376 11.855-6.4977 28.227 2.2601 17.783-14.408-0.84681-15.821-1.9759-3.9551 4.5164 4.5202 13.267-0.84753 11.009-6.2152-1.6936-0.56502-8.4682h-14.691l-14.973 1.9759-91.251 5.3632-21.753-0.84682-3.9551-3.3873-7.0627-12.138-2.2601-9.315-4.5202-2.5405-1.4126-1.4114 2.5426-6.21-1.13-15.525-4.5202-12.702 2.2601-13.831 4.8027-13.549-0.56502-7.0568-5.3677-1.9759-1.13-9.0327-7.9103-9.8796-5.3677-17.501-4.2376-19.759-4.8027-13.549-10.735-45.164-9.8878-22.582-2.2601-14.96 0.28251-6.4923 9.3228-0.84682 38.421-4.5164 52.547-5.6455 17.798-3.105zm-1287.7-128.5l96.041 11.009 105.64 12.42 90.391 7.9037-0.84742 30.486-3.9546-0.28228-20.903 275.78-80.222-5.081-107.62-10.444 1.9773 17.783-34.462-4.2341-47.173-7.3392-3.3897 27.098-44.631-5.6455 16.948-112.06 19.773-150.17 12.429-87.223zm-243.65-41.452l171.83 31.101 69.638 10.179-12.456 87.649-19.816 150.13-16.985 111.96-71.903-7.634-34.819-6.7857-47.558-28.274-41.613-24.316-34.253-21.488-53.503-30.253-1.4154-2.8274 0.84925-4.2411 7.3601-6.2203 10.474-1.131 4.8124-6.7857 2.5477-8.4822-11.04-1.131-1.4154-2.2619 1.6985-4.5238 0.28308-16.399 5.3786-2.5446 8.4925-8.1994 1.4154-13.854 4.5293-10.179 4.5293-5.0893 9.6248-4.5238 4.8124-3.3929 1.1323-6.7857-3.1139-2.5447-1.9816-3.1101-3.1139-15.551-7.9263-14.137 1.1323-9.3304 4.2462-6.7857 1.4154-35.342 0.84925-4.2411 0.84925-19.226 5.9447-4.8066 3.1139-0.28274 3.397 3.1101 7.3601 1.131 3.397 7.3512 7.9263 0.56548 5.9447-10.744 7.3601-46.652 0.56616-3.1101zm1644.9 145.08l6.4845 5.3609 5.0748 9.8754 12.969-2.2572 35.524-4.2323 7.6123 2.2572 35.242 20.879 28.476 23.419-14.943 15.236-7.3303 17.211-1.4097 17.776-4.511 2.2572-3.1013 7.6182-6.7665 1.6929-5.9207 10.158-7.6123 7.6182-6.4845 9.5932-4.511 2.2572-10.15 9.5932-8.1762 0.56431 2.8194 9.0289-14.097 14.954-6.4845 4.5145-6.2026 2.5394-5.9207-2.8215-5.3568-15.801-7.0484-6.4895-7.0484-1.4108-4.229-12.979-8.4581-18.34-11.841-5.0788-5.3568-5.0788-3.3832-7.336-6.7665-5.6431-6.4845-3.668-6.2026-8.1825-9.022-6.7717-12.405-4.7966-1.1277-3.9502-6.4845-7.9003-1.4097-4.2323-10.714-15.236-9.5858 0.28215-10.996-7.0538-3.3832-3.3858-0.56387-3.9502 1.6916-4.5145 7.6123-3.668-2.2555-5.6431 18.044-7.6182 25.938-12.697 20.017-2.5394 46.238-1.4108zm-469.46-35.925l5.0831 8.1776-1.6944 6.4856-8.7542 7.3316-2.5416 8.7415 18.073 1.9739 10.449-2.8198-2.5416 8.7415-3.3887 11.843-0.84719 5.9217-11.861 6.7676 3.9535 11.279-2.5416 11.561-5.9303 3.9478-0.56479 9.3055-7.0599 3.1018-8.1894 16.355 1.412 4.7937 0.28239 4.7937-7.0599 3.1018-11.296 15.791 2.2592 6.2037-7.6247 6.4856-3.1063 16.637-1.9768 6.7676 3.9535 6.2037-4.2359 3.9478 4.8007 8.7415 0.84719 10.715-2.5416 5.3577-75.682 2.2559-71.163 0.56397-1.1296-28.48-8.1894-3.3838-8.4718 3.3838-5.9303-4.5118-0.84718-107.72-3.9535-30.736-0.28239-23.969-4.2359-19.457 66.645-0.84595 65.798-1.9739 90.084-3.3838zm-635.84-35.925l117.12 5.0751 126.15 5.9209 130.67 1.4097 35.56-0.84585-0.28222 12.124 1.6933 19.173 4.2333 18.609 0.28222 24.248 3.9511 30.732 0.84666 106.01-5.3622-3.3834-9.5955-2.5375-8.4666-4.7931-4.7977-6.2029-6.491-1.6917-5.6444 5.0751h-10.16l-1.6933-3.9473h-3.9511l-7.6199 5.357-5.3622-2.5375h-12.7l-1.9755 7.6126-4.5155 1.9736-8.4666-2.2556-9.5955-3.6653-11.853-2.2556-3.1044-5.9209h-3.6688l-5.3622 11.842-4.7977 0.84585-12.418-5.0751-1.9755-6.4848-7.6199-0.28195-5.08-1.6917-7.0555 5.9209-5.9266-1.9736v-6.4848l-3.3866-0.28195-6.2088-8.7404-9.8777-1.9736-7.0555 4.7931-6.491-4.5112-11.853-1.6917-7.0555-2.8195-10.724-1.4098 1.1289-9.8682-7.9022-3.9473-0.56443 3.1014-0.84666 0.5639-4.5155-0.28195-4.2333-5.357-2.54 5.9209h-2.54l-4.7977-2.5375-11.289-10.15-0.56443-4.5112 2.54-50.751 5.08-68.514-152.4-6.7668 1.1289-30.169zm-932.46-490.51l109.36 33.319 72.357 18.636-22.612 88.379-24.505 93.462 35.698 54.214 119.16 175.91 48.332 73.697-1.1306 8.7532 7.914 14.683 3.1091 15.248 2.8264 4.2354 1.9785 1.6942-0.56529 3.9531-3.957 2.8236-9.6099 4.5178-5.3702 5.9296-4.805 11.012-1.4132 13.271-7.3488 7.0591-6.5008 3.106-0.28264 17.506-1.6959 5.3649 2.8264 4.8002 8.4793 0.84709-1.1306 4.5178-3.957 5.6472-11.023 1.6942-40.136-2.5413-55.681-7.6238-28.264-4.2354-1.4132-5.0825v-26.542l-0.84793-9.0356-7.3488-11.859-2.2612-6.4943-11.023-11.859-8.1967-13.271-7.6314-0.56472-9.0446-2.2589-0.84793-2.8236 4.2397-1.6942-1.6959-9.0356-4.2397-5.9296-13.567-2.2589-11.023-5.9296-3.1091-6.4943-7.3488-13.553-8.1967-8.7532h-8.1967l-11.023-5.9296-12.719-5.0825-11.871-1.4118-6.7835-7.6238 1.4132-5.3649 5.0876-20.048 2.2612-5.3649v-6.7767l-4.5223-2.8236-1.4132-8.1885-4.2397-7.3414-9.6099-16.377-3.6744-8.7532-4.2397-13.271-4.5223-14.965-9.0446-12.424-1.4132-8.1885 2.2612-11.012h3.1091l5.9355-4.5178 3.1091-10.165-2.8264-7.6238-7.6314-1.4118-5.3702-7.3414-5.9355-10.447-0.56529-23.154 1.6959-5.3649 1.6959-6.4943 1.4132-6.7767-16.111-17.789v-5.9296l0.84793-1.4118 0.84793-9.0356-3.6744-11.295-6.5008-13.553-7.6314-12.706-5.0876-11.012 2.8264-10.447 1.6959-16.377 5.0876-8.7532 0.84793-18.354-3.1091-10.165-4.5223-11.859-7.6314-11.859 2.2612-9.0356 4.2397-11.859 5.0876-2.2589 0.84793-3.106 8.762-7.3414 14.698-33.319 0.56529-20.895 4.7767-13.836zm117.04 614.14l5.0876 9.0356 3.3917 5.3649-4.2397 0.56473-3.6744-3.3884s-1.9785-4.2354-1.9785-5.3649v-6.212h1.4132zm1861.9-140.21l3.6684 0.8505-0.28219 9.3555-1.1288 4.536-6.7725 6.237-4.515 10.206-5.6438-1.134-6.7725 2.5515-6.2081 9.3555-3.9506-0.567-2.2575-3.402-3.1041 1.134-12.134 11.34-2.2575 8.7885-11.852 6.237-12.134 10.206-10.723 4.2525-12.416 7.938-1.6931 10.206-7.0547 1.4175-5.6438 4.8195-0.56438 13.608-51.076 5.9535-36.967 3.402-65.75 6.237-106.1 7.6545-33.298 1.134 2.5397-1.701 2.5397-12.758-3.3863-10.206 11.005-6.5205 1.1288-7.0875 3.3863-12.191 8.4656-26.933 1.4109-15.876 0.84656-0.567 34.709-0.567 38.378-2.268 0.28219-11.057 9.8766-0.2835 85.785-9.3555 152.38-14.742 29.065-4.2525 21.446-0.567 6.7725-5.3865zm290.82-49.742l5.6438 13.539 10.159 18.334 6.7726 6.7696 1.6932 6.4876-6.7726 0.56414 2.2575 1.6924-0.84658 11.847-7.337 3.6669-1.6932 5.9234-3.6685 8.18-10.441 4.5131-6.7726-0.8462-4.2329-0.56414-4.5151-3.6669 0.84657 3.6669v2.8207h5.3616l2.2575 3.6669-5.3616 17.77h11.852l1.6932 4.5131 6.4904-6.4876 3.6685-1.4103-5.3616 10.154-8.7479 13.539h-3.6685l-3.1041-1.4103-7.6192 1.6924-14.674 6.7696-18.342 14.95-9.5945 13.257-5.3616 18.334-1.411 6.7696-13.263 1.4103-14.392 4.231-28.784-23.412-35.838-21.719-8.7479-2.2565-46.844 5.9234-4.5151-8.462-7.9014-6.2055-47.126 1.4103-20.882 2.5386-25.962 12.693-19.189 7.6158-18.342 3.3848-37.814 3.949 0.28219-11.565 4.7973-3.6669 7.6192-1.9745 1.9753-10.719 11.005-7.0517 11.005-4.231 12.699-10.437 12.416-6.4876 1.9753-9.0262 11.57-10.719 1.9753 2.8207 7.0548 0.56414 6.7726-10.154 4.7972-1.1283 7.337 0.8462 5.0794-11.283 7.0548-6.7696 1.411-5.0772 0.28219-9.8724 12.416 0.28207 108.64-15.796 162.26-34.694zm-2146 161.43l7.6314 5.6473 2.8264 5.0825-1.6959 4.2354-4.2397-1.6942-2.2612-2.8236-5.0876-6.4943h-0.28264v-3.3884l3.1091-0.56472zm1355.8-314.8l3.3876 6.7964 7.3399 8.7787-1.9761 6.7964 1.4115 11.894 6.493 20.673 20.326 22.088 14.962 9.9115v11.611l3.1054 5.3805 19.479 1.6991 5.3638 2.8319-1.6938 8.4956-6.2107 16.991-2.2584 9.3451 6.2107 11.894 19.197 15.858 12.986 1.9823 5.0815 13.027 5.6461 9.0619-2.5407 7.3628 4.7992 12.743 5.9284 7.0796 6.7753-0.84956 3.1053 4.531-1.9761 4.531v8.2124l-5.3638 2.8319-11.857 9.6283-1.4115 16.708-4.7992 15.009-11.574 3.115-14.68-1.4159 1.4115-5.0973 8.7514-7.0796 2.2584-8.7787-6.2107-10.478-91.749 3.6814-65.777 1.9823-66.906 0.56637-1.4115-16.142 2.2584-113.27-3.67-32.849-7.3399-5.9469-6.7753-8.4956-5.9284-9.0619 1.4115-6.5133 5.0815-4.531v-8.2124l-3.9522-3.115-7.3399-0.56637-8.7514-8.4956-8.4691-11.044-6.493-10.195 0.28231-6.2301-3.67-7.3628 137.76-3.3982 28.23-1.6991 21.737-2.2655zm-1413.7 261.15l10.175 5.9296 8.762 3.3884-2.5438 1.6942-12.719-0.56472-4.5223-4.5178-2.5438-4.2354 3.3917-1.6942zm-8.762 1.6942l3.6744 4.2354-0.56529 3.6707-9.0446-0.28236-1.6959-3.3884-1.6959-4.2354h9.3273zm128.01-481.16l82.68 19.515 109.32 24.04 73.443 14.707-29.942 150.18-15.253 84.283-9.3216 43.838-5.9319 31.394-7.3443 46.384-4.802 8.7677-4.5196-0.28283-3.3897-7.3535-7.9092-1.4141-3.6721-3.1111-5.0845 0.28283-2.5422 2.2626-5.0845 3.6768-0.84742 20.646-0.84742 4.2424-1.4124 35.071-3.1072 5.0909-47.173-72.121-118.92-175.64-35.111-53.737 24.151-92.202 22.626-88.525zm1645.7 286.02l8.1788 4.2291 5.0765 12.687 15.793 0.28194 5.0765 5.6388h6.4866l6.7686-3.9472 7.0507 1.4097 5.3585 4.793 7.0507-7.6124 5.6405-3.3833 3.6663-0.56388 1.4101 6.4846 5.3585 3.1013 7.3327 5.6388 0.56405 17.198 2.5382 5.3569 7.3327 3.9472 1.4101 6.2027 8.4608 10.714 7.0506 7.6124 9.3069 5.6388-5.9226 6.7666-11.563 10.15-16.922 21.991-0.28203 5.3569-10.999 5.9208-15.793 10.15-127.19 12.123-85.736 9.0221h-12.127l-0.28203 11.56-35.535 1.9736-31.305 0.56388 5.9226-4.793 6.7686-3.6652 0.28203-9.304 2.5382-5.0749-4.7944-6.7666 2.2562-5.0749 5.6405-3.9472 6.4866-2.5375 17.204 7.0485 4.5124-1.1278v-6.2027l-3.3843-6.7666 1.1281-6.2027 5.3585-3.9472 11.845-3.9472-4.2304-10.432 2.8203-2.8194 3.3843-9.586 7.8967-3.6652 15.793-2.8194 10.435-1.1278 3.9484 4.5111 6.2046 2.8194 5.0765-9.8679 7.6147-3.1013 4.7944 3.3833 2.2562 3.9472 6.7686-1.6916-0.56405-9.304 10.999-6.2027 3.6663 3.6652 12.691 0.28194 2.5382-6.4846-0.56405-6.2027 7.3327-10.432 13.819-10.15 1.4101-12.687 7.3327-1.1278 10.717-5.0749 7.8967-5.6388-0.84608-5.9208-3.3843-4.2291 1.4101-5.9208 11.845-0.56388 5.9226-2.2555zm466.3 127.7l7.6192 15.514 1.1288 12.411-0.56439 9.5903-9.5945 4.231-7.9014 6.7696-3.1041 3.3848-3.1041-0.56414 7.337-7.0517 9.0301-7.3338 4.2329-1.6924 0.56438-5.6414-1.6932-17.206-4.2329-6.4876-1.6931-5.3593 1.9753-0.56414zm-1303.9-159.47l61.309 2.5416 114.71 3.3888 123.75 1.6944h14.691l9.8885 9.6015 7.3457 0.56479 2.2602 1.9768v5.9303l-4.803 3.9535-1.6952 8.4719 6.4982 10.166 6.7807 8.4719 7.0632 5.6479 3.3903 31.346-1.9777 98.839-35.599 0.84719-130.81-1.6944-126.29-5.9303-68.654-2.824 12.149-182.99zm659.28-165.81l1.1325 15.568 4.2469 7.3595 4.53 5.095 3.6806 10.473 2.265 7.3595 0.56625 2.5475 2.5481 33.118 3.9638 43.308 3.1144 44.723 1.9819 20.38-2.265 15.002 0.84938 9.3409 5.0962 9.0579 1.4156 15.002-7.0781 11.322-5.0962 10.756-7.0781 8.4917-1.1325 13.87v11.322l-2.8312 7.6426-3.3975 3.6798 2.265 5.6612 1.4156 3.6798-9.6262 3.3967-6.795 4.5289-1.1325 7.9256 3.3975 7.6426v3.1136l-1.4156 0.56612-17.271-7.0764-7.9275 2.8306-6.795 4.812-2.8312 6.2273-4.53 0.84917-4.8131-5.9442-4.2469-10.756 2.5481-7.9256-5.6625-9.624-6.2287-14.436-13.59-2.2645-18.12-15.002-5.6625-10.473 2.265-8.4917 6.2287-17.55 1.9819-9.907-7.6444-3.9628-18.686-1.6983-1.9819-3.3967v-12.455l-16.138-10.473-19.819-21.512-6.5119-19.814-0.84937-11.039 2.5481-7.9256 4.53-3.6798-1.1325-5.6612 1.1325-3.3967 3.9638-3.3967 5.0962-1.6983v-7.9256l1.4156-3.6798 5.9456-4.5289 0.56625-12.171-5.3794-5.095-1.6988-3.1136 3.6806-11.605 14.722-3.6798 5.3794-1.6983 6.795-5.3781 2.265-7.6426 4.8131-10.473 1.9819-9.3409-1.9819-6.7934-11.042-9.624-1.1325-3.9628-3.1144-3.9628-6.2288-2.5475-0.56624-5.9442h34.824l49.264-2.8306 45.017-5.095zm-984.07 71.85l223.4 24.347 101.67 9.9087-16.098 243.47-40.387-1.6986-98.002-8.4932-105.91-12.457-96.025-11.041 5.3661-38.785 19.77-142.69 6.2134-62.566zm1479.5 62.178l9.5923 3.3971-1.6928 8.2097 24.263 8.7759 3.9498 5.0957-2.257 9.3421-3.6677 3.6802-1.4106 4.8126 1.4106 6.7943 5.6426 3.6802 11.003 3.9633 8.1817 2.8309 13.824 2.5478 6.2068 5.945 9.0281 1.1324 2.5392 3.3971-1.1285 13.305 3.9498 3.114-1.4106 5.3788 3.3855 2.2648-0.56425 3.9633-7.6174-0.28309 0.28213 4.5295 6.4889 4.2464 0.28212 3.9633 5.0783 5.0957 1.4106 7.0774-7.3353 3.9633 4.514 4.2464 16.363-4.8126 10.439 17.552-160.53 34.821-108.9 15.853-13.542-0.28309-6.2068-0.84928-7.0532 5.3788-20.595 0.2831-29.059 4.5295-18.903 1.6986 11.567-7.3605 11.567-6.5112v-5.945l16.081-20.666 11.567-10.474 6.2068-7.0774 10.157 12.173 10.721 2.5478 7.6174-2.8309 5.6425-4.2464 6.7711 3.3971 12.978-3.6802 4.7962-12.456 6.7711 1.9817 9.0281-6.5112 4.514 1.1324 7.8996-9.059 0.56426-7.6435-2.257-3.3971 13.542-29.725 5.0783-14.721 1.4106-13.305 1.9749-0.56619 3.1034 4.8126 4.2319 3.3971 11.003-0.56619 4.7962-22.931 8.4638-1.6986 2.257-7.3605 7.8996-6.2281 3.1034-5.945 5.0783-12.173 0.28213-13.022 10.157 3.9633 18.62 8.7759 0.84638-14.721zm-1694.7-163.04l35.29 7.0502 97.964 17.202-5.0817 29.893-6.211 36.943 90.906 9.8703-6.4933 62.042-19.762 142.41-5.364 38.635-69.45-10.152-171.08-30.739 4.7994-25.945 9.3164-43.429 15.245-84.602 29.926-149.18zm1548.4 105.01l12.17 54.702 12.17-2.2674 31.698-3.6846 6.7925 34.579 16.415-17.006 7.3585-2.2674 4.5283-4.2515 4.2453-6.2355 3.1132 0.85029 8.7736-0.56686 13.019-10.204 4.2453-1.4172 3.6792 2.8343 7.3585 3.4012 8.4906 8.5029-1.1321 12.188-15.283-7.3692-13.585-5.1018-0.28302 16.722-7.3585 16.156-8.2076 6.8023-2.2642 6.5189-8.4906 1.4172-4.8113 22.958-7.9245 0.56686-3.1132-2.8343-3.3962-5.6686-6.2264 1.4172-1.4151 14.455-5.0943 14.455-14.151 31.177 2.5472 3.968-0.28302 5.6686-6.2264 7.0858-4.5283-1.1337-8.7736 6.5189-7.9245-2.2674-5.0943 13.888-10.755 2.8343-7.0755-3.6846-7.0755 5.3852-6.5094 1.984-9.0566-2.2674-10.755-12.754-9.9057-6.2355-7.0755-7.0858-8.2076-10.487-1.4151-6.5189-7.9245-4.8183-1.6981-3.6846-0.56604-15.872 0.84906 0.28343 6.7925-0.56686 5.0943-2.8343v-6.2355l4.8113-4.2515 0.28302-14.738 2.5472-10.204 3.1132-1.984 1.1321 0.85029 2.8302 3.1177 4.8113 1.4172 3.1132-3.6846-2.8302-8.7864v-4.5349l8.7736-13.038 3.3962-3.6846 5.6604 1.4172 7.3585-5.1018 8.7736-9.6366 6.7925-11.621 0.56604-15.872 1.4151-13.605v-13.888l-3.1132-8.5029 2.5472-3.6846 2.2642-1.984zm-208.5-41.452l4.5407 43.732 13.906 120.19-1.7028 8.1821 3.6893 4.5142 0.56758 3.6678-6.5273 4.5142-10.217 4.7964-9.0814 1.1286-1.419 13.543-13.338 10.157-8.23 11.286 0.56759 6.7714-1.419 3.95h-9.9328l-3.9731-4.7964-14.757 8.4642 0.56759 8.7464-2.5542 0.56428-1.419-2.5393-6.811-4.7964-10.217 4.2321-3.9731 8.1821-3.4055-1.6928-4.5407-5.0785-12.487 1.4107-16.176 2.8214-7.0948 3.6678v-7.3356l1.1352-13.261 6.5273-8.1821 5.1083-11.003 7.6624-11.85-1.419-16.364-5.1083-8.7464-0.85138-9.0285 2.2704-14.953-1.9866-20.032-2.5541-35.55-7.0948-84.924 8.5138 2.2571 4.2569 2.8214 3.1217-0.84642 5.9597-5.3607 7.0948-5.0785 40.583-3.1035 52.218-5.0785zm485.18 155.25l-0.56426 7.9266-8.1817 10.758-1.1285 13.022 1.4106 9.6252-5.0783 14.155-6.2068 5.3788-4.2319-13.022 1.1285-15.287 4.514-11.89 1.9749-9.3421-0.28213-4.8126 16.646-6.5112zm-291.48-198.09l12.11 72.47 1.6898 7.9264-3.6611 3.397-3.3795 5.0955 3.3795 9.0587v13.022l-1.4081 14.154-0.56325 15.287-6.1958 10.474-8.4488 9.3418-5.9141 4.2463-6.1958-1.4154-3.6611 4.2463-7.0406 10.191-3.0979 3.9632v6.2279l2.5346 7.6433-1.1265 1.1323-1.9714-0.56617-2.8163-3.1139-2.8162-1.9816-5.3509 3.6801-3.0979 11.89-0.28163 13.588-4.7876 4.2463v5.9448l-3.3795 1.6985-5.6325 0.28308-2.253-0.56617-7.3223-5.6617-4.506-2.8309-1.6898-7.6433-6.759 1.1323-6.4774 3.9632-5.0693 5.6617-4.2244-3.6801-8.7304-1.4154-6.759 3.9632h-4.7876l-5.0693-5.6617-15.208-0.28308-4.7876-11.89-10.139-5.0955-6.4774 2.2647-10.983 0.56617-13.518-116.35-4.7876-43.878 65.056-9.6249 6.1958 3.6801 7.3223 4.2463 14.645-1.6985 9.5753 8.7756 5.9141-0.56617 15.489-7.3602 8.1671-1.4154 9.012-2.2647 11.265-11.04 9.5753-10.474 10.983-6.511 17.461-10.474zm256.47 194.1l1.9827 6.5129s1.9827 7.9287 1.9827 8.7782-2.5492 3.398-2.5492 3.398l-3.1157-5.3802-0.5665-5.097-3.1157-7.0792 5.3817-1.1327zm-13.879-95.994l4.2487 13.026 6.5147 15.574 10.763 47.572 16.428-0.8495 17.845-3.1149-1.4162 13.592-4.8152 10.76-20.96 8.2119-2.8325-1.1327-9.064-11.893-4.532 2.2653-11.047-1.4158-7.3645-9.6277 0.84975-9.6277 4.532-3.6812-4.532-5.097-3.1157 5.3802-1.4162 0.56634-0.84975-10.194 5.9482-2.8317-1.4162-15.574-5.0985-0.8495-0.84974-3.1149 3.6822-10.477 4.2487-4.5307-1.4162-2.8317-5.3817 4.5307-5.3817 3.6812s-1.4162 4.2475-1.4162 5.9465c0 1.9822-4.2487 6.5129-4.2487 6.5129l3.6822 3.6812 0.5665 5.9465-3.6822 15.008 5.9482 15.574 6.798 5.9465v5.097l4.2487 5.9465-2.8325 5.9465-5.9482-0.8495-8.7807-2.8317-12.18 0.28317-9.6304-3.1149-5.665-3.6812-0.84974-2.2653v-5.9465l5.0985-7.3624 1.9827-9.3446 5.9482-9.3446-10.48-7.0792-5.9482 7.3624-16.428-5.9465 1.6995-8.2119-13.596-4.5307-3.6822-3.9644-5.3817-5.097-7.6477-3.9644-4.2487-3.1149-5.9482 1.699-5.665 4.2475-7.3645 5.9465-7.3644 0.56634-4.532-1.9822-5.0985 7.6455-3.9655 4.2475-7.0812 1.9822-13.596 13.875-5.665-29.45 106.5-21.521 62.881-12.176zm-1313.5-118.83l100.57 6.2168 117.24 6.782 30.229-1.6955 6.2152 5.6516 16.951 11.586 11.865-3.391 10.453-1.1303 7.3453-0.28258 6.2152 3.391 13.561 4.2387 8.1928 4.5213 1.4126 4.5213 2.8251 6.4994 7.6278-0.56516 2.8251 14.977 7.9103 22.324 2.8251 13.281 6.4978 10.456 1.4126 14.129 3.9552 11.586 1.13 18.933 5.3677 14.694 3.9552 7.6297-0.28251 6.4994 7.3453 11.021 6.2152 8.4774h-12.713l-123.74-1.6955-114.7-3.391-61.305-2.8258 3.9552-59.625-93.511-9.3252 12.148-123.49zm1328.3 110.54l-0.28531 3.1029-1.4265 6.4879-1.4265 5.6416 5.9914 10.155 6.5621 2.8208 5.4208 10.155 5.1355 13.258 10.271 6.77 2.8531-1.4104 6.5621 20.592-17.118 3.1029-14.265 0.84625-10.556-45.415-6.5621-15.797-3.9943-11.565 0.57061-0.84625 5.7061-4.7954 4.8502-2.8208 1.7118-0.28208zm-62.112 64.941l6.447 4.1452-3.5165 6.9086-3.2235-4.4215-2.9304-2.2108 3.2235-4.4215zm-692.55-197.59l2.5369 9.3464 5.9195 5.9477 0.84564 1.9826-5.6376 8.4967 0.84565 11.329 7.3289 11.612 8.7383 4.5316 6.7652 0.84967 2.5369 5.098 0.56377 6.7974 7.047 2.8322 2.5369 3.1155 1.4094 4.5316 10.712 9.3464 1.6913 5.3812-1.9732 8.4967-4.792 10.479-1.6913 6.7974-5.9195 4.5316-4.5101 1.4161-16.067 4.2483-4.5101 13.595 2.255 5.098 4.792 4.2483-0.56377 9.9128-5.3558 3.9651-1.9732 5.098v6.7974l-3.9464 1.1329-4.792 3.9651-1.4094 4.8148 1.1275 4.8148-3.6645 2.8322-6.4833-7.647-3.9464-7.9303-23.396 2.2658-28.188 1.6993-138.69 3.3987-4.5101-12.179-1.1275-18.976-3.9463-11.895-1.9732-14.728-6.2014-10.479-2.8188-13.028-7.6108-22.091-3.1007-15.861-3.9464-5.3812-3.6645-8.2135 4.792-10.762 3.3826-17.277-7.6108-6.2309-0.84565-6.7974 1.9732-6.7974 5.0739-0.84967 172.23-1.6993 59.759-1.9826zm770.2 27.634l15.669 7.0366 17.907 5.3478 6.9949 3.3776 0.27979 5.0663-1.399 7.5995 1.1192 12.666-5.8757 5.3478-3.0777 2.8146 1.399 1.4073 7.5545-0.84439 3.0777-2.2517 4.4767 9.5697 0.55959 26.457 1.6788 3.0961-3.0777 15.48-8.6736 18.295-7.5545 11.258-2.2384 13.51-5.8757 6.7551h-2.2384l-0.83939-7.5995 2.2384-2.8146-0.55959-4.2219-11.192-1.6888-13.43-6.4736-8.9534-8.1624-2.798-5.6292 1.9586-7.318 0.27979-4.2219 7.5545-3.659 4.7565-7.881 4.7565-6.7551 9.2332-9.0068v-3.3776l-17.068-11.54-2.7979-7.5995-7.5545-0.84439-0.27979-2.5332-1.9586-6.1922 6.1555-3.0961 0.55959-8.1624-3.6373-3.659 0.55959-3.3776 5.3161-8.7253v-8.7253l6.9949-8.7253zm-37.736-30.398l6.4949 6.4746 8.754 1.126 5.6478 15.764 6.7773 5.3485 7.9069 1.126 0.28239 0.2815-7.3421 9.0081v8.7266l-5.3654 8.7266-0.56478 5.3485 3.671 3.6595-0.56478 5.3485-6.7773 3.0965 2.8239 9.5711 0.56477 3.0965 7.9069 0.84451 2.5415 7.0376 16.661 10.979v1.126l-8.754 8.4451-4.2358 6.193-4.8006 7.8821-7.6245 3.378-3.9534 0.84451-5.9302 3.6595-4.5182 3.941-63.255 12.105-109.28 21.957-31.91 3.941-11.013 1.9705-14.402-63.057-12.143-72.909 11.86-7.3191 3.671-1.4075 16.096-15.483 1.9767 19.424 94.6-18.298 104.2-21.957zm-1603.4-136.79l136.14 19.766 166.93 18.354-4.2367 50.545-4.2367 71.724-12.428 124.25-7.6261-0.84713-235.28-25.696-78.803-8.4713 5.649-33.885 19.489-115.77 10.733-68.335 3.6718-31.626zm1151.3-25.739l8.742 6.5041 2.82 1.4139 1.692-1.6967h7.614l15.51 9.6147 12.69 4.2418h7.332l3.666 7.3524 7.332 6.2213-0.564 4.5246-4.512-0.84836-2.256 2.2623 2.256 5.9385 3.666 2.2623 4.512 6.5041 0.84601 28.279-6.768 4.5246-1.692 7.3524-2.256 9.6147-9.588 3.6762s-0.846 12.443-1.41 14.139 6.768 5.9385 6.768 5.9385l4.23 1.6967 3.102-1.6967 7.614-10.463 5.358-14.139 10.998-5.0901 4.512-3.1106 7.332 5.0901 6.768 9.0491 6.486 25.733 9.024 23.188 1.128 25.733-5.358 2.8279-2.256-0.56557-0.564-1.6967-3.102-1.6967-4.23 8.4836-0.564 10.18-3.102 0.84836-4.512 4.5246 0.56401 14.422-5.64 4.8074-5.922 10.463-0.564 4.2418-0.282 1.6967-33.84 4.8074-27.918 4.2418-0.56401-3.1106-53.862 5.3729-36.66 2.8279 9.024-8.7664 0.846-7.6352 6.768-14.705 2.82-16.967 2.256-13.291-4.23-13.574-8.178-18.381-10.152-16.967 0.846-7.6352 0.84601-2.2623 2.256-6.7869-1.41-3.1106-1.692-13.291 4.512-11.311 3.102-17.25-2.256-6.7869v-3.1106l6.486-1.4139 1.692-7.3524-1.692-2.2623 0.564-2.8279 5.076-5.3729 7.614-3.1106 2.82-11.877 5.358-2.2623 2.256 2.2623-1.692 6.7869-3.666 6.7869v11.877l1.692 0.56557 10.152-5.9385-0.846-15.553-0.846-4.5246 0.846-5.9385 4.23-5.0901 7.332-0.84836 7.332-2.2623-1.41-2.2623-5.922-1.4139-2.82-0.84836-0.846-10.18 8.178-6.5041 8.178-5.0901zm497.36-41.966l1.9813 13.874 6.7931 18.404 2.2644 14.157-2.8305 11.892 7.3592 12.741 2.2644 5.6628-2.5474 9.0605 10.473 4.8134 7.6423 28.88v16.422l-1.6983 30.862 2.2644 15.29 1.9813 10.193 4.2457 20.669v22.934l-3.1135 6.5122 5.944 7.6448 1.4152 2.5483-5.3779 5.0965 0.84914 3.6808 3.6796-0.84942 4.2457-3.6808 6.5101-7.3616 3.1135-1.6988 4.5288 1.6988 6.5101 0.56628 22.361-11.042 8.2084-7.6448 3.6796-4.2471 11.888 4.5302-9.6236 10.193-11.039 8.2111-20.096 15.006-7.3592 2.8314-16.417 5.3797-11.322 3.1145-2.8305-1.1326-0.84914-10.759 1.4152-7.6448-0.56609-6.7954-8.4914-4.2471-18.398-5.6628-16.983-7.3616-1.6983-1.1326-7.6423-0.84942-5.6609-4.2471-5.944-16.705-9.3406-1.4157-6.7931-6.7954-108.69 22.934-89.443 16.988-1.4152-18.404 4.5288-3.3977 3.6796-3.1145 2.8305-4.5302 5.0948-3.1145 5.3779-5.0965 1.4152-4.5302 5.944-7.6448 3.1135-2.8314-0.56609-2.8314-3.6796-8.7774-5.0948-0.56628-5.3779-17.272 8.2084-5.0965 12.454-4.2471 11.322-3.6808 9.0575-1.4157 17.832-0.56628 5.3779 3.6808 4.5288 0.56628 5.944-3.6808 7.3592-3.1145 14.718-1.4157 5.944-5.0965 5.0948-9.0605 4.5288-5.3797h5.944l5.3779-3.1145 0.56609-6.5122-4.2457-5.9459-0.84914-4.2471 3.1135-5.9459v-4.2471h-5.0948l-5.0948-2.2651-2.2644-3.1145-0.56609-7.3616 16.417-15.573 1.6983-2.2651 4.2457-8.2111 8.2084-12.741 7.6423-10.476 5.944-6.7954 6.7931-5.0965 8.7745-3.3977 15.568-3.6808 9.0575 0.56628 12.737-4.2471 20.945-6.2291zm-1337.8 46.979l160.73 11.006 160.73 4.7973v7.6193l-3.6722 4.2329-5.6495 4.2329-0.28247 6.2083 3.1072 6.2083 11.581 9.5946 1.4124 7.6193v101.31l-6.4969 1.1288-2.5423 9.0303 1.1299 8.4659 7.3443 5.6439-3.3897 15.239-5.0845 11.57 4.2371 9.3124 1.9773 3.1041-3.6722 0.2822-1.9773-4.5151-1.6948-5.6439-9.3216-5.0795-13.559-4.2329-7.0618-3.6685-8.1917 0.2822-11.016 1.1288-10.734 3.3863-14.971-10.723-7.6268-6.7727-30.79 2.2576-117.23-6.7727-100.56-6.2083 4.2371-69.984 7.9092-95.946 1.1299-14.11zm570.8-55.269l5.3703 4.2487-3.1091 3.1157-5.3703 8.7806-1.6959 5.3817 2.8264 1.6995 5.0876-2.8325 3.1091-0.56649 7.6314 2.266 1.6959 3.1157 3.1091 0.56649 1.6959-3.1157 11.306 15.012 23.177 3.399 23.177 6.2314 7.3488 3.1157 34.765 7.3644 4.5223 6.5147 10.175 3.399 4.805 28.891 4.5223 3.9655 4.2397 2.5492-3.1091 6.5147-5.0876 4.5319-5.9356 13.313-3.6744 6.7979 0.5653 5.0984 4.2397 0.84974 3.1091-5.3817 4.2397-2.266 2.2612-6.5147 5.3703-5.0984 7.6314-11.33 11.871-17.845 2.2612-1.4162 0.84794 2.8325-0.5653 6.5147-8.1967 19.261-7.6314 16.145-1.4132 9.0639-1.6959 7.3644 2.2612 3.6822-0.56529 7.6477-5.3703 6.7979-1.4132 5.0984 1.6959 10.197 1.6959 9.6304-4.2397 7.3644-2.2612 8.2141-2.8265 8.7806 3.1091 6.7979 1.6959 17.278 4.5223 12.746-0.56529 8.4974-44.941 5.0984-49.463 2.8325h-35.896l-1.9785-4.2487-8.1967-1.133-7.3488-3.6822-6.5008-10.48-0.84794-10.197 5.6529-8.2141-1.4132-3.9654-5.9356-6.2314-2.2612-9.3471-1.6959-19.261-5.9356-7.0812-19.785-12.746-10.741-15.295-9.61-2.8325-6.2182-7.9309h-9.0447l-8.1967-9.3471-1.4132-18.411 0.28265-10.763 4.2397-8.7806-2.2612-9.0639-7.0661-7.9309 5.0876-15.295 14.698-10.763 4.5223-5.3817-0.5653-22.943 0.5653-7.9309 6.7835-7.9309 2.8265 1.9827 8.1967 1.4162 8.1967-1.6995 20.916-9.0639 8.1967-5.3817 5.9356-2.266zm-1084.6-214.17l36.715 7.2518-12.427 60.723 9.0376 21.388-3.6715 13.064 5.6485 13.967 9.0376 4.3172 12.992 28.866 7.3431 9.7631 1.6946 3.3296 9.6025 3.245 1.1297 5.4741-19.77 48.336 0.56485 8.7473 8.1903 9.5938 4.8012 0.56434 14.404-9.8759 0.56485-1.1287 0.84728 0.28217 0.28243 13.262 7.6255 36.964 9.32 7.3364 7.0606 8.1829-1.977 8.1829 1.977 11.287 5.6485 3.1039 6.7782-5.6434 6.7782-0.56434 9.6025 4.2325 7.0606-1.9752 10.732-0.28217 11.015 4.5147 9.0376-1.4108 1.977-7.3364 5.9309-2.8217 2.2594 3.1039 1.1297 7.3364 7.6255 6.7721-10.732 68.003-13.839 82.394-98.284-17.212-111.56-22.291-58.462-12.698 24.853-99.606 3.3891-11.851 6.7782-16.366-3.1067-6.4899-7.3431 0.28217-1.6946-2.8217 1.1297-3.1039 1.1297-8.7473 12.144-14.955 5.0837-2.2574 3.3891-3.1039 2.5418-8.1829 12.709-18.623 11.015-12.415 0.56485-11.033-9.8849-7.5057-3.3891-12.528 1.1297-27.286 9.6025-45.768 12.709-58.861 13.556-49.126zm1963.2 388.26l4.5575 16.984 2.2787 12.455 1.7091 11.889-19.939 9.9072-14.812 3.1137-7.6908 4.2459-2.2787-1.6984-5.412 5.9443-10.254 9.058-14.242 9.6241-4.8423-6.2274 2.5636-5.9443v-23.494l-4.2726-20.664-1.7091-8.7749 62.096-13.304 12.248-3.1137zm-1064.4-317.8l6.4936 1.412 5.3643 2.2592 2.2586 15.532 4.235 17.227 4.5173 4.5185h13.552l0.84699 4.2361 17.787 0.84721v5.9305h13.552l0.84699-3.6713 3.1056-3.1064 6.4936-1.6944 3.6703 2.824h8.1876l11.011 7.3425 14.964 6.7777 6.7759 1.412 1.4116-2.824 4.235-1.412 1.4116 8.1897 7.3406 3.6713 1.4116-1.412 3.6703 0.56481v5.9305l7.3406 2.824h8.7522l4.5173-2.2592 9.0346-9.0369 7.3406-1.412 2.2586 5.0833 1.4116 3.6713h2.8233l2.8233-2.2592 25.127-0.84721 5.0819 8.7545h1.694l1.9763-3.1064 12.423-1.1296-1.694 6.4953-11.011 5.0833-25.974 11.579-13.552 5.6481-8.7522 7.3425-6.7759 10.167-6.4936 11.014-5.082 2.2592-12.705 14.12-3.6703 0.56481-10.729 8.1897-7.3406 8.4721-0.56466 8.4721 0.56466 22.592-3.388 3.9537-15.246 11.296-6.2113 17.227 7.9052 8.7545 1.9763 7.6249-4.235 8.4721-0.28233 11.014 1.4116 19.768 9.8816 10.731h9.0346l5.6466 7.9073 9.5992 2.5416 10.164 14.967 20.328 12.991 5.082 5.9305 1.4116 16.944-59.854 1.9768-170.25 1.6944v-101.38l-1.9763-9.0369-11.576-9.8841-2.541-4.8009v-4.2361l5.0819-3.6713 4.5173-5.0833v-14.967l-1.1293-18.074-5.0819-20.616-5.0819-37.983-1.4116-28.043-5.3643-9.3758-4.5173-14.205v-29.003l1.694-11.042-5.0819-15.589 84.981 0.084721 0.84699-23.157 1.694-0.56481zm1083.3 313.65l4.1754 3.7048 9.4642 12.254 7.7941 12.539-7.7941 3.9897-3.6187-0.56996-3.062 5.1297-6.6806 5.4146-7.7941 3.1348-1.6702-11.684-2.2269-12.539-4.4538-17.099 15.866-4.2747zm-2296.7-291.54l6.7878 1.4152 1.9798 7.0758 11.596 1.6982 5.7979 9.9061-0.59393 26.265 15.018 10.897 17.705 0.67928 4.9777-4.3021 12.586 3.5945 3.1111 0.19812 13.689 5.0097 5.5434 4.0474 13.236 0.8208 3.6767-1.5284 6.7878 4.4719 12.727 1.3586 14.424-5.2078 3.1111 3.7077 41.858-1.0472 43.272 9.8212 37.05 10.84 3.3939 12.878 9.616 7.0475-0.56565 9.2269-10.464 11.321-11.03 16.133-2.2626 3.1134-1.9798 7.6419-2.5454 2.2643-5.3737 2.5473-13.293 16.133-1.1313 9.3401-1.6969 4.2455 3.6767 5.0946 7.0706-0.28303 1.9798 3.6794-6.7878 15.567-3.3939 12.453-24.889 99.344-48.08-10.472-77.833-18.397-79.87-20.378-108.97-33.681-7.6645-9.9061 3.6767-16.982 2.2626-24.341 5.3737-8.2079 22.909-35.662 18.384-38.492 14.141-39.908 9.0504-18.397 9.0504-28.303 6.505-18.397 16.404-5.9437zm2345.9 314.77l5.0947 4.2596-6.7929 2.8397-6.2268 2.8397-3.1134-2.5558 6.5098-7.3833h4.5286zm-37.078-82.636l8.2081 12.495-6.7929 14.767-0.84911 4.2596 5.3777 7.3833 3.1134-2.2718h5.0947l6.5098 7.3833 11.038 17.038 10.189 1.4199 6.5098-2.8397 5.0947-5.1115-2.2643-7.6673-5.9438-4.5436-4.2456 2.2718-2.8304-3.6917 1.4152-1.4199 5.9438-0.56795 5.0946 2.2718 5.3777 6.8154 2.8304 8.2353 0.84911 6.8154-11.888 4.2596-11.038 5.3955-11.038 12.779-5.3777 4.2596v-2.8397l6.7929-4.2596 1.4152-5.1115-2.2643-8.8032-8.2081 4.2596-2.2643 4.2596 1.4152 6.5314-5.9438 2.5558-8.2081-13.347-9.6232-12.211-5.6607-4.5436-31.7 7.9513-62.268 13.631-1.9812-13.915 1.6982-30.101 39.059-7.0994 51.796-13.347 5.0947-8.2353 10.472-5.1115zm60.287 80.933l2.8304 0.28397 2.8304 6.5314-3.6795 1.4199-11.038 0.28398 1.4152-1.7038 6.2268-1.9878 1.4152-4.8276zm-126.28-202.52l0.84939 16.357 5.3795 7.6276v10.17l-9.9096 12.43-7.9277 3.1075v4.5201l3.1144 5.0851v24.013l-2.2651 26.273-0.56626 13.278 2.8313 3.9551-0.56627 12.148-1.6988 5.3676 2.8313 3.1075-32.56 5.9326v-14.973l-8.2108-30.51-9.3434-4.2376 1.9819-7.3451-2.5482-6.4976-7.0783-12.43 2.8313-11.018-2.265-14.973-6.7952-18.363-1.9819-13.843 73.897-19.182zm15.109-20.726l33.141 105.53 0.84976 8.4467 11.613 3.0971 1.4163 8.7283 7.6479 3.3787-3.1158 9.0098-1.9828 2.2525-11.33 5.3496-4.8153 8.1652-39.089 9.8545-14.446 3.3787-2.8326-3.0971 1.4163-4.2234 0.5665-13.233-2.8325-3.9418 0.56651-13.233 2.266-25.903v-24.214l-3.1158-5.3496v-1.9709l6.7981-2.534 11.047-13.515v-12.107l-5.3818-7.8836-1.4163-23.679 0.56651-6.4477 4.2488-5.3496 2.8326 2.8156 1.6995 1.4078 1.6995-4.5049 1.9828-0.22525zm-1904.3-175.48l92.339 19.43 51.958 9.5883 91.209 14.947 82.738 11.28 82.456 9.8703 86.974 8.6577-2.5414 40.045-14.966 161.11-3.671 42.865-166.89-18.613-138.37-20.023-3.9533 31.585-5.3653-4.7942-1.1295-7.0502-3.671-5.3582-9.3186 4.2301-1.9767 7.0502-6.4948 0.84603-10.731-4.5122-11.578 0.28201-6.7772 1.9741-9.0362-4.2301-8.4715 0.56402-5.93 5.3582-2.5414-1.6921-1.9767-9.5883 1.9767-9.0243-7.6243-9.0243-9.3186-7.0502-7.0595-35.533-0.28238-14.947-4.5181-2.2561-1.6943 2.8201-12.707 9.0243-3.3886-0.28201-6.4948-7.8963-0.56476-7.8963 19.767-48.365-1.6943-7.5297-9.8834-3.1585-1.1295-2.5663-7.6243-9.8703-12.99-29.357-9.0362-4.4558-5.0829-12.014 3.671-13.057-9.0362-21.348 12.425-60.04zm1173.6 165.89l3.102 3.1106-0.84601 2.8279-10.434 2.8279-4.23 8.7664-6.486 2.2623-1.41 6.7869-6.768 9.0491-0.846 7.3524 2.256 1.4139 2.82-3.1106 10.152-8.2008 3.666 3.6762h6.486l9.024 2.8279 4.23 3.1106 4.23 8.7664 7.614 7.6352 10.998-0.56557 4.23-2.8279 4.512 3.6762 4.512 1.4139 3.666-2.2623h3.102l4.512-2.8279 11.28-10.18 9.588-3.1106 18.612-0.84836 12.69-5.3729 7.332-3.6762 4.23 0.56557v16.119l1.41 0.84836 8.178 2.2623 5.358-1.4139 17.202-4.5246 3.102-3.1106 4.23 1.4139v19.795l9.024 8.7664 3.666 1.6967 3.666 2.8279-3.666 0.84836-2.256-0.84836-10.434-1.4139-5.922 1.6967-6.486-0.56557-9.024 4.2418h-5.076l-16.356-3.6762-14.664 0.56557-5.358 7.3524-19.74 1.6967-6.768 2.2623-3.102 8.7664-3.666 3.1106-1.41-0.56557-4.23-4.5246-12.69 6.7869h-1.692l-3.102-4.5246-2.256 0.56557-5.358 12.443-2.82 11.311-9.024 19.512-3.666-2.2623-3.666-3.1106-5.076-29.41-10.434-3.6762-4.794-6.5041-35.532-7.918-7.896-3.1106-22.842-6.2213-21.996-2.8279-10.998-14.988 1.974-1.4139 7.614-2.2623 10.152-6.5041v-2.8279l1.692-1.6967 16.92-2.8279 6.768-5.3729 12.408-5.9385 0.564-3.6762 5.358-8.2008 5.076-2.2623 3.666-5.0901 6.486-6.5041 12.408-6.7869 13.254-1.4139zm810.72-147.93l4.2499 0.56538 17 6.7845 5.3832 2.8269 25.783 84.524h17l2.2666 5.3711 0.56666 13.569 8.2164 6.5018h2.2666l0.56665-1.4134-1.4166-3.1096 7.9331-1.4134 5.3832 5.9365 6.5165 10.459v5.3711l-5.9498 13.286-5.3832 1.6961-9.6331 8.7633-13.6 15.548h-3.6832c-1.7 0-2.8333-5.9365-2.8333-5.9365l-5.0999 0.56538-2.8333 4.2403-6.7998 4.2403-2.8332 4.2403 4.5332 4.2403-1.4166 1.6961-1.4166 7.6326-5.3832-0.56538v-4.523l-0.84998-3.6749-4.2499 0.84806-5.0999-9.046-5.9498 3.6749 3.6832 4.2403 0.84998 3.1096-2.2666 3.6749 0.84998 8.7633 0.56665 4.523-4.5332 7.3499-8.2164 1.4134-0.84997 8.198-15.016 8.7633-3.6832 1.4134-4.5332-4.2403-8.7831 10.177 2.8333 9.046-4.2499 3.6749-0.56665 12.438-3.1166 17.809-6.2332-2.5442-1.4166-8.7633-11.333-3.1096-0.56665-7.0672-33.149-105.81 3.6832-0.48057 4.2499 1.1308v-7.3499l2.2666-15.548 7.3665-13.286 4.2499-11.308-5.3832-6.7845v-16.961l2.2666-2.8269 2.2666-7.6326-0.56666-4.2403-0.56665-13.569 5.0999-13.569 8.2164-25.159 5.9498-11.873h3.6832l3.6832 0.56538v3.1096l3.6832 6.5018 7.6498 1.6961 2.2666-2.2615v-2.8269l11.333-8.198 5.0999-5.0884zm-1494.6 56.651l71.342 6.0986 75.022 3.6704 52.657 1.6941 80.967 1.6658 5.0958 15.642-1.6986 10.87v29.392l4.5296 15.021 5.3789 8.9785 1.4155 27.387 5.0958 38.427 5.0958 20.611 1.1324 17.505v3.3881l-161.08-4.7998-160.8-11.011 13.306-143.83 2.5479-40.714zm871.16 157.17s3.666 4.8074 4.512 5.3729c0.846 0.28278 1.128 4.5246 1.128 4.5246l-3.666 3.3934-9.024-0.56557-1.692-7.0696-2.82-1.4139 0.846-3.1106 4.512-0.56557zm658.32-18.482l3.9666 3.1096 1.7 6.7845-4.8165 2.5442-5.0999-8.198 4.2499-4.2403zm24.366-20.636l2.2666 5.0884-2.5499 2.2615s-0.56666 4.8057-0.56666 5.6538-3.6832 0.56538-3.6832 0.56538l-5.0999-5.3711 3.9666-6.2191 5.6665-1.9788zm-2314-260.37l12.408 4.2278 27.355 7.61 24.253 5.3552 56.402 16.066 64.862 16.066 42.301 9.8366-13.536 49.493-12.69 58.71-9.5883 45.801-1.128 25.874-36.379-10.485-43.147-9.7803-40.891 0.90193-3.1021-4.3123-16.075 5.8907-10.998-1.1838-7.3322-5.0451-4.7942 1.832-11.703-0.70463-4.8506-3.7204-14.552-5.1297-3.3277-0.45096-13.536-3.9177-5.4146 4.6506-15.934-0.70463-13.001-9.442 0.53582-24.662-6.4862-12.12-11.562-1.973-1.128-6.7644-7.0502-1.6911-8.1783-1.4093-5.0762 2.8185-6.4862-8.1737 0.84603-8.1737 7.6142-0.84556 4.5121-11.274-7.3322-3.1004 0.56402-10.429 12.408-1.6911-7.6142-7.61-4.2301-20.011 1.6921-8.1737v-22.266l-5.0762-9.0193 6.4862-26.494 5.9222 1.4093 6.7682 8.1737 7.6142 7.3281 9.0243 5.3552 12.69 5.9189 8.7423 1.6911 8.1783 4.2278 9.5883 2.8185 6.4862-0.5637v-6.7644l3.6661-3.1004 5.9222-3.6641 0.84603 3.1004 0.84603 5.0733-6.4862 1.4093-0.84603 5.9189 5.0762 4.2278 3.1021 6.7644 1.6921 5.3552 4.2301-0.5637 0.56402-3.6641-2.8201-3.6641-1.41-9.0193 2.2561-5.0733-1.6921-4.2278v-7.3281l5.0762-10.147-3.1021-7.3281-6.7682-13.529 0.84603-2.2548 3.9481-2.2548zm1412.4 193.44l1.41 1.4139-14.382 14.422-9.306 5.3729-5.922 2.5451-4.794-2.8279 5.076-5.9385 6.204-2.2623 15.228-11.029 6.486-1.6967zm-1421.5-177.94l2.2561 4.2278-4.2301 4.7915 1.6921 2.2548-1.9741 5.637-3.9481 1.1274s-2.5381 0.28185-2.5381-0.5637 4.2301-7.3281 4.2301-7.3281l-4.7942-1.6911-0.84603 4.2278-1.9741 1.6911-4.2301-6.4826-1.41-6.7644 5.6402-0.5637 1.41 3.9459 4.2301-4.5096h6.4862z" fill="#1F2937" fill-rule="nonzero"/>
</g>
</svg>