<?xml version="1.0" encoding="utf-8"?>
<!-- Generator: Adobe Illustrator 24.0.1, SVG Export Plug-In . SVG Version: 6.00 Build 0)  -->
<svg version="1.1" id="Layer_1" xmlns="http://www.w3.org/2000/svg" xmlns:xlink="http://www.w3.org/1999/xlink" x="0px" y="0px"
	 viewBox="0 0 2582 1618" style="enable-background:new 0 0 2582 1618;" xml:space="preserve">
<style type="text/css">
	.st0{opacity:0.1;}
	.st1{fill:#1F2937;}
	.st2{fill:none;stroke:#0091FF;stroke-width:6;stroke-linecap:round;stroke-miterlimit:10;}
	.st3{fill-rule:evenodd;clip-rule:evenodd;fill:url(#SVGID_1_);}
	.st4{fill-rule:evenodd;clip-rule:evenodd;fill:url(#SVGID_2_);}
	.st5{fill-rule:evenodd;clip-rule:evenodd;fill:url(#SVGID_3_);}
	.st6{fill-rule:evenodd;clip-rule:evenodd;fill:url(#SVGID_4_);}
	.st7{fill-rule:evenodd;clip-rule:evenodd;fill:url(#SVGID_5_);}
	.st8{fill-rule:evenodd;clip-rule:evenodd;fill:url(#SVGID_6_);}
	.st9{fill:url(#wing_2_2_);stroke:#45BCF2;stroke-width:0.1942;stroke-miterlimit:10;}
	.st10{fill-rule:evenodd;clip-rule:evenodd;fill:url(#wing_1_4_);}
	.st11{fill-rule:evenodd;clip-rule:evenodd;fill:url(#wing_1_5_);}
	.st12{fill-rule:evenodd;clip-rule:evenodd;fill:#0A455F;}
	.st13{fill-rule:evenodd;clip-rule:evenodd;fill:url(#SVGID_7_);}
	.st14{fill-rule:evenodd;clip-rule:evenodd;fill:url(#SVGID_8_);}
	.st15{fill-rule:evenodd;clip-rule:evenodd;fill:url(#SVGID_9_);}
	.st16{fill-rule:evenodd;clip-rule:evenodd;fill:url(#SVGID_10_);}
	.st17{fill:url(#wing_2_3_);stroke:#45BCF2;stroke-width:0.1942;stroke-miterlimit:10;}
	.st18{fill-rule:evenodd;clip-rule:evenodd;fill:url(#wing_1_6_);}
	.st19{fill-rule:evenodd;clip-rule:evenodd;fill:url(#wing_1_7_);}
	.st20{fill-rule:evenodd;clip-rule:evenodd;fill:url(#bpdy_2_);}
	.st21{fill-rule:evenodd;clip-rule:evenodd;fill:url(#bpdy_3_);}
	.st22{fill-rule:evenodd;clip-rule:evenodd;fill:url(#nose_1_);}
	.st23{opacity:0.6;fill-rule:evenodd;clip-rule:evenodd;fill:#111111;}
	.st24{fill-rule:evenodd;clip-rule:evenodd;fill:url(#tail_2_);}
	.st25{fill-rule:evenodd;clip-rule:evenodd;fill:url(#tail_3_);}
</style>
<g class="st0">
	<path class="st1" d="M2152,1601.6l3.7,1.4l4.8,0.8l1.1,3.1l-9.9,3.4l-11.9,4.2l-6.5,3.4l-2.5-3.1l6.8-1.7l3.7-0.6l4.2-6.5
		L2152,1601.6z M2215.9,1542l-0.6,9.6l-2.8,4.8l-7.1,18.6l-10.5,11l-15,11.9l-7.6,5.9l-3.4-3.1l6.8-4.2l9.6-5.4l12.4-11.9l9-15
		l4.2-13l2.8-7.9L2215.9,1542L2215.9,1542z M968,924.4l153.6,6.8l-4.8,65.8l-2.8,50.8l0.6,5.6l12.4,11.6l5.6,3.1h5.1l1.4-3.4l2,2.5
		l6.8,0.6l3.1-1.7v-0.6l2.8,1.4l-1.1,10.5l12.7,2l6.8,2.5l11.9,2l7.3,5.1l7.9-5.4l7.6,1.7l6.2,8.8l2.3,0.3v5.9l9.3,3.1l7.1-5.9
		l4.2,1.4l5.9,0.3l1.7,5.9l14.7,5.6l6.5-1.4l5.4-11.3h0.3l3.1,5.4l13,2.5l9.6,3.7l9,2.8l6.8-3.4l2-6.5h10.2l5.9,2.8l8.5-5.6h1.1
		l1.4,4h13.3l5.4-5.1l3.7,1.1l4.8,5.9l9.3,5.4l9.6,2.8l7.1,4l7.6,5.6l8.8-3.4l5.9,2.3l2,56.5l2,26.8l1.7,11.6l7.3,12.4l2.5,12.7
		l11.9,16.7l0.8,8.8l1.7,2.3l-2,21.8l-8.2,13.6l3.7,7.3l-1.4,6.8l-2.3,20.3l-3.7,8.5l0.8,11.9l-15.8,4.5l-28,12.7l-2.8,5.4l-7.3,5.4
		l-5.9,4.2l-3.7,2.3l-16.1,15l-7.6,5.9l-15,9l-16.1,6.8l-17.8,9.6l-5.1,4.2l-16.4,10.2l-9.6,1.7l-11,15.5l-11.3,0.8l-2.8,5.4
		l6.5,5.4l-4.2,15.5l-3.7,12.7l-3.1,11l-2.3,12.7l2.3,6.8l5.1,19.8l2.8,17.2l5.1,7.6l-2.8,4.2l-8.8,5.4l-16.1-11l-15.5-3.1l-3.7,1.4
		l-9-1.7l-11.9-8.8l-14.7-3.1l-21.5-9.6l-5.9-11l-3.7-18.4l-9-5.4l-1.7-6.5l1.7-1.7l0.8-9.6l-3.7-1.7l-1.7-2.8l3.7-12.4l-4.5-6.5
		l-9-3.7l-9.6-12.4l-10.2-18.6l-11.9-7.3l0.6-5.4l-15-34.7l-2.3-11.9l-5.1-5.4l-0.6-4.2l-16.9-15l-7.3-8.8v-3.1l-7.3-5.9l-19.2-3.1
		l-20.9-1.7l-8.8-6.5l-12.7,5.1l-10.2,4.2l-6.5,9l-2.8,10.5l-12.4,17.2l-6.8,6.8l-7.3-2.8l-5.1-3.1l-5.4-1.7l-11-6.5v-1.7l-5.1-5.4
		l-14.7-5.9l-20.9-22l-6.5-13.3v-22.9l-9-18.4l-1.4-7.6l-4.5-2.8l-3.1-5.9l-14.1-5.9l-3.7-4.5l-20.1-22.3l-3.7-9l-13.3-6.5
		l-4.2-12.4l-7.3-8.2l-4.8-1.4l-1.7-15.3l104.5,10.2l82.8,5.4L968,924.4L968,924.4z M1273.9,1456.9l1.7,0.6l-13.6,18.6l-12.4,18.4
		l-5.6,18.6l-0.8,14.7l2.5,17.2l7.3,20.3l1.4,14.7l0.6,4.2l-2.5,0.8l-1.7-20.1l-7.6-20.3l-1.7-19.8l4.2-23.2l9.3-19.5l9.9-15.3
		L1273.9,1456.9L1273.9,1456.9z M2066.1,1238l14.7,2l14.7,0.8l6.5,20.6l10.5,27.4l15,26.6l10.5,17.8l13.6,15.5l11.3,10.5l4.5,8.2
		l-3.1,3.7l-2,4l8.2,20.9l8.2,8.2l7.4,15l10.2,16.4l12.7,23.2l3.7,21.5l1.4,33.9l1.7,5.1l-0.8,9.6l-6.8,3.7l0.8,5.4l-1.7,5.4
		l0.8,6.8l1.4,5.4l-7.6,9l-8.8,4.2l-11,0.6l-4.2,4.5l-6.8,2.8l-3.7-1.4l-3.1-2.8l-0.8-8.2l-2.3-9.6l-9.6-14.7l-10.2-6.5l-11-0.8
		l-2.3,3.7l-8.8-12.4l-1.7-10.2l-7.4-11.3l-5.1-3.1l-4.5,5.9l-5.1-0.8l-5.9-14.1l-8.2-11l-8.2-15l-7.4-8.8l-10.2-10.5l5.9-6.8
		l9-15.5l-0.6-4.5l-12.7-2.8l-4.5,1.7l0.8,1.7l7.4,2.8l-4.2,12.7l-2.3,1.4l-5.1-11.3l-3.7-13.6l-0.8-7.6l4.2-13.3v-26.8l-8.5-10.5
		l-3.7-8.8l-14.7-3.7l-5.4-1.7l-4.5-7.3l-9.6-4.5l-3.1-9.6l-7.6-2.8l-6.8-10.5l-11.9-4.2l-8.2-4.2h-7.4l-11.3,2.3l-0.6,5.4l2.3,2.8
		l-1.4,3.1l-8.8-0.6l-10.5,10.2l-10.2,5.4h-11l-9,3.7l-0.8-7.6l-4.5-5.4l-8.2-3.1l-4.5-4.2l-22.9-11l-21.5-5.1l-12.4,1.7l-17,1.4
		l-17,5.9l-9.3,1.7l-0.8-23.7l-8.2-5.7l-4.5-4.5l0.8-7.9l100.1-11.9l18.7-1.4h16.7l7.1,11.9l4.8,4.8l23.2,0.8l91.6-5.4l15-2h11.6
		l0.6,7.9l11.6,2.8l1.1-14.7l-4.2-12.4L2066.1,1238L2066.1,1238z M1566.2,1148.2l-0.3,2l1.1,14.4l5.7,12.7l-0.3,5.4l6.2,5.6
		l-1.1,5.6l-4,1.1l2.5,7.3l-24.3,41.7l-2.3,24l2.3,6.8l93.7-3.9l3.7-0.6l0.6,1.4l-2.8,20.6l9.6,9.6l6.2,18.3l-5.4,4.8l-5.1,5.4
		l2.8,5.1l8.8,1.7l1.7-7.3l5.4-5.9l4.2-0.6l0.8,7.6l3.7,5.4l-5.1,8.7h-9.1v1.4l5.1,2.8l-0.6,1.7l-6.5-0.8l-3.1,7.6l9.1,6.5l16.4,2.3
		l9.6,7.6h3.7v4.2l-6.5,8.7l-3.1-2.8h-8.2l-2.8-4.2l-11.3-5.4l-11.9-1.7l-1.7-8.7l-1.7-2.3l-3.1,3.7l-5.9,1.4l0.6,4.2l-2.3,4.5
		l5.9,0.8l-2.3,1.4l-6.5,9.6l-9.6,3.7l-1.7-1.7l6.5-2.3l-2.3-8.2l-3.7-2.8l-5.1,4.2l-7.4,1.7l-2.8,6.8l-10.2,3.7l-23.8-10.2
		l-4.5-4.5l3.7-2.3l2.3-4.5l-5.1-5.1l-12.7-0.8l-0.8-6.5l-4.2-6.8l-9.1-1.7l-5.1,2.8l-5.1-4.2l-8.8,2.8l-2.3,4.2l7.6,4.5l7.4-1.4
		l9.1,3.1l-2.3,5.9l-9.1-2.8l-9.1-3.1l-10.5,4.2l-18.4-3.1l-29.2-10.2l-22.9,0.8l-13.3,4.2l-0.6-10.4l3.7-8.5l2.3-20.6l1.4-7.3
		l-3.4-6.8l7.9-13l2-23.4l-1.7-2.3l-0.8-8.7l-12.2-16.9l-2.5-12.4l-7.4-12.7l-1.4-10.4l-2-26.8l-1.1-27.4l71.3-0.3L1566.2,1148.2
		L1566.2,1148.2z M1717,1012.8l-0.6,17.8l0.6,47.2l-2.8,127.5l7.9,53.7l4.8,41.8l-1.1,4.5H1711l-4.3-2.3l-6-0.8l-19.3,5.4l-5.1-2.3
		l-7.4,11.9l-3.1,2.3l-6.2-18.1l-9.4-9.3l2.8-20.1l-1.7-4l-5.4,0.8l-23.2,2l-68.6,2l-1.4-4.2l2.3-23.2l24.4-42.4l-1.7-5.4l2.6-0.8
		l2-8.8l-6.5-5.7l0.3-4.8l-5.7-12.7l-1.1-14.1l0.6-2.5l3.4-7.1l-0.9-11.9l-4.3-7.9l4.3-4l-4.5-7.1l1.7-5.4l2.8-16.1l8.5-7.1
		l-2.3-6.5l9.9-14.4l8.2-3.1l-0.3-6.8l-1.4-4.5l7.4-14.4l7.9-3.7l0.6-9l36.9-1.1l55.6-4.5L1717,1012.8L1717,1012.8z M1844.9,1001.7
		l-0.3,6.2l2.3,15.8l9.9,22.4l10.8,45.3l5.1,14.1l4,19l5.7,18.4l7.6,9.6l1.4,10.2l5.1,2l0.6,4.8l-4.8,13.6l-2.3,14.4l4.5,12.7
		l1.1,14.7l-2.8,7.4l2.5,3.1l4.2,2.3l1.4,6.2l-15.9-0.3l-19,1.7l-72.7,8.2l-29.7,4.2l-1.1,11.3l5.7,5.7l7.1,5.1l0.8,21.5l-14.7,7.1
		l-7.6-0.8l7.6-5.4v-2.8l-8.8-17l-6.5-1.7l-4.2,12.5l-3.7,7.6l-1.7-0.6h-8.2l-4.5-41.6l-7.9-53.2l0.8-39.9l2-87.7l-0.6-47.3
		l0.6-18.1l34.5-2.3l66.2-6.2L1844.9,1001.7L1844.9,1001.7z M1965.4,987.9l1.4,4l-6.2,2.5l-2.5,6.2l1.1,5.6l4,4.5l12.1,7.6l9-0.3
		l9,13.3l1.7,4.5l6.5,7.9l1.4,4.8l13.3,5.1l8.5,6.2l6.5,8.5l6.5,3.7l5.7,5.1l4,7.6l5.9,5.4l11.6,5.1l7.6,16.9l4.8,14.4l7.9,2
		l5.9,5.4l5.7,16.1l8.2,4.5l4.8-2.3l1.1,3.4l-9.3,17.5l1.4,7.3l-4.2,11.9l-6.5,28.2l2.3,17.8l-14.4-0.8l-15.8-2l-4,4.5l4.5,13.3
		l-0.8,11l-6.2-1.7l-0.6-8.5h-14.7l-15,2l-91.3,5.4l-21.8-0.8l-4-3.4l-7.1-12.1l-2.3-9.3l-4.5-2.5l-1.4-1.4l2.5-6.2l-1.1-15.5
		l-4.5-12.7l2.3-13.8l4.8-13.5l-0.6-7.1l-5.4-2l-1.1-9l-7.9-9.9l-5.4-17.5l-4.2-19.8l-4.8-13.5l-10.7-45.2l-9.9-22.6l-2.3-15
		l0.3-6.5l9.3-0.8l38.4-4.5l52.5-5.6L1965.4,987.9L1965.4,987.9z M677.7,859.4l96,11l105.6,12.4l90.4,7.9l-0.8,30.5l-4-0.3
		l-20.9,275.8l-80.2-5.1l-107.6-10.4l2,17.8l-34.5-4.2l-47.2-7.3l-3.4,27.1l-44.6-5.6l16.9-112.1l19.8-150.2L677.7,859.4
		L677.7,859.4z M434.1,818l171.8,31.1l69.6,10.2l-12.5,87.6L643.3,1097l-17,112l-71.9-7.6l-34.8-6.8l-47.6-28.3l-41.6-24.3
		l-34.3-21.5l-53.5-30.3l-1.4-2.8l0.8-4.2l7.4-6.2l10.5-1.1l4.8-6.8l2.5-8.5l-11-1.1l-1.4-2.3l1.7-4.5l0.3-16.4l5.4-2.5l8.5-8.2
		l1.4-13.9l4.5-10.2l4.5-5.1l9.6-4.5l4.8-3.4l1.1-6.8l-3.1-2.5l-2-3.1l-3.1-15.6l-7.9-14.1l1.1-9.3l4.2-6.8l1.4-35.3l0.8-4.2
		l0.8-19.2l5.9-4.8l3.1-0.3l3.4,3.1l7.4,1.1l3.4,7.4l7.9,0.6l5.9-10.7l7.4-46.7L434.1,818L434.1,818z M2079,963l6.5,5.4l5.1,9.9
		l13-2.3l35.5-4.2l7.6,2.3l35.2,20.9l28.5,23.4l-14.9,15.2l-7.3,17.2l-1.4,17.8l-4.5,2.3l-3.1,7.6l-6.8,1.7l-5.9,10.2l-7.6,7.6
		l-6.5,9.6l-4.5,2.3l-10.1,9.6l-8.2,0.6l2.8,9l-14.1,15l-6.5,4.5l-6.2,2.5l-5.9-2.8l-5.4-15.8l-7-6.5l-7-1.4l-4.2-13l-8.5-18.3
		l-11.8-5.1l-5.4-5.1l-3.4-7.3l-6.8-5.6l-6.5-3.7l-6.2-8.2l-9-6.8l-12.4-4.8l-1.1-4l-6.5-7.9l-1.4-4.2l-10.7-15.2l-9.6,0.3l-11-7.1
		l-3.4-3.4l-0.6-4l1.7-4.5l7.6-3.7l-2.3-5.6l18-7.6l25.9-12.7l20-2.5L2079,963L2079,963z M1609.5,927.1l5.1,8.2l-1.7,6.5l-8.8,7.3
		l-2.5,8.7l18.1,2l10.4-2.8l-2.5,8.7l-3.4,11.8l-0.8,5.9l-11.9,6.8l4,11.3l-2.5,11.6l-5.9,3.9l-0.6,9.3l-7.1,3.1l-8.2,16.4l1.4,4.8
		l0.3,4.8l-7.1,3.1l-11.3,15.8l2.3,6.2l-7.6,6.5l-3.1,16.6l-2,6.8l4,6.2l-4.2,3.9l4.8,8.7l0.8,10.7l-2.5,5.4l-75.7,2.3l-71.2,0.6
		l-1.1-28.5l-8.2-3.4l-8.5,3.4l-5.9-4.5l-0.8-107.7l-4-30.7l-0.3-24l-4.2-19.5l66.6-0.8l65.8-2L1609.5,927.1L1609.5,927.1z
		 M973.7,891.2l117.1,5.1l126.2,5.9l130.7,1.4l35.6-0.8l-0.3,12.1l1.7,19.2l4.2,18.6l0.3,24.2l4,30.7l0.8,106l-5.4-3.4l-9.6-2.5
		l-8.5-4.8l-4.8-6.2l-6.5-1.7l-5.6,5.1h-10.2l-1.7-3.9h-4l-7.6,5.4l-5.4-2.5h-12.7l-2,7.6l-4.5,2l-8.5-2.3l-9.6-3.7l-11.9-2.3
		l-3.1-5.9h-3.7l-5.4,11.8l-4.8,0.8l-12.4-5.1l-2-6.5l-7.6-0.3l-5.1-1.7l-7.1,5.9l-5.9-2v-6.5l-3.4-0.3l-6.2-8.7l-9.9-2l-7.1,4.8
		l-6.5-4.5l-11.9-1.7l-7.1-2.8l-10.7-1.4l1.1-9.9l-7.9-3.9l-0.6,3.1l-0.8,0.6l-4.5-0.3l-4.2-5.4l-2.5,5.9h-2.5l-4.8-2.5l-11.3-10.2
		l-0.6-4.5l2.5-50.8l5.1-68.5l-152.4-6.8L973.7,891.2L973.7,891.2z M41.2,400.7L150.6,434l72.4,18.6L200.3,541l-24.5,93.5l35.7,54.2
		l119.2,175.9l48.3,73.7l-1.1,8.8l7.9,14.7l3.1,15.2l2.8,4.2l2,1.7l-0.6,4l-4,2.8l-9.6,4.5l-5.4,5.9l-4.8,11l-1.4,13.3l-7.3,7.1
		l-6.5,3.1l-0.3,17.5l-1.7,5.4l2.8,4.8l8.5,0.8l-1.1,4.5l-4,5.6l-11,1.7l-40.1-2.5l-55.7-7.6l-28.3-4.2l-1.4-5.1v-26.5l-0.8-9
		l-7.3-11.9l-2.3-6.5l-11-11.9l-8.2-13.3l-7.6-0.6l-9-2.3l-0.8-2.8l4.2-1.7l-1.7-9l-4.2-5.9l-13.6-2.3l-11-5.9l-3.1-6.5l-7.3-13.6
		l-8.2-8.8h-8.2l-11-5.9l-12.7-5.1l-11.9-1.4l-6.8-7.6l1.4-5.4l5.1-20l2.3-5.4v-6.8l-4.5-2.8l-1.4-8.2l-4.2-7.3l-9.6-16.4l-3.7-8.8
		l-4.2-13.3l-4.5-15l-9-12.4l-1.4-8.2l2.3-11h3.1l5.9-4.5l3.1-10.2l-2.8-7.6l-7.6-1.4l-5.4-7.3l-5.9-10.4l-0.6-23.2l1.7-5.4l1.7-6.5
		l1.4-6.8L26,655.1v-5.9l0.8-1.4l0.8-9L24,627.4l-6.5-13.6l-7.6-12.7l-5.1-11l2.8-10.4l1.7-16.4l5.1-8.8l0.8-18.4l-3.1-10.2
		l-4.5-11.9L0,502.3l2.3-9l4.2-11.9l5.1-2.3l0.8-3.1l8.8-7.3l14.7-33.3l0.6-20.9L41.2,400.7L41.2,400.7z M158.3,1014.8l5.1,9
		l3.4,5.4l-4.2,0.6l-3.7-3.4c0,0-2-4.2-2-5.4v-6.2L158.3,1014.8L158.3,1014.8z M2020.2,874.6l3.7,0.9l-0.3,9.4l-1.1,4.5l-6.8,6.2
		l-4.5,10.2l-5.6-1.1l-6.8,2.6l-6.2,9.4l-4-0.6l-2.3-3.4l-3.1,1.1l-12.1,11.3l-2.3,8.8l-11.9,6.2l-12.1,10.2l-10.7,4.3l-12.4,7.9
		l-1.7,10.2l-7.1,1.4l-5.6,4.8l-0.6,13.6l-51.1,6l-37,3.4l-65.8,6.2l-106.1,7.7l-33.3,1.1l2.5-1.7l2.5-12.8l-3.4-10.2l11-6.5
		l1.1-7.1l3.4-12.2l8.5-26.9l1.4-15.9l0.8-0.6l34.7-0.6l38.4-2.3l0.3-11.1l9.9-0.3l85.8-9.4l152.4-14.7l29.1-4.3l21.4-0.6
		L2020.2,874.6L2020.2,874.6z M2311,824.9l5.6,13.5l10.2,18.3l6.8,6.8l1.7,6.5l-6.8,0.6l2.3,1.7l-0.8,11.8l-7.3,3.7l-1.7,5.9
		l-3.7,8.2l-10.4,4.5l-6.8-0.8l-4.2-0.6l-4.5-3.7l0.8,3.7v2.8h5.4l2.3,3.7l-5.4,17.8h11.9l1.7,4.5l6.5-6.5l3.7-1.4l-5.4,10.2
		l-8.7,13.5h-3.7l-3.1-1.4l-7.6,1.7l-14.7,6.8l-18.3,15l-9.6,13.3l-5.4,18.3l-1.4,6.8l-13.3,1.4l-14.4,4.2l-28.8-23.4l-35.8-21.7
		l-8.7-2.3l-46.8,5.9l-4.5-8.5l-7.9-6.2l-47.1,1.4l-20.9,2.5l-26,12.7l-19.2,7.6l-18.3,3.4l-37.8,3.9l0.3-11.6l4.8-3.7l7.6-2l2-10.7
		l11-7.1l11-4.2l12.7-10.4l12.4-6.5l2-9l11.6-10.7l2,2.8l7.1,0.6l6.8-10.2l4.8-1.1l7.3,0.8l5.1-11.3l7.1-6.8l1.4-5.1l0.3-9.9
		l12.4,0.3l108.6-15.8L2311,824.9L2311,824.9z M165,986.3l7.6,5.6l2.8,5.1l-1.7,4.2l-4.2-1.7l-2.3-2.8l-5.1-6.5h-0.3v-3.4L165,986.3
		L165,986.3z M1520.8,671.5l3.4,6.8l7.3,8.8l-2,6.8l1.4,11.9l6.5,20.7l20.3,22.1l15,9.9v11.6l3.1,5.4l19.5,1.7l5.4,2.8l-1.7,8.5
		l-6.2,17l-2.3,9.3l6.2,11.9l19.2,15.9l13,2l5.1,13l5.6,9.1l-2.5,7.4l4.8,12.7l5.9,7.1l6.8-0.8l3.1,4.5l-2,4.5v8.2l-5.4,2.8
		l-11.9,9.6l-1.4,16.7l-4.8,15l-11.6,3.1l-14.7-1.4l1.4-5.1l8.8-7.1l2.3-8.8l-6.2-10.5l-91.7,3.7l-65.8,2l-66.9,0.6l-1.4-16.1
		l2.3-113.3l-3.7-32.8l-7.3-5.9l-6.8-8.5l-5.9-9.1l1.4-6.5l5.1-4.5v-8.2l-4-3.1l-7.3-0.6l-8.8-8.5l-8.5-11l-6.5-10.2l0.3-6.2
		l-3.7-7.4l137.8-3.4l28.2-1.7L1520.8,671.5L1520.8,671.5z M107.1,932.7l10.2,5.9l8.8,3.4l-2.5,1.7l-12.7-0.6l-4.5-4.5l-2.5-4.2
		L107.1,932.7L107.1,932.7z M98.3,934.3l3.7,4.2l-0.6,3.7l-9-0.3l-1.7-3.4l-1.7-4.2L98.3,934.3L98.3,934.3z M226.3,453.2l82.7,19.5
		l109.3,24l73.4,14.7l-29.9,150.2l-15.3,84.3l-9.3,43.8l-5.9,31.4l-7.3,46.4l-4.8,8.8l-4.5-0.3l-3.4-7.4l-7.9-1.4l-3.7-3.1l-5.1,0.3
		l-2.5,2.3l-5.1,3.7l-0.8,20.6l-0.8,4.2l-1.4,35.1l-3.1,5.1l-47.2-72.1L214.7,687.6l-35.1-53.7l24.2-92.2L226.3,453.2L226.3,453.2z
		 M1872,739.2l8.2,4.2l5.1,12.7l15.8,0.3l5.1,5.6h6.5l6.8-3.9l7.1,1.4l5.4,4.8l7.1-7.6l5.6-3.4l3.7-0.6l1.4,6.5l5.4,3.1l7.3,5.6
		l0.6,17.2l2.5,5.4l7.3,3.9l1.4,6.2l8.5,10.7l7.1,7.6l9.3,5.6l-5.9,6.8l-11.6,10.2l-16.9,22l-0.3,5.4l-11,5.9l-15.8,10.2
		l-127.2,12.1l-85.7,9h-12.1l-0.3,11.6l-35.5,2l-31.3,0.6l5.9-4.8l6.8-3.7l0.3-9.3l2.5-5.1l-4.8-6.8l2.3-5.1l5.6-3.9l6.5-2.5l17.2,7
		l4.5-1.1v-6.2l-3.4-6.8l1.1-6.2l5.4-3.9l11.8-3.9l-4.2-10.4l2.8-2.8l3.4-9.6l7.9-3.7l15.8-2.8l10.4-1.1l3.9,4.5l6.2,2.8l5.1-9.9
		l7.6-3.1l4.8,3.4l2.3,3.9l6.8-1.7l-0.6-9.3l11-6.2l3.7,3.7l12.7,0.3l2.5-6.5l-0.6-6.2l7.3-10.4l13.8-10.2l1.4-12.7l7.3-1.1
		l10.7-5.1l7.9-5.6l-0.8-5.9l-3.4-4.2l1.4-5.9l11.8-0.6L1872,739.2L1872,739.2z M2338.3,866.9l7.6,15.5l1.1,12.4l-0.6,9.6l-9.6,4.2
		l-7.9,6.8l-3.1,3.4l-3.1-0.6l7.3-7.1l9-7.3l4.2-1.7l0.6-5.6l-1.7-17.2l-4.2-6.5l-1.7-5.4L2338.3,866.9L2338.3,866.9z M1034.4,707.4
		l61.3,2.5l114.7,3.4l123.8,1.7h14.7l9.9,9.6l7.3,0.6l2.3,2v5.9l-4.8,4l-1.7,8.5l6.5,10.2l6.8,8.5l7.1,5.6l3.4,31.3l-2,98.8
		l-35.6,0.8l-130.8-1.7l-126.3-5.9l-68.7-2.8L1034.4,707.4L1034.4,707.4z M1693.7,541.6l1.1,15.6l4.2,7.4l4.5,5.1l3.7,10.5l2.3,7.4
		l0.6,2.5l2.5,33.1l4,43.3l3.1,44.7l2,20.4l-2.3,15l0.8,9.3l5.1,9.1l1.4,15l-7.1,11.3l-5.1,10.8l-7.1,8.5l-1.1,13.9v11.3l-2.8,7.6
		l-3.4,3.7l2.3,5.7l1.4,3.7l-9.6,3.4l-6.8,4.5l-1.1,7.9l3.4,7.6v3.1l-1.4,0.6l-17.3-7.1l-7.9,2.8l-6.8,4.8l-2.8,6.2l-4.5,0.8
		l-4.8-5.9l-4.2-10.8l2.5-7.9l-5.7-9.6l-6.2-14.4l-13.6-2.3l-18.1-15l-5.7-10.5l2.3-8.5l6.2-17.5l2-9.9l-7.6-4l-18.7-1.7l-2-3.4
		v-12.5l-16.1-10.5l-19.8-21.5l-6.5-19.8l-0.8-11l2.5-7.9l4.5-3.7l-1.1-5.7l1.1-3.4l4-3.4l5.1-1.7v-7.9l1.4-3.7l5.9-4.5l0.6-12.2
		l-5.4-5.1l-1.7-3.1l3.7-11.6l14.7-3.7l5.4-1.7l6.8-5.4l2.3-7.6l4.8-10.5l2-9.3l-2-6.8l-11-9.6l-1.1-4l-3.1-4l-6.2-2.5l-0.6-5.9
		h34.8l49.3-2.8L1693.7,541.6L1693.7,541.6z M709.7,613.5l223.4,24.3l101.7,9.9l-16.1,243.5l-40.4-1.7l-98-8.5l-105.9-12.5l-96-11
		l5.4-38.8L703.4,676L709.7,613.5L709.7,613.5z M2189.2,675.7l9.6,3.4l-1.7,8.2l24.3,8.8l3.9,5.1l-2.3,9.3l-3.7,3.7l-1.4,4.8
		l1.4,6.8l5.6,3.7l11,4l8.2,2.8l13.8,2.5l6.2,5.9l9,1.1l2.5,3.4l-1.1,13.3l3.9,3.1l-1.4,5.4l3.4,2.3l-0.6,4l-7.6-0.3l0.3,4.5
		l6.5,4.2l0.3,4l5.1,5.1l1.4,7.1l-7.3,4l4.5,4.2l16.4-4.8l10.4,17.6l-160.5,34.8l-108.9,15.9l-13.5-0.3l-6.2-0.8l-7.1,5.4l-20.6,0.3
		l-29.1,4.5l-18.9,1.7l11.6-7.4l11.6-6.5v-5.9l16.1-20.7l11.6-10.5l6.2-7.1l10.2,12.2l10.7,2.5l7.6-2.8l5.6-4.2l6.8,3.4l13-3.7
		l4.8-12.5l6.8,2l9-6.5l4.5,1.1l7.9-9.1l0.6-7.6l-2.3-3.4l13.5-29.7l5.1-14.7l1.4-13.3l2-0.6l3.1,4.8l4.2,3.4l11-0.6l4.8-22.9
		l8.5-1.7l2.3-7.4l7.9-6.2l3.1-5.9l5.1-12.2l0.3-13l10.2,4l18.6,8.8L2189.2,675.7L2189.2,675.7z M494.5,512.6l35.3,7.1l98,17.2
		l-5.1,29.9l-6.2,36.9l90.9,9.9l-6.5,62L681.1,818l-5.4,38.6l-69.5-10.2l-171.1-30.7l4.8-25.9l9.3-43.4l15.2-84.6L494.5,512.6
		L494.5,512.6z M2042.9,617.6l12.2,54.7l12.2-2.3l31.7-3.7l6.8,34.6l16.4-17l7.4-2.3l4.5-4.3l4.2-6.2l3.1,0.9l8.8-0.6l13-10.2
		l4.2-1.4l3.7,2.8l7.4,3.4l8.5,8.5l-1.1,12.2l-15.3-7.4l-13.6-5.1l-0.3,16.7l-7.4,16.2l-8.2,6.8l-2.3,6.5l-8.5,1.4l-4.8,23l-7.9,0.6
		l-3.1-2.8l-3.4-5.7l-6.2,1.4l-1.4,14.5l-5.1,14.5l-14.2,31.2l2.5,4l-0.3,5.7l-6.2,7.1l-4.5-1.1l-8.8,6.5l-7.9-2.3l-5.1,13.9
		l-10.8,2.8l-7.1-3.7l-7.1,5.4l-6.5,2l-9.1-2.3l-10.8-12.8l-9.9-6.2l-7.1-7.1l-8.2-10.5l-1.4-6.5l-7.9-4.8l-1.7-3.7l-0.6-15.9
		l0.8,0.3l6.8-0.6l5.1-2.8v-6.2l4.8-4.3l0.3-14.7l2.5-10.2l3.1-2l1.1,0.9l2.8,3.1l4.8,1.4l3.1-3.7l-2.8-8.8v-4.5l8.8-13l3.4-3.7
		l5.7,1.4l7.4-5.1l8.8-9.6l6.8-11.6l0.6-15.9l1.4-13.6v-13.9l-3.1-8.5l2.5-3.7L2042.9,617.6L2042.9,617.6z M1834.4,576.2l4.5,43.7
		l13.9,120.2l-1.7,8.2l3.7,4.5l0.6,3.7l-6.5,4.5l-10.2,4.8l-9.1,1.1l-1.4,13.5l-13.3,10.2l-8.2,11.3l0.6,6.8l-1.4,4h-9.9l-4-4.8
		l-14.8,8.5l0.6,8.7l-2.6,0.6l-1.4-2.5l-6.8-4.8l-10.2,4.2l-4,8.2l-3.4-1.7l-4.5-5.1l-12.5,1.4l-16.2,2.8l-7.1,3.7v-7.3l1.1-13.3
		l6.5-8.2l5.1-11l7.7-11.8l-1.4-16.4l-5.1-8.7l-0.9-9l2.3-15l-2-20l-2.6-35.5l-7.1-84.9l8.5,2.3l4.3,2.8l3.1-0.8l6-5.4l7.1-5.1
		l40.6-3.1L1834.4,576.2L1834.4,576.2z M2319.5,731.4l-0.6,7.9l-8.2,10.8l-1.1,13l1.4,9.6l-5.1,14.2l-6.2,5.4l-4.2-13l1.1-15.3
		l4.5-11.9l2-9.3l-0.3-4.8L2319.5,731.4L2319.5,731.4z M2028.1,533.3l12.1,72.5l1.7,7.9l-3.7,3.4l-3.4,5.1l3.4,9.1v13l-1.4,14.2
		l-0.6,15.3l-6.2,10.5l-8.4,9.3l-5.9,4.2l-6.2-1.4l-3.7,4.2l-7,10.2l-3.1,4v6.2l2.5,7.6l-1.1,1.1l-2-0.6l-2.8-3.1l-2.8-2l-5.4,3.7
		l-3.1,11.9l-0.3,13.6l-4.8,4.2v5.9l-3.4,1.7l-5.6,0.3l-2.3-0.6l-7.3-5.7l-4.5-2.8l-1.7-7.6l-6.8,1.1l-6.5,4l-5.1,5.7l-4.2-3.7
		l-8.7-1.4l-6.8,4h-4.8l-5.1-5.7l-15.2-0.3l-4.8-11.9l-10.1-5.1l-6.5,2.3l-11,0.6l-13.5-116.3l-4.8-43.9l65.1-9.6l6.2,3.7l7.3,4.2
		l14.6-1.7l9.6,8.8l5.9-0.6l15.5-7.4l8.2-1.4l9-2.3l11.3-11l9.6-10.5l11-6.5L2028.1,533.3L2028.1,533.3z M2284.5,727.4l2,6.5
		c0,0,2,7.9,2,8.8s-2.5,3.4-2.5,3.4l-3.1-5.4l-0.6-5.1l-3.1-7.1L2284.5,727.4L2284.5,727.4z M2270.6,631.4l4.2,13l6.5,15.6
		l10.8,47.6l16.4-0.8l17.8-3.1l-1.4,13.6l-4.8,10.8l-21,8.2l-2.8-1.1l-9.1-11.9l-4.5,2.3l-11-1.4l-7.4-9.6l0.8-9.6l4.5-3.7l-4.5-5.1
		l-3.1,5.4l-1.4,0.6l-0.8-10.2l5.9-2.8l-1.4-15.6l-5.1-0.8l-0.8-3.1l3.7-10.5l4.2-4.5l-1.4-2.8l-5.4,4.5l-5.4,3.7
		c0,0-1.4,4.2-1.4,5.9c0,2-4.2,6.5-4.2,6.5l3.7,3.7l0.6,5.9l-3.7,15l5.9,15.6l6.8,5.9v5.1l4.2,5.9l-2.8,5.9l-5.9-0.8l-8.8-2.8
		l-12.2,0.3l-9.6-3.1l-5.7-3.7l-0.8-2.3V717l5.1-7.4l2-9.3l5.9-9.3l-10.5-7.1l-5.9,7.4l-16.4-5.9l1.7-8.2l-13.6-4.5l-3.7-4l-5.4-5.1
		l-7.6-4l-4.2-3.1l-5.9,1.7l-5.7,4.2l-7.4,5.9l-7.4,0.6l-4.5-2l-5.1,7.6l-4,4.2l-7.1,2l-13.6,13.9l-5.7-29.5l106.5-21.5
		L2270.6,631.4L2270.6,631.4z M957.1,512.6l100.6,6.2l117.2,6.8l30.2-1.7l6.2,5.7l17,11.6l11.9-3.4l10.5-1.1l7.3-0.3l6.2,3.4
		l13.6,4.2l8.2,4.5l1.4,4.5l2.8,6.5l7.6-0.6l2.8,15l7.9,22.3l2.8,13.3l6.5,10.5l1.4,14.1l4,11.6l1.1,18.9l5.4,14.7l4,7.6l-0.3,6.5
		l7.3,11l6.2,8.5h-12.7l-123.7-1.7l-114.7-3.4l-61.3-2.8l4-59.6l-93.5-9.3L957.1,512.6L957.1,512.6z M2285.4,623.2l-0.3,3.1
		l-1.4,6.5l-1.4,5.6l6,10.2l6.6,2.8l5.4,10.2l5.1,13.3l10.3,6.8l2.9-1.4l6.6,20.6l-17.1,3.1l-14.3,0.8l-10.6-45.4l-6.6-15.8l-4-11.6
		l0.6-0.8l5.7-4.8l4.9-2.8L2285.4,623.2L2285.4,623.2z M2223.3,688.1l6.4,4.1l-3.5,6.9l-3.2-4.4l-2.9-2.2L2223.3,688.1L2223.3,688.1
		z M1530.8,490.5l2.5,9.3l5.9,5.9l0.8,2l-5.6,8.5l0.8,11.3l7.3,11.6l8.7,4.5l6.8,0.8l2.5,5.1l0.6,6.8l7,2.8l2.5,3.1l1.4,4.5
		l10.7,9.3l1.7,5.4l-2,8.5l-4.8,10.5l-1.7,6.8l-5.9,4.5l-4.5,1.4l-16.1,4.2l-4.5,13.6l2.3,5.1l4.8,4.2l-0.6,9.9l-5.4,4l-2,5.1v6.8
		l-3.9,1.1l-4.8,4l-1.4,4.8l1.1,4.8l-3.7,2.8l-6.5-7.6l-3.9-7.9l-23.4,2.3l-28.2,1.7l-138.7,3.4l-4.5-12.2l-1.1-19l-3.9-11.9
		l-2-14.7l-6.2-10.5l-2.8-13l-7.6-22.1l-3.1-15.9l-3.9-5.4l-3.7-8.2l4.8-10.8l3.4-17.3l-7.6-6.2l-0.8-6.8l2-6.8l5.1-0.8l172.2-1.7
		L1530.8,490.5L1530.8,490.5z M2301,518.1l15.7,7l17.9,5.3l7,3.4l0.3,5.1l-1.4,7.6l1.1,12.7l-5.9,5.3l-3.1,2.8l1.4,1.4l7.6-0.8
		l3.1-2.3l4.5,9.6l0.6,26.5l1.7,3.1l-3.1,15.5l-8.7,18.3l-7.6,11.3l-2.2,13.5l-5.9,6.8h-2.2l-0.8-7.6l2.2-2.8l-0.6-4.2l-11.2-1.7
		l-13.4-6.5l-9-8.2l-2.8-5.6l2-7.3l0.3-4.2l7.6-3.7l4.8-7.9l4.8-6.8l9.2-9v-3.4l-17.1-11.5l-2.8-7.6l-7.6-0.8l-0.3-2.5l-2-6.2
		l6.2-3.1l0.6-8.2l-3.6-3.7l0.6-3.4l5.3-8.7v-8.7L2301,518.1L2301,518.1z M2263.2,487.7l6.5,6.5l8.8,1.1l5.6,15.8l6.8,5.3l7.9,1.1
		l0.3,0.3l-7.3,9v8.7l-5.4,8.7l-0.6,5.3l3.7,3.7l-0.6,5.3l-6.8,3.1l2.8,9.6l0.6,3.1l7.9,0.8l2.5,7l16.7,11v1.1l-8.8,8.4l-4.2,6.2
		l-4.8,7.9l-7.6,3.4l-4,0.8l-5.9,3.7l-4.5,3.9l-63.3,12.1l-109.3,22l-31.9,3.9l-11,2l-14.4-63.1l-12.1-72.9l11.9-7.3l3.7-1.4
		l16.1-15.5l2,19.4l94.6-18.3L2263.2,487.7L2263.2,487.7z M659.8,350.9L796,370.7l166.9,18.4l-4.2,50.5l-4.2,71.7L942,635.6
		l-7.6-0.8L699.1,609l-78.8-8.5l5.6-33.9l19.5-115.8l10.7-68.3L659.8,350.9L659.8,350.9z M1811.1,325.2l8.7,6.5l2.8,1.4l1.7-1.7h7.6
		l15.5,9.6l12.7,4.2h7.3l3.7,7.4l7.3,6.2l-0.6,4.5l-4.5-0.8l-2.3,2.3l2.3,5.9l3.7,2.3l4.5,6.5l0.8,28.3l-6.8,4.5l-1.7,7.4l-2.3,9.6
		l-9.6,3.7c0,0-0.8,12.4-1.4,14.1s6.8,5.9,6.8,5.9l4.2,1.7l3.1-1.7l7.6-10.5l5.4-14.1l11-5.1l4.5-3.1l7.3,5.1l6.8,9l6.5,25.7l9,23.2
		l1.1,25.7l-5.4,2.8l-2.3-0.6l-0.6-1.7l-3.1-1.7l-4.2,8.5l-0.6,10.2l-3.1,0.8l-4.5,4.5l0.6,14.4l-5.6,4.8l-5.9,10.5l-0.6,4.2
		l-0.3,1.7l-33.8,4.8l-27.9,4.2l-0.6-3.1l-53.9,5.4l-36.7,2.8l9-8.8l0.8-7.6l6.8-14.7l2.8-17l2.3-13.3l-4.2-13.6l-8.2-18.4l-10.2-17
		l0.8-7.6l0.8-2.3l2.3-6.8l-1.4-3.1l-1.7-13.3l4.5-11.3l3.1-17.2l-2.3-6.8v-3.1l6.5-1.4l1.7-7.4l-1.7-2.3l0.6-2.8l5.1-5.4l7.6-3.1
		l2.8-11.9l5.4-2.3l2.3,2.3l-1.7,6.8l-3.7,6.8v11.9l1.7,0.6l10.2-5.9l-0.8-15.6l-0.8-4.5l0.8-5.9l4.2-5.1l7.3-0.8l7.3-2.3l-1.4-2.3
		l-5.9-1.4l-2.8-0.8l-0.8-10.2l8.2-6.5L1811.1,325.2L1811.1,325.2z M2308.5,283.2l2,13.9l6.8,18.4l2.3,14.2l-2.8,11.9l7.4,12.7
		l2.3,5.7l-2.5,9.1l10.5,4.8l7.6,28.9v16.4l-1.7,30.9l2.3,15.3l2,10.2l4.2,20.7v22.9l-3.1,6.5l5.9,7.6l1.4,2.5l-5.4,5.1l0.8,3.7
		l3.7-0.8l4.2-3.7l6.5-7.4l3.1-1.7l4.5,1.7l6.5,0.6l22.4-11l8.2-7.6l3.7-4.2l11.9,4.5l-9.6,10.2l-11,8.2l-20.1,15l-7.4,2.8
		l-16.4,5.4l-11.3,3.1l-2.8-1.1l-0.8-10.8l1.4-7.6l-0.6-6.8l-8.5-4.2l-18.4-5.7l-17-7.4l-1.7-1.1l-7.6-0.8l-5.7-4.2l-5.9-16.7
		l-9.3-1.4l-6.8-6.8l-108.7,22.9l-89.4,17l-1.4-18.4l4.5-3.4l3.7-3.1l2.8-4.5l5.1-3.1l5.4-5.1l1.4-4.5l5.9-7.6l3.1-2.8l-0.6-2.8
		l-3.7-8.8l-5.1-0.6l-5.4-17.3l8.2-5.1l12.5-4.2l11.3-3.7l9.1-1.4l17.8-0.6l5.4,3.7l4.5,0.6l5.9-3.7l7.4-3.1l14.7-1.4l5.9-5.1
		l5.1-9.1l4.5-5.4h5.9l5.4-3.1l0.6-6.5l-4.2-5.9l-0.8-4.2l3.1-5.9v-4.2h-5.1l-5.1-2.3l-2.3-3.1l-0.6-7.4l16.4-15.6l1.7-2.3l4.2-8.2
		l8.2-12.7l7.6-10.5l5.9-6.8l6.8-5.1l8.8-3.4l15.6-3.7l9.1,0.6l12.7-4.2L2308.5,283.2L2308.5,283.2z M970.7,330.2l160.7,11
		l160.7,4.8v7.6l-3.7,4.2l-5.6,4.2l-0.3,6.2l3.1,6.2l11.6,9.6l1.4,7.6V493l-6.5,1.1l-2.5,9l1.1,8.5l7.3,5.6l-3.4,15.2l-5.1,11.6
		l4.2,9.3l2,3.1l-3.7,0.3l-2-4.5l-1.7-5.6l-9.3-5.1l-13.6-4.2l-7.1-3.7l-8.2,0.3l-11,1.1l-10.7,3.4l-15-10.7l-7.6-6.8l-30.8,2.3
		l-117.2-6.8l-100.6-6.2l4.2-70l7.9-95.9L970.7,330.2L970.7,330.2z M1541.5,275l5.4,4.2l-3.1,3.1l-5.4,8.8l-1.7,5.4l2.8,1.7l5.1-2.8
		l3.1-0.6l7.6,2.3l1.7,3.1l3.1,0.6l1.7-3.1l11.3,15l23.2,3.4l23.2,6.2l7.3,3.1l34.8,7.4l4.5,6.5l10.2,3.4l4.8,28.9l4.5,4l4.2,2.5
		l-3.1,6.5l-5.1,4.5l-5.9,13.3l-3.7,6.8l0.6,5.1l4.2,0.8l3.1-5.4l4.2-2.3l2.3-6.5l5.4-5.1l7.6-11.3l11.9-17.8l2.3-1.4l0.8,2.8
		l-0.6,6.5l-8.2,19.3l-7.6,16.1l-1.4,9.1l-1.7,7.4l2.3,3.7l-0.6,7.6l-5.4,6.8l-1.4,5.1l1.7,10.2l1.7,9.6l-4.2,7.4l-2.3,8.2l-2.8,8.8
		l3.1,6.8l1.7,17.3l4.5,12.7l-0.6,8.5l-44.9,5.1l-49.5,2.8h-35.9l-2-4.2l-8.2-1.1l-7.3-3.7l-6.5-10.5l-0.8-10.2l5.7-8.2l-1.4-4
		l-5.9-6.2l-2.3-9.3l-1.7-19.3l-5.9-7.1l-19.8-12.7l-10.7-15.3l-9.6-2.8l-6.2-7.9h-9l-8.2-9.3l-1.4-18.4l0.3-10.8l4.2-8.8l-2.3-9.1
		l-7.1-7.9l5.1-15.3l14.7-10.8l4.5-5.4l-0.6-22.9l0.6-7.9l6.8-7.9l2.8,2l8.2,1.4l8.2-1.7l20.9-9.1l8.2-5.4L1541.5,275L1541.5,275z
		 M456.9,60.8l36.7,7.3l-12.4,60.7l9,21.4l-3.7,13.1l5.6,14l9,4.3l13,28.9l7.3,9.8l1.7,3.3l9.6,3.2l1.1,5.5l-19.8,48.3l0.6,8.7
		l8.2,9.6l4.8,0.6l14.4-9.9l0.6-1.1l0.8,0.3l0.3,13.3l7.6,37l9.3,7.3l7.1,8.2l-2,8.2l2,11.3l5.6,3.1l6.8-5.6l6.8-0.6l9.6,4.2l7.1-2
		l10.7-0.3l11,4.5l9-1.4l2-7.3l5.9-2.8l2.3,3.1l1.1,7.3l7.6,6.8l-10.7,68l-13.8,82.4l-98.3-17.2l-111.6-22.3l-58.5-12.7l24.9-99.6
		l3.4-11.9l6.8-16.4l-3.1-6.5l-7.3,0.3l-1.7-2.8l1.1-3.1l1.1-8.7l12.1-15l5.1-2.3l3.4-3.1l2.5-8.2l12.7-18.6l11-12.4l0.6-11
		l-9.9-7.5l-3.4-12.5l1.1-27.3l9.6-45.8l12.7-58.9L456.9,60.8L456.9,60.8z M2420.1,449l4.6,17l2.3,12.5l1.7,11.9l-19.9,9.9
		l-14.8,3.1l-7.7,4.2l-2.3-1.7l-5.4,5.9l-10.3,9.1l-14.2,9.6l-4.8-6.2l2.6-5.9v-23.5l-4.3-20.7l-1.7-8.8l62.1-13.3L2420.1,449
		L2420.1,449z M1355.7,131.2l6.5,1.4l5.4,2.3l2.3,15.5l4.2,17.2l4.5,4.5h13.6l0.8,4.2l17.8,0.8v5.9h13.6l0.8-3.7l3.1-3.1l6.5-1.7
		l3.7,2.8h8.2l11,7.3l15,6.8l6.8,1.4l1.4-2.8l4.2-1.4l1.4,8.2l7.3,3.7l1.4-1.4l3.7,0.6v5.9l7.3,2.8h8.8l4.5-2.3l9-9l7.3-1.4l2.3,5.1
		l1.4,3.7h2.8l2.8-2.3l25.1-0.8l5.1,8.8h1.7l2-3.1l12.4-1.1l-1.7,6.5l-11,5.1l-26,11.6l-13.6,5.6l-8.8,7.3l-6.8,10.2l-6.5,11
		l-5.1,2.3l-12.7,14.1l-3.7,0.6l-10.7,8.2l-7.3,8.5l-0.6,8.5l0.6,22.6l-3.4,4l-15.2,11.3l-6.2,17.2l7.9,8.8l2,7.6l-4.2,8.5l-0.3,11
		l1.4,19.8l9.9,10.7h9l5.6,7.9l9.6,2.5l10.2,15l20.3,13l5.1,5.9l1.4,16.9l-59.9,2l-170.2,1.7V390.5l-2-9l-11.6-9.9l-2.5-4.8v-4.2
		l5.1-3.7l4.5-5.1v-15l-1.1-18.1l-5.1-20.6l-5.1-38l-1.4-28l-5.4-9.4l-4.5-14.2v-29l1.7-11l-5.1-15.6l85,0.1l0.8-23.2L1355.7,131.2
		L1355.7,131.2z M2439,444.9l4.2,3.7l9.5,12.3l7.8,12.5l-7.8,4l-3.6-0.6l-3.1,5.1l-6.7,5.4l-7.8,3.1l-1.7-11.7l-2.2-12.5l-4.5-17.1
		L2439,444.9L2439,444.9z M142.3,153.4l6.8,1.4l2,7.1l11.6,1.7l5.8,9.9l-0.6,26.3l15,10.9l17.7,0.7l5-4.3l12.6,3.6l3.1,0.2l13.7,5
		l5.5,4l13.2,0.8l3.7-1.5l6.8,4.5l12.7,1.4l14.4-5.2l3.1,3.7l41.9-1l43.3,9.8l37,10.8L420,256l9.6,7l-0.6,9.2l-10.5,11.3l-11,16.1
		l-2.3,3.1l-2,7.6l-2.5,2.3l-5.4,2.5l-13.3,16.1l-1.1,9.3l-1.7,4.2l3.7,5.1l7.1-0.3l2,3.7l-6.8,15.6l-3.4,12.5L357,480.8l-48.1-10.5
		L231.1,452l-79.9-20.4l-109-33.7l-7.7-9.9l3.7-17l2.3-24.3l5.4-8.2l22.9-35.7l18.4-38.5l14.1-39.9l9.1-18.4l9.1-28.3l6.5-18.4
		L142.3,153.4L142.3,153.4z M2488.2,468.1l5.1,4.3l-6.8,2.8l-6.2,2.8l-3.1-2.6l6.5-7.4L2488.2,468.1L2488.2,468.1z M2451.1,385.5
		l8.2,12.5l-6.8,14.8l-0.8,4.3l5.4,7.4l3.1-2.3h5.1l6.5,7.4l11,17l10.2,1.4l6.5-2.8l5.1-5.1l-2.3-7.7l-5.9-4.5l-4.2,2.3l-2.8-3.7
		l1.4-1.4l5.9-0.6l5.1,2.3l5.4,6.8l2.8,8.2l0.8,6.8l-11.9,4.3l-11,5.4l-11,12.8l-5.4,4.3v-2.8l6.8-4.3l1.4-5.1l-2.3-8.8l-8.2,4.3
		l-2.3,4.3l1.4,6.5l-5.9,2.6l-8.2-13.3l-9.6-12.2l-5.7-4.5l-31.7,8l-62.3,13.6l-2-13.9l1.7-30.1l39.1-7.1l51.8-13.3l5.1-8.2
		L2451.1,385.5L2451.1,385.5z M2511.4,466.4l2.8,0.3l2.8,6.5l-3.7,1.4l-11,0.3l1.4-1.7l6.2-2L2511.4,466.4L2511.4,466.4z
		 M2385.1,263.9l0.8,16.4l5.4,7.6v10.2l-9.9,12.4l-7.9,3.1v4.5l3.1,5.1v24l-2.3,26.3l-0.6,13.3l2.8,4l-0.6,12.1l-1.7,5.4l2.8,3.1
		l-32.6,5.9v-15l-8.2-30.5l-9.3-4.2l2-7.3l-2.5-6.5l-7.1-12.4l2.8-11l-2.3-15l-6.8-18.4l-2-13.8L2385.1,263.9L2385.1,263.9z
		 M2400.2,243.2l33.1,105.5l0.8,8.4l11.6,3.1l1.4,8.7l7.6,3.4l-3.1,9l-2,2.3l-11.3,5.3l-4.8,8.2l-39.1,9.9l-14.4,3.4l-2.8-3.1
		l1.4-4.2l0.6-13.2l-2.8-3.9l0.6-13.2l2.3-25.9v-24.2l-3.1-5.3v-2l6.8-2.5l11-13.5V287l-5.4-7.9l-1.4-23.7l0.6-6.4l4.2-5.3l2.8,2.8
		l1.7,1.4l1.7-4.5L2400.2,243.2L2400.2,243.2z M495.9,67.7l92.3,19.4l52,9.6l91.2,14.9l82.7,11.3l82.5,9.9l87,8.7l-2.5,40l-15,161.1
		l-3.7,42.9l-166.9-18.6l-138.4-20l-4,31.6l-5.4-4.8l-1.1-7.1l-3.7-5.4l-9.3,4.2l-2,7.1l-6.5,0.8l-10.7-4.5l-11.6,0.3l-6.8,2l-9-4.2
		l-8.5,0.6l-5.9,5.4l-2.5-1.7l-2-9.6l2-9l-7.6-9l-9.3-7.1l-7.1-35.5l-0.3-14.9l-4.5-2.3l-1.7,2.8l-12.7,9l-3.4-0.3l-6.5-7.9
		l-0.6-7.9l19.8-48.4l-1.7-7.5l-9.9-3.2l-1.1-2.6L516,208l-13-29.4l-9-4.5l-5.1-12l3.7-13.1l-9-21.3L495.9,67.7L495.9,67.7z
		 M1669.5,233.6l3.1,3.1l-0.8,2.8l-10.4,2.8l-4.2,8.8l-6.5,2.3l-1.4,6.8l-6.8,9l-0.8,7.4l2.3,1.4l2.8-3.1l10.2-8.2l3.7,3.7h6.5
		l9,2.8l4.2,3.1l4.2,8.8l7.6,7.6l11-0.6l4.2-2.8l4.5,3.7l4.5,1.4l3.7-2.3h3.1l4.5-2.8l11.3-10.2l9.6-3.1l18.6-0.8l12.7-5.4l7.3-3.7
		l4.2,0.6v16.1l1.4,0.8l8.2,2.3l5.4-1.4l17.2-4.5l3.1-3.1l4.2,1.4v19.8l9,8.8l3.7,1.7l3.7,2.8l-3.7,0.8l-2.3-0.8l-10.4-1.4l-5.9,1.7
		l-6.5-0.6l-9,4.2h-5.1l-16.4-3.7l-14.7,0.6l-5.4,7.4l-19.7,1.7l-6.8,2.3l-3.1,8.8l-3.7,3.1l-1.4-0.6l-4.2-4.5l-12.7,6.8h-1.7
		l-3.1-4.5l-2.3,0.6l-5.4,12.4l-2.8,11.3l-9,19.5l-3.7-2.3l-3.7-3.1l-5.1-29.4l-10.4-3.7l-4.8-6.5l-35.5-7.9l-7.9-3.1l-22.8-6.2
		l-22-2.8l-11-15l2-1.4l7.6-2.3l10.2-6.5v-2.8l1.7-1.7l16.9-2.8l6.8-5.4l12.4-5.9l0.6-3.7l5.4-8.2l5.1-2.3l3.7-5.1l6.5-6.5l12.4-6.8
		L1669.5,233.6L1669.5,233.6z M2480.3,85.7l4.2,0.6l17,6.8l5.4,2.8l25.8,84.5h17l2.3,5.4l0.6,13.6l8.2,6.5h2.3l0.6-1.4l-1.4-3.1
		l7.9-1.4l5.4,5.9l6.5,10.5v5.4l-5.9,13.3l-5.4,1.7l-9.6,8.8l-13.6,15.5h-3.7c-1.7,0-2.8-5.9-2.8-5.9l-5.1,0.6l-2.8,4.2l-6.8,4.2
		l-2.8,4.2l4.5,4.2l-1.4,1.7l-1.4,7.6l-5.4-0.6v-4.5l-0.9-3.7l-4.2,0.8l-5.1-9l-5.9,3.7l3.7,4.2l0.9,3.1l-2.3,3.7l0.9,8.8l0.6,4.5
		l-4.5,7.3l-8.2,1.4l-0.8,8.2l-15,8.8l-3.7,1.4l-4.5-4.2l-8.8,10.2l2.8,9l-4.2,3.7l-0.6,12.4l-3.1,17.8l-6.2-2.5l-1.4-8.8l-11.3-3.1
		l-0.6-7.1l-33.1-105.8l3.7-0.5l4.2,1.1v-7.3l2.3-15.5l7.4-13.3l4.2-11.3l-5.4-6.8v-17l2.3-2.8l2.3-7.6l-0.6-4.2l-0.6-13.6l5.1-13.6
		l8.2-25.2l5.9-11.9h3.7l3.7,0.6v3.1l3.7,6.5l7.6,1.7l2.3-2.3v-2.8l11.3-8.2L2480.3,85.7L2480.3,85.7z M985.7,142.3l71.3,6.1l75,3.7
		l52.7,1.7l81,1.7l5.1,15.6l-1.7,10.9v29.4l4.5,15l5.4,9l1.4,27.4l5.1,38.4l5.1,20.6l1.1,17.5v3.4l-161.1-4.8l-160.8-11L983.1,183
		L985.7,142.3L985.7,142.3z M1856.8,299.5c0,0,3.7,4.8,4.5,5.4c0.8,0.3,1.1,4.5,1.1,4.5l-3.7,3.4l-9-0.6l-1.7-7.1l-2.8-1.4l0.8-3.1
		l4.5-0.6L1856.8,299.5z M2515.1,281l4,3.1l1.7,6.8l-4.8,2.5l-5.1-8.2L2515.1,281L2515.1,281z M2539.5,260.4l2.3,5.1l-2.5,2.3
		c0,0-0.6,4.8-0.6,5.7s-3.7,0.6-3.7,0.6l-5.1-5.4l4-6.2L2539.5,260.4L2539.5,260.4z M225.5,0l12.4,4.2l27.4,7.6l24.3,5.4l56.4,16.1
		l64.9,16.1l42.3,9.8l-13.5,49.5l-12.7,58.7l-9.6,45.8l-1.1,25.9l-36.4-10.5l-43.1-9.8l-40.9,0.9l-3.1-4.3l-16.1,5.9l-11-1.2l-7.3-5
		l-4.8,1.8l-11.7-0.7l-4.9-3.7l-14.6-5.1l-3.3-0.5l-13.5-3.9l-5.4,4.7l-15.9-0.7l-13-9.4l0.5-24.7l-6.5-12.1l-11.6-2l-1.1-6.8
		l-7.1-1.7l-8.2-1.4l-5.1,2.8l-6.5-8.2l0.8-8.2l7.6-0.8l4.5-11.3l-7.3-3.1l0.6-10.4l12.4-1.7l-7.6-7.6l-4.2-20l1.7-8.2V49.9l-5.1-9
		l6.5-26.5l5.9,1.4l6.8,8.2l7.6,7.3l9,5.4l12.7,5.9l8.7,1.7l8.2,4.2l9.6,2.8l6.5-0.6V44l3.7-3.1l5.9-3.7l0.8,3.1l0.8,5.1l-6.5,1.4
		l-0.8,5.9l5.1,4.2l3.1,6.8l1.7,5.4l4.2-0.6l0.6-3.7l-2.8-3.7l-1.4-9l2.3-5.1l-1.7-4.2v-7.3l5.1-10.1l-3.1-7.3l-6.8-13.5l0.8-2.3
		L225.5,0L225.5,0z M1637.9,193.4l1.4,1.4l-14.4,14.4l-9.3,5.4l-5.9,2.5l-4.8-2.8l5.1-5.9l6.2-2.3l15.2-11L1637.9,193.4
		L1637.9,193.4z M216.4,15.5l2.3,4.2l-4.2,4.8l1.7,2.3l-2,5.6l-3.9,1.1c0,0-2.5,0.3-2.5-0.6s4.2-7.3,4.2-7.3l-4.8-1.7l-0.8,4.2
		l-2,1.7l-4.2-6.5l-1.4-6.8l5.6-0.6l1.4,3.9l4.2-4.5L216.4,15.5L216.4,15.5z"/>
</g>
<path class="st2" d="M1697.1,578.2c0,0,205.6-62.7,366.9,30.1"/>
<g>
	
		<linearGradient id="SVGID_1_" gradientUnits="userSpaceOnUse" x1="1994.2797" y1="763.4685" x2="1994.2797" y2="783.5599" gradientTransform="matrix(6.846786e-02 -0.9977 0.9977 6.846786e-02 1033.2695 2498.0283)">
		<stop  offset="0" style="stop-color:#319BCB"/>
		<stop  offset="1" style="stop-color:#45BCF2"/>
	</linearGradient>
	<path class="st3" d="M1946.6,561.7c0.3,0.1,0.5,0.3,0.6,0.6l5.9,22.6c0,0,0,0.1,0,0.1c0,0.4-0.3,0.8-0.7,0.8l-2.8,0.2
		c-0.3,0-0.5-0.1-0.7-0.3l-17.4-23.8c-0.1-0.1-0.2-0.3-0.1-0.5c0-0.4,0.4-0.8,0.8-0.7c-0.4,0-0.8-0.4-0.7-0.8c0-0.2,0.1-0.4,0.2-0.5
		l20.5-21.2c0.2-0.2,0.5-0.3,0.7-0.2l2.7,0.6c0.4,0.1,0.7,0.5,0.6,0.9c0,0,0,0.1,0,0.1l-8.9,21.6
		C1947.2,561.6,1946.9,561.8,1946.6,561.7L1946.6,561.7z"/>
	
		<linearGradient id="SVGID_2_" gradientUnits="userSpaceOnUse" x1="1994.2797" y1="765.0253" x2="1994.2797" y2="785.2198" gradientTransform="matrix(6.846786e-02 -0.9977 0.9977 6.846786e-02 1033.2695 2498.0283)">
		<stop  offset="0" style="stop-color:#0F648A"/>
		<stop  offset="1" style="stop-color:#45BCF2"/>
	</linearGradient>
	<path class="st4" d="M1951.8,581.9c0,0,0,0.1,0,0.1c0,0.3-0.2,0.6-0.6,0.7l-0.1,0l-2.4,0.1c-0.2,0-0.4-0.1-0.5-0.2l-0.1-0.1
		l-15.1-20.7c-0.1-0.1-0.1-0.3-0.1-0.4c0-0.3,0.3-0.6,0.6-0.6l0.1,0c-0.4,0-0.7-0.3-0.6-0.7c0-0.2,0.1-0.3,0.2-0.4l17.7-18.4
		c0.2-0.2,0.4-0.2,0.6-0.2l2.4,0.5c0.4,0.1,0.6,0.4,0.5,0.8c0,0,0,0.1,0,0.1c-5.4,12.8-8.2,19.2-8.4,19.2L1951.8,581.9z"/>
	<g>
		<g>
			
				<radialGradient id="SVGID_3_" cx="583.1629" cy="733.1817" r="3.5879" gradientTransform="matrix(-6.846786e-02 0.9977 4.7242 0.3242 -1519.5435 -304.3776)" gradientUnits="userSpaceOnUse">
				<stop  offset="3.134264e-03" style="stop-color:#D4D4D4"/>
				<stop  offset="1" style="stop-color:#7A7A7A"/>
			</radialGradient>
			<path class="st5" d="M1898.6,518.6c-0.5-1.6-0.7-2.9-0.6-3.9c0.1-1,0.4-2.3,1.1-3.8c4.1,0.3,6.9,0.8,8.3,1.5
				c2.1,1,3.1,1.8,2.9,3.3c-0.1,1.5-1.2,2.3-3.4,2.9C1905.6,518.9,1902.8,518.9,1898.6,518.6z"/>
			
				<radialGradient id="SVGID_4_" cx="583.1859" cy="734.2155" r="2.7512" gradientTransform="matrix(-6.846786e-02 0.9977 3.6085 0.2476 -704.1982 -248.4213)" gradientUnits="userSpaceOnUse">
				<stop  offset="0" style="stop-color:#E8E8E8;stop-opacity:0.5"/>
				<stop  offset="1" style="stop-color:#7A7A7A;stop-opacity:0.5"/>
			</radialGradient>
			<path class="st6" d="M1898.6,518.6c-0.5-1.6-0.7-2.9-0.6-3.9c0.1-1,0.4-2.3,1.1-3.8c4.1,0.3,6.9,0.8,8.3,1.5
				c2.1,1,3.1,1.8,2.9,3.3c-0.1,1.5-1.2,2.3-3.4,2.9C1905.6,518.9,1902.8,518.9,1898.6,518.6z"/>
		</g>
		<g>
			
				<radialGradient id="SVGID_5_" cx="595.5903" cy="727.7448" r="3.5879" gradientTransform="matrix(-6.846786e-02 0.9977 4.7242 0.3242 -1499.282 -302.9871)" gradientUnits="userSpaceOnUse">
				<stop  offset="3.134264e-03" style="stop-color:#D4D4D4"/>
				<stop  offset="1" style="stop-color:#7A7A7A"/>
			</radialGradient>
			<path class="st7" d="M1892.4,530.7c-0.5-1.6-0.7-2.9-0.6-3.9s0.4-2.3,1.1-3.8c4.1,0.3,6.9,0.8,8.3,1.5c2.1,1,3.1,1.8,2.9,3.3
				s-1.2,2.3-3.4,2.9C1899.3,530.9,1896.5,530.9,1892.4,530.7z"/>
			
				<radialGradient id="SVGID_6_" cx="595.6133" cy="728.7785" r="2.7512" gradientTransform="matrix(-6.846786e-02 0.9977 3.6085 0.2476 -690.0031 -247.4471)" gradientUnits="userSpaceOnUse">
				<stop  offset="0" style="stop-color:#E8E8E8;stop-opacity:0.5"/>
				<stop  offset="1" style="stop-color:#7A7A7A;stop-opacity:0.5"/>
			</radialGradient>
			<path class="st8" d="M1892.4,530.7c-0.5-1.6-0.7-2.9-0.6-3.9s0.4-2.3,1.1-3.8c4.1,0.3,6.9,0.8,8.3,1.5c2.1,1,3.1,1.8,2.9,3.3
				s-1.2,2.3-3.4,2.9C1899.3,530.9,1896.5,530.9,1892.4,530.7z"/>
		</g>
		
			<linearGradient id="wing_2_2_" gradientUnits="userSpaceOnUse" x1="578.0277" y1="760.6685" x2="619.5818" y2="719.1143" gradientTransform="matrix(-6.846786e-02 0.9977 0.9977 6.846786e-02 1212.7268 -116.8648)">
			<stop  offset="3.134264e-03" style="stop-color:#0F648A"/>
			<stop  offset="1" style="stop-color:#45BCF2"/>
		</linearGradient>
		<polygon id="wing_2_1_" class="st9" points="1885.6,548.1 1900.9,529.6 1917.5,501.2 1923.1,501.6 1915.2,534.3 1914.9,550.1 		
			"/>
		
			<linearGradient id="wing_1_4_" gradientUnits="userSpaceOnUse" x1="577.5153" y1="759.3793" x2="614.7975" y2="722.0971" gradientTransform="matrix(-6.846786e-02 0.9977 0.9977 6.846786e-02 1212.7268 -116.8648)">
			<stop  offset="3.134264e-03" style="stop-color:#1B9AD2"/>
			<stop  offset="1" style="stop-color:#74C5EA"/>
		</linearGradient>
		<polygon id="wing_1_3_" class="st10" points="1893.4,548.6 1919.7,501.4 1922.3,501.6 1912.7,532.8 1909.4,549.5 		"/>
		
			<radialGradient id="wing_1_5_" cx="610.6357" cy="732.6144" r="4.9972" gradientTransform="matrix(0.7575 0.6528 1.4772 -1.7142 357.0107 1399.6868)" gradientUnits="userSpaceOnUse">
			<stop  offset="0" style="stop-color:#FFFFFF;stop-opacity:0.6"/>
			<stop  offset="1" style="stop-color:#FFFFFF;stop-opacity:0"/>
		</radialGradient>
		<polygon id="wing_1_2_" class="st11" points="1893.4,548.6 1919.7,501.4 1922.3,501.6 1912.7,532.8 1909.4,549.5 		"/>
		<path id="wing_tip_1_" class="st12" d="M1916.1,501.2c0,0.4,0.3,0.8,0.7,0.8l6.2,0.4c0.4,0,0.8-0.3,0.8-0.7c0-0.4-0.3-0.8-0.7-0.8
			l-6.2-0.4C1916.5,500.4,1916.1,500.7,1916.1,501.2z"/>
	</g>
	<g>
		<g>
			
				<radialGradient id="SVGID_7_" cx="1950.7838" cy="733.1817" r="3.5879" gradientTransform="matrix(6.846786e-02 -0.9977 4.7242 0.3242 -1699.0007 2310.5156)" gradientUnits="userSpaceOnUse">
				<stop  offset="3.134264e-03" style="stop-color:#D4D4D4"/>
				<stop  offset="1" style="stop-color:#7A7A7A"/>
			</radialGradient>
			<path class="st13" d="M1893.2,597.8c-0.7,1.5-1,2.8-1.1,3.8s0.1,2.4,0.6,3.9c4.1,0.3,7,0.2,8.4-0.3c2.2-0.7,3.3-1.3,3.4-2.9
				c0.1-1.5-0.8-2.5-2.9-3.3C1900.1,598.5,1897.4,598.1,1893.2,597.8z"/>
			
				<radialGradient id="SVGID_8_" cx="1950.8069" cy="734.2155" r="2.7512" gradientTransform="matrix(6.846786e-02 -0.9977 3.6085 0.2476 -883.6555 2366.4717)" gradientUnits="userSpaceOnUse">
				<stop  offset="0" style="stop-color:#E8E8E8;stop-opacity:0.5"/>
				<stop  offset="1" style="stop-color:#7A7A7A;stop-opacity:0.5"/>
			</radialGradient>
			<path class="st14" d="M1893.2,597.8c-0.7,1.5-1,2.8-1.1,3.8s0.1,2.4,0.6,3.9c4.1,0.3,7,0.2,8.4-0.3c2.2-0.7,3.3-1.3,3.4-2.9
				c0.1-1.5-0.8-2.5-2.9-3.3C1900.1,598.5,1897.4,598.1,1893.2,597.8z"/>
		</g>
		<g>
			
				<radialGradient id="SVGID_9_" cx="1963.2112" cy="727.7448" r="3.5879" gradientTransform="matrix(6.846786e-02 -0.9977 4.7242 0.3242 -1678.7393 2311.906)" gradientUnits="userSpaceOnUse">
				<stop  offset="3.134264e-03" style="stop-color:#D4D4D4"/>
				<stop  offset="1" style="stop-color:#7A7A7A"/>
			</radialGradient>
			<path class="st15" d="M1888.6,585c-0.7,1.5-1,2.8-1.1,3.8c-0.1,1,0.1,2.4,0.6,3.9c4.1,0.3,7,0.2,8.4-0.3c2.2-0.7,3.3-1.3,3.4-2.9
				c0.1-1.5-0.8-2.5-2.9-3.3C1895.6,585.7,1892.8,585.3,1888.6,585z"/>
			
				<radialGradient id="SVGID_10_" cx="1963.2343" cy="728.7785" r="2.7512" gradientTransform="matrix(6.846786e-02 -0.9977 3.6085 0.2476 -869.4603 2367.446)" gradientUnits="userSpaceOnUse">
				<stop  offset="0" style="stop-color:#E8E8E8;stop-opacity:0.5"/>
				<stop  offset="1" style="stop-color:#7A7A7A;stop-opacity:0.5"/>
			</radialGradient>
			<path class="st16" d="M1888.6,585c-0.7,1.5-1,2.8-1.1,3.8c-0.1,1,0.1,2.4,0.6,3.9c4.1,0.3,7,0.2,8.4-0.3c2.2-0.7,3.3-1.3,3.4-2.9
				c0.1-1.5-0.8-2.5-2.9-3.3C1895.6,585.7,1892.8,585.3,1888.6,585z"/>
		</g>
		
			<linearGradient id="wing_2_3_" gradientUnits="userSpaceOnUse" x1="1945.6486" y1="760.6685" x2="1987.2028" y2="719.1143" gradientTransform="matrix(6.846786e-02 -0.9977 0.9977 6.846786e-02 1033.2695 2498.0283)">
			<stop  offset="3.134264e-03" style="stop-color:#0F648A"/>
			<stop  offset="1" style="stop-color:#45BCF2"/>
		</linearGradient>
		<polygon id="wing_2" class="st17" points="1884.4,566.8 1896.9,587.2 1909.5,617.6 1915.1,618 1911.8,584.5 1913.7,568.8 		"/>
		
			<linearGradient id="wing_1_6_" gradientUnits="userSpaceOnUse" x1="1945.1362" y1="759.3793" x2="1982.4185" y2="722.0971" gradientTransform="matrix(6.846786e-02 -0.9977 0.9977 6.846786e-02 1033.2695 2498.0283)">
			<stop  offset="3.134264e-03" style="stop-color:#1B9AD2"/>
			<stop  offset="1" style="stop-color:#74C5EA"/>
		</linearGradient>
		<polygon id="wing_1" class="st18" points="1892.1,567.3 1911.7,617.7 1914.3,617.9 1909.1,585.7 1908.1,568.7 		"/>
		
			<radialGradient id="wing_1_7_" cx="1978.2566" cy="732.6144" r="4.9972" gradientTransform="matrix(0.8396 -0.5432 1.2292 1.8999 -661.8589 257.277)" gradientUnits="userSpaceOnUse">
			<stop  offset="0" style="stop-color:#FFFFFF;stop-opacity:0.6"/>
			<stop  offset="1" style="stop-color:#FFFFFF;stop-opacity:0"/>
		</radialGradient>
		<polygon id="wing_1_1_" class="st19" points="1892.1,567.3 1911.7,617.7 1914.3,617.9 1909.1,585.7 1908.1,568.7 		"/>
		<path id="wing_tip" class="st12" d="M1908.1,617.5c0-0.4,0.4-0.8,0.8-0.7l6.2,0.4c0.4,0,0.8,0.4,0.7,0.8s-0.4,0.8-0.8,0.7
			l-6.2-0.4C1908.4,618.3,1908.1,617.9,1908.1,617.5z"/>
	</g>
	
		<radialGradient id="bpdy_2_" cx="1993.9875" cy="716.4603" r="37.818" fx="1995.8873" fy="717.7803" gradientTransform="matrix(0.9882 0.1535 -6.795389e-02 0.4375 -37.1068 -61.7211)" gradientUnits="userSpaceOnUse">
		<stop  offset="0.1258" style="stop-color:#FFFFFF"/>
		<stop  offset="1" style="stop-color:#818181"/>
	</radialGradient>
	<path id="bpdy" class="st20" d="M1851.9,554.5c1.2-5.4,7.6-9.4,28.8-8.8l0.9,0c2.9,0.1,17.5,1.1,19.7,1.2l2.4,0.2l1.9,0.1
		c8.4,0.7,18.6,1.7,23.8,3.3c8.2,2.5,15.9,7.7,18.7,10.5l1.2,0.1c0,0.2-0.2,0.4-0.5,0.7c0.2,0.3,0.4,0.6,0.4,0.8l0,0.1l-1.2-0.1
		c-3.2,2.4-11.5,6.6-20,7.9c-5.9,0.9-18.1,0.4-26.9-0.2l-6.1-0.4l-12.6-0.9c-1.2-0.1-2.2-0.2-2.6-0.2c-21.7-2.3-27.6-7.1-28.1-12.7
		c0-0.2,0-0.5,0-0.8C1851.8,554.9,1851.8,554.7,1851.9,554.5z"/>
	
		<radialGradient id="bpdy_3_" cx="1993.4669" cy="716.6162" r="71.467" fx="2002.3014" fy="716.6215" gradientTransform="matrix(0.9901 0.1403 -2.246792e-02 0.1585 -72.9485 164.9637)" gradientUnits="userSpaceOnUse">
		<stop  offset="0" style="stop-color:#FFFFFF;stop-opacity:0.7"/>
		<stop  offset="0.1441" style="stop-color:#F9F9F9;stop-opacity:0.6712"/>
		<stop  offset="0.3422" style="stop-color:#E7E7E7;stop-opacity:0.6316"/>
		<stop  offset="0.5718" style="stop-color:#CACACA;stop-opacity:0.5856"/>
		<stop  offset="0.8229" style="stop-color:#A2A2A2;stop-opacity:0.5354"/>
		<stop  offset="1" style="stop-color:#818181;stop-opacity:0.5"/>
	</radialGradient>
	<path id="bpdy_1_" class="st21" d="M1851.9,554.5c1.2-5.4,7.6-9.4,28.8-8.8l0.9,0c2.9,0.1,17.5,1.1,19.7,1.2l2.4,0.2l1.9,0.1
		c8.4,0.7,18.6,1.7,23.8,3.3c8.2,2.5,15.9,7.7,18.7,10.5l1.2,0.1c0,0.2-0.2,0.4-0.5,0.7c0.2,0.3,0.4,0.6,0.4,0.8l0,0.1l-1.2-0.1
		c-3.2,2.4-11.5,6.6-20,7.9c-5.9,0.9-18.1,0.4-26.9-0.2l-6.1-0.4l-12.6-0.9c-1.2-0.1-2.2-0.2-2.6-0.2c-21.7-2.3-27.6-7.1-28.1-12.7
		c0-0.2,0-0.5,0-0.8C1851.8,554.9,1851.8,554.7,1851.9,554.5z"/>
	
		<linearGradient id="nose_1_" gradientUnits="userSpaceOnUse" x1="1997.5981" y1="690.2084" x2="1991.1772" y2="683.8922" gradientTransform="matrix(6.846786e-02 -0.9977 0.9977 6.846786e-02 1033.2695 2498.0283)">
		<stop  offset="0" style="stop-color:#0F648A"/>
		<stop  offset="1" style="stop-color:#45BCF2"/>
	</linearGradient>
	<path id="nose" class="st22" d="M1851.7,555.3c0.2-2.3,1.2-4.4,4-6c0,2,0,4.1-0.2,6.2c-0.1,2.1-0.4,4.2-0.7,6.2
		C1852.3,559.7,1851.5,557.5,1851.7,555.3z"/>
	<path id="window" class="st23" d="M1861.7,556.3l3,0.2c0,0.5,0.1,1,0.2,1.4l-2.8,0.9C1861.8,558,1861.7,557.2,1861.7,556.3z
		 M1862.6,552.9l2.7,1.3c-0.2,0.5-0.4,1-0.5,1.6l-3-0.2C1861.9,554.6,1862.2,553.7,1862.6,552.9z M1862.3,559.5l2.8-0.9
		c0.4,0.9,1,1.6,1.7,2.2l-1.7,2.4C1863.9,562.2,1862.9,561,1862.3,559.5z M1866.2,549.2l1.3,2.6c-0.8,0.4-1.4,1-1.9,1.8l-2.7-1.3
		C1863.7,551,1864.8,549.9,1866.2,549.2z"/>
	
		<linearGradient id="tail_2_" gradientUnits="userSpaceOnUse" x1="1992.7263" y1="784.0564" x2="1995.8331" y2="784.0564" gradientTransform="matrix(6.846786e-02 -0.9977 0.9977 6.846786e-02 1033.2695 2498.0283)">
		<stop  offset="0" style="stop-color:#DDDDDD"/>
		<stop  offset="0.3525" style="stop-color:#FCFCFC"/>
		<stop  offset="0.8037" style="stop-color:#9F9F9F"/>
		<stop  offset="1" style="stop-color:#939393"/>
	</linearGradient>
	<path id="tail_1_" class="st24" d="M1934.6,560.9c0.1-0.9,0.8-1.5,1.7-1.4l31.8,2.2c0.9,0.1,1.5,0.8,1.4,1.7
		c-0.1,0.9-0.8,1.5-1.7,1.4l-31.8-2.2C1935.2,562.5,1934.5,561.8,1934.6,560.9z"/>
	
		<linearGradient id="tail_3_" gradientUnits="userSpaceOnUse" x1="1994.2797" y1="801.5324" x2="1994.2797" y2="791.4352" gradientTransform="matrix(6.846786e-02 -0.9977 0.9977 6.846786e-02 1033.2695 2498.0283)">
		<stop  offset="0.8037" style="stop-color:#9F9F9F"/>
		<stop  offset="1" style="stop-color:#939393"/>
	</linearGradient>
	<path id="tail" class="st25" d="M1959.4,562.6c0.1-0.9,0.8-1.5,1.7-1.4l7,0.5c0.9,0.1,1.5,0.8,1.4,1.7c-0.1,0.9-0.8,1.5-1.7,1.4
		l-7-0.5C1960,564.2,1959.3,563.5,1959.4,562.6z"/>
</g>
</svg>
