<svg xmlns="http://www.w3.org/2000/svg" id="Default" viewBox="0 0 428.96 290.59"><defs><style>.cls-1{fill:#f5f7f9}.cls-2,.cls-3{fill:#313131}.cls-3{stroke:#ea5f00}.cls-3,.cls-5,.cls-6{stroke-miterlimit:10}.cls-4,.cls-5,.cls-6,.cls-7{fill:none}.cls-4{stroke:#288cdd}.cls-4,.cls-7{stroke-linecap:round;stroke-linejoin:round}.cls-5{stroke:#dd2b0e}.cls-6{stroke:#14dd18}.cls-7{stroke:#ca2adb}</style></defs><rect width="428.96" height="290.59" class="cls-1"/><circle cx="164.76" cy="171.23" r="4.09" class="cls-2" transform="translate(-31.29 36.95) rotate(-11.7)"/><rect width="42.97" height="7.65" x="144.03" y="156.48" class="cls-2"/><rect width="7.66" height="19.78" x="160.93" y="179.16" class="cls-2"/><path d="M182,167.15h-9v31.79h9a15.9,15.9,0,0,0,0-31.79Zm6.12,22.31a7.85,7.85,0,0,1-6.12,2.59h-2.07V174H182a7.85,7.85,0,0,1,6.12,2.59,9.24,9.24,0,0,1,0,12.83Z" class="cls-2"/><rect width="42.97" height="7.65" x="60.44" y="156.48" class="cls-2"/><rect width="7.66" height="19.78" x="77.34" y="179.16" class="cls-2"/><path d="M78.89,174.65c-2.42-1.59-2.76-3.25-1.18-5.66s3.25-2.76,5.66-1.17,2.76,3.24,1.17,5.66S81.3,176.23,78.89,174.65Z" class="cls-2"/><path d="M98.42,198.94a15.9,15.9,0,0,0,0-31.79H92.08v31.79Z" class="cls-2"/><path d="M179,106.64v29.42a17,17,0,1,0,0-29.42Z" class="cls-2"/><polygon points="168.41 138.33 172.66 138.33 172.66 136.21 172.66 114.98 168.41 114.98 168.41 136.21 168.41 138.33" class="cls-2"/><path d="M173.54,108.61c0-2.12-.88-3-3-3s-3,.88-3,3,.88,3,3,3S173.54,110.73,173.54,108.61Z" class="cls-2"/><rect width="42.46" height="4.25" x="149.31" y="95.87" class="cls-2"/><path d="M102.32,138.36a17,17,0,1,0,0-34H93.83v34Z" class="cls-2"/><polygon points="83.21 138.36 87.46 138.36 87.46 136.24 87.46 115 83.21 115 83.21 136.24 83.21 138.36" class="cls-2"/><path d="M88.34,108.63c0-2.12-.88-3-3-3s-3,.88-3,3,.88,3,3,3S88.34,110.76,88.34,108.63Z" class="cls-2"/><rect width="42.46" height="4.25" x="64.1" y="95.89" class="cls-2"/><path d="M347,107.39a6,6,0,1,0-6,6A6,6,0,0,0,347,107.39Z" class="cls-3"/><path d="M357.93,138.36a17,17,0,0,0,0-34h-8.49v34Z" class="cls-2"/><polygon points="336.7 138.36 345.19 138.36 345.19 136.24 345.19 115 336.7 115 336.7 136.24 336.7 138.36" class="cls-2"/><rect width="42.46" height="8.49" x="319.71" y="91.65" class="cls-2"/><rect width="42.46" height="8.49" x="234.51" y="91.65" class="cls-2"/><path d="M255.74,104.39c-3,0-4.25,1.24-4.25,4.24s1.25,4.25,4.25,4.25,4.25-1.24,4.25-4.25S258.74,104.39,255.74,104.39Z" class="cls-3"/><polygon points="251.49 138.36 259.99 138.36 259.99 136.24 259.99 115 251.49 115 251.49 136.24 251.49 138.36" class="cls-2"/><path d="M272.73,138.36a17,17,0,0,0,0-34h-8.5v34Z" class="cls-2"/><path d="M268.11,198.2l6.09-1.78a15.9,15.9,0,0,0-9-30.51l-6.09,1.79-2.51.74q4.47,15.24,9,30.5Z" class="cls-2"/><path d="M246.1,174.65c-2.41-1.59-2.76-3.25-1.17-5.66s3.24-2.76,5.66-1.17,2.75,3.24,1.17,5.66S248.52,176.23,246.1,174.65Z" class="cls-2"/><rect width="42.97" height="7.65" x="227.62" y="156.48" class="cls-2"/><rect width="7.65" height="19.78" x="244.52" y="179.16" class="cls-2"/><rect width="7.66" height="19.78" x="332.25" y="179.16" class="cls-2"/><rect width="42.97" height="7.65" x="315.35" y="156.48" class="cls-2"/><circle cx="336.07" cy="171.23" r="4.09" class="cls-2" transform="translate(-27.73 71.68) rotate(-11.7)"/><path d="M372.37,177.53A15.86,15.86,0,0,0,353,167.31L346.88,169l-2.51.7q4.47,14.61,9,29.22l2.51-.71,6.09-1.71A15,15,0,0,0,372.37,177.53Zm-7.19,8.38a7.7,7.7,0,0,1-5.12,4l-2.12.59q-2.46-8-4.91-16l1.8-.51a8.41,8.41,0,0,1,6.79.74,7.89,7.89,0,0,1,4.21,5A7.22,7.22,0,0,1,365.18,185.91Z" class="cls-2"/><line x1="48.94" x2="380.04" y1="167.15" y2="167.15" class="cls-4"/><line x1="48.94" x2="380.04" y1="198.94" y2="198.94" class="cls-4"/><line x1="48.92" x2="380.02" y1="106.57" y2="106.57" class="cls-4"/><line x1="48.92" x2="380.02" y1="138.36" y2="138.36" class="cls-4"/><path d="M186,104.41a17,17,0,0,0-7,2.23v5.51" class="cls-5"/><line x1="92.08" x2="92.08" y1="167.15" y2="206.32" class="cls-6"/><line x1="169.14" x2="169.14" y1="167.15" y2="206.32" class="cls-6"/><line x1="85.51" x2="85.51" y1="167.15" y2="206.32" class="cls-6"/><line x1="172.66" x2="172.66" y1="167.15" y2="206.32" class="cls-6"/><line x1="147.03" x2="297.8" y1="95.87" y2="95.87" class="cls-7"/><path d="M98,104.39h-4.2v7.28" class="cls-5"/></svg>