<svg id="Default" xmlns="http://www.w3.org/2000/svg" viewBox="0 0 469.69 180.47"><defs><style>.cls-1{fill:none;stroke:#313131;stroke-linecap:round;stroke-linejoin:round;stroke-width:0.75px;}</style></defs><title>Artboard 2</title><path class="cls-1" d="M432.6,84.58c-2.41-1.59-2.76-3.24-1.17-5.66s3.24-2.76,5.66-1.17,2.76,3.24,1.17,5.66S435,86.17,432.6,84.58Z"/><rect class="cls-1" x="414.11" y="66.41" width="42.97" height="7.65"/><rect class="cls-1" x="431.01" y="89.1" width="7.66" height="19.78"/><path class="cls-1" d="M445.76,108.88h6.34a15.9,15.9,0,0,0,0-31.79h-9v31.79Z"/><path class="cls-1" d="M450,102h2.07a7.83,7.83,0,0,0,6.12-2.59,9.21,9.21,0,0,0,0-12.82A7.83,7.83,0,0,0,452.1,84H450Z"/><path class="cls-1" d="M267.1,86.94c-2.41-1.59-2.76-3.24-1.17-5.66s3.24-2.76,5.66-1.17,2.76,3.24,1.17,5.66S269.52,88.52,267.1,86.94Z"/><rect class="cls-1" x="248.62" y="68.77" width="42.97" height="7.65"/><rect class="cls-1" x="265.52" y="91.45" width="7.65" height="19.78"/><path class="cls-1" d="M286.6,111.23a15.9,15.9,0,0,0,0-31.8h-6.34v31.8Z"/><path class="cls-1" d="M121.11,109.7a15.61,15.61,0,1,0,0-31.21h-6.34V109.7Z"/><rect class="cls-1" x="83.12" y="68.77" width="42.97" height="7.65"/><rect class="cls-1" x="100.02" y="91.45" width="7.65" height="19.78"/><path class="cls-1" d="M101.57,86.94c-2.41-1.59-2.76-3.24-1.17-5.66s3.24-2.76,5.66-1.17,2.76,3.24,1.17,5.66S104,88.52,101.57,86.94Z"/><rect class="cls-1" x="0.38" y="68.77" width="42.97" height="7.65"/><rect class="cls-1" x="17.27" y="91.45" width="7.65" height="19.78"/><path class="cls-1" d="M18.82,86.94c-2.41-1.59-2.76-3.24-1.17-5.66s3.24-2.76,5.66-1.17,2.76,3.24,1.17,5.66S21.23,88.52,18.82,86.94Z"/><circle class="cls-1" cx="38.36" cy="94.09" r="15.61" transform="translate(-63.15 89.5) rotate(-65.24)"/><line class="cls-1" x1="32.02" y1="76.42" x2="32.02" y2="115.25"/><line class="cls-1" x1="38.36" y1="94.09" x2="38.36" y2="112.71"/><line class="cls-1" x1="38.36" y1="94.09" x2="38.36" y2="77.86"/><line class="cls-1" x1="38.36" y1="78.48" x2="32.02" y2="78.48"/><line class="cls-1" x1="38.36" y1="109.7" x2="32.02" y2="109.7"/><rect class="cls-1" x="165.3" y="68.77" width="42.97" height="7.65"/><rect class="cls-1" x="182.2" y="91.45" width="7.66" height="19.78"/><path class="cls-1" d="M183.74,86.94c-2.41-1.59-2.76-3.24-1.17-5.66s3.24-2.76,5.66-1.17,2.76,3.24,1.17,5.66S186.16,88.52,183.74,86.94Z"/><line class="cls-1" x1="185.99" y1="83.52" x2="185.99" y2="77.79"/><line class="cls-1" x1="185.99" y1="79.44" x2="220.03" y2="79.44"/><path class="cls-1" d="M203.28,111.23a15.9,15.9,0,0,0,0-31.8h-6.34v31.8Z"/><path class="cls-1" d="M349.85,86.94c-2.41-1.59-2.76-3.24-1.17-5.66s3.24-2.76,5.66-1.17,2.76,3.24,1.17,5.66S352.26,88.52,349.85,86.94Z"/><rect class="cls-1" x="331.37" y="68.77" width="42.97" height="7.65"/><rect class="cls-1" x="348.27" y="91.45" width="7.65" height="19.78"/><path class="cls-1" d="M363,111.23h6.34a15.9,15.9,0,0,0,0-31.8h-9v31.8Z"/><path class="cls-1" d="M195.6,16.57V46a17,17,0,1,0,0-29.42Z"/><polygon class="cls-1" points="184.98 48.27 189.23 48.27 189.23 46.15 189.23 24.91 184.98 24.91 184.98 46.15 184.98 48.27"/><path class="cls-1" d="M190.11,18.55c0-2.12-.88-3-3-3s-3,.88-3,3,.88,3,3,3S190.11,20.67,190.11,18.55Z"/><rect class="cls-1" x="165.87" y="5.81" width="42.46" height="4.25"/><line class="cls-1" x1="38.59" y1="48.27" x2="30.1" y2="48.27"/><line class="cls-1" x1="38.59" y1="14.3" x2="30.1" y2="14.3"/><line class="cls-1" x1="38.59" y1="31.28" x2="38.59" y2="12.38"/><line class="cls-1" x1="38.59" y1="31.28" x2="38.59" y2="52.52"/><circle class="cls-1" cx="38.59" cy="31.28" r="16.99"/><line class="cls-1" x1="30.1" y1="14.3" x2="30.1" y2="48.27"/><polygon class="cls-1" points="19.48 48.27 23.73 48.27 23.73 46.15 23.73 24.91 19.48 24.91 19.48 46.15 19.48 48.27"/><path class="cls-1" d="M24.61,18.55c0-2.12-.88-3-3-3s-3,.88-3,3,.88,3,3,3S24.61,20.67,24.61,18.55Z"/><rect class="cls-1" x="0.38" y="5.81" width="42.46" height="4.25"/><path class="cls-1" d="M121.34,48.27a17,17,0,0,0,0-34h-8.49v34Z"/><polygon class="cls-1" points="102.23 48.27 106.48 48.27 106.48 46.15 106.48 24.91 102.23 24.91 102.23 46.15 102.23 48.27"/><path class="cls-1" d="M107.36,18.55c0-2.12-.88-3-3-3s-3,.88-3,3,.88,3,3,3S107.36,20.67,107.36,18.55Z"/><rect class="cls-1" x="83.12" y="5.81" width="42.46" height="4.25"/><circle class="cls-1" cx="435.35" cy="16.11" r="6.01"/><path class="cls-1" d="M452.33,47.09a17,17,0,1,0,0-34h-8.49v34Z"/><polygon class="cls-1" points="431.1 47.09 439.59 47.09 439.59 44.96 439.59 23.73 431.1 23.73 431.1 44.96 431.1 47.09"/><rect class="cls-1" x="414.11" y="0.38" width="42.46" height="8.49"/><rect class="cls-1" x="248.62" y="0.38" width="42.46" height="8.49"/><path class="cls-1" d="M269.85,13.11c-3,0-4.25,1.24-4.25,4.25s1.24,4.25,4.25,4.25,4.25-1.24,4.25-4.25S272.85,13.11,269.85,13.11Z"/><circle class="cls-1" cx="269.85" cy="17.36" r="6.01"/><polygon class="cls-1" points="265.6 47.09 274.1 47.09 274.1 44.96 274.1 23.73 265.6 23.73 265.6 44.96 265.6 47.09"/><path class="cls-1" d="M286.84,47.09a17,17,0,1,0,0-34h-8.49v34Z"/><rect class="cls-1" x="331.37" y="0.38" width="42.46" height="8.49"/><path class="cls-1" d="M352.6,13.11c-3,0-4.25,1.24-4.25,4.25s1.24,4.25,4.25,4.25,4.25-1.24,4.25-4.25S355.6,13.11,352.6,13.11Z"/><polygon class="cls-1" points="348.35 47.09 356.85 47.09 356.85 44.96 356.85 23.73 348.35 23.73 348.35 44.96 348.35 47.09"/><path class="cls-1" d="M369.58,47.09a17,17,0,1,0,0-34h-8.49v34Z"/><path class="cls-1" d="M100.87,179.36l6.08-1.79a15.9,15.9,0,0,0-9-30.51l-6.08,1.79-2.51.74,9,30.51Z"/><line class="cls-1" x1="75.61" y1="148.3" x2="130.75" y2="148.3"/><line class="cls-1" x1="84.93" y1="180.1" x2="116.97" y2="180.1"/><path class="cls-1" d="M78.86,155.8c-2.41-1.59-2.76-3.24-1.17-5.66s3.24-2.76,5.66-1.17,2.76,3.24,1.17,5.66S81.27,157.39,78.86,155.8Z"/><rect class="cls-1" x="60.37" y="137.63" width="42.97" height="7.65"/><rect class="cls-1" x="77.27" y="160.32" width="7.65" height="19.78"/><path class="cls-1" d="M250.9,179.39l6.08-1.71a15,15,0,0,0,10.44-19A15.87,15.87,0,0,0,248,148.46l-6.08,1.71-2.51.71,9,29.22Z"/><path class="cls-1" d="M228.89,155.8c-2.41-1.59-2.76-3.24-1.17-5.66s3.24-2.76,5.66-1.17,2.76,3.24,1.17,5.66S231.3,157.39,228.89,155.8Z"/><rect class="cls-1" x="210.4" y="137.63" width="42.97" height="7.65"/><rect class="cls-1" x="227.3" y="160.32" width="7.65" height="19.78"/><rect class="cls-1" x="371.01" y="160.32" width="7.66" height="19.78"/><rect class="cls-1" x="354.11" y="137.63" width="42.97" height="7.65"/><path class="cls-1" d="M372.6,155.8c-2.41-1.59-2.76-3.24-1.17-5.66s3.24-2.76,5.66-1.17,2.76,3.24,1.17,5.66S375,157.39,372.6,155.8Z"/><path class="cls-1" d="M396.71,171.64l2.12-.6a7.72,7.72,0,0,0,5.12-4,7.22,7.22,0,0,0,.65-6.19,7.88,7.88,0,0,0-4.21-5,8.39,8.39,0,0,0-6.78-.74l-1.81.51Z"/><path class="cls-1" d="M394.61,179.39l6.08-1.71a15,15,0,0,0,10.44-19,15.87,15.87,0,0,0-19.4-10.22l-6.08,1.71-2.51.71,9,29.22Z"/></svg>