<svg xmlns="http://www.w3.org/2000/svg" id="Layer_1" data-name="Layer 1" viewBox="0 0 1274.91 362.95"><defs><style>.cls-1{fill:#f4ea0c}.cls-2{fill:#231f20}.cls-3{fill:#ffec00}</style></defs><title>Artboard 4</title><path d="M33.58,253.63C37.1,239.54,44.15,232.49,58.24,229s35.23-3.52,49.33,0,21.14,10.57,24.66,24.66,3.52,35.23,0,49.33-10.57,21.14-24.66,24.66-35.24,3.52-49.33,0S37.1,317.05,33.58,303,30.06,267.72,33.58,253.63Z" class="cls-1"/><path d="M83.22,256.1h3.55V291h17.75v3.23H83.22Z" class="cls-2"/><path d="M130.23,287.19c0,.46,0,1,.05,1.69s.07,1.34.09,2,0,1.32.08,1.91.05,1.05.05,1.37h-3.23c0-.93-.06-1.83-.08-2.69a8.94,8.94,0,0,0-.13-1.67h-.16a8.7,8.7,0,0,1-3.23,3.52,9.37,9.37,0,0,1-5.27,1.48,10.74,10.74,0,0,1-4.76-.91,7.63,7.63,0,0,1-2.91-2.39,8.71,8.71,0,0,1-1.42-3.42,20.9,20.9,0,0,1-.38-4V269.33h3.23V284a15.73,15.73,0,0,0,.27,2.93,7.83,7.83,0,0,0,.94,2.56,4.94,4.94,0,0,0,1.88,1.8,6.46,6.46,0,0,0,3.15.67,9.24,9.24,0,0,0,3.36-.62,7.19,7.19,0,0,0,2.74-1.88,9.11,9.11,0,0,0,1.83-3.18,13.43,13.43,0,0,0,.67-4.49V269.33h3.23Z" class="cls-2"/><path d="M159.92,290.52a11.67,11.67,0,0,1-4.14,3.26,12.1,12.1,0,0,1-5,1,14.15,14.15,0,0,1-5.27-1,12,12,0,0,1-4.15-2.72,12.63,12.63,0,0,1-2.68-4.14,14.67,14.67,0,0,1,0-10.49,12.43,12.43,0,0,1,2.68-4.14,12,12,0,0,1,4.15-2.72,14.16,14.16,0,0,1,5.27-1,11.56,11.56,0,0,1,5.08,1.13A13.39,13.39,0,0,1,160,273l-2.58,1.93a11.27,11.27,0,0,0-3.07-2.44,7.44,7.44,0,0,0-3.6-.89,10,10,0,0,0-4.09.81,9.4,9.4,0,0,0-3.12,2.17,9.16,9.16,0,0,0-2,3.23,11.84,11.84,0,0,0,0,7.91,9.12,9.12,0,0,0,2,3.22,9.28,9.28,0,0,0,3.12,2.18,10,10,0,0,0,4.09.81,7.55,7.55,0,0,0,3.74-.94,10,10,0,0,0,2.93-2.5Z" class="cls-2"/><path d="M164.71,259.49a2.43,2.43,0,0,1,4.14-1.72,2.43,2.43,0,1,1-4.14,1.72Zm.8,9.84h3.23v24.85h-3.23Z" class="cls-2"/><path d="M199.61,289.82h-.1a8.3,8.3,0,0,1-1.89,2.23,11.23,11.23,0,0,1-2.44,1.56,12.18,12.18,0,0,1-2.77.92,14.82,14.82,0,0,1-2.85.29,14.21,14.21,0,0,1-5.28-1,12,12,0,0,1-4.14-2.72,12.66,12.66,0,0,1-2.69-4.14,14.81,14.81,0,0,1,0-10.49,12.45,12.45,0,0,1,2.69-4.14,12,12,0,0,1,4.14-2.72,14.43,14.43,0,0,1,8.13-.67,12.67,12.67,0,0,1,2.77.91,12,12,0,0,1,2.44,1.56,8.5,8.5,0,0,1,1.89,2.24h.1V253.52h3.23v40.66h-3.23Zm.33-8.07a9.8,9.8,0,0,0-.81-3.95,10.09,10.09,0,0,0-2.21-3.23,10.42,10.42,0,0,0-3.28-2.17,10.18,10.18,0,0,0-4.08-.81,10,10,0,0,0-4.09.81,9.19,9.19,0,0,0-5.09,5.4,12,12,0,0,0,0,7.91,9.27,9.27,0,0,0,5.09,5.4,10,10,0,0,0,4.09.81,10.18,10.18,0,0,0,4.08-.81,10.28,10.28,0,0,0,3.28-2.18,10,10,0,0,0,2.21-3.22A9.81,9.81,0,0,0,199.94,281.75Z" class="cls-2"/><path d="M156.83,300.64h3l9.36,14h0v-14h2.3v17h-2.93l-9.45-14h-.05v14h-2.3Z" class="cls-2"/><path d="M179.94,310.38l-6.43-9.74h3l4.63,7.46,4.78-7.46h2.8l-6.43,9.74v7.25h-2.3Z" class="cls-2"/><path d="M202.45,304.31a4.86,4.86,0,0,0-1.82-1.44,5.55,5.55,0,0,0-2.28-.5,6.16,6.16,0,0,0-2.61.54,6.07,6.07,0,0,0-2,1.47,6.77,6.77,0,0,0-1.28,2.2,7.73,7.73,0,0,0-.46,2.7,7.42,7.42,0,0,0,.43,2.55,6.59,6.59,0,0,0,1.25,2.11,5.92,5.92,0,0,0,2,1.44,6.49,6.49,0,0,0,2.67.53,5.27,5.27,0,0,0,2.56-.61,5.47,5.47,0,0,0,1.88-1.68l1.94,1.47a7.83,7.83,0,0,1-.67.75,7,7,0,0,1-1.27,1,8.7,8.7,0,0,1-1.91.86,8.16,8.16,0,0,1-2.58.37,8.41,8.41,0,0,1-3.64-.76,8.91,8.91,0,0,1-5.1-8,10.06,10.06,0,0,1,.65-3.64,8.7,8.7,0,0,1,1.81-2.88,8.27,8.27,0,0,1,2.8-1.88,9.34,9.34,0,0,1,3.6-.67,8.66,8.66,0,0,1,3.3.65,6.12,6.12,0,0,1,2.65,2Z" class="cls-2"/><path d="M1071.31,253.63c3.52-14.09,10.57-21.14,24.66-24.66s35.23-3.52,49.33,0,21.14,10.57,24.66,24.66,3.52,35.23,0,49.33-10.57,21.14-24.66,24.66-35.24,3.52-49.33,0-21.14-10.57-24.66-24.66S1067.79,267.72,1071.31,253.63Z" class="cls-3"/><path d="M1121,256.1h3.55V291h17.75v3.23H1121Z" class="cls-2"/><path d="M1168,287.19c0,.46,0,1,0,1.69s.07,1.34.08,2,.05,1.32.09,1.91,0,1.05,0,1.37H1165c0-.93-.06-1.83-.08-2.69a8.94,8.94,0,0,0-.13-1.67h-.16a8.7,8.7,0,0,1-3.23,3.52,9.4,9.4,0,0,1-5.27,1.48,10.74,10.74,0,0,1-4.76-.91,7.63,7.63,0,0,1-2.91-2.39,8.71,8.71,0,0,1-1.42-3.42,20.9,20.9,0,0,1-.38-4V269.33h3.23V284a15.73,15.73,0,0,0,.27,2.93,7.83,7.83,0,0,0,.94,2.56,4.94,4.94,0,0,0,1.88,1.8,6.46,6.46,0,0,0,3.15.67,9.24,9.24,0,0,0,3.36-.62,7.19,7.19,0,0,0,2.74-1.88,9.15,9.15,0,0,0,1.83-3.17,13.54,13.54,0,0,0,.67-4.5V269.33H1168Z" class="cls-2"/><path d="M1197.65,290.52a11.67,11.67,0,0,1-4.14,3.26,12.1,12.1,0,0,1-5,1,14.15,14.15,0,0,1-5.27-1,12,12,0,0,1-4.15-2.72,12.63,12.63,0,0,1-2.68-4.14,14.67,14.67,0,0,1,0-10.49,12.43,12.43,0,0,1,2.68-4.14,12,12,0,0,1,4.15-2.72,14.16,14.16,0,0,1,5.27-1,11.56,11.56,0,0,1,5.08,1.13,13.39,13.39,0,0,1,4.17,3.18l-2.58,1.93a11.27,11.27,0,0,0-3.07-2.44,7.44,7.44,0,0,0-3.6-.89,10,10,0,0,0-4.09.81,9.4,9.4,0,0,0-3.12,2.17,9.16,9.16,0,0,0-2,3.23,11.84,11.84,0,0,0,0,7.91,9.12,9.12,0,0,0,2,3.22,9.28,9.28,0,0,0,3.12,2.18,10,10,0,0,0,4.09.81,7.55,7.55,0,0,0,3.74-.94,10,10,0,0,0,2.93-2.5Z" class="cls-2"/><path d="M1202.44,259.49a2.43,2.43,0,0,1,4.14-1.72,2.43,2.43,0,1,1-4.14,1.72Zm.8,9.84h3.23v24.85h-3.23Z" class="cls-2"/><path d="M1237.34,289.82h-.1a8.3,8.3,0,0,1-1.89,2.23,11.23,11.23,0,0,1-2.44,1.56,12.18,12.18,0,0,1-2.77.92,14.82,14.82,0,0,1-2.85.29,14.21,14.21,0,0,1-5.28-1,12,12,0,0,1-4.14-2.72,12.66,12.66,0,0,1-2.69-4.14,14.67,14.67,0,0,1,0-10.49,12.45,12.45,0,0,1,2.69-4.14,12,12,0,0,1,4.14-2.72,14.43,14.43,0,0,1,8.13-.67,12.67,12.67,0,0,1,2.77.91,12,12,0,0,1,2.44,1.56,8.5,8.5,0,0,1,1.89,2.24h.1V253.52h3.23v40.66h-3.23Zm.33-8.07a9.8,9.8,0,0,0-.81-3.95,10.09,10.09,0,0,0-2.21-3.23,10.42,10.42,0,0,0-3.28-2.17,10.21,10.21,0,0,0-4.08-.81,10,10,0,0,0-4.09.81,9.19,9.19,0,0,0-5.09,5.4,12,12,0,0,0,0,7.91,9.27,9.27,0,0,0,5.09,5.4,10,10,0,0,0,4.09.81,10.43,10.43,0,0,0,7.36-3,10,10,0,0,0,2.21-3.22A9.81,9.81,0,0,0,1237.67,281.75Z" class="cls-2"/><path d="M1194.56,300.64h3l9.36,14h0v-14h2.3v17h-2.93l-9.45-14h-.05v14h-2.3Z" class="cls-2"/><path d="M1217.67,310.38l-6.43-9.74h3l4.63,7.46,4.78-7.46h2.8l-6.43,9.74v7.25h-2.3Z" class="cls-2"/><path d="M1240.18,304.31a4.86,4.86,0,0,0-1.82-1.44,5.55,5.55,0,0,0-2.28-.5,6.16,6.16,0,0,0-2.61.54,6.07,6.07,0,0,0-2,1.47,6.77,6.77,0,0,0-1.28,2.2,7.73,7.73,0,0,0-.46,2.7,7.42,7.42,0,0,0,.43,2.55,6.59,6.59,0,0,0,1.25,2.11,5.92,5.92,0,0,0,2,1.44,6.49,6.49,0,0,0,2.67.53,5.16,5.16,0,0,0,2.56-.61,5.47,5.47,0,0,0,1.88-1.68l1.94,1.47a7.83,7.83,0,0,1-.67.75,7,7,0,0,1-1.27,1,8.7,8.7,0,0,1-1.91.86,8.16,8.16,0,0,1-2.58.37,8.41,8.41,0,0,1-3.64-.76,8.91,8.91,0,0,1-5.1-8,10.06,10.06,0,0,1,.65-3.64,8.7,8.7,0,0,1,1.81-2.88,8.27,8.27,0,0,1,2.8-1.88,9.34,9.34,0,0,1,3.6-.67,8.66,8.66,0,0,1,3.3.65,6.12,6.12,0,0,1,2.65,2Z" class="cls-2"/><path d="M527.26,253.63c3.53-14.09,10.57-21.14,24.67-24.66s35.23-3.52,49.32,0,21.14,10.57,24.66,24.66,3.53,35.23,0,49.33-10.57,21.14-24.66,24.66-35.23,3.52-49.32,0S530.79,317.05,527.26,303,523.74,267.72,527.26,253.63Z" class="cls-1"/><path d="M576.9,256.1h3.56V291H598.2v3.23H576.9Z" class="cls-2"/><path d="M623.91,287.19c0,.46,0,1,.06,1.69s.06,1.34.08,2,0,1.32.08,1.91,0,1.05,0,1.37H621c0-.93-.07-1.83-.08-2.69a8.63,8.63,0,0,0-.14-1.67h-.16a8.78,8.78,0,0,1-3.23,3.53,9.42,9.42,0,0,1-5.27,1.47,10.8,10.8,0,0,1-4.76-.91,7.59,7.59,0,0,1-2.9-2.39A8.72,8.72,0,0,1,603,288.1a20.9,20.9,0,0,1-.37-4V269.33h3.22V284a15.73,15.73,0,0,0,.27,2.93,7.69,7.69,0,0,0,.94,2.55,5,5,0,0,0,1.88,1.81,6.46,6.46,0,0,0,3.15.67,9.24,9.24,0,0,0,3.36-.62,7.31,7.31,0,0,0,2.75-1.88,9,9,0,0,0,1.82-3.17,13.52,13.52,0,0,0,.68-4.5V269.33h3.22Z" class="cls-2"/><path d="M653.6,290.52a11.52,11.52,0,0,1-4.14,3.25,12,12,0,0,1-5,1.05,14.15,14.15,0,0,1-5.27-1,12,12,0,0,1-4.14-2.72,12.5,12.5,0,0,1-2.69-4.14,14.67,14.67,0,0,1,0-10.49,12.4,12.4,0,0,1,2.69-4.14,12,12,0,0,1,4.14-2.72,14.16,14.16,0,0,1,5.27-1,11.56,11.56,0,0,1,5.08,1.13,13.39,13.39,0,0,1,4.17,3.18l-2.58,1.93a11,11,0,0,0-3.07-2.44,7.44,7.44,0,0,0-3.6-.89,10,10,0,0,0-4.09.81,9.14,9.14,0,0,0-5.08,5.4,12,12,0,0,0,0,7.91,9.21,9.21,0,0,0,5.08,5.4,10,10,0,0,0,4.09.81,7.55,7.55,0,0,0,3.74-.94,9.86,9.86,0,0,0,2.93-2.5Z" class="cls-2"/><path d="M658.39,259.49a2.39,2.39,0,1,1,.7,1.72A2.35,2.35,0,0,1,658.39,259.49Zm.81,9.84h3.22v24.85H659.2Z" class="cls-2"/><path d="M693.3,289.82h-.11a8.26,8.26,0,0,1-1.88,2.23,11.29,11.29,0,0,1-2.45,1.56,12,12,0,0,1-2.77.92,14.82,14.82,0,0,1-2.85.29,14.15,14.15,0,0,1-5.27-1,11.84,11.84,0,0,1-4.14-2.72,12.5,12.5,0,0,1-2.69-4.14,14.67,14.67,0,0,1,0-10.49,12.4,12.4,0,0,1,2.69-4.14,11.84,11.84,0,0,1,4.14-2.72,14.4,14.4,0,0,1,8.12-.67,12.49,12.49,0,0,1,2.77.91,12.1,12.1,0,0,1,2.45,1.56,8.46,8.46,0,0,1,1.88,2.24h.11V253.52h3.22v40.66H693.3Zm.32-8.07a9.76,9.76,0,0,0-.81-3.95,10.06,10.06,0,0,0-2.2-3.23,10.66,10.66,0,0,0-3.28-2.17,10.26,10.26,0,0,0-4.09-.81,10,10,0,0,0-4.09.81,9.14,9.14,0,0,0-5.08,5.4,12,12,0,0,0,0,7.91,9.21,9.21,0,0,0,5.08,5.4,10,10,0,0,0,4.09.81,10.26,10.26,0,0,0,4.09-.81,10.51,10.51,0,0,0,3.28-2.18,10,10,0,0,0,2.2-3.22A9.81,9.81,0,0,0,693.62,281.75Z" class="cls-2"/><path d="M700.87,279.45h3l9.36,14h0v-14h2.31v17h-2.93l-9.46-14h0v14h-2.31Z" class="cls-2"/><path d="M724,289.19l-6.43-9.74h3l4.64,7.46,4.77-7.46h2.81l-6.43,9.74v7.25H724Z" class="cls-2"/><path d="M746.5,283.12a4.63,4.63,0,0,0-1.83-1.44,5.34,5.34,0,0,0-2.28-.51,6.08,6.08,0,0,0-2.6.54,6,6,0,0,0-2,1.48,6.69,6.69,0,0,0-1.29,2.2,8,8,0,0,0-.45,2.7,7.41,7.41,0,0,0,.43,2.54,6.31,6.31,0,0,0,1.25,2.11,5.7,5.7,0,0,0,2,1.44,6.44,6.44,0,0,0,2.66.53,5.3,5.3,0,0,0,2.57-.6,5.45,5.45,0,0,0,1.87-1.68l1.95,1.46a8.09,8.09,0,0,1-.68.76,6.29,6.29,0,0,1-1.27,1,9,9,0,0,1-1.91.87,8.07,8.07,0,0,1-2.58.37,8.4,8.4,0,0,1-3.63-.77,8.77,8.77,0,0,1-2.76-2,9,9,0,0,1-1.74-2.82,8.87,8.87,0,0,1-.6-3.18,9.78,9.78,0,0,1,.65-3.64,8.54,8.54,0,0,1,1.81-2.88,8,8,0,0,1,2.79-1.88,9.35,9.35,0,0,1,3.6-.68,8.86,8.86,0,0,1,3.3.65,6.22,6.22,0,0,1,2.66,2Z" class="cls-2"/><path d="M802.84,253.63c3.53-14.09,10.57-21.14,24.66-24.66s35.24-3.52,49.33,0,21.14,10.57,24.66,24.66,3.53,35.23,0,49.33-10.57,21.14-24.66,24.66-35.23,3.52-49.33,0S806.37,317.05,802.84,303,799.32,267.72,802.84,253.63Z" class="cls-1"/><path d="M852.48,256.1H856V291h17.75v3.23h-21.3Z" class="cls-2"/><path d="M899.49,287.19c0,.46,0,1,.06,1.69s.06,1.34.08,2,0,1.32.08,1.91,0,1.05,0,1.37h-3.22c0-.93-.07-1.83-.08-2.69a8.63,8.63,0,0,0-.14-1.67h-.16a8.63,8.63,0,0,1-3.23,3.52,9.35,9.35,0,0,1-5.27,1.48,10.77,10.77,0,0,1-4.76-.91,7.59,7.59,0,0,1-2.9-2.39,8.72,8.72,0,0,1-1.43-3.42,20.9,20.9,0,0,1-.38-4V269.33h3.23V284a15.73,15.73,0,0,0,.27,2.93,7.83,7.83,0,0,0,.94,2.56,5,5,0,0,0,1.88,1.8,6.46,6.46,0,0,0,3.15.67,9.24,9.24,0,0,0,3.36-.62,7.31,7.31,0,0,0,2.75-1.88,8.94,8.94,0,0,0,1.82-3.18,13.46,13.46,0,0,0,.68-4.49V269.33h3.22Z" class="cls-2"/><path d="M929.18,290.52a11.67,11.67,0,0,1-4.14,3.26,12.1,12.1,0,0,1-5,1,14.15,14.15,0,0,1-5.27-1,12.08,12.08,0,0,1-4.14-2.72,12.5,12.5,0,0,1-2.69-4.14,14.67,14.67,0,0,1,0-10.49,12.3,12.3,0,0,1,2.69-4.14,11.94,11.94,0,0,1,4.14-2.72,14.16,14.16,0,0,1,5.27-1,11.56,11.56,0,0,1,5.08,1.13,13.54,13.54,0,0,1,4.17,3.18l-2.58,1.93a11.2,11.2,0,0,0-3.07-2.45,7.55,7.55,0,0,0-3.6-.88,10.15,10.15,0,0,0-4.09.8,9.57,9.57,0,0,0-3.12,2.18,9.31,9.31,0,0,0-2,3.23,12,12,0,0,0,0,7.91,9.26,9.26,0,0,0,2,3.22,9.42,9.42,0,0,0,3.12,2.18,10,10,0,0,0,4.09.81,7.55,7.55,0,0,0,3.74-.94,9.86,9.86,0,0,0,2.93-2.5Z" class="cls-2"/><path d="M934,259.49a2.39,2.39,0,0,1,2.42-2.42,2.33,2.33,0,0,1,1.72.7,2.3,2.3,0,0,1,.7,1.72,2.33,2.33,0,0,1-.7,1.72,2.46,2.46,0,0,1-3.44,0A2.33,2.33,0,0,1,934,259.49Zm.81,9.84H938v24.85h-3.22Z" class="cls-2"/><path d="M968.88,289.82h-.11a8.26,8.26,0,0,1-1.88,2.23,11.29,11.29,0,0,1-2.45,1.56,12,12,0,0,1-2.77.92,14.82,14.82,0,0,1-2.85.29,14.15,14.15,0,0,1-5.27-1,12,12,0,0,1-4.14-2.72,12.5,12.5,0,0,1-2.69-4.14,14.67,14.67,0,0,1,0-10.49,12.3,12.3,0,0,1,2.69-4.14,11.84,11.84,0,0,1,4.14-2.72,14.4,14.4,0,0,1,8.12-.67,12.49,12.49,0,0,1,2.77.91,12.1,12.1,0,0,1,2.45,1.56,8.31,8.31,0,0,1,1.88,2.24h.11V253.52h3.22v40.66h-3.22Zm.32-8.07a9.8,9.8,0,0,0-.81-3.95,10.23,10.23,0,0,0-2.2-3.23,10.87,10.87,0,0,0-3.28-2.18,10.43,10.43,0,0,0-4.09-.8,10.15,10.15,0,0,0-4.09.8,9.57,9.57,0,0,0-3.12,2.18,9.31,9.31,0,0,0-2,3.23,12,12,0,0,0,0,7.91,9.26,9.26,0,0,0,2,3.22,9.42,9.42,0,0,0,3.12,2.18,10,10,0,0,0,4.09.81,10.26,10.26,0,0,0,4.09-.81,10.68,10.68,0,0,0,3.28-2.18,10.18,10.18,0,0,0,2.2-3.22A9.81,9.81,0,0,0,969.2,281.75Z" class="cls-2"/><path d="M974.64,295.34v-3l14-9.36v0h-14v-2.3h17v2.92l-14,9.46V293h14v2.3Z" class="cls-2"/><path d="M984.38,272.23l-9.74,6.43v-3l7.46-4.63-7.46-4.78v-2.8l9.74,6.43h7.25v2.3Z" class="cls-2"/><path d="M978.31,249.72a4.86,4.86,0,0,0-1.44,1.82,5.39,5.39,0,0,0-.5,2.28,6.16,6.16,0,0,0,.54,2.61,6.07,6.07,0,0,0,1.47,2,6.77,6.77,0,0,0,2.2,1.28,7.73,7.73,0,0,0,2.7.46,7.65,7.65,0,0,0,2.54-.43,6.38,6.38,0,0,0,2.11-1.25,5.89,5.89,0,0,0,1.44-2,6.37,6.37,0,0,0,.53-2.67,5.33,5.33,0,0,0-.6-2.57,5.54,5.54,0,0,0-1.68-1.87l1.47-1.94a9.29,9.29,0,0,1,.75.67,6.68,6.68,0,0,1,1,1.27,9.74,9.74,0,0,1,.86,1.91,8.07,8.07,0,0,1,.37,2.58,8.27,8.27,0,0,1-.77,3.64,8.71,8.71,0,0,1-4.83,4.5,8.87,8.87,0,0,1-3.18.6,10,10,0,0,1-3.64-.65,8.7,8.7,0,0,1-2.88-1.81,8.13,8.13,0,0,1-1.88-2.8,9.34,9.34,0,0,1-.67-3.6,8.84,8.84,0,0,1,.64-3.3,6.21,6.21,0,0,1,2-2.65Z" class="cls-2"/><path d="M290.38,264.45c0-14.52,5.14-23.07,18-29.9s33.32-12,47.85-12,23.07,5.13,29.9,18,12,33.33,12,47.86-5.13,23.07-18,29.9-33.33,12-47.86,11.95-23.07-5.13-29.9-17.95S290.38,279,290.38,264.45Z" class="cls-1"/><path d="M344.53,253.23h3.55v34.86h17.75v3.23h-21.3Z" class="cls-2"/><path d="M391.54,284.32c0,.47,0,1,0,1.7s.07,1.33.08,2,.05,1.32.08,1.92.06,1,.06,1.37h-3.23c0-.94-.06-1.83-.08-2.69a8.94,8.94,0,0,0-.13-1.67h-.16a8.76,8.76,0,0,1-3.23,3.52,9.4,9.4,0,0,1-5.27,1.48,10.74,10.74,0,0,1-4.76-.91,7.56,7.56,0,0,1-2.91-2.4,8.6,8.6,0,0,1-1.42-3.41,20.9,20.9,0,0,1-.38-4V266.47h3.23V281.1a15.73,15.73,0,0,0,.27,2.93,7.69,7.69,0,0,0,.94,2.55,4.73,4.73,0,0,0,1.88,1.8,6.45,6.45,0,0,0,3.15.68,9.24,9.24,0,0,0,3.36-.62,7.27,7.27,0,0,0,2.74-1.88,9.2,9.2,0,0,0,1.83-3.18,13.47,13.47,0,0,0,.67-4.49V266.47h3.23Z" class="cls-2"/><path d="M421.23,287.66a11.63,11.63,0,0,1-4.14,3.25,12,12,0,0,1-5,1,14,14,0,0,1-5.28-1,12,12,0,0,1-4.14-2.71,12.76,12.76,0,0,1-2.69-4.15,14.78,14.78,0,0,1,0-10.48,12.61,12.61,0,0,1,2.69-4.14,12,12,0,0,1,4.14-2.72,14,14,0,0,1,5.28-1,11.56,11.56,0,0,1,5.08,1.13,13.36,13.36,0,0,1,4.17,3.17l-2.58,1.94a11.31,11.31,0,0,0-3.07-2.45,7.55,7.55,0,0,0-3.6-.88,10,10,0,0,0-4.09.8,9.57,9.57,0,0,0-3.12,2.18,9.07,9.07,0,0,0-2,3.23,11.81,11.81,0,0,0,0,7.9,9.07,9.07,0,0,0,2,3.23,9.42,9.42,0,0,0,3.12,2.18,10,10,0,0,0,4.09.81,7.52,7.52,0,0,0,3.73-.95,9.75,9.75,0,0,0,2.94-2.5Z" class="cls-2"/><path d="M426,256.62a2.42,2.42,0,1,1,4.84,0,2.39,2.39,0,0,1-.7,1.73,2.42,2.42,0,0,1-4.14-1.73Zm.8,9.85h3.23v24.85h-3.23Z" class="cls-2"/><path d="M460.92,287h-.11a8.24,8.24,0,0,1-1.88,2.23,11.23,11.23,0,0,1-2.44,1.56,12.6,12.6,0,0,1-2.78.92,14.66,14.66,0,0,1-2.85.29,14,14,0,0,1-5.27-1,12,12,0,0,1-4.14-2.71,12.6,12.6,0,0,1-2.69-4.15,14.64,14.64,0,0,1,0-10.48,12.45,12.45,0,0,1,2.69-4.14,12,12,0,0,1,4.14-2.72,14.4,14.4,0,0,1,8.12-.67,12.07,12.07,0,0,1,2.78.91,11.23,11.23,0,0,1,2.44,1.56,8.24,8.24,0,0,1,1.88,2.23h.11V250.65h3.23v40.67h-3.23Zm.33-8.07a9.76,9.76,0,0,0-.81-3.95,10,10,0,0,0-2.21-3.23,10.62,10.62,0,0,0-3.28-2.18,10.22,10.22,0,0,0-4.09-.8,10,10,0,0,0-4.08.8,9.57,9.57,0,0,0-3.12,2.18,9.24,9.24,0,0,0-2,3.23,12,12,0,0,0,0,7.9,9.24,9.24,0,0,0,2,3.23,9.42,9.42,0,0,0,3.12,2.18,10,10,0,0,0,4.08.81,10.23,10.23,0,0,0,4.09-.81,10.45,10.45,0,0,0,3.28-2.18,10,10,0,0,0,2.21-3.23A9.73,9.73,0,0,0,461.25,278.89Z" class="cls-2"/><circle cx="1126.62" cy="96.63" r="48.08" class="cls-1"/><path d="M1122.84,70.6h3.55v34.85h17.75v3.23h-21.3Z" class="cls-2"/><path d="M1169.85,101.69c0,.46,0,1,.05,1.69s.07,1.34.08,2,0,1.32.09,1.91,0,1,0,1.37h-3.23c0-.93-.06-1.83-.08-2.69a8.94,8.94,0,0,0-.13-1.67h-.16a8.78,8.78,0,0,1-3.23,3.53,9.48,9.48,0,0,1-5.27,1.48,10.73,10.73,0,0,1-4.76-.92,7.63,7.63,0,0,1-2.91-2.39,8.71,8.71,0,0,1-1.42-3.42,20.9,20.9,0,0,1-.38-4V83.83h3.23V98.46a15.65,15.65,0,0,0,.27,2.93A7.83,7.83,0,0,0,1153,104a4.94,4.94,0,0,0,1.88,1.8,6.46,6.46,0,0,0,3.15.67,9,9,0,0,0,3.36-.62,7.19,7.19,0,0,0,2.74-1.88,9.15,9.15,0,0,0,1.83-3.17,13.52,13.52,0,0,0,.67-4.49V83.83h3.23Z" class="cls-2"/><path d="M1199.54,105a11.67,11.67,0,0,1-4.14,3.26,12,12,0,0,1-5,1,14.25,14.25,0,0,1-5.28-1,12,12,0,0,1-4.14-2.72,12.71,12.71,0,0,1-2.69-4.14,14.81,14.81,0,0,1,0-10.49,12.82,12.82,0,0,1,2.69-4.14,12,12,0,0,1,4.14-2.72,14.25,14.25,0,0,1,5.28-1,11.56,11.56,0,0,1,5.08,1.13,13.54,13.54,0,0,1,4.17,3.18l-2.58,1.93A11.27,11.27,0,0,0,1194,87a7.44,7.44,0,0,0-3.6-.89,10,10,0,0,0-4.09.81,9.4,9.4,0,0,0-3.12,2.17,9.16,9.16,0,0,0-2,3.23,11.84,11.84,0,0,0,0,7.91,9.16,9.16,0,0,0,2,3.23,9.4,9.4,0,0,0,3.12,2.17,10,10,0,0,0,4.09.81,7.52,7.52,0,0,0,3.73-.94,9.89,9.89,0,0,0,2.94-2.5Z" class="cls-2"/><path d="M1204.33,74a2.43,2.43,0,0,1,4.14-1.72,2.43,2.43,0,1,1-4.14,1.72Zm.8,9.84h3.23v24.85h-3.23Z" class="cls-2"/><path d="M1239.23,104.32h-.11a8.09,8.09,0,0,1-1.88,2.23,11.66,11.66,0,0,1-2.44,1.57,12.67,12.67,0,0,1-2.77.91,14.43,14.43,0,0,1-8.13-.67,12,12,0,0,1-4.14-2.72,12.55,12.55,0,0,1-2.69-4.14,14.67,14.67,0,0,1,0-10.49,12.66,12.66,0,0,1,2.69-4.14,12,12,0,0,1,4.14-2.72,14.43,14.43,0,0,1,8.13-.67,12.18,12.18,0,0,1,2.77.92,11.23,11.23,0,0,1,2.44,1.56,8.09,8.09,0,0,1,1.88,2.23h.11V68h3.23v40.66h-3.23Zm.33-8.06a9.81,9.81,0,0,0-.81-4,10.09,10.09,0,0,0-2.21-3.23,10.42,10.42,0,0,0-3.28-2.17,10.23,10.23,0,0,0-4.09-.81,10,10,0,0,0-4.08.81,9.19,9.19,0,0,0-5.09,5.4,12,12,0,0,0,0,7.91,9.19,9.19,0,0,0,5.09,5.4,10,10,0,0,0,4.08.81,10.23,10.23,0,0,0,4.09-.81,10.42,10.42,0,0,0,3.28-2.17,10.09,10.09,0,0,0,2.21-3.23A9.8,9.8,0,0,0,1239.56,96.26Z" class="cls-2"/><path d="M97.13,156.46a39,39,0,0,0,18.34-75.39Q93,72.49,95,52.12A32.27,32.27,0,1,0,50.7,76.35Q68.91,85.68,64,109.2,60.68,134.35,50,135.83a21.65,21.65,0,1,0,23.25,28.95Q76.57,155.7,97.13,156.46Z" class="cls-1"/><path d="M87.47,92H91v34.86h17.75V130H87.47Z" class="cls-2"/><path d="M134.48,123c0,.47,0,1,.05,1.7s.06,1.33.08,2,0,1.32.08,1.91.05,1.05.05,1.37h-3.22c0-.93-.07-1.82-.08-2.68a8.63,8.63,0,0,0-.14-1.67h-.16a8.62,8.62,0,0,1-3.23,3.52,9.35,9.35,0,0,1-5.27,1.48,10.8,10.8,0,0,1-4.76-.91,7.6,7.6,0,0,1-2.9-2.4,8.62,8.62,0,0,1-1.43-3.41,20.9,20.9,0,0,1-.37-4V105.19h3.22v14.63a15.73,15.73,0,0,0,.27,2.93,7.69,7.69,0,0,0,.94,2.55,4.89,4.89,0,0,0,1.89,1.8,6.38,6.38,0,0,0,3.14.68,9.16,9.16,0,0,0,3.36-.62,7.23,7.23,0,0,0,2.75-1.88,9.29,9.29,0,0,0,1.83-3.18,13.74,13.74,0,0,0,.67-4.49V105.19h3.23Z" class="cls-2"/><path d="M164.17,126.38a11.58,11.58,0,0,1-4.15,3.25,11.92,11.92,0,0,1-5,1.05,14,14,0,0,1-5.27-1,12,12,0,0,1-4.14-2.71,12.6,12.6,0,0,1-2.69-4.15,14.64,14.64,0,0,1,0-10.48,12.6,12.6,0,0,1,2.69-4.15,12,12,0,0,1,4.14-2.71,14,14,0,0,1,5.27-1,11.61,11.61,0,0,1,5.09,1.13,13.43,13.43,0,0,1,4.16,3.17l-2.58,1.94a11.12,11.12,0,0,0-3.06-2.45,7.63,7.63,0,0,0-3.61-.89,10,10,0,0,0-4.09.81,9.53,9.53,0,0,0-3.11,2.18,9.09,9.09,0,0,0-2,3.23,12,12,0,0,0,0,7.9,9.09,9.09,0,0,0,2,3.23,9.53,9.53,0,0,0,3.11,2.18,10,10,0,0,0,4.09.81,7.56,7.56,0,0,0,3.74-1,9.59,9.59,0,0,0,2.93-2.5Z" class="cls-2"/><path d="M169,95.34a2.33,2.33,0,0,1,.7-1.72,2.46,2.46,0,0,1,3.44,0A2.43,2.43,0,1,1,169,95.34Zm.81,9.85H173V130h-3.23Z" class="cls-2"/><path d="M203.86,125.68h-.11a8.42,8.42,0,0,1-1.88,2.23,11.29,11.29,0,0,1-2.45,1.56,12,12,0,0,1-2.77.91,14.4,14.4,0,0,1-8.12-.67,11.91,11.91,0,0,1-4.14-2.71,12.44,12.44,0,0,1-2.69-4.15,14.64,14.64,0,0,1,0-10.48,12.44,12.44,0,0,1,2.69-4.15,11.91,11.91,0,0,1,4.14-2.71,14.4,14.4,0,0,1,8.12-.67,12,12,0,0,1,2.77.91,11.29,11.29,0,0,1,2.45,1.56,8.42,8.42,0,0,1,1.88,2.23h.11V89.37h3.23V130h-3.23Zm.32-8.07a9.73,9.73,0,0,0-.81-4,10,10,0,0,0-2.2-3.23,10.74,10.74,0,0,0-3.28-2.18,10.26,10.26,0,0,0-4.09-.81,10,10,0,0,0-4.09.81,9.57,9.57,0,0,0-3.12,2.18,9.22,9.22,0,0,0-2,3.23,12,12,0,0,0,0,7.9,9.22,9.22,0,0,0,2,3.23,9.57,9.57,0,0,0,3.12,2.18,10,10,0,0,0,4.09.81,10.26,10.26,0,0,0,4.09-.81,10.74,10.74,0,0,0,3.28-2.18,10,10,0,0,0,2.2-3.23A9.73,9.73,0,0,0,204.18,117.61Z" class="cls-2"/><path d="M418.51,98c-9.08,2.89-30.72,15-36.77,9.6s3.5-28.27,14.59-41.93S420.06,47.57,431,51.07s20.31,15,27.83,13.82S472.12,50,480.27,38.45s18.71-21,24.15-16.14,5.76,24-1.18,36.62-21.13,18.84-24.52,29.94,4,27.14,7.21,39.39,2.13,20.74-6.27,29-24.15,16.14-36.08,14.92-20.05-11.59-23.24-23.85-1.43-26.39,1.18-36.62S427.6,95.1,418.51,98Z" class="cls-1"/><path d="M432.87,101.7h3.55v34.85h17.75v3.23h-21.3Z" class="cls-2"/><path d="M479.88,132.79c0,.46,0,1,.05,1.69s.06,1.34.08,2,.05,1.32.08,1.91.06,1.05.06,1.37h-3.23c0-.93-.06-1.83-.08-2.69a8.63,8.63,0,0,0-.14-1.67h-.16a8.64,8.64,0,0,1-3.23,3.53,9.43,9.43,0,0,1-5.27,1.48,10.79,10.79,0,0,1-4.76-.92,7.67,7.67,0,0,1-2.9-2.39A8.72,8.72,0,0,1,459,133.7a20.9,20.9,0,0,1-.37-4V114.93h3.22v14.63a15.73,15.73,0,0,0,.27,2.93,8.06,8.06,0,0,0,.94,2.56,5,5,0,0,0,1.89,1.8,6.39,6.39,0,0,0,3.14.67,9.25,9.25,0,0,0,3.37-.62,7.27,7.27,0,0,0,2.74-1.88,9.15,9.15,0,0,0,1.83-3.17,13.54,13.54,0,0,0,.67-4.5V114.93h3.23Z" class="cls-2"/><path d="M509.57,136.12a11.67,11.67,0,0,1-4.14,3.26,12,12,0,0,1-5,1.05,14.19,14.19,0,0,1-5.27-1,12,12,0,0,1-4.14-2.72,12.55,12.55,0,0,1-2.69-4.14,14.67,14.67,0,0,1,0-10.49A12.66,12.66,0,0,1,491,118a12,12,0,0,1,4.14-2.72,14.19,14.19,0,0,1,5.27-1,11.61,11.61,0,0,1,5.09,1.13,13.39,13.39,0,0,1,4.16,3.18l-2.58,1.93a11.08,11.08,0,0,0-3.06-2.44,7.48,7.48,0,0,0-3.61-.89,9.94,9.94,0,0,0-4.08.81,9.4,9.4,0,0,0-3.12,2.17,9.18,9.18,0,0,0-2,3.23,12,12,0,0,0,0,7.91,9.18,9.18,0,0,0,2,3.23,9.4,9.4,0,0,0,3.12,2.17,9.94,9.94,0,0,0,4.08.81,7.53,7.53,0,0,0,3.74-.94,9.73,9.73,0,0,0,2.93-2.5Z" class="cls-2"/><path d="M514.35,105.09a2.39,2.39,0,0,1,2.42-2.42,2.43,2.43,0,0,1,1.72,4.14,2.42,2.42,0,0,1-4.14-1.72Zm.81,9.84h3.23v24.85h-3.23Z" class="cls-2"/><path d="M549.26,135.42h-.11a8.26,8.26,0,0,1-1.88,2.23,11.48,11.48,0,0,1-2.45,1.57,12.49,12.49,0,0,1-2.77.91,14.4,14.4,0,0,1-8.12-.67,12,12,0,0,1-4.14-2.72,12.4,12.4,0,0,1-2.69-4.14,14.67,14.67,0,0,1,0-10.49,12.5,12.5,0,0,1,2.69-4.14,12,12,0,0,1,4.14-2.72,14.4,14.4,0,0,1,8.12-.67,12,12,0,0,1,2.77.92,11.39,11.39,0,0,1,2.45,1.55,8.46,8.46,0,0,1,1.88,2.24h.11V99.12h3.23v40.66h-3.23Zm.32-8.07a10,10,0,0,0-.8-3.95,10.25,10.25,0,0,0-2.21-3.23,10.54,10.54,0,0,0-3.28-2.17,10.26,10.26,0,0,0-4.09-.81,10,10,0,0,0-4.09.81,9.14,9.14,0,0,0-5.08,5.4,12,12,0,0,0,0,7.91,9.14,9.14,0,0,0,5.08,5.4,10,10,0,0,0,4.09.81,10.26,10.26,0,0,0,4.09-.81,10.54,10.54,0,0,0,3.28-2.17,10.25,10.25,0,0,0,2.21-3.23A10,10,0,0,0,549.58,127.35Z" class="cls-2"/><path d="M834.23,33.5a18.91,18.91,0,0,0-7.5-1.68c-2.91-.08-6.11.5-8,2.72a17.44,17.44,0,0,0-2.38,4.79c-5,12-18.47,16.13-29.87,11.29C776.31,46.31,768,37.82,756,40.81c-15.84,4-24.74,21.75-20.76,37.09,2,7.78,9.36,14.8,17.3,13.58,3-.45,6.19-1.93,8.75-.37,3.49,2.1,2.29,7.34.92,11.18-6.34,17.77-7,40.56,9.91,52.79A34.16,34.16,0,0,0,826.3,128c.16-9.6-3.67-18.73-6.22-28s-3.67-19.78,1.41-27.92c3.73-6,10.19-9.67,14.94-14.88,5.35-5.88,7.39-16.7.35-22.16A14.16,14.16,0,0,0,834.23,33.5Z" class="cls-1"/><path d="M772.76,92h3.55v34.86h17.75v3.22h-21.3Z" class="cls-2"/><path d="M819.77,123.06c0,.47,0,1,.06,1.7s.06,1.33.08,2,0,1.32.08,1.91,0,1,0,1.37h-3.23c0-.93-.06-1.83-.08-2.69a8,8,0,0,0-.13-1.66h-.16a8.75,8.75,0,0,1-3.23,3.52,9.45,9.45,0,0,1-5.27,1.48,10.76,10.76,0,0,1-4.76-.92,7.45,7.45,0,0,1-2.91-2.39,8.86,8.86,0,0,1-1.42-3.42,20.79,20.79,0,0,1-.38-4V105.2h3.23v14.63a15.58,15.58,0,0,0,.27,2.93,7.74,7.74,0,0,0,.94,2.56,5,5,0,0,0,1.88,1.8,6.46,6.46,0,0,0,3.15.67,9.23,9.23,0,0,0,3.36-.61,7.22,7.22,0,0,0,2.74-1.89,9.15,9.15,0,0,0,1.83-3.17,13.46,13.46,0,0,0,.68-4.49V105.2h3.22Z" class="cls-2"/><path d="M849.46,126.4a11.63,11.63,0,0,1-4.14,3.25,12,12,0,0,1-5,1,14.16,14.16,0,0,1-5.27-1,11.71,11.71,0,0,1-4.14-2.72,12.3,12.3,0,0,1-2.69-4.14,14.67,14.67,0,0,1,0-10.49,12.5,12.5,0,0,1,2.69-4.14,11.82,11.82,0,0,1,4.14-2.71,14,14,0,0,1,5.27-1,11.43,11.43,0,0,1,5.08,1.13,13.36,13.36,0,0,1,4.17,3.17L847,110.8a11.31,11.31,0,0,0-3.07-2.45,7.56,7.56,0,0,0-3.6-.89,10,10,0,0,0-4.09.81,9.42,9.42,0,0,0-3.12,2.18,9.22,9.22,0,0,0-2,3.23,12,12,0,0,0,0,7.9,9.31,9.31,0,0,0,2,3.23,9.57,9.57,0,0,0,3.12,2.18,10.15,10.15,0,0,0,4.09.8,7.55,7.55,0,0,0,3.74-.94,9.71,9.71,0,0,0,2.93-2.5Z" class="cls-2"/><path d="M854.25,95.36a2.39,2.39,0,1,1,.7,1.72A2.31,2.31,0,0,1,854.25,95.36Zm.8,9.84h3.23v24.85h-3.23Z" class="cls-2"/><path d="M889.15,125.7h-.1a8.42,8.42,0,0,1-1.88,2.23,11.29,11.29,0,0,1-2.45,1.56,12.49,12.49,0,0,1-2.77.91,14.4,14.4,0,0,1-8.12-.67,11.84,11.84,0,0,1-4.15-2.72,12.43,12.43,0,0,1-2.68-4.14,14.67,14.67,0,0,1,0-10.49,12.63,12.63,0,0,1,2.68-4.14,12,12,0,0,1,4.15-2.71,14,14,0,0,1,5.27-1,14.82,14.82,0,0,1,2.85.29,12.52,12.52,0,0,1,2.77.92,11.29,11.29,0,0,1,2.45,1.56,8.42,8.42,0,0,1,1.88,2.23h.1V89.39h3.23v40.66h-3.23Zm.33-8.07a9.73,9.73,0,0,0-.81-3.95,10.11,10.11,0,0,0-2.2-3.23,10.61,10.61,0,0,0-3.29-2.18,10.18,10.18,0,0,0-4.08-.81,10,10,0,0,0-4.09.81,9.42,9.42,0,0,0-3.12,2.18,9.07,9.07,0,0,0-2,3.23,11.81,11.81,0,0,0,0,7.9,9.16,9.16,0,0,0,2,3.23A9.57,9.57,0,0,0,875,127a10.15,10.15,0,0,0,4.09.8,10.35,10.35,0,0,0,4.08-.8,10.79,10.79,0,0,0,3.29-2.18,10.23,10.23,0,0,0,2.2-3.23A9.76,9.76,0,0,0,889.48,117.63Z" class="cls-2"/></svg>