<svg xmlns="http://www.w3.org/2000/svg" id="Layer_1" data-name="Layer 1" viewBox="0 0 1274.91 594.15"><defs><style>.cls-1{fill:#231f20}.cls-2{fill:#f6eb0f}</style></defs><title>Artboard 2 copy</title><path d="M43.81,67.78v.82H30.94V44.54h.94V67.78Z" class="cls-1"/><path d="M55.46,68.05a8,8,0,0,0,3.33-.65,7.4,7.4,0,0,0,2.48-1.81,7.89,7.89,0,0,0,1.56-2.69,10.11,10.11,0,0,0,.54-3.33v-15h1v15a10.64,10.64,0,0,1-.62,3.65,8.69,8.69,0,0,1-1.77,3,8.26,8.26,0,0,1-2.79,2,9.72,9.72,0,0,1-7.39,0,8.26,8.26,0,0,1-2.79-2,8.83,8.83,0,0,1-1.76-3,10.63,10.63,0,0,1-.61-3.65v-15h.94v15a10.13,10.13,0,0,0,.54,3.34,8,8,0,0,0,1.55,2.71,7.23,7.23,0,0,0,2.49,1.82A8.09,8.09,0,0,0,55.46,68.05Z" class="cls-1"/><path d="M89.26,65a.32.32,0,0,1,.19.08l.36.38a13.51,13.51,0,0,1-1.63,1.38,10.08,10.08,0,0,1-1.91,1.06,11.8,11.8,0,0,1-2.29.7,14.41,14.41,0,0,1-2.73.25A11.51,11.51,0,0,1,76.74,68a10.16,10.16,0,0,1-3.55-2.46,11.48,11.48,0,0,1-2.33-3.88,14.67,14.67,0,0,1-.84-5.1,14.37,14.37,0,0,1,.84-5,11.33,11.33,0,0,1,2.37-3.89,10.68,10.68,0,0,1,3.67-2.5,11.92,11.92,0,0,1,4.69-.89,11.6,11.6,0,0,1,4.28.73,12.23,12.23,0,0,1,3.48,2.12l-.26.38a.29.29,0,0,1-.27.12.76.76,0,0,1-.36-.19L87.81,47a11.31,11.31,0,0,0-1-.61,8,8,0,0,0-1.34-.62,11.93,11.93,0,0,0-1.75-.47,11.92,11.92,0,0,0-6.44.62A9.53,9.53,0,0,0,74,48.17a10.34,10.34,0,0,0-2.18,3.62A13.81,13.81,0,0,0,71,56.57a14,14,0,0,0,.78,4.84A10.56,10.56,0,0,0,73.94,65a9.37,9.37,0,0,0,3.27,2.26,10.43,10.43,0,0,0,4.09.79,14.21,14.21,0,0,0,2.48-.19,9.24,9.24,0,0,0,2-.56,8.65,8.65,0,0,0,1.7-.92A18.87,18.87,0,0,0,89,65.15.33.33,0,0,1,89.26,65Z" class="cls-1"/><path d="M95.87,68.6h-1V44.54h1Z" class="cls-1"/><path d="M123.44,56.57a14.55,14.55,0,0,1-.83,5.06,10.46,10.46,0,0,1-2.31,3.78,10,10,0,0,1-3.56,2.37,12.21,12.21,0,0,1-4.56.82H103.5V44.54h8.68a12.21,12.21,0,0,1,4.56.82,10,10,0,0,1,3.56,2.37,10.54,10.54,0,0,1,2.31,3.78A14.55,14.55,0,0,1,123.44,56.57Zm-1,0a14.15,14.15,0,0,0-.74-4.78,9.77,9.77,0,0,0-2.11-3.53,9,9,0,0,0-3.25-2.2,11.2,11.2,0,0,0-4.16-.75h-7.74V67.83h7.74a11.2,11.2,0,0,0,4.16-.75,8.9,8.9,0,0,0,3.25-2.19,9.9,9.9,0,0,0,2.11-3.54A14.11,14.11,0,0,0,122.44,56.57Z" class="cls-1"/><path d="M246.4,67.82v.82H233.53V44.58h.94V67.82Z" class="cls-1"/><path d="M261.17,51.76V68.64h-.41c-.2,0-.32-.12-.36-.34l-.08-3a9.39,9.39,0,0,1-2.83,2.59,6.79,6.79,0,0,1-3.57,1,6.4,6.4,0,0,1-2.46-.43,4.75,4.75,0,0,1-1.75-1.25,5.43,5.43,0,0,1-1-2,9.54,9.54,0,0,1-.35-2.67V51.76h.91v10.8a8.52,8.52,0,0,0,.29,2.36,4.61,4.61,0,0,0,.9,1.78,4,4,0,0,0,1.52,1.11,5.66,5.66,0,0,0,2.15.38,6.35,6.35,0,0,0,3.39-1,9.85,9.85,0,0,0,2.8-2.68V51.76Z" class="cls-1"/><path d="M278.3,53.61l-.1.1a.26.26,0,0,1-.14,0,.83.83,0,0,1-.42-.24,6.18,6.18,0,0,0-2.11-1.06,6.56,6.56,0,0,0-1.9-.24,6.73,6.73,0,0,0-2.8.55,5.89,5.89,0,0,0-2.07,1.6,7.5,7.5,0,0,0-1.29,2.52A11.36,11.36,0,0,0,267,60.2a11.62,11.62,0,0,0,.45,3.38,7.14,7.14,0,0,0,1.28,2.49,5.5,5.5,0,0,0,2,1.54,6.15,6.15,0,0,0,2.61.53,6.87,6.87,0,0,0,2.18-.3,7.44,7.44,0,0,0,1.46-.66,6,6,0,0,0,.89-.67c.21-.2.35-.3.45-.3a.27.27,0,0,1,.22.1l.2.26a4.16,4.16,0,0,1-.84.84,6.5,6.5,0,0,1-1.25.72,8.61,8.61,0,0,1-1.58.52,8.31,8.31,0,0,1-1.84.19,7.18,7.18,0,0,1-2.94-.58,6.14,6.14,0,0,1-2.25-1.69,7.94,7.94,0,0,1-1.45-2.72,13.12,13.12,0,0,1,0-7.21,8,8,0,0,1,1.47-2.75,6.84,6.84,0,0,1,2.34-1.77,7.6,7.6,0,0,1,3.17-.63,7.24,7.24,0,0,1,2.8.51,6.85,6.85,0,0,1,2.13,1.32Z" class="cls-1"/><path d="M285,45.67a1.14,1.14,0,0,1-.1.45,1.36,1.36,0,0,1-.27.36,1.12,1.12,0,0,1-.38.26,1.08,1.08,0,0,1-.43.1,1.11,1.11,0,0,1-.83-.36,1.08,1.08,0,0,1-.35-.81,1.12,1.12,0,0,1,.35-.83,1.14,1.14,0,0,1,.83-.35,1.07,1.07,0,0,1,.43.09,1.28,1.28,0,0,1,.38.26,1.46,1.46,0,0,1,.27.38A1.14,1.14,0,0,1,285,45.67Zm-.74,6.09V68.64h-.89V51.76Z" class="cls-1"/><path d="M303.2,43.89V68.64h-.41a.32.32,0,0,1-.36-.34l-.1-3a8.59,8.59,0,0,1-2.7,2.61,6.46,6.46,0,0,1-3.46,1,6,6,0,0,1-4.95-2.12c-1.15-1.41-1.72-3.58-1.72-6.48A11.82,11.82,0,0,1,290,56.8a8.09,8.09,0,0,1,1.4-2.78,6.64,6.64,0,0,1,2.31-1.85,7.16,7.16,0,0,1,3.19-.68,6.7,6.7,0,0,1,3.14.69,6.45,6.45,0,0,1,2.29,2.08V43.89Zm-.9,11.28a6.56,6.56,0,0,0-2.35-2.3,6.22,6.22,0,0,0-2.94-.68,6.38,6.38,0,0,0-2.89.61,5.72,5.72,0,0,0-2.06,1.68A7.38,7.38,0,0,0,290.83,57a12.11,12.11,0,0,0-.41,3.21q0,4,1.51,5.95a5.29,5.29,0,0,0,4.43,1.93,6,6,0,0,0,3.29-1,9,9,0,0,0,2.65-2.71Z" class="cls-1"/><path d="M430.3,64v4.62h-15V43.7h5.78V64Z" class="cls-1"/><path d="M448.05,50.89V68.64h-3.28a1.24,1.24,0,0,1-1.3-.89l-.31-1a11,11,0,0,1-1.06.9,6,6,0,0,1-1.18.68,6.68,6.68,0,0,1-1.35.45,7.11,7.11,0,0,1-1.58.16,6.35,6.35,0,0,1-2.58-.5A5.42,5.42,0,0,1,433.52,67a6.1,6.1,0,0,1-1.16-2.13,9,9,0,0,1-.39-2.71V50.89h5.3V62.15a3.1,3.1,0,0,0,.6,2,2.16,2.16,0,0,0,1.76.72,3.82,3.82,0,0,0,1.64-.37,7,7,0,0,0,1.48-1V50.89Z" class="cls-1"/><path d="M464.69,55.1a2.51,2.51,0,0,1-.47.46,1,1,0,0,1-.63.17,1.41,1.41,0,0,1-.71-.18l-.71-.42a4.63,4.63,0,0,0-.92-.42,3.92,3.92,0,0,0-1.32-.19,3.73,3.73,0,0,0-1.69.36,3.19,3.19,0,0,0-1.17,1,4.53,4.53,0,0,0-.68,1.64,9.6,9.6,0,0,0-.23,2.18,6.62,6.62,0,0,0,1,3.92A3.16,3.16,0,0,0,459.86,65a3.84,3.84,0,0,0,1.46-.23,4.64,4.64,0,0,0,.92-.52l.69-.52a1.29,1.29,0,0,1,.8-.24,1.11,1.11,0,0,1,1,.47l1.54,1.9a8.3,8.3,0,0,1-3.59,2.45,9.32,9.32,0,0,1-1.91.46,13.33,13.33,0,0,1-1.86.13,8,8,0,0,1-3.11-.61,7.62,7.62,0,0,1-2.6-1.79,8.66,8.66,0,0,1-1.78-2.89,11.6,11.6,0,0,1-.08-7.48,7.76,7.76,0,0,1,4.46-4.82,9.69,9.69,0,0,1,3.83-.7,9.41,9.41,0,0,1,3.66.66,8.9,8.9,0,0,1,2.84,1.95Z" class="cls-1"/><path d="M474.27,46a2.83,2.83,0,0,1-.26,1.19,3.09,3.09,0,0,1-.7,1,3.56,3.56,0,0,1-1,.66,3.18,3.18,0,0,1-1.26.25,2.93,2.93,0,0,1-1.22-.25,3.55,3.55,0,0,1-1-.66,3,3,0,0,1-.68-1,2.82,2.82,0,0,1-.25-1.19,3,3,0,0,1,.25-1.22,3.18,3.18,0,0,1,.68-1,3.38,3.38,0,0,1,1-.67,3.27,3.27,0,0,1,1.22-.23,3.56,3.56,0,0,1,1.26.23,3.39,3.39,0,0,1,1,.67,3.25,3.25,0,0,1,.7,1A3,3,0,0,1,474.27,46Zm-.55,4.86V68.64h-5.3V50.89Z" class="cls-1"/><path d="M493.51,43V68.64h-3.29a1.25,1.25,0,0,1-1.3-.89l-.41-1.35a13.13,13.13,0,0,1-1.11,1,6.89,6.89,0,0,1-1.26.8,6.81,6.81,0,0,1-1.46.51,7.46,7.46,0,0,1-1.68.18,5.47,5.47,0,0,1-2.57-.61,6,6,0,0,1-2-1.78,9.18,9.18,0,0,1-1.34-2.85,14.11,14.11,0,0,1-.49-3.85,12.08,12.08,0,0,1,.55-3.68,9.1,9.1,0,0,1,1.55-3,7.37,7.37,0,0,1,2.4-1.94,6.82,6.82,0,0,1,3.1-.7,6.1,6.1,0,0,1,2.33.39A6.28,6.28,0,0,1,488.2,52V43ZM488.2,55.65a3.22,3.22,0,0,0-1.3-.93,4.08,4.08,0,0,0-1.47-.27,3.17,3.17,0,0,0-1.35.29,2.85,2.85,0,0,0-1.07.93,4.86,4.86,0,0,0-.71,1.67,10.43,10.43,0,0,0-.26,2.48,12.11,12.11,0,0,0,.2,2.37,4.81,4.81,0,0,0,.58,1.54,2.16,2.16,0,0,0,.88.85,2.53,2.53,0,0,0,1.15.26,4.84,4.84,0,0,0,1-.11,3.82,3.82,0,0,0,.86-.32,3.73,3.73,0,0,0,.75-.52,8.16,8.16,0,0,0,.69-.73Z" class="cls-1"/><path d="M605,67.66H617.5v.9H604.1V44.23H605Z" class="cls-1"/><path d="M632.71,65.32A6.27,6.27,0,0,1,630.28,68a7.42,7.42,0,0,1-3.83.93,5.3,5.3,0,0,1-4.38-2q-1.58-2-1.57-6.14V50.48h.9V60.82c0,2.45.45,4.27,1.35,5.44A4.37,4.37,0,0,0,626.41,68a6.18,6.18,0,0,0,4.34-1.39,6.36,6.36,0,0,0,1.93-3.68V50.48h.92V68.56h-.75Z" class="cls-1"/><path d="M645.43,68a6.83,6.83,0,0,0,4.05-1.25A4.32,4.32,0,0,0,651.23,63H652l0,.1a4.91,4.91,0,0,1-1.94,4.23,7.32,7.32,0,0,1-4.66,1.58A6.51,6.51,0,0,1,640,66.42a10.26,10.26,0,0,1-2-6.55v-.7a10.31,10.31,0,0,1,2-6.54,6.48,6.48,0,0,1,5.4-2.49,7.1,7.1,0,0,1,4.75,1.65A5.54,5.54,0,0,1,652,56.43l0,.1h-.77a5,5,0,0,0-1.7-4.07,6.29,6.29,0,0,0-4.13-1.41,5.56,5.56,0,0,0-4.82,2.27A9.76,9.76,0,0,0,639,59.17v.7a9.81,9.81,0,0,0,1.63,5.88A5.61,5.61,0,0,0,645.43,68Z" class="cls-1"/><path d="M657.78,44.8h-.9V42.49h.9Zm0,23.76h-.9V50.48h.9Z" class="cls-1"/><path d="M662.88,59.5a11.54,11.54,0,0,1,1.8-6.82,5.83,5.83,0,0,1,5-2.54,6.7,6.7,0,0,1,6.13,3.56V42.49h.9V68.56h-.87l0-2.81a6.5,6.5,0,0,1-2.48,2.31,7.62,7.62,0,0,1-3.69.85,5.82,5.82,0,0,1-5-2.44,10.9,10.9,0,0,1-1.8-6.62Zm.93.35a10.58,10.58,0,0,0,1.48,5.95A4.92,4.92,0,0,0,669.65,68a6.83,6.83,0,0,0,3.92-1.07,6.09,6.09,0,0,0,2.26-2.86V55.61a7.54,7.54,0,0,0-2.1-3.25,5.81,5.81,0,0,0-4.05-1.31,4.87,4.87,0,0,0-4.37,2.34,11.22,11.22,0,0,0-1.5,6.11Z" class="cls-1"/><path d="M796.44,66.86h9.83v1.7H794.42V44.23h2Z" class="cls-1"/><path d="M818.32,65.74a5.92,5.92,0,0,1-1.91,2.35,4.72,4.72,0,0,1-2.77.82A4.3,4.3,0,0,1,809.89,67q-1.35-1.94-1.35-6V50.48h2V61a9.43,9.43,0,0,0,.86,4.7,2.75,2.75,0,0,0,2.5,1.41,4.2,4.2,0,0,0,2.8-.92,5.2,5.2,0,0,0,1.54-2.55V50.48h2V68.56h-1.81Z" class="cls-1"/><path d="M830.5,67.21a3.86,3.86,0,0,0,2.76-1.14,4.16,4.16,0,0,0,1.19-3.14h1.77l0,.1a5.44,5.44,0,0,1-1.69,4.19,6,6,0,0,1-8.88-.54A9.29,9.29,0,0,1,824,60.94V58.13a9.33,9.33,0,0,1,1.68-5.74,5.63,5.63,0,0,1,4.8-2.25,5.46,5.46,0,0,1,4.17,1.77,6.34,6.34,0,0,1,1.6,4.63l0,.09h-1.78a5,5,0,0,0-1.13-3.44,3.6,3.6,0,0,0-2.82-1.27,3.69,3.69,0,0,0-3.41,1.76A8.55,8.55,0,0,0,826,58.15V61a8.55,8.55,0,0,0,1.07,4.49A3.71,3.71,0,0,0,830.5,67.21Z" class="cls-1"/><path d="M842.12,45.33h-2V42.49h2Zm0,23.23h-2V50.48h2Z" class="cls-1"/><path d="M846.21,59.69a13.75,13.75,0,0,1,1.52-6.95,4.89,4.89,0,0,1,6.86-1.89,5.76,5.76,0,0,1,1.87,2V42.49h2V68.56h-1.77l-.17-2.34a5.45,5.45,0,0,1-1.89,2,5,5,0,0,1-2.65.69,4.76,4.76,0,0,1-4.24-2.41A12,12,0,0,1,846.21,60Zm2,.35a10.93,10.93,0,0,0,1,5.17,3.33,3.33,0,0,0,3.13,1.91,3.8,3.8,0,0,0,2.47-.8,5.42,5.42,0,0,0,1.58-2.24V55.22a6.17,6.17,0,0,0-1.54-2.36,3.49,3.49,0,0,0-2.47-.91,3.34,3.34,0,0,0-3.16,2.14,12.9,12.9,0,0,0-1,5.6Z" class="cls-1"/><path d="M36.66,156.32H30.94V151h6.42l1.14-7.76H32.78v-5.34H39.2l1.91-13.28H46.7l-1.91,13.28h6.55l1.91-13.28h5.53l-1.91,13.28h5.72v5.34H56.11L55,151h5.72v5.34H54.39l-2,13.28H46.89l1.91-13.28H42.19L40.28,169.6H34.75ZM44,143.22,43,151H49.5l1.08-7.76Z" class="cls-2"/><path d="M49.05,154.32V130.7H54.9v18.55h7.26l.79,5.07Z" class="cls-1"/><path d="M72.16,154.66c-4.76,0-7.53-2.5-7.53-7.32V136.52h4.92V147.4c0,1.92.69,3.15,2.64,3.15s2.64-1.2,2.64-3.15V136.52h5V147.3C79.82,152.16,76.91,154.66,72.16,154.66Z" class="cls-1"/><path d="M91.46,154.63c-5.37,0-8.86-3.39-8.86-9.18s3.79-9.24,8.72-9.24a9.6,9.6,0,0,1,4.9,1.13l-.62,4.38A6.13,6.13,0,0,0,92,140.46c-2.43,0-4.21,1.6-4.21,5s1.89,5,4.28,5a7.64,7.64,0,0,0,3.87-1.13l.58,4.07A10.72,10.72,0,0,1,91.46,154.63Z" class="cls-1"/><path d="M99.47,154.32v-17.8h5v17.8Z" class="cls-1"/><path d="M114.77,154.32h-6.5v-17.8h6.36c6.23,0,9.41,3.53,9.41,8.9C124,150.62,120.62,154.32,114.77,154.32Zm-.21-13.83h-1.3v9.86h1.3c2.67,0,4.31-1.61,4.31-4.9S117.3,140.49,114.56,140.49Z" class="cls-1"/><path d="M322.43,155.8V132.18h1.64v22.15h9.59l.24,1.47Z" class="cls-1"/><path d="M348.72,155.8l-.41-2.43c-1.95,1.71-3.73,2.77-5.86,2.77-3.32,0-4.89-1.88-4.89-5.1V139.71h1.61V150.9c0,2.43,1.16,3.77,3.45,3.77,1.78,0,3.63-1,5.65-2.91v-12h1.61V155.8Z" class="cls-1"/><path d="M361.59,156.14c-3.94,0-7.09-3.08-7.09-8.39s3.18-8.38,7.19-8.38a8.58,8.58,0,0,1,5.2,1.78l-.31,1.64a7.28,7.28,0,0,0-5-2c-3.42,0-5.44,2.84-5.44,7s1.95,7,5.58,7a7.49,7.49,0,0,0,5-2.06l.2,1.51A8.17,8.17,0,0,1,361.59,156.14Z" class="cls-1"/><path d="M372.47,135.36a1.45,1.45,0,0,1-1.4-1.4,1.4,1.4,0,0,1,1.4-1.37,1.38,1.38,0,0,1,1.37,1.37A1.43,1.43,0,0,1,372.47,135.36Zm-.79,20.44V139.71h1.58V155.8Z" class="cls-1"/><path d="M390.3,155.8l-.41-2.36a6.56,6.56,0,0,1-5.13,2.7c-3.56,0-6.61-2.53-6.61-7.94,0-5.85,3.49-8.73,7.39-8.73a10.63,10.63,0,0,1,4.32.86v-8.66l1.61-.34V155.8Zm-.44-13.9a9.2,9.2,0,0,0-4.28-1c-3.18,0-5.75,2.29-5.75,7.25,0,4.21,2.09,6.54,5,6.54,1.95,0,3.49-1.17,5.07-2.95Z" class="cls-1"/><path d="M594.43,156.32h-5.72V151h6.42l1.14-7.76h-5.72v-5.34H597l1.91-13.28h5.59l-1.91,13.28h6.55L611,124.6h5.53l-1.91,13.28h5.72v5.34h-6.48L612.8,151h5.72v5.34h-6.36l-2,13.28h-5.53l1.91-13.28H600l-1.91,13.28h-5.53Zm7.37-13.1L600.72,151h6.55l1.08-7.76Z" class="cls-2"/><path d="M608,133.88h2.26v22.18h11.29v2.06H608Z" class="cls-1"/><path d="M637.9,153.67c0,.29,0,.65,0,1.08s0,.85,0,1.28,0,.84,0,1.21,0,.67,0,.88H636c0-.6,0-1.17,0-1.71a4.81,4.81,0,0,0-.09-1.06h-.1a5.64,5.64,0,0,1-2,2.24,6.06,6.06,0,0,1-3.36.94,7,7,0,0,1-3-.58,4.85,4.85,0,0,1-1.85-1.53,5.55,5.55,0,0,1-.9-2.17,13.23,13.23,0,0,1-.24-2.53V142.3h2v9.31a10.4,10.4,0,0,0,.17,1.87,5.28,5.28,0,0,0,.6,1.63,3.13,3.13,0,0,0,1.2,1.14,4,4,0,0,0,2,.43,5.89,5.89,0,0,0,2.14-.39,4.69,4.69,0,0,0,1.75-1.2,5.92,5.92,0,0,0,1.16-2,8.48,8.48,0,0,0,.43-2.86V142.3h2Z" class="cls-1"/><path d="M656.8,155.79a7.35,7.35,0,0,1-2.64,2.07,7.52,7.52,0,0,1-3.18.67,9,9,0,0,1-3.36-.62,7.44,7.44,0,0,1-2.63-1.73,8,8,0,0,1-1.71-2.63,9.31,9.31,0,0,1,0-6.68,8,8,0,0,1,1.71-2.63,7.58,7.58,0,0,1,2.63-1.73,9,9,0,0,1,3.36-.62,7.32,7.32,0,0,1,3.23.72,8.58,8.58,0,0,1,2.65,2l-1.64,1.23a6.91,6.91,0,0,0-2-1.55,4.77,4.77,0,0,0-2.29-.57,6.22,6.22,0,0,0-2.6.52,6,6,0,0,0-2,1.38,5.9,5.9,0,0,0-1.25,2.06,7.16,7.16,0,0,0-.43,2.51,7.25,7.25,0,0,0,.43,2.52,6,6,0,0,0,1.25,2.05,6.19,6.19,0,0,0,2,1.39,6.38,6.38,0,0,0,2.6.51,4.84,4.84,0,0,0,2.38-.6,6.28,6.28,0,0,0,1.86-1.59Z" class="cls-1"/><path d="M659.84,136a1.54,1.54,0,0,1,1.54-1.54,1.52,1.52,0,0,1,1.54,1.54,1.5,1.5,0,0,1-1.54,1.54,1.52,1.52,0,0,1-1.54-1.54Zm.51,6.26h2.06v15.82h-2.06Z" class="cls-1"/><path d="M682.05,155.35H682a5.46,5.46,0,0,1-1.2,1.42,7.09,7.09,0,0,1-1.56,1,8.25,8.25,0,0,1-1.76.58,9.54,9.54,0,0,1-1.82.19,9,9,0,0,1-3.35-.62,7.48,7.48,0,0,1-2.64-1.73,8,8,0,0,1-1.71-2.63,9.45,9.45,0,0,1,0-6.68,8,8,0,0,1,1.71-2.63,7.62,7.62,0,0,1,2.64-1.73,9,9,0,0,1,3.35-.62,9.54,9.54,0,0,1,1.82.19,8.25,8.25,0,0,1,1.76.58,7.53,7.53,0,0,1,1.56,1,5.3,5.3,0,0,1,1.2,1.42h.06V132.24h2.06v25.88h-2.06Zm.21-5.14a6.22,6.22,0,0,0-.51-2.51,6.45,6.45,0,0,0-1.41-2.06,6.67,6.67,0,0,0-2.09-1.38,6.36,6.36,0,0,0-2.6-.52,6.26,6.26,0,0,0-2.6.52,6,6,0,0,0-2,1.38,5.76,5.76,0,0,0-1.25,2.06,7.16,7.16,0,0,0-.43,2.51,7.25,7.25,0,0,0,.43,2.52,5.8,5.8,0,0,0,1.25,2.05,6.15,6.15,0,0,0,2,1.39,6.42,6.42,0,0,0,2.6.51,6.52,6.52,0,0,0,2.6-.51,6.88,6.88,0,0,0,2.09-1.39,6.52,6.52,0,0,0,1.41-2.05A6.31,6.31,0,0,0,682.26,150.21Z" class="cls-1"/><path d="M1153.91,156.32h-5.72V151h6.42l1.14-7.76H1150v-5.34h6.42l1.91-13.28H1164l-1.9,13.28h6.54l1.91-13.28H1176l-1.91,13.28h5.72v5.34h-6.48l-1.08,7.76H1178v5.34h-6.36l-2,13.28h-5.53l1.91-13.28h-6.61l-1.91,13.28H1152Zm7.37-13.1L1160.2,151h6.55l1.08-7.76Z" class="cls-2"/><path d="M1167.78,157.1V132.86h.75v23.55h12v.69Z" class="cls-1"/><path d="M1194.9,154.92a6.48,6.48,0,0,1-1.45,1.46,6.75,6.75,0,0,1-1.78.89,6.62,6.62,0,0,1-2,.31,5.79,5.79,0,0,1-2.74-.59,4.65,4.65,0,0,1-1.74-1.54,6.21,6.21,0,0,1-.93-2.15,11,11,0,0,1-.27-2.43v-9.52h.75v9.45a10.85,10.85,0,0,0,.21,2.07,5.44,5.44,0,0,0,.77,2,4.85,4.85,0,0,0,1.5,1.49,4.51,4.51,0,0,0,2.45.6,5.76,5.76,0,0,0,4.43-2.06,7.47,7.47,0,0,0,1.34-2.41,9.85,9.85,0,0,0,.49-3.24v-7.87h.76v11.78c0,.25,0,.56,0,.92s0,.74,0,1.11,0,.74,0,1.08,0,.63.07.86h-.75c0-.23,0-.52-.06-.86s0-.71,0-1.11,0-.79,0-1.17,0-.71,0-1h-.07A7.41,7.41,0,0,1,1194.9,154.92Z" class="cls-1"/><path d="M1215.08,143.47A6.43,6.43,0,0,0,1213,142a6.16,6.16,0,0,0-2.5-.52,6.82,6.82,0,0,0-3,.64,7,7,0,0,0-2.28,1.69,7.71,7.71,0,0,0-1.45,2.47,8.57,8.57,0,0,0,0,5.88,7.5,7.5,0,0,0,1.45,2.45,6.91,6.91,0,0,0,2.28,1.66,7.1,7.1,0,0,0,3,.62,7.45,7.45,0,0,0,2.55-.45,6,6,0,0,0,2.17-1.33l.52.48a6.05,6.05,0,0,1-2.42,1.48,8.78,8.78,0,0,1-2.82.47,8.15,8.15,0,0,1-3.2-.62,7.75,7.75,0,0,1-2.53-1.71,7.65,7.65,0,0,1-1.68-2.64,9.11,9.11,0,0,1-.6-3.35,9.2,9.2,0,0,1,.6-3.36,7.83,7.83,0,0,1,7.41-5,7.62,7.62,0,0,1,2.86.55,6.74,6.74,0,0,1,2.31,1.54Z" class="cls-1"/><path d="M1220.66,135.43a.75.75,0,0,1-.55-.24.88.88,0,0,1-.24-.65.84.84,0,0,1,.24-.62.74.74,0,0,1,1.09,0,.95.95,0,0,1,0,1.27A.78.78,0,0,1,1220.66,135.43Zm-.38,21.67V141.35h.75V157.1Z" class="cls-1"/><path d="M1241.71,131.22h.75V157.1h-.75v-4.25h-.11a7.55,7.55,0,0,1-7.08,4.73,7.91,7.91,0,0,1-3.17-.64,7.5,7.5,0,0,1-2.5-1.74,8,8,0,0,1-1.62-2.64,9.08,9.08,0,0,1-.58-3.3,9.23,9.23,0,0,1,.58-3.32,8.16,8.16,0,0,1,1.62-2.67,7.41,7.41,0,0,1,2.5-1.76,7.74,7.74,0,0,1,3.17-.64,7.52,7.52,0,0,1,7.08,4.76h.11Zm-14.31,18a8.49,8.49,0,0,0,.5,2.94,7.27,7.27,0,0,0,1.42,2.45,6.65,6.65,0,0,0,2.24,1.66,6.91,6.91,0,0,0,3,.62,6.75,6.75,0,0,0,2.89-.62,7.13,7.13,0,0,0,2.28-1.66,7.62,7.62,0,0,0,1.5-2.45,8.32,8.32,0,0,0,0-5.95,7.62,7.62,0,0,0-1.5-2.45,7.13,7.13,0,0,0-2.28-1.66,6.75,6.75,0,0,0-2.89-.62,6.63,6.63,0,0,0-3,.64,6.73,6.73,0,0,0-2.24,1.69,7.46,7.46,0,0,0-1.42,2.47A8.49,8.49,0,0,0,1227.4,149.26Z" class="cls-1"/><path d="M36.66,280.65H30.94v-5.34h6.42l1.14-7.75H32.78v-5.34H39.2l1.91-13.29H46.7l-1.91,13.29h6.55l1.91-13.29h5.53l-1.91,13.29h5.72v5.34H56.11L55,275.31h5.72v5.34H54.39l-2,13.29H46.89l1.91-13.29H42.19l-1.91,13.29H34.75ZM44,267.56,43,275.31H49.5l1.08-7.75Z" class="cls-2"/><path d="M62.44,287.83v3.05H49.83v-39.6h3.05v36.55Z" class="cls-1"/><path d="M78.64,262.25v28.63H76.52L76,288.65a5.38,5.38,0,0,1-4.46,2.53c-3.05,0-5.58-2.82-5.58-6.34V262.25H69v22.59a3.29,3.29,0,1,0,6.57,0V262.25Z" class="cls-1"/><path d="M96,281.44v3.4a6.34,6.34,0,1,1-12.67,0V268.3a6.34,6.34,0,1,1,12.67,0v3.34L93,272V268.3a3.29,3.29,0,1,0-6.57,0v16.54a3.29,3.29,0,1,0,6.57,0v-3.4Z" class="cls-1"/><path d="M100.29,254.86h3V259h-3Zm3,7.39h-3v28.63h3Z" class="cls-1"/><path d="M120.82,290.88h-2.11l-.53-2.23a5.36,5.36,0,0,1-4.46,2.53c-3,0-5.57-2.82-5.57-6.34V268.3c0-3.53,2.52-6.34,5.57-6.34a5.23,5.23,0,0,1,4,2V251.63l3-.35Zm-3-22.58a3.29,3.29,0,1,0-6.57,0v16.54a3.29,3.29,0,1,0,6.57,0Z" class="cls-1"/><path d="M60.81,403.68a3,3,0,0,1-.92,2.17,3,3,0,0,1-2.19.91H55a.28.28,0,0,0-.31.32v12.58a3.12,3.12,0,1,1-6.23,0V407.08a.29.29,0,0,0-.33-.32H43.66a.29.29,0,0,0-.33.32v12.58a3.07,3.07,0,0,1-3.08,3.12,3.07,3.07,0,0,1-2.24-.89,3,3,0,0,1-.91-2.23V407.08a.28.28,0,0,0-.32-.32H34.05a3,3,0,0,1-2.19-.91,2.93,2.93,0,0,1-.92-2.17,3.14,3.14,0,0,1,3.11-3.15h2.73a.28.28,0,0,0,.32-.32V396c0-.25-.1-.38-.32-.38H34.05a3.12,3.12,0,0,1,0-6.23h2.73c.22,0,.32-.13.32-.39V376.39a3.06,3.06,0,0,1,.91-2.2,3,3,0,0,1,2.24-.93,2.94,2.94,0,0,1,2.17.93,3,3,0,0,1,.91,2.2V389q0,.39.33.39h4.43q.33,0,.33-.39V376.39a3,3,0,0,1,.91-2.2,2.94,2.94,0,0,1,2.17-.93,3,3,0,0,1,2.23.93,3,3,0,0,1,.92,2.2V389c0,.26.1.39.31.39H57.7a3.12,3.12,0,0,1,0,6.23H55c-.21,0-.31.13-.31.38v4.25c0,.22.1.32.31.32H57.7a3.14,3.14,0,0,1,3.11,3.15Zm-12.39-3.47V396c0-.25-.11-.38-.33-.38H43.66c-.22,0-.33.13-.33.38v4.25c0,.22.11.32.33.32h4.43C48.31,400.53,48.42,400.43,48.42,400.21Z" class="cls-2"/><path d="M63.73,410.33a1.81,1.81,0,0,1-.57,1.34,1.85,1.85,0,0,1-1.35.57H50.31a1.85,1.85,0,0,1-1.35-.57,1.81,1.81,0,0,1-.57-1.34V383.76a1.81,1.81,0,0,1,.57-1.34,1.88,1.88,0,0,1,2.7,0,1.81,1.81,0,0,1,.57,1.34v24.41c0,.16.07.24.23.24h9.35a1.87,1.87,0,0,1,1.35.55A1.81,1.81,0,0,1,63.73,410.33Z" class="cls-1"/><path d="M83.36,405A7.34,7.34,0,0,1,76,412.32h-.16A7.34,7.34,0,0,1,68.5,405V391.4a1.87,1.87,0,0,1,.55-1.36,1.92,1.92,0,0,1,2.71,0,1.85,1.85,0,0,1,.57,1.36V405a3.55,3.55,0,0,0,3.52,3.53H76A3.55,3.55,0,0,0,79.53,405V391.4a1.93,1.93,0,0,1,1.92-1.92,1.87,1.87,0,0,1,1.37.56,1.9,1.9,0,0,1,.54,1.36Z" class="cls-1"/><path d="M102.14,408.45a7.26,7.26,0,0,1-2.72,2.83,7.16,7.16,0,0,1-3.77,1h-.16a7.16,7.16,0,0,1-5.22-2.15A7,7,0,0,1,88.1,405v-8.18a7.41,7.41,0,0,1,7.39-7.39h.16a7.16,7.16,0,0,1,3.73,1,7.46,7.46,0,0,1,2.72,2.8,1.9,1.9,0,0,1,.23.94,1.93,1.93,0,0,1-1.92,1.92,1.8,1.8,0,0,1-1.69-1,3.32,3.32,0,0,0-3.1-1.84h-.16a3.55,3.55,0,0,0-3.53,3.56V405a3.55,3.55,0,0,0,3.53,3.52h.16a3.32,3.32,0,0,0,3.1-1.88,1.8,1.8,0,0,1,1.69-1,1.95,1.95,0,0,1,2,2A1.83,1.83,0,0,1,102.14,408.45Z" class="cls-1"/><path d="M111.53,384.08a2.31,2.31,0,1,1-3.93-1.65,2.31,2.31,0,0,1,3.93,1.65Zm-.39,26.24a1.81,1.81,0,0,1-.57,1.37,1.93,1.93,0,0,1-2.7,0,1.81,1.81,0,0,1-.57-1.37V391.4a1.92,1.92,0,0,1,3.84,0Z" class="cls-1"/><path d="M131,404.88a7.34,7.34,0,0,1-7.36,7.36h-.15a7.37,7.37,0,0,1-7.36-7.38v-8a7.36,7.36,0,0,1,7.36-7.38h.15a7,7,0,0,1,3.33.82c.13.08.19,0,.19-.12v-6.42a1.81,1.81,0,0,1,.57-1.34,1.85,1.85,0,0,1,1.35-.57,1.81,1.81,0,0,1,1.37.57,1.85,1.85,0,0,1,.55,1.35Zm-3.84,0v-8a3.53,3.53,0,0,0-3.52-3.54h-.15a3.53,3.53,0,0,0-3.52,3.54v8a3.53,3.53,0,0,0,3.52,3.54h.15a3.53,3.53,0,0,0,3.52-3.54Z" class="cls-1"/><path d="M403.85,416.33l1.65-12.46h-5.21v-3.75h5.78l1.21-9.21h-5.47v-3.75h6L409.5,375h3.69l-1.59,12.15h6.61L419.87,375h3.75L422,387.16h5.21v3.75h-5.79l-1.14,9.21h5.47v3.75h-6l-1.65,12.46h-3.82l1.65-12.46h-6.61l-1.65,12.46Zm12.65-16.21,1.2-9.21h-6.61l-1.2,9.21Z" class="cls-2"/><path d="M419.86,382.59h3.4V406.1h11.27V409H419.86Z" class="cls-1"/><path d="M453.46,403.79c0,2,0,3.68.16,5.17h-3.06l-.19-3.09h-.08a7.14,7.14,0,0,1-6.26,3.52c-3,0-6.53-1.64-6.53-8.3V390h3.44v10.49c0,3.6,1.09,6,4.22,6a4.87,4.87,0,0,0,4.86-4.89V390h3.44Z" class="cls-1"/><path d="M472.66,408.25a12.59,12.59,0,0,1-5.43,1.1c-5.72,0-9.43-3.87-9.43-9.66s4-10.06,10.17-10.06a11.5,11.5,0,0,1,4.77,1l-.78,2.66a8,8,0,0,0-4-.9c-4.34,0-6.69,3.21-6.69,7.16,0,4.38,2.82,7.08,6.57,7.08a9.8,9.8,0,0,0,4.23-.94Z" class="cls-1"/><path d="M480.53,384.7a2.14,2.14,0,0,1-4.27,0,2.1,2.1,0,0,1,2.15-2.15A2.05,2.05,0,0,1,480.53,384.7ZM476.69,409V390h3.44V409Z" class="cls-1"/><path d="M502.2,381.18v22.89c0,1.68,0,3.6.16,4.89h-3.1l-.15-3.29H499a7,7,0,0,1-6.46,3.72c-4.57,0-8.09-3.88-8.09-9.63,0-6.3,3.87-10.17,8.49-10.17a6.33,6.33,0,0,1,5.71,2.9h.08V381.18Zm-3.44,16.55a6,6,0,0,0-.16-1.45,5.07,5.07,0,0,0-5-4c-3.56,0-5.67,3.13-5.67,7.32,0,3.83,1.88,7,5.59,7a5.17,5.17,0,0,0,5.05-4.11,5.84,5.84,0,0,0,.16-1.48Z" class="cls-1"/><path d="M765.23,389.51V385.8h38v3.71Zm0,17.43v-3.71h38v3.71Zm8.43-29.58h3.71v38h-3.71Zm17.43,0h3.72v38h-3.72Z" class="cls-2"/><path d="M818.39,411.77v1.77H805.11V377.18h1.77v34.59Z" class="cls-1"/><path d="M834.42,387v26.51h-1.77v-2.2a7.85,7.85,0,0,1-2.42,1.8,6.88,6.88,0,0,1-3,.67,7.16,7.16,0,0,1-7.2-7.2V387h1.77v19.58a5.43,5.43,0,0,0,3.31,5,5.47,5.47,0,0,0,4.25,0,5.43,5.43,0,0,0,1.72-1.16,5.6,5.6,0,0,0,1.16-1.72,5.39,5.39,0,0,0,.43-2.12V387Z" class="cls-1"/><path d="M845.39,412a5.27,5.27,0,0,0,2.13-.43,5.43,5.43,0,0,0,1.72-1.16,5.6,5.6,0,0,0,1.16-1.72,5.39,5.39,0,0,0,.43-2.12h1.77a7.2,7.2,0,0,1-.56,2.82,7.23,7.23,0,0,1-3.82,3.82,7.19,7.19,0,0,1-10-6.64V394a7.24,7.24,0,0,1,10-6.65,7.23,7.23,0,0,1,3.82,3.82,7.22,7.22,0,0,1,.56,2.83h-1.77a5.4,5.4,0,0,0-.43-2.13,5.43,5.43,0,0,0-2.88-2.88,5.47,5.47,0,0,0-4.25,0,5.6,5.6,0,0,0-1.72,1.16,5.43,5.43,0,0,0-1.16,1.72A5.23,5.23,0,0,0,840,394v12.64a5.22,5.22,0,0,0,.43,2.12,5.43,5.43,0,0,0,2.88,2.88A5.22,5.22,0,0,0,845.39,412Z" class="cls-1"/><path d="M858.2,386.6H860v26.57H858.2V388.43h-1.78V386.6Zm.43-6.13a1.3,1.3,0,0,1-1.35-1.35,1.33,1.33,0,0,1,.38-1,1.3,1.3,0,0,1,1-.37,1.35,1.35,0,0,1,.94.37,1.27,1.27,0,0,1,.4,1,1.25,1.25,0,0,1-.4,1A1.36,1.36,0,0,1,858.63,380.47Z" class="cls-1"/><path d="M878.15,375v38.56h-1.78v-2.2a7.73,7.73,0,0,1-2.42,1.8,6.81,6.81,0,0,1-3,.67,7.15,7.15,0,0,1-6.64-4.38,7,7,0,0,1-.57-2.82V394a7,7,0,0,1,.57-2.83,7.16,7.16,0,0,1,6.64-4.38,7.07,7.07,0,0,1,3,.64,7,7,0,0,1,2.42,1.83V375ZM870.94,412a5.27,5.27,0,0,0,2.13-.43,5.55,5.55,0,0,0,1.72-1.16,5.41,5.41,0,0,0,1.15-1.72,5.22,5.22,0,0,0,.43-2.12V394a5.23,5.23,0,0,0-.43-2.13,5.41,5.41,0,0,0-1.15-1.72,5.73,5.73,0,0,0-1.72-1.16,5.44,5.44,0,0,0-7.13,2.88,5.23,5.23,0,0,0-.43,2.13v12.64a5.22,5.22,0,0,0,.43,2.12,5.43,5.43,0,0,0,1.16,1.72,5.32,5.32,0,0,0,1.72,1.16A5.22,5.22,0,0,0,870.94,412Z" class="cls-1"/><path d="M128.89,558.43H30.94V459.69h97.95ZM40.61,468.58v80.63h78.72V468.58H40.61Zm59.83,45.65h-9l2.25-11.58h9.78V494.1H95.15l1.57-8.77L90,483.65,88.07,494.1H76.59l1.92-10H71.42l-1.8,10H57.7l1.35,8.55h9.11L66,514.23H56.13v8.44h8.32l-1.58,8.88,6.75,1.58,1.91-10.46H82.89L81,532.79h7.2L90,522.67h11.81ZM73,514.35l2.13-11.92H86.49l-2,11.92Z" class="cls-2"/><path d="M82,522.83c.15,0,.22.06.22.17s-.07.16-.22.16H65.22s0,0,0-.06-.11,0-.11-.05V483.73a.18.18,0,0,1,.11-.05l0-.06H68a.2.2,0,0,1,.16.06v39.15Z" class="cls-1"/><path d="M102.5,500.4c.14,0,.21.06.21.17v14a8,8,0,0,1-1.34,4.93,8.85,8.85,0,0,1-3,2.55,8.61,8.61,0,0,1-2.93.94l-1.37.14a8.1,8.1,0,0,1-3.31-.68,9,9,0,0,1-2.72-1.82,8.5,8.5,0,0,1-2.53-6.06v-14a.17.17,0,0,1,.11-.06v-.11h2.85a.17.17,0,0,1,.16.11v16.84a5.42,5.42,0,0,0,.41,2.1,5.58,5.58,0,0,0,1.13,1.72,5.86,5.86,0,0,0,1.69,1.21,5,5,0,0,0,2.1.45h.11l.37,0c.22,0,.52-.07.92-.14l1.34-.27a5.69,5.69,0,0,0,1.56-.59,7.35,7.35,0,0,0,1.48-1,8.24,8.24,0,0,0,1.32-1.48,7.38,7.38,0,0,0,.94-2,9.56,9.56,0,0,0,.35-2.72v-14C102.39,500.46,102.42,500.4,102.5,500.4Z" class="cls-1"/><path d="M125.84,514.39c.07,0,.11.07.11.21,0,.43-.09.88-.16,1.35s-.17.84-.3,1.34a6.67,6.67,0,0,1-.62,1.56,7.66,7.66,0,0,1-7.42,4.31h-.54a3.31,3.31,0,0,0-.7-.06h-.11a.76.76,0,0,0-.43-.1.35.35,0,0,1-.16,0,.32.32,0,0,0-.16,0h-.16a11.08,11.08,0,0,1-3.63-1.4,10.94,10.94,0,0,1-2.9-2.5,11.56,11.56,0,0,1-1.91-3.33,10.91,10.91,0,0,1-.7-3.9,11.08,11.08,0,0,1,.7-4,11.69,11.69,0,0,1,1.91-3.33,10.69,10.69,0,0,1,2.9-2.48,12.65,12.65,0,0,1,3.63-1.42h.16a.32.32,0,0,0,.16,0l.16,0a.78.78,0,0,0,.22,0,.76.76,0,0,1,.21,0,1.77,1.77,0,0,0,.41-.05,1.29,1.29,0,0,1,.4-.06h.54a9.37,9.37,0,0,1,2.77.38,7.7,7.7,0,0,1,2.12,1,7,7,0,0,1,2.53,2.93,8,8,0,0,1,.62,1.61c.13.5.22.95.3,1.35s.12.89.16,1.29a1.58,1.58,0,0,1-.43,1.1,1.45,1.45,0,0,1-1.08.46,1.5,1.5,0,0,1-1.13-.46,1.54,1.54,0,0,1-.43-1.1,1.56,1.56,0,0,1,.43-1.11,1.49,1.49,0,0,1,1.13-.45,1.39,1.39,0,0,1,1.13.53v-.26c-.07-.36-.18-.79-.32-1.29a6.82,6.82,0,0,0-.65-1.51,8.07,8.07,0,0,0-2.39-2.83,7.69,7.69,0,0,0-4.76-1.26H117a7.68,7.68,0,0,0-4.51,1.61,8.23,8.23,0,0,0-2.75,3.77,5.63,5.63,0,0,0-.43,1.64c0,.48-.07.83-.1,1.05v5.75c0,.11,0,.27,0,.49s0,.48.08.81a6.27,6.27,0,0,0,.43,1.61,7.54,7.54,0,0,0,2.72,3.71,8.26,8.26,0,0,0,4.54,1.61h.49a9.14,9.14,0,0,0,2.71-.35,6.85,6.85,0,0,0,2-.94,6.38,6.38,0,0,0,1.45-1.32,6.92,6.92,0,0,0,1-1.53,6,6,0,0,0,.62-1.5c.13-.51.22-1,.3-1.35s.12-.84.16-1.24C125.68,514.46,125.73,514.39,125.84,514.39Z" class="cls-1"/><path d="M130.9,495.13a1.52,1.52,0,0,1-1.11-.45,1.55,1.55,0,0,1-.46-1.11,1.57,1.57,0,0,1,3.13,0,1.55,1.55,0,0,1-.46,1.11A1.52,1.52,0,0,1,130.9,495.13Zm1.56,5.38V523.1a.22.22,0,0,1-.17.06H129.5a.05.05,0,0,1-.06-.06c-.07,0-.11,0-.11-.05V500.57a.17.17,0,0,1,.11-.06v-.11h2.85A.18.18,0,0,1,132.46,500.51Z" class="cls-1"/><path d="M158.54,511.81v11.24l0,.05-.06.06h-2.85a.4.4,0,0,1-.16-.06v-6.34a9.22,9.22,0,0,1-.81,2.09,7.64,7.64,0,0,1-7.42,4.31h-.54a2.05,2.05,0,0,1-.37,0l-.32,0h-.11a.78.78,0,0,0-.43-.1.3.3,0,0,1-.16,0,.37.37,0,0,0-.17,0h-.16a11.3,11.3,0,0,1-6.53-3.9,11.56,11.56,0,0,1-1.91-3.33,10.91,10.91,0,0,1-.7-3.9,10.7,10.7,0,0,1,.89-4.36,12.1,12.1,0,0,1,2.39-3.6A11.33,11.33,0,0,1,147,500.4h.37a12.32,12.32,0,0,1,4.49,1.05,11.11,11.11,0,0,1,3.58,2.56V483.68a.4.4,0,0,1,.16-.06h2.85l.06.06,0,.05Zm-3.12,2.79V509a7.88,7.88,0,0,0-.64-3.2,8.11,8.11,0,0,0-4.36-4.33,8.35,8.35,0,0,0-6.46,0,8.61,8.61,0,0,0-2.63,1.74,8.17,8.17,0,0,0-1.78,2.61,8,8,0,0,0-.64,3.18v5.7q0,.17,0,.48c0,.22,0,.47.08.76a5.88,5.88,0,0,0,.43,1.61,7.46,7.46,0,0,0,2.71,3.71,8.29,8.29,0,0,0,4.55,1.61h.48a9.21,9.21,0,0,0,2.72-.35,7.1,7.1,0,0,0,2-.94,6.84,6.84,0,0,0,1.45-1.32,7.73,7.73,0,0,0,1-1.53,8.94,8.94,0,0,0,.88-2.63C155.36,515.23,155.42,514.75,155.42,514.6Z" class="cls-1"/><path d="M1146.5,379.11l1-4.27,43.76,10.56-1,4.28Zm-4.85,20.07,1-4.27,43.77,10.56-1,4.27Zm17.94-31.71,4.27,1-10.57,43.76-4.27-1Zm20.06,4.85,4.27,1-10.56,43.76-4.27-1Z" class="cls-2"/><path d="M1182.7,407.69v1.78h-13.28V373.11h1.77v34.58Z" class="cls-1"/><path d="M1198.73,383v26.52H1197v-2.21a7.72,7.72,0,0,1-2.42,1.81,7.2,7.2,0,0,1-5.84.1,6.93,6.93,0,0,1-2.28-1.53,7.12,7.12,0,0,1-2.1-5.11V383h1.77v19.58a5.48,5.48,0,0,0,.43,2.13,5.73,5.73,0,0,0,1.16,1.72,5.41,5.41,0,0,0,1.72,1.15,5.47,5.47,0,0,0,4.25,0,5.41,5.41,0,0,0,1.72-1.15,5.73,5.73,0,0,0,1.16-1.72,5.48,5.48,0,0,0,.43-2.13V383Z" class="cls-1"/><path d="M1209.71,408a5.22,5.22,0,0,0,2.12-.43,5.41,5.41,0,0,0,1.72-1.15,5.73,5.73,0,0,0,1.16-1.72,5.48,5.48,0,0,0,.43-2.13h1.77a7.12,7.12,0,0,1-2.1,5.11,6.93,6.93,0,0,1-2.28,1.53,7.29,7.29,0,0,1-5.65,0,6.93,6.93,0,0,1-2.28-1.53,7.12,7.12,0,0,1-2.1-5.11V389.89a7.16,7.16,0,0,1,2.1-5.11,7.25,7.25,0,0,1,10.21,0,7.16,7.16,0,0,1,2.1,5.11h-1.77a5.39,5.39,0,0,0-.43-2.12,5.43,5.43,0,0,0-2.88-2.88,5.47,5.47,0,0,0-4.25,0,5.43,5.43,0,0,0-1.72,1.16,5.32,5.32,0,0,0-1.16,1.72,5.39,5.39,0,0,0-.43,2.12v12.64a5.48,5.48,0,0,0,.43,2.13,5.55,5.55,0,0,0,1.16,1.72,5.41,5.41,0,0,0,1.72,1.15A5.23,5.23,0,0,0,1209.71,408Z" class="cls-1"/><path d="M1222.51,382.52h1.77v26.57h-1.77V384.35h-1.78v-1.83Zm.43-6.13a1.27,1.27,0,0,1-1-.38,1.35,1.35,0,0,1,1-2.31,1.36,1.36,0,0,1,.94.38,1.36,1.36,0,0,1,0,1.93A1.31,1.31,0,0,1,1222.94,376.39Z" class="cls-1"/><path d="M1242.46,370.9v38.57h-1.77v-2.21a7.76,7.76,0,0,1-2.43,1.81,7,7,0,0,1-3,.67,7.27,7.27,0,0,1-5.11-2.1,7.37,7.37,0,0,1-1.53-2.28,7,7,0,0,1-.56-2.83V389.89a7,7,0,0,1,.56-2.82,7.41,7.41,0,0,1,1.53-2.29,7.24,7.24,0,0,1,2.29-1.53,7.28,7.28,0,0,1,5.83.08,7.12,7.12,0,0,1,2.43,1.83V370.9ZM1235.25,408a5.27,5.27,0,0,0,2.13-.43,5.31,5.31,0,0,0,2.87-2.87,5.31,5.31,0,0,0,.44-2.13V389.89a5.23,5.23,0,0,0-.44-2.12,5.3,5.3,0,0,0-1.15-1.72,5.55,5.55,0,0,0-1.72-1.16,5.47,5.47,0,0,0-4.25,0,5.43,5.43,0,0,0-2.88,2.88,5.22,5.22,0,0,0-.43,2.12v12.64a5.3,5.3,0,0,0,.43,2.13,5.55,5.55,0,0,0,1.16,1.72,5.3,5.3,0,0,0,1.72,1.15A5.22,5.22,0,0,0,1235.25,408Z" class="cls-1"/><path d="M314.84,297.67h-13.2V285.35h14.82l2.64-17.9H305.89V255.13h14.82l4.4-30.66H338l-4.4,30.66h15.11l4.4-30.66h12.76l-4.4,30.66h13.2v12.32h-15l-2.49,17.9h13.2v12.32H355.77l-4.55,30.66H338.46l4.4-30.66H327.6l-4.4,30.66H310.44Zm17-30.22-2.49,17.9h15.1l2.5-17.9Z" class="cls-2"/><path d="M351.24,290.53v3.05H338.63V254h3.05v36.55Z" class="cls-1"/><path d="M367.44,265v28.63h-2.11l-.53-2.23a5.38,5.38,0,0,1-4.46,2.53c-3,0-5.57-2.82-5.57-6.34V265h3.05v22.59a3.29,3.29,0,1,0,6.57,0V265Z" class="cls-1"/><path d="M384.81,284.14v3.4a6.34,6.34,0,1,1-12.68,0V271a6.34,6.34,0,0,1,12.68,0v3.34l-3.05.35V271a3.29,3.29,0,1,0-6.58,0v16.54a3.29,3.29,0,1,0,6.58,0v-3.4Z" class="cls-1"/><path d="M389.09,257.56h3.05v4.11h-3.05Zm3.05,7.39h-3.05v28.63h3.05Z" class="cls-1"/><path d="M409.62,293.58h-2.11l-.53-2.23a5.36,5.36,0,0,1-4.45,2.53c-3.06,0-5.58-2.82-5.58-6.34V271c0-3.52,2.52-6.34,5.58-6.34a5.21,5.21,0,0,1,4,2V254.33l3.05-.35ZM406.57,271a3.29,3.29,0,1,0-6.57,0v16.54a3.29,3.29,0,1,0,6.57,0Z" class="cls-1"/><path d="M625,263.76v17.16h14.81v6.6H625v28.6l-6.6.88V287.52H601.24v28.6l-6.6.88V287.52H579.53v-6.6h15.11V263.76H579.53v-6.6h15.11V228.55l6.6-.88v29.49H618.4V228.55l6.6-.88v29.49h14.81v6.6Zm-23.76,17.16H618.4V263.76H601.24Z" class="cls-2"/><path d="M632.86,282.94V286H620.25v-39.6h3v36.55Z" class="cls-1"/><path d="M649.06,257.36V286H647l-.53-2.23a5.38,5.38,0,0,1-4.46,2.53c-3.05,0-5.58-2.82-5.58-6.34V257.36h3.06V280a3.29,3.29,0,1,0,6.57,0V257.36Z" class="cls-1"/><path d="M666.43,276.55V280a6.34,6.34,0,1,1-12.68,0V263.41a6.34,6.34,0,1,1,12.68,0v3.34l-3.06.35v-3.69a3.29,3.29,0,1,0-6.57,0V280a3.29,3.29,0,1,0,6.57,0v-3.4Z" class="cls-1"/><path d="M670.71,250h3v4.11h-3Zm3,7.39h-3V286h3Z" class="cls-1"/><path d="M691.24,286h-2.11l-.53-2.23a5.36,5.36,0,0,1-4.46,2.53c-3,0-5.57-2.82-5.57-6.34V263.41c0-3.52,2.52-6.34,5.57-6.34a5.22,5.22,0,0,1,4.05,2V246.74l3-.35Zm-3-22.58a3.29,3.29,0,1,0-6.57,0V280a3.29,3.29,0,1,0,6.57,0Z" class="cls-1"/><path d="M899.64,275.88l-3.42,10.32,8.9,2.95-1.32,4-8.9-3-5.71,17.19-4.15-.79,5.89-17.71-10.32-3.43-5.71,17.19-4.14-.79,5.89-17.72-9.08-3,1.32-4,9.08,3,3.42-10.31-9.08-3,1.32-4,9.08,3,5.71-17.19,4.14.79-5.88,17.72L897,270.6l5.71-17.19,4.15.79L901,271.92l8.9,2.95-1.32,4Zm-17.71,5.57,10.32,3.43,3.42-10.32-10.31-3.42Z" class="cls-2"/><path d="M904.33,292.68v3.05H891.71V256.12h3.06v36.56Z" class="cls-1"/><path d="M920.52,267.1v28.63h-2.11l-.53-2.23a5.38,5.38,0,0,1-4.46,2.52c-3,0-5.57-2.82-5.57-6.34V267.1h3v22.58a3.29,3.29,0,1,0,6.57,0V267.1Z" class="cls-1"/><path d="M937.89,286.28v3.4a6.34,6.34,0,1,1-12.67,0V273.14a6.34,6.34,0,1,1,12.67,0v3.34l-3,.35v-3.69a3.29,3.29,0,1,0-6.57,0v16.54a3.29,3.29,0,1,0,6.57,0v-3.4Z" class="cls-1"/><path d="M942.17,259.7h3.05v4.11h-3.05Zm3.05,7.4h-3.05v28.63h3.05Z" class="cls-1"/><path d="M962.71,295.73H960.6l-.53-2.23a5.39,5.39,0,0,1-4.46,2.52c-3.05,0-5.57-2.82-5.57-6.34V273.14c0-3.52,2.52-6.34,5.57-6.34a5.23,5.23,0,0,1,4,2V256.48l3.05-.36Zm-3.05-22.59a3.29,3.29,0,1,0-6.57,0v16.54a3.29,3.29,0,1,0,6.57,0Z" class="cls-1"/><path d="M1179.4,270.48,1176,280.8l8.9,2.95-1.32,4-8.9-3L1168.94,302l-4.14-.8,5.88-17.71L1160.37,280l-5.71,17.19-4.14-.79,5.88-17.72-9.08-3,1.32-4,9.08,3,3.43-10.31-9.08-3,1.32-4,9.08,3,5.71-17.18,4.14.78-5.89,17.72,10.32,3.43,5.71-17.19,4.14.79-5.89,17.72,8.9,3-1.31,4Zm-17.71,5.57,10.31,3.43,3.43-10.31-10.32-3.43Z" class="cls-2"/><path d="M1184.08,287.28v3.05h-12.61v-39.6h3v36.55Z" class="cls-1"/><path d="M1200.27,261.7v28.63h-2.11l-.53-2.23a5.38,5.38,0,0,1-4.46,2.52c-3.05,0-5.57-2.81-5.57-6.34V261.7h3.05v22.58a3.29,3.29,0,1,0,6.57,0V261.7Z" class="cls-1"/><path d="M1217.64,280.88v3.4a6.34,6.34,0,1,1-12.67,0V267.74a6.34,6.34,0,1,1,12.67,0v3.34l-3.05.36v-3.7a3.29,3.29,0,1,0-6.57,0v16.54a3.29,3.29,0,1,0,6.57,0v-3.4Z" class="cls-1"/><path d="M1221.93,254.3h3v4.11h-3Zm3,7.4h-3v28.63h3Z" class="cls-1"/><path d="M1242.46,290.33h-2.11l-.53-2.23a5.39,5.39,0,0,1-4.46,2.52c-3,0-5.57-2.81-5.57-6.34V267.74c0-3.52,2.52-6.34,5.57-6.34a5.23,5.23,0,0,1,4.05,2V251.08l3-.35Zm-3-22.59a3.29,3.29,0,1,0-6.57,0v16.54a3.29,3.29,0,1,0,6.57,0Z" class="cls-1"/><path d="M874.72,156.32H869V151h6.42l1.15-7.76h-5.72v-5.34h6.42l1.9-13.28h5.6l-1.91,13.28h6.55l1.9-13.28h5.53l-1.9,13.28h5.72v5.34h-6.49L893.09,151h5.73v5.34h-6.36l-2,13.28H885l1.91-13.28h-6.62l-1.9,13.28h-5.53Zm7.38-13.1L881,151h6.54l1.09-7.76Z" class="cls-2"/><path d="M887.63,133.88H893v19.31h9.89v4.93H887.63Z" class="cls-1"/><path d="M919.94,158.12H915v-2.26H915a5.92,5.92,0,0,1-.71,1,4.43,4.43,0,0,1-1,.85,6.18,6.18,0,0,1-1.4.62,5.91,5.91,0,0,1-1.72.24,7.18,7.18,0,0,1-3.16-.6,4.48,4.48,0,0,1-1.88-1.66,6.31,6.31,0,0,1-.89-2.5,20.19,20.19,0,0,1-.23-3.11v-9.18h5.14v8.15c0,.48,0,1,.05,1.49a4.6,4.6,0,0,0,.31,1.42,2.45,2.45,0,0,0,.78,1.06,2.51,2.51,0,0,0,1.53.41,3.17,3.17,0,0,0,1.61-.36,2.48,2.48,0,0,0,.94-1,4.11,4.11,0,0,0,.43-1.35,13.22,13.22,0,0,0,.1-1.57v-8.29h5.13Z" class="cls-1"/><path d="M933.6,146.86a2.88,2.88,0,0,0-1.06-.91,3.13,3.13,0,0,0-1.47-.36,4,4,0,0,0-3,1.16,4.85,4.85,0,0,0,0,6.1,4,4,0,0,0,3,1.16,2.77,2.77,0,0,0,1.47-.38,4.36,4.36,0,0,0,1.06-.89L937,156.3a6.45,6.45,0,0,1-2.83,1.73,10.35,10.35,0,0,1-6.71-.12,8.79,8.79,0,0,1-2.94-1.76,8.33,8.33,0,0,1-2-2.76,9.43,9.43,0,0,1,0-7.18,8.33,8.33,0,0,1,2-2.76,8.79,8.79,0,0,1,2.94-1.76,10.35,10.35,0,0,1,6.71-.12A6.55,6.55,0,0,1,937,143.3Z" class="cls-1"/><path d="M937.26,136.25a3,3,0,0,1,3-3,2.9,2.9,0,0,1,2.11.87,3,3,0,0,1,0,4.21,2.9,2.9,0,0,1-2.11.87,2.86,2.86,0,0,1-2.1-.87A2.83,2.83,0,0,1,937.26,136.25Zm.41,5.23h5.14v16.64h-5.14Z" class="cls-1"/><path d="M962.73,158.12H958v-2.19h-.06a5.92,5.92,0,0,1-.81.9,6.06,6.06,0,0,1-1.16.84,7.46,7.46,0,0,1-1.47.62,5.8,5.8,0,0,1-1.66.24,8.46,8.46,0,0,1-3.36-.64,7.52,7.52,0,0,1-2.58-1.77,8,8,0,0,1-1.66-2.73,9.84,9.84,0,0,1-.58-3.45,10.29,10.29,0,0,1,.53-3.34,9.08,9.08,0,0,1,1.5-2.82,7.43,7.43,0,0,1,2.38-2,6.78,6.78,0,0,1,3.18-.74,8.82,8.82,0,0,1,3,.5,4.83,4.83,0,0,1,2.28,1.69h.06v-11h5.14ZM958,149.8a4.32,4.32,0,0,0-1.07-3.05,4.54,4.54,0,0,0-6.06,0,4.85,4.85,0,0,0,0,6.1,4.54,4.54,0,0,0,6.06,0A4.3,4.3,0,0,0,958,149.8Z" class="cls-1"/><path d="M471.67,558.84H373.72V460.1h97.95ZM383.39,469v80.63h78.72V469H383.39Zm59.83,45.65h-9l2.25-11.58h9.79v-8.55h-8.33l1.58-8.77-6.75-1.69-1.91,10.46H419.38l1.91-10h-7.08l-1.8,10H400.49l1.34,8.55h9.11l-2.13,11.58h-9.9v8.44h8.32L405.66,532l6.75,1.58,1.91-10.46h11.36l-1.92,10.12H431l1.8-10.12h11.81Zm-27.44.11,2.14-11.91h11.36l-2,11.91Z" class="cls-2"/><rect width="96.04" height="96.04" x="374.86" y="460.1" class="cls-2"/><path d="M448.63,525.07c.14,0,.21.06.21.17s-.07.16-.21.16H431.85a.05.05,0,0,1-.06-.06c-.07,0-.11,0-.11-.05V486a.21.21,0,0,1,.11-.05l.06-.06h2.79a.2.2,0,0,1,.16.06v39.15Z" class="cls-1"/><path d="M469.12,502.64c.14,0,.21.06.21.17v14a7.91,7.91,0,0,1-1.34,4.92,8.75,8.75,0,0,1-3,2.55,8.54,8.54,0,0,1-2.93.94l-1.37.14a8.13,8.13,0,0,1-3.31-.68,9,9,0,0,1-2.72-1.82,8.57,8.57,0,0,1-1.85-2.72,8.29,8.29,0,0,1-.67-3.33v-14a.14.14,0,0,1,.1-.06v-.11h2.86a.18.18,0,0,1,.16.11v16.84a5.42,5.42,0,0,0,.4,2.1,5.76,5.76,0,0,0,1.13,1.72,5.86,5.86,0,0,0,1.69,1.21,5,5,0,0,0,2.1.45h.11l.38,0c.21,0,.51-.07.91-.14l1.34-.27a5.46,5.46,0,0,0,1.56-.59,7.08,7.08,0,0,0,1.48-1,7.54,7.54,0,0,0,1.32-1.48,7.24,7.24,0,0,0,.94-2,9.19,9.19,0,0,0,.35-2.71v-14C469,502.7,469.05,502.64,469.12,502.64Z" class="cls-1"/><path d="M492.46,516.63c.07,0,.11.07.11.22,0,.43-.09.87-.16,1.34s-.17.84-.3,1.35a6.35,6.35,0,0,1-.62,1.55,7.64,7.64,0,0,1-7.42,4.31h-.54a3.31,3.31,0,0,0-.7-.06h-.1a.78.78,0,0,0-.43-.1.3.3,0,0,1-.16,0,.37.37,0,0,0-.17,0h-.16a11.08,11.08,0,0,1-3.63-1.4,10.94,10.94,0,0,1-2.9-2.5,11.43,11.43,0,0,1-1.91-3.33,11.35,11.35,0,0,1,0-7.85,11.61,11.61,0,0,1,1.91-3.34,10.48,10.48,0,0,1,2.9-2.47,12.39,12.39,0,0,1,3.63-1.43H482a.37.37,0,0,0,.17,0l.16,0a.76.76,0,0,0,.21,0,.78.78,0,0,1,.22,0,1.75,1.75,0,0,0,.4-.05,1.34,1.34,0,0,1,.4-.06h.54a9.37,9.37,0,0,1,2.77.38,8.06,8.06,0,0,1,2.13,1,7,7,0,0,1,1.53,1.37,7.3,7.3,0,0,1,1,1.56,7.44,7.44,0,0,1,.62,1.61q.19.75.3,1.35c.07.46.12.89.16,1.29a1.52,1.52,0,0,1-.43,1.1,1.41,1.41,0,0,1-1.08.46,1.48,1.48,0,0,1-1.13-.46,1.62,1.62,0,0,1,0-2.2,1.48,1.48,0,0,1,1.13-.46,1.36,1.36,0,0,1,1.13.54v-.27c-.07-.36-.18-.79-.32-1.29a6.77,6.77,0,0,0-.64-1.51,8,8,0,0,0-2.4-2.82,7.63,7.63,0,0,0-4.76-1.27h-.48a7.71,7.71,0,0,0-4.52,1.61,8.14,8.14,0,0,0-2.74,3.77,5.06,5.06,0,0,0-.43,1.64c0,.49-.08.84-.11,1v5.76q0,.15,0,.48c0,.21,0,.48.08.81a5.54,5.54,0,0,0,.43,1.61,7.42,7.42,0,0,0,2.71,3.71,8.29,8.29,0,0,0,4.55,1.61h.48a9.21,9.21,0,0,0,2.72-.35,7.1,7.1,0,0,0,2-.94,6.84,6.84,0,0,0,1.45-1.32,7.73,7.73,0,0,0,1-1.53,5.92,5.92,0,0,0,.61-1.5q.2-.75.3-1.35c.07-.43.13-.84.16-1.23C492.3,516.7,492.36,516.63,492.46,516.63Z" class="cls-1"/><path d="M497.52,497.38a1.57,1.57,0,0,1-1.56-1.57,1.49,1.49,0,0,1,.46-1.1,1.55,1.55,0,0,1,2.2,0,1.53,1.53,0,0,1,.46,1.1,1.55,1.55,0,0,1-.46,1.11A1.51,1.51,0,0,1,497.52,497.38Zm1.56,5.37v22.59a.21.21,0,0,1-.16.06h-2.8s-.05,0-.05-.06-.11,0-.11-.05V502.81a.14.14,0,0,1,.11-.06v-.11h2.85A.18.18,0,0,1,499.08,502.75Z" class="cls-1"/><path d="M525.16,514.05v11.24l0,.05-.05.06h-2.85a.43.43,0,0,1-.17-.06V519a9.63,9.63,0,0,1-.8,2.09,8.08,8.08,0,0,1-2.53,3,7.91,7.91,0,0,1-4.89,1.35h-.54a2.09,2.09,0,0,1-.38,0,1.73,1.73,0,0,0-.32,0h-.11a.78.78,0,0,0-.43-.1.32.32,0,0,1-.16,0,.35.35,0,0,0-.16,0h-.16a11,11,0,0,1-3.63-1.4,11.14,11.14,0,0,1-2.91-2.5,11.66,11.66,0,0,1-1.91-3.33,11.13,11.13,0,0,1-.7-3.9,10.86,10.86,0,0,1,.89-4.36,12.1,12.1,0,0,1,2.39-3.6,11.33,11.33,0,0,1,7.91-3.45H514a12.36,12.36,0,0,1,4.49,1.05,11.07,11.07,0,0,1,3.57,2.56V485.92a.43.43,0,0,1,.17-.06h2.85l.05.06,0,.05Zm-3.12,2.8V511.2a7.88,7.88,0,0,0-.64-3.2,8.12,8.12,0,0,0-1.75-2.58,8.3,8.3,0,0,0-9.06-1.75,8.39,8.39,0,0,0-2.64,1.75,8.12,8.12,0,0,0-2.42,5.78v5.7q0,.17,0,.48c0,.22,0,.47.08.76a5.88,5.88,0,0,0,.43,1.61,7.44,7.44,0,0,0,2.72,3.71,8.23,8.23,0,0,0,4.54,1.61h.49a9.19,9.19,0,0,0,2.71-.35,7.1,7.1,0,0,0,2-.94,6.6,6.6,0,0,0,1.45-1.32,7.3,7.3,0,0,0,1-1.53,9.29,9.29,0,0,0,.89-2.63C522,517.47,522,517,522,516.85Z" class="cls-1"/><path d="M819,555.4H721.08V456.66H819Zm-88.28-89.85v80.63h78.72V465.55H730.75Zm59.83,45.66h-9l2.25-11.59h9.78v-8.54h-8.32l1.58-8.78-6.75-1.68-1.91,10.46H766.74l1.91-10h-7.09l-1.8,10H747.84l1.35,8.54h9.11l-2.14,11.59h-9.89v8.43h8.32L753,528.52l6.74,1.58,1.92-10.46H773l-1.91,10.12h7.2l1.8-10.12h11.81Zm-27.44.11,2.13-11.92h11.36l-2,11.92Z" class="cls-2"/><rect width="96.04" height="96.04" x="722.21" y="456.66" class="cls-2"/><path d="M767.59,485h3.55v34.85h17.75v3.23h-21.3Z" class="cls-1"/><path d="M814.6,516.09c0,.47,0,1,.06,1.7s.06,1.34.08,2,0,1.31.08,1.91,0,1,0,1.37h-3.23c0-.93-.06-1.83-.08-2.69a8.11,8.11,0,0,0-.13-1.67h-.16a8.69,8.69,0,0,1-3.23,3.52,9.37,9.37,0,0,1-5.27,1.48,10.77,10.77,0,0,1-4.76-.91,7.52,7.52,0,0,1-2.9-2.39,8.72,8.72,0,0,1-1.43-3.42,20.9,20.9,0,0,1-.38-4V498.24h3.23v14.63a15.73,15.73,0,0,0,.27,2.93,7.69,7.69,0,0,0,.94,2.55,5,5,0,0,0,1.88,1.81,6.57,6.57,0,0,0,3.15.67,9.24,9.24,0,0,0,3.36-.62,7.19,7.19,0,0,0,2.74-1.88,9,9,0,0,0,1.83-3.18,13.46,13.46,0,0,0,.68-4.49V498.24h3.22Z" class="cls-1"/><path d="M844.29,519.43a11.52,11.52,0,0,1-4.14,3.25,12,12,0,0,1-5,1.05,14,14,0,0,1-5.27-1,11.82,11.82,0,0,1-4.14-2.71,12.5,12.5,0,0,1-2.69-4.14,14.67,14.67,0,0,1,0-10.49,12.3,12.3,0,0,1,2.69-4.14,11.84,11.84,0,0,1,4.14-2.72,14.16,14.16,0,0,1,5.27-1,11.56,11.56,0,0,1,5.08,1.13,13.39,13.39,0,0,1,4.17,3.18l-2.58,1.93a11.35,11.35,0,0,0-3.07-2.45,7.55,7.55,0,0,0-3.6-.88,10.15,10.15,0,0,0-4.09.8,9.57,9.57,0,0,0-3.12,2.18,9.31,9.31,0,0,0-2,3.23,12,12,0,0,0,0,7.91,9.26,9.26,0,0,0,2,3.22,9.42,9.42,0,0,0,3.12,2.18,10,10,0,0,0,4.09.81,7.66,7.66,0,0,0,3.74-.94,9.86,9.86,0,0,0,2.93-2.5Z" class="cls-1"/><path d="M849.08,488.4A2.39,2.39,0,0,1,851.5,486a2.33,2.33,0,0,1,1.72.7,2.3,2.3,0,0,1,.7,1.72,2.33,2.33,0,0,1-.7,1.72,2.46,2.46,0,0,1-3.44,0A2.33,2.33,0,0,1,849.08,488.4Zm.81,9.84h3.22v24.85h-3.22Z" class="cls-1"/><path d="M884,518.73h-.11A8.26,8.26,0,0,1,882,521a11.29,11.29,0,0,1-2.45,1.56,12.52,12.52,0,0,1-2.77.92,14.82,14.82,0,0,1-2.85.29,14,14,0,0,1-5.27-1,12,12,0,0,1-4.15-2.71,12.63,12.63,0,0,1-2.68-4.14,14.67,14.67,0,0,1,0-10.49,12.43,12.43,0,0,1,2.68-4.14,12,12,0,0,1,4.15-2.72,14.4,14.4,0,0,1,8.12-.67,12.49,12.49,0,0,1,2.77.91,12.1,12.1,0,0,1,2.45,1.56,8.42,8.42,0,0,1,1.88,2.23H884V482.43h3.22v40.66H884Zm.32-8.07a9.76,9.76,0,0,0-.81-4,10.23,10.23,0,0,0-2.2-3.23A10.87,10.87,0,0,0,878,501.3a10.43,10.43,0,0,0-4.09-.8,10.15,10.15,0,0,0-4.09.8,9.57,9.57,0,0,0-3.12,2.18,9.16,9.16,0,0,0-2,3.23,11.84,11.84,0,0,0,0,7.91,9.12,9.12,0,0,0,2,3.22,9.42,9.42,0,0,0,3.12,2.18,10,10,0,0,0,4.09.81A10.26,10.26,0,0,0,878,520a10.68,10.68,0,0,0,3.28-2.18,10.18,10.18,0,0,0,2.2-3.22A9.81,9.81,0,0,0,884.31,510.66Z" class="cls-1"/><path d="M1173.19,552.76h-98V454h98Zm-88.28-89.85v80.63h78.72V462.91h-78.72Zm59.83,45.65h-9L1138,497h9.78v-8.54h-8.32l1.58-8.78-6.75-1.68-1.91,10.46H1120.9l1.91-10h-7.09l-1.8,10H1102l1.35,8.54h9.11l-2.14,11.58h-9.89V517h8.32l-1.57,8.88,6.74,1.58,1.91-10.46h11.36l-1.91,10.12h7.2l1.8-10.12h11.81Zm-27.44.12,2.13-11.92h11.36l-2,11.92Z" class="cls-2"/><rect width="96.04" height="96.04" x="1076.37" y="454.02" class="cls-2"/><path d="M1117.78,482.37h6.78v31.94h16.19v6.14h-23Z" class="cls-1"/><path d="M1168.67,520.45h-6.14v-4.14h-.1a9.12,9.12,0,0,1-2.8,3.36,8.29,8.29,0,0,1-5.11,1.42,10.47,10.47,0,0,1-4.38-.83,7.84,7.84,0,0,1-2.93-2.26,8.64,8.64,0,0,1-1.62-3.25,15,15,0,0,1-.48-3.82v-16.3h6.45V507.7c0,.72,0,1.51.11,2.39a8.71,8.71,0,0,0,.56,2.48,4.75,4.75,0,0,0,1.4,1.93,4.07,4.07,0,0,0,2.66.78,6.28,6.28,0,0,0,2.72-.53,5.17,5.17,0,0,0,1.83-1.46,6,6,0,0,0,1.05-2.09,9.63,9.63,0,0,0,.32-2.48V494.63h6.46Z" class="cls-1"/><path d="M1193.62,502.37a10.65,10.65,0,0,0-2.36-1.88,5.17,5.17,0,0,0-2.53-.7,7.53,7.53,0,0,0-3.18.65,7.42,7.42,0,0,0-2.39,1.72,7.35,7.35,0,0,0-1.5,2.47,8.37,8.37,0,0,0,0,5.81,7.3,7.3,0,0,0,1.5,2.48,7.33,7.33,0,0,0,5.57,2.36,6.34,6.34,0,0,0,2.8-.62,6,6,0,0,0,2.2-1.8l4.3,4.63a10.15,10.15,0,0,1-2.23,1.67,15.89,15.89,0,0,1-2.55,1.13,15.69,15.69,0,0,1-2.48.61,12.76,12.76,0,0,1-2,.19,15.4,15.4,0,0,1-5.49-1,12.84,12.84,0,0,1-7.45-7,14.63,14.63,0,0,1,0-11.13,12.84,12.84,0,0,1,7.45-7,15.62,15.62,0,0,1,5.49-1,13.94,13.94,0,0,1,5,.95,11.29,11.29,0,0,1,4.39,3Z" class="cls-1"/><path d="M1201.1,485.86a3.7,3.7,0,0,1,1.15-2.71,4,4,0,0,1,2.94-1.16,4.27,4.27,0,0,1,3,1.1,3.78,3.78,0,0,1,0,5.54,4.23,4.23,0,0,1-3,1.1,4,4,0,0,1-2.94-1.15A3.72,3.72,0,0,1,1201.1,485.86Zm.91,8.77h6.46v25.82H1202Z" class="cls-1"/><path d="M1236.33,516.57h-.11a8.34,8.34,0,0,1-3.76,3.45,12.35,12.35,0,0,1-5.11,1.07A12.9,12.9,0,0,1,1222,520a11.87,11.87,0,0,1-4-2.87,12.31,12.31,0,0,1-2.53-4.31,16.17,16.17,0,0,1-.86-5.32,15.26,15.26,0,0,1,.91-5.33,13.14,13.14,0,0,1,2.56-4.3,11.75,11.75,0,0,1,4-2.88,12.09,12.09,0,0,1,5.06-1,12.42,12.42,0,0,1,3.22.38,10.77,10.77,0,0,1,2.48,1,9.92,9.92,0,0,1,1.83,1.26,9.18,9.18,0,0,1,1.23,1.32h.17V479.78h6.45v40.67h-6.13Zm-15.28-9a8.39,8.39,0,0,0,.51,2.9,7.32,7.32,0,0,0,1.51,2.48,7.33,7.33,0,0,0,5.57,2.36,7.48,7.48,0,0,0,3.17-.64,7.58,7.58,0,0,0,2.39-1.72,7.17,7.17,0,0,0,1.51-2.48,8.53,8.53,0,0,0,0-5.81,7.22,7.22,0,0,0-1.51-2.47,7.39,7.39,0,0,0-5.56-2.37,7.53,7.53,0,0,0-3.18.65,7.38,7.38,0,0,0-3.9,4.19A8.45,8.45,0,0,0,1221.05,507.54Z" class="cls-1"/><path d="M992.94,67.31a.85.85,0,0,1,.5-.16.63.63,0,0,1,.48.21.68.68,0,0,1,.2.5.66.66,0,0,1-.2.49.65.65,0,0,1-.48.19.91.91,0,0,1-.5-.15H982.57v-37a.81.81,0,0,1-.16-.47.69.69,0,0,1,.21-.5.67.67,0,0,1,.5-.21.63.63,0,0,1,.48.21.72.72,0,0,1,.2.5.81.81,0,0,1-.16.47V67.31Z" class="cls-1"/><path d="M1007.44,67.78a.76.76,0,0,1,.15.45.63.63,0,0,1-.21.48.66.66,0,0,1-.49.2.63.63,0,0,1-.49-.2.66.66,0,0,1-.2-.48.71.71,0,0,1,.16-.45V66.39a5,5,0,0,1-1.79,1.9,5.24,5.24,0,0,1-2.68.62,5.86,5.86,0,0,1-2.66-.54,4.85,4.85,0,0,1-1.71-1.4,5.29,5.29,0,0,1-.9-2,9.51,9.51,0,0,1-.27-2.26V42.15a1,1,0,0,1-.15-.5.69.69,0,0,1,.19-.49.67.67,0,0,1,.49-.19.71.71,0,0,1,.5.19.67.67,0,0,1,.21.49.94.94,0,0,1-.16.5V62.74a8.31,8.31,0,0,0,.21,1.84,4.71,4.71,0,0,0,.72,1.65,3.67,3.67,0,0,0,1.37,1.18,4.61,4.61,0,0,0,2.16.45,4.73,4.73,0,0,0,2-.41,3.78,3.78,0,0,0,1.39-1.09,4.42,4.42,0,0,0,.79-1.56,6.46,6.46,0,0,0,.25-1.8V42.15a.94.94,0,0,1-.16-.5.7.7,0,0,1,.2-.49.66.66,0,0,1,.49-.19.69.69,0,0,1,.49.19.67.67,0,0,1,.21.49,1,1,0,0,1-.15.5Z" class="cls-1"/><path d="M1012.56,62.74a7.76,7.76,0,0,0,.22,1.86,4.85,4.85,0,0,0,.74,1.65,3.67,3.67,0,0,0,1.38,1.16,4.52,4.52,0,0,0,2.12.45,5,5,0,0,0,2.05-.38,3.79,3.79,0,0,0,1.38-1,4,4,0,0,0,.79-1.47,8,8,0,0,0,.3-1.72.53.53,0,0,1-.12-.21,1.09,1.09,0,0,1,0-.26.64.64,0,0,1,.2-.44.61.61,0,0,1,.49-.22.64.64,0,0,1,.49.22.61.61,0,0,1,.21.44.75.75,0,0,1,0,.26.42.42,0,0,1-.11.21,9.82,9.82,0,0,1-.4,2.12,5.26,5.26,0,0,1-1,1.8,5,5,0,0,1-1.7,1.26,6.06,6.06,0,0,1-2.52.47,5.8,5.8,0,0,1-2.64-.54,4.73,4.73,0,0,1-1.7-1.4,5.49,5.49,0,0,1-.92-2,9,9,0,0,1-.28-2.26V47.14a9,9,0,0,1,.28-2.26,5.49,5.49,0,0,1,.92-2,4.53,4.53,0,0,1,1.7-1.4A5.8,5.8,0,0,1,1017,41a5.91,5.91,0,0,1,2.52.47,5,5,0,0,1,1.7,1.26,5.26,5.26,0,0,1,1,1.8,9.72,9.72,0,0,1,.4,2.11.53.53,0,0,1,.11.21.84.84,0,0,1,0,.27.63.63,0,0,1-.21.44.67.67,0,0,1-.49.21.64.64,0,0,1-.49-.21.66.66,0,0,1-.2-.44.54.54,0,0,1,.16-.42,8.28,8.28,0,0,0-.3-1.71,4,4,0,0,0-2.17-2.53A4.54,4.54,0,0,0,1017,42a4.4,4.4,0,0,0-2.12.46,3.81,3.81,0,0,0-1.38,1.18,4.8,4.8,0,0,0-.74,1.64,7.71,7.71,0,0,0-.22,1.84Z" class="cls-1"/><path d="M1027.13,35a.57.57,0,0,1,.16.42.68.68,0,0,1-.2.5.63.63,0,0,1-.48.21.72.72,0,0,1-.71-.71.57.57,0,0,1,.16-.42V33.48a.92.92,0,0,1-.16-.5.63.63,0,0,1,.21-.48.72.72,0,0,1,.5-.2.66.66,0,0,1,.48.2.62.62,0,0,1,.2.48.92.92,0,0,1-.16.5Zm0,32.75a.71.71,0,0,1,.16.45.68.68,0,0,1-.68.68.68.68,0,0,1-.5-.2.63.63,0,0,1-.21-.48.71.71,0,0,1,.16-.45V42.15a.94.94,0,0,1-.16-.5.67.67,0,0,1,.21-.49.71.71,0,0,1,.5-.19.65.65,0,0,1,.48.19.66.66,0,0,1,.2.49.94.94,0,0,1-.16.5Z" class="cls-1"/><path d="M1031.28,47.14a9.51,9.51,0,0,1,.27-2.26,5.29,5.29,0,0,1,.9-2,4.65,4.65,0,0,1,1.71-1.4,5.88,5.88,0,0,1,2.67-.54,5.22,5.22,0,0,1,2.67.61,5.16,5.16,0,0,1,1.79,1.88V31.38a.81.81,0,0,1-.16-.47.72.72,0,0,1,.71-.71.65.65,0,0,1,.49.21.71.71,0,0,1,.19.5.87.87,0,0,1-.15.47v36.4a.76.76,0,0,1,.15.45.65.65,0,0,1-.19.48.64.64,0,0,1-.49.2.68.68,0,0,1-.5-.2.63.63,0,0,1-.21-.48.71.71,0,0,1,.16-.45V66.65a5.7,5.7,0,0,1-1.79,1.64,5.22,5.22,0,0,1-2.67.62,5.88,5.88,0,0,1-2.67-.54,4.85,4.85,0,0,1-1.71-1.4,5.29,5.29,0,0,1-.9-2,9.51,9.51,0,0,1-.27-2.26Zm10,0a6.18,6.18,0,0,0-.28-1.84,5.15,5.15,0,0,0-.82-1.64,4.34,4.34,0,0,0-1.4-1.18,4,4,0,0,0-2-.46,4.5,4.5,0,0,0-2.17.46,3.86,3.86,0,0,0-1.37,1.18,4.59,4.59,0,0,0-.72,1.64,8.24,8.24,0,0,0-.21,1.84v15.6a8.31,8.31,0,0,0,.21,1.84,4.71,4.71,0,0,0,.72,1.65,3.67,3.67,0,0,0,1.37,1.18,4.63,4.63,0,0,0,2.17.45,4.36,4.36,0,0,0,2.11-.47,4.16,4.16,0,0,0,1.38-1.21,4.8,4.8,0,0,0,.75-1.64,8,8,0,0,0,.22-1.8Z" class="cls-1"/><path d="M1157.8,68.53a3.06,3.06,0,0,1-3.28-3V30.88h3.55l0,34.16h13.4v3.49Z" class="cls-1"/><path d="M1173.35,60.52V42.72h3.44v17.8a4.76,4.76,0,1,0,9.52,0V42.72h3.39v17.8a8.13,8.13,0,0,1-8.18,8.28A8.23,8.23,0,0,1,1173.35,60.52Z" class="cls-1"/><path d="M1211.48,59.44c0,5.11-3.6,9.36-8.28,9.36a8.45,8.45,0,0,1-8.39-8.33V50.73a8.36,8.36,0,0,1,8.39-8.34c4.41,0,8.23,4.09,8.28,9.36H1208c0-3.33-2.15-5.86-4.84-5.86a4.91,4.91,0,0,0-5,4.84v9.74a4.92,4.92,0,0,0,5,4.89c2.69,0,4.84-2.69,4.84-5.92Z" class="cls-1"/><path d="M1221.05,38.63a2.33,2.33,0,0,1-2.36,2.26,2.23,2.23,0,0,1-2.21-2.26,2.2,2.2,0,0,1,2.21-2.31A2.3,2.3,0,0,1,1221.05,38.63Zm-.64,29.9H1217V42.72h3.39Z" class="cls-1"/><path d="M1225.73,60.74V50.57a8.44,8.44,0,0,1,8.45-8.12,5.68,5.68,0,0,1,4.84,2.69V31.47h3.44V68.53h-3l-.43-2.36c-1,2.26-3.06,2.74-4.89,2.74A8.55,8.55,0,0,1,1225.73,60.74Zm3.44,0a5,5,0,0,0,5,4.73c2.74,0,4.84-1.88,4.84-4.14v-11c-.06-2.58-1.72-4.41-4.84-4.41a4.83,4.83,0,0,0-5,4.63Z" class="cls-1"/></svg>