<svg clip-rule="evenodd" fill-rule="evenodd" stroke-linejoin="round" stroke-miterlimit="2" viewBox="0 0 1275 595" xmlns="http://www.w3.org/2000/svg"><path d="m0-10.854h1293.85v400.432h-1293.85z" fill="#fff" transform="matrix(1.0007 0 0 1.54524 -8.18658 5.91798)"/><g fill-rule="nonzero"><path d="m43.81 67.78v.82h-12.87v-24.06h.94v23.24z" fill="#231f20"/><path d="m55.46 68.05c1.144.024 2.279-.198 3.33-.65.944-.423 1.789-1.04 2.48-1.81.693-.784 1.224-1.699 1.56-2.69.365-1.072.548-2.198.54-3.33v-15h1v15c.008 1.244-.202 2.479-.62 3.65-.381 1.109-.984 2.13-1.77 3-.78.855-1.73 1.536-2.79 2-2.366.973-5.024.973-7.39 0-1.06-.464-2.01-1.145-2.79-2-.78-.873-1.378-1.893-1.76-3-.415-1.172-.622-2.407-.61-3.65v-15h.94v15c-.009 1.136.174 2.265.54 3.34.334.996.86 1.917 1.55 2.71.689.779 1.539 1.4 2.49 1.82 1.045.432 2.169.64 3.3.61z" fill="#231f20"/><path d="m89.26 65c.07.005.137.033.19.08l.36.38c-.506.502-1.051.964-1.63 1.38-.596.421-1.237.777-1.91 1.06-.738.31-1.505.545-2.29.7-.9.17-1.814.254-2.73.25-1.545.022-3.079-.267-4.51-.85-1.346-.556-2.557-1.395-3.55-2.46-1.026-1.126-1.819-2.445-2.33-3.88-.58-1.637-.864-3.364-.84-5.1-.019-1.703.266-3.396.84-5 .518-1.444 1.325-2.767 2.37-3.89 1.035-1.081 2.285-1.933 3.67-2.5 1.487-.61 3.083-.913 4.69-.89 1.46-.028 2.912.219 4.28.73 1.27.507 2.447 1.224 3.48 2.12l-.26.38c-.061.086-.165.132-.27.12-.135-.029-.26-.095-.36-.19l-.65-.44c-.323-.22-.656-.424-1-.61-.427-.248-.875-.455-1.34-.62-.571-.201-1.156-.358-1.75-.47-2.163-.391-4.392-.176-6.44.62-1.239.511-2.357 1.278-3.28 2.25-.968 1.044-1.71 2.276-2.18 3.62-.553 1.532-.831 3.151-.82 4.78-.027 1.647.237 3.285.78 4.84.473 1.329 1.207 2.55 2.16 3.59.916.978 2.031 1.749 3.27 2.26 1.296.536 2.687.804 4.09.79.831.009 1.66-.054 2.48-.19.686-.111 1.356-.299 2-.56.599-.242 1.169-.551 1.7-.92.528-.383 1.035-.794 1.52-1.23.058-.089.154-.145.26-.15z" fill="#231f20"/><path d="m94.87 44.54h1v24.06h-1z" fill="#231f20"/><path d="m123.44 56.57c.025 1.722-.256 3.436-.83 5.06-.491 1.41-1.279 2.699-2.31 3.78-1.002 1.037-2.216 1.846-3.56 2.37-1.454.562-3.002.84-4.56.82h-8.68v-24.06h8.68c1.558-.02 3.106.258 4.56.82 1.344.524 2.558 1.333 3.56 2.37 1.029 1.082 1.816 2.371 2.31 3.78.574 1.624.855 3.338.83 5.06zm-1 0c.03-1.624-.221-3.241-.74-4.78-.445-1.313-1.164-2.516-2.11-3.53-.908-.963-2.018-1.715-3.25-2.2-1.326-.512-2.738-.766-4.16-.75h-7.74v22.52h7.74c1.422.016 2.834-.238 4.16-.75 1.233-.479 2.343-1.228 3.25-2.19.944-1.019 1.663-2.225 2.11-3.54.52-1.539.77-3.156.74-4.78z" fill="#231f20"/><path d="m246.4 67.82v.82h-12.87v-24.06h.94v23.24z" fill="#231f20"/><path d="m261.17 51.76v16.88h-.41c-.2 0-.32-.12-.36-.34l-.08-3c-.755 1.049-1.719 1.931-2.83 2.59-1.074.658-2.31 1.004-3.57 1-.84.02-1.676-.127-2.46-.43-.671-.277-1.27-.705-1.75-1.25-.468-.59-.809-1.271-1-2-.242-.869-.36-1.768-.35-2.67v-10.78h.91v10.8c-.014.796.083 1.591.29 2.36.167.652.474 1.259.9 1.78.411.486.932.866 1.52 1.11.685.265 1.415.394 2.15.38 1.202-.006 2.378-.353 3.39-1 1.102-.699 2.053-1.61 2.8-2.68v-12.75z" fill="#231f20"/><path d="m278.3 53.61-.1.1c-.046.013-.094.013-.14 0-.161-.037-.307-.12-.42-.24-.629-.486-1.345-.846-2.11-1.06-.618-.173-1.258-.253-1.9-.24-.962-.019-1.917.169-2.8.55-.801.371-1.509.918-2.07 1.6-.586.75-1.024 1.606-1.29 2.52-.324 1.09-.482 2.223-.47 3.36-.017 1.143.135 2.282.45 3.38.258.906.693 1.753 1.28 2.49.538.661 1.223 1.189 2 1.54.821.365 1.712.546 2.61.53.738.018 1.474-.084 2.18-.3.509-.167.999-.388 1.46-.66.317-.195.615-.42.89-.67.21-.2.35-.3.45-.3.085-.003.167.034.22.1l.2.26c-.238.319-.521.602-.84.84-.389.286-.808.527-1.25.72-.509.224-1.038.398-1.58.52-.604.132-1.222.195-1.84.19-1.01.016-2.012-.182-2.94-.58-.871-.382-1.641-.96-2.25-1.69-.656-.803-1.149-1.727-1.45-2.72-.673-2.356-.673-4.854 0-7.21.305-1.004.804-1.939 1.47-2.75.643-.752 1.441-1.356 2.34-1.77.999-.435 2.08-.65 3.17-.63.958-.017 1.91.156 2.8.51.785.305 1.507.753 2.13 1.32z" fill="#231f20"/><path d="m285 45.67c-.002.155-.036.308-.1.45-.069.134-.161.256-.27.36-.107.112-.237.201-.38.26-.135.063-.281.097-.43.1-.315.003-.617-.128-.83-.36-.227-.208-.354-.503-.35-.81-.005-.313.122-.615.35-.83.217-.226.517-.352.83-.35.148 0 .294.031.43.09.141.063.27.151.38.26.11.111.201.24.27.38.064.142.098.295.1.45zm-.74 6.09v16.88h-.89v-16.88z" fill="#231f20"/><path d="m303.2 43.89v24.75h-.41c-.014.002-.027.003-.041.003-.175 0-.32-.145-.32-.32 0-.008 0-.015.001-.023l-.1-3c-.696 1.058-1.619 1.95-2.7 2.61-1.035.655-2.235 1.001-3.46 1-1.891.115-3.729-.672-4.95-2.12-1.15-1.41-1.72-3.58-1.72-6.48-.011-1.188.158-2.372.5-3.51.282-1.009.758-1.953 1.4-2.78.621-.783 1.411-1.415 2.31-1.85.997-.469 2.089-.702 3.19-.68 1.087-.028 2.165.209 3.14.69.921.497 1.707 1.211 2.29 2.08v-10.37zm-.9 11.28c-.575-.954-1.384-1.745-2.35-2.3-.909-.465-1.919-.698-2.94-.68-.998-.026-1.988.183-2.89.61-.809.39-1.515.966-2.06 1.68-.567.754-.985 1.609-1.23 2.52-.28 1.047-.418 2.126-.41 3.21 0 2.667.503 4.65 1.51 5.95 1.079 1.318 2.73 2.038 4.43 1.93 1.171-.005 2.314-.353 3.29-1 1.066-.705 1.969-1.629 2.65-2.71z" fill="#231f20"/><path d="m430.3 64v4.62h-15v-24.92h5.78v20.3z" fill="#231f20"/><path d="m448.05 50.89v17.75h-3.28c-.588.052-1.136-.323-1.3-.89l-.31-1c-.334.322-.688.623-1.06.9-.366.271-.762.499-1.18.68-.433.198-.885.348-1.35.45-.519.112-1.049.166-1.58.16-.885.015-1.764-.155-2.58-.5-.729-.334-1.374-.826-1.89-1.44-.525-.625-.92-1.35-1.16-2.13-.267-.878-.399-1.792-.39-2.71v-11.27h5.3v11.26c-.037.716.175 1.423.6 2 .443.499 1.094.765 1.76.72.567 0 1.128-.126 1.64-.37.534-.269 1.031-.605 1.48-1v-12.61z" fill="#231f20"/><path d="m464.69 55.1c-.136.173-.294.328-.47.46-.185.125-.407.185-.63.17-.248.004-.493-.059-.71-.18l-.71-.42c-.29-.173-.599-.314-.92-.42-.426-.138-.872-.203-1.32-.19-.584-.014-1.163.109-1.69.36-.466.233-.867.576-1.17 1-.333.496-.564 1.054-.68 1.64-.16.715-.237 1.447-.23 2.18-.084 1.379.266 2.75 1 3.92.605.889 1.625 1.41 2.7 1.38.497.019.993-.06 1.46-.23.325-.138.634-.312.92-.52l.69-.52c.233-.166.514-.251.8-.24.393-.032.774.147 1 .47l1.54 1.9c-.958 1.121-2.197 1.967-3.59 2.45-.619.22-1.259.374-1.91.46-.616.087-1.238.13-1.86.13-1.067.006-2.124-.201-3.11-.61-.982-.409-1.868-1.018-2.6-1.79-.778-.836-1.383-1.819-1.78-2.89-.852-2.416-.88-5.047-.08-7.48.7-2.186 2.335-3.953 4.46-4.82 1.216-.49 2.519-.728 3.83-.7 1.252-.026 2.496.199 3.66.66 1.065.459 2.029 1.121 2.84 1.95z" fill="#231f20"/><path d="m474.27 46c.001.411-.088.817-.26 1.19-.165.377-.403.717-.7 1-.294.275-.632.498-1 .66-.399.168-.827.253-1.26.25-.42.005-.836-.08-1.22-.25-.368-.162-.706-.385-1-.66-.292-.284-.524-.624-.68-1-.169-.374-.254-.78-.25-1.19-.003-.42.082-.835.25-1.22.161-.374.391-.713.68-1 .291-.281.629-.508 1-.67.388-.154.802-.232 1.22-.23.43 0 .857.078 1.26.23.371.162.709.389 1 .67.294.286.532.625.7 1 .171.384.26.8.26 1.22zm-.55 4.86v17.78h-5.3v-17.75z" fill="#231f20"/><path d="m493.51 43v25.64h-3.29c-.587.048-1.132-.325-1.3-.89l-.41-1.35c-.351.354-.721.688-1.11 1-.39.312-.812.58-1.26.8-.466.225-.956.396-1.46.51-.551.123-1.115.184-1.68.18-.894.01-1.776-.2-2.57-.61-.792-.435-1.476-1.044-2-1.78-.607-.866-1.061-1.83-1.34-2.85-.34-1.255-.505-2.55-.49-3.85-.008-1.248.178-2.489.55-3.68.325-1.088.851-2.105 1.55-3 .654-.809 1.472-1.47 2.4-1.94.964-.474 2.026-.714 3.1-.7.795-.023 1.586.109 2.33.39.614.284 1.178.666 1.67 1.13v-9zm-5.31 12.65c-.348-.414-.795-.734-1.3-.93-.469-.18-.968-.271-1.47-.27-.466-.004-.927.095-1.35.29-.429.215-.797.535-1.07.93-.339.507-.58 1.074-.71 1.67-.186.813-.273 1.646-.26 2.48-.011.795.056 1.588.2 2.37.103.543.3 1.064.58 1.54.205.362.511.657.88.85.357.176.752.265 1.15.26.336-.002.671-.039 1-.11.298-.072.587-.179.86-.32.27-.142.522-.317.75-.52.245-.229.475-.473.69-.73z" fill="#231f20"/><path d="m605 67.66h12.5v.9h-13.4v-24.33h.9z" fill="#231f20"/><path d="m632.71 65.32c-.529 1.113-1.374 2.045-2.43 2.68-1.169.65-2.493.971-3.83.93-1.695.073-3.325-.671-4.38-2-1.053-1.333-1.577-3.38-1.57-6.14v-10.31h.9v10.34c0 2.45.45 4.27 1.35 5.44.86 1.144 2.23 1.795 3.66 1.74 1.57.106 3.124-.391 4.34-1.39 1.037-.976 1.717-2.272 1.93-3.68v-12.45h.92v18.08h-.75z" fill="#231f20"/><path d="m645.43 68c1.448.023 2.867-.415 4.05-1.25 1.182-.87 1.842-2.285 1.75-3.75h.77v.1c.105 1.645-.625 3.236-1.94 4.23-1.324 1.048-2.971 1.607-4.66 1.58-2.094.089-4.107-.84-5.4-2.49-1.397-1.889-2.103-4.203-2-6.55v-.7c-.097-2.344.609-4.651 2-6.54 1.289-1.654 3.305-2.584 5.4-2.49 1.731-.048 3.421.539 4.75 1.65 1.317 1.164 2.005 2.889 1.85 4.64v.1h-.77c.095-1.546-.534-3.051-1.7-4.07-1.164-.948-2.63-1.448-4.13-1.41-1.886-.112-3.705.744-4.82 2.27-1.134 1.733-1.687 3.782-1.58 5.85v.7c-.096 2.083.476 4.143 1.63 5.88 1.121 1.505 2.926 2.351 4.8 2.25z" fill="#231f20"/><path d="m657.78 44.8h-.9v-2.31h.9zm0 23.76h-.9v-18.08h.9z" fill="#231f20"/><path d="m662.88 59.5c-.126-2.405.503-4.791 1.8-6.82 1.122-1.644 3.011-2.603 5-2.54 2.551-.08 4.935 1.305 6.13 3.56v-11.21h.9v26.07h-.87v-2.81c-.608.976-1.464 1.773-2.48 2.31-1.139.589-2.408.882-3.69.85-1.971.087-3.856-.833-5-2.44-1.297-1.955-1.928-4.278-1.8-6.62zm.93.35c-.105 2.086.41 4.156 1.48 5.95.96 1.452 2.622 2.291 4.36 2.2 1.385.049 2.752-.324 3.92-1.07 1.028-.7 1.816-1.698 2.26-2.86v-8.46c-.405-1.247-1.129-2.368-2.1-3.25-1.135-.933-2.583-1.401-4.05-1.31-1.772-.075-3.45.824-4.37 2.34-1.072 1.852-1.593 3.972-1.5 6.11z" fill="#231f20"/><path d="m796.44 66.86h9.83v1.7h-11.85v-24.33h2z" fill="#231f20"/><path d="m818.32 65.74c-.422.936-1.08 1.746-1.91 2.35-.815.556-1.784.843-2.77.82-1.496.06-2.919-.665-3.75-1.91-.9-1.293-1.35-3.293-1.35-6v-10.52h2v10.52c-.122 1.614.175 3.233.86 4.7.502.901 1.47 1.447 2.5 1.41 1.014.042 2.009-.285 2.8-.92.751-.682 1.286-1.568 1.54-2.55v-13.16h2v18.08h-1.81z" fill="#231f20"/><path d="m830.5 67.21c1.035.006 2.03-.405 2.76-1.14.82-.833 1.252-1.973 1.19-3.14h1.77v.1c.071 1.575-.547 3.105-1.69 4.19-1.121 1.096-2.628 1.711-4.196 1.711-1.821 0-3.546-.829-4.684-2.251-1.167-1.679-1.747-3.698-1.65-5.74v-2.81c-.085-2.045.506-4.063 1.68-5.74 1.124-1.502 2.927-2.347 4.8-2.25 1.58-.042 3.102.605 4.17 1.77 1.132 1.266 1.708 2.935 1.6 4.63v.09h-1.78c.066-1.247-.337-2.475-1.13-3.44-.701-.826-1.737-1.293-2.82-1.27-1.374-.097-2.693.584-3.41 1.76-.772 1.36-1.156 2.907-1.11 4.47v2.85c-.062 1.566.309 3.12 1.07 4.49.734 1.164 2.058 1.828 3.43 1.72z" fill="#231f20"/><path d="m842.12 45.33h-2v-2.84h2zm0 23.23h-2v-18.08h2z" fill="#231f20"/><path d="m846.21 59.69c-.112-2.41.412-4.807 1.52-6.95.847-1.598 2.513-2.601 4.321-2.601.895 0 1.774.246 2.539.711.775.507 1.417 1.193 1.87 2v-10.36h2v26.07h-1.77l-.17-2.34c-.449.817-1.099 1.506-1.89 2-.802.472-1.72.711-2.65.69-1.746.037-3.378-.891-4.24-2.41-1.115-1.978-1.645-4.232-1.53-6.5zm2 .35c-.093 1.779.25 3.554 1 5.17.566 1.203 1.801 1.957 3.13 1.91.892.032 1.766-.252 2.47-.8.71-.599 1.254-1.37 1.58-2.24v-8.86c-.324-.895-.852-1.703-1.54-2.36-.673-.614-1.56-.941-2.47-.91-1.394-.018-2.659.839-3.16 2.14-.746 1.769-1.088 3.682-1 5.6z" fill="#231f20"/><path d="m36.66 156.32h-5.72v-5.32h6.42l1.14-7.76h-5.72v-5.34h6.42l1.91-13.28h5.59l-1.91 13.28h6.55l1.91-13.28h5.53l-1.91 13.28h5.72v5.34h-6.48l-1.11 7.76h5.72v5.34h-6.33l-2 13.28h-5.5l1.91-13.28h-6.61l-1.91 13.26h-5.53zm7.34-13.1-1 7.78h6.5l1.08-7.76z" fill="#f6eb0f"/><path d="m49.05 154.32v-23.62h5.85v18.55h7.26l.79 5.07z" fill="#231f20"/><path d="m72.16 154.66c-4.76 0-7.53-2.5-7.53-7.32v-10.82h4.92v10.88c0 1.92.69 3.15 2.64 3.15s2.64-1.2 2.64-3.15v-10.88h5v10.78c-.01 4.86-2.92 7.36-7.67 7.36z" fill="#231f20"/><path d="m91.46 154.63c-5.37 0-8.86-3.39-8.86-9.18s3.79-9.24 8.72-9.24c1.705-.065 3.396.325 4.9 1.13l-.62 4.38c-1.035-.792-2.297-1.234-3.6-1.26-2.43 0-4.21 1.6-4.21 5s1.89 5 4.28 5c1.368-.023 2.705-.414 3.87-1.13l.58 4.07c-1.56.82-3.298 1.242-5.06 1.23z" fill="#231f20"/><path d="m99.47 136.52h5v17.8h-5z" fill="#231f20"/><path d="m114.77 154.32h-6.5v-17.8h6.36c6.23 0 9.41 3.53 9.41 8.9-.04 5.2-3.42 8.9-9.27 8.9zm-.21-13.83h-1.3v9.86h1.3c2.67 0 4.31-1.61 4.31-4.9s-1.57-4.96-4.31-4.96z" fill="#231f20"/><path d="m322.43 155.8v-23.62h1.64v22.15h9.59l.24 1.47z" fill="#231f20"/><path d="m348.72 155.8-.41-2.43c-1.95 1.71-3.73 2.77-5.86 2.77-3.32 0-4.89-1.88-4.89-5.1v-11.33h1.61v11.19c0 2.43 1.16 3.77 3.45 3.77 1.78 0 3.63-1 5.65-2.91v-12h1.61v16.04z" fill="#231f20"/><path d="m361.59 156.14c-3.94 0-7.09-3.08-7.09-8.39s3.18-8.38 7.19-8.38c1.881.007 3.709.633 5.2 1.78l-.31 1.64c-1.349-1.281-3.14-1.997-5-2-3.42 0-5.44 2.84-5.44 7s1.95 7 5.58 7c1.864-.04 3.648-.775 5-2.06l.2 1.51c-1.493 1.248-3.384 1.922-5.33 1.9z" fill="#231f20"/><path d="m372.47 135.36c-.758-.026-1.374-.642-1.4-1.4.016-.757.643-1.37 1.4-1.37.75.005 1.365.62 1.37 1.37-.015.751-.619 1.369-1.37 1.4zm-.79 20.44v-16.09h1.58v16.09z" fill="#231f20"/><path d="m390.3 155.8-.41-2.36c-1.197 1.647-3.095 2.645-5.13 2.7-3.56 0-6.61-2.53-6.61-7.94 0-5.85 3.49-8.73 7.39-8.73 1.484-.018 2.956.275 4.32.86v-8.66l1.61-.34v24.47zm-.44-13.9c-1.325-.674-2.794-1.017-4.28-1-3.18 0-5.75 2.29-5.75 7.25 0 4.21 2.09 6.54 5 6.54 1.95 0 3.49-1.17 5.07-2.95z" fill="#231f20"/><path d="m594.43 156.32h-5.72v-5.32h6.42l1.14-7.76h-5.72v-5.34h6.45l1.91-13.28h5.59l-1.91 13.28h6.55l1.86-13.3h5.53l-1.91 13.28h5.72v5.34h-6.48l-1.06 7.78h5.72v5.34h-6.36l-2 13.28h-5.53l1.91-13.28h-6.54l-1.91 13.28h-5.53zm7.37-13.1-1.08 7.78h6.55l1.08-7.76z" fill="#f6eb0f"/><path d="m608 133.88h2.26v22.18h11.29v2.06h-13.55z" fill="#231f20"/><path d="m637.9 153.67v4.45h-1.9v-1.71c.009-.356-.021-.711-.09-1.06h-.1c-.452.914-1.143 1.688-2 2.24-1.004.636-2.172.963-3.36.94-1.03.03-2.055-.168-3-.58-.735-.347-1.371-.873-1.85-1.53-.451-.651-.758-1.391-.9-2.17-.161-.834-.241-1.681-.24-2.53v-9.42h2v9.31c0 .627.057 1.253.17 1.87.109.573.311 1.124.6 1.63.29.481.705.875 1.2 1.14.618.314 1.307.462 2 .43.731.004 1.457-.128 2.14-.39.667-.261 1.266-.672 1.75-1.2.514-.584.909-1.264 1.16-2 .306-.922.451-1.889.43-2.86v-7.93h2z" fill="#231f20"/><path d="m656.8 155.79c-.709.884-1.612 1.593-2.64 2.07-.998.452-2.084.681-3.18.67-1.149.01-2.29-.201-3.36-.62-.99-.382-1.887-.972-2.63-1.73-.738-.755-1.319-1.649-1.71-2.63-.826-2.149-.826-4.531 0-6.68.391-.981.972-1.875 1.71-2.63.746-.754 1.642-1.344 2.63-1.73 1.07-.419 2.211-.63 3.36-.62 1.117-.01 2.222.237 3.23.72 1.005.488 1.905 1.167 2.65 2l-1.64 1.23c-.566-.635-1.244-1.161-2-1.55-.703-.379-1.491-.575-2.29-.57-.894-.016-1.781.162-2.6.52-.754.319-1.434.788-2 1.38-.554.593-.979 1.295-1.25 2.06-.292.804-.438 1.654-.43 2.51-.007.859.139 1.712.43 2.52.274.761.699 1.458 1.25 2.05.568.591 1.248 1.064 2 1.39.821.35 1.707.524 2.6.51.832.008 1.651-.199 2.38-.6.718-.403 1.35-.943 1.86-1.59z" fill="#231f20"/><path d="m659.84 136c0-.845.695-1.54 1.54-1.54h.02c.834 0 1.52.686 1.52 1.52v.02c0 .014.001.027.001.041 0 .822-.678 1.5-1.5 1.5-.014 0-.027-.001-.041-.001-.007 0-.013 0-.02 0-.834 0-1.52-.686-1.52-1.52 0-.007 0-.013 0-.02zm.51 6.26h2.06v15.82h-2.06z" fill="#231f20"/><path d="m682.05 155.35h-.05c-.316.538-.722 1.019-1.2 1.42-.474.4-.998.736-1.56 1-.563.259-1.153.453-1.76.58-.599.122-1.209.185-1.82.19-1.146.008-2.283-.202-3.35-.62-.993-.382-1.893-.972-2.64-1.73-.738-.755-1.319-1.649-1.71-2.63-.813-2.152-.813-4.528 0-6.68.391-.981.972-1.875 1.71-2.63.75-.755 1.649-1.344 2.64-1.73 1.067-.418 2.204-.628 3.35-.62.611.005 1.221.068 1.82.19.607.127 1.197.321 1.76.58.559.268 1.083.604 1.56 1 .481.399.887.88 1.2 1.42h.06v-12.85h2.06v25.88h-2.06zm.21-5.14c.006-.863-.168-1.718-.51-2.51-.331-.772-.81-1.472-1.41-2.06-.603-.588-1.312-1.056-2.09-1.38-.82-.354-1.706-.531-2.6-.52-.894-.014-1.78.163-2.6.52-.754.319-1.434.788-2 1.38-.557.591-.983 1.293-1.25 2.06-.292.804-.438 1.654-.43 2.51-.007.859.139 1.712.43 2.52.269.763.695 1.461 1.25 2.05.567.592 1.247 1.065 2 1.39.822.349 1.707.523 2.6.51.892.01 1.777-.164 2.6-.51.776-.331 1.484-.802 2.09-1.39.597-.586 1.076-1.283 1.41-2.05.341-.796.515-1.654.51-2.52z" fill="#231f20"/><path d="m1153.91 156.32h-5.72v-5.32h6.42l1.14-7.76h-5.75v-5.34h6.42l1.91-13.28h5.67l-1.9 13.28h6.54l1.91-13.28h5.45l-1.91 13.28h5.72v5.34h-6.48l-1.08 7.76h5.75v5.34h-6.36l-2 13.28h-5.53l1.91-13.28h-6.61l-1.91 13.28h-5.5zm7.37-13.1-1.08 7.78h6.55l1.08-7.76z" fill="#f6eb0f"/><path d="m1167.78 157.1v-24.24h.75v23.55h12v.69z" fill="#231f20"/><path d="m1194.9 154.92c-.4.561-.89 1.054-1.45 1.46-.55.383-1.15.683-1.78.89-.65.205-1.32.31-2 .31-.95.031-1.89-.172-2.74-.59-.7-.358-1.3-.888-1.74-1.54-.44-.651-.76-1.381-.93-2.15-.18-.797-.27-1.612-.27-2.43v-9.52h.75v9.45c0 .695.07 1.388.21 2.07.12.711.38 1.391.77 2 .38.601.9 1.11 1.5 1.49.74.429 1.59.637 2.45.6 1.71.005 3.33-.751 4.43-2.06.59-.713 1.05-1.53 1.34-2.41.34-1.045.51-2.14.49-3.24v-7.87h.76v14.89c0 .34 0 .63.07.86h-.75c0-.23 0-.52-.06-.86s0-.71 0-1.11v-2.17h-.07c-.23.688-.56 1.338-.98 1.93z" fill="#231f20"/><path d="m1215.08 143.47c-.59-.624-1.3-1.124-2.08-1.47-.79-.346-1.64-.523-2.5-.52-1.04-.017-2.06.202-3 .64-.87.402-1.64.977-2.28 1.69-.63.726-1.12 1.563-1.45 2.47-.69 1.898-.69 3.982 0 5.88.32.902.82 1.733 1.45 2.45.64.704 1.41 1.269 2.28 1.66.94.422 1.97.634 3 .62.87 0 1.73-.152 2.55-.45.81-.283 1.55-.737 2.17-1.33l.52.48c-.68.678-1.51 1.185-2.42 1.48-.91.31-1.86.468-2.82.47-1.1.011-2.19-.2-3.2-.62-.95-.397-1.81-.978-2.53-1.71-.74-.755-1.31-1.654-1.68-2.64-.41-1.069-.61-2.206-.6-3.35-.01-1.148.19-2.287.6-3.36 1.18-3.044 4.15-5.045 7.41-5 .98-.002 1.95.185 2.86.55.87.347 1.66.872 2.31 1.54z" fill="#231f20"/><path d="m1220.66 135.43c-.21 0-.41-.087-.55-.24-.17-.175-.25-.41-.24-.65-.01-.231.08-.455.24-.62.14-.153.34-.239.54-.239.21 0 .41.086.55.239.32.359.32.911 0 1.27-.14.148-.34.234-.54.24zm-.38 21.67v-15.75h.75v15.75z" fill="#231f20"/><path d="m1241.71 131.22h.75v25.88h-.75v-4.25h-.11c-1.16 2.878-3.98 4.761-7.08 4.73-1.09.007-2.17-.211-3.17-.64-.94-.403-1.79-.995-2.5-1.74-.71-.766-1.26-1.663-1.62-2.64-.4-1.054-.59-2.174-.58-3.3-.01-1.133.19-2.258.58-3.32.36-.986.91-1.893 1.62-2.67.7-.754 1.55-1.354 2.5-1.76 1-.434 2.08-.652 3.17-.64 3.11-.035 5.94 1.865 7.08 4.76h.11zm-14.31 18c-.01 1.002.16 1.997.5 2.94.31.902.79 1.734 1.42 2.45.62.705 1.38 1.271 2.24 1.66.94.429 1.97.64 3 .62 1 .009 1.98-.202 2.89-.62.86-.396 1.64-.96 2.28-1.66.65-.714 1.16-1.546 1.5-2.45.73-1.915.73-4.035 0-5.95-.34-.904-.85-1.736-1.5-2.45-.64-.7-1.42-1.264-2.28-1.66-.91-.418-1.89-.629-2.89-.62-1.04-.024-2.06.195-3 .64-.86.4-1.62.976-2.24 1.69-.63.724-1.11 1.563-1.42 2.47-.34.955-.51 1.965-.5 2.98z" fill="#231f20"/><path d="m36.66 280.65h-5.72v-5.34h6.42l1.14-7.75h-5.72v-5.34h6.42l1.91-13.29h5.59l-1.91 13.29h6.55l1.91-13.29h5.53l-1.91 13.29h5.72v5.34h-6.48l-1.11 7.75h5.72v5.34h-6.33l-2 13.29h-5.5l1.91-13.29h-6.61l-1.91 13.29h-5.53zm7.34-13.09-1 7.75h6.5l1.08-7.75z" fill="#f6eb0f"/><path d="m62.44 287.83v3.05h-12.61v-39.6h3.05v36.55z" fill="#231f20"/><path d="m78.64 262.25v28.63h-2.12l-.52-2.23c-.962 1.542-2.643 2.495-4.46 2.53-3.05 0-5.58-2.82-5.58-6.34v-22.59h3.04v22.59c-.003.06-.005.121-.005.181 0 1.805 1.485 3.29 3.29 3.29s3.29-1.485 3.29-3.29c0-.06-.002-.121-.005-.181v-22.59z" fill="#231f20"/><path d="m96 281.44v3.4c.003.084.005.168.005.252 0 3.478-2.862 6.34-6.34 6.34s-6.34-2.862-6.34-6.34c0-.084.002-.168.005-.252v-16.54c-.003-.084-.005-.168-.005-.252 0-3.478 2.862-6.34 6.34-6.34s6.34 2.862 6.34 6.34c0 .084-.002.168-.005.252v3.34l-3 .36v-3.7c.003-.06.005-.121.005-.181 0-1.805-1.485-3.29-3.29-3.29s-3.29 1.485-3.29 3.29c0 .06.002.121.005.181v16.54c-.003.06-.005.121-.005.181 0 1.805 1.485 3.29 3.29 3.29s3.29-1.485 3.29-3.29c0-.06-.002-.121-.005-.181v-3.4z" fill="#231f20"/><path d="m100.29 254.86h3v4.14h-3zm3 7.39h-3v28.63h3z" fill="#231f20"/><path d="m120.82 290.88h-2.11l-.53-2.23c-.96 1.544-2.642 2.499-4.46 2.53-3 0-5.57-2.82-5.57-6.34v-16.54c0-3.53 2.52-6.34 5.57-6.34 1.565.034 3.034.769 4 2v-12.33l3-.35zm-3-22.58c.003-.06.005-.121.005-.181 0-1.805-1.485-3.29-3.29-3.29s-3.29 1.485-3.29 3.29c0 .06.002.121.005.181v16.54c-.003.06-.005.121-.005.181 0 1.805 1.485 3.29 3.29 3.29s3.29-1.485 3.29-3.29c0-.06-.002-.121-.005-.181z" fill="#231f20"/><path d="m60.81 403.68c.002.818-.33 1.603-.92 2.17-.574.591-1.366.92-2.19.91h-2.7c-.011-.001-.022-.002-.033-.002-.154 0-.28.126-.28.28 0 .014.001.028.003.042v12.58c.003.059.005.118.005.177 0 1.711-1.408 3.12-3.12 3.12s-3.12-1.409-3.12-3.12c0-.059.002-.118.005-.177v-12.58c.001-.011.002-.022.002-.033 0-.159-.131-.29-.29-.29-.014 0-.028.001-.042.003h-4.47c-.014-.002-.028-.003-.042-.003-.159 0-.29.131-.29.29 0 .011.001.022.002.033v12.58.05c0 1.684-1.385 3.07-3.07 3.07-.003 0-.007 0-.01 0-.836.021-1.646-.301-2.24-.89-.601-.583-.931-1.393-.91-2.23v-12.58c.002-.014.003-.029.003-.043 0-.154-.126-.28-.28-.28-.014 0-.029.001-.043.003h-2.73c-.824.01-1.616-.319-2.19-.91-.597-.562-.931-1.35-.92-2.17-.006-1.715 1.395-3.134 3.11-3.15h2.73c.014.002.029.003.043.003.154 0 .28-.126.28-.28 0-.014-.001-.029-.003-.043v-4.21c0-.25-.1-.38-.32-.38h-2.73c-1.642-.093-2.943-1.47-2.943-3.115s1.301-3.022 2.943-3.115h2.73c.22 0 .32-.13.32-.39v-12.61c-.006-.826.322-1.62.91-2.2.582-.611 1.396-.949 2.24-.93.821-.007 1.609.331 2.17.93.594.576.923 1.373.91 2.2v12.61c0 .26.11.39.33.39h4.43c.22 0 .33-.13.33-.39v-12.61c-.013-.827.316-1.624.91-2.2.561-.599 1.349-.937 2.17-.93.84-.016 1.65.321 2.23.93.597.574.93 1.371.92 2.2v12.61c0 .26.1.39.31.39h2.74c1.642.093 2.943 1.47 2.943 3.115s-1.301 3.022-2.943 3.115h-2.7c-.21 0-.31.13-.31.38v4.25c0 .22.1.32.31.32h2.7c1.715.016 3.116 1.435 3.11 3.15zm-12.39-3.47v-4.21c0-.25-.11-.38-.33-.38h-4.43c-.22 0-.33.13-.33.38v4.25c0 .22.11.32.33.32h4.43c.22-.04.33-.14.33-.36z" fill="#f6eb0f"/><path d="m63.73 410.33c.006.507-.201.993-.57 1.34-.352.368-.841.574-1.35.57h-11.5c-.509.004-.998-.202-1.35-.57-.369-.347-.576-.833-.57-1.34v-26.57c-.006-.507.201-.993.57-1.34.354-.365.841-.572 1.35-.572s.996.207 1.35.572c.369.347.576.833.57 1.34v24.41c0 .16.07.24.23.24h9.35c.506-.007.993.192 1.35.55.377.354.585.853.57 1.37z" fill="#231f20"/><path d="m83.36 405c-.011 4.019-3.321 7.32-7.34 7.32-.007 0-.013 0-.02 0h-.16c-4.019 0-7.329-3.301-7.34-7.32v-13.6c-.01-.509.189-1.001.55-1.36.744-.741 1.966-.741 2.71 0 .37.355.577.847.57 1.36v13.6c.011 1.929 1.591 3.514 3.52 3.53h.15c1.932-.011 3.519-1.598 3.53-3.53v-13.6c.005-1.051.869-1.915 1.92-1.92.514-.01 1.01.193 1.37.56.354.363.549.853.54 1.36z" fill="#231f20"/><path d="m102.14 408.45c-.63 1.175-1.571 2.154-2.72 2.83-1.14.676-2.445 1.022-3.77 1h-.16c-1.96.028-3.848-.749-5.22-2.15-1.401-1.336-2.187-3.194-2.17-5.13v-8.18c.011-4.05 3.34-7.379 7.39-7.39h.16c1.311-.015 2.602.331 3.73 1 1.139.675 2.078 1.642 2.72 2.8.157.288.236.612.23.94-.005 1.051-.869 1.915-1.92 1.92-.71.03-1.375-.363-1.69-1-.58-1.168-1.797-1.89-3.1-1.84h-.16c-1.944.011-3.536 1.616-3.53 3.56v8.19c.016 1.929 1.601 3.509 3.53 3.52h.16c1.312.043 2.531-.697 3.1-1.88.315-.637.98-1.03 1.69-1 .017 0 .034-.001.051-.001 1.069 0 1.95.881 1.95 1.95 0 .017-.001.034-.001.051-.025.287-.117.565-.27.81z" fill="#231f20"/><path d="m111.53 384.08c-.002 1.266-1.044 2.307-2.31 2.307-1.267 0-2.31-1.043-2.31-2.31 0-.619.249-1.213.69-1.647.432-.425 1.014-.663 1.62-.663 1.267 0 2.31 1.042 2.31 2.31zm-.39 26.24c.015.517-.193 1.016-.57 1.37-.745.73-1.955.73-2.7 0-.377-.354-.585-.853-.57-1.37v-18.92c0-1.053.867-1.92 1.92-1.92s1.92.867 1.92 1.92z" fill="#231f20"/><path d="m131 404.88v.02c0 4.027-3.313 7.34-7.34 7.34-.007 0-.013 0-.02 0h-.15c-4.039-.005-7.36-3.331-7.36-7.37 0-.003 0-.007 0-.01v-8c0-.007 0-.013 0-.02 0-4.038 3.322-7.36 7.36-7.36h.15c1.161-.007 2.305.275 3.33.82.13.08.19 0 .19-.12v-6.42c-.006-.507.201-.993.57-1.34.352-.368.841-.574 1.35-.57.517-.015 1.016.193 1.37.57.36.356.559.844.55 1.35zm-3.84 0v-8c0-.003 0-.007 0-.01 0-1.933-1.587-3.525-3.52-3.53h-.15c-1.933.005-3.52 1.597-3.52 3.53v.01 8 .01c0 1.933 1.587 3.525 3.52 3.53h.15c1.933-.005 3.52-1.597 3.52-3.53 0-.003 0-.007 0-.01z" fill="#231f20"/><path d="m403.85 416.33 1.65-12.46h-5.21v-3.75h5.78l1.21-9.21h-5.47v-3.75h6l1.69-12.16h3.69l-1.59 12.15h6.61l1.66-12.15h3.75l-1.62 12.16h5.21v3.75h-5.79l-1.14 9.21h5.47v3.75h-6l-1.65 12.46h-3.82l1.65-12.46h-6.61l-1.65 12.46zm12.65-16.21 1.2-9.21h-6.61l-1.2 9.21z" fill="#f6eb0f"/><path d="m419.86 382.59h3.4v23.51h11.27v2.9h-14.67z" fill="#231f20"/><path d="m453.46 403.79c0 2 0 3.68.16 5.17h-3.06l-.19-3.09h-.08c-1.3 2.211-3.695 3.558-6.26 3.52-3 0-6.53-1.64-6.53-8.3v-11.09h3.44v10.49c0 3.6 1.09 6 4.22 6 2.668-.005 4.86-2.202 4.86-4.87 0-.007 0-.013 0-.02v-11.6h3.44z" fill="#231f20"/><path d="m472.66 408.25c-1.706.765-3.561 1.141-5.43 1.1-5.72 0-9.43-3.87-9.43-9.66s4-10.06 10.17-10.06c1.643-.011 3.27.33 4.77 1l-.78 2.66c-1.232-.642-2.611-.953-4-.9-4.34 0-6.69 3.21-6.69 7.16 0 4.38 2.82 7.08 6.57 7.08 1.462.006 2.908-.315 4.23-.94z" fill="#231f20"/><path d="m480.53 384.7c-.076 1.116-1.016 1.994-2.135 1.994s-2.059-.878-2.135-1.994c0-.017-.001-.034-.001-.051 0-1.152.948-2.1 2.1-2.1.017 0 .034.001.051.001.024-.001.048-.001.073-.001 1.124 0 2.05.925 2.05 2.05 0 .033-.001.067-.003.101zm-3.84 24.3v-19h3.44v19z" fill="#231f20"/><path d="m502.2 381.18v22.89c0 1.68 0 3.6.16 4.89h-3.1l-.15-3.29h-.11c-1.257 2.375-3.775 3.825-6.46 3.72-4.57 0-8.09-3.88-8.09-9.63 0-6.3 3.87-10.17 8.49-10.17 2.285-.138 4.474.973 5.71 2.9h.08v-11.31zm-3.44 16.55c.006-.488-.048-.975-.16-1.45-.505-2.341-2.605-4.021-5-4-3.56 0-5.67 3.13-5.67 7.32 0 3.83 1.88 7 5.59 7 2.434-.005 4.551-1.728 5.05-4.11.116-.484.17-.982.16-1.48z" fill="#231f20"/><path d="m765.23 389.51v-3.71h38v3.71zm0 17.43v-3.71h38v3.71zm8.43-29.58h3.71v38h-3.71zm17.43 0h3.72v38h-3.72z" fill="#f6eb0f"/><path d="m818.39 411.77v1.77h-13.28v-36.36h1.77v34.59z" fill="#231f20"/><path d="m834.42 387v26.51h-1.77v-2.2c-.683.751-1.505 1.362-2.42 1.8-.937.447-1.962.676-3 .67-.013 0-.027 0-.04 0-3.928 0-7.16-3.232-7.16-7.16 0-.013 0-.027 0-.04v-19.58h1.77v19.58c0 2.176 1.307 4.151 3.31 5 1.358.573 2.892.573 4.25 0 .643-.273 1.227-.666 1.72-1.16.49-.496.884-1.079 1.16-1.72.285-.67.431-1.392.43-2.12v-19.58z" fill="#231f20"/><path d="m845.39 412c.732.006 1.458-.14 2.13-.43.643-.273 1.227-.666 1.72-1.16.49-.496.884-1.079 1.16-1.72.285-.67.431-1.392.43-2.12h1.77c.005.968-.186 1.927-.56 2.82-.732 1.718-2.102 3.088-3.82 3.82-.889.377-1.844.572-2.81.572-3.944 0-7.19-3.246-7.19-7.19 0-.007 0-.015 0-.022v-12.57c.024-3.955 3.284-7.197 7.24-7.197.947 0 1.885.186 2.76.547 1.718.732 3.088 2.102 3.82 3.82.375.896.566 1.859.56 2.83h-1.77c.002-.732-.144-1.456-.43-2.13-.55-1.297-1.583-2.33-2.88-2.88-1.358-.573-2.892-.573-4.25 0-.641.276-1.224.67-1.72 1.16-.494.493-.887 1.077-1.16 1.72-.277.675-.41 1.401-.39 2.13v12.64c-.006.729.14 1.451.43 2.12.55 1.297 1.583 2.33 2.88 2.88.662.26 1.369.383 2.08.36z" fill="#231f20"/><path d="m856.42 386.6h3.58v26.57h-1.8v-24.74h-1.78zm2.21-6.13c-.017.001-.034.001-.051.001-.713 0-1.3-.587-1.3-1.3 0-.017 0-.034.001-.051-.019-.372.119-.735.38-1 .265-.261.629-.395 1-.37.349-.003.686.13.94.37.275.257.422.624.4 1 .024.376-.123.744-.4 1-.265.239-.613.365-.97.35z" fill="#231f20"/><path d="m878.15 375v38.56h-1.78v-2.2c-.681.753-1.503 1.365-2.42 1.8-.936.449-1.962.678-3 .67-2.89.02-5.52-1.715-6.64-4.38-.383-.89-.577-1.851-.57-2.82v-12.63c-.009-.973.185-1.937.57-2.83 1.122-2.663 3.75-4.397 6.64-4.38 1.035-.009 2.059.21 3 .64.931.426 1.757 1.05 2.42 1.83v-14.26zm-7.21 37c.732.006 1.458-.14 2.13-.43.641-.275 1.225-.669 1.72-1.16.49-.494.881-1.078 1.15-1.72.29-.669.436-1.391.43-2.12v-12.57c.007-.732-.139-1.458-.43-2.13-.269-.642-.66-1.226-1.15-1.72-.498-.488-1.081-.881-1.72-1.16-2.746-1.164-5.963.135-7.13 2.88-.291.672-.437 1.398-.43 2.13v12.64c-.006.729.14 1.451.43 2.12.273.643.666 1.227 1.16 1.72.492.496 1.076.89 1.72 1.16.674.266 1.396.388 2.12.36z" fill="#231f20"/><path d="m128.89 558.43h-97.95v-98.74h97.95zm-88.28-89.85v80.63h78.72v-80.63zm59.83 45.65h-9l2.25-11.58h9.78v-8.55h-8.32l1.57-8.77-6.72-1.68-1.93 10.45h-11.48l1.92-10h-7.09l-1.8 10h-11.92l1.35 8.55h9.11l-2.16 11.58h-9.87v8.44h8.32l-1.58 8.88 6.75 1.58 1.91-10.46h11.36l-1.89 10.12h7.2l1.8-10.12h11.81zm-27.44.12 2.13-11.92h11.36l-2 11.92z" fill="#f6eb0f"/><path d="m82 522.83c.15 0 .22.06.22.17s-.07.16-.22.16h-16.78v-.06c0-.06-.11 0-.11-.05v-39.32c.03-.029.069-.047.11-.05v-.06h2.78c.06-.005.118.017.16.06v39.15z" fill="#231f20"/><path d="m102.5 500.4c.14 0 .21.06.21.17v14c.104 1.745-.367 3.478-1.34 4.93-.796 1.064-1.821 1.936-3 2.55-.912.487-1.905.805-2.93.94l-1.37.14c-1.139.009-2.267-.223-3.31-.68-1.01-.435-1.932-1.052-2.72-1.82-1.62-1.599-2.533-3.784-2.53-6.06v-14c.028-.033.067-.055.11-.06v-.11h2.85c.071 0 .135.044.16.11v16.84c-.004.72.135 1.434.41 2.1.267.638.65 1.222 1.13 1.72.487.501 1.059.911 1.69 1.21.659.3 1.376.454 2.1.45h.48c.22 0 .52-.07.92-.14l1.34-.27c.546-.119 1.072-.318 1.56-.59.532-.272 1.029-.608 1.48-1 .498-.438.941-.935 1.32-1.48.412-.616.729-1.29.94-2 .247-.885.365-1.801.35-2.72v-14c.04-.17.07-.23.15-.23z" fill="#231f20"/><path d="m125.84 514.39c.07 0 .11.07.11.21 0 .43-.09.88-.16 1.35s-.17.84-.3 1.34c-.14.544-.348 1.068-.62 1.56-1.358 2.811-4.305 4.523-7.42 4.31h-.54c-.231-.045-.465-.065-.7-.06h-.11c-.13-.075-.28-.11-.43-.1-.053.012-.107.012-.16 0-.052-.014-.108-.014-.16 0h-.16c-1.283-.249-2.512-.723-3.63-1.4-1.106-.656-2.088-1.503-2.9-2.5-.818-.996-1.463-2.121-1.91-3.33-.469-1.246-.707-2.568-.7-3.9-.015-1.365.222-2.721.7-4 .449-1.208 1.094-2.333 1.91-3.33.81-.994 1.792-1.834 2.9-2.48 1.129-.658 2.354-1.137 3.63-1.42h.16c.052.014.108.014.16 0h.16c.073.01.147.01.22 0 .07-.01.14-.01.21 0 .138-.001.276-.017.41-.05.129-.041.264-.061.4-.06h.54c.937-.013 1.871.116 2.77.38.754.223 1.469.56 2.12 1 1.102.719 1.979 1.735 2.53 2.93.264.513.472 1.053.62 1.61.13.5.22.95.3 1.35s.12.89.16 1.29c.004.408-.15.803-.43 1.1-.279.299-.671.466-1.08.46-.425.014-.836-.154-1.13-.46-.284-.295-.439-.691-.43-1.1-.009-.412.146-.811.43-1.11.295-.304.707-.468 1.13-.45.439-.012.858.185 1.13.53v-.26c-.07-.36-.18-.79-.32-1.29-.155-.528-.373-1.035-.65-1.51-.566-1.116-1.385-2.085-2.39-2.83-1.405-.93-3.078-1.373-4.76-1.26h-.45c-1.636.042-3.217.607-4.51 1.61-1.261.965-2.216 2.274-2.75 3.77-.225.522-.37 1.075-.43 1.64 0 .48-.07.83-.1 1.05v6.24c0 .22 0 .48.08.81.071.553.216 1.095.43 1.61.498 1.49 1.449 2.787 2.72 3.71 1.32.976 2.901 1.536 4.54 1.61h.49c.916.02 1.829-.098 2.71-.35.713-.203 1.389-.52 2-.94.548-.363 1.038-.808 1.45-1.32.4-.464.736-.978 1-1.53.274-.47.482-.974.62-1.5.13-.51.22-1 .3-1.35s.12-.84.16-1.24c-.03-.27.02-.34.13-.34z" fill="#231f20"/><path d="m130.9 495.13c-.416.008-.817-.155-1.11-.45-.296-.293-.462-.693-.46-1.11.065-.812.751-1.445 1.565-1.445s1.5.633 1.565 1.445c.002.417-.164.817-.46 1.11-.29.293-.688.456-1.1.45zm1.56 5.38v22.59c-.045.043-.107.065-.17.06h-2.79c-.004.001-.007.001-.011.001-.028 0-.05-.022-.05-.05 0-.004 0-.007.001-.011-.07 0-.11 0-.11-.05v-22.48c.028-.033.067-.055.11-.06v-.11h2.85c.074-.002.141.042.17.11z" fill="#231f20"/><path d="m158.54 511.81v11.29l-.06.06h-2.85c-.057-.008-.112-.029-.16-.06v-6.34c-.184.727-.456 1.429-.81 2.09-1.354 2.815-4.304 4.529-7.42 4.31h-.54c-.123.011-.247.011-.37 0h-.43c-.131-.074-.28-.109-.43-.1-.052.014-.108.014-.16 0-.056-.013-.114-.013-.17 0h-.16c-2.561-.506-4.87-1.885-6.53-3.9-.818-.996-1.463-2.121-1.91-3.33-.469-1.246-.707-2.568-.7-3.9-.012-1.5.291-2.985.89-4.36.574-1.334 1.384-2.553 2.39-3.6 2.05-2.185 4.886-3.469 7.88-3.57h.37c1.549.064 3.073.421 4.49 1.05 1.352.606 2.569 1.477 3.58 2.56v-20.33c.048-.031.103-.052.16-.06h2.85l.06.06v.05zm-3.12 2.79v-5.6c.012-1.1-.206-2.19-.64-3.2-.829-1.959-2.396-3.515-4.36-4.33-2.065-.866-4.395-.866-6.46 0-.976.413-1.868 1.003-2.63 1.74-.757.746-1.362 1.632-1.78 2.61-.428 1.005-.646 2.087-.64 3.18v6.18c0 .22 0 .47.08.76.066.554.211 1.096.43 1.61.49 1.491 1.439 2.789 2.71 3.71 1.323.976 2.907 1.536 4.55 1.61h.48c.919.02 1.836-.098 2.72-.35.712-.207 1.386-.524 2-.94.544-.368 1.033-.813 1.45-1.32.393-.469.728-.982 1-1.53.428-.826.725-1.713.88-2.63.15-.87.21-1.35.21-1.5z" fill="#231f20"/><path d="m1146.5 379.11 1-4.27 43.76 10.56-1 4.28zm-4.85 20.07 1-4.27 43.77 10.56-1 4.27zm17.94-31.71 4.27 1-10.57 43.76-4.27-1zm20.06 4.85 4.27 1-10.56 43.76-4.27-1z" fill="#f6eb0f"/><path d="m1182.7 407.69v1.78h-13.28v-36.36h1.77v34.58z" fill="#231f20"/><path d="m1198.73 383v26.52h-1.73v-2.21c-.68.757-1.5 1.372-2.42 1.81-1.84.856-3.97.893-5.84.1-.85-.353-1.63-.873-2.28-1.53-1.36-1.351-2.12-3.194-2.1-5.11v-19.58h1.77v19.58c0 .732.15 1.456.43 2.13.28.639.67 1.222 1.16 1.72.49.49 1.08.881 1.72 1.15 1.36.573 2.89.573 4.25 0 .64-.269 1.23-.66 1.72-1.15.49-.498.88-1.081 1.16-1.72.28-.674.43-1.398.43-2.13v-19.58z" fill="#231f20"/><path d="m1209.71 408c.73.006 1.45-.14 2.12-.43.64-.269 1.23-.66 1.72-1.15.49-.498.88-1.081 1.16-1.72.28-.674.43-1.398.43-2.13h1.77c.02 1.916-.74 3.759-2.1 5.11-.65.657-1.43 1.177-2.28 1.53-1.81.759-3.84.759-5.65 0-.85-.353-1.63-.873-2.28-1.53-1.36-1.351-2.12-3.194-2.1-5.11v-12.68c-.01-1.915.75-3.757 2.1-5.11 2.81-2.784 7.4-2.784 10.21 0 1.35 1.353 2.11 3.195 2.1 5.11h-1.77c0-.728-.14-1.45-.43-2.12-.55-1.297-1.58-2.33-2.88-2.88-1.36-.573-2.89-.573-4.25 0-.64.273-1.23.666-1.72 1.16-.5.492-.89 1.076-1.16 1.72-.29.67-.43 1.392-.43 2.12v12.64c0 .732.15 1.456.43 2.13.28.641.67 1.225 1.16 1.72.49.49 1.08.881 1.72 1.15.67.305 1.4.465 2.13.47z" fill="#231f20"/><path d="m1220.73 382.52h3.55v26.57h-1.77v-24.74h-1.78zm2.21-6.13c-.37.027-.74-.112-1-.38-.26-.254-.4-.6-.4-.961 0-.741.61-1.35 1.35-1.35.01 0 .03 0 .05.001.35.001.69.137.94.38.26.255.4.603.4.965s-.14.71-.4.965c-.25.248-.59.385-.94.38z" fill="#231f20"/><path d="m1242.46 370.9v38.57h-1.77v-2.21c-.68.757-1.51 1.372-2.43 1.81-.94.443-1.96.672-3 .67-1.91 0-3.75-.755-5.11-2.1-.65-.657-1.17-1.431-1.53-2.28-.38-.894-.57-1.858-.56-2.83v-12.64c-.01-.969.18-1.929.56-2.82.36-.852.88-1.629 1.53-2.29.66-.652 1.44-1.171 2.29-1.53 1.87-.786 3.98-.757 5.83.08.93.428 1.76 1.052 2.43 1.83v-14.26zm-7.21 37.1c.73.006 1.46-.14 2.13-.43 1.3-.539 2.33-1.572 2.87-2.87.29-.672.44-1.397.44-2.13v-12.68c0-.73-.15-1.452-.44-2.12-.27-.643-.66-1.228-1.15-1.72-.49-.491-1.08-.885-1.72-1.16-1.36-.573-2.89-.573-4.25 0-1.3.55-2.33 1.583-2.88 2.88-.29.669-.44 1.391-.43 2.12v12.64c0 .732.14 1.457.43 2.13.28.641.67 1.225 1.16 1.72.49.493 1.08.883 1.72 1.15.67.304 1.39.464 2.12.47z" fill="#231f20"/><path d="m314.84 297.67h-13.2v-12.32h14.82l2.64-17.9h-13.21v-12.32h14.82l4.4-30.66h12.89l-4.4 30.66h15.11l4.4-30.66h12.76l-4.4 30.66h13.2v12.32h-15l-2.49 17.9h13.2v12.32h-14.61l-4.55 30.66h-12.76l4.4-30.66h-15.26l-4.4 30.66h-12.76zm17-30.22-2.49 17.9h15.1l2.5-17.9z" fill="#f6eb0f"/><path d="m351.24 290.53v3.05h-12.61v-39.58h3.05v36.55z" fill="#231f20"/><path d="m367.44 265v28.63h-2.11l-.53-2.23c-.962 1.542-2.643 2.495-4.46 2.53-3 0-5.57-2.82-5.57-6.34v-22.59h3.05v22.59c-.003.06-.005.121-.005.181 0 1.805 1.485 3.29 3.29 3.29s3.29-1.485 3.29-3.29c0-.06-.002-.121-.005-.181v-22.59z" fill="#231f20"/><path d="m384.81 284.14v3.4c0 3.478-2.862 6.34-6.34 6.34s-6.34-2.862-6.34-6.34v-16.54c0-3.478 2.862-6.34 6.34-6.34s6.34 2.862 6.34 6.34v3.34l-3.05.35v-3.69c0-1.805-1.485-3.29-3.29-3.29s-3.29 1.485-3.29 3.29v16.54c0 1.805 1.485 3.29 3.29 3.29s3.29-1.485 3.29-3.29v-3.4z" fill="#231f20"/><path d="m389.09 257.56h3.05v4.11h-3.05zm3.05 7.39h-3.05v28.63h3.05z" fill="#231f20"/><path d="m409.62 293.58h-2.11l-.53-2.23c-.958 1.541-2.636 2.495-4.45 2.53-3.06 0-5.58-2.82-5.58-6.34v-16.54c0-3.52 2.52-6.34 5.58-6.34 1.565.031 3.036.767 4 2v-12.33l3.05-.35zm-3.05-22.58c.003-.06.005-.121.005-.181 0-1.805-1.485-3.29-3.29-3.29s-3.29 1.485-3.29 3.29c0 .06.002.121.005.181v16.54c-.003.06-.005.121-.005.181 0 1.805 1.485 3.29 3.29 3.29s3.29-1.485 3.29-3.29c0-.06-.002-.121-.005-.181z" fill="#231f20"/><path d="m625 263.76v17.16h14.81v6.6h-14.81v28.6l-6.6.88v-29.48h-17.16v28.6l-6.6.88v-29.48h-15.11v-6.6h15.11v-17.16h-15.11v-6.6h15.11v-28.61l6.6-.88v29.49h17.16v-28.61l6.6-.88v29.49h14.81v6.6zm-23.76 17.16h17.16v-17.16h-17.16z" fill="#f6eb0f"/><path d="m632.86 282.94v3.06h-12.61v-39.6h3v36.55z" fill="#231f20"/><path d="m649.06 257.36v28.64h-2.06l-.53-2.23c-.962 1.542-2.643 2.495-4.46 2.53-3.05 0-5.58-2.82-5.58-6.34v-22.6h3.06v22.64c-.003.06-.005.121-.005.181 0 1.805 1.485 3.29 3.29 3.29s3.29-1.485 3.29-3.29c0-.06-.002-.121-.005-.181v-22.64z" fill="#231f20"/><path d="m666.43 276.55v3.45c0 3.478-2.862 6.34-6.34 6.34s-6.34-2.862-6.34-6.34v-16.59c0-3.478 2.862-6.34 6.34-6.34s6.34 2.862 6.34 6.34v3.34l-3.06.35v-3.69c.003-.06.005-.121.005-.181 0-1.805-1.485-3.29-3.29-3.29s-3.29 1.485-3.29 3.29c0 .06.002.121.005.181v16.59c-.003.06-.005.121-.005.181 0 1.805 1.485 3.29 3.29 3.29s3.29-1.485 3.29-3.29c0-.06-.002-.121-.005-.181v-3.4z" fill="#231f20"/><path d="m670.71 250h3v4.11h-3zm3 7.39h-3v28.61h3z" fill="#231f20"/><path d="m691.24 286h-2.11l-.53-2.23c-.96 1.544-2.642 2.499-4.46 2.53-3 0-5.57-2.82-5.57-6.34v-16.55c0-3.52 2.52-6.34 5.57-6.34 1.582.018 3.074.754 4.05 2v-12.33l3-.35zm-3-22.58c.003-.06.005-.121.005-.181 0-1.805-1.485-3.29-3.29-3.29s-3.29 1.485-3.29 3.29c0 .06.002.121.005.181v16.58c-.003.06-.005.121-.005.181 0 1.805 1.485 3.29 3.29 3.29s3.29-1.485 3.29-3.29c0-.06-.002-.121-.005-.181z" fill="#231f20"/><path d="m899.64 275.88-3.42 10.32 8.9 2.95-1.32 4-8.9-3-5.71 17.19-4.15-.79 5.89-17.71-10.32-3.43-5.71 17.19-4.14-.79 5.89-17.72-9.08-3 1.32-4 9.08 3 3.42-10.31-9.08-3 1.32-4 9.08 3 5.71-17.19 4.14.79-5.88 17.72 10.32 3.5 5.71-17.19 4.15.79-5.86 17.72 8.9 2.95-1.32 4zm-17.71 5.57 10.32 3.43 3.42-10.32-10.31-3.42z" fill="#f6eb0f"/><path d="m904.33 292.68v3.05h-12.62v-39.61h3.06v36.56z" fill="#231f20"/><path d="m920.52 267.1v28.63h-2.11l-.53-2.23c-.965 1.538-2.645 2.487-4.46 2.52-3 0-5.57-2.82-5.57-6.34v-22.58h3v22.58c-.003.06-.005.121-.005.181 0 1.805 1.485 3.29 3.29 3.29s3.29-1.485 3.29-3.29c0-.06-.002-.121-.005-.181v-22.58z" fill="#231f20"/><path d="m937.89 286.28v3.4c.003.084.005.168.005.252 0 3.478-2.862 6.34-6.34 6.34s-6.34-2.862-6.34-6.34c0-.084.002-.168.005-.252v-16.54c-.003-.084-.005-.168-.005-.252 0-3.478 2.862-6.34 6.34-6.34s6.34 2.862 6.34 6.34c0 .084-.002.168-.005.252v3.34l-3 .35v-3.69c.003-.06.005-.121.005-.181 0-1.805-1.485-3.29-3.29-3.29s-3.29 1.485-3.29 3.29c0 .06.002.121.005.181v16.54c-.003.06-.005.121-.005.181 0 1.805 1.485 3.29 3.29 3.29s3.29-1.485 3.29-3.29c0-.06-.002-.121-.005-.181v-3.4z" fill="#231f20"/><path d="m942.17 259.7h3.05v4.11h-3.05zm3.05 7.4h-3.05v28.63h3.05z" fill="#231f20"/><path d="m962.71 295.73h-2.11l-.53-2.23c-.966 1.536-2.645 2.485-4.46 2.52-3.05 0-5.57-2.82-5.57-6.34v-16.54c0-3.52 2.52-6.34 5.57-6.34 1.565.034 3.034.769 4 2v-12.32l3.05-.36zm-3.05-22.59c.003-.06.005-.121.005-.181 0-1.805-1.485-3.29-3.29-3.29s-3.29 1.485-3.29 3.29c0 .06.002.121.005.181v16.54c-.003.06-.005.121-.005.181 0 1.805 1.485 3.29 3.29 3.29s3.29-1.485 3.29-3.29c0-.06-.002-.121-.005-.181z" fill="#231f20"/><path d="m1179.4 270.48-3.4 10.32 8.9 2.95-1.32 4-8.9-3-5.74 17.25-4.14-.8 5.88-17.71-10.31-3.49-5.71 17.19-4.14-.79 5.88-17.72-9.08-3 1.32-4 9.08 3 3.43-10.31-9.08-3 1.32-4 9.08 3 5.71-17.18 4.14.78-5.89 17.72 10.32 3.43 5.71-17.19 4.14.79-5.89 17.72 8.9 3-1.31 4zm-17.71 5.57 10.31 3.43 3.43-10.31-10.32-3.43z" fill="#f6eb0f"/><path d="m1184.08 287.28v3.05h-12.61v-39.6h3v36.55z" fill="#231f20"/><path d="m1200.27 261.7v28.63h-2.11l-.53-2.23c-.97 1.538-2.64 2.487-4.46 2.52-3.05 0-5.57-2.81-5.57-6.34v-22.58h3.05v22.58c0 .06-.01.121-.01.181 0 1.805 1.49 3.29 3.29 3.29 1.81 0 3.3-1.485 3.3-3.29 0-.06-.01-.121-.01-.181v-22.58z" fill="#231f20"/><path d="m1217.64 280.88v3.4.252c0 3.478-2.86 6.34-6.33 6.34-3.48 0-6.35-2.862-6.35-6.34 0-.084.01-.168.01-.252v-16.54c0-.084-.01-.168-.01-.252 0-3.478 2.87-6.34 6.35-6.34 3.47 0 6.33 2.862 6.33 6.34v.252 3.34l-3.05.36v-3.7c0-.06.01-.121.01-.181 0-1.805-1.49-3.29-3.29-3.29-1.81 0-3.29 1.485-3.29 3.29v.181 16.54.181c0 1.805 1.48 3.29 3.29 3.29 1.8 0 3.29-1.485 3.29-3.29 0-.06-.01-.121-.01-.181v-3.4z" fill="#231f20"/><path d="m1221.93 254.3h3v4.11h-3zm3 7.4h-3v28.63h3z" fill="#231f20"/><path d="m1242.46 290.33h-2.11l-.53-2.23c-.97 1.536-2.65 2.485-4.46 2.52-3 0-5.57-2.81-5.57-6.34v-16.54c0-3.52 2.52-6.34 5.57-6.34 1.58.019 3.07.755 4.05 2v-12.32l3-.35zm-3-22.59c0-.06 0-.121 0-.181 0-1.805-1.48-3.29-3.29-3.29-1.8 0-3.29 1.485-3.29 3.29 0 .06.01.121.01.181v16.54c0 .06-.01.121-.01.181 0 1.805 1.49 3.29 3.29 3.29 1.81 0 3.29-1.485 3.29-3.29 0-.06 0-.121 0-.181z" fill="#231f20"/><path d="m874.72 156.32h-5.72v-5.32h6.42l1.15-7.76h-5.72v-5.34h6.42l1.9-13.28h5.6l-1.91 13.28h6.55l1.9-13.28h5.53l-1.9 13.28h5.72v5.34h-6.49l-1.08 7.76h5.73v5.34h-6.36l-2 13.28h-5.46l1.91-13.28h-6.62l-1.9 13.28h-5.53zm7.38-13.1-1.1 7.78h6.54l1.09-7.76z" fill="#f6eb0f"/><path d="m887.63 133.88h5.37v19.31h9.89v4.93h-15.26z" fill="#231f20"/><path d="m919.94 158.12h-4.94v-2.26c-.201.357-.439.692-.71 1-.289.331-.626.618-1 .85-.439.264-.909.472-1.4.62-.558.164-1.138.245-1.72.24-1.085.042-2.166-.164-3.16-.6-.772-.363-1.424-.939-1.88-1.66-.471-.761-.774-1.613-.89-2.5-.157-1.029-.234-2.069-.23-3.11v-9.18h5.14v8.15c0 .48 0 1 .05 1.49.027.487.132.966.31 1.42.158.418.428.784.78 1.06.452.298.989.442 1.53.41.559.024 1.115-.1 1.61-.36.401-.238.727-.585.94-1 .22-.422.366-.879.43-1.35.064-.521.098-1.045.1-1.57v-8.29h5.13z" fill="#231f20"/><path d="m933.6 146.86c-.273-.386-.637-.698-1.06-.91-.453-.238-.958-.362-1.47-.36-1.118-.05-2.207.371-3 1.16-1.433 1.772-1.433 4.328 0 6.1.793.789 1.882 1.21 3 1.16.516.013 1.025-.119 1.47-.38.398-.238.756-.539 1.06-.89l3.4 3.56c-.776.813-1.752 1.41-2.83 1.73-2.187.706-4.549.664-6.71-.12-1.086-.388-2.085-.986-2.94-1.76-.85-.772-1.531-1.712-2-2.76-.946-2.299-.946-4.881 0-7.18.469-1.048 1.15-1.988 2-2.76.855-.774 1.854-1.372 2.94-1.76 2.161-.784 4.523-.826 6.71-.12 1.076.324 2.051.92 2.83 1.73z" fill="#231f20"/><path d="m937.26 136.25c0-1.646 1.354-3 3-3 .792-.011 1.555.304 2.11.87 1.143 1.16 1.143 3.05 0 4.21-.555.566-1.318.881-2.11.87-.79.013-1.551-.303-2.1-.87-.576-.537-.903-1.292-.9-2.08zm.41 5.23h5.14v16.64h-5.14z" fill="#231f20"/><path d="m962.73 158.12h-4.73v-2.19h-.06c-.239.327-.51.628-.81.9-.352.325-.741.607-1.16.84-.466.259-.959.466-1.47.62-.539.16-1.098.241-1.66.24-1.152.018-2.295-.2-3.36-.64-.975-.403-1.854-1.006-2.58-1.77-.731-.789-1.296-1.718-1.66-2.73-.398-1.106-.594-2.275-.58-3.45-.009-1.135.17-2.264.53-3.34.329-1.021.837-1.976 1.5-2.82.643-.827 1.455-1.509 2.38-2 .984-.502 2.076-.756 3.18-.74 1.021-.008 2.037.161 3 .5.912.322 1.706.911 2.28 1.69h.06v-11h5.14zm-4.73-8.32c.051-1.116-.332-2.21-1.07-3.05-1.716-1.538-4.344-1.538-6.06 0-1.433 1.772-1.433 4.328 0 6.1 1.716 1.538 4.344 1.538 6.06 0 .739-.839 1.124-1.933 1.07-3.05z" fill="#231f20"/><path d="m471.67 558.84h-97.95v-98.74h97.95zm-88.28-89.84v80.63h78.72v-80.63zm59.83 45.65h-9l2.25-11.58h9.79v-8.55h-8.33l1.58-8.77-6.75-1.69-1.91 10.46h-11.47l1.91-10h-7.08l-1.8 10h-11.92l1.34 8.55h9.11l-2.13 11.58h-9.9v8.44h8.32l-1.57 8.91 6.75 1.58 1.91-10.46h11.36l-1.92 10.12h7.24l1.8-10.12h11.81zm-27.44.11 2.14-11.91h11.36l-2 11.91z" fill="#f6eb0f"/></g><path d="m374.86 460.1h96.04v96.04h-96.04z" fill="#f6eb0f"/><path d="m448.63 525.07c.14 0 .21.06.21.17s-.07.16-.21.16h-16.78c-.004.001-.007.001-.011.001-.028 0-.05-.022-.05-.05 0-.004 0-.007.001-.011-.07 0-.11 0-.11-.05v-39.29c.031-.027.069-.044.11-.05l.06-.06h2.79c.06-.005.118.017.16.06v39.15z" fill="#231f20" fill-rule="nonzero"/><path d="m469.12 502.64c.14 0 .21.06.21.17v14c.109 1.743-.363 3.473-1.34 4.92-.793 1.067-1.819 1.939-3 2.55-.912.488-1.904.807-2.93.94l-1.37.14c-1.139.008-2.267-.224-3.31-.68-1.01-.435-1.932-1.052-2.72-1.82-.787-.779-1.415-1.702-1.85-2.72-.451-1.052-.679-2.186-.67-3.33v-14c.023-.034.06-.055.1-.06v-.11h2.86c.07.002.133.045.16.11v16.84c-.007.72.129 1.434.4 2.1.27.637.653 1.219 1.13 1.72.487.501 1.059.911 1.69 1.21.659.3 1.376.454 2.1.45h.49c.21 0 .51-.07.91-.14l1.34-.27c.547-.116 1.073-.315 1.56-.59.534-.27 1.031-.606 1.48-1 .503-.433.947-.931 1.32-1.48.414-.615.731-1.289.94-2 .251-.881.369-1.794.35-2.71v-14c.03-.18.08-.24.15-.24z" fill="#231f20" fill-rule="nonzero"/><path d="m492.46 516.63c.07 0 .11.07.11.22 0 .43-.09.87-.16 1.34s-.17.84-.3 1.35c-.138.542-.346 1.063-.62 1.55-1.354 2.815-4.304 4.529-7.42 4.31h-.54c-.231-.045-.465-.065-.7-.06h-.1c-.131-.074-.28-.109-.43-.1-.052.014-.108.014-.16 0-.056-.013-.114-.013-.17 0h-.16c-1.283-.249-2.512-.723-3.63-1.4-1.106-.656-2.088-1.503-2.9-2.5-.82-.994-1.466-2.12-1.91-3.33-.933-2.533-.933-5.317 0-7.85.446-1.212 1.092-2.341 1.91-3.34.808-.994 1.791-1.831 2.9-2.47 1.127-.665 2.352-1.148 3.63-1.43h.19c.056.013.114.013.17 0h.16c.07.01.14.01.21 0 .073-.01.147-.01.22 0 .135-.001.269-.018.4-.05.13-.04.264-.06.4-.06h.54c.937-.013 1.871.116 2.77.38.755.227 1.473.564 2.13 1 .575.379 1.09.841 1.53 1.37.398.475.734 1 1 1.56.268.511.476 1.051.62 1.61.127.5.227.95.3 1.35.07.46.12.89.16 1.29.011.409-.144.806-.43 1.1-.276.303-.67.471-1.08.46-.425.016-.837-.151-1.13-.46-.571-.618-.571-1.582 0-2.2.293-.309.705-.476 1.13-.46.442-.014.864.187 1.13.54v-.27c-.07-.36-.18-.79-.32-1.29-.151-.527-.366-1.034-.64-1.51-.568-1.115-1.391-2.081-2.4-2.82-1.402-.938-3.077-1.385-4.76-1.27h-.48c-1.639.042-3.223.606-4.52 1.61-1.261.963-2.214 2.273-2.74 3.77-.235.519-.38 1.073-.43 1.64 0 .49-.08.84-.11 1v6.24c0 .21 0 .48.08.81.061.555.206 1.098.43 1.61.488 1.492 1.437 2.791 2.71 3.71 1.323.976 2.907 1.536 4.55 1.61h.48c.919.02 1.836-.098 2.72-.35.712-.207 1.386-.524 2-.94.544-.368 1.033-.813 1.45-1.32.393-.469.728-.982 1-1.53.271-.47.476-.974.61-1.5.133-.5.233-.95.3-1.35.07-.43.13-.84.16-1.23-.02-.27.04-.34.14-.34z" fill="#231f20" fill-rule="nonzero"/><path d="m497.52 497.38c-.857-.005-1.56-.712-1.56-1.57-.006-.415.16-.813.46-1.1.291-.293.687-.458 1.1-.458s.809.165 1.1.458c.296.289.462.686.46 1.1.002.417-.164.817-.46 1.11-.288.298-.686.464-1.1.46zm1.56 5.37v22.59c-.042.042-.101.064-.16.06h-2.8s-.05 0-.05-.06-.11 0-.11-.05v-22.48c.025-.036.066-.058.11-.06v-.11h2.85c.07.002.133.045.16.11z" fill="#231f20" fill-rule="nonzero"/><path d="m525.16 514.05v11.29l-.05.06h-2.85c-.06-.008-.118-.028-.17-.06v-6.34c-.185.725-.453 1.427-.8 2.09-.584 1.193-1.453 2.223-2.53 3-1.437.974-3.156 1.449-4.89 1.35h-.54c-.126.012-.254.012-.38 0-.106-.01-.214-.01-.32 0h-.11c-.131-.074-.28-.109-.43-.1-.052.014-.108.014-.16 0-.053-.012-.107-.012-.16 0h-.16c-1.284-.247-2.513-.721-3.63-1.4-1.107-.659-2.092-1.505-2.91-2.5-.816-.997-1.462-2.122-1.91-3.33-.465-1.248-.702-2.569-.7-3.9-.007-1.499.296-2.984.89-4.36.574-1.334 1.384-2.553 2.39-3.6 2.078-2.148 4.923-3.388 7.91-3.45h.35c1.549.065 3.072.421 4.49 1.05 1.349.606 2.563 1.477 3.57 2.56v-20.49c.052-.032.11-.052.17-.06h2.85l.05.06v.05zm-3.12 2.8v-5.65c.012-1.1-.206-2.19-.64-3.2-.411-.965-1.006-1.841-1.75-2.58-2.383-2.358-5.97-3.051-9.06-1.75-.983.41-1.879 1.004-2.64 1.75-1.547 1.525-2.419 3.608-2.42 5.78v6.18c0 .22 0 .47.08.76.066.554.211 1.096.43 1.61.492 1.493 1.444 2.792 2.72 3.71 1.319.977 2.9 1.538 4.54 1.61h.49c.916.019 1.829-.099 2.71-.35.712-.207 1.386-.524 2-.94.546-.365 1.035-.81 1.45-1.32.396-.466.732-.98 1-1.53.427-.827.727-1.714.89-2.63.16-.83.16-1.3.16-1.45z" fill="#231f20" fill-rule="nonzero"/><path d="m819 555.4h-97.92v-98.74h97.92zm-88.28-89.85v80.63h78.72v-80.63zm59.83 45.66h-9l2.25-11.59h9.78v-8.54h-8.32l1.58-8.78-6.75-1.68-1.91 10.46h-11.44l1.91-10h-7.09l-1.8 10h-11.92l1.35 8.54h9.11l-2.14 11.59h-9.89v8.43h8.32l-1.59 8.88 6.74 1.58 1.92-10.46h11.34l-1.91 10.12h7.2l1.8-10.12h11.81zm-27.44.11 2.13-11.92h11.36l-2 11.92z" fill="#f6eb0f" fill-rule="nonzero"/><path d="m722.21 456.66h96.04v96.04h-96.04z" fill="#f6eb0f"/><path d="m767.59 485h3.55v34.85h17.75v3.23h-21.3z" fill="#231f20" fill-rule="nonzero"/><path d="m814.6 516.09c0 .47 0 1 .06 1.7s.06 1.34.08 2 0 1.31.08 1.91 0 1 0 1.37h-3.23c0-.93-.06-1.83-.08-2.69.014-.56-.029-1.119-.13-1.67h-.16c-.727 1.452-1.846 2.672-3.23 3.52-1.57 1.007-3.405 1.522-5.27 1.48-1.635.062-3.263-.249-4.76-.91-1.153-.538-2.151-1.361-2.9-2.39-.716-1.024-1.204-2.191-1.43-3.42-.255-1.318-.382-2.658-.38-4v-14.75h3.23v14.63c-.002.983.089 1.964.27 2.93.159.899.478 1.763.94 2.55.455.759 1.104 1.384 1.88 1.81.978.481 2.061.711 3.15.67 1.149.004 2.288-.206 3.36-.62 1.048-.404 1.986-1.048 2.74-1.88.822-.923 1.445-2.006 1.83-3.18.479-1.447.709-2.966.68-4.49v-12.42h3.22z" fill="#231f20" fill-rule="nonzero"/><path d="m844.29 519.43c-1.111 1.388-2.528 2.501-4.14 3.25-1.572.705-3.277 1.063-5 1.05-1.805.009-3.594-.33-5.27-1-1.556-.601-2.967-1.525-4.14-2.71-1.163-1.187-2.078-2.595-2.69-4.14-1.293-3.376-1.293-7.114 0-10.49.608-1.548 1.523-2.956 2.69-4.14 1.173-1.188 2.584-2.115 4.14-2.72 1.677-.666 3.466-1.005 5.27-1 1.757-.014 3.495.372 5.08 1.13 1.586.775 3.003 1.856 4.17 3.18l-2.58 1.93c-.873-.989-1.912-1.818-3.07-2.45-1.108-.588-2.346-.89-3.6-.88-1.404-.019-2.797.253-4.09.8-1.175.51-2.236 1.252-3.12 2.18-.882.928-1.562 2.027-2 3.23-.894 2.56-.894 5.35 0 7.91.437 1.2 1.118 2.296 2 3.22.881.931 1.943 1.673 3.12 2.18 1.291.554 2.685.83 4.09.81 1.306.011 2.594-.313 3.74-.94 1.131-.633 2.127-1.482 2.93-2.5z" fill="#231f20" fill-rule="nonzero"/><path d="m849.08 488.4c0-.003 0-.007 0-.01 0-1.311 1.079-2.39 2.39-2.39h.03c.645-.015 1.269.239 1.72.7.464.449.719 1.074.7 1.72.015.645-.239 1.269-.7 1.72-.95.929-2.49.929-3.44 0-.467-.456-.721-1.088-.7-1.74zm.81 9.84h3.22v24.85h-3.22z" fill="#231f20" fill-rule="nonzero"/><path d="m884 518.73h-.11c-.488.864-1.129 1.633-1.89 2.27-.746.623-1.57 1.148-2.45 1.56-.884.414-1.814.722-2.77.92-.938.188-1.893.286-2.85.29-1.805.009-3.594-.33-5.27-1-1.557-.605-2.97-1.528-4.15-2.71-1.157-1.19-2.067-2.597-2.68-4.14-1.293-3.376-1.293-7.114 0-10.49.608-1.545 1.519-2.953 2.68-4.14 1.179-1.186 2.592-2.112 4.15-2.72 2.585-1 5.406-1.233 8.12-.67.956.194 1.885.5 2.77.91.876.42 1.699.944 2.45 1.56.752.628 1.388 1.383 1.88 2.23h.12v-20.17h3.22v40.66h-3.22zm.32-8.07c.015-1.375-.261-2.739-.81-4-.519-1.208-1.266-2.305-2.2-3.23-.965-.905-2.086-1.627-3.31-2.13-1.296-.539-2.687-.811-4.09-.8-1.404-.019-2.797.253-4.09.8-1.175.51-2.236 1.252-3.12 2.18-.885.925-1.566 2.025-2 3.23-.907 2.558-.907 5.352 0 7.91.434 1.202 1.115 2.299 2 3.22.881.931 1.943 1.673 3.12 2.18 1.291.554 2.685.83 4.09.81 1.406.006 2.798-.276 4.09-.83 1.219-.517 2.331-1.256 3.28-2.18.934-.922 1.681-2.015 2.2-3.22.546-1.242.829-2.583.83-3.94z" fill="#231f20" fill-rule="nonzero"/><path d="m1173.19 552.76h-98v-98.76h98zm-88.28-89.85v80.63h78.72v-80.63zm59.83 45.65h-9l2.26-11.56h9.78v-8.54h-8.32l1.58-8.78-6.75-1.68-1.91 10.46h-11.48l1.91-10h-7.09l-1.8 10h-11.92l1.35 8.54h9.11l-2.14 11.58h-9.89v8.42h8.32l-1.57 8.88 6.74 1.58 1.91-10.46h11.36l-1.91 10.12h7.2l1.8-10.12h11.81zm-27.44.12 2.13-11.92h11.36l-2 11.92z" fill="#f6eb0f" fill-rule="nonzero"/><path d="m1076.37 454.02h96.04v96.04h-96.04z" fill="#f6eb0f"/><path d="m1117.78 482.37h6.78v31.94h16.19v6.14h-23z" fill="#231f20" fill-rule="nonzero"/><path d="m1168.67 520.45h-6.14v-4.14h-.1c-.65 1.33-1.61 2.484-2.8 3.36-1.5 1.02-3.3 1.519-5.11 1.42-1.5.041-3-.242-4.38-.83-1.14-.509-2.15-1.284-2.93-2.26-.76-.956-1.32-2.064-1.62-3.25-.32-1.247-.48-2.531-.48-3.82v-16.3h6.45v13.07c0 .72 0 1.51.11 2.39.06.85.25 1.685.56 2.48.3.752.78 1.416 1.4 1.93.77.563 1.71.839 2.66.78.94.028 1.86-.153 2.72-.53.71-.34 1.34-.84 1.83-1.46.48-.621.84-1.331 1.05-2.09.21-.809.32-1.643.32-2.48v-14.09h6.46z" fill="#231f20" fill-rule="nonzero"/><path d="m1193.62 502.37c-.69-.735-1.49-1.369-2.36-1.88-.77-.447-1.64-.688-2.53-.7-1.1-.017-2.18.205-3.18.65-.9.408-1.72.993-2.39 1.72-.66.716-1.17 1.556-1.5 2.47-.69 1.874-.69 3.936 0 5.81.33.919.84 1.762 1.5 2.48 1.43 1.551 3.46 2.412 5.57 2.36.97.01 1.93-.202 2.8-.62.87-.415 1.62-1.032 2.2-1.8l4.3 4.63c-.66.657-1.41 1.218-2.23 1.67-.81.451-1.67.829-2.55 1.13-.81.27-1.64.474-2.48.61-.66.116-1.33.179-2 .19-1.88.004-3.74-.335-5.49-1-3.34-1.201-6.04-3.738-7.45-7-1.47-3.564-1.47-7.566 0-11.13 1.41-3.262 4.11-5.799 7.45-7 1.76-.66 3.61-.999 5.49-1 1.71.007 3.41.329 5 .95 1.68.636 3.19 1.665 4.39 3z" fill="#231f20" fill-rule="nonzero"/><path d="m1201.1 485.86c-.01-1.023.41-2.005 1.15-2.71.78-.774 1.84-1.193 2.94-1.16 1.1-.035 2.18.359 3 1.1.77.715 1.21 1.719 1.21 2.77s-.44 2.055-1.21 2.77c-.82.745-1.89 1.14-3 1.1-1.1.036-2.16-.38-2.94-1.15-.74-.709-1.16-1.694-1.15-2.72zm.91 8.77h6.46v25.82h-6.47z" fill="#231f20" fill-rule="nonzero"/><path d="m1236.33 516.57h-.11c-.86 1.514-2.18 2.721-3.76 3.45-1.61.717-3.35 1.082-5.11 1.07-1.84.023-3.67-.349-5.35-1.09-1.52-.667-2.88-1.644-4-2.87-1.13-1.249-1.99-2.715-2.53-4.31-.58-1.713-.87-3.511-.86-5.32-.02-1.817.29-3.622.91-5.33.57-1.584 1.44-3.044 2.56-4.3 1.11-1.232 2.48-2.214 4-2.88 1.59-.693 3.32-1.035 5.06-1 1.09-.015 2.17.113 3.22.38.87.229 1.7.565 2.48 1 .66.35 1.27.773 1.83 1.26.45.399.86.841 1.23 1.32h.17v-18.17h6.45v40.67h-6.13zm-15.28-9c0 .989.17 1.971.51 2.9.33.919.85 1.762 1.51 2.48 1.43 1.551 3.46 2.412 5.57 2.36 1.09.02 2.17-.198 3.17-.64.9-.412 1.71-.996 2.39-1.72.67-.715 1.18-1.559 1.51-2.48.68-1.877.68-3.933 0-5.81-.33-.917-.84-1.757-1.51-2.47-1.43-1.546-3.45-2.409-5.56-2.37-1.09-.017-2.18.205-3.18.65-1.81.815-3.22 2.326-3.9 4.19-.34.923-.51 1.898-.51 2.88z" fill="#231f20" fill-rule="nonzero"/><path d="m992.94 67.31c.146-.105.321-.161.5-.16.183-.003.358.074.48.21.133.132.205.313.2.5.005.184-.068.362-.2.49-.127.127-.301.196-.48.19-.178 0-.352-.052-.5-.15h-10.37v-37c-.101-.136-.157-.3-.16-.47-.001-.188.075-.369.21-.5.13-.137.311-.214.5-.21.183-.003.358.074.48.21.129.134.201.314.2.5-.003.17-.059.334-.16.47v35.92z" fill="#231f20" fill-rule="nonzero"/><path d="m1007.44 67.78c.1.13.15.288.15.45 0 .183-.07.358-.21.48-.13.132-.31.205-.49.2-.18.008-.36-.065-.49-.2-.13-.126-.2-.299-.2-.48 0-.164.06-.323.16-.45v-1.39c-.42.781-1.04 1.436-1.79 1.9-.82.442-1.75.656-2.68.62-.92.031-1.83-.154-2.66-.54-.67-.329-1.255-.808-1.71-1.4-.436-.596-.743-1.278-.9-2-.18-.74-.271-1.499-.27-2.26v-20.56c-.093-.15-.145-.323-.15-.5-.004-.182.065-.358.19-.49.131-.127.308-.196.49-.19.185-.004.365.064.5.19.135.127.211.305.21.49-.005.178-.06.352-.16.5v20.59c.001.619.072 1.236.21 1.84.132.591.376 1.151.72 1.65.351.501.822.907 1.37 1.18.67.323 1.41.477 2.16.45.69.011 1.37-.129 2-.41.54-.248 1.02-.622 1.39-1.09.36-.462.63-.993.79-1.56.17-.585.25-1.191.25-1.8v-20.85c-.1-.148-.15-.322-.16-.5 0-.183.07-.359.2-.49.13-.128.31-.197.49-.19.18-.004.36.065.49.19.14.127.21.305.21.49 0 .177-.06.35-.15.5z" fill="#231f20" fill-rule="nonzero"/><path d="m1012.56 62.74c0 .627.07 1.251.22 1.86.14.592.39 1.151.74 1.65.36.495.83.894 1.38 1.16.66.32 1.39.474 2.12.45.7.019 1.4-.111 2.05-.38.53-.224 1-.566 1.38-1 .36-.429.63-.93.79-1.47.16-.561.26-1.137.3-1.72-.06-.06-.1-.132-.12-.21-.01-.086-.01-.174 0-.26.01-.167.08-.325.2-.44.12-.145.3-.226.49-.22.19-.002.37.078.49.22.13.111.2.271.21.44.02.086.02.174 0 .26-.02.079-.05.152-.11.21-.06.719-.19 1.43-.4 2.12-.21.66-.55 1.272-1 1.8-.47.536-1.05.966-1.7 1.26-.8.335-1.66.495-2.52.47-.91.03-1.82-.155-2.64-.54-.67-.326-1.25-.806-1.7-1.4-.44-.598-.75-1.278-.92-2-.19-.738-.28-1.498-.28-2.26v-15.6c0-.762.09-1.522.28-2.26.17-.722.48-1.402.92-2 .44-.599 1.03-1.08 1.7-1.4.81-.352 1.68-.516 2.56-.48.86-.03 1.73.131 2.52.47.65.294 1.23.724 1.7 1.26.45.528.79 1.14 1 1.8.21.686.35 1.394.4 2.11.05.061.09.133.11.21.02.089.02.181 0 .27-.01.169-.08.328-.21.44-.13.135-.3.211-.49.21-.19.005-.36-.072-.49-.21-.12-.116-.19-.273-.2-.44-.01-.157.05-.31.16-.42-.04-.579-.14-1.152-.3-1.71-.32-1.118-1.11-2.043-2.17-2.53-.63-.308-1.33-.466-2.03-.46-.73-.026-1.46.132-2.12.46-.55.276-1.02.681-1.38 1.18-.35.495-.6 1.052-.74 1.64-.15.602-.22 1.22-.22 1.84z" fill="#231f20" fill-rule="nonzero"/><path d="m1027.13 35c.11.112.17.264.16.42.01.187-.07.368-.2.5-.12.136-.3.213-.48.21-.39-.005-.71-.323-.71-.71-.01-.156.05-.308.16-.42v-1.52c-.1-.148-.16-.321-.16-.5 0-.183.07-.358.21-.48.13-.129.31-.201.5-.2.18-.002.35.071.48.2.13.123.21.299.2.48 0 .179-.06.352-.16.5zm0 32.75c.1.127.16.286.16.45 0 .373-.31.68-.68.68-.19.005-.37-.067-.5-.2-.14-.122-.21-.297-.21-.48 0-.164.06-.323.16-.45v-25.6c-.1-.148-.16-.322-.16-.5 0-.185.07-.363.21-.49.14-.126.31-.194.5-.19.18-.006.35.063.48.19.13.128.21.306.2.49 0 .178-.06.352-.16.5z" fill="#231f20" fill-rule="nonzero"/><path d="m1031.28 47.14c0-.761.09-1.52.27-2.26.16-.722.46-1.404.9-2 .45-.597 1.04-1.078 1.71-1.4.84-.386 1.75-.571 2.67-.54.93-.038 1.85.173 2.67.61.75.464 1.36 1.111 1.79 1.88v-12.05c-.1-.136-.16-.3-.16-.47 0-.387.32-.705.71-.71.19-.003.36.073.49.21.13.135.19.315.19.5 0 .168-.06.331-.15.47v36.4c.1.13.15.288.15.45.01.179-.06.353-.19.48-.13.134-.31.207-.49.2-.19.005-.37-.067-.5-.2-.14-.122-.21-.297-.21-.48 0-.164.06-.323.16-.45v-1.13c-.47.669-1.08 1.228-1.79 1.64-.82.441-1.74.655-2.67.62-.92.031-1.83-.154-2.67-.54-.67-.329-1.26-.808-1.71-1.4-.44-.596-.74-1.278-.9-2-.18-.74-.27-1.499-.27-2.26zm10 0c0-.624-.09-1.244-.28-1.84-.17-.591-.45-1.147-.82-1.64-.38-.488-.85-.891-1.4-1.18-.62-.325-1.31-.483-2-.46-.75-.03-1.5.128-2.17.46-.54.279-1.01.684-1.37 1.18-.35.494-.59 1.051-.72 1.64-.14.603-.21 1.221-.21 1.84v15.6c0 .619.07 1.236.21 1.84.13.591.38 1.151.72 1.65.35.501.82.907 1.37 1.18.68.323 1.42.478 2.17.45.73.023 1.46-.139 2.11-.47.54-.296 1.02-.709 1.38-1.21.35-.494.61-1.051.75-1.64.14-.59.22-1.194.22-1.8z" fill="#231f20" fill-rule="nonzero"/><path d="m1157.8 68.53c-.07.005-.15.008-.22.008-1.66 0-3.03-1.349-3.06-3.008v-34.65h3.55v34.16h13.4v3.49z" fill="#231f20" fill-rule="nonzero"/><path d="m1173.35 60.52v-17.8h3.44v17.8c0 2.611 2.15 4.76 4.76 4.76s4.76-2.149 4.76-4.76v-17.8h3.39v17.8.15c0 4.46-3.67 8.13-8.13 8.13-.02 0-.03 0-.05 0-4.51-.033-8.2-3.769-8.17-8.28z" fill="#231f20" fill-rule="nonzero"/><path d="m1211.48 59.44c0 5.11-3.6 9.36-8.28 9.36-4.57-.032-8.32-3.762-8.39-8.33v-9.74c.01-4.579 3.78-8.34 8.36-8.34h.03c4.41 0 8.23 4.09 8.28 9.36h-3.48c0-3.33-2.15-5.86-4.84-5.86-.03-.001-.06-.001-.09-.001-2.67 0-4.87 2.174-4.91 4.841v9.74c.02 2.688 2.23 4.891 4.92 4.891.03 0 .05-.001.08-.001 2.69 0 4.84-2.69 4.84-5.92z" fill="#231f20" fill-rule="nonzero"/><path d="m1221.05 38.63c-.04 1.263-1.1 2.277-2.36 2.26-1.22-.011-2.21-1.014-2.21-2.23 0-.01 0-.02 0-.03 0-.037 0-.073 0-.11 0-1.207.99-2.2 2.2-2.2h.01c.02-.001.04-.001.06-.001 1.26 0 2.3 1.038 2.3 2.3zm-.64 29.9h-3.41v-25.81h3.39z" fill="#231f20" fill-rule="nonzero"/><path d="m1225.73 60.74v-10.17c.17-4.512 3.93-8.129 8.45-8.12 1.97-.004 3.8 1.016 4.84 2.69v-13.67h3.44v37.06h-3l-.43-2.36c-1 2.26-3.06 2.74-4.89 2.74-4.5-.069-8.21-3.676-8.41-8.17zm3.44 0c.14 2.64 2.36 4.734 5 4.73 2.74 0 4.84-1.88 4.84-4.14v-11c-.06-2.58-1.72-4.41-4.84-4.41-2.64-.095-4.89 1.991-5 4.63z" fill="#231f20" fill-rule="nonzero"/></svg>