<svg xmlns="http://www.w3.org/2000/svg" id="Layer_1" data-name="Layer 1" viewBox="0 0 669.05 269.16"><defs><style>.cls-1{fill:#fce900}.cls-2{fill:#010101}.cls-3{fill:#4e4e4e}.cls-4{fill:#232b33}.cls-5{fill:#364049}.cls-6{fill:#fff}.cls-7{fill:#fbe800}.cls-8{fill:#f8e100}.cls-9{fill:#f1d611}</style></defs><title>Artboard 1 copy</title><circle cx="66.26" cy="68.34" r="46.96" class="cls-1"/><path d="M90.46,47.24a14.7,14.7,0,0,0-12.25,6.64c-1.44-.12-2.64.92-2.44,1.32a2.68,2.68,0,0,1,1.8.16c-1.08,2.4-.24,5.25,2.68,5.25a3,3,0,0,0,2.84-2.41,3.9,3.9,0,0,0-1.52-3.88,10.38,10.38,0,0,1,8.77-4.48c4.28,0,5.72,3.48,5.76,7.4a22.17,22.17,0,0,1-2.16,9.53c-1-2-3.44-2.92-5.64-2.92-4.69,0-8.53,5.64-8.53,9.53a6.67,6.67,0,0,0,.08,1.28A3.72,3.72,0,0,1,77.25,76c-.84,0-1.84-.4-1.76-1.44a11.15,11.15,0,0,1,.76-2.81c.6-1.6,1.72-4.32,2.2-5.44s-.4-1.76-1.32-1.76a2.08,2.08,0,0,0-2.24,1.24c-.52,1.08-1.84,4.12-2.6,5.68-1.81,2.93-3.49,3.81-5.89,3.81-2.08,0-3.24-1.28-3.24-3.49,0-3.08,2.4-5.72,4.76-5.72a3.33,3.33,0,0,1,1.28.24c-.2,1.36.24,2.32,1,2.32a2.63,2.63,0,0,0,2.25-2.32c0-1.08-1.72-2.52-4.33-2.56-5,0-9.32,5.88-9.4,10.61A2.14,2.14,0,0,1,57,75.74a1.33,1.33,0,0,1-1.48-1.44c0-1.4,1.32-4.29,2.45-7.13.52-1.36,1.44-3.2-1.09-3.2-1.24,0-1.76.52-2,1s-2.52,6.08-3.2,7.48c-1,2-2.16,2.85-3.48,2.85a1.64,1.64,0,0,1-1.88-1.76c0-.84,1-3,1.6-4.17.72-1.48,1.52-3.16,2-4.4.32-.88-.32-1.16-1.12-1.2a3.41,3.41,0,0,0-2,.44c-.76,1.08-3.77,6.84-4.57,8.41a4.86,4.86,0,0,1-4.44,2.68C35.3,75.3,34,72.9,34,70.81c6.08-1.92,13.37-9.44,13.37-15.37,0-2.36-1.2-4-3-4-5.61,0-13.61,9.85-15.1,17.77a1.54,1.54,0,0,1-1.76-1c-.4.24-.16,1,.12,1.48a2.58,2.58,0,0,0,1.36,1c-.48,5.37,2.09,8,7.29,7.69,4.08-.28,5.8-2.52,5.8-2.52.6,1.84,2.21,2.92,5,2.92a9.41,9.41,0,0,0,6.28-2.72A2.75,2.75,0,0,0,56,78.22a4.46,4.46,0,0,0,3.41-1.88,6.23,6.23,0,0,0,5.32,2.52,9.28,9.28,0,0,0,6.85-3.24c.24,1.92,2,2.8,3.92,2.8a8.28,8.28,0,0,0,5.32-2.08,6.21,6.21,0,0,0,5.41,2.6c4,0,8.24-3.28,11.36-9.09a24.92,24.92,0,0,0,3.25-11.29c.08-6.64-3.77-11.32-10.41-11.32m-47.08,7.2c1.45-.64,1.49.56,1.49.56,0,2.68-5.89,10.93-11,13.49.28-4.92,5-12,9.52-14M86.74,75.26c-1.12,0-2.32-1.12-2.32-3.33a5,5,0,0,1,4.76-5.24,3.94,3.94,0,0,1,3.44,2.72c-2.08,4.73-3.84,5.85-5.88,5.85m-6-16.3c-1.12,0-.76-2.16-.36-2.88a2.22,2.22,0,0,1,1.16,2.2.73.73,0,0,1-.8.68" class="cls-2"/><path d="M63.84,82.64h1.34L72,92.39h0V82.64h1V93.77H71.69L64.91,84h0v9.75h-1Z" class="cls-3"/><path d="M78.55,89l-4.09-6.34H75.7l3.37,5.28,3.45-5.28h1.16L79.59,89v4.79h-1Z" class="cls-3"/><path d="M94.28,92a4.77,4.77,0,0,1-1.85,1.56,5.64,5.64,0,0,1-2.28.47,6.13,6.13,0,0,1-2.34-.44A5.18,5.18,0,0,1,86,92.41a5.69,5.69,0,0,1-1.18-1.85,6.45,6.45,0,0,1-.42-2.35,6.38,6.38,0,0,1,.42-2.35A5.8,5.8,0,0,1,86,84a5.5,5.5,0,0,1,1.82-1.22,6.13,6.13,0,0,1,2.34-.44,5.66,5.66,0,0,1,2.11.4A4.17,4.17,0,0,1,94,84.1l-.84.71a3.06,3.06,0,0,0-1.33-1.15,4.11,4.11,0,0,0-1.66-.36,4.89,4.89,0,0,0-2,.37,4.44,4.44,0,0,0-1.49,1,4.55,4.55,0,0,0-.94,1.56,5.84,5.84,0,0,0,0,3.87,4.55,4.55,0,0,0,.94,1.56,4.44,4.44,0,0,0,1.49,1,4.89,4.89,0,0,0,2,.37A4,4,0,0,0,91,93a4.28,4.28,0,0,0,.89-.31,4.14,4.14,0,0,0,.82-.54,3.27,3.27,0,0,0,.69-.78Z" class="cls-3"/><path d="M332.81,21.37a47,47,0,1,0,47,47A47,47,0,0,0,332.81,21.37Zm6.77,72.4h-1.34L331.46,84h0v9.75h-1V82.63h1.34l6.78,9.76h0V82.63h1Zm6.56-4.8v4.8h-1V89L341,82.63h1.25l3.36,5.29,3.45-5.29h1.16ZM359,93.58a5.41,5.41,0,0,1-2.28.47,6.13,6.13,0,0,1-2.34-.43,5.32,5.32,0,0,1-1.82-1.21,5.74,5.74,0,0,1-1.18-1.86,6.42,6.42,0,0,1-.42-2.35,6.32,6.32,0,0,1,.42-2.34A5.69,5.69,0,0,1,352.54,84a5.35,5.35,0,0,1,1.82-1.22,6.13,6.13,0,0,1,2.34-.44,5.47,5.47,0,0,1,2.11.4,4.33,4.33,0,0,1,1.73,1.34l-.85.71a3.2,3.2,0,0,0-1.33-1.15,4.07,4.07,0,0,0-1.66-.36,4.89,4.89,0,0,0-2,.38,4.4,4.4,0,0,0-1.49,1,4.55,4.55,0,0,0-.94,1.56A5.51,5.51,0,0,0,352,88.2a5.61,5.61,0,0,0,.33,1.94,4.6,4.6,0,0,0,.94,1.55,4.4,4.4,0,0,0,1.49,1,4.89,4.89,0,0,0,2,.38,4,4,0,0,0,.88-.1,4.32,4.32,0,0,0,.89-.32,4.25,4.25,0,0,0,.82-.53,3.49,3.49,0,0,0,.7-.78l.85.64A4.7,4.7,0,0,1,359,93.58Zm5.2-23.73c-3.13,5.8-7.33,9.09-11.37,9.09a6.24,6.24,0,0,1-5.41-2.61,8.28,8.28,0,0,1-5.32,2.08c-2,0-3.68-.88-3.92-2.8a9.27,9.27,0,0,1-6.85,3.25A6.24,6.24,0,0,1,326,76.33a4.44,4.44,0,0,1-3.4,1.88,2.75,2.75,0,0,1-2.77-2.16,9.42,9.42,0,0,1-6.28,2.73c-2.76,0-4.36-1.09-5-2.93,0,0-1.73,2.24-5.81,2.52-5.2.29-7.76-2.32-7.28-7.68a2.65,2.65,0,0,1-1.37-1c-.28-.44-.52-1.24-.12-1.48a1.55,1.55,0,0,0,1.77,1c1.48-7.93,9.48-17.77,15.09-17.77,1.84,0,3,1.64,3,4,0,5.92-7.29,13.45-13.37,15.37,0,2.08,1.32,4.48,3.84,4.48a4.88,4.88,0,0,0,4.45-2.68c.8-1.56,3.8-7.32,4.56-8.41a3.41,3.41,0,0,1,2-.44c.8,0,1.44.32,1.12,1.21-.48,1.24-1.28,2.92-2,4.4-.56,1.2-1.6,3.32-1.6,4.16a1.64,1.64,0,0,0,1.88,1.76c1.32,0,2.52-.88,3.48-2.84.68-1.4,3-6.88,3.21-7.48s.72-1,2-1c2.52,0,1.6,1.85,1.08,3.21C323.35,70,322,72.89,322,74.29a1.33,1.33,0,0,0,1.48,1.44,2.14,2.14,0,0,0,1.76-1.36c.08-4.72,4.36-10.65,9.4-10.61,2.61,0,4.33,1.49,4.33,2.57a2.63,2.63,0,0,1-2.24,2.32c-.76,0-1.2-1-1-2.32a3.35,3.35,0,0,0-1.29-.24c-2.36,0-4.76,2.64-4.76,5.72,0,2.2,1.16,3.48,3.24,3.48,2.41,0,4.09-.88,5.89-3.8.76-1.56,2.08-4.6,2.6-5.68a2.07,2.07,0,0,1,2.24-1.25c.92,0,1.8.6,1.32,1.77s-1.6,3.84-2.2,5.44a11,11,0,0,0-.76,2.8c-.08,1,.92,1.48,1.76,1.44a3.72,3.72,0,0,0,2.6-1.36,6.67,6.67,0,0,1-.08-1.28c0-3.88,3.85-9.57,8.53-9.53,2.2,0,4.64.88,5.64,2.93a22.24,22.24,0,0,0,2.17-9.53c0-3.92-1.49-7.41-5.77-7.41a10.38,10.38,0,0,0-8.77,4.49,3.88,3.88,0,0,1,1.53,3.88,3,3,0,0,1-2.85,2.4c-2.92,0-3.76-2.84-2.68-5.24a2.68,2.68,0,0,0-1.8-.16c-.2-.4,1-1.44,2.44-1.32A14.69,14.69,0,0,1,357,47.23c6.65,0,10.49,4.69,10.41,11.33A25.05,25.05,0,0,1,364.18,69.85Z"/><path d="M348,58.28a.73.73,0,0,1-.8.68c-1.12,0-.76-2.16-.36-2.88A2.22,2.22,0,0,1,348,58.28Z"/><path d="M359.17,69.41c-2.08,4.72-3.84,5.84-5.88,5.84-1.12,0-2.32-1.12-2.32-3.32a5,5,0,0,1,4.76-5.24A3.94,3.94,0,0,1,359.17,69.41Z"/><path d="M311.42,55c0,2.68-5.89,10.93-11,13.49.28-4.93,5-12,9.53-14C311.38,53.8,311.42,55,311.42,55Z"/><path d="M466.08,21.37a47,47,0,1,0,47,47A47,47,0,0,0,466.08,21.37Zm6.77,72.4h-1.34L464.73,84h0v9.75h-1V82.63H465l6.78,9.76h0V82.63h1Zm6.56-4.8v4.8h-1V89l-4.09-6.34h1.25l3.36,5.29,3.45-5.29h1.16Zm12.84,4.61a5.41,5.41,0,0,1-2.28.47,6.13,6.13,0,0,1-2.34-.43,5.32,5.32,0,0,1-1.82-1.21,5.74,5.74,0,0,1-1.18-1.86,6.42,6.42,0,0,1-.42-2.35,6.32,6.32,0,0,1,.42-2.34A5.69,5.69,0,0,1,485.81,84a5.35,5.35,0,0,1,1.82-1.22,6.13,6.13,0,0,1,2.34-.44,5.47,5.47,0,0,1,2.11.4,4.33,4.33,0,0,1,1.73,1.34l-.85.71a3.2,3.2,0,0,0-1.33-1.15,4.07,4.07,0,0,0-1.66-.36,4.89,4.89,0,0,0-2,.38,4.4,4.4,0,0,0-1.49,1,4.55,4.55,0,0,0-.94,1.56,5.51,5.51,0,0,0-.33,1.93,5.61,5.61,0,0,0,.33,1.94,4.6,4.6,0,0,0,.94,1.55,4.4,4.4,0,0,0,1.49,1,4.89,4.89,0,0,0,2,.38,4,4,0,0,0,.88-.1,4.32,4.32,0,0,0,.89-.32,4.25,4.25,0,0,0,.82-.53,3.49,3.49,0,0,0,.7-.78l.85.64A4.7,4.7,0,0,1,492.25,93.58Zm5.2-23.73c-3.13,5.8-7.33,9.09-11.37,9.09a6.24,6.24,0,0,1-5.41-2.61,8.28,8.28,0,0,1-5.32,2.08c-2,0-3.68-.88-3.92-2.8a9.27,9.27,0,0,1-6.85,3.25,6.24,6.24,0,0,1-5.32-2.53,4.44,4.44,0,0,1-3.4,1.88,2.75,2.75,0,0,1-2.77-2.16,9.42,9.42,0,0,1-6.28,2.73c-2.76,0-4.36-1.09-5-2.93,0,0-1.73,2.24-5.81,2.52-5.2.29-7.76-2.32-7.28-7.68a2.65,2.65,0,0,1-1.37-1c-.28-.44-.52-1.24-.12-1.48a1.55,1.55,0,0,0,1.77,1c1.48-7.93,9.48-17.77,15.09-17.77,1.84,0,3,1.64,3,4,0,5.92-7.29,13.45-13.37,15.37,0,2.08,1.32,4.48,3.84,4.48a4.88,4.88,0,0,0,4.45-2.68c.8-1.56,3.8-7.32,4.56-8.41a3.41,3.41,0,0,1,2-.44c.8,0,1.44.32,1.12,1.21-.48,1.24-1.28,2.92-2,4.4-.56,1.2-1.6,3.32-1.6,4.16A1.64,1.64,0,0,0,448,75.29c1.32,0,2.52-.88,3.48-2.84.68-1.4,3-6.88,3.21-7.48s.72-1,2-1c2.52,0,1.6,1.85,1.08,3.21-1.12,2.84-2.44,5.72-2.44,7.12a1.33,1.33,0,0,0,1.48,1.44,2.14,2.14,0,0,0,1.76-1.36c.08-4.72,4.36-10.65,9.4-10.61,2.61,0,4.33,1.49,4.33,2.57A2.63,2.63,0,0,1,470,68.65c-.76,0-1.2-1-1-2.32a3.35,3.35,0,0,0-1.29-.24c-2.36,0-4.76,2.64-4.76,5.72,0,2.2,1.16,3.48,3.24,3.48,2.41,0,4.09-.88,5.89-3.8.76-1.56,2.08-4.6,2.6-5.68A2.07,2.07,0,0,1,477,64.56c.92,0,1.8.6,1.32,1.77s-1.6,3.84-2.2,5.44a11,11,0,0,0-.76,2.8c-.08,1,.92,1.48,1.76,1.44a3.72,3.72,0,0,0,2.6-1.36,6.67,6.67,0,0,1-.08-1.28c0-3.88,3.85-9.57,8.53-9.53,2.2,0,4.64.88,5.64,2.93a22.24,22.24,0,0,0,2.17-9.53c0-3.92-1.49-7.41-5.77-7.41a10.38,10.38,0,0,0-8.77,4.49,3.88,3.88,0,0,1,1.53,3.88,3,3,0,0,1-2.85,2.4c-2.92,0-3.76-2.84-2.68-5.24a2.68,2.68,0,0,0-1.8-.16c-.2-.4,1-1.44,2.44-1.32a14.69,14.69,0,0,1,12.25-6.65c6.65,0,10.49,4.69,10.41,11.33A25.05,25.05,0,0,1,497.45,69.85Z" class="cls-4"/><path d="M481.31,58.28a.73.73,0,0,1-.8.68c-1.12,0-.76-2.16-.36-2.88A2.22,2.22,0,0,1,481.31,58.28Z" class="cls-4"/><path d="M492.44,69.41c-2.08,4.72-3.84,5.84-5.88,5.84-1.12,0-2.32-1.12-2.32-3.32A5,5,0,0,1,489,66.69,3.94,3.94,0,0,1,492.44,69.41Z" class="cls-4"/><path d="M444.69,55c0,2.68-5.89,10.93-11,13.49.28-4.93,5-12,9.53-14C444.65,53.8,444.69,55,444.69,55Z" class="cls-4"/><path d="M599.36,21.37a47,47,0,1,0,47,47A47,47,0,0,0,599.36,21.37Zm6.77,72.4h-1.34L598,84h0v9.75h-1V82.63h1.34l6.78,9.76h0V82.63h1Zm6.56-4.8v4.8h-1V89l-4.09-6.34h1.25l3.36,5.29,3.45-5.29h1.16Zm12.84,4.61a5.41,5.41,0,0,1-2.28.47,6.13,6.13,0,0,1-2.34-.43,5.32,5.32,0,0,1-1.82-1.21,5.74,5.74,0,0,1-1.18-1.86,6.42,6.42,0,0,1-.42-2.35,6.32,6.32,0,0,1,.42-2.34A5.69,5.69,0,0,1,619.09,84a5.35,5.35,0,0,1,1.82-1.22,6.13,6.13,0,0,1,2.34-.44,5.47,5.47,0,0,1,2.11.4,4.33,4.33,0,0,1,1.73,1.34l-.85.71a3.2,3.2,0,0,0-1.33-1.15,4.07,4.07,0,0,0-1.66-.36,4.89,4.89,0,0,0-2,.38,4.4,4.4,0,0,0-1.49,1,4.55,4.55,0,0,0-.94,1.56,5.51,5.51,0,0,0-.33,1.93,5.61,5.61,0,0,0,.33,1.94,4.6,4.6,0,0,0,.94,1.55,4.4,4.4,0,0,0,1.49,1,4.89,4.89,0,0,0,2,.38,4,4,0,0,0,.88-.1,4.32,4.32,0,0,0,.89-.32,4.25,4.25,0,0,0,.82-.53,3.49,3.49,0,0,0,.7-.78l.85.64A4.7,4.7,0,0,1,625.53,93.58Zm5.2-23.73c-3.13,5.8-7.33,9.09-11.37,9.09A6.24,6.24,0,0,1,614,76.33a8.28,8.28,0,0,1-5.32,2.08c-2,0-3.68-.88-3.92-2.8a9.27,9.27,0,0,1-6.85,3.25,6.24,6.24,0,0,1-5.32-2.53,4.44,4.44,0,0,1-3.4,1.88,2.75,2.75,0,0,1-2.77-2.16,9.42,9.42,0,0,1-6.28,2.73c-2.76,0-4.36-1.09-5-2.93,0,0-1.73,2.24-5.81,2.52-5.2.29-7.76-2.32-7.28-7.68a2.65,2.65,0,0,1-1.37-1c-.28-.44-.52-1.24-.12-1.48a1.55,1.55,0,0,0,1.77,1c1.48-7.93,9.48-17.77,15.09-17.77,1.84,0,3,1.64,3,4,0,5.92-7.29,13.45-13.37,15.37,0,2.08,1.32,4.48,3.84,4.48a4.88,4.88,0,0,0,4.45-2.68c.8-1.56,3.8-7.32,4.56-8.41a3.41,3.41,0,0,1,2-.44c.8,0,1.44.32,1.12,1.21-.48,1.24-1.28,2.92-2,4.4-.56,1.2-1.6,3.32-1.6,4.16a1.64,1.64,0,0,0,1.88,1.76c1.32,0,2.52-.88,3.48-2.84.68-1.4,3-6.88,3.21-7.48s.72-1,2-1c2.52,0,1.6,1.85,1.08,3.21-1.12,2.84-2.44,5.72-2.44,7.12a1.33,1.33,0,0,0,1.48,1.44,2.14,2.14,0,0,0,1.76-1.36c.08-4.72,4.36-10.65,9.4-10.61,2.61,0,4.33,1.49,4.33,2.57a2.63,2.63,0,0,1-2.24,2.32c-.76,0-1.2-1-1-2.32a3.35,3.35,0,0,0-1.29-.24c-2.36,0-4.76,2.64-4.76,5.72,0,2.2,1.16,3.48,3.24,3.48,2.41,0,4.09-.88,5.89-3.8.76-1.56,2.08-4.6,2.6-5.68a2.07,2.07,0,0,1,2.24-1.25c.92,0,1.8.6,1.32,1.77s-1.6,3.84-2.2,5.44a11,11,0,0,0-.76,2.8c-.08,1,.92,1.48,1.76,1.44a3.72,3.72,0,0,0,2.6-1.36,6.67,6.67,0,0,1-.08-1.28c0-3.88,3.85-9.57,8.53-9.53,2.2,0,4.64.88,5.64,2.93a22.24,22.24,0,0,0,2.17-9.53c0-3.92-1.49-7.41-5.77-7.41a10.38,10.38,0,0,0-8.77,4.49,3.88,3.88,0,0,1,1.53,3.88,3,3,0,0,1-2.85,2.4c-2.92,0-3.76-2.84-2.68-5.24a2.68,2.68,0,0,0-1.8-.16c-.2-.4,1-1.44,2.44-1.32a14.69,14.69,0,0,1,12.25-6.65c6.65,0,10.49,4.69,10.41,11.33A25.05,25.05,0,0,1,630.73,69.85Z" class="cls-5"/><path d="M614.59,58.28a.73.73,0,0,1-.8.68c-1.12,0-.76-2.16-.36-2.88A2.22,2.22,0,0,1,614.59,58.28Z" class="cls-5"/><path d="M625.72,69.41c-2.08,4.72-3.84,5.84-5.88,5.84-1.12,0-2.32-1.12-2.32-3.32a5,5,0,0,1,4.76-5.24A3.94,3.94,0,0,1,625.72,69.41Z" class="cls-5"/><path d="M578,55c0,2.68-5.89,10.93-11,13.49.28-4.93,5-12,9.53-14C577.93,53.8,578,55,578,55Z" class="cls-5"/><polygon points="207.47 82.63 208.51 82.63 208.51 93.77 207.17 93.77 200.39 84.02 200.36 84.02 200.36 93.77 199.32 93.77 199.32 82.63 200.66 82.63 207.44 92.39 207.47 92.39 207.47 82.63" class="cls-1"/><polygon points="218 82.63 219.16 82.63 215.07 88.97 215.07 93.77 214.03 93.77 214.03 88.97 209.94 82.63 211.19 82.63 214.55 87.92 218 82.63" class="cls-1"/><path d="M228.92,91.38l.85.64a4.7,4.7,0,0,1-1.86,1.56,5.41,5.41,0,0,1-2.28.47,6.13,6.13,0,0,1-2.34-.43,5.32,5.32,0,0,1-1.82-1.21,5.74,5.74,0,0,1-1.18-1.86,6.42,6.42,0,0,1-.42-2.35,6.32,6.32,0,0,1,.42-2.34A5.69,5.69,0,0,1,221.47,84a5.35,5.35,0,0,1,1.82-1.22,6.13,6.13,0,0,1,2.34-.44,5.47,5.47,0,0,1,2.11.4,4.33,4.33,0,0,1,1.73,1.34l-.85.71a3.2,3.2,0,0,0-1.33-1.15,4.07,4.07,0,0,0-1.66-.36,4.89,4.89,0,0,0-2,.38,4.4,4.4,0,0,0-1.49,1,4.55,4.55,0,0,0-.94,1.56,5.51,5.51,0,0,0-.33,1.93,5.61,5.61,0,0,0,.33,1.94,4.6,4.6,0,0,0,.94,1.55,4.4,4.4,0,0,0,1.49,1,4.89,4.89,0,0,0,2,.38,4,4,0,0,0,.88-.1,4.32,4.32,0,0,0,.89-.32,4.25,4.25,0,0,0,.82-.53A3.49,3.49,0,0,0,228.92,91.38Z" class="cls-1"/><path d="M225.94,47.23a14.69,14.69,0,0,0-12.25,6.65c-1.44-.12-2.64.92-2.44,1.32a2.68,2.68,0,0,1,1.8.16c-1.08,2.4-.24,5.24,2.68,5.24a3,3,0,0,0,2.85-2.4,3.88,3.88,0,0,0-1.53-3.88,10.38,10.38,0,0,1,8.77-4.49c4.28,0,5.73,3.49,5.77,7.41a22.24,22.24,0,0,1-2.17,9.53c-1-2-3.44-2.93-5.64-2.93-4.68,0-8.53,5.65-8.53,9.53a6.67,6.67,0,0,0,.08,1.28,3.72,3.72,0,0,1-2.6,1.36c-.84,0-1.84-.4-1.76-1.44a11,11,0,0,1,.76-2.8c.6-1.6,1.72-4.32,2.2-5.44s-.4-1.77-1.32-1.77a2.07,2.07,0,0,0-2.24,1.25c-.52,1.08-1.84,4.12-2.6,5.68-1.8,2.92-3.48,3.8-5.89,3.8-2.08,0-3.24-1.28-3.24-3.48,0-3.08,2.4-5.72,4.76-5.72a3.35,3.35,0,0,1,1.29.24c-.2,1.36.24,2.32,1,2.32a2.63,2.63,0,0,0,2.24-2.32c0-1.08-1.72-2.53-4.33-2.57-5,0-9.32,5.89-9.4,10.61a2.14,2.14,0,0,1-1.76,1.36A1.33,1.33,0,0,1,191,74.29c0-1.4,1.32-4.28,2.44-7.12.52-1.36,1.44-3.21-1.08-3.21-1.24,0-1.76.52-2,1s-2.53,6.08-3.21,7.48c-1,2-2.16,2.84-3.48,2.84a1.64,1.64,0,0,1-1.88-1.76c0-.84,1-3,1.6-4.16.72-1.48,1.52-3.16,2-4.4.32-.89-.32-1.17-1.12-1.21a3.41,3.41,0,0,0-2,.44c-.76,1.09-3.76,6.85-4.56,8.41a4.88,4.88,0,0,1-4.45,2.68c-2.52,0-3.84-2.4-3.84-4.48,6.08-1.92,13.37-9.45,13.37-15.37,0-2.36-1.2-4-3-4-5.61,0-13.61,9.84-15.09,17.77a1.55,1.55,0,0,1-1.77-1c-.4.24-.16,1,.12,1.48a2.65,2.65,0,0,0,1.37,1c-.48,5.36,2.08,8,7.28,7.68,4.08-.28,5.81-2.52,5.81-2.52.6,1.84,2.2,2.93,5,2.93a9.42,9.42,0,0,0,6.28-2.73,2.75,2.75,0,0,0,2.77,2.16,4.44,4.44,0,0,0,3.4-1.88,6.24,6.24,0,0,0,5.32,2.53,9.27,9.27,0,0,0,6.85-3.25c.24,1.92,2,2.8,3.92,2.8a8.28,8.28,0,0,0,5.32-2.08,6.24,6.24,0,0,0,5.41,2.61c4,0,8.24-3.29,11.37-9.09a25.05,25.05,0,0,0,3.24-11.29C236.43,51.92,232.59,47.23,225.94,47.23Zm-9,11.05a.73.73,0,0,1-.8.68c-1.12,0-.76-2.16-.36-2.88A2.22,2.22,0,0,1,217,58.28Zm-38.1-3.84c1.44-.64,1.48.56,1.48.56,0,2.68-5.89,10.93-11,13.49C169.62,63.56,174.38,56.48,178.87,54.44Zm43.35,20.81c-1.12,0-2.32-1.12-2.32-3.32a5,5,0,0,1,4.76-5.24,3.94,3.94,0,0,1,3.44,2.72C226,74.13,224.26,75.25,222.22,75.25Z" class="cls-1"/><path d="M207.47,82.63v9.76h0l-6.78-9.76h-1.34V93.77h1V84h0l6.78,9.75h1.34V82.63Z" class="cls-3"/><path d="M218,82.63l-3.45,5.29-3.36-5.29h-1.25L214,89v4.8h1V89l4.09-6.34Z" class="cls-3"/><path d="M228.92,91.38a3.49,3.49,0,0,1-.7.78,4.25,4.25,0,0,1-.82.53,4.32,4.32,0,0,1-.89.32,4,4,0,0,1-.88.1,4.89,4.89,0,0,1-2-.38,4.4,4.4,0,0,1-1.49-1,4.6,4.6,0,0,1-.94-1.55,5.61,5.61,0,0,1-.33-1.94,5.51,5.51,0,0,1,.33-1.93,4.55,4.55,0,0,1,.94-1.56,4.4,4.4,0,0,1,1.49-1,4.89,4.89,0,0,1,2-.38,4.07,4.07,0,0,1,1.66.36,3.2,3.2,0,0,1,1.33,1.15l.85-.71a4.33,4.33,0,0,0-1.73-1.34,5.47,5.47,0,0,0-2.11-.4,6.13,6.13,0,0,0-2.34.44A5.35,5.35,0,0,0,221.47,84a5.69,5.69,0,0,0-1.18,1.85,6.32,6.32,0,0,0-.42,2.34,6.42,6.42,0,0,0,.42,2.35,5.74,5.74,0,0,0,1.18,1.86,5.32,5.32,0,0,0,1.82,1.21,6.13,6.13,0,0,0,2.34.43,5.41,5.41,0,0,0,2.28-.47A4.7,4.7,0,0,0,229.77,92Z" class="cls-3"/><rect width="669.05" height="132.34" y="136.82" class="cls-4"/><path d="M66.26,155.24a47,47,0,1,0,47,47A47,47,0,0,0,66.26,155.24ZM73,227.64H71.69l-6.78-9.75h0v9.75h-1V216.5h1.34L72,226.26h0V216.5h1Zm6.56-4.8v4.8h-1v-4.8l-4.09-6.34h1.25l3.36,5.29,3.45-5.29h1.16Zm12.84,4.61a5.41,5.41,0,0,1-2.28.47,6.13,6.13,0,0,1-2.34-.43A5.32,5.32,0,0,1,86,226.28a5.74,5.74,0,0,1-1.18-1.86,6.42,6.42,0,0,1-.42-2.35,6.32,6.32,0,0,1,.42-2.34A5.69,5.69,0,0,1,86,217.88a5.35,5.35,0,0,1,1.82-1.22,6.13,6.13,0,0,1,2.34-.44,5.47,5.47,0,0,1,2.11.4A4.33,4.33,0,0,1,94,218l-.85.71a3.2,3.2,0,0,0-1.33-1.15,4.07,4.07,0,0,0-1.66-.36,4.89,4.89,0,0,0-2,.38,4.4,4.4,0,0,0-1.49,1,4.55,4.55,0,0,0-.94,1.56,5.51,5.51,0,0,0-.33,1.93,5.61,5.61,0,0,0,.33,1.94,4.6,4.6,0,0,0,.94,1.55,4.4,4.4,0,0,0,1.49,1,4.89,4.89,0,0,0,2,.38,4,4,0,0,0,.88-.1,4.32,4.32,0,0,0,.89-.32,4.25,4.25,0,0,0,.82-.53,3.49,3.49,0,0,0,.7-.78l.85.64A4.7,4.7,0,0,1,92.43,227.45Zm5.2-23.73c-3.13,5.8-7.33,9.09-11.37,9.09a6.24,6.24,0,0,1-5.41-2.61,8.28,8.28,0,0,1-5.32,2.08c-2,0-3.68-.88-3.92-2.8a9.27,9.27,0,0,1-6.85,3.25,6.24,6.24,0,0,1-5.32-2.53,4.44,4.44,0,0,1-3.4,1.88,2.75,2.75,0,0,1-2.77-2.16A9.42,9.42,0,0,1,47,212.65c-2.76,0-4.36-1.09-5-2.93,0,0-1.73,2.24-5.81,2.52-5.2.29-7.76-2.32-7.28-7.68a2.65,2.65,0,0,1-1.37-1c-.28-.44-.52-1.24-.12-1.48a1.55,1.55,0,0,0,1.77,1c1.48-7.93,9.48-17.77,15.09-17.77,1.84,0,3,1.64,3,4,0,5.92-7.29,13.45-13.37,15.37,0,2.08,1.32,4.48,3.84,4.48a4.88,4.88,0,0,0,4.45-2.68c.8-1.56,3.8-7.32,4.56-8.41a3.41,3.41,0,0,1,2-.44c.8,0,1.44.32,1.12,1.21-.48,1.24-1.28,2.92-2,4.4-.56,1.2-1.6,3.32-1.6,4.16a1.64,1.64,0,0,0,1.88,1.76c1.32,0,2.52-.88,3.48-2.84.68-1.4,3-6.88,3.21-7.48s.72-1,2-1c2.52,0,1.6,1.85,1.08,3.21-1.12,2.84-2.44,5.72-2.44,7.12A1.33,1.33,0,0,0,57,209.6a2.14,2.14,0,0,0,1.76-1.36c.08-4.72,4.36-10.65,9.4-10.61,2.61,0,4.33,1.49,4.33,2.57a2.63,2.63,0,0,1-2.24,2.32c-.76,0-1.2-1-1-2.32a3.35,3.35,0,0,0-1.29-.24c-2.36,0-4.76,2.64-4.76,5.72,0,2.2,1.16,3.48,3.24,3.48,2.41,0,4.09-.88,5.89-3.8.76-1.56,2.08-4.6,2.6-5.68a2.07,2.07,0,0,1,2.24-1.25c.92,0,1.8.6,1.32,1.77s-1.6,3.84-2.2,5.44a11,11,0,0,0-.76,2.8c-.08,1,.92,1.48,1.76,1.44a3.72,3.72,0,0,0,2.6-1.36,6.67,6.67,0,0,1-.08-1.28c0-3.88,3.85-9.57,8.53-9.53,2.2,0,4.64.88,5.64,2.93a22.24,22.24,0,0,0,2.17-9.53c0-3.92-1.49-7.41-5.77-7.41a10.38,10.38,0,0,0-8.77,4.49,3.88,3.88,0,0,1,1.53,3.88,3,3,0,0,1-2.85,2.4c-2.92,0-3.76-2.84-2.68-5.24a2.68,2.68,0,0,0-1.8-.16c-.2-.4,1-1.44,2.44-1.32a14.69,14.69,0,0,1,12.25-6.65c6.65,0,10.49,4.69,10.41,11.33A25.05,25.05,0,0,1,97.63,203.72Z" class="cls-6"/><path d="M81.49,192.15a.73.73,0,0,1-.8.68c-1.12,0-.76-2.16-.36-2.88A2.22,2.22,0,0,1,81.49,192.15Z" class="cls-6"/><path d="M92.62,203.28c-2.08,4.72-3.84,5.84-5.88,5.84-1.12,0-2.32-1.12-2.32-3.32a5,5,0,0,1,4.76-5.24A3.94,3.94,0,0,1,92.62,203.28Z" class="cls-6"/><path d="M44.87,188.87c0,2.68-5.89,10.93-11,13.49.28-4.93,5-12,9.53-14.05C44.83,187.67,44.87,188.87,44.87,188.87Z" class="cls-6"/><path d="M199.53,155.24a47,47,0,1,0,47,47A47,47,0,0,0,199.53,155.24Zm6.77,72.4H205l-6.78-9.75h0v9.75h-1V216.5h1.34l6.78,9.76h0V216.5h1Zm6.56-4.8v4.8h-1v-4.8l-4.09-6.34H209l3.36,5.29,3.45-5.29H217Zm12.84,4.61a5.41,5.41,0,0,1-2.28.47,6.13,6.13,0,0,1-2.34-.43,5.32,5.32,0,0,1-1.82-1.21,5.74,5.74,0,0,1-1.18-1.86,6.42,6.42,0,0,1-.42-2.35,6.32,6.32,0,0,1,.42-2.34,5.69,5.69,0,0,1,1.18-1.85,5.35,5.35,0,0,1,1.82-1.22,6.13,6.13,0,0,1,2.34-.44,5.47,5.47,0,0,1,2.11.4,4.33,4.33,0,0,1,1.73,1.34l-.85.71a3.2,3.2,0,0,0-1.33-1.15,4.07,4.07,0,0,0-1.66-.36,4.89,4.89,0,0,0-2,.38,4.4,4.4,0,0,0-1.49,1,4.55,4.55,0,0,0-.94,1.56,5.51,5.51,0,0,0-.33,1.93A5.61,5.61,0,0,0,219,224a4.6,4.6,0,0,0,.94,1.55,4.4,4.4,0,0,0,1.49,1,4.89,4.89,0,0,0,2,.38,4,4,0,0,0,.88-.1,4.32,4.32,0,0,0,.89-.32A4.25,4.25,0,0,0,226,226a3.49,3.49,0,0,0,.7-.78l.85.64A4.7,4.7,0,0,1,225.7,227.45Zm5.2-23.73c-3.13,5.8-7.33,9.09-11.37,9.09a6.24,6.24,0,0,1-5.41-2.61,8.28,8.28,0,0,1-5.32,2.08c-2,0-3.68-.88-3.92-2.8a9.27,9.27,0,0,1-6.85,3.25,6.24,6.24,0,0,1-5.32-2.53,4.44,4.44,0,0,1-3.4,1.88,2.75,2.75,0,0,1-2.77-2.16,9.42,9.42,0,0,1-6.28,2.73c-2.76,0-4.36-1.09-5-2.93,0,0-1.73,2.24-5.81,2.52-5.2.29-7.76-2.32-7.28-7.68a2.65,2.65,0,0,1-1.37-1c-.28-.44-.52-1.24-.12-1.48a1.55,1.55,0,0,0,1.77,1c1.48-7.93,9.48-17.77,15.09-17.77,1.84,0,3,1.64,3,4,0,5.92-7.29,13.45-13.37,15.37,0,2.08,1.32,4.48,3.84,4.48a4.88,4.88,0,0,0,4.45-2.68c.8-1.56,3.8-7.32,4.56-8.41a3.41,3.41,0,0,1,2-.44c.8,0,1.44.32,1.12,1.21-.48,1.24-1.28,2.92-2,4.4-.56,1.2-1.6,3.32-1.6,4.16a1.64,1.64,0,0,0,1.88,1.76c1.32,0,2.52-.88,3.48-2.84.68-1.4,3-6.88,3.21-7.48s.72-1,2-1c2.52,0,1.6,1.85,1.08,3.21-1.12,2.84-2.44,5.72-2.44,7.12a1.33,1.33,0,0,0,1.48,1.44,2.14,2.14,0,0,0,1.76-1.36c.08-4.72,4.36-10.65,9.4-10.61,2.61,0,4.33,1.49,4.33,2.57a2.63,2.63,0,0,1-2.24,2.32c-.76,0-1.2-1-1-2.32a3.35,3.35,0,0,0-1.29-.24c-2.36,0-4.76,2.64-4.76,5.72,0,2.2,1.16,3.48,3.24,3.48,2.41,0,4.09-.88,5.89-3.8.76-1.56,2.08-4.6,2.6-5.68a2.07,2.07,0,0,1,2.24-1.25c.92,0,1.8.6,1.32,1.77s-1.6,3.84-2.2,5.44a11,11,0,0,0-.76,2.8c-.08,1,.92,1.48,1.76,1.44a3.72,3.72,0,0,0,2.6-1.36,6.67,6.67,0,0,1-.08-1.28c0-3.88,3.85-9.57,8.53-9.53,2.2,0,4.64.88,5.64,2.93a22.24,22.24,0,0,0,2.17-9.53c0-3.92-1.49-7.41-5.77-7.41a10.38,10.38,0,0,0-8.77,4.49,3.88,3.88,0,0,1,1.53,3.88,3,3,0,0,1-2.85,2.4c-2.92,0-3.76-2.84-2.68-5.24a2.68,2.68,0,0,0-1.8-.16c-.2-.4,1-1.44,2.44-1.32a14.69,14.69,0,0,1,12.25-6.65c6.65,0,10.49,4.69,10.41,11.33A25.05,25.05,0,0,1,230.9,203.72Z"/><path d="M214.76,192.15a.73.73,0,0,1-.8.68c-1.12,0-.76-2.16-.36-2.88A2.22,2.22,0,0,1,214.76,192.15Z"/><path d="M225.89,203.28c-2.08,4.72-3.84,5.84-5.88,5.84-1.12,0-2.32-1.12-2.32-3.32a5,5,0,0,1,4.76-5.24A3.94,3.94,0,0,1,225.89,203.28Z"/><path d="M178.14,188.87c0,2.68-5.89,10.93-11,13.49.28-4.93,5-12,9.53-14.05C178.1,187.67,178.14,188.87,178.14,188.87Z"/><path d="M332.81,155.24a47,47,0,1,0,47,47A47,47,0,0,0,332.81,155.24Zm6.77,72.4h-1.34l-6.78-9.75h0v9.75h-1V216.5h1.34l6.78,9.76h0V216.5h1Zm6.56-4.8v4.8h-1v-4.8L341,216.5h1.25l3.36,5.29,3.45-5.29h1.16ZM359,227.45a5.41,5.41,0,0,1-2.28.47,6.13,6.13,0,0,1-2.34-.43,5.32,5.32,0,0,1-1.82-1.21,5.74,5.74,0,0,1-1.18-1.86,6.42,6.42,0,0,1-.42-2.35,6.32,6.32,0,0,1,.42-2.34,5.69,5.69,0,0,1,1.18-1.85,5.35,5.35,0,0,1,1.82-1.22,6.13,6.13,0,0,1,2.34-.44,5.47,5.47,0,0,1,2.11.4,4.33,4.33,0,0,1,1.73,1.34l-.85.71a3.2,3.2,0,0,0-1.33-1.15,4.07,4.07,0,0,0-1.66-.36,4.89,4.89,0,0,0-2,.38,4.4,4.4,0,0,0-1.49,1,4.55,4.55,0,0,0-.94,1.56,5.51,5.51,0,0,0-.33,1.93,5.61,5.61,0,0,0,.33,1.94,4.6,4.6,0,0,0,.94,1.55,4.4,4.4,0,0,0,1.49,1,4.89,4.89,0,0,0,2,.38,4,4,0,0,0,.88-.1,4.32,4.32,0,0,0,.89-.32,4.25,4.25,0,0,0,.82-.53,3.49,3.49,0,0,0,.7-.78l.85.64A4.7,4.7,0,0,1,359,227.45Zm5.2-23.73c-3.13,5.8-7.33,9.09-11.37,9.09a6.24,6.24,0,0,1-5.41-2.61,8.28,8.28,0,0,1-5.32,2.08c-2,0-3.68-.88-3.92-2.8a9.27,9.27,0,0,1-6.85,3.25A6.24,6.24,0,0,1,326,210.2a4.44,4.44,0,0,1-3.4,1.88,2.75,2.75,0,0,1-2.77-2.16,9.42,9.42,0,0,1-6.28,2.73c-2.76,0-4.36-1.09-5-2.93,0,0-1.73,2.24-5.81,2.52-5.2.29-7.76-2.32-7.28-7.68a2.65,2.65,0,0,1-1.37-1c-.28-.44-.52-1.24-.12-1.48a1.55,1.55,0,0,0,1.77,1c1.48-7.93,9.48-17.77,15.09-17.77,1.84,0,3,1.64,3,4,0,5.92-7.29,13.45-13.37,15.37,0,2.08,1.32,4.48,3.84,4.48a4.88,4.88,0,0,0,4.45-2.68c.8-1.56,3.8-7.32,4.56-8.41a3.41,3.41,0,0,1,2-.44c.8,0,1.44.32,1.12,1.21-.48,1.24-1.28,2.92-2,4.4-.56,1.2-1.6,3.32-1.6,4.16a1.64,1.64,0,0,0,1.88,1.76c1.32,0,2.52-.88,3.48-2.84.68-1.4,3-6.88,3.21-7.48s.72-1,2-1c2.52,0,1.6,1.85,1.08,3.21-1.12,2.84-2.44,5.72-2.44,7.12a1.33,1.33,0,0,0,1.48,1.44,2.14,2.14,0,0,0,1.76-1.36c.08-4.72,4.36-10.65,9.4-10.61,2.61,0,4.33,1.49,4.33,2.57a2.63,2.63,0,0,1-2.24,2.32c-.76,0-1.2-1-1-2.32a3.35,3.35,0,0,0-1.29-.24c-2.36,0-4.76,2.64-4.76,5.72,0,2.2,1.16,3.48,3.24,3.48,2.41,0,4.09-.88,5.89-3.8.76-1.56,2.08-4.6,2.6-5.68a2.07,2.07,0,0,1,2.24-1.25c.92,0,1.8.6,1.32,1.77s-1.6,3.84-2.2,5.44a11,11,0,0,0-.76,2.8c-.08,1,.92,1.48,1.76,1.44a3.72,3.72,0,0,0,2.6-1.36,6.67,6.67,0,0,1-.08-1.28c0-3.88,3.85-9.57,8.53-9.53,2.2,0,4.64.88,5.64,2.93a22.24,22.24,0,0,0,2.17-9.53c0-3.92-1.49-7.41-5.77-7.41a10.38,10.38,0,0,0-8.77,4.49,3.88,3.88,0,0,1,1.53,3.88,3,3,0,0,1-2.85,2.4c-2.92,0-3.76-2.84-2.68-5.24a2.68,2.68,0,0,0-1.8-.16c-.2-.4,1-1.44,2.44-1.32A14.69,14.69,0,0,1,357,181.1c6.65,0,10.49,4.69,10.41,11.33A25.05,25.05,0,0,1,364.18,203.72Z" class="cls-7"/><path d="M348,192.15a.73.73,0,0,1-.8.68c-1.12,0-.76-2.16-.36-2.88A2.22,2.22,0,0,1,348,192.15Z" class="cls-7"/><path d="M359.17,203.28c-2.08,4.72-3.84,5.84-5.88,5.84-1.12,0-2.32-1.12-2.32-3.32a5,5,0,0,1,4.76-5.24A3.94,3.94,0,0,1,359.17,203.28Z" class="cls-7"/><path d="M311.42,188.87c0,2.68-5.89,10.93-11,13.49.28-4.93,5-12,9.53-14.05C311.38,187.67,311.42,188.87,311.42,188.87Z" class="cls-7"/><path d="M466.08,155.24a47,47,0,1,0,47,47A47,47,0,0,0,466.08,155.24Zm6.77,72.4h-1.34l-6.78-9.75h0v9.75h-1V216.5H465l6.78,9.76h0V216.5h1Zm6.56-4.8v4.8h-1v-4.8l-4.09-6.34h1.25l3.36,5.29,3.45-5.29h1.16Zm12.84,4.61a5.41,5.41,0,0,1-2.28.47,6.13,6.13,0,0,1-2.34-.43,5.32,5.32,0,0,1-1.82-1.21,5.74,5.74,0,0,1-1.18-1.86,6.42,6.42,0,0,1-.42-2.35,6.32,6.32,0,0,1,.42-2.34,5.69,5.69,0,0,1,1.18-1.85,5.35,5.35,0,0,1,1.82-1.22,6.13,6.13,0,0,1,2.34-.44,5.47,5.47,0,0,1,2.11.4,4.33,4.33,0,0,1,1.73,1.34l-.85.71a3.2,3.2,0,0,0-1.33-1.15,4.07,4.07,0,0,0-1.66-.36,4.89,4.89,0,0,0-2,.38,4.4,4.4,0,0,0-1.49,1,4.55,4.55,0,0,0-.94,1.56,5.51,5.51,0,0,0-.33,1.93,5.61,5.61,0,0,0,.33,1.94,4.6,4.6,0,0,0,.94,1.55,4.4,4.4,0,0,0,1.49,1,4.89,4.89,0,0,0,2,.38,4,4,0,0,0,.88-.1,4.32,4.32,0,0,0,.89-.32,4.25,4.25,0,0,0,.82-.53,3.49,3.49,0,0,0,.7-.78l.85.64A4.7,4.7,0,0,1,492.25,227.45Zm5.2-23.73c-3.13,5.8-7.33,9.09-11.37,9.09a6.24,6.24,0,0,1-5.41-2.61,8.28,8.28,0,0,1-5.32,2.08c-2,0-3.68-.88-3.92-2.8a9.27,9.27,0,0,1-6.85,3.25,6.24,6.24,0,0,1-5.32-2.53,4.44,4.44,0,0,1-3.4,1.88,2.75,2.75,0,0,1-2.77-2.16,9.42,9.42,0,0,1-6.28,2.73c-2.76,0-4.36-1.09-5-2.93,0,0-1.73,2.24-5.81,2.52-5.2.29-7.76-2.32-7.28-7.68a2.65,2.65,0,0,1-1.37-1c-.28-.44-.52-1.24-.12-1.48a1.55,1.55,0,0,0,1.77,1c1.48-7.93,9.48-17.77,15.09-17.77,1.84,0,3,1.64,3,4,0,5.92-7.29,13.45-13.37,15.37,0,2.08,1.32,4.48,3.84,4.48a4.88,4.88,0,0,0,4.45-2.68c.8-1.56,3.8-7.32,4.56-8.41a3.41,3.41,0,0,1,2-.44c.8,0,1.44.32,1.12,1.21-.48,1.24-1.28,2.92-2,4.4-.56,1.2-1.6,3.32-1.6,4.16a1.64,1.64,0,0,0,1.88,1.76c1.32,0,2.52-.88,3.48-2.84.68-1.4,3-6.88,3.21-7.48s.72-1,2-1c2.52,0,1.6,1.85,1.08,3.21-1.12,2.84-2.44,5.72-2.44,7.12a1.33,1.33,0,0,0,1.48,1.44,2.14,2.14,0,0,0,1.76-1.36c.08-4.72,4.36-10.65,9.4-10.61,2.61,0,4.33,1.49,4.33,2.57a2.63,2.63,0,0,1-2.24,2.32c-.76,0-1.2-1-1-2.32a3.35,3.35,0,0,0-1.29-.24c-2.36,0-4.76,2.64-4.76,5.72,0,2.2,1.16,3.48,3.24,3.48,2.41,0,4.09-.88,5.89-3.8.76-1.56,2.08-4.6,2.6-5.68a2.07,2.07,0,0,1,2.24-1.25c.92,0,1.8.6,1.32,1.77s-1.6,3.84-2.2,5.44a11,11,0,0,0-.76,2.8c-.08,1,.92,1.48,1.76,1.44a3.72,3.72,0,0,0,2.6-1.36,6.67,6.67,0,0,1-.08-1.28c0-3.88,3.85-9.57,8.53-9.53,2.2,0,4.64.88,5.64,2.93a22.24,22.24,0,0,0,2.17-9.53c0-3.92-1.49-7.41-5.77-7.41a10.38,10.38,0,0,0-8.77,4.49,3.88,3.88,0,0,1,1.53,3.88,3,3,0,0,1-2.85,2.4c-2.92,0-3.76-2.84-2.68-5.24a2.68,2.68,0,0,0-1.8-.16c-.2-.4,1-1.44,2.44-1.32a14.69,14.69,0,0,1,12.25-6.65c6.65,0,10.49,4.69,10.41,11.33A25.05,25.05,0,0,1,497.45,203.72Z" class="cls-8"/><path d="M481.31,192.15a.73.73,0,0,1-.8.68c-1.12,0-.76-2.16-.36-2.88A2.22,2.22,0,0,1,481.31,192.15Z" class="cls-8"/><path d="M492.44,203.28c-2.08,4.72-3.84,5.84-5.88,5.84-1.12,0-2.32-1.12-2.32-3.32a5,5,0,0,1,4.76-5.24A3.94,3.94,0,0,1,492.44,203.28Z" class="cls-8"/><path d="M444.69,188.87c0,2.68-5.89,10.93-11,13.49.28-4.93,5-12,9.53-14.05C444.65,187.67,444.69,188.87,444.69,188.87Z" class="cls-8"/><path d="M599.36,155.24a47,47,0,1,0,47,47A47,47,0,0,0,599.36,155.24Zm6.77,72.4h-1.34L598,217.89h0v9.75h-1V216.5h1.34l6.78,9.76h0V216.5h1Zm6.56-4.8v4.8h-1v-4.8l-4.09-6.34h1.25l3.36,5.29,3.45-5.29h1.16Zm12.84,4.61a5.41,5.41,0,0,1-2.28.47,6.13,6.13,0,0,1-2.34-.43,5.32,5.32,0,0,1-1.82-1.21,5.74,5.74,0,0,1-1.18-1.86,6.42,6.42,0,0,1-.42-2.35,6.32,6.32,0,0,1,.42-2.34,5.69,5.69,0,0,1,1.18-1.85,5.35,5.35,0,0,1,1.82-1.22,6.13,6.13,0,0,1,2.34-.44,5.47,5.47,0,0,1,2.11.4,4.33,4.33,0,0,1,1.73,1.34l-.85.71a3.2,3.2,0,0,0-1.33-1.15,4.07,4.07,0,0,0-1.66-.36,4.89,4.89,0,0,0-2,.38,4.4,4.4,0,0,0-1.49,1,4.55,4.55,0,0,0-.94,1.56,5.51,5.51,0,0,0-.33,1.93,5.61,5.61,0,0,0,.33,1.94,4.6,4.6,0,0,0,.94,1.55,4.4,4.4,0,0,0,1.49,1,4.89,4.89,0,0,0,2,.38,4,4,0,0,0,.88-.1,4.32,4.32,0,0,0,.89-.32,4.25,4.25,0,0,0,.82-.53,3.49,3.49,0,0,0,.7-.78l.85.64A4.7,4.7,0,0,1,625.53,227.45Zm5.2-23.73c-3.13,5.8-7.33,9.09-11.37,9.09A6.24,6.24,0,0,1,614,210.2a8.28,8.28,0,0,1-5.32,2.08c-2,0-3.68-.88-3.92-2.8a9.27,9.27,0,0,1-6.85,3.25,6.24,6.24,0,0,1-5.32-2.53,4.44,4.44,0,0,1-3.4,1.88,2.75,2.75,0,0,1-2.77-2.16,9.42,9.42,0,0,1-6.28,2.73c-2.76,0-4.36-1.09-5-2.93,0,0-1.73,2.24-5.81,2.52-5.2.29-7.76-2.32-7.28-7.68a2.65,2.65,0,0,1-1.37-1c-.28-.44-.52-1.24-.12-1.48a1.55,1.55,0,0,0,1.77,1c1.48-7.93,9.48-17.77,15.09-17.77,1.84,0,3,1.64,3,4,0,5.92-7.29,13.45-13.37,15.37,0,2.08,1.32,4.48,3.84,4.48a4.88,4.88,0,0,0,4.45-2.68c.8-1.56,3.8-7.32,4.56-8.41a3.41,3.41,0,0,1,2-.44c.8,0,1.44.32,1.12,1.21-.48,1.24-1.28,2.92-2,4.4-.56,1.2-1.6,3.32-1.6,4.16a1.64,1.64,0,0,0,1.88,1.76c1.32,0,2.52-.88,3.48-2.84.68-1.4,3-6.88,3.21-7.48s.72-1,2-1c2.52,0,1.6,1.85,1.08,3.21-1.12,2.84-2.44,5.72-2.44,7.12a1.33,1.33,0,0,0,1.48,1.44,2.14,2.14,0,0,0,1.76-1.36c.08-4.72,4.36-10.65,9.4-10.61,2.61,0,4.33,1.49,4.33,2.57a2.63,2.63,0,0,1-2.24,2.32c-.76,0-1.2-1-1-2.32A3.35,3.35,0,0,0,601,200c-2.36,0-4.76,2.64-4.76,5.72,0,2.2,1.16,3.48,3.24,3.48,2.41,0,4.09-.88,5.89-3.8.76-1.56,2.08-4.6,2.6-5.68a2.07,2.07,0,0,1,2.24-1.25c.92,0,1.8.6,1.32,1.77s-1.6,3.84-2.2,5.44a11,11,0,0,0-.76,2.8c-.08,1,.92,1.48,1.76,1.44a3.72,3.72,0,0,0,2.6-1.36,6.67,6.67,0,0,1-.08-1.28c0-3.88,3.85-9.57,8.53-9.53,2.2,0,4.64.88,5.64,2.93a22.24,22.24,0,0,0,2.17-9.53c0-3.92-1.49-7.41-5.77-7.41a10.38,10.38,0,0,0-8.77,4.49,3.88,3.88,0,0,1,1.53,3.88,3,3,0,0,1-2.85,2.4c-2.92,0-3.76-2.84-2.68-5.24a2.68,2.68,0,0,0-1.8-.16c-.2-.4,1-1.44,2.44-1.32a14.69,14.69,0,0,1,12.25-6.65c6.65,0,10.49,4.69,10.41,11.33A25.05,25.05,0,0,1,630.73,203.72Z" class="cls-9"/><path d="M614.59,192.15a.73.73,0,0,1-.8.68c-1.12,0-.76-2.16-.36-2.88A2.22,2.22,0,0,1,614.59,192.15Z" class="cls-9"/><path d="M625.72,203.28c-2.08,4.72-3.84,5.84-5.88,5.84-1.12,0-2.32-1.12-2.32-3.32a5,5,0,0,1,4.76-5.24A3.94,3.94,0,0,1,625.72,203.28Z" class="cls-9"/><path d="M578,188.87c0,2.68-5.89,10.93-11,13.49.28-4.93,5-12,9.53-14.05C577.93,187.67,578,188.87,578,188.87Z" class="cls-9"/></svg>