<svg width="66" height="50" viewBox="0 0 66 50" fill="none" xmlns="http://www.w3.org/2000/svg">
<g clip-path="url(#clip0_2816_8014)">
<rect width="65.7895" height="50" fill="#EEEEEE"/>
<rect width="66" height="50" fill="#FF4B4B"/>
<path d="M32.7917 25L44.0984 21.3267L37.11 30.9442V19.0558L44.0984 28.6733L32.7917 25ZM33.5625 31.6842C32.1143 33.9727 29.962 35.729 27.4295 36.6888C24.897 37.6485 22.1213 37.7598 19.5201 37.0059C16.9189 36.252 14.6329 34.6737 13.0061 32.5085C11.3793 30.3433 10.4998 27.7083 10.4998 25C10.4998 22.2917 11.3793 19.6567 13.0061 17.4915C14.6329 15.3263 16.9189 13.748 19.5201 12.9941C22.1213 12.2402 24.897 12.3515 27.4295 13.3112C29.962 14.271 32.1143 16.0273 33.5625 18.3158C32.2101 16.811 30.4331 15.7517 28.4661 15.278C26.4991 14.8043 24.4347 14.9383 22.5454 15.6625C20.6562 16.3866 19.0311 17.6668 17.8847 19.334C16.7384 21.0011 16.1246 22.9768 16.1246 25C16.1246 27.0232 16.7384 28.9989 17.8847 30.666C19.0311 32.3332 20.6562 33.6134 22.5454 34.3375C24.4347 35.0617 26.4991 35.1958 28.4661 34.722C30.4331 34.2483 32.2101 33.189 33.5625 31.6842Z" fill="white"/>
</g>
<defs>
<clipPath id="clip0_2816_8014">
<rect width="65.7895" height="50" fill="white"/>
</clipPath>
</defs>
</svg>
