<svg height="950" viewBox="0 0 2070 950" width="2070" xmlns="http://www.w3.org/2000/svg"><g fill="none" fill-rule="evenodd"><path d="m0 0h2070v950h-2070z" fill="#000"/><g transform="translate(487 559)"><path d="m62.8824535 220.996226c2.376356 2.654042 3.8214123 6.159352 3.8214123 10.002173 0 8.284271-6.7157288 15-15 15-3.8428206 0-7.3481303-1.445057-10.0021725-3.821413l-.0196027.019603c-.1334413-.136222-.2665543-.272646-.399339-.40927-.2542584-.245644-.4998577-.500193-.7362954-.763145-53.4490408-55.804994-52.718765-144.3772979 2.1908275-199.2868903 55.6497116-55.6497116 145.8757213-55.6497116 201.5254323 0 54.009059 54.0090591 55.601343 140.5857273 4.77685 196.5150883-1.210803 1.332418-2.451356 2.647442-3.721657 3.944217l-.158674-.158675c-2.67163 2.45893-6.238146 3.960485-10.155369 3.960485-8.284271 0-15-6.715729-15-15 0-4.88802 2.338032-9.229964 5.956778-11.968512.81586-.877932 1.615102-1.765723 2.397726-2.662971 38.547453-44.19323 36.777834-111.329738-5.308857-153.4164289-43.933983-43.9339828-115.165043-43.9339828-159.0990259 0-43.5798843 43.5798839-43.9311288 114.0186019-1.0537337 158.0314389z" fill="#1fdf69" fill-opacity=".15"/><path d="m242.318117 39.8341074c.292598.2627339.574811.5368037.845947.8215183.009554.0093538.019107.0187091.028659.0280662 2.545412 2.6892658 4.107277 6.3195897 4.107277 10.3147068 0 8.2842713-6.715729 15-15 15-3.995117 0-7.625441-1.5618652-10.31368-4.1083037l-.00826.0082597c-44.012837-42.8773952-114.451554-42.5261506-158.0314387 1.0537337-43.5798843 43.5798846-43.9311288 114.0186016-1.0537337 158.0314396l-.0115039.011503c2.3769921 2.654185 3.8224821 6.15997 3.8224821 10.003368 0 8.284271-6.7157288 15-15 15-3.8433973 0-7.3491823-1.44549-10.0033673-3.822482l-.0222737.022273c-.166411-.169879-.3323114-.340071-.4977013-.510575-.1840052-.181167-.3633546-.36705-.5378524-.557452-53.5500114-55.79888-52.8530939-144.4474374 2.0907468-199.3912781 55.0073697-55.0073697 143.7974441-55.6422972 199.5846931-1.9047827z" fill="#1fdf69"/><path d="m90.3027344 280v-22.620117h5.7832031v3.691406h.3691406c.9228516-2.583984 3.28125-4.183594 6.2548829-4.183594 3.178711 0 5.352539 1.558594 6.254883 4.183594h.36914c1.045899-2.522461 3.650391-4.183594 6.808594-4.183594 4.511719 0 7.321289 2.932617 7.321289 7.587891v15.524414h-5.967773v-13.945312c0-2.686524-1.250977-4.019532-3.773438-4.019532-2.419922 0-3.978515 1.722656-3.978515 4.122071v13.842773h-5.742188v-14.191406c0-2.399414-1.394531-3.773438-3.732422-3.773438-2.3378904 0-3.9990232 1.825196-3.9990232 4.347656v13.617188zm38.9853516 0v-22.620117h5.967773v22.620117zm2.994141-26.003906c-1.845704 0-3.383789-1.517578-3.383789-3.424805s1.538085-3.404297 3.383789-3.404297c1.866211 0 3.383789 1.49707 3.383789 3.404297s-1.517578 3.424805-3.383789 3.424805zm9.208007 26.003906v-31.253906h5.967774v31.253906zm21.94336-18.539062c-2.768555 0-4.716797 1.927734-4.921875 4.860351h9.638672c-.123047-2.994141-1.927735-4.860351-4.716797-4.860351zm4.839844 12.099609h5.557617c-.881836 4.245117-4.798828 6.931641-10.335938 6.931641-6.890625 0-10.951172-4.347657-10.951172-11.689454 0-7.362304 4.142578-11.915039 10.869141-11.915039 6.665039 0 10.602539 4.245117 10.602539 11.422852v1.825195h-15.524414v.307617c.082031 3.363282 2.050781 5.455079 5.167969 5.455079 2.358398 0 3.978515-.840821 4.614258-2.337891zm10.110351-9.536133c0-4.286133 3.773438-7.136719 9.413086-7.136719 5.742187 0 9.125977 2.399414 9.454102 6.726563h-5.516602c-.307617-1.456055-1.681641-2.358399-3.896484-2.358399-2.132813 0-3.711914.963868-3.711914 2.399414 0 1.107422.963867 1.78418 3.055664 2.25586l4.245117.922851c4.388672.963868 6.357422 2.809571 6.357422 6.19336 0 4.511718-4.040039 7.464844-9.966797 7.464844-5.967774 0-9.577149-2.44043-9.987305-6.788086h5.824219c.451172 1.538086 1.907226 2.419921 4.286133 2.419921 2.317382 0 3.916992-.963867 3.916992-2.419921 0-1.107422-.861328-1.78418-2.850586-2.214844l-4.101563-.922852c-4.388671-.963867-6.521484-3.055664-6.521484-6.541992z" fill="#fefffe"/><path d="m76 215.935811 58.367088-58.391254 29.222388 35.127546 50.783103-117.672103-60.028165 56.707923-26.566145-32.1780141z" fill="#1fdf69"/><path d="m69.5949707 175v-58.908691h-.9228516l-18.149414 12.509765v-14.406738l19.1235351-13.17627h15.4321289v73.981934zm64.9072263 1.896973c-17.790527 0-29.838867-8.76709-29.838867-21.635743 0-9.279785 6.408691-16.713867 16.303711-18.918457v-.922851c-8.049316-1.845703-13.330078-8.254395-13.330078-16.098633 0-11.791992 11.176758-20.2001952 26.916504-20.2001952 15.688476 0 26.865234 8.4082032 26.865234 20.2001952 0 7.895508-5.229492 14.20166-13.330078 16.098633v.922851c9.84375 1.845704 16.354981 9.331055 16.354981 18.764649 0 12.971191-12.150879 21.789551-29.941407 21.789551zm0-11.689453c8.151856 0 13.791504-4.665528 13.791504-11.381836 0-6.767579-5.639648-11.433106-13.791504-11.433106-8.100586 0-13.740234 4.665527-13.740234 11.433106 0 6.716308 5.639648 11.381836 13.740234 11.381836zm0-34.248047c6.870117 0 11.638184-4.204102 11.638184-10.151368 0-5.998535-4.768067-10.202636-11.638184-10.202636s-11.586914 4.204101-11.586914 10.202636c0 5.947266 4.768067 10.151368 11.586914 10.151368zm71.008301 45.9375c-14.047852 0-25.019531-8.356934-27.070312-20.712891h15.329589c1.333008 4.870606 6.101075 7.998047 11.945801 7.998047 10.048828 0 15.944824-9.484863 15.893555-25.17334h-.922852c-3.383789 6.921387-10.253906 10.817871-18.867187 10.817871-14.047852 0-24.353028-10.305176-24.353028-24.404297 0-15.380859 11.740723-26.3012692 28.300782-26.3012692 18.764648 0 30.60791 14.2529292 30.60791 38.2983402 0 24.609375-11.586914 39.477539-30.864258 39.477539zm.358887-38.913575c7.895508 0 13.432617-5.43457 13.432617-12.817382 0-7.536621-5.639648-13.381348-13.381348-13.381348-7.741699 0-13.432617 5.742187-13.432617 13.125 0 7.69043 5.48584 13.07373 13.381348 13.07373z" fill="#fefffe"/></g><g transform="translate(892 110)"><path d="m62.8824535 220.996226c2.376356 2.654042 3.8214123 6.159352 3.8214123 10.002173 0 8.284271-6.7157288 15-15 15-3.8428206 0-7.3481303-1.445057-10.0021725-3.821413l-.0196027.019603c-.1334413-.136222-.2665543-.272646-.399339-.40927-.2542584-.245644-.4998577-.500193-.7362954-.763145-53.4490408-55.804994-52.718765-144.3772979 2.1908275-199.2868903 55.6497116-55.6497116 145.8757213-55.6497116 201.5254323 0 54.009059 54.0090591 55.601343 140.5857273 4.77685 196.5150883-1.210803 1.332418-2.451356 2.647442-3.721657 3.944217l-.158674-.158675c-2.67163 2.45893-6.238146 3.960485-10.155369 3.960485-8.284271 0-15-6.715729-15-15 0-4.88802 2.338032-9.229964 5.956778-11.968512.81586-.877932 1.615102-1.765723 2.397726-2.662971 38.547453-44.19323 36.777834-111.329738-5.308857-153.4164289-43.933983-43.9339828-115.165043-43.9339828-159.0990259 0-43.5798843 43.5798839-43.9311288 114.0186019-1.0537337 158.0314389z" fill="#1fdf69" fill-opacity=".15"/><path d="m242.318117 39.8341074c.292598.2627339.574811.5368037.845947.8215183.009554.0093538.019107.0187091.028659.0280662 2.545412 2.6892658 4.107277 6.3195897 4.107277 10.3147068 0 8.2842713-6.715729 15-15 15-3.995117 0-7.625441-1.5618652-10.31368-4.1083037l-.00826.0082597c-44.012837-42.8773952-114.451554-42.5261506-158.0314387 1.0537337-43.5798843 43.5798846-43.9311288 114.0186016-1.0537337 158.0314396l-.0115039.011503c2.3769921 2.654185 3.8224821 6.15997 3.8224821 10.003368 0 8.284271-6.7157288 15-15 15-3.8433973 0-7.3491823-1.44549-10.0033673-3.822482l-.0222737.022273c-.166411-.169879-.3323114-.340071-.4977013-.510575-.1840052-.181167-.3633546-.36705-.5378524-.557452-53.5500114-55.79888-52.8530939-144.4474374 2.0907468-199.3912781 55.0073697-55.0073697 143.7974441-55.6422972 199.5846931-1.9047827z" fill="#1fdf69"/><g fill="#fefffe"><path d="m90.3027344 280v-22.620117h5.7832031v3.691406h.3691406c.9228516-2.583984 3.28125-4.183594 6.2548829-4.183594 3.178711 0 5.352539 1.558594 6.254883 4.183594h.36914c1.045899-2.522461 3.650391-4.183594 6.808594-4.183594 4.511719 0 7.321289 2.932617 7.321289 7.587891v15.524414h-5.967773v-13.945312c0-2.686524-1.250977-4.019532-3.773438-4.019532-2.419922 0-3.978515 1.722656-3.978515 4.122071v13.842773h-5.742188v-14.191406c0-2.399414-1.394531-3.773438-3.732422-3.773438-2.3378904 0-3.9990232 1.825196-3.9990232 4.347656v13.617188zm38.9853516 0v-22.620117h5.967773v22.620117zm2.994141-26.003906c-1.845704 0-3.383789-1.517578-3.383789-3.424805s1.538085-3.404297 3.383789-3.404297c1.866211 0 3.383789 1.49707 3.383789 3.404297s-1.517578 3.424805-3.383789 3.424805zm9.208007 26.003906v-31.253906h5.967774v31.253906zm21.94336-18.539062c-2.768555 0-4.716797 1.927734-4.921875 4.860351h9.638672c-.123047-2.994141-1.927735-4.860351-4.716797-4.860351zm4.839844 12.099609h5.557617c-.881836 4.245117-4.798828 6.931641-10.335938 6.931641-6.890625 0-10.951172-4.347657-10.951172-11.689454 0-7.362304 4.142578-11.915039 10.869141-11.915039 6.665039 0 10.602539 4.245117 10.602539 11.422852v1.825195h-15.524414v.307617c.082031 3.363282 2.050781 5.455079 5.167969 5.455079 2.358398 0 3.978515-.840821 4.614258-2.337891zm10.110351-9.536133c0-4.286133 3.773438-7.136719 9.413086-7.136719 5.742187 0 9.125977 2.399414 9.454102 6.726563h-5.516602c-.307617-1.456055-1.681641-2.358399-3.896484-2.358399-2.132813 0-3.711914.963868-3.711914 2.399414 0 1.107422.963867 1.78418 3.055664 2.25586l4.245117.922851c4.388672.963868 6.357422 2.809571 6.357422 6.19336 0 4.511718-4.040039 7.464844-9.966797 7.464844-5.967774 0-9.577149-2.44043-9.987305-6.788086h5.824219c.451172 1.538086 1.907226 2.419921 4.286133 2.419921 2.317382 0 3.916992-.963867 3.916992-2.419921 0-1.107422-.861328-1.78418-2.850586-2.214844l-4.101563-.922852c-4.388671-.963867-6.521484-3.055664-6.521484-6.541992z"/><path d="m69.5949707 175v-58.908691h-.9228516l-18.149414 12.509765v-14.406738l19.1235351-13.17627h15.4321289v73.981934zm64.9072263 1.896973c-17.790527 0-29.838867-8.76709-29.838867-21.635743 0-9.279785 6.408691-16.713867 16.303711-18.918457v-.922851c-8.049316-1.845703-13.330078-8.254395-13.330078-16.098633 0-11.791992 11.176758-20.2001952 26.916504-20.2001952 15.688476 0 26.865234 8.4082032 26.865234 20.2001952 0 7.895508-5.229492 14.20166-13.330078 16.098633v.922851c9.84375 1.845704 16.354981 9.331055 16.354981 18.764649 0 12.971191-12.150879 21.789551-29.941407 21.789551zm0-11.689453c8.151856 0 13.791504-4.665528 13.791504-11.381836 0-6.767579-5.639648-11.433106-13.791504-11.433106-8.100586 0-13.740234 4.665527-13.740234 11.433106 0 6.716308 5.639648 11.381836 13.740234 11.381836zm0-34.248047c6.870117 0 11.638184-4.204102 11.638184-10.151368 0-5.998535-4.768067-10.202636-11.638184-10.202636s-11.586914 4.204101-11.586914 10.202636c0 5.947266 4.768067 10.151368 11.586914 10.151368zm71.008301 45.9375c-14.047852 0-25.019531-8.356934-27.070312-20.712891h15.329589c1.333008 4.870606 6.101075 7.998047 11.945801 7.998047 10.048828 0 15.944824-9.484863 15.893555-25.17334h-.922852c-3.383789 6.921387-10.253906 10.817871-18.867187 10.817871-14.047852 0-24.353028-10.305176-24.353028-24.404297 0-15.380859 11.740723-26.3012692 28.300782-26.3012692 18.764648 0 30.60791 14.2529292 30.60791 38.2983402 0 24.609375-11.586914 39.477539-30.864258 39.477539zm.358887-38.913575c7.895508 0 13.432617-5.43457 13.432617-12.817382 0-7.536621-5.639648-13.381348-13.381348-13.381348-7.741699 0-13.432617 5.742187-13.432617 13.125 0 7.69043 5.48584 13.07373 13.381348 13.07373z"/></g></g><g fill="#4a4a4a" transform="translate(82 559)"><path d="m62.8824535 220.996226c2.376356 2.654042 3.8214123 6.159352 3.8214123 10.002173 0 8.284271-6.7157288 15-15 15-3.8428206 0-7.3481303-1.445057-10.0021725-3.821413l-.0196027.019603c-.1334413-.136222-.2665543-.272646-.399339-.40927-.2542584-.245644-.4998577-.500193-.7362954-.763145-53.4490408-55.804994-52.718765-144.3772979 2.1908275-199.2868903 55.6497116-55.6497116 145.8757213-55.6497116 201.5254323 0 54.009059 54.0090591 55.601343 140.5857273 4.77685 196.5150883-1.210803 1.332418-2.451356 2.647442-3.721657 3.944217l-.158674-.158675c-2.67163 2.45893-6.238146 3.960485-10.155369 3.960485-8.284271 0-15-6.715729-15-15 0-4.88802 2.338032-9.229964 5.956778-11.968512.81586-.877932 1.615102-1.765723 2.397726-2.662971 38.547453-44.19323 36.777834-111.329738-5.308857-153.4164289-43.933983-43.9339828-115.165043-43.9339828-159.0990259 0-43.5798843 43.5798839-43.9311288 114.0186019-1.0537337 158.0314389z" fill-opacity=".15"/><path d="m242.318117 39.8341074c.292598.2627339.574811.5368037.845947.8215183.009554.0093538.019107.0187091.028659.0280662 2.545412 2.6892658 4.107277 6.3195897 4.107277 10.3147068 0 8.2842713-6.715729 15-15 15-3.995117 0-7.625441-1.5618652-10.31368-4.1083037l-.00826.0082597c-44.012837-42.8773952-114.451554-42.5261506-158.0314387 1.0537337-43.5798843 43.5798846-43.9311288 114.0186016-1.0537337 158.0314396l-.0115039.011503c2.3769921 2.654185 3.8224821 6.15997 3.8224821 10.003368 0 8.284271-6.7157288 15-15 15-3.8433973 0-7.3491823-1.44549-10.0033673-3.822482l-.0222737.022273c-.166411-.169879-.3323114-.340071-.4977013-.510575-.1840052-.181167-.3633546-.36705-.5378524-.557452-53.5500114-55.79888-52.8530939-144.4474374 2.0907468-199.3912781 55.0073697-55.0073697 143.7974441-55.6422972 199.5846931-1.9047827z"/><path d="m90.3027344 280v-22.620117h5.7832031v3.691406h.3691406c.9228516-2.583984 3.28125-4.183594 6.2548829-4.183594 3.178711 0 5.352539 1.558594 6.254883 4.183594h.36914c1.045899-2.522461 3.650391-4.183594 6.808594-4.183594 4.511719 0 7.321289 2.932617 7.321289 7.587891v15.524414h-5.967773v-13.945312c0-2.686524-1.250977-4.019532-3.773438-4.019532-2.419922 0-3.978515 1.722656-3.978515 4.122071v13.842773h-5.742188v-14.191406c0-2.399414-1.394531-3.773438-3.732422-3.773438-2.3378904 0-3.9990232 1.825196-3.9990232 4.347656v13.617188zm38.9853516 0v-22.620117h5.967773v22.620117zm2.994141-26.003906c-1.845704 0-3.383789-1.517578-3.383789-3.424805s1.538085-3.404297 3.383789-3.404297c1.866211 0 3.383789 1.49707 3.383789 3.404297s-1.517578 3.424805-3.383789 3.424805zm9.208007 26.003906v-31.253906h5.967774v31.253906zm21.94336-18.539062c-2.768555 0-4.716797 1.927734-4.921875 4.860351h9.638672c-.123047-2.994141-1.927735-4.860351-4.716797-4.860351zm4.839844 12.099609h5.557617c-.881836 4.245117-4.798828 6.931641-10.335938 6.931641-6.890625 0-10.951172-4.347657-10.951172-11.689454 0-7.362304 4.142578-11.915039 10.869141-11.915039 6.665039 0 10.602539 4.245117 10.602539 11.422852v1.825195h-15.524414v.307617c.082031 3.363282 2.050781 5.455079 5.167969 5.455079 2.358398 0 3.978515-.840821 4.614258-2.337891zm10.110351-9.536133c0-4.286133 3.773438-7.136719 9.413086-7.136719 5.742187 0 9.125977 2.399414 9.454102 6.726563h-5.516602c-.307617-1.456055-1.681641-2.358399-3.896484-2.358399-2.132813 0-3.711914.963868-3.711914 2.399414 0 1.107422.963867 1.78418 3.055664 2.25586l4.245117.922851c4.388672.963868 6.357422 2.809571 6.357422 6.19336 0 4.511718-4.040039 7.464844-9.966797 7.464844-5.967774 0-9.577149-2.44043-9.987305-6.788086h5.824219c.451172 1.538086 1.907226 2.419921 4.286133 2.419921 2.317382 0 3.916992-.963867 3.916992-2.419921 0-1.107422-.861328-1.78418-2.850586-2.214844l-4.101563-.922852c-4.388671-.963867-6.521484-3.055664-6.521484-6.541992z"/><path d="m69.5949707 175v-58.908691h-.9228516l-18.149414 12.509765v-14.406738l19.1235351-13.17627h15.4321289v73.981934zm64.9072263 1.896973c-17.790527 0-29.838867-8.76709-29.838867-21.635743 0-9.279785 6.408691-16.713867 16.303711-18.918457v-.922851c-8.049316-1.845703-13.330078-8.254395-13.330078-16.098633 0-11.791992 11.176758-20.2001952 26.916504-20.2001952 15.688476 0 26.865234 8.4082032 26.865234 20.2001952 0 7.895508-5.229492 14.20166-13.330078 16.098633v.922851c9.84375 1.845704 16.354981 9.331055 16.354981 18.764649 0 12.971191-12.150879 21.789551-29.941407 21.789551zm0-11.689453c8.151856 0 13.791504-4.665528 13.791504-11.381836 0-6.767579-5.639648-11.433106-13.791504-11.433106-8.100586 0-13.740234 4.665527-13.740234 11.433106 0 6.716308 5.639648 11.381836 13.740234 11.381836zm0-34.248047c6.870117 0 11.638184-4.204102 11.638184-10.151368 0-5.998535-4.768067-10.202636-11.638184-10.202636s-11.586914 4.204101-11.586914 10.202636c0 5.947266 4.768067 10.151368 11.586914 10.151368zm71.008301 45.9375c-14.047852 0-25.019531-8.356934-27.070312-20.712891h15.329589c1.333008 4.870606 6.101075 7.998047 11.945801 7.998047 10.048828 0 15.944824-9.484863 15.893555-25.17334h-.922852c-3.383789 6.921387-10.253906 10.817871-18.867187 10.817871-14.047852 0-24.353028-10.305176-24.353028-24.404297 0-15.380859 11.740723-26.3012692 28.300782-26.3012692 18.764648 0 30.60791 14.2529292 30.60791 38.2983402 0 24.609375-11.586914 39.477539-30.864258 39.477539zm.358887-38.913575c7.895508 0 13.432617-5.43457 13.432617-12.817382 0-7.536621-5.639648-13.381348-13.381348-13.381348-7.741699 0-13.432617 5.742187-13.432617 13.125 0 7.69043 5.48584 13.07373 13.381348 13.07373z"/></g><g transform="translate(1266 48)"><path d="m94.8824535 279.996226c2.376356 2.654042 3.8214123 6.159352 3.8214123 10.002173 0 8.284271-6.7157288 15-15 15-3.8428206 0-7.3481303-1.445057-10.0021725-3.821413l-.0196027.019603c-.1334413-.136222-.2665543-.272646-.399339-.40927-.2542584-.245644-.4998577-.500193-.7362954-.763145-53.4490408-55.804994-52.718765-144.377298 2.1908275-199.28689 55.6497113-55.6497119 145.8757213-55.6497119 201.5254323 0 54.009059 54.009059 55.601343 140.585727 4.77685 196.515088-1.210803 1.332418-2.451356 2.647442-3.721657 3.944217l-.158674-.158675c-2.67163 2.45893-6.238146 3.960485-10.155369 3.960485-8.284271 0-15-6.715729-15-15 0-4.88802 2.338032-9.229964 5.956778-11.968512.81586-.877932 1.615102-1.765723 2.397726-2.662971 38.547453-44.19323 36.777834-111.329738-5.308857-153.416429-43.933983-43.9339827-115.165043-43.9339827-159.0990259 0-43.5798843 43.579884-43.9311288 114.018602-1.0537337 158.031439z" fill="#1fdf69" fill-opacity=".15"/><path d="m292.249034 90.8444585c.292598.2627339.574811.5368037.845947.8215183.009554.0093537.019107.0187091.028659.0280661 2.545412 2.6892659 4.107277 6.3195898 4.107277 10.3147071 0 8.284271-6.715729 15-15 15-3.995117 0-7.625441-1.561865-10.31368-4.108304l-.008259.00826c-44.012838-42.8773954-114.451555-42.5261508-158.03144 1.053733-43.5798839 43.579885-43.9311284 114.018602-1.053733 158.03144l-.011504.011504c2.376992 2.654185 3.822482 6.15997 3.822482 10.003367 0 8.284271-6.715729 15-15 15-3.8433974 0-7.3491824-1.44549-10.0033673-3.822482l-.0222738.022273c-.1664109-.169879-.3323114-.340071-.4977013-.510575-.1840052-.181167-.3633546-.36705-.5378524-.557452-53.5500114-55.79888-52.8530939-144.447437 2.0907468-199.391278 55.00737-55.0073697 143.797444-55.6422972 199.584693-1.9047827z" fill="#1f8ddf" transform="matrix(.74314483 .66913061 -.66913061 .74314483 161.148739 -71.786117)"/><path d="m274.318117 98.8341074c.292598.2627339.574811.5368037.845947.8215183.009554.0093538.019107.0187091.028659.0280662 2.545412 2.6892661 4.107277 6.3195901 4.107277 10.3147071 0 8.284271-6.715729 15-15 15-3.995117 0-7.625441-1.561865-10.31368-4.108304l-.00826.00826c-44.012837-42.8773955-114.451554-42.5261509-158.0314387 1.053733-43.5798843 43.579885-43.9311288 114.018602-1.0537337 158.03144l-.0115039.011503c2.3769921 2.654185 3.8224821 6.15997 3.8224821 10.003368 0 8.284271-6.7157288 15-15 15-3.8433973 0-7.3491823-1.44549-10.0033673-3.822482l-.0222737.022273c-.166411-.169879-.3323114-.340071-.4977013-.510575-.1840052-.181167-.3633546-.36705-.5378524-.557452-53.5500114-55.79888-52.8530939-144.447437 2.0907468-199.391278 55.0073701-55.0073698 143.7974441-55.6422973 199.5846931-1.9047828z" fill="#1fdf69"/><g fill="#fefffe"><path d="m122.302734 339v-22.620117h5.783204v3.691406h.36914c.922852-2.583984 3.28125-4.183594 6.254883-4.183594 3.178711 0 5.352539 1.558594 6.254883 4.183594h.36914c1.045899-2.522461 3.650391-4.183594 6.808594-4.183594 4.511719 0 7.321289 2.932617 7.321289 7.587891v15.524414h-5.967773v-13.945312c0-2.686524-1.250977-4.019532-3.773438-4.019532-2.419922 0-3.978515 1.722656-3.978515 4.122071v13.842773h-5.742188v-14.191406c0-2.399414-1.394531-3.773438-3.732422-3.773438-2.33789 0-3.999023 1.825196-3.999023 4.347656v13.617188zm38.985352 0v-22.620117h5.967773v22.620117zm2.994141-26.003906c-1.845704 0-3.383789-1.517578-3.383789-3.424805s1.538085-3.404297 3.383789-3.404297c1.866211 0 3.383789 1.49707 3.383789 3.404297s-1.517578 3.424805-3.383789 3.424805zm9.208007 26.003906v-31.253906h5.967774v31.253906zm21.94336-18.539062c-2.768555 0-4.716797 1.927734-4.921875 4.860351h9.638672c-.123047-2.994141-1.927735-4.860351-4.716797-4.860351zm4.839844 12.099609h5.557617c-.881836 4.245117-4.798828 6.931641-10.335938 6.931641-6.890625 0-10.951172-4.347657-10.951172-11.689454 0-7.362304 4.142578-11.915039 10.869141-11.915039 6.665039 0 10.602539 4.245117 10.602539 11.422852v1.825195h-15.524414v.307617c.082031 3.363282 2.050781 5.455079 5.167969 5.455079 2.358398 0 3.978515-.840821 4.614258-2.337891zm10.110351-9.536133c0-4.286133 3.773438-7.136719 9.413086-7.136719 5.742187 0 9.125977 2.399414 9.454102 6.726563h-5.516602c-.307617-1.456055-1.681641-2.358399-3.896484-2.358399-2.132813 0-3.711914.963868-3.711914 2.399414 0 1.107422.963867 1.78418 3.055664 2.25586l4.245117.922851c4.388672.963868 6.357422 2.809571 6.357422 6.19336 0 4.511718-4.040039 7.464844-9.966797 7.464844-5.967774 0-9.577149-2.44043-9.987305-6.788086h5.824219c.451172 1.538086 1.907226 2.419921 4.286133 2.419921 2.317382 0 3.916992-.963867 3.916992-2.419921 0-1.107422-.861328-1.78418-2.850586-2.214844l-4.101563-.922852c-4.388671-.963867-6.521484-3.055664-6.521484-6.541992z"/><path d="m101.594971 234v-58.908691h-.922852l-18.1494139 12.509765v-14.406738l19.1235349-13.17627h15.432129v73.981934zm64.907226 1.896973c-17.790527 0-29.838867-8.76709-29.838867-21.635743 0-9.279785 6.408691-16.713867 16.303711-18.918457v-.922851c-8.049316-1.845703-13.330078-8.254395-13.330078-16.098633 0-11.791992 11.176758-20.200195 26.916504-20.200195 15.688476 0 26.865234 8.408203 26.865234 20.200195 0 7.895508-5.229492 14.20166-13.330078 16.098633v.922851c9.84375 1.845704 16.354981 9.331055 16.354981 18.764649 0 12.971191-12.150879 21.789551-29.941407 21.789551zm0-11.689453c8.151856 0 13.791504-4.665528 13.791504-11.381836 0-6.767579-5.639648-11.433106-13.791504-11.433106-8.100586 0-13.740234 4.665527-13.740234 11.433106 0 6.716308 5.639648 11.381836 13.740234 11.381836zm0-34.248047c6.870117 0 11.638184-4.204102 11.638184-10.151368 0-5.998535-4.768067-10.202636-11.638184-10.202636s-11.586914 4.204101-11.586914 10.202636c0 5.947266 4.768067 10.151368 11.586914 10.151368zm71.008301 45.9375c-14.047852 0-25.019531-8.356934-27.070312-20.712891h15.329589c1.333008 4.870606 6.101075 7.998047 11.945801 7.998047 10.048828 0 15.944824-9.484863 15.893555-25.17334h-.922852c-3.383789 6.921387-10.253906 10.817871-18.867187 10.817871-14.047852 0-24.353028-10.305176-24.353028-24.404297 0-15.380859 11.740723-26.301269 28.300782-26.301269 18.764648 0 30.60791 14.252929 30.60791 38.29834 0 24.609375-11.586914 39.477539-30.864258 39.477539zm.358887-38.913575c7.895508 0 13.432617-5.43457 13.432617-12.817382 0-7.536621-5.639648-13.381348-13.381348-13.381348-7.741699 0-13.432617 5.742187-13.432617 13.125 0 7.69043 5.48584 13.07373 13.381348 13.07373z"/></g></g><g transform="translate(1671 48)"><path d="m94.8824535 279.996226c2.376356 2.654042 3.8214123 6.159352 3.8214123 10.002173 0 8.284271-6.7157288 15-15 15-3.8428206 0-7.3481303-1.445057-10.0021725-3.821413l-.0196027.019603c-.1334413-.136222-.2665543-.272646-.399339-.40927-.2542584-.245644-.4998577-.500193-.7362954-.763145-53.4490408-55.804994-52.718765-144.377298 2.1908275-199.28689 55.6497113-55.6497119 145.8757213-55.6497119 201.5254323 0 54.009059 54.009059 55.601343 140.585727 4.77685 196.515088-1.210803 1.332418-2.451356 2.647442-3.721657 3.944217l-.158674-.158675c-2.67163 2.45893-6.238146 3.960485-10.155369 3.960485-8.284271 0-15-6.715729-15-15 0-4.88802 2.338032-9.229964 5.956778-11.968512.81586-.877932 1.615102-1.765723 2.397726-2.662971 38.547453-44.19323 36.777834-111.329738-5.308857-153.416429-43.933983-43.9339827-115.165043-43.9339827-159.0990259 0-43.5798843 43.579884-43.9311288 114.018602-1.0537337 158.031439z" fill="#1fdf69" fill-opacity=".15"/><path d="m292.249034 90.8444585c.292598.2627339.574811.5368037.845947.8215183.009554.0093537.019107.0187091.028659.0280661 2.545412 2.6892659 4.107277 6.3195898 4.107277 10.3147071 0 8.284271-6.715729 15-15 15-3.995117 0-7.625441-1.561865-10.31368-4.108304l-.008259.00826c-44.012838-42.8773954-114.451555-42.5261508-158.03144 1.053733-43.5798839 43.579885-43.9311284 114.018602-1.053733 158.03144l-.011504.011504c2.376992 2.654185 3.822482 6.15997 3.822482 10.003367 0 8.284271-6.715729 15-15 15-3.8433974 0-7.3491824-1.44549-10.0033673-3.822482l-.0222738.022273c-.1664109-.169879-.3323114-.340071-.4977013-.510575-.1840052-.181167-.3633546-.36705-.5378524-.557452-53.5500114-55.79888-52.8530939-144.447437 2.0907468-199.391278 55.00737-55.0073697 143.797444-55.6422972 199.584693-1.9047827z" fill="#1f8ddf" transform="matrix(.74314483 .66913061 -.66913061 .74314483 161.148739 -71.786117)"/><path d="m274.318117 98.8341074c.292598.2627339.574811.5368037.845947.8215183.009554.0093538.019107.0187091.028659.0280662 2.545412 2.6892661 4.107277 6.3195901 4.107277 10.3147071 0 8.284271-6.715729 15-15 15-3.995117 0-7.625441-1.561865-10.31368-4.108304l-.00826.00826c-44.012837-42.8773955-114.451554-42.5261509-158.0314387 1.053733-43.5798843 43.579885-43.9311288 114.018602-1.0537337 158.03144l-.0115039.011503c2.3769921 2.654185 3.8224821 6.15997 3.8224821 10.003368 0 8.284271-6.7157288 15-15 15-3.8433973 0-7.3491823-1.44549-10.0033673-3.822482l-.0222737.022273c-.166411-.169879-.3323114-.340071-.4977013-.510575-.1840052-.181167-.3633546-.36705-.5378524-.557452-53.5500114-55.79888-52.8530939-144.447437 2.0907468-199.391278 55.0073701-55.0073698 143.7974441-55.6422973 199.5846931-1.9047828z" fill="#1fdf69"/><path d="m122.302734 339v-22.620117h5.783204v3.691406h.36914c.922852-2.583984 3.28125-4.183594 6.254883-4.183594 3.178711 0 5.352539 1.558594 6.254883 4.183594h.36914c1.045899-2.522461 3.650391-4.183594 6.808594-4.183594 4.511719 0 7.321289 2.932617 7.321289 7.587891v15.524414h-5.967773v-13.945312c0-2.686524-1.250977-4.019532-3.773438-4.019532-2.419922 0-3.978515 1.722656-3.978515 4.122071v13.842773h-5.742188v-14.191406c0-2.399414-1.394531-3.773438-3.732422-3.773438-2.33789 0-3.999023 1.825196-3.999023 4.347656v13.617188zm38.985352 0v-22.620117h5.967773v22.620117zm2.994141-26.003906c-1.845704 0-3.383789-1.517578-3.383789-3.424805s1.538085-3.404297 3.383789-3.404297c1.866211 0 3.383789 1.49707 3.383789 3.404297s-1.517578 3.424805-3.383789 3.424805zm9.208007 26.003906v-31.253906h5.967774v31.253906zm21.94336-18.539062c-2.768555 0-4.716797 1.927734-4.921875 4.860351h9.638672c-.123047-2.994141-1.927735-4.860351-4.716797-4.860351zm4.839844 12.099609h5.557617c-.881836 4.245117-4.798828 6.931641-10.335938 6.931641-6.890625 0-10.951172-4.347657-10.951172-11.689454 0-7.362304 4.142578-11.915039 10.869141-11.915039 6.665039 0 10.602539 4.245117 10.602539 11.422852v1.825195h-15.524414v.307617c.082031 3.363282 2.050781 5.455079 5.167969 5.455079 2.358398 0 3.978515-.840821 4.614258-2.337891zm10.110351-9.536133c0-4.286133 3.773438-7.136719 9.413086-7.136719 5.742187 0 9.125977 2.399414 9.454102 6.726563h-5.516602c-.307617-1.456055-1.681641-2.358399-3.896484-2.358399-2.132813 0-3.711914.963868-3.711914 2.399414 0 1.107422.963867 1.78418 3.055664 2.25586l4.245117.922851c4.388672.963868 6.357422 2.809571 6.357422 6.19336 0 4.511718-4.040039 7.464844-9.966797 7.464844-5.967774 0-9.577149-2.44043-9.987305-6.788086h5.824219c.451172 1.538086 1.907226 2.419921 4.286133 2.419921 2.317382 0 3.916992-.963867 3.916992-2.419921 0-1.107422-.861328-1.78418-2.850586-2.214844l-4.101563-.922852c-4.388671-.963867-6.521484-3.055664-6.521484-6.541992z" fill="#fefffe"/><path d="m236.905988 227.339218-10.988086-6.357032c-1.238094-.775247-1.238094-2.480793.154762-3.100991l8.511898-3.876239c2.476188-1.240396 4.023806-4.031288 3.404758-6.667131-.92857-3.56614-4.797614-5.271685-7.89285-3.876239l-19.345221 8.837825-14.702368-8.527726c-4.023806-2.325743-4.023806-8.217627 0-10.54337l14.702368-8.527726 19.345221 8.837825c.773809.310099 1.547618.465149 2.321427.465149 2.476188 0 4.642853-1.550496 5.416662-4.031289.92857-2.790892-.619047-5.736834-3.249997-6.97723l-8.511898-3.876239c-1.238094-.620198-1.392856-2.480793-.154762-3.100991l10.988086-6.357032c2.476188-1.395447 3.714283-4.341388 2.785712-6.977231-1.238094-3.56614-5.2619-4.806536-8.357136-3.100991l-11.142847 6.512082c-1.238094.775247-2.785712-.3101-2.63095-1.705546l.928571-9.302973c.309523-2.945942-1.857142-6.046933-4.797615-6.512082-3.249997-.465149-6.190471 1.860595-6.499995 5.116636l-2.011903 21.24179-14.702368 8.527726c-4.023806 2.325743-9.130944-.620199-9.130944-5.271686v-17.055451l17.023794-12.248916c2.321427-1.550495 3.249998-4.651487 2.166665-7.13228-1.547617-3.41109-5.726185-4.341387-8.511897-2.325743l-7.89285 5.581784c-1.238094.775248-2.785712 0-2.785712-1.395446v-12.559014c0-2.945942-2.476188-5.891884-5.416662-6.046933-3.249997-.15505-6.035709 2.480793-6.035709 5.736833v12.869114c0 1.395446-1.70238 2.325744-2.785712 1.395446l-7.583327-5.426734c-2.321426-1.550496-5.416662-1.550496-7.428565.310099-2.63095 2.635842-2.321426 6.82218.619048 8.837825l17.333318 12.248915v17.055452c0 4.651487-5.107139 7.597428-9.130945 5.271685l-14.702368-8.527726-2.011903-20.931691c-.309523-2.790892-2.321426-5.116635-5.107138-5.426734-3.714283-.3101-6.654756 2.790892-6.345233 6.201982l.928571 9.613073c.154762 1.395446-1.392856 2.480793-2.63095 1.705545l-10.833324-6.357032c-2.63095-1.550496-6.345233-.775248-7.89285 1.705545-1.857142 2.790892-.928571 6.512082 2.011903 8.062577l11.142847 6.512082c1.238094.775248 1.238094 2.480793-.154762 3.100991l-8.976182 4.031289c-2.63095 1.240396-4.178568 4.186338-3.249997 6.97723.773808 2.480793 3.095235 4.031289 5.416661 4.031289.773809 0 1.547618-.15505 2.321427-.465149l19.345221-8.837825 14.702368 8.527726c4.023806 2.325743 4.023806 8.217627 0 10.54337l-14.702368 8.527726-19.345221-8.837825c-3.249997-1.395446-7.119041.310099-7.89285 3.876239-.619047 2.790892.92857 5.581784 3.404759 6.667131l8.511897 3.876239c1.238094.620198 1.392856 2.480793.154762 3.100991l-10.988086 6.357032c-2.476188 1.395447-3.714282 4.341388-2.63095 6.977231.928571 2.325743 3.095235 3.721189 5.416662 3.721189.928571 0 2.011903-.310099 2.785712-.775248l11.142847-6.512081c1.238094-.775248 2.785712.310099 2.63095 1.705545l-.92857 9.458023c-.309524 3.100992 1.702379 5.891884 4.797615 6.357032h.92857c2.940474 0 5.416662-2.170694 5.726186-5.271685l2.011903-21.24179 14.702368-8.527726c4.023806-2.325743 9.130944.620199 9.130944 5.271685v17.055452l-17.178556 12.559015c-2.476189 1.705545-3.404759 4.961586-1.857141 7.597428 1.083332 1.860595 3.095235 2.945942 4.952376 2.945942 1.083333 0 2.321427-.310099 3.249997-1.085347l7.892851-5.581784c1.238094-.775248 2.785711 0 2.785711 1.395446v12.559014c0 2.945942 2.476189 5.891884 5.416662 6.046933 3.249997.15505 6.035709-2.480793 6.035709-5.736833v-12.869114c0-1.395446 1.70238-2.325744 2.785712-1.395446l7.89285 5.581784c1.083333.775248 2.166665 1.085347 3.249998 1.085347 2.011903 0 3.869044-1.085347 4.952376-2.945942 1.392856-2.635842.464285-5.891883-1.857141-7.597428l-17.023795-12.093866v-17.055452c0-4.651487 5.107139-7.597428 9.130945-5.271685l14.702368 8.527726 2.166665 21.24179c.309523 2.945942 2.785711 5.271685 5.726185 5.271685.309524 0 .619047 0 .928571-.15505 2.940473-.465148 4.952376-3.41109 4.797615-6.357032l-1.083333-9.613072c-.154762-1.395446 1.392856-2.480793 2.63095-1.705546l11.142848 6.512082c.92857.465149 1.857141.775248 2.785711.775248 2.321427 0 4.488092-1.395446 5.416662-3.72119 1.238095-2.635842-.154761-5.736833-2.476188-7.13228z" fill="#1f8ddf"/><path d="m101.594971 234v-58.908691h-.922852l-18.1494139 12.509765v-14.406738l19.1235349-13.17627h15.432129v73.981934zm64.907226 1.896973c-17.790527 0-29.838867-8.76709-29.838867-21.635743 0-9.279785 6.408691-16.713867 16.303711-18.918457v-.922851c-8.049316-1.845703-13.330078-8.254395-13.330078-16.098633 0-11.791992 11.176758-20.200195 26.916504-20.200195 15.688476 0 26.865234 8.408203 26.865234 20.200195 0 7.895508-5.229492 14.20166-13.330078 16.098633v.922851c9.84375 1.845704 16.354981 9.331055 16.354981 18.764649 0 12.971191-12.150879 21.789551-29.941407 21.789551zm0-11.689453c8.151856 0 13.791504-4.665528 13.791504-11.381836 0-6.767579-5.639648-11.433106-13.791504-11.433106-8.100586 0-13.740234 4.665527-13.740234 11.433106 0 6.716308 5.639648 11.381836 13.740234 11.381836zm0-34.248047c6.870117 0 11.638184-4.204102 11.638184-10.151368 0-5.998535-4.768067-10.202636-11.638184-10.202636s-11.586914 4.204101-11.586914 10.202636c0 5.947266 4.768067 10.151368 11.586914 10.151368zm71.008301 45.9375c-14.047852 0-25.019531-8.356934-27.070312-20.712891h15.329589c1.333008 4.870606 6.101075 7.998047 11.945801 7.998047 10.048828 0 15.944824-9.484863 15.893555-25.17334h-.922852c-3.383789 6.921387-10.253906 10.817871-18.867187 10.817871-14.047852 0-24.353028-10.305176-24.353028-24.404297 0-15.380859 11.740723-26.301269 28.300782-26.301269 18.764648 0 30.60791 14.252929 30.60791 38.29834 0 24.609375-11.586914 39.477539-30.864258 39.477539zm.358887-38.913575c7.895508 0 13.432617-5.43457 13.432617-12.817382 0-7.536621-5.639648-13.381348-13.381348-13.381348-7.741699 0-13.432617 5.742187-13.432617 13.125 0 7.69043 5.48584 13.07373 13.381348 13.07373z" fill="#fefffe"/></g><g transform="translate(484 110)"><path d="m61.8824535 220.996226c2.376356 2.654042 3.8214123 6.159352 3.8214123 10.002173 0 8.284271-6.7157288 15-15 15-3.8428206 0-7.3481303-1.445057-10.0021725-3.821413l-.0196027.019603c-.1334413-.136222-.2665543-.272646-.399339-.40927-.2542584-.245644-.4998577-.500193-.7362954-.763145-53.4490408-55.804994-52.718765-144.3772979 2.1908275-199.2868903 55.6497116-55.6497116 145.8757213-55.6497116 201.5254323 0 54.009059 54.0090591 55.601343 140.5857273 4.77685 196.5150883-1.210803 1.332418-2.451356 2.647442-3.721657 3.944217l-.158674-.158675c-2.67163 2.45893-6.238146 3.960485-10.155369 3.960485-8.284271 0-15-6.715729-15-15 0-4.88802 2.338032-9.229964 5.956778-11.968512.81586-.877932 1.615102-1.765723 2.397726-2.662971 38.547453-44.19323 36.777834-111.329738-5.308857-153.4164289-43.933983-43.9339828-115.165043-43.9339828-159.0990259 0-43.5798843 43.5798839-43.9311288 114.0186019-1.0537337 158.0314389z" fill="#dfc61f" fill-opacity=".15"/><path d="m.76607362 157.339658c-.07374972-.49262-.12354494-.993074-.14816222-1.500137-.03480279-.372402-.06814457-.744916-.10002533-1.11753l.0868789-.003816c.20257516-8.107819 6.83861757-14.618175 14.99523503-14.618175 7.7111601 0 14.0632962 5.818673 14.9052806 13.304892l.0171736-.000755c2.3931594 24.724091 12.9475303 48.807321 31.6631126 67.878725l-.0288005.028401c2.2127845 2.613503 3.5470995 5.994496 3.5470995 9.687136 0 8.284271-6.7157288 15-15 15-3.7678721 0-7.2112701-1.389239-9.8459153-3.683437l-.0331265.032667c-.2156209-.219481-.4303877-.439487-.6443005-.660014-.1840053-.181167-.3633547-.36705-.5378525-.557452-22.747701-23.703003-35.7065665-53.333719-38.87659659-83.790497z" fill="#dfc61f"/><g fill="#fefffe"><path d="m89.3027344 280v-22.620117h5.7832031v3.691406h.3691406c.9228516-2.583984 3.28125-4.183594 6.2548829-4.183594 3.178711 0 5.352539 1.558594 6.254883 4.183594h.36914c1.045899-2.522461 3.650391-4.183594 6.808594-4.183594 4.511719 0 7.321289 2.932617 7.321289 7.587891v15.524414h-5.967773v-13.945312c0-2.686524-1.250977-4.019532-3.773438-4.019532-2.419922 0-3.978515 1.722656-3.978515 4.122071v13.842773h-5.742188v-14.191406c0-2.399414-1.394531-3.773438-3.7324218-3.773438-2.3378906 0-3.9990234 1.825196-3.9990234 4.347656v13.617188zm38.9853516 0v-22.620117h5.967773v22.620117zm2.994141-26.003906c-1.845704 0-3.383789-1.517578-3.383789-3.424805s1.538085-3.404297 3.383789-3.404297c1.866211 0 3.383789 1.49707 3.383789 3.404297s-1.517578 3.424805-3.383789 3.424805zm9.208007 26.003906v-31.253906h5.967774v31.253906zm21.94336-18.539062c-2.768555 0-4.716797 1.927734-4.921875 4.860351h9.638672c-.123047-2.994141-1.927735-4.860351-4.716797-4.860351zm4.839844 12.099609h5.557617c-.881836 4.245117-4.798828 6.931641-10.335938 6.931641-6.890625 0-10.951172-4.347657-10.951172-11.689454 0-7.362304 4.142578-11.915039 10.869141-11.915039 6.665039 0 10.602539 4.245117 10.602539 11.422852v1.825195h-15.524414v.307617c.082031 3.363282 2.050781 5.455079 5.167969 5.455079 2.358398 0 3.978515-.840821 4.614258-2.337891zm10.110351-9.536133c0-4.286133 3.773438-7.136719 9.413086-7.136719 5.742187 0 9.125977 2.399414 9.454102 6.726563h-5.516602c-.307617-1.456055-1.681641-2.358399-3.896484-2.358399-2.132813 0-3.711914.963868-3.711914 2.399414 0 1.107422.963867 1.78418 3.055664 2.25586l4.245117.922851c4.388672.963868 6.357422 2.809571 6.357422 6.19336 0 4.511718-4.040039 7.464844-9.966797 7.464844-5.967774 0-9.577149-2.44043-9.987305-6.788086h5.824219c.451172 1.538086 1.907226 2.419921 4.286133 2.419921 2.317382 0 3.916992-.963867 3.916992-2.419921 0-1.107422-.861328-1.78418-2.850586-2.214844l-4.101563-.922852c-4.388671-.963867-6.521484-3.055664-6.521484-6.541992z"/><path d="m106.534424 176.896973c-17.7905275 0-29.8388674-8.76709-29.8388674-21.635743 0-9.279785 6.4086914-16.713867 16.303711-18.918457v-.922851c-8.0493164-1.845703-13.3300781-8.254395-13.3300781-16.098633 0-11.791992 11.1767578-20.2001952 26.9165035-20.2001952 15.688477 0 26.865235 8.4082032 26.865235 20.2001952 0 7.895508-5.229492 14.20166-13.330078 16.098633v.922851c9.84375 1.845704 16.35498 9.331055 16.35498 18.764649 0 12.971191-12.150879 21.789551-29.941406 21.789551zm0-11.689453c8.151855 0 13.791504-4.665528 13.791504-11.381836 0-6.767579-5.639649-11.433106-13.791504-11.433106-8.1005861 0-13.7402345 4.665527-13.7402345 11.433106 0 6.716308 5.6396484 11.381836 13.7402345 11.381836zm0-34.248047c6.870117 0 11.638183-4.204102 11.638183-10.151368 0-5.998535-4.768066-10.202636-11.638183-10.202636-6.8701174 0-11.5869142 4.204101-11.5869142 10.202636 0 5.947266 4.7680664 10.151368 11.5869142 10.151368zm72.392578 45.9375c-18.303223 0-29.377441-14.458008-29.377441-39.016114 0-24.506836 11.176757-38.7597652 29.377441-38.7597652 18.149414 0 29.377441 14.2529292 29.377441 38.8110352 0 24.455566-11.074218 38.964844-29.377441 38.964844zm0-12.612305c8.510742 0 13.688965-8.869629 13.688965-26.403809 0-17.43164-5.229492-26.096191-13.688965-26.096191-8.408203 0-13.688965 8.71582-13.688965 26.096191 0 17.53418 5.229492 26.403809 13.688965 26.403809z"/></g></g><g transform="translate(80 110)"><path d="m61.8824535 220.996226c2.376356 2.654042 3.8214123 6.159352 3.8214123 10.002173 0 8.284271-6.7157288 15-15 15-3.8428206 0-7.3481303-1.445057-10.0021725-3.821413l-.0196027.019603c-.1334413-.136222-.2665543-.272646-.399339-.40927-.2542584-.245644-.4998577-.500193-.7362954-.763145-53.4490408-55.804994-52.718765-144.3772979 2.1908275-199.2868903 55.6497116-55.6497116 145.8757213-55.6497116 201.5254323 0 54.009059 54.0090591 55.601343 140.5857273 4.77685 196.5150883-1.210803 1.332418-2.451356 2.647442-3.721657 3.944217l-.158674-.158675c-2.67163 2.45893-6.238146 3.960485-10.155369 3.960485-8.284271 0-15-6.715729-15-15 0-4.88802 2.338032-9.229964 5.956778-11.968512.81586-.877932 1.615102-1.765723 2.397726-2.662971 38.547453-44.19323 36.777834-111.329738-5.308857-153.4164289-43.933983-43.9339828-115.165043-43.9339828-159.0990259 0-43.5798843 43.5798839-43.9311288 114.0186019-1.0537337 158.0314389z" fill="#df1f1f" fill-opacity=".15"/><path d="m13.8673826 203.783108c-1.0031377-2.012348-1.5673826-4.281835-1.5673826-6.683108 0-8.284271 6.7157288-15 15-15 6.542032 0 12.105897 4.188031 14.1567878 10.029285l.035736-.015095c5.1604085 10.503564 12.0580895 20.36955 20.693043 29.168672l-.0288005.028401c2.2127845 2.613503 3.5470995 5.994496 3.5470995 9.687136 0 8.284271-6.7157288 15-15 15-3.7678721 0-7.2112701-1.389239-9.8459153-3.683437l-.0331265.032667c-.2156209-.219481-.4303877-.439487-.6443005-.660014-.1840052-.181167-.3633546-.36705-.5378524-.557452-10.827249-11.281947-19.4368471-23.906799-25.8288017-37.324451z" fill="#df1f1f"/><g fill="#fefffe"><path d="m89.3027344 280v-22.620117h5.7832031v3.691406h.3691406c.9228516-2.583984 3.28125-4.183594 6.2548829-4.183594 3.178711 0 5.352539 1.558594 6.254883 4.183594h.36914c1.045899-2.522461 3.650391-4.183594 6.808594-4.183594 4.511719 0 7.321289 2.932617 7.321289 7.587891v15.524414h-5.967773v-13.945312c0-2.686524-1.250977-4.019532-3.773438-4.019532-2.419922 0-3.978515 1.722656-3.978515 4.122071v13.842773h-5.742188v-14.191406c0-2.399414-1.394531-3.773438-3.7324218-3.773438-2.3378906 0-3.9990234 1.825196-3.9990234 4.347656v13.617188zm38.9853516 0v-22.620117h5.967773v22.620117zm2.994141-26.003906c-1.845704 0-3.383789-1.517578-3.383789-3.424805s1.538085-3.404297 3.383789-3.404297c1.866211 0 3.383789 1.49707 3.383789 3.404297s-1.517578 3.424805-3.383789 3.424805zm9.208007 26.003906v-31.253906h5.967774v31.253906zm21.94336-18.539062c-2.768555 0-4.716797 1.927734-4.921875 4.860351h9.638672c-.123047-2.994141-1.927735-4.860351-4.716797-4.860351zm4.839844 12.099609h5.557617c-.881836 4.245117-4.798828 6.931641-10.335938 6.931641-6.890625 0-10.951172-4.347657-10.951172-11.689454 0-7.362304 4.142578-11.915039 10.869141-11.915039 6.665039 0 10.602539 4.245117 10.602539 11.422852v1.825195h-15.524414v.307617c.082031 3.363282 2.050781 5.455079 5.167969 5.455079 2.358398 0 3.978515-.840821 4.614258-2.337891zm10.110351-9.536133c0-4.286133 3.773438-7.136719 9.413086-7.136719 5.742187 0 9.125977 2.399414 9.454102 6.726563h-5.516602c-.307617-1.456055-1.681641-2.358399-3.896484-2.358399-2.132813 0-3.711914.963868-3.711914 2.399414 0 1.107422.963867 1.78418 3.055664 2.25586l4.245117.922851c4.388672.963868 6.357422 2.809571 6.357422 6.19336 0 4.511718-4.040039 7.464844-9.966797 7.464844-5.967774 0-9.577149-2.44043-9.987305-6.788086h5.824219c.451172 1.538086 1.907226 2.419921 4.286133 2.419921 2.317382 0 3.916992-.963867 3.916992-2.419921 0-1.107422-.861328-1.78418-2.850586-2.214844l-4.101563-.922852c-4.388671-.963867-6.521484-3.055664-6.521484-6.541992z"/><path d="m105.765381 142.751465v-11.330567h9.228515c7.023926 0 11.791993-4.152832 11.791993-10.202636 0-5.53711-4.35791-9.741211-11.586914-9.741211-7.485352 0-12.09961 3.845215-12.612305 10.458984h-14.3041993c.5126953-13.637695 11.0229492-22.8149412 27.6855473-22.8149412 16.40625 0 25.532226 9.0747072 25.480957 19.8925782-.05127 8.972168-5.690918 14.868164-13.637696 16.816406v.974121c10.305176 1.486817 16.560059 8.049317 16.560059 17.944336 0 12.971192-12.202149 22.148438-28.916016 22.148438-16.7138669 0-28.0957029-9.125977-28.7622068-23.122559h14.8168948c.461426 6.254883 5.793457 10.253906 13.740234 10.253906 7.844238 0 13.330078-4.255371 13.330078-10.664062 0-6.5625-5.126953-10.612793-13.432617-10.612793zm70.290527 32.248535v-58.908691h-.922851l-18.149414 12.509765v-14.406738l19.123535-13.17627h15.432129v73.981934z"/></g></g><g transform="translate(892 559)"><path d="m62.8824535 220.996226c2.376356 2.654042 3.8214123 6.159352 3.8214123 10.002173 0 8.284271-6.7157288 15-15 15-3.8428206 0-7.3481303-1.445057-10.0021725-3.821413l-.0196027.019603c-.1334413-.136222-.2665543-.272646-.399339-.40927-.2542584-.245644-.4998577-.500193-.7362954-.763145-53.4490408-55.804994-52.718765-144.3772979 2.1908275-199.2868903 55.6497116-55.6497116 145.8757213-55.6497116 201.5254323 0 54.009059 54.0090591 55.601343 140.5857273 4.77685 196.5150883-1.210803 1.332418-2.451356 2.647442-3.721657 3.944217l-.158674-.158675c-2.67163 2.45893-6.238146 3.960485-10.155369 3.960485-8.284271 0-15-6.715729-15-15 0-4.88802 2.338032-9.229964 5.956778-11.968512.81586-.877932 1.615102-1.765723 2.397726-2.662971 38.547453-44.19323 36.777834-111.329738-5.308857-153.4164289-43.933983-43.9339828-115.165043-43.9339828-159.0990259 0-43.5798843 43.5798839-43.9311288 114.0186019-1.0537337 158.0314389z" fill="#1fdf69" fill-opacity=".15"/><path d="m242.318117 39.8341074c.292598.2627339.574811.5368037.845947.8215183.009554.0093538.019107.0187091.028659.0280662 2.545412 2.6892658 4.107277 6.3195897 4.107277 10.3147068 0 8.2842713-6.715729 15-15 15-3.995117 0-7.625441-1.5618652-10.31368-4.1083037l-.00826.0082597c-44.012837-42.8773952-114.451554-42.5261506-158.0314387 1.0537337-43.5798843 43.5798846-43.9311288 114.0186016-1.0537337 158.0314396l-.0115039.011503c2.3769921 2.654185 3.8224821 6.15997 3.8224821 10.003368 0 8.284271-6.7157288 15-15 15-3.8433973 0-7.3491823-1.44549-10.0033673-3.822482l-.0222737.022273c-.166411-.169879-.3323114-.340071-.4977013-.510575-.1840052-.181167-.3633546-.36705-.5378524-.557452-53.5500114-55.79888-52.8530939-144.4474374 2.0907468-199.3912781 55.0073697-55.0073697 143.7974441-55.6422972 199.5846931-1.9047827z" fill="#1fdf69"/><path d="m90.3027344 280v-22.620117h5.7832031v3.691406h.3691406c.9228516-2.583984 3.28125-4.183594 6.2548829-4.183594 3.178711 0 5.352539 1.558594 6.254883 4.183594h.36914c1.045899-2.522461 3.650391-4.183594 6.808594-4.183594 4.511719 0 7.321289 2.932617 7.321289 7.587891v15.524414h-5.967773v-13.945312c0-2.686524-1.250977-4.019532-3.773438-4.019532-2.419922 0-3.978515 1.722656-3.978515 4.122071v13.842773h-5.742188v-14.191406c0-2.399414-1.394531-3.773438-3.732422-3.773438-2.3378904 0-3.9990232 1.825196-3.9990232 4.347656v13.617188zm38.9853516 0v-22.620117h5.967773v22.620117zm2.994141-26.003906c-1.845704 0-3.383789-1.517578-3.383789-3.424805s1.538085-3.404297 3.383789-3.404297c1.866211 0 3.383789 1.49707 3.383789 3.404297s-1.517578 3.424805-3.383789 3.424805zm9.208007 26.003906v-31.253906h5.967774v31.253906zm21.94336-18.539062c-2.768555 0-4.716797 1.927734-4.921875 4.860351h9.638672c-.123047-2.994141-1.927735-4.860351-4.716797-4.860351zm4.839844 12.099609h5.557617c-.881836 4.245117-4.798828 6.931641-10.335938 6.931641-6.890625 0-10.951172-4.347657-10.951172-11.689454 0-7.362304 4.142578-11.915039 10.869141-11.915039 6.665039 0 10.602539 4.245117 10.602539 11.422852v1.825195h-15.524414v.307617c.082031 3.363282 2.050781 5.455079 5.167969 5.455079 2.358398 0 3.978515-.840821 4.614258-2.337891zm10.110351-9.536133c0-4.286133 3.773438-7.136719 9.413086-7.136719 5.742187 0 9.125977 2.399414 9.454102 6.726563h-5.516602c-.307617-1.456055-1.681641-2.358399-3.896484-2.358399-2.132813 0-3.711914.963868-3.711914 2.399414 0 1.107422.963867 1.78418 3.055664 2.25586l4.245117.922851c4.388672.963868 6.357422 2.809571 6.357422 6.19336 0 4.511718-4.040039 7.464844-9.966797 7.464844-5.967774 0-9.577149-2.44043-9.987305-6.788086h5.824219c.451172 1.538086 1.907226 2.419921 4.286133 2.419921 2.317382 0 3.916992-.963867 3.916992-2.419921 0-1.107422-.861328-1.78418-2.850586-2.214844l-4.101563-.922852c-4.388671-.963867-6.521484-3.055664-6.521484-6.541992z" fill="#fefffe"/><path d="m76 215.935811 58.367088-58.391254 29.222388 35.127546 50.783103-117.672103-60.028165 56.707923-26.566145-32.1780141z" fill="#1fdf69" fill-opacity=".15"/><path d="m69.5949707 175v-58.908691h-.9228516l-18.149414 12.509765v-14.406738l19.1235351-13.17627h15.4321289v73.981934zm64.9072263 1.896973c-17.790527 0-29.838867-8.76709-29.838867-21.635743 0-9.279785 6.408691-16.713867 16.303711-18.918457v-.922851c-8.049316-1.845703-13.330078-8.254395-13.330078-16.098633 0-11.791992 11.176758-20.2001952 26.916504-20.2001952 15.688476 0 26.865234 8.4082032 26.865234 20.2001952 0 7.895508-5.229492 14.20166-13.330078 16.098633v.922851c9.84375 1.845704 16.354981 9.331055 16.354981 18.764649 0 12.971191-12.150879 21.789551-29.941407 21.789551zm0-11.689453c8.151856 0 13.791504-4.665528 13.791504-11.381836 0-6.767579-5.639648-11.433106-13.791504-11.433106-8.100586 0-13.740234 4.665527-13.740234 11.433106 0 6.716308 5.639648 11.381836 13.740234 11.381836zm0-34.248047c6.870117 0 11.638184-4.204102 11.638184-10.151368 0-5.998535-4.768067-10.202636-11.638184-10.202636s-11.586914 4.204101-11.586914 10.202636c0 5.947266 4.768067 10.151368 11.586914 10.151368zm71.008301 45.9375c-14.047852 0-25.019531-8.356934-27.070312-20.712891h15.329589c1.333008 4.870606 6.101075 7.998047 11.945801 7.998047 10.048828 0 15.944824-9.484863 15.893555-25.17334h-.922852c-3.383789 6.921387-10.253906 10.817871-18.867187 10.817871-14.047852 0-24.353028-10.305176-24.353028-24.404297 0-15.380859 11.740723-26.3012692 28.300782-26.3012692 18.764648 0 30.60791 14.2529292 30.60791 38.2983402 0 24.609375-11.586914 39.477539-30.864258 39.477539zm.358887-38.913575c7.895508 0 13.432617-5.43457 13.432617-12.817382 0-7.536621-5.639648-13.381348-13.381348-13.381348-7.741699 0-13.432617 5.742187-13.432617 13.125 0 7.69043 5.48584 13.07373 13.381348 13.07373z" fill="#fefffe"/></g><g transform="translate(1297 559)"><path d="m62.8824535 220.996226c2.376356 2.654042 3.8214123 6.159352 3.8214123 10.002173 0 8.284271-6.7157288 15-15 15-3.8428206 0-7.3481303-1.445057-10.0021725-3.821413l-.0196027.019603c-.1334413-.136222-.2665543-.272646-.399339-.40927-.2542584-.245644-.4998577-.500193-.7362954-.763145-53.4490408-55.804994-52.718765-144.3772979 2.1908275-199.2868903 55.6497116-55.6497116 145.8757213-55.6497116 201.5254323 0 54.009059 54.0090591 55.601343 140.5857273 4.77685 196.5150883-1.210803 1.332418-2.451356 2.647442-3.721657 3.944217l-.158674-.158675c-2.67163 2.45893-6.238146 3.960485-10.155369 3.960485-8.284271 0-15-6.715729-15-15 0-4.88802 2.338032-9.229964 5.956778-11.968512.81586-.877932 1.615102-1.765723 2.397726-2.662971 38.547453-44.19323 36.777834-111.329738-5.308857-153.4164289-43.933983-43.9339828-115.165043-43.9339828-159.0990259 0-43.5798843 43.5798839-43.9311288 114.0186019-1.0537337 158.0314389z" fill="#1fdf69" fill-opacity=".15"/><path d="m242.318117 39.8341074c.292598.2627339.574811.5368037.845947.8215183.009554.0093538.019107.0187091.028659.0280662 2.545412 2.6892658 4.107277 6.3195897 4.107277 10.3147068 0 8.2842713-6.715729 15-15 15-3.995117 0-7.625441-1.5618652-10.31368-4.1083037l-.00826.0082597c-44.012837-42.8773952-114.451554-42.5261506-158.0314387 1.0537337-43.5798843 43.5798846-43.9311288 114.0186016-1.0537337 158.0314396l-.0115039.011503c2.3769921 2.654185 3.8224821 6.15997 3.8224821 10.003368 0 8.284271-6.7157288 15-15 15-3.8433973 0-7.3491823-1.44549-10.0033673-3.822482l-.0222737.022273c-.166411-.169879-.3323114-.340071-.4977013-.510575-.1840052-.181167-.3633546-.36705-.5378524-.557452-53.5500114-55.79888-52.8530939-144.4474374 2.0907468-199.3912781 55.0073697-55.0073697 143.7974441-55.6422972 199.5846931-1.9047827z" fill="#1fdf69"/><path d="m90.3027344 280v-22.620117h5.7832031v3.691406h.3691406c.9228516-2.583984 3.28125-4.183594 6.2548829-4.183594 3.178711 0 5.352539 1.558594 6.254883 4.183594h.36914c1.045899-2.522461 3.650391-4.183594 6.808594-4.183594 4.511719 0 7.321289 2.932617 7.321289 7.587891v15.524414h-5.967773v-13.945312c0-2.686524-1.250977-4.019532-3.773438-4.019532-2.419922 0-3.978515 1.722656-3.978515 4.122071v13.842773h-5.742188v-14.191406c0-2.399414-1.394531-3.773438-3.732422-3.773438-2.3378904 0-3.9990232 1.825196-3.9990232 4.347656v13.617188zm38.9853516 0v-22.620117h5.967773v22.620117zm2.994141-26.003906c-1.845704 0-3.383789-1.517578-3.383789-3.424805s1.538085-3.404297 3.383789-3.404297c1.866211 0 3.383789 1.49707 3.383789 3.404297s-1.517578 3.424805-3.383789 3.424805zm9.208007 26.003906v-31.253906h5.967774v31.253906zm21.94336-18.539062c-2.768555 0-4.716797 1.927734-4.921875 4.860351h9.638672c-.123047-2.994141-1.927735-4.860351-4.716797-4.860351zm4.839844 12.099609h5.557617c-.881836 4.245117-4.798828 6.931641-10.335938 6.931641-6.890625 0-10.951172-4.347657-10.951172-11.689454 0-7.362304 4.142578-11.915039 10.869141-11.915039 6.665039 0 10.602539 4.245117 10.602539 11.422852v1.825195h-15.524414v.307617c.082031 3.363282 2.050781 5.455079 5.167969 5.455079 2.358398 0 3.978515-.840821 4.614258-2.337891zm10.110351-9.536133c0-4.286133 3.773438-7.136719 9.413086-7.136719 5.742187 0 9.125977 2.399414 9.454102 6.726563h-5.516602c-.307617-1.456055-1.681641-2.358399-3.896484-2.358399-2.132813 0-3.711914.963868-3.711914 2.399414 0 1.107422.963867 1.78418 3.055664 2.25586l4.245117.922851c4.388672.963868 6.357422 2.809571 6.357422 6.19336 0 4.511718-4.040039 7.464844-9.966797 7.464844-5.967774 0-9.577149-2.44043-9.987305-6.788086h5.824219c.451172 1.538086 1.907226 2.419921 4.286133 2.419921 2.317382 0 3.916992-.963867 3.916992-2.419921 0-1.107422-.861328-1.78418-2.850586-2.214844l-4.101563-.922852c-4.388671-.963867-6.521484-3.055664-6.521484-6.541992z" fill="#fefffe"/><path d="m103 140.935811 35.589289-36.018461 17.81833 21.668316 30.96496-72.585666-36.60213 34.9801036-16.198687-19.8489066z" fill="#1fdf69"/><path d="m90.7106934 200v-42.077637h-.6591797l-12.9638672 8.935547v-10.290527l13.659668-9.411621h11.0229495v52.844238zm46.3623046 1.35498c-12.707519 0-21.313477-6.262207-21.313477-15.454101 0-6.628418 4.577637-11.938477 11.645508-13.513184v-.659179c-5.749511-1.31836-9.521484-5.895996-9.521484-11.499024 0-8.422851 7.983398-14.428711 19.226074-14.428711 11.206055 0 19.189453 6.00586 19.189453 14.428711 0 5.639649-3.735351 10.144043-9.521484 11.499024v.659179c7.03125 1.31836 11.682129 6.665039 11.682129 13.403321 0 9.265136-8.679199 15.563964-21.386719 15.563964zm0-8.349609c5.822754 0 9.851074-3.332519 9.851074-8.129883 0-4.833984-4.02832-8.166504-9.851074-8.166504-5.786133 0-9.814453 3.33252-9.814453 8.166504 0 4.797364 4.02832 8.129883 9.814453 8.129883zm0-24.462891c4.907227 0 8.312988-3.002929 8.312988-7.250976 0-4.284668-3.405761-7.287598-8.312988-7.287598s-8.276367 3.00293-8.276367 7.287598c0 4.248047 3.405762 7.250976 8.276367 7.250976zm50.720215 32.8125c-10.03418 0-17.871094-5.969238-19.335938-14.794921h10.949707c.952149 3.479003 4.357911 5.71289 8.532715 5.71289 7.177735 0 11.38916-6.774902 11.352539-17.980957h-.659179c-2.416993 4.943848-7.324219 7.727051-13.476563 7.727051-10.03418 0-17.395019-7.36084-17.395019-17.431641 0-10.986328 8.38623-18.786621 20.214843-18.786621 13.403321 0 21.862793 10.180664 21.862793 27.355957 0 17.578125-8.276367 28.198242-22.045898 28.198242zm.256348-27.79541c5.639648 0 9.594726-3.881836 9.594726-9.155273 0-5.383301-4.02832-9.558106-9.558105-9.558106-5.529786 0-9.594727 4.101563-9.594727 9.375 0 5.493164 3.918457 9.338379 9.558106 9.338379z" fill="#fefffe"/></g><g transform="translate(1702 559)"><path d="m62.8824535 220.996226c2.376356 2.654042 3.8214123 6.159352 3.8214123 10.002173 0 8.284271-6.7157288 15-15 15-3.8428206 0-7.3481303-1.445057-10.0021725-3.821413l-.0196027.019603c-.1334413-.136222-.2665543-.272646-.399339-.40927-.2542584-.245644-.4998577-.500193-.7362954-.763145-53.4490408-55.804994-52.718765-144.3772979 2.1908275-199.2868903 55.6497116-55.6497116 145.8757213-55.6497116 201.5254323 0 54.009059 54.0090591 55.601343 140.5857273 4.77685 196.5150883-1.210803 1.332418-2.451356 2.647442-3.721657 3.944217l-.158674-.158675c-2.67163 2.45893-6.238146 3.960485-10.155369 3.960485-8.284271 0-15-6.715729-15-15 0-4.88802 2.338032-9.229964 5.956778-11.968512.81586-.877932 1.615102-1.765723 2.397726-2.662971 38.547453-44.19323 36.777834-111.329738-5.308857-153.4164289-43.933983-43.9339828-115.165043-43.9339828-159.0990259 0-43.5798843 43.5798839-43.9311288 114.0186019-1.0537337 158.0314389z" fill="#1fdf69" fill-opacity=".15"/><path d="m242.318117 39.8341074c.292598.2627339.574811.5368037.845947.8215183.009554.0093538.019107.0187091.028659.0280662 2.545412 2.6892658 4.107277 6.3195897 4.107277 10.3147068 0 8.2842713-6.715729 15-15 15-3.995117 0-7.625441-1.5618652-10.31368-4.1083037l-.00826.0082597c-44.012837-42.8773952-114.451554-42.5261506-158.0314387 1.0537337-43.5798843 43.5798846-43.9311288 114.0186016-1.0537337 158.0314396l-.0115039.011503c2.3769921 2.654185 3.8224821 6.15997 3.8224821 10.003368 0 8.284271-6.7157288 15-15 15-3.8433973 0-7.3491823-1.44549-10.0033673-3.822482l-.0222737.022273c-.166411-.169879-.3323114-.340071-.4977013-.510575-.1840052-.181167-.3633546-.36705-.5378524-.557452-53.5500114-55.79888-52.8530939-144.4474374 2.0907468-199.3912781 55.0073697-55.0073697 143.7974441-55.6422972 199.5846931-1.9047827z" fill="#1fdf69"/><path d="m90.3027344 280v-22.620117h5.7832031v3.691406h.3691406c.9228516-2.583984 3.28125-4.183594 6.2548829-4.183594 3.178711 0 5.352539 1.558594 6.254883 4.183594h.36914c1.045899-2.522461 3.650391-4.183594 6.808594-4.183594 4.511719 0 7.321289 2.932617 7.321289 7.587891v15.524414h-5.967773v-13.945312c0-2.686524-1.250977-4.019532-3.773438-4.019532-2.419922 0-3.978515 1.722656-3.978515 4.122071v13.842773h-5.742188v-14.191406c0-2.399414-1.394531-3.773438-3.732422-3.773438-2.3378904 0-3.9990232 1.825196-3.9990232 4.347656v13.617188zm38.9853516 0v-22.620117h5.967773v22.620117zm2.994141-26.003906c-1.845704 0-3.383789-1.517578-3.383789-3.424805s1.538085-3.404297 3.383789-3.404297c1.866211 0 3.383789 1.49707 3.383789 3.404297s-1.517578 3.424805-3.383789 3.424805zm9.208007 26.003906v-31.253906h5.967774v31.253906zm21.94336-18.539062c-2.768555 0-4.716797 1.927734-4.921875 4.860351h9.638672c-.123047-2.994141-1.927735-4.860351-4.716797-4.860351zm4.839844 12.099609h5.557617c-.881836 4.245117-4.798828 6.931641-10.335938 6.931641-6.890625 0-10.951172-4.347657-10.951172-11.689454 0-7.362304 4.142578-11.915039 10.869141-11.915039 6.665039 0 10.602539 4.245117 10.602539 11.422852v1.825195h-15.524414v.307617c.082031 3.363282 2.050781 5.455079 5.167969 5.455079 2.358398 0 3.978515-.840821 4.614258-2.337891zm10.110351-9.536133c0-4.286133 3.773438-7.136719 9.413086-7.136719 5.742187 0 9.125977 2.399414 9.454102 6.726563h-5.516602c-.307617-1.456055-1.681641-2.358399-3.896484-2.358399-2.132813 0-3.711914.963868-3.711914 2.399414 0 1.107422.963867 1.78418 3.055664 2.25586l4.245117.922851c4.388672.963868 6.357422 2.809571 6.357422 6.19336 0 4.511718-4.040039 7.464844-9.966797 7.464844-5.967774 0-9.577149-2.44043-9.987305-6.788086h5.824219c.451172 1.538086 1.907226 2.419921 4.286133 2.419921 2.317382 0 3.916992-.963867 3.916992-2.419921 0-1.107422-.861328-1.78418-2.850586-2.214844l-4.101563-.922852c-4.388671-.963867-6.521484-3.055664-6.521484-6.541992z" fill="#fefffe"/><path d="m103 140.935811 35.589289-36.018461 17.81833 21.668316 30.96496-72.585666-36.60213 34.9801036-16.198687-19.8489066z" fill="#fff"/><path d="m90.7106934 200v-42.077637h-.6591797l-12.9638672 8.935547v-10.290527l13.659668-9.411621h11.0229495v52.844238zm46.3623046 1.35498c-12.707519 0-21.313477-6.262207-21.313477-15.454101 0-6.628418 4.577637-11.938477 11.645508-13.513184v-.659179c-5.749511-1.31836-9.521484-5.895996-9.521484-11.499024 0-8.422851 7.983398-14.428711 19.226074-14.428711 11.206055 0 19.189453 6.00586 19.189453 14.428711 0 5.639649-3.735351 10.144043-9.521484 11.499024v.659179c7.03125 1.31836 11.682129 6.665039 11.682129 13.403321 0 9.265136-8.679199 15.563964-21.386719 15.563964zm0-8.349609c5.822754 0 9.851074-3.332519 9.851074-8.129883 0-4.833984-4.02832-8.166504-9.851074-8.166504-5.786133 0-9.814453 3.33252-9.814453 8.166504 0 4.797364 4.02832 8.129883 9.814453 8.129883zm0-24.462891c4.907227 0 8.312988-3.002929 8.312988-7.250976 0-4.284668-3.405761-7.287598-8.312988-7.287598s-8.276367 3.00293-8.276367 7.287598c0 4.248047 3.405762 7.250976 8.276367 7.250976zm50.720215 32.8125c-10.03418 0-17.871094-5.969238-19.335938-14.794921h10.949707c.952149 3.479003 4.357911 5.71289 8.532715 5.71289 7.177735 0 11.38916-6.774902 11.352539-17.980957h-.659179c-2.416993 4.943848-7.324219 7.727051-13.476563 7.727051-10.03418 0-17.395019-7.36084-17.395019-17.431641 0-10.986328 8.38623-18.786621 20.214843-18.786621 13.403321 0 21.862793 10.180664 21.862793 27.355957 0 17.578125-8.276367 28.198242-22.045898 28.198242zm.256348-27.79541c5.639648 0 9.594726-3.881836 9.594726-9.155273 0-5.383301-4.02832-9.558106-9.558105-9.558106-5.529786 0-9.594727 4.101563-9.594727 9.375 0 5.493164 3.918457 9.338379 9.558106 9.338379z" fill="#fefffe"/></g></g></svg>