<svg id="rehan-logo-{{location}}" enable-background="new 0 0 527.94 181.45" viewBox="0 0 527.94 181.45" xmlns="http://www.w3.org/2000/svg">
  <g fill="#fff">
    <path d="m231.79 38.08v-38.08h-151.26c-43.26 0-73.18 20.67-73.18 55.22 0 29.93 15.5 47.88 38.91 54.68-17.06 26.39-31.66 48.97-46.26 71.55h51.75c10.87-20.22 21.74-40.44 38.47-71.55h15.06v71.55h126.51v-38.36h-79.71v-33.19h69.1v-28.02h-69.1v-43.8zm-126.51 43.8h-27.74c-12.25 0-23.4-9.25-23.4-23.66 0-10.89 11.15-20.14 23.4-20.14h27.74z"/>\
    <path d="m527.94 181.45h-54.52l-66-99.52v99.52h-46.79v-71.55h-58.22v71.55h-46.79v-181.45h46.79v81.88h58.22v-81.88h46.79z"/>
    <path d="m527.94 0v138.37l-46.79-70.45v-67.92z"/>
  </g>
</svg>
