<svg xmlns="http://www.w3.org/2000/svg" xmlns:xlink="http://www.w3.org/1999/xlink" width="786" height="602" version="1.1" viewBox="0 0 786 602"><title>color-audit2</title><defs><linearGradient id="linearGradient-1" x1="50%" x2="50%" y1="1.389%" y2="97.313%"><stop offset="0%" stop-color="#FFF"/><stop offset="100%" stop-color="#D6E3EA"/></linearGradient><linearGradient id="linearGradient-2" x1="50%" x2="50%" y1="1.389%" y2="97.313%"><stop offset="0%" stop-color="#D5E2EA"/><stop offset="100%" stop-color="#B4C9E3"/></linearGradient><linearGradient id="linearGradient-3" x1="50%" x2="50%" y1="97.313%" y2="1.389%"><stop offset="0%" stop-color="#D5DDEB"/><stop offset="100%" stop-color="#FCFCFD"/></linearGradient><linearGradient id="linearGradient-4" x1="50%" x2="50%" y1="97.313%" y2="1.389%"><stop offset="0%" stop-color="#799CBA"/><stop offset="100%" stop-color="#FCFCFD"/></linearGradient></defs><g id="color-audit2" fill="none" fill-rule="evenodd" stroke="none" stroke-width="1"><rect width="786" height="602" x="0" y="0" fill="#606060"/><rect id="Rectangle-Copy-40" width="174" height="174" x="30" y="30" fill="#303030"/><rect id="Rectangle-Copy-34" width="174" height="174" x="214" y="214" fill="#E4E4E4"/><rect id="Rectangle-Copy-37" width="174" height="174" x="582" y="30" fill="#F1F5F9"/><rect id="Rectangle-Copy-48" width="175" height="175" x="29.5" y="213.5" fill="#E6E7EC" stroke="#8E97A5"/><rect id="Rectangle-Copy-52" width="174" height="174" x="398" y="30" fill="#F9F9F9"/><rect id="Rectangle-Copy-53" width="174" height="174" x="582" y="214" fill="#B4BABF"/><rect id="Rectangle-Copy-59" width="174" height="174" x="214" y="30" fill="#FFF"/><rect id="Rectangle-Copy-60" width="173" height="173" x="398.5" y="214.5" fill="#D8D8D8" stroke="#567F9E"/><rect id="Rectangle-Copy-42" width="175" height="175" x="581.5" y="397.5" fill="url(#linearGradient-1)" stroke="#394351"/><rect id="Rectangle-Copy-45" width="174" height="174" x="214" y="398" fill="url(#linearGradient-2)"/><rect id="Rectangle-Copy-57" width="174" height="174" x="398" y="398" fill="url(#linearGradient-3)"/><rect id="Rectangle-Copy-61" width="174" height="174" x="30" y="398" fill="url(#linearGradient-4)"/></g></svg>