<svg xmlns="http://www.w3.org/2000/svg" xmlns:xlink="http://www.w3.org/1999/xlink" width="786" height="602" version="1.1" viewBox="0 0 786 602"><title>color-audit1</title><defs><linearGradient id="linearGradient-1" x1="50%" x2="50%" y1="0%" y2="100%"><stop offset="0%" stop-color="#D3DBE9"/><stop offset="100%" stop-color="#7B9DBB"/></linearGradient><linearGradient id="linearGradient-2" x1="50%" x2="50%" y1="1.389%" y2="97.313%"><stop offset="0%" stop-color="#C8D3E3"/><stop offset="100%" stop-color="#799CBA"/></linearGradient></defs><g id="color-audit1" fill="none" fill-rule="evenodd" stroke="none" stroke-width="1"><rect width="786" height="602" x="0" y="0" fill="#606060"/><rect id="Rectangle-Copy-32" width="174" height="174" x="398" y="30" fill="#B54F10"/><rect id="Rectangle-Copy-36" width="174" height="174" x="30" y="398" fill="#182A4D"/><rect id="Rectangle-Copy-38" width="174" height="174" x="582" y="30" fill="#000"/><rect id="Rectangle-Copy-39" width="174" height="174" x="30" y="214" fill="#234"/><rect id="Rectangle-Copy-41" width="174" height="174" x="30" y="30" fill="#091B2C"/><rect id="Rectangle-Copy-35" width="174" height="174" x="582" y="214" fill="#B0C7E2"/><rect id="Rectangle-Copy-46" width="174" height="174" x="214" y="214" fill="#6294B7"/><rect id="Rectangle-Copy-49" width="174" height="174" x="214" y="30" fill="#8FCFE9"/><rect id="Rectangle-Copy-55" width="174" height="174" x="214" y="398" fill="#8E97A5"/><rect id="Rectangle-Copy-58" width="174" height="174" x="398" y="214" fill="#BECEDE"/><rect id="Rectangle-Copy-47" width="174" height="174" x="582" y="398" fill="url(#linearGradient-1)"/><rect id="Rectangle-Copy-51" width="174" height="174" x="398" y="398" fill="url(#linearGradient-2)"/></g></svg>