<?xml version="1.0" encoding="UTF-8"?>
<svg width="786px" height="602px" viewBox="0 0 786 602" version="1.1" xmlns="http://www.w3.org/2000/svg" xmlns:xlink="http://www.w3.org/1999/xlink">
    <title>color-audit1</title>
    <defs>
        <linearGradient x1="50%" y1="0%" x2="50%" y2="100%" id="linearGradient-1">
            <stop stop-color="#D3DBE9" offset="0%"></stop>
            <stop stop-color="#7B9DBB" offset="100%"></stop>
        </linearGradient>
        <linearGradient x1="50%" y1="1.38888889%" x2="49.9999958%" y2="97.3127578%" id="linearGradient-2">
            <stop stop-color="#C8D3E3" offset="0%"></stop>
            <stop stop-color="#799CBA" offset="100%"></stop>
        </linearGradient>
    </defs>
    <g id="color-audit1" stroke="none" stroke-width="1" fill="none" fill-rule="evenodd">
        <rect fill="#606060" x="0" y="0" width="786" height="602"></rect>
        <rect id="Rectangle-Copy-32" fill="#B54F10" x="398" y="30" width="174" height="174"></rect>
        <rect id="Rectangle-Copy-36" fill="#182A4D" x="30" y="398" width="174" height="174"></rect>
        <rect id="Rectangle-Copy-38" fill="#000000" x="582" y="30" width="174" height="174"></rect>
        <rect id="Rectangle-Copy-39" fill="#223344" x="30" y="214" width="174" height="174"></rect>
        <rect id="Rectangle-Copy-41" fill="#091B2C" x="30" y="30" width="174" height="174"></rect>
        <rect id="Rectangle-Copy-35" fill="#B0C7E2" x="582" y="214" width="174" height="174"></rect>
        <rect id="Rectangle-Copy-46" fill="#6294B7" x="214" y="214" width="174" height="174"></rect>
        <rect id="Rectangle-Copy-49" fill="#8FCFE9" x="214" y="30" width="174" height="174"></rect>
        <rect id="Rectangle-Copy-55" fill="#8E97A5" x="214" y="398" width="174" height="174"></rect>
        <rect id="Rectangle-Copy-58" fill="#BECEDE" x="398" y="214" width="174" height="174"></rect>
        <rect id="Rectangle-Copy-47" fill="url(#linearGradient-1)" x="582" y="398" width="174" height="174"></rect>
        <rect id="Rectangle-Copy-51" fill="url(#linearGradient-2)" x="398" y="398" width="174" height="174"></rect>
    </g>
</svg>