<?xml version="1.0" encoding="UTF-8"?>
<svg width="656px" height="475px" viewBox="0 0 656 475" version="1.1" xmlns="http://www.w3.org/2000/svg" xmlns:xlink="http://www.w3.org/1999/xlink">
    <title>workstations1</title>
    <g id="workstations1" stroke="none" stroke-width="1" fill="none" fill-rule="evenodd">
        <rect fill="#FFFFFF" x="0" y="0" width="656" height="475"></rect>
        <g id="Group-5-Copy" transform="translate(48.000000, 30.000000)" fill="#1F2937">
            <path d="M31.5,137.5 C33.1568542,137.5 34.5,138.843146 34.5,140.5 L34.5,194 C34.5,195.656854 33.1568542,197 31.5,197 L9,197 C7.34314575,197 6,195.656854 6,194 L6,140.5 C6,138.843146 7.34314575,137.5 9,137.5 L31.5,137.5 Z M10.5,105.5 L10.5,96.7 C10.5,96.1477153 10.9477153,95.7 11.5,95.7 L11.75,95.7 L11.75,93.7363636 C11.75,93.3296812 12.0857864,93 12.5,93 L15,93 C15.4142136,93 15.75,93.3296812 15.75,93.7363636 L15.75,95.7 L16.75,95.7 L16.75,95.2090909 C16.75,94.8024085 17.0857864,94.4727273 17.5,94.4727273 L26,94.4727273 C26.4142136,94.4727273 26.75,94.8024085 26.75,95.2090909 L26.75,95.7 L27,95.7 C27.5522847,95.7 28,96.1477153 28,96.7 L28,105.5 C28,106.052285 27.5522847,106.5 27,106.5 L38.6344277,106.501114 C38.5489435,106.353776 38.5,106.182604 38.5,106 C38.5,105.447715 38.9477153,105 39.5,105 L50.5,105 L50.5,98.499 L31.5,98.5 C30.9477153,98.5 30.5,98.0522847 30.5,97.5 L30.5,20 C30.5,19.4477153 30.9477153,19 31.5,19 L77,19 C77.5522847,19 78,19.4477153 78,20 L78,97.5 C78,98.0522847 77.5522847,98.5 77,98.5 L59,98.5 L59,105 L69.5,105 C70.0522847,105 70.5,105.447715 70.5,106 C70.5,106.182604 70.4510565,106.353776 70.3655723,106.501114 L91.1344277,106.501114 C91.0489435,106.353776 91,106.182604 91,106 C91,105.447715 91.4477153,105 92,105 L103,105 L103,98.499 L84,98.5 C83.4477153,98.5 83,98.0522847 83,97.5 L83,20 C83,19.4477153 83.4477153,19 84,19 L129.5,19 C130.052285,19 130.5,19.4477153 130.5,20 L130.5,97.5 C130.5,98.0522847 130.052285,98.5 129.5,98.5 L111.5,98.5 L111.5,105 L122,105 C122.552285,105 123,105.447715 123,106 C123,106.182604 122.951056,106.353776 122.865572,106.501114 L143.634428,106.501114 C143.548944,106.353776 143.5,106.182604 143.5,106 C143.5,105.447715 143.947715,105 144.5,105 L155.5,105 L155.5,98.499 L136.5,98.5 C135.947715,98.5 135.5,98.0522847 135.5,97.5 L135.5,20 C135.5,19.4477153 135.947715,19 136.5,19 L182,19 C182.552285,19 183,19.4477153 183,20 L183,97.5 C183,98.0522847 182.552285,98.5 182,98.5 L164,98.5 L164,105 L174.5,105 C175.052285,105 175.5,105.447715 175.5,106 C175.5,106.182604 175.451056,106.353776 175.365572,106.501114 L196.134428,106.501114 C196.048944,106.353776 196,106.182604 196,106 C196,105.447715 196.447715,105 197,105 L208,105 L208,98.499 L189,98.5 C188.447715,98.5 188,98.0522847 188,97.5 L188,20 C188,19.4477153 188.447715,19 189,19 L234.5,19 C235.052285,19 235.5,19.4477153 235.5,20 L235.5,97.5 C235.5,98.0522847 235.052285,98.5 234.5,98.5 L216.5,98.5 L216.5,105 L227,105 C227.552285,105 228,105.447715 228,106 C228,106.182604 227.951056,106.353776 227.865572,106.501114 L250,106.5 L250,197 L246.5,197 L246.5,112.5 L3.5,112.5 L3.5,197 L0,197 L0,106.5 L11.5,106.5 C10.9477153,106.5 10.5,106.052285 10.5,105.5 Z M11.75,191 C11.0596441,191 10.5,191.559644 10.5,192.25 C10.5,192.940356 11.0596441,193.5 11.75,193.5 C12.4403559,193.5 13,192.940356 13,192.25 C13,191.559644 12.4403559,191 11.75,191 Z M30.5,147.5 L10.5,147.5 L10.5,152 L30.5,152 L30.5,147.5 Z M30.5,141.5 L10.5,141.5 L10.5,146 L30.5,146 L30.5,141.5 Z M15,93.4909091 L12.5,93.4909091 C12.3619288,93.4909091 12.25,93.6008028 12.25,93.7363636 L12.25,105.027273 C12.25,105.162834 12.3619288,105.272727 12.5,105.272727 L15,105.272727 C15.1380712,105.272727 15.25,105.162834 15.25,105.027273 L15.25,93.7363636 C15.25,93.6008028 15.1380712,93.4909091 15,93.4909091 Z M26,103.554545 L25,103.554545 L25,104.536364 L26,104.536364 L26,103.554545 Z M18.5,103.554545 L17.5,103.554545 L17.5,104.536364 L18.5,104.536364 L18.5,103.554545 Z M20,103.554545 L19,103.554545 L19,104.536364 L20,104.536364 L20,103.554545 Z M21.5,103.554545 L20.5,103.554545 L20.5,104.536364 L21.5,104.536364 L21.5,103.554545 Z M26,102.081818 L25,102.081818 L25,103.063636 L26,103.063636 L26,102.081818 Z M18.5,102.081818 L17.5,102.081818 L17.5,103.063636 L18.5,103.063636 L18.5,102.081818 Z M20,102.081818 L19,102.081818 L19,103.063636 L20,103.063636 L20,102.081818 Z M21.5,102.081818 L20.5,102.081818 L20.5,103.063636 L21.5,103.063636 L21.5,102.081818 Z M26,100.609091 L25,100.609091 L25,101.590909 L26,101.590909 L26,100.609091 Z M18.5,100.609091 L17.5,100.609091 L17.5,101.590909 L18.5,101.590909 L18.5,100.609091 Z M20,100.609091 L19,100.609091 L19,101.590909 L20,101.590909 L20,100.609091 Z M21.5,100.609091 L20.5,100.609091 L20.5,101.590909 L21.5,101.590909 L21.5,100.609091 Z M26,94.9636364 L17.5,94.9636364 C17.3619288,94.9636364 17.25,95.0735301 17.25,95.2090909 L17.25,99.1363636 C17.25,99.2719244 17.3619288,99.3818182 17.5,99.3818182 L26,99.3818182 C26.1380712,99.3818182 26.25,99.2719244 26.25,99.1363636 L26.25,95.2090909 C26.25,95.0735301 26.1380712,94.9636364 26,94.9636364 Z M33,21 C32.7545401,21 32.5503916,21.1768752 32.5080557,21.4101244 L32.5,21.5 L32.5,96 C32.5,96.2454599 32.6768752,96.4496084 32.9101244,96.4919443 L33,96.5 L75.5,96.5 C75.7761424,96.5 76,96.2761424 76,96 L76,21.5 C76,21.2545401 75.8231248,21.0503916 75.5898756,21.0080557 L75.5,21 L33,21 Z M85.5,21 C85.2545401,21 85.0503916,21.1768752 85.0080557,21.4101244 L85,21.5 L85,96 C85,96.2454599 85.1768752,96.4496084 85.4101244,96.4919443 L85.5,96.5 L128,96.5 C128.276142,96.5 128.5,96.2761424 128.5,96 L128.5,21.5 C128.5,21.2545401 128.323125,21.0503916 128.089876,21.0080557 L128,21 L85.5,21 Z M138,21 C137.75454,21 137.550392,21.1768752 137.508056,21.4101244 L137.5,21.5 L137.5,96 C137.5,96.2454599 137.676875,96.4496084 137.910124,96.4919443 L138,96.5 L180.5,96.5 C180.776142,96.5 181,96.2761424 181,96 L181,21.5 C181,21.2545401 180.823125,21.0503916 180.589876,21.0080557 L180.5,21 L138,21 Z M190.5,21 C190.25454,21 190.050392,21.1768752 190.008056,21.4101244 L190,21.5 L190,96 C190,96.2454599 190.176875,96.4496084 190.410124,96.4919443 L190.5,96.5 L233,96.5 C233.276142,96.5 233.5,96.2761424 233.5,96 L233.5,21.5 C233.5,21.2545401 233.323125,21.0503916 233.089876,21.0080557 L233,21 L190.5,21 Z" id="Combined-Shape"></path>
            <path d="M341.5,137.5 C343.156854,137.5 344.5,138.843146 344.5,140.5 L344.5,194 C344.5,195.656854 343.156854,197 341.5,197 L319,197 C317.343146,197 316,195.656854 316,194 L316,140.5 C316,138.843146 317.343146,137.5 319,137.5 L341.5,137.5 Z M331,105.5 L331,96.7 C331,96.1477153 331.447715,95.7 332,95.7 L332.25,95.7 L332.25,93.7363636 C332.25,93.3296812 332.585786,93 333,93 L335.5,93 C335.914214,93 336.25,93.3296812 336.25,93.7363636 L336.25,95.7 L337.25,95.7 L337.25,95.2090909 C337.25,94.8024085 337.585786,94.4727273 338,94.4727273 L346.5,94.4727273 C346.914214,94.4727273 347.25,94.8024085 347.25,95.2090909 L347.25,95.7 L347.5,95.7 C348.052285,95.7 348.5,96.1477153 348.5,96.7 L348.5,105.5 C348.5,106.052285 348.052285,106.5 347.5,106.5 L378.134428,106.501114 C378.048944,106.353776 378,106.182604 378,106 C378,105.447715 378.447715,105 379,105 L390,105 L390,97.5 L355.5,97.5 C354.947715,97.5 354.5,97.0522847 354.5,96.5 L354.5,51 C354.5,50.4477153 354.947715,50 355.5,50 L433,50 C433.552285,50 434,50.4477153 434,51 L434,96.5 C434,97.0522847 433.552285,97.5 433,97.5 L398.5,97.5 L398.5,105 L409,105 C409.552285,105 410,105.447715 410,106 C410,106.182604 409.951056,106.353776 409.865572,106.501114 L447.134428,106.501114 C447.048944,106.353776 447,106.182604 447,106 C447,105.447715 447.447715,105 448,105 L459,105 L459,98.499 L440,98.5 C439.447715,98.5 439,98.0522847 439,97.5 L439,20 C439,19.4477153 439.447715,19 440,19 L485.5,19 C486.052285,19 486.5,19.4477153 486.5,20 L486.5,97.5 C486.5,98.0522847 486.052285,98.5 485.5,98.5 L467.5,98.5 L467.5,105 L478,105 C478.552285,105 479,105.447715 479,106 C479,106.182604 478.951056,106.353776 478.865572,106.501114 L499.634428,106.501114 C499.548944,106.353776 499.5,106.182604 499.5,106 C499.5,105.447715 499.947715,105 500.5,105 L511.5,105 L511.5,98.499 L492.5,98.5 C491.947715,98.5 491.5,98.0522847 491.5,97.5 L491.5,20 C491.5,19.4477153 491.947715,19 492.5,19 L538,19 C538.552285,19 539,19.4477153 539,20 L539,97.5 C539,98.0522847 538.552285,98.5 538,98.5 L520,98.5 L520,105 L530.5,105 C531.052285,105 531.5,105.447715 531.5,106 C531.5,106.182604 531.451056,106.353776 531.365572,106.501114 L560,106.5 L560,197 L556.5,197 L556.5,112.5 L313.5,112.5 L313.5,197 L310,197 L310,106.5 L332,106.5 C331.447715,106.5 331,106.052285 331,105.5 Z M321.75,191 C321.059644,191 320.5,191.559644 320.5,192.25 C320.5,192.940356 321.059644,193.5 321.75,193.5 C322.440356,193.5 323,192.940356 323,192.25 C323,191.559644 322.440356,191 321.75,191 Z M340.5,147.5 L320.5,147.5 L320.5,152 L340.5,152 L340.5,147.5 Z M340.5,141.5 L320.5,141.5 L320.5,146 L340.5,146 L340.5,141.5 Z M335.5,93.4909091 L333,93.4909091 C332.861929,93.4909091 332.75,93.6008028 332.75,93.7363636 L332.75,105.027273 C332.75,105.162834 332.861929,105.272727 333,105.272727 L335.5,105.272727 C335.638071,105.272727 335.75,105.162834 335.75,105.027273 L335.75,93.7363636 C335.75,93.6008028 335.638071,93.4909091 335.5,93.4909091 Z M346.5,103.554545 L345.5,103.554545 L345.5,104.536364 L346.5,104.536364 L346.5,103.554545 Z M339,103.554545 L338,103.554545 L338,104.536364 L339,104.536364 L339,103.554545 Z M340.5,103.554545 L339.5,103.554545 L339.5,104.536364 L340.5,104.536364 L340.5,103.554545 Z M342,103.554545 L341,103.554545 L341,104.536364 L342,104.536364 L342,103.554545 Z M346.5,102.081818 L345.5,102.081818 L345.5,103.063636 L346.5,103.063636 L346.5,102.081818 Z M339,102.081818 L338,102.081818 L338,103.063636 L339,103.063636 L339,102.081818 Z M340.5,102.081818 L339.5,102.081818 L339.5,103.063636 L340.5,103.063636 L340.5,102.081818 Z M342,102.081818 L341,102.081818 L341,103.063636 L342,103.063636 L342,102.081818 Z M346.5,100.609091 L345.5,100.609091 L345.5,101.590909 L346.5,101.590909 L346.5,100.609091 Z M339,100.609091 L338,100.609091 L338,101.590909 L339,101.590909 L339,100.609091 Z M340.5,100.609091 L339.5,100.609091 L339.5,101.590909 L340.5,101.590909 L340.5,100.609091 Z M342,100.609091 L341,100.609091 L341,101.590909 L342,101.590909 L342,100.609091 Z M346.5,94.9636364 L338,94.9636364 C337.861929,94.9636364 337.75,95.0735301 337.75,95.2090909 L337.75,99.1363636 C337.75,99.2719244 337.861929,99.3818182 338,99.3818182 L346.5,99.3818182 C346.638071,99.3818182 346.75,99.2719244 346.75,99.1363636 L346.75,95.2090909 C346.75,95.0735301 346.638071,94.9636364 346.5,94.9636364 Z M441.5,21 C441.25454,21 441.050392,21.1768752 441.008056,21.4101244 L441,21.5 L441,96 C441,96.2454599 441.176875,96.4496084 441.410124,96.4919443 L441.5,96.5 L484,96.5 C484.276142,96.5 484.5,96.2761424 484.5,96 L484.5,21.5 C484.5,21.2545401 484.323125,21.0503916 484.089876,21.0080557 L484,21 L441.5,21 Z M494,21 C493.75454,21 493.550392,21.1768752 493.508056,21.4101244 L493.5,21.5 L493.5,96 C493.5,96.2454599 493.676875,96.4496084 493.910124,96.4919443 L494,96.5 L536.5,96.5 C536.776142,96.5 537,96.2761424 537,96 L537,21.5 C537,21.2545401 536.823125,21.0503916 536.589876,21.0080557 L536.5,21 L494,21 Z M431.5,52 L357,52 C356.75454,52 356.550392,52.1768752 356.508056,52.4101244 L356.5,52.5 L356.5,95 C356.5,95.2761424 356.723858,95.5 357,95.5 L431.5,95.5 C431.74546,95.5 431.949608,95.3231248 431.991944,95.0898756 L432,95 L432,52.5 C432,52.2545401 431.823125,52.0503916 431.589876,52.0080557 L431.5,52 Z M433,1.42108547e-14 C433.552285,1.42108547e-14 434,0.44771525 434,1 L434,46.5 C434,47.0522847 433.552285,47.5 433,47.5 L355.5,47.5 C354.947715,47.5 354.5,47.0522847 354.5,46.5 L354.5,1 C354.5,0.44771525 354.947715,7.10542736e-15 355.5,7.10542736e-15 L433,1.42108547e-14 Z M431.5,2 L357,2 C356.75454,2 356.550392,2.17687516 356.508056,2.41012437 L356.5,2.5 L356.5,45 C356.5,45.2761424 356.723858,45.5 357,45.5 L431.5,45.5 C431.74546,45.5 431.949608,45.3231248 431.991944,45.0898756 L432,45 L432,2.5 C432,2.25454011 431.823125,2.05039163 431.589876,2.00805567 L431.5,2 Z" id="Combined-Shape"></path>
            <path d="M31.5,355.5 C33.1568542,355.5 34.5,356.843146 34.5,358.5 L34.5,412 C34.5,413.656854 33.1568542,415 31.5,415 L9,415 C7.34314575,415 6,413.656854 6,412 L6,358.5 C6,356.843146 7.34314575,355.5 9,355.5 L31.5,355.5 Z M8,323.5 L8,314.7 C8,314.147715 8.44771525,313.7 9,313.7 L9.25,313.7 L9.25,311.736364 C9.25,311.329681 9.58578644,311 10,311 L12.5,311 C12.9142136,311 13.25,311.329681 13.25,311.736364 L13.25,313.7 L14.25,313.7 L14.25,313.209091 C14.25,312.802409 14.5857864,312.472727 15,312.472727 L23.5,312.472727 C23.9142136,312.472727 24.25,312.802409 24.25,313.209091 L24.25,313.7 L24.5,313.7 C25.0522847,313.7 25.5,314.147715 25.5,314.7 L25.5,323.5 C25.5,324.052285 25.0522847,324.5 24.5,324.5 L25.6344277,324.501114 C25.5489435,324.353776 25.5,324.182604 25.5,324 C25.5,323.447715 25.9477153,323 26.5,323 L37.5,323 L37.5,306.5 L13.5,306.5 C12.9477153,306.5 12.5,306.052285 12.5,305.5 L12.5,260 C12.5,259.447715 12.9477153,259 13.5,259 L69,259 C69.5522847,259 70,259.447715 70,260 L70,305.5 C70,306.052285 69.5522847,306.5 69,306.5 L46,306.5 L46,323 L56.5,323 C57.0522847,323 57.5,323.447715 57.5,324 C57.5,324.182604 57.4510565,324.353776 57.3655723,324.501114 L88.1344277,324.501114 C88.0489435,324.353776 88,324.182604 88,324 C88,323.447715 88.4477153,323 89,323 L100,323 L100,306.5 L76,306.5 C75.4477153,306.5 75,306.052285 75,305.5 L75,260 C75,259.447715 75.4477153,259 76,259 L131.5,259 C132.052285,259 132.5,259.447715 132.5,260 L132.5,305.5 C132.5,306.052285 132.052285,306.5 131.5,306.5 L108.5,306.5 L108.5,323 L119,323 C119.552285,323 120,323.447715 120,324 C120,324.182604 119.951056,324.353776 119.865572,324.501114 L145.634428,324.501114 C145.548944,324.353776 145.5,324.182604 145.5,324 C145.5,323.447715 145.947715,323 146.5,323 L157.5,323 L157.5,316.499 L138.5,316.5 C137.947715,316.5 137.5,316.052285 137.5,315.5 L137.5,238 C137.5,237.447715 137.947715,237 138.5,237 L184,237 C184.552285,237 185,237.447715 185,238 L185,315.5 C185,316.052285 184.552285,316.5 184,316.5 L166,316.5 L166,323 L176.5,323 C177.052285,323 177.5,323.447715 177.5,324 C177.5,324.182604 177.451056,324.353776 177.365572,324.501114 L198.134428,324.501114 C198.048944,324.353776 198,324.182604 198,324 C198,323.447715 198.447715,323 199,323 L210,323 L210,316.499 L191,316.5 C190.447715,316.5 190,316.052285 190,315.5 L190,238 C190,237.447715 190.447715,237 191,237 L236.5,237 C237.052285,237 237.5,237.447715 237.5,238 L237.5,315.5 C237.5,316.052285 237.052285,316.5 236.5,316.5 L218.5,316.5 L218.5,323 L229,323 C229.552285,323 230,323.447715 230,324 C230,324.182604 229.951056,324.353776 229.865572,324.501114 L250,324.5 L250,415 L246.5,415 L246.5,330.5 L3.5,330.5 L3.5,415 L0,415 L0,324.5 L9,324.5 C8.44771525,324.5 8,324.052285 8,323.5 Z M11.75,409 C11.0596441,409 10.5,409.559644 10.5,410.25 C10.5,410.940356 11.0596441,411.5 11.75,411.5 C12.4403559,411.5 13,410.940356 13,410.25 C13,409.559644 12.4403559,409 11.75,409 Z M30.5,365.5 L10.5,365.5 L10.5,370 L30.5,370 L30.5,365.5 Z M30.5,359.5 L10.5,359.5 L10.5,364 L30.5,364 L30.5,359.5 Z M12.5,311.490909 L10,311.490909 C9.86192881,311.490909 9.75,311.600803 9.75,311.736364 L9.75,323.027273 C9.75,323.162834 9.86192881,323.272727 10,323.272727 L12.5,323.272727 C12.6380712,323.272727 12.75,323.162834 12.75,323.027273 L12.75,311.736364 C12.75,311.600803 12.6380712,311.490909 12.5,311.490909 Z M23.5,321.554545 L22.5,321.554545 L22.5,322.536364 L23.5,322.536364 L23.5,321.554545 Z M16,321.554545 L15,321.554545 L15,322.536364 L16,322.536364 L16,321.554545 Z M17.5,321.554545 L16.5,321.554545 L16.5,322.536364 L17.5,322.536364 L17.5,321.554545 Z M19,321.554545 L18,321.554545 L18,322.536364 L19,322.536364 L19,321.554545 Z M23.5,320.081818 L22.5,320.081818 L22.5,321.063636 L23.5,321.063636 L23.5,320.081818 Z M16,320.081818 L15,320.081818 L15,321.063636 L16,321.063636 L16,320.081818 Z M17.5,320.081818 L16.5,320.081818 L16.5,321.063636 L17.5,321.063636 L17.5,320.081818 Z M19,320.081818 L18,320.081818 L18,321.063636 L19,321.063636 L19,320.081818 Z M23.5,318.609091 L22.5,318.609091 L22.5,319.590909 L23.5,319.590909 L23.5,318.609091 Z M16,318.609091 L15,318.609091 L15,319.590909 L16,319.590909 L16,318.609091 Z M17.5,318.609091 L16.5,318.609091 L16.5,319.590909 L17.5,319.590909 L17.5,318.609091 Z M19,318.609091 L18,318.609091 L18,319.590909 L19,319.590909 L19,318.609091 Z M23.5,312.963636 L15,312.963636 C14.8619288,312.963636 14.75,313.07353 14.75,313.209091 L14.75,317.136364 C14.75,317.271924 14.8619288,317.381818 15,317.381818 L23.5,317.381818 C23.6380712,317.381818 23.75,317.271924 23.75,317.136364 L23.75,313.209091 C23.75,313.07353 23.6380712,312.963636 23.5,312.963636 Z M140,239 C139.75454,239 139.550392,239.176875 139.508056,239.410124 L139.5,239.5 L139.5,314 C139.5,314.24546 139.676875,314.449608 139.910124,314.491944 L140,314.5 L182.5,314.5 C182.776142,314.5 183,314.276142 183,314 L183,239.5 C183,239.25454 182.823125,239.050392 182.589876,239.008056 L182.5,239 L140,239 Z M192.5,239 C192.25454,239 192.050392,239.176875 192.008056,239.410124 L192,239.5 L192,314 C192,314.24546 192.176875,314.449608 192.410124,314.491944 L192.5,314.5 L235,314.5 C235.276142,314.5 235.5,314.276142 235.5,314 L235.5,239.5 C235.5,239.25454 235.323125,239.050392 235.089876,239.008056 L235,239 L192.5,239 Z M68,261 L14.5,261 C14.2545401,261 14.0503916,261.176875 14.0080557,261.410124 L14,261.5 L14,303 C14,303.24546 14.1768752,303.449608 14.4101244,303.491944 L14.5,303.5 L68,303.5 C68.2454599,303.5 68.4496084,303.323125 68.4919443,303.089876 L68.5,303 L68.5,261.5 C68.5,261.223858 68.2761424,261 68,261 Z M130.5,261 L77,261 C76.7545401,261 76.5503916,261.176875 76.5080557,261.410124 L76.5,261.5 L76.5,303 C76.5,303.24546 76.6768752,303.449608 76.9101244,303.491944 L77,303.5 L130.5,303.5 C130.74546,303.5 130.949608,303.323125 130.991944,303.089876 L131,303 L131,261.5 C131,261.223858 130.776142,261 130.5,261 Z" id="Combined-Shape"></path>
            <path d="M341.5,355.5 C343.156854,355.5 344.5,356.843146 344.5,358.5 L344.5,412 C344.5,413.656854 343.156854,415 341.5,415 L319,415 C317.343146,415 316,413.656854 316,412 L316,358.5 C316,356.843146 317.343146,355.5 319,355.5 L341.5,355.5 Z M313.5,324.5 C312.947715,324.5 312.5,324.052285 312.5,323.5 L312.5,314.7 C312.5,314.147715 312.947715,313.7 313.5,313.7 L313.75,313.7 L313.75,311.736364 C313.75,311.329681 314.085786,311 314.5,311 L317,311 C317.414214,311 317.75,311.329681 317.75,311.736364 L317.75,313.7 L318.75,313.7 L318.75,313.209091 C318.75,312.802409 319.085786,312.472727 319.5,312.472727 L328,312.472727 C328.414214,312.472727 328.75,312.802409 328.75,313.209091 L328.75,313.7 L329,313.7 C329.552285,313.7 330,314.147715 330,314.7 L330,323 L336.5,323 L336.5,306.5 L312.5,306.5 C311.947715,306.5 311.5,306.052285 311.5,305.5 L311.5,260 C311.5,259.447715 311.947715,259 312.5,259 L368,259 C368.552285,259 369,259.447715 369,260 L369,305.5 C369,306.052285 368.552285,306.5 368,306.5 L345,306.5 L345,323 L355.5,323 C356.052285,323 356.5,323.447715 356.5,324 C356.5,324.182604 356.451056,324.353776 356.365572,324.501114 L398.134428,324.501114 C398.048944,324.353776 398,324.182604 398,324 C398,323.447715 398.447715,323 399,323 L410,323 L410,306.5 L375,306.5 C374.447715,306.5 374,306.052285 374,305.5 L374,260 C374,259.447715 374.447715,259 375,259 L452.5,259 C453.052285,259 453.5,259.447715 453.5,260 L453.5,305.5 C453.5,306.052285 453.052285,306.5 452.5,306.5 L418.5,306.5 L418.5,323 L429,323 C429.552285,323 430,323.447715 430,324 C430,324.182604 429.951056,324.353776 429.865572,324.501114 L466.634428,324.501114 C466.548944,324.353776 466.5,324.182604 466.5,324 C466.5,323.447715 466.947715,323 467.5,323 L478.5,323 L478.5,316.499 L459.5,316.5 C458.947715,316.5 458.5,316.052285 458.5,315.5 L458.5,238 C458.5,237.447715 458.947715,237 459.5,237 L505,237 C505.552285,237 506,237.447715 506,238 L506,315.5 C506,316.052285 505.552285,316.5 505,316.5 L487,316.5 L487,323 L497.5,323 C498.052285,323 498.5,323.447715 498.5,324 C498.5,324.182604 498.451056,324.353776 498.365572,324.501114 L519.134428,324.501114 C519.048944,324.353776 519,324.182604 519,324 C519,323.447715 519.447715,323 520,323 L531,323 L531,316.499 L512,316.5 C511.447715,316.5 511,316.052285 511,315.5 L511,238 C511,237.447715 511.447715,237 512,237 L557.5,237 C558.052285,237 558.5,237.447715 558.5,238 L558.5,315.5 C558.5,316.052285 558.052285,316.5 557.5,316.5 L539.5,316.5 L539.5,323 L550,323 C550.552285,323 551,323.447715 551,324 C551,324.182604 550.951056,324.353776 550.865572,324.501114 L560,324.5 L560,415 L556.5,415 L556.5,330.5 L313.5,330.5 L313.5,415 L310,415 L310,324.5 L313.5,324.5 Z M321.75,409 C321.059644,409 320.5,409.559644 320.5,410.25 C320.5,410.940356 321.059644,411.5 321.75,411.5 C322.440356,411.5 323,410.940356 323,410.25 C323,409.559644 322.440356,409 321.75,409 Z M340.5,365.5 L320.5,365.5 L320.5,370 L340.5,370 L340.5,365.5 Z M340.5,359.5 L320.5,359.5 L320.5,364 L340.5,364 L340.5,359.5 Z M317,311.490909 L314.5,311.490909 C314.361929,311.490909 314.25,311.600803 314.25,311.736364 L314.25,323.027273 C314.25,323.162834 314.361929,323.272727 314.5,323.272727 L317,323.272727 C317.138071,323.272727 317.25,323.162834 317.25,323.027273 L317.25,311.736364 C317.25,311.600803 317.138071,311.490909 317,311.490909 Z M328,321.554545 L327,321.554545 L327,322.536364 L328,322.536364 L328,321.554545 Z M320.5,321.554545 L319.5,321.554545 L319.5,322.536364 L320.5,322.536364 L320.5,321.554545 Z M322,321.554545 L321,321.554545 L321,322.536364 L322,322.536364 L322,321.554545 Z M323.5,321.554545 L322.5,321.554545 L322.5,322.536364 L323.5,322.536364 L323.5,321.554545 Z M328,320.081818 L327,320.081818 L327,321.063636 L328,321.063636 L328,320.081818 Z M320.5,320.081818 L319.5,320.081818 L319.5,321.063636 L320.5,321.063636 L320.5,320.081818 Z M322,320.081818 L321,320.081818 L321,321.063636 L322,321.063636 L322,320.081818 Z M323.5,320.081818 L322.5,320.081818 L322.5,321.063636 L323.5,321.063636 L323.5,320.081818 Z M328,318.609091 L327,318.609091 L327,319.590909 L328,319.590909 L328,318.609091 Z M320.5,318.609091 L319.5,318.609091 L319.5,319.590909 L320.5,319.590909 L320.5,318.609091 Z M322,318.609091 L321,318.609091 L321,319.590909 L322,319.590909 L322,318.609091 Z M323.5,318.609091 L322.5,318.609091 L322.5,319.590909 L323.5,319.590909 L323.5,318.609091 Z M328,312.963636 L319.5,312.963636 C319.361929,312.963636 319.25,313.07353 319.25,313.209091 L319.25,317.136364 C319.25,317.271924 319.361929,317.381818 319.5,317.381818 L328,317.381818 C328.138071,317.381818 328.25,317.271924 328.25,317.136364 L328.25,313.209091 C328.25,313.07353 328.138071,312.963636 328,312.963636 Z M461,239 C460.75454,239 460.550392,239.176875 460.508056,239.410124 L460.5,239.5 L460.5,314 C460.5,314.24546 460.676875,314.449608 460.910124,314.491944 L461,314.5 L503.5,314.5 C503.776142,314.5 504,314.276142 504,314 L504,239.5 C504,239.25454 503.823125,239.050392 503.589876,239.008056 L503.5,239 L461,239 Z M513.5,239 C513.25454,239 513.050392,239.176875 513.008056,239.410124 L513,239.5 L513,314 C513,314.24546 513.176875,314.449608 513.410124,314.491944 L513.5,314.5 L556,314.5 C556.276142,314.5 556.5,314.276142 556.5,314 L556.5,239.5 C556.5,239.25454 556.323125,239.050392 556.089876,239.008056 L556,239 L513.5,239 Z M367,261 L313.5,261 C313.25454,261 313.050392,261.176875 313.008056,261.410124 L313,261.5 L313,303 C313,303.24546 313.176875,303.449608 313.410124,303.491944 L313.5,303.5 L367,303.5 C367.24546,303.5 367.449608,303.323125 367.491944,303.089876 L367.5,303 L367.5,261.5 C367.5,261.223858 367.276142,261 367,261 Z M451,261 L376.5,261 C376.25454,261 376.050392,261.176875 376.008056,261.410124 L376,261.5 L376,303 C376,303.24546 376.176875,303.449608 376.410124,303.491944 L376.5,303.5 L451,303.5 C451.24546,303.5 451.449608,303.323125 451.491944,303.089876 L451.5,303 L451.5,261.5 C451.5,261.223858 451.276142,261 451,261 Z" id="Combined-Shape"></path>
        </g>
    </g>
</svg>