<svg xmlns="http://www.w3.org/2000/svg" xmlns:xlink="http://www.w3.org/1999/xlink" width="656" height="475" version="1.1" viewBox="0 0 656 475"><title>workstations2</title><g id="workstations2" fill="none" fill-rule="evenodd" stroke="none" stroke-width="1"><rect width="656" height="475" x="0" y="0" fill="#FFF"/><g id="Group-6" fill="#1F2937" transform="translate(13.000000, 42.000000)"><g id="Group-4"><path id="Combined-Shape" d="M465,64.5 L465,55.7 C465,55.1477153 465.447715,54.7 466,54.7 L466.25,54.7 L466.25,52.7363636 C466.25,52.3296812 466.585786,52 467,52 L469.5,52 C469.914214,52 470.25,52.3296812 470.25,52.7363636 L470.25,54.7 L471.25,54.7 L471.25,54.2090909 C471.25,53.8024085 471.585786,53.4727273 472,53.4727273 L480.5,53.4727273 C480.914214,53.4727273 481.25,53.8024085 481.25,54.2090909 L481.25,54.7 L481.5,54.7 C482.052285,54.7 482.5,55.1477153 482.5,55.7 L482.5,64.5 C482.5,65.0522847 482.052285,65.5 481.5,65.5 L494,65.5 L494,156 L490.5,156 L490.5,71.5 L280.5,71.5 L280.5,156 L277,156 L277,65.5 L292.343201,65.5013944 C291.533677,64.9641297 291,64.0443883 291,63 L291,9.5 C291,7.84314575 292.343146,6.5 294,6.5 L316.5,6.5 C318.156854,6.5 319.5,7.84314575 319.5,9.5 L319.5,63 C319.5,64.0443883 318.966323,64.9641297 318.156799,65.5013944 L350.134428,65.5011143 C350.048944,65.3537761 350,65.1826037 350,65 C350,64.4477153 350.447715,64 351,64 L362,64 L362,47.5 L327,47.5 C326.447715,47.5 326,47.0522847 326,46.5 L326,1 C326,0.44771525 326.447715,1.01453063e-16 327,0 L404.5,0 C405.052285,-1.01453063e-16 405.5,0.44771525 405.5,1 L405.5,46.5 C405.5,47.0522847 405.052285,47.5 404.5,47.5 L370.5,47.5 L370.5,64 L381,64 C381.552285,64 382,64.4477153 382,65 C382,65.1826037 381.951056,65.3537761 381.865572,65.5011143 L423.634428,65.5011143 C423.548944,65.3537761 423.5,65.1826037 423.5,65 C423.5,64.4477153 423.947715,64 424.5,64 L435.5,64 L435.5,47.5 L411.5,47.5 C410.947715,47.5 410.5,47.0522847 410.5,46.5 L410.5,1 C410.5,0.44771525 410.947715,1.01453063e-16 411.5,0 L467,0 C467.552285,-1.01453063e-16 468,0.44771525 468,1 L468,46.5 C468,47.0522847 467.552285,47.5 467,47.5 L444,47.5 L444,64 L454.5,64 C455.052285,64 455.5,64.4477153 455.5,65 C455.5,65.1826037 455.451056,65.3537761 455.365572,65.5011143 L466,65.5 C465.447715,65.5 465,65.0522847 465,64.5 Z M469.5,52.4909091 L467,52.4909091 C466.861929,52.4909091 466.75,52.6008028 466.75,52.7363636 L466.75,64.0272727 C466.75,64.1628335 466.861929,64.2727273 467,64.2727273 L469.5,64.2727273 C469.638071,64.2727273 469.75,64.1628335 469.75,64.0272727 L469.75,52.7363636 C469.75,52.6008028 469.638071,52.4909091 469.5,52.4909091 Z M480.5,62.5545455 L479.5,62.5545455 L479.5,63.5363636 L480.5,63.5363636 L480.5,62.5545455 Z M473,62.5545455 L472,62.5545455 L472,63.5363636 L473,63.5363636 L473,62.5545455 Z M474.5,62.5545455 L473.5,62.5545455 L473.5,63.5363636 L474.5,63.5363636 L474.5,62.5545455 Z M476,62.5545455 L475,62.5545455 L475,63.5363636 L476,63.5363636 L476,62.5545455 Z M296.75,60 C296.059644,60 295.5,60.5596441 295.5,61.25 C295.5,61.9403559 296.059644,62.5 296.75,62.5 C297.440356,62.5 298,61.9403559 298,61.25 C298,60.5596441 297.440356,60 296.75,60 Z M480.5,61.0818182 L479.5,61.0818182 L479.5,62.0636364 L480.5,62.0636364 L480.5,61.0818182 Z M473,61.0818182 L472,61.0818182 L472,62.0636364 L473,62.0636364 L473,61.0818182 Z M474.5,61.0818182 L473.5,61.0818182 L473.5,62.0636364 L474.5,62.0636364 L474.5,61.0818182 Z M476,61.0818182 L475,61.0818182 L475,62.0636364 L476,62.0636364 L476,61.0818182 Z M480.5,59.6090909 L479.5,59.6090909 L479.5,60.5909091 L480.5,60.5909091 L480.5,59.6090909 Z M473,59.6090909 L472,59.6090909 L472,60.5909091 L473,60.5909091 L473,59.6090909 Z M474.5,59.6090909 L473.5,59.6090909 L473.5,60.5909091 L474.5,60.5909091 L474.5,59.6090909 Z M476,59.6090909 L475,59.6090909 L475,60.5909091 L476,60.5909091 L476,59.6090909 Z M480.5,53.9636364 L472,53.9636364 C471.861929,53.9636364 471.75,54.0735301 471.75,54.2090909 L471.75,58.1363636 C471.75,58.2719244 471.861929,58.3818182 472,58.3818182 L480.5,58.3818182 C480.638071,58.3818182 480.75,58.2719244 480.75,58.1363636 L480.75,54.2090909 C480.75,54.0735301 480.638071,53.9636364 480.5,53.9636364 Z M403,2 L328.5,2 C328.25454,2 328.050392,2.17687516 328.008056,2.41012437 L328,2.5 L328,44 C328,44.2454599 328.176875,44.4496084 328.410124,44.4919443 L328.5,44.5 L403,44.5 C403.24546,44.5 403.449608,44.3231248 403.491944,44.0898756 L403.5,44 L403.5,2.5 C403.5,2.22385763 403.276142,2 403,2 Z M466,2 L412.5,2 C412.25454,2 412.050392,2.17687516 412.008056,2.41012437 L412,2.5 L412,44 C412,44.2454599 412.176875,44.4496084 412.410124,44.4919443 L412.5,44.5 L466,44.5 C466.24546,44.5 466.449608,44.3231248 466.491944,44.0898756 L466.5,44 L466.5,2.5 C466.5,2.22385763 466.276142,2 466,2 Z M315.5,16.5 L295.5,16.5 L295.5,21 L315.5,21 L315.5,16.5 Z M315.5,10.5 L295.5,10.5 L295.5,15 L315.5,15 L315.5,10.5 Z"/><path id="Combined-Shape" d="M194,64.5 L194,55.7 C194,55.1477153 194.447715,54.7 195,54.7 L195.25,54.7 L195.25,52.7363636 C195.25,52.3296812 195.585786,52 196,52 L198.5,52 C198.914214,52 199.25,52.3296812 199.25,52.7363636 L199.25,54.7 L200.25,54.7 L200.25,54.2090909 C200.25,53.8024085 200.585786,53.4727273 201,53.4727273 L209.5,53.4727273 C209.914214,53.4727273 210.25,53.8024085 210.25,54.2090909 L210.25,54.7 L210.5,54.7 C211.052285,54.7 211.5,55.1477153 211.5,55.7 L211.5,64.5 C211.5,65.0522847 211.052285,65.5 210.5,65.5 L217,65.5 L217,156 L213.5,156 L213.5,71.5 L3.5,71.5 L3.5,156 L0,156 L0,65.5 L11.3432015,65.5013944 C10.5336771,64.9641297 10,64.0443883 10,63 L10,9.5 C10,7.84314575 11.3431458,6.5 13,6.5 L35.5,6.5 C37.1568542,6.5 38.5,7.84314575 38.5,9.5 L38.5,63 C38.5,64.0443883 37.9663229,64.9641297 37.1567985,65.5013944 L69.1344277,65.5011143 C69.0489435,65.3537761 69,65.1826037 69,65 C69,64.4477153 69.4477153,64 70,64 L81,64 L81,47.5 L46,47.5 C45.4477153,47.5 45,47.0522847 45,46.5 L45,1 C45,0.44771525 45.4477153,1.01453063e-16 46,0 L123.5,0 C124.052285,-1.01453063e-16 124.5,0.44771525 124.5,1 L124.5,46.5 C124.5,47.0522847 124.052285,47.5 123.5,47.5 L89.5,47.5 L89.5,64 L100,64 C100.552285,64 101,64.4477153 101,65 C101,65.1826037 100.951056,65.3537761 100.865572,65.5011143 L152.134428,65.5011143 C152.048944,65.3537761 152,65.1826037 152,65 C152,64.4477153 152.447715,64 153,64 L164,64 L164,47.5 L129,47.5 C128.447715,47.5 128,47.0522847 128,46.5 L128,1 C128,0.44771525 128.447715,1.01453063e-16 129,0 L206.5,0 C207.052285,-1.01453063e-16 207.5,0.44771525 207.5,1 L207.5,46.5 C207.5,47.0522847 207.052285,47.5 206.5,47.5 L172.5,47.5 L172.5,64 L183,64 C183.552285,64 184,64.4477153 184,65 C184,65.1826037 183.951056,65.3537761 183.865572,65.5011143 L195,65.5 C194.447715,65.5 194,65.0522847 194,64.5 Z M198.5,52.4909091 L196,52.4909091 C195.861929,52.4909091 195.75,52.6008028 195.75,52.7363636 L195.75,64.0272727 C195.75,64.1628335 195.861929,64.2727273 196,64.2727273 L198.5,64.2727273 C198.638071,64.2727273 198.75,64.1628335 198.75,64.0272727 L198.75,52.7363636 C198.75,52.6008028 198.638071,52.4909091 198.5,52.4909091 Z M209.5,62.5545455 L208.5,62.5545455 L208.5,63.5363636 L209.5,63.5363636 L209.5,62.5545455 Z M202,62.5545455 L201,62.5545455 L201,63.5363636 L202,63.5363636 L202,62.5545455 Z M203.5,62.5545455 L202.5,62.5545455 L202.5,63.5363636 L203.5,63.5363636 L203.5,62.5545455 Z M205,62.5545455 L204,62.5545455 L204,63.5363636 L205,63.5363636 L205,62.5545455 Z M15.75,60 C15.0596441,60 14.5,60.5596441 14.5,61.25 C14.5,61.9403559 15.0596441,62.5 15.75,62.5 C16.4403559,62.5 17,61.9403559 17,61.25 C17,60.5596441 16.4403559,60 15.75,60 Z M209.5,61.0818182 L208.5,61.0818182 L208.5,62.0636364 L209.5,62.0636364 L209.5,61.0818182 Z M202,61.0818182 L201,61.0818182 L201,62.0636364 L202,62.0636364 L202,61.0818182 Z M203.5,61.0818182 L202.5,61.0818182 L202.5,62.0636364 L203.5,62.0636364 L203.5,61.0818182 Z M205,61.0818182 L204,61.0818182 L204,62.0636364 L205,62.0636364 L205,61.0818182 Z M209.5,59.6090909 L208.5,59.6090909 L208.5,60.5909091 L209.5,60.5909091 L209.5,59.6090909 Z M202,59.6090909 L201,59.6090909 L201,60.5909091 L202,60.5909091 L202,59.6090909 Z M203.5,59.6090909 L202.5,59.6090909 L202.5,60.5909091 L203.5,60.5909091 L203.5,59.6090909 Z M205,59.6090909 L204,59.6090909 L204,60.5909091 L205,60.5909091 L205,59.6090909 Z M209.5,53.9636364 L201,53.9636364 C200.861929,53.9636364 200.75,54.0735301 200.75,54.2090909 L200.75,58.1363636 C200.75,58.2719244 200.861929,58.3818182 201,58.3818182 L209.5,58.3818182 C209.638071,58.3818182 209.75,58.2719244 209.75,58.1363636 L209.75,54.2090909 C209.75,54.0735301 209.638071,53.9636364 209.5,53.9636364 Z M122,2 L47.5,2 C47.2545401,2 47.0503916,2.17687516 47.0080557,2.41012437 L47,2.5 L47,44 C47,44.2454599 47.1768752,44.4496084 47.4101244,44.4919443 L47.5,44.5 L122,44.5 C122.24546,44.5 122.449608,44.3231248 122.491944,44.0898756 L122.5,44 L122.5,2.5 C122.5,2.22385763 122.276142,2 122,2 Z M205,2 L130.5,2 C130.25454,2 130.050392,2.17687516 130.008056,2.41012437 L130,2.5 L130,44 C130,44.2454599 130.176875,44.4496084 130.410124,44.4919443 L130.5,44.5 L205,44.5 C205.24546,44.5 205.449608,44.3231248 205.491944,44.0898756 L205.5,44 L205.5,2.5 C205.5,2.22385763 205.276142,2 205,2 Z M34.5,16.5 L14.5,16.5 L14.5,21 L34.5,21 L34.5,16.5 Z M34.5,10.5 L14.5,10.5 L14.5,15 L34.5,15 L34.5,10.5 Z"/></g><g id="Group" transform="translate(0.000000, 218.000000)"><g id="Group-2" transform="translate(0.000000, 29.000000)"><path id="Combined-Shape" d="M113.5,64.5 L113.5,55.7 C113.5,55.1477153 113.947715,54.7 114.5,54.7 L114.75,54.7 L114.75,52.7363636 C114.75,52.3296812 115.085786,52 115.5,52 L118,52 C118.414214,52 118.75,52.3296812 118.75,52.7363636 L118.75,54.7 L119.75,54.7 L119.75,54.2090909 C119.75,53.8024085 120.085786,53.4727273 120.5,53.4727273 L129,53.4727273 C129.414214,53.4727273 129.75,53.8024085 129.75,54.2090909 L129.75,54.7 L130,54.7 C130.552285,54.7 131,55.1477153 131,55.7 L131,64.5 C131,65.0522847 130.552285,65.5 130,65.5 L140,65.5 L140,156 L136.5,156 L136.5,71.5 L3.5,71.5 L3.5,156 L0,156 L0,65.5 L11.8432015,65.5013944 C11.0336771,64.9641297 10.5,64.0443883 10.5,63 L10.5,9.5 C10.5,7.84314575 11.8431458,6.5 13.5,6.5 L36,6.5 C37.6568542,6.5 39,7.84314575 39,9.5 L39,63 C39,64.0443883 38.4663229,64.9641297 37.6567985,65.5013944 L69.6344277,65.5011143 C69.5489435,65.3537761 69.5,65.1826037 69.5,65 C69.5,64.4477153 69.9477153,64 70.5,64 L81.5,64 L81.5,47.5 L46.5,47.5 C45.9477153,47.5 45.5,47.0522847 45.5,46.5 L45.5,1 C45.5,0.44771525 45.9477153,1.01453063e-16 46.5,0 L124,0 C124.552285,-1.01453063e-16 125,0.44771525 125,1 L125,46.5 C125,47.0522847 124.552285,47.5 124,47.5 L90,47.5 L90,64 L100.5,64 C101.052285,64 101.5,64.4477153 101.5,65 C101.5,65.1826037 101.451056,65.3537761 101.365572,65.5011143 L114.5,65.5 C113.947715,65.5 113.5,65.0522847 113.5,64.5 Z M118,52.4909091 L115.5,52.4909091 C115.361929,52.4909091 115.25,52.6008028 115.25,52.7363636 L115.25,64.0272727 C115.25,64.1628335 115.361929,64.2727273 115.5,64.2727273 L118,64.2727273 C118.138071,64.2727273 118.25,64.1628335 118.25,64.0272727 L118.25,52.7363636 C118.25,52.6008028 118.138071,52.4909091 118,52.4909091 Z M129,62.5545455 L128,62.5545455 L128,63.5363636 L129,63.5363636 L129,62.5545455 Z M121.5,62.5545455 L120.5,62.5545455 L120.5,63.5363636 L121.5,63.5363636 L121.5,62.5545455 Z M123,62.5545455 L122,62.5545455 L122,63.5363636 L123,63.5363636 L123,62.5545455 Z M124.5,62.5545455 L123.5,62.5545455 L123.5,63.5363636 L124.5,63.5363636 L124.5,62.5545455 Z M16.25,60 C15.5596441,60 15,60.5596441 15,61.25 C15,61.9403559 15.5596441,62.5 16.25,62.5 C16.9403559,62.5 17.5,61.9403559 17.5,61.25 C17.5,60.5596441 16.9403559,60 16.25,60 Z M129,61.0818182 L128,61.0818182 L128,62.0636364 L129,62.0636364 L129,61.0818182 Z M121.5,61.0818182 L120.5,61.0818182 L120.5,62.0636364 L121.5,62.0636364 L121.5,61.0818182 Z M123,61.0818182 L122,61.0818182 L122,62.0636364 L123,62.0636364 L123,61.0818182 Z M124.5,61.0818182 L123.5,61.0818182 L123.5,62.0636364 L124.5,62.0636364 L124.5,61.0818182 Z M129,59.6090909 L128,59.6090909 L128,60.5909091 L129,60.5909091 L129,59.6090909 Z M121.5,59.6090909 L120.5,59.6090909 L120.5,60.5909091 L121.5,60.5909091 L121.5,59.6090909 Z M123,59.6090909 L122,59.6090909 L122,60.5909091 L123,60.5909091 L123,59.6090909 Z M124.5,59.6090909 L123.5,59.6090909 L123.5,60.5909091 L124.5,60.5909091 L124.5,59.6090909 Z M129,53.9636364 L120.5,53.9636364 C120.361929,53.9636364 120.25,54.0735301 120.25,54.2090909 L120.25,58.1363636 C120.25,58.2719244 120.361929,58.3818182 120.5,58.3818182 L129,58.3818182 C129.138071,58.3818182 129.25,58.2719244 129.25,58.1363636 L129.25,54.2090909 C129.25,54.0735301 129.138071,53.9636364 129,53.9636364 Z M122.5,2 L48,2 C47.7545401,2 47.5503916,2.17687516 47.5080557,2.41012437 L47.5,2.5 L47.5,44 C47.5,44.2454599 47.6768752,44.4496084 47.9101244,44.4919443 L48,44.5 L122.5,44.5 C122.74546,44.5 122.949608,44.3231248 122.991944,44.0898756 L123,44 L123,2.5 C123,2.22385763 122.776142,2 122.5,2 Z M35,16.5 L15,16.5 L15,21 L35,21 L35,16.5 Z M35,10.5 L15,10.5 L15,15 L35,15 L35,10.5 Z"/><path id="Combined-Shape" d="M207.5,64.5 L207.5,55.7 C207.5,55.1477153 207.947715,54.7 208.5,54.7 L208.75,54.7 L208.75,52.7363636 C208.75,52.3296812 209.085786,52 209.5,52 L212,52 C212.414214,52 212.75,52.3296812 212.75,52.7363636 L212.75,54.7 L213.75,54.7 L213.75,54.2090909 C213.75,53.8024085 214.085786,53.4727273 214.5,53.4727273 L223,53.4727273 C223.414214,53.4727273 223.75,53.8024085 223.75,54.2090909 L223.75,54.7 L224,54.7 C224.552285,54.7 225,55.1477153 225,55.7 L225,64.5 C225,65.0522847 224.552285,65.5 224,65.5 L231.634428,65.5011143 C231.548944,65.3537761 231.5,65.1826037 231.5,65 C231.5,64.4477153 231.947715,64 232.5,64 L243.5,64 L243.5,47.5 L208.5,47.5 C207.947715,47.5 207.5,47.0522847 207.5,46.5 L207.5,1 C207.5,0.44771525 207.947715,1.01453063e-16 208.5,0 L286,0 C286.552285,-1.01453063e-16 287,0.44771525 287,1 L287,46.5 C287,47.0522847 286.552285,47.5 286,47.5 L252,47.5 L252,64 L262.5,64 C263.052285,64 263.5,64.4477153 263.5,65 C263.5,65.1826037 263.451056,65.3537761 263.365572,65.5011143 L287.154495,65.501489 C287.056514,65.342267 287,65.1547975 287,64.9541284 C287,64.3765095 287.468253,63.9082569 288.045872,63.9082569 L351.454128,63.9082569 C352.031747,63.9082569 352.5,64.3765095 352.5,64.9541284 C352.5,65.1547975 352.443486,65.342267 352.345505,65.501489 L360,65.5 L360,156 L356.5,156 L356.5,71.5 L203.5,71.5 L203.5,156 L200,156 L200,65.5 L208.5,65.5 C207.947715,65.5 207.5,65.0522847 207.5,64.5 Z M212,52.4909091 L209.5,52.4909091 C209.361929,52.4909091 209.25,52.6008028 209.25,52.7363636 L209.25,64.0272727 C209.25,64.1628335 209.361929,64.2727273 209.5,64.2727273 L212,64.2727273 C212.138071,64.2727273 212.25,64.1628335 212.25,64.0272727 L212.25,52.7363636 C212.25,52.6008028 212.138071,52.4909091 212,52.4909091 Z M223,62.5545455 L222,62.5545455 L222,63.5363636 L223,63.5363636 L223,62.5545455 Z M215.5,62.5545455 L214.5,62.5545455 L214.5,63.5363636 L215.5,63.5363636 L215.5,62.5545455 Z M217,62.5545455 L216,62.5545455 L216,63.5363636 L217,63.5363636 L217,62.5545455 Z M218.5,62.5545455 L217.5,62.5545455 L217.5,63.5363636 L218.5,63.5363636 L218.5,62.5545455 Z M223,61.0818182 L222,61.0818182 L222,62.0636364 L223,62.0636364 L223,61.0818182 Z M215.5,61.0818182 L214.5,61.0818182 L214.5,62.0636364 L215.5,62.0636364 L215.5,61.0818182 Z M217,61.0818182 L216,61.0818182 L216,62.0636364 L217,62.0636364 L217,61.0818182 Z M218.5,61.0818182 L217.5,61.0818182 L217.5,62.0636364 L218.5,62.0636364 L218.5,61.0818182 Z M345.863426,28 C346.691853,28 347.363426,28.6715729 347.363426,29.5 L347.363426,59.6192661 C347.363426,60.4476932 346.691853,61.1192661 345.863426,61.1192661 L293.287037,61.1192661 C292.45861,61.1192661 291.787037,60.4476932 291.787037,59.6192661 L291.787037,29.5 C291.787037,28.6715729 292.45861,28 293.287037,28 L345.863426,28 Z M223,59.6090909 L222,59.6090909 L222,60.5909091 L223,60.5909091 L223,59.6090909 Z M215.5,59.6090909 L214.5,59.6090909 L214.5,60.5909091 L215.5,60.5909091 L215.5,59.6090909 Z M217,59.6090909 L216,59.6090909 L216,60.5909091 L217,60.5909091 L217,59.6090909 Z M218.5,59.6090909 L217.5,59.6090909 L217.5,60.5909091 L218.5,60.5909091 L218.5,59.6090909 Z M345.115741,29.7431193 L294.034722,29.7431193 C293.789262,29.7431193 293.585114,29.9199944 293.542778,30.1532436 L293.534722,30.2431193 L293.534722,58.1788991 C293.534722,58.424359 293.711597,58.6285075 293.944847,58.6708434 L294.034722,58.6788991 L345.115741,58.6788991 C345.361201,58.6788991 345.565349,58.5020239 345.607685,58.2687747 L345.615741,58.1788991 L345.615741,30.2431193 C345.615741,29.9669769 345.391883,29.7431193 345.115741,29.7431193 Z M223,53.9636364 L214.5,53.9636364 C214.361929,53.9636364 214.25,54.0735301 214.25,54.2090909 L214.25,58.1363636 C214.25,58.2719244 214.361929,58.3818182 214.5,58.3818182 L223,58.3818182 C223.138071,58.3818182 223.25,58.2719244 223.25,58.1363636 L223.25,54.2090909 C223.25,54.0735301 223.138071,53.9636364 223,53.9636364 Z M284.5,2 L210,2 C209.75454,2 209.550392,2.17687516 209.508056,2.41012437 L209.5,2.5 L209.5,44 C209.5,44.2454599 209.676875,44.4496084 209.910124,44.4919443 L210,44.5 L284.5,44.5 C284.74546,44.5 284.949608,44.3231248 284.991944,44.0898756 L285,44 L285,2.5 C285,2.22385763 284.776142,2 284.5,2 Z"/></g><path id="Combined-Shape" d="M447,65.1788618 L447,65.1734417 C447,64.621157 447.447715,64.1734417 448,64.1734417 L459,64.173 L459,47.628 L424,47.6287263 C423.447715,47.6287263 423,47.181011 423,46.6287263 L423,1 C423,0.44771525 423.447715,-7.1149966e-15 424,-7.10542736e-15 L501.5,-7.10542736e-15 C502.052285,5.30535619e-16 502.5,0.44771525 502.5,1 L502.5,46.6287263 C502.5,47.181011 502.052285,47.6287263 501.5,47.6287263 L467.5,47.628 L467.5,64.173 L478,64.1734417 C478.552285,64.1734417 479,64.621157 479,65.1734417 L479,65.1788618 C479,65.7311465 478.552285,66.1788618 478,66.1788618 L505,66.1788618 L505,72.195122 L465.5,72.1948618 L465.5,177.980217 L491,177.980255 L491,175.474255 L501.5,175.474255 L501.5,185 L491,185 L491,182.994255 L434.5,182.994255 L434.5,185 L424,185 L424,175.474255 L434.5,175.474255 L434.5,177.980255 L460,177.980217 L460,72.1948618 L420,72.195122 L420,66.1788618 L448,66.1788618 C447.447715,66.1788618 447,65.7311465 447,65.1788618 Z M500,2.00542005 L425.5,2.00542005 C425.25454,2.00542005 425.050392,2.18229521 425.008056,2.41554442 L425,2.50542005 L425,44.1205962 C425,44.3660561 425.176875,44.5702046 425.410124,44.6125405 L425.5,44.6205962 L500,44.6205962 C500.24546,44.6205962 500.449608,44.443721 500.491944,44.2104718 L500.5,44.1205962 L500.5,2.50542005 C500.5,2.22927768 500.276142,2.00542005 500,2.00542005 Z"/><g id="Group-3" transform="translate(565.000000, 5.000000)"><path id="Combined-Shape-Copy-39" d="M64.9541284,172.908257 C65.5317474,172.908257 66,173.37651 66,173.954128 C66,174.531747 65.5317474,175 64.9541284,175 L1.04587156,175 C0.468252647,175 7.07379153e-17,174.531747 0,173.954128 C-7.07379153e-17,173.37651 0.468252647,172.908257 1.04587156,172.908257 L64.9541284,172.908257 Z M59.3242154,137 C60.1526426,137 60.8242154,137.671573 60.8242154,138.5 L60.8242154,168.619266 C60.8242154,169.447693 60.1526426,170.119266 59.3242154,170.119266 L6.3235793,170.119266 C5.49515218,170.119266 4.8235793,169.447693 4.8235793,168.619266 L4.8235793,138.5 C4.8235793,137.671573 5.49515218,137 6.3235793,137 L59.3242154,137 Z M58.5631891,138.743119 L7.0846056,138.743119 C6.83914571,138.743119 6.63499723,138.919994 6.59266127,139.153244 L6.5846056,139.243119 L6.5846056,167.178899 C6.5846056,167.424359 6.76148076,167.628507 6.99472997,167.670843 L7.0846056,167.678899 L58.5631891,167.678899 C58.808649,167.678899 59.0127975,167.502024 59.0551335,167.268775 L59.0631891,167.178899 L59.0631891,139.243119 C59.0631891,138.966977 58.8393315,138.743119 58.5631891,138.743119 Z"/><path id="Combined-Shape-Copy-40" d="M59.5,64 C60.3284271,64 61,64.6715729 61,65.5 L61,95.5 C61,96.3284271 60.3284271,97 59.5,97 L6.5,97 C5.67157288,97 5,96.3284271 5,95.5 L5,65.5 C5,64.6715729 5.67157288,64 6.5,64 L59.5,64 Z M58.990991,65 L7.00900901,65 C6.45672426,65 6.00900901,65.4477153 6.00900901,66 L6.00900901,66 L6.00900901,95 C6.00900901,95.5522847 6.45672426,96 7.00900901,96 L7.00900901,96 L58.990991,96 C59.5432757,96 59.990991,95.5522847 59.990991,95 L59.990991,95 L59.990991,66 C59.990991,65.4477153 59.5432757,65 58.990991,65 L58.990991,65 Z"/><path id="Combined-Shape-Copy-41" d="M37.5,0 C38.3284271,-1.52179594e-16 39,0.671572875 39,1.5 L39,22.5 C39,23.3284271 38.3284271,24 37.5,24 L28.5,24 C27.6715729,24 27,23.3284271 27,22.5 L27,1.5 C27,0.671572875 27.6715729,1.52179594e-16 28.5,0 L37.5,0 Z M37.7837838,0.727272727 L28.2162162,0.727272727 C27.6639315,0.727272727 27.2162162,1.17498798 27.2162162,1.72727273 L27.2162162,1.72727273 L27.2162162,22.2727273 C27.2162162,22.825012 27.6639315,23.2727273 28.2162162,23.2727273 L28.2162162,23.2727273 L37.7837838,23.2727273 C38.3360685,23.2727273 38.7837838,22.825012 38.7837838,22.2727273 L38.7837838,22.2727273 L38.7837838,1.72727273 C38.7837838,1.17498798 38.3360685,0.727272727 37.7837838,0.727272727 L37.7837838,0.727272727 Z"/></g></g></g></g></svg>