<svg xmlns="http://www.w3.org/2000/svg" xmlns:xlink="http://www.w3.org/1999/xlink" width="760" height="760" version="1.1" viewBox="0 0 760 760"><title>z-layers-diagram</title><defs><polygon id="path-1" points="470.386 513.293 488.659 506.851 439.548 480.065 453.865 533.818 464.587 517.788 477.424 534.087 483.223 529.593"/><filter id="filter-2" width="136.5%" height="133.5%" x="-17.1%" y="-14.7%" filterUnits="objectBoundingBox"><feMorphology in="SourceAlpha" operator="dilate" radius="1.228" result="shadowSpreadOuter1"/><feOffset dx="0" dy="1" in="shadowSpreadOuter1" result="shadowOffsetOuter1"/><feGaussianBlur in="shadowOffsetOuter1" result="shadowBlurOuter1" stdDeviation="2"/><feComposite in="shadowBlurOuter1" in2="SourceAlpha" operator="out" result="shadowBlurOuter1"/><feColorMatrix in="shadowBlurOuter1" type="matrix" values="0 0 0 0 0 0 0 0 0 0 0 0 0 0 0 0 0 0 0.25 0"/></filter></defs><g id="z-layers-diagram" fill="none" fill-rule="evenodd" stroke="none" stroke-width="1"><rect width="760" height="760" x="0" y="0" fill="#FFF"/><path id="Path" fill="#000" d="M349.049756,203.315541 C292.124325,228.253966 223.949532,278.105667 240.108988,350.400733 C244.313284,369.210143 272.113182,433.27537 261.89893,462.195126 C247.793295,502.132609 228.068108,500.75977 231.144546,537.207056 C232.479904,553.027357 251.217568,562.266296 263.588142,566.727707 C294.996809,578.055149 340.086182,579.784905 370.938011,566.352558 C404.876094,551.576509 403.132911,502.190739 399.395424,470.948602 C398.534657,463.753342 389.891284,432.771336 393.139083,420.33922 C393.649413,418.385749 396.401204,417.607337 398.403347,417.338028 C417.523966,414.766103 436.929097,414.634952 456.024245,411.880504 C485.867531,407.575652 501.840867,412.322773 516.263869,390.988279 C518.895204,387.09601 520.798452,382.68369 522.162705,378.188553 C525.351073,367.683056 528.09177,357.000713 529.866941,346.166909 C536.742827,304.203636 475.509047,335.512927 464.577557,307.365787 C457.845375,290.031311 473.575438,266.906357 477.626496,252.692291 C478.915647,248.169011 480.866972,242.519653 478.270005,238.597409 C473.929177,232.04138 424.42584,194.738657 415.179278,191.149996 C408.3991,188.518558 401.455056,185.999369 394.256287,184.960038 C387.014526,183.9145 379.544172,183.893561 372.305468,184.960038 C367.959006,185.600402 364.184142,188.31256 360.123479,189.988821 L349.049756,203.315541 Z"/><rect id="Rectangle" width="747.722" height="747.722" x="6.139" y="6.139" stroke="#E02020" stroke-width="12.278"/><path id="Combined-Shape" fill="#6DD400" d="M152.245557,710.88853 L152.245557,735.444265 L24.5557351,735.444265 L24.5557351,710.88853 L152.245557,710.88853 Z M710.88853,710.88853 L710.88853,735.444265 L583.198708,735.444265 L583.198708,710.88853 L710.88853,710.88853 Z M152.245557,680.193861 L152.245557,704.749596 L24.5557351,704.749596 L24.5557351,680.193861 L152.245557,680.193861 Z M710.88853,680.193861 L710.88853,704.749596 L583.198708,704.749596 L583.198708,680.193861 L710.88853,680.193861 Z M112.956381,649.499192 L112.956381,674.054927 L24.5557351,674.054927 L24.5557351,649.499192 L112.956381,649.499192 Z M710.88853,649.499192 L710.88853,674.054927 L622.487884,674.054927 L622.487884,649.499192 L710.88853,649.499192 Z M197.673667,618.804523 L197.673667,643.360258 L24.5557351,643.360258 L24.5557351,618.804523 L197.673667,618.804523 Z M710.88853,618.804523 L710.88853,643.360258 L537.770598,643.360258 L537.770598,618.804523 L710.88853,618.804523 Z M152.245557,116.639742 L152.245557,141.195477 L24.5557351,141.195477 L24.5557351,116.639742 L152.245557,116.639742 Z M710.88853,116.639742 L710.88853,141.195477 L583.198708,141.195477 L583.198708,116.639742 L710.88853,116.639742 Z M152.245557,85.9450727 L152.245557,110.500808 L24.5557351,110.500808 L24.5557351,85.9450727 L152.245557,85.9450727 Z M710.88853,85.9450727 L710.88853,110.500808 L583.198708,110.500808 L583.198708,85.9450727 L710.88853,85.9450727 Z M112.956381,55.2504039 L112.956381,79.8061389 L24.5557351,79.8061389 L24.5557351,55.2504039 L112.956381,55.2504039 Z M710.88853,55.2504039 L710.88853,79.8061389 L622.487884,79.8061389 L622.487884,55.2504039 L710.88853,55.2504039 Z M197.673667,24.5557351 L197.673667,49.1114701 L24.5557351,49.1114701 L24.5557351,24.5557351 L197.673667,24.5557351 Z M710.88853,24.5557351 L710.88853,49.1114701 L537.770598,49.1114701 L537.770598,24.5557351 L710.88853,24.5557351 Z"/><circle id="Oval" cx="488.659" cy="408.853" r="41.745" stroke="#32C5FF" stroke-opacity=".5" stroke-width="3.683"/><path id="Path-2" fill="#32C5FF" fill-opacity=".5" d="M258.963192,305.62406 C255.618304,347.889914 254.65386,310.710436 267.888153,351.81814 C276.02594,377.095326 231.883336,392.195865 225.03565,376.967967 C210.518445,344.684581 205.893817,326.418545 235.369147,307.494849 C243.45005,302.306763 249.432853,295.876578 257.18666,302.216856 L258.963192,305.62406 Z"/><rect id="Rectangle" width="103.134" height="23.328" x="434.637" y="266.43" fill="#32C5FF" fill-opacity=".5"/><line id="Line-2" x1="494.184" x2="435.25" y1="361.583" y2="290.372" stroke="#32C5FF" stroke-dasharray="7.367" stroke-linecap="square" stroke-width="2.456"/><polygon id="Triangle" fill="#3BD900" points="45.398 445.72 62.587 505.882 28.209 505.882" transform="translate(45.398372, 475.800987) rotate(233.000000) translate(-45.398372, -475.800987)"/><g id="Rectangle-237"><use fill="#000" fill-opacity="1" filter="url(#filter-2)" xlink:href="#path-1"/><path fill="#FFB100" fill-rule="evenodd" stroke="#FFF" stroke-opacity=".8" stroke-width="1.228" d="M438.58647,478.841113 L490.162723,506.971355 L471.398992,513.586848 L484.088073,529.69886 L477.318644,534.945622 L464.627704,518.831248 L453.621303,535.287126 L438.58647,478.841113 Z"/></g><rect id="Rectangle" width="33.15" height="33.15" x="24.556" y="367.108" fill="#3BD900"/><rect id="Rectangle-Copy-16" width="33.15" height="33.15" x="677.738" y="367.108" fill="#3BD900"/><rect id="Rectangle" width="15.961" height="710.889" x="719.483" y="24.556" fill="#3BD900"/><rect id="Rectangle-Copy-17" width="33.15" height="33.15" x="363.425" y="702.294" fill="#3BD900"/><rect id="Rectangle-Copy-18" width="33.15" height="33.15" x="363.425" y="24.556" fill="#3BD900"/></g></svg>