<svg width="315" height="317" viewBox="0 0 315 317" fill="none" xmlns="http://www.w3.org/2000/svg">
<path d="M88.2339 95.8448L87.545 95.7224L86.884 95.2573L86.5658 94.7327L86.5133 94.0123L86.7022 93.4632L86.9924 92.9981L87.0938 92.505L86.863 91.9805L86.314 91.3859L85.0165 90.9453L84.7997 92.5435L84.478 93.2149L83.9289 93.7815L83.0896 94.1767L82.072 94.7851L81.3236 95.3762L78.9141 98.6215L79.2848 100.58L79.6135 100.975L80.1346 101.465L80.5752 101.657L81.8307 102.405L83.3099 104.353L84.8592 105.787L87.0274 108.438L88.2724 109.337L89.1222 109.602L90.3776 108.882L91.1715 108.714L92.2066 108.623L95.3645 107.613L99.5086 107.641L100.834 107.392L101.666 106.878L102.894 105.381L103.66 104.713L105.031 104.416L111.839 105.014L113.189 105.619L114.515 106.742L118.169 110.767L120.019 113.18L120.128 114.376L119.537 115.303L117.732 116.436L116.284 117.625L115.791 118.3L115.704 119.01L116.106 119.839L117.841 121.828L120.726 124.525L123.523 126.448L125.02 127.015L126.227 126.976L129.283 125.084L130.385 124.783L131.581 125.063L149.605 143.539L149.804 143.647L149.836 143.661L163.307 139.618L179.25 134.834L195.193 130.04L198.967 128.907L198.932 128.893L198.837 128.858L118.949 101.069L116.683 99.7511L114.634 97.8137L113.508 97.2192L110.031 96.8415L108.842 96.9639L108.014 97.3381L107.335 97.8626L106.506 98.2438L105.541 98.2683L104.548 97.9745L103.422 97.1492L100.824 95.8623L98.2217 95.6105L97.4173 95.7154L96.7494 95.8762L95.4135 96.4218L94.5217 96.4952L93.5355 96.2295L91.9688 95.0335L91.161 94.5299L90.5175 94.4459L89.6397 95.3202L88.9928 95.6804L88.2339 95.8448Z" fill="#E9EAEB" stroke="black"/>
<path d="M65.4788 150.983L64.5905 150.973L63.3735 150.731L56.9213 148.567L52.0498 148.367L50.6754 148.741L50.6579 149.497L50.3992 151.207L49.2556 154.239L48.0596 156.407L48.5352 156.953L48.4303 158.579L47.5245 160.159L46.7202 161.992L47.0734 164.052L47.6854 165.986L48.3708 167.496L49.329 169.374L49.7802 171.431L49.4759 173.571L46.4544 179.565L46.0417 181.765L46.0487 184.118L45.3318 185.482L43.5938 187.164L44.0903 187.503L47.3077 189.77L48.203 190.014L49.35 190.098L50.0704 189.658L50.4901 188.916L50.8992 185.867L51.5497 183.922L51.8295 182.394L52.2282 181.807L52.8366 181.611L53.655 181.646L54.795 181.481L55.6134 181.537L56.3408 181.754L57.0612 182.398L57.9564 182.989L58.8797 183.349L64.3702 183.622L74.6867 187.752L75.1133 188.133L75.2952 188.591L75.5645 189.123L76.166 189.703L76.9738 190.284L79.3064 191.368L79.9778 191.77L80.4779 192.319L81.1459 193.449L81.6565 194.019L84.3842 196.05L87.1399 198.831L94.6797 184.737L97.96 174.242L96.4528 170.056L95.3757 162.67L75.9037 162.198L75.2637 161.625L75.0364 160.723L75.1938 159.257L75.4351 158.191L75.9526 156.69L76.0715 156.012L75.9037 155.022L75.463 153.588L73.8963 150.822L71.0217 150.158L69.6648 150.13L67.4651 150.343L65.4788 150.983Z" fill="#E9EAEB" stroke="black"/>
<path d="M73.8928 150.82L74.5922 150.152L74.9804 149.848L75.47 149.334L75.7498 148.844L76.8514 145.431L77.278 144.609L78.1663 143.316L78.3656 142.836L78.2467 142.375L77.7396 141.878L77.3584 141.41L77.299 140.812L77.5193 140.266L77.5683 139.546L77.1801 138.591L74.3824 135.562L73.9033 134.377L73.4067 132.429L73.3053 131.695L73.3962 131.041L73.7144 130.46L74.823 129.128L75.2007 128.432L75.3406 127.722L75.1902 122.242L74.7321 121.808L74.3019 121.738L73.4941 122.074L72.5044 122.322L69.2521 122.333L66.8321 122.966L66.0068 123.459L64.2862 123.613L63.4888 123.858L62.709 124.379L62.3208 124.889L61.5689 126.925L60.5128 128.851L59.7049 129.638L58.8062 130.065L54.3788 129.817L53.5885 129.719L52.1512 133.065L51.1265 138.549L50.7733 144.144L50.7943 144.267L50.8013 144.337L50.7733 144.361L50.7348 144.333L50.7628 144.358L50.6719 148.74L52.0462 148.365L56.9177 148.565L63.3699 150.729L64.5869 150.971L65.4752 150.981L67.4616 150.341L69.6613 150.128L71.0181 150.156L73.8928 150.82Z" fill="#E9EAEB" stroke="black"/>
<path d="M62.1582 91.9229L57.6819 91.3809L57.2692 91.4263L56.986 92.6398L57.2587 93.5421V94.1086L56.7342 94.3779L56.4404 94.7206V95.1333L56.7796 95.6194L55.7025 97.4728L55.6605 98.3506L56.339 99.2949L55.2549 100.187L54.9052 101.495L55.0241 104.999L55.7235 106.779L55.8599 107.587L55.9019 108.622L56.0068 109.251L56.388 110.09L56.339 110.695L56.0487 111.045L55.6011 111.175L55.2024 111.395L55.0241 112.01L56.5943 118.078L55.9019 119.022V119.585L57.2587 123.67L55.2094 125.96L53.5938 129.72L54.3841 129.818L58.8115 130.066L59.7102 129.639L60.5181 128.853L61.5742 126.926L62.3261 124.89L62.7143 124.38L63.4941 123.859L64.2915 123.614L66.012 123.46L66.8374 122.967L66.9598 121.614L67.1101 120.813L67.925 118.494L67.8166 117.851L67.4494 117.445L65.9701 117.2L65.1203 116.945L64.4313 116.595L63.9837 116.067L63.8438 115.371L64.2915 114.535L65.2602 113.665L69.0056 111.738L70.6143 110.563L73.5099 107.121L74.4681 106.328L76.9161 105.576L77.9232 105.006L79.9306 103.03L81.826 102.407L80.5706 101.659L80.1299 101.467L79.6089 100.977L79.2801 100.582L78.9094 98.6234L76.5454 96.8539L76.0628 96.2139L75.3354 95.4725L74.4366 95.0878L73.1707 94.8465L67.5788 94.9864L66.7185 94.906L66.061 94.6577L65.9701 94.0247L64.2915 93.682L63.2038 93.2343L62.1582 91.9229Z" fill="#E9EAEB" stroke="black"/>
<path d="M86.7172 79.5836L84.5839 79.4926L82.5836 78.9121L81.7268 79.1744L79.5166 80.1221L78.1527 80.8775L77.4533 81.1782L76.4531 81.8462L75.4355 82.8639L74.3479 84.5844L73.8967 85.8364L73.7184 86.896L73.7673 87.62L73.617 88.2984L73.0399 88.9628L68.6545 90.9562L65.9688 94.0232L66.0597 94.6562L66.7171 94.9045L67.5774 94.9849L73.1693 94.845L74.4353 95.0863L75.334 95.471L76.0615 96.2124L76.5441 96.8524L78.9081 98.6219L81.3176 95.3766L82.066 94.7856L83.0837 94.1771L83.923 93.7819L84.472 93.2154L84.7938 92.5439L85.0106 90.9457L84.3426 89.3895L83.4963 87.9662L83.0522 87.564L82.5241 87.2073L82.2164 86.6897L82.2654 85.9378L82.8843 84.7523L85.8114 81.437L86.7172 79.5836Z" fill="#E9EAEB" stroke="black"/>
<path d="M79.5185 80.123L78.1337 78.1611L76.8677 77.1295L76.546 76.5035L76.2662 75.5068L75.8361 75.3145L75.3779 75.6117L74.9163 76.2587L74.1505 76.7098L73.1013 76.8672L71.2339 76.7623L70.1742 76.9721L68.2158 78.0527L66.6701 78.4968L65.0509 78.3849L63.9319 78.4724L63.0156 78.8675L62.3861 79.6684L61.935 80.8469L60.9453 85.6135L61.0572 86.7745L61.4454 88.0055L62.3372 90.0583L62.498 90.7193L62.4456 91.1634L62.1588 91.9223L63.2045 93.2337L64.2921 93.6813L65.9707 94.0241L68.6565 90.9571L73.0419 88.9637L73.6189 88.2993L73.7693 87.6208L73.7203 86.8969L73.8987 85.8373L74.3498 84.5853L75.4374 82.8647L76.4551 81.8471L77.4552 81.1791L78.1547 80.8784L79.5185 80.123Z" fill="#E9EAEB" stroke="black"/>
<path d="M80.946 53.1443L80.6278 53.0359L79.5157 51.9028L78.9037 51.5461L71.9899 49.9269L71.3954 49.1715V49.168L71.4024 49.1575V49.154L71.1296 48.9442L70.7974 48.8848L70.4197 48.9687L70.0175 49.168L70.007 49.1715L68.8949 49.4583L65.3558 51.7L63.2226 53.6164L62.1909 54.1549L60.6697 53.9731L60.6627 53.9696L59.4772 54.8264L58.505 56.1203L57.9349 56.6309L57.4768 56.8232L57.3369 57.0785L57.302 57.7045L57.5608 58.2571L58.1063 58.5788V59.0544H57.6622V59.6279L58.0294 60.3134L58.2287 62.2823L58.5854 63.2265L58.3196 63.6426L58.2287 63.6846L58.1937 63.5062L58.1063 63.2265L57.9559 63.4992L57.6622 64.3176L57.2635 63.7965L57.4838 65.3947L57.6622 65.8843H56.7844V66.4019L57.1236 66.3634L57.3894 66.3739L57.8475 67.0558L57.9804 67.3776L58.5854 68.0105V68.4861L58.0084 68.661L57.6237 69.0667L57.3824 69.5842L57.2635 70.0948L57.5013 70.2662L57.6482 70.4061L57.823 70.511L58.1063 70.5704V71.137L57.7006 71.4132L57.2635 71.6126L57.6622 72.1301L56.7844 72.7037L56.9243 72.8366L57.0572 72.8121L57.1621 72.8611L57.2635 73.2178H56.7844V73.6934L57.1831 74.092L57.2425 74.3998L56.9697 74.6131L56.3438 74.732L56.6305 75.5748L56.7844 75.8231L57.0956 76.1553L57.3614 76.6275L57.5573 77.2115L57.6622 77.9074H57.2635V77.3828H56.7844V77.9074L57.1306 78.6488L57.0781 80.9324L57.6622 82.0655L57.3754 82.9503L57.3544 84.4016L57.5957 85.8529L58.1063 86.7411L57.7881 86.923L57.5433 87.1293L57.3684 87.4091L57.2635 87.8322H58.1063L57.274 91.4238L57.6866 91.3783L62.163 91.9204L62.4497 91.1615L62.5022 90.7174L62.3413 90.0564L61.4496 88.0036L61.0614 86.7726L60.9495 85.6116L61.9391 80.845L62.3903 79.6665L63.0198 78.8656L63.936 78.4704L65.0551 78.383L66.6743 78.4949L68.22 78.0508L70.1784 76.9702L71.238 76.7603L73.1055 76.8653L74.1546 76.7079L74.9205 76.2568L75.3821 75.6098L75.8402 75.3125L76.2704 75.5049L76.5501 76.5016L76.8719 77.1275L78.1378 78.1592L79.5227 80.1211L81.7329 79.1734L82.5897 78.9111L84.59 79.4916L86.7233 79.5825L87.2269 78.9181L87.3108 78.334L87.1114 77.2045L86.7827 76.4456L86.4435 75.8336L86.3631 75.2111L86.5834 74.5921L87.5066 73.8298L88.304 73.6934L89.0314 73.9487L90.2099 74.8754L90.7694 74.9943L91.2311 74.8334L91.6787 72.8541L90.8883 66.5977L90.112 66.5697L89.8812 66.5173L89.8672 66.1885L89.507 65.3003L86.6079 60.8764L86.0029 59.6L85.9539 58.1626L86.1497 56.8617L85.849 55.9944L84.3452 55.8755L83.415 56.0504L82.7435 55.8126L82.177 55.2775L81.593 54.5466L81.8308 54.5851L82.0371 54.2703L82.1245 53.7737L82.0231 53.2667L81.7783 53.1338L80.946 53.1443Z" fill="#E9EAEB" stroke="black"/>
<path d="M86.6699 315.999L88.4324 315.933L90.083 315.258L97.0633 309.481L103.869 303.836L111.353 297.629L116.311 293.509L120.445 286.498L124.453 279.682L127.415 274.649L130.971 268.585L132.51 266.924L134.276 266.036L139.858 264.871L145.586 263.682L154.843 261.748L164.026 259.829L172.64 258.031L180.221 256.454L181.606 255.219L184.467 248.222L186.593 243.039L188.908 237.395L190.797 232.771L191.636 231.421L193.126 230.173L200.117 226.235L207.891 221.857L212.601 219.209L213.031 218.944L213.094 218.919L213.119 218.891L213.098 218.839L209.912 215.09L202.858 206.777L195.787 198.458L188.723 190.12L181.666 181.773L181.459 181.535L181.26 181.294L181.054 181.052L180.854 180.815L172.482 171.726L164.233 162.769L95.3777 162.668L96.4548 170.054L97.9621 174.24L94.6818 184.735L87.142 198.828L82.246 207.109L79.8994 207.984L78.1718 207.305L77.4934 207.249L76.8045 207.4L76.0036 207.959L75.3671 208.589L74.4579 209.166L69.8941 210.264L63.8826 211.079L61.6934 210.879L55.2971 211.082L52.6708 210.687L50.0934 210.694L49.7227 215.363L48.4043 221.28L45.5507 230.372L45.6801 238.762L45.159 240.93L41.3961 248.386L40.6582 252.082L40.5078 254.037L40.8086 255.433L41.1478 256.16L41.6444 257.017L42.2354 257.79L43.0222 258.521L43.9035 259.042L44.9597 259.391L45.9878 259.437L46.946 259.315L47.7783 259.01L48.6072 258.842L50.2613 258.793L52.1812 259.171L53.3772 259.619L54.6397 260.322L55.8847 261.416L57.0422 262.661L58.0004 264.155L61.3856 271.834L65.5577 288.883L68.7436 312.268L68.8905 312.901L68.8975 312.922L72.5625 313.558L79.9799 314.842L86.6699 315.999Z" fill="#E9EAEB" stroke="black"/>
<path d="M87.1425 198.83L84.3867 196.049L81.659 194.018L81.1484 193.448L80.4805 192.318L79.9804 191.769L79.3089 191.367L76.9763 190.283L76.1685 189.702L75.567 189.122L75.2977 188.59L75.1159 188.132L74.6892 187.751L64.3727 183.621L58.8822 183.348L57.959 182.988L57.0637 182.397L56.3433 181.753L55.6159 181.536L54.7976 181.48L53.6575 181.645L52.8392 181.61L52.2307 181.806L51.832 182.393L51.5522 183.921L50.9018 185.866L50.4926 188.915L50.073 189.657L49.3526 190.097L48.2055 190.013L47.3102 189.769L44.0929 187.503L43.5963 187.163L42.8129 187.922L41.9946 189.618L41.8232 191.318L41.8547 192.993L41.6344 194.651L41.2637 195.364L40.1726 196.347L39.6725 196.938L39.2494 197.844L39.029 198.686L38.7353 200.578L38.2422 202.355L39.2074 203.096L43.5998 206.258L44.593 206.779L45.4288 207.541L46.1981 208.88L46.985 209.912L47.8977 210.363L48.6252 210.632L50.0939 210.695L52.6713 210.688L55.2977 211.084L61.6939 210.881L63.8831 211.08L69.8947 210.265L74.4584 209.167L75.3677 208.59L76.0041 207.961L76.805 207.401L77.4939 207.251L78.1724 207.307L79.8999 207.985L82.2465 207.111L87.1425 198.83Z" fill="#E9EAEB" stroke="black"/>
<path d="M89.1175 109.603L88.2677 109.338L87.0227 108.439L84.8545 105.788L83.3052 104.354L81.826 102.406L79.9305 103.029L77.9232 105.005L76.916 105.575L74.468 106.327L73.5098 107.12L70.6142 110.562L69.0055 111.737L65.2601 113.663L64.2914 114.534L63.8438 115.37L63.9836 116.066L64.4313 116.594L65.1202 116.944L65.97 117.199L67.4493 117.444L67.8165 117.85L67.9249 118.493L67.1101 120.812L66.9597 121.612L66.8373 122.966L69.2573 122.333L72.5096 122.322L73.4993 122.074L74.3071 121.738L74.7373 121.808L75.1954 122.242L75.3458 127.722L75.2059 128.432L74.8282 129.128L73.7196 130.46L73.4014 131.041L73.3105 131.695L73.4119 132.429L73.9085 134.377L74.3876 135.562L77.1853 138.591L77.5735 139.546L77.5245 140.266L77.3042 140.812L77.3636 141.41L77.7448 141.878L78.2519 142.375L78.3708 142.836L78.1715 143.316L77.2832 144.61L76.8566 145.431L75.755 148.845L75.4752 149.334L74.9856 149.848L74.5974 150.152L73.898 150.82L75.4647 153.587L75.9053 155.02L76.0732 156.01L75.9543 156.689L75.4367 158.189L75.1954 159.256L75.038 160.721L75.2654 161.623L75.9053 162.197L95.3773 162.669L164.232 162.77L164.106 162.634L155.734 153.524L147.359 144.403L149.831 143.662L149.8 143.648L149.6 143.539L131.576 125.064L130.38 124.784L129.278 125.085L126.222 126.977L125.015 127.016L123.519 126.449L120.721 124.526L117.836 121.829L116.101 119.839L115.699 119.011L115.787 118.301L116.28 117.626L117.727 116.437L119.532 115.304L120.123 114.377L120.015 113.181L118.165 110.768L114.51 106.743L113.185 105.62L111.835 105.015L105.026 104.417L103.655 104.714L102.889 105.382L101.662 106.879L100.829 107.393L99.5039 107.641L95.3598 107.613L92.2019 108.624L91.1668 108.715L90.3729 108.883L89.1175 109.603Z" fill="#E9EAEB" stroke="black"/>
<path d="M264.16 1L248.399 10.8129L234.637 19.5068L229.175 22.9549L217.97 30.0156V30.0191L209.773 35.3068L198.746 42.4199L187.72 49.5156L181.796 53.3205L176.687 56.6043L165.671 63.686L158.547 68.2532V68.2567H158.536V68.2602L148.685 74.6984L138.341 81.8046L137.519 82.0878L136.613 82.0529L132.504 80.9652L131.105 80.9233L129.989 81.5842L127.667 79.8182L118.862 78.7411L116.515 78.4543L115.469 77.7969L111.843 77.4297L110.573 77.0415L109.622 76.4994L103.971 71.1243L99.8198 68.2532L97.725 66.1374L97.0256 65.7528L96.6933 65.8612L95.9624 66.5256L95.6407 66.6795L95.256 66.6095L94.5916 66.3473L94.1859 66.3053L91.8044 66.627L90.8846 66.5991L91.675 72.8554L91.2273 74.8348L90.7657 74.9957L90.2062 74.8768L89.0276 73.95L88.3002 73.6947L87.5029 73.8311L86.5797 74.5935L86.3593 75.2125L86.4398 75.835L86.779 76.447L87.1077 77.2058L87.3071 78.3354L87.2231 78.9194L86.7195 79.5839L85.8138 81.4374L82.8867 84.7526L82.2677 85.9382L82.2188 86.69L82.5265 87.2076L83.0546 87.5643L83.4987 87.9665L84.345 89.3898L85.0129 90.946L86.3104 91.3867L86.8594 91.9812L87.0902 92.5058L86.9888 92.9989L86.6986 93.464L86.5097 94.013L86.5622 94.7334L86.8804 95.258L87.5414 95.7231L88.2303 95.8455L88.9892 95.6811L89.6361 95.3209L90.5139 94.4467L91.1574 94.5306L91.9652 95.0342L93.5319 96.2302L94.5181 96.496L95.4099 96.4225L96.7458 95.877L97.4138 95.7161L98.2181 95.6112L100.82 95.863L103.418 97.1499L104.544 97.9753L105.538 98.269L106.503 98.2445L107.332 97.8634L108.01 97.3388L108.839 96.9646L110.028 96.8422L113.504 97.2199L114.63 97.8144L116.679 99.7518L118.946 101.07L198.834 128.858L198.928 128.893L198.963 128.907L211.13 125.249L213.452 124.574L225.604 121.053L240.068 116.853L254.529 112.646L269.004 108.439L276.313 106.312L276.32 106.316V106.302L278.547 105.358L286.189 98.0732L287.44 97.1255L288.091 96.9121L288.077 96.3281L295.82 89.7116L297.463 87.3055L296.117 82.1718L295.166 79.8322L293.844 79.0558L281.653 82.434L281.002 82.0668L280.523 80.9233L277.383 69.9668L277.295 69.8444L277.271 69.75L277.295 69.694L277.383 69.666L282.352 68.0993L278.026 52.135L274.987 40.9022L272.057 30.0156L269.825 21.8464L267.154 11.9845L264.16 1Z" fill="#E9EAEB" stroke="black"/>
<path d="M50.0931 210.696L48.6243 210.633L47.8969 210.364L46.9842 209.913L46.1973 208.881L45.4279 207.542L44.5921 206.779L43.5989 206.258L39.2066 203.097L38.2414 202.355L38.2379 202.369L34.4715 210.053L31.6912 219.201L31.387 220.981L30.2679 224.017V225.811L30.5862 226.577L31.5129 228.087L31.6912 229.147L31.5514 230.186L31.1981 230.986L30.768 231.752L30.3798 232.686L29.7748 236.568L29.3167 237.848L29.2887 239.978L30.6071 244.531V246.877L29.5615 249.381L26.8093 253.522L26.0644 256.452L26.0259 257.348L25.7846 258.005L25.4664 258.579L25.2146 259.222L24.7425 261.744L24.683 266.251L24.4102 267.759L21.4237 275.858L20.9446 277.704L20.6054 281.87L19.9934 283.716L19.1331 285.115L18.6749 286.738L18.3987 288.752L18.6994 288.71L18.7869 288.818V289.014L18.8393 289.256H19.7206L21.0565 290.609L21.1194 291.784L19.7206 294.812L19.2625 296.746L18.8393 303.475L18 304.069V304.073L25.1411 305.325L32.7823 306.657L42.7911 308.392L51.7368 309.948L61.2874 311.599L68.8971 312.924L68.8902 312.903L68.7433 312.27L65.5574 288.885L61.3853 271.836L58.0001 264.157L57.0419 262.663L55.8843 261.418L54.6394 260.324L53.3769 259.621L52.1809 259.173L50.261 258.796L48.6068 258.845L47.778 259.012L46.9457 259.317L45.9875 259.439L44.9593 259.394L43.9032 259.044L43.0219 258.523L42.2351 257.792L41.6441 257.019L41.1475 256.162L40.8082 255.435L40.5075 254.039L40.6579 252.085L41.3958 248.388L45.1587 240.932L45.6797 238.764L45.5503 230.374L48.404 221.282L49.7224 215.365L50.0931 210.696Z" fill="#E9EAEB" stroke="black"/>
<circle cx="86.8689" cy="120.869" r="7.86885" fill="#1F2937"/>
<path d="M132.262 123.679L127.646 111.062C127.419 110.503 127.183 109.838 126.938 109.069C126.693 108.299 126.448 107.469 126.203 106.577C125.976 107.469 125.74 108.308 125.495 109.095C125.25 109.864 125.014 110.538 124.787 111.115L120.197 123.679H132.262ZM144.721 138H139.266C138.654 138 138.155 137.851 137.77 137.554C137.386 137.239 137.097 136.855 136.905 136.4L134.072 128.662H118.361L115.528 136.4C115.388 136.802 115.117 137.169 114.715 137.502C114.313 137.834 113.814 138 113.22 138H107.711L122.636 100.072H129.823L144.721 138ZM147.573 138V111.089H151.534C152.373 111.089 152.924 111.482 153.186 112.269L153.606 114.262C154.078 113.738 154.567 113.257 155.075 112.82C155.599 112.383 156.15 112.007 156.727 111.692C157.322 111.377 157.951 111.132 158.616 110.957C159.298 110.765 160.041 110.669 160.845 110.669C162.541 110.669 163.931 111.132 165.016 112.059C166.117 112.968 166.939 114.184 167.481 115.705C167.901 114.813 168.425 114.052 169.055 113.423C169.684 112.776 170.375 112.251 171.127 111.849C171.879 111.447 172.675 111.15 173.514 110.957C174.371 110.765 175.228 110.669 176.084 110.669C177.571 110.669 178.891 110.896 180.045 111.351C181.199 111.805 182.17 112.47 182.957 113.344C183.743 114.219 184.338 115.285 184.74 116.544C185.16 117.803 185.37 119.246 185.37 120.872V138H178.891V120.872C178.891 119.158 178.515 117.873 177.763 117.016C177.011 116.142 175.91 115.705 174.458 115.705C173.794 115.705 173.173 115.819 172.596 116.046C172.036 116.273 171.538 116.605 171.101 117.043C170.681 117.462 170.349 117.996 170.104 118.643C169.859 119.29 169.737 120.033 169.737 120.872V138H163.232V120.872C163.232 119.071 162.865 117.76 162.13 116.938C161.413 116.116 160.355 115.705 158.957 115.705C158.012 115.705 157.129 115.941 156.307 116.413C155.503 116.868 154.751 117.497 154.052 118.302V138H147.573ZM191.528 138V111.089H195.489C196.328 111.089 196.879 111.482 197.141 112.269L197.561 114.262C198.033 113.738 198.522 113.257 199.03 112.82C199.554 112.383 200.105 112.007 200.682 111.692C201.276 111.377 201.906 111.132 202.57 110.957C203.252 110.765 203.996 110.669 204.8 110.669C206.496 110.669 207.886 111.132 208.97 112.059C210.072 112.968 210.894 114.184 211.436 115.705C211.856 114.813 212.38 114.052 213.01 113.423C213.639 112.776 214.33 112.251 215.082 111.849C215.834 111.447 216.63 111.15 217.469 110.957C218.326 110.765 219.183 110.669 220.039 110.669C221.526 110.669 222.846 110.896 224 111.351C225.154 111.805 226.125 112.47 226.911 113.344C227.698 114.219 228.293 115.285 228.695 116.544C229.115 117.803 229.325 119.246 229.325 120.872V138H222.846V120.872C222.846 119.158 222.47 117.873 221.718 117.016C220.966 116.142 219.864 115.705 218.413 115.705C217.749 115.705 217.128 115.819 216.551 116.046C215.991 116.273 215.493 116.605 215.056 117.043C214.636 117.462 214.304 117.996 214.059 118.643C213.814 119.29 213.692 120.033 213.692 120.872V138H207.187V120.872C207.187 119.071 206.82 117.76 206.085 116.938C205.368 116.116 204.31 115.705 202.911 115.705C201.967 115.705 201.084 115.941 200.262 116.413C199.458 116.868 198.706 117.497 198.007 118.302V138H191.528ZM249.699 126.511C247.828 126.599 246.254 126.765 244.978 127.01C243.701 127.237 242.678 127.534 241.909 127.902C241.14 128.269 240.589 128.697 240.257 129.187C239.924 129.677 239.758 130.21 239.758 130.787C239.758 131.923 240.09 132.737 240.755 133.226C241.437 133.716 242.32 133.961 243.404 133.961C244.733 133.961 245.878 133.725 246.84 133.252C247.819 132.763 248.772 132.028 249.699 131.049V126.511ZM234.853 114.839C237.948 112.007 241.673 110.59 246.027 110.59C247.601 110.59 249.008 110.852 250.25 111.377C251.492 111.884 252.541 112.601 253.398 113.528C254.254 114.437 254.901 115.53 255.339 116.807C255.793 118.083 256.02 119.482 256.02 121.003V138H253.083C252.471 138 251.999 137.913 251.666 137.738C251.334 137.545 251.072 137.169 250.88 136.61L250.302 134.669C249.62 135.281 248.956 135.823 248.309 136.295C247.662 136.75 246.989 137.134 246.289 137.449C245.59 137.764 244.838 138 244.034 138.157C243.247 138.332 242.372 138.42 241.411 138.42C240.274 138.42 239.225 138.271 238.263 137.974C237.301 137.659 236.471 137.196 235.771 136.584C235.072 135.972 234.53 135.211 234.145 134.302C233.76 133.392 233.568 132.334 233.568 131.128C233.568 130.446 233.682 129.773 233.909 129.108C234.136 128.426 234.504 127.779 235.011 127.167C235.535 126.555 236.208 125.978 237.03 125.436C237.852 124.894 238.858 124.422 240.047 124.02C241.253 123.617 242.652 123.294 244.243 123.049C245.835 122.787 247.653 122.63 249.699 122.577V121.003C249.699 119.202 249.314 117.873 248.545 117.016C247.776 116.142 246.665 115.705 245.214 115.705C244.165 115.705 243.29 115.827 242.591 116.072C241.909 116.317 241.306 116.597 240.781 116.911C240.257 117.209 239.776 117.48 239.339 117.725C238.919 117.969 238.447 118.092 237.922 118.092C237.467 118.092 237.083 117.978 236.768 117.751C236.453 117.506 236.2 117.226 236.007 116.911L234.853 114.839ZM268.181 114.393C268.723 113.851 269.292 113.353 269.886 112.898C270.498 112.426 271.136 112.033 271.801 111.718C272.483 111.386 273.208 111.132 273.978 110.957C274.747 110.765 275.587 110.669 276.496 110.669C277.965 110.669 279.267 110.922 280.404 111.43C281.541 111.919 282.485 112.619 283.237 113.528C284.006 114.42 284.583 115.495 284.968 116.754C285.37 117.996 285.571 119.368 285.571 120.872V138H279.093V120.872C279.093 119.228 278.717 117.961 277.965 117.069C277.213 116.16 276.067 115.705 274.529 115.705C273.41 115.705 272.36 115.958 271.381 116.466C270.402 116.973 269.475 117.663 268.601 118.538V138H262.122V111.089H266.083C266.922 111.089 267.473 111.482 267.735 112.269L268.181 114.393Z" fill="#1F2937"/>
</svg>
