<?xml version="1.0" encoding="utf-8"?>
<!-- Generator: Adobe Illustrator 17.1.0, SVG Export Plug-In . SVG Version: 6.00 Build 0)  -->
<!DOCTYPE svg PUBLIC "-//W3C//DTD SVG 1.1//EN" "http://www.w3.org/Graphics/SVG/1.1/DTD/svg11.dtd">
<svg version="1.1" xmlns="http://www.w3.org/2000/svg" xmlns:xlink="http://www.w3.org/1999/xlink" x="0px" y="0px"
	 viewBox="0 0 834.1 462.4" enable-background="new 0 0 834.1 462.4" xml:space="preserve">
<g id="Default">
</g>
<g id="Layer_01">
	<g>
		<path fill="#666666" d="M724.4,44.1V19H625c-28.4,0-48.1,13.6-48.1,36.3c0,19.7,10.2,31.5,25.6,35.9c-11.2,17.3-20.8,32.2-30.4,47
			h34.3c7.4-13.3,14.8-26.6,26-46.8c0.4-0.2,4.6-0.2,8.8-0.2v47h83.1v-25.2H672V91.2h45.4V66H672v-22H724.4z M641.3,66H623
			c-8,0-15.4-2.3-15-9.2c-0.4-6.8,7-12.8,15-12.8h18.2V66z"/>
		<path fill="none" d="M641.3,44.1v22H623c-8,0-15.4-2.3-15-9.2c-0.4-6.8,7-12.8,15-12.8H641.3z"/>
		<path fill="none" d="M641.3,44.1v22H623c-8,0-15.4-2.3-15-9.2c-0.4-6.8,7-12.8,15-12.8H641.3z"/>
	</g>
	<g>
		<path fill="#666666" d="M473.8,44.1V19h-99.4c-28.4,0-48.1,13.6-48.1,36.3c0,19.7,10.2,31.5,24,35.9c-9.6,17.3-19.2,32.2-28.8,47
			h34.3c7.4-13.3,14.8-26.6,23.8-47h11.1v47h83.1v-25.2h-52.4V91.2h45.4V72.8h-45.4V44.1H473.8z M390.7,72.8h-18.2
			c-8,0-15.4-6.1-15.4-15.6c0-7.1,7.3-13.2,15.4-13.2h18.2V72.8z"/>
		<path fill="none" d="M390.7,44.1v28.8h-18.2c-8,0-15.4-6.1-15.4-15.6c0-7.1,7.3-13.2,15.4-13.2H390.7z"/>
		<path fill="none" d="M390.7,44.1v28.8h-18.2c-8,0-15.4-6.1-15.4-15.6c0-7.1,7.3-13.2,15.4-13.2H390.7z"/>
	</g>
	<g>
		<path fill="#666666" d="M223.2,44.1V19h-99.4c-28.4,0-48.1,13.6-48.1,36.3c0,19.7,10.2,31.5,24,35.9c-9.6,17.3-19.2,32.2-28.8,47
			h34.3c7.4-13.3,14.8-26.6,23.8-47h11.1v47h83.1v-25.2h-52.4V91.2h45.4V66h-45.4v-22H223.2z M140.1,72.8h-18.2
			c-8,0-15.4-6.1-15.4-15.6c0-7.1,7.3-13.2,15.4-13.2h18.2V72.8z"/>
		<path fill="none" d="M140.1,44.1v28.8h-18.2c-8,0-15.4-6.1-15.4-15.6c0-7.1,7.3-13.2,15.4-13.2H140.1z"/>
		<path fill="none" d="M140.1,44.1v28.8h-18.2c-8,0-15.4-6.1-15.4-15.6c0-7.1,7.3-13.2,15.4-13.2H140.1z"/>
	</g>
	<g>
		<line fill="none" stroke="#64F8FF" stroke-linecap="round" stroke-linejoin="round" x1="23.3" y1="91.2" x2="813.8" y2="91.2"/>
		<line fill="none" stroke="#64F8FF" stroke-linecap="round" stroke-linejoin="round" x1="813.8" y1="66" x2="23.3" y2="66"/>
		<line fill="none" stroke="#64F8FF" stroke-linecap="round" stroke-linejoin="round" x1="23.3" y1="72.8" x2="813.8" y2="72.8"/>
	</g>
	<polygon fill="#666666" points="291.2,330.8 291.2,418.8 233.6,418.8 233.6,195.6 291.2,195.6 291.2,296.3 362.8,296.3 
		362.8,195.6 420.4,195.6 568.6,414.4 568.6,418.8 511.7,418.8 420.4,286 420.4,418.8 362.8,418.8 362.8,330.8 	"/>
	<line fill="none" stroke="#64F8FF" stroke-linecap="round" stroke-linejoin="round" x1="568.6" y1="362.1" x2="568.6" y2="378.7"/>
	
		<line fill="none" stroke="#64F8FF" stroke-width="1.2797" stroke-linecap="round" stroke-linejoin="round" x1="132.4" y1="195.6" x2="654.7" y2="195.6"/>
	<line fill="none" stroke="#64F8FF" stroke-linecap="round" stroke-linejoin="round" x1="420.4" y1="418.8" x2="420.4" y2="174.3"/>
	<line fill="none" stroke="#64F8FF" stroke-linecap="round" stroke-linejoin="round" x1="583" y1="440.4" x2="406" y2="174"/>
	
		<line fill="none" stroke="#64F8FF" stroke-width="0.7241" stroke-linecap="round" stroke-linejoin="round" x1="523.8" y1="452.3" x2="406" y2="275"/>
	<line fill="none" stroke="#64F8FF" stroke-linecap="round" stroke-linejoin="round" x1="593.1" y1="402.6" x2="444.8" y2="179.4"/>
	<polygon fill="#666666" points="568.6,362.1 511.1,277.2 511.1,195.6 568.6,195.6 	"/>
	<line fill="none" stroke="#64F8FF" stroke-linecap="round" stroke-linejoin="round" x1="182.4" y1="296.3" x2="607.5" y2="296.3"/>
	<line fill="none" stroke="#64F8FF" stroke-linecap="round" stroke-linejoin="round" x1="182.4" y1="330.8" x2="730.2" y2="330.8"/>
	<line fill="none" stroke="#000000" stroke-linecap="round" stroke-linejoin="round" x1="362.8" y1="330.8" x2="291.2" y2="330.8"/>
	<line fill="none" stroke="#64F8FF" stroke-linecap="round" stroke-linejoin="round" x1="511.1" y1="277.2" x2="511.1" y2="288.4"/>
</g>
<g id="Layer_3">
</g>
</svg>
