<?xml version="1.0" encoding="utf-8"?>
<!-- Generator: Adobe Illustrator 17.1.0, SVG Export Plug-In . SVG Version: 6.00 Build 0)  -->
<!DOCTYPE svg PUBLIC "-//W3C//DTD SVG 1.1//EN" "http://www.w3.org/Graphics/SVG/1.1/DTD/svg11.dtd">
<svg version="1.1" id="Layer_1" xmlns="http://www.w3.org/2000/svg" xmlns:xlink="http://www.w3.org/1999/xlink" x="0px" y="0px"
	 viewBox="-10.2 1.4 732.7 251.8" enable-background="new -10.2 1.4 732.7 251.8" xml:space="preserve">
<g id="Layer_1_1_">
</g>
<g id="Layer_4" display="none">
</g>
<g>
	<path fill="#666666" d="M311.5,54.2V1.4H101.5C41.5,1.4,0,30,0,78c0,41.5,21.5,66.4,54,75.9c-23.7,36.6-43.9,68-64.2,99.3h71.8
		c15.1-28.1,30.2-56.1,53.4-99.3h20.9v99.3h175.6v-53.2H200.8v-46.1h95.9V115h-95.9V54.2H311.5z M135.9,115H97.4
		c-17,0-32.5-12.8-32.5-32.8c0-15.1,15.5-27.9,32.5-27.9h38.5V115z"/>
	<polygon fill="#666666" points="722.5,253.2 646.8,253.2 555.2,115.1 555.2,253.2 490.3,253.2 490.3,153.9 409.5,153.9 
		409.5,253.2 344.5,253.2 344.5,1.4 409.5,1.4 409.5,115 490.3,115 490.3,1.4 555.2,1.4 	"/>
	<polygon fill="#666666" points="722.5,1.4 722.5,193.4 657.5,95.6 657.5,1.4 	"/>
</g>
</svg>
