<?xml version="1.0" encoding="utf-8"?>
<!-- Generator: Adobe Illustrator 17.1.0, SVG Export Plug-In . SVG Version: 6.00 Build 0)  -->
<!DOCTYPE svg PUBLIC "-//W3C//DTD SVG 1.1//EN" "http://www.w3.org/Graphics/SVG/1.1/DTD/svg11.dtd">
<svg version="1.1" id="Layer_1" xmlns="http://www.w3.org/2000/svg" xmlns:xlink="http://www.w3.org/1999/xlink" x="0px" y="0px"
	 viewBox="0 0 485.3 485.3" enable-background="new 0 0 485.3 485.3" xml:space="preserve">
<g id="Logo_20_">
	<path fill="#F89621" d="M276.2,341.6c0,7-2.4,12.1-7.2,15.3c-4.8,3.2-12.1,4.9-21.9,4.9c-9.8,0-17-1.6-21.8-4.9
		c-4.8-3.2-7.1-8.3-7.1-15.3c0-6.8,2.4-11.8,7.1-15c4.8-3.2,12-4.8,21.8-4.8c9.8,0,17.1,1.6,21.9,4.8
		C273.8,329.8,276.2,334.8,276.2,341.6z"/>
	<path fill="#F89621" d="M278.6,147.2c0,3.6-0.7,6.3-2,8.1c-1.4,1.8-3.7,2.8-7.1,2.8c-1.7,0-3.3-0.4-4.8-1.3
		c-1.5-0.9-2.8-2.4-3.9-4.6c-1.1-2.2-2.1-5.2-2.9-9.1c-0.8-3.8-1.3-8.7-1.5-14.6h13.7c3,2.9,5.1,5.8,6.5,8.7
		C277.9,140,278.6,143.4,278.6,147.2z"/>
	<path fill="#F89621" d="M276.4,36.2c0,2.7-0.5,5.3-1.5,7.9c-1,2.6-2.7,5-5.1,7.2h-41.9c-3-2.6-5.4-5.2-7-7.9
		c-1.6-2.7-2.4-5.8-2.4-9.4c0-2.7,0.5-5.2,1.5-7.3c1-2.1,2.6-3.9,4.8-5.3c2.2-1.4,5-2.5,8.5-3.2c3.5-0.7,7.7-1.1,12.6-1.1
		c5.7,0,10.5,0.5,14.4,1.4c3.9,1,7,2.3,9.4,3.9c2.4,1.7,4.1,3.7,5.1,6C275.9,30.9,276.4,33.4,276.4,36.2z"/>
	<path fill="#F89621" d="M285.5,0c3.7,3.3,6.6,7.2,8.8,11.6c2.6,5.1,3.9,10.8,3.9,17c0,3-0.3,5.7-0.9,8c-0.6,2.3-1.4,4.5-2.4,6.5
		c-1,2-2.3,3.8-3.8,5.4c-1.5,1.6-3,3.2-4.8,4.7l4.9,1c2,0.5,3.4,1.3,4.2,2.5c0.8,1.1,1.1,2.7,1.1,4.6v19.6H154.1V51.4h54.3
		c-3.6-3.8-6.5-8-8.7-12.5c-2.2-4.5-3.3-9.6-3.3-15.2s1.1-10.7,3.4-15.2c1.6-3.1,3.6-5.9,6-8.4H0v485.3h168.1
		c-2.6-3.7-4.7-7.8-6.5-12.2c-3.5-8.5-5.2-17.9-5.2-28.1c0-5.2,0.5-10.1,1.4-14.7c0.9-4.6,2.2-8.9,3.8-12.9c1.6-4,3.6-7.7,5.9-11
		c2.3-3.4,4.8-6.4,7.4-9l14.6,10.9c0.9,0.7,1.7,1.5,2.4,2.5c0.7,1,1.1,2.3,1.1,4c0,1.1-0.2,2.2-0.8,3.2c-0.5,1-1.1,2.1-1.9,3.2
		c-0.7,1.1-1.5,2.4-2.4,3.8c-0.9,1.4-1.6,3-2.4,4.9c-0.7,1.9-1.4,4.1-1.9,6.6c-0.5,2.5-0.8,5.4-0.8,8.8c0,5.3,1,10.2,3,14.6
		c2,4.4,4.8,8.2,8.6,11.4c3.8,3.2,8.4,5.7,13.9,7.4c5.5,1.7,11.8,2.6,18.8,2.6c7.1,0,13.4-1,19-2.9c5.5-1.9,10.2-4.6,14-7.9
		c3.8-3.3,6.6-7.2,8.6-11.7c2-4.4,2.9-9.2,2.9-14.3c0-2.9-0.1-5.6-0.4-8c-0.3-2.4-0.8-4.7-1.4-6.8c-0.7-2.1-1.6-4.1-2.7-5.9
		c-1.1-1.8-2.5-3.7-4.2-5.6c-0.6-0.8-1.2-1.6-1.6-2.5c-0.4-0.9-0.6-1.8-0.6-2.8c0-0.8,0.1-1.5,0.4-2.3c0.3-0.8,0.8-1.5,1.5-2.2
		l13.4-12.8c7.3,5.6,12.8,12.6,16.5,21c3.7,8.4,5.6,18.4,5.6,29.9c0,10.5-1.8,20-5.4,28.3c-1.6,3.7-3.5,7.2-5.6,10.4h198.1V0H285.5z
		 M157.9,276v-32.2h113v-51.4h25.7V276H157.9z M294.6,362.3c-2.4,6.2-5.8,11.5-10.2,16c-4.4,4.5-9.8,7.9-16.1,10.4
		c-6.3,2.4-13.4,3.7-21.3,3.7c-7.8,0-14.8-1.2-21.1-3.7c-6.2-2.4-11.6-5.9-15.9-10.4c-4.4-4.5-7.7-9.8-10.1-16
		c-2.3-6.2-3.5-13.1-3.5-20.6c0-7.5,1.2-14.3,3.5-20.5c2.4-6.2,5.7-11.4,10.1-15.9c4.4-4.4,9.7-7.8,15.9-10.3
		c6.3-2.4,13.3-3.7,21.1-3.7c7.9,0,15,1.2,21.3,3.7c6.3,2.4,11.7,5.9,16.1,10.3c4.4,4.4,7.8,9.7,10.2,15.9c2.4,6.2,3.6,13,3.6,20.5
		C298.1,349.2,296.9,356.1,294.6,362.3z M296.4,168.8c-1.2,3.7-2.9,6.8-5.2,9.4c-2.3,2.6-5.1,4.6-8.5,6c-3.4,1.4-7.3,2.1-11.8,2.1
		c-3.6,0-7.2-0.9-10.8-2.7c-3.7-1.8-7-4.9-10-9.2c-3-4.4-5.5-10.3-7.6-17.7c-2-7.4-3.2-16.8-3.4-28.1h-4.2c-5.8,0-10,1.2-12.5,3.6
		c-2.6,2.4-3.9,5.8-3.9,10.1c0,3.5,0.4,6.3,1.1,8.6c0.8,2.2,1.6,4.2,2.6,6c1,1.7,1.8,3.4,2.6,5.1c0.8,1.7,1.1,3.6,1.1,5.9
		c0,2-0.5,3.7-1.5,5.1c-1,1.4-2.2,2.5-3.6,3.4l-9.2,5.3c-5.3-6-9.2-12.6-11.8-19.9c-2.6-7.3-3.9-15.1-3.9-23.4c0-6,1-11.3,2.9-16.1
		c1.9-4.8,4.6-8.9,8.1-12.2c3.5-3.3,7.6-5.9,12.3-7.7s10-2.7,15.6-2.7h61.7v13.5c0,2.8-0.4,4.9-1.1,6.3c-0.8,1.4-2.3,2.6-4.8,3.6
		l-5.4,2.1c2.1,2.5,3.9,4.9,5.5,7.1c1.6,2.3,2.9,4.6,4,7.1c1.1,2.4,1.9,5,2.5,7.8c0.5,2.8,0.8,5.8,0.8,9.2
		C298.1,161,297.6,165.1,296.4,168.8z"/>
</g>
</svg>
