<svg id="Layer_01" data-name="Layer 01" xmlns="http://www.w3.org/2000/svg" viewBox="0 0 1194.65 165.8"><defs><style>.cls-1{fill:none;stroke:#313131;stroke-linecap:round;stroke-linejoin:round;}</style></defs><title>Artboard 2</title><polyline class="cls-1" points="199.22 28.95 213.62 28.95 213.62 57.74 199.22 57.74"/><circle class="cls-1" cx="199.23" cy="43.34" r="14.4"/><circle class="cls-1" cx="135.87" cy="43.34" r="14.4"/><polyline class="cls-1" points="150.27 43.34 150.27 57.74 121.48 57.74 121.48 43.34"/><path class="cls-1" d="M40.85,28.95a7.2,7.2,0,0,0,0-14.4H26.45V57.74h14.4a14.4,14.4,0,1,0,0-28.8Z"/><circle class="cls-1" cx="72.52" cy="43.34" r="14.4"/><polyline class="cls-1" points="89.8 43.34 89.8 28.95 118.6 28.95 118.6 43.34"/><circle class="cls-1" cx="104.2" cy="43.34" r="14.4"/><polyline class="cls-1" points="167.55 28.95 181.95 28.95 181.95 57.74 167.55 57.74"/><circle class="cls-1" cx="167.55" cy="43.34" r="14.4"/><path class="cls-1" d="M279.49,28.95a7.2,7.2,0,0,0,0-14.4h-14.4V57.74h14.4a14.4,14.4,0,1,0,0-28.8Z"/><circle class="cls-1" cx="311.17" cy="43.34" r="14.4"/><path class="cls-1" d="M426.35,43.34h23a11.52,11.52,0,1,0-23,0Z"/><path class="cls-1" d="M452.27,43.34a14.4,14.4,0,1,0-14.4,14.4h14.4Z"/><path class="cls-1" d="M406.19,28.95a14.4,14.4,0,0,0,0,28.8h14.4V28.95Z"/><path class="cls-1" d="M328.44,43.34a14.4,14.4,0,0,0,28.8,0V28.95h-28.8Z"/><path class="cls-1" d="M388.92,43.34a14.4,14.4,0,0,0-28.8,0v14.4h28.8Z"/><path class="cls-1" d="M518.13,57.74h7.2a7.2,7.2,0,0,0,0-14.4,7.2,7.2,0,0,0,0-14.4h-7.2a14.4,14.4,0,1,0,0,28.8Z"/><circle class="cls-1" cx="549.81" cy="43.34" r="14.4"/><path class="cls-1" d="M665,43.34h23a11.52,11.52,0,1,0-23,0Z"/><path class="cls-1" d="M690.91,43.34a14.4,14.4,0,1,0-14.4,14.4h14.4Z"/><path class="cls-1" d="M644.84,28.95a14.4,14.4,0,0,0,0,28.8h14.4V28.95Z"/><path class="cls-1" d="M567.09,43.34a14.4,14.4,0,0,0,28.8,0V28.95h-28.8Z"/><path class="cls-1" d="M627.56,43.34a14.4,14.4,0,1,0-28.8,0v14.4h28.8Z"/><path class="cls-1" d="M167.55,118.66a14.4,14.4,0,0,0,0,28.8h14.4v-28.8Z"/><circle class="cls-1" cx="72.52" cy="133.05" r="14.4"/><path class="cls-1" d="M89.8,133.05a14.4,14.4,0,1,0,28.8,0v-14.4H89.8Z"/><path class="cls-1" d="M40.85,118.66H26.45v28.8H48a7.2,7.2,0,0,0,0-14.4,7.2,7.2,0,1,0,0-14.4Z"/><path class="cls-1" d="M121.48,133.05V122.73l24.72,24.72H135.87A14.4,14.4,0,0,1,121.48,133.05Z"/><path class="cls-1" d="M135.87,118.66H125.55l24.72,24.72V133.05A14.4,14.4,0,0,0,135.87,118.66Z"/><path class="cls-1" d="M185.12,135.93h28.5v-5.76h-28.5A14,14,0,0,0,185.12,135.93Z"/><path class="cls-1" d="M187.71,124.42h25.92v-5.76h-14.4C194.07,118.66,190.8,120.29,187.71,124.42Z"/><path class="cls-1" d="M199.23,147.45h14.4v-5.76H187.71C190.8,145.81,194.07,147.45,199.23,147.45Z"/><path class="cls-1" d="M406.19,118.66a14.4,14.4,0,0,0,0,28.8h14.4v-28.8Z"/><circle class="cls-1" cx="311.16" cy="133.05" r="14.4"/><path class="cls-1" d="M328.44,133.05a14.4,14.4,0,0,0,28.8,0v-14.4h-28.8Z"/><path class="cls-1" d="M279.49,118.66h-14.4v28.8h21.6a7.2,7.2,0,0,0,0-14.4,7.2,7.2,0,1,0,0-14.4Z"/><path class="cls-1" d="M360.12,133.05V122.73l24.72,24.72H374.51A14.4,14.4,0,0,1,360.12,133.05Z"/><path class="cls-1" d="M374.51,118.66H364.19l24.72,24.72V133.05A14.4,14.4,0,0,0,374.51,118.66Z"/><path class="cls-1" d="M452,130.18H423.76a14,14,0,0,0,0,5.76H452A14,14,0,0,0,452,130.18Z"/><path class="cls-1" d="M449.38,141.69h-23A14.4,14.4,0,0,0,449.38,141.69Z"/><path class="cls-1" d="M426.35,124.42h23c-3.09-4.12-6.37-5.76-11.52-5.76S429.44,120.29,426.35,124.42Z"/><line class="cls-1" x1="518.13" y1="114.34" x2="518.13" y2="151.77"/><circle class="cls-1" cx="549.81" cy="131.61" r="14.4"/><path class="cls-1" d="M644.84,117.22a14.4,14.4,0,1,0,0,28.8h14.4v-28.8Z"/><path class="cls-1" d="M567.09,131.61a14.4,14.4,0,0,0,28.8,0v-14.4h-28.8Z"/><path class="cls-1" d="M627.56,131.61a14.4,14.4,0,0,0-28.8,0V146h28.8Z"/><path class="cls-1" d="M518.13,117.22h-14.4V146h21.6a7.2,7.2,0,1,0,0-14.4,7.2,7.2,0,1,0,0-14.4Z"/><path class="cls-1" d="M690.91,123h-14.4a8.64,8.64,0,0,0,0,17.28h14.4V146h-14.4a14.4,14.4,0,0,1,0-28.8h14.4Z"/><path class="cls-1" d="M676.51,125.86a5.76,5.76,0,1,0,0,11.52h14.4V125.86h-14.4Z"/><path class="cls-1" d="M915.15,147.45h14.4v-28.8H908a7.2,7.2,0,1,0,0,14.4,7.2,7.2,0,1,0,0,14.4Z"/><circle class="cls-1" cx="788.45" cy="133.05" r="14.4"/><path class="cls-1" d="M883.48,118.66a14.4,14.4,0,1,0,0,28.8h14.4v-28.8Z"/><path class="cls-1" d="M805.73,133.05a14.4,14.4,0,0,0,28.8,0v-14.4h-28.8Z"/><path class="cls-1" d="M866.2,133.05a14.4,14.4,0,0,0-28.8,0v14.4h28.8Z"/><path class="cls-1" d="M756.78,118.66h-14.4v28.8H764a7.2,7.2,0,1,0,0-14.4,7.2,7.2,0,1,0,0-14.4Z"/><circle class="cls-1" cx="1027.1" cy="133.07" r="14.4"/><path class="cls-1" d="M1122.12,118.67a14.4,14.4,0,0,0,0,28.8h14.4v-28.8Z"/><path class="cls-1" d="M1044.37,133.07a14.4,14.4,0,0,0,28.8,0v-14.4h-28.8Z"/><path class="cls-1" d="M1104.84,133.07a14.4,14.4,0,0,0-28.8,0v14.4h28.8Z"/><path class="cls-1" d="M995.42,118.67H981v28.8h21.6a7.2,7.2,0,0,0,0-14.4,7.2,7.2,0,1,0,0-14.4Z"/><path class="cls-1" d="M1168.2,133.07h-14.4v14.4a14.4,14.4,0,1,1,14.4-14.4Z"/><path class="cls-1" d="M866.2,43.32a14.4,14.4,0,1,0-28.8,0v14.4h28.8Z"/><path class="cls-1" d="M805.73,43.32a14.4,14.4,0,1,0,28.8,0V28.93h-28.8Z"/><path class="cls-1" d="M883.48,28.93a14.4,14.4,0,0,0,0,28.8h14.4V28.93Z"/><path class="cls-1" d="M929.55,43.32a14.4,14.4,0,1,0-14.4,14.4h14.4Z"/><path class="cls-1" d="M903.64,43.32h23a11.52,11.52,0,1,0-23,0Z"/><circle class="cls-1" cx="788.45" cy="43.32" r="14.4"/><path class="cls-1" d="M748.14,31.8V14.53h-5.76v28.8c0,15.19,20.48,20,27.28,6.44S760.29,22.69,748.14,31.8Z"/><path class="cls-1" d="M986.78,31.8V14.53H981v28.8c0,15.19,20.48,20,27.28,6.44S998.94,22.69,986.78,31.8Z"/><circle class="cls-1" cx="1027.1" cy="43.34" r="14.4"/><path class="cls-1" d="M1122.12,28.95a14.4,14.4,0,0,0,0,28.8h14.4V28.95Z"/><path class="cls-1" d="M1044.37,43.34a14.4,14.4,0,0,0,28.8,0V28.95h-28.8Z"/><path class="cls-1" d="M1104.84,43.34a14.4,14.4,0,0,0-28.8,0v14.4h28.8Z"/><path class="cls-1" d="M1168.2,43.34h-14.4v14.4a14.4,14.4,0,1,1,14.4-14.4Z"/></svg>