<svg xmlns="http://www.w3.org/2000/svg" xmlns:xlink="http://www.w3.org/1999/xlink" id="Layer_01" data-name="Layer 01" viewBox="0 0 930.08 304.61"><defs><style>.cls-1{fill:url(#linear-gradient)}.cls-2{fill:#fff}.cls-3{fill:url(#linear-gradient-2)}.cls-4{fill:url(#linear-gradient-3)}.cls-5{fill:url(#linear-gradient-4)}.cls-6{fill:url(#linear-gradient-5)}.cls-7{fill:url(#linear-gradient-6)}.cls-8{fill:url(#linear-gradient-7)}.cls-9{fill:#e51052}.cls-10{fill:#fc3}.cls-11{fill:#9bff4f}.cls-12{fill:#444}.cls-13{fill:#97cd25}</style><linearGradient id="linear-gradient" x1="112.01" x2="112.01" y1="105.23" y2="199.38" gradientUnits="userSpaceOnUse"><stop offset="0" stop-color="#ff3076"/><stop offset="1" stop-color="#ff6700"/></linearGradient><linearGradient id="linear-gradient-2" x1="347.37" x2="347.37" y1="105.23" y2="199.38" gradientUnits="userSpaceOnUse"><stop offset="0" stop-color="#ffbe2a"/><stop offset="1" stop-color="#ff54a0"/></linearGradient><linearGradient id="linear-gradient-3" x1="582.72" x2="582.72" y1="105.23" y2="199.38" gradientUnits="userSpaceOnUse"><stop offset="0" stop-color="#f5eb13"/><stop offset="1" stop-color="#10bbee"/></linearGradient><linearGradient id="linear-gradient-4" x1="818.07" x2="818.07" y1="105.23" y2="199.38" gradientUnits="userSpaceOnUse"><stop offset="0" stop-color="#eb559f"/><stop offset="1" stop-color="#10bbee"/></linearGradient><linearGradient id="linear-gradient-5" x1="112.01" x2="112.01" y1="210.46" y2="304.61" gradientUnits="userSpaceOnUse"><stop offset="0" stop-color="#de006c"/><stop offset="1" stop-color="#ffc21e"/></linearGradient><linearGradient id="linear-gradient-6" x1="347.37" x2="347.37" y1="210.46" y2="304.61" gradientUnits="userSpaceOnUse"><stop offset="0" stop-color="#af15ff"/><stop offset="1" stop-color="#5800aa"/></linearGradient><linearGradient id="linear-gradient-7" x1="582.72" x2="582.72" y1="210.46" y2="304.61" gradientUnits="userSpaceOnUse"><stop offset="0" stop-color="#7e2d84"/><stop offset="1" stop-color="#461f67"/></linearGradient></defs><title>Artboard 2</title><rect width="224.03" height="94.15" y="105.23" class="cls-1" rx="6.66" ry="6.66"/><path d="M182.3,173H171.85v10.45A10.45,10.45,0,1,1,182.3,173Z" class="cls-2"/><path d="M56.86,162.55H46.4v20.91H62.08a5.23,5.23,0,1,0,0-10.45,5.23,5.23,0,1,0,0-10.45Z" class="cls-2"/><path d="M136.31,173a10.45,10.45,0,0,0-20.91,0v10.45h20.91Z" class="cls-2"/><path d="M92.4,173a10.45,10.45,0,0,0,20.91,0V162.55H92.4Z" class="cls-2"/><path d="M148.85,162.55a10.45,10.45,0,0,0,0,20.91h10.45V162.55Z" class="cls-2"/><circle cx="79.86" cy="173" r="10.45" class="cls-2"/><path d="M130.77,147.25a17.38,17.38,0,0,0,1.07-2.89,79.74,79.74,0,0,0,10.07-5.73,23.45,23.45,0,0,0,3.67-2.73,13.25,13.25,0,0,1,1.73-1.59,2.43,2.43,0,0,1,1.51-.31,5.82,5.82,0,0,1,1.26.18,3,3,0,0,0,.91.24,3.39,3.39,0,0,0,1.57-.34,3.23,3.23,0,0,0,1.1-1c.2-.29.2-.42,0-.58a5,5,0,0,0-.93-.58,7,7,0,0,1-1.15-.69,3,3,0,0,1-.76-1c-.19-.37-.33-.77-.56-1.14a3.11,3.11,0,0,0-.88-.94,3.24,3.24,0,0,0-1.24-.48,4.6,4.6,0,0,0-1.5-.08,2.88,2.88,0,0,0-.9-1.57,5,5,0,0,0-1.34-.72c-.42-.15-.73-.2-1-.28a4.93,4.93,0,0,1-1-.5,2.57,2.57,0,0,0,.43,2c.32.53.7,1.1,1.34,2a25.78,25.78,0,0,1-1.8,1.94,4,4,0,0,1-1.28.89,3.3,3.3,0,0,1-1.07.24,1.06,1.06,0,0,1-.77-.23c-.26-.2-.55-.54-1-1a8.29,8.29,0,0,0-2.11-1.54,20.14,20.14,0,0,0-4.39-1.56,28.49,28.49,0,0,0-6.3-.83,34.79,34.79,0,0,0-6.46.55,14.65,14.65,0,0,0-3.58,1.1c-1,.43-2.09.94-3.09,1.42l-2.72,1.3a19.56,19.56,0,0,1-2.29,1,11.34,11.34,0,0,1-2.38.48,29.23,29.23,0,0,1-3.28.13,27.83,27.83,0,0,1-4.41-.36,29.72,29.72,0,0,1-5-1.32,23.43,23.43,0,0,1-4.23-2,15.48,15.48,0,0,1-2.71-2.11c-.68-.65-1.16-1.21-1.63-1.6a2.19,2.19,0,0,0-1.22-.59c-.3,0-.44.23-.45.55a3,3,0,0,0,.41,1.34,11.26,11.26,0,0,0,1.7,2.51,18.89,18.89,0,0,0,4.15,3.51,34.42,34.42,0,0,0,7,3.29,37.87,37.87,0,0,0,8,1.81,73.07,73.07,0,0,0,8.18.44c2.33,0,4-.08,5.47,0a15.14,15.14,0,0,1,3.83.77,5.87,5.87,0,0,1,2.12,1.23,6.14,6.14,0,0,1,1.33,1.72,6.9,6.9,0,0,1,.66,2.29,31.37,31.37,0,0,1,.18,4.2,28.34,28.34,0,0,1,7.91,4.19,58,58,0,0,1,5,4c.94.83,1.11,1,1.28,1s.35-.15.41-.54a3.3,3.3,0,0,0-.55-2C138.5,153.83,137.46,152.38,130.77,147.25Z" class="cls-2"/><path d="M111,146c-7.09,3.48-6.78,11.28-6.77,11.36v.08a.54.54,0,0,1,0,.22.07.07,0,0,1,0,0,.64.64,0,0,1-.08.19,1,1,0,0,1-.15.2.65.65,0,0,1-.12.11.86.86,0,0,1-.36.17l-.12,0h-.12a.75.75,0,0,1-.26,0h0l-.17-.07a.57.57,0,0,1-.18-.12.4.4,0,0,1-.13-.13.72.72,0,0,1-.14-.2l0,0C92.68,138.2,71,139.05,70.8,139.05a1,1,0,1,1-.1-2c.22,0,21-.85,31.89,17a13.8,13.8,0,0,1,7.56-9.89A1,1,0,1,1,111,146Z" class="cls-2"/><rect width="224.03" height="94.15" x="235.35" y="105.23" class="cls-3" rx="6.66" ry="6.66"/><path d="M417.66,173H407.2v10.45A10.45,10.45,0,1,1,417.66,173Z" class="cls-2"/><path d="M292.21,162.55H281.76v20.91h15.68a5.23,5.23,0,1,0,0-10.45,5.23,5.23,0,1,0,0-10.45Z" class="cls-2"/><path d="M371.66,173a10.45,10.45,0,1,0-20.91,0v10.45h20.91Z" class="cls-2"/><path d="M327.75,173a10.45,10.45,0,0,0,20.91,0V162.55H327.75Z" class="cls-2"/><path d="M384.2,162.55a10.45,10.45,0,0,0,0,20.91h10.45V162.55Z" class="cls-2"/><circle cx="315.21" cy="173" r="10.45" class="cls-2"/><path d="M366.12,147.25a17.38,17.38,0,0,0,1.07-2.89,79.74,79.74,0,0,0,10.07-5.73,23.45,23.45,0,0,0,3.67-2.73,13.25,13.25,0,0,1,1.73-1.59,2.43,2.43,0,0,1,1.51-.31,5.82,5.82,0,0,1,1.26.18,3,3,0,0,0,.91.24,3.39,3.39,0,0,0,1.57-.34,3.23,3.23,0,0,0,1.1-1c.2-.29.2-.42,0-.58a5,5,0,0,0-.93-.58,7,7,0,0,1-1.15-.69,3,3,0,0,1-.76-1c-.19-.37-.33-.77-.56-1.14a3.11,3.11,0,0,0-.88-.94,3.24,3.24,0,0,0-1.24-.48,4.6,4.6,0,0,0-1.5-.08,2.88,2.88,0,0,0-.9-1.57,5,5,0,0,0-1.34-.72c-.42-.15-.73-.2-1-.28a4.93,4.93,0,0,1-1-.5,2.57,2.57,0,0,0,.43,2c.32.53.7,1.1,1.34,2a25.78,25.78,0,0,1-1.8,1.94,4,4,0,0,1-1.28.89,3.3,3.3,0,0,1-1.07.24,1.06,1.06,0,0,1-.77-.23c-.26-.2-.55-.54-1-1a8.29,8.29,0,0,0-2.11-1.54,20.14,20.14,0,0,0-4.39-1.56,28.49,28.49,0,0,0-6.3-.83,34.79,34.79,0,0,0-6.46.55,14.65,14.65,0,0,0-3.58,1.1c-1,.43-2.09.94-3.09,1.42l-2.72,1.3a19.56,19.56,0,0,1-2.29,1,11.34,11.34,0,0,1-2.38.48,29.23,29.23,0,0,1-3.28.13,27.83,27.83,0,0,1-4.41-.36,29.72,29.72,0,0,1-5-1.32,23.43,23.43,0,0,1-4.23-2,15.48,15.48,0,0,1-2.71-2.11c-.68-.65-1.16-1.21-1.63-1.6a2.19,2.19,0,0,0-1.22-.59c-.3,0-.44.23-.45.55a3,3,0,0,0,.41,1.34,11.26,11.26,0,0,0,1.7,2.51,18.89,18.89,0,0,0,4.15,3.51,34.42,34.42,0,0,0,7,3.29,37.87,37.87,0,0,0,8,1.81,73.07,73.07,0,0,0,8.18.44c2.33,0,4-.08,5.47,0a15.14,15.14,0,0,1,3.83.77,5.87,5.87,0,0,1,2.12,1.23,6.14,6.14,0,0,1,1.33,1.72,6.9,6.9,0,0,1,.66,2.29,31.37,31.37,0,0,1,.18,4.2,28.34,28.34,0,0,1,7.91,4.19,58,58,0,0,1,5,4c.94.83,1.11,1,1.28,1s.35-.15.41-.54a3.3,3.3,0,0,0-.55-2C373.85,153.83,372.82,152.38,366.12,147.25Z" class="cls-2"/><path d="M346.39,146c-7.05,3.47-6.78,11-6.77,11.36v0a.75.75,0,0,1,0,.26v0a1.15,1.15,0,0,1-.24.41.65.65,0,0,1-.12.11.86.86,0,0,1-.36.17l-.12,0h-.12a.75.75,0,0,1-.26,0h0a.66.66,0,0,1-.24-.11h0a.62.62,0,0,1-.18-.14l0-.06a.9.9,0,0,1-.14-.2s0,0,0,0c-9.67-19.6-31.33-18.75-31.55-18.75a1,1,0,0,1-.1-2c.22,0,21.05-.84,31.89,17a13.85,13.85,0,0,1,7.57-9.9,1,1,0,0,1,.88,1.8Z" class="cls-2"/><rect width="224.03" height="94.15" x="470.71" y="105.23" class="cls-4" rx="6.66" ry="6.66"/><path d="M653,173H642.56v10.45A10.45,10.45,0,1,1,653,173Z" class="cls-2"/><path d="M527.56,162.55H517.11v20.91h15.68a5.23,5.23,0,1,0,0-10.45,5.23,5.23,0,1,0,0-10.45Z" class="cls-2"/><path d="M607,173a10.45,10.45,0,0,0-20.91,0v10.45H607Z" class="cls-2"/><path d="M563.11,173A10.45,10.45,0,0,0,584,173V162.55H563.11Z" class="cls-2"/><path d="M619.56,162.55a10.45,10.45,0,0,0,0,20.91H630V162.55Z" class="cls-2"/><circle cx="550.56" cy="173" r="10.45" class="cls-2"/><path d="M601.47,147.25a17.38,17.38,0,0,0,1.07-2.89,79.74,79.74,0,0,0,10.07-5.73,23.45,23.45,0,0,0,3.67-2.73,13.25,13.25,0,0,1,1.73-1.59,2.43,2.43,0,0,1,1.51-.31,5.82,5.82,0,0,1,1.26.18,3,3,0,0,0,.91.24,3.39,3.39,0,0,0,1.57-.34,3.23,3.23,0,0,0,1.1-1c.2-.29.2-.42,0-.58a5,5,0,0,0-.93-.58,7,7,0,0,1-1.15-.69,3,3,0,0,1-.76-1c-.19-.37-.33-.77-.56-1.14a3.11,3.11,0,0,0-.88-.94,3.24,3.24,0,0,0-1.24-.48,4.6,4.6,0,0,0-1.5-.08,2.88,2.88,0,0,0-.9-1.57,5,5,0,0,0-1.34-.72c-.42-.15-.73-.2-1-.28a4.93,4.93,0,0,1-1-.5,2.57,2.57,0,0,0,.43,2c.32.53.7,1.1,1.34,2a25.78,25.78,0,0,1-1.8,1.94,4,4,0,0,1-1.28.89,3.3,3.3,0,0,1-1.07.24,1.06,1.06,0,0,1-.77-.23c-.26-.2-.55-.54-1-1a8.29,8.29,0,0,0-2.11-1.54,20.14,20.14,0,0,0-4.39-1.56,28.49,28.49,0,0,0-6.3-.83,34.79,34.79,0,0,0-6.46.55,14.65,14.65,0,0,0-3.58,1.1c-1,.43-2.09.94-3.09,1.42l-2.72,1.3a19.56,19.56,0,0,1-2.29,1,11.34,11.34,0,0,1-2.38.48,29.23,29.23,0,0,1-3.28.13,27.83,27.83,0,0,1-4.41-.36,29.72,29.72,0,0,1-5-1.32,23.43,23.43,0,0,1-4.23-2,15.48,15.48,0,0,1-2.71-2.11c-.68-.65-1.16-1.21-1.63-1.6a2.19,2.19,0,0,0-1.22-.59c-.3,0-.44.23-.45.55a3,3,0,0,0,.41,1.34,11.26,11.26,0,0,0,1.7,2.51,18.89,18.89,0,0,0,4.15,3.51,34.42,34.42,0,0,0,7,3.29,37.87,37.87,0,0,0,8,1.81,73.07,73.07,0,0,0,8.18.44c2.33,0,4-.08,5.47,0a15.14,15.14,0,0,1,3.83.77,5.87,5.87,0,0,1,2.12,1.23,6.14,6.14,0,0,1,1.33,1.72,6.9,6.9,0,0,1,.66,2.29,31.37,31.37,0,0,1,.18,4.2,28.34,28.34,0,0,1,7.91,4.19,58,58,0,0,1,5,4c.94.83,1.11,1,1.28,1s.35-.15.41-.54a3.3,3.3,0,0,0-.55-2C609.2,153.83,608.17,152.38,601.47,147.25Z" class="cls-2"/><path d="M581.75,146c-7.09,3.48-6.77,11.28-6.77,11.36v0a.75.75,0,0,1,0,.26v0a.88.88,0,0,1-.11.24.7.7,0,0,1-.13.17.65.65,0,0,1-.12.11.86.86,0,0,1-.36.17l-.12,0H574a.75.75,0,0,1-.26,0h0a.64.64,0,0,1-.19-.08l-.07,0a.7.7,0,0,1-.22-.2.72.72,0,0,1-.14-.2s0,0,0,0c-9.67-19.6-31.33-18.75-31.55-18.75a1,1,0,1,1-.1-2c.22,0,21-.85,31.89,17a13.83,13.83,0,0,1,7.57-9.88,1,1,0,0,1,.88,1.79Z" class="cls-2"/><rect width="224.03" height="94.15" x="706.06" y="105.23" class="cls-5" rx="6.66" ry="6.66"/><path d="M888.36,173H877.91v10.45A10.45,10.45,0,1,1,888.36,173Z" class="cls-2"/><path d="M762.92,162.55H752.46v20.91h15.68a5.23,5.23,0,1,0,0-10.45,5.23,5.23,0,1,0,0-10.45Z" class="cls-2"/><path d="M842.37,173a10.45,10.45,0,1,0-20.91,0v10.45h20.91Z" class="cls-2"/><path d="M798.46,173a10.45,10.45,0,0,0,20.91,0V162.55H798.46Z" class="cls-2"/><path d="M854.91,162.55a10.45,10.45,0,1,0,0,20.91h10.45V162.55Z" class="cls-2"/><circle cx="785.91" cy="173" r="10.45" class="cls-2"/><path d="M836.82,147.25a17.38,17.38,0,0,0,1.07-2.89A79.74,79.74,0,0,0,848,138.64a23.45,23.45,0,0,0,3.67-2.73,13.25,13.25,0,0,1,1.73-1.59,2.43,2.43,0,0,1,1.51-.31,5.82,5.82,0,0,1,1.26.18,3,3,0,0,0,.91.24,3.39,3.39,0,0,0,1.57-.34,3.23,3.23,0,0,0,1.1-1c.2-.29.2-.42,0-.58a5,5,0,0,0-.93-.58,7,7,0,0,1-1.15-.69,3,3,0,0,1-.76-1c-.19-.37-.33-.77-.56-1.14a3.11,3.11,0,0,0-.88-.94,3.24,3.24,0,0,0-1.24-.48,4.6,4.6,0,0,0-1.5-.08,2.88,2.88,0,0,0-.9-1.57,5,5,0,0,0-1.34-.72c-.42-.15-.73-.2-1-.28a4.93,4.93,0,0,1-1-.5,2.57,2.57,0,0,0,.43,2c.32.53.7,1.1,1.34,2a25.78,25.78,0,0,1-1.8,1.94,4,4,0,0,1-1.28.89,3.3,3.3,0,0,1-1.07.24,1.06,1.06,0,0,1-.77-.23c-.26-.2-.55-.54-1-1a8.29,8.29,0,0,0-2.11-1.54,20.14,20.14,0,0,0-4.39-1.56,28.49,28.49,0,0,0-6.3-.83,34.79,34.79,0,0,0-6.46.55,14.65,14.65,0,0,0-3.58,1.1c-1,.43-2.09.94-3.09,1.42l-2.72,1.3a19.56,19.56,0,0,1-2.29,1,11.34,11.34,0,0,1-2.38.48,29.23,29.23,0,0,1-3.28.13,27.83,27.83,0,0,1-4.41-.36,29.72,29.72,0,0,1-5-1.32,23.43,23.43,0,0,1-4.23-2,15.48,15.48,0,0,1-2.71-2.11c-.68-.65-1.16-1.21-1.63-1.6a2.19,2.19,0,0,0-1.22-.59c-.3,0-.44.23-.45.55a3,3,0,0,0,.41,1.34,11.26,11.26,0,0,0,1.7,2.51,18.89,18.89,0,0,0,4.15,3.51,34.42,34.42,0,0,0,7,3.29,37.87,37.87,0,0,0,8,1.81,73.07,73.07,0,0,0,8.18.44c2.33,0,4-.08,5.47,0a15.14,15.14,0,0,1,3.83.77,5.87,5.87,0,0,1,2.12,1.23,6.14,6.14,0,0,1,1.33,1.72,6.9,6.9,0,0,1,.66,2.29,31.37,31.37,0,0,1,.18,4.2,28.34,28.34,0,0,1,7.91,4.19,58,58,0,0,1,5,4c.94.83,1.11,1,1.28,1s.35-.15.41-.54a3.3,3.3,0,0,0-.55-2C844.56,153.83,843.52,152.38,836.82,147.25Z" class="cls-2"/><path d="M817.1,146c-7.09,3.49-6.77,11.29-6.77,11.36v.06a.75.75,0,0,1,0,.26.71.71,0,0,1-.11.25.78.78,0,0,1-.16.2l0,0a.85.85,0,0,1-.2.13.48.48,0,0,1-.21.08.58.58,0,0,1-.19,0h-.05a.75.75,0,0,1-.26,0h0a.88.88,0,0,1-.24-.11,1.09,1.09,0,0,1-.17-.13.4.4,0,0,1-.1-.12.8.8,0,0,1-.12-.18c-9.66-19.62-31.34-18.78-31.56-18.78a1,1,0,0,1-1.05-.94,1,1,0,0,1,.95-1c.22,0,21.05-.85,31.89,17a13.86,13.86,0,0,1,7.57-9.89,1,1,0,0,1,.88,1.79Z" class="cls-2"/><rect width="224.03" height="94.15" y="210.46" class="cls-6" rx="6.66" ry="6.66"/><path d="M182.3,278.23H171.85v10.45a10.45,10.45,0,1,1,10.45-10.45Z" class="cls-2"/><path d="M56.86,267.77H46.4v20.91H62.08a5.23,5.23,0,0,0,0-10.45,5.23,5.23,0,1,0,0-10.45Z" class="cls-2"/><path d="M136.31,278.23a10.45,10.45,0,1,0-20.91,0v10.45h20.91Z" class="cls-2"/><path d="M92.4,278.23a10.45,10.45,0,0,0,20.91,0V267.77H92.4Z" class="cls-2"/><path d="M148.85,267.77a10.45,10.45,0,0,0,0,20.91h10.45V267.77Z" class="cls-2"/><circle cx="79.86" cy="278.23" r="10.45" class="cls-2"/><path d="M130.77,252.48a17.38,17.38,0,0,0,1.07-2.89,79.74,79.74,0,0,0,10.07-5.73,23.45,23.45,0,0,0,3.67-2.73,13.25,13.25,0,0,1,1.73-1.59,2.43,2.43,0,0,1,1.51-.31,5.82,5.82,0,0,1,1.26.18,3,3,0,0,0,.91.24,3.39,3.39,0,0,0,1.57-.34,3.23,3.23,0,0,0,1.1-1c.2-.29.2-.42,0-.58a5,5,0,0,0-.93-.58,7,7,0,0,1-1.15-.69,3,3,0,0,1-.76-1c-.19-.37-.33-.77-.56-1.14a3.11,3.11,0,0,0-.88-.94,3.24,3.24,0,0,0-1.24-.48,4.6,4.6,0,0,0-1.5-.08,2.88,2.88,0,0,0-.9-1.57,5,5,0,0,0-1.34-.72c-.42-.15-.73-.2-1-.28a4.93,4.93,0,0,1-1-.5,2.57,2.57,0,0,0,.43,2c.32.53.7,1.1,1.34,2a25.78,25.78,0,0,1-1.8,1.94,4,4,0,0,1-1.28.89,3.3,3.3,0,0,1-1.07.24,1.06,1.06,0,0,1-.77-.23c-.26-.2-.55-.54-1-1a8.29,8.29,0,0,0-2.11-1.54,20.14,20.14,0,0,0-4.39-1.56,28.49,28.49,0,0,0-6.3-.83,34.79,34.79,0,0,0-6.46.55,14.65,14.65,0,0,0-3.58,1.1c-1,.43-2.09.94-3.09,1.42l-2.72,1.3a19.56,19.56,0,0,1-2.29,1,11.34,11.34,0,0,1-2.38.48,29.23,29.23,0,0,1-3.28.13,27.83,27.83,0,0,1-4.41-.36,29.72,29.72,0,0,1-5-1.32,23.43,23.43,0,0,1-4.23-2,15.48,15.48,0,0,1-2.71-2.11c-.68-.65-1.16-1.21-1.63-1.6a2.19,2.19,0,0,0-1.22-.59c-.3,0-.44.23-.45.55a3,3,0,0,0,.41,1.34,11.26,11.26,0,0,0,1.7,2.51,18.89,18.89,0,0,0,4.15,3.51,34.42,34.42,0,0,0,7,3.29,37.87,37.87,0,0,0,8,1.81,73.07,73.07,0,0,0,8.18.44c2.33,0,4-.08,5.47,0a15.14,15.14,0,0,1,3.83.77,5.87,5.87,0,0,1,2.12,1.23,6.14,6.14,0,0,1,1.33,1.72,6.9,6.9,0,0,1,.66,2.29,31.37,31.37,0,0,1,.18,4.2,28.34,28.34,0,0,1,7.91,4.19,58,58,0,0,1,5,4c.94.83,1.11,1,1.28,1s.35-.15.41-.54a3.3,3.3,0,0,0-.55-2C138.5,259.05,137.46,257.61,130.77,252.48Z" class="cls-2"/><path d="M111,251.22c-7.06,3.47-6.79,11-6.77,11.36v0a.92.92,0,0,1-.06.33.29.29,0,0,1-.05.13.8.8,0,0,1-.15.21s0,0,0,0l-.09.08a.42.42,0,0,1-.14.09.85.85,0,0,1-.44.14h0a.75.75,0,0,1-.26,0h0a.63.63,0,0,1-.22-.1l-.06,0a.45.45,0,0,1-.16-.12l0-.06a.91.91,0,0,1-.14-.2s0,0,0,0C92.68,243.43,71,244.28,70.8,244.28a1,1,0,1,1-.1-2c.22,0,21-.84,31.89,17a13.85,13.85,0,0,1,7.56-9.91,1,1,0,0,1,1.34.46A1,1,0,0,1,111,251.22Z" class="cls-2"/><rect width="224.03" height="94.15" x="235.35" y="210.46" class="cls-7" rx="6.66" ry="6.66"/><path d="M417.66,278.23H407.2v10.45a10.45,10.45,0,1,1,10.45-10.45Z" class="cls-2"/><path d="M292.21,267.77H281.76v20.91h15.68a5.23,5.23,0,1,0,0-10.45,5.23,5.23,0,1,0,0-10.45Z" class="cls-2"/><path d="M371.66,278.23a10.45,10.45,0,1,0-20.91,0v10.45h20.91Z" class="cls-2"/><path d="M327.75,278.23a10.45,10.45,0,0,0,20.91,0V267.77H327.75Z" class="cls-2"/><path d="M384.2,267.77a10.45,10.45,0,0,0,0,20.91h10.45V267.77Z" class="cls-2"/><circle cx="315.21" cy="278.23" r="10.45" class="cls-2"/><path d="M366.12,252.48a17.38,17.38,0,0,0,1.07-2.89,79.74,79.74,0,0,0,10.07-5.73,23.45,23.45,0,0,0,3.67-2.73,13.25,13.25,0,0,1,1.73-1.59,2.43,2.43,0,0,1,1.51-.31,5.82,5.82,0,0,1,1.26.18,3,3,0,0,0,.91.24,3.39,3.39,0,0,0,1.57-.34,3.23,3.23,0,0,0,1.1-1c.2-.29.2-.42,0-.58a5,5,0,0,0-.93-.58,7,7,0,0,1-1.15-.69,3,3,0,0,1-.76-1c-.19-.37-.33-.77-.56-1.14a3.11,3.11,0,0,0-.88-.94,3.24,3.24,0,0,0-1.24-.48,4.6,4.6,0,0,0-1.5-.08,2.88,2.88,0,0,0-.9-1.57,5,5,0,0,0-1.34-.72c-.42-.15-.73-.2-1-.28a4.93,4.93,0,0,1-1-.5,2.57,2.57,0,0,0,.43,2c.32.53.7,1.1,1.34,2a25.78,25.78,0,0,1-1.8,1.94,4,4,0,0,1-1.28.89,3.3,3.3,0,0,1-1.07.24,1.06,1.06,0,0,1-.77-.23c-.26-.2-.55-.54-1-1a8.29,8.29,0,0,0-2.11-1.54,20.14,20.14,0,0,0-4.39-1.56,28.49,28.49,0,0,0-6.3-.83,34.79,34.79,0,0,0-6.46.55,14.65,14.65,0,0,0-3.58,1.1c-1,.43-2.09.94-3.09,1.42l-2.72,1.3a19.56,19.56,0,0,1-2.29,1,11.34,11.34,0,0,1-2.38.48,29.23,29.23,0,0,1-3.28.13,27.83,27.83,0,0,1-4.41-.36,29.72,29.72,0,0,1-5-1.32,23.43,23.43,0,0,1-4.23-2,15.48,15.48,0,0,1-2.71-2.11c-.68-.65-1.16-1.21-1.63-1.6a2.19,2.19,0,0,0-1.22-.59c-.3,0-.44.23-.45.55a3,3,0,0,0,.41,1.34,11.26,11.26,0,0,0,1.7,2.51,18.89,18.89,0,0,0,4.15,3.51,34.42,34.42,0,0,0,7,3.29,37.87,37.87,0,0,0,8,1.81,73.07,73.07,0,0,0,8.18.44c2.33,0,4-.08,5.47,0A15.14,15.14,0,0,1,356,244a5.87,5.87,0,0,1,2.12,1.23,6.14,6.14,0,0,1,1.33,1.72,6.9,6.9,0,0,1,.66,2.29,31.37,31.37,0,0,1,.18,4.2,28.34,28.34,0,0,1,7.91,4.19,58,58,0,0,1,5,4c.94.83,1.11,1,1.28,1s.35-.15.41-.54a3.3,3.3,0,0,0-.55-2C373.85,259.05,372.82,257.61,366.12,252.48Z" class="cls-2"/><path d="M346.4,251.23c-7.06,3.46-6.79,11-6.77,11.36v.07a.54.54,0,0,1,0,.22.07.07,0,0,1,0,0,.64.64,0,0,1-.08.19.8.8,0,0,1-.15.21l-.09.08a.42.42,0,0,1-.14.09.85.85,0,0,1-.44.14h0a.75.75,0,0,1-.26,0h0a.62.62,0,0,1-.22-.1.85.85,0,0,1-.19-.14.4.4,0,0,1-.1-.12.81.81,0,0,1-.12-.18c-9.67-19.62-31.34-18.77-31.56-18.77a1,1,0,1,1-.1-2c.22,0,21-.85,31.89,17a13.83,13.83,0,0,1,7.56-9.9,1,1,0,0,1,.89,1.8Z" class="cls-2"/><rect width="224.03" height="94.15" x="470.71" y="210.46" class="cls-8" rx="6.66" ry="6.66"/><path d="M653,278.23H642.56v10.45A10.45,10.45,0,1,1,653,278.23Z" class="cls-2"/><path d="M527.56,267.77H517.11v20.91h15.68a5.23,5.23,0,1,0,0-10.45,5.23,5.23,0,1,0,0-10.45Z" class="cls-2"/><path d="M607,278.23a10.45,10.45,0,0,0-20.91,0v10.45H607Z" class="cls-2"/><path d="M563.11,278.23a10.45,10.45,0,0,0,20.91,0V267.77H563.11Z" class="cls-2"/><path d="M619.56,267.77a10.45,10.45,0,0,0,0,20.91H630V267.77Z" class="cls-2"/><circle cx="550.56" cy="278.23" r="10.45" class="cls-2"/><path d="M601.47,252.48a17.38,17.38,0,0,0,1.07-2.89,79.74,79.74,0,0,0,10.07-5.73,23.45,23.45,0,0,0,3.67-2.73,13.25,13.25,0,0,1,1.73-1.59,2.43,2.43,0,0,1,1.51-.31,5.82,5.82,0,0,1,1.26.18,3,3,0,0,0,.91.24,3.39,3.39,0,0,0,1.57-.34,3.23,3.23,0,0,0,1.1-1c.2-.29.2-.42,0-.58a5,5,0,0,0-.93-.58,7,7,0,0,1-1.15-.69,3,3,0,0,1-.76-1c-.19-.37-.33-.77-.56-1.14a3.11,3.11,0,0,0-.88-.94,3.24,3.24,0,0,0-1.24-.48,4.6,4.6,0,0,0-1.5-.08,2.88,2.88,0,0,0-.9-1.57,5,5,0,0,0-1.34-.72c-.42-.15-.73-.2-1-.28a4.93,4.93,0,0,1-1-.5,2.57,2.57,0,0,0,.43,2c.32.53.7,1.1,1.34,2a25.78,25.78,0,0,1-1.8,1.94,4,4,0,0,1-1.28.89,3.3,3.3,0,0,1-1.07.24,1.06,1.06,0,0,1-.77-.23c-.26-.2-.55-.54-1-1a8.29,8.29,0,0,0-2.11-1.54,20.14,20.14,0,0,0-4.39-1.56,28.49,28.49,0,0,0-6.3-.83,34.79,34.79,0,0,0-6.46.55,14.65,14.65,0,0,0-3.58,1.1c-1,.43-2.09.94-3.09,1.42l-2.72,1.3a19.56,19.56,0,0,1-2.29,1,11.34,11.34,0,0,1-2.38.48,29.23,29.23,0,0,1-3.28.13,27.83,27.83,0,0,1-4.41-.36,29.72,29.72,0,0,1-5-1.32,23.43,23.43,0,0,1-4.23-2,15.48,15.48,0,0,1-2.71-2.11c-.68-.65-1.16-1.21-1.63-1.6a2.19,2.19,0,0,0-1.22-.59c-.3,0-.44.23-.45.55a3,3,0,0,0,.41,1.34,11.26,11.26,0,0,0,1.7,2.51,18.89,18.89,0,0,0,4.15,3.51,34.42,34.42,0,0,0,7,3.29,37.87,37.87,0,0,0,8,1.81,73.07,73.07,0,0,0,8.18.44c2.33,0,4-.08,5.47,0a15.14,15.14,0,0,1,3.83.77,5.87,5.87,0,0,1,2.12,1.23,6.14,6.14,0,0,1,1.33,1.72,6.9,6.9,0,0,1,.66,2.29,31.37,31.37,0,0,1,.18,4.2,28.34,28.34,0,0,1,7.91,4.19,58,58,0,0,1,5,4c.94.83,1.11,1,1.28,1s.35-.15.41-.54a3.3,3.3,0,0,0-.55-2C609.2,259.05,608.17,257.61,601.47,252.48Z" class="cls-2"/><path d="M581.75,251.23c-7.05,3.46-6.78,11-6.77,11.36v0a.75.75,0,0,1,0,.26.85.85,0,0,1-.11.26.7.7,0,0,1-.21.24.66.66,0,0,1-.17.12.79.79,0,0,1-.23.09l-.12,0H574a.75.75,0,0,1-.26,0h0a.88.88,0,0,1-.24-.11,1.08,1.08,0,0,1-.17-.13.4.4,0,0,1-.1-.12.8.8,0,0,1-.12-.18c-9.67-19.62-31.34-18.77-31.56-18.77a1,1,0,1,1-.1-2c.22,0,21-.85,31.89,17a13.86,13.86,0,0,1,7.57-9.89,1,1,0,0,1,.88,1.8Z" class="cls-2"/><rect width="224.03" height="94.15" x="706.06" y="210.46" class="cls-9" rx="6.66" ry="6.66"/><path d="M888.36,278.23H877.91v10.45a10.45,10.45,0,1,1,10.45-10.45Z" class="cls-2"/><path d="M762.92,267.77H752.46v20.91h15.68a5.23,5.23,0,0,0,0-10.45,5.23,5.23,0,1,0,0-10.45Z" class="cls-2"/><path d="M842.37,278.23a10.45,10.45,0,1,0-20.91,0v10.45h20.91Z" class="cls-2"/><path d="M798.46,278.23a10.45,10.45,0,0,0,20.91,0V267.77H798.46Z" class="cls-2"/><path d="M854.91,267.77a10.45,10.45,0,0,0,0,20.91h10.45V267.77Z" class="cls-2"/><circle cx="785.91" cy="278.23" r="10.45" class="cls-2"/><path d="M836.82,252.48a17.38,17.38,0,0,0,1.07-2.89A79.74,79.74,0,0,0,848,243.87a23.45,23.45,0,0,0,3.67-2.73,13.25,13.25,0,0,1,1.73-1.59,2.43,2.43,0,0,1,1.51-.31,5.82,5.82,0,0,1,1.26.18,3,3,0,0,0,.91.24,3.39,3.39,0,0,0,1.57-.34,3.23,3.23,0,0,0,1.1-1c.2-.29.2-.42,0-.58a5,5,0,0,0-.93-.58,7,7,0,0,1-1.15-.69,3,3,0,0,1-.76-1c-.19-.37-.33-.77-.56-1.14a3.11,3.11,0,0,0-.88-.94,3.24,3.24,0,0,0-1.24-.48,4.6,4.6,0,0,0-1.5-.08,2.88,2.88,0,0,0-.9-1.57,5,5,0,0,0-1.34-.72c-.42-.15-.73-.2-1-.28a4.93,4.93,0,0,1-1-.5,2.57,2.57,0,0,0,.43,2c.32.53.7,1.1,1.34,2a25.78,25.78,0,0,1-1.8,1.94,4,4,0,0,1-1.28.89,3.3,3.3,0,0,1-1.07.24,1.06,1.06,0,0,1-.77-.23c-.26-.2-.55-.54-1-1a8.29,8.29,0,0,0-2.11-1.54,20.14,20.14,0,0,0-4.39-1.56,28.49,28.49,0,0,0-6.3-.83,34.79,34.79,0,0,0-6.46.55,14.65,14.65,0,0,0-3.58,1.1c-1,.43-2.09.94-3.09,1.42l-2.72,1.3a19.56,19.56,0,0,1-2.29,1,11.34,11.34,0,0,1-2.38.48,29.23,29.23,0,0,1-3.28.13,27.83,27.83,0,0,1-4.41-.36,29.72,29.72,0,0,1-5-1.32,23.43,23.43,0,0,1-4.23-2,15.48,15.48,0,0,1-2.71-2.11c-.68-.65-1.16-1.21-1.63-1.6a2.19,2.19,0,0,0-1.22-.59c-.3,0-.44.23-.45.55a3,3,0,0,0,.41,1.34,11.26,11.26,0,0,0,1.7,2.51,18.89,18.89,0,0,0,4.15,3.51,34.42,34.42,0,0,0,7,3.29,37.87,37.87,0,0,0,8,1.81,73.07,73.07,0,0,0,8.18.44c2.33,0,4-.08,5.47,0a15.14,15.14,0,0,1,3.83.77,5.87,5.87,0,0,1,2.12,1.23,6.14,6.14,0,0,1,1.33,1.72,6.9,6.9,0,0,1,.66,2.29,31.37,31.37,0,0,1,.18,4.2,28.34,28.34,0,0,1,7.91,4.19,58,58,0,0,1,5,4c.94.83,1.11,1,1.28,1s.35-.15.41-.54a3.3,3.3,0,0,0-.55-2C844.56,259.05,843.52,257.61,836.82,252.48Z" class="cls-2"/><path d="M817.1,251.23c-7.05,3.46-6.78,11-6.77,11.36v.05a.75.75,0,0,1,0,.26.85.85,0,0,1-.11.26.7.7,0,0,1-.21.24.66.66,0,0,1-.17.12.79.79,0,0,1-.23.09l-.12,0h-.12a.75.75,0,0,1-.26,0h0a.88.88,0,0,1-.24-.11,1.08,1.08,0,0,1-.17-.13.4.4,0,0,1-.1-.12.8.8,0,0,1-.12-.18c-9.66-19.62-31.34-18.78-31.56-18.77a1,1,0,0,1-.1-2c.22,0,21-.85,31.89,17a13.86,13.86,0,0,1,7.57-9.89,1,1,0,0,1,1.33.46A1,1,0,0,1,817.1,251.23Z" class="cls-2"/><rect width="224.03" height="94.15" class="cls-10" rx="6.66" ry="6.66"/><path d="M182.3,67.77H171.85V78.23A10.45,10.45,0,1,1,182.3,67.77Z" class="cls-2"/><path d="M56.86,57.32H46.4V78.23H62.08a5.23,5.23,0,1,0,0-10.45,5.23,5.23,0,0,0,0-10.45Z" class="cls-2"/><path d="M136.31,67.77a10.45,10.45,0,1,0-20.91,0V78.23h20.91Z" class="cls-2"/><path d="M92.4,67.77a10.45,10.45,0,0,0,20.91,0V57.32H92.4Z" class="cls-2"/><path d="M148.85,57.32a10.45,10.45,0,0,0,0,20.91h10.45V57.32Z" class="cls-2"/><circle cx="79.86" cy="67.77" r="10.45" class="cls-2"/><path d="M130.77,42a17.38,17.38,0,0,0,1.07-2.89,79.74,79.74,0,0,0,10.07-5.73,23.45,23.45,0,0,0,3.67-2.73,13.25,13.25,0,0,1,1.73-1.59,2.43,2.43,0,0,1,1.51-.31,5.82,5.82,0,0,1,1.26.18,3,3,0,0,0,.91.24,3.39,3.39,0,0,0,1.57-.34,3.23,3.23,0,0,0,1.1-1c.2-.29.2-.42,0-.58a5,5,0,0,0-.93-.58A7,7,0,0,1,151.6,26a3,3,0,0,1-.76-1c-.19-.37-.33-.77-.56-1.14a3.11,3.11,0,0,0-.88-.94,3.24,3.24,0,0,0-1.24-.48,4.6,4.6,0,0,0-1.5-.08,2.88,2.88,0,0,0-.9-1.57,5,5,0,0,0-1.34-.72c-.42-.15-.73-.2-1-.28a4.93,4.93,0,0,1-1-.5,2.57,2.57,0,0,0,.43,2c.32.53.7,1.1,1.34,2a25.78,25.78,0,0,1-1.8,1.94,4,4,0,0,1-1.28.89,3.3,3.3,0,0,1-1.07.24,1.06,1.06,0,0,1-.77-.23c-.26-.2-.55-.54-1-1a8.29,8.29,0,0,0-2.11-1.54,20.14,20.14,0,0,0-4.39-1.56,28.49,28.49,0,0,0-6.3-.83,34.79,34.79,0,0,0-6.46.55,14.65,14.65,0,0,0-3.58,1.1c-1,.43-2.09.94-3.09,1.42l-2.72,1.3a19.56,19.56,0,0,1-2.29,1,11.34,11.34,0,0,1-2.38.48,29.23,29.23,0,0,1-3.28.13,27.83,27.83,0,0,1-4.41-.36,29.72,29.72,0,0,1-5-1.32,23.43,23.43,0,0,1-4.23-2,15.48,15.48,0,0,1-2.71-2.11c-.68-.65-1.16-1.21-1.63-1.6a2.19,2.19,0,0,0-1.22-.59c-.3,0-.44.23-.45.55a3,3,0,0,0,.41,1.34,11.26,11.26,0,0,0,1.7,2.51,18.89,18.89,0,0,0,4.15,3.51,34.42,34.42,0,0,0,7,3.29,37.87,37.87,0,0,0,8,1.81,73.07,73.07,0,0,0,8.18.44c2.33,0,4-.08,5.47,0a15.14,15.14,0,0,1,3.83.77,5.87,5.87,0,0,1,2.12,1.23,6.14,6.14,0,0,1,1.33,1.72,6.9,6.9,0,0,1,.66,2.29A31.37,31.37,0,0,1,125,43a28.34,28.34,0,0,1,7.91,4.19,58,58,0,0,1,5,4c.94.83,1.11,1,1.28,1s.35-.15.41-.54a3.3,3.3,0,0,0-.55-2C138.5,48.6,137.46,47.16,130.77,42Z" class="cls-2"/><path d="M111,40.77c-7,3.46-6.78,11-6.77,11.36v.05a.78.78,0,0,1,0,.26v0a.86.86,0,0,1-.11.24.7.7,0,0,1-.21.24.52.52,0,0,1-.17.12.79.79,0,0,1-.23.09l-.12,0h-.12a.74.74,0,0,1-.26,0h0a.88.88,0,0,1-.24-.11,1.09,1.09,0,0,1-.17-.13.63.63,0,0,1-.1-.12l0,0a.41.41,0,0,1-.07-.11C92.72,33,71,33.82,70.8,33.83a1,1,0,0,1-.1-2c.22,0,21-.85,31.9,17a13.83,13.83,0,0,1,7.56-9.9,1,1,0,1,1,.88,1.8Z" class="cls-2"/><rect width="224.03" height="94.15" x="235.35" class="cls-11" rx="6.66" ry="6.66"/><path d="M417.66,67.77H407.2V78.23a10.45,10.45,0,1,1,10.45-10.45Z" class="cls-2"/><path d="M292.21,57.32H281.76V78.23h15.68a5.23,5.23,0,1,0,0-10.45,5.23,5.23,0,1,0,0-10.45Z" class="cls-2"/><path d="M371.66,67.77a10.45,10.45,0,1,0-20.91,0V78.23h20.91Z" class="cls-2"/><path d="M327.75,67.77a10.45,10.45,0,0,0,20.91,0V57.32H327.75Z" class="cls-2"/><path d="M384.2,57.32a10.45,10.45,0,0,0,0,20.91h10.45V57.32Z" class="cls-2"/><circle cx="315.21" cy="67.77" r="10.45" class="cls-2"/><path d="M366.12,42a17.38,17.38,0,0,0,1.07-2.89,79.74,79.74,0,0,0,10.07-5.73,23.45,23.45,0,0,0,3.67-2.73,13.25,13.25,0,0,1,1.73-1.59,2.43,2.43,0,0,1,1.51-.31,5.82,5.82,0,0,1,1.26.18,3,3,0,0,0,.91.24,3.39,3.39,0,0,0,1.57-.34,3.23,3.23,0,0,0,1.1-1c.2-.29.2-.42,0-.58a5,5,0,0,0-.93-.58A7,7,0,0,1,387,26a3,3,0,0,1-.76-1c-.19-.37-.33-.77-.56-1.14a3.11,3.11,0,0,0-.88-.94,3.24,3.24,0,0,0-1.24-.48,4.6,4.6,0,0,0-1.5-.08,2.88,2.88,0,0,0-.9-1.57,5,5,0,0,0-1.34-.72c-.42-.15-.73-.2-1-.28a4.93,4.93,0,0,1-1-.5,2.57,2.57,0,0,0,.43,2c.32.53.7,1.1,1.34,2a25.78,25.78,0,0,1-1.8,1.94,4,4,0,0,1-1.28.89,3.3,3.3,0,0,1-1.07.24,1.06,1.06,0,0,1-.77-.23c-.26-.2-.55-.54-1-1a8.29,8.29,0,0,0-2.11-1.54,20.14,20.14,0,0,0-4.39-1.56,28.49,28.49,0,0,0-6.3-.83,34.79,34.79,0,0,0-6.46.55A14.65,14.65,0,0,0,350.7,23c-1,.43-2.09.94-3.09,1.42l-2.72,1.3a19.56,19.56,0,0,1-2.29,1,11.34,11.34,0,0,1-2.38.48,29.23,29.23,0,0,1-3.28.13,27.83,27.83,0,0,1-4.41-.36,29.72,29.72,0,0,1-5-1.32,23.43,23.43,0,0,1-4.23-2,15.48,15.48,0,0,1-2.71-2.11c-.68-.65-1.16-1.21-1.63-1.6a2.19,2.19,0,0,0-1.22-.59c-.3,0-.44.23-.45.55a3,3,0,0,0,.41,1.34,11.26,11.26,0,0,0,1.7,2.51,18.89,18.89,0,0,0,4.15,3.51,34.42,34.42,0,0,0,7,3.29,37.87,37.87,0,0,0,8,1.81,73.07,73.07,0,0,0,8.18.44c2.33,0,4-.08,5.47,0a15.14,15.14,0,0,1,3.83.77,5.87,5.87,0,0,1,2.12,1.23,6.14,6.14,0,0,1,1.33,1.72,6.9,6.9,0,0,1,.66,2.29,31.37,31.37,0,0,1,.18,4.2,28.34,28.34,0,0,1,7.91,4.19,58,58,0,0,1,5,4c.94.83,1.11,1,1.28,1s.35-.15.41-.54a3.3,3.3,0,0,0-.55-2C373.85,48.6,372.82,47.16,366.12,42Z" class="cls-2"/><path d="M346.39,40.77c-7.09,3.48-6.77,11.28-6.77,11.36v0a.75.75,0,0,1,0,.26.85.85,0,0,1-.11.26.7.7,0,0,1-.21.24.66.66,0,0,1-.17.12.79.79,0,0,1-.23.09l-.12,0h-.12a.75.75,0,0,1-.26,0h0a.88.88,0,0,1-.24-.11,1.08,1.08,0,0,1-.17-.13.4.4,0,0,1-.1-.12.8.8,0,0,1-.12-.18C328.05,33,306.37,33.82,306.15,33.83a1,1,0,0,1-.1-2c.22,0,21-.85,31.89,17A13.86,13.86,0,0,1,345.51,39a1,1,0,0,1,1.33.46A1,1,0,0,1,346.39,40.77Z" class="cls-2"/><rect width="224.03" height="94.15" x="470.71" class="cls-11" rx="6.66" ry="6.66"/><path d="M653,67.77H642.56V78.23A10.45,10.45,0,1,1,653,67.77Z" class="cls-12"/><path d="M527.56,57.32H517.11V78.23h15.68a5.23,5.23,0,1,0,0-10.45,5.23,5.23,0,1,0,0-10.45Z" class="cls-12"/><path d="M607,67.77a10.45,10.45,0,1,0-20.91,0V78.23H607Z" class="cls-12"/><path d="M563.11,67.77a10.45,10.45,0,0,0,20.91,0V57.32H563.11Z" class="cls-12"/><path d="M619.56,57.32a10.45,10.45,0,0,0,0,20.91H630V57.32Z" class="cls-12"/><circle cx="550.56" cy="67.77" r="10.45" class="cls-12"/><path d="M601.47,42a17.38,17.38,0,0,0,1.07-2.89,79.74,79.74,0,0,0,10.07-5.73,23.45,23.45,0,0,0,3.67-2.73A13.25,13.25,0,0,1,618,29.08a2.43,2.43,0,0,1,1.51-.31,5.82,5.82,0,0,1,1.26.18,3,3,0,0,0,.91.24,3.39,3.39,0,0,0,1.57-.34,3.23,3.23,0,0,0,1.1-1c.2-.29.2-.42,0-.58a5,5,0,0,0-.93-.58A7,7,0,0,1,622.3,26a3,3,0,0,1-.76-1c-.19-.37-.33-.77-.56-1.14a3.11,3.11,0,0,0-.88-.94,3.24,3.24,0,0,0-1.24-.48,4.6,4.6,0,0,0-1.5-.08,2.88,2.88,0,0,0-.9-1.57,5,5,0,0,0-1.34-.72c-.42-.15-.73-.2-1-.28a4.93,4.93,0,0,1-1-.5,2.57,2.57,0,0,0,.43,2c.32.53.7,1.1,1.34,2a25.78,25.78,0,0,1-1.8,1.94,4,4,0,0,1-1.28.89,3.3,3.3,0,0,1-1.07.24,1.06,1.06,0,0,1-.77-.23c-.26-.2-.55-.54-1-1a8.29,8.29,0,0,0-2.11-1.54,20.14,20.14,0,0,0-4.39-1.56,28.49,28.49,0,0,0-6.3-.83,34.79,34.79,0,0,0-6.46.55,14.65,14.65,0,0,0-3.58,1.1c-1,.43-2.09.94-3.09,1.42l-2.72,1.3a19.56,19.56,0,0,1-2.29,1,11.34,11.34,0,0,1-2.38.48,29.23,29.23,0,0,1-3.28.13,27.83,27.83,0,0,1-4.41-.36,29.72,29.72,0,0,1-5-1.32,23.43,23.43,0,0,1-4.23-2A15.48,15.48,0,0,1,556,21.49c-.68-.65-1.16-1.21-1.63-1.6a2.19,2.19,0,0,0-1.22-.59c-.3,0-.44.23-.45.55a3,3,0,0,0,.41,1.34,11.26,11.26,0,0,0,1.7,2.51,18.89,18.89,0,0,0,4.15,3.51,34.42,34.42,0,0,0,7,3.29,37.87,37.87,0,0,0,8,1.81,73.07,73.07,0,0,0,8.18.44c2.33,0,4-.08,5.47,0a15.14,15.14,0,0,1,3.83.77,5.87,5.87,0,0,1,2.12,1.23,6.14,6.14,0,0,1,1.33,1.72,6.9,6.9,0,0,1,.66,2.29,31.37,31.37,0,0,1,.18,4.2,28.34,28.34,0,0,1,7.91,4.19,58,58,0,0,1,5,4c.94.83,1.11,1,1.28,1s.35-.15.41-.54a3.3,3.3,0,0,0-.55-2C609.2,48.6,608.17,47.16,601.47,42Z" class="cls-12"/><path d="M581.74,40.77C574.66,44.25,575,52,575,52.13v.06a.78.78,0,0,1,0,.26.91.91,0,0,1-.11.25s0,0,0,0a.73.73,0,0,1-.16.19,1,1,0,0,1-.24.17.93.93,0,0,1-.38.1H574a.75.75,0,0,1-.26,0h0a.88.88,0,0,1-.24-.11,1.09,1.09,0,0,1-.17-.13.63.63,0,0,1-.1-.12l0,0a.41.41,0,0,1-.07-.11C563.42,33,541.72,33.82,541.5,33.83a1,1,0,0,1-.1-2c.22,0,21-.85,31.9,17a13.83,13.83,0,0,1,7.56-9.9,1,1,0,1,1,.88,1.8Z" class="cls-12"/><rect width="224.03" height="94.15" x="706.06" class="cls-13" rx="6.66" ry="6.66"/><path d="M888.36,67.77H877.91V78.23a10.45,10.45,0,1,1,10.45-10.45Z" class="cls-2"/><path d="M762.92,57.32H752.46V78.23h15.68a5.23,5.23,0,1,0,0-10.45,5.23,5.23,0,1,0,0-10.45Z" class="cls-2"/><path d="M842.37,67.77a10.45,10.45,0,1,0-20.91,0V78.23h20.91Z" class="cls-2"/><path d="M798.46,67.77a10.45,10.45,0,0,0,20.91,0V57.32H798.46Z" class="cls-2"/><path d="M854.91,57.32a10.45,10.45,0,0,0,0,20.91h10.45V57.32Z" class="cls-2"/><circle cx="785.91" cy="67.77" r="10.45" class="cls-2"/><path d="M836.82,42a17.38,17.38,0,0,0,1.07-2.89A79.74,79.74,0,0,0,848,33.41a23.45,23.45,0,0,0,3.67-2.73,13.25,13.25,0,0,1,1.73-1.59,2.43,2.43,0,0,1,1.51-.31,5.82,5.82,0,0,1,1.26.18,3,3,0,0,0,.91.24,3.39,3.39,0,0,0,1.57-.34,3.23,3.23,0,0,0,1.1-1c.2-.29.2-.42,0-.58a5,5,0,0,0-.93-.58,7,7,0,0,1-1.15-.69,3,3,0,0,1-.76-1c-.19-.37-.33-.77-.56-1.14a3.11,3.11,0,0,0-.88-.94,3.24,3.24,0,0,0-1.24-.48,4.6,4.6,0,0,0-1.5-.08,2.88,2.88,0,0,0-.9-1.57,5,5,0,0,0-1.34-.72c-.42-.15-.73-.2-1-.28a4.93,4.93,0,0,1-1-.5,2.57,2.57,0,0,0,.43,2c.32.53.7,1.1,1.34,2a25.78,25.78,0,0,1-1.8,1.94,4,4,0,0,1-1.28.89,3.3,3.3,0,0,1-1.07.24,1.06,1.06,0,0,1-.77-.23c-.26-.2-.55-.54-1-1a8.29,8.29,0,0,0-2.11-1.54,20.14,20.14,0,0,0-4.39-1.56,28.49,28.49,0,0,0-6.3-.83,34.79,34.79,0,0,0-6.46.55,14.65,14.65,0,0,0-3.58,1.1c-1,.43-2.09.94-3.09,1.42l-2.72,1.3a19.56,19.56,0,0,1-2.29,1,11.34,11.34,0,0,1-2.38.48,29.23,29.23,0,0,1-3.28.13,27.83,27.83,0,0,1-4.41-.36,29.72,29.72,0,0,1-5-1.32,23.43,23.43,0,0,1-4.23-2,15.48,15.48,0,0,1-2.71-2.11c-.68-.65-1.16-1.21-1.63-1.6a2.19,2.19,0,0,0-1.22-.59c-.3,0-.44.23-.45.55a3,3,0,0,0,.41,1.34,11.26,11.26,0,0,0,1.7,2.51,18.89,18.89,0,0,0,4.15,3.51,34.42,34.42,0,0,0,7,3.29,37.87,37.87,0,0,0,8,1.81,73.07,73.07,0,0,0,8.18.44c2.33,0,4-.08,5.47,0a15.14,15.14,0,0,1,3.83.77,5.87,5.87,0,0,1,2.12,1.23,6.14,6.14,0,0,1,1.33,1.72,6.9,6.9,0,0,1,.66,2.29A31.37,31.37,0,0,1,831,43a28.34,28.34,0,0,1,7.91,4.19,58,58,0,0,1,5,4c.94.83,1.11,1,1.28,1s.35-.15.41-.54a3.3,3.3,0,0,0-.55-2C844.56,48.6,843.52,47.16,836.82,42Z" class="cls-2"/><path d="M817.09,40.77c-7.05,3.47-6.78,11-6.76,11.36a.91.91,0,0,1-.14.54.05.05,0,0,1,0,0,.73.73,0,0,1-.16.19,1,1,0,0,1-.24.17,1,1,0,0,1-.38.1h-.08a.57.57,0,0,1-.22,0h0a.77.77,0,0,1-.19-.08,1,1,0,0,1-.2-.15.4.4,0,0,1-.1-.12.81.81,0,0,1-.12-.18C798.76,33,777.08,33.82,776.86,33.83a1,1,0,0,1-.1-2c.22,0,21-.85,31.89,17a13.83,13.83,0,0,1,7.56-9.9,1,1,0,0,1,.88,1.8Z" class="cls-2"/></svg>