<svg id="Layer_1" data-name="Layer 1" xmlns="http://www.w3.org/2000/svg" xmlns:xlink="http://www.w3.org/1999/xlink" viewBox="0 0 370.57 160.68"><defs><style>.cls-1{fill:url(#linear-gradient);}</style><linearGradient id="linear-gradient" x1="185.28" x2="185.28" y2="160.68" gradientUnits="userSpaceOnUse"><stop offset="0.71" stop-color="#ff8b00"/><stop offset="1" stop-color="#ff6700"/></linearGradient></defs><title>Artboard 3</title><path class="cls-1" d="M370.57,132.18H342.06v28.51c-25.4,0-38.11-30.7-20.16-48.66S370.57,106.78,370.57,132.18ZM28.51,103.67H0v57H42.76a14.25,14.25,0,1,0,0-28.51,14.25,14.25,0,0,0,0-28.51Zm216.64,28.51a28.51,28.51,0,1,0-57,0v28.51h57Zm-119.72,0a28.51,28.51,0,0,0,57,0V103.67h-57Zm153.93-28.51a28.51,28.51,0,1,0,0,57h28.51v-57Zm-188.13,0a28.51,28.51,0,1,0,28.51,28.51A28.5,28.5,0,0,0,91.22,103.67ZM230,62a47.39,47.39,0,0,0,2.91-7.87A217.43,217.43,0,0,0,260.4,38.48c6.23-4.1,8.23-5.76,10-7.46a36.14,36.14,0,0,1,4.73-4.34,6.63,6.63,0,0,1,4.11-.86,15.88,15.88,0,0,1,3.45.49,8.27,8.27,0,0,0,2.48.66,9.24,9.24,0,0,0,4.27-.94,8.81,8.81,0,0,0,3-2.7c.53-.78.53-1.13,0-1.59A13.71,13.71,0,0,0,290,20.18a19,19,0,0,1-3.14-1.89,8.21,8.21,0,0,1-2.07-2.66c-.52-1-.91-2.11-1.52-3.11A8.47,8.47,0,0,0,280.83,10a8.83,8.83,0,0,0-3.38-1.3,12.54,12.54,0,0,0-4.08-.22c-.84-2.53-1.42-3.45-2.45-4.27a13.73,13.73,0,0,0-3.64-2c-1.15-.42-2-.53-2.76-.76A13.44,13.44,0,0,1,261.66.1a7,7,0,0,0,1.17,5.53c.88,1.44,1.9,3,3.65,5.52a70.3,70.3,0,0,1-4.9,5.3,11,11,0,0,1-3.49,2.44,9,9,0,0,1-2.93.65,2.88,2.88,0,0,1-2.11-.63c-.7-.53-1.51-1.47-2.74-2.69A22.59,22.59,0,0,0,244.55,12a54.91,54.91,0,0,0-12-4.25A77.68,77.68,0,0,0,215.4,5.5,94.85,94.85,0,0,0,197.77,7,40,40,0,0,0,188,10c-2.72,1.18-5.7,2.57-8.42,3.87s-5.18,2.49-7.42,3.55A53.35,53.35,0,0,1,165.91,20a30.93,30.93,0,0,1-6.49,1.3,79.7,79.7,0,0,1-8.94.36,75.88,75.88,0,0,1-12-1,81,81,0,0,1-13.55-3.61,63.9,63.9,0,0,1-11.53-5.36A42.2,42.2,0,0,1,106,6c-1.85-1.78-3.17-3.3-4.45-4.36A6,6,0,0,0,98.23,0C97.42,0,97,.63,97,1.49a8.24,8.24,0,0,0,1.12,3.66A30.7,30.7,0,0,0,102.74,12a51.51,51.51,0,0,0,11.32,9.57,93.85,93.85,0,0,0,19,9,103.27,103.27,0,0,0,21.78,4.92,199.23,199.23,0,0,0,22.31,1.2c6.36,0,10.83-.21,14.91.1a41.28,41.28,0,0,1,10.44,2.11,16,16,0,0,1,5.78,3.35,16.76,16.76,0,0,1,3.63,4.68,18.82,18.82,0,0,1,1.81,6.23,85.55,85.55,0,0,1,.49,11.46c6.9,1.85,15.11,6.9,21.56,11.43a158.23,158.23,0,0,1,13.72,10.82c2.57,2.27,3,2.79,3.5,2.82s1-.42,1.12-1.47,0-2.7-1.49-5.5S248.3,76,230,62ZM156.26,92.11a2.73,2.73,0,0,0,1.24-3.65C129.57,31.63,66.87,34.15,66.26,34.18a2.73,2.73,0,1,0,.28,5.45c.62,0,59.69-2.42,86.08,51.24a2.73,2.73,0,0,0,3.65,1.24Zm-1.06.27a2.73,2.73,0,0,0,2.59-2.85c0-.87-.77-21.53,18.45-31a2.73,2.73,0,0,0-2.41-4.89c-22.51,11.07-21.54,35.13-21.49,36.15a2.72,2.72,0,0,0,2.72,2.59Z"/></svg>