<svg xmlns="http://www.w3.org/2000/svg" id="Layer_01" data-name="Layer 01" viewBox="0 0 930.08 183.71"><defs><style>.cls-1{fill:#313131}</style></defs><title>Artboard 4</title><path d="M170.84,60.34H160.39V70.79a10.45,10.45,0,1,1,10.45-10.45Z" class="cls-1"/><path d="M45.39,49.89H34.94V70.79H50.62a5.23,5.23,0,1,0,0-10.45,5.23,5.23,0,0,0,0-10.45Z" class="cls-1"/><path d="M124.84,60.34a10.45,10.45,0,0,0-20.91,0V70.79h20.91Z" class="cls-1"/><path d="M80.94,60.34a10.45,10.45,0,0,0,20.91,0V49.89H80.94Z" class="cls-1"/><path d="M137.39,49.89a10.45,10.45,0,1,0,0,20.91h10.45V49.89Z" class="cls-1"/><circle cx="68.39" cy="60.34" r="10.45" class="cls-1"/><path d="M542.37,62H531.92V72.48A10.45,10.45,0,1,1,542.37,62Z" class="cls-1"/><path d="M416.92,51.57H406.47V72.48h15.68a5.23,5.23,0,0,0,0-10.45,5.23,5.23,0,0,0,0-10.45Z" class="cls-1"/><path d="M496.38,62a10.45,10.45,0,0,0-20.91,0V72.48h20.91Z" class="cls-1"/><path d="M452.47,62a10.45,10.45,0,0,0,20.91,0V51.57H452.47Z" class="cls-1"/><path d="M508.92,51.57a10.45,10.45,0,1,0,0,20.91h10.45V51.57Z" class="cls-1"/><path d="M490.83,36.28a17.38,17.38,0,0,0,1.07-2.89A79.74,79.74,0,0,0,502,27.66a23.45,23.45,0,0,0,3.67-2.73,13.25,13.25,0,0,1,1.73-1.59,2.43,2.43,0,0,1,1.51-.31,5.82,5.82,0,0,1,1.26.18,3,3,0,0,0,.91.24,3.39,3.39,0,0,0,1.57-.34,3.23,3.23,0,0,0,1.1-1c.2-.29.2-.42,0-.58a5,5,0,0,0-.93-.58,7,7,0,0,1-1.15-.69,3,3,0,0,1-.76-1c-.19-.37-.33-.77-.56-1.14a3.11,3.11,0,0,0-.88-.94,3.24,3.24,0,0,0-1.24-.48,4.6,4.6,0,0,0-1.5-.08,2.88,2.88,0,0,0-.9-1.57,5,5,0,0,0-1.34-.72c-.42-.15-.73-.2-1-.28a4.93,4.93,0,0,1-1-.5,2.57,2.57,0,0,0,.43,2c.32.53.7,1.1,1.34,2a25.78,25.78,0,0,1-1.8,1.94,4,4,0,0,1-1.28.89,3.3,3.3,0,0,1-1.07.24,1.06,1.06,0,0,1-.77-.23c-.26-.2-.55-.54-1-1A8.29,8.29,0,0,0,496.16,18a20.14,20.14,0,0,0-4.39-1.56,28.49,28.49,0,0,0-6.3-.83,34.79,34.79,0,0,0-6.46.55,14.65,14.65,0,0,0-3.58,1.1c-1,.43-2.09.94-3.09,1.42l-2.72,1.3a19.56,19.56,0,0,1-2.29,1,11.34,11.34,0,0,1-2.38.48,29.23,29.23,0,0,1-3.28.13,27.83,27.83,0,0,1-4.41-.36,29.72,29.72,0,0,1-5-1.32,23.43,23.43,0,0,1-4.23-2,15.48,15.48,0,0,1-2.71-2.11c-.68-.65-1.16-1.21-1.63-1.6a2.19,2.19,0,0,0-1.22-.59c-.3,0-.44.23-.45.55a3,3,0,0,0,.41,1.34,11.26,11.26,0,0,0,1.7,2.51,18.89,18.89,0,0,0,4.15,3.51,34.42,34.42,0,0,0,7,3.29,37.87,37.87,0,0,0,8,1.81,73.07,73.07,0,0,0,8.18.44c2.33,0,4-.08,5.47,0a15.14,15.14,0,0,1,3.83.77A5.87,5.87,0,0,1,482.85,29a6.14,6.14,0,0,1,1.33,1.72,6.9,6.9,0,0,1,.66,2.29,31.37,31.37,0,0,1,.18,4.2,28.34,28.34,0,0,1,7.91,4.19,58,58,0,0,1,5,4c.94.83,1.11,1,1.28,1s.35-.15.41-.54a3.3,3.3,0,0,0-.55-2C498.57,42.85,497.53,41.41,490.83,36.28Z" class="cls-1"/><path d="M471.1,35c-7,3.46-6.78,11-6.76,11.36a.91.91,0,0,1,0,.1v0a.93.93,0,0,1-.15.45s0,0,0,0a1.06,1.06,0,0,1-.17.2.81.81,0,0,1-.24.17,1.08,1.08,0,0,1-.43.1h0a.54.54,0,0,1-.22,0H463a.64.64,0,0,1-.19-.08,1,1,0,0,1-.2-.15.4.4,0,0,1-.1-.12.81.81,0,0,1-.12-.18c-9.68-19.66-31.34-18.79-31.56-18.77a1,1,0,0,1-1.05-1,1,1,0,0,1,1-1c.22,0,21-.85,31.89,17a13.85,13.85,0,0,1,7.56-9.9,1,1,0,1,1,.88,1.8Z" class="cls-1"/><path d="M463.34,47.43h0Z" class="cls-1"/><path d="M463.77,47.33a1.18,1.18,0,0,1-.33.09A1,1,0,0,0,463.77,47.33Z" class="cls-1"/><path d="M450.38,62a10.46,10.46,0,0,1-13.19,10.09,5.12,5.12,0,0,1-5.45.81,5.13,5.13,0,0,0,2.39-2.2A10.46,10.46,0,0,1,429.89,65a10,10,0,0,1-.36-1.85A10.45,10.45,0,1,1,450.38,62Z" class="cls-1"/><path d="M356.61,62H346.15V72.48A10.45,10.45,0,1,1,356.61,62Z" class="cls-1"/><path d="M231.16,51.57H220.7V72.48h15.68a5.23,5.23,0,0,0,0-10.45,5.23,5.23,0,0,0,0-10.45Z" class="cls-1"/><path d="M310.61,62a10.45,10.45,0,0,0-20.91,0V72.48h20.91Z" class="cls-1"/><path d="M266.7,62a10.45,10.45,0,0,0,20.91,0V51.57H266.7Z" class="cls-1"/><path d="M323.15,51.57a10.45,10.45,0,1,0,0,20.91h10.45V51.57Z" class="cls-1"/><circle cx="254.16" cy="62.02" r="10.45" class="cls-1"/><path d="M305.07,36.28a17.38,17.38,0,0,0,1.07-2.89,79.74,79.74,0,0,0,10.07-5.73,23.45,23.45,0,0,0,3.67-2.73,13.25,13.25,0,0,1,1.73-1.59,2.43,2.43,0,0,1,1.51-.31,5.82,5.82,0,0,1,1.26.18,3,3,0,0,0,.91.24,3.39,3.39,0,0,0,1.57-.34,3.23,3.23,0,0,0,1.1-1c.2-.29.2-.42,0-.58a5,5,0,0,0-.93-.58,7,7,0,0,1-1.15-.69,3,3,0,0,1-.76-1c-.19-.37-.33-.77-.56-1.14a3.11,3.11,0,0,0-.88-.94,3.24,3.24,0,0,0-1.24-.48,4.6,4.6,0,0,0-1.5-.08,2.88,2.88,0,0,0-.9-1.57,5,5,0,0,0-1.34-.72c-.42-.15-.73-.2-1-.28a4.93,4.93,0,0,1-1-.5,2.57,2.57,0,0,0,.43,2c.32.53.7,1.1,1.34,2a25.78,25.78,0,0,1-1.8,1.94,4,4,0,0,1-1.28.89,3.3,3.3,0,0,1-1.07.24,1.06,1.06,0,0,1-.77-.23c-.26-.2-.55-.54-1-1A8.29,8.29,0,0,0,310.39,18,20.14,20.14,0,0,0,306,16.4a28.49,28.49,0,0,0-6.3-.83,34.79,34.79,0,0,0-6.46.55,14.65,14.65,0,0,0-3.58,1.1c-1,.43-2.09.94-3.09,1.42l-2.72,1.3a19.56,19.56,0,0,1-2.29,1,11.34,11.34,0,0,1-2.38.48,29.23,29.23,0,0,1-3.28.13,27.83,27.83,0,0,1-4.41-.36,29.72,29.72,0,0,1-5-1.32,23.43,23.43,0,0,1-4.23-2,15.48,15.48,0,0,1-2.71-2.11c-.68-.65-1.16-1.21-1.63-1.6a2.19,2.19,0,0,0-1.22-.59c-.3,0-.44.23-.45.55a3,3,0,0,0,.41,1.34,11.26,11.26,0,0,0,1.7,2.51,18.89,18.89,0,0,0,4.15,3.51,34.42,34.42,0,0,0,7,3.29,37.87,37.87,0,0,0,8,1.81,73.07,73.07,0,0,0,8.18.44c2.33,0,4-.08,5.47,0a15.14,15.14,0,0,1,3.83.77A5.87,5.87,0,0,1,297.09,29a6.14,6.14,0,0,1,1.33,1.72,6.9,6.9,0,0,1,.66,2.29,31.37,31.37,0,0,1,.18,4.2,28.34,28.34,0,0,1,7.91,4.19,58,58,0,0,1,5,4c.94.83,1.11,1,1.28,1s.35-.15.41-.54a3.3,3.3,0,0,0-.55-2C312.8,42.85,311.77,41.41,305.07,36.28Z" class="cls-1"/><path d="M285.34,35c-7.06,3.46-6.79,11-6.77,11.36v.05a.75.75,0,0,1,0,.26v0a.88.88,0,0,1-.11.24.7.7,0,0,1-.13.17.65.65,0,0,1-.12.11.86.86,0,0,1-.36.17l-.12,0h-.12a.75.75,0,0,1-.26,0h0a.63.63,0,0,1-.22-.1.85.85,0,0,1-.19-.14.4.4,0,0,1-.1-.12.81.81,0,0,1-.12-.18C267,27.23,245.32,28.07,245.1,28.08a1,1,0,1,1-.1-2c.22,0,21-.85,31.89,17a13.83,13.83,0,0,1,7.56-9.9,1,1,0,0,1,.89,1.8Z" class="cls-1"/><path d="M170.84,159.47H160.39v10.45a10.45,10.45,0,1,1,10.45-10.45Z" class="cls-1"/><path d="M45.39,149H34.94v20.91H50.62a5.23,5.23,0,0,0,0-10.45,5.23,5.23,0,1,0,0-10.45Z" class="cls-1"/><path d="M124.84,159.47a10.45,10.45,0,0,0-20.91,0v10.45h20.91Z" class="cls-1"/><path d="M80.94,159.47a10.45,10.45,0,0,0,20.91,0V149H80.94Z" class="cls-1"/><path d="M137.39,149a10.45,10.45,0,1,0,0,20.91h10.45V149Z" class="cls-1"/><circle cx="68.39" cy="159.47" r="10.45" class="cls-1"/><path d="M235.48,159.77a17.38,17.38,0,0,0,1.07-2.89,79.74,79.74,0,0,0,10.07-5.73,23.45,23.45,0,0,0,3.67-2.73,13.25,13.25,0,0,1,1.73-1.59,2.43,2.43,0,0,1,1.51-.31,5.82,5.82,0,0,1,1.26.18,3,3,0,0,0,.91.24,3.39,3.39,0,0,0,1.57-.34,3.23,3.23,0,0,0,1.1-1c.2-.29.2-.42,0-.58a5,5,0,0,0-.93-.58,7,7,0,0,1-1.15-.69,3,3,0,0,1-.76-1c-.19-.37-.33-.77-.56-1.14a3.11,3.11,0,0,0-.88-.94,3.24,3.24,0,0,0-1.24-.48,4.6,4.6,0,0,0-1.5-.08,2.88,2.88,0,0,0-.9-1.57,5,5,0,0,0-1.34-.72c-.42-.15-.73-.2-1-.28a4.93,4.93,0,0,1-1-.5,2.57,2.57,0,0,0,.43,2c.32.53.7,1.1,1.34,2a25.78,25.78,0,0,1-1.8,1.94,4,4,0,0,1-1.28.89,3.3,3.3,0,0,1-1.07.24,1.06,1.06,0,0,1-.77-.23c-.26-.2-.55-.54-1-1a8.29,8.29,0,0,0-2.11-1.54,20.14,20.14,0,0,0-4.39-1.56,28.49,28.49,0,0,0-6.3-.83,34.79,34.79,0,0,0-6.46.55,14.65,14.65,0,0,0-3.58,1.1c-1,.43-2.09.94-3.09,1.42l-2.72,1.3a19.56,19.56,0,0,1-2.29,1,11.34,11.34,0,0,1-2.38.48,29.23,29.23,0,0,1-3.28.13,27.83,27.83,0,0,1-4.41-.36,29.72,29.72,0,0,1-5-1.32,23.43,23.43,0,0,1-4.23-2,15.48,15.48,0,0,1-2.71-2.11c-.68-.65-1.16-1.21-1.63-1.6a2.19,2.19,0,0,0-1.22-.59c-.3,0-.44.23-.45.55a3,3,0,0,0,.41,1.34,11.26,11.26,0,0,0,1.7,2.51,18.89,18.89,0,0,0,4.15,3.51,34.42,34.42,0,0,0,7,3.29,37.87,37.87,0,0,0,8,1.81,73.07,73.07,0,0,0,8.18.44c2.33,0,4-.08,5.47,0a15.14,15.14,0,0,1,3.83.77,5.87,5.87,0,0,1,2.12,1.23,6.14,6.14,0,0,1,1.33,1.72,6.9,6.9,0,0,1,.66,2.29,31.37,31.37,0,0,1,.18,4.2,28.34,28.34,0,0,1,7.91,4.19,58,58,0,0,1,5,4c.94.83,1.11,1,1.28,1s.35-.15.41-.54a3.3,3.3,0,0,0-.55-2C243.21,166.34,242.18,164.9,235.48,159.77Z" class="cls-1"/><path d="M215.75,158.51C208.66,162,209,169.79,209,169.87V170a.54.54,0,0,1,0,.22.07.07,0,0,1,0,0,.64.64,0,0,1-.08.19,1,1,0,0,1-.15.2.65.65,0,0,1-.12.11.86.86,0,0,1-.36.17l-.12,0H208a.75.75,0,0,1-.26,0h0a.66.66,0,0,1-.24-.11h0a.62.62,0,0,1-.18-.14l0-.06a.91.91,0,0,1-.14-.2s0,0,0,0c-9.67-19.6-31.33-18.75-31.55-18.75a1,1,0,0,1-.1-2c.22,0,21.06-.84,31.89,17.05a13.85,13.85,0,0,1,7.56-9.91,1,1,0,0,1,1.34.46A1,1,0,0,1,215.75,158.51Z" class="cls-1"/><path d="M483.14,159.47H472.68v10.45a10.45,10.45,0,1,1,10.45-10.45Z" class="cls-1"/><path d="M357.69,149H347.23v20.91h15.68a5.23,5.23,0,0,0,0-10.45,5.23,5.23,0,0,0,0-10.45Z" class="cls-1"/><path d="M437.14,159.47a10.45,10.45,0,0,0-20.91,0v10.45h20.91Z" class="cls-1"/><path d="M393.23,159.47a10.45,10.45,0,0,0,20.91,0V149H393.23Z" class="cls-1"/><path d="M449.68,149a10.45,10.45,0,1,0,0,20.91h10.45V149Z" class="cls-1"/><circle cx="380.69" cy="159.47" r="10.45" class="cls-1"/><path d="M546.37,154.93a25.66,25.66,0,0,0,1.58-4.26,117.74,117.74,0,0,0,14.87-8.46,34.62,34.62,0,0,0,5.41-4,19.57,19.57,0,0,1,2.56-2.35,3.59,3.59,0,0,1,2.23-.46,8.6,8.6,0,0,1,1.87.26,4.48,4.48,0,0,0,1.34.36,5,5,0,0,0,2.31-.51,4.77,4.77,0,0,0,1.63-1.46c.29-.42.29-.61,0-.86a7.43,7.43,0,0,0-1.37-.85,10.31,10.31,0,0,1-1.7-1,4.44,4.44,0,0,1-1.12-1.44c-.28-.54-.49-1.14-.82-1.68a4.59,4.59,0,0,0-1.31-1.39,4.78,4.78,0,0,0-1.83-.71,6.79,6.79,0,0,0-2.21-.12,4.26,4.26,0,0,0-1.33-2.31,7.43,7.43,0,0,0-2-1.06c-.62-.23-1.08-.29-1.5-.41a7.28,7.28,0,0,1-1.55-.73,3.79,3.79,0,0,0,.63,3c.47.78,1,1.62,2,3a38.07,38.07,0,0,1-2.65,2.87,6,6,0,0,1-1.89,1.32A4.88,4.88,0,0,1,560,132a1.56,1.56,0,0,1-1.14-.34c-.38-.29-.82-.8-1.48-1.46a12.24,12.24,0,0,0-3.12-2.28,29.74,29.74,0,0,0-6.48-2.3,42.06,42.06,0,0,0-9.31-1.23,51.36,51.36,0,0,0-9.54.81,21.64,21.64,0,0,0-5.29,1.63c-1.47.64-3.09,1.39-4.56,2.1l-4,1.92a28.89,28.89,0,0,1-3.38,1.41,16.75,16.75,0,0,1-3.52.7,43.16,43.16,0,0,1-4.84.19,41.09,41.09,0,0,1-6.51-.53,43.89,43.89,0,0,1-7.34-2,34.6,34.6,0,0,1-6.24-2.9,22.85,22.85,0,0,1-4-3.12c-1-1-1.72-1.79-2.41-2.36a3.24,3.24,0,0,0-1.8-.88c-.44,0-.65.34-.67.81a4.46,4.46,0,0,0,.6,2,16.62,16.62,0,0,0,2.51,3.71,27.89,27.89,0,0,0,6.13,5.18,50.82,50.82,0,0,0,10.28,4.86,55.92,55.92,0,0,0,11.79,2.67,107.89,107.89,0,0,0,12.08.65c3.45,0,5.87-.11,8.08.05a22.36,22.36,0,0,1,5.66,1.14,8.67,8.67,0,0,1,3.13,1.82,9.07,9.07,0,0,1,2,2.53,10.19,10.19,0,0,1,1,3.38,46.32,46.32,0,0,1,.27,6.21c3.74,1,8.18,3.74,11.68,6.19a85.69,85.69,0,0,1,7.43,5.86c1.39,1.23,1.64,1.51,1.89,1.53s.52-.23.61-.8a4.88,4.88,0,0,0-.81-3C557.79,164.64,556.26,162.51,546.37,154.93Z" class="cls-1"/><path d="M517,152.64c-10.74,5.28-10.26,17.11-10.26,17.23v.06a.75.75,0,0,1,0,.26.67.67,0,0,1-.1.23.16.16,0,0,1,0,.07,1.57,1.57,0,0,1-.12.15l-.06.05a1.37,1.37,0,0,1-.2.13.93.93,0,0,1-.38.1h-.06a.75.75,0,0,1-.26,0h0a.62.62,0,0,1-.22-.1l-.06,0a.45.45,0,0,1-.16-.12l0-.06a.31.31,0,0,1-.1-.15l0-.06c-14.43-29.32-46.74-28-47.06-28a1,1,0,0,1-.11-2c.33,0,31.68-1.28,47.34,26.08a20.36,20.36,0,0,1,11.11-15.58,1,1,0,1,1,.88,1.79Z" class="cls-1"/><path d="M810.22,159.47H799.77v10.45a10.45,10.45,0,1,1,10.45-10.45Z" class="cls-1"/><path d="M684.77,149H674.32v20.91H690a5.23,5.23,0,0,0,0-10.45A5.23,5.23,0,0,0,690,149Z" class="cls-1"/><path d="M764.22,159.47a10.45,10.45,0,0,0-20.91,0v10.45h20.91Z" class="cls-1"/><path d="M720.32,159.47a10.45,10.45,0,0,0,20.91,0V149H720.32Z" class="cls-1"/><path d="M776.77,149a10.45,10.45,0,1,0,0,20.91h10.45V149Z" class="cls-1"/><circle cx="707.77" cy="159.47" r="10.45" class="cls-1"/><path d="M858.63,157.21a21.76,21.76,0,0,0,1.34-3.61,99.85,99.85,0,0,0,12.61-7.17,29.36,29.36,0,0,0,4.59-3.42,16.6,16.6,0,0,1,2.17-2,3,3,0,0,1,1.89-.39,7.29,7.29,0,0,1,1.58.22,3.8,3.8,0,0,0,1.14.3,4.24,4.24,0,0,0,2-.43,4,4,0,0,0,1.38-1.24c.25-.36.25-.52,0-.73a6.3,6.3,0,0,0-1.16-.72,8.74,8.74,0,0,1-1.44-.87,3.77,3.77,0,0,1-1-1.22c-.24-.46-.42-1-.7-1.43a3.89,3.89,0,0,0-1.11-1.17,4.06,4.06,0,0,0-1.55-.6,5.76,5.76,0,0,0-1.87-.1,3.61,3.61,0,0,0-1.12-2,6.3,6.3,0,0,0-1.67-.9c-.53-.19-.92-.24-1.27-.35a6.17,6.17,0,0,1-1.31-.62,3.22,3.22,0,0,0,.54,2.54c.4.66.87,1.38,1.67,2.54a32.28,32.28,0,0,1-2.25,2.44,5.06,5.06,0,0,1-1.6,1.12,4.14,4.14,0,0,1-1.35.3,1.32,1.32,0,0,1-1-.29c-.32-.25-.69-.68-1.26-1.23a10.38,10.38,0,0,0-2.64-1.93,25.22,25.22,0,0,0-5.49-2,35.67,35.67,0,0,0-7.89-1,43.56,43.56,0,0,0-8.09.69,18.35,18.35,0,0,0-4.49,1.38c-1.25.54-2.62,1.18-3.87,1.78l-3.41,1.63a24.5,24.5,0,0,1-2.87,1.2,14.2,14.2,0,0,1-3,.59,36.6,36.6,0,0,1-4.1.16,34.84,34.84,0,0,1-5.52-.45,37.22,37.22,0,0,1-6.22-1.66,29.34,29.34,0,0,1-5.29-2.46,19.38,19.38,0,0,1-3.39-2.65c-.85-.82-1.46-1.52-2-2a2.75,2.75,0,0,0-1.52-.74c-.37,0-.55.29-.57.68a3.78,3.78,0,0,0,.51,1.68,14.1,14.1,0,0,0,2.13,3.15,23.66,23.66,0,0,0,5.2,4.39,43.1,43.1,0,0,0,8.71,4.12,47.42,47.42,0,0,0,10,2.26,91.49,91.49,0,0,0,10.25.55c2.92,0,5-.1,6.85,0a19,19,0,0,1,4.8,1,7.35,7.35,0,0,1,2.65,1.54,7.69,7.69,0,0,1,1.67,2.15,8.64,8.64,0,0,1,.83,2.86,39.28,39.28,0,0,1,.23,5.26c3.17.85,6.94,3.17,9.9,5.25a72.66,72.66,0,0,1,6.3,5c1.18,1,1.39,1.28,1.61,1.29s.44-.19.51-.68a4.14,4.14,0,0,0-.68-2.52C868.31,165.44,867,163.63,858.63,157.21Z" class="cls-1"/><path d="M844.12,152.64c-10.74,5.28-10.27,17.11-10.26,17.23a.92.92,0,0,1,0,.1v0a1,1,0,0,1,0,.23,1,1,0,0,1-.11.23h0a.85.85,0,0,1-.15.18l-.06.05a1.37,1.37,0,0,1-.2.13.93.93,0,0,1-.38.1h-.08a.57.57,0,0,1-.22,0h0a.52.52,0,0,1-.19-.08.18.18,0,0,1-.07,0,.45.45,0,0,1-.16-.12l0-.06a.9.9,0,0,1-.14-.2s0,0,0,0c-14.43-29.29-46.72-28-47-28a1,1,0,0,1-.1-2c.33,0,31.68-1.28,47.34,26.08a20.37,20.37,0,0,1,11.1-15.58,1,1,0,1,1,.89,1.79Z" class="cls-1"/><path d="M740.14,61.18H729.69V71.63a10.45,10.45,0,1,1,10.45-10.45Z" class="cls-1"/><path d="M614.69,50.72H604.24V71.63h15.68a5.23,5.23,0,0,0,0-10.45,5.23,5.23,0,0,0,0-10.45Z" class="cls-1"/><path d="M694.14,61.18a10.45,10.45,0,0,0-20.91,0V71.63h20.91Z" class="cls-1"/><path d="M671.14,50.72V61.17a10.46,10.46,0,1,1-20.91,0V50.72h8.12A34.53,34.53,0,0,1,660.2,54a.41.41,0,0,0,.07.11l0,0,.12.13.16.13a.64.64,0,0,0,.24.1h0a.69.69,0,0,0,.25,0h.06a.93.93,0,0,0,.38-.1,1,1,0,0,0,.24-.17.75.75,0,0,0,.14-.17l0,0a.16.16,0,0,0,0-.07.84.84,0,0,0,.08-.2.78.78,0,0,0,0-.26v-.06a12.16,12.16,0,0,1,.3-2.81Z" class="cls-1"/><path d="M706.69,50.72a10.45,10.45,0,1,0,0,20.91h10.45V50.72Z" class="cls-1"/><circle cx="637.69" cy="61.18" r="10.45" class="cls-1"/><path d="M688.6,43.43a17.38,17.38,0,0,0,1.07-2.89,79.74,79.74,0,0,0,10.07-5.73,23.45,23.45,0,0,0,3.67-2.73,13.25,13.25,0,0,1,1.73-1.59,2.43,2.43,0,0,1,1.51-.31,5.82,5.82,0,0,1,1.26.18,3,3,0,0,0,.91.24,3.39,3.39,0,0,0,1.57-.34,3.23,3.23,0,0,0,1.1-1c.2-.29.2-.42,0-.58a5,5,0,0,0-.93-.58,7,7,0,0,1-1.15-.69,3,3,0,0,1-.76-1c-.19-.37-.33-.77-.56-1.14a3.11,3.11,0,0,0-.88-.94,3.24,3.24,0,0,0-1.24-.48,4.6,4.6,0,0,0-1.5-.08,2.88,2.88,0,0,0-.9-1.57,5,5,0,0,0-1.34-.72c-.42-.15-.73-.2-1-.28a4.93,4.93,0,0,1-1-.5,2.57,2.57,0,0,0,.43,2c.32.53.7,1.1,1.34,2a25.78,25.78,0,0,1-1.8,1.94,4,4,0,0,1-1.28.89,3.3,3.3,0,0,1-1.07.24,1.06,1.06,0,0,1-.77-.23c-.26-.2-.55-.54-1-1a8.29,8.29,0,0,0-2.11-1.54,20.14,20.14,0,0,0-4.39-1.56,28.49,28.49,0,0,0-6.3-.83,34.79,34.79,0,0,0-6.46.55,14.65,14.65,0,0,0-3.58,1.1c-1,.43-2.09.94-3.09,1.42l-2.72,1.3a19.56,19.56,0,0,1-2.29,1,11.34,11.34,0,0,1-2.38.48,29.23,29.23,0,0,1-3.28.13A27.83,27.83,0,0,1,655,28.3,29.72,29.72,0,0,1,650,27a23.43,23.43,0,0,1-4.23-2,15.48,15.48,0,0,1-2.71-2.11c-.68-.65-1.16-1.21-1.63-1.6a2.19,2.19,0,0,0-1.22-.59c-.3,0-.44.23-.45.55a3,3,0,0,0,.41,1.34,11.26,11.26,0,0,0,1.7,2.51,18.89,18.89,0,0,0,4.15,3.51,34.42,34.42,0,0,0,7,3.29,37.87,37.87,0,0,0,8,1.81,73.07,73.07,0,0,0,8.18.44c2.33,0,4-.08,5.47,0a15.14,15.14,0,0,1,3.83.77,5.87,5.87,0,0,1,2.12,1.23,6.14,6.14,0,0,1,1.33,1.72,6.9,6.9,0,0,1,.66,2.29,31.37,31.37,0,0,1,.18,4.2,28.34,28.34,0,0,1,7.91,4.19,58,58,0,0,1,5,4c.94.83,1.11,1,1.28,1s.35-.15.41-.54a3.3,3.3,0,0,0-.55-2C696.33,50,695.3,48.56,688.6,43.43Z" class="cls-1"/><path d="M668.87,42.18a12,12,0,0,0-6.47,8.55h-4C648,34.49,628.84,35.23,628.64,35.24a1,1,0,0,1-.11-2c.22,0,21-.85,31.9,17a13.83,13.83,0,0,1,7.56-9.9,1,1,0,0,1,.88,1.8Z" class="cls-1"/><circle cx="826.96" cy="64.02" r="3.73" class="cls-1"/><circle cx="836.94" cy="64.02" r="3.73" class="cls-1"/><circle cx="846.92" cy="64.02" r="3.73" class="cls-1"/><path d="M864.44,42.3a17.38,17.38,0,0,0,1.07-2.89,79.74,79.74,0,0,0,10.07-5.73A23.45,23.45,0,0,0,879.24,31,13.25,13.25,0,0,1,881,29.36a2.43,2.43,0,0,1,1.51-.31,5.82,5.82,0,0,1,1.26.18,3,3,0,0,0,.91.24,3.39,3.39,0,0,0,1.57-.34,3.23,3.23,0,0,0,1.1-1c.2-.29.2-.42,0-.58a5,5,0,0,0-.93-.58,7,7,0,0,1-1.15-.69,3,3,0,0,1-.76-1c-.19-.37-.33-.77-.56-1.14a3.11,3.11,0,0,0-.88-.94,3.24,3.24,0,0,0-1.24-.48,4.6,4.6,0,0,0-1.5-.08,2.88,2.88,0,0,0-.9-1.57,5,5,0,0,0-1.34-.72c-.42-.15-.73-.2-1-.28a4.93,4.93,0,0,1-1-.5,2.57,2.57,0,0,0,.43,2c.32.53.7,1.1,1.34,2a25.78,25.78,0,0,1-1.8,1.94,4,4,0,0,1-1.28.89,3.3,3.3,0,0,1-1.07.24,1.06,1.06,0,0,1-.77-.23c-.26-.2-.55-.54-1-1A8.29,8.29,0,0,0,869.76,24a20.14,20.14,0,0,0-4.39-1.56,28.49,28.49,0,0,0-6.3-.83,34.79,34.79,0,0,0-6.46.55,14.65,14.65,0,0,0-3.58,1.1c-1,.43-2.09.94-3.09,1.42L843.22,26a19.56,19.56,0,0,1-2.29,1,11.34,11.34,0,0,1-2.38.48,29.23,29.23,0,0,1-3.28.13,27.83,27.83,0,0,1-4.41-.36,29.72,29.72,0,0,1-5-1.32,23.43,23.43,0,0,1-4.23-2A15.48,15.48,0,0,1,819,21.77c-.68-.65-1.16-1.21-1.63-1.6a2.19,2.19,0,0,0-1.22-.59c-.3,0-.44.23-.45.55a3,3,0,0,0,.41,1.34,11.26,11.26,0,0,0,1.7,2.51,18.89,18.89,0,0,0,4.15,3.51,34.42,34.42,0,0,0,7,3.29,37.87,37.87,0,0,0,8,1.81A73.07,73.07,0,0,0,845,33c2.33,0,4-.08,5.47,0a15.14,15.14,0,0,1,3.83.77,5.87,5.87,0,0,1,2.12,1.23,6.14,6.14,0,0,1,1.33,1.72,6.9,6.9,0,0,1,.66,2.29,31.37,31.37,0,0,1,.18,4.2,28.34,28.34,0,0,1,7.91,4.19,58,58,0,0,1,5,4c.94.83,1.11,1,1.28,1s.35-.15.41-.54a3.3,3.3,0,0,0-.55-2C872.17,48.88,871.14,47.44,864.44,42.3Z" class="cls-1"/><path d="M844.71,41c-7.05,3.47-6.78,11-6.77,11.37v0a.75.75,0,0,1,0,.26.9.9,0,0,1-.31.49.69.69,0,0,1-.2.13.49.49,0,0,1-.21.08.58.58,0,0,1-.19,0h0a.75.75,0,0,1-.26,0h0a.88.88,0,0,1-.24-.11,1.09,1.09,0,0,1-.17-.13.4.4,0,0,1-.1-.12.8.8,0,0,1-.12-.18c-9.65-19.62-31.34-18.78-31.56-18.77a1,1,0,0,1-.1-2c.23,0,21.06-.85,31.91,17a13.79,13.79,0,0,1,7.55-9.9,1,1,0,0,1,1.34.46A1,1,0,0,1,844.71,41Z" class="cls-1"/></svg>