<svg xmlns="http://www.w3.org/2000/svg" id="Layer_1" data-name="Layer 1" viewBox="0 0 1078.41 241.72"><defs><style>.cls-1{fill:#231f20}.cls-2{fill:#fff}.cls-3{fill:#ec1950}.cls-4{fill:#6952a1}.cls-5{fill:#6cbd45}.cls-6{fill:#2ec1dd}.cls-7{fill:#eb1e50}</style></defs><title>Artboard 13</title><path d="M179.11,158.55a33.42,33.42,0,1,1,33.42-33.42A33.45,33.45,0,0,1,179.11,158.55Zm0-60.83a27.42,27.42,0,1,0,27.42,27.42A27.45,27.45,0,0,0,179.11,97.72Z" class="cls-1"/><path d="M179.11,150.55a25.42,25.42,0,1,1,25.42-25.42A25.45,25.45,0,0,1,179.11,150.55Zm0-44.83a19.42,19.42,0,1,0,19.42,19.42A19.44,19.44,0,0,0,179.11,105.72Z" class="cls-1"/><rect width="93.67" height="15.67" x="131.94" y="116.72" class="cls-2"/><path d="M139.21,128.67h-2v-8.74h2Z" class="cls-1"/><path d="M148.54,119.93v8.74h-1.06a.91.91,0,0,1-.39-.08,1,1,0,0,1-.32-.26l-4.12-5.21c0,.16,0,.31,0,.45s0,.28,0,.41v4.69H140.9v-8.74h1.29l.16,0a.54.54,0,0,1,.14.09l.15.16,4.16,5.25c0-.17,0-.33,0-.49s0-.31,0-.45v-4.63Z" class="cls-1"/><path d="M156.51,121.54h-2.46v7.13h-2v-7.13h-2.46v-1.61h6.95Z" class="cls-1"/><path d="M159.58,121.49v2h2.75V125h-2.75v2.08h3.59v1.56h-5.63v-8.74h5.63v1.56Z" class="cls-1"/><path d="M171.56,128.67h-1.84a.78.78,0,0,1-.73-.38l-1.45-2.54a.7.7,0,0,0-.23-.24.71.71,0,0,0-.36-.07h-.52v3.23h-2v-8.74h2.84a5.83,5.83,0,0,1,1.62.2,3,3,0,0,1,1.09.54,2.06,2.06,0,0,1,.61.82,2.73,2.73,0,0,1,.19,1,2.76,2.76,0,0,1-.11.8,2.47,2.47,0,0,1-.34.7,2.56,2.56,0,0,1-.55.57,2.91,2.91,0,0,1-.75.41,1.86,1.86,0,0,1,.37.26,1.75,1.75,0,0,1,.31.36ZM167.26,124a2.09,2.09,0,0,0,.7-.1,1.28,1.28,0,0,0,.48-.29,1.1,1.1,0,0,0,.27-.44,1.65,1.65,0,0,0,.08-.54,1.13,1.13,0,0,0-.37-.9,1.74,1.74,0,0,0-1.16-.32h-.82V124Z" class="cls-1"/><path d="M178,126.41l.14,0a.39.39,0,0,1,.14.09l.8.85a3.34,3.34,0,0,1-1.32,1,4.63,4.63,0,0,1-1.88.35,4.48,4.48,0,0,1-1.79-.34,3.85,3.85,0,0,1-1.34-.94,4.1,4.1,0,0,1-.84-1.42,5.22,5.22,0,0,1-.29-1.78,4.93,4.93,0,0,1,.32-1.8,4.18,4.18,0,0,1,.89-1.41,4,4,0,0,1,1.38-.92,4.61,4.61,0,0,1,1.77-.33,4.72,4.72,0,0,1,.93.09,4.57,4.57,0,0,1,.81.24,3.72,3.72,0,0,1,.7.37,3.66,3.66,0,0,1,.56.47l-.68.92a.84.84,0,0,1-.16.15.4.4,0,0,1-.25.07.45.45,0,0,1-.2,0l-.2-.12-.24-.15a1.83,1.83,0,0,0-.31-.15,2.56,2.56,0,0,0-.41-.12,2.84,2.84,0,0,0-.55,0,2.24,2.24,0,0,0-.92.19,2,2,0,0,0-.72.54,2.52,2.52,0,0,0-.47.88,3.93,3.93,0,0,0-.17,1.19,3.59,3.59,0,0,0,.18,1.19,2.63,2.63,0,0,0,.5.88,2.12,2.12,0,0,0,.73.54,2.2,2.2,0,0,0,.9.19l.5,0A2.29,2.29,0,0,0,177,127a1.73,1.73,0,0,0,.37-.17,2.34,2.34,0,0,0,.35-.27l.16-.1A.41.41,0,0,1,178,126.41Z" class="cls-1"/><path d="M187.64,119.93v8.74h-2V125h-3.55v3.7h-2v-8.74h2v3.65h3.55v-3.65Z" class="cls-1"/><path d="M197.18,128.67h-1.57a.68.68,0,0,1-.43-.12.78.78,0,0,1-.25-.31l-.52-1.52h-3.32l-.52,1.52a.73.73,0,0,1-.24.3.66.66,0,0,1-.42.13h-1.58l3.38-8.74h2.08ZM194,125.33l-.81-2.39c-.06-.15-.12-.33-.19-.54s-.14-.43-.2-.67c-.06.24-.12.47-.19.68s-.13.39-.19.54l-.8,2.38Z" class="cls-1"/><path d="M205.5,119.93v8.74h-1.06a.91.91,0,0,1-.39-.08,1,1,0,0,1-.32-.26l-4.12-5.21c0,.16,0,.31,0,.45s0,.28,0,.41v4.69h-1.79v-8.74h1.29l.16,0a.54.54,0,0,1,.14.09l.15.16,4.16,5.25c0-.17,0-.33,0-.49s0-.31,0-.45v-4.63Z" class="cls-1"/><path d="M211.39,124.14h3.11v3.69a4.61,4.61,0,0,1-1.43.71,5.62,5.62,0,0,1-1.59.22,5.45,5.45,0,0,1-2-.34,4.51,4.51,0,0,1-1.51-.94,4.11,4.11,0,0,1-1-1.42,4.58,4.58,0,0,1-.34-1.78,4.85,4.85,0,0,1,.32-1.8,4.05,4.05,0,0,1,.93-1.41,4.21,4.21,0,0,1,1.46-.92,5.27,5.27,0,0,1,1.91-.33,5.57,5.57,0,0,1,1,.09,5.08,5.08,0,0,1,.88.25,4.11,4.11,0,0,1,.74.37,4,4,0,0,1,.6.47l-.59.89a.56.56,0,0,1-.36.26.63.63,0,0,1-.47-.11l-.45-.25a2.78,2.78,0,0,0-.43-.17,2.86,2.86,0,0,0-.47-.1,4.6,4.6,0,0,0-.55,0,2.51,2.51,0,0,0-1,.2,2.19,2.19,0,0,0-.78.57,2.57,2.57,0,0,0-.5.88,3.54,3.54,0,0,0-.17,1.14,3.68,3.68,0,0,0,.19,1.24,2.55,2.55,0,0,0,.54.91,2.31,2.31,0,0,0,.84.57,2.89,2.89,0,0,0,1.08.2,2.8,2.8,0,0,0,.66-.07,3.73,3.73,0,0,0,.58-.19v-1.33h-.86a.42.42,0,0,1-.3-.1.34.34,0,0,1-.11-.26Z" class="cls-1"/><path d="M217.9,121.49v2h2.75V125H217.9v2.08h3.59v1.56h-5.63v-8.74h5.63v1.56Z" class="cls-1"/><rect width="149.46" height="6" x="171.44" y="51.96" class="cls-1" transform="translate(33.24 190.16) rotate(-45)"/><path d="M346.61,150.55A25.42,25.42,0,1,1,372,125.14,25.45,25.45,0,0,1,346.61,150.55Zm0-44.83A19.42,19.42,0,1,0,366,125.14,19.44,19.44,0,0,0,346.61,105.72Z" class="cls-1"/><rect width="93.67" height="15.67" x="299.44" y="116.72" class="cls-2"/><path d="M306.71,128.67h-2v-8.74h2Z" class="cls-1"/><path d="M316,119.93v8.74H315a.91.91,0,0,1-.39-.08,1,1,0,0,1-.32-.26l-4.12-5.21c0,.16,0,.31,0,.45s0,.28,0,.41v4.69H308.4v-8.74h1.29l.16,0a.54.54,0,0,1,.14.09l.15.16,4.16,5.25c0-.17,0-.33,0-.49s0-.31,0-.45v-4.63Z" class="cls-1"/><path d="M324,121.54h-2.46v7.13h-2v-7.13h-2.46v-1.61H324Z" class="cls-1"/><path d="M327.08,121.49v2h2.75V125h-2.75v2.08h3.59v1.56H325v-8.74h5.63v1.56Z" class="cls-1"/><path d="M339.06,128.67h-1.84a.78.78,0,0,1-.73-.38L335,125.75a.7.7,0,0,0-.23-.24.71.71,0,0,0-.36-.07h-.52v3.23h-2v-8.74h2.84a5.83,5.83,0,0,1,1.62.2,3,3,0,0,1,1.09.54,2.06,2.06,0,0,1,.61.82,2.73,2.73,0,0,1,.19,1,2.76,2.76,0,0,1-.11.8,2.47,2.47,0,0,1-.34.7,2.56,2.56,0,0,1-.55.57,2.91,2.91,0,0,1-.75.41,1.86,1.86,0,0,1,.37.26,1.75,1.75,0,0,1,.31.36ZM334.76,124a2.09,2.09,0,0,0,.7-.1,1.28,1.28,0,0,0,.48-.29,1.1,1.1,0,0,0,.27-.44,1.65,1.65,0,0,0,.08-.54,1.13,1.13,0,0,0-.37-.9,1.74,1.74,0,0,0-1.16-.32h-.82V124Z" class="cls-1"/><path d="M345.54,126.41l.14,0a.39.39,0,0,1,.14.09l.8.85a3.34,3.34,0,0,1-1.32,1,4.63,4.63,0,0,1-1.88.35,4.48,4.48,0,0,1-1.79-.34,3.85,3.85,0,0,1-1.34-.94,4.1,4.1,0,0,1-.84-1.42,5.22,5.22,0,0,1-.29-1.78,4.93,4.93,0,0,1,.32-1.8,4.18,4.18,0,0,1,.89-1.41,4,4,0,0,1,1.38-.92,4.61,4.61,0,0,1,1.77-.33,4.72,4.72,0,0,1,.93.09,4.57,4.57,0,0,1,.81.24,3.72,3.72,0,0,1,.7.37,3.66,3.66,0,0,1,.56.47l-.68.92a.84.84,0,0,1-.16.15.4.4,0,0,1-.25.07.45.45,0,0,1-.2,0L345,122l-.24-.15a1.83,1.83,0,0,0-.31-.15,2.56,2.56,0,0,0-.41-.12,2.84,2.84,0,0,0-.55,0,2.24,2.24,0,0,0-.92.19,2,2,0,0,0-.72.54,2.52,2.52,0,0,0-.47.88,3.93,3.93,0,0,0-.17,1.19,3.59,3.59,0,0,0,.18,1.19,2.63,2.63,0,0,0,.5.88,2.12,2.12,0,0,0,.73.54,2.2,2.2,0,0,0,.9.19l.5,0a2.29,2.29,0,0,0,.43-.09,1.73,1.73,0,0,0,.37-.17,2.34,2.34,0,0,0,.35-.27l.16-.1A.41.41,0,0,1,345.54,126.41Z" class="cls-1"/><path d="M355.14,119.93v8.74h-2V125h-3.55v3.7h-2v-8.74h2v3.65h3.55v-3.65Z" class="cls-1"/><path d="M364.68,128.67h-1.57a.68.68,0,0,1-.43-.12.78.78,0,0,1-.25-.31l-.52-1.52h-3.32l-.52,1.52a.73.73,0,0,1-.24.3.66.66,0,0,1-.42.13h-1.58l3.38-8.74h2.08Zm-3.22-3.34-.81-2.39c-.06-.15-.12-.33-.19-.54s-.14-.43-.2-.67c-.06.24-.12.47-.19.68s-.13.39-.19.54l-.8,2.38Z" class="cls-1"/><path d="M373,119.93v8.74h-1.06a.91.91,0,0,1-.39-.08,1,1,0,0,1-.32-.26l-4.12-5.21c0,.16,0,.31,0,.45s0,.28,0,.41v4.69h-1.79v-8.74h1.29l.16,0a.54.54,0,0,1,.14.09l.15.16,4.16,5.25c0-.17,0-.33,0-.49s0-.31,0-.45v-4.63Z" class="cls-1"/><path d="M378.89,124.14H382v3.69a4.61,4.61,0,0,1-1.43.71,5.62,5.62,0,0,1-1.59.22,5.45,5.45,0,0,1-2-.34,4.51,4.51,0,0,1-1.51-.94,4.11,4.11,0,0,1-1-1.42,4.58,4.58,0,0,1-.34-1.78,4.85,4.85,0,0,1,.32-1.8,4.05,4.05,0,0,1,.93-1.41,4.21,4.21,0,0,1,1.46-.92,5.27,5.27,0,0,1,1.91-.33,5.57,5.57,0,0,1,1,.09,5.08,5.08,0,0,1,.88.25,4.11,4.11,0,0,1,.74.37,4,4,0,0,1,.6.47l-.59.89a.56.56,0,0,1-.36.26.63.63,0,0,1-.47-.11l-.45-.25a2.78,2.78,0,0,0-.43-.17,2.86,2.86,0,0,0-.47-.1,4.6,4.6,0,0,0-.55,0,2.51,2.51,0,0,0-1,.2,2.19,2.19,0,0,0-.78.57,2.57,2.57,0,0,0-.5.88,3.54,3.54,0,0,0-.17,1.14,3.68,3.68,0,0,0,.19,1.24,2.55,2.55,0,0,0,.54.91,2.31,2.31,0,0,0,.84.57,2.89,2.89,0,0,0,1.08.2,2.8,2.8,0,0,0,.66-.07,3.73,3.73,0,0,0,.58-.19v-1.33h-.86a.42.42,0,0,1-.3-.1.34.34,0,0,1-.11-.26Z" class="cls-1"/><path d="M385.4,121.49v2h2.75V125H385.4v2.08H389v1.56h-5.63v-8.74H389v1.56Z" class="cls-1"/><rect width="149.46" height="6" x="338.94" y="51.96" class="cls-1" transform="translate(82.3 308.6) rotate(-45)"/><path d="M495.76,132.24h-2V123.5h2Z" class="cls-1"/><path d="M505.09,123.5v8.74H504a.91.91,0,0,1-.39-.08,1,1,0,0,1-.32-.26l-4.12-5.21c0,.16,0,.31,0,.45s0,.28,0,.41v4.69h-1.79V123.5h1.29l.16,0a.54.54,0,0,1,.14.09l.15.16,4.16,5.25c0-.17,0-.33,0-.49s0-.31,0-.45V123.5Z" class="cls-1"/><path d="M513.06,125.11H510.6v7.13h-2v-7.13h-2.46V123.5h6.95Z" class="cls-1"/><path d="M516.13,125.06v2h2.75v1.5h-2.75v2.08h3.59v1.56h-5.63V123.5h5.63v1.56Z" class="cls-1"/><path d="M528.11,132.24h-1.84a.78.78,0,0,1-.73-.38l-1.45-2.54a.7.7,0,0,0-.23-.24.71.71,0,0,0-.36-.07H523v3.23h-2V123.5h2.84a5.83,5.83,0,0,1,1.62.2,3,3,0,0,1,1.09.54,2.06,2.06,0,0,1,.61.82,2.73,2.73,0,0,1,.19,1,2.76,2.76,0,0,1-.11.8,2.47,2.47,0,0,1-.34.7,2.56,2.56,0,0,1-.55.57,2.91,2.91,0,0,1-.75.41,1.86,1.86,0,0,1,.37.26,1.75,1.75,0,0,1,.31.36Zm-4.31-4.63a2.09,2.09,0,0,0,.7-.1,1.28,1.28,0,0,0,.48-.29,1.1,1.1,0,0,0,.27-.44,1.65,1.65,0,0,0,.08-.54,1.13,1.13,0,0,0-.37-.9,1.74,1.74,0,0,0-1.16-.32H523v2.59Z" class="cls-1"/><path d="M534.59,130l.14,0a.39.39,0,0,1,.14.09l.8.85a3.34,3.34,0,0,1-1.32,1,4.63,4.63,0,0,1-1.88.35,4.48,4.48,0,0,1-1.79-.34,3.85,3.85,0,0,1-1.34-.94,4.1,4.1,0,0,1-.84-1.42,5.22,5.22,0,0,1-.29-1.78,4.93,4.93,0,0,1,.32-1.8,4.18,4.18,0,0,1,.89-1.41,4,4,0,0,1,1.38-.92,4.61,4.61,0,0,1,1.77-.33,4.72,4.72,0,0,1,.93.09,4.57,4.57,0,0,1,.81.24,3.72,3.72,0,0,1,.7.37,3.66,3.66,0,0,1,.56.47l-.68.92a.84.84,0,0,1-.16.15.4.4,0,0,1-.25.07.45.45,0,0,1-.2,0l-.2-.12-.24-.15a1.83,1.83,0,0,0-.31-.15,2.56,2.56,0,0,0-.41-.12,2.84,2.84,0,0,0-.55,0,2.24,2.24,0,0,0-.92.19,2,2,0,0,0-.72.54,2.52,2.52,0,0,0-.47.88,3.93,3.93,0,0,0-.17,1.19,3.59,3.59,0,0,0,.18,1.19,2.63,2.63,0,0,0,.5.88,2.12,2.12,0,0,0,.73.54,2.2,2.2,0,0,0,.9.19l.5,0a2.29,2.29,0,0,0,.43-.09,1.73,1.73,0,0,0,.37-.17,2.34,2.34,0,0,0,.35-.27l.16-.1A.41.41,0,0,1,534.59,130Z" class="cls-1"/><path d="M544.19,123.5v8.74h-2v-3.7H538.6v3.7h-2V123.5h2v3.65h3.55V123.5Z" class="cls-1"/><path d="M553.73,132.24h-1.57a.68.68,0,0,1-.43-.12.78.78,0,0,1-.25-.31l-.52-1.52h-3.32l-.52,1.52a.73.73,0,0,1-.24.3.66.66,0,0,1-.42.13h-1.58l3.38-8.74h2.08Zm-3.22-3.34-.81-2.39c-.06-.15-.12-.33-.19-.54s-.14-.43-.2-.67c-.06.24-.12.47-.19.68s-.13.39-.19.54l-.8,2.38Z" class="cls-1"/><path d="M562,123.5v8.74H561a.91.91,0,0,1-.39-.08,1,1,0,0,1-.32-.26l-4.12-5.21c0,.16,0,.31,0,.45s0,.28,0,.41v4.69h-1.79V123.5h1.29l.16,0a.54.54,0,0,1,.14.09l.15.16,4.16,5.25c0-.17,0-.33,0-.49s0-.31,0-.45V123.5Z" class="cls-1"/><path d="M567.94,127.71h3.11v3.69a4.61,4.61,0,0,1-1.43.71,5.62,5.62,0,0,1-1.59.22,5.45,5.45,0,0,1-2-.34,4.51,4.51,0,0,1-1.51-.94,4.11,4.11,0,0,1-1-1.42,4.58,4.58,0,0,1-.34-1.78,4.85,4.85,0,0,1,.32-1.8,4.05,4.05,0,0,1,.93-1.41,4.21,4.21,0,0,1,1.46-.92,5.27,5.27,0,0,1,1.91-.33,5.57,5.57,0,0,1,1,.09,5.08,5.08,0,0,1,.88.25,4.11,4.11,0,0,1,.74.37,4,4,0,0,1,.6.47l-.59.89a.56.56,0,0,1-.36.26.63.63,0,0,1-.47-.11l-.45-.25a2.78,2.78,0,0,0-.43-.17,2.86,2.86,0,0,0-.47-.1,4.6,4.6,0,0,0-.55,0,2.51,2.51,0,0,0-1,.2,2.19,2.19,0,0,0-.78.57,2.57,2.57,0,0,0-.5.88,3.54,3.54,0,0,0-.17,1.14,3.68,3.68,0,0,0,.19,1.24,2.55,2.55,0,0,0,.54.91,2.31,2.31,0,0,0,.84.57,2.89,2.89,0,0,0,1.08.2,2.8,2.8,0,0,0,.66-.07,3.73,3.73,0,0,0,.58-.19v-1.33h-.86a.42.42,0,0,1-.3-.1.34.34,0,0,1-.11-.26Z" class="cls-1"/><path d="M574.45,125.06v2h2.75v1.5h-2.75v2.08H578v1.56h-5.63V123.5H578v1.56Z" class="cls-1"/><rect width="149.46" height="4" x="462.7" y="63.66" class="cls-3" transform="translate(110.98 399.25) rotate(-45)"/><rect width="149.46" height="4" x="340.9" y="185.46" class="cls-3" transform="translate(-10.82 348.8) rotate(-45)"/><path d="M476.41,140.46A13.54,13.54,0,1,1,490,126.92,13.56,13.56,0,0,1,476.41,140.46Zm0-23.08a9.54,9.54,0,1,0,9.54,9.54A9.55,9.55,0,0,0,476.41,117.38Z" class="cls-1"/><rect width="116.69" height="4" x="651.43" y="121.76" class="cls-4"/><path d="M802.25,117.62h-2.46v7.13h-2v-7.13H795.3V116h6.95Z" class="cls-1"/><path d="M810.9,116v8.74h-2v-3.7h-3.55v3.7h-2V116h2v3.65h3.55V116Z" class="cls-1"/><path d="M814.63,117.57v2h2.75v1.5h-2.75v2.08h3.59v1.56h-5.63V116h5.63v1.56Z" class="cls-1"/><path d="M798,135.75h-2V127h2Z" class="cls-1"/><path d="M807.33,127v8.74h-1.06a.91.91,0,0,1-.39-.08,1,1,0,0,1-.32-.26l-4.12-5.21c0,.16,0,.31,0,.45s0,.28,0,.41v4.69h-1.79V127H801l.16,0a.54.54,0,0,1,.14.09l.15.16,4.16,5.25c0-.17,0-.33,0-.49s0-.31,0-.45V127Z" class="cls-1"/><path d="M815.3,128.62h-2.46v7.13h-2v-7.13h-2.46V127h6.95Z" class="cls-1"/><path d="M818.37,128.57v2h2.75v1.5h-2.75v2.08H822v1.56h-5.63V127H822v1.56Z" class="cls-1"/><path d="M830.35,135.75h-1.84a.78.78,0,0,1-.73-.38l-1.45-2.54a.7.7,0,0,0-.23-.24.71.71,0,0,0-.36-.07h-.52v3.23h-2V127H826a5.83,5.83,0,0,1,1.62.2,3,3,0,0,1,1.09.54,2.06,2.06,0,0,1,.61.82,2.73,2.73,0,0,1,.19,1,2.76,2.76,0,0,1-.11.8,2.47,2.47,0,0,1-.34.7,2.56,2.56,0,0,1-.55.57,2.91,2.91,0,0,1-.75.41,1.86,1.86,0,0,1,.37.26,1.75,1.75,0,0,1,.31.36ZM826,131.12a2.09,2.09,0,0,0,.7-.1,1.28,1.28,0,0,0,.48-.29,1.1,1.1,0,0,0,.27-.44,1.65,1.65,0,0,0,.08-.54,1.13,1.13,0,0,0-.37-.9,1.74,1.74,0,0,0-1.16-.32h-.82v2.59Z" class="cls-1"/><path d="M836.83,133.49l.14,0a.39.39,0,0,1,.14.09l.8.85a3.34,3.34,0,0,1-1.32,1,4.63,4.63,0,0,1-1.88.35,4.48,4.48,0,0,1-1.79-.34,3.85,3.85,0,0,1-1.34-.94,4.1,4.1,0,0,1-.84-1.42,5.22,5.22,0,0,1-.29-1.78,4.93,4.93,0,0,1,.32-1.8,4.18,4.18,0,0,1,.89-1.41,4,4,0,0,1,1.38-.92,4.61,4.61,0,0,1,1.77-.33,4.72,4.72,0,0,1,.93.09,4.57,4.57,0,0,1,.81.24,3.72,3.72,0,0,1,.7.37,3.66,3.66,0,0,1,.56.47l-.68.92a.84.84,0,0,1-.16.15.4.4,0,0,1-.25.07.45.45,0,0,1-.2,0l-.2-.12-.24-.15a1.83,1.83,0,0,0-.31-.15,2.56,2.56,0,0,0-.41-.12,2.84,2.84,0,0,0-.55,0,2.24,2.24,0,0,0-.92.19,2,2,0,0,0-.72.54,2.52,2.52,0,0,0-.47.88,3.93,3.93,0,0,0-.17,1.19,3.59,3.59,0,0,0,.18,1.19,2.63,2.63,0,0,0,.5.88,2.12,2.12,0,0,0,.73.54,2.2,2.2,0,0,0,.9.19l.5,0a2.29,2.29,0,0,0,.43-.09,1.73,1.73,0,0,0,.37-.17,2.34,2.34,0,0,0,.35-.27l.16-.1A.41.41,0,0,1,836.83,133.49Z" class="cls-1"/><path d="M846.43,127v8.74h-2v-3.7h-3.55v3.7h-2V127h2v3.65h3.55V127Z" class="cls-1"/><path d="M856,135.75H854.4a.68.68,0,0,1-.43-.12.78.78,0,0,1-.25-.31l-.52-1.52h-3.32l-.52,1.52a.73.73,0,0,1-.24.3.66.66,0,0,1-.42.13h-1.58l3.38-8.74h2.08Zm-3.22-3.34-.81-2.39c-.06-.15-.12-.33-.19-.54s-.14-.43-.2-.67c-.06.24-.12.47-.19.68s-.13.39-.19.54l-.8,2.38Z" class="cls-1"/><path d="M864.29,127v8.74h-1.06a.91.91,0,0,1-.39-.08,1,1,0,0,1-.32-.26l-4.12-5.21c0,.16,0,.31,0,.45s0,.28,0,.41v4.69h-1.79V127h1.29l.16,0a.54.54,0,0,1,.14.09l.15.16,4.16,5.25c0-.17,0-.33,0-.49s0-.31,0-.45V127Z" class="cls-1"/><path d="M870.18,131.22h3.11v3.69a4.61,4.61,0,0,1-1.43.71,5.62,5.62,0,0,1-1.59.22,5.45,5.45,0,0,1-2-.34,4.51,4.51,0,0,1-1.51-.94,4.11,4.11,0,0,1-1-1.42,4.58,4.58,0,0,1-.34-1.78,4.85,4.85,0,0,1,.32-1.8,4.05,4.05,0,0,1,.93-1.41,4.21,4.21,0,0,1,1.46-.92,5.27,5.27,0,0,1,1.91-.33,5.57,5.57,0,0,1,1,.09,5.08,5.08,0,0,1,.88.25,4.11,4.11,0,0,1,.74.37,4,4,0,0,1,.6.47l-.59.89a.56.56,0,0,1-.36.26.63.63,0,0,1-.47-.11l-.45-.25a2.78,2.78,0,0,0-.43-.17,2.86,2.86,0,0,0-.47-.1,4.6,4.6,0,0,0-.55,0,2.51,2.51,0,0,0-1,.2,2.19,2.19,0,0,0-.78.57,2.57,2.57,0,0,0-.5.88,3.54,3.54,0,0,0-.17,1.14,3.68,3.68,0,0,0,.19,1.24,2.55,2.55,0,0,0,.54.91,2.31,2.31,0,0,0,.84.57,2.89,2.89,0,0,0,1.08.2,2.8,2.8,0,0,0,.66-.07,3.73,3.73,0,0,0,.58-.19V132.7h-.86a.42.42,0,0,1-.3-.1.34.34,0,0,1-.11-.26Z" class="cls-1"/><path d="M876.69,128.57v2h2.75v1.5h-2.75v2.08h3.59v1.56h-5.63V127h5.63v1.56Z" class="cls-1"/><rect width="149.46" height="4" x="765.95" y="63.66" class="cls-3" transform="translate(199.8 613.68) rotate(-45)"/><rect width="149.46" height="4" x="644.15" y="185.46" class="cls-5" transform="translate(78 563.23) rotate(-45)"/><path d="M586.16,234.81,583.33,232,689,126.29a2,2,0,0,1,1.41-.59h77.69v4H691.26Z" class="cls-6"/><path d="M779.66,139.31a13.54,13.54,0,1,1,13.54-13.54A13.56,13.56,0,0,1,779.66,139.31Zm0-23.08a9.54,9.54,0,1,0,9.54,9.54A9.55,9.55,0,0,0,779.66,116.22Z" class="cls-1"/><path d="M982.49,132.24h-2V123.5h2Z" class="cls-1"/><path d="M991.81,123.5v8.74h-1.06a.91.91,0,0,1-.39-.08,1,1,0,0,1-.32-.26l-4.12-5.21c0,.16,0,.31,0,.45s0,.28,0,.41v4.69h-1.79V123.5h1.29l.16,0a.54.54,0,0,1,.14.09l.15.16,4.16,5.25c0-.17,0-.33,0-.49s0-.31,0-.45V123.5Z" class="cls-1"/><path d="M999.79,125.11h-2.46v7.13h-2v-7.13h-2.46V123.5h6.95Z" class="cls-1"/><path d="M1002.85,125.06v2h2.75v1.5h-2.75v2.08h3.59v1.56h-5.63V123.5h5.63v1.56Z" class="cls-1"/><path d="M1014.84,132.24H1013a.78.78,0,0,1-.73-.38l-1.45-2.54a.7.7,0,0,0-.23-.24.71.71,0,0,0-.36-.07h-.52v3.23h-2V123.5h2.84a5.83,5.83,0,0,1,1.62.2,3,3,0,0,1,1.09.54,2.06,2.06,0,0,1,.61.82,2.73,2.73,0,0,1,.19,1,2.76,2.76,0,0,1-.11.8,2.47,2.47,0,0,1-.34.7,2.56,2.56,0,0,1-.55.57,2.91,2.91,0,0,1-.75.41,1.86,1.86,0,0,1,.37.26,1.75,1.75,0,0,1,.31.36Zm-4.31-4.63a2.09,2.09,0,0,0,.7-.1,1.28,1.28,0,0,0,.48-.29,1.1,1.1,0,0,0,.27-.44,1.65,1.65,0,0,0,.08-.54,1.13,1.13,0,0,0-.37-.9,1.74,1.74,0,0,0-1.16-.32h-.82v2.59Z" class="cls-1"/><path d="M1021.31,130l.14,0a.39.39,0,0,1,.14.09l.8.85a3.34,3.34,0,0,1-1.32,1,4.63,4.63,0,0,1-1.88.35,4.48,4.48,0,0,1-1.79-.34,3.85,3.85,0,0,1-1.34-.94,4.1,4.1,0,0,1-.84-1.42,5.22,5.22,0,0,1-.29-1.78,4.93,4.93,0,0,1,.32-1.8,4.18,4.18,0,0,1,.89-1.41,4,4,0,0,1,1.38-.92,4.61,4.61,0,0,1,1.77-.33,4.72,4.72,0,0,1,.93.09,4.57,4.57,0,0,1,.81.24,3.72,3.72,0,0,1,.7.37,3.66,3.66,0,0,1,.56.47l-.68.92a.84.84,0,0,1-.16.15.4.4,0,0,1-.25.07.45.45,0,0,1-.2,0l-.2-.12-.24-.15a1.83,1.83,0,0,0-.31-.15,2.56,2.56,0,0,0-.41-.12,2.84,2.84,0,0,0-.55,0,2.24,2.24,0,0,0-.92.19,2,2,0,0,0-.72.54,2.52,2.52,0,0,0-.47.88,3.93,3.93,0,0,0-.17,1.19,3.59,3.59,0,0,0,.18,1.19,2.63,2.63,0,0,0,.5.88,2.12,2.12,0,0,0,.73.54,2.2,2.2,0,0,0,.9.19l.5,0a2.29,2.29,0,0,0,.43-.09,1.73,1.73,0,0,0,.37-.17,2.34,2.34,0,0,0,.35-.27l.16-.1A.41.41,0,0,1,1021.31,130Z" class="cls-1"/><path d="M1030.92,123.5v8.74h-2v-3.7h-3.55v3.7h-2V123.5h2v3.65h3.55V123.5Z" class="cls-1"/><path d="M1040.45,132.24h-1.57a.68.68,0,0,1-.43-.12.78.78,0,0,1-.25-.31l-.52-1.52h-3.32l-.52,1.52a.73.73,0,0,1-.24.3.66.66,0,0,1-.42.13h-1.58l3.38-8.74h2.08Zm-3.22-3.34-.81-2.39c-.06-.15-.12-.33-.19-.54s-.14-.43-.2-.67c-.06.24-.12.47-.19.68s-.13.39-.19.54l-.8,2.38Z" class="cls-1"/><path d="M1048.78,123.5v8.74h-1.06a.91.91,0,0,1-.39-.08,1,1,0,0,1-.32-.26l-4.12-5.21c0,.16,0,.31,0,.45s0,.28,0,.41v4.69h-1.79V123.5h1.29l.16,0a.54.54,0,0,1,.14.09l.15.16,4.16,5.25c0-.17,0-.33,0-.49s0-.31,0-.45V123.5Z" class="cls-1"/><path d="M1054.67,127.71h3.11v3.69a4.61,4.61,0,0,1-1.43.71,5.62,5.62,0,0,1-1.59.22,5.45,5.45,0,0,1-2-.34,4.51,4.51,0,0,1-1.51-.94,4.11,4.11,0,0,1-1-1.42,4.58,4.58,0,0,1-.34-1.78,4.85,4.85,0,0,1,.32-1.8,4.05,4.05,0,0,1,.93-1.41,4.21,4.21,0,0,1,1.46-.92,5.27,5.27,0,0,1,1.91-.33,5.57,5.57,0,0,1,1,.09,5.08,5.08,0,0,1,.88.25,4.11,4.11,0,0,1,.74.37,4,4,0,0,1,.6.47l-.59.89a.56.56,0,0,1-.36.26.63.63,0,0,1-.47-.11l-.45-.25a2.78,2.78,0,0,0-.43-.17,2.86,2.86,0,0,0-.47-.1,4.6,4.6,0,0,0-.55,0,2.51,2.51,0,0,0-1,.2,2.19,2.19,0,0,0-.78.57,2.57,2.57,0,0,0-.5.88,3.54,3.54,0,0,0-.17,1.14,3.68,3.68,0,0,0,.19,1.24,2.55,2.55,0,0,0,.54.91,2.31,2.31,0,0,0,.84.57,2.89,2.89,0,0,0,1.08.2,2.8,2.8,0,0,0,.66-.07,3.73,3.73,0,0,0,.58-.19v-1.33h-.86a.42.42,0,0,1-.3-.1.34.34,0,0,1-.11-.26Z" class="cls-1"/><path d="M1061.18,125.06v2h2.75v1.5h-2.75v2.08h3.59v1.56h-5.63V123.5h5.63v1.56Z" class="cls-1"/><rect width="149.46" height="4" x="949.43" y="63.66" class="cls-3" transform="translate(253.54 743.42) rotate(-45)"/><rect width="149.46" height="4" x="827.63" y="185.46" class="cls-3" transform="translate(131.74 692.97) rotate(-45)"/><path d="M963.13,140.46a13.54,13.54,0,1,1,13.54-13.54A13.56,13.56,0,0,1,963.13,140.46Zm0-23.08a9.54,9.54,0,1,0,9.54,9.54A9.55,9.55,0,0,0,963.13,117.38Z" class="cls-1"/><circle cx="930.86" cy="159.2" r="8.07" class="cls-2"/><path d="M930.86,168.66a9.46,9.46,0,1,1,9.46-9.46A9.47,9.47,0,0,1,930.86,168.66Zm0-16.13a6.67,6.67,0,1,0,6.67,6.67A6.68,6.68,0,0,0,930.86,152.53Z" class="cls-7"/><path d="M13.54,140.46a13.54,13.54,0,1,1,13.54-13.54A13.56,13.56,0,0,1,13.54,140.46Zm0-23.08a9.54,9.54,0,1,0,9.54,9.54A9.55,9.55,0,0,0,13.54,117.38Z" class="cls-1"/><path d="M31.89,125.54h-2v-8.74h2Z" class="cls-1"/><path d="M41.21,116.79v8.74H40.15a.91.91,0,0,1-.39-.08,1,1,0,0,1-.32-.26L35.32,120c0,.16,0,.31,0,.45s0,.28,0,.41v4.69H33.58v-8.74h1.29l.16,0a.54.54,0,0,1,.14.09l.15.16,4.16,5.25c0-.17,0-.33,0-.49s0-.31,0-.45v-4.63Z" class="cls-1"/><path d="M49.18,118.4H46.72v7.13h-2V118.4H42.24v-1.61h6.95Z" class="cls-1"/><path d="M52.25,118.35v2H55v1.5H52.25V124h3.59v1.56H50.21v-8.74h5.63v1.56Z" class="cls-1"/><path d="M64.24,125.54H62.4a.78.78,0,0,1-.73-.38l-1.45-2.54a.7.7,0,0,0-.23-.24.71.71,0,0,0-.36-.07h-.52v3.23h-2v-8.74h2.84a5.83,5.83,0,0,1,1.62.2,3,3,0,0,1,1.09.54,2.06,2.06,0,0,1,.61.82,2.73,2.73,0,0,1,.19,1,2.76,2.76,0,0,1-.11.8,2.47,2.47,0,0,1-.34.7,2.56,2.56,0,0,1-.55.57,2.91,2.91,0,0,1-.75.41,1.86,1.86,0,0,1,.37.26,1.75,1.75,0,0,1,.31.36Zm-4.31-4.63a2.09,2.09,0,0,0,.7-.1,1.28,1.28,0,0,0,.48-.29,1.1,1.1,0,0,0,.27-.44,1.65,1.65,0,0,0,.08-.54,1.13,1.13,0,0,0-.37-.9,1.74,1.74,0,0,0-1.16-.32h-.82v2.59Z" class="cls-1"/><path d="M35.74,134.27l.14,0a.39.39,0,0,1,.14.09l.8.85a3.34,3.34,0,0,1-1.32,1,4.63,4.63,0,0,1-1.88.35,4.48,4.48,0,0,1-1.79-.34,3.85,3.85,0,0,1-1.34-.94,4.1,4.1,0,0,1-.84-1.42,5.22,5.22,0,0,1-.29-1.78,4.93,4.93,0,0,1,.32-1.8,4.18,4.18,0,0,1,.89-1.41A4,4,0,0,1,32,128a4.61,4.61,0,0,1,1.77-.33,4.72,4.72,0,0,1,.93.09,4.57,4.57,0,0,1,.81.24,3.72,3.72,0,0,1,.7.37,3.66,3.66,0,0,1,.56.47l-.68.92a.84.84,0,0,1-.16.15.4.4,0,0,1-.25.07.45.45,0,0,1-.2,0l-.2-.12-.24-.15a1.83,1.83,0,0,0-.31-.15,2.56,2.56,0,0,0-.41-.12,2.84,2.84,0,0,0-.55,0,2.24,2.24,0,0,0-.92.19,2,2,0,0,0-.72.54,2.52,2.52,0,0,0-.47.88,3.93,3.93,0,0,0-.17,1.19,3.59,3.59,0,0,0,.18,1.19,2.63,2.63,0,0,0,.5.88,2.12,2.12,0,0,0,.73.54,2.2,2.2,0,0,0,.9.19l.5,0a2.29,2.29,0,0,0,.43-.09,1.73,1.73,0,0,0,.37-.17,2.34,2.34,0,0,0,.35-.27l.16-.1A.41.41,0,0,1,35.74,134.27Z" class="cls-1"/><path d="M45.34,127.79v8.74h-2v-3.7H39.75v3.7h-2v-8.74h2v3.65H43.3v-3.65Z" class="cls-1"/><path d="M54.88,136.54H53.31a.68.68,0,0,1-.43-.12.78.78,0,0,1-.25-.31l-.52-1.52H48.79l-.52,1.52a.73.73,0,0,1-.24.3.66.66,0,0,1-.42.13H46l3.38-8.74h2.08Zm-3.22-3.34-.81-2.39c-.06-.15-.12-.33-.19-.54s-.14-.43-.2-.67c-.06.24-.12.47-.19.68s-.13.39-.19.54l-.8,2.38Z" class="cls-1"/><path d="M63.2,127.79v8.74H62.14a.91.91,0,0,1-.39-.08,1,1,0,0,1-.32-.26L57.31,131c0,.16,0,.31,0,.45s0,.28,0,.41v4.69H55.57v-8.74h1.29l.16,0a.54.54,0,0,1,.14.09l.15.16,4.16,5.25c0-.17,0-.33,0-.49s0-.31,0-.45v-4.63Z" class="cls-1"/><path d="M69.09,132H72.2v3.69a4.61,4.61,0,0,1-1.43.71,5.62,5.62,0,0,1-1.59.22,5.45,5.45,0,0,1-2-.34,4.51,4.51,0,0,1-1.51-.94,4.11,4.11,0,0,1-1-1.42,4.58,4.58,0,0,1-.34-1.78,4.85,4.85,0,0,1,.32-1.8,4.05,4.05,0,0,1,.93-1.41A4.21,4.21,0,0,1,67.1,128,5.27,5.27,0,0,1,69,127.7a5.57,5.57,0,0,1,1,.09,5.08,5.08,0,0,1,.88.25,4.11,4.11,0,0,1,.74.37,4,4,0,0,1,.6.47l-.59.89a.56.56,0,0,1-.36.26.63.63,0,0,1-.47-.11l-.45-.25a2.78,2.78,0,0,0-.43-.17,2.86,2.86,0,0,0-.47-.1,4.6,4.6,0,0,0-.55,0,2.51,2.51,0,0,0-1,.2,2.19,2.19,0,0,0-.78.57,2.57,2.57,0,0,0-.5.88,3.54,3.54,0,0,0-.17,1.14,3.68,3.68,0,0,0,.19,1.24,2.55,2.55,0,0,0,.54.91,2.31,2.31,0,0,0,.84.57,2.89,2.89,0,0,0,1.08.2,2.8,2.8,0,0,0,.66-.07,3.73,3.73,0,0,0,.58-.19v-1.33H69.5a.42.42,0,0,1-.3-.1.34.34,0,0,1-.11-.26Z" class="cls-1"/><path d="M75.6,129.35v2h2.75v1.5H75.6V135h3.59v1.56H73.56v-8.74h5.63v1.56Z" class="cls-1"/><rect width="149.46" height="4" x="-.16" y="63.66" class="cls-1" transform="translate(-24.59 71.96) rotate(-45)"/></svg>