<svg id="Layer_1" data-name="Layer 1" xmlns="http://www.w3.org/2000/svg" viewBox="0 0 3114 1114.63"><defs><style>.cls-1{fill:#6952a1;}.cls-2{fill:#e01eae;}.cls-3{fill:#ec1950;}.cls-4{fill:#f37820;}.cls-5{fill:#f6eb0f;}.cls-6{fill:#313131;}.cls-7{fill:#6cbd45;}.cls-8{fill:#2ec1dd;}</style></defs><title>Artboard 8 copy</title><rect class="cls-1" x="-3716.94" y="560.99" width="4946" height="33.71"/><rect class="cls-2" x="235.45" y="-1889.77" width="33.71" height="2830" transform="translate(409.61 39.35) rotate(-45)"/><path class="cls-3" d="M1424.09,553.81,1400.21,530,1695.55,233.7a16.86,16.86,0,0,1,11.94-5H5611.9v33.71H1714.49Z"/><path class="cls-4" d="M1372.1,510.3l-23.83-23.85L1732.8,102.34l-7-2135.79,33.71-.11,7,2142.81a16.86,16.86,0,0,1-4.94,12Z"/><rect class="cls-5" x="833.82" y="-871.51" width="3855.37" height="33.71" transform="translate(1413.17 1702.36) rotate(-45)"/><path class="cls-6" d="M954.42,3047.56H920.71V1017.35a16.86,16.86,0,0,1,4.94-11.92L1265,666.1l23.84,23.84L954.42,1024.33Z"/><rect class="cls-7" x="-810.81" y="1493.27" width="2417.74" height="33.71" transform="translate(-951.24 723.79) rotate(-45)"/><path class="cls-8" d="M-930,2103.53l-23.55-24.12L562.54,599a16.86,16.86,0,0,1,11.78-4.8h654.75v33.71H581.18Z"/><path class="cls-6" d="M1326.34,708.83A114.13,114.13,0,1,1,1440.47,594.7,114.26,114.26,0,0,1,1326.34,708.83Zm0-194.55a80.42,80.42,0,1,0,80.42,80.42A80.51,80.51,0,0,0,1326.34,514.28Z"/><path class="cls-6" d="M1513.36,610.5h-17.19V536.82h17.19Z"/><path class="cls-6" d="M1591.95,536.82V610.5H1583a7.72,7.72,0,0,1-3.31-.63,8.11,8.11,0,0,1-2.66-2.2l-34.74-43.94c.13,1.31.23,2.59.28,3.82s.08,2.38.08,3.46v39.5h-15.07V536.82h9a14.61,14.61,0,0,1,1.87.1,4.81,4.81,0,0,1,1.36.38,4.71,4.71,0,0,1,1.16.78,14,14,0,0,1,1.26,1.37l35,44.25q-.25-2.12-.35-4.12t-.11-3.77v-39Z"/><path class="cls-6" d="M1659.15,550.37h-20.74V610.5h-17.09V550.37h-20.73V536.82h58.56Z"/><path class="cls-6" d="M1685,550v17.19h23.16V579.8H1685v17.55h30.24V610.5h-47.43V536.82h47.43V550Z"/><path class="cls-6" d="M1786,610.5h-15.48q-4.3,0-6.17-3.24l-12.24-21.39a5.93,5.93,0,0,0-1.92-2,6,6,0,0,0-3-.63h-4.35V610.5h-17.09V536.82h24a49.28,49.28,0,0,1,13.63,1.64,25.69,25.69,0,0,1,9.2,4.58,17.39,17.39,0,0,1,5.18,6.93,23,23,0,0,1,1.61,8.7,23.44,23.44,0,0,1-1,6.78,21,21,0,0,1-2.83,5.89,21.56,21.56,0,0,1-4.63,4.83,24.71,24.71,0,0,1-6.35,3.49,15.32,15.32,0,0,1,3.14,2.15,15.1,15.1,0,0,1,2.63,3.06Zm-36.31-39a17.58,17.58,0,0,0,5.94-.89,10.76,10.76,0,0,0,4-2.45,9.34,9.34,0,0,0,2.28-3.67,14,14,0,0,0,.71-4.53,9.49,9.49,0,0,0-3.16-7.59q-3.16-2.73-9.79-2.73h-6.88v21.85Z"/><path class="cls-6" d="M1840.59,591.43a3.42,3.42,0,0,1,1.22.23,3.34,3.34,0,0,1,1.16.78l6.78,7.13a28.13,28.13,0,0,1-11.15,8.77,39,39,0,0,1-15.85,3,37.79,37.79,0,0,1-15-2.86,32.56,32.56,0,0,1-11.28-7.89,34.7,34.7,0,0,1-7.1-11.93,44,44,0,0,1-2.48-15,41.55,41.55,0,0,1,2.68-15.15,35.25,35.25,0,0,1,7.54-11.91,33.93,33.93,0,0,1,11.63-7.79A39,39,0,0,1,1823.6,536a39.84,39.84,0,0,1,7.81.73,38.33,38.33,0,0,1,6.85,2,31.2,31.2,0,0,1,5.86,3.11,30.6,30.6,0,0,1,4.76,3.94l-5.76,7.74a7.53,7.53,0,0,1-1.32,1.29,3.43,3.43,0,0,1-2.12.58,3.79,3.79,0,0,1-1.72-.4,18.92,18.92,0,0,1-1.72-1l-2-1.26a15.15,15.15,0,0,0-2.58-1.26,21.2,21.2,0,0,0-3.49-1,23.64,23.64,0,0,0-4.68-.41,18.83,18.83,0,0,0-7.76,1.57,16.92,16.92,0,0,0-6.07,4.58,21.25,21.25,0,0,0-3.94,7.38,33,33,0,0,0-1.39,10,30.31,30.31,0,0,0,1.54,10.06,22.07,22.07,0,0,0,4.2,7.41,17.76,17.76,0,0,0,6.19,4.58,18.51,18.51,0,0,0,7.59,1.57,36.22,36.22,0,0,0,4.25-.23,19.06,19.06,0,0,0,3.59-.76,14.47,14.47,0,0,0,3.14-1.42,19.75,19.75,0,0,0,3-2.25,6,6,0,0,1,1.32-.83A3.42,3.42,0,0,1,1840.59,591.43Z"/><path class="cls-6" d="M1921.55,536.82V610.5h-17.19V579.34h-29.94V610.5h-17.19V536.82h17.19v30.8h29.94v-30.8Z"/><path class="cls-6" d="M2001.9,610.5h-13.25a5.79,5.79,0,0,1-3.59-1,6.62,6.62,0,0,1-2.07-2.66L1978.65,594h-28l-4.35,12.84a6.12,6.12,0,0,1-2,2.55,5.57,5.57,0,0,1-3.56,1.14h-13.35l28.52-73.68h17.49Zm-27.16-28.17-6.83-20.18q-.75-1.92-1.61-4.53t-1.72-5.64q-.75,3.09-1.62,5.71t-1.61,4.55l-6.78,20.08Z"/><path class="cls-6" d="M2072,536.82V610.5h-8.9a7.72,7.72,0,0,1-3.31-.63,8.11,8.11,0,0,1-2.66-2.2l-34.74-43.94c.13,1.31.23,2.59.28,3.82s.08,2.38.08,3.46v39.5h-15.07V536.82h9a14.61,14.61,0,0,1,1.87.1,4.81,4.81,0,0,1,1.36.38,4.71,4.71,0,0,1,1.16.78,14,14,0,0,1,1.26,1.37l35,44.25q-.25-2.12-.35-4.12t-.11-3.77v-39Z"/><path class="cls-6" d="M2121.71,572.32h26.2v31.1a38.75,38.75,0,0,1-12.07,6,47.42,47.42,0,0,1-13.38,1.87,46,46,0,0,1-16.56-2.86,38.12,38.12,0,0,1-12.77-7.89,34.56,34.56,0,0,1-8.19-11.93,38.46,38.46,0,0,1-2.88-15,40.72,40.72,0,0,1,2.73-15.15,34.11,34.11,0,0,1,7.81-11.91,35.44,35.44,0,0,1,12.29-7.79A44.48,44.48,0,0,1,2121,536a46.9,46.9,0,0,1,8.65.76,42.29,42.29,0,0,1,7.45,2.07,34.45,34.45,0,0,1,6.25,3.13,34,34,0,0,1,5.06,3.95l-5,7.53a4.76,4.76,0,0,1-3,2.17,5.3,5.3,0,0,1-4-.91c-1.35-.81-2.62-1.51-3.81-2.1a23.44,23.44,0,0,0-3.67-1.44,24.38,24.38,0,0,0-3.94-.81,38.41,38.41,0,0,0-4.65-.25,21.24,21.24,0,0,0-8.65,1.69,18.55,18.55,0,0,0-6.55,4.78A21.63,21.63,0,0,0,2101,564a29.87,29.87,0,0,0-1.47,9.63,30.91,30.91,0,0,0,1.62,10.42,21.51,21.51,0,0,0,4.58,7.69,19.54,19.54,0,0,0,7.08,4.78,24.46,24.46,0,0,0,9.13,1.64,23.81,23.81,0,0,0,5.59-.61,31.38,31.38,0,0,0,4.88-1.62V584.76h-7.28a3.54,3.54,0,0,1-2.53-.86,2.88,2.88,0,0,1-.91-2.17Z"/><path class="cls-6" d="M2176.57,550v17.19h23.16V579.8h-23.16v17.55h30.24V610.5h-47.43V536.82h47.43V550Z"/><path class="cls-6" d="M1524.12,661.15a1.31,1.31,0,0,1,1,.45l2.79,3a17.76,17.76,0,0,1-6.47,4.9,22.23,22.23,0,0,1-9.17,1.72,21.59,21.59,0,0,1-8.55-1.63,18.77,18.77,0,0,1-6.51-4.56,20.14,20.14,0,0,1-4.15-7,26.07,26.07,0,0,1-1.46-8.9,24.86,24.86,0,0,1,1.54-8.91,20.38,20.38,0,0,1,4.35-7,19.46,19.46,0,0,1,6.71-4.54,22.3,22.3,0,0,1,8.61-1.62,21,21,0,0,1,8.26,1.51,20.34,20.34,0,0,1,6.21,4L1525,636a2.62,2.62,0,0,1-.57.57,1.52,1.52,0,0,1-.9.24,2.41,2.41,0,0,1-1.36-.56,21.8,21.8,0,0,0-1.95-1.23,14.3,14.3,0,0,0-7.41-1.78,14.49,14.49,0,0,0-5.66,1.08,12.17,12.17,0,0,0-4.44,3.14,14.6,14.6,0,0,0-2.89,5,20.39,20.39,0,0,0-1,6.74,20,20,0,0,0,1.08,6.79,14.76,14.76,0,0,0,3,5,12.68,12.68,0,0,0,4.44,3.13,13.89,13.89,0,0,0,5.48,1.08,23.57,23.57,0,0,0,3.22-.2,12.55,12.55,0,0,0,2.62-.63,12.07,12.07,0,0,0,2.26-1.09,14.42,14.42,0,0,0,2.11-1.62A1.79,1.79,0,0,1,1524.12,661.15Z"/><path class="cls-6" d="M1545.36,639.73a16.23,16.23,0,0,1,6.13,1.11,13.22,13.22,0,0,1,4.68,3.14,14,14,0,0,1,3,4.94,20.89,20.89,0,0,1,0,13.06,14.07,14.07,0,0,1-3,5,13.11,13.11,0,0,1-4.68,3.16,17.56,17.56,0,0,1-12.28,0,13.18,13.18,0,0,1-4.69-3.16,14.1,14.1,0,0,1-3-5,20.89,20.89,0,0,1,0-13.06,14,14,0,0,1,3-4.94,13.29,13.29,0,0,1,4.69-3.14A16.32,16.32,0,0,1,1545.36,639.73Zm0,26.45a7.11,7.11,0,0,0,6.16-2.77q2-2.77,2-7.92t-2-8a7.09,7.09,0,0,0-6.16-2.8,7.2,7.2,0,0,0-6.23,2.8q-2,2.8-2,8t2,7.92Q1541.16,666.18,1545.36,666.18Z"/><path class="cls-6" d="M1572.38,644.25a20,20,0,0,1,2.05-1.84,13.77,13.77,0,0,1,2.26-1.42,12,12,0,0,1,5.48-1.26,10.9,10.9,0,0,1,4.42.84,8.83,8.83,0,0,1,3.2,2.37,10.14,10.14,0,0,1,2,3.67,16,16,0,0,1,.66,4.72v19.44H1586V651.32a7.25,7.25,0,0,0-1.43-4.79,5.3,5.3,0,0,0-4.32-1.71,8.34,8.34,0,0,0-4,1,13.66,13.66,0,0,0-3.46,2.7v22.26h-6.44V640.21h3.9a1.58,1.58,0,0,1,1.67,1.23Z"/><path class="cls-6" d="M1606,644.25a19.35,19.35,0,0,1,2-1.84,13.58,13.58,0,0,1,2.26-1.42,12,12,0,0,1,2.55-.93,12.39,12.39,0,0,1,2.94-.33,10.87,10.87,0,0,1,4.42.84,8.85,8.85,0,0,1,3.21,2.37,10.22,10.22,0,0,1,2,3.67,16,16,0,0,1,.66,4.72v19.44h-6.41V651.32a7.28,7.28,0,0,0-1.42-4.79,5.32,5.32,0,0,0-4.33-1.71,8.32,8.32,0,0,0-4,1,13.79,13.79,0,0,0-3.46,2.7v22.26H1600V640.21h3.9a1.59,1.59,0,0,1,1.68,1.23Z"/><path class="cls-6" d="M1638.26,656a15.14,15.14,0,0,0,.81,4.51,9.21,9.21,0,0,0,1.84,3.16,7.12,7.12,0,0,0,2.76,1.87,9.91,9.91,0,0,0,3.58.61,10.91,10.91,0,0,0,3.26-.43,15.41,15.41,0,0,0,2.39-1c.68-.35,1.26-.67,1.74-1a2.59,2.59,0,0,1,1.32-.43,1.36,1.36,0,0,1,1.19.6l1.83,2.36a11.61,11.61,0,0,1-2.58,2.28,15,15,0,0,1-3.05,1.51,17.51,17.51,0,0,1-3.32.84,23,23,0,0,1-3.32.25,16,16,0,0,1-5.89-1.06,13.06,13.06,0,0,1-4.7-3.13,14.46,14.46,0,0,1-3.12-5.12,20.33,20.33,0,0,1-1.12-7,17.12,17.12,0,0,1,1-5.93,14.13,14.13,0,0,1,2.87-4.79,13.49,13.49,0,0,1,4.55-3.22,14.87,14.87,0,0,1,6.07-1.18,14.53,14.53,0,0,1,5.21.92,11.42,11.42,0,0,1,4.14,2.68,12.33,12.33,0,0,1,2.71,4.33,16.32,16.32,0,0,1,1,5.83,4.09,4.09,0,0,1-.33,2,1.32,1.32,0,0,1-1.2.51Zm15.37-4a9.44,9.44,0,0,0-.46-3,7.1,7.1,0,0,0-1.36-2.43,6.25,6.25,0,0,0-2.24-1.62,7.55,7.55,0,0,0-3.07-.58,7.44,7.44,0,0,0-5.51,2,9.75,9.75,0,0,0-2.55,5.63Z"/><path class="cls-6" d="M1687,646.2a3.45,3.45,0,0,1-.57.6,1.24,1.24,0,0,1-.78.21,2,2,0,0,1-1.06-.36q-.55-.36-1.32-.8a10.61,10.61,0,0,0-1.84-.79,8.65,8.65,0,0,0-2.7-.36,8.47,8.47,0,0,0-3.67.75,7.11,7.11,0,0,0-2.64,2.14,9.47,9.47,0,0,0-1.59,3.38,17.57,17.57,0,0,0-.53,4.48,17,17,0,0,0,.57,4.58,9.91,9.91,0,0,0,1.63,3.38,7.07,7.07,0,0,0,2.58,2.1,7.81,7.81,0,0,0,3.4.72,8.5,8.5,0,0,0,3-.45,9.28,9.28,0,0,0,1.95-1c.52-.36,1-.69,1.33-1a1.84,1.84,0,0,1,1.18-.45,1.37,1.37,0,0,1,1.2.6l1.83,2.36a11.86,11.86,0,0,1-2.46,2.28,14,14,0,0,1-2.84,1.51,15.14,15.14,0,0,1-3.12.84,21.3,21.3,0,0,1-3.26.25,13.35,13.35,0,0,1-5.32-1.06,12.43,12.43,0,0,1-4.31-3.09,14.67,14.67,0,0,1-2.9-4.94,19.3,19.3,0,0,1-1.06-6.67,19.7,19.7,0,0,1,1-6.28,14.21,14.21,0,0,1,2.8-5,12.72,12.72,0,0,1,4.57-3.28,15.66,15.66,0,0,1,6.29-1.18,14.82,14.82,0,0,1,5.86,1.08,14.18,14.18,0,0,1,4.51,3.05Z"/><path class="cls-6" d="M1723.81,670.77h-6.44V645.27h-14.89v17.35a3.57,3.57,0,0,0,.81,2.52,2.81,2.81,0,0,0,2.16.87,3.77,3.77,0,0,0,1.29-.2,6.07,6.07,0,0,0,.93-.42c.26-.15.48-.29.67-.42a1,1,0,0,1,.56-.2,1,1,0,0,1,.87.6l1.92,3.14a10.47,10.47,0,0,1-3.53,2,12.76,12.76,0,0,1-4.2.71,7.73,7.73,0,0,1-5.86-2.14,8.37,8.37,0,0,1-2.05-6V645.27h-3.35a1.34,1.34,0,0,1-.93-.35,1.29,1.29,0,0,1-.39-1v-2.61l4.94-.72,1.41-8.84a1.69,1.69,0,0,1,.51-.82,1.4,1.4,0,0,1,1-.32h3.29v10h21.33Zm1.32-39.93a4,4,0,0,1-.35,1.63,4.4,4.4,0,0,1-.95,1.35,4.51,4.51,0,0,1-1.39.93,4.1,4.1,0,0,1-1.66.35,3.9,3.9,0,0,1-1.63-.35,4.53,4.53,0,0,1-2.28-2.28,4,4,0,0,1-.35-1.63,4.21,4.21,0,0,1,.35-1.69,4.38,4.38,0,0,1,.93-1.38,4.49,4.49,0,0,1,1.35-.93,4,4,0,0,1,1.63-.35,4.14,4.14,0,0,1,1.66.35,4.57,4.57,0,0,1,1.39.93,4.34,4.34,0,0,1,.95,1.38A4.21,4.21,0,0,1,1725.14,630.83Z"/><path class="cls-6" d="M1738,644.25a19.35,19.35,0,0,1,2-1.84,13.58,13.58,0,0,1,2.26-1.42,12,12,0,0,1,2.55-.93,12.39,12.39,0,0,1,2.94-.33,10.87,10.87,0,0,1,4.42.84,8.85,8.85,0,0,1,3.21,2.37,10.22,10.22,0,0,1,2,3.67,16,16,0,0,1,.66,4.72v19.44h-6.41V651.32a7.28,7.28,0,0,0-1.42-4.79,5.32,5.32,0,0,0-4.33-1.71,8.32,8.32,0,0,0-4,1,13.79,13.79,0,0,0-3.46,2.7v22.26h-6.44V640.21h3.9a1.59,1.59,0,0,1,1.68,1.23Z"/><path class="cls-6" d="M1791.87,641.32v2.4c0,.8-.47,1.29-1.43,1.47l-3.06.51a9.88,9.88,0,0,1-.1,7.94,9.21,9.21,0,0,1-2.45,3.12,11,11,0,0,1-3.72,2,15.25,15.25,0,0,1-4.67.69,16.28,16.28,0,0,1-1.87-.11c-.61-.07-1.21-.16-1.78-.28a4.22,4.22,0,0,0-1.29,1.08,1.93,1.93,0,0,0-.42,1.17,1.57,1.57,0,0,0,.87,1.47,6.79,6.79,0,0,0,2.29.69,28.51,28.51,0,0,0,3.25.27q1.83.06,3.72.21a35.44,35.44,0,0,1,3.72.49,10.71,10.71,0,0,1,3.25,1.14,5.93,5.93,0,0,1,3.16,5.65,8.21,8.21,0,0,1-1,3.86,10.3,10.3,0,0,1-2.86,3.36,14.72,14.72,0,0,1-4.56,2.35,19.77,19.77,0,0,1-6.14.88,23.78,23.78,0,0,1-5.94-.66,13.94,13.94,0,0,1-4.22-1.78,7.6,7.6,0,0,1-2.52-2.59,6.16,6.16,0,0,1-.83-3.06,5.32,5.32,0,0,1,1.36-3.68,9.08,9.08,0,0,1,3.7-2.4,5.25,5.25,0,0,1-2-1.65,4.53,4.53,0,0,1-.77-2.76,5,5,0,0,1,1-2.81,7.76,7.76,0,0,1,3-2.49,9.76,9.76,0,0,1-3.6-3.34,8.91,8.91,0,0,1-1.32-4.87,9.29,9.29,0,0,1,.88-4.1,9.08,9.08,0,0,1,2.48-3.12,11.38,11.38,0,0,1,3.76-2,15.66,15.66,0,0,1,4.75-.69,13.85,13.85,0,0,1,6.89,1.65Zm-6.47,30.95a2.29,2.29,0,0,0-.59-1.63,3.92,3.92,0,0,0-1.57-1,11.53,11.53,0,0,0-2.31-.51c-.88-.11-1.81-.19-2.8-.24l-3-.15q-1.54-.07-3-.28a8,8,0,0,0-2.35,1.8,3.59,3.59,0,0,0-.91,2.43,3.22,3.22,0,0,0,.47,1.68,3.93,3.93,0,0,0,1.43,1.35,8.63,8.63,0,0,0,2.49.9,17.4,17.4,0,0,0,3.64.33,12.33,12.33,0,0,0,6.38-1.32A3.9,3.9,0,0,0,1785.41,672.26Zm-9-17a6,6,0,0,0,4.49-1.53,5.46,5.46,0,0,0,1.5-4,5.34,5.34,0,0,0-1.5-4,7.6,7.6,0,0,0-9,0,5.31,5.31,0,0,0-1.51,4,6.21,6.21,0,0,0,.39,2.22,4.84,4.84,0,0,0,1.14,1.75,5.08,5.08,0,0,0,1.87,1.14A7.63,7.63,0,0,0,1776.45,655.22Z"/><path class="cls-6" d="M1843,661.15a1.31,1.31,0,0,1,1,.45l2.79,3a17.72,17.72,0,0,1-6.47,4.9,22.2,22.2,0,0,1-9.16,1.72,21.55,21.55,0,0,1-8.55-1.63,18.85,18.85,0,0,1-6.52-4.56,20.23,20.23,0,0,1-4.15-7,26.21,26.21,0,0,1-1.45-8.9,24.86,24.86,0,0,1,1.54-8.91,20.36,20.36,0,0,1,4.34-7,19.43,19.43,0,0,1,6.71-4.54,22.28,22.28,0,0,1,8.61-1.62,21,21,0,0,1,8.25,1.51,20.44,20.44,0,0,1,6.22,4l-2.31,3.26a2.65,2.65,0,0,1-.57.57,1.49,1.49,0,0,1-.9.24,2.4,2.4,0,0,1-1.36-.56,21.8,21.8,0,0,0-1.95-1.23,15.39,15.39,0,0,0-3-1.23,15.22,15.22,0,0,0-4.45-.55,14.52,14.52,0,0,0-5.66,1.08,12.27,12.27,0,0,0-4.44,3.14,14.7,14.7,0,0,0-2.89,5,20.54,20.54,0,0,0-1,6.74,19.87,19.87,0,0,0,1.08,6.79,14.76,14.76,0,0,0,3,5,12.63,12.63,0,0,0,4.44,3.13,13.89,13.89,0,0,0,5.48,1.08,23.63,23.63,0,0,0,3.22-.2,12.73,12.73,0,0,0,2.62-.63,12.43,12.43,0,0,0,2.26-1.09,14.08,14.08,0,0,0,2.11-1.62A1.82,1.82,0,0,1,1843,661.15Z"/><path class="cls-6" d="M1857.66,645.87a13.52,13.52,0,0,1,3.48-4.57,8,8,0,0,1,6.74-1.44,5.26,5.26,0,0,1,1.56.68l-.45,4.85a1.18,1.18,0,0,1-.37.7,1.06,1.06,0,0,1-.67.2,7.33,7.33,0,0,1-1.29-.16,9.06,9.06,0,0,0-1.77-.17,6.75,6.75,0,0,0-2.38.39,5.77,5.77,0,0,0-1.86,1.14,7.62,7.62,0,0,0-1.45,1.83,17.84,17.84,0,0,0-1.17,2.46v19h-6.44V640.21h3.74a2,2,0,0,1,1.41.37,2.32,2.32,0,0,1,.54,1.3Z"/><path class="cls-6" d="M1877.32,656a15.14,15.14,0,0,0,.81,4.51,9.21,9.21,0,0,0,1.84,3.16,7.12,7.12,0,0,0,2.76,1.87,9.91,9.91,0,0,0,3.58.61,10.91,10.91,0,0,0,3.26-.43,15.41,15.41,0,0,0,2.39-1c.68-.35,1.26-.67,1.74-1a2.59,2.59,0,0,1,1.32-.43,1.36,1.36,0,0,1,1.19.6l1.83,2.36a11.61,11.61,0,0,1-2.58,2.28,15,15,0,0,1-3.05,1.51,17.51,17.51,0,0,1-3.32.84,23,23,0,0,1-3.32.25,16,16,0,0,1-5.89-1.06,13.06,13.06,0,0,1-4.7-3.13,14.46,14.46,0,0,1-3.12-5.12,20.33,20.33,0,0,1-1.12-7,17.12,17.12,0,0,1,1-5.93,14.13,14.13,0,0,1,2.87-4.79,13.49,13.49,0,0,1,4.55-3.22,14.87,14.87,0,0,1,6.07-1.18,14.53,14.53,0,0,1,5.21.92,11.42,11.42,0,0,1,4.14,2.68,12.33,12.33,0,0,1,2.71,4.33,16.32,16.32,0,0,1,1,5.83,4.09,4.09,0,0,1-.33,2,1.32,1.32,0,0,1-1.2.51Zm15.37-4a9.44,9.44,0,0,0-.46-3,7.1,7.1,0,0,0-1.36-2.43,6.25,6.25,0,0,0-2.24-1.62,7.55,7.55,0,0,0-3.07-.58,7.44,7.44,0,0,0-5.51,2,9.75,9.75,0,0,0-2.55,5.63Z"/><path class="cls-6" d="M1903.71,644.46a17.51,17.51,0,0,1,12.35-4.82,12.15,12.15,0,0,1,4.69.85,9.41,9.41,0,0,1,3.45,2.41,10.67,10.67,0,0,1,2.13,3.7,14.7,14.7,0,0,1,.73,4.75v19.41h-2.88a2.78,2.78,0,0,1-1.4-.28,2.15,2.15,0,0,1-.81-1.16l-.63-2.48a29.09,29.09,0,0,1-2.31,1.87,14.91,14.91,0,0,1-2.35,1.39,11.66,11.66,0,0,1-2.61.85,15.48,15.48,0,0,1-3.07.28,11.4,11.4,0,0,1-3.46-.51,7.58,7.58,0,0,1-2.77-1.54,7.31,7.31,0,0,1-1.84-2.56,8.83,8.83,0,0,1-.67-3.6,6.92,6.92,0,0,1,.94-3.45,8.61,8.61,0,0,1,3.11-3,20.34,20.34,0,0,1,5.72-2.2,41.55,41.55,0,0,1,8.76-1v-2a7.31,7.31,0,0,0-1.41-4.91,5.18,5.18,0,0,0-4.13-1.62,9.08,9.08,0,0,0-3.12.47,14.25,14.25,0,0,0-2.19,1c-.61.36-1.16.69-1.64,1a2.77,2.77,0,0,1-1.53.47,1.84,1.84,0,0,1-1.12-.35,2.83,2.83,0,0,1-.77-.85Zm17.08,12.94a40.93,40.93,0,0,0-5.81.55,16.57,16.57,0,0,0-3.84,1.11,5.12,5.12,0,0,0-2.11,1.6,3.52,3.52,0,0,0-.64,2,4.49,4.49,0,0,0,.35,1.84,3.33,3.33,0,0,0,1,1.26,3.88,3.88,0,0,0,1.44.72,6.89,6.89,0,0,0,1.81.23,9.26,9.26,0,0,0,4.33-.94,13.52,13.52,0,0,0,3.52-2.74Z"/><path class="cls-6" d="M1963.8,670.77h-6.44V645.27h-14.89v17.35a3.57,3.57,0,0,0,.81,2.52,2.81,2.81,0,0,0,2.16.87,3.77,3.77,0,0,0,1.29-.2,6.07,6.07,0,0,0,.93-.42c.26-.15.48-.29.67-.42a1,1,0,0,1,.56-.2,1,1,0,0,1,.87.6l1.92,3.14a10.47,10.47,0,0,1-3.53,2,12.76,12.76,0,0,1-4.2.71,7.73,7.73,0,0,1-5.86-2.14,8.37,8.37,0,0,1-2.05-6V645.27h-3.35a1.34,1.34,0,0,1-.93-.35,1.29,1.29,0,0,1-.39-1v-2.61l4.94-.72,1.41-8.84a1.69,1.69,0,0,1,.51-.82,1.4,1.4,0,0,1,1-.32h3.29v10h21.33Zm1.32-39.93a4,4,0,0,1-.35,1.63,4.4,4.4,0,0,1-.95,1.35,4.51,4.51,0,0,1-1.39.93,4.1,4.1,0,0,1-1.66.35,3.9,3.9,0,0,1-1.63-.35,4.53,4.53,0,0,1-2.28-2.28,4,4,0,0,1-.35-1.63,4.21,4.21,0,0,1,.35-1.69,4.38,4.38,0,0,1,.93-1.38,4.49,4.49,0,0,1,1.35-.93,4,4,0,0,1,1.63-.35,4.14,4.14,0,0,1,1.66.35,4.57,4.57,0,0,1,1.39.93,4.34,4.34,0,0,1,.95,1.38A4.21,4.21,0,0,1,1965.12,630.83Z"/><path class="cls-6" d="M1998.82,640.21l-12.28,30.56h-5.81l-12.28-30.56h5.3a2,2,0,0,1,1.24.37,1.7,1.7,0,0,1,.64.88l6.77,17.8c.28.84.53,1.67.75,2.49s.41,1.65.57,2.49c.16-.84.35-1.66.59-2.47s.48-1.64.76-2.5l6.89-17.8a1.82,1.82,0,0,1,.66-.9,1.91,1.91,0,0,1,1.17-.36Z"/><path class="cls-6" d="M2007,656a15.52,15.52,0,0,0,.81,4.51,9.4,9.4,0,0,0,1.84,3.16,7.21,7.21,0,0,0,2.76,1.87,10,10,0,0,0,3.58.61,10.91,10.91,0,0,0,3.26-.43,15.49,15.49,0,0,0,2.4-1c.68-.35,1.26-.67,1.74-1a2.59,2.59,0,0,1,1.32-.43,1.37,1.37,0,0,1,1.2.6l1.83,2.36a11.58,11.58,0,0,1-2.57,2.28,15.15,15.15,0,0,1-3.05,1.51,17.57,17.57,0,0,1-3.33.84,22.91,22.91,0,0,1-3.32.25,16,16,0,0,1-5.89-1.06,13.08,13.08,0,0,1-4.7-3.13,14.45,14.45,0,0,1-3.11-5.12,20.33,20.33,0,0,1-1.12-7,17.26,17.26,0,0,1,1-5.93,14.05,14.05,0,0,1,2.88-4.79,13.43,13.43,0,0,1,4.55-3.22,14.85,14.85,0,0,1,6.07-1.18,14.55,14.55,0,0,1,5.21.92,11.4,11.4,0,0,1,4.13,2.68,12.34,12.34,0,0,1,2.71,4.33,16.45,16.45,0,0,1,1,5.83,4.16,4.16,0,0,1-.33,2,1.32,1.32,0,0,1-1.2.51Zm15.37-4a9.44,9.44,0,0,0-.47-3,7,7,0,0,0-1.36-2.43,6.23,6.23,0,0,0-2.23-1.62,7.6,7.6,0,0,0-3.07-.58,7.46,7.46,0,0,0-5.51,2,9.71,9.71,0,0,0-2.55,5.63Z"/><path class="cls-6" d="M2078.15,633.47H2064.7v37.3h-7v-37.3h-13.48v-5.84h33.91Z"/><path class="cls-6" d="M2075.48,644.46a17.49,17.49,0,0,1,12.34-4.82,12.16,12.16,0,0,1,4.69.85,9.38,9.38,0,0,1,3.44,2.41,10.67,10.67,0,0,1,2.13,3.7,14.54,14.54,0,0,1,.73,4.75v19.41h-2.87a2.81,2.81,0,0,1-1.41-.28,2.21,2.21,0,0,1-.81-1.16l-.63-2.48a29.14,29.14,0,0,1-2.31,1.87,14.4,14.4,0,0,1-2.35,1.39,11.61,11.61,0,0,1-2.6.85,15.59,15.59,0,0,1-3.07.28,11.33,11.33,0,0,1-3.46-.51,7.56,7.56,0,0,1-2.77-1.54,7.31,7.31,0,0,1-1.84-2.56,8.83,8.83,0,0,1-.67-3.6,7,7,0,0,1,.94-3.45,8.63,8.63,0,0,1,3.12-3,20.2,20.2,0,0,1,5.72-2.2,41.44,41.44,0,0,1,8.76-1v-2a7.34,7.34,0,0,0-1.4-4.91,5.19,5.19,0,0,0-4.14-1.62,9,9,0,0,0-3.11.47,14,14,0,0,0-2.19,1q-.93.54-1.65,1a2.77,2.77,0,0,1-1.53.47,1.84,1.84,0,0,1-1.12-.35,2.81,2.81,0,0,1-.76-.85Zm17.07,12.94a41.1,41.1,0,0,0-5.81.55,16.51,16.51,0,0,0-3.83,1.11,5,5,0,0,0-2.11,1.6,3.48,3.48,0,0,0-.64,2,4.39,4.39,0,0,0,.35,1.84,3.32,3.32,0,0,0,1,1.26,3.88,3.88,0,0,0,1.44.72,6.9,6.9,0,0,0,1.81.23,9.27,9.27,0,0,0,4.33-.94,13.5,13.5,0,0,0,3.52-2.74Z"/><path class="cls-6" d="M2112.9,626.43v44.34h-6.44V626.43Z"/><path class="cls-6" d="M2125.54,656a15.14,15.14,0,0,0,.81,4.51,9.21,9.21,0,0,0,1.84,3.16,7.12,7.12,0,0,0,2.76,1.87,9.91,9.91,0,0,0,3.58.61,10.91,10.91,0,0,0,3.26-.43,15.41,15.41,0,0,0,2.39-1c.68-.35,1.26-.67,1.74-1a2.59,2.59,0,0,1,1.32-.43,1.36,1.36,0,0,1,1.19.6l1.83,2.36a11.61,11.61,0,0,1-2.58,2.28,15,15,0,0,1-3.05,1.51,17.51,17.51,0,0,1-3.32.84,23,23,0,0,1-3.32.25,16,16,0,0,1-5.89-1.06,13.06,13.06,0,0,1-4.7-3.13,14.46,14.46,0,0,1-3.12-5.12,20.33,20.33,0,0,1-1.12-7,17.12,17.12,0,0,1,1-5.93,14.13,14.13,0,0,1,2.87-4.79,13.49,13.49,0,0,1,4.55-3.22,14.87,14.87,0,0,1,6.07-1.18,14.53,14.53,0,0,1,5.21.92,11.42,11.42,0,0,1,4.14,2.68,12.33,12.33,0,0,1,2.71,4.33,16.32,16.32,0,0,1,1,5.83,4.09,4.09,0,0,1-.33,2,1.32,1.32,0,0,1-1.2.51Zm15.37-4a9.44,9.44,0,0,0-.46-3,7.1,7.1,0,0,0-1.36-2.43,6.25,6.25,0,0,0-2.24-1.62,7.55,7.55,0,0,0-3.07-.58,7.44,7.44,0,0,0-5.51,2,9.75,9.75,0,0,0-2.55,5.63Z"/><path class="cls-6" d="M2158.7,644.25a20,20,0,0,1,2.05-1.84A13.77,13.77,0,0,1,2163,641a12,12,0,0,1,5.48-1.26,10.9,10.9,0,0,1,4.42.84,8.83,8.83,0,0,1,3.2,2.37,10.14,10.14,0,0,1,2,3.67,16,16,0,0,1,.66,4.72v19.44h-6.41V651.32a7.25,7.25,0,0,0-1.43-4.79,5.3,5.3,0,0,0-4.32-1.71,8.34,8.34,0,0,0-4,1,13.66,13.66,0,0,0-3.46,2.7v22.26h-6.44V640.21h3.9a1.58,1.58,0,0,1,1.67,1.23Z"/><path class="cls-6" d="M2195.67,671.25a7.74,7.74,0,0,1-5.86-2.14,8.37,8.37,0,0,1-2-6V645.27h-3.36a1.36,1.36,0,0,1-.93-.35,1.31,1.31,0,0,1-.39-1v-2.61l4.94-.72,1.4-8.84a1.69,1.69,0,0,1,.51-.82,1.41,1.41,0,0,1,1-.32h3.29v10h8.48v4.64h-8.48v17.35a3.54,3.54,0,0,0,.81,2.52,2.8,2.8,0,0,0,2.15.87,3.75,3.75,0,0,0,1.29-.2,5.59,5.59,0,0,0,.93-.42c.26-.15.49-.29.67-.42a.91.91,0,0,1,1.42.4l1.92,3.14a10.47,10.47,0,0,1-3.53,2A12.71,12.71,0,0,1,2195.67,671.25Z"/></svg>