<?xml version="1.0" encoding="utf-8"?>
<!-- Generator: Adobe Illustrator 21.0.2, SVG Export Plug-In . SVG Version: 6.00 Build 0)  -->
<svg version="1.1" id="Layer_1" xmlns:sketch="http://www.bohemiancoding.com/sketch/ns"
	 xmlns="http://www.w3.org/2000/svg" xmlns:xlink="http://www.w3.org/1999/xlink" x="0px" y="0px" viewBox="0 0 2956 1181"
	 style="enable-background:new 0 0 2956 1181;" xml:space="preserve">
<style type="text/css">
	.st0{enable-background:new    ;}
	.st1{fill:#313131;}
</style>
<title>Interaction Map</title>
<desc>Created with Sketch.</desc>
<g id="Elements" sketch:type="MSPage">
	<g id="Interaction-Map" sketch:type="MSArtboardGroup">
		<g class="st0">
			<path class="st1" d="M139.7,494h-14v-24h2.8v21.4h11.2V494z"/>
			<path class="st1" d="M143.2,488.6c0-3.2,2.2-5.4,6.5-5.4h4.9v-1.9c0-2.5-1.6-3.7-4.1-3.7c-2.5,0-3.5,0.9-3.9,2.2h-2.7
				c0.3-3.1,2.8-4.7,6.7-4.7c3.7,0,6.8,1.6,6.8,6.1V494h-2.7v-2.5h-0.1c-0.9,1.5-2.6,2.8-5.4,2.8C145.7,494.3,143.2,492,143.2,488.6
				z M154.6,487.7v-2.1h-4.9c-2.6,0-3.7,1.3-3.7,3c0,2.2,1.8,3.3,3.9,3.3C152.6,491.9,154.6,490,154.6,487.7z"/>
			<path class="st1" d="M178.4,494h-2.8v-3.1h-0.2c-0.5,1.5-2.3,3.4-5.5,3.4c-3.7,0-6.3-1.6-6.3-5.9v-12.9h2.8v12.1
				c0,3.1,1.9,4.2,4.2,4.2c2.9,0,5-2.1,5-4.5v-11.8h2.8V494z"/>
			<path class="st1" d="M184.9,475.6h2.8v3.4h0.1c0.5-1.5,1.7-3.7,5.6-3.7c3.7,0,6.3,2,6.3,6.1V494h-2.8v-11.7c0-3-1.5-4.6-4.2-4.6
				c-3.5,0-5.1,2.7-5.1,6V494h-2.8V475.6z"/>
			<path class="st1" d="M205.1,483.1c0-4.8,2.9-7.9,7.6-7.9c4.6,0,6.8,2.8,6.9,5.4h-2.8c-0.2-1-1.1-2.9-4.1-2.9
				c-3.2,0-4.8,2.1-4.8,5.5v3.1c0,3.3,1.8,5.4,4.8,5.4c2.9,0,3.9-1.3,4.3-2.7h2.8c-0.1,2.5-2.2,5.2-7.1,5.2c-4.7,0-7.6-3.1-7.6-7.9
				V483.1z"/>
			<path class="st1" d="M225,468h2.8v10.9h0.1c0.4-1.3,1.9-3.7,5.8-3.7c3.6,0,6.2,2,6.2,6.1V494h-2.8v-11.7c0-3-1.6-4.6-4.3-4.6
				c-3.4,0-5.1,2.7-5.1,6V494H225V468z"/>
		</g>
		<g class="st0">
			<path class="st1" d="M398.8,487.6c0.2,2.4,2.3,4.4,6.1,4.4c3.4,0,5.6-1.7,5.6-4.4c0-2-1.2-3.2-4-3.9l-4.3-1.1
				c-2.8-0.7-5.5-2.5-5.5-6.2c0-4.5,4-6.9,8.2-6.9c3.9,0,8.1,2.1,8.2,6.8h-2.8c-0.2-2.4-2-4.2-5.5-4.2c-3,0-5.3,1.5-5.3,4.1
				c0,1.8,1.1,3.1,3.4,3.7l4.2,1.1c3.7,1,6.2,2.7,6.2,6.5c0,4.7-4,7.1-8.9,7.1c-6.3,0-8.4-3.8-8.5-6.9H398.8z"/>
			<path class="st1" d="M421.7,491.3h-0.1v9.2h-2.8v-24.9h2.6v2.9h0.1c0.6-1.7,2.5-3.2,5.6-3.2c4.3,0,7.1,3,7.1,7.8v3.4
				c0,4.9-2.9,7.8-7.2,7.8C423.9,494.3,422.3,492.8,421.7,491.3z M431.4,485.8v-2.1c0-4-1.9-6.1-4.9-6.1c-3.1,0-5,2.2-5,5.6v3.4
				c0,3,2,5.2,5.1,5.2C429.4,491.9,431.4,489.9,431.4,485.8z"/>
			<path class="st1" d="M439.9,468h2.8v26h-2.8V468z"/>
			<path class="st1" d="M448.1,488.6c0-3.2,2.2-5.4,6.5-5.4h4.9v-1.9c0-2.5-1.6-3.7-4.1-3.7c-2.5,0-3.5,0.9-3.9,2.2h-2.7
				c0.3-3.1,2.8-4.7,6.7-4.7c3.7,0,6.8,1.6,6.8,6.1V494h-2.7v-2.5h-0.1c-0.9,1.5-2.6,2.8-5.4,2.8C450.6,494.3,448.1,492,448.1,488.6
				z M459.5,487.7v-2.1h-4.9c-2.6,0-3.7,1.3-3.7,3c0,2.2,1.8,3.3,3.9,3.3C457.5,491.9,459.5,490,459.5,487.7z"/>
			<path class="st1" d="M474.5,475.3c3.9,0,6.5,2.1,6.5,5.1h-2.6c-0.1-1.4-1.4-2.8-4-2.8c-2.2,0-3.9,1-3.9,2.9c0,2.3,2.4,2.6,4.5,3
				c3.5,0.6,6.4,1.5,6.4,5.1c0,3.7-3,5.7-7.2,5.7c-3.9,0-6.8-1.8-6.8-5.1h2.7c0.3,1.7,1.4,2.8,4.2,2.8c3.1,0,4.4-1.4,4.4-3.1
				c0-2.1-2-2.6-4.6-3.1c-3.5-0.7-6.3-1.4-6.3-5.1C467.8,476.9,471,475.3,474.5,475.3z"/>
			<path class="st1" d="M486.9,468h2.8v10.9h0.1c0.4-1.3,1.9-3.7,5.8-3.7c3.6,0,6.2,2,6.2,6.1V494H499v-11.7c0-3-1.6-4.6-4.3-4.6
				c-3.4,0-5.1,2.7-5.1,6V494h-2.8V468z"/>
			<path class="st1" d="M525.1,470c4.5,0,7.6,2.9,7.6,7.4c0,4.5-3.1,7.4-7.6,7.4h-5.8v9.2h-2.8v-24H525.1z M519.3,482.2h3.8
				c4.3,0,6.7-0.8,6.7-4.8c0-3.1-1.7-4.8-4.8-4.8h-5.7V482.2z"/>
			<path class="st1" d="M536.1,488.6c0-3.2,2.2-5.4,6.5-5.4h4.9v-1.9c0-2.5-1.6-3.7-4.1-3.7c-2.5,0-3.5,0.9-3.9,2.2h-2.7
				c0.3-3.1,2.8-4.7,6.7-4.7c3.7,0,6.8,1.6,6.8,6.1V494h-2.7v-2.5h-0.1c-0.9,1.5-2.6,2.8-5.4,2.8C538.5,494.3,536.1,492,536.1,488.6
				z M547.4,487.7v-2.1h-4.9c-2.6,0-3.7,1.3-3.7,3c0,2.2,1.8,3.3,3.9,3.3C545.4,491.9,547.4,490,547.4,487.7z"/>
			<path class="st1" d="M568.1,493.6v-2.8H568c-0.7,1.6-2.6,2.9-5.2,2.9c-4.1,0-7.4-2.9-7.4-7.6v-3.1c0-4.7,3.3-7.7,7.3-7.7
				c2.8,0,4.8,1.6,5.4,3.1h0.1v-2.8h2.6v18c0,5-3.1,7.4-8,7.4c-4.6,0-6.8-2.3-7.1-5h2.9c0.2,1.4,1.8,2.5,4.3,2.5
				C566.4,498.5,568.1,496.6,568.1,493.6z M558.2,483.6v1.8c0,3.5,2.1,5.8,5.2,5.8c3.1,0,4.8-2.6,4.8-5.2v-3c0-2.7-1.8-5.3-4.8-5.3
				C560.1,477.7,558.2,480.1,558.2,483.6z"/>
			<path class="st1" d="M576.4,486.3v-3c0-4.9,3.1-8,7.5-8s7.5,3.1,7.5,8v2.2h-12.2v0.9c0,3,1.7,5.4,4.9,5.4c2.2,0,3.7-1.1,4.1-2.2
				h2.9c-0.3,1.9-2.5,4.7-7,4.7C579.3,494.3,576.4,491.1,576.4,486.3z M588.7,483.4v-0.3c0-3.2-1.9-5.4-4.7-5.4s-4.7,2.1-4.7,5.4
				v0.3H588.7z"/>
		</g>
		<g class="st0">
			<path class="st1" d="M836.6,494v-24h2.7l8.1,19.2h0.1l8.1-19.2h2.7v24h-2.5v-17.9h-0.2l-6.9,16h-2.5l-6.9-16h-0.1V494H836.6z"/>
			<path class="st1" d="M863.9,488.6c0-3.2,2.2-5.4,6.5-5.4h4.9v-1.9c0-2.5-1.6-3.7-4.1-3.7c-2.5,0-3.5,0.9-3.9,2.2h-2.7
				c0.3-3.1,2.8-4.7,6.7-4.7c3.7,0,6.8,1.6,6.8,6.1V494h-2.7v-2.5h-0.1c-0.9,1.5-2.6,2.8-5.4,2.8C866.3,494.3,863.9,492,863.9,488.6
				z M875.3,487.7v-2.1h-4.9c-2.6,0-3.7,1.3-3.7,3c0,2.2,1.8,3.3,3.9,3.3C873.3,491.9,875.3,490,875.3,487.7z"/>
			<path class="st1" d="M887.4,491.3h-0.1v9.2h-2.8v-24.9h2.6v2.9h0.1c0.6-1.7,2.5-3.2,5.6-3.2c4.3,0,7.1,3,7.1,7.8v3.4
				c0,4.9-2.9,7.8-7.2,7.8C889.6,494.3,888.1,492.8,887.4,491.3z M897.1,485.8v-2.1c0-4-1.9-6.1-4.9-6.1c-3.1,0-5,2.2-5,5.6v3.4
				c0,3,2,5.2,5.1,5.2C895.1,491.9,897.1,489.9,897.1,485.8z"/>
			<path class="st1" d="M920,494l-8.7-24h3.2l6.9,20.6h0.2l6.8-20.6h3.2l-8.8,24H920z"/>
			<path class="st1" d="M937.5,467.7c1.2,0,2.1,0.9,2.1,2.1c0,1.2-0.9,2.1-2.1,2.1c-1.1,0-2.1-0.9-2.1-2.1
				C935.4,468.6,936.4,467.7,937.5,467.7z M936.2,475.6h2.8V494h-2.8V475.6z"/>
			<path class="st1" d="M944.9,486.3v-3c0-4.9,3.1-8,7.5-8s7.5,3.1,7.5,8v2.2h-12.2v0.9c0,3,1.7,5.4,4.9,5.4c2.2,0,3.7-1.1,4.1-2.2
				h2.9c-0.3,1.9-2.5,4.7-7,4.7C947.8,494.3,944.9,491.1,944.9,486.3z M957.2,483.4v-0.3c0-3.2-1.9-5.4-4.7-5.4s-4.7,2.1-4.7,5.4
				v0.3H957.2z"/>
			<path class="st1" d="M982.5,494h-2.7l-4.3-14.4h-0.1l-4.2,14.4h-2.7l-5.2-18.4h3.1l3.4,14.7h0.1l4.2-14.7h2.6l4.3,14.7h0.1
				l3.5-14.7h2.8L982.5,494z"/>
		</g>
		<g>
		</g>
		<g class="st0">
			<path class="st1" d="M752,513c-1.4,1.6-4.1,6.3-4.1,14c0,7.6,2.6,12,4.1,14.6h-2.4c-1.8-2.3-4.5-6.9-4.5-14.6
				c0-7.7,2.5-11.3,4.6-14H752z"/>
			<path class="st1" d="M761.1,537l-6.6-24h3.3l4.6,19.6h0.1l4.8-19.6h3l4.8,19.6h0.2l4.6-19.6h3.3l-6.7,24H774l-5.1-19.4h-0.2
				l-5.1,19.4H761.1z"/>
			<path class="st1" d="M789.7,510.7c1.2,0,2.1,0.9,2.1,2.1c0,1.2-0.9,2.1-2.1,2.1c-1.1,0-2.1-0.9-2.1-2.1
				C787.6,511.6,788.5,510.7,789.7,510.7z M788.3,518.6h2.8V537h-2.8V518.6z"/>
			<path class="st1" d="M798.9,513.9h2.8v4.6h4.2v2.3h-4.2V532c0,2.3,0.7,2.8,3.1,2.8c0.4,0,1.1-0.1,1.4-0.1v2.3
				c-0.2,0.1-1.5,0.1-2.1,0.1c-4.3,0-5.1-1.7-5.1-5.3v-11h-2.8v-2.3h2.8V513.9z"/>
			<path class="st1" d="M811.3,511h2.8v10.9h0.1c0.4-1.3,1.9-3.7,5.8-3.7c3.6,0,6.2,2,6.2,6.1V537h-2.8v-11.7c0-3-1.6-4.6-4.3-4.6
				c-3.4,0-5.1,2.7-5.1,6V537h-2.8V511z"/>
			<path class="st1" d="M840.9,537v-24h14v2.5h-11.2v8.4H854v2.5h-10.3V537H840.9z"/>
			<path class="st1" d="M858.4,529.3v-3c0-4.9,3.1-8,7.5-8s7.5,3.1,7.5,8v2.2h-12.2v0.9c0,3,1.7,5.4,4.9,5.4c2.2,0,3.7-1.1,4.1-2.2
				h2.9c-0.3,1.9-2.5,4.7-7,4.7C861.2,537.3,858.4,534.1,858.4,529.3z M870.7,526.4v-0.3c0-3.2-1.9-5.4-4.7-5.4s-4.7,2.1-4.7,5.4
				v0.3H870.7z"/>
			<path class="st1" d="M877.8,531.6c0-3.2,2.2-5.4,6.5-5.4h4.9v-1.9c0-2.5-1.6-3.7-4.1-3.7c-2.5,0-3.5,0.9-3.9,2.2h-2.7
				c0.3-3.1,2.8-4.7,6.7-4.7c3.7,0,6.8,1.6,6.8,6.1V537h-2.7v-2.5h-0.1c-0.9,1.5-2.6,2.8-5.4,2.8C880.3,537.3,877.8,535,877.8,531.6
				z M889.2,530.7v-2.1h-4.9c-2.6,0-3.7,1.3-3.7,3c0,2.2,1.8,3.3,3.9,3.3C887.2,534.9,889.2,533,889.2,530.7z"/>
			<path class="st1" d="M899.3,513.9h2.8v4.6h4.2v2.3H902V532c0,2.3,0.7,2.8,3.1,2.8c0.4,0,1.1-0.1,1.4-0.1v2.3
				c-0.2,0.1-1.5,0.1-2.1,0.1c-4.3,0-5.1-1.7-5.1-5.3v-11h-2.8v-2.3h2.8V513.9z"/>
			<path class="st1" d="M926.2,537h-2.8v-3.1h-0.2c-0.5,1.5-2.3,3.4-5.5,3.4c-3.7,0-6.3-1.6-6.3-5.9v-12.9h2.8v12.1
				c0,3.1,1.9,4.2,4.2,4.2c2.9,0,5-2.1,5-4.5v-11.8h2.8V537z"/>
			<path class="st1" d="M933,518.6h2.8v2.8h0.1c0.5-1.2,1.8-3.1,5.2-3.1c0.3,0,0.7,0,1.1,0.1v2.6c-0.3-0.1-0.9-0.1-1.4-0.1
				c-3.3,0-5,2-5,4.5V537H933V518.6z"/>
			<path class="st1" d="M945.6,529.3v-3c0-4.9,3.1-8,7.5-8s7.5,3.1,7.5,8v2.2h-12.2v0.9c0,3,1.7,5.4,4.9,5.4c2.2,0,3.7-1.1,4.1-2.2
				h2.9c-0.3,1.9-2.5,4.7-7,4.7C948.5,537.3,945.6,534.1,945.6,529.3z M957.9,526.4v-0.3c0-3.2-1.9-5.4-4.7-5.4s-4.7,2.1-4.7,5.4
				v0.3H957.9z"/>
			<path class="st1" d="M977.8,521.2h0.1V511h2.8v26H978v-2.9h-0.1c-0.4,1.5-2.4,3.2-5.6,3.2c-4.3,0-7.1-3-7.1-7.6v-3.8
				c0-4.5,2.8-7.6,7.2-7.6C975.5,518.2,977.2,519.7,977.8,521.2z M967.9,526.5v2.4c0,3.8,1.9,5.9,4.9,5.9c3.1,0,5-2.2,5-5.6v-3.4
				c0-3-2.1-5.2-5.1-5.2C969.8,520.7,967.9,522.8,967.9,526.5z"/>
			<path class="st1" d="M994.6,523.3c0-6.8,3.8-10.8,9.5-10.8c5.7,0,9.5,4,9.5,10.8v3.6c0,6.8-3.8,10.6-9.5,10.6s-9.4-3.8-9.4-10.6
				V523.3z M997.4,526.9c0,5.5,2.9,8,6.7,8c3.8,0,6.7-2.5,6.7-8v-3.6c0-5.5-2.9-8.3-6.7-8.3c-3.8,0-6.7,2.8-6.7,8.3V526.9z"/>
			<path class="st1" d="M1022.2,534.3h-0.1v9.2h-2.8v-24.9h2.6v2.9h0.1c0.6-1.7,2.5-3.2,5.6-3.2c4.3,0,7.1,3,7.1,7.8v3.4
				c0,4.9-2.9,7.8-7.2,7.8C1024.4,537.3,1022.9,535.8,1022.2,534.3z M1032,528.8v-2.1c0-4-1.9-6.1-4.9-6.1c-3.1,0-5,2.2-5,5.6v3.4
				c0,3,2,5.2,5.1,5.2C1029.9,534.9,1032,532.9,1032,528.8z"/>
			<path class="st1" d="M1039.4,529.3v-3c0-4.9,3.1-8,7.5-8s7.5,3.1,7.5,8v2.2h-12.2v0.9c0,3,1.7,5.4,4.9,5.4c2.2,0,3.7-1.1,4.1-2.2
				h2.9c-0.3,1.9-2.5,4.7-7,4.7C1042.2,537.3,1039.4,534.1,1039.4,529.3z M1051.6,526.4v-0.3c0-3.2-1.9-5.4-4.7-5.4
				s-4.7,2.1-4.7,5.4v0.3H1051.6z"/>
			<path class="st1" d="M1059.8,518.6h2.8v3.4h0.1c0.5-1.5,1.7-3.7,5.6-3.7c3.7,0,6.3,2,6.3,6.1V537h-2.8v-11.7c0-3-1.5-4.6-4.2-4.6
				c-3.5,0-5.1,2.7-5.1,6V537h-2.8V518.6z"/>
			<path class="st1" d="M1081.8,513c2.1,2.7,4.7,6.3,4.7,14c0,7.7-2.7,12.3-4.5,14.6h-2.3c1.5-2.6,4.1-7,4.1-14.6
				c0-7.7-2.7-12.4-4.1-14H1081.8z"/>
		</g>
		<g class="st0">
			<path class="st1" d="M1233.6,494v-24h2.7l8.1,19.2h0.1l8.1-19.2h2.7v24h-2.5v-17.9h-0.2l-6.9,16h-2.5l-6.9-16h-0.1V494H1233.6z"
				/>
			<path class="st1" d="M1260.9,488.6c0-3.2,2.2-5.4,6.5-5.4h4.9v-1.9c0-2.5-1.6-3.7-4.1-3.7c-2.5,0-3.5,0.9-3.9,2.2h-2.7
				c0.3-3.1,2.8-4.7,6.7-4.7c3.7,0,6.8,1.6,6.8,6.1V494h-2.7v-2.5h-0.1c-0.9,1.5-2.6,2.8-5.4,2.8
				C1263.3,494.3,1260.9,492,1260.9,488.6z M1272.3,487.7v-2.1h-4.9c-2.6,0-3.7,1.3-3.7,3c0,2.2,1.8,3.3,3.9,3.3
				C1270.3,491.9,1272.3,490,1272.3,487.7z"/>
			<path class="st1" d="M1284.4,491.3h-0.1v9.2h-2.8v-24.9h2.6v2.9h0.1c0.6-1.7,2.5-3.2,5.6-3.2c4.3,0,7.1,3,7.1,7.8v3.4
				c0,4.9-2.9,7.8-7.2,7.8C1286.6,494.3,1285.1,492.8,1284.4,491.3z M1294.1,485.8v-2.1c0-4-1.9-6.1-4.9-6.1c-3.1,0-5,2.2-5,5.6v3.4
				c0,3,2,5.2,5.1,5.2C1292.1,491.9,1294.1,489.9,1294.1,485.8z"/>
			<path class="st1" d="M1317,494l-8.7-24h3.2l6.9,20.6h0.2l6.8-20.6h3.2l-8.8,24H1317z"/>
			<path class="st1" d="M1334.5,467.7c1.2,0,2.1,0.9,2.1,2.1c0,1.2-0.9,2.1-2.1,2.1c-1.1,0-2.1-0.9-2.1-2.1
				C1332.4,468.6,1333.4,467.7,1334.5,467.7z M1333.2,475.6h2.8V494h-2.8V475.6z"/>
			<path class="st1" d="M1341.9,486.3v-3c0-4.9,3.1-8,7.5-8s7.5,3.1,7.5,8v2.2h-12.2v0.9c0,3,1.7,5.4,4.9,5.4c2.2,0,3.7-1.1,4.1-2.2
				h2.9c-0.3,1.9-2.5,4.7-7,4.7C1344.8,494.3,1341.9,491.1,1341.9,486.3z M1354.2,483.4v-0.3c0-3.2-1.9-5.4-4.7-5.4
				s-4.7,2.1-4.7,5.4v0.3H1354.2z"/>
			<path class="st1" d="M1379.5,494h-2.7l-4.3-14.4h-0.1l-4.2,14.4h-2.7l-5.2-18.4h3.1l3.4,14.7h0.1l4.2-14.7h2.6l4.3,14.7h0.1
				l3.5-14.7h2.8L1379.5,494z"/>
		</g>
		<g class="st0">
			<path class="st1" d="M1545.7,264v-24h14v2.5h-11.2v8.4h10.3v2.5h-10.3V264H1545.7z"/>
			<path class="st1" d="M1566.3,237.7c1.2,0,2.1,0.9,2.1,2.1c0,1.2-0.9,2.1-2.1,2.1c-1.1,0-2.1-0.9-2.1-2.1
				C1564.2,238.6,1565.2,237.7,1566.3,237.7z M1564.9,245.6h2.8V264h-2.8V245.6z"/>
			<path class="st1" d="M1574.8,238h2.8v26h-2.8V238z"/>
			<path class="st1" d="M1585,240.9h2.8v4.6h4.2v2.3h-4.2V259c0,2.3,0.7,2.8,3.1,2.8c0.4,0,1.1-0.1,1.4-0.1v2.3
				c-0.2,0.1-1.5,0.1-2.1,0.1c-4.3,0-5.1-1.7-5.1-5.3v-11h-2.8v-2.3h2.8V240.9z"/>
			<path class="st1" d="M1596.4,256.3v-3c0-4.9,3.1-8,7.5-8s7.5,3.1,7.5,8v2.2h-12.2v0.9c0,3,1.7,5.4,4.9,5.4c2.2,0,3.7-1.1,4.1-2.2
				h2.9c-0.3,1.9-2.5,4.7-7,4.7C1599.3,264.3,1596.4,261.1,1596.4,256.3z M1608.7,253.4v-0.3c0-3.2-1.9-5.4-4.7-5.4
				s-4.7,2.1-4.7,5.4v0.3H1608.7z"/>
			<path class="st1" d="M1617.2,245.6h2.8v2.8h0.1c0.5-1.2,1.8-3.1,5.2-3.1c0.3,0,0.7,0,1.1,0.1v2.6c-0.3-0.1-0.9-0.1-1.4-0.1
				c-3.3,0-5,2-5,4.5V264h-2.8V245.6z"/>
			<path class="st1" d="M1639.2,264v-24h2.7l8.1,19.2h0.1l8.1-19.2h2.7v24h-2.5v-17.9h-0.2l-6.9,16h-2.5l-6.9-16h-0.1V264H1639.2z"
				/>
			<path class="st1" d="M1666.7,256.3v-3c0-4.9,3.1-8,7.5-8s7.5,3.1,7.5,8v2.2h-12.2v0.9c0,3,1.7,5.4,4.9,5.4c2.2,0,3.7-1.1,4.1-2.2
				h2.9c-0.3,1.9-2.5,4.7-7,4.7C1669.5,264.3,1666.7,261.1,1666.7,256.3z M1678.9,253.4v-0.3c0-3.2-1.9-5.4-4.7-5.4
				s-4.7,2.1-4.7,5.4v0.3H1678.9z"/>
			<path class="st1" d="M1687.1,245.6h2.8v3.4h0.1c0.5-1.5,1.7-3.7,5.6-3.7c3.7,0,6.3,2,6.3,6.1V264h-2.8v-11.7c0-3-1.5-4.6-4.2-4.6
				c-3.5,0-5.1,2.7-5.1,6V264h-2.8V245.6z"/>
			<path class="st1" d="M1722.9,264h-2.8v-3.1h-0.2c-0.5,1.5-2.3,3.4-5.5,3.4c-3.7,0-6.3-1.6-6.3-5.9v-12.9h2.8v12.1
				c0,3.1,1.9,4.2,4.2,4.2c2.9,0,5-2.1,5-4.5v-11.8h2.8V264z"/>
		</g>
		<g class="st0">
			<path class="st1" d="M1927.8,280.6c0.2,2.4,2.3,4.4,6.1,4.4c3.4,0,5.6-1.7,5.6-4.4c0-2-1.2-3.2-4-3.9l-4.3-1.1
				c-2.8-0.7-5.5-2.5-5.5-6.2c0-4.5,4-6.9,8.2-6.9c3.9,0,8.1,2.1,8.2,6.8h-2.8c-0.2-2.4-2-4.2-5.5-4.2c-3,0-5.3,1.5-5.3,4.1
				c0,1.8,1.1,3.1,3.4,3.7l4.2,1.1c3.7,1,6.2,2.7,6.2,6.5c0,4.7-4,7.1-8.9,7.1c-6.3,0-8.4-3.8-8.5-6.9H1927.8z"/>
			<path class="st1" d="M1946.8,279.3v-3c0-4.9,3.1-8,7.5-8s7.5,3.1,7.5,8v2.2h-12.2v0.9c0,3,1.7,5.4,4.9,5.4c2.2,0,3.7-1.1,4.1-2.2
				h2.9c-0.3,1.9-2.5,4.7-7,4.7C1949.6,287.3,1946.8,284.1,1946.8,279.3z M1959,276.4v-0.3c0-3.2-1.9-5.4-4.7-5.4s-4.7,2.1-4.7,5.4
				v0.3H1959z"/>
			<path class="st1" d="M1967.4,261h2.8v26h-2.8V261z"/>
			<path class="st1" d="M1975.8,279.3v-3c0-4.9,3.1-8,7.5-8s7.5,3.1,7.5,8v2.2h-12.2v0.9c0,3,1.7,5.4,4.9,5.4c2.2,0,3.7-1.1,4.1-2.2
				h2.9c-0.3,1.9-2.5,4.7-7,4.7C1978.6,287.3,1975.8,284.1,1975.8,279.3z M1988,276.4v-0.3c0-3.2-1.9-5.4-4.7-5.4s-4.7,2.1-4.7,5.4
				v0.3H1988z"/>
			<path class="st1" d="M1995.3,276.1c0-4.8,2.9-7.9,7.6-7.9c4.6,0,6.8,2.8,6.9,5.4h-2.8c-0.2-1-1.1-2.9-4.1-2.9
				c-3.2,0-4.8,2.1-4.8,5.5v3.1c0,3.3,1.8,5.4,4.8,5.4c2.9,0,3.9-1.3,4.3-2.7h2.8c-0.1,2.5-2.2,5.2-7.1,5.2c-4.7,0-7.6-3.1-7.6-7.9
				V276.1z"/>
			<path class="st1" d="M2016.1,263.9h2.8v4.6h4.2v2.3h-4.2V282c0,2.3,0.7,2.8,3.1,2.8c0.4,0,1.1-0.1,1.4-0.1v2.3
				c-0.2,0.1-1.5,0.1-2.1,0.1c-4.3,0-5.1-1.7-5.1-5.3v-11h-2.8v-2.3h2.8V263.9z"/>
			<path class="st1" d="M2036.8,287v-24h14v2.5h-11.2v8.4h10.3v2.5h-10.3V287H2036.8z"/>
			<path class="st1" d="M2057.3,260.7c1.2,0,2.1,0.9,2.1,2.1c0,1.2-0.9,2.1-2.1,2.1c-1.1,0-2.1-0.9-2.1-2.1
				C2055.3,261.6,2056.2,260.7,2057.3,260.7z M2056,268.6h2.8V287h-2.8V268.6z"/>
			<path class="st1" d="M2065.8,261h2.8v26h-2.8V261z"/>
			<path class="st1" d="M2076.1,263.9h2.8v4.6h4.2v2.3h-4.2V282c0,2.3,0.7,2.8,3.1,2.8c0.4,0,1.1-0.1,1.4-0.1v2.3
				c-0.2,0.1-1.5,0.1-2.1,0.1c-4.3,0-5.1-1.7-5.1-5.3v-11h-2.8v-2.3h2.8V263.9z"/>
			<path class="st1" d="M2087.5,279.3v-3c0-4.9,3.1-8,7.5-8s7.5,3.1,7.5,8v2.2h-12.2v0.9c0,3,1.7,5.4,4.9,5.4c2.2,0,3.7-1.1,4.1-2.2
				h2.9c-0.3,1.9-2.5,4.7-7,4.7C2090.3,287.3,2087.5,284.1,2087.5,279.3z M2099.7,276.4v-0.3c0-3.2-1.9-5.4-4.7-5.4
				s-4.7,2.1-4.7,5.4v0.3H2099.7z"/>
			<path class="st1" d="M2108.2,268.6h2.8v2.8h0.1c0.5-1.2,1.8-3.1,5.2-3.1c0.3,0,0.7,0,1.1,0.1v2.6c-0.3-0.1-0.9-0.1-1.4-0.1
				c-3.3,0-5,2-5,4.5V287h-2.8V268.6z"/>
			<path class="st1" d="M2127.6,268.3c3.9,0,6.5,2.1,6.5,5.1h-2.6c-0.1-1.4-1.4-2.8-4-2.8c-2.2,0-3.9,1-3.9,2.9c0,2.3,2.4,2.6,4.5,3
				c3.5,0.6,6.4,1.5,6.4,5.1c0,3.7-3,5.7-7.2,5.7c-3.9,0-6.8-1.8-6.8-5.1h2.7c0.3,1.7,1.4,2.8,4.2,2.8c3.1,0,4.4-1.4,4.4-3.1
				c0-2.1-2-2.6-4.6-3.1c-3.5-0.7-6.3-1.4-6.3-5.1C2120.8,269.9,2124.1,268.3,2127.6,268.3z"/>
		</g>
		<g class="st0">
			<path class="st1" d="M1875.5,319.3v2.9c0,5.1-3.4,8.1-7.8,8.1c-4.5,0-7.8-2.9-7.8-8.1v-2.9c0-4.9,3.4-8.1,7.8-8.1
				C1872.1,311.3,1875.5,314.2,1875.5,319.3z M1862.6,319.6v2.3c0,3.6,1.9,5.9,5.1,5.9c3.2,0,5-2.3,5-5.9v-2.3c0-3.5-2-5.9-5-5.9
				C1864.6,313.7,1862.6,316.1,1862.6,319.6z"/>
			<path class="st1" d="M1881.3,311.6h2.8v2.8h0.1c0.5-1.2,1.8-3.1,5.2-3.1c0.3,0,0.7,0,1.1,0.1v2.6c-0.3-0.1-0.9-0.1-1.4-0.1
				c-3.3,0-5,2-5,4.5V330h-2.8V311.6z"/>
			<path class="st1" d="M1902.1,319.1c0-4.8,2.9-7.9,7.6-7.9c4.6,0,6.8,2.8,6.9,5.4h-2.8c-0.2-1-1.1-2.9-4.1-2.9
				c-3.2,0-4.8,2.1-4.8,5.5v3.1c0,3.3,1.8,5.4,4.8,5.4c2.9,0,3.9-1.3,4.3-2.7h2.8c-0.1,2.5-2.2,5.2-7.1,5.2c-4.7,0-7.6-3.1-7.6-7.9
				V319.1z"/>
			<path class="st1" d="M1922,304h2.8v10.9h0.1c0.4-1.3,1.9-3.7,5.8-3.7c3.6,0,6.2,2,6.2,6.1V330h-2.8v-11.7c0-3-1.6-4.6-4.3-4.6
				c-3.4,0-5.1,2.7-5.1,6V330h-2.8V304z"/>
			<path class="st1" d="M1942.2,324.6c0-3.2,2.2-5.4,6.5-5.4h4.9v-1.9c0-2.5-1.6-3.7-4.1-3.7c-2.5,0-3.5,0.9-3.9,2.2h-2.7
				c0.3-3.1,2.8-4.7,6.7-4.7c3.7,0,6.8,1.6,6.8,6.1V330h-2.7v-2.5h-0.1c-0.9,1.5-2.6,2.8-5.4,2.8
				C1944.6,330.3,1942.2,328,1942.2,324.6z M1953.6,323.7v-2.1h-4.9c-2.6,0-3.7,1.3-3.7,3c0,2.2,1.8,3.3,3.9,3.3
				C1951.6,327.9,1953.6,326,1953.6,323.7z"/>
			<path class="st1" d="M1962.7,311.6h2.8v3.4h0.1c0.5-1.5,1.7-3.7,5.6-3.7c3.7,0,6.3,2,6.3,6.1V330h-2.8v-11.7c0-3-1.5-4.6-4.2-4.6
				c-3.5,0-5.1,2.7-5.1,6V330h-2.8V311.6z"/>
			<path class="st1" d="M1995.5,329.6v-2.8h-0.2c-0.7,1.6-2.6,2.9-5.2,2.9c-4.1,0-7.4-2.9-7.4-7.6v-3.1c0-4.7,3.3-7.7,7.3-7.7
				c2.8,0,4.8,1.6,5.4,3.1h0.1v-2.8h2.6v18c0,5-3.1,7.4-8,7.4c-4.6,0-6.8-2.3-7.1-5h2.9c0.2,1.4,1.8,2.5,4.3,2.5
				C1993.8,334.5,1995.5,332.6,1995.5,329.6z M1985.5,319.6v1.8c0,3.5,2.1,5.8,5.2,5.8c3.1,0,4.8-2.6,4.8-5.2v-3
				c0-2.7-1.8-5.3-4.8-5.3C1987.5,313.7,1985.5,316.1,1985.5,319.6z"/>
			<path class="st1" d="M2003.8,322.3v-3c0-4.9,3.1-8,7.5-8s7.5,3.1,7.5,8v2.2h-12.2v0.9c0,3,1.7,5.4,4.9,5.4c2.2,0,3.7-1.1,4.1-2.2
				h2.9c-0.3,1.9-2.5,4.7-7,4.7C2006.6,330.3,2003.8,327.1,2003.8,322.3z M2016,319.4v-0.3c0-3.2-1.9-5.4-4.7-5.4s-4.7,2.1-4.7,5.4
				v0.3H2016z"/>
			<path class="st1" d="M2037.4,330v-21.5h-7.3V306h17.5v2.5h-7.3V330H2037.4z"/>
			<path class="st1" d="M2052.9,303.7c1.2,0,2.1,0.9,2.1,2.1c0,1.2-0.9,2.1-2.1,2.1c-1.1,0-2.1-0.9-2.1-2.1
				C2050.9,304.6,2051.8,303.7,2052.9,303.7z M2051.6,311.6h2.8V330h-2.8V311.6z"/>
			<path class="st1" d="M2061.3,311.6h2.8v2.9h0.1c0.4-1.3,1.6-3.2,5-3.2c2.8,0,4.6,1.5,5.2,3.5h0.1c0.8-1.8,2.5-3.5,5.6-3.5
				c3.8,0,6.1,2,6.1,5.7v13h-2.8v-12.3c0-2.4-1.4-4-4-4c-2.4,0-4.3,1.9-4.3,4.5V330h-2.8v-12.1c0-2.4-1.5-4.2-4.1-4.2
				c-2.5,0-4.2,1.9-4.2,4.4V330h-2.8V311.6z"/>
			<path class="st1" d="M2091.7,322.3v-3c0-4.9,3.1-8,7.5-8s7.5,3.1,7.5,8v2.2h-12.2v0.9c0,3,1.7,5.4,4.9,5.4c2.2,0,3.7-1.1,4.1-2.2
				h2.9c-0.3,1.9-2.5,4.7-7,4.7C2094.5,330.3,2091.7,327.1,2091.7,322.3z M2103.9,319.4v-0.3c0-3.2-1.9-5.4-4.7-5.4
				s-4.7,2.1-4.7,5.4v0.3H2103.9z"/>
			<path class="st1" d="M2121.4,323.6c0.2,2.4,2.3,4.4,6.1,4.4c3.4,0,5.6-1.7,5.6-4.4c0-2-1.2-3.2-4-3.9l-4.3-1.1
				c-2.8-0.7-5.5-2.5-5.5-6.2c0-4.5,4-6.9,8.2-6.9c3.9,0,8.1,2.1,8.2,6.8h-2.8c-0.2-2.4-2-4.2-5.5-4.2c-3,0-5.3,1.5-5.3,4.1
				c0,1.8,1.1,3.1,3.4,3.7l4.2,1.1c3.7,1,6.2,2.7,6.2,6.5c0,4.7-4,7.1-8.9,7.1c-6.3,0-8.4-3.8-8.5-6.9H2121.4z"/>
			<path class="st1" d="M2140.5,319.1c0-4.8,2.9-7.9,7.6-7.9c4.6,0,6.8,2.8,6.9,5.4h-2.8c-0.2-1-1.1-2.9-4.1-2.9
				c-3.2,0-4.8,2.1-4.8,5.5v3.1c0,3.3,1.8,5.4,4.8,5.4c2.9,0,3.9-1.3,4.3-2.7h2.8c-0.1,2.5-2.2,5.2-7.1,5.2c-4.7,0-7.6-3.1-7.6-7.9
				V319.1z"/>
			<path class="st1" d="M2159.2,324.6c0-3.2,2.2-5.4,6.5-5.4h4.9v-1.9c0-2.5-1.6-3.7-4.1-3.7c-2.5,0-3.5,0.9-3.9,2.2h-2.7
				c0.3-3.1,2.8-4.7,6.7-4.7c3.7,0,6.8,1.6,6.8,6.1V330h-2.7v-2.5h-0.1c-0.9,1.5-2.6,2.8-5.4,2.8
				C2161.7,330.3,2159.2,328,2159.2,324.6z M2170.6,323.7v-2.1h-4.9c-2.6,0-3.7,1.3-3.7,3c0,2.2,1.8,3.3,3.9,3.3
				C2168.6,327.9,2170.6,326,2170.6,323.7z"/>
			<path class="st1" d="M2179.9,304h2.8v26h-2.8V304z"/>
			<path class="st1" d="M2188.3,322.3v-3c0-4.9,3.1-8,7.5-8s7.5,3.1,7.5,8v2.2h-12.2v0.9c0,3,1.7,5.4,4.9,5.4c2.2,0,3.7-1.1,4.1-2.2
				h2.9c-0.3,1.9-2.5,4.7-7,4.7C2191.1,330.3,2188.3,327.1,2188.3,322.3z M2200.5,319.4v-0.3c0-3.2-1.9-5.4-4.7-5.4
				s-4.7,2.1-4.7,5.4v0.3H2200.5z"/>
		</g>
		<g class="st0">
			<path class="st1" d="M2422.9,302.3c0-6.8,3.8-10.8,9.5-10.8c5.7,0,9.5,4,9.5,10.8v3.6c0,6.8-3.8,10.6-9.5,10.6s-9.4-3.8-9.4-10.6
				V302.3z M2425.7,305.9c0,5.5,2.9,8,6.7,8c3.8,0,6.7-2.5,6.7-8v-3.6c0-5.5-2.9-8.3-6.7-8.3c-3.8,0-6.7,2.8-6.7,8.3V305.9z"/>
			<path class="st1" d="M2447.5,297.6h2.8v3.4h0.1c0.5-1.5,1.7-3.7,5.6-3.7c3.7,0,6.3,2,6.3,6.1V316h-2.8v-11.7c0-3-1.5-4.6-4.2-4.6
				c-3.5,0-5.1,2.7-5.1,6V316h-2.8V297.6z"/>
			<path class="st1" d="M2467.8,305.1c0-4.8,2.9-7.9,7.6-7.9c4.6,0,6.8,2.8,6.9,5.4h-2.8c-0.2-1-1.1-2.9-4.1-2.9
				c-3.2,0-4.8,2.1-4.8,5.5v3.1c0,3.3,1.8,5.4,4.8,5.4c2.9,0,3.9-1.3,4.3-2.7h2.8c-0.1,2.5-2.2,5.2-7.1,5.2c-4.7,0-7.6-3.1-7.6-7.9
				V305.1z"/>
			<path class="st1" d="M2486.7,308.3v-3c0-4.9,3.1-8,7.5-8s7.5,3.1,7.5,8v2.2h-12.2v0.9c0,3,1.7,5.4,4.9,5.4c2.2,0,3.7-1.1,4.1-2.2
				h2.9c-0.3,1.9-2.5,4.7-7,4.7C2489.6,316.3,2486.7,313.1,2486.7,308.3z M2499,305.4v-0.3c0-3.2-1.9-5.4-4.7-5.4s-4.7,2.1-4.7,5.4
				v0.3H2499z"/>
			<path class="st1" d="M2516.5,309.6c0.2,2.4,2.3,4.4,6.1,4.4c3.4,0,5.6-1.7,5.6-4.4c0-2-1.2-3.2-4-3.9l-4.3-1.1
				c-2.8-0.7-5.5-2.5-5.5-6.2c0-4.5,4-6.9,8.2-6.9c3.9,0,8.1,2.1,8.2,6.8h-2.8c-0.2-2.4-2-4.2-5.5-4.2c-3,0-5.3,1.5-5.3,4.1
				c0,1.8,1.1,3.1,3.4,3.7l4.2,1.1c3.7,1,6.2,2.7,6.2,6.5c0,4.7-4,7.1-8.9,7.1c-6.3,0-8.4-3.8-8.5-6.9H2516.5z"/>
			<path class="st1" d="M2535.6,308.3v-3c0-4.9,3.1-8,7.5-8s7.5,3.1,7.5,8v2.2h-12.2v0.9c0,3,1.7,5.4,4.9,5.4c2.2,0,3.7-1.1,4.1-2.2
				h2.9c-0.3,1.9-2.5,4.7-7,4.7C2538.4,316.3,2535.6,313.1,2535.6,308.3z M2547.8,305.4v-0.3c0-3.2-1.9-5.4-4.7-5.4
				s-4.7,2.1-4.7,5.4v0.3H2547.8z"/>
			<path class="st1" d="M2556.1,290h2.8v26h-2.8V290z"/>
			<path class="st1" d="M2564.5,308.3v-3c0-4.9,3.1-8,7.5-8s7.5,3.1,7.5,8v2.2h-12.2v0.9c0,3,1.7,5.4,4.9,5.4c2.2,0,3.7-1.1,4.1-2.2
				h2.9c-0.3,1.9-2.5,4.7-7,4.7C2567.4,316.3,2564.5,313.1,2564.5,308.3z M2576.8,305.4v-0.3c0-3.2-1.9-5.4-4.7-5.4
				s-4.7,2.1-4.7,5.4v0.3H2576.8z"/>
			<path class="st1" d="M2584.1,305.1c0-4.8,2.9-7.9,7.6-7.9c4.6,0,6.8,2.8,6.9,5.4h-2.8c-0.2-1-1.1-2.9-4.1-2.9
				c-3.2,0-4.8,2.1-4.8,5.5v3.1c0,3.3,1.8,5.4,4.8,5.4c2.9,0,3.9-1.3,4.3-2.7h2.8c-0.1,2.5-2.2,5.2-7.1,5.2c-4.7,0-7.6-3.1-7.6-7.9
				V305.1z"/>
			<path class="st1" d="M2604.8,292.9h2.8v4.6h4.2v2.3h-4.2V311c0,2.3,0.7,2.8,3.1,2.8c0.4,0,1.1-0.1,1.4-0.1v2.3
				c-0.2,0.1-1.5,0.1-2.1,0.1c-4.3,0-5.1-1.7-5.1-5.3v-11h-2.8v-2.3h2.8V292.9z"/>
			<path class="st1" d="M2616.3,308.3v-3c0-4.9,3.1-8,7.5-8s7.5,3.1,7.5,8v2.2H2619v0.9c0,3,1.7,5.4,4.9,5.4c2.2,0,3.7-1.1,4.1-2.2
				h2.9c-0.3,1.9-2.5,4.7-7,4.7C2619.1,316.3,2616.3,313.1,2616.3,308.3z M2628.5,305.4v-0.3c0-3.2-1.9-5.4-4.7-5.4
				s-4.7,2.1-4.7,5.4v0.3H2628.5z"/>
			<path class="st1" d="M2648.4,300.2h0.1V290h2.8v26h-2.6v-2.9h-0.1c-0.4,1.5-2.4,3.2-5.6,3.2c-4.3,0-7.1-3-7.1-7.6v-3.8
				c0-4.5,2.8-7.6,7.2-7.6C2646.1,297.2,2647.8,298.7,2648.4,300.2z M2638.6,305.5v2.4c0,3.8,1.9,5.9,4.9,5.9c3.1,0,5-2.2,5-5.6
				v-3.4c0-3-2.1-5.2-5.1-5.2C2640.4,299.7,2638.6,301.8,2638.6,305.5z"/>
			<path class="st1" d="M2668,305.8c0,5.6,2.6,8.1,6.6,8.1c3.9,0,5.9-2.4,5.9-5h2.8c0,3.3-2.6,7.6-8.8,7.6c-5.6,0-9.3-3.6-9.3-10.6
				v-3.6c0-6.9,3.7-10.8,9.3-10.8c5.9,0,8.7,4.2,8.7,8h-2.8c0-2.6-2.1-5.5-6-5.5c-3.8,0-6.5,2.8-6.5,8.3V305.8z"/>
			<path class="st1" d="M2688.9,290h2.8v26h-2.8V290z"/>
			<path class="st1" d="M2713,305.3v2.9c0,5.1-3.4,8.1-7.8,8.1c-4.5,0-7.8-2.9-7.8-8.1v-2.9c0-4.9,3.4-8.1,7.8-8.1
				C2709.6,297.3,2713,300.2,2713,305.3z M2700.1,305.6v2.3c0,3.6,1.9,5.9,5.1,5.9c3.2,0,5-2.3,5-5.9v-2.3c0-3.5-2-5.9-5-5.9
				C2702.1,299.7,2700.1,302.1,2700.1,305.6z"/>
			<path class="st1" d="M2724.3,297.3c3.9,0,6.5,2.1,6.5,5.1h-2.6c-0.1-1.4-1.4-2.8-4-2.8c-2.2,0-3.9,1-3.9,2.9c0,2.3,2.4,2.6,4.5,3
				c3.5,0.6,6.4,1.5,6.4,5.1c0,3.7-3,5.7-7.2,5.7c-3.9,0-6.8-1.8-6.8-5.1h2.7c0.3,1.7,1.4,2.8,4.2,2.8c3.1,0,4.4-1.4,4.4-3.1
				c0-2.1-2-2.6-4.6-3.1c-3.5-0.7-6.3-1.4-6.3-5.1C2717.6,298.9,2720.8,297.3,2724.3,297.3z"/>
			<path class="st1" d="M2735.7,308.3v-3c0-4.9,3.1-8,7.5-8s7.5,3.1,7.5,8v2.2h-12.2v0.9c0,3,1.7,5.4,4.9,5.4c2.2,0,3.7-1.1,4.1-2.2
				h2.9c-0.3,1.9-2.5,4.7-7,4.7C2738.5,316.3,2735.7,313.1,2735.7,308.3z M2748,305.4v-0.3c0-3.2-1.9-5.4-4.7-5.4s-4.7,2.1-4.7,5.4
				v0.3H2748z"/>
		</g>
		<g class="st0">
			<path class="st1" d="M2418.2,356.3h-0.1v2.7h-2.6v-26h2.8v10.4h0.1c0.4-1.5,2.2-3.2,5.5-3.2c4.3,0,7.1,3,7.1,7.8v3.4
				c0,4.9-2.9,7.8-7.2,7.8C2420.6,359.3,2418.9,357.8,2418.2,356.3z M2428.1,350.9v-2.1c0-3.9-1.8-6.1-4.9-6.1
				c-3.1,0-5.1,2.2-5.1,5.6v3.3c0,3,2.1,5.2,5.2,5.2C2426.2,356.9,2428.1,354.9,2428.1,350.9z"/>
			<path class="st1" d="M2444.1,359.2l-0.5,1.3c-1,2.7-2.2,5.3-5.9,5.3c-0.6,0-1.3-0.1-1.8-0.1v-2.3c0.3,0.1,0.9,0.1,1.3,0.1
				c2.2,0,3.1-1.1,3.7-3l0.3-1.1l-6.9-18.7h3.1l5.2,15.6h0.1l5.2-15.6h2.9L2444.1,359.2z"/>
			<path class="st1" d="M2465.6,348.8c0,5.6,2.6,8.1,6.6,8.1c3.9,0,5.9-2.4,5.9-5h2.8c0,3.3-2.6,7.6-8.8,7.6
				c-5.6,0-9.3-3.6-9.3-10.6v-3.6c0-6.9,3.7-10.8,9.3-10.8c5.9,0,8.7,4.2,8.7,8h-2.8c0-2.6-2.1-5.5-6-5.5c-3.8,0-6.5,2.8-6.5,8.3
				V348.8z"/>
			<path class="st1" d="M2486.5,333h2.8v26h-2.8V333z"/>
			<path class="st1" d="M2497.7,332.7c1.2,0,2.1,0.9,2.1,2.1c0,1.2-0.9,2.1-2.1,2.1c-1.1,0-2.1-0.9-2.1-2.1
				C2495.6,333.6,2496.5,332.7,2497.7,332.7z M2496.3,340.6h2.8V359h-2.8V340.6z"/>
			<path class="st1" d="M2505.1,348.1c0-4.8,2.9-7.9,7.6-7.9c4.6,0,6.8,2.8,6.9,5.4h-2.8c-0.2-1-1.1-2.9-4.1-2.9
				c-3.2,0-4.8,2.1-4.8,5.5v3.1c0,3.3,1.8,5.4,4.8,5.4c2.9,0,3.9-1.3,4.3-2.7h2.8c-0.1,2.5-2.2,5.2-7.1,5.2c-4.7,0-7.6-3.1-7.6-7.9
				V348.1z"/>
			<path class="st1" d="M2527.8,359h-2.8v-26h2.8v16h0.1l7.8-8.5h3.2l-7.4,8l7.8,10.4h-3.3l-6.5-8.7l-1.8,1.8V359z"/>
			<path class="st1" d="M2545.2,332.7c1.2,0,2.1,0.9,2.1,2.1c0,1.2-0.9,2.1-2.1,2.1c-1.1,0-2.1-0.9-2.1-2.1
				C2543.2,333.6,2544.1,332.7,2545.2,332.7z M2543.9,340.6h2.8V359h-2.8V340.6z"/>
			<path class="st1" d="M2553.6,340.6h2.8v3.4h0.1c0.5-1.5,1.7-3.7,5.6-3.7c3.7,0,6.3,2,6.3,6.1V359h-2.8v-11.7c0-3-1.5-4.6-4.2-4.6
				c-3.5,0-5.1,2.7-5.1,6V359h-2.8V340.6z"/>
			<path class="st1" d="M2586.3,358.6v-2.8h-0.2c-0.7,1.6-2.6,2.9-5.2,2.9c-4.1,0-7.4-2.9-7.4-7.6v-3.1c0-4.7,3.3-7.7,7.3-7.7
				c2.8,0,4.8,1.6,5.4,3.1h0.1v-2.8h2.6v18c0,5-3.1,7.4-8,7.4c-4.6,0-6.8-2.3-7.1-5h2.9c0.2,1.4,1.8,2.5,4.3,2.5
				C2584.6,363.5,2586.3,361.6,2586.3,358.6z M2576.4,348.6v1.8c0,3.5,2.1,5.8,5.2,5.8c3.1,0,4.8-2.6,4.8-5.2v-3
				c0-2.7-1.8-5.3-4.8-5.3C2578.3,342.7,2576.4,345.1,2576.4,348.6z"/>
			<path class="st1" d="M2603.5,359v-24h14v2.5h-11.2v8.4h10.3v2.5h-10.3V359H2603.5z"/>
			<path class="st1" d="M2624.1,332.7c1.2,0,2.1,0.9,2.1,2.1c0,1.2-0.9,2.1-2.1,2.1c-1.1,0-2.1-0.9-2.1-2.1
				C2622.1,333.6,2623,332.7,2624.1,332.7z M2622.8,340.6h2.8V359h-2.8V340.6z"/>
			<path class="st1" d="M2632.6,333h2.8v26h-2.8V333z"/>
			<path class="st1" d="M2642.8,335.9h2.8v4.6h4.2v2.3h-4.2V354c0,2.3,0.7,2.8,3.1,2.8c0.4,0,1.1-0.1,1.4-0.1v2.3
				c-0.2,0.1-1.5,0.1-2.1,0.1c-4.3,0-5.1-1.7-5.1-5.3v-11h-2.8v-2.3h2.8V335.9z"/>
			<path class="st1" d="M2654.2,351.3v-3c0-4.9,3.1-8,7.5-8s7.5,3.1,7.5,8v2.2H2657v0.9c0,3,1.7,5.4,4.9,5.4c2.2,0,3.7-1.1,4.1-2.2
				h2.9c-0.3,1.9-2.5,4.7-7,4.7C2657.1,359.3,2654.2,356.1,2654.2,351.3z M2666.5,348.4v-0.3c0-3.2-1.9-5.4-4.7-5.4
				s-4.7,2.1-4.7,5.4v0.3H2666.5z"/>
			<path class="st1" d="M2675,340.6h2.8v2.8h0.1c0.5-1.2,1.8-3.1,5.2-3.1c0.3,0,0.7,0,1.1,0.1v2.6c-0.3-0.1-0.9-0.1-1.4-0.1
				c-3.3,0-5,2-5,4.5V359h-2.8V340.6z"/>
			<path class="st1" d="M2698.5,332.7c1.2,0,2.1,0.9,2.1,2.1c0,1.2-0.9,2.1-2.1,2.1c-1.1,0-2.1-0.9-2.1-2.1
				C2696.5,333.6,2697.4,332.7,2698.5,332.7z M2697.2,340.6h2.8V359h-2.8V340.6z"/>
			<path class="st1" d="M2706,348.1c0-4.8,2.9-7.9,7.6-7.9c4.6,0,6.8,2.8,6.9,5.4h-2.8c-0.2-1-1.1-2.9-4.1-2.9
				c-3.2,0-4.8,2.1-4.8,5.5v3.1c0,3.3,1.8,5.4,4.8,5.4c2.9,0,3.9-1.3,4.3-2.7h2.8c-0.1,2.5-2.2,5.2-7.1,5.2c-4.7,0-7.6-3.1-7.6-7.9
				V348.1z"/>
			<path class="st1" d="M2740.6,348.3v2.9c0,5.1-3.4,8.1-7.8,8.1c-4.5,0-7.8-2.9-7.8-8.1v-2.9c0-4.9,3.4-8.1,7.8-8.1
				C2737.2,340.3,2740.6,343.2,2740.6,348.3z M2727.7,348.6v2.3c0,3.6,1.9,5.9,5.1,5.9c3.2,0,5-2.3,5-5.9v-2.3c0-3.5-2-5.9-5-5.9
				C2729.7,342.7,2727.7,345.1,2727.7,348.6z"/>
			<path class="st1" d="M2746.1,340.6h2.8v3.4h0.1c0.5-1.5,1.7-3.7,5.6-3.7c3.7,0,6.3,2,6.3,6.1V359h-2.8v-11.7c0-3-1.5-4.6-4.2-4.6
				c-3.5,0-5.1,2.7-5.1,6V359h-2.8V340.6z"/>
		</g>
		<g class="st0">
			<path class="st1" d="M1559.7,492h-14v-24h2.8v21.4h11.2V492z"/>
			<path class="st1" d="M1566.1,465.7c1.2,0,2.1,0.9,2.1,2.1c0,1.2-0.9,2.1-2.1,2.1c-1.1,0-2.1-0.9-2.1-2.1
				C1564,466.6,1565,465.7,1566.1,465.7z M1564.7,473.6h2.8V492h-2.8V473.6z"/>
			<path class="st1" d="M1580.2,473.3c3.9,0,6.5,2.1,6.5,5.1h-2.6c-0.1-1.4-1.4-2.8-4-2.8c-2.2,0-3.9,1-3.9,2.9c0,2.3,2.4,2.6,4.5,3
				c3.5,0.6,6.4,1.5,6.4,5.1c0,3.7-3,5.7-7.2,5.7c-3.9,0-6.8-1.8-6.8-5.1h2.7c0.3,1.7,1.4,2.8,4.2,2.8c3.1,0,4.4-1.4,4.4-3.1
				c0-2.1-2-2.6-4.6-3.1c-3.5-0.7-6.3-1.4-6.3-5.1C1573.5,474.9,1576.7,473.3,1580.2,473.3z"/>
			<path class="st1" d="M1593.5,468.9h2.8v4.6h4.2v2.3h-4.2V487c0,2.3,0.7,2.8,3.1,2.8c0.4,0,1.1-0.1,1.4-0.1v2.3
				c-0.2,0.1-1.5,0.1-2.1,0.1c-4.3,0-5.1-1.7-5.1-5.3v-11h-2.8v-2.3h2.8V468.9z"/>
			<path class="st1" d="M1620.3,492l-8.7-24h3.2l6.9,20.6h0.2l6.8-20.6h3.2l-8.8,24H1620.3z"/>
			<path class="st1" d="M1637.8,465.7c1.2,0,2.1,0.9,2.1,2.1c0,1.2-0.9,2.1-2.1,2.1c-1.1,0-2.1-0.9-2.1-2.1
				C1635.8,466.6,1636.7,465.7,1637.8,465.7z M1636.5,473.6h2.8V492h-2.8V473.6z"/>
			<path class="st1" d="M1645.2,484.3v-3c0-4.9,3.1-8,7.5-8s7.5,3.1,7.5,8v2.2H1648v0.9c0,3,1.7,5.4,4.9,5.4c2.2,0,3.7-1.1,4.1-2.2
				h2.9c-0.3,1.9-2.5,4.7-7,4.7C1648.1,492.3,1645.2,489.1,1645.2,484.3z M1657.5,481.4v-0.3c0-3.2-1.9-5.4-4.7-5.4
				s-4.7,2.1-4.7,5.4v0.3H1657.5z"/>
			<path class="st1" d="M1682.8,492h-2.7l-4.3-14.4h-0.1l-4.2,14.4h-2.7l-5.2-18.4h3.1l3.4,14.7h0.1l4.2-14.7h2.6l4.3,14.7h0.1
				l3.5-14.7h2.8L1682.8,492z"/>
		</g>
		<g class="st0">
			<path class="st1" d="M1563.9,645v-24h14v2.5h-11.2v8.4h10.3v2.5h-10.3V645H1563.9z"/>
			<path class="st1" d="M1581.4,637.3v-3c0-4.9,3.1-8,7.5-8s7.5,3.1,7.5,8v2.2h-12.2v0.9c0,3,1.7,5.4,4.9,5.4c2.2,0,3.7-1.1,4.1-2.2
				h2.9c-0.3,1.9-2.5,4.7-7,4.7C1584.2,645.3,1581.4,642.1,1581.4,637.3z M1593.6,634.4v-0.3c0-3.2-1.9-5.4-4.7-5.4
				s-4.7,2.1-4.7,5.4v0.3H1593.6z"/>
			<path class="st1" d="M1600.7,639.6c0-3.2,2.2-5.4,6.5-5.4h4.9v-1.9c0-2.5-1.6-3.7-4.1-3.7c-2.5,0-3.5,0.9-3.9,2.2h-2.7
				c0.3-3.1,2.8-4.7,6.7-4.7c3.7,0,6.8,1.6,6.8,6.1V645h-2.7v-2.5h-0.1c-0.9,1.5-2.6,2.8-5.4,2.8
				C1603.2,645.3,1600.7,643,1600.7,639.6z M1612.1,638.7v-2.1h-4.9c-2.6,0-3.7,1.3-3.7,3c0,2.2,1.8,3.3,3.9,3.3
				C1610.1,642.9,1612.1,641,1612.1,638.7z"/>
			<path class="st1" d="M1622.2,621.9h2.8v4.6h4.2v2.3h-4.2V640c0,2.3,0.7,2.8,3.1,2.8c0.4,0,1.1-0.1,1.4-0.1v2.3
				c-0.2,0.1-1.5,0.1-2.1,0.1c-4.3,0-5.1-1.7-5.1-5.3v-11h-2.8v-2.3h2.8V621.9z"/>
			<path class="st1" d="M1649.2,645h-2.8v-3.1h-0.2c-0.5,1.5-2.3,3.4-5.5,3.4c-3.7,0-6.3-1.6-6.3-5.9v-12.9h2.8v12.1
				c0,3.1,1.9,4.2,4.2,4.2c2.9,0,5-2.1,5-4.5v-11.8h2.8V645z"/>
			<path class="st1" d="M1656,626.6h2.8v2.8h0.1c0.5-1.2,1.8-3.1,5.2-3.1c0.3,0,0.7,0,1.1,0.1v2.6c-0.3-0.1-0.9-0.1-1.4-0.1
				c-3.3,0-5,2-5,4.5V645h-2.8V626.6z"/>
			<path class="st1" d="M1668.6,637.3v-3c0-4.9,3.1-8,7.5-8s7.5,3.1,7.5,8v2.2h-12.2v0.9c0,3,1.7,5.4,4.9,5.4c2.2,0,3.7-1.1,4.1-2.2
				h2.9c-0.3,1.9-2.5,4.7-7,4.7C1671.4,645.3,1668.6,642.1,1668.6,637.3z M1680.8,634.4v-0.3c0-3.2-1.9-5.4-4.7-5.4
				s-4.7,2.1-4.7,5.4v0.3H1680.8z"/>
			<path class="st1" d="M1700.7,629.2h0.1V619h2.8v26h-2.6v-2.9h-0.1c-0.4,1.5-2.4,3.2-5.6,3.2c-4.3,0-7.1-3-7.1-7.6v-3.8
				c0-4.5,2.8-7.6,7.2-7.6C1698.4,626.2,1700.1,627.7,1700.7,629.2z M1690.9,634.5v2.4c0,3.8,1.9,5.9,4.9,5.9c3.1,0,5-2.2,5-5.6
				v-3.4c0-3-2.1-5.2-5.1-5.2C1692.7,628.7,1690.9,630.8,1690.9,634.5z"/>
		</g>
		<g class="st0">
			<path class="st1" d="M1994.5,720h-14.2v-24h14.2v2.5h-11.4v7.9h10.8v2.5h-10.8v8.5h11.4V720z"/>
			<path class="st1" d="M1997.7,701.6h3.1l4.8,15.5h0.1l5.1-15.5h3L2007,720h-2.8L1997.7,701.6z"/>
			<path class="st1" d="M2016.9,712.3v-3c0-4.9,3.1-8,7.5-8s7.5,3.1,7.5,8v2.2h-12.2v0.9c0,3,1.7,5.4,4.9,5.4c2.2,0,3.7-1.1,4.1-2.2
				h2.9c-0.3,1.9-2.5,4.7-7,4.7C2019.7,720.3,2016.9,717.1,2016.9,712.3z M2029.1,709.4v-0.3c0-3.2-1.9-5.4-4.7-5.4
				s-4.7,2.1-4.7,5.4v0.3H2029.1z"/>
			<path class="st1" d="M2037.3,701.6h2.8v3.4h0.1c0.5-1.5,1.7-3.7,5.6-3.7c3.7,0,6.3,2,6.3,6.1V720h-2.8v-11.7c0-3-1.5-4.6-4.2-4.6
				c-3.5,0-5.1,2.7-5.1,6V720h-2.8V701.6z"/>
			<path class="st1" d="M2059.4,696.9h2.8v4.6h4.2v2.3h-4.2V715c0,2.3,0.7,2.8,3.1,2.8c0.4,0,1.1-0.1,1.4-0.1v2.3
				c-0.2,0.1-1.5,0.1-2.1,0.1c-4.3,0-5.1-1.7-5.1-5.3v-11h-2.8v-2.3h2.8V696.9z"/>
			<path class="st1" d="M2077.6,725.4l8.9-30.7h2.4l-8.9,30.7H2077.6z"/>
			<path class="st1" d="M2110,696c4.5,0,7.6,2.9,7.6,7.4c0,4.5-3.1,7.4-7.6,7.4h-5.8v9.2h-2.8v-24H2110z M2104.2,708.2h3.8
				c4.3,0,6.7-0.8,6.7-4.8c0-3.1-1.7-4.8-4.8-4.8h-5.7V708.2z"/>
			<path class="st1" d="M2121.5,706.3c0-6.8,3.8-10.8,9.5-10.8c5.7,0,9.5,4,9.5,10.8v3.6c0,6.8-3.8,10.6-9.5,10.6s-9.4-3.8-9.4-10.6
				V706.3z M2124.3,709.9c0,5.5,2.9,8,6.7,8c3.8,0,6.7-2.5,6.7-8v-3.6c0-5.5-2.9-8.3-6.7-8.3c-3.8,0-6.7,2.8-6.7,8.3V709.9z"/>
			<path class="st1" d="M2146.3,720v-24h2.8v24H2146.3z"/>
		</g>
		<g class="st0">
			<path class="st1" d="M2033.5,739c4.5,0,7.6,2.9,7.6,7.4c0,4.5-3.1,7.4-7.6,7.4h-5.8v9.2h-2.8v-24H2033.5z M2027.7,751.2h3.8
				c4.3,0,6.7-0.8,6.7-4.8c0-3.1-1.7-4.8-4.8-4.8h-5.7V751.2z"/>
			<path class="st1" d="M2044.5,757.6c0-3.2,2.2-5.4,6.5-5.4h4.9v-1.9c0-2.5-1.6-3.7-4.1-3.7c-2.5,0-3.5,0.9-3.9,2.2h-2.7
				c0.3-3.1,2.8-4.7,6.7-4.7c3.7,0,6.8,1.6,6.8,6.1V763h-2.7v-2.5h-0.1c-0.9,1.5-2.6,2.8-5.4,2.8
				C2047,763.3,2044.5,761,2044.5,757.6z M2055.9,756.7v-2.1h-4.9c-2.6,0-3.7,1.3-3.7,3c0,2.2,1.8,3.3,3.9,3.3
				C2053.9,760.9,2055.9,759,2055.9,756.7z"/>
			<path class="st1" d="M2076.6,762.6v-2.8h-0.2c-0.7,1.6-2.6,2.9-5.2,2.9c-4.1,0-7.4-2.9-7.4-7.6v-3.1c0-4.7,3.3-7.7,7.3-7.7
				c2.8,0,4.8,1.6,5.4,3.1h0.1v-2.8h2.6v18c0,5-3.1,7.4-8,7.4c-4.6,0-6.8-2.3-7.1-5h2.9c0.2,1.4,1.8,2.5,4.3,2.5
				C2074.9,767.5,2076.6,765.6,2076.6,762.6z M2066.6,752.6v1.8c0,3.5,2.1,5.8,5.2,5.8c3.1,0,4.8-2.6,4.8-5.2v-3
				c0-2.7-1.8-5.3-4.8-5.3C2068.6,746.7,2066.6,749.1,2066.6,752.6z"/>
			<path class="st1" d="M2084.9,755.3v-3c0-4.9,3.1-8,7.5-8s7.5,3.1,7.5,8v2.2h-12.2v0.9c0,3,1.7,5.4,4.9,5.4c2.2,0,3.7-1.1,4.1-2.2
				h2.9c-0.3,1.9-2.5,4.7-7,4.7C2087.7,763.3,2084.9,760.1,2084.9,755.3z M2097.1,752.4v-0.3c0-3.2-1.9-5.4-4.7-5.4
				s-4.7,2.1-4.7,5.4v0.3H2097.1z"/>
		</g>
		<g class="st0">
			<path class="st1" d="M2188.9,1014l-8.7-24h3.2l6.9,20.6h0.2l6.8-20.6h3.2l-8.8,24H2188.9z"/>
			<path class="st1" d="M2220.7,997.1c0,3.9-2.3,5.9-4.5,6.7l4.9,10.2h-3.2l-4.5-9.7h-6.1v9.7h-2.8v-24h8.5
				C2218.4,990,2220.7,993.4,2220.7,997.1z M2212.6,1001.8c3.5,0,5.2-1.6,5.2-4.5c0-3.1-2-4.7-5.1-4.7h-5.4v9.2H2212.6z"/>
			<path class="st1" d="M2232.4,1019.4l8.9-30.7h2.4l-8.9,30.7H2232.4z"/>
			<path class="st1" d="M2257.1,1007.6c0.2,2.4,2.3,4.4,6.1,4.4c3.4,0,5.6-1.7,5.6-4.4c0-2-1.2-3.2-4-3.9l-4.3-1.1
				c-2.8-0.7-5.5-2.5-5.5-6.2c0-4.5,4-6.9,8.2-6.9c3.9,0,8.1,2.1,8.2,6.8h-2.8c-0.2-2.4-2-4.2-5.5-4.2c-3,0-5.3,1.5-5.3,4.1
				c0,1.8,1.1,3.1,3.4,3.7l4.2,1.1c3.7,1,6.2,2.7,6.2,6.5c0,4.7-4,7.1-8.9,7.1c-6.3,0-8.4-3.8-8.5-6.9H2257.1z"/>
			<path class="st1" d="M2277.1,988h2.8v10.9h0.1c0.4-1.3,1.9-3.7,5.8-3.7c3.6,0,6.2,2,6.2,6.1v12.6h-2.8v-11.7c0-3-1.6-4.6-4.3-4.6
				c-3.4,0-5.1,2.7-5.1,6v10.3h-2.8V988z"/>
			<path class="st1" d="M2297.3,1008.6c0-3.2,2.2-5.4,6.5-5.4h4.9v-1.9c0-2.5-1.6-3.7-4.1-3.7c-2.5,0-3.5,0.9-3.9,2.2h-2.7
				c0.3-3.1,2.8-4.7,6.7-4.7c3.7,0,6.8,1.6,6.8,6.1v12.7h-2.7v-2.5h-0.1c-0.9,1.5-2.6,2.8-5.4,2.8
				C2299.8,1014.3,2297.3,1012,2297.3,1008.6z M2308.7,1007.7v-2.1h-4.9c-2.6,0-3.7,1.3-3.7,3c0,2.2,1.8,3.3,3.9,3.3
				C2306.7,1011.9,2308.7,1010,2308.7,1007.7z"/>
			<path class="st1" d="M2318.2,995.6h2.8v2.8h0.1c0.5-1.2,1.8-3.1,5.2-3.1c0.3,0,0.7,0,1.1,0.1v2.6c-0.3-0.1-0.9-0.1-1.4-0.1
				c-3.3,0-5,2-5,4.5v11.7h-2.8V995.6z"/>
			<path class="st1" d="M2330.8,1006.3v-3c0-4.9,3.1-8,7.5-8s7.5,3.1,7.5,8v2.2h-12.2v0.9c0,3,1.7,5.4,4.9,5.4
				c2.2,0,3.7-1.1,4.1-2.2h2.9c-0.3,1.9-2.5,4.7-7,4.7C2333.6,1014.3,2330.8,1011.1,2330.8,1006.3z M2343,1003.4v-0.3
				c0-3.2-1.9-5.4-4.7-5.4s-4.7,2.1-4.7,5.4v0.3H2343z"/>
			<path class="st1" d="M2360.6,1007.6c0.2,2.4,2.3,4.4,6.1,4.4c3.4,0,5.6-1.7,5.6-4.4c0-2-1.2-3.2-4-3.9l-4.3-1.1
				c-2.8-0.7-5.5-2.5-5.5-6.2c0-4.5,4-6.9,8.2-6.9c3.9,0,8.1,2.1,8.2,6.8h-2.8c-0.2-2.4-2-4.2-5.5-4.2c-3,0-5.3,1.5-5.3,4.1
				c0,1.8,1.1,3.1,3.4,3.7l4.2,1.1c3.7,1,6.2,2.7,6.2,6.5c0,4.7-4,7.1-8.9,7.1c-6.3,0-8.4-3.8-8.5-6.9H2360.6z"/>
			<path class="st1" d="M2380.6,988h2.8v10.9h0.1c0.4-1.3,1.9-3.7,5.8-3.7c3.6,0,6.2,2,6.2,6.1v12.6h-2.8v-11.7c0-3-1.6-4.6-4.3-4.6
				c-3.4,0-5.1,2.7-5.1,6v10.3h-2.8V988z"/>
			<path class="st1" d="M2401,1006.3v-3c0-4.9,3.1-8,7.5-8s7.5,3.1,7.5,8v2.2h-12.2v0.9c0,3,1.7,5.4,4.9,5.4c2.2,0,3.7-1.1,4.1-2.2
				h2.9c-0.3,1.9-2.5,4.7-7,4.7C2403.8,1014.3,2401,1011.1,2401,1006.3z M2413.2,1003.4v-0.3c0-3.2-1.9-5.4-4.7-5.4
				s-4.7,2.1-4.7,5.4v0.3H2413.2z"/>
			<path class="st1" d="M2420.5,1006.3v-3c0-4.9,3.1-8,7.5-8s7.5,3.1,7.5,8v2.2h-12.2v0.9c0,3,1.7,5.4,4.9,5.4
				c2.2,0,3.7-1.1,4.1-2.2h2.9c-0.3,1.9-2.5,4.7-7,4.7C2423.3,1014.3,2420.5,1011.1,2420.5,1006.3z M2432.7,1003.4v-0.3
				c0-3.2-1.9-5.4-4.7-5.4s-4.7,2.1-4.7,5.4v0.3H2432.7z"/>
			<path class="st1" d="M2441.9,990.9h2.8v4.6h4.2v2.3h-4.2v11.1c0,2.3,0.7,2.8,3.1,2.8c0.4,0,1.1-0.1,1.4-0.1v2.3
				c-0.2,0.1-1.5,0.1-2.1,0.1c-4.3,0-5.1-1.7-5.1-5.3v-11h-2.8v-2.3h2.8V990.9z"/>
		</g>
		<g class="st0">
			<path class="st1" d="M2448.4,882h-14.2v-24h14.2v2.5H2437v7.9h10.8v2.5H2437v8.5h11.4V882z"/>
			<path class="st1" d="M2454,863.6h2.8v3.4h0.1c0.5-1.5,1.7-3.7,5.6-3.7c3.7,0,6.3,2,6.3,6.1V882h-2.8v-11.7c0-3-1.5-4.6-4.2-4.6
				c-3.5,0-5.1,2.7-5.1,6V882h-2.8V863.6z"/>
			<path class="st1" d="M2475.3,856h2.8v26h-2.8V856z"/>
			<path class="st1" d="M2483.6,876.6c0-3.2,2.2-5.4,6.5-5.4h4.9v-1.9c0-2.5-1.6-3.7-4.1-3.7c-2.5,0-3.5,0.9-3.9,2.2h-2.7
				c0.3-3.1,2.8-4.7,6.7-4.7c3.7,0,6.8,1.6,6.8,6.1V882h-2.7v-2.5h-0.1c-0.9,1.5-2.6,2.8-5.4,2.8
				C2486,882.3,2483.6,880,2483.6,876.6z M2494.9,875.7v-2.1h-4.9c-2.6,0-3.7,1.3-3.7,3c0,2.2,1.8,3.3,3.9,3.3
				C2492.9,879.9,2494.9,878,2494.9,875.7z"/>
			<path class="st1" d="M2504.4,863.6h2.8v2.8h0.1c0.5-1.2,1.8-3.1,5.2-3.1c0.3,0,0.7,0,1.1,0.1v2.6c-0.3-0.1-0.9-0.1-1.4-0.1
				c-3.3,0-5,2-5,4.5V882h-2.8V863.6z"/>
			<path class="st1" d="M2529.5,881.6v-2.8h-0.2c-0.7,1.6-2.6,2.9-5.2,2.9c-4.1,0-7.4-2.9-7.4-7.6v-3.1c0-4.7,3.3-7.7,7.3-7.7
				c2.8,0,4.8,1.6,5.4,3.1h0.1v-2.8h2.6v18c0,5-3.1,7.4-8,7.4c-4.6,0-6.8-2.3-7.1-5h2.9c0.2,1.4,1.8,2.5,4.3,2.5
				C2527.8,886.5,2529.5,884.6,2529.5,881.6z M2519.5,871.6v1.8c0,3.5,2.1,5.8,5.2,5.8c3.1,0,4.8-2.6,4.8-5.2v-3
				c0-2.7-1.8-5.3-4.8-5.3C2521.5,865.7,2519.5,868.1,2519.5,871.6z"/>
			<path class="st1" d="M2537.8,874.3v-3c0-4.9,3.1-8,7.5-8s7.5,3.1,7.5,8v2.2h-12.2v0.9c0,3,1.7,5.4,4.9,5.4c2.2,0,3.7-1.1,4.1-2.2
				h2.9c-0.3,1.9-2.5,4.7-7,4.7C2540.6,882.3,2537.8,879.1,2537.8,874.3z M2550,871.4v-0.3c0-3.2-1.9-5.4-4.7-5.4s-4.7,2.1-4.7,5.4
				v0.3H2550z"/>
			<path class="st1" d="M2566.7,882v-24h2.7l8.1,19.2h0.1l8.1-19.2h2.7v24h-2.5v-17.9h-0.2l-6.9,16h-2.5l-6.9-16h-0.1V882H2566.7z"
				/>
			<path class="st1" d="M2594.2,874.3v-3c0-4.9,3.1-8,7.5-8s7.5,3.1,7.5,8v2.2H2597v0.9c0,3,1.7,5.4,4.9,5.4c2.2,0,3.7-1.1,4.1-2.2
				h2.9c-0.3,1.9-2.5,4.7-7,4.7C2597,882.3,2594.2,879.1,2594.2,874.3z M2606.4,871.4v-0.3c0-3.2-1.9-5.4-4.7-5.4s-4.7,2.1-4.7,5.4
				v0.3H2606.4z"/>
			<path class="st1" d="M2626.3,866.2h0.1V856h2.8v26h-2.6v-2.9h-0.1c-0.4,1.5-2.4,3.2-5.6,3.2c-4.3,0-7.1-3-7.1-7.6v-3.8
				c0-4.5,2.8-7.6,7.2-7.6C2624,863.2,2625.7,864.7,2626.3,866.2z M2616.5,871.5v2.4c0,3.8,1.9,5.9,4.9,5.9c3.1,0,5-2.2,5-5.6v-3.4
				c0-3-2.1-5.2-5.1-5.2C2618.3,865.7,2616.5,867.8,2616.5,871.5z"/>
			<path class="st1" d="M2637.6,855.7c1.2,0,2.1,0.9,2.1,2.1c0,1.2-0.9,2.1-2.1,2.1c-1.1,0-2.1-0.9-2.1-2.1
				C2635.5,856.6,2636.4,855.7,2637.6,855.7z M2636.2,863.6h2.8V882h-2.8V863.6z"/>
			<path class="st1" d="M2644.8,876.6c0-3.2,2.2-5.4,6.5-5.4h4.9v-1.9c0-2.5-1.6-3.7-4.1-3.7c-2.5,0-3.5,0.9-3.9,2.2h-2.7
				c0.3-3.1,2.8-4.7,6.7-4.7c3.7,0,6.8,1.6,6.8,6.1V882h-2.7v-2.5h-0.1c-0.9,1.5-2.6,2.8-5.4,2.8
				C2647.3,882.3,2644.8,880,2644.8,876.6z M2656.2,875.7v-2.1h-4.9c-2.6,0-3.7,1.3-3.7,3c0,2.2,1.8,3.3,3.9,3.3
				C2654.2,879.9,2656.2,878,2656.2,875.7z"/>
		</g>
		<g class="st0">
			<path class="st1" d="M2575.7,771h-14.2v-24h14.2v2.5h-11.4v7.9h10.8v2.5h-10.8v8.5h11.4V771z"/>
			<path class="st1" d="M2587.5,764h-0.1l-4.6,7h-3.1l6.3-9.1l-6.3-9.3h3.3l4.4,7h0.1l4.6-7h3.2l-6.3,9l6.4,9.4h-3.3L2587.5,764z"/>
			<path class="st1" d="M2602.9,768.3h-0.1v9.2h-2.8v-24.9h2.6v2.9h0.1c0.6-1.7,2.5-3.2,5.6-3.2c4.3,0,7.1,3,7.1,7.8v3.4
				c0,4.9-2.9,7.8-7.2,7.8C2605.1,771.3,2603.6,769.8,2602.9,768.3z M2612.7,762.8v-2.1c0-4-1.9-6.1-4.9-6.1c-3.1,0-5,2.2-5,5.6v3.4
				c0,3,2,5.2,5.1,5.2C2610.7,768.9,2612.7,766.9,2612.7,762.8z"/>
			<path class="st1" d="M2620,765.6c0-3.2,2.2-5.4,6.5-5.4h4.9v-1.9c0-2.5-1.6-3.7-4.1-3.7c-2.5,0-3.5,0.9-3.9,2.2h-2.7
				c0.3-3.1,2.8-4.7,6.7-4.7c3.7,0,6.8,1.6,6.8,6.1V771h-2.7v-2.5h-0.1c-0.9,1.5-2.6,2.8-5.4,2.8C2622.4,771.3,2620,769,2620,765.6z
				 M2631.3,764.7v-2.1h-4.9c-2.6,0-3.7,1.3-3.7,3c0,2.2,1.8,3.3,3.9,3.3C2629.3,768.9,2631.3,767,2631.3,764.7z"/>
			<path class="st1" d="M2640.5,752.6h2.8v3.4h0.1c0.5-1.5,1.7-3.7,5.6-3.7c3.7,0,6.3,2,6.3,6.1V771h-2.8v-11.7c0-3-1.5-4.6-4.2-4.6
				c-3.5,0-5.1,2.7-5.1,6V771h-2.8V752.6z"/>
			<path class="st1" d="M2673.4,755.2h0.1V745h2.8v26h-2.6v-2.9h-0.1c-0.4,1.5-2.4,3.2-5.6,3.2c-4.3,0-7.1-3-7.1-7.6v-3.8
				c0-4.5,2.8-7.6,7.2-7.6C2671.1,752.2,2672.8,753.7,2673.4,755.2z M2663.5,760.5v2.4c0,3.8,1.9,5.9,4.9,5.9c3.1,0,5-2.2,5-5.6
				v-3.4c0-3-2.1-5.2-5.1-5.2C2665.4,754.7,2663.5,756.8,2663.5,760.5z"/>
			<path class="st1" d="M2695.9,771v-21.5h-7.3V747h17.5v2.5h-7.3V771H2695.9z"/>
			<path class="st1" d="M2707.2,763.3v-3c0-4.9,3.1-8,7.5-8s7.5,3.1,7.5,8v2.2h-12.2v0.9c0,3,1.7,5.4,4.9,5.4c2.2,0,3.7-1.1,4.1-2.2
				h2.9c-0.3,1.9-2.5,4.7-7,4.7C2710,771.3,2707.2,768.1,2707.2,763.3z M2719.4,760.4v-0.3c0-3.2-1.9-5.4-4.7-5.4s-4.7,2.1-4.7,5.4
				v0.3H2719.4z"/>
			<path class="st1" d="M2733.5,764h-0.1l-4.6,7h-3.1l6.3-9.1l-6.3-9.3h3.3l4.4,7h0.1l4.6-7h3.2l-6.3,9l6.4,9.4h-3.3L2733.5,764z"/>
			<path class="st1" d="M2746.9,747.9h2.8v4.6h4.2v2.3h-4.2V766c0,2.3,0.7,2.8,3.1,2.8c0.4,0,1.1-0.1,1.4-0.1v2.3
				c-0.2,0.1-1.5,0.1-2.1,0.1c-4.3,0-5.1-1.7-5.1-5.3v-11h-2.8v-2.3h2.8V747.9z"/>
		</g>
		<g class="st0">
			<path class="st1" d="M2564,649.8c0,5.6,2.6,8.1,6.6,8.1c3.9,0,5.9-2.4,5.9-5h2.8c0,3.3-2.6,7.6-8.8,7.6c-5.6,0-9.3-3.6-9.3-10.6
				v-3.6c0-6.9,3.7-10.8,9.3-10.8c5.9,0,8.7,4.2,8.7,8h-2.8c0-2.6-2.1-5.5-6-5.5c-3.8,0-6.5,2.8-6.5,8.3V649.8z"/>
			<path class="st1" d="M2584.9,634h2.8v26h-2.8V634z"/>
			<path class="st1" d="M2596.1,633.7c1.2,0,2.1,0.9,2.1,2.1c0,1.2-0.9,2.1-2.1,2.1c-1.1,0-2.1-0.9-2.1-2.1
				C2594,634.6,2594.9,633.7,2596.1,633.7z M2594.7,641.6h2.8V660h-2.8V641.6z"/>
			<path class="st1" d="M2603.5,649.1c0-4.8,2.9-7.9,7.6-7.9c4.6,0,6.8,2.8,6.9,5.4h-2.8c-0.2-1-1.1-2.9-4.1-2.9
				c-3.2,0-4.8,2.1-4.8,5.5v3.1c0,3.3,1.8,5.4,4.8,5.4c2.9,0,3.9-1.3,4.3-2.7h2.8c-0.1,2.5-2.2,5.2-7.1,5.2c-4.7,0-7.6-3.1-7.6-7.9
				V649.1z"/>
			<path class="st1" d="M2626.1,660h-2.8v-26h2.8v16h0.1l7.8-8.5h3.2l-7.4,8l7.8,10.4h-3.3l-6.5-8.7l-1.8,1.8V660z"/>
			<path class="st1" d="M2654.9,660v-21.5h-7.3V636h17.5v2.5h-7.3V660H2654.9z"/>
			<path class="st1" d="M2666,654.6c0-3.2,2.2-5.4,6.5-5.4h4.9v-1.9c0-2.5-1.6-3.7-4.1-3.7c-2.5,0-3.5,0.9-3.9,2.2h-2.7
				c0.3-3.1,2.8-4.7,6.7-4.7c3.7,0,6.8,1.6,6.8,6.1V660h-2.7v-2.5h-0.1c-0.9,1.5-2.6,2.8-5.4,2.8C2668.4,660.3,2666,658,2666,654.6z
				 M2677.3,653.7v-2.1h-4.9c-2.6,0-3.7,1.3-3.7,3c0,2.2,1.8,3.3,3.9,3.3C2675.3,657.9,2677.3,656,2677.3,653.7z"/>
			<path class="st1" d="M2698.1,659.6v-2.8h-0.2c-0.7,1.6-2.6,2.9-5.2,2.9c-4.1,0-7.4-2.9-7.4-7.6v-3.1c0-4.7,3.3-7.7,7.3-7.7
				c2.8,0,4.8,1.6,5.4,3.1h0.1v-2.8h2.6v18c0,5-3.1,7.4-8,7.4c-4.6,0-6.8-2.3-7.1-5h2.9c0.2,1.4,1.8,2.5,4.3,2.5
				C2696.4,664.5,2698.1,662.6,2698.1,659.6z M2688.1,649.6v1.8c0,3.5,2.1,5.8,5.2,5.8c3.1,0,4.8-2.6,4.8-5.2v-3
				c0-2.7-1.8-5.3-4.8-5.3C2690.1,643.7,2688.1,646.1,2688.1,649.6z"/>
			<path class="st1" d="M2712.7,641.3c3.9,0,6.5,2.1,6.5,5.1h-2.6c-0.1-1.4-1.4-2.8-4-2.8c-2.2,0-3.9,1-3.9,2.9c0,2.3,2.4,2.6,4.5,3
				c3.5,0.6,6.4,1.5,6.4,5.1c0,3.7-3,5.7-7.2,5.7c-3.9,0-6.8-1.8-6.8-5.1h2.7c0.3,1.7,1.4,2.8,4.2,2.8c3.1,0,4.4-1.4,4.4-3.1
				c0-2.1-2-2.6-4.6-3.1c-3.5-0.7-6.3-1.4-6.3-5.1C2706,642.9,2709.2,641.3,2712.7,641.3z"/>
		</g>
		<g class="st0">
			<path class="st1" d="M2039.2,517v-24h14v2.5H2042v8.4h10.3v2.5H2042V517H2039.2z"/>
			<path class="st1" d="M2059.8,490.7c1.2,0,2.1,0.9,2.1,2.1c0,1.2-0.9,2.1-2.1,2.1c-1.1,0-2.1-0.9-2.1-2.1
				C2057.8,491.6,2058.7,490.7,2059.8,490.7z M2058.5,498.6h2.8V517h-2.8V498.6z"/>
			<path class="st1" d="M2068.3,491h2.8v26h-2.8V491z"/>
			<path class="st1" d="M2078.5,493.9h2.8v4.6h4.2v2.3h-4.2V512c0,2.3,0.7,2.8,3.1,2.8c0.4,0,1.1-0.1,1.4-0.1v2.3
				c-0.2,0.1-1.5,0.1-2.1,0.1c-4.3,0-5.1-1.7-5.1-5.3v-11h-2.8v-2.3h2.8V493.9z"/>
			<path class="st1" d="M2090,509.3v-3c0-4.9,3.1-8,7.5-8s7.5,3.1,7.5,8v2.2h-12.2v0.9c0,3,1.7,5.4,4.9,5.4c2.2,0,3.7-1.1,4.1-2.2
				h2.9c-0.3,1.9-2.5,4.7-7,4.7C2092.8,517.3,2090,514.1,2090,509.3z M2102.2,506.4v-0.3c0-3.2-1.9-5.4-4.7-5.4s-4.7,2.1-4.7,5.4
				v0.3H2102.2z"/>
			<path class="st1" d="M2110.7,498.6h2.8v2.8h0.1c0.5-1.2,1.8-3.1,5.2-3.1c0.3,0,0.7,0,1.1,0.1v2.6c-0.3-0.1-0.9-0.1-1.4-0.1
				c-3.3,0-5,2-5,4.5V517h-2.8V498.6z"/>
			<path class="st1" d="M2130.1,498.3c3.9,0,6.5,2.1,6.5,5.1h-2.6c-0.1-1.4-1.4-2.8-4-2.8c-2.2,0-3.9,1-3.9,2.9c0,2.3,2.4,2.6,4.5,3
				c3.5,0.6,6.4,1.5,6.4,5.1c0,3.7-3,5.7-7.2,5.7c-3.9,0-6.8-1.8-6.8-5.1h2.7c0.3,1.7,1.4,2.8,4.2,2.8c3.1,0,4.4-1.4,4.4-3.1
				c0-2.1-2-2.6-4.6-3.1c-3.5-0.7-6.3-1.4-6.3-5.1C2123.3,499.9,2126.6,498.3,2130.1,498.3z"/>
			<path class="st1" d="M2150.8,498.6h2.8v2.8h0.1c0.5-1.2,1.8-3.1,5.2-3.1c0.3,0,0.7,0,1.1,0.1v2.6c-0.3-0.1-0.9-0.1-1.4-0.1
				c-3.3,0-5,2-5,4.5V517h-2.8V498.6z"/>
			<path class="st1" d="M2163.5,509.3v-3c0-4.9,3.1-8,7.5-8s7.5,3.1,7.5,8v2.2h-12.2v0.9c0,3,1.7,5.4,4.9,5.4c2.2,0,3.7-1.1,4.1-2.2
				h2.9c-0.3,1.9-2.5,4.7-7,4.7C2166.3,517.3,2163.5,514.1,2163.5,509.3z M2175.7,506.4v-0.3c0-3.2-1.9-5.4-4.7-5.4
				s-4.7,2.1-4.7,5.4v0.3H2175.7z"/>
			<path class="st1" d="M2189.7,498.3c3.9,0,6.5,2.1,6.5,5.1h-2.6c-0.1-1.4-1.4-2.8-4-2.8c-2.2,0-3.9,1-3.9,2.9c0,2.3,2.4,2.6,4.5,3
				c3.5,0.6,6.4,1.5,6.4,5.1c0,3.7-3,5.7-7.2,5.7c-3.9,0-6.8-1.8-6.8-5.1h2.7c0.3,1.7,1.4,2.8,4.2,2.8c3.1,0,4.4-1.4,4.4-3.1
				c0-2.1-2-2.6-4.6-3.1c-3.5-0.7-6.3-1.4-6.3-5.1C2183,499.9,2186.2,498.3,2189.7,498.3z"/>
			<path class="st1" d="M2201.1,509.3v-3c0-4.9,3.1-8,7.5-8s7.5,3.1,7.5,8v2.2h-12.2v0.9c0,3,1.7,5.4,4.9,5.4c2.2,0,3.7-1.1,4.1-2.2
				h2.9c-0.3,1.9-2.5,4.7-7,4.7C2203.9,517.3,2201.1,514.1,2201.1,509.3z M2213.3,506.4v-0.3c0-3.2-1.9-5.4-4.7-5.4
				s-4.7,2.1-4.7,5.4v0.3H2213.3z"/>
			<path class="st1" d="M2222.5,493.9h2.8v4.6h4.2v2.3h-4.2V512c0,2.3,0.7,2.8,3.1,2.8c0.4,0,1.1-0.1,1.4-0.1v2.3
				c-0.2,0.1-1.5,0.1-2.1,0.1c-4.3,0-5.1-1.7-5.1-5.3v-11h-2.8v-2.3h2.8V493.9z"/>
			<path class="st1" d="M2243.9,493.9h2.8v4.6h4.2v2.3h-4.2V512c0,2.3,0.7,2.8,3.1,2.8c0.4,0,1.1-0.1,1.4-0.1v2.3
				c-0.2,0.1-1.5,0.1-2.1,0.1c-4.3,0-5.1-1.7-5.1-5.3v-11h-2.8v-2.3h2.8V493.9z"/>
			<path class="st1" d="M2271,506.3v2.9c0,5.1-3.4,8.1-7.8,8.1c-4.5,0-7.8-2.9-7.8-8.1v-2.9c0-4.9,3.4-8.1,7.8-8.1
				C2267.6,498.3,2271,501.2,2271,506.3z M2258.1,506.6v2.3c0,3.6,1.9,5.9,5.1,5.9c3.2,0,5-2.3,5-5.9v-2.3c0-3.5-2-5.9-5-5.9
				C2260.1,500.7,2258.1,503.1,2258.1,506.6z"/>
		</g>
		<g class="st0">
			<path class="st1" d="M2053.6,549.1c0-4.8,2.9-7.9,7.6-7.9c4.6,0,6.8,2.8,6.9,5.4h-2.8c-0.2-1-1.1-2.9-4.1-2.9
				c-3.2,0-4.8,2.1-4.8,5.5v3.1c0,3.3,1.8,5.4,4.8,5.4c2.9,0,3.9-1.3,4.3-2.7h2.8c-0.1,2.5-2.2,5.2-7.1,5.2c-4.7,0-7.6-3.1-7.6-7.9
				V549.1z"/>
			<path class="st1" d="M2073.6,534h2.8v26h-2.8V534z"/>
			<path class="st1" d="M2084.7,533.7c1.2,0,2.1,0.9,2.1,2.1c0,1.2-0.9,2.1-2.1,2.1c-1.1,0-2.1-0.9-2.1-2.1
				C2082.7,534.6,2083.6,533.7,2084.7,533.7z M2083.4,541.6h2.8V560h-2.8V541.6z"/>
			<path class="st1" d="M2092.2,549.1c0-4.8,2.9-7.9,7.6-7.9c4.6,0,6.8,2.8,6.9,5.4h-2.8c-0.2-1-1.1-2.9-4.1-2.9
				c-3.2,0-4.8,2.1-4.8,5.5v3.1c0,3.3,1.8,5.4,4.8,5.4c2.9,0,3.9-1.3,4.3-2.7h2.8c-0.1,2.5-2.2,5.2-7.1,5.2c-4.7,0-7.6-3.1-7.6-7.9
				V549.1z"/>
			<path class="st1" d="M2114.8,560h-2.8v-26h2.8v16h0.1l7.8-8.5h3.2l-7.4,8l7.8,10.4h-3.3l-6.5-8.7l-1.8,1.8V560z"/>
			<path class="st1" d="M2129,552.3v-3c0-4.9,3.1-8,7.5-8s7.5,3.1,7.5,8v2.2h-12.2v0.9c0,3,1.7,5.4,4.9,5.4c2.2,0,3.7-1.1,4.1-2.2
				h2.9c-0.3,1.9-2.5,4.7-7,4.7C2131.8,560.3,2129,557.1,2129,552.3z M2141.2,549.4v-0.3c0-3.2-1.9-5.4-4.7-5.4s-4.7,2.1-4.7,5.4
				v0.3H2141.2z"/>
			<path class="st1" d="M2161.1,544.2h0.1V534h2.8v26h-2.6v-2.9h-0.1c-0.4,1.5-2.4,3.2-5.6,3.2c-4.3,0-7.1-3-7.1-7.6v-3.8
				c0-4.5,2.8-7.6,7.2-7.6C2158.8,541.2,2160.5,542.7,2161.1,544.2z M2151.3,549.5v2.4c0,3.8,1.9,5.9,4.9,5.9c3.1,0,5-2.2,5-5.6
				v-3.4c0-3-2.1-5.2-5.1-5.2C2153.2,543.7,2151.3,545.8,2151.3,549.5z"/>
			<path class="st1" d="M2183.7,560v-21.5h-7.3V536h17.5v2.5h-7.3V560H2183.7z"/>
			<path class="st1" d="M2194.8,554.6c0-3.2,2.2-5.4,6.5-5.4h4.9v-1.9c0-2.5-1.6-3.7-4.1-3.7c-2.5,0-3.5,0.9-3.9,2.2h-2.7
				c0.3-3.1,2.8-4.7,6.7-4.7c3.7,0,6.8,1.6,6.8,6.1V560h-2.7v-2.5h-0.1c-0.9,1.5-2.6,2.8-5.4,2.8
				C2197.2,560.3,2194.8,558,2194.8,554.6z M2206.1,553.7v-2.1h-4.9c-2.6,0-3.7,1.3-3.7,3c0,2.2,1.8,3.3,3.9,3.3
				C2204.1,557.9,2206.1,556,2206.1,553.7z"/>
			<path class="st1" d="M2226.8,559.6v-2.8h-0.2c-0.7,1.6-2.6,2.9-5.2,2.9c-4.1,0-7.4-2.9-7.4-7.6v-3.1c0-4.7,3.3-7.7,7.3-7.7
				c2.8,0,4.8,1.6,5.4,3.1h0.1v-2.8h2.6v18c0,5-3.1,7.4-8,7.4c-4.6,0-6.8-2.3-7.1-5h2.9c0.2,1.4,1.8,2.5,4.3,2.5
				C2225.2,564.5,2226.8,562.6,2226.8,559.6z M2216.9,549.6v1.8c0,3.5,2.1,5.8,5.2,5.8c3.1,0,4.8-2.6,4.8-5.2v-3
				c0-2.7-1.8-5.3-4.8-5.3C2218.8,543.7,2216.9,546.1,2216.9,549.6z"/>
			<path class="st1" d="M2241.5,541.3c3.9,0,6.5,2.1,6.5,5.1h-2.6c-0.1-1.4-1.4-2.8-4-2.8c-2.2,0-3.9,1-3.9,2.9c0,2.3,2.4,2.6,4.5,3
				c3.5,0.6,6.4,1.5,6.4,5.1c0,3.7-3,5.7-7.2,5.7c-3.9,0-6.8-1.8-6.8-5.1h2.7c0.3,1.7,1.4,2.8,4.2,2.8c3.1,0,4.4-1.4,4.4-3.1
				c0-2.1-2-2.6-4.6-3.1c-3.5-0.7-6.3-1.4-6.3-5.1C2234.8,542.9,2238,541.3,2241.5,541.3z"/>
		</g>
		<g class="st0">
			<path class="st1" d="M1546.5,878h-14.2v-24h14.2v2.5h-11.4v7.9h10.8v2.5h-10.8v8.5h11.4V878z"/>
			<path class="st1" d="M1549.7,859.6h3.1l4.8,15.5h0.1l5.1-15.5h3L1559,878h-2.8L1549.7,859.6z"/>
			<path class="st1" d="M1568.9,870.3v-3c0-4.9,3.1-8,7.5-8s7.5,3.1,7.5,8v2.2h-12.2v0.9c0,3,1.7,5.4,4.9,5.4c2.2,0,3.7-1.1,4.1-2.2
				h2.9c-0.3,1.9-2.5,4.7-7,4.7C1571.7,878.3,1568.9,875.1,1568.9,870.3z M1581.1,867.4v-0.3c0-3.2-1.9-5.4-4.7-5.4
				s-4.7,2.1-4.7,5.4v0.3H1581.1z"/>
			<path class="st1" d="M1589.3,859.6h2.8v3.4h0.1c0.5-1.5,1.7-3.7,5.6-3.7c3.7,0,6.3,2,6.3,6.1V878h-2.8v-11.7c0-3-1.5-4.6-4.2-4.6
				c-3.5,0-5.1,2.7-5.1,6V878h-2.8V859.6z"/>
			<path class="st1" d="M1611.4,854.9h2.8v4.6h4.2v2.3h-4.2V873c0,2.3,0.7,2.8,3.1,2.8c0.4,0,1.1-0.1,1.4-0.1v2.3
				c-0.2,0.1-1.5,0.1-2.1,0.1c-4.3,0-5.1-1.7-5.1-5.3v-11h-2.8v-2.3h2.8V854.9z"/>
			<path class="st1" d="M1629.6,883.4l8.9-30.7h2.4l-8.9,30.7H1629.6z"/>
			<path class="st1" d="M1662,854c4.5,0,7.6,2.9,7.6,7.4c0,4.5-3.1,7.4-7.6,7.4h-5.8v9.2h-2.8v-24H1662z M1656.2,866.2h3.8
				c4.3,0,6.7-0.8,6.7-4.8c0-3.1-1.7-4.8-4.8-4.8h-5.7V866.2z"/>
			<path class="st1" d="M1673.5,864.3c0-6.8,3.8-10.8,9.5-10.8c5.7,0,9.5,4,9.5,10.8v3.6c0,6.8-3.8,10.6-9.5,10.6s-9.4-3.8-9.4-10.6
				V864.3z M1676.3,867.9c0,5.5,2.9,8,6.7,8c3.8,0,6.7-2.5,6.7-8v-3.6c0-5.5-2.9-8.3-6.7-8.3c-3.8,0-6.7,2.8-6.7,8.3V867.9z"/>
			<path class="st1" d="M1698.3,878v-24h2.8v24H1698.3z"/>
		</g>
		<g class="st0">
			<path class="st1" d="M1557.7,921v-24h2.7l8.1,19.2h0.1l8.1-19.2h2.7v24h-2.5v-17.9h-0.2l-6.9,16h-2.5l-6.9-16h-0.1V921H1557.7z"
				/>
			<path class="st1" d="M1600.9,910.3v2.9c0,5.1-3.4,8.1-7.8,8.1c-4.5,0-7.8-2.9-7.8-8.1v-2.9c0-4.9,3.4-8.1,7.8-8.1
				C1597.5,902.3,1600.9,905.2,1600.9,910.3z M1588,910.6v2.3c0,3.6,1.9,5.9,5.1,5.9c3.2,0,5-2.3,5-5.9v-2.3c0-3.5-2-5.9-5-5.9
				C1590,904.7,1588,907.1,1588,910.6z"/>
			<path class="st1" d="M1618.1,905.2h0.1V895h2.8v26h-2.6v-2.9h-0.1c-0.4,1.5-2.4,3.2-5.6,3.2c-4.3,0-7.1-3-7.1-7.6v-3.8
				c0-4.5,2.8-7.6,7.2-7.6C1615.8,902.2,1617.5,903.7,1618.1,905.2z M1608.3,910.5v2.4c0,3.8,1.9,5.9,4.9,5.9c3.1,0,5-2.2,5-5.6
				v-3.4c0-3-2.1-5.2-5.1-5.2C1610.1,904.7,1608.3,906.8,1608.3,910.5z"/>
			<path class="st1" d="M1642.1,921h-2.8v-3.1h-0.2c-0.5,1.5-2.3,3.4-5.5,3.4c-3.7,0-6.3-1.6-6.3-5.9v-12.9h2.8v12.1
				c0,3.1,1.9,4.2,4.2,4.2c2.9,0,5-2.1,5-4.5v-11.8h2.8V921z"/>
			<path class="st1" d="M1648.7,895h2.8v26h-2.8V895z"/>
			<path class="st1" d="M1657.1,913.3v-3c0-4.9,3.1-8,7.5-8s7.5,3.1,7.5,8v2.2h-12.2v0.9c0,3,1.7,5.4,4.9,5.4c2.2,0,3.7-1.1,4.1-2.2
				h2.9c-0.3,1.9-2.5,4.7-7,4.7C1660,921.3,1657.1,918.1,1657.1,913.3z M1669.4,910.4v-0.3c0-3.2-1.9-5.4-4.7-5.4s-4.7,2.1-4.7,5.4
				v0.3H1669.4z"/>
		</g>
		<g id="Line">
			<path sketch:type="MSShapeGroup" class="st1" d="M272,483h89"/>
			<rect x="268" y="479" class="st1" width="97" height="8"/>
		</g>
		<g id="Line-decoration-1">
			<path class="st1" d="M361,483l-10.8-3v6L361,483z"/>
			<polygon class="st1" points="346.2,491.3 346.2,474.7 375.9,483 			"/>
		</g>
		<g id="Line-Copy">
			<path sketch:type="MSShapeGroup" class="st1" d="M640,483h89"/>
			<rect x="636" y="479" class="st1" width="97" height="8"/>
		</g>
		<g id="Line-Copy-decoration-1">
			<path class="st1" d="M729,483l-10.8-3v6L729,483z"/>
			<polygon class="st1" points="714.2,491.3 714.2,474.7 743.9,483 			"/>
		</g>
		<g id="Line-Copy-2">
			<path sketch:type="MSShapeGroup" class="st1" d="M1075,481h89"/>
			<rect x="1071" y="477" class="st1" width="97" height="8"/>
		</g>
		<g id="Line-Copy-2-decoration-1">
			<path class="st1" d="M1164,481l-10.8-3v6L1164,481z"/>
			<polygon class="st1" points="1149.2,489.3 1149.2,472.7 1178.9,481 			"/>
		</g>
		<g id="Line-Copy-3">
			<path sketch:type="MSShapeGroup" class="st1" d="M1400,479h89"/>
			<rect x="1396" y="475" class="st1" width="97" height="8"/>
		</g>
		<g id="Line-Copy-3-decoration-1">
			<path class="st1" d="M1489,479l-10.8-3v6L1489,479z"/>
			<polygon class="st1" points="1474.2,487.3 1474.2,470.7 1503.9,479 			"/>
		</g>
		<g id="Line-Copy-10">
			<path sketch:type="MSShapeGroup" class="st1" d="M1768,259l87,14"/>
			
				<rect x="1807.5" y="217.9" transform="matrix(0.1589 -0.9873 0.9873 0.1589 1261.0757 2012.2306)" class="st1" width="8" height="96.1"/>
		</g>
		<g id="Line-Copy-10-decoration-1">
			<path class="st1" d="M1855,273l-10.2-4.7l-1,5.9L1855,273z"/>
			<polygon class="st1" points="1839.1,278.8 1841.7,262.5 1869.8,275.4 			"/>
		</g>
		<g id="Line-Copy-11">
			<path sketch:type="MSShapeGroup" class="st1" d="M2256,315h106"/>
			<rect x="2252" y="311" class="st1" width="114" height="8"/>
		</g>
		<g id="Line-Copy-11-decoration-1">
			<path class="st1" d="M2362,315l-10.8-3v6L2362,315z"/>
			<polygon class="st1" points="2347.2,323.3 2347.2,306.7 2376.9,315 			"/>
		</g>
		<g id="Line-Copy-7">
			<path sketch:type="MSShapeGroup" class="st1" d="M1722,489l221,165"/>
			
				<rect x="1828.5" y="429.6" transform="matrix(0.5983 -0.8013 0.8013 0.5983 278.2469 1697.9838)" class="st1" width="8" height="283.8"/>
		</g>
		<g id="Line-Copy-7-decoration-1">
			<path class="st1" d="M1943,654l-6.9-8.9l-3.6,4.8L1943,654z"/>
			<polygon class="st1" points="1955,662.9 1926.2,651.8 1936.1,638.5 			"/>
		</g>
		<g id="Line-Copy-13">
			<path sketch:type="MSShapeGroup" class="st1" d="M2141,780l153,166"/>
			
				<rect x="2213.5" y="746.1" transform="matrix(0.7353 -0.6777 0.6777 0.7353 2.0642 1731.2853)" class="st1" width="8" height="233.8"/>
		</g>
		<g id="Line-Copy-13-decoration-1">
			<path class="st1" d="M2294,946l-5.1-10l-4.4,4.1L2294,946z"/>
			<polygon class="st1" points="2304.1,957 2277.9,940.7 2290,929.5 			"/>
		</g>
		<g id="Line-Copy-8">
			<path sketch:type="MSShapeGroup" class="st1" d="M1751,891l212-89"/>
			
				<rect x="1738" y="842.5" transform="matrix(0.922 -0.3871 0.3871 0.922 -182.9043 784.8436)" class="st1" width="237.9" height="8"/>
		</g>
		<g id="Line-Copy-8-decoration-1">
			<path class="st1" d="M1963,802l-11.1,1.4l2.3,5.5L1963,802z"/>
			<polygon class="st1" points="1952.6,815.3 1946.2,800.1 1976.8,796.2 			"/>
		</g>
		<g id="Line-Copy-9">
			<path sketch:type="MSShapeGroup" class="st1" d="M1718,651l211,69"/>
			
				<rect x="1819.5" y="570.5" transform="matrix(0.3108 -0.9505 0.9505 0.3108 605.1788 2205.6172)" class="st1" width="8" height="230"/>
		</g>
		<g id="Line-Copy-9-decoration-1">
			<path class="st1" d="M1929,720l-9.3-6.2l-1.9,5.7L1929,720z"/>
			<polygon class="st1" points="1943.2,724.6 1912.4,723.3 1917.5,707.5 			"/>
		</g>
		<g id="Line-Copy-14">
			<path sketch:type="MSShapeGroup" class="st1" d="M2179,758l220,70"/>
			
				<rect x="2285" y="673.6" transform="matrix(0.3032 -0.9529 0.9529 0.3032 839.2946 2733.8052)" class="st1" width="8" height="238.9"/>
		</g>
		<g id="Line-Copy-14-decoration-1">
			<path class="st1" d="M2399,828l-9.4-6.1l-1.8,5.7L2399,828z"/>
			<polygon class="st1" points="2413.2,832.5 2382.4,831.4 2387.4,815.6 			"/>
		</g>
		<g id="Line-Copy-15">
			<path sketch:type="MSShapeGroup" class="st1" d="M2188,718l329,40"/>
			
				<rect x="2348.5" y="568.3" transform="matrix(0.1207 -0.9927 0.9927 0.1207 1335.9718 2984.2349)" class="st1" width="8" height="339.4"/>
		</g>
		<g id="Line-Copy-15-decoration-1">
			<path class="st1" d="M2517,758l-10.4-4.3l-0.7,6L2517,758z"/>
			<polygon class="st1" points="2501.3,764.4 2503.3,748 2531.8,759.8 			"/>
		</g>
		<g id="Line-Copy-16">
			<path sketch:type="MSShapeGroup" class="st1" d="M2184,683l340-44"/>
			
				<rect x="2178.6" y="657" transform="matrix(0.9917 -0.1284 0.1284 0.9917 -65.3944 307.7754)" class="st1" width="350.8" height="8"/>
		</g>
		<g id="Line-Copy-16-decoration-1">
			<path class="st1" d="M2524,639l-11.1-1.6l0.8,6L2524,639z"/>
			<polygon class="st1" points="2510.4,649.1 2508.3,632.7 2538.8,637.1 			"/>
		</g>
		<g id="Line-Copy-17">
			<path class="st1" d="M2638.7,599.6l-3.3-2.2c-0.4-0.2-36.5-23.7-108.6-52.9c-66.5-26.9-178.1-64.3-332-89.6
				c-154-25.3-284.8-24-367.4-18.4c-89.4,6.1-143,18.2-143.5,18.3l-3.9,0.9l-1.8-7.8l3.9-0.9c0.5-0.1,54.7-12.4,144.7-18.5
				c83-5.6,214.4-7,369.2,18.5c85.4,14.1,212.7,41.1,334,90.3c72.7,29.4,109.3,53.3,109.6,53.5l3.3,2.2L2638.7,599.6z"/>
		</g>
		<g id="Line-Copy-17-decoration-1">
			<polygon class="st1" points="1668.2,459.2 1668.2,442.7 1697.9,450.9 			"/>
		</g>
		<g id="Line-Copy-4">
			<path sketch:type="MSShapeGroup" class="st1" d="M1370,414l139-146"/>
			
				<rect x="1334.7" y="337" transform="matrix(0.6896 -0.7242 0.7242 0.6896 199.9157 1148.3859)" class="st1" width="209.6" height="8"/>
		</g>
		<g id="Line-Copy-4-decoration-1">
			<path class="st1" d="M1509,268l-9.6,5.8l4.3,4.1L1509,268z"/>
			<polygon class="st1" points="1504.8,284.4 1492.8,273 1519.3,257.2 			"/>
		</g>
		<g id="Line-Copy-5">
			<path sketch:type="MSShapeGroup" class="st1" d="M1394,555l120.1,64.9"/>
			
				<rect x="1450.1" y="515.2" transform="matrix(0.4751 -0.8799 0.8799 0.4751 246.2795 1587.7462)" class="st1" width="8" height="144.5"/>
		</g>
		<g id="Line-Copy-5-decoration-1">
			<path class="st1" d="M1514.1,619.9l-8.1-7.8l-2.9,5.3L1514.1,619.9z"/>
			<polygon class="st1" points="1527.3,627 1497.2,620.1 1505,605.6 			"/>
		</g>
		<g id="Line-Copy-6">
			<path sketch:type="MSShapeGroup" class="st1" d="M1330.9,579l158,264.9"/>
			
				<rect x="1405.9" y="553.3" transform="matrix(0.8588 -0.5123 0.5123 0.8588 -165.4306 822.7301)" class="st1" width="8" height="316.5"/>
		</g>
		<g id="Line-Copy-6-decoration-1">
			<path class="st1" d="M1488.9,843.9l-3-10.8l-5.2,3.1L1488.9,843.9z"/>
			<polygon class="st1" points="1496.6,856.8 1474.2,835.5 1488.4,827 			"/>
		</g>
		<g id="Line-Copy-12">
			<path sketch:type="MSShapeGroup" class="st1" d="M930,566l1017,201"/>
			
				<rect x="1434.5" y="144.2" transform="matrix(0.1939 -0.981 0.981 0.1939 505.7382 1948.4747)" class="st1" width="8" height="1044.7"/>
		</g>
		<g id="Line-Copy-12-decoration-1">
			<path class="st1" d="M1947,767l-10-5l-1.2,5.9L1947,767z"/>
			<polygon class="st1" points="1930.9,772.2 1934.1,756 1961.7,769.9 			"/>
		</g>
	</g>
</g>
</svg>
