<?xml version="1.0" encoding="utf-8"?>
<!-- Generator: Adobe Illustrator 16.0.0, SVG Export Plug-In . SVG Version: 6.00 Build 0)  -->
<!DOCTYPE svg PUBLIC "-//W3C//DTD SVG 1.1//EN" "http://www.w3.org/Graphics/SVG/1.1/DTD/svg11.dtd">
<svg version="1.1" id="Layer_1" xmlns="http://www.w3.org/2000/svg" xmlns:xlink="http://www.w3.org/1999/xlink" x="0px" y="0px"
	 width="612px" height="276.471px" viewBox="0 0 612 276.471" enable-background="new 0 0 612 276.471" xml:space="preserve">
<polygon fill="#E56485" points="157.29,150.729 217.29,150.729 187.29,98.77 182.83,91.029 148.36,150.729 139.42,166.199 
	130.49,181.68 126.02,189.409 96.02,241.379 87.09,256.849 69.22,256.849 78.16,241.379 87.09,225.909 96.02,210.439 
	117.09,173.939 121.56,166.199 117.09,158.469 69.22,75.56 164.96,75.56 156.03,91.029 96.02,91.029 126.02,142.999 130.49,150.729 
	182.83,60.09 191.76,75.56 196.22,83.299 244.09,166.199 148.36,166.199 "/>
<polygon fill="none" points="273.23,141.729 263.13,141.729 268.2,128.68 "/>
<path fill="#E56485" d="M271.81,118.599h-7.33l-14.65,38.011h7.51l3.11-7.83h15.5l2.97,7.83h7.52L271.81,118.599z M263.13,141.729
	l5.07-13.05l5.03,13.05H263.13z"/>
<polygon fill="none" points="273.23,141.729 263.13,141.729 268.2,128.68 "/>
<rect x="290.52" y="117.649" fill="#E56485" width="7.05" height="38.96"/>
<path fill="#E56485" d="M346.97,140.129v16.48h-7.109v-14.261c0-3.189-0.391-5.339-1.18-6.47c-0.801-1.13-1.991-1.699-3.57-1.699
	c-1.211,0-2.28,0.35-3.24,1.039c-0.96,0.69-1.67,1.641-2.13,2.851c-0.471,1.22-0.7,3.17-0.7,5.86v12.68h-7.101v-13.62
	c0-2.51-0.189-4.33-0.56-5.46s-0.93-1.97-1.67-2.52s-1.63-0.83-2.68-0.83c-1.17,0-2.24,0.35-3.2,1.05
	c-0.95,0.7-1.67,1.67-2.141,2.93c-0.47,1.26-0.71,3.24-0.71,5.939v12.511h-7.08v-28.11h7.08v3.23c1.21-1.33,2.551-2.32,4.021-2.97
	c1.47-0.661,3.08-0.98,4.819-0.98c1.75,0,3.341,0.431,4.75,1.29c1.411,0.86,2.551,2.12,3.411,3.771c1.12-1.65,2.489-2.91,4.12-3.771
	c1.63-0.859,3.409-1.29,5.339-1.29c1.991,0,3.75,0.46,5.271,1.39c1.51,0.93,2.601,2.15,3.271,3.641
	C346.64,134.31,346.97,136.749,346.97,140.129z"/>
<path fill="#E56485" d="M378.36,128.499v11.91c0,4.91-0.391,8.271-1.16,10.08c-0.95,2.2-2.34,3.89-4.19,5.07
	c-1.84,1.18-4.18,1.77-7.02,1.77c-3.091,0-5.58-0.689-7.48-2.069c-1.91-1.37-3.25-3.291-4.02-5.75
	c-0.551-1.711-0.83-4.811-0.83-9.311v-11.7h7.13v13.54c0,2.63,0.18,4.46,0.55,5.49c0.36,1.02,0.94,1.819,1.74,2.39
	s1.79,0.851,2.96,0.851s2.17-0.28,2.979-0.84c0.82-0.561,1.431-1.381,1.82-2.47c0.3-0.811,0.44-2.541,0.44-5.19v-13.771H378.36z"/>
<path fill="#E56485" d="M410.37,138.029v18.58h-6.95v-12.33c0-3.25-0.15-5.45-0.47-6.61c-0.301-1.149-0.83-2.01-1.58-2.579
	c-0.75-0.57-1.681-0.851-2.78-0.851c-1.43,0-2.659,0.471-3.68,1.42c-1.03,0.939-1.74,2.24-2.13,3.87
	c-0.211,0.85-0.311,2.78-0.311,5.79v11.29h-7.01v-38.96h7.01v13.69c1.37-1.19,2.761-2.08,4.16-2.671c1.39-0.6,2.81-0.89,4.23-0.89
	c2.789,0,5.14,0.96,7.06,2.89C409.55,132.34,410.37,134.799,410.37,138.029z"/>
<path fill="#E56485" d="M437.96,128.499v3.1c-1.25-1.27-2.62-2.229-4.1-2.869c-1.48-0.631-3.07-0.95-4.761-0.95
	c-3.669,0-6.78,1.38-9.35,4.16c-2.569,2.771-3.851,6.33-3.851,10.67c0,4.18,1.331,7.68,3.98,10.5c2.65,2.82,5.79,4.22,9.431,4.22
	c1.62,0,3.12-0.29,4.509-0.86c1.391-0.579,2.761-1.52,4.141-2.829v2.97h7.03v-28.11H437.96z M436.1,148.56
	c-1.46,1.539-3.3,2.31-5.52,2.31c-2.16,0-3.97-0.779-5.44-2.35c-1.479-1.56-2.209-3.56-2.209-5.99c0-2.41,0.719-4.39,2.169-5.931
	c1.44-1.539,3.261-2.31,5.45-2.31c2.24,0,4.09,0.75,5.55,2.271c1.47,1.52,2.2,3.5,2.2,5.939
	C438.3,144.999,437.569,147.02,436.1,148.56z"/>
<path fill="#E56485" d="M477.05,138.029v18.58h-6.97v-12.33c0-3.35-0.149-5.58-0.45-6.689c-0.3-1.101-0.83-1.94-1.58-2.511
	c-0.75-0.58-1.68-0.869-2.78-0.869c-1.43,0-2.659,0.479-3.68,1.43c-1.029,0.959-1.729,2.279-2.13,3.97
	c-0.21,0.88-0.31,2.78-0.31,5.71v11.29h-7.03v-28.11h7.03v2.87c1.6-1.35,3.05-2.279,4.35-2.81c1.3-0.521,2.63-0.78,3.99-0.78
	c2.79,0,5.16,0.97,7.109,2.92C476.24,132.349,477.05,134.799,477.05,138.029z"/>
<path fill="#E56485" d="M508.811,138.029v18.58h-6.98v-12.33c0-3.35-0.149-5.58-0.45-6.689c-0.311-1.101-0.83-1.94-1.58-2.511
	c-0.75-0.58-1.67-0.869-2.78-0.869c-1.43,0-2.649,0.479-3.68,1.43c-1.021,0.959-1.729,2.279-2.13,3.97
	c-0.21,0.88-0.31,2.78-0.31,5.71v11.29h-7.03v-28.11h7.03v2.87c1.6-1.35,3.06-2.279,4.359-2.81c1.301-0.521,2.63-0.78,3.99-0.78
	c2.79,0,5.15,0.97,7.1,2.92C507.99,132.349,508.811,134.799,508.811,138.029z"/>
<path fill="#E56485" d="M536.399,128.499v3.1c-1.26-1.27-2.63-2.229-4.109-2.869c-1.479-0.631-3.07-0.95-4.75-0.95
	c-3.67,0-6.79,1.38-9.351,4.16c-2.569,2.771-3.859,6.33-3.859,10.67c0,4.18,1.33,7.68,3.98,10.5c2.649,2.82,5.8,4.22,9.43,4.22
	c1.62,0,3.12-0.29,4.51-0.86c1.39-0.579,2.77-1.52,4.149-2.829v2.97h7.031v-28.11H536.399z M534.54,148.56
	c-1.471,1.539-3.31,2.31-5.53,2.31c-2.149,0-3.97-0.779-5.44-2.35c-1.47-1.56-2.209-3.56-2.209-5.99c0-2.41,0.72-4.39,2.17-5.931
	c1.45-1.539,3.27-2.31,5.45-2.31c2.239,0,4.089,0.75,5.56,2.271c1.46,1.52,2.19,3.5,2.19,5.939
	C536.73,144.999,536,147.02,534.54,148.56z"/>
<polygon fill="#E56485" points="245.73,68.899 234.62,90.439 234.62,106.899 227.33,106.899 227.33,90.439 216.17,68.899 
	223.95,68.899 231.03,82.539 238.06,68.899 "/>
<path fill="#E56485" d="M271.69,78.789v3.101c-1.25-1.271-2.62-2.23-4.1-2.86c-1.48-0.64-3.07-0.96-4.76-0.96
	c-3.67,0-6.79,1.391-9.35,4.16c-2.57,2.77-3.85,6.33-3.85,10.67c0,4.18,1.33,7.69,3.98,10.5c2.65,2.819,5.8,4.229,9.43,4.229
	c1.62,0,3.12-0.289,4.51-0.869c1.38-0.581,2.76-1.521,4.14-2.831v2.971h7.03v-28.11H271.69z M269.83,98.849
	c-1.46,1.551-3.3,2.32-5.53,2.32c-2.15,0-3.96-0.79-5.43-2.35c-1.48-1.57-2.21-3.57-2.21-6c0-2.41,0.72-4.391,2.17-5.93
	c1.44-1.541,3.26-2.311,5.45-2.311c2.24,0,4.09,0.761,5.55,2.27c1.47,1.521,2.2,3.5,2.2,5.95
	C272.03,95.289,271.3,97.31,269.83,98.849z"/>
<path fill="#E56485" d="M303.57,98.869c0,2.5-0.91,4.58-2.75,6.25c-1.83,1.67-4.29,2.51-7.37,2.51c-4.1,0-7.37-1.6-9.82-4.81
	c1.45-1.57,2.89-3.15,4.34-4.729c0.83,0.97,1.79,1.75,2.91,2.339c1.11,0.591,2.09,0.891,2.95,0.891c0.94,0,1.68-0.221,2.25-0.67
	c0.57-0.45,0.86-0.96,0.86-1.551c0-1.089-1.03-2.149-3.08-3.18c-0.79-0.39-1.58-0.79-2.38-1.18c-4.54-2.3-6.81-5.16-6.81-8.61
	c0-2.22,0.85-4.119,2.56-5.7c1.72-1.569,3.91-2.359,6.58-2.359c1.83,0,3.54,0.399,5.15,1.2c1.62,0.8,2.98,1.949,4.1,3.449
	l-4.37,4.371c-1.77-1.761-3.38-2.641-4.83-2.641c-0.79,0-1.41,0.17-1.86,0.5c-0.45,0.34-0.67,0.761-0.67,1.261
	c0,0.38,0.14,0.729,0.43,1.05c0.28,0.31,0.98,0.75,2.1,1.3c0.86,0.43,1.72,0.859,2.58,1.289c2.73,1.351,4.6,2.711,5.61,4.111
	C303.07,95.349,303.57,96.989,303.57,98.869z"/>
<path fill="#E56485" d="M352.149,90.419v16.48h-7.109V92.64c0-3.19-0.391-5.341-1.19-6.471c-0.789-1.13-1.979-1.689-3.56-1.689
	c-1.21,0-2.29,0.34-3.24,1.03c-0.96,0.689-1.67,1.64-2.14,2.859c-0.46,1.21-0.69,3.16-0.69,5.85v12.681h-7.109v-13.61
	c0-2.52-0.18-4.34-0.55-5.47c-0.371-1.12-0.931-1.96-1.671-2.521c-0.74-0.55-1.64-0.819-2.689-0.819c-1.17,0-2.23,0.34-3.19,1.05
	c-0.949,0.689-1.67,1.67-2.14,2.931c-0.48,1.25-0.71,3.229-0.71,5.939v12.5h-7.08v-28.11h7.08v3.23c1.2-1.32,2.54-2.31,4.021-2.971
	c1.469-0.649,3.069-0.979,4.81-0.979c1.76,0,3.34,0.43,4.76,1.29c1.41,0.859,2.55,2.12,3.41,3.77c1.12-1.649,2.489-2.91,4.12-3.77
	c1.63-0.86,3.4-1.29,5.33-1.29c2,0,3.76,0.46,5.27,1.391c1.52,0.93,2.61,2.149,3.27,3.649
	C351.819,84.609,352.149,87.039,352.149,90.419z"/>
<path fill="#E56485" d="M387.05,93.549c0-4.649-1.39-8.399-4.16-11.229c-2.77-2.83-6.37-4.25-10.8-4.25c-4.17,0-7.63,1.42-10.4,4.25
	c-2.759,2.83-4.14,6.391-4.14,10.68c0,4.19,1.381,7.67,4.16,10.45c2.771,2.78,6.359,4.18,10.771,4.18c2.839,0,5.289-0.51,7.359-1.51
	c2.07-1.01,3.841-2.57,5.33-4.67c-1.989-0.93-3.97-1.859-5.95-2.79c-1.89,1.84-4.159,2.77-6.789,2.77
	c-2.211,0-4.021-0.589-5.44-1.77c-1.421-1.18-2.29-2.77-2.62-4.77h22.649C387.03,94.439,387.04,93.989,387.05,93.549z
	 M364.681,89.34c0.789-1.75,1.649-2.961,2.579-3.65c1.48-1.1,3.2-1.65,5.171-1.65c1.8,0,3.389,0.49,4.759,1.471
	c1.371,0.979,2.291,2.26,2.761,3.83H364.681z"/>
<path fill="#E56485" d="M420.92,93.549c0-4.649-1.38-8.399-4.16-11.229c-2.77-2.83-6.37-4.25-10.8-4.25
	c-4.17,0-7.63,1.42-10.399,4.25c-2.761,2.83-4.141,6.391-4.141,10.68c0,4.19,1.38,7.67,4.16,10.45c2.77,2.78,6.359,4.18,10.77,4.18
	c2.84,0,5.3-0.51,7.36-1.51c2.07-1.01,3.851-2.57,5.33-4.67c-1.979-0.93-3.971-1.859-5.94-2.79c-1.899,1.84-4.169,2.77-6.8,2.77
	c-2.21,0-4.02-0.589-5.439-1.77c-1.421-1.18-2.3-2.77-2.62-4.77h22.659C420.91,94.439,420.91,93.989,420.92,93.549z M398.55,89.34
	c0.79-1.75,1.65-2.961,2.58-3.65c1.48-1.1,3.2-1.65,5.17-1.65c1.811,0,3.4,0.49,4.77,1.471c1.361,0.979,2.28,2.26,2.75,3.83H398.55z
	"/>
<path fill="#E56485" d="M451.54,88.329v18.57h-6.979v-12.32c0-3.36-0.15-5.59-0.45-6.689c-0.3-1.101-0.83-1.94-1.58-2.521
	s-1.67-0.87-2.78-0.87c-1.42,0-2.65,0.48-3.681,1.44c-1.02,0.95-1.729,2.271-2.13,3.96c-0.199,0.88-0.31,2.79-0.31,5.71v11.29h-7.03
	v-28.11h7.03v2.87c1.61-1.34,3.051-2.28,4.351-2.8c1.31-0.53,2.64-0.79,4-0.79c2.789,0,5.159,0.97,7.1,2.92
	C450.72,82.64,451.54,85.09,451.54,88.329z"/>
</svg>
