<?xml version="1.0" encoding="utf-8"?>
<!-- Generator: Adobe Illustrator 16.0.0, SVG Export Plug-In . SVG Version: 6.00 Build 0)  -->
<!DOCTYPE svg PUBLIC "-//W3C//DTD SVG 1.1//EN" "http://www.w3.org/Graphics/SVG/1.1/DTD/svg11.dtd">
<svg version="1.1" id="Layer_1" xmlns="http://www.w3.org/2000/svg" xmlns:xlink="http://www.w3.org/1999/xlink" x="0px" y="0px"
	 width="306.276px" height="113.162px" viewBox="0 0 306.276 113.162" enable-background="new 0 0 306.276 113.162"
	 xml:space="preserve">
<g>
	<path fill="#67C9D3" d="M13.213,52.891c-1.616,0.851-3.142,1.814-4.604,2.907C5.057,58.451,0,55.915,0,51.482
		c0-15.365,0-30.73,0-46.096C0,2.411,2.413,0,5.388,0c13.489,0.017,26.978,0.033,40.467,0.05c31.235,0,56.555,25.322,56.555,56.556
		c0,31.235-25.321,56.556-56.556,56.556c-5.468,0-10.936,0-16.404,0C13.185,113.162,0,99.976,0,83.712
		c0-16.266,13.185-29.45,29.45-29.45c4.454,0,8.907,0,13.361,0c2.975,0,5.387,2.412,5.387,5.386c0,1.773,0,3.545,0,5.316
		c0,2.975-2.412,5.387-5.387,5.387c-4.454,0-8.907,0-13.361,0c-7.379,0-13.361,5.982-13.361,13.361s5.982,13.361,13.361,13.361
		c5.468,0,10.936,0,16.404,0c22.35,0,40.467-18.119,40.467-40.468c0-22.35-18.118-40.467-40.467-40.467c-9.921,0-19.843,0-29.765,0
		c0,10.662,0,21.325,0,31.987C16.089,50.125,14.982,51.959,13.213,52.891z"/>
	<g>
		<path fill="#67C9D3" d="M148.838,36.667c0,2.528-0.436,4.86-1.308,6.996c-0.873,2.136-2.1,3.984-3.684,5.544
			s-3.492,2.776-5.724,3.648c-2.232,0.873-4.708,1.308-7.428,1.308H117.11V19.195h13.584c2.72,0,5.196,0.44,7.428,1.32
			s4.14,2.096,5.724,3.648c1.584,1.552,2.812,3.396,3.684,5.532C148.402,31.831,148.838,34.155,148.838,36.667z M140.534,36.667
			c0-1.728-0.224-3.288-0.672-4.68c-0.448-1.392-1.092-2.572-1.932-3.54c-0.84-0.968-1.868-1.712-3.084-2.232
			c-1.216-0.52-2.601-0.78-4.152-0.78h-5.424v22.488h5.424c1.552,0,2.936-0.26,4.152-0.78c1.216-0.52,2.244-1.264,3.084-2.232
			c0.84-0.968,1.484-2.148,1.932-3.54C140.31,39.979,140.534,38.411,140.534,36.667z"/>
		<path fill="#67C9D3" d="M160.79,22.458c0,0.592-0.12,1.148-0.36,1.668c-0.24,0.52-0.568,0.976-0.984,1.368s-0.9,0.704-1.452,0.936
			c-0.552,0.232-1.14,0.348-1.764,0.348c-0.608,0-1.176-0.116-1.704-0.348c-0.528-0.232-0.996-0.544-1.404-0.936
			s-0.729-0.848-0.96-1.368c-0.232-0.52-0.348-1.076-0.348-1.668c0-0.608,0.116-1.176,0.348-1.704
			c0.231-0.528,0.552-0.992,0.96-1.392s0.876-0.712,1.404-0.936c0.528-0.224,1.096-0.336,1.704-0.336
			c0.624,0,1.212,0.112,1.764,0.336c0.552,0.224,1.036,0.536,1.452,0.936s0.744,0.864,0.984,1.392
			C160.67,21.283,160.79,21.851,160.79,22.458z M160.022,29.274v24.888h-7.44V29.274H160.022z"/>
		<path fill="#67C9D3" d="M164.677,32.73c1.504-1.328,3.172-2.316,5.004-2.964c1.832-0.648,3.795-0.972,5.892-0.972
			c1.504,0,2.86,0.244,4.069,0.732c1.207,0.488,2.231,1.168,3.071,2.04c0.841,0.873,1.483,1.908,1.933,3.108
			c0.447,1.2,0.672,2.512,0.672,3.936v15.552h-3.408c-0.705,0-1.236-0.096-1.596-0.288c-0.36-0.192-0.66-0.592-0.9-1.2l-0.528-1.368
			c-0.624,0.528-1.224,0.992-1.8,1.392s-1.172,0.74-1.788,1.02s-1.272,0.488-1.968,0.624c-0.696,0.136-1.468,0.204-2.316,0.204
			c-1.136,0-2.168-0.148-3.096-0.444c-0.928-0.296-1.716-0.732-2.364-1.308c-0.648-0.576-1.148-1.292-1.5-2.148
			c-0.353-0.855-0.528-1.844-0.528-2.964c0-0.896,0.224-1.804,0.672-2.724c0.448-0.92,1.224-1.76,2.328-2.52
			c1.104-0.76,2.592-1.396,4.464-1.908c1.872-0.512,4.232-0.8,7.081-0.864v-1.056c0-1.456-0.301-2.508-0.9-3.156
			s-1.452-0.972-2.556-0.972c-0.88,0-1.6,0.096-2.16,0.288c-0.561,0.192-1.06,0.408-1.5,0.648c-0.44,0.24-0.868,0.456-1.284,0.648
			c-0.416,0.192-0.912,0.288-1.488,0.288c-0.512,0-0.944-0.128-1.296-0.384s-0.64-0.56-0.864-0.912L164.677,32.73z M178.07,44.035
			c-1.488,0.064-2.712,0.192-3.672,0.384c-0.96,0.192-1.72,0.432-2.28,0.72c-0.561,0.288-0.948,0.616-1.164,0.984
			c-0.216,0.368-0.324,0.768-0.324,1.2c0,0.848,0.232,1.444,0.696,1.788c0.464,0.344,1.144,0.516,2.04,0.516
			c0.96,0,1.8-0.168,2.52-0.504s1.448-0.88,2.185-1.632V44.035z"/>
		<path fill="#67C9D3" d="M196.933,31.962c0.48-0.448,0.977-0.864,1.488-1.248c0.512-0.384,1.06-0.708,1.645-0.972
			c0.584-0.264,1.215-0.472,1.896-0.624c0.68-0.152,1.419-0.228,2.22-0.228c1.359,0,2.564,0.236,3.612,0.708
			c1.048,0.472,1.932,1.128,2.651,1.968c0.721,0.84,1.264,1.84,1.633,3c0.367,1.161,0.552,2.42,0.552,3.78v15.816h-7.44V38.347
			c0-1.216-0.279-2.164-0.84-2.844c-0.561-0.68-1.384-1.02-2.472-1.02c-0.815,0-1.581,0.172-2.292,0.516
			c-0.713,0.344-1.404,0.812-2.076,1.404v17.76h-7.439V29.274h4.607c0.928,0,1.536,0.417,1.824,1.248L196.933,31.962z"/>
		<path fill="#67C9D3" d="M216.876,32.73c1.504-1.328,3.172-2.316,5.004-2.964s3.796-0.972,5.893-0.972
			c1.504,0,2.859,0.244,4.068,0.732c1.207,0.488,2.231,1.168,3.071,2.04c0.841,0.873,1.483,1.908,1.933,3.108
			c0.447,1.2,0.672,2.512,0.672,3.936v15.552h-3.408c-0.705,0-1.236-0.096-1.596-0.288c-0.36-0.192-0.66-0.592-0.9-1.2l-0.528-1.368
			c-0.624,0.528-1.224,0.992-1.8,1.392s-1.172,0.74-1.788,1.02s-1.272,0.488-1.968,0.624c-0.696,0.136-1.469,0.204-2.316,0.204
			c-1.136,0-2.168-0.148-3.096-0.444s-1.716-0.732-2.363-1.308c-0.648-0.576-1.148-1.292-1.5-2.148
			c-0.354-0.855-0.529-1.844-0.529-2.964c0-0.896,0.225-1.804,0.672-2.724c0.448-0.92,1.225-1.76,2.328-2.52
			c1.104-0.76,2.593-1.396,4.465-1.908c1.871-0.512,4.231-0.8,7.08-0.864v-1.056c0-1.456-0.301-2.508-0.9-3.156
			s-1.452-0.972-2.557-0.972c-0.879,0-1.6,0.096-2.159,0.288c-0.561,0.192-1.06,0.408-1.5,0.648c-0.44,0.24-0.868,0.456-1.284,0.648
			c-0.416,0.192-0.912,0.288-1.488,0.288c-0.512,0-0.943-0.128-1.296-0.384s-0.64-0.56-0.864-0.912L216.876,32.73z M230.269,44.035
			c-1.488,0.064-2.713,0.192-3.672,0.384c-0.961,0.192-1.721,0.432-2.28,0.72c-0.561,0.288-0.948,0.616-1.164,0.984
			c-0.216,0.368-0.324,0.768-0.324,1.2c0,0.848,0.231,1.444,0.696,1.788c0.464,0.344,1.144,0.516,2.039,0.516
			c0.961,0,1.801-0.168,2.521-0.504s1.448-0.88,2.185-1.632V44.035z"/>
		<path fill="#67C9D3" d="M140.678,85.115c0.192,0,0.384,0.035,0.576,0.107c0.192,0.072,0.376,0.197,0.552,0.373l3.216,3.383
			c-1.408,1.841-3.172,3.229-5.292,4.164c-2.12,0.937-4.628,1.404-7.524,1.404c-2.656,0-5.036-0.451-7.14-1.355
			s-3.888-2.152-5.352-3.744c-1.464-1.592-2.588-3.48-3.372-5.664c-0.784-2.184-1.176-4.557-1.176-7.116
			c0-2.607,0.424-5.004,1.272-7.188c0.848-2.184,2.04-4.067,3.576-5.651s3.375-2.815,5.52-3.696c2.144-0.879,4.503-1.32,7.08-1.32
			c1.312,0,2.547,0.117,3.708,0.349c1.16,0.231,2.244,0.552,3.252,0.96c1.008,0.408,1.936,0.9,2.784,1.477
			c0.848,0.575,1.6,1.199,2.256,1.871l-2.736,3.672c-0.176,0.225-0.384,0.429-0.624,0.612c-0.24,0.185-0.576,0.276-1.008,0.276
			c-0.288,0-0.56-0.064-0.816-0.192c-0.256-0.128-0.528-0.284-0.816-0.468c-0.288-0.184-0.604-0.385-0.948-0.6
			c-0.344-0.217-0.752-0.416-1.224-0.601c-0.472-0.184-1.024-0.34-1.656-0.468c-0.632-0.128-1.372-0.191-2.22-0.191
			c-1.344,0-2.572,0.248-3.684,0.743c-1.112,0.496-2.072,1.22-2.88,2.172s-1.432,2.12-1.872,3.505
			c-0.44,1.383-0.66,2.963-0.66,4.739c0,1.792,0.244,3.384,0.732,4.776c0.488,1.392,1.152,2.564,1.992,3.516
			c0.84,0.952,1.82,1.676,2.94,2.172c1.12,0.496,2.319,0.744,3.6,0.744c0.736,0,1.408-0.036,2.016-0.107
			c0.608-0.072,1.176-0.192,1.704-0.36s1.024-0.392,1.488-0.673c0.464-0.279,0.936-0.635,1.416-1.067
			c0.192-0.159,0.4-0.292,0.624-0.396C140.206,85.167,140.438,85.115,140.678,85.115z"/>
		<path fill="#67C9D3" d="M158.654,68.89c1.888,0,3.608,0.297,5.16,0.889s2.884,1.439,3.996,2.544
			c1.112,1.104,1.976,2.444,2.592,4.021c0.616,1.576,0.924,3.348,0.924,5.315c0,1.983-0.308,3.772-0.924,5.364
			c-0.616,1.592-1.48,2.943-2.592,4.056c-1.112,1.112-2.444,1.968-3.996,2.567c-1.552,0.601-3.272,0.9-5.16,0.9
			c-1.904,0-3.636-0.3-5.196-0.9c-1.56-0.6-2.904-1.455-4.032-2.567s-2-2.464-2.616-4.056c-0.616-1.592-0.924-3.381-0.924-5.364
			c0-1.968,0.308-3.739,0.924-5.315c0.616-1.576,1.488-2.916,2.616-4.021s2.472-1.952,4.032-2.544S156.75,68.89,158.654,68.89z
			 M158.654,89.027c1.712,0,2.972-0.604,3.78-1.812c0.808-1.207,1.212-3.043,1.212-5.508c0-2.464-0.404-4.296-1.212-5.496
			c-0.808-1.199-2.068-1.8-3.78-1.8c-1.76,0-3.048,0.601-3.864,1.8c-0.816,1.2-1.224,3.032-1.224,5.496
			c0,2.465,0.408,4.301,1.224,5.508C155.606,88.423,156.894,89.027,158.654,89.027z"/>
		<path fill="#67C9D3" d="M181.933,71.962c0.48-0.447,0.977-0.863,1.488-1.248c0.512-0.384,1.061-0.707,1.645-0.972
			s1.216-0.472,1.896-0.624c0.68-0.152,1.419-0.229,2.219-0.229c1.36,0,2.564,0.236,3.613,0.709
			c1.047,0.472,1.932,1.127,2.651,1.967c0.72,0.841,1.264,1.841,1.632,3c0.368,1.161,0.553,2.421,0.553,3.781v15.815h-7.44V78.347
			c0-1.217-0.28-2.164-0.841-2.845c-0.56-0.68-1.383-1.021-2.471-1.021c-0.816,0-1.581,0.173-2.293,0.517
			c-0.712,0.345-1.404,0.812-2.076,1.404v17.76h-7.439V69.275h4.607c0.928,0,1.537,0.416,1.824,1.248L181.933,71.962z"/>
		<path fill="#67C9D3" d="M209.293,71.962c0.479-0.447,0.976-0.863,1.488-1.248c0.512-0.384,1.06-0.707,1.644-0.972
			s1.217-0.472,1.896-0.624s1.42-0.229,2.22-0.229c1.36,0,2.563,0.236,3.612,0.709c1.048,0.472,1.932,1.127,2.652,1.967
			c0.72,0.841,1.264,1.841,1.631,3c0.369,1.161,0.553,2.421,0.553,3.781v15.815h-7.439V78.347c0-1.217-0.281-2.164-0.841-2.845
			c-0.56-0.68-1.384-1.021-2.472-1.021c-0.816,0-1.58,0.173-2.292,0.517c-0.712,0.345-1.404,0.812-2.076,1.404v17.76h-7.44V69.275
			h4.608c0.928,0,1.536,0.416,1.824,1.248L209.293,71.962z"/>
		<path fill="#67C9D3" d="M241.261,68.89c1.888,0,3.607,0.297,5.16,0.889c1.551,0.592,2.883,1.439,3.996,2.544
			c1.111,1.104,1.976,2.444,2.592,4.021c0.615,1.576,0.924,3.348,0.924,5.315c0,1.983-0.309,3.772-0.924,5.364
			c-0.616,1.592-1.48,2.943-2.592,4.056c-1.113,1.112-2.445,1.968-3.996,2.567c-1.553,0.601-3.272,0.9-5.16,0.9
			c-1.904,0-3.637-0.3-5.196-0.9c-1.56-0.6-2.903-1.455-4.032-2.567c-1.127-1.112-2-2.464-2.615-4.056
			c-0.617-1.592-0.924-3.381-0.924-5.364c0-1.968,0.307-3.739,0.924-5.315c0.615-1.576,1.488-2.916,2.615-4.021
			c1.129-1.104,2.473-1.952,4.032-2.544S239.357,68.89,241.261,68.89z M241.261,89.027c1.712,0,2.972-0.604,3.779-1.812
			c0.809-1.207,1.213-3.043,1.213-5.508c0-2.464-0.404-4.296-1.213-5.496c-0.808-1.199-2.067-1.8-3.779-1.8
			c-1.76,0-3.049,0.601-3.864,1.8c-0.815,1.2-1.224,3.032-1.224,5.496c0,2.465,0.408,4.301,1.224,5.508
			C238.212,88.423,239.501,89.027,241.261,89.027z"/>
		<path fill="#67C9D3" d="M265.117,58.234v35.929h-7.439V58.234H265.117z"/>
		<path fill="#67C9D3" d="M277.596,58.234v35.929h-7.44V58.234H277.596z"/>
		<path fill="#67C9D3" d="M306.276,69.275l-13.296,31.344c-0.225,0.496-0.496,0.859-0.816,1.092s-0.832,0.348-1.535,0.348h-5.568
			l4.8-10.08l-9.937-22.703h6.576c0.576,0,1.02,0.128,1.332,0.384s0.54,0.56,0.684,0.912l4.08,10.728
			c0.385,0.977,0.696,1.977,0.937,3c0.176-0.512,0.352-1.023,0.528-1.535c0.176-0.513,0.359-1.017,0.552-1.513l3.696-10.68
			c0.144-0.368,0.399-0.676,0.768-0.925c0.367-0.247,0.768-0.371,1.2-0.371H306.276z"/>
	</g>
</g>
</svg>
