<svg xmlns="http://www.w3.org/2000/svg" xmlns:xlink="http://www.w3.org/1999/xlink" width="196" height="54.667" x="0" y="0" enable-background="new 0 0 196 54.667" version="1.1" viewBox="0 0 196 54.667" xml:space="preserve"><g id="Layer_1"><path fill="#4FBA6F" d="M10.541,16.639c-1.373,2.503-2.258,5.237-2.613,8.069c-0.384,3.069-0.136,6.183,0.73,9.152 c0.865,2.969,2.331,5.729,4.304,8.109c1.823,2.197,4.039,4.027,6.542,5.4s5.237,2.258,8.069,2.613 c3.069,0.384,6.183,0.136,9.151-0.73c2.97-0.866,5.729-2.331,8.11-4.305c2.197-1.822,4.026-4.039,5.399-6.542 c1.372-2.502,2.258-5.237,2.613-8.069c0.384-3.068,0.136-6.183-0.729-9.151c-0.866-2.969-2.332-5.729-4.306-8.109 c-1.822-2.198-4.039-4.027-6.541-5.4c-2.503-1.373-5.237-2.258-8.069-2.613c-3.069-0.385-6.183-0.136-9.152,0.729 c-2.969,0.866-5.728,2.331-8.109,4.305C13.743,11.919,11.913,14.136,10.541,16.639z"/><path fill="#FFF" d="M40.053,27.414c1.396,2.88,1.435,6.232,0.106,9.144c-1.329,2.912-3.887,5.079-6.977,5.912 s-6.391,0.245-9.002-1.604c-2.612-1.849-4.264-4.767-4.505-7.958c-0.033-0.437,0.312-0.809,0.75-0.809c1.008,0,2.015,0,3.021,0 c0.385,0,0.707,0.289,0.749,0.671c0.196,1.814,1.18,3.451,2.688,4.478s3.393,1.339,5.153,0.855 c1.759-0.484,3.218-1.715,3.991-3.369c0.771-1.654,0.78-3.563,0.021-5.223"/><path fill="#FFF" d="M40.053,27.414c-3.005-5.205-6.01-10.409-9.015-15.614c-0.29-0.501-1.013-0.501-1.304,0 c-2.787,4.829-5.574,9.657-8.362,14.486c-0.29,0.501,0.072,1.128,0.651,1.128c1.158,0,2.316,0,3.476,0 c0.269,0,0.518-0.144,0.651-0.376c1.195-2.069,2.39-4.139,3.584-6.208c0.291-0.501,1.014-0.501,1.304,0 c1.671,2.894,3.342,5.788,5.013,8.682"/></g><g id="Layer_2"><polygon fill="none" points="70.845 30.208 63.227 30.208 67.048 22.593"/><path fill="#4FBA6F" d="M174.407,23.438c-0.555,0-0.871,0.362-0.871,0.871v0.918c-0.872-1.428-2.442-1.862-3.821-1.886 c-0.918-0.025-1.79,0.096-2.586,0.458l0.023-0.023c-2.32,0.896-3.676,3.143-3.725,5.585c-0.072,2.37,0.872,4.426,2.708,5.683 c1.017,0.727,2.323,1.04,3.484,1.04c1.425,0,3.216-0.797,3.917-2.201v1.161c0,0.533,0.316,0.871,0.871,0.871 c0.532,0,0.893-0.338,0.893-0.871V24.31C175.3,23.8,174.939,23.438,174.407,23.438z M173.536,30.645 c-0.122,2.418-1.862,3.772-4.087,3.772c-0.895-0.073-1.765-0.363-2.491-0.918c-1.306-1.089-1.813-2.541-1.764-4.11 c0.023-0.628,0.145-1.283,0.362-1.79c0.678-1.692,2.418-2.613,4.136-2.587c2.175,0.096,3.844,1.33,3.844,3.723V30.645z"/><path fill="none" d="M173.536,28.733v1.911c-0.122,2.418-1.862,3.772-4.087,3.772c-0.895-0.073-1.765-0.363-2.491-0.918 c-1.306-1.089-1.813-2.541-1.764-4.11c0.023-0.628,0.145-1.283,0.362-1.79c0.678-1.692,2.418-2.613,4.136-2.587 C171.868,25.107,173.536,26.341,173.536,28.733z"/><path fill="none" d="M173.536,28.733v1.911c-0.122,2.418-1.862,3.772-4.087,3.772c-0.895-0.073-1.765-0.363-2.491-0.918 c-1.306-1.089-1.813-2.541-1.764-4.11c0.023-0.628,0.145-1.283,0.362-1.79c0.678-1.692,2.418-2.613,4.136-2.587 C171.868,25.107,173.536,26.341,173.536,28.733z"/><path fill="#4FBA6F" d="M159.044,24.285c0-1.16-1.717-1.064-1.717,0c0,3.57,0,7.142,0,10.712c0,0.508,0.363,0.847,0.895,0.847 c0.459,0,0.871-0.338,0.871-0.847c0-1.822,0-3.644,0-5.465c0-2.441,1.064-4.424,3.554-4.424c0.557,0,0.919-0.29,0.919-0.822 c0-0.556-0.363-0.846-0.919-0.846c-1.378,0-2.828,0.436-3.602,2.055C159.044,25.091,159.044,24.688,159.044,24.285z"/><path fill="#4FBA6F" d="M155.578,32.312c0-1.346,0-2.692,0-4.038c0-0.532-0.217-0.895-0.919-0.895c-1.709,0-3.417,0-5.126,0 c-1.016,0-1.136,1.596,0,1.596c1.451,0,2.902,0,4.353,0c0,1.072,0,2.144,0,3.216c-1.064,1.427-2.926,2.201-4.715,2.177 c-3.12-0.073-5.876-2.926-5.924-6.335c0-3.168,2.321-5.513,4.981-6.142c1.813-0.459,4.062,0.097,5.417,1.669 c0.75,0.87,1.982-0.291,1.257-1.136c-1.329-1.548-3.579-2.273-5.682-2.273c-0.436,0-0.895,0.023-1.257,0.072 c-3.7,0.701-6.457,4.062-6.457,7.738c-0.097,4.57,3.482,8.027,7.641,8.052c2.346,0.023,4.74-1.016,6.167-2.902 C155.53,32.893,155.578,32.579,155.578,32.312z"/><path fill="#4FBA6F" d="M133.638,23.438c-0.556,0-0.871,0.362-0.871,0.871v0.918c-0.87-1.428-2.442-1.862-3.821-1.886 c-0.918-0.025-1.79,0.096-2.587,0.458l0.024-0.023c-2.321,0.896-3.676,3.143-3.723,5.585c-0.072,2.37,0.869,4.426,2.708,5.683 c1.015,0.727,2.32,1.04,3.482,1.04c1.425,0,3.215-0.797,3.917-2.201v1.161c0,0.533,0.315,0.871,0.871,0.871 c0.53,0,0.895-0.338,0.895-0.871V24.31C134.533,23.8,134.168,23.438,133.638,23.438z M132.767,30.645 c-0.12,2.418-1.863,3.772-4.087,3.772c-0.893-0.073-1.764-0.363-2.489-0.918c-1.306-1.089-1.815-2.541-1.766-4.11 c0.023-0.628,0.145-1.283,0.362-1.79c0.677-1.692,2.418-2.613,4.136-2.587c2.176,0.096,3.844,1.33,3.844,3.723V30.645z"/><path fill="none" d="M132.767,28.733v1.911c-0.12,2.418-1.863,3.772-4.087,3.772c-0.893-0.073-1.764-0.363-2.489-0.918 c-1.306-1.089-1.815-2.541-1.766-4.11c0.023-0.628,0.145-1.283,0.362-1.79c0.677-1.692,2.418-2.613,4.136-2.587 C131.098,25.107,132.767,26.341,132.767,28.733z"/><path fill="none" d="M132.767,28.733v1.911c-0.12,2.418-1.863,3.772-4.087,3.772c-0.893-0.073-1.764-0.363-2.489-0.918 c-1.306-1.089-1.815-2.541-1.766-4.11c0.023-0.628,0.145-1.283,0.362-1.79c0.677-1.692,2.418-2.613,4.136-2.587 C131.098,25.107,132.767,26.341,132.767,28.733z"/><path fill="#4FBA6F" d="M119.795,35.093c0,0.532,0.363,0.846,0.895,0.846c0.556,0,0.871-0.314,0.871-0.846c0-2.135,0-4.271,0-6.408 c0-3.481-2.684-5.417-5.489-5.417c-1.886,0-3.748,0.75-4.619,2.515c0-0.499,0-0.999,0-1.499c0-1.16-1.741-1.136-1.741-0.024 c0,3.611,0,7.222,0,10.833c0,0.532,0.363,0.846,0.919,0.846s0.87-0.314,0.87-0.846c0-1.87,0-3.74,0-5.61 c0-2.636,2.201-4.57,4.546-4.57c1.959,0,3.748,1.547,3.748,3.772C119.795,30.822,119.795,32.958,119.795,35.093z"/><path fill="#4FBA6F" d="M108.675,29.579c-0.057-3.082-1.748-5.297-4.473-6.045h-0.023c-1.187-0.313-2.491-0.336-3.629,0 c-4.498,1.257-5.634,6.821-3.021,10.253c1.136,1.428,3.021,2.152,4.907,2.152c1.573,0.023,3.192-0.412,4.304-1.451 c0.944-0.967-0.312-1.958-1.159-1.184c-0.944,0.726-2.105,1.017-3.217,1.017c-2.416,0-4.11-1.646-4.423-3.629h9.55 C108.481,30.691,108.724,30.112,108.675,29.579z M97.868,29.217c0.145-1.958,1.28-3.578,3.215-4.087 c0.822-0.241,1.813-0.241,2.612-0.023h-0.025c1.886,0.483,3.143,2.057,3.313,4.11H97.868z"/><path fill="none" d="M106.983,29.217h-9.115c0.145-1.958,1.28-3.578,3.215-4.087c0.822-0.241,1.813-0.241,2.612-0.023h-0.025 C105.556,25.59,106.813,27.164,106.983,29.217z"/><path fill="none" d="M106.983,29.217h-9.115c0.145-1.958,1.28-3.578,3.215-4.087c0.822-0.241,1.813-0.241,2.612-0.023h-0.025 C105.556,25.59,106.813,27.164,106.983,29.217z"/><path fill="#4FBA6F" d="M95.438,29.579c-0.056-3.082-1.748-5.297-4.472-6.045h-0.024c-1.184-0.313-2.49-0.336-3.628,0 c-4.496,1.257-5.634,6.821-3.021,10.253c1.135,1.428,3.021,2.152,4.907,2.152c1.572,0.023,3.191-0.412,4.303-1.451 c0.944-0.967-0.313-1.958-1.159-1.184c-0.944,0.726-2.105,1.017-3.217,1.017c-2.417,0-4.11-1.646-4.423-3.629h9.55 C95.246,30.691,95.487,30.112,95.438,29.579z M84.631,29.217c0.145-1.958,1.28-3.578,3.215-4.087 c0.822-0.241,1.813-0.241,2.612-0.023h-0.026c1.886,0.483,3.145,2.057,3.313,4.11H84.631z"/><path fill="none" d="M93.746,29.217h-9.115c0.145-1.958,1.28-3.578,3.215-4.087c0.822-0.241,1.813-0.241,2.612-0.023h-0.026 C92.319,25.59,93.578,27.164,93.746,29.217z"/><path fill="none" d="M93.746,29.217h-9.115c0.145-1.958,1.28-3.578,3.215-4.087c0.822-0.241,1.813-0.241,2.612-0.023h-0.026 C92.319,25.59,93.578,27.164,93.746,29.217z"/><path fill="#4FBA6F" d="M81.249,20.561c0-0.459-0.387-0.822-0.871-0.822c-0.532,0-0.895,0.363-0.895,0.822 c0,4.837,0,9.673,0,14.509c0,0.46,0.363,0.822,0.895,0.822c0.484,0,0.871-0.362,0.871-0.822 C81.249,30.233,81.249,25.397,81.249,20.561z"/><path fill="#4FBA6F" d="M75.584,35.166c0,1.04,1.765,1.064,1.765,0c0-3.635,0-7.27,0-10.905c0-1.04-1.765-1.015-1.765,0.024 C75.584,27.912,75.584,31.539,75.584,35.166z"/><path fill="#4FBA6F" d="M77.374,20.585c0-1.113-1.813-1.113-1.813,0c0,0.362,0,0.725,0,1.088c0,1.112,1.813,1.088,1.813,0 C77.374,21.311,77.374,20.948,77.374,20.585z"/><path fill="#4FBA6F" d="M75.1,34.779c-2.425-4.772-4.851-9.543-7.279-14.315c-0.168-0.313-0.458-0.458-0.773-0.458 c-0.313,0-0.652,0.145-0.797,0.458c-2.435,4.798-4.87,9.592-7.302,14.387c-0.437,0.967,1.159,1.595,1.596,0.701 c0.652-1.273,1.304-2.547,1.958-3.82h9.092c0.629,1.25,1.257,2.5,1.886,3.748C73.938,36.423,75.729,35.818,75.1,34.779z M63.227,30.208l3.821-7.615l3.797,7.615H63.227z"/><polygon fill="none" points="70.845 30.208 63.227 30.208 67.048 22.593"/><path fill="#4FBA6F" d="M181.838,34.948c-0.709,1.442-1.418,2.885-2.127,4.328c-0.459,1.137,1.063,1.742,1.644,0.604 c2.588-5.143,5.174-10.284,7.762-15.427c0.386-1.016-1.209-1.596-1.645-0.653c-1.54,3.12-3.079,6.239-4.619,9.357 c-1.555-3.11-3.11-6.222-4.667-9.333c-0.483-1.088-2.08-0.266-1.644,0.701C178.309,28,180.074,31.474,181.838,34.948z"/></g></svg>