<svg xmlns="http://www.w3.org/2000/svg" xmlns:xlink="http://www.w3.org/1999/xlink" id="Layer_1" width="217.647" height="237.647" x="0" y="0" enable-background="new 0 0 217.647 237.647" version="1.1" viewBox="0 0 217.647 237.647" xml:space="preserve"><polygon fill="#666766" points="110.525 111.906 170.525 111.906 140.525 59.946 136.065 52.206 101.595 111.906 92.655 127.376 83.726 142.856 79.255 150.586 49.255 202.556 40.325 218.025 22.456 218.025 31.396 202.556 40.325 187.086 49.255 171.616 70.325 135.116 74.795 127.376 70.325 119.646 22.456 36.736 118.195 36.736 109.265 52.206 49.255 52.206 79.255 104.176 83.726 111.906 136.065 21.267 144.995 36.736 149.456 44.476 197.325 127.376 101.595 127.376"/><polygon fill="none" points="226.465 102.906 216.365 102.906 221.436 89.856"/><polygon fill="none" points="226.465 102.906 216.365 102.906 221.436 89.856"/></svg>