<svg xmlns="http://www.w3.org/2000/svg" xmlns:xlink="http://www.w3.org/1999/xlink" width="289" height="92" x="0" y="0" enable-background="new 0 0 289 92" version="1.1" viewBox="0 0 289 92" xml:space="preserve"><g id="Layer_1"><path fill="#1D8BB3" d="M142.7,45.477c0-9.825,0-19.65,0-29.477c-12.3,0-24.601,0-36.9,0c10.55,10.551,21.101,21.101,31.651,31.65 C139.388,49.588,142.7,48.216,142.7,45.477z"/><path fill="#1D8BB3" d="M111.049,45.85c10.551,10.55,21.102,21.1,31.651,31.65c-12.3,0-24.601,0-36.9,0c0-9.826,0-19.651,0-29.477 C105.8,45.284,109.112,43.912,111.049,45.85z"/><path fill="#1D8BB3" d="M155,74.425c0-18.45,0-36.899,0-55.35c0-1.698,1.377-3.075,3.075-3.075c2.05,0,4.1,0,6.149,0 c1.698,0,3.075,1.377,3.075,3.075c0,14.351,0,28.7,0,43.05c0,1.698,1.377,3.075,3.075,3.075c14.35,0,28.699,0,43.05,0 c1.698,0,3.075,1.377,3.075,3.075c0,2.05,0,4.1,0,6.149c0,1.698-1.377,3.075-3.075,3.075c-18.45,0-36.9,0-55.35,0 C156.377,77.5,155,76.123,155,74.425z"/><path fill="#1D8BB3" d="M90.42,16H62.75C45.77,16,32,29.77,32,46.75S45.77,77.5,62.75,77.5h27.67c1.7,0,3.08-1.38,3.08-3.08V19.08 C93.5,17.38,92.12,16,90.42,16z M81.2,62.12c0,1.699-1.381,3.08-3.08,3.08H62.75c-10.189,0-18.45-8.261-18.45-18.45 S52.561,28.3,62.75,28.3h15.37c1.699,0,3.08,1.381,3.08,3.08V62.12z"/><path fill="none" d="M81.2,31.38v30.74c0,1.699-1.381,3.08-3.08,3.08H62.75c-10.189,0-18.45-8.261-18.45-18.45 S52.561,28.3,62.75,28.3h15.37C79.819,28.3,81.2,29.681,81.2,31.38z"/><rect width="118" height="63" x="171" y="17" fill="none"/><text display="none" transform="matrix(1 0 0 1 171 33.5)"><tspan x="0" y="0" fill="#1D8BB3" display="inline" font-family="'Edmondsans-Bold'" font-size="22">Danielle </tspan><tspan x="0" y="26.4" fill="#1D8BB3" display="inline" font-family="'Edmondsans-Bold'" font-size="22">Lehmann</tspan></text></g><g id="Layer_2"><path fill="#1D8BB3" d="M178.18,18.4h-4.88v15.53h5.5c4.33,0,7.391-2.89,7.391-7.97C186.19,20.64,183.11,18.4,178.18,18.4z M178.71,31.02h-2.21v-9.69h1.68c3.15,0,4.811,1.17,4.811,4.61C182.99,29.09,181.53,31.02,178.71,31.02z"/><path fill="#1E8BB3" d="M240.673,53.477c0.044-1.441,1.086-2.195,2.017-2.195c1.043,0,1.998,0.775,1.998,2.283 c0,2.085,0,4.171,0,6.256c1.042,0,2.084,0,3.127,0c0-2.144,0-4.289,0-6.433c0-2.906-1.686-4.658-3.926-4.658 c-1.487,0-2.573,0.732-3.282,1.752c0.043-0.31,0.066-0.576,0.066-0.753c0-0.245,0-0.488,0-0.732c-1.036,0-2.07,0-3.106,0 c0,3.607,0,7.217,0,10.824c1.036,0,2.07,0,3.106,0C240.673,57.705,240.673,55.591,240.673,53.477z"/><path fill="#1D8BB3" d="M235.76,57c-0.399,0-0.67-0.24-0.67-0.64V53.1c0-2.6-1.84-4.39-4.859-4.39c-3.061,0-4.301,2.22-4.301,2.22 c0.721,0.54,1.45,1.07,2.17,1.61c0.45-0.71,1.141-1.08,1.98-1.08c1.2,0,1.93,0.71,1.93,1.771v0.359 c-0.819-0.16-1.71-0.27-2.62-0.27c-3.02,0-4.479,1.75-4.479,3.55c0,1.62,1.22,3.17,3.609,3.17c1.94,0,3.24-1.021,3.87-2.06 c0.48,1.13,1.391,1.84,2.721,1.84h1.09V57H235.76z M229.32,57.6c-0.82,0-1.261-0.399-1.261-1c0-0.88,0.98-1.31,2.24-1.31 c0.42,0,1.13,0.12,1.71,0.229C231.61,56.69,230.63,57.6,229.32,57.6z"/><path fill="#1E8BB3" d="M209.998,59.82c0-2.264,0-4.525,0-6.787c0.043-1.109,0.908-1.687,1.752-1.687 c0.82,0,1.597,0.533,1.597,1.642c0,2.277,0,4.555,0,6.832c1.035,0,2.07,0,3.105,0c0-2.226,0-4.45,0-6.677 c0-1.264,0.843-1.862,1.686-1.862s1.686,0.599,1.686,1.773c0,2.255,0,4.511,0,6.766c1.034,0,2.07,0,3.104,0 c0-2.329,0-4.658,0-6.987c0-2.595-1.352-4.104-3.57-4.104c-1.465,0-2.662,0.732-3.438,1.775c-0.51-1.043-1.463-1.775-3.038-1.775 c-1.287,0-2.33,0.666-2.973,1.709c0.045-0.333,0.09-0.688,0.09-0.888c0-0.185,0-0.37,0-0.555c-1.036,0-2.071,0-3.106,0 c0,3.607,0,7.217,0,10.824C207.927,59.82,208.962,59.82,209.998,59.82z"/><path fill="#1E8BB3" d="M197.34,59.82c0-2.078,0-4.155,0-6.232c0.134-1.553,1.064-2.307,2.019-2.307 c1.043,0,1.996,0.775,1.996,2.283c0,2.085,0,4.171,0,6.256c1.042,0,2.085,0,3.127,0c0-2.144,0-4.289,0-6.433 c0-2.906-1.685-4.658-3.926-4.658c-1.485,0-2.572,0.732-3.282,1.752c0.045-0.288,0.066-0.576,0.066-0.753c0-2.182,0-4.362,0-6.544 c-1.034,0-2.069,0-3.104,0c0,5.545,0,11.09,0,16.636C195.271,59.82,196.306,59.82,197.34,59.82z"/><path fill="#1D8BB3" d="M252.54,28.8c0-3.32-1.45-5.94-5.11-5.94c-3.319,0-5.41,2.55-5.41,5.63c0,3.33,2.33,5.66,5.5,5.66 c2.461,0,3.641-0.8,4.79-2.35c-0.68-0.5-1.369-0.99-2.06-1.49c-0.53,0.78-1.35,1.33-2.55,1.33c-1.22,0-2.33-0.66-2.55-2.46h7.39 V28.8z M245.24,27.27c0.31-1.26,1.17-1.88,2.17-1.88c0.96,0,1.91,0.64,2.109,1.88H245.24z"/><rect width="3.149" height="16.635" x="231.021" y="17.292" fill="#1E8BB3"/><rect width="3.149" height="16.635" x="237.009" y="17.292" fill="#1E8BB3"/><path fill="#1D8BB3" d="M229.35,28.8c0-3.32-1.439-5.94-5.1-5.94c-3.33,0-5.41,2.55-5.41,5.63c0,3.33,2.33,5.66,5.5,5.66 c2.46,0,3.641-0.8,4.79-2.35c-0.689-0.5-1.38-0.99-2.06-1.49c-0.53,0.78-1.36,1.33-2.551,1.33c-1.22,0-2.329-0.66-2.55-2.46h7.38 V28.8z M222.05,27.27c0.32-1.26,1.181-1.88,2.181-1.88c0.949,0,1.909,0.64,2.1,1.88H222.05z"/><path fill="#1E8BB3" d="M213.158,19.753c0,1.109,0.933,2.041,2.041,2.041s2.041-0.932,2.041-2.041c0-1.109-0.933-2.04-2.041-2.04 S213.158,18.644,213.158,19.753z"/><rect width="3.172" height="10.824" x="213.58" y="23.103" fill="#1E8BB3"/><path fill="#1E8BB3" d="M203.94,27.583c0.045-1.441,1.087-2.196,2.02-2.196c1.042,0,1.995,0.776,1.995,2.285 c0,2.085,0,4.17,0,6.255c1.043,0,2.086,0,3.128,0c0-2.144,0-4.288,0-6.433c0-2.905-1.686-4.658-3.926-4.658 c-1.485,0-2.573,0.732-3.283,1.752c0.045-0.311,0.066-0.576,0.066-0.754c0-0.244,0-0.488,0-0.732c-1.034,0-2.069,0-3.104,0 c0,3.608,0,7.216,0,10.824c1.035,0,2.07,0,3.104,0C203.94,31.812,203.94,29.697,203.94,27.583z"/><path fill="#1D8BB3" d="M198.49,31.11c-0.4,0-0.67-0.24-0.67-0.64v-3.26c0-2.6-1.84-4.4-4.86-4.4c-3.06,0-4.3,2.22-4.3,2.22 c0.729,0.54,1.45,1.08,2.18,1.62c0.44-0.71,1.13-1.09,1.97-1.09c1.2,0,1.931,0.71,1.931,1.78v0.35c-0.82-0.15-1.71-0.26-2.62-0.26 c-3.01,0-4.48,1.75-4.48,3.55c0,1.62,1.221,3.17,3.62,3.17c1.931,0,3.24-1.02,3.86-2.06c0.479,1.13,1.39,1.84,2.72,1.84h1.09v-2.82 H198.49z M192.05,31.71c-0.819,0-1.26-0.4-1.26-1c0-0.89,0.979-1.31,2.24-1.31c0.42,0,1.13,0.11,1.71,0.22 C194.34,30.8,193.36,31.71,192.05,31.71z"/><path fill="#1D8BB3" d="M192.69,54.7c0-3.33-1.44-5.95-5.101-5.95c-3.33,0-5.41,2.55-5.41,5.64c0,3.32,2.32,5.65,5.5,5.65 c2.46,0,3.63-0.8,4.79-2.35c-0.689-0.49-1.38-0.99-2.069-1.49c-0.53,0.78-1.351,1.34-2.551,1.34c-1.22,0-2.319-0.67-2.55-2.47 h7.391V54.7z M185.39,53.17c0.311-1.27,1.181-1.89,2.181-1.89c0.949,0,1.899,0.64,2.1,1.89H185.39z"/><polygon fill="#1E8BB3" points="181.644 59.82 181.644 56.937 176.164 56.937 176.164 44.294 173.016 44.294 173.016 59.82"/><path fill="#1E8BB3" d="M253.468,53.477c0.045-1.441,1.087-2.195,2.019-2.195c1.042,0,1.996,0.775,1.996,2.283 c0,2.085,0,4.171,0,6.256c1.043,0,2.085,0,3.127,0c0-2.144,0-4.289,0-6.433c0-2.906-1.686-4.658-3.926-4.658 c-1.486,0-2.573,0.732-3.282,1.752c0.044-0.31,0.066-0.576,0.066-0.753c0-0.245,0-0.488,0-0.732c-1.035,0-2.07,0-3.104,0 c0,3.607,0,7.217,0,10.824c1.034,0,2.069,0,3.104,0C253.468,57.705,253.468,55.591,253.468,53.477z"/></g></svg>