<svg xmlns="http://www.w3.org/2000/svg" xmlns:xlink="http://www.w3.org/1999/xlink" width="557" height="96" x="0" y="0" enable-background="new 0 0 557 96" version="1.1" viewBox="0 0 557 96" xml:space="preserve"><g id="Default"><path fill="#004056" d="M389.828,57.417c0.031,2.771,0.937,4.865,2.716,6.282c1.637,1.448,3.472,2.188,5.502,2.22 c2.614,0,4.731-0.968,6.353-2.905c0.031,0,0.063,0,0.094,0c0,0.874,0,1.748,0,2.622c1.646,0,3.291,0,4.936,0 c0-8.171,0-16.343,0-24.514c-1.645,0-3.291,0-4.936,0c0,4.865,0,9.73,0,14.595c0,1.653-0.457,2.944-1.37,3.873 c-0.897,0.929-2.055,1.394-3.472,1.394s-2.582-0.465-3.495-1.394c-0.929-0.929-1.394-2.22-1.394-3.873c0-4.865,0-9.73,0-14.595 c-1.645,0-3.291,0-4.936,0C389.828,46.553,389.828,51.985,389.828,57.417z"/><path fill="#004056" d="M415.806,65.635c1.645,0,3.291,0,4.936,0c0-4.92,0-9.84,0-14.76c0.031-1.795,0.551-3.094,1.559-3.896 c0.897-0.819,1.976-1.228,3.235-1.228c1.118,0,2.196,0.409,3.235,1.228c1.196-1.425,2.393-2.85,3.59-4.275 c-1.464-1.228-3.181-1.858-5.148-1.889c-2.629,0-4.755,0.968-6.376,2.905c-0.031,0-0.063,0-0.094,0c0-0.866,0-1.732,0-2.598 c-1.646,0-3.291,0-4.936,0C415.806,49.292,415.806,57.464,415.806,65.635z"/><path fill="#004056" d="M453.88,47.07c-0.26-1.26-0.72-2.27-1.4-3.04c-1.38-2.07-3.58-3.14-6.59-3.22 c-2.58,0.08-4.69,1.04-6.33,2.86v-2.55h-4.93v34.43h4.93V63.01c0.9,0.89,1.89,1.58,2.96,2.08c0.99,0.55,2.11,0.83,3.37,0.83 c1.53-0.03,2.84-0.34,3.92-0.92c1.11-0.57,2-1.33,2.67-2.27c0.68-0.8,1.14-1.83,1.4-3.09c0.23-1.26,0.35-3.34,0.35-6.24 C454.23,50.43,454.11,48.32,453.88,47.07z M449.25,56.12c-0.11,0.9-0.33,1.71-0.64,2.45c-0.28,0.71-0.76,1.3-1.44,1.75 c-0.68,0.44-1.6,0.66-2.76,0.66c-1.11,0-1.98-0.23-2.63-0.71c-0.67-0.45-1.17-1.05-1.48-1.79c-0.3-0.74-0.5-1.57-0.59-2.48 c-0.1-0.87-0.15-1.73-0.15-2.6c0-0.93,0.05-1.85,0.15-2.76c0.09-0.87,0.29-1.67,0.59-2.41c0.31-0.74,0.81-1.34,1.48-1.79 c0.65-0.46,1.52-0.69,2.63-0.69c1.16,0,2.08,0.2,2.76,0.59c0.68,0.43,1.16,1.01,1.44,1.75c0.31,0.71,0.53,1.53,0.64,2.45 c0.03,0.93,0.04,1.89,0.04,2.86C449.29,54.33,449.28,55.24,449.25,56.12z"/><path fill="#004056" d="M459.732,65.635c1.645,0,3.291,0,4.936,0c0-4.865,0-9.73,0-14.595c0-1.716,0.465-3.022,1.394-3.92 c0.913-0.913,2.078-1.37,3.495-1.37c1.417,0,2.574,0.457,3.472,1.37c0.913,0.897,1.37,2.204,1.37,3.92c0,4.865,0,9.73,0,14.595 c1.646,0,3.291,0,4.936,0c0-5.432,0-10.863,0-16.295c-0.079-2.802-0.953-4.928-2.621-6.376c-1.685-1.433-3.543-2.149-5.574-2.149 c-2.629,0-4.755,0.968-6.376,2.905c-0.031,0-0.063,0-0.095,0c0-4.172,0-8.344,0-12.517c-1.645,0-3.291,0-4.936,0 C459.732,42.68,459.732,54.158,459.732,65.635z"/><path fill="#004056" d="M490.977,64.667c-0.449,1.37-0.897,2.739-1.346,4.109c-0.221,0.708-0.606,1.244-1.157,1.606 c-0.551,0.346-1.149,0.52-1.795,0.52c-0.48,0-0.96,0-1.44,0c0,1.55,0,3.102,0,4.652c0.543,0,1.086,0,1.629,0 c1.527,0,2.897-0.339,4.109-1.016c1.196-0.708,2.133-1.984,2.81-3.826c3.519-9.864,7.038-19.728,10.557-29.591 c-1.748,0-3.495,0-5.243,0c-1.929,5.723-3.857,11.446-5.786,17.169c-0.031,0-0.063,0-0.094,0 c-1.937-5.723-3.874-11.446-5.81-17.169c-1.74,0-3.479,0-5.219,0C485.12,48.97,488.048,56.818,490.977,64.667z"/><path fill="#004056" d="M80.987,57.834c-1.401,1.015-2.803,2.031-4.204,3.046c1.968,2.897,4.951,4.393,8.95,4.487 c2.897-0.032,5.439-1.016,7.628-2.952c2.204-1.889,3.338-4.566,3.401-8.029c0-7.912,0-15.823,0-23.735c-1.74,0-3.479,0-5.219,0 c0,7.738,0,15.477,0,23.215c0,1.165-0.181,2.133-0.543,2.904c-0.347,0.803-0.827,1.449-1.44,1.937 c-1.26,0.992-2.582,1.472-3.968,1.441c-1.039,0-1.944-0.244-2.716-0.732C82.104,59.007,81.475,58.48,80.987,57.834z"/><path fill="#004056" d="M117.9,42.01c-1.84-1.2-4.31-1.78-7.39-1.75c-3.66-0.06-6.42,1.14-8.29,3.59c1.29,0.99,2.58,1.97,3.87,2.96 c0.43-0.71,1.01-1.22,1.75-1.52c0.71-0.25,1.68-0.37,2.9-0.37c3.39-0.07,5.07,0.98,5.03,3.14v2.57h-6.82 c-2.62,0.03-4.6,0.74-5.95,2.13c-1.36,1.35-2.03,3.06-2.03,5.12c0,2.16,0.78,3.93,2.33,5.32c1.48,1.41,3.59,2.14,6.33,2.17 c1.67,0,2.98-0.21,3.92-0.62c0.96-0.39,1.67-1,2.13-1.84h0.09v2.17h4.94V48.34C120.68,45.35,119.74,43.24,117.9,42.01z M115.77,56.46c0,1.85-0.38,3.03-1.15,3.55c-0.85,0.52-2.31,0.76-4.37,0.73c-1.64,0-2.81-0.32-3.52-0.97 c-0.74-0.58-1.11-1.29-1.11-2.12c-0.03-1.91,1.38-2.89,4.25-2.96h5.9V56.46z"/><path fill="#004056" d="M127.369,65.084c1.646,0,3.291,0,4.936,0c0-4.865,0-9.73,0-14.595c0-1.716,0.473-3.023,1.417-3.92 c0.897-0.913,2.055-1.37,3.472-1.37s2.582,0.457,3.495,1.37c0.897,0.897,1.347,2.204,1.347,3.92c0,4.865,0,9.73,0,14.595 c1.645,0,3.29,0,4.936,0c0-4.865,0-9.73,0-14.595c0-1.716,0.464-3.023,1.394-3.92c0.913-0.913,2.078-1.37,3.495-1.37 s2.574,0.457,3.472,1.37c0.897,0.897,1.346,2.204,1.346,3.92c0,4.865,0,9.73,0,14.595c1.646,0,3.291,0,4.936,0 c0-5.432,0-10.863,0-16.295c-0.063-2.803-0.929-4.928-2.598-6.376c-1.685-1.433-3.542-2.149-5.574-2.149 c-3.228-0.031-5.802,1.039-7.723,3.212c-0.85-0.944-1.787-1.724-2.81-2.338c-1.04-0.551-2.409-0.842-4.109-0.874 c-2.646,0-4.779,0.968-6.4,2.905c-0.031,0-0.063,0-0.095,0c0-0.866,0-1.731,0-2.598c-1.645,0-3.29,0-4.936,0 C127.369,48.742,127.369,56.913,127.369,65.084z"/><path fill="#004056" d="M187.31,50.63c-0.03-3.23-1.03-5.76-3-7.6c-1.94-1.81-4.31-2.73-7.11-2.77c-1.17,0-2.35,0.22-3.54,0.64 c-1.22,0.43-2.31,1.12-3.29,2.08c-0.96,0.94-1.74,2.24-2.36,3.87c-0.61,1.61-0.92,3.62-0.92,6.05c0,2.52,0.36,4.56,1.06,6.14 c0.65,1.64,1.49,2.91,2.53,3.82c0.54,0.45,1.11,0.82,1.73,1.11c0.58,0.35,1.18,0.63,1.79,0.83c1.23,0.38,2.49,0.57,3.78,0.57 c3.38,0.03,6.33-1.29,8.83-3.97c-1.19-1.02-2.38-2.03-3.56-3.05c-1.58,1.59-3.37,2.39-5.37,2.39c-1.71,0-3.1-0.52-4.15-1.56 c-1.14-1.02-1.7-2.52-1.7-4.49h15.28V50.63z M172.03,50.63c0.09-1.9,0.6-3.34,1.53-4.32c0.95-0.93,2.16-1.39,3.64-1.39 s2.69,0.46,3.64,1.39c0.96,0.98,1.47,2.42,1.53,4.32H172.03z"/><path fill="#004056" d="M193.211,57.598c-1.149,1.125-2.298,2.251-3.448,3.377c3.196,2.928,6.793,4.393,10.792,4.393 c2.944-0.032,5.361-0.708,7.25-2.031c1.905-1.291,2.873-3.125,2.904-5.502c0-2.031-0.527-3.708-1.582-5.03 c-1.134-1.354-2.976-2.125-5.526-2.314c-1.354-0.103-2.708-0.205-4.062-0.307c-1.196-0.126-2.031-0.417-2.503-0.874 c-0.52-0.41-0.764-0.89-0.732-1.441c0-0.866,0.323-1.574,0.968-2.125c0.614-0.551,1.692-0.827,3.235-0.827 c1.354,0,2.551,0.197,3.59,0.591c1.055,0.441,2.055,1,2.999,1.676c1.016-1.188,2.031-2.377,3.047-3.565 c-1.197-1.04-2.551-1.866-4.062-2.48c-0.788-0.283-1.629-0.504-2.527-0.661c-0.897-0.142-1.913-0.213-3.047-0.213 c-2.613,0-4.771,0.63-6.471,1.889c-1.748,1.26-2.637,3.149-2.669,5.668c0.032,2.094,0.709,3.723,2.031,4.888 c1.291,1.197,2.968,1.89,5.03,2.079c1.448,0.125,2.897,0.251,4.346,0.377c0.913,0.032,1.645,0.229,2.196,0.591 c0.535,0.346,0.803,0.96,0.803,1.842c0,0.992-0.449,1.763-1.346,2.314s-2.054,0.827-3.471,0.827 C197.793,60.739,195.211,59.692,193.211,57.598z"/><polygon fill="#004056" points="353.625 65.635 358.844 65.635 358.844 44.168 358.938 44.168 366.141 60.699 370.486 60.699 377.689 44.168 377.808 44.168 377.808 65.635 383.027 65.635 383.027 31.203 378.091 31.203 368.408 53.638 358.537 31.203 353.625 31.203"/></g><g id="master"><polygon fill="#004056" points="254.675 78.321 254.675 78.32 254.675 78.321 265.669 78.321 265.669 39.989 254.675 39.989 254.675 67.326 243.68 67.326 243.68 59.155 232.686 59.155 232.686 78.32 265.669 78.32 265.669 67.326"/><rect width="10.994" height="38.331" x="298.652" y="39.989" fill="#004056"/><rect width="10.994" height="38.331" x="320.641" y="39.989" fill="#004056"/><rect width="98.95" height="10.995" x="232.686" y="18" fill="#004056"/><rect width="10.995" height="38.331" x="276.663" y="39.989" fill="#004056"/></g></svg>