<svg xmlns="http://www.w3.org/2000/svg" xmlns:xlink="http://www.w3.org/1999/xlink" width="413.607" height="234.288" x="0" y="0" enable-background="new 0 0 413.607 234.288" version="1.1" viewBox="0 0 413.607 234.288" xml:space="preserve"><g id="Layer_02"><g><path fill="#540B9B" d="M262.901,46.762c15.356,0,26.921,3.778,34.371,11.229c7.451,7.45,11.229,19.015,11.229,34.371 c0,15.357-3.778,26.922-11.229,34.373c-7.45,7.451-19.015,11.229-34.371,11.229h-49.601h-9.92h-79.36 c-8.734,0-15.84-7.106-15.84-15.84v-19.841c0-0.529,0.431-0.959,0.96-0.959h22.32c3.573,0,6.479-2.907,6.479-6.48v-4.96 c0-3.573-2.907-6.48-6.479-6.48h-22.32c-0.529,0-0.96-0.431-0.96-0.96v-19.84c0-8.734,7.105-15.84,15.84-15.84h74.4 c0.529,0,0.96,0.431,0.96,0.96v32.24c0,3.573,2.907,6.479,6.479,6.479h4.961c3.573,0,6.479-2.907,6.479-6.479v-32.24 c0-0.529,0.431-0.96,0.96-0.96h4.96H262.901 M262.901,42.762c-13.228,0-26.454,0-39.681,0c-1.653,0-3.307,0-4.96,0 c-2.739,0-4.96,2.221-4.96,4.96c0,10.747,0,21.493,0,32.24c0,1.369-1.11,2.479-2.479,2.479c-1.654,0-3.307,0-4.961,0 c-1.369,0-2.479-1.11-2.479-2.479c0-10.747,0-21.493,0-32.24c0-2.739-2.221-4.96-4.96-4.96c-24.8,0-49.6,0-74.4,0 c-10.957,0-19.84,8.883-19.84,19.84c0,6.613,0,13.227,0,19.84c0,2.739,2.221,4.96,4.96,4.96c7.44,0,14.88,0,22.32,0 c1.369,0,2.479,1.11,2.479,2.48c0,1.653,0,3.307,0,4.96c0,1.369-1.11,2.48-2.479,2.48c-7.44,0-14.88,0-22.32,0 c-2.739,0-4.96,2.221-4.96,4.959c0,6.613,0,13.226,0,19.841c0,10.957,8.883,19.84,19.84,19.84c26.453,0,52.907,0,79.36,0 c3.307,0,6.613,0,9.92,0c16.533,0,33.066,0,49.601,0c33.066,0,49.6-16.534,49.6-49.602 C312.501,59.295,295.968,42.762,262.901,42.762L262.901,42.762z"/></g><path fill="none" stroke="#540B9B" stroke-linecap="round" stroke-linejoin="round" stroke-width="4" d="M223.221,161.803 c13.227,0,26.453,0,39.681,0c4.825,0,9.653-0.293,14.43-0.975c4.595-0.656,9.141-1.676,13.543-3.143 c4.339-1.447,8.537-3.332,12.459-5.686c3.92-2.354,7.564-5.176,10.797-8.408c3.233-3.234,6.056-6.877,8.409-10.797 c2.354-3.922,4.237-8.121,5.684-12.459c1.469-4.402,2.487-8.949,3.145-13.543c0.682-4.778,0.974-9.606,0.974-14.431 s-0.292-9.652-0.974-14.431c-0.657-4.593-1.676-9.141-3.145-13.542c-1.446-4.34-3.33-8.537-5.684-12.459 c-2.354-3.921-5.176-7.564-8.409-10.797c-3.232-3.232-6.877-6.056-10.797-8.409c-3.922-2.354-8.12-4.237-12.459-5.685 c-4.402-1.468-8.948-2.486-13.543-3.143c-4.776-0.683-9.604-0.975-14.43-0.975c-13.228,0-26.454,0-39.681,0"/><path fill="none" stroke="#540B9B" stroke-linecap="round" stroke-linejoin="round" stroke-width="4" d="M193.461,22.922 c-23.146,0-46.294,0-69.44,0c-21.914,0-39.68,17.765-39.68,39.68c0,19.84,0,39.68,0,59.521c0,21.915,17.766,39.68,39.68,39.68 c23.146,0,46.294,0,69.44,0"/><rect width="371.333" height="47.332" x="22.729" y="181.898" fill="none"/><text fill="#540B9B" display="none" font-family="'OpenSans'" font-size="45" transform="matrix(1 0 0 1 30.5703 216.0981)">Elizabeth Dolinar</text></g><g id="Layer_2" display="none"><polygon fill="#540B9B" points="39.063 187.088 39.063 197.402 52.333 197.402 52.333 200.687 39.063 200.687 39.063 212.471 53.186 212.471 53.186 215.802 35.333 215.802 35.333 183.78 53.186 183.78 53.186 187.088" display="inline"/><path fill="#540B9B" d="M361.382,193.312c-1.376-1.275-3.495-1.909-6.357-1.909c-1.416,0-2.831,0.18-4.238,0.548 c-1.407,0.367-2.706,0.868-3.886,1.509c0.375,0.931,0.743,1.854,1.118,2.784c2.526-1.228,4.786-1.837,6.788-1.837 c1.782,0,3.073,0.445,3.886,1.345s1.212,2.292,1.212,4.168v1.493c-1.353,0.039-2.713,0.086-4.074,0.133 c-7.75,0.227-11.628,2.768-11.628,7.616c0,2.268,0.681,4.012,2.025,5.231c1.353,1.229,3.222,1.846,5.599,1.846 c1.783,0,3.269-0.266,4.457-0.806c1.189-0.532,2.385-1.548,3.582-3.049h0.172c0.243,1.133,0.485,2.275,0.728,3.417h2.69v-16.383 C363.455,196.62,362.766,194.579,361.382,193.312z M359.818,206.161c0,2.236-0.642,3.972-1.939,5.215 c-1.291,1.244-3.065,1.861-5.333,1.861c-1.431,0-2.542-0.344-3.339-1.032c-0.789-0.68-1.188-1.682-1.188-2.995 c0-1.681,0.634-2.917,1.916-3.715c1.274-0.797,3.363-1.243,6.248-1.345c1.212-0.054,2.424-0.102,3.637-0.156V206.161z" display="inline"/><path fill="#540B9B" d="M338.533,200.139v15.664h-3.636v-15.53c0-1.955-0.446-3.417-1.337-4.379 c-0.892-0.962-2.283-1.447-4.184-1.447c-2.51,0-4.348,0.68-5.513,2.041c-1.172,1.353-1.751,3.598-1.751,6.717v12.598h-3.636 v-24.007h2.956c0.196,1.095,0.391,2.189,0.594,3.285h0.172c0.743-1.182,1.791-2.096,3.128-2.745 c1.345-0.649,2.846-0.978,4.489-0.978c2.893,0,5.067,0.697,6.529,2.096C337.805,194.845,338.533,197.074,338.533,200.139z" display="inline"/><path fill="#540B9B" d="M311.116,185.297c0,0.813-0.211,1.423-0.634,1.822c-0.422,0.407-0.93,0.603-1.517,0.603 c-0.61,0-1.118-0.196-1.532-0.603c-0.407-0.398-0.61-1.008-0.61-1.822c0-0.837,0.203-1.447,0.61-1.83 c0.415-0.391,0.922-0.579,1.532-0.579c0.587,0,1.095,0.196,1.517,0.586C310.905,183.874,311.116,184.476,311.116,185.297z" display="inline"/><rect width="3.637" height="24.007" x="307.128" y="191.795" fill="#540B9B" display="inline"/><rect width="3.628" height="34.079" x="295.789" y="181.723" fill="#540B9B" display="inline"/><path fill="#540B9B" d="M286.444,194.712c-1.979-2.236-4.645-3.355-8-3.355c-3.479,0-6.193,1.095-8.148,3.277 s-2.932,5.231-2.932,9.141c0,2.526,0.445,4.731,1.353,6.616c0.907,1.884,2.189,3.332,3.855,4.34c1.665,1,3.573,1.509,5.716,1.509 c3.472,0,6.202-1.103,8.172-3.3c1.971-2.198,2.956-5.248,2.956-9.166C289.416,199.967,288.423,196.941,286.444,194.712z M283.793,210.797c-1.228,1.595-3.034,2.393-5.419,2.393c-2.377,0-4.183-0.797-5.411-2.408c-1.22-1.603-1.838-3.941-1.838-7.007 c0-3.097,0.61-5.419,1.822-6.983c1.212-1.564,3.003-2.346,5.388-2.346c2.409,0,4.23,0.797,5.458,2.377 c1.236,1.587,1.854,3.901,1.854,6.951C285.647,206.856,285.029,209.194,283.793,210.797z" display="inline"/><path fill="#540B9B" d="M257.965,187.924c-2.761-2.761-6.624-4.145-11.605-4.145h-9.814v32.022h8.868 c5.388,0,9.517-1.4,12.387-4.199c2.869-2.792,4.301-6.834,4.301-12.121C262.102,194.532,260.725,190.685,257.965,187.924z M254.813,209.304c-2.236,2.189-5.568,3.276-10.009,3.276h-4.536v-25.579h5.412c4.129,0,7.249,1.056,9.337,3.175 c2.095,2.119,3.144,5.263,3.144,9.438C258.16,203.893,257.049,207.123,254.813,209.304z" display="inline"/><path fill="#540B9B" d="M216.879,200.139v15.664h-3.629v-15.53c0-1.955-0.446-3.417-1.337-4.379 c-0.892-0.962-2.284-1.447-4.184-1.447c-2.525,0-4.371,0.688-5.528,2.057c-1.166,1.376-1.744,3.62-1.744,6.749v12.551h-3.637 v-34.079h3.637v10.314c0,1.243-0.055,2.275-0.172,3.089h0.219c0.711-1.149,1.728-2.064,3.05-2.729 c1.321-0.665,2.831-0.994,4.527-0.994c2.933,0,5.13,0.696,6.6,2.088C216.152,194.892,216.879,197.105,216.879,200.139z" display="inline"/><path fill="#540B9B" d="M192.027,212.799v2.784c-0.398,0.188-0.978,0.344-1.744,0.469 c-0.766,0.125-1.454,0.188-2.064,0.188c-4.645,0-6.967-2.448-6.967-7.335v-14.279h-3.44v-1.752c1.149-0.508,2.291-1.008,3.44-1.517 c0.508-1.705,1.024-3.409,1.533-5.122h2.104v5.56h6.959v2.831h-6.959v14.123c0,1.446,0.344,2.557,1.032,3.331 c0.681,0.774,1.626,1.157,2.823,1.157c0.642,0,1.259-0.047,1.862-0.141C191.198,213.002,191.676,212.901,192.027,212.799z" display="inline"/><path fill="#540B9B" d="M174.792,202.157c0-3.238-0.876-5.85-2.628-7.828c-1.751-1.979-4.136-2.972-7.139-2.972 c-3.214,0-5.771,1.142-7.679,3.418c-1.9,2.283-2.854,5.348-2.854,9.219c0,3.84,1.024,6.842,3.074,9.001 c2.057,2.166,4.856,3.245,8.398,3.245c1.626,0,3.003-0.125,4.152-0.368c1.15-0.234,2.362-0.633,3.645-1.188v-3.246 c-2.526,1.087-5.075,1.626-7.663,1.626c-2.456,0-4.356-0.734-5.701-2.189c-1.353-1.462-2.064-3.605-2.135-6.42h16.531V202.157z M158.348,201.5c0.203-2.222,0.875-3.957,2.025-5.208c1.142-1.259,2.682-1.885,4.606-1.885c1.9,0,3.363,0.61,4.379,1.822 c1.024,1.22,1.532,2.979,1.532,5.271H158.348z" display="inline"/><path fill="#540B9B" d="M146.86,194.634c-1.744-2.151-4.191-3.23-7.351-3.23c-3.323,0-5.834,1.197-7.531,3.589 h-0.172c0.109-1.47,0.172-3.135,0.172-4.989v-8.281h-3.636v34.079h2.604c0.258-1.033,0.517-2.064,0.767-3.089h0.266 c0.876,1.196,1.963,2.08,3.253,2.658c1.29,0.579,2.721,0.869,4.277,0.869c3.128,0,5.567-1.095,7.327-3.277 c1.759-2.182,2.643-5.247,2.643-9.188C149.479,199.834,148.604,196.784,146.86,194.634z M144.068,210.751 c-1.095,1.626-2.761,2.439-4.997,2.439c-2.479,0-4.285-0.719-5.404-2.174c-1.126-1.454-1.689-3.863-1.689-7.241 c0-3.37,0.547-5.771,1.642-7.194c1.095-1.424,2.885-2.135,5.365-2.135c2.291,0,3.988,0.766,5.083,2.299 c1.095,1.533,1.642,3.863,1.642,6.991C145.71,206.786,145.164,209.125,144.068,210.751z" display="inline"/><path fill="#540B9B" d="M118.787,193.312c-1.384-1.275-3.503-1.909-6.366-1.909c-1.415,0-2.831,0.18-4.238,0.548 c-1.407,0.367-2.706,0.868-3.886,1.509c0.375,0.931,0.743,1.854,1.118,2.784c2.526-1.228,4.786-1.837,6.788-1.837 c1.783,0,3.081,0.445,3.887,1.345c0.813,0.899,1.22,2.292,1.22,4.168v1.493c-1.361,0.039-2.721,0.086-4.074,0.133 c-7.757,0.227-11.628,2.768-11.628,7.616c0,2.268,0.672,4.012,2.025,5.231c1.345,1.229,3.214,1.846,5.591,1.846 c1.783,0,3.269-0.266,4.458-0.806c1.188-0.532,2.385-1.548,3.581-3.049h0.173c0.242,1.133,0.484,2.275,0.727,3.417h2.689v-16.383 C120.851,196.62,120.163,194.579,118.787,193.312z M117.215,206.161c0,2.236-0.641,3.972-1.932,5.215 c-1.298,1.244-3.073,1.861-5.333,1.861c-1.431,0-2.549-0.344-3.339-1.032c-0.797-0.68-1.196-1.682-1.196-2.995 c0-1.681,0.642-2.917,1.916-3.715c1.274-0.797,3.362-1.243,6.255-1.345c1.212-0.054,2.417-0.102,3.629-0.156V206.161z" display="inline"/><polygon fill="#540B9B" points="97.774 212.971 97.774 215.802 80.36 215.802 80.36 213.323 93.458 194.626 81.173 194.626 81.173 191.795 97.446 191.795 97.446 194.626 84.52 212.971" display="inline"/><path fill="#540B9B" d="M75.066,185.297c0,0.813-0.219,1.423-0.641,1.822c-0.422,0.407-0.923,0.603-1.51,0.603 c-0.61,0-1.125-0.196-1.533-0.603c-0.406-0.398-0.609-1.008-0.609-1.822c0-0.837,0.203-1.447,0.609-1.83 c0.407-0.391,0.923-0.579,1.533-0.579c0.586,0,1.087,0.196,1.51,0.586C74.847,183.874,75.066,184.476,75.066,185.297z" display="inline"/><rect width="3.636" height="24.007" x="71.077" y="191.795" fill="#540B9B" display="inline"/><rect width="3.636" height="34.079" x="59.731" y="181.723" fill="#540B9B" display="inline"/><path fill="#540B9B" d="M384.764,191.623c-0.172,1.126-0.336,2.252-0.501,3.37 c-0.993-0.218-1.869-0.329-2.635-0.329c-1.939,0-3.597,0.79-4.981,2.37c-1.376,1.571-2.064,3.535-2.064,5.888v12.879h-3.636 v-24.007h2.995c0.14,1.485,0.281,2.963,0.422,4.449h0.172c0.892-1.564,1.963-2.768,3.222-3.613 c1.251-0.844,2.635-1.275,4.137-1.275C382.957,191.357,383.919,191.451,384.764,191.623z" display="inline"/></g><g id="Layer_4"><polygon fill="#540B9B" points="51.962 215.096 37.968 215.096 37.968 189.99 51.962 189.99 51.962 192.584 40.887 192.584 40.887 200.672 51.292 200.672 51.292 203.249 40.887 203.249 40.887 212.486 51.962 212.486"/><path fill="#540B9B" d="M365.513,203.82c3.37-1.17,5.05-3.42,5.05-6.74c0-2.37-0.74-4.14-2.21-5.32c-1.47-1.18-3.74-1.77-6.82-1.77 h-6.89v25.11h2.92v-10.44h5.24c2.03,3.48,4.05,6.96,6.08,10.44h3.45C370.063,211.34,367.793,207.57,365.513,203.82z M361.563,202.15h-4v-9.6h3.8c2.16,0,3.73,0.37,4.71,1.1c0.98,0.73,1.47,1.93,1.47,3.59c0,1.63-0.48,2.86-1.44,3.68 C365.133,201.74,363.623,202.15,361.563,202.15z"/><path fill="#540B9B" d="M341.323,189.89h-2.46l-9.92,25.21h2.95l3.09-7.99h10.06l3.13,7.99h3.02L341.323,189.89z M336.013,204.48 c0.99-2.59,1.97-5.18,2.96-7.77c0.46-1.32,0.83-2.53,1.08-3.63c0.4,1.43,0.79,2.64,1.17,3.63c0.97,2.59,1.94,5.18,2.91,7.77 H336.013z"/><path fill="#540B9B" d="M325.489,215.096c-1.11,0-2.221,0-3.331,0c-4.573-7.023-9.146-14.045-13.721-21.069 c-0.045,0-0.092,0-0.137,0c0.183,2.473,0.274,4.739,0.274,6.8c0,4.756,0,9.512,0,14.269c-0.898,0-1.798,0-2.695,0 c0-8.367,0-16.736,0-25.105c1.098,0,2.198,0,3.296,0c4.561,6.997,9.124,13.991,13.685,20.985c0.046,0,0.091,0,0.138,0 c-0.022-0.309-0.074-1.302-0.154-2.979c-0.081-1.677-0.11-2.877-0.086-3.597c0-4.803,0-9.605,0-14.409c0.91,0,1.82,0,2.73,0 C325.489,198.359,325.489,206.729,325.489,215.096z"/><rect width="2.92" height="25.105" x="296.073" y="189.99" fill="#540B9B"/><polygon fill="#540B9B" points="277.82 215.096 277.82 189.99 280.739 189.99 280.739 212.452 291.814 212.452 291.814 215.096"/><path fill="#540B9B" d="M269.183,193.03c-2.03-2.29-4.84-3.43-8.45-3.43c-3.71,0-6.57,1.12-8.58,3.37 c-2.02,2.25-3.03,5.42-3.03,9.51c0,4.12,1.01,7.31,3.02,9.57c2.01,2.26,4.86,3.39,8.56,3.39c3.61,0,6.44-1.15,8.47-3.45 c2.03-2.3,3.05-5.46,3.05-9.48C272.223,198.48,271.213,195.32,269.183,193.03z M267.003,210.25c-1.42,1.76-3.52,2.63-6.3,2.63 c-2.76,0-4.87-0.88-6.31-2.64c-1.45-1.75-2.18-4.33-2.18-7.73c0-3.35,0.73-5.91,2.18-7.67c1.44-1.75,3.56-2.63,6.34-2.63 c2.77,0,4.86,0.87,6.28,2.61c1.41,1.75,2.12,4.31,2.12,7.69C269.133,205.92,268.423,208.5,267.003,210.25z"/><path fill="#540B9B" d="M241.593,193.24c-2.17-2.17-5.2-3.25-9.11-3.25h-7.69v25.11h6.96c4.22,0,7.46-1.1,9.71-3.29 s3.37-5.36,3.37-9.51C244.833,198.42,243.753,195.4,241.593,193.24z M239.113,210c-1.75,1.72-4.36,2.57-7.84,2.57h-3.56v-20.05 h4.24c3.24,0,5.68,0.83,7.32,2.49c1.65,1.66,2.47,4.12,2.47,7.4C241.743,205.76,240.863,208.29,239.113,210z"/><polygon fill="#540B9B" points="208.774 215.096 205.854 215.096 205.854 203.281 192.632 203.281 192.632 215.096 189.713 215.096 189.713 189.99 192.632 189.99 192.632 200.672 205.854 200.672 205.854 189.99 208.774 189.99"/><polygon fill="#540B9B" points="177.985 215.096 175.065 215.096 175.065 192.584 167.116 192.584 167.116 189.99 185.935 189.99 185.935 192.584 177.985 192.584"/><polygon fill="#540B9B" points="164.695 215.096 150.699 215.096 150.699 189.99 164.695 189.99 164.695 192.584 153.618 192.584 153.618 200.672 164.024 200.672 164.024 203.249 153.618 203.249 153.618 212.486 164.695 212.486"/><path fill="#540B9B" d="M139.593,201.94v-0.17c1.59-0.28,2.8-0.91,3.63-1.88c0.83-0.97,1.24-2.19,1.24-3.68 c0-2.15-0.74-3.73-2.23-4.72c-1.49-1-3.9-1.5-7.23-1.5h-7.09v25.11h8.76c2.72,0,4.84-0.63,6.36-1.89c1.52-1.26,2.27-3.01,2.27-5.26 C145.303,204.6,143.403,202.6,139.593,201.94z M130.833,192.52h4.29c2.2,0,3.8,0.31,4.81,0.93c1.01,0.63,1.51,1.64,1.51,3.05 c0,1.53-0.45,2.62-1.36,3.27c-0.9,0.65-2.38,0.97-4.44,0.97h-4.81V192.52z M140.643,211.43c-1.02,0.78-2.55,1.18-4.57,1.18h-5.24 v-9.4h4.99c2.15,0,3.74,0.37,4.79,1.1c1.05,0.73,1.57,1.88,1.57,3.44C142.183,209.42,141.673,210.65,140.643,211.43z"/><path fill="#540B9B" d="M114.583,189.89h-2.45l-9.93,25.21h2.96l3.09-7.99h10.06l3.13,7.99h3.02L114.583,189.89z M109.283,204.48 c0.98-2.59,1.97-5.18,2.95-7.77c0.47-1.32,0.83-2.53,1.08-3.63c0.4,1.43,0.79,2.64,1.17,3.63c0.97,2.59,1.95,5.18,2.92,7.77 H109.283z"/><polygon fill="#540B9B" points="100.799 215.096 83.542 215.096 83.542 212.812 96.867 192.619 83.953 192.619 83.953 189.99 100.421 189.99 100.421 192.275 87.096 212.452 100.799 212.452"/><rect width="2.92" height="25.105" x="75.779" y="189.99" fill="#540B9B"/><polygon fill="#540B9B" points="57.526 215.096 57.526 189.99 60.445 189.99 60.445 212.452 71.522 212.452 71.522 215.096"/></g><g id="Layer_3" display="none"><rect width="365.667" height="63" x="18.666" y="190" fill="none" display="inline"/><text fill="#540B9B" display="inline" font-family="'Lovelo-LineBold'" font-size="35" transform="matrix(1 0 0 1 18.666 215.3745)">Elizabeth Dolinar</text></g></svg>