<svg xmlns="http://www.w3.org/2000/svg" xmlns:xlink="http://www.w3.org/1999/xlink" id="Layer_1" x="0" y="0" enable-background="new 70.3 291.2 587.4 217" version="1.1" viewBox="70.3 291.2 587.4 217" xml:space="preserve"><g><path fill="#00A7CA" d="M193.4,383.7c-11.4-6.6-22.8-13.2-34.3-19.8c-4.8-2.8-10.8-2.8-15.6,0c-7.3,4.2-14.6,8.4-21.8,12.6 c-2.1,1.2-4.7-0.3-4.7-2.7c0-26.5,0-53,0-79.4c0-2.4-2.6-3.9-4.7-2.7c-3.1,1.8-6.2,3.7-9.4,5.5c-1,0.6-1.5,1.6-1.5,2.7v136.9 c0,5.6,3,10.7,7.8,13.5c11.4,6.6,22.8,13.2,34.3,19.8c4.8,2.8,10.8,2.8,15.6,0c11.4-6.6,22.8-13.2,34.3-19.8 c4.8-2.8,7.8-7.9,7.8-13.5v-39.6C201.2,391.6,198.2,386.5,193.4,383.7z M185.6,432.2c0,2.8-1.5,5.4-3.9,6.8 c-8.8,5.1-17.6,10.2-26.5,15.3c-2.4,1.4-5.4,1.4-7.8,0c-8.8-5.1-17.6-10.2-26.5-15.3c-2.4-1.4-3.9-4-3.9-6.8v-30.5 c0-2.8,1.5-5.4,3.9-6.8c8.8-5.1,17.6-10.2,26.5-15.3c2.4-1.4,5.4-1.4,7.8,0c8.8,5.1,17.6,10.2,26.5,15.3c2.4,1.4,3.9,4,3.9,6.8 V432.2z"/><path fill="#00A7CA" d="M232.4,379.2v75.6c0,5.6-3,10.7-7.8,13.5c-21.8,12.6-43.7,25.2-65.5,37.8c-4.9,2.8-10.9,2.8-15.7-0.1 c-21.8-12.6-43.5-25.2-65.3-37.8c-4.8-2.8-7.8-7.9-7.8-13.5v-75.5c0-5.6,3-10.7,7.8-13.5c3.6-2.1,7.3-4.3,10.9-6.4 c2.1-1.2,4.7,0.3,4.7,2.7v10.8c0,1.1-0.6,2.1-1.6,2.7c-0.8,0.5-1.6,0.9-2.3,1.4c-2.4,1.4-3.9,4-3.9,6.8v62.1c0,5.6,3,10.7,7.8,13.5 c16.6,9.6,33.2,19.2,49.9,28.8c4.8,2.8,10.8,2.8,15.6,0c16.6-9.6,33.2-19.2,49.9-28.8c4.8-2.8,7.8-7.9,7.8-13.5v-57.6 c0-5.6-3-10.7-7.8-13.5c-16.6-9.6-33.2-19.2-49.9-28.8c-4.8-2.8-10.8-2.8-15.6,0c-4.6,2.7-9.3,5.4-13.9,8c-2.1,1.2-4.7-0.3-4.7-2.7 c0-3.6,0-7.2-0.1-10.8c0-1.1,0.6-2.2,1.6-2.7c1.5-0.9,3.1-1.8,4.6-2.7c4.2-2.4,8.3-4.8,12.5-7.2c4.8-2.8,10.8-2.8,15.6,0 c21.8,12.6,43.6,25.2,65.5,37.8C229.4,368.5,232.4,373.6,232.4,379.2z"/><g><path fill="#00A7CA" d="M319.2,417.2c0,9.3-2.3,16.5-7,21.7s-11.2,7.7-19.7,7.7c-8.6,0-15.2-2.6-19.9-7.7 c-4.6-5.1-6.9-12.4-6.9-21.8s2.3-16.7,7-21.7c4.6-5.1,11.3-7.6,19.9-7.6c8.5,0,15.1,2.6,19.7,7.7 C316.9,400.6,319.2,407.8,319.2,417.2z M275.6,417.2c0,7,1.4,12.4,4.3,16c2.8,3.6,7,5.4,12.6,5.4c5.5,0,9.7-1.8,12.6-5.4 c2.8-3.6,4.2-8.9,4.2-16.1c0-7-1.4-12.3-4.2-15.9c-2.8-3.6-7-5.4-12.5-5.4c-5.6,0-9.8,1.8-12.7,5.4 C277.1,404.9,275.6,410.2,275.6,417.2z"/><path fill="#00A7CA" d="M359.6,433.5c0,4.2-1.5,7.5-4.6,9.7c-3.1,2.3-7.5,3.4-13.2,3.4c-5.8,0-10.4-0.9-13.9-2.6V436 c5.1,2.3,9.8,3.5,14.2,3.5c5.6,0,8.5-1.7,8.5-5.1c0-1.1-0.3-2-0.9-2.7c-0.6-0.7-1.7-1.5-3.1-2.3c-1.4-0.8-3.4-1.7-6-2.7 c-5-1.9-8.3-3.9-10.1-5.8s-2.6-4.4-2.6-7.5c0-3.7,1.5-6.6,4.5-8.6c3-2,7-3.1,12.2-3.1c5.1,0,9.9,1,14.4,3.1l-3,6.9 c-4.7-1.9-8.6-2.9-11.8-2.9c-4.8,0-7.3,1.4-7.3,4.1c0,1.4,0.6,2.5,1.9,3.4c1.3,0.9,4,2.2,8.3,3.9c3.6,1.4,6.2,2.6,7.8,3.8 c1.6,1.1,2.8,2.5,3.6,4C359.2,429.6,359.6,431.4,359.6,433.5z"/><path fill="#00A7CA" d="M386.9,446.6c-6.5,0-11.5-1.9-14.9-5.7c-3.4-3.8-5.1-9.3-5.1-16.4c0-7.3,1.8-12.9,5.3-16.8 s8.7-5.9,15.4-5.9c4.6,0,8.7,0.8,12.3,2.5l-2.8,7.4c-3.9-1.5-7.1-2.3-9.6-2.3c-7.5,0-11.2,5-11.2,14.9c0,4.8,0.9,8.5,2.8,10.9 c1.9,2.4,4.6,3.7,8.2,3.7c4.1,0,8-1,11.6-3v8c-1.6,1-3.4,1.7-5.3,2.1C391.8,446.4,389.6,446.6,386.9,446.6z"/><path fill="#00A7CA" d="M436.1,445.8l-1.8-6H434c-2.1,2.6-4.2,4.4-6.3,5.4s-4.8,1.4-8.1,1.4c-4.2,0-7.6-1.1-9.9-3.4 c-2.4-2.3-3.6-5.5-3.6-9.7c0-4.5,1.7-7.8,5-10.1c3.3-2.3,8.3-3.5,15.1-3.7l7.5-0.2v-2.3c0-2.8-0.6-4.8-1.9-6.2s-3.3-2.1-6-2.1 c-2.2,0-4.3,0.3-6.4,1s-4,1.4-5.9,2.3l-3-6.6c2.3-1.2,4.9-2.2,7.7-2.8c2.8-0.6,5.4-1,7.9-1c5.5,0,9.6,1.2,12.4,3.6 s4.2,6.2,4.2,11.3v29.1H436.1z M422.4,439.5c3.3,0,6-0.9,8-2.8c2-1.9,3-4.5,3-7.8v-3.8l-5.5,0.2c-4.3,0.2-7.5,0.9-9.4,2.2 c-2,1.3-2.9,3.3-2.9,5.9c0,1.9,0.6,3.4,1.7,4.5C418.4,439,420.2,439.5,422.4,439.5z"/><path fill="#00A7CA" d="M477.4,401.8c1.8,0,3.4,0.1,4.6,0.4l-0.9,8.6c-1.3-0.3-2.7-0.5-4.1-0.5c-3.7,0-6.6,1.2-8.9,3.6 s-3.4,5.5-3.4,9.3v22.6h-9.2v-43.2h7.2l1.2,7.6h0.5c1.4-2.6,3.3-4.6,5.6-6.1C472.3,402.6,474.8,401.8,477.4,401.8z"/><path fill="#00A7CA" d="M511.7,388.7h17c7.9,0,13.5,1.1,17.1,3.4c3.5,2.3,5.3,5.9,5.3,10.9c0,3.3-0.9,6.1-2.6,8.3 c-1.7,2.2-4.2,3.6-7.4,4.2v0.4c4,0.8,7,2.2,8.8,4.5c1.9,2.2,2.8,5.2,2.8,9c0,5.1-1.8,9.1-5.4,12.1c-3.6,2.9-8.6,4.4-14.9,4.4 h-20.6L511.7,388.7L511.7,388.7z M521.1,412.3h9c3.9,0,6.8-0.6,8.6-1.9c1.8-1.2,2.7-3.3,2.7-6.3c0-2.7-1-4.6-2.9-5.8 c-1.9-1.2-5-1.8-9.2-1.8h-8.1L521.1,412.3L521.1,412.3z M521.1,419.9v18.1h9.9c3.9,0,6.9-0.7,8.8-2.2c2-1.5,3-3.9,3-7.1 c0-3-1-5.2-3-6.6c-2-1.4-5.1-2.1-9.3-2.1H521.1z"/><path fill="#00A7CA" d="M582.4,446.6c-6.7,0-12-2-15.8-5.9c-3.8-3.9-5.7-9.3-5.7-16.2c0-7.1,1.8-12.6,5.3-16.6 c3.5-4,8.3-6.1,14.5-6.1c5.7,0,10.2,1.7,13.5,5.2c3.3,3.5,5,8.2,5,14.3v5h-28.8c0.1,4.2,1.3,7.4,3.4,9.7c2.1,2.3,5.1,3.4,9,3.4 c2.6,0,4.9-0.2,7.1-0.7c2.2-0.5,4.6-1.3,7.1-2.4v7.5c-2.2,1.1-4.5,1.8-6.8,2.3C588,446.4,585.4,446.6,582.4,446.6z M580.8,408.8 c-2.9,0-5.3,0.9-7,2.8c-1.8,1.9-2.8,4.5-3.1,8.1h19.6c-0.1-3.6-0.9-6.3-2.6-8.1C586,409.7,583.7,408.8,580.8,408.8z"/><path fill="#00A7CA" d="M638.5,445.8h-32.8v-5.7l21.8-30.5h-20.5v-7h30.8v6.4l-21.4,29.8h22V445.8z"/><path fill="#00A7CA" d="M647.4,391.2c0-1.6,0.4-2.9,1.3-3.8c0.9-0.9,2.2-1.3,3.8-1.3c1.6,0,2.9,0.4,3.8,1.3 c0.9,0.9,1.3,2.1,1.3,3.8c0,1.6-0.4,2.8-1.3,3.7s-2.2,1.3-3.8,1.3c-1.7,0-2.9-0.4-3.8-1.3S647.4,392.7,647.4,391.2z M657.1,445.8 h-9.2v-43.2h9.2V445.8z"/></g></g></svg>