<svg xmlns="http://www.w3.org/2000/svg" xmlns:xlink="http://www.w3.org/1999/xlink" x="0" y="0" enable-background="new 0 0 834.1 260.8" version="1.1" viewBox="0 0 834.1 260.8" xml:space="preserve"><g id="Layer_3"><g><path fill="#666" d="M505.7,28.7v-9.2H469c-10.5,0-17.8,5-17.8,14.3c0,7.3,3.8,11.6,8.9,13.3c-3.6,5.5-7.1,11-10.6,16.5h12.7 c2.7-4.9,5.5-9.8,8.2-14.8h4.7v14.8h30.8v-9.3h-19.4v-8.1h16.8v-9.3h-16.8v-8.1H505.7z M475,40.2h-6.8c-3,0-5.7-2.2-5.7-5.8 c0-3.6,2.7-5.8,5.7-5.8h6.8V40.2z"/><path fill="none" d="M475,28.7v11.6h-6.8c-3,0-5.7-2.2-5.7-5.8c0-3.6,2.7-5.8,5.7-5.8H475z"/><polygon fill="none" points="557.2 44.5 552.2 44.5 552.2 37.3"/><path fill="#666" d="M570.1,19.4v26.4l-17.9-26.4h-11.4v17.4h-14.2V19.4h-11.4v44.1h11.4V46.1h14.2v17.4h11.4V52.9H563 l7.3,10.6h11.2V19.4H570.1z M552.2,44.5v-7.3l5,7.3H552.2z"/><path fill="none" d="M475,28.7v11.6h-6.8c-3,0-5.7-2.2-5.7-5.8c0-3.6,2.7-5.8,5.7-5.8H475z"/></g><g><path fill="#666" d="M359.3,19.5v32.6l-22.6-32.6h-9v21.2H309V19.5h-7.9v44h7.9V48.2h18.7v15.3h7.9V52.4h15.1l7.7,11.1h8.8v-44 H359.3z M335.6,45.2V30.7l10.1,14.6H335.6z"/><path fill="#666" d="M246.6,33.8c0,5.9,4,6.9,8.6,6.9h38v7.5h-21.4v8.2h21.4v7.1h-29.3V48h-7.1c-3.5,5.2-7,10.3-10.5,15.5h-9.6 c3.9-5.6,7.7-11.2,11.5-16.8c-4.3-1.3-9.6-4.7-9.6-13c0-9.2,6.1-14.1,16.3-14.1h38.2v7.4h-38C250.6,26.9,246.6,27.9,246.6,33.8z"/><line x1="359.5" x2="359.3" y1="52.4" y2="52.4" fill="none"/><polygon fill="none" points="345.7 45.2 335.6 45.2 335.6 30.7"/></g><g><polygon fill="none" points="132.2 45.2 122.1 45.2 122.1 30.7"/><line x1="146" x2="145.8" y1="52.4" y2="52.4" fill="none"/><path fill="none" d="M50.4,26.9v13.9h-8.8c-4.5,0-8.6-1.1-8.6-6.9c0-5.9,4-6.9,8.6-6.9H50.4z"/><path fill="#666" d="M145.8,19.5v32.6l-22.6-32.6h-9v21.2H95.5V19.5h-7.9v44h7.9V48.2h18.7v15.3h7.9V52.4h15.1l7.7,11.1h8.8 v-44H145.8z M122.1,45.2V30.7l10.1,14.6H122.1z"/><path fill="#666" d="M58.3,26.7h21.4v-7.1H41.5c-10.2,0-16.3,4.9-16.3,14.1c0,8.4,5.3,11.7,9.6,13c-3.8,5.6-7.7,11.2-11.5,16.8 h9.6c3.5-5.2,7-10.3,10.5-15.5h7.1v15.5h29.3v-7.1H58.3v-8.2h21.4v-7.5H58.3V26.7z M50.4,40.8h-8.8c-4.5,0-8.6-1.1-8.6-6.9 c0-5.9,4-6.9,8.6-6.9h8.8V40.8z"/><path fill="none" d="M50.4,26.9v13.9h-8.8c-4.5,0-8.6-1.1-8.6-6.9c0-5.9,4-6.9,8.6-6.9H50.4z"/></g><g><polygon fill="#666" points="637 105.5 637 127.5 626 111.1 626 105.5"/><polygon fill="#666" points="637 147.6 637 148.4 626.1 148.4 608.5 122.9 608.5 148.4 597.5 148.4 597.5 131.5 583.7 131.5 583.7 148.4 572.6 148.4 572.6 105.5 583.7 105.5 583.7 122.4 597.5 122.4 597.5 105.5 608.5 105.5"/><path fill="#666" d="M563.3,114.5v-9h-35.8c-10.2,0-17.3,4.9-17.3,14c0,7.1,3.7,11.3,8.6,12.9c-3.5,5.3-6.9,10.7-10.4,16h12.4 c2.7-4.8,5.3-9.6,8-14.3h4.6v14.3h29.9v-9.1h-18.8v-7.8h16.3v-9.1h-16.3v-7.9H563.3z M533.4,125.8h-6.6c-2.9,0-5.5-2.2-5.5-5.6 c0-3.5,2.6-5.7,5.5-5.7h6.6V125.8z"/><path fill="none" d="M533.4,114.5v11.3h-6.6c-2.9,0-5.5-2.2-5.5-5.6c0-3.5,2.6-5.7,5.5-5.7H533.4z"/><path fill="none" d="M533.4,114.5v11.3h-6.6c-2.9,0-5.5-2.2-5.5-5.6c0-3.5,2.6-5.7,5.5-5.7H533.4z"/></g><g><path fill="#666" d="M741.8,113.8v-6.9H707c-0.2,0-0.9,0-1.5,0c-4.2,0.4-7.8,1.6-10.4,3.2c-1.2,0.7-2.2,1.5-3,2.7 c-0.7,1-1.3,2.3-1.7,3.7c-0.3,1-0.4,2.2-0.5,3.5c0,1.6,0.3,3,0.7,4.1c0.4,1.1,0.8,1.9,1.5,2.7c1.8,2.2,4.8,4.3,7,5.1 c-4.1,5.9-8.1,11.8-12.2,17.8h9.3c4-5.9,8-11.8,12-17.8h5.1v17.8h28.5v-6.9H721v-10.8h20.8v-7.3H721v-10.8H741.8z M713.3,124.6 h-10.4c-1.7-0.1-1.9-0.2-2.2-0.3c-1.9-0.7-2.7-1.5-3.2-2.3c-0.4-0.7-0.5-1.3-0.4-2.2c0.1-0.9,0.3-1.9,0.9-2.8 c0.4-0.5,0.9-1,1.4-1.4c0.8-0.6,1.6-1,2.5-1.2c1.4-0.5,3-0.7,4.7-0.8h6.7V124.6z"/><path fill="none" d="M713.3,113.5v11.1h-10.4c-1.7-0.1-1.9-0.2-2.2-0.3c-1.9-0.7-2.7-1.5-3.2-2.3c-0.4-0.7-0.5-1.3-0.4-2.2 c0.1-0.9,0.3-1.9,0.9-2.8c0.4-0.5,0.9-1,1.4-1.4c0.8-0.6,1.6-1,2.5-1.2c1.4-0.5,3-0.7,4.7-0.8H713.3z"/><polygon fill="#666" points="813.8 149.7 813.8 149.7 805.2 149.7 783 117.7 783 149.7 775.3 149.7 775.3 131.9 757.2 131.9 757.2 149.7 749.5 149.7 749.5 106.9 757.2 106.9 757.2 124.6 775.3 124.6 775.3 106.9 784.1 106.9"/><polygon fill="#666" points="813.8 106.9 813.8 136 806.1 124.9 806.1 106.9"/><path fill="none" d="M713.3,113.5v11.1h-10.4c-1.7-0.1-1.9-0.2-2.2-0.3c-1.9-0.7-2.7-1.5-3.2-2.3c-0.4-0.7-0.5-1.3-0.4-2.2 c0.1-0.9,0.3-1.9,0.9-2.8c0.4-0.5,0.9-1,1.4-1.4c0.8-0.6,1.6-1,2.5-1.2c1.4-0.5,3-0.7,4.7-0.8H713.3z"/></g><g><path fill="none" d="M269.5,202.7v10.4h-6.6c-2.9,0-5.5-2.2-5.5-5.6c0-2.6,2.6-4.8,5.5-4.8H269.5z"/><polygon fill="#666" points="371.2 193.7 371.2 226.5 360.1 209.8 360.1 193.7"/><polygon fill="#666" points="371.2 236.7 358.3 236.7 342.6 213.1 342.6 236.7 331.6 236.7 331.6 219.7 317.8 219.7 317.8 236.7 306.7 236.7 306.7 193.7 317.8 193.7 317.8 213.1 331.6 213.1 331.6 193.7 342.6 193.7"/><path fill="#666" d="M280.5,202.7h18.9v-9h-35.8c-10.2,0-17.3,4.9-17.3,13.1c0,7.1,3.7,11.3,9.2,12.9 c-4,6.2-7.5,11.6-10.9,16.9h12.2c2.6-4.8,5.1-9.6,9.1-16.9h3.6v16.9h29.9v-9.1h-18.9V202.7z M269.5,213.1h-6.6 c-2.9,0-5.5-2.2-5.5-5.6c0-2.6,2.6-4.8,5.5-4.8h6.6V213.1z"/><path fill="none" d="M269.5,202.7v10.4h-6.6c-2.9,0-5.5-2.2-5.5-5.6c0-2.6,2.6-4.8,5.5-4.8H269.5z"/><rect width="10.7" height="6.6" x="286.2" y="213.1" fill="#666"/></g><g><path fill="#666" d="M59.2,203.8v10.4h16.3v6.6H59.2v7.9h18.8v9.1H48.2v-33.9h-6.6c-2.9,0-5.5,2.2-5.5,4.8 c0,3.4,2.6,5.6,5.5,5.6h3v6.6c-4,7.4-6.5,12.1-9.1,16.9H23.3c3.5-5.3,6.9-10.7,11-16.9c-5.5-1.6-9.2-5.9-9.2-12.9 c0-8.2,7.1-13.1,17.3-13.1h35.8v9H59.2z"/><polygon fill="#666" points="149.8 237.7 136.9 237.7 121.3 214.1 121.3 237.7 110.3 237.7 110.3 220.7 96.5 220.7 96.5 237.7 85.4 237.7 85.4 194.7 96.5 194.7 96.5 214.1 110.3 214.1 110.3 194.7 121.3 194.7"/><polygon fill="#666" points="149.8 194.7 149.8 227.5 138.8 210.8 138.8 194.7"/></g><g><rect width="13.2" height="9" x="507.5" y="195" fill="#666"/><rect width="10.7" height="6.6" x="507.5" y="214.3" fill="#666"/><rect width="13.2" height="9.1" x="507.5" y="228.8" fill="#666"/><polygon fill="#666" points="592.5 237.9 579.6 237.9 564 214.3 564 237.9 552.9 237.9 552.9 221 539.1 221 539.1 237.9 528.1 237.9 528.1 195 539.1 195 539.1 214.3 552.9 214.3 552.9 195 564 195"/><polygon fill="#666" points="592.5 195 592.5 227.7 581.4 211 581.4 195"/><path fill="none" d="M490.8,204v10.4h-6.6c-2.9,0-5.5-2.2-5.5-5.6c0-2.6,2.6-4.8,5.5-4.8H490.8z"/><path fill="#666" d="M484.9,195c-10.2,0-17.3,4.9-17.3,13.1c0,7.1,3.7,11.3,9.2,12.9c-4,6.2-7.5,11.6-11,16.9h12.2 c2.6-4.8,5.2-9.6,9.1-16.9h3.6v16.9h11.1V195H484.9z M490.8,214.3h-6.6c-2.9,0-5.5-2.2-5.5-5.6c0-2.6,2.6-4.8,5.5-4.8h6.6V214.3z"/></g><g><path fill="#666" d="M706.2,193.8c-10.2,0-17.3,4.9-17.3,13.1c0,7.1,3.7,11.3,9.2,12.9c-4,6.2-7.5,11.6-10.9,16.9h12.2 c2.6-4.8,5.1-9.6,9.1-16.9h3.6v16.9h5.5v-42.9H706.2z M712.1,213.2h-6.6c-2.9,0-5.5-2.2-5.5-5.6c0-2.6,2.6-4.8,5.5-4.8h6.6V213.2z"/><rect width="18.9" height="9" x="723.2" y="193.8" fill="#666"/><rect width="16.3" height="6.6" x="723.2" y="213.2" fill="#666"/><rect width="18.9" height="9.1" x="723.2" y="227.6" fill="#666"/><path fill="none" d="M712.1,202.8v10.4h-6.6c-2.9,0-5.5-2.2-5.5-5.6c0-2.6,2.6-4.8,5.5-4.8H712.1z"/><polygon fill="#666" points="813.8 193.8 813.8 226.5 802.7 209.8 802.7 193.8"/><polygon fill="#666" points="813.8 236.7 800.9 236.7 785.3 213.2 785.3 236.7 774.2 236.7 774.2 219.8 760.4 219.8 760.4 236.7 749.4 236.7 749.4 193.8 760.4 193.8 760.4 213.2 774.2 213.2 774.2 193.8 785.3 193.8"/></g><g><path fill="none" d="M369.6,108.9v11.2h-11c-5.8,0-7.8-7.8-2.6-10.5c0.8-0.4,1.7-0.6,2.6-0.6H369.6z"/><path fill="#666" d="M399.7,108.9v-6.6h-41.1c-1.9,0-3.6,0.4-5.3,1.2c-10,4.8-8.8,19.4,1.8,22.6c-4.8,8.3-9.6,16.5-14.3,24.8 h7.6c4.7-8.1,9.4-16.2,14-24.3h7.2v24.3h30.1v-6.6h-23.5v-17.7h17v-6.6h-17v-11.2H399.7z M369.6,120.1h-11 c-5.8,0-7.8-7.8-2.6-10.5c0.8-0.4,1.7-0.6,2.6-0.6h11V120.1z"/><path fill="none" d="M369.6,108.9v11.2h-11c-5.8,0-7.8-7.8-2.6-10.5c0.8-0.4,1.7-0.6,2.6-0.6H369.6z"/><path fill="#666" d="M453.4,102.3v35l0.2,0.4h-0.2v-0.4l-17-35h-6.6v17.7h-17v-17.7h-6.6v48.6h6.6v-24.3h17v24.3h6.6v-6.6h13.1 l3.2,6.6h7.3v-48.6H453.4z M436.4,137.8v-20.4l2.8,5.8l2.9,5.9l4.2,8.7H436.4z"/><polygon fill="none" points="442.1 129.1 446.3 137.8 436.4 137.8 436.4 117.4 439.2 123.1"/><polygon fill="none" points="453.6 137.8 453.4 137.8 453.4 137.4"/><polygon fill="none" points="446.3 137.8 436.4 137.8 436.4 117.4 439.2 123.1 442.1 129.1"/></g><g><path fill="#666" d="M663.7,19.4c-10.5,0-17.8,5-17.8,14.3c0,7.3,3.8,11.6,8.9,13.3c-3.5,5.5-7.1,11-10.6,16.5h12.7 c2.7-4.9,5.5-9.8,8.2-14.8h4.7v14.8h11.4V19.4H663.7z M669.7,40.2h-6.8c-3,0-5.7-2.2-5.7-5.8c0-3.6,2.7-5.8,5.7-5.8h6.8V40.2z"/><path fill="none" d="M669.7,28.7v11.6h-6.8c-3,0-5.7-2.2-5.7-5.8c0-3.6,2.7-5.8,5.7-5.8H669.7z"/><path fill="none" d="M669.7,28.7v11.6h-6.8c-3,0-5.7-2.2-5.7-5.8c0-3.6,2.7-5.8,5.7-5.8H669.7z"/><rect width="30.8" height="9.2" x="689.2" y="19.4" fill="#666"/><rect width="30.8" height="9.3" x="689.2" y="54.2" fill="#666"/><rect width="30.8" height="9.3" x="689.2" y="36.8" fill="#666"/><rect width="11.4" height="44.1" x="753.6" y="19.4" fill="#666"/><rect width="11.4" height="44.1" x="728.1" y="19.4" fill="#666"/><rect width="11.4" height="44.1" x="802.4" y="19.4" fill="#666"/><polygon fill="#666" points="800.9 43.7 800.9 61.2 786 39.4 784.5 37.3 784.5 63.5 773.1 63.5 773.1 19.4 784.5 19.4 786 21.6"/></g><g><rect width="30.1" height="48.7" x="23.3" y="102.3" fill="none" stroke="#666" stroke-linecap="round" stroke-linejoin="round" stroke-width=".602"/><path fill="none" stroke="#64F8FF" stroke-linecap="round" stroke-linejoin="round" stroke-width=".602" d="M53.4,132.4 c-5.7,11.4-17.4,18.6-30.1,18.6"/><rect width="30.1" height="30.1" x="23.3" y="102.3" fill="none" stroke="#64F8FF" stroke-linecap="round" stroke-linejoin="round" stroke-width=".602"/></g><line x1="479.6" x2="479.6" y1="102.2" y2="102.3" fill="none"/><g><path fill="#666" d="M237.9,102.2V131l-20-28.8h-7.9v16.2h-16.5v-16.2h-7v38.9h7V125h16.5v16.1h7v-9.3h13.7l6.5,9.3h7.8v-38.9 H237.9z M216.9,125.4v-13.4l9.3,13.4H216.9z"/><line x1="216.9" x2="216.9" y1="112.1" y2="102.2" fill="none"/><path fill="none" d="M152.1,108.7V121h-7.8c-4,0-7.6-0.9-7.6-6.1c0-5.2,3.6-6.1,7.6-6.1H152.1z"/><path fill="none" d="M152.1,108.7V121h-7.8c-4,0-7.6-0.9-7.6-6.1c0-5.2,3.6-6.1,7.6-6.1H152.1z"/><path fill="#666" d="M178,108.5v-6.3h-33.8c-9,0-14.4,4.4-14.4,12.5c0,7.4,4.7,10.4,8.5,11.5c-3.4,5-6.8,9.9-10.2,14.9h8.5 c3.1-4.6,6.2-9.1,9.3-13.7h6.3v13.7H178v-6.3h-18.9V125h16.4v-6.6h-16.4v-9.9H178z M152.1,121h-7.8c-4,0-7.6-0.9-7.6-6.1 c0-5.2,3.6-6.1,7.6-6.1h7.8V121z"/><g><line x1="141.8" x2="141.8" y1="114.6" y2="144.7" fill="none" stroke="#64F8FF" stroke-linecap="round" stroke-linejoin="round" stroke-width=".602"/><g><line x1="141.8" x2="141.8" y1="144.7" y2="171.5" fill="none" stroke="#64F8FF" stroke-linecap="round" stroke-linejoin="round" stroke-width=".602"/><g><line x1="141.8" x2="257.7" y1="102.3" y2="102.3" fill="none" stroke="#64F8FF" stroke-linecap="round" stroke-linejoin="round" stroke-width=".602"/><line x1="141.8" x2="141.8" y1="114.6" y2="81.5" fill="none" stroke="#64F8FF" stroke-linecap="round" stroke-linejoin="round" stroke-width=".602"/><circle cx="141.8" cy="114.6" r="12.2" fill="none" stroke="#64F8FF" stroke-linecap="round" stroke-linejoin="round" stroke-width=".602"/><line x1="110.1" x2="250.8" y1="141.1" y2="141.1" fill="none" stroke="#64F8FF" stroke-linecap="round" stroke-linejoin="round" stroke-width=".602"/><circle cx="141.8" cy="114.6" r="5.6" fill="none" stroke="#64F8FF" stroke-linecap="round" stroke-linejoin="round" stroke-width=".602"/><rect width="30.1" height="48.7" x="257.7" y="102.3" fill="none" stroke="#64F8FF" stroke-linecap="round" stroke-linejoin="round" stroke-width=".602"/><circle cx="141.8" cy="138.9" r="12.2" fill="none" stroke="#64F8FF" stroke-linecap="round" stroke-linejoin="round" stroke-width=".602"/><line x1="134.8" x2="141.8" y1="138.8" y2="126.8" fill="none" stroke="#64F8FF" stroke-linecap="round" stroke-linejoin="round" stroke-width=".602"/><line x1="141.8" x2="257.5" y1="126.8" y2="126.8" fill="none" stroke="#64F8FF" stroke-linecap="round" stroke-linejoin="round" stroke-width=".602"/><line x1="141.8" x2="308.7" y1="151.1" y2="151.1" fill="none" stroke="#64F8FF" stroke-linecap="round" stroke-linejoin="round" stroke-width=".602"/></g></g></g></g></g></svg>