<?xml version="1.0" encoding="utf-8"?>
<!-- Generator: Adobe Illustrator 17.1.0, SVG Export Plug-In . SVG Version: 6.00 Build 0)  -->
<!DOCTYPE svg PUBLIC "-//W3C//DTD SVG 1.1//EN" "http://www.w3.org/Graphics/SVG/1.1/DTD/svg11.dtd">
<svg version="1.1" xmlns="http://www.w3.org/2000/svg" xmlns:xlink="http://www.w3.org/1999/xlink" x="0px" y="0px"
	 viewBox="-992.6 -82.7 1868.9 419.8" enable-background="new -992.6 -82.7 1868.9 419.8" xml:space="preserve">
<g id="Layer_1">
	<g>
		<g id="Layer_2">
			<path fill="#666666" d="M374.6,1.6c1.3,1.3,2.6,2.6,3.9,4c0.4,0.5,0.8,1.3,0.8,2c0.1,7.8,0.1,15.7,0,23.5c0,0.6-0.5,1.2-0.7,1.9
				c0,0-0.1,0.1-0.1,0.1c-2.2,3-5,3.8-8.7,3.8c-29.7-0.2-59.4-0.1-89.1-0.1c-2,0-2,0-2,2c0,21.4,0,42.8,0,64.2c0,1.9,0,1.9,2,1.9
				c25.3,0,50.7,0,76,0c1.3,0,2.1,0.5,3,1.2c2.7,2,3.4,4.6,3.3,7.9c-0.3,6.5-0.1,13.1-0.1,19.6c0,1.1-0.4,1.9-1.1,2.8
				c-2.1,2.7-4.7,3.4-8.2,3.4c-24.4-0.1-48.8-0.1-73.2-0.1c-1.5,0-1.9,0.4-1.9,1.9c0,24.7,0,49.4,0,74.1c0,1.6,0.5,1.9,1.9,1.9
				c33.1,0,66.2,0,99.3-0.1c1.4,0,2.3,0.5,3.3,1.3c2.6,2,3.4,4.5,3.3,7.8c-0.3,6.5,0,13.1-0.1,19.6c0,0.9-0.5,1.8-1.1,2.6
				c-2,2.9-4.8,3.6-8.4,3.6c-33.8-0.1-67.7-0.1-101.5-0.1c-11.3,0-22.7,0.1-34,0.2c-1.4,0-2.3-0.5-3.3-1.3c-2.7-2.1-3.4-4.7-3.3-8
				c0.1-30.4,0.1-60.8,0.1-91.2c0-2,0-2-2-2c-7.1,0-14.3,0-21.4,0c-1,0-1.6,0.3-2.2,1.2c-9.5,14.2-19,28.4-28.5,42.5
				c-12.9,19.1-25.7,38.3-38.6,57.4c-0.6,1-1.4,1.3-2.5,1.3c-13.8,0-27.6,0-41.4,0c-1.2,0-1.9-0.3-2.4-1.4c-0.7-1.4-1.4-2.8-2.2-4.2
				c-0.2-0.3-0.5-0.5-0.7-0.7c0-0.5,0-1,0-1.5c0.4-0.4,0.8-0.8,1.1-1.2c9.5-13.3,19-26.7,28.5-40c14.3-20.1,28.6-40.2,42.9-60.3
				c1.5-2.1,3-4.3,4.6-6.5c-0.6-0.3-1.1-0.6-1.6-0.9c-10.4-5.1-19.8-11.7-27.4-20.4c-6.1-7-10.6-14.9-13.4-23.7
				c-2.2-7-3.4-14.1-3.7-21.5c-0.4-9.3,0.4-18.4,3.3-27.2c4.9-14.8,14.6-25.4,28.6-32.3c11-5.4,22.8-7.8,34.9-8.5
				c1.4-0.1,2.8-0.4,4.2-0.6C254.8,1.6,314.7,1.6,374.6,1.6z M234.7,76c0-12.5,0-25.1,0-37.6c0-1.2-0.2-1.7-1.6-1.7
				c-10.1,0.2-20.2-0.4-30.2,0.9c-6.4,0.8-12.6,2.2-18.4,4.9c-9.3,4.4-15,11.7-16,22c-0.6,6.7-0.2,13.4,1.7,20
				c2.1,7.5,6.1,13.9,12.2,18.7c7.6,6,16.6,8.8,26,10.4c8.1,1.4,16.3,1.5,24.5,1.5c1.4,0,1.9-0.4,1.9-1.9
				C234.7,100.9,234.7,88.5,234.7,76z"/>
			<path fill="#666666" d="M407.3,1.6c11.4,0,22.8,0,34.2,0c1.2,1.3,2.5,2.4,3.6,3.8c0.6,0.7,1.1,1.7,1.1,2.6
				c0.1,31.2,0,62.4,0,93.6c0,2,0,2,2.1,2c33.8,0,67.7,0,101.5,0c1.9,0,1.9,0,1.9-2c0-31.2,0-62.5,0-93.7c0-0.8,0.5-1.8,1-2.5
				c1.1-1.4,2.4-2.5,3.6-3.8c12.9,0,25.8,0,38.7,0c0.1,0.2,0.2,0.4,0.4,0.6c9.3,14.3,18.7,28.6,28,42.9
				c14.9,22.8,29.7,45.6,44.5,68.4c12.6,19.4,25.2,38.7,37.8,58.1c1.1,1.7,2.2,3.3,3.3,5c0.3-0.5,0.3-0.9,0.3-1.3
				c0-55.8,0-111.7,0-167.5c0-0.8,0.5-1.8,1-2.4c1-1.3,2.2-2.5,3.4-3.7c9.8,0,19.6,0,29.4,0c1.2,1.2,2.3,2.4,3.5,3.5
				c0.9,0.8,1.3,1.8,1.3,3c0,78.3,0,156.6,0,234.9c0,5.1,0,5.1-3.7,8.6c-0.5,0.5-1.4,0.8-2.1,0.8c-11.1,0.1-22.2,0-33.3,0.1
				c-1.1,0-1.8-0.4-2.3-1.3c-1.6-2.6-3.4-5.2-5.1-7.8c-9.2-14.1-18.4-28.3-27.6-42.4c-0.7-1.1-1.5-1.6-2.9-1.6
				c-24.6,0-49.3,0-73.9,0c-2,0-2,0-2,2c0,15,0,30,0,45c0,0.6,0.1,1.4-0.3,1.7c-2.2,2.3-4.1,4.8-8,4.6c-8.3-0.3-16.7-0.1-25-0.1
				c-5.3,0-5.4,0-9-3.8c-0.6-0.6-1-1.6-1-2.5c0-35.3-0.1-70.7,0-106c0-1.5-0.4-1.8-1.8-1.8c-33.9,0-67.8,0-101.7,0c-2,0-2,0-2,1.9
				c0,34.1-0.1,68.2,0.1,102.3c0,3.7-0.7,6.6-3.8,8.7c-0.7,0.5-1.6,0.9-2.4,1c-10.5,0.1-21.1,0-31.6,0c-0.5,0-1.1,0-1.4-0.3
				c-2.1-2.1-4.6-3.6-4.6-7.5c0.1-78.9,0.1-157.9,0.1-236.8c0-0.8,0.5-1.8,1-2.5C404.8,4,406.1,2.9,407.3,1.6z M595.6,80.9
				c-0.1,0.1-0.3,0.1-0.4,0.2c0,0.2-0.1,0.4-0.1,0.6c0,27.1,0,54.2,0,81.3c0,1.3,0.5,1.6,1.7,1.6c17.2,0,34.4,0,51.6,0
				c0.5,0,0.9-0.1,1.7-0.1C631.7,136.4,613.6,108.6,595.6,80.9z"/>
		</g>
		<path fill="#666666" d="M798.1,222.9c0-0.9,0-1.9,0-2.8c0-1.3-0.3-2.2-1.3-3c-1.2-1.1-2.3-2.3-3.5-3.5h-29.4
			c-1.1,1.2-2.3,2.4-3.4,3.7c-0.5,0.7-1,1.6-1,2.5c0,3.3,0,6.6,0,9.9c0,0,0,0,0.1,0c0,5.3,0,10.7,0,16c0,1.3,0.3,2.2,1.3,3
			c1.2,1.1,2.3,2.3,3.5,3.5h29.4c1.1-1.2,2.3-2.4,3.4-3.7c0.5-0.7,1-1.6,1-2.4C798.2,238.3,798.2,230.6,798.1,222.9
			C798.1,222.9,798.1,222.9,798.1,222.9z"/>
	</g>
	<g>
		<path fill="#666666" d="M-627.2,55.5V2.7h-209.9c-60,0-101.6,28.7-101.6,76.6c0,41.5,21.5,66.4,54,75.9
			c-23.7,36.6-43.9,68-64.2,99.3h71.8c15.1-28.1,30.2-56.1,53.4-99.3h20.9v99.3h175.6v-53.2h-110.6v-46.1h95.9v-38.9h-95.9V55.5
			H-627.2z M-802.7,116.3h-38.5c-17,0-32.5-12.8-32.5-32.8c0-15.1,15.5-27.9,32.5-27.9h38.5V116.3z"/>
		<polygon fill="#666666" points="-216.2,254.5 -291.8,254.5 -383.4,116.4 -383.4,254.5 -448.4,254.5 -448.4,155.2 -529.2,155.2 
			-529.2,254.5 -594.1,254.5 -594.1,2.7 -529.2,2.7 -529.2,116.3 -448.4,116.3 -448.4,2.7 -383.4,2.7 		"/>
		<polygon fill="#666666" points="-216.2,2.7 -216.2,194.7 -281.1,96.9 -281.1,2.7 		"/>
	</g>
</g>
<g id="Layer_2_1_">
	<line fill="none" stroke="#64F8FF" stroke-width="2" stroke-miterlimit="10" x1="-973.6" y1="116.3" x2="-112" y2="116.3"/>
	<line fill="none" stroke="#64F8FF" stroke-width="2" stroke-miterlimit="10" x1="-973.6" y1="155.2" x2="-112" y2="155.2"/>
	<line fill="none" stroke="#64F8FF" stroke-width="2" stroke-miterlimit="10" x1="112.4" y1="115.2" x2="816.3" y2="116.3"/>
	<line fill="none" stroke="#64F8FF" stroke-width="2" stroke-miterlimit="10" x1="112.4" y1="150" x2="816.3" y2="150"/>
	<line fill="none" stroke="#64F8FF" stroke-width="2" stroke-miterlimit="10" x1="112.4" y1="139.6" x2="816.3" y2="139.6"/>
	<line fill="none" stroke="#64F8FF" stroke-width="2" stroke-miterlimit="10" x1="112.4" y1="103.9" x2="816.3" y2="103.9"/>
	<line fill="none" stroke="#64F8FF" stroke-width="2" stroke-miterlimit="10" x1="112.4" y1="164.5" x2="816.3" y2="164.5"/>
	<line fill="none" stroke="#64F8FF" stroke-width="2" stroke-miterlimit="10" x1="112.4" y1="199.4" x2="816.3" y2="199.4"/>
</g>
</svg>
