<?xml version="1.0" encoding="utf-8"?>
<!-- Generator: Adobe Illustrator 24.2.1, SVG Export Plug-In . SVG Version: 6.00 Build 0)  -->
<svg version="1.1" id="Layer_1" xmlns="http://www.w3.org/2000/svg" xmlns:xlink="http://www.w3.org/1999/xlink" x="0px" y="0px"
	 viewBox="0 0 732.7 251.8" style="enable-background:new 0 0 732.7 251.8;" xml:space="preserve">
<style type="text/css">
	.st0{display:none;}
	.st1{fill:#FFFFFF;}
</style>
<g id="Layer_1_1_">
</g>
<g id="Layer_4" class="st0">
</g>
<g>
	<path class="st1" d="M321.7,52.8V0h-210C51.7,0,10.2,28.6,10.2,76.6c0,41.5,21.5,66.4,54,75.9c-23.7,36.6-43.9,68-64.2,99.3h71.8
		c15.1-28.1,30.2-56.1,53.4-99.3h20.9v99.3h175.6v-53.2H211v-46.1h95.9v-38.9H211V52.8H321.7z M146.1,113.6h-38.5
		c-17,0-32.5-12.8-32.5-32.8c0-15.1,15.5-27.9,32.5-27.9h38.5V113.6z"/>
	<polygon class="st1" points="732.7,251.8 657,251.8 565.4,113.7 565.4,251.8 500.5,251.8 500.5,152.5 419.7,152.5 419.7,251.8 
		354.7,251.8 354.7,0 419.7,0 419.7,113.6 500.5,113.6 500.5,0 565.4,0 	"/>
	<polygon class="st1" points="732.7,0 732.7,192 667.7,94.2 667.7,0 	"/>
</g>
</svg>
