<svg xmlns="http://www.w3.org/2000/svg" xmlns:xlink="http://www.w3.org/1999/xlink" id="Default" viewBox="0 0 526.84 66.26"><defs><style>.cls-1{fill:none;stroke:#000;stroke-miterlimit:10}.cls-2{fill:#13bbe2}.cls-3{fill:url(#linear-gradient)}</style><linearGradient id="linear-gradient" x1="365.39" x2="395.44" y1="18.98" y2="49.03" gradientUnits="userSpaceOnUse"><stop offset="0" stop-color="#df0035"/><stop offset=".09" stop-color="#d50b3e"/><stop offset=".25" stop-color="#ba2856"/><stop offset=".45" stop-color="#8f587c"/><stop offset=".7" stop-color="#539ab1"/><stop offset=".97" stop-color="#07edf4"/><stop offset="1" stop-color="#00f5fb"/></linearGradient></defs><title>Artboard 13</title><path d="M217,39.1a8.58,8.58,0,0,0,3.47-2.91,9.11,9.11,0,0,0,1.1-2.14,9.36,9.36,0,0,0,.52-2.43,9.69,9.69,0,0,0-.14-2.56,10,10,0,0,0-.84-2.51,10.34,10.34,0,0,0-1.51-2.27,10.66,10.66,0,0,0-2.11-1.85,11,11,0,0,0-2.6-1.27A11.29,11.29,0,0,0,212,20.6a11.58,11.58,0,0,0-3,.23,11.9,11.9,0,0,0-3,1,12.25,12.25,0,0,0-2.65,1.83,12.55,12.55,0,0,0-2.13,2.52,12.85,12.85,0,0,0-1.43,3.06,13.16,13.16,0,0,0-.6,3.41,13.48,13.48,0,0,0,.32,3.53,13.8,13.8,0,0,0,1.25,3.4,14.12,14.12,0,0,0,2.14,3A14.42,14.42,0,0,0,205.8,45a14.74,14.74,0,0,0,3.52,1.6,15.06,15.06,0,0,0,3.9.64,15.36,15.36,0,0,0,4-.4,15.69,15.69,0,0,0,3.84-1.46,16,16,0,0,0,3.4-2.46,16.32,16.32,0,0,0,2.69-3.32,16.65,16.65,0,0,0,1.77-4,17,17,0,0,0,.68-4.39,17.27,17.27,0,0,0-.49-4.49,17.58,17.58,0,0,0-1.67-4.29,17.91,17.91,0,0,0-2.78-3.77,18.21,18.21,0,0,0-3.73-3,18.45,18.45,0,0,0-3-1.44" class="cls-1"/><circle cx="212.52" cy="32.07" r="8.35" class="cls-1"/><circle cx="212.52" cy="32.07" r="18.59" class="cls-1"/><path d="M243.34,39.42A7.8,7.8,0,0,1,241,33.69a8,8,0,1,1,16.1,0,8.12,8.12,0,0,1-13.79,5.74Zm5.75-.69a4.52,4.52,0,0,0,3.48-1.45,5.49,5.49,0,0,0,0-7.19,4.92,4.92,0,0,0-7,0,5.49,5.49,0,0,0,0,7.19A4.55,4.55,0,0,0,249.09,38.73Z"/><path d="M259.27,41.74V25.64h3v16.1Z"/><path d="M272.07,38V31h3v9.87a5.35,5.35,0,0,1-1.4,3.77,4.67,4.67,0,0,1-3.33,1.6l-.64.06a6.08,6.08,0,0,1-4.08-1.78l1.4-1.61A4.91,4.91,0,0,0,269.47,44a2.53,2.53,0,0,0,2-.7,2.93,2.93,0,0,0,.61-2v-.55a4.29,4.29,0,0,1-5.74-.26,4.21,4.21,0,0,1-1.07-2.84V31h3v5.9a2.38,2.38,0,0,0,.54,1.66,2,2,0,0,0,3.27-.55Z"/><path d="M280.49,34.87v6.87h-3V31.32l3-.32v1a3.62,3.62,0,0,1,2.58-.94,3.9,3.9,0,0,1,3.11,1.23A4.68,4.68,0,0,1,289.72,31a3.9,3.9,0,0,1,3.11,1.23,4.21,4.21,0,0,1,1.07,2.84v6.65h-3v-5.9a2.56,2.56,0,0,0-.48-1.66,2,2,0,0,0-1.57-.62,2,2,0,0,0-1.55,1.18,4.24,4.24,0,0,0-.05.68v6.33h-3v-5.9a2.56,2.56,0,0,0-.48-1.66,2,2,0,0,0-1.57-.62A2.22,2.22,0,0,0,280.49,34.87Z"/><path d="M296.51,46.24V31.32l3-.32v.86a4.07,4.07,0,0,1,2.36-.86,5,5,0,0,1,3.92,1.61,5.59,5.59,0,0,1,0,7.51,5,5,0,0,1-3.92,1.61,3.54,3.54,0,0,1-2.36-.87v5.4Zm3-10.85v1.74a2.33,2.33,0,0,0,2.25,2.11,2.83,2.83,0,0,0,2.9-2.67q-.11-3-2.9-3.11Q299.73,33.78,299.51,35.39Z"/><path d="M315.86,37.93V31h3V41.74h-3v-1a3.74,3.74,0,0,1-2.58,1,3.9,3.9,0,0,1-3.11-1.23,4.21,4.21,0,0,1-1.07-2.84V31h3v5.9a2.38,2.38,0,0,0,.54,1.66,2.17,2.17,0,0,0,1.62.62A2.07,2.07,0,0,0,315.86,37.93Z"/><path d="M327.52,31.31a5.19,5.19,0,0,1,1.57,1.08l-1.67,1.89a2.29,2.29,0,0,0-1.82-.87,2,2,0,0,0-1.45.4q-.36.4,0,.73a3.25,3.25,0,0,0,1.45.54,5.08,5.08,0,0,1,2.62.91,3.1,3.1,0,0,1,1,2.65A2.71,2.71,0,0,1,328,41a4.78,4.78,0,0,1-2.8.84,6.45,6.45,0,0,1-2.54-.43,5.49,5.49,0,0,1-1.74-1.16l1.66-1.88a3.19,3.19,0,0,0,2.26,1,2.21,2.21,0,0,0,1.59-.4.62.62,0,0,0,.11-.81q-.25-.4-1.7-.54a5.9,5.9,0,0,1-2.4-.8,2.64,2.64,0,0,1-1.09-2.47,2.91,2.91,0,0,1,1.24-2.54,4.37,4.37,0,0,1,2.55-.87A6.05,6.05,0,0,1,327.52,31.31Z"/><path d="M64.62,31.29A18.48,18.48,0,1,0,47.26,50.83,18.49,18.49,0,0,0,64.62,31.29ZM46.86,44.05a11.69,11.69,0,1,1,11-12.36A11.69,11.69,0,0,1,46.86,44.05Z" class="cls-2"/><path d="M64.14,14.4c2.11,2.11,3.86,2.11,6,0s2.11-3.86,0-6-3.86-2.11-6,0S62,12.29,64.14,14.4Z"/><path d="M77.75,39.29a7.8,7.8,0,0,1-2.31-5.74,8,8,0,1,1,16.1,0,8.12,8.12,0,0,1-13.79,5.74Zm5.75-.69A4.52,4.52,0,0,0,87,37.15,5.49,5.49,0,0,0,87,30a4.92,4.92,0,0,0-7,0,5.49,5.49,0,0,0,0,7.19A4.55,4.55,0,0,0,83.5,38.59Z"/><path d="M93.68,41.6V25.5h3V41.6Z"/><path d="M106.49,37.89v-7h3v9.87a5.35,5.35,0,0,1-1.4,3.77,4.67,4.67,0,0,1-3.33,1.6l-.64.06A6.08,6.08,0,0,1,100,44.39l1.4-1.61a4.91,4.91,0,0,0,2.44,1.07,2.53,2.53,0,0,0,2-.7,2.93,2.93,0,0,0,.61-2v-.55a4.29,4.29,0,0,1-5.74-.26,4.21,4.21,0,0,1-1.07-2.84V30.87h3v5.9a2.38,2.38,0,0,0,.54,1.66,2,2,0,0,0,3.27-.55Z"/><path d="M114.9,34.73V41.6h-3V31.18l3-.32v1a3.62,3.62,0,0,1,2.58-.94,3.9,3.9,0,0,1,3.11,1.23,4.68,4.68,0,0,1,3.54-1.23,3.9,3.9,0,0,1,3.11,1.23,4.21,4.21,0,0,1,1.07,2.84V41.6h-3V35.7a2.56,2.56,0,0,0-.48-1.66,2,2,0,0,0-1.57-.62,2,2,0,0,0-1.55,1.18,4.24,4.24,0,0,0-.05.68V41.6h-3V35.7a2.56,2.56,0,0,0-.48-1.66,2,2,0,0,0-1.57-.62A2.22,2.22,0,0,0,114.9,34.73Z"/><path d="M130.92,46.11V31.18l3-.32v.86a4.07,4.07,0,0,1,2.36-.86,5,5,0,0,1,3.92,1.61,5.59,5.59,0,0,1,0,7.51,5,5,0,0,1-3.92,1.61,3.54,3.54,0,0,1-2.36-.87v5.4Zm3-10.85V37a2.33,2.33,0,0,0,2.25,2.11,2.83,2.83,0,0,0,2.9-2.67q-.11-3-2.9-3.11Q134.14,33.65,133.92,35.26Z"/><path d="M150.27,37.79V30.86h3V41.6h-3v-1a3.74,3.74,0,0,1-2.58,1,3.9,3.9,0,0,1-3.11-1.23,4.21,4.21,0,0,1-1.07-2.84V30.86h3v5.9a2.38,2.38,0,0,0,.54,1.66,2.17,2.17,0,0,0,1.62.62A2.07,2.07,0,0,0,150.27,37.79Z"/><path d="M161.93,31.17a5.19,5.19,0,0,1,1.57,1.08l-1.67,1.89a2.29,2.29,0,0,0-1.82-.87,2,2,0,0,0-1.45.4q-.36.4,0,.73a3.25,3.25,0,0,0,1.45.54,5.08,5.08,0,0,1,2.62.91,3.1,3.1,0,0,1,1,2.65,2.71,2.71,0,0,1-1.2,2.36,4.78,4.78,0,0,1-2.8.84,6.45,6.45,0,0,1-2.54-.43,5.49,5.49,0,0,1-1.74-1.16L157,38.23a3.19,3.19,0,0,0,2.26,1,2.21,2.21,0,0,0,1.59-.4A.62.62,0,0,0,161,38q-.25-.4-1.7-.54a5.9,5.9,0,0,1-2.4-.8,2.64,2.64,0,0,1-1.09-2.47A2.91,2.91,0,0,1,157,31.68a4.37,4.37,0,0,1,2.55-.87A6.05,6.05,0,0,1,161.93,31.17Z"/><path d="M410.39,39.33a7.8,7.8,0,0,1-2.31-5.74,8,8,0,1,1,16.1,0,8.12,8.12,0,0,1-13.79,5.74Zm5.75-.69a4.52,4.52,0,0,0,3.48-1.45,5.49,5.49,0,0,0,0-7.19,4.92,4.92,0,0,0-7,0,5.49,5.49,0,0,0,0,7.19A4.55,4.55,0,0,0,416.14,38.64Z"/><path d="M426.32,41.64V25.55h3v16.1Z"/><path d="M439.12,37.93v-7h3v9.87a5.35,5.35,0,0,1-1.4,3.77,4.67,4.67,0,0,1-3.33,1.6l-.64.06a6.08,6.08,0,0,1-4.08-1.78l1.4-1.61a4.91,4.91,0,0,0,2.44,1.07,2.53,2.53,0,0,0,2-.7,2.93,2.93,0,0,0,.61-2v-.55a4.29,4.29,0,0,1-5.74-.26,4.21,4.21,0,0,1-1.07-2.84V30.91h3v5.9a2.38,2.38,0,0,0,.54,1.66,2,2,0,0,0,3.27-.55Z"/><path d="M447.54,34.78v6.87h-3V31.22l3-.32v1a3.62,3.62,0,0,1,2.58-.94,3.9,3.9,0,0,1,3.11,1.23,4.68,4.68,0,0,1,3.54-1.23,3.9,3.9,0,0,1,3.11,1.23A4.21,4.21,0,0,1,461,35v6.65h-3v-5.9a2.56,2.56,0,0,0-.48-1.66,2,2,0,0,0-1.57-.62,2,2,0,0,0-1.55,1.18,4.24,4.24,0,0,0-.05.68v6.33h-3v-5.9a2.56,2.56,0,0,0-.48-1.66,2,2,0,0,0-1.57-.62A2.22,2.22,0,0,0,447.54,34.78Z"/><path d="M463.56,46.15V31.22l3-.32v.86a4.07,4.07,0,0,1,2.36-.86,5,5,0,0,1,3.92,1.61,5.59,5.59,0,0,1,0,7.51,5,5,0,0,1-3.92,1.61,3.54,3.54,0,0,1-2.36-.87v5.4Zm3-10.85V37a2.33,2.33,0,0,0,2.25,2.11,2.83,2.83,0,0,0,2.9-2.67q-.11-3-2.9-3.11Q466.78,33.69,466.56,35.3Z"/><path d="M482.91,37.83V30.9h3V41.64h-3v-1a3.74,3.74,0,0,1-2.58,1,3.9,3.9,0,0,1-3.11-1.23,4.21,4.21,0,0,1-1.07-2.84V30.9h3v5.9a2.38,2.38,0,0,0,.54,1.66,2.18,2.18,0,0,0,1.62.62A2.07,2.07,0,0,0,482.91,37.83Z"/><path d="M494.57,31.21a5.19,5.19,0,0,1,1.57,1.08l-1.67,1.89a2.29,2.29,0,0,0-1.82-.87,2,2,0,0,0-1.45.4q-.36.4,0,.73a3.25,3.25,0,0,0,1.45.54,5.08,5.08,0,0,1,2.62.91,3.1,3.1,0,0,1,1,2.65,2.71,2.71,0,0,1-1.2,2.36,4.78,4.78,0,0,1-2.8.84,6.46,6.46,0,0,1-2.54-.43A5.49,5.49,0,0,1,488,40.15l1.66-1.88a3.19,3.19,0,0,0,2.26,1,2.21,2.21,0,0,0,1.59-.4.62.62,0,0,0,.11-.81q-.25-.4-1.7-.54a5.9,5.9,0,0,1-2.4-.8,2.64,2.64,0,0,1-1.09-2.47,2.91,2.91,0,0,1,1.24-2.54,4.37,4.37,0,0,1,2.55-.87A6.05,6.05,0,0,1,494.57,31.21Z"/><path d="M389.84,27.39A2.54,2.54,0,0,1,390,28c0,.94.15,1.5,1.4,1.61s1.57,1.61.74,3l0,0a1.73,1.73,0,0,1-1.16.52c-.6,0-.82,0-.84.8s.3.79.86.79a1.5,1.5,0,0,1,1.14.54l0,0c1.07,1.67.54,2.9-1.47,3.12-1,.11-.34.77-.52,1.14-.08.17-.3.53.27.63,1.77.29,2.29.8,2.11,1.89s-1,1.56-2.73,1.3c.19.86.31,1.73-.45,2.37s-1.61.37-2.42,0a2.81,2.81,0,0,1-.34-2c-1.65.11-1.65.11-1.75,1.84a3.3,3.3,0,0,1,2.11.19s0,.09,0,.13c.34.83.58,1.66-.19,2.39a1.55,1.55,0,0,1-1.82.28c-1-.47-1.07-1.37-.76-2.47a3.23,3.23,0,0,1-2,.13c.06,1.72-.61,2.66-1.79,2.61s-1.76-1-1.57-2.56a4,4,0,0,1-2-.14c.07,1.82-.45,2.61-1.64,2.58a1.58,1.58,0,0,1-1.58-1.69c0-1.13.8-1.59,2.48-1.53,0-1.09,0-2.2-1.77-1.66a2.08,2.08,0,0,1-.59,2,1.72,1.72,0,0,1-1.21.41c-1.19-.06-1.7-1-1.53-2.72-1.73.18-2.64-.35-2.67-1.57s.81-1.77,2.43-1.7c0-.95.28-1.78-1.29-1.87-1.3-.07-1.58-1.64-.72-3l0,0a1.57,1.57,0,0,1,1.15-.53c.57,0,.87,0,.86-.79s-.24-.83-.84-.8a1.79,1.79,0,0,1-1.16-.52l0,0c-1-1.73-.51-2.87,1.53-3.1.51-.06.57-.23.51-.62a4.28,4.28,0,0,1,.3-1.51l.25-.25a2.09,2.09,0,0,0,2.37-2.39l.2-.2a10.13,10.13,0,0,1,1.12-.28,7.27,7.27,0,0,1,1,0c0-1.64.63-2.56,1.81-2.56s1.78.86,1.82,2.46c1,.15,1.73.25,1.74-1.2,0-.81.85-1.29,1.72-1.25a1.71,1.71,0,0,1,1.67,1.39,5.45,5.45,0,0,1,0,1.23,3.9,3.9,0,0,1,2.15.18l.29.29a2,2,0,0,0,2.3,2.3ZM371.58,42.72a4.81,4.81,0,0,1,2.06,0c-.67-.6.33-1.78-1.27-1.73S372.3,42.32,371.58,42.72Zm17.8,0a3.14,3.14,0,0,1-.18-1.72c-1.47-.3-2,.26-1.59,1.66C388.14,42.45,388.67,42.72,389.37,42.72Zm-9.8,2.49a13.06,13.06,0,0,1,1.72,0c-.55-.38.64-1.51-.87-1.52S380.08,44.79,379.57,45.21Zm4.19-20.14c-.5.31-1,.1-1.43.19v1.37C383.72,27.09,384,26.38,383.76,25.07Zm-6.74.11c.44.44-.68,1.44.62,1.5.53,0,.85.1.88-.72C378.6,24.39,377.38,25.75,377,25.18Zm10.61,12c.39-.4,1.42.7,1.37-.62,0-.39.17-.74-.59-.75C387.1,35.8,387.82,36.68,387.64,37.19Zm-15.81-1.36c.38.4-.71,1.46.66,1.37.42,0,.74.12.75-.61C373.27,35.19,372.25,36.19,371.83,35.83Zm1.35-4.69c.3-.88-.37-.53-.71-.61-.61-.14-.74.14-.67.69s-.15.81.62.74S373.4,31.84,373.18,31.14Zm15.21-.61c-.42,0-.85-.2-.81.59s.23.75.85.82c.79.09.54-.37.6-.74C389.11,30.64,388.93,30.39,388.39,30.53Zm-14,8c.61.27-.69,1.26.63,1.23.28,0,.78.34.79-.43C375.86,38.26,375.17,38.5,374.43,38.54Zm11.89.62c0-.35.2-.77-.51-.7s-.77.22-.81.82.43.43.74.5C386.29,39.9,386.43,39.65,386.31,39.16Zm-7.79,3.42c-.18-.75.2-1.52-.91-1.52-.87,0-.48.59-.47.87C377.18,43.09,378,42.15,378.52,42.58Zm5.13-.88c-.09-.12.36-.66-.41-.64s-.81.3-.87.9.29.47.61.49S383.9,42.56,383.65,41.7ZM375.83,28c-1.26-.38-1.65.08-1.29,1.3C375.6,29.49,376,29,375.83,28Zm9.12-.33c.06,1-.06,1.75,1,1.67.76-.06.36-.58.37-.84C386.42,27.24,385.46,28.25,384.94,27.66Zm-4.54,1.59c.58.1.59-.26.63-.69s-.06-.63-.54-.57-.82-.16-.7.54C379.87,28.92,379.78,29.36,380.4,29.26Zm-5.84,5.22c.45-.19,1.21.43,1.24-.59,0-.57-.3-.61-.72-.61C374,33.28,374.92,34.13,374.56,34.48ZM386.24,34c0-.36.18-.79-.5-.7-.4.06-.72,0-.72.6s.22.62.68.63S386.36,34.46,386.24,34Zm5.92-1.4a2.75,2.75,0,0,0,0,2.64l0,0c.24.09.48.2.72.26a1.62,1.62,0,0,0,1.94-.59,1.58,1.58,0,0,0,0-1.92,1.62,1.62,0,0,0-1.94-.59c-.25.07-.48.17-.72.26Zm-23.48,2.64a2.83,2.83,0,0,0,0-2.64l0,0c-.24-.09-.48-.19-.72-.26a1.62,1.62,0,0,0-1.94.59,1.58,1.58,0,0,0,0,1.92,1.62,1.62,0,0,0,1.94.59c.25-.07.48-.17.72-.26Zm23.73-8.75a1.62,1.62,0,0,0-2.64-1.61,1.65,1.65,0,0,0-.26,2.23l.32.32C391.22,27.9,392.17,27.56,392.41,26.46Zm-4.09-1.4a1.61,1.61,0,0,0,.75-3,1.52,1.52,0,0,0-1.91.17,1.67,1.67,0,0,0-.25,2.23l.29.29A1.93,1.93,0,0,0,388.31,25.06ZM369,39.12a1.59,1.59,0,1,0-3.18.08,1.48,1.48,0,0,0,1.46,1.49A1.6,1.6,0,0,0,369,39.12Zm22.88,0a1.48,1.48,0,0,0,1.53,1.59,1.52,1.52,0,0,0,1.65-1.6,1.48,1.48,0,0,0-1.37-1.59A1.56,1.56,0,0,0,391.85,39.1ZM395,28.69a1.55,1.55,0,0,0-3.1,0c0,1,.59,1.48,1.54,1.6C394.38,30.15,395,29.67,395,28.69Zm-29.16-.05a1.55,1.55,0,0,0,3.1.08,1.51,1.51,0,0,0-1.5-1.62C366.47,27.18,365.86,27.66,365.84,28.63ZM371.6,26a1.61,1.61,0,0,0-3-.78,1.52,1.52,0,0,0,.18,1.92,1.66,1.66,0,0,0,2.25.21l.25-.25A1.84,1.84,0,0,0,371.6,26Zm1.29-4.13a1.6,1.6,0,0,0-1.47,2.67,1.64,1.64,0,0,0,2.24.17l.2-.2C374.46,23.12,374.07,22.07,372.89,21.88ZM382,21a1.55,1.55,0,0,0-1.48-1.76,1.49,1.49,0,0,0-1.68,1.42A1.59,1.59,0,1,0,382,21Zm-6.86-1.7a1.42,1.42,0,0,0-1.47,1.49,1.42,1.42,0,0,0,1.52,1.56c1,0,1.45-.62,1.57-1.6A1.54,1.54,0,0,0,375.14,19.33Zm9,1.51a1.53,1.53,0,0,0,3.05.1c.06-1-.54-1.48-1.47-1.64A1.52,1.52,0,0,0,384.1,20.83Zm-7.79,28.67A1.44,1.44,0,0,0,377.76,51a1.52,1.52,0,0,0,1.56-1.56A1.55,1.55,0,0,0,377.79,48,1.51,1.51,0,0,0,376.31,49.51Zm8.22,0A1.44,1.44,0,0,0,383,48a1.52,1.52,0,0,0-1.54,1.59,1.55,1.55,0,0,0,1.55,1.46A1.51,1.51,0,0,0,384.52,49.51Zm11.54-19.65a1.41,1.41,0,1,0,0,2.82,1.41,1.41,0,0,0,0-2.82Zm-31.2,5.2a1.34,1.34,0,0,0-1.52,1.41,1.32,1.32,0,0,0,1.35,1.45,1.43,1.43,0,1,0,.17-2.86Zm32.63,1.39a1.44,1.44,0,0,0-2.89,0c0,.9.56,1.38,1.47,1.49A1.43,1.43,0,0,0,397.5,36.45Zm-6.68,9.08a1.27,1.27,0,0,0-1.36,1.39,1.28,1.28,0,0,0,1.48,1.39,1.39,1.39,0,0,0-.12-2.78ZM363.39,31.21a1.39,1.39,0,1,0,2.78.07,1.39,1.39,0,0,0-2.78-.07Zm8,15.75a1.38,1.38,0,0,0-2.77-.09c0,.87.47,1.35,1.39,1.45A1.32,1.32,0,0,0,371.37,47Zm6.49-30a1.22,1.22,0,0,0-1.39,1.35,1.21,1.21,0,0,0,1.28,1.33,1.34,1.34,0,1,0,.11-2.67Zm5.18,0a1.23,1.23,0,0,0-1.36,1.38,1.21,1.21,0,0,0,1.31,1.3c.9,0,1.33-.51,1.38-1.46A1.26,1.26,0,0,0,383,16.91ZM372.63,48.2a1.21,1.21,0,0,0-1.35,1.36,1.19,1.19,0,0,0,1.29,1.29,1.32,1.32,0,1,0,.06-2.64Zm-3.87-3.92a1.37,1.37,0,0,0-2.74.06c0,.88.54,1.31,1.43,1.36A1.29,1.29,0,0,0,368.75,44.28Zm19.62,3.92a1.22,1.22,0,0,0-1.46,1.24,1.2,1.2,0,0,0,1.18,1.4,1.26,1.26,0,0,0,1.48-1.21C389.56,48.8,389.19,48.27,388.37,48.2Zm5-5.27a1.38,1.38,0,0,0,.09,2.75c.88,0,1.3-.56,1.35-1.45A1.3,1.3,0,0,0,393.4,42.93Zm0-20.77a1.3,1.3,0,0,0,.1,2.6c.82,0,1.22-.55,1.28-1.47A1.28,1.28,0,0,0,393.39,22.16Zm-27.3,1.25a1.3,1.3,0,0,0,2.59.1,1.26,1.26,0,0,0-1.24-1.37C366.64,22.2,366.12,22.59,366.09,23.41Zm28.66,18.32a1.3,1.3,0,0,0,2.6-.05c0-.83-.52-1.23-1.33-1.3A1.25,1.25,0,0,0,394.75,41.73Zm-3.86-22.17a1.19,1.19,0,0,0-1.34,1.24,1.19,1.19,0,0,0,1.24,1.34,1.26,1.26,0,0,0,1.37-1.23C392.09,20.11,391.7,19.59,390.89,19.56Zm-20.9,0a1.29,1.29,0,0,0-.06,2.58c.83,0,1.25-.46,1.38-1.26C371.22,20.08,370.82,19.57,370,19.56Zm10.39,31.28a1.28,1.28,0,0,0,0,2.55c.81,0,1.22-.5,1.33-1.29C381.6,51.33,381.19,50.83,380.37,50.85ZM364.83,40.41a1.3,1.3,0,0,0-.1,2.59,1.26,1.26,0,0,0,1.37-1.23C366,41,365.65,40.44,364.83,40.41ZM397.31,26a1.25,1.25,0,1,0-2.5.13c0,.74.57,1.13,1.36,1.19A1.28,1.28,0,0,0,397.31,26ZM366,26a1.25,1.25,0,1,0-2.49.1,1.25,1.25,0,0,0,1.29,1.19C365.55,27.2,366,26.8,366,26Zm20.81,26a1.21,1.21,0,0,0-2.42.06,1.21,1.21,0,1,0,2.42-.06Zm11.79-19.39a1.21,1.21,0,0,0,0,2.42c.75,0,1.16-.47,1.27-1.21A1.22,1.22,0,0,0,398.63,32.67ZM372.59,17a1.21,1.21,0,0,0-.06,2.43c.75,0,1.18-.44,1.3-1.19A1.22,1.22,0,0,0,372.59,17Zm15.67,0a1.22,1.22,0,0,0-.06,2.44c.74,0,1.15-.46,1.28-1.2A1.22,1.22,0,0,0,388.26,17Zm-13,33.89a1.21,1.21,0,0,0-.09,2.41c.75.06,1.18-.42,1.31-1.17A1.21,1.21,0,0,0,375.22,50.92Zm-13-15.84a1.2,1.2,0,0,0-.12-2.4A1.19,1.19,0,0,0,361,33.92C361.09,34.68,361.52,35.13,362.26,35.08ZM398.64,38a1.13,1.13,0,0,0,0,2.25c.72,0,1.08-.44,1.13-1.17A1.07,1.07,0,0,0,398.64,38Zm-36.5,0a1,1,0,0,0-1.08,1,1,1,0,0,0,1.08,1.18,1.11,1.11,0,1,0,0-2.22Zm18.24-23.43a1,1,0,0,0-1.06,1.07,1,1,0,0,0,1.13,1.12,1.09,1.09,0,1,0-.08-2.19Zm18.34,13a1,1,0,0,0-1.13,1.11,1,1,0,0,0,1.08,1c.67,0,1-.39,1.09-1.12A1,1,0,0,0,398.72,27.6ZM374.17,15.72a1,1,0,0,0,2.06-.08c0-.66-.42-1-1.07-1A1,1,0,0,0,374.17,15.72Zm12.49-.13a1,1,0,0,0-2.06,0c0,.67.4,1,1.14,1.07A1,1,0,0,0,386.66,15.59ZM364.88,45.9a1,1,0,0,0-1.12,1,.94.94,0,0,0,.91,1.05c.66.07,1-.33,1.15-1A1,1,0,0,0,364.88,45.9Zm-1.64-17.22a1,1,0,0,0-1-1.08,1,1,0,0,0-1.12,1.12,1.07,1.07,0,0,0,2.14,0ZM397.07,47a1,1,0,0,0-1-1.08.94.94,0,0,0-1,1c0,.67.38,1,1,1.1A1,1,0,0,0,397.07,47Zm-30.7,2.44a1,1,0,0,0,1,1.13.94.94,0,0,0,1.06-.91c.07-.67-.33-1-1-1.16A1,1,0,0,0,366.37,49.41Zm26.05.18a1,1,0,0,0,2.05-.08c0-.66-.42-1-1.07-1A1,1,0,0,0,392.42,49.59Zm-14.58,4.16a1,1,0,0,0-.06,2c.6,0,.92-.37,1-1A1,1,0,0,0,377.84,53.75Zm5.15,0a1,1,0,0,0,.07,2,1,1,0,0,0,1-1C383.91,54.12,383.59,53.73,383,53.75Zm8.82-1.67a1,1,0,0,0-1.93,0c0,.6.39.93,1,1C391.44,53,391.83,52.69,391.81,52.09ZM371,52.14a1,1,0,0,0-1.92-.08c-.05.6.34.94.93,1.06A1,1,0,0,0,371,52.14Zm27.77-8.75a.92.92,0,1,0-.06,1.85c.55,0,.85-.35.94-.91A.92.92,0,0,0,398.72,43.38Zm-36.49,0a.9.9,0,1,0-.11,1.8.9.9,0,1,0,.11-1.8Zm35.64-20a.79.79,0,0,0,1.59,0,.79.79,0,1,0-1.59,0Zm-34.91,0a.71.71,0,0,0-.73-.75.72.72,0,0,0-.84.76.79.79,0,1,0,1.57,0ZM396,20a.78.78,0,0,0-.83.8.8.8,0,0,0,.84.92A.86.86,0,1,0,396,20Zm-31.15,0a.79.79,0,0,0-.93.83.77.77,0,0,0,.77.87c.56,0,.89-.26,1-.89A.81.81,0,0,0,364.86,20Zm28.57-.9a.78.78,0,0,0,.87-.9.77.77,0,0,0-.83-.8c-.58,0-.86.33-.88.9A.8.8,0,0,0,393.43,19.1Zm-26-1.69a.78.78,0,0,0-.92.82.76.76,0,0,0,.76.86.8.8,0,0,0,.93-.83A.79.79,0,0,0,367.47,17.41Zm23.38-2.53A.77.77,0,1,0,391,16.4c.43-.06.65-.37.66-.89A.76.76,0,0,0,390.85,14.87Zm-21.61.76a.7.7,0,0,0,.72.76.71.71,0,0,0,.79-.81.74.74,0,0,0-.78-.71A.75.75,0,0,0,369.23,15.63ZM383.77,13a.7.7,0,0,0-.72-.74.7.7,0,0,0-.77.82.74.74,0,0,0,.79.7A.75.75,0,0,0,383.77,13Zm-6.71,0a.7.7,0,0,0,.7.77.7.7,0,0,0,.8-.79.74.74,0,0,0-.76-.72A.75.75,0,0,0,377.06,13ZM372.64,54a.72.72,0,0,0-.82.79.7.7,0,0,0,.72.75.77.77,0,1,0,.1-1.54Zm14.81.78a.7.7,0,0,0,.69.77.72.72,0,0,0,.86-.72.78.78,0,1,0-1.55-.05ZM402.11,36.6a.79.79,0,0,0-.8-1,.77.77,0,0,0-.9.74.81.81,0,0,0,.8,1A.8.8,0,0,0,402.11,36.6Zm-43.36-5.34a.73.73,0,0,0,.76.83.82.82,0,1,0,0-1.64A.76.76,0,0,0,358.75,31.26Zm42.51-.81a.74.74,0,0,0-.82.8.76.76,0,0,0,.89.85c.52,0,.76-.35.77-.9A.77.77,0,0,0,401.26,30.45Zm-41.68,5.2a.78.78,0,0,0-.86.89.76.76,0,0,0,.82.8.84.84,0,1,0,0-1.69Zm.69,6.07a.71.71,0,0,0-1.42-.09c-.06.44.25.69.67.8A.74.74,0,0,0,360.28,41.71Zm41.71,0a.72.72,0,0,0-1.44,0c0,.46.29.69.72.77C401.7,42.36,402,42.13,402,41.67Z" class="cls-3"/></svg>