<svg xmlns="http://www.w3.org/2000/svg" id="Default" viewBox="0 0 235.06 116.5"><defs><style>.cls-1{fill:none;stroke:#000;stroke-linecap:round;stroke-linejoin:round;stroke-width:.5px}</style></defs><title>Artboard 9</title><path d="M52,52.6a3.81,3.81,0,0,1-5.22,0,3.66,3.66,0,0,1,0-5.15,3.81,3.81,0,0,1,5.22,0,3.66,3.66,0,0,1,0,5.15ZM51.42,50a2.29,2.29,0,0,0-.6-1.6,2,2,0,0,0-3,0,2.42,2.42,0,0,0,0,3.19,2,2,0,0,0,3,0A2.27,2.27,0,0,0,51.42,50Z"/><path d="M55.62,53.57h-1.5V46.14h1.5Z"/><path d="M58,55.69A2.18,2.18,0,0,1,56.49,55l.68-1.11a1.12,1.12,0,0,0,.78.37.44.44,0,0,0,.36-.21.72.72,0,0,0,.15-.44q0-.23-2.08-5.48H58l1.31,3.35,1.31-3.35h1.6l-2.5,6.35a1.79,1.79,0,0,1-.69.86A1.85,1.85,0,0,1,58,55.69Z"/><path d="M67.9,50.66v2.9H66.38V50.62a1.77,1.77,0,0,0-.2-.94.7.7,0,0,0-.63-.3,1.08,1.08,0,0,0-.77.33,1.27,1.27,0,0,0-.34,1v2.9H63V48.18h1.5v.61a1.86,1.86,0,0,1,1.42-.7,1.54,1.54,0,0,1,.93.3,2,2,0,0,1,.63.73,2.12,2.12,0,0,1,.84-.76,2.29,2.29,0,0,1,1.06-.27,2.1,2.1,0,0,1,1.53.57,2.18,2.18,0,0,1,.58,1.64v3.27H69.92V50.62q0-1.24-.91-1.24a1.08,1.08,0,0,0-.78.33A1.28,1.28,0,0,0,67.9,50.66Z"/><path d="M75.92,48.09a2.24,2.24,0,0,1,1.68.79,2.78,2.78,0,0,1,.74,2,2.83,2.83,0,0,1-.74,2,2.27,2.27,0,0,1-1.72.8,1.9,1.9,0,0,1-1.59-.79v2.65h-1.5V48.18h1.5v.6A2.23,2.23,0,0,1,75.92,48.09Zm-1.65,2.79a1.56,1.56,0,0,0,.37,1.07,1.14,1.14,0,0,0,.89.42,1.21,1.21,0,0,0,.91-.42,1.49,1.49,0,0,0,.39-1.07,1.61,1.61,0,0,0-.38-1.09,1.17,1.17,0,0,0-.91-.44,1.13,1.13,0,0,0-.9.44A1.64,1.64,0,0,0,74.27,50.88Z"/><path d="M82.93,51.08v-2.9h1.51v5.38H82.93v-.71a1.7,1.7,0,0,1-1.45.79A2.11,2.11,0,0,1,80,53.09a2.13,2.13,0,0,1-.6-1.65V48.18h1.51v2.93q0,1.24.91,1.24A1.08,1.08,0,0,0,82.6,52,1.27,1.27,0,0,0,82.93,51.08Z"/><path d="M89.91,51.89a1.57,1.57,0,0,1-.59,1.28,2.27,2.27,0,0,1-1.49.48,4,4,0,0,1-1.25-.22,3.69,3.69,0,0,1-1.17-.64l.66-.94a2.88,2.88,0,0,0,1.79.65.81.81,0,0,0,.46-.12.35.35,0,0,0,.17-.31.44.44,0,0,0-.24-.35,2.67,2.67,0,0,0-.68-.3q-.45-.14-.68-.24a3.81,3.81,0,0,1-.54-.29,1.24,1.24,0,0,1-.61-1.13,1.48,1.48,0,0,1,.6-1.22,2.44,2.44,0,0,1,1.55-.47,3.39,3.39,0,0,1,1.9.64l-.56,1a2.46,2.46,0,0,0-1.4-.48q-.7,0-.7.38a.37.37,0,0,0,.22.33,4.44,4.44,0,0,0,.73.28l.73.25a3.66,3.66,0,0,1,.52.27A1.22,1.22,0,0,1,89.91,51.89Z"/><polygon points="118.96 49.05 118.96 74 47.41 74 47.41 55.71 50.81 55.71 50.81 70.59 115.55 70.59 115.55 52.45 92.02 52.45 92.02 49.05 118.96 49.05"/><path d="M137.71,52.6a3.81,3.81,0,0,1-5.22,0,3.66,3.66,0,0,1,0-5.15,3.81,3.81,0,0,1,5.22,0,3.66,3.66,0,0,1,0,5.15ZM137.18,50a2.29,2.29,0,0,0-.6-1.6,2,2,0,0,0-3,0,2.42,2.42,0,0,0,0,3.19,2,2,0,0,0,3,0A2.27,2.27,0,0,0,137.18,50Z"/><path d="M141.38,53.57h-1.5V46.14h1.5Z"/><path d="M143.73,55.69a2.18,2.18,0,0,1-1.49-.64l.68-1.11a1.12,1.12,0,0,0,.78.37.44.44,0,0,0,.36-.21.72.72,0,0,0,.15-.44q0-.23-2.08-5.48h1.6L145,51.53l1.31-3.35H148l-2.5,6.35a1.79,1.79,0,0,1-.69.86A1.85,1.85,0,0,1,143.73,55.69Z"/><path d="M153.65,50.66v2.9h-1.51V50.62a1.77,1.77,0,0,0-.2-.94.7.7,0,0,0-.63-.3,1.08,1.08,0,0,0-.77.33,1.27,1.27,0,0,0-.34,1v2.9h-1.5V48.18h1.5v.61a1.86,1.86,0,0,1,1.42-.7,1.54,1.54,0,0,1,.93.3,2,2,0,0,1,.63.73,2.12,2.12,0,0,1,.84-.76,2.29,2.29,0,0,1,1.06-.27,2.1,2.1,0,0,1,1.53.57,2.18,2.18,0,0,1,.58,1.64v3.27h-1.51V50.62q0-1.24-.91-1.24a1.08,1.08,0,0,0-.78.33A1.28,1.28,0,0,0,153.65,50.66Z"/><path d="M161.68,48.09a2.24,2.24,0,0,1,1.68.79,2.78,2.78,0,0,1,.74,2,2.83,2.83,0,0,1-.74,2,2.27,2.27,0,0,1-1.72.8,1.9,1.9,0,0,1-1.59-.79v2.65h-1.5V48.18H160v.6A2.23,2.23,0,0,1,161.68,48.09ZM160,50.88a1.56,1.56,0,0,0,.37,1.07,1.14,1.14,0,0,0,.89.42,1.21,1.21,0,0,0,.91-.42,1.49,1.49,0,0,0,.39-1.07,1.61,1.61,0,0,0-.38-1.09,1.17,1.17,0,0,0-.91-.44,1.13,1.13,0,0,0-.9.44A1.64,1.64,0,0,0,160,50.88Z"/><path d="M168.68,51.08v-2.9h1.51v5.38h-1.51v-.71a1.7,1.7,0,0,1-1.45.79,2.11,2.11,0,0,1-1.49-.56,2.13,2.13,0,0,1-.6-1.65V48.18h1.51v2.93q0,1.24.91,1.24a1.08,1.08,0,0,0,.78-.33A1.27,1.27,0,0,0,168.68,51.08Z"/><path d="M175.67,51.89a1.57,1.57,0,0,1-.59,1.28,2.27,2.27,0,0,1-1.49.48,4,4,0,0,1-1.25-.22,3.69,3.69,0,0,1-1.17-.64l.66-.94a2.88,2.88,0,0,0,1.79.65.81.81,0,0,0,.46-.12.35.35,0,0,0,.17-.31.44.44,0,0,0-.24-.35,2.67,2.67,0,0,0-.68-.3q-.45-.14-.68-.24a3.81,3.81,0,0,1-.54-.29,1.24,1.24,0,0,1-.61-1.13,1.48,1.48,0,0,1,.6-1.22,2.44,2.44,0,0,1,1.55-.47,3.39,3.39,0,0,1,1.9.64l-.56,1a2.46,2.46,0,0,0-1.4-.48q-.7,0-.7.38a.37.37,0,0,0,.22.33,4.44,4.44,0,0,0,.73.28l.73.25a3.66,3.66,0,0,1,.52.27A1.22,1.22,0,0,1,175.67,51.89Z"/><polygon points="188.68 49.05 188.68 112.11 133.16 112.11 133.16 55.83 136.56 55.83 136.56 108.71 185.28 108.71 185.28 52.45 177.77 52.45 177.77 49.05 188.68 49.05"/><path d="M116.57,17.74a11.64,11.64,0,0,0,3.9,8.24A11.32,11.32,0,1,0,134.78,8.48a11.51,11.51,0,0,0-8.69-2.05,11.67,11.67,0,0,0-7.58,4.74,11.2,11.2,0,0,0,12,17.31A11.15,11.15,0,0,0,138.17,14a11.58,11.58,0,0,0-6-6.64,12.08,12.08,0,0,0-15.81,5.4,11,11,0,0,0-.52,8.92,11.28,11.28,0,0,0,6.25,6.41A11.12,11.12,0,0,0,131,27.9a11,11,0,0,0,5.83-6.78,11.44,11.44,0,0,0-1-8.92,11.88,11.88,0,0,0-7.12-5.54,12.16,12.16,0,0,0-9,1,11.92,11.92,0,0,0-5.79,6.93,11.16,11.16,0,0,0,8.27,14.21,10.31,10.31,0,0,0,8.67-2.07,11,11,0,0,0,4-8.05,12.06,12.06,0,0,0-3.05-8.53,11.68,11.68,0,0,0-8.15-3.92,11.51,11.51,0,0,0-8.46,3.17,11.85,11.85,0,0,0-3.67,8.28,11.63,11.63,0,0,0,3.3,8.42,9.66,9.66,0,0,0,8.4,2.89,9.48,9.48,0,0,0,7-5.5,12.47,12.47,0,0,0,.44-9.1,12.18,12.18,0,0,0-5.8-7,9.89,9.89,0,0,0-8.93-.2,11.36,11.36,0,0,0-5.78,7,13.19,13.19,0,0,0,.53,9.15,9.57,9.57,0,0,0,6.74,5.81,6.76,6.76,0,0,0,4.41-.73A8.46,8.46,0,0,0,125,25.15a13.32,13.32,0,0,0,1.31-9.09,13.32,13.32,0,0,0-4.61-7.95,8.66,8.66,0,0,0-4.19-1.82,7.37,7.37,0,0,0-4.45.82,11.09,11.09,0,0,0-5.17,7.44,15.8,15.8,0,0,0,.68,9.27,10.79,10.79,0,0,0,2.55,3.87,5.33,5.33,0,0,0,4.08,1.6,5.25,5.25,0,0,0,3.68-2.38,11.15,11.15,0,0,0,1.73-4.31,18.08,18.08,0,0,0-.79-9.33,14.48,14.48,0,0,0-2.25-4.12,7.78,7.78,0,0,0-3.67-2.69,4.77,4.77,0,0,0-4.28.76,9,9,0,0,0-2.77,3.67,19.22,19.22,0,0,0-1.31,9.3,19.18,19.18,0,0,0,1,4.63,9.13,9.13,0,0,0,2.43,3.91,2.49,2.49,0,0,0,2,.66,2.81,2.81,0,0,0,1.72-1.23,10.37,10.37,0,0,0,1.55-4.37,27,27,0,0,0-.56-9.47L113,12A16.19,16.19,0,0,0,112,9.87a7.27,7.27,0,0,0-3-3.38,2.23,2.23,0,0,0-2.05.09,4.5,4.5,0,0,0-1.53,1.63,13,13,0,0,0-1.53,4.45c-.12.79-.26,1.57-.37,2.36l-.14,2.39c-.08.8,0,1.6,0,2.39l0,1.2.14,1.19a23.6,23.6,0,0,0,.91,4.67,8.29,8.29,0,0,0,.91,2.13c.2.3.5.57.7.55s.45-.3.59-.62a14.82,14.82,0,0,0,.75-4.63,40.22,40.22,0,0,0-.15-4.79,42.81,42.81,0,0,0-1.74-9.42,22.27,22.27,0,0,0-.86-2.21,4.92,4.92,0,0,0-.59-1,1.22,1.22,0,0,0-.76-.55c-.23,0-.5.25-.68.56a4.13,4.13,0,0,0-.44,1.06,18.33,18.33,0,0,0-.51,2.31,60.86,60.86,0,0,0-.57,9.59c0,3.21.14,6.44.38,9.63,0,0,0,0-.07,0a.26.26,0,0,0-.16.13h0a.25.25,0,0,0-.25-.11s0-.07,0-.17l-.05-.56-.11-1.11-.23-2.23L100.07,21,99,12.11l-.57-4.44-.17-1.1-.05-.26v0h0l0,0a.24.24,0,0,0,.14.07.27.27,0,0,0,.21-.07c.09-.11,0-.09.06-.1h0V6.3c0,.16,0,.36,0,.54l0,2.23c.07,3,.11,6,.08,9a.26.26,0,1,1-.52,0c0-3,0-6-.08-9l0-2.25c0-.19,0-.37,0-.58V6.11s0,0,.09-.16a.28.28,0,0,1,.22-.07.26.26,0,0,1,.15.08.3.3,0,0,1,.05.08l0,.07,0,.09.06.29L99,7.6l.58,4.45L100.58,21l.49,4.46.23,2.23.11,1.12.05.56a1.79,1.79,0,0,1,0,.39,1.23,1.23,0,0,1-.2.45h0a2.12,2.12,0,0,1-.19-.26.93.93,0,0,1-.1-.36c-.24-3.23-.38-6.45-.39-9.68a61.3,61.3,0,0,1,.56-9.68,18.82,18.82,0,0,1,.53-2.4,4.61,4.61,0,0,1,.48-1.17,1.43,1.43,0,0,1,1.16-.83,1.69,1.69,0,0,1,1.18.75,5.43,5.43,0,0,1,.65,1.08,22.7,22.7,0,0,1,.89,2.29,43.34,43.34,0,0,1,1.78,9.55A40.73,40.73,0,0,1,108,24.3a15.13,15.13,0,0,1-.8,4.86,2.42,2.42,0,0,1-.37.58,1.05,1.05,0,0,1-.72.38,1.54,1.54,0,0,1-1.2-.79,8.73,8.73,0,0,1-1-2.29,24.15,24.15,0,0,1-.94-4.79L102.83,21l0-1.22c0-.81-.1-1.62,0-2.43L102.9,15c.11-.81.25-1.61.38-2.41a13.61,13.61,0,0,1,1.6-4.64A5.09,5.09,0,0,1,106.63,6a2.86,2.86,0,0,1,2.6-.13,7.82,7.82,0,0,1,3.34,3.66,16.82,16.82,0,0,1,1,2.25l.69,2.35a27.59,27.59,0,0,1,.58,9.72,11,11,0,0,1-1.66,4.66A3.45,3.45,0,0,1,111,30a3.13,3.13,0,0,1-2.49-.79,9.74,9.74,0,0,1-2.64-4.19,19.84,19.84,0,0,1-1-4.79,19.88,19.88,0,0,1,1.35-9.64,9.62,9.62,0,0,1,3-4,5.47,5.47,0,0,1,4.88-.87,8.46,8.46,0,0,1,4,2.92A15.18,15.18,0,0,1,120.46,13a18.78,18.78,0,0,1,.84,9.71,11.85,11.85,0,0,1-1.85,4.59,6,6,0,0,1-4.2,2.68,6.06,6.06,0,0,1-4.66-1.79,11.52,11.52,0,0,1-2.73-4.13,16.54,16.54,0,0,1-.73-9.72,11.84,11.84,0,0,1,5.54-8,8.14,8.14,0,0,1,4.91-.91,9.43,9.43,0,0,1,4.57,2,14.1,14.1,0,0,1,4.91,8.41,14.11,14.11,0,0,1-1.39,9.65,9.26,9.26,0,0,1-3.52,3.54,7.58,7.58,0,0,1-4.94.83,9,9,0,0,1-4.47-2.24,12,12,0,0,1-2.9-4,14,14,0,0,1-.58-9.74,12.21,12.21,0,0,1,6.22-7.49,10.76,10.76,0,0,1,9.7.2,13.05,13.05,0,0,1,6.24,7.5,13.35,13.35,0,0,1-.46,9.76,10.39,10.39,0,0,1-7.62,6,10.57,10.57,0,0,1-9.2-3.14,12.55,12.55,0,0,1-3.58-9.09,12.78,12.78,0,0,1,3.95-8.94,12.46,12.46,0,0,1,9.15-3.45,12.64,12.64,0,0,1,8.82,4.23,13,13,0,0,1,3.31,9.22,12,12,0,0,1-4.32,8.78A11.31,11.31,0,0,1,122,29.77a12.18,12.18,0,0,1-9-15.5,13,13,0,0,1,6.28-7.54A13.22,13.22,0,0,1,129,5.64a13,13,0,0,1,7.76,6,12.52,12.52,0,0,1,1.15,9.76,12,12,0,0,1-6.4,7.46,12.22,12.22,0,0,1-9.83.22,12.4,12.4,0,0,1-6.88-7,12.16,12.16,0,0,1,.56-9.83,13.22,13.22,0,0,1,17.31-5.93,12.74,12.74,0,0,1,6.63,7.3,12.38,12.38,0,1,1-21.76-3.16,12.91,12.91,0,0,1,8.38-5.26,12.77,12.77,0,0,1,9.63,2.26A12.59,12.59,0,0,1,140.58,16a12.37,12.37,0,0,1-20.73,10.69,12.23,12.23,0,0,1-3.8-8.91.26.26,0,0,1,.52,0Z"/><path d="M56.81,17.75a12,12,0,0,0,.46,3.07A11.86,11.86,0,1,0,76.87,9a12,12,0,0,0-5.44-3,12.2,12.2,0,0,0-6.24.1,12.25,12.25,0,0,0-7.29,5.67,12,12,0,0,0-1.2,2.89,11.79,11.79,0,1,0,22.67-.38,12,12,0,0,0-1.29-2.85,12.13,12.13,0,0,0-2-2.43,12.27,12.27,0,0,0-2.57-1.85,12.42,12.42,0,0,0-3-1.14,12.58,12.58,0,0,0-3.18-.35A12.72,12.72,0,0,0,58.7,9.29a12.4,12.4,0,0,0-2,2.5,12,12,0,0,0-1.24,2.89,11.61,11.61,0,0,0-.43,3.09,11.5,11.5,0,0,0,1.63,5.93,11.8,11.8,0,0,0,1.93,2.43,11.91,11.91,0,0,0,5.37,3,11.76,11.76,0,0,0,3.06.35,11.59,11.59,0,0,0,3-.46A11.44,11.44,0,0,0,77,23.37a11.64,11.64,0,0,0,1.06-2.89,11.83,11.83,0,0,0,.27-3.09,12,12,0,0,0-.54-3.07,12.19,12.19,0,0,0-1.32-2.85,12.36,12.36,0,0,0-4.6-4.28,12.55,12.55,0,0,0-6.16-1.49A12.72,12.72,0,0,0,57,9.32a12.43,12.43,0,0,0-2,2.5,12,12,0,0,0-1.25,2.89A11.7,11.7,0,0,0,59.28,28a11.42,11.42,0,0,0,2.8,1.14,11.07,11.07,0,0,0,3,.36,10.77,10.77,0,0,0,7.88-3.62,11.25,11.25,0,0,0,1.68-2.49,11.71,11.71,0,0,0,1-2.89,12.15,12.15,0,0,0,.21-3.09,12.48,12.48,0,0,0-.57-3.07,12.57,12.57,0,0,0-3.31-5.28,12.33,12.33,0,0,0-2.53-1.85,12.09,12.09,0,0,0-2.9-1.14,11.9,11.9,0,0,0-9,1.34A12.17,12.17,0,0,0,55,9.36a12.28,12.28,0,0,0-3.14,11.56A12.15,12.15,0,0,0,53,23.77a11.78,11.78,0,0,0,1.76,2.44A11.11,11.11,0,0,0,57,28.06a10.3,10.3,0,0,0,2.61,1.15,9.61,9.61,0,0,0,2.75.36,9.28,9.28,0,0,0,2.71-.45,9.44,9.44,0,0,0,2.47-1.23A10.06,10.06,0,0,0,69.63,26a11,11,0,0,0,1.51-2.49A12.11,12.11,0,0,0,72,20.58a13,13,0,0,0,.14-3.08,13.45,13.45,0,0,0-1.87-5.92,12.78,12.78,0,0,0-1.89-2.44A11.87,11.87,0,0,0,66,7.28,11,11,0,0,0,63.3,6.14a10.33,10.33,0,0,0-2.86-.36,10.14,10.14,0,0,0-2.83.45A10.46,10.46,0,0,0,55,7.46a11.19,11.19,0,0,0-2.23,1.93A12.13,12.13,0,0,0,51,11.89,13,13,0,0,0,50,14.78a13.68,13.68,0,0,0-.07,6.17,13.17,13.17,0,0,0,1,2.86,11.93,11.93,0,0,0,1.55,2.44,10.25,10.25,0,0,0,2,1.86,8.6,8.6,0,0,0,2.29,1.15,7.45,7.45,0,0,0,2.41.37,7.11,7.11,0,0,0,2.36-.44,7.67,7.67,0,0,0,2.14-1.23A9.06,9.06,0,0,0,65.39,26a11.05,11.05,0,0,0,1.27-2.49,13.16,13.16,0,0,0,.68-2.88,14.78,14.78,0,0,0,.05-3.08,15.4,15.4,0,0,0-.59-3.07,14.8,14.8,0,0,0-1.19-2.85,13.2,13.2,0,0,0-1.71-2.44,11.13,11.13,0,0,0-2.12-1.86A9.23,9.23,0,0,0,59.41,6.2a8,8,0,0,0-2.5-.36,7.7,7.7,0,0,0-2.45.45A8.39,8.39,0,0,0,52.2,7.51a10,10,0,0,0-1.91,1.92,12.23,12.23,0,0,0-1.45,2.49,14.51,14.51,0,0,0-.91,2.89,16.14,16.14,0,0,0-.33,3.09A16.5,16.5,0,0,0,47.86,21a15.27,15.27,0,0,0,.8,2.86,12.66,12.66,0,0,0,1.27,2.45,9.45,9.45,0,0,0,1.63,1.87,6.65,6.65,0,0,0,1.85,1.16,5,5,0,0,0,1.94.37,4.64,4.64,0,0,0,1.88-.44A5.74,5.74,0,0,0,58.92,28a8.24,8.24,0,0,0,1.37-1.92,11.81,11.81,0,0,0,.95-2.48,15.57,15.57,0,0,0,.47-2.88,18.33,18.33,0,0,0-.05-3.08,19.1,19.1,0,0,0-.56-3.07,17.54,17.54,0,0,0-1-2.86A14.26,14.26,0,0,0,58.6,9.3a10.41,10.41,0,0,0-1.75-1.86,7.2,7.2,0,0,0-1.95-1.16,5.33,5.33,0,0,0-2-.37,5,5,0,0,0-2,.44,6.23,6.23,0,0,0-1.77,1.22,9.06,9.06,0,0,0-1.49,1.92A13.19,13.19,0,0,0,46.55,12a17.69,17.69,0,0,0-.7,2.88,21.15,21.15,0,0,0-.26,3.09A22.14,22.14,0,0,0,45.78,21a19.94,19.94,0,0,0,.58,2.86,15.13,15.13,0,0,0,.92,2.45,9.48,9.48,0,0,0,1.17,1.87,5,5,0,0,0,1.32,1.17,2.63,2.63,0,0,0,1.36.38,2.38,2.38,0,0,0,1.3-.43,4.15,4.15,0,0,0,1.13-1.21,8.37,8.37,0,0,0,.88-1.91A14.67,14.67,0,0,0,55,23.73a21.41,21.41,0,0,0,.21-2.88,26.2,26.2,0,0,0-.16-3.08,27.12,27.12,0,0,0-.52-3.07,23.72,23.72,0,0,0-.84-2.86,17.34,17.34,0,0,0-1.1-2.45,10.5,10.5,0,0,0-1.3-1.87,5.39,5.39,0,0,0-1.4-1.17A2.86,2.86,0,0,0,48.49,6a2.58,2.58,0,0,0-1.36.43,4.49,4.49,0,0,0-1.21,1.21,9.18,9.18,0,0,0-1,1.91A16.64,16.64,0,0,0,44.17,12a25.48,25.48,0,0,0-.47,2.88c-.11,1-.16,2-.18,3.09s0,2.08.1,3.08.19,2,.34,2.87a24.11,24.11,0,0,0,.53,2.46,13,13,0,0,0,.65,1.88,4.54,4.54,0,0,0,.72,1.18,1,1,0,0,0,.71.39.84.84,0,0,0,.64-.42,3.9,3.9,0,0,0,.52-1.2,12.44,12.44,0,0,0,.35-1.9c.09-.74.14-1.57.15-2.47s0-1.87-.06-2.87-.14-2-.26-3.08-.27-2.07-.45-3.07-.38-2-.6-2.86-.46-1.72-.72-2.45a14.34,14.34,0,0,0-.78-1.88,4.81,4.81,0,0,0-.8-1.18,1.11,1.11,0,0,0-.77-.39,1,1,0,0,0-.7.42,4.09,4.09,0,0,0-.6,1.2A13.49,13.49,0,0,0,42,9.57c-.14.74-.25,1.57-.35,2.47s-.16,1.87-.22,2.88-.08,2-.1,3.08,0,2.08,0,3.08,0,2,.07,2.87.07,1.73.11,2.46.08,1.37.11,1.89.07.92.09,1.19,0,.41,0,.41,0-.14,0-.41-.06-.67-.12-1.19-.12-1.16-.19-1.89-.17-1.56-.27-2.46-.21-1.86-.32-2.87-.23-2-.35-3.08-.24-2.07-.36-3.08-.24-2-.35-2.87-.21-1.73-.31-2.46-.18-1.37-.25-1.89-.13-.92-.18-1.19-.09-.4-.11-.4,0,.14,0,.41,0,.67,0,1.19,0,1.16,0,1.89,0,1.57.05,2.47S39,14,39,15,39,17,39,18" class="cls-1"/><path d="M176.07,17.74a11.68,11.68,0,0,0,4,8.15,11.24,11.24,0,0,0,16.15-1.34,11.08,11.08,0,0,0-2.1-15.85,11.23,11.23,0,0,0-8.48-2,11.39,11.39,0,0,0-7.4,4.63A10.92,10.92,0,0,0,190,28.22a10.87,10.87,0,0,0,7.42-14.12,11.3,11.3,0,0,0-5.87-6.48,11.81,11.81,0,0,0-15.45,5.28,10.76,10.76,0,0,0-.51,8.7,11,11,0,0,0,6.1,6.26,10.85,10.85,0,0,0,8.73-.18A10.68,10.68,0,0,0,196.1,21a11.18,11.18,0,0,0-1-8.71,11.62,11.62,0,0,0-7-5.42,11.9,11.9,0,0,0-8.79,1,11.66,11.66,0,0,0-5.66,6.77,10.9,10.9,0,0,0,8.07,13.88,10,10,0,0,0,8.45-2,10.73,10.73,0,0,0,3.87-7.87,11.8,11.8,0,0,0-3-8.35,11.42,11.42,0,0,0-8-3.83,11.25,11.25,0,0,0-8.27,3.1,11.59,11.59,0,0,0-3.59,8.1,11.38,11.38,0,0,0,3.23,8.24,9.41,9.41,0,0,0,8.18,2.82,9.23,9.23,0,0,0,6.77-5.36,12.22,12.22,0,0,0,.43-8.92,11.93,11.93,0,0,0-5.68-6.87,9.64,9.64,0,0,0-8.71-.19,11.12,11.12,0,0,0-5.66,6.82,13,13,0,0,0,.52,9,9.33,9.33,0,0,0,6.56,5.67,6.51,6.51,0,0,0,4.26-.71A8.21,8.21,0,0,0,184.27,25a13.08,13.08,0,0,0,1.29-8.92A13.09,13.09,0,0,0,181,8.3,8.42,8.42,0,0,0,177,6.52a7.13,7.13,0,0,0-4.3.79,10.86,10.86,0,0,0-5,7.29,15.57,15.57,0,0,0,.67,9.13,10.56,10.56,0,0,0,2.49,3.79,5.1,5.1,0,0,0,3.9,1.54,5,5,0,0,0,3.51-2.28,10.91,10.91,0,0,0,1.69-4.22,17.92,17.92,0,0,0-.78-9.21,14.26,14.26,0,0,0-2.21-4.06,7.57,7.57,0,0,0-3.56-2.63,4.56,4.56,0,0,0-4.1.73A8.76,8.76,0,0,0,166.51,11a19,19,0,0,0-1.31,9.21,19,19,0,0,0,1,4.59,9,9,0,0,0,2.37,3.84,2.32,2.32,0,0,0,1.83.62A2.66,2.66,0,0,0,172,28.08a10.23,10.23,0,0,0,1.53-4.3,26.84,26.84,0,0,0-.54-9.41l-.66-2.28a16.05,16.05,0,0,0-.93-2.16,7.17,7.17,0,0,0-3-3.33,2.11,2.11,0,0,0-1.95.08A4.38,4.38,0,0,0,165,8.27a12.94,12.94,0,0,0-1.52,4.41c-.12.78-.27,1.56-.37,2.35L163,17.41c-.08.79,0,1.59,0,2.39L163,21l.13,1.19a23.51,23.51,0,0,0,.9,4.66,8.24,8.24,0,0,0,.9,2.11c.19.29.49.54.63.51s.39-.25.53-.58a14.78,14.78,0,0,0,.75-4.6,40.12,40.12,0,0,0-.14-4.78A42.76,42.76,0,0,0,165,10.09a22.29,22.29,0,0,0-.85-2.21,4.89,4.89,0,0,0-.59-1c-.22-.29-.51-.53-.73-.53s-.47.23-.65.54a4.1,4.1,0,0,0-.43,1,18.26,18.26,0,0,0-.52,2.31,60.84,60.84,0,0,0-.58,9.59c0,3.21.13,6.44.36,9.63,0,0,0,0-.07,0a.26.26,0,0,0-.16.13h0a.25.25,0,0,0-.24-.11s0-.07,0-.17l-.05-.56-.11-1.11-.23-2.23L159.57,21l-1.05-8.9-.57-4.44-.17-1.1-.05-.26v0h0l0,0a.23.23,0,0,0,.14.07.27.27,0,0,0,.21-.07c.09-.11,0-.09.06-.1h0V6.3c0,.16,0,.36,0,.54l0,2.23c.07,3,.11,6,.08,9a.26.26,0,1,1-.52,0c0-3,0-6-.08-9l0-2.25c0-.19,0-.37,0-.58V6.11s0,0,.09-.16a.28.28,0,0,1,.23-.07.26.26,0,0,1,.15.08.3.3,0,0,1,.05.08l0,.07,0,.09.06.29.17,1.12.58,4.45L160.08,21l.49,4.46.23,2.23.11,1.12.05.56a1.81,1.81,0,0,1,0,.39,1.24,1.24,0,0,1-.19.45h0a2.13,2.13,0,0,1-.19-.26.93.93,0,0,1-.1-.36c-.25-3.23-.39-6.45-.41-9.68a61.35,61.35,0,0,1,.55-9.69,18.83,18.83,0,0,1,.53-2.4,4.64,4.64,0,0,1,.49-1.17,1.47,1.47,0,0,1,1.19-.85,1.73,1.73,0,0,1,1.22.77,5.47,5.47,0,0,1,.66,1.08,22.77,22.77,0,0,1,.9,2.29,43.39,43.39,0,0,1,1.79,9.55,40.8,40.8,0,0,1,.17,4.87,15.17,15.17,0,0,1-.8,4.89,2.5,2.5,0,0,1-.38.59,1.13,1.13,0,0,1-.77.4,1.18,1.18,0,0,1-.8-.3,2.66,2.66,0,0,1-.47-.52,8.8,8.8,0,0,1-1-2.31,24.23,24.23,0,0,1-1-4.81L162.24,21l0-1.22c0-.81-.11-1.63,0-2.44l.14-2.44c.11-.81.25-1.62.38-2.43a13.71,13.71,0,0,1,1.6-4.68,5.2,5.2,0,0,1,1.79-1.89,3,3,0,0,1,2.7-.13,5.66,5.66,0,0,1,2,1.61,11.8,11.8,0,0,1,1.37,2.1,16.93,16.93,0,0,1,1,2.27l.7,2.36a27.73,27.73,0,0,1,.6,9.77,11.11,11.11,0,0,1-1.68,4.73,3.61,3.61,0,0,1-2.24,1.55,3.3,3.3,0,0,1-2.62-.82,9.9,9.9,0,0,1-2.7-4.26,20,20,0,0,1-1.05-4.83,20.06,20.06,0,0,1,1.35-9.74,9.82,9.82,0,0,1,3-4,5.68,5.68,0,0,1,5.06-.91,8.67,8.67,0,0,1,4.13,3A15.4,15.4,0,0,1,180.18,13a18.94,18.94,0,0,1,.85,9.83,12.08,12.08,0,0,1-1.88,4.68,6.2,6.2,0,0,1-4.37,2.78,6.29,6.29,0,0,1-4.84-1.85,11.76,11.76,0,0,1-2.79-4.22,16.78,16.78,0,0,1-.74-9.86,12.07,12.07,0,0,1,5.66-8.11,8.38,8.38,0,0,1,5-.94,9.67,9.67,0,0,1,4.69,2,14.34,14.34,0,0,1,5,8.56,14.35,14.35,0,0,1-1.42,9.81,9.5,9.5,0,0,1-3.61,3.63,7.82,7.82,0,0,1-5.1.85,9.27,9.27,0,0,1-4.59-2.29,12.21,12.21,0,0,1-3-4.12,14.27,14.27,0,0,1-.59-9.91,12.45,12.45,0,0,1,6.34-7.64,11,11,0,0,1,9.92.2A13.3,13.3,0,0,1,191.16,14a13.6,13.6,0,0,1-.47,9.94,11.3,11.3,0,0,1-3.12,4,10.11,10.11,0,0,1-4.68,2.12,10.82,10.82,0,0,1-9.42-3.21,12.8,12.8,0,0,1-3.65-9.27,13,13,0,0,1,4-9.12A12.71,12.71,0,0,1,183.18,5a12.9,12.9,0,0,1,9,4.31,13.29,13.29,0,0,1,3.37,9.4,12.24,12.24,0,0,1-4.41,9A11.57,11.57,0,0,1,181.42,30a12.44,12.44,0,0,1-9.24-15.83,13.22,13.22,0,0,1,6.41-7.7,13.48,13.48,0,0,1,10-1.11,13.21,13.21,0,0,1,7.92,6.15,12.78,12.78,0,0,1,1.18,10,12.3,12.3,0,0,1-6.54,7.62,12.49,12.49,0,0,1-10,.23,12.66,12.66,0,0,1-7-7.19,12.43,12.43,0,0,1,.57-10,13.49,13.49,0,0,1,17.66-6.06A13,13,0,0,1,199,13.53a12.66,12.66,0,1,1-22.24-3.23,13.19,13.19,0,0,1,8.56-5.37,13,13,0,0,1,9.85,2.31,12.87,12.87,0,0,1,5.17,8.7,12.74,12.74,0,0,1-2.81,9.7,12.48,12.48,0,0,1-18.28,1.11,12.19,12.19,0,0,1-3.71-9,.26.26,0,0,1,.27-.25A.26.26,0,0,1,176.07,17.74Z"/></svg>