<svg id="Default" xmlns="http://www.w3.org/2000/svg" viewBox="0 0 235.06 123"><defs><style>.cls-1,.cls-11,.cls-3,.cls-9{fill:none;}.cls-1{stroke:#5b5b5b;}.cls-1,.cls-11,.cls-3{stroke-linecap:round;stroke-miterlimit:10;stroke-width:0.69px;}.cls-2{fill:#5b5b5b;}.cls-3{stroke:#000;}.cls-4{fill:#008fd6;}.cls-5{fill:#2d2d2d;}.cls-6{fill:#ffda00;}.cls-7{fill:#00cfe5;}.cls-8{fill:#5edd72;}.cls-10{fill:#313131;}.cls-11{stroke:#00c1db;}.cls-12{fill:#00c1db;}</style></defs><title>Artboard 6</title><polygon points="179.33 108.51 174.15 113.69 177.88 113.69 183.06 108.51 177.88 103.34 174.15 103.34 179.33 108.51"/><path d="M179.64,113.69l2.72-2.72a5.52,5.52,0,1,0,0-4.91l-2.72-2.72a9.25,9.25,0,1,1,0,10.36Z"/><line class="cls-1" x1="195.72" y1="71.94" x2="199.55" y2="70.92"/><line class="cls-1" x1="188.82" y1="65.05" x2="189.85" y2="61.21"/><line class="cls-1" x1="193.2" y1="67.57" x2="196" y2="64.77"/><path class="cls-2" d="M192.59,68.61a8.59,8.59,0,1,0-.44,12.14A8.58,8.58,0,0,0,192.59,68.61Zm-2,10.45a6.28,6.28,0,1,1,.32-8.88A6.27,6.27,0,0,1,190.58,79.07Z"/><line class="cls-3" x1="54.78" y1="71.94" x2="58.62" y2="70.92"/><line class="cls-3" x1="47.89" y1="65.05" x2="48.92" y2="61.21"/><line class="cls-3" x1="52.26" y1="67.57" x2="55.07" y2="64.77"/><circle class="cls-3" cx="45.37" cy="74.47" r="8.6" transform="translate(-38.58 50.88) rotate(-42.96)"/><line class="cls-3" x1="100.76" y1="71.94" x2="104.6" y2="70.92"/><line class="cls-3" x1="93.87" y1="65.05" x2="94.89" y2="61.21"/><line class="cls-3" x1="98.24" y1="67.57" x2="101.05" y2="64.77"/><circle cx="91.34" cy="74.47" r="8.6" transform="translate(-26.25 82.21) rotate(-42.96)"/><path class="cls-4" d="M195.74,42.41a8.6,8.6,0,1,1-17,1.89"/><path class="cls-5" d="M196.53,45l-10.92,2.64a1.63,1.63,0,1,1-3.17.77l-2.92.7a8.73,8.73,0,0,1-1.31-4.76l18.12-2A9,9,0,0,1,196.53,45Z"/><path class="cls-4" d="M178.64,43.86c-3.86-9.38,8.86-16.53,14.87-8.37"/><path class="cls-6" d="M188,35.64,176.91,39.4a9.31,9.31,0,0,0,.72,5l16.9-9.51a9.69,9.69,0,0,0-1-1.16L189.85,35a1,1,0,0,0-1.86.63Z"/><path class="cls-7" d="M191.68,19.23c.05.63-.5,1.45-1.53,2.33a8.19,8.19,0,0,1-1.83.29,8.67,8.67,0,0,1-6.13-2.13c.33-.15.65-.29,1-.44s.7-.33,1.09-.5a11.22,11.22,0,0,1,2.86-.78,6.22,6.22,0,0,1,3.86.3A1.29,1.29,0,0,1,191.68,19.23Z"/><path class="cls-7" d="M194.31,19a8.62,8.62,0,0,1-2,1.62,2.45,2.45,0,0,0,.4-1.5,2.26,2.26,0,0,0-1.25-1.75,7.17,7.17,0,0,0-4.53-.43,12.63,12.63,0,0,0-3.1.85c-.4.17-.76.34-1.13.51s-.73.34-1.13.52l-.17.07a8.57,8.57,0,0,1-2.16-5.32,8.48,8.48,0,0,1,.76-4l.36.11c.72.22,1.56.55,2.68,1l.54.21c1.65.63,3.36,1.27,4.76,1.69a15,15,0,0,0,3.61.7h.34a4.93,4.93,0,0,0,2.2-.47,3.08,3.08,0,0,0,1.76-1.9,8.64,8.64,0,0,1,.28,1.8A8.53,8.53,0,0,1,194.31,19Z"/><path class="cls-7" d="M195.31,10.5a2,2,0,0,1-1.25,1.45,4.06,4.06,0,0,1-2.07.36,14.33,14.33,0,0,1-3.35-.66c-1.38-.41-3.07-1-4.7-1.67l-.54-.21c-1.17-.44-2-.77-2.75-1l-.17,0a8.65,8.65,0,0,1,7-4.17h.43a8.57,8.57,0,0,1,5.81,2.26,4.94,4.94,0,0,1,.54.54A4.38,4.38,0,0,1,195.31,10.5Z"/><path d="M101.5,17.89l-.11,1-.77-.11-.47-.08c-.85-.17-1.86-.41-2.8-.63l-1.14-.28a27.4,27.4,0,0,0-3-.56A28.32,28.32,0,0,0,89.95,17a19.63,19.63,0,0,0-3.25.22,11.27,11.27,0,0,0-1.43.3c-.18,0-.36.1-.52.15l-.33-1,.52-.17a15.08,15.08,0,0,1,1.61-.33A21.56,21.56,0,0,1,90,15.94a27.39,27.39,0,0,1,3.41.29,26.75,26.75,0,0,1,3.08.58l1.14.28c.92.22,1.9.47,2.74.63.29,0,.55.1.8.12Z"/><path d="M101.72,11.7a2.14,2.14,0,0,1-.07.32,3.09,3.09,0,0,1-1.78,1.89,4.7,4.7,0,0,1-2.19.47h-.36a15.19,15.19,0,0,1-3.61-.72C92.33,13.24,90.61,12.59,89,12l-.54-.21c-1.13-.44-2-.76-2.7-1l-.36-.1-.4-.11.25-1,.65.18L86,9.8c.76.23,1.6.55,2.77,1l.52.21c1.62.62,3.32,1.24,4.7,1.67a14.29,14.29,0,0,0,3.36.66A4.18,4.18,0,0,0,99.44,13a2,2,0,0,0,1.27-1.46,4.42,4.42,0,0,0-1.1-3.19l0-.06.81-.63A5.52,5.52,0,0,1,101.72,11.7Z"/><path d="M98.09,20.17a2.62,2.62,0,0,1-.37,1.5h0a6.59,6.59,0,0,1-1.6,1.79l-.66-.8.1-.08c1-.88,1.57-1.69,1.51-2.31a1.24,1.24,0,0,0-.73-.94,6.22,6.22,0,0,0-3.86-.3,11,11,0,0,0-2.86.78l-1.07.5c-.3.14-.61.29-.94.43l-.25.11-.52.21-.36-1,.33-.14.15-.07c.41-.17.77-.34,1.13-.51s.73-.34,1.13-.51A12.18,12.18,0,0,1,92.32,18a7.15,7.15,0,0,1,4.52.41A2.3,2.3,0,0,1,98.09,20.17Z"/><path d="M100.37,7.63a5.77,5.77,0,0,0-.58-.58A9.69,9.69,0,0,0,83.6,14.68a9.69,9.69,0,0,0,9.67,9.23h.47A9.72,9.72,0,0,0,103,13.76,9.61,9.61,0,0,0,100.37,7.63Zm-2.66,14h0a8.56,8.56,0,0,1-2.16.91,8.2,8.2,0,0,1-1.84.3,8.57,8.57,0,0,1-6.1-2.15,6.15,6.15,0,0,1-.8-.78,8.35,8.35,0,0,1-1.53-2.45,6,6,0,0,1-.33-1,8.19,8.19,0,0,1-.3-1.86,8.64,8.64,0,0,1,.74-4,10,10,0,0,1,.5-.94,8.63,8.63,0,0,1,7-4.16h.41a8.56,8.56,0,0,1,5.81,2.24c.18.17.34.33.51.51A8.46,8.46,0,0,1,101.65,12a8.66,8.66,0,0,1-.51,5.82,8.12,8.12,0,0,1-.52,1A8.75,8.75,0,0,1,97.71,21.67Z"/><path class="cls-8" d="M97.05,20.26c.06.62-.48,1.43-1.51,2.31a8.2,8.2,0,0,1-1.84.3,8.57,8.57,0,0,1-6.1-2.15c.33-.14.63-.29.94-.43l1.07-.5A11,11,0,0,1,92.47,19a6.22,6.22,0,0,1,3.86.3A1.24,1.24,0,0,1,97.05,20.26Z"/><path class="cls-8" d="M100.62,18.8a8.75,8.75,0,0,1-2.91,2.86,2.62,2.62,0,0,0,.37-1.5,2.3,2.3,0,0,0-1.25-1.75A7.15,7.15,0,0,0,92.32,18a12.18,12.18,0,0,0-3.11.85c-.4.17-.76.33-1.13.51s-.72.34-1.13.51l-.15.07a8.35,8.35,0,0,1-1.53-2.45,11.27,11.27,0,0,1,1.43-.3A19.63,19.63,0,0,1,89.95,17a28.32,28.32,0,0,1,3.29.28,27.4,27.4,0,0,1,3,.56l1.14.28c.94.22,1.94.47,2.8.63Z"/><path class="cls-8" d="M101.93,13.82a8.55,8.55,0,0,1-.78,4c-.25,0-.51-.08-.8-.12-.84-.17-1.82-.41-2.74-.63l-1.14-.28a26.75,26.75,0,0,0-3.08-.58A27.39,27.39,0,0,0,90,15.94a21.56,21.56,0,0,0-3.41.23,15.08,15.08,0,0,0-1.61.33,8.19,8.19,0,0,1-.3-1.86,8.64,8.64,0,0,1,.74-4l.36.1c.72.23,1.57.55,2.7,1L89,12c1.64.62,3.36,1.27,4.75,1.68a15.19,15.19,0,0,0,3.61.72h.36a4.7,4.7,0,0,0,2.19-.47A3.09,3.09,0,0,0,101.65,12,8.64,8.64,0,0,1,101.93,13.82Z"/><path class="cls-8" d="M100.7,11.52A2,2,0,0,1,99.44,13a4.18,4.18,0,0,1-2.05.36A14.29,14.29,0,0,1,94,12.67c-1.38-.43-3.07-1-4.7-1.67l-.52-.21c-1.17-.45-2-.77-2.77-1l-.17-.06a8.63,8.63,0,0,1,7-4.16h.41a8.56,8.56,0,0,1,5.81,2.24c.18.17.34.33.51.51A4.42,4.42,0,0,1,100.7,11.52Z"/><path class="cls-9" d="M100.27,110.51c-2.34,8.63-15,6.94-15-2s12.7-10.63,15-2C103.32,106.1,103.32,110.91,100.27,110.51Z"/><path class="cls-10" d="M98.87,108.58c0,1.18.56,1.65,1.73,1.6s1.65-.56,1.6-1.73-.56-1.65-1.73-1.6S98.83,107.4,98.87,108.58Z"/><path class="cls-10" d="M95.46,109.08c.4,0,.57-.17.57-.57s-.17-.57-.57-.57-.57.17-.57.57S95.06,109.08,95.46,109.08Z"/><path class="cls-10" d="M97.54,109.51c.71,0,1-.29,1-1s-.29-1-1-1-1,.29-1,1S96.83,109.51,97.54,109.51Z"/><path class="cls-10" d="M92.88,98.63a9.88,9.88,0,1,0,9.89,9.88A9.88,9.88,0,0,0,92.88,98.63Zm7.39,11.88c-2.34,8.63-15,6.94-15-2s12.7-10.63,15-2C103.32,106.1,103.32,110.91,100.27,110.51Z"/><path class="cls-9" d="M100.27,110.51c-2.34,8.63-15,6.94-15-2s12.7-10.63,15-2C103.32,106.1,103.32,110.91,100.27,110.51Z"/><path class="cls-9" d="M54.13,110.17c-2,8.93-15.13,7.49-15.13-1.66s13.15-10.59,15.13-1.66A1.67,1.67,0,0,0,54.13,110.17Z"/><path class="cls-10" d="M49.23,109.08c.4,0,.57-.17.57-.57s-.17-.57-.57-.57-.57.17-.57.57S48.83,109.08,49.23,109.08Z"/><path class="cls-10" d="M51.31,109.51c.71,0,1-.29,1-1s-.29-1-1-1-1,.29-1,1S50.6,109.51,51.31,109.51Z"/><path class="cls-10" d="M46.66,98.63a9.88,9.88,0,1,0,9.88,9.88A9.88,9.88,0,0,0,46.66,98.63ZM39,108.51c0-9.15,13.15-10.59,15.13-1.66a1.67,1.67,0,0,0,0,3.32C52.15,119.1,39,117.66,39,108.51Z"/><path class="cls-9" d="M54.13,110.17c-2,8.93-15.13,7.49-15.13-1.66s13.15-10.59,15.13-1.66A1.67,1.67,0,0,0,54.13,110.17Z"/><path d="M48.5,22.54c-3.84,1.08-6.37.39-9.13-2.49l.51-.2c.81-.34,1.47-.7,2.25-1a11.82,11.82,0,0,1,3-.82,7,7,0,0,1,4.2.36C50.47,19,51.07,20.42,48.5,22.54Z"/><path d="M37.24,16.43a8.41,8.41,0,0,1,.59-6.88l.79.23c.84.27,1.84.66,3.26,1.2s3.25,1.23,4.73,1.68a14.36,14.36,0,0,0,3.48.69,4.59,4.59,0,0,0,2.3-.41,2.53,2.53,0,0,0,1.55-1.83,5,5,0,0,0-1.24-3.66,9.17,9.17,0,0,1,1.59,10.23A25,25,0,0,1,51.06,17c-.92-.23-1.85-.47-2.78-.66q-1.1-.23-2.21-.39c-.83-.12-1.67-.2-2.5-.25-.44,0-.88,0-1.32,0s-.87,0-1.3.05a18.91,18.91,0,0,0-2.18.27A11.54,11.54,0,0,0,37.24,16.43Z"/><path d="M37.94,9.34a9.17,9.17,0,0,1,12.43-3.7,7.71,7.71,0,0,1,3.1,3.62,3.72,3.72,0,0,1,.27,1.45,2.19,2.19,0,0,1-.29,1,2.31,2.31,0,0,1-.68.68,3.65,3.65,0,0,1-.86.43,4.19,4.19,0,0,1-.91.21,5.93,5.93,0,0,1-1.07,0,11,11,0,0,1-1.33-.18c-.56-.11-1.11-.25-1.66-.41s-1.36-.42-2-.66c-1.32-.47-2.63-1-3.94-1.47l-1.43-.54-1-.32Z"/><path d="M39.2,19.87a8.91,8.91,0,0,1-1.89-3.22,12.13,12.13,0,0,1,2-.48,20.37,20.37,0,0,1,3.33-.23,28.52,28.52,0,0,1,3.36.28,29.51,29.51,0,0,1,3,.57c1.18.28,2.7.68,3.91.91.43.08.82.14,1.19.19a8.42,8.42,0,0,1-5.12,4.48,7.3,7.3,0,0,0,.68-.71,3.93,3.93,0,0,0,.61-1,2.17,2.17,0,0,0,.19-.86,1.73,1.73,0,0,0-.17-.74,2,2,0,0,0-.45-.58,2.85,2.85,0,0,0-.73-.48,4.68,4.68,0,0,0-1.47-.38,8.71,8.71,0,0,0-1.56,0c-.48,0-1,.1-1.43.18s-.79.15-1.17.26a12.67,12.67,0,0,0-1.8.65c-.51.23-1,.48-1.52.71C39.89,19.6,39.55,19.74,39.2,19.87Z"/><circle class="cls-4" cx="140.04" cy="44.4" r="8.6" transform="translate(-1.97 6.76) rotate(-2.75)"/><path class="cls-5" d="M149.2,45l-10.92,2.64a1.63,1.63,0,1,1-3.17.77l-2.92.7a8.73,8.73,0,0,1-1.31-4.76l18.12-2A9,9,0,0,1,149.2,45Z"/><path class="cls-6" d="M143.27,40.4l-11.67-.87a9.31,9.31,0,0,0-1.31,4.91l19.27-2.15a9.7,9.7,0,0,0-.44-1.45l-3.89-.29c.05-.69-.21-1-.9-1.05S143.32,39.7,143.27,40.4Z"/><line class="cls-11" x1="146.74" y1="71.94" x2="150.57" y2="70.92"/><line class="cls-11" x1="139.84" y1="65.05" x2="140.87" y2="61.21"/><line class="cls-11" x1="144.22" y1="67.57" x2="147.02" y2="64.76"/><path class="cls-12" d="M143.61,68.61a8.6,8.6,0,1,0-.43,12.14A8.58,8.58,0,0,0,143.61,68.61ZM140,77.37a4,4,0,1,1,.21-5.62A4,4,0,0,1,140,77.37Z"/><polygon points="132.42 103.34 127.15 103.34 132.32 108.51 127.15 113.69 132.42 113.69 137.6 108.51 132.42 103.34"/><path d="M134.18,113.69,136.9,111a5.52,5.52,0,1,0,0-4.91l-2.72-2.72a9.25,9.25,0,1,1,0,10.36Z"/><path class="cls-4" d="M101.87,44a8.25,8.25,0,0,1,0,1.17A8.58,8.58,0,0,1,86,49a8.44,8.44,0,0,1-1.32-4.17c0-.17,0-.33,0-.5h0a8.45,8.45,0,0,1,1.46-4.68c5,.37,9.94.76,14.91,1.12a7.12,7.12,0,0,1,.58,1.68h0A8.3,8.3,0,0,1,101.87,44Z"/><path class="cls-5" d="M102.22,42.35a9,9,0,0,1,.21,2.67l-17,4.11a8.73,8.73,0,0,1-1.31-4.76Z"/><path class="cls-6" d="M102.81,42.29l-.58.07-.58.06h0l-17,1.9-.58.06-.58.07a9.33,9.33,0,0,1,1.31-4.92l1.31.1c5,.37,9.94.76,14.91,1.12l1.29.1A9.4,9.4,0,0,1,102.81,42.29Z"/><circle class="cls-4" cx="46.52" cy="44.4" r="8.6" transform="translate(-2.07 2.28) rotate(-2.75)"/><path class="cls-5" d="M55.46,42.35A9,9,0,0,1,55.67,45l-17,4.11a8.73,8.73,0,0,1-1.31-4.76"/><path class="cls-6" d="M36.77,44.43a9.31,9.31,0,0,1,1.31-4.91L55.6,40.83A9.73,9.73,0,0,1,56,42.29Z"/><path class="cls-8" d="M144.36,19.23c.06.62-.48,1.43-1.51,2.31a8.2,8.2,0,0,1-1.84.3,8.57,8.57,0,0,1-6.1-2.15c.33-.14.63-.29.94-.43l1.07-.5a11,11,0,0,1,2.86-.78,6.22,6.22,0,0,1,3.86.3A1.24,1.24,0,0,1,144.36,19.23Z"/><path class="cls-8" d="M147.93,17.77A8.75,8.75,0,0,1,145,20.64a2.62,2.62,0,0,0,.37-1.5,2.3,2.3,0,0,0-1.25-1.75,7.15,7.15,0,0,0-4.52-.41,12.18,12.18,0,0,0-3.11.85c-.4.17-.76.33-1.13.51s-.72.34-1.13.51l-.15.07a8.35,8.35,0,0,1-1.53-2.45,11.27,11.27,0,0,1,1.43-.3,19.63,19.63,0,0,1,3.25-.22,28.32,28.32,0,0,1,3.29.28,27.4,27.4,0,0,1,3,.56l1.14.28c.94.22,1.94.47,2.8.63Z"/><path class="cls-8" d="M149.23,12.79a8.55,8.55,0,0,1-.78,4c-.25,0-.51-.08-.8-.12-.84-.17-1.82-.41-2.74-.63l-1.14-.28a26.75,26.75,0,0,0-3.08-.58,27.39,27.39,0,0,0-3.41-.29,21.56,21.56,0,0,0-3.41.23,15.08,15.08,0,0,0-1.61.33,8.19,8.19,0,0,1-.3-1.86,8.64,8.64,0,0,1,.74-4l.36.1c.72.23,1.57.55,2.7,1l.54.21c1.64.62,3.36,1.27,4.75,1.68a15.19,15.19,0,0,0,3.61.72H145a4.7,4.7,0,0,0,2.19-.47A3.09,3.09,0,0,0,149,11,8.64,8.64,0,0,1,149.23,12.79Z"/><path class="cls-8" d="M148,10.49a2,2,0,0,1-1.27,1.46,4.18,4.18,0,0,1-2.05.36,14.29,14.29,0,0,1-3.36-.66c-1.38-.43-3.07-1-4.7-1.67l-.52-.21c-1.17-.45-2-.77-2.77-1l-.17-.06a8.63,8.63,0,0,1,7-4.16h.41a8.56,8.56,0,0,1,5.81,2.24c.18.17.34.33.51.51A4.42,4.42,0,0,1,148,10.49Z"/></svg>