<svg id="Default" xmlns="http://www.w3.org/2000/svg" viewBox="0 0 235.06 124.79"><defs><style>.cls-1,.cls-2,.cls-3,.cls-4,.cls-9{fill:none;}.cls-1,.cls-10,.cls-2,.cls-3,.cls-4,.cls-9{stroke:#000;stroke-miterlimit:10;}.cls-1{stroke-width:0.69px;}.cls-2{stroke-width:1.03px;}.cls-3{stroke-width:0.8px;}.cls-4{stroke-width:0.4px;}.cls-5{fill:#dd1ddd;}.cls-6{fill:#40d3f4;}.cls-7{fill:#00cfff;}.cls-8{font-size:7.44px;font-family:Avenir-Light, Avenir;}.cls-10,.cls-9{stroke-width:0.44px;}.cls-10,.cls-11{fill:#00b2db;}</style></defs><title>Artboard 5</title><path class="cls-1" d="M182.76,101.45c3.31,1,4.43,2.5,5.86,3.78s3.16,2.32,7.79,2.55"/><path class="cls-1" d="M180.88,102.9a14.09,14.09,0,0,1,6.13,5.05c1.33,1.85,2.3,3.67,8.74,5.18"/><path class="cls-1" d="M179.69,104.37c4.74,3.1,5.72,6.43,6.71,8.64s2,3.29,5.75,4.2"/><circle class="cls-1" cx="187.38" cy="109.38" r="9.17" transform="translate(-5.02 9.1) rotate(-2.75)"/><path class="cls-2" d="M105.22,113.55c-.37,0-.76-.1-1.19-.19-1.21-.23-2.73-.64-3.91-.91a29.57,29.57,0,0,0-3-.57,28.58,28.58,0,0,0-3.36-.28,20.34,20.34,0,0,0-3.33.23,12.1,12.1,0,0,0-2,.47"/><path class="cls-2" d="M88.88,105.21l.79.23c.84.27,1.84.66,3.26,1.2s3.25,1.23,4.73,1.68a14.35,14.35,0,0,0,3.48.69,4.58,4.58,0,0,0,2.3-.41,2.53,2.53,0,0,0,1.55-1.83,5,5,0,0,0-1.24-3.66"/><path class="cls-2" d="M90.42,115.71l.51-.2c.81-.34,1.47-.7,2.25-1a11.82,11.82,0,0,1,3-.82,7,7,0,0,1,4.2.36c1.16.65,1.76,2.06-.82,4.18"/><circle class="cls-2" cx="97.05" cy="109.38" r="9.17" transform="translate(-5.13 4.77) rotate(-2.75)"/><path class="cls-2" d="M134,105.21l.79.23c.84.27,1.84.66,3.26,1.2s3.25,1.23,4.73,1.68a14.35,14.35,0,0,0,3.48.69,4.58,4.58,0,0,0,2.3-.41,2.53,2.53,0,0,0,1.55-1.83,5,5,0,0,0-1.24-3.66"/><path class="cls-2" d="M135.58,115.71l.51-.2c.81-.34,1.47-.7,2.25-1a11.82,11.82,0,0,1,3-.82,7,7,0,0,1,4.2.36c1.16.65,1.76,2.06-.82,4.18"/><circle class="cls-2" cx="142.22" cy="109.38" r="9.17" transform="translate(-5.08 6.94) rotate(-2.75)"/><path class="cls-3" d="M83.62,17.1a4.23,4.23,0,0,0,1.71-1.43,4.49,4.49,0,0,0,.54-1.05,4.62,4.62,0,0,0,.26-1.2,4.78,4.78,0,0,0-.07-1.26,4.93,4.93,0,0,0-.41-1.24A5.1,5.1,0,0,0,84.9,9.8a5.26,5.26,0,0,0-1-.91,5.41,5.41,0,0,0-1.28-.63A5.57,5.57,0,0,0,81.14,8a5.71,5.71,0,0,0-1.5.11,5.87,5.87,0,0,0-1.46.52,6,6,0,0,0-1.31.9,6.19,6.19,0,0,0-1.05,1.24,6.34,6.34,0,0,0-.71,1.51,6.49,6.49,0,0,0-.3,1.68A6.65,6.65,0,0,0,75,15.68a6.81,6.81,0,0,0,.62,1.68,7,7,0,0,0,1.06,1.49A7.11,7.11,0,0,0,78.09,20a7.27,7.27,0,0,0,1.74.79,7.43,7.43,0,0,0,1.92.32,7.58,7.58,0,0,0,2-.2,7.74,7.74,0,0,0,1.9-.72A7.89,7.89,0,0,0,87.3,19a8.05,8.05,0,0,0,1.33-1.64,8.21,8.21,0,0,0,.87-2,8.36,8.36,0,0,0,.34-2.16A8.52,8.52,0,0,0,89.6,11a8.67,8.67,0,0,0-.82-2.12A8.84,8.84,0,0,0,87.4,7.05a9,9,0,0,0-1.84-1.47,9.1,9.1,0,0,0-1.46-.71"/><circle class="cls-3" cx="81.4" cy="13.64" r="4.12"/><circle class="cls-3" cx="81.4" cy="13.64" r="9.17"/><path class="cls-4" d="M48.16,17.1a4.23,4.23,0,0,0,1.71-1.43,4.49,4.49,0,0,0,.54-1.05,4.62,4.62,0,0,0,.26-1.2,4.78,4.78,0,0,0-.07-1.26,4.93,4.93,0,0,0-.41-1.24,5.1,5.1,0,0,0-.75-1.12,5.26,5.26,0,0,0-1-.91,5.41,5.41,0,0,0-1.28-.63A5.57,5.57,0,0,0,45.67,8a5.71,5.71,0,0,0-1.5.11,5.87,5.87,0,0,0-1.46.52,6,6,0,0,0-1.31.9,6.19,6.19,0,0,0-1.05,1.24,6.34,6.34,0,0,0-.71,1.51,6.49,6.49,0,0,0-.3,1.68,6.65,6.65,0,0,0,.16,1.74,6.81,6.81,0,0,0,.62,1.68,7,7,0,0,0,1.06,1.49A7.11,7.11,0,0,0,42.62,20a7.27,7.27,0,0,0,1.74.79,7.43,7.43,0,0,0,1.92.32,7.58,7.58,0,0,0,2-.2,7.74,7.74,0,0,0,1.9-.72A7.89,7.89,0,0,0,51.83,19a8.05,8.05,0,0,0,1.33-1.64,8.21,8.21,0,0,0,.87-2,8.36,8.36,0,0,0,.34-2.16A8.52,8.52,0,0,0,54.13,11a8.67,8.67,0,0,0-.82-2.12,8.84,8.84,0,0,0-1.37-1.86A9,9,0,0,0,50.1,5.59a9.1,9.1,0,0,0-1.46-.71"/><circle class="cls-4" cx="45.94" cy="13.64" r="4.12"/><circle class="cls-4" cx="45.94" cy="13.64" r="9.17"/><path d="M125.7,13.66a8.89,8.89,0,0,1-.1,1.18,9.15,9.15,0,0,1-.25,1.09,8.46,8.46,0,0,1-.92,2.06,8.38,8.38,0,0,1-3.15,3,8.41,8.41,0,0,1-2,.76,8.06,8.06,0,0,1-1.83.21h-.25a8,8,0,0,1-2-.33,7.55,7.55,0,0,1-1.83-.84,7.4,7.4,0,0,1-1.52-1.26,7.32,7.32,0,0,1-1.12-1.58,7.1,7.1,0,0,1-.65-1.77,7,7,0,0,1-.16-1.85,6.86,6.86,0,0,1,.31-1.78,6.74,6.74,0,0,1,1.87-2.93,6.47,6.47,0,0,1,1.39-1A6.21,6.21,0,0,1,115,8.1,6,6,0,0,1,116.63,8a5.92,5.92,0,0,1,1.54.29,5.77,5.77,0,0,1,1.38.67,5.59,5.59,0,0,1,1.12,1,5.41,5.41,0,0,1,.8,1.21,5.29,5.29,0,0,1,.45,1.34,5.11,5.11,0,0,1-.2,2.67,4.85,4.85,0,0,1-.59,1.15,4.78,4.78,0,0,1-.85.92,4.52,4.52,0,0,1-1,.64h0l-.33-.73a3.9,3.9,0,0,0,.85-.53,3.82,3.82,0,0,0,.7-.76,4.11,4.11,0,0,0,.5-1,4.41,4.41,0,0,0,.23-1.1,4.47,4.47,0,0,0-.06-1.16c0-.08,0-.15-.05-.23a4.67,4.67,0,0,0-.33-.91,4.62,4.62,0,0,0-.69-1,4.84,4.84,0,0,0-1-.84A5.06,5.06,0,0,0,117.92,9a5.19,5.19,0,0,0-1.34-.26,5.46,5.46,0,0,0-1.4.11,5.3,5.3,0,0,0-1.36.48,5.75,5.75,0,0,0-2.2,2,5.83,5.83,0,0,0-.66,1.41,6,6,0,0,0-.28,1.58,6.23,6.23,0,0,0,.14,1.63,6.49,6.49,0,0,0,1.58,3,6.85,6.85,0,0,0,3,1.87,7,7,0,0,0,1.82.3A7.22,7.22,0,0,0,119.1,21a7.51,7.51,0,0,0,1.8-.68,7.56,7.56,0,0,0,2.85-2.71,7.87,7.87,0,0,0,.83-1.87,8.13,8.13,0,0,0,.32-2.06,8,8,0,0,0-.23-2.11,8.21,8.21,0,0,0-.79-2,8.53,8.53,0,0,0-1.3-1.77,8.68,8.68,0,0,0-1.75-1.4,8.83,8.83,0,0,0-1.39-.67h0l.29-.75a9.33,9.33,0,0,1,4.87,4.22,9,9,0,0,1,.86,2.21A8.72,8.72,0,0,1,125.7,13.66Z"/><path d="M121.08,12.4a4.52,4.52,0,1,0-4.22,6.15,4.46,4.46,0,0,0,2.39-.69h0a4.52,4.52,0,0,0,1.81-5.46ZM113.15,14a3.72,3.72,0,1,1,3.71,3.72A3.72,3.72,0,0,1,113.15,14Z"/><path d="M119.72,4.9A9.57,9.57,0,1,0,126.44,14,9.55,9.55,0,0,0,119.72,4.9Zm-2.85,17.9a8.77,8.77,0,1,1,2.57-17.15h0A8.78,8.78,0,0,1,125.64,14q0,.4,0,.79A8.78,8.78,0,0,1,116.87,22.81Z"/><path class="cls-5" d="M125.6,14.83a8.76,8.76,0,1,1-6.17-9.18h0a8.83,8.83,0,0,1,1.39.67,8.68,8.68,0,0,1,1.75,1.4,8.53,8.53,0,0,1,1.3,1.77,8.21,8.21,0,0,1,.79,2,8,8,0,0,1,.23,2.11,8.13,8.13,0,0,1-.32,2.06,7.87,7.87,0,0,1-.83,1.87,7.56,7.56,0,0,1-2.85,2.71,7.51,7.51,0,0,1-1.8.68,7.22,7.22,0,0,1-1.87.19,7,7,0,0,1-1.82-.3,6.85,6.85,0,0,1-3-1.87,6.49,6.49,0,0,1-1.58-3,6.23,6.23,0,0,1-.14-1.63,6,6,0,0,1,.28-1.58,5.83,5.83,0,0,1,.66-1.41,5.75,5.75,0,0,1,2.2-2,5.3,5.3,0,0,1,1.36-.48,5.46,5.46,0,0,1,1.4-.11,5.19,5.19,0,0,1,1.34.26,5.06,5.06,0,0,1,1.18.58,4.84,4.84,0,0,1,1,.84,4.62,4.62,0,0,1,.69,1,4.67,4.67,0,0,1,.33.91,4.52,4.52,0,1,0-4.22,6.15,4.46,4.46,0,0,0,2.39-.69h0a4.52,4.52,0,0,0,1-.64,4.78,4.78,0,0,0,.85-.92,4.85,4.85,0,0,0,.59-1.15,5.11,5.11,0,0,0,.2-2.67,5.29,5.29,0,0,0-.45-1.34,5.41,5.41,0,0,0-.8-1.21,5.59,5.59,0,0,0-1.12-1,5.77,5.77,0,0,0-1.38-.67A5.92,5.92,0,0,0,116.63,8,6,6,0,0,0,115,8.1a6.21,6.21,0,0,0-1.56.55,6.47,6.47,0,0,0-1.39,1,6.74,6.74,0,0,0-1.87,2.93,6.86,6.86,0,0,0-.31,1.78,7,7,0,0,0,.16,1.85,7.1,7.1,0,0,0,.65,1.77,7.32,7.32,0,0,0,1.12,1.58,7.4,7.4,0,0,0,1.52,1.26,7.55,7.55,0,0,0,1.83.84,8,8,0,0,0,2,.33h.25a8.06,8.06,0,0,0,1.83-.21,8.41,8.41,0,0,0,2-.76,8.38,8.38,0,0,0,3.15-3,8.46,8.46,0,0,0,.92-2.06A9.15,9.15,0,0,0,125.6,14.83Z"/><path d="M162.17,43a8.89,8.89,0,0,1-.1,1.18,9.15,9.15,0,0,1-.25,1.09,8.46,8.46,0,0,1-.92,2.06,8.38,8.38,0,0,1-3.15,3,8.41,8.41,0,0,1-2,.76,8.06,8.06,0,0,1-1.83.21h-.25a8,8,0,0,1-2-.33,7.55,7.55,0,0,1-1.83-.84,7.4,7.4,0,0,1-1.52-1.26,7.32,7.32,0,0,1-1.12-1.58,7.1,7.1,0,0,1-.65-1.77,7,7,0,0,1-.16-1.85,6.86,6.86,0,0,1,.31-1.78A6.74,6.74,0,0,1,148.54,39a6.47,6.47,0,0,1,1.39-1,6.21,6.21,0,0,1,1.56-.55,6,6,0,0,1,1.61-.12,5.92,5.92,0,0,1,1.54.29,5.77,5.77,0,0,1,1.38.67,5.59,5.59,0,0,1,1.12,1,5.41,5.41,0,0,1,.8,1.21,5.29,5.29,0,0,1,.45,1.34,5.11,5.11,0,0,1-.2,2.67,4.85,4.85,0,0,1-.59,1.15,4.78,4.78,0,0,1-.85.92,4.52,4.52,0,0,1-1,.64h0l-.33-.73a3.9,3.9,0,0,0,.85-.53,3.82,3.82,0,0,0,.7-.76,4.11,4.11,0,0,0,.5-1,4.41,4.41,0,0,0,.23-1.1A4.47,4.47,0,0,0,157.6,42c0-.08,0-.15-.05-.23a4.67,4.67,0,0,0-.33-.91,4.62,4.62,0,0,0-.69-1,4.84,4.84,0,0,0-1-.84,5.06,5.06,0,0,0-1.18-.58,5.19,5.19,0,0,0-1.34-.26,5.46,5.46,0,0,0-1.4.11,5.3,5.3,0,0,0-1.36.48,5.75,5.75,0,0,0-2.2,2,5.83,5.83,0,0,0-.66,1.41,6,6,0,0,0-.28,1.58,6.23,6.23,0,0,0,.14,1.63,6.49,6.49,0,0,0,1.58,3,6.85,6.85,0,0,0,3,1.87,7,7,0,0,0,1.82.3,7.22,7.22,0,0,0,1.87-.19,7.51,7.51,0,0,0,1.8-.68A7.56,7.56,0,0,0,160.22,47a7.87,7.87,0,0,0,.83-1.87,8.13,8.13,0,0,0,.32-2.06,8,8,0,0,0-.23-2.11,8.21,8.21,0,0,0-.79-2,8.53,8.53,0,0,0-1.3-1.77,8.68,8.68,0,0,0-1.75-1.4,8.83,8.83,0,0,0-1.39-.67h0l.29-.75a9.33,9.33,0,0,1,4.87,4.22,9,9,0,0,1,.86,2.21A8.72,8.72,0,0,1,162.17,43Z"/><path d="M157.55,41.79a4.52,4.52,0,1,0-4.22,6.15,4.46,4.46,0,0,0,2.39-.69h0a4.52,4.52,0,0,0,1.81-5.46Zm-7.93,1.63a3.72,3.72,0,1,1,3.71,3.72A3.72,3.72,0,0,1,149.62,43.42Z"/><path d="M156.19,34.29a9.57,9.57,0,1,0,6.72,9.13A9.55,9.55,0,0,0,156.19,34.29Zm-2.85,17.9A8.77,8.77,0,1,1,155.9,35h0a8.78,8.78,0,0,1,6.19,8.38q0,.4,0,.79A8.78,8.78,0,0,1,153.34,52.19Z"/><circle class="cls-6" cx="153.34" cy="43.42" r="3.72"/><path class="cls-5" d="M162.07,44.22A8.76,8.76,0,1,1,155.9,35h0a8.83,8.83,0,0,1,1.39.67,8.68,8.68,0,0,1,1.75,1.4,8.53,8.53,0,0,1,1.3,1.77,8.21,8.21,0,0,1,.79,2,8,8,0,0,1,.23,2.11,8.13,8.13,0,0,1-.32,2.06,7.87,7.87,0,0,1-.83,1.87,7.56,7.56,0,0,1-2.85,2.71,7.51,7.51,0,0,1-1.8.68,7.22,7.22,0,0,1-1.87.19,7,7,0,0,1-1.82-.3,6.85,6.85,0,0,1-3-1.87,6.49,6.49,0,0,1-1.58-3,6.23,6.23,0,0,1-.14-1.63,6,6,0,0,1,.28-1.58,5.83,5.83,0,0,1,.66-1.41,5.75,5.75,0,0,1,2.2-2,5.3,5.3,0,0,1,1.36-.48,5.46,5.46,0,0,1,1.4-.11,5.19,5.19,0,0,1,1.34.26,5.06,5.06,0,0,1,1.18.58,4.84,4.84,0,0,1,1,.84,4.62,4.62,0,0,1,.69,1,4.67,4.67,0,0,1,.33.91,4.52,4.52,0,1,0-4.22,6.15,4.46,4.46,0,0,0,2.39-.69h0a4.52,4.52,0,0,0,1-.64,4.78,4.78,0,0,0,.85-.92,4.85,4.85,0,0,0,.59-1.15,5.11,5.11,0,0,0,.2-2.67,5.29,5.29,0,0,0-.45-1.34,5.41,5.41,0,0,0-.8-1.21,5.59,5.59,0,0,0-1.12-1,5.77,5.77,0,0,0-1.38-.67,5.92,5.92,0,0,0-1.54-.29,6,6,0,0,0-1.61.12,6.21,6.21,0,0,0-1.56.55,6.47,6.47,0,0,0-1.39,1,6.74,6.74,0,0,0-1.87,2.93,6.86,6.86,0,0,0-.31,1.78,7,7,0,0,0,.16,1.85,7.1,7.1,0,0,0,.65,1.77,7.32,7.32,0,0,0,1.12,1.58,7.4,7.4,0,0,0,1.52,1.26,7.55,7.55,0,0,0,1.83.84,8,8,0,0,0,2,.33h.25a8.06,8.06,0,0,0,1.83-.21,8.41,8.41,0,0,0,2-.76,8.38,8.38,0,0,0,3.15-3,8.46,8.46,0,0,0,.92-2.06A9.15,9.15,0,0,0,162.07,44.22Z"/><path d="M196.55,42.7a8.89,8.89,0,0,1-.1,1.18A9.15,9.15,0,0,1,196.2,45a8.46,8.46,0,0,1-.92,2.06,8.38,8.38,0,0,1-3.15,3,8.41,8.41,0,0,1-2,.76,8.06,8.06,0,0,1-1.83.21h-.25a8,8,0,0,1-2-.33,7.55,7.55,0,0,1-1.83-.84,7.4,7.4,0,0,1-1.52-1.26A7.32,7.32,0,0,1,181.55,47a7.1,7.1,0,0,1-.65-1.77,7,7,0,0,1-.16-1.85,6.86,6.86,0,0,1,.31-1.78,6.74,6.74,0,0,1,1.87-2.93,6.47,6.47,0,0,1,1.39-1,6.21,6.21,0,0,1,1.56-.55,6,6,0,0,1,1.61-.12,5.92,5.92,0,0,1,1.54.29,5.77,5.77,0,0,1,1.38.67,5.59,5.59,0,0,1,1.12,1,5.41,5.41,0,0,1,.8,1.21,5.29,5.29,0,0,1,.45,1.34,5.11,5.11,0,0,1-.2,2.67,4.85,4.85,0,0,1-.59,1.15,4.78,4.78,0,0,1-.85.92,4.52,4.52,0,0,1-1,.64h0l-.34-.73a3.9,3.9,0,0,0,.85-.53,3.82,3.82,0,0,0,.7-.76,4.11,4.11,0,0,0,.5-1,4.41,4.41,0,0,0,.23-1.1,4.47,4.47,0,0,0-.06-1.16c0-.08,0-.15-.05-.23a4.67,4.67,0,0,0-.33-.91,4.62,4.62,0,0,0-.69-1,4.84,4.84,0,0,0-1-.84,5.06,5.06,0,0,0-1.18-.58,5.19,5.19,0,0,0-1.34-.26,5.46,5.46,0,0,0-1.4.11,5.3,5.3,0,0,0-1.36.48,5.75,5.75,0,0,0-2.2,2,5.83,5.83,0,0,0-.66,1.41,6,6,0,0,0-.28,1.58,6.23,6.23,0,0,0,.14,1.63,6.49,6.49,0,0,0,1.58,3,6.85,6.85,0,0,0,3,1.87,7,7,0,0,0,1.82.3,7.22,7.22,0,0,0,1.87-.19,7.51,7.51,0,0,0,1.8-.68,7.56,7.56,0,0,0,2.85-2.71,7.87,7.87,0,0,0,.83-1.87,8.13,8.13,0,0,0,.32-2.06,8,8,0,0,0-.23-2.11,8.21,8.21,0,0,0-.79-2,8.53,8.53,0,0,0-1.3-1.77,8.68,8.68,0,0,0-1.75-1.4,8.83,8.83,0,0,0-1.39-.67h0l.29-.75a9.33,9.33,0,0,1,4.87,4.22,9,9,0,0,1,.86,2.21A8.72,8.72,0,0,1,196.55,42.7Z"/><path d="M191.93,41.44a4.52,4.52,0,1,0-4.22,6.15,4.46,4.46,0,0,0,2.39-.69h0a4.52,4.52,0,0,0,1.81-5.46ZM184,43.08a3.72,3.72,0,1,1,3.71,3.72A3.72,3.72,0,0,1,184,43.08Z"/><path class="cls-7" d="M120.89,34.29a9.57,9.57,0,1,0,6.72,9.13A9.55,9.55,0,0,0,120.89,34.29ZM118,52.19A8.77,8.77,0,1,1,120.6,35h0a8.78,8.78,0,0,1,6.19,8.38q0,.4,0,.79A8.78,8.78,0,0,1,118,52.19Z"/><circle class="cls-7" cx="118.04" cy="43.42" r="3.72"/><path class="cls-7" d="M126.77,44.22A8.76,8.76,0,1,1,120.6,35h0a8.83,8.83,0,0,1,1.39.67,8.68,8.68,0,0,1,1.75,1.4,8.53,8.53,0,0,1,1.3,1.77,8.21,8.21,0,0,1,.79,2,8,8,0,0,1,.23,2.11,8.13,8.13,0,0,1-.32,2.06,7.87,7.87,0,0,1-.83,1.87,7.56,7.56,0,0,1-2.85,2.71,7.51,7.51,0,0,1-1.8.68,7.22,7.22,0,0,1-1.87.19,7,7,0,0,1-1.82-.3,6.85,6.85,0,0,1-3-1.87,6.49,6.49,0,0,1-1.58-3,6.23,6.23,0,0,1-.14-1.63,6,6,0,0,1,.28-1.58,5.83,5.83,0,0,1,.66-1.41,5.75,5.75,0,0,1,2.2-2,5.3,5.3,0,0,1,1.36-.48,5.46,5.46,0,0,1,1.4-.11,5.19,5.19,0,0,1,1.34.26,5.06,5.06,0,0,1,1.18.58,4.84,4.84,0,0,1,1,.84,4.62,4.62,0,0,1,.69,1,4.67,4.67,0,0,1,.33.91A4.52,4.52,0,1,0,118,47.94a4.46,4.46,0,0,0,2.39-.69h0a4.52,4.52,0,0,0,1-.64,4.78,4.78,0,0,0,.85-.92,4.85,4.85,0,0,0,.59-1.15,5.11,5.11,0,0,0,.2-2.67,5.29,5.29,0,0,0-.45-1.34,5.41,5.41,0,0,0-.8-1.21,5.59,5.59,0,0,0-1.12-1,5.77,5.77,0,0,0-1.38-.67,5.92,5.92,0,0,0-1.54-.29,6,6,0,0,0-1.61.12,6.21,6.21,0,0,0-1.56.55,6.47,6.47,0,0,0-1.39,1,6.74,6.74,0,0,0-1.87,2.93,6.86,6.86,0,0,0-.31,1.78,7,7,0,0,0,.16,1.85,7.1,7.1,0,0,0,.65,1.77A7.32,7.32,0,0,0,113,48.91a7.4,7.4,0,0,0,1.52,1.26,7.55,7.55,0,0,0,1.83.84,8,8,0,0,0,2,.33h.25a8.06,8.06,0,0,0,1.83-.21,8.41,8.41,0,0,0,2-.76,8.38,8.38,0,0,0,3.15-3,8.46,8.46,0,0,0,.92-2.06A9.15,9.15,0,0,0,126.77,44.22Z"/><circle class="cls-7" cx="82.76" cy="43.23" r="3.72"/><path class="cls-7" d="M91.49,44a8.76,8.76,0,1,1-6.17-9.18h0a8.83,8.83,0,0,1,1.39.67,8.68,8.68,0,0,1,1.75,1.4,8.53,8.53,0,0,1,1.3,1.77,8.21,8.21,0,0,1,.79,2,8,8,0,0,1,.23,2.11,8.13,8.13,0,0,1-.32,2.06,7.87,7.87,0,0,1-.83,1.87,7.56,7.56,0,0,1-2.85,2.71,7.51,7.51,0,0,1-1.8.68,7.22,7.22,0,0,1-1.87.19A7,7,0,0,1,81.3,50a6.85,6.85,0,0,1-3-1.87,6.49,6.49,0,0,1-1.58-3,6.23,6.23,0,0,1-.14-1.63A6,6,0,0,1,76.85,42a5.83,5.83,0,0,1,.66-1.41,5.75,5.75,0,0,1,2.2-2,5.3,5.3,0,0,1,1.36-.48,5.46,5.46,0,0,1,1.4-.11,5.19,5.19,0,0,1,1.34.26,5.06,5.06,0,0,1,1.18.58,4.84,4.84,0,0,1,1,.84,4.62,4.62,0,0,1,.69,1,4.67,4.67,0,0,1,.33.91,4.52,4.52,0,1,0-4.22,6.15,4.46,4.46,0,0,0,2.39-.69h0a4.52,4.52,0,0,0,1-.64,4.78,4.78,0,0,0,.85-.92,4.85,4.85,0,0,0,.59-1.15,5.11,5.11,0,0,0,.2-2.67,5.29,5.29,0,0,0-.45-1.34,5.41,5.41,0,0,0-.8-1.21,5.59,5.59,0,0,0-1.12-1,5.77,5.77,0,0,0-1.38-.67,5.92,5.92,0,0,0-1.54-.29,6,6,0,0,0-1.61.12,6.21,6.21,0,0,0-1.56.55,6.47,6.47,0,0,0-1.39,1,6.74,6.74,0,0,0-1.87,2.93,6.86,6.86,0,0,0-.31,1.78,7,7,0,0,0,.16,1.85,7.1,7.1,0,0,0,.65,1.77,7.32,7.32,0,0,0,1.12,1.58A7.4,7.4,0,0,0,79.24,50a7.55,7.55,0,0,0,1.83.84,8,8,0,0,0,2,.33h.25a8.06,8.06,0,0,0,1.83-.21,8.41,8.41,0,0,0,2-.76,8.38,8.38,0,0,0,3.15-3,8.46,8.46,0,0,0,.92-2.06A9.15,9.15,0,0,0,91.49,44Z"/><path d="M155.19,4.9A9.57,9.57,0,1,0,161.91,14,9.55,9.55,0,0,0,155.19,4.9Zm-2.85,17.9A8.77,8.77,0,1,1,154.9,5.66h0A8.78,8.78,0,0,1,161.1,14q0,.4,0,.79A8.78,8.78,0,0,1,152.34,22.81Z"/><path class="cls-5" d="M161.07,14.83a8.76,8.76,0,1,1-6.17-9.18h0a8.83,8.83,0,0,1,1.39.67A8.68,8.68,0,0,1,158,7.73a8.53,8.53,0,0,1,1.3,1.77,8.21,8.21,0,0,1,.79,2,8,8,0,0,1,.23,2.11,8.13,8.13,0,0,1-.32,2.06,7.87,7.87,0,0,1-.83,1.87,7.56,7.56,0,0,1-2.85,2.71,7.51,7.51,0,0,1-1.8.68,7.22,7.22,0,0,1-1.87.19,7,7,0,0,1-1.82-.3,6.85,6.85,0,0,1-3-1.87,6.49,6.49,0,0,1-1.58-3,6.23,6.23,0,0,1-.14-1.63,6,6,0,0,1,.28-1.58,5.83,5.83,0,0,1,.66-1.41,5.75,5.75,0,0,1,2.2-2,5.3,5.3,0,0,1,1.36-.48,5.46,5.46,0,0,1,1.4-.11,5.19,5.19,0,0,1,1.34.26,5.06,5.06,0,0,1,1.18.58,4.84,4.84,0,0,1,1,.84,4.62,4.62,0,0,1,.69,1,4.67,4.67,0,0,1,.33.91,4.52,4.52,0,1,0-4.22,6.15,4.46,4.46,0,0,0,2.39-.69h0a4.52,4.52,0,0,0,1-.64,4.78,4.78,0,0,0,.85-.92,4.85,4.85,0,0,0,.59-1.15,5.11,5.11,0,0,0,.2-2.67,5.29,5.29,0,0,0-.45-1.34,5.41,5.41,0,0,0-.8-1.21A5.59,5.59,0,0,0,155,9a5.77,5.77,0,0,0-1.38-.67A5.92,5.92,0,0,0,152.1,8a6,6,0,0,0-1.61.12,6.21,6.21,0,0,0-1.56.55,6.47,6.47,0,0,0-1.39,1,6.74,6.74,0,0,0-1.87,2.93,6.86,6.86,0,0,0-.31,1.78,7,7,0,0,0,.16,1.85,7.1,7.1,0,0,0,.65,1.77,7.32,7.32,0,0,0,1.12,1.58,7.4,7.4,0,0,0,1.52,1.26,7.55,7.55,0,0,0,1.83.84,8,8,0,0,0,2,.33h.25a8.06,8.06,0,0,0,1.83-.21,8.41,8.41,0,0,0,2-.76,8.38,8.38,0,0,0,3.15-3,8.46,8.46,0,0,0,.92-2.06A9.15,9.15,0,0,0,161.07,14.83Z"/><path class="cls-5" d="M196.55,14a8.76,8.76,0,1,1-6.17-9.18h0a8.56,8.56,0,0,1,3.14,2.08,8.53,8.53,0,0,1,1.3,1.77,8.21,8.21,0,0,1,.79,2,8,8,0,0,1,.23,2.11,8.13,8.13,0,0,1-.32,2.06,7.87,7.87,0,0,1-.83,1.87,7.56,7.56,0,0,1-2.85,2.71,7.51,7.51,0,0,1-1.8.68,7.22,7.22,0,0,1-1.87.19,7,7,0,0,1-1.82-.3,6.85,6.85,0,0,1-3-1.87,6.49,6.49,0,0,1-1.58-3,6.23,6.23,0,0,1-.14-1.63,6,6,0,0,1,.28-1.58,5.83,5.83,0,0,1,.66-1.41,5.75,5.75,0,0,1,2.2-2,5.3,5.3,0,0,1,1.36-.48,5.46,5.46,0,0,1,1.4-.11,5.19,5.19,0,0,1,1.34.26,5.06,5.06,0,0,1,1.18.58,4.84,4.84,0,0,1,1,.84,4.62,4.62,0,0,1,.69,1,4.67,4.67,0,0,1,.33.91,4.52,4.52,0,1,0-4.22,6.15,4.46,4.46,0,0,0,2.39-.69h0a4.52,4.52,0,0,0,1-.64,4.78,4.78,0,0,0,.85-.92,4.85,4.85,0,0,0,.59-1.15,5.11,5.11,0,0,0,.2-2.67,5.29,5.29,0,0,0-.45-1.34,5.41,5.41,0,0,0-.8-1.21,5.59,5.59,0,0,0-1.12-1,5.77,5.77,0,0,0-1.38-.67,5.92,5.92,0,0,0-1.54-.29A6,6,0,0,0,186,7.3a6.21,6.21,0,0,0-1.56.55,6.47,6.47,0,0,0-1.39,1,6.74,6.74,0,0,0-1.87,2.93,6.86,6.86,0,0,0-.31,1.78,7,7,0,0,0,.16,1.85,7.1,7.1,0,0,0,.65,1.77,7.32,7.32,0,0,0,1.12,1.58A7.4,7.4,0,0,0,184.3,20a7.55,7.55,0,0,0,1.83.84,8,8,0,0,0,2,.33h.25a8.06,8.06,0,0,0,1.83-.21,8.41,8.41,0,0,0,2-.76,8.38,8.38,0,0,0,3.15-3,8.46,8.46,0,0,0,.92-2.06A9.15,9.15,0,0,0,196.55,14Z"/><circle class="cls-1" cx="51.6" cy="109.38" r="9.17" transform="translate(-5.18 2.6) rotate(-2.75)"/><path class="cls-1" d="M40.68,109.09c-2.17-.06-3.13-.51-3.57-1.06a1.69,1.69,0,0,1-.21-1.69,2,2,0,0,1,.92-1.09,4.2,4.2,0,0,1,1.82-.52,10.53,10.53,0,0,1,2.3.18,15.28,15.28,0,0,1,2.26.53c.84.27,1.84.66,3.26,1.2s3.25,1.23,4.73,1.68a14.36,14.36,0,0,0,3.48.69,4.58,4.58,0,0,0,2.3-.41,2.53,2.53,0,0,0,1.55-1.83,5,5,0,0,0-1.24-3.66"/><path class="cls-1" d="M62.71,109.29a6.34,6.34,0,0,1,3.63.51,1.43,1.43,0,0,1,.4,2.07,3.68,3.68,0,0,1-2.15,1.4,11.15,11.15,0,0,1-2.93.37,14.37,14.37,0,0,1-3.08-.28c-1.21-.23-2.73-.64-3.91-.91a29.51,29.51,0,0,0-3-.57,28.58,28.58,0,0,0-3.36-.28,20.34,20.34,0,0,0-3.33.23,10.92,10.92,0,0,0-2.74.74,4.08,4.08,0,0,0-2,1.51,1.51,1.51,0,0,0,.25,1.85,3,3,0,0,0,2.3.37,11.25,11.25,0,0,0,2.7-.8c.81-.34,1.48-.7,2.25-1a11.82,11.82,0,0,1,3-.82,7,7,0,0,1,4.2.36c1.16.65,1.76,2.06-.82,4.18"/><path class="cls-3" d="M48.16,47.29a4.23,4.23,0,0,0,1.71-1.43,4.49,4.49,0,0,0,.54-1.05,4.62,4.62,0,0,0,.26-1.2,4.78,4.78,0,0,0-.07-1.26,4.93,4.93,0,0,0-.41-1.24A5.1,5.1,0,0,0,49.44,40a5.26,5.26,0,0,0-1-.91,5.41,5.41,0,0,0-1.28-.63,5.57,5.57,0,0,0-1.44-.28,5.71,5.71,0,0,0-1.5.11,5.87,5.87,0,0,0-1.46.52,6,6,0,0,0-1.31.9,6.19,6.19,0,0,0-1.05,1.24,6.34,6.34,0,0,0-.71,1.51,6.49,6.49,0,0,0-.3,1.68,6.65,6.65,0,0,0,.16,1.74,6.81,6.81,0,0,0,.62,1.68A7,7,0,0,0,41.18,49a7.11,7.11,0,0,0,1.44,1.19,7.27,7.27,0,0,0,1.74.79,7.43,7.43,0,0,0,1.92.32,7.58,7.58,0,0,0,2-.2,7.74,7.74,0,0,0,1.9-.72,7.89,7.89,0,0,0,1.68-1.21,8.05,8.05,0,0,0,1.33-1.64,8.21,8.21,0,0,0,.87-2,8.36,8.36,0,0,0,.34-2.16,8.52,8.52,0,0,0-.24-2.22,8.67,8.67,0,0,0-.82-2.12,8.84,8.84,0,0,0-1.37-1.86,9,9,0,0,0-1.84-1.47,9.1,9.1,0,0,0-1.46-.71"/><circle class="cls-3" cx="45.94" cy="43.83" r="4.12"/><circle class="cls-3" cx="45.94" cy="43.83" r="9.17"/><path d="M55.83,31.15a1.48,1.48,0,1,1-1.48,1.48,1.48,1.48,0,0,1,1.48-1.48m0-.8a2.28,2.28,0,1,0,2.28,2.28,2.28,2.28,0,0,0-2.28-2.28Z"/><text class="cls-8" transform="translate(200.01 80.36)">O</text><path class="cls-9" d="M189.94,81.53A4.62,4.62,0,0,0,191.81,80a4.9,4.9,0,0,0,.59-1.15,5,5,0,0,0,.28-1.31,5.21,5.21,0,0,0-.08-1.38,5.38,5.38,0,0,0-.45-1.35,5.56,5.56,0,0,0-.81-1.22,5.73,5.73,0,0,0-1.14-1,5.9,5.9,0,0,0-1.4-.68,6.07,6.07,0,0,0-1.57-.3,6.23,6.23,0,0,0-1.64.12,6.4,6.4,0,0,0-1.59.56,6.59,6.59,0,0,0-1.42,1,6.75,6.75,0,0,0-1.15,1.35,6.91,6.91,0,0,0-.77,1.65,7.08,7.08,0,0,0-.32,1.83,7.25,7.25,0,0,0,.17,1.9,7.42,7.42,0,0,0,.67,1.83,7.59,7.59,0,0,0,1.15,1.63,7.75,7.75,0,0,0,1.57,1.3,7.93,7.93,0,0,0,1.89.86,8.1,8.1,0,0,0,2.1.35,8.26,8.26,0,0,0,2.16-.22,8.44,8.44,0,0,0,2.07-.79A8.6,8.6,0,0,0,194,83.62a8.78,8.78,0,0,0,1.45-1.79,9,9,0,0,0,1-2.14,9.11,9.11,0,0,0,.37-2.36,9.29,9.29,0,0,0-.26-2.42,9.46,9.46,0,0,0-.9-2.31,9.63,9.63,0,0,0-1.49-2,9.79,9.79,0,0,0-2-1.6,9.92,9.92,0,0,0-1.59-.77"/><circle class="cls-9" cx="187.52" cy="77.75" r="4.49"/><circle class="cls-9" cx="187.52" cy="77.75" r="10"/><path class="cls-9" d="M48.18,81.53A4.62,4.62,0,0,0,50,80a4.9,4.9,0,0,0,.59-1.15,5,5,0,0,0,.28-1.31,5.21,5.21,0,0,0-.08-1.38,5.38,5.38,0,0,0-.45-1.35,5.56,5.56,0,0,0-.81-1.22,5.73,5.73,0,0,0-1.14-1,5.9,5.9,0,0,0-1.4-.68,6.07,6.07,0,0,0-1.57-.3,6.23,6.23,0,0,0-1.64.12,6.4,6.4,0,0,0-1.59.56,6.59,6.59,0,0,0-1.42,1,6.75,6.75,0,0,0-1.15,1.35,6.91,6.91,0,0,0-.77,1.65,7.08,7.08,0,0,0-.32,1.83,7.25,7.25,0,0,0,.17,1.9,7.42,7.42,0,0,0,.67,1.83,7.59,7.59,0,0,0,1.15,1.63,7.75,7.75,0,0,0,1.57,1.3A7.93,7.93,0,0,0,44,85.6a8.1,8.1,0,0,0,2.1.35,8.26,8.26,0,0,0,2.16-.22,8.44,8.44,0,0,0,2.07-.79,8.6,8.6,0,0,0,1.83-1.32,8.78,8.78,0,0,0,1.45-1.79,9,9,0,0,0,1-2.14A9.11,9.11,0,0,0,55,77.33a9.29,9.29,0,0,0-.26-2.42,9.46,9.46,0,0,0-.9-2.31,9.63,9.63,0,0,0-1.49-2,9.79,9.79,0,0,0-2-1.6,9.92,9.92,0,0,0-1.59-.77"/><circle class="cls-10" cx="45.76" cy="77.75" r="4.49"/><circle class="cls-9" cx="45.76" cy="77.75" r="10"/><circle class="cls-11" cx="56.55" cy="65.55" r="2.49"/><path class="cls-9" d="M96.55,81.53A4.62,4.62,0,0,0,98.42,80,4.9,4.9,0,0,0,99,78.82a5,5,0,0,0,.28-1.31,5.21,5.21,0,0,0-.08-1.38,5.38,5.38,0,0,0-.45-1.35,5.56,5.56,0,0,0-.81-1.22,5.73,5.73,0,0,0-1.14-1,5.9,5.9,0,0,0-1.4-.68,6.07,6.07,0,0,0-1.57-.3,6.23,6.23,0,0,0-1.64.12,6.4,6.4,0,0,0-1.59.56,6.59,6.59,0,0,0-1.42,1A6.75,6.75,0,0,0,88,74.61a6.91,6.91,0,0,0-.77,1.65A7.08,7.08,0,0,0,87,78.09a7.25,7.25,0,0,0,.17,1.9,7.42,7.42,0,0,0,.67,1.83A7.59,7.59,0,0,0,89,83.44a7.75,7.75,0,0,0,1.57,1.3,7.93,7.93,0,0,0,1.89.86,8.1,8.1,0,0,0,2.1.35,8.26,8.26,0,0,0,2.16-.22,8.44,8.44,0,0,0,2.07-.79,8.6,8.6,0,0,0,1.83-1.32A8.78,8.78,0,0,0,102,81.83a9,9,0,0,0,1-2.14,9.11,9.11,0,0,0,.37-2.36,9.29,9.29,0,0,0-.26-2.42,9.46,9.46,0,0,0-.9-2.31,9.63,9.63,0,0,0-1.49-2,9.79,9.79,0,0,0-2-1.6,9.92,9.92,0,0,0-1.59-.77"/><circle class="cls-10" cx="94.13" cy="77.75" r="4.49"/><circle class="cls-9" cx="94.13" cy="77.75" r="10"/><circle class="cls-11" cx="104.92" cy="65.55" r="2.27"/><path d="M104.92,63.5a2.05,2.05,0,1,1-2.05,2.05,2.06,2.06,0,0,1,2.05-2.05m0-.44a2.49,2.49,0,1,0,2.49,2.49,2.49,2.49,0,0,0-2.49-2.49Z"/><path class="cls-9" d="M142.36,81.53A4.62,4.62,0,0,0,144.23,80a4.9,4.9,0,0,0,.59-1.15,5,5,0,0,0,.28-1.31,5.21,5.21,0,0,0-.08-1.38,5.38,5.38,0,0,0-.45-1.35,5.56,5.56,0,0,0-.81-1.22,5.73,5.73,0,0,0-1.14-1,5.9,5.9,0,0,0-1.4-.68,6.07,6.07,0,0,0-1.57-.3,6.23,6.23,0,0,0-1.64.12,6.4,6.4,0,0,0-1.59.56,6.59,6.59,0,0,0-1.42,1,6.75,6.75,0,0,0-1.15,1.35,6.91,6.91,0,0,0-.77,1.65,7.08,7.08,0,0,0-.32,1.83,7.25,7.25,0,0,0,.17,1.9,7.42,7.42,0,0,0,.67,1.83,7.59,7.59,0,0,0,1.15,1.63,7.75,7.75,0,0,0,1.57,1.3,7.93,7.93,0,0,0,1.89.86,8.1,8.1,0,0,0,2.1.35,8.26,8.26,0,0,0,2.16-.22,8.44,8.44,0,0,0,2.07-.79,8.6,8.6,0,0,0,1.83-1.32,8.78,8.78,0,0,0,1.45-1.79,9,9,0,0,0,1-2.14,9.11,9.11,0,0,0,.37-2.36,9.29,9.29,0,0,0-.26-2.42,9.46,9.46,0,0,0-.9-2.31,9.63,9.63,0,0,0-1.49-2,9.79,9.79,0,0,0-2-1.6,9.92,9.92,0,0,0-1.59-.77"/><circle class="cls-10" cx="139.94" cy="77.75" r="4.49"/><circle class="cls-9" cx="139.94" cy="77.75" r="10"/><circle class="cls-11" cx="155.85" cy="77.07" r="2.27"/><path d="M155.85,75a2.05,2.05,0,1,1-2.05,2.05A2.05,2.05,0,0,1,155.85,75m0-.44a2.49,2.49,0,1,0,2.49,2.49,2.49,2.49,0,0,0-2.49-2.49Z"/></svg>