<svg id="Default" xmlns="http://www.w3.org/2000/svg" viewBox="0 0 235.06 112.33"><title>Artboard 10</title><path d="M33.56,8.44a1.73,1.73,0,0,1-.18-.69V4.91a1.73,1.73,0,0,1,.18-.69,1.51,1.51,0,0,1,2.58,0,1.73,1.73,0,0,1,.18.69V7.75a1.73,1.73,0,0,1-.18.69,1.51,1.51,0,0,1-2.58,0Zm.63-.69c0,.12.09.71.67.71a.69.69,0,0,0,.66-.71V4.91a.68.68,0,0,0-.66-.71.69.69,0,0,0-.67.71Z"/><path d="M39,8.47v.71H36.79V3.49h.8v5Z"/><path d="M41.67,3.49l-1.2,2.91V9.17h-.8V6.41l-1.2-2.91h.87l.73,1.79c.24-.6.5-1.19.74-1.79Z"/><path d="M46.5,3.49V9.17h-.81V5.7c-.29,1.17-.58,2.31-.87,3.47h-1L42.94,5.7V9.17h-.8V3.49h1.09l1.09,4.38,1.1-4.38Z"/><path d="M49.91,5.09a1.47,1.47,0,0,1-1.47,1.6h-.67V9.17H47V3.49h1.47a1.63,1.63,0,0,1,.74.2A1.53,1.53,0,0,1,49.91,5.09Zm-.81,0a.82.82,0,0,0-.32-.78.72.72,0,0,0-.33-.11h-.67V6h.67a.81.81,0,0,0,.35-.11A.84.84,0,0,0,49.1,5.09Z"/><path d="M50.56,8.44a1.73,1.73,0,0,1-.18-.69V3.49h.8V7.75c0,.12.09.71.67.71a.69.69,0,0,0,.66-.71V3.49h.81V7.75a1.73,1.73,0,0,1-.18.69,1.51,1.51,0,0,1-2.58,0Z"/><path d="M55.79,5.27V4.91a.68.68,0,0,0-.66-.71.69.69,0,0,0-.67.71v.36c0,.06.1.5.8.73,1.32.45,1.34,1.36,1.34,1.4v.36a1.73,1.73,0,0,1-.18.69,1.51,1.51,0,0,1-2.58,0,1.73,1.73,0,0,1-.18-.69V7.4h.8v.36c0,.12.09.71.67.71a.69.69,0,0,0,.66-.71V7.4s-.08-.48-.79-.73c-1.27-.45-1.34-1.36-1.34-1.4V4.91a1.73,1.73,0,0,1,.18-.69,1.51,1.51,0,0,1,2.58,0,1.73,1.73,0,0,1,.18.69v.36Z"/><path d="M81.44,7.77a2.75,2.75,0,0,1-.58.94,2.62,2.62,0,0,1-.91.61,3.26,3.26,0,0,1-2.34,0,2.62,2.62,0,0,1-.91-.61,2.75,2.75,0,0,1-.58-.94,3.36,3.36,0,0,1-.21-1.2,3.36,3.36,0,0,1,.21-1.2,2.77,2.77,0,0,1,.58-.94,2.63,2.63,0,0,1,.91-.62,3.23,3.23,0,0,1,2.34,0,2.63,2.63,0,0,1,.91.62,2.77,2.77,0,0,1,.58.94,3.36,3.36,0,0,1,.21,1.2A3.36,3.36,0,0,1,81.44,7.77ZM80.69,5.6a2,2,0,0,0-.41-.72,1.8,1.8,0,0,0-.65-.45,2.36,2.36,0,0,0-1.7,0,1.82,1.82,0,0,0-.65.45,2,2,0,0,0-.42.72,3,3,0,0,0-.15,1,2.94,2.94,0,0,0,.15,1,2,2,0,0,0,.42.72,1.79,1.79,0,0,0,.65.45,2.39,2.39,0,0,0,1.7,0,1.78,1.78,0,0,0,.65-.45,2,2,0,0,0,.41-.72,3,3,0,0,0,.15-1A3,3,0,0,0,80.69,5.6Z"/><path d="M84,9.12v.35h-1.9V9.12A.14.14,0,0,1,82.23,9l.46-.09V4.08L82.23,4a.14.14,0,0,1-.12-.15V3.49h1.31V8.88l.46.09A.14.14,0,0,1,84,9.12Z"/><path d="M88.89,5.36v.35a.14.14,0,0,1-.12.15l-.22,0-.21,0-2,4.74a.27.27,0,0,1-.26.18H85.5l.75-1.63-1.45-3.3-.37-.07a.14.14,0,0,1-.12-.15V5.36h1.84v.35a.14.14,0,0,1-.12.15l-.45.09.91,2.15a2.38,2.38,0,0,1,.11.36q.07-.24.12-.37l.89-2.15-.44-.09a.14.14,0,0,1-.12-.15V5.36h1.82Z"/><path d="M91.74,5.3a1,1,0,0,1,.68.23,1.3,1.3,0,0,1,.37.63,1.26,1.26,0,0,1,.54-.65A1.37,1.37,0,0,1,94,5.3a1.69,1.69,0,0,1,.63.1,1.16,1.16,0,0,1,.43.3,1.69,1.69,0,0,1,.36,1.15v2l.46.09a.14.14,0,0,1,.13.15v.35H94.75V6.85a1.11,1.11,0,0,0-.21-.73.76.76,0,0,0-.61-.25.84.84,0,0,0-.62.25,1,1,0,0,0-.26.74v2l.46.09a.14.14,0,0,1,.12.15v.35H92.32V6.85q0-1-.78-1a1.17,1.17,0,0,0-.92.54V8.88l.22,0,.25.05a.14.14,0,0,1,.13.15v.35h-1.9V9.12A.14.14,0,0,1,89.44,9l.46-.09V6l-.46-.09a.14.14,0,0,1-.12-.15V5.36h1a.18.18,0,0,1,.2.15l.05.42A1.49,1.49,0,0,1,91.74,5.3Z"/><path d="M99,5.29a1.35,1.35,0,0,1,1.13.54,2.55,2.55,0,0,1,.42,1.57,2.37,2.37,0,0,1-.47,1.52A1.63,1.63,0,0,1,97.7,9v1.23l.22,0,.24,0a.14.14,0,0,1,.12.15v.35H96.39v-.35a.14.14,0,0,1,.12-.15l.46-.09V6l-.46-.09a.14.14,0,0,1-.12-.15V5.36h1a.18.18,0,0,1,.2.15l.06.49A1.75,1.75,0,0,1,99,5.29ZM98.65,9a1.05,1.05,0,0,0,.9-.41,1.92,1.92,0,0,0,.31-1.17q0-1.52-1-1.52a1.37,1.37,0,0,0-1.11.62v2A1.13,1.13,0,0,0,98.65,9Z"/><path d="M104.19,8.39V6l-.46-.09a.14.14,0,0,1-.13-.15V5.36h1.31V8.88l.46.09a.14.14,0,0,1,.13.15v.35h-1a.18.18,0,0,1-.2-.15l-.06-.44a1.79,1.79,0,0,1-1.36.66,1.29,1.29,0,0,1-1-.43A1.68,1.68,0,0,1,101.49,8V6L101,5.86a.14.14,0,0,1-.12-.15V5.36h1.31V8a1.09,1.09,0,0,0,.22.72.8.8,0,0,0,.65.26A1.46,1.46,0,0,0,104.19,8.39Z"/><path d="M108.67,5.51V6.57h-.32a.13.13,0,0,1-.14-.11s0-.19,0-.53a2.88,2.88,0,0,0-.63-.09h0A.89.89,0,0,0,107,6a.47.47,0,0,0-.22.37.46.46,0,0,0,.09.31,1,1,0,0,0,.47.28l.51.16.39.15a1.42,1.42,0,0,1,.34.2.89.89,0,0,1,.33.72,1.19,1.19,0,0,1-.4.94,1.58,1.58,0,0,1-1.08.38,4,4,0,0,1-1.33-.22V8.24h.29a.11.11,0,0,1,.12.1s0,.2,0,.52a2,2,0,0,0,.84.16.93.93,0,0,0,.63-.2.54.54,0,0,0,.21-.41.53.53,0,0,0-.09-.34.77.77,0,0,0-.24-.19,1.85,1.85,0,0,0-.35-.14q-.54-.17-.76-.26a1.5,1.5,0,0,1-.37-.22.94.94,0,0,1-.33-.76,1.06,1.06,0,0,1,.38-.83,1.68,1.68,0,0,1,1.16-.36A3.54,3.54,0,0,1,108.67,5.51Z"/><path d="M125.57,5.85a2.14,2.14,0,0,1,4.27,0V7.5a2.14,2.14,0,0,1-4.27,0Zm2.14,3a1.3,1.3,0,0,0,1.44-1.41V5.9a1.44,1.44,0,0,0-2.87,0V7.43A1.3,1.3,0,0,0,127.7,8.84Z"/><path d="M131,3.62l0,0,.57-.08,0,0V8.46a.34.34,0,0,0,.37.37h0l0,0-.09.51,0,0h-.06A.83.83,0,0,1,131,8.5Z"/><path d="M133.09,10.68c.32,0,.58-.25.76-.74l.25-.68-.09,0-.06-.06-1.4-3.7,0,0,.63-.08,0,0,.95,2.92.12.43.1-.36.93-2.91,0,0,.65-.08,0,0-1.7,4.83a1.35,1.35,0,0,1-1.27,1.06,1.53,1.53,0,0,1-.93-.32l0-.06.24-.44.06,0A1,1,0,0,0,133.09,10.68Z"/><path d="M136.84,6.23l-.2-.76,0,0,.5-.07,0,0,.23.57a1.09,1.09,0,0,1,1.14-.66,1,1,0,0,1,1,.6,1.27,1.27,0,0,1,1.19-.6A1.23,1.23,0,0,1,142,6.69V9.35l0,0h-.58l0,0V6.82c0-.7-.4-.94-.86-.94a4.62,4.62,0,0,0-.84.18,1.94,1.94,0,0,1,.09.57V9.35l0,0h-.57l0,0V6.82c0-.7-.32-.95-.79-.95a5.36,5.36,0,0,0-.83.19v3.3l0,0h-.57l0,0Z"/><path d="M143.9,9.58V11.1l0,0-.57.08,0,0v-5l-.2-.76,0,0,.5-.07,0,0,.23.57A1.09,1.09,0,0,1,145,5.29a1.24,1.24,0,0,1,1.25,1.4v1.4a1.35,1.35,0,0,1-1.49,1.4,1.5,1.5,0,0,1-.89-.28Zm.84-.67a.85.85,0,0,0,.86-1V6.82a.83.83,0,0,0-.87-.95,5.36,5.36,0,0,0-.83.19V8A.75.75,0,0,0,144.74,8.91Z"/><path d="M147.31,5.47l0,0,.57-.08,0,0V7.92c0,.71.4,1,.86,1a4.1,4.1,0,0,0,.83-.23V5.47l0,0,.57-.08,0,0V8.6l.2.71,0,0-.5.07,0,0-.24-.58a1.06,1.06,0,0,1-1.13.67c-.72,0-1.24-.5-1.24-1.43Z"/><path d="M151.33,9.07l.31-.43h.06a1.63,1.63,0,0,0,.84.28c.42,0,.81-.13.81-.63,0-.83-2-.38-2-1.79,0-.84.74-1.19,1.46-1.19a1.81,1.81,0,0,1,1,.32l0,.06-.32.43h-.06a1.3,1.3,0,0,0-.67-.22c-.48,0-.81.23-.81.61,0,.9,2,.37,2,1.79,0,.94-.68,1.22-1.45,1.22a2.08,2.08,0,0,1-1.23-.37Z"/><path d="M173,6.56c0-1.93,1-2.86,2.53-2.86s2.53.93,2.53,2.86-1,2.85-2.53,2.85S173,8.47,173,6.56Zm.57,0c0,1.59.72,2.35,2,2.35s2-.76,2-2.35-.72-2.36-2-2.36S173.58,5,173.58,6.56Z"/><path d="M179.48,3.75V8.41c0,.33.11.46.32.46a.24.24,0,0,1,0,.49c-.54,0-.84-.33-.84-1V3.75a.27.27,0,0,1,.26-.26A.26.26,0,0,1,179.48,3.75Z"/><path d="M181.68,9.14l-1.36-3.24a.3.3,0,0,1,0-.11.26.26,0,0,1,.26-.26.25.25,0,0,1,.24.17l1.14,2.81,1.14-2.81a.25.25,0,0,1,.24-.17.26.26,0,0,1,.26.26.3.3,0,0,1,0,.11L182,9.73c-.33.8-.75,1.21-1.52,1.21a.24.24,0,0,1,0-.49C181.16,10.45,181.35,10,181.68,9.14Z"/><path d="M189.84,6.92V9.1a.26.26,0,1,1-.52,0V7c0-.64-.23-1.08-1-1.08a.89.89,0,0,0-1,1V9.1a.26.26,0,1,1-.52,0V7c0-.64-.2-1.08-1-1.08s-1,.46-1,1.14v2a.26.26,0,1,1-.52,0V5.79a.26.26,0,1,1,.52,0v.26a1.14,1.14,0,0,1,1.06-.57,1.42,1.42,0,0,1,1.29.57,1.3,1.3,0,0,1,1.19-.57C189.56,5.48,189.84,6.23,189.84,6.92Z"/><path d="M191.33,5.79v.26a1.27,1.27,0,0,1,1.1-.57c1.06,0,1.7.62,1.7,2s-.64,2-1.7,2a1.29,1.29,0,0,1-1.1-.57v1.84a.26.26,0,1,1-.52,0V5.79a.26.26,0,1,1,.52,0Zm1.1,3.14c.75,0,1.17-.47,1.17-1.49S193.17,6,192.42,6s-1.1.42-1.1,1.48S191.81,8.93,192.44,8.93Z"/><path d="M195.35,5.79V7.92c0,.53.17,1,1,1s1-.46,1-1V5.79a.26.26,0,0,1,.27-.26.26.26,0,0,1,.25.26V7.92c0,.77-.25,1.48-1.51,1.48s-1.51-.71-1.51-1.48V5.79a.26.26,0,0,1,.26-.26A.26.26,0,0,1,195.35,5.79Z"/><path d="M199.25,6.48c0,.86,2.14.54,2.14,1.84,0,.74-.61,1.08-1.38,1.08a1.82,1.82,0,0,1-1.39-.59.24.24,0,0,1-.06-.15.24.24,0,0,1,.24-.24.25.25,0,0,1,.18.08,1.37,1.37,0,0,0,1,.4c.46,0,.86-.15.86-.58,0-.84-2.14-.51-2.14-1.84,0-.68.55-1,1.24-1a1.48,1.48,0,0,1,1.23.52.25.25,0,0,1,.06.15.24.24,0,0,1-.24.24.23.23,0,0,1-.17-.07A1.15,1.15,0,0,0,200,6C199.61,6,199.25,6.1,199.25,6.48Z"/><path d="M39.42,22.46a3,3,0,1,1-3-3A3,3,0,0,1,39.42,22.46Zm-.74,0a2.29,2.29,0,1,0-2.29,2.3A2.31,2.31,0,0,0,38.69,22.46Z"/><path d="M40.15,25.39v-6h.7v6Z"/><path d="M42.94,27.51h-.75l.87-2.13-1.51-3.72h.76l1.13,2.79,1.13-2.79h.75Z"/><path d="M52.34,23.39v2h-.7v-2a1.1,1.1,0,1,0-2.2,0v2h-.7v-2a1.1,1.1,0,1,0-2.19,0v2h-.7V21.67h.7V22a1.85,1.85,0,0,1,1.1-.43,1.82,1.82,0,0,1,1.27.55,1.33,1.33,0,0,1,.17.2l.18-.2a1.82,1.82,0,0,1,1.27-.55,1.79,1.79,0,0,1,1.79,1.79Z"/><path d="M57,23.53A1.94,1.94,0,0,1,55,25.47,2,2,0,0,1,53.79,25v2.56h-.7V21.67h.7v.43A2,2,0,0,1,55,21.59,1.94,1.94,0,0,1,57,23.53Zm-.7,0A1.25,1.25,0,1,0,55,24.79,1.26,1.26,0,0,0,56.29,23.53Z"/><path d="M57.74,23.8V21.67h.7V23.8a1,1,0,0,0,2,0V21.67h.7V23.8A1.66,1.66,0,0,1,60.67,25a1.78,1.78,0,0,1-2.43,0A1.65,1.65,0,0,1,57.74,23.8Z"/><path d="M64.74,24.29a1,1,0,0,1-.18.58,1.18,1.18,0,0,1-.5.41,1.63,1.63,0,0,1-.67.14,2,2,0,0,1-.38,0,2.45,2.45,0,0,1-1.11-.54l.44-.48a1.59,1.59,0,0,0,1,.44,1.07,1.07,0,0,0,.43-.09.46.46,0,0,0,.29-.42c0-.25-.22-.41-.72-.5a4.35,4.35,0,0,1-.87-.25,1,1,0,0,1-.52-.87,1,1,0,0,1,.18-.57,1.12,1.12,0,0,1,.46-.36,1.51,1.51,0,0,1,.64-.14l.28,0a2.14,2.14,0,0,1,1,.45l-.41.47a1.37,1.37,0,0,0-.84-.32.89.89,0,0,0-.4.08.44.44,0,0,0-.27.37c0,.24.19.37.69.48a5.1,5.1,0,0,1,.86.25,1,1,0,0,1,.39.32A1,1,0,0,1,64.74,24.29Z"/><path d="M83.44,22.43a2.87,2.87,0,1,1-2.87-2.87A2.87,2.87,0,0,1,83.44,22.43Zm-.58,0a2.29,2.29,0,1,0-2.3,2.34A2.31,2.31,0,0,0,82.85,22.43Z"/><path d="M85.14,25.19h-.55V19.43h.55Z"/><path d="M87.58,27.21H87l.83-1.82L85.9,21.44h.6l1.61,3.3,1.5-3.3h.59Z"/><path d="M97.26,23v2.16h-.55V23.06c0-.78-.41-1.23-1.08-1.23a1.36,1.36,0,0,0-1.2.72,2.22,2.22,0,0,1,0,.48v2.16h-.55V23.06c0-.78-.41-1.23-1.08-1.23a1.38,1.38,0,0,0-1.16.68v2.68h-.55V21.44h.55v.43a1.56,1.56,0,0,1,1.26-.55,1.45,1.45,0,0,1,1.28.7,1.82,1.82,0,0,1,1.5-.7A1.54,1.54,0,0,1,97.26,23Z"/><path d="M102.32,23.32a2,2,0,0,1-1.94,2A1.89,1.89,0,0,1,99,24.77v2.44h-.55V21.44H99v.43a1.89,1.89,0,0,1,1.36-.53A2,2,0,0,1,102.32,23.32Zm-.55,0a1.47,1.47,0,0,0-1.45-1.49,1.5,1.5,0,0,0-1.29.7v1.58a1.5,1.5,0,0,0,1.29.7A1.47,1.47,0,0,0,101.77,23.32Z"/><path d="M106.85,25.19h-.55v-.44a1.92,1.92,0,0,1-1.38.56,1.56,1.56,0,0,1-1.6-1.7V21.44h.55v2.14A1.1,1.1,0,0,0,105,24.81a1.62,1.62,0,0,0,1.28-.7V21.44h.55Z"/><path d="M108.49,24c.11.51.51.82,1.24.82s1-.26,1-.67-.27-.54-.65-.59l-.85-.15c-.62-.1-1.11-.37-1.11-1s.6-1.11,1.5-1.11,1.56.33,1.62,1.19h-.51c-.07-.49-.48-.75-1.11-.75s-1,.26-1,.62.2.5.74.58l.75.13c.54.09,1.12.32,1.12,1s-.66,1.16-1.57,1.16S108.09,24.88,108,24Z"/><path d="M125.36,25.66a3.54,3.54,0,0,1-1.17-.19,2.48,2.48,0,0,1-.92-.56,2.54,2.54,0,0,1-.6-.94,3.72,3.72,0,0,1-.22-1.33,3.35,3.35,0,0,1,.21-1.2,2.76,2.76,0,0,1,.58-.94,2.6,2.6,0,0,1,.9-.61,3,3,0,0,1,1.16-.22,3.54,3.54,0,0,1,1.3.22,2.4,2.4,0,0,1,.91.61,2.48,2.48,0,0,1,.54,1,4.17,4.17,0,0,1,.17,1.24,3.83,3.83,0,0,1-.19,1.24,2.48,2.48,0,0,1-.55.93,2.41,2.41,0,0,1-.9.58A3.41,3.41,0,0,1,125.36,25.66Zm0-1.27a.53.53,0,0,0,.35-.12,1,1,0,0,0,.26-.34,2,2,0,0,0,.17-.53,3.83,3.83,0,0,0,.06-.69,4.3,4.3,0,0,0-.05-.69,2.21,2.21,0,0,0-.16-.56,1,1,0,0,0-.28-.38.61.61,0,0,0-.4-.14.53.53,0,0,0-.34.13,1,1,0,0,0-.26.35,2.23,2.23,0,0,0-.17.54,3.67,3.67,0,0,0-.06.69,3.42,3.42,0,0,0,.07.72,2.19,2.19,0,0,0,.19.55,1,1,0,0,0,.28.35A.6.6,0,0,0,125.36,24.39Z"/><path d="M130.92,25.52h-2.37V24.45h.35v-4h-.34v-1h1.88v5h.48Z"/><path d="M134.14,22.49h-.37v-1h2.06v1h-.39l-1.54,3.75q-.09.19-.21.39a1.46,1.46,0,0,1-.8.65,2.21,2.21,0,0,1-.73.11,1.46,1.46,0,0,1-.56-.13,1.86,1.86,0,0,1-.43-.28l.61-1,.22.17a.64.64,0,0,0,.25.11.36.36,0,0,0,.18,0,.39.39,0,0,0,.15-.09.7.7,0,0,0,.11-.15,1.13,1.13,0,0,0,.08-.17l.11-.34-1.58-3H131v-1h2.5v1h-.38l.53,1.27Z"/><path d="M138.36,25.52H136V24.45h.34V22.54H136V21.47h1.53l.18.48.14-.16a1.64,1.64,0,0,1,.22-.2,1.39,1.39,0,0,1,.29-.17.9.9,0,0,1,.36-.07,1.75,1.75,0,0,1,.52.07,1.42,1.42,0,0,1,.35.15.91.91,0,0,1,.22.19l.13.17a2.25,2.25,0,0,1,.48-.4,1.3,1.3,0,0,1,.71-.19,1.62,1.62,0,0,1,.79.17,1.22,1.22,0,0,1,.46.44,1.7,1.7,0,0,1,.21.62,4.82,4.82,0,0,1,.05.72v1.12h.4v1.1h-2.06v-2q0-.15,0-.32a2.15,2.15,0,0,0,0-.33.62.62,0,0,0-.09-.26.23.23,0,0,0-.21-.1.35.35,0,0,0-.35.17.93.93,0,0,0-.09.43v1.32h.49v1.09h-2.1V23.45a3.63,3.63,0,0,0,0-.71.26.26,0,0,0-.29-.22.32.32,0,0,0-.28.12.64.64,0,0,0-.09.37v1.45h.49Z"/><path d="M143.32,26.11h.34V22.54h-.34V21.46h1.86l.14.28.15-.1.22-.11.28-.09a1.34,1.34,0,0,1,.34,0,1.93,1.93,0,0,1,.83.17,1.71,1.71,0,0,1,.6.46,2,2,0,0,1,.36.68,2.69,2.69,0,0,1,.12.82,2.51,2.51,0,0,1-.14.87,1.93,1.93,0,0,1-.39.65,1.71,1.71,0,0,1-.59.41,1.84,1.84,0,0,1-.73.15,2.14,2.14,0,0,1-.44,0,1.57,1.57,0,0,1-.32-.1l-.2-.11-.1-.07v.82h.44v1.06h-2.43Zm3.15-2.57a1.67,1.67,0,0,0,0-.36,1.19,1.19,0,0,0-.12-.32.78.78,0,0,0-.19-.23.37.37,0,0,0-.24-.09.41.41,0,0,0-.23.07.64.64,0,0,0-.19.21,1.11,1.11,0,0,0-.13.32,1.47,1.47,0,0,0,0,.43,1.44,1.44,0,0,0,0,.39,1.24,1.24,0,0,0,.13.31.67.67,0,0,0,.19.21.38.38,0,0,0,.22.07.47.47,0,0,0,.42-.28A1.48,1.48,0,0,0,146.48,23.54Z"/><path d="M148.42,21.46h2v2a2.36,2.36,0,0,0,.09.78.34.34,0,0,0,.35.25.46.46,0,0,0,.36-.17.65.65,0,0,0,.15-.45V22.53h-.54V21.46h2.1v3h.4v1.08h-1.53l-.22-.51-.16.18a1.29,1.29,0,0,1-.55.37,1.29,1.29,0,0,1-.45.07,2.15,2.15,0,0,1-.78-.12,1.16,1.16,0,0,1-.5-.37,1.5,1.5,0,0,1-.27-.62,4.15,4.15,0,0,1-.08-.88V22.53h-.34Z"/><path d="M153.55,25.52V24.06h1.09a.37.37,0,0,0,.1.27.74.74,0,0,0,.24.17,1.18,1.18,0,0,0,.28.09l.24,0a.58.58,0,0,0,.24-.05.22.22,0,0,0,.12-.22.18.18,0,0,0-.11-.15,1.26,1.26,0,0,0-.27-.11l-.38-.1-.43-.13a2.54,2.54,0,0,1-.4-.18,1.54,1.54,0,0,1-.35-.26,1.13,1.13,0,0,1-.24-.37,1.26,1.26,0,0,1-.09-.5,1,1,0,0,1,.14-.53,1.21,1.21,0,0,1,.36-.37,1.63,1.63,0,0,1,.46-.21,1.75,1.75,0,0,1,.47-.07,1.5,1.5,0,0,1,.75.19,1.09,1.09,0,0,1,.46.45l.06-.54h1v1.46h-1.06a.42.42,0,0,0-.07-.24.77.77,0,0,0-.19-.19,1,1,0,0,0-.26-.13.94.94,0,0,0-.3,0,.37.37,0,0,0-.22.07.26.26,0,0,0-.09.22.18.18,0,0,0,.08.15,1,1,0,0,0,.22.12l.32.11.37.12.46.17a1.78,1.78,0,0,1,.42.24,1.12,1.12,0,0,1,.3.36,1.1,1.1,0,0,1,.12.53,1,1,0,0,1-.13.51,1.23,1.23,0,0,1-.33.39,1.47,1.47,0,0,1-.48.24,2,2,0,0,1-.57.08,1.59,1.59,0,0,1-.77-.18,1.23,1.23,0,0,1-.47-.41l-.07.5Z"/><path d="M171.85,19.84c.84,0,2.39.3,2.39,2.73,0,2-1.13,3-2.57,3s-2.35-.95-2.35-2.81C169.32,20.5,170.81,19.84,171.85,19.84Zm1.38,2.89c0-1.22-.37-2.17-1.48-2.17s-1.45.92-1.45,2,.17,2.33,1.48,2.33C172.84,24.84,173.23,24,173.23,22.72Z"/><path d="M176.26,24.87h.51a.11.11,0,0,1,.12.12v.4c0,.09,0,.12-.12.12h-1.93a.11.11,0,0,1-.12-.12V25c0-.09,0-.12.12-.12h.51V20.1h-.44a.11.11,0,0,1-.12-.12v-.42c0-.09,0-.12.12-.12h1.23c.08,0,.12,0,.12.12Z"/><path d="M179.27,24.56l.84-2.41h-.41a.11.11,0,0,1-.12-.12V21.6c0-.09,0-.12.12-.12h1.19a.17.17,0,0,1,.15.24l-1.74,4.56c-.26.67-.5,1.19-1.39,1.19a2.41,2.41,0,0,1-.9-.18c-.08,0-.08-.07-.06-.15l.14-.4c0-.08.07-.1.15-.07a1.87,1.87,0,0,0,.64.13c.32,0,.45-.11.66-.65l.2-.54-1.23-3.46h-.41A.11.11,0,0,1,177,22V21.6c0-.09,0-.12.12-.12h1.06a.14.14,0,0,1,.15.11Z"/><path d="M181.4,21.6c0-.08,0-.12.12-.12h1.11c.08,0,.11,0,.12.12l.06.47a1.41,1.41,0,0,1,1.23-.68,1.11,1.11,0,0,1,1.15.72,1.45,1.45,0,0,1,1.27-.72c.82,0,1.26.46,1.26,1.39v2.1h.46a.11.11,0,0,1,.12.12v.4c0,.09,0,.12-.12.12H186.4a.11.11,0,0,1-.12-.12V25c0-.09,0-.12.12-.12h.41V23.18c0-.58-.06-1-.7-1a.77.77,0,0,0-.82.71v2h.39a.11.11,0,0,1,.12.12v.4c0,.09,0,.12-.12.12H184a.11.11,0,0,1-.12-.12V25c0-.09,0-.12.12-.12h.37V23.18c0-.58-.06-1-.7-1a.81.81,0,0,0-.83.8v1.88h.5c.09,0,.12,0,.12.12v.4c0,.09,0,.12-.12.12h-1.83a.11.11,0,0,1-.12-.12V25c0-.09,0-.12.12-.12H182V22.14h-.44c-.08,0-.12,0-.12-.12Z"/><path d="M189.17,22.14h-.44a.11.11,0,0,1-.12-.12V21.6c0-.09,0-.12.12-.12h1.1c.08,0,.11,0,.12.12l.08.49a1.44,1.44,0,0,1,1.27-.7c1,0,1.59.64,1.59,1.95,0,1.66-.82,2.27-1.77,2.27a1.62,1.62,0,0,1-1.06-.34v1.47h.86c.09,0,.12,0,.12.12v.41c0,.09,0,.12-.12.12h-2.2a.11.11,0,0,1-.12-.12v-.4c0-.09,0-.12.12-.12h.43Zm.91,2.45a1.4,1.4,0,0,0,.93.34c.58,0,1-.33,1-1.41,0-.73-.11-1.39-.95-1.39a.9.9,0,0,0-1,.9Z"/><path d="M197.68,24.87a.11.11,0,0,1,.12.12v.4c0,.09,0,.12-.12.12h-.91c-.08,0-.11,0-.12-.12l-.07-.46a1.64,1.64,0,0,1-1.36.68c-.88,0-1.31-.46-1.31-1.39V22.14h-.43a.11.11,0,0,1-.12-.12V21.6c0-.09,0-.12.12-.12h1.22a.11.11,0,0,1,.12.12V24c0,.58.06.91.7.91a.88.88,0,0,0,.91-.8V22.14h-.51a.11.11,0,0,1-.12-.12V21.6c0-.09,0-.12.12-.12h1.3a.11.11,0,0,1,.12.12v3.27Z"/><path d="M201.06,21.53c.09,0,.11.06.11.15v.86a.11.11,0,0,1-.12.12h-.47c-.08,0-.12,0-.11-.12l0-.42A1.18,1.18,0,0,0,200,22c-.36,0-.65.11-.65.46,0,.86,2.05.36,2.05,1.84,0,.82-.59,1.31-1.64,1.31a4.68,4.68,0,0,1-1.14-.16c-.09,0-.11-.07-.11-.16v-.86a.11.11,0,0,1,.12-.12h.47c.08,0,.12,0,.11.12l0,.42a1.1,1.1,0,0,0,.63.16c.38,0,.72-.1.72-.51,0-1-2-.35-2-1.86,0-.68.55-1.26,1.55-1.26A3.51,3.51,0,0,1,201.06,21.53Z"/><path d="M33.38,38.61a2.92,2.92,0,1,1,2.92,2.92A2.92,2.92,0,0,1,33.38,38.61Zm5,0a2,2,0,1,0-2,2.11A2,2,0,0,0,38.33,38.61Z"/><path d="M40.1,41.45V35.36H41v6.09Z"/><path d="M43.12,41.19l-1.49-3.57h.9l.74,1.79c.19.45.3.79.3.79l.33-.79.78-1.79h.91l-2.72,6.14H42Z"/><path d="M46.25,41.45V37.62h.84v.23a1.83,1.83,0,0,1,0,.29,1.29,1.29,0,0,1,1.1-.61,1.13,1.13,0,0,1,1.1.67,1.38,1.38,0,0,1,1.22-.67c.75,0,1.27.49,1.27,1.44v2.48h-.84V39a.7.7,0,0,0-.71-.77.84.84,0,0,0-.8.95v2.26h-.84V39a.67.67,0,0,0-.69-.74.83.83,0,0,0-.8.89v2.31Z"/><path d="M53.64,40.91c0,.14,0,.31,0,.52v2.05h-.81V37.62h.84V38s0,.09,0,.14a1.5,1.5,0,0,1,1.18-.55,1.79,1.79,0,0,1,1.7,2,1.8,1.8,0,0,1-1.7,2A1.53,1.53,0,0,1,53.64,40.91Zm2.08-1.38a1.11,1.11,0,0,0-1-1.24c-.62,0-1,.5-1,1.25s.38,1.26,1,1.26A1.13,1.13,0,0,0,55.71,39.53Z"/><path d="M60.94,41.45h-.84V41.2c0-.09,0-.2,0-.32a1.49,1.49,0,0,1-1.23.66c-.88,0-1.49-.6-1.49-1.7V37.62h.84V39.8c0,.69.39,1,.88,1a1,1,0,0,0,1-1V37.62h.84Z"/><path d="M62.31,40.31a1.23,1.23,0,0,0,1,.51c.32,0,.55-.2.55-.41,0-.68-1.86-.55-1.86-1.79a1.14,1.14,0,0,1,1.22-1.09,1.41,1.41,0,0,1,1.19.56l-.54.45a.8.8,0,0,0-.63-.32.38.38,0,0,0-.42.37c0,.59,1.88.56,1.88,1.77a1.23,1.23,0,0,1-1.39,1.17,1.84,1.84,0,0,1-1.56-.74Z"/><path d="M83.12,38.71c0,2.3-1.2,3-2.5,3s-2.48-.8-2.48-3.06c0-2.05,1.19-3,2.48-3S83.12,36.65,83.12,38.71Zm-.71,0c0-1.21-.47-2.34-1.77-2.34s-1.79,1.1-1.79,2.32.47,2.39,1.77,2.39S82.4,40,82.4,38.71Z"/><path d="M85.15,41.7c-.63,0-1-.45-1-1.16V35.36h.67v5.13c0,.35.17.61.45.61h.24v.59Z"/><path d="M87.92,42.69a1.15,1.15,0,0,1-1.22.8h-.29v-.59h.2a.72.72,0,0,0,.81-.52l.39-1-1.66-4.21h.71l1.26,3.43,1.39-3.43h.63Z"/><path d="M91.65,38.33V41.7H91V37.18h.58l.08.52a2.13,2.13,0,0,1,1.43-.61,1.38,1.38,0,0,1,1.32.69,2.15,2.15,0,0,1,1.5-.69c1.23,0,1.61.9,1.61,2.14V41.7h-.67V39.22c0-.91-.34-1.53-.95-1.53a1.88,1.88,0,0,0-1.31.53,3.82,3.82,0,0,1,.11,1V41.7H94V39.22c0-.91-.34-1.53-.95-1.53A1.89,1.89,0,0,0,91.65,38.33Z"/><path d="M102.35,39.41c0,1.56-.88,2.34-2,2.34a2,2,0,0,1-1.14-.33v2.06h-.67v-6.3h.55l.11.36a1.62,1.62,0,0,1,1.17-.44A2.07,2.07,0,0,1,102.35,39.41Zm-3.13-1.23v2.58a1.54,1.54,0,0,0,1.14.39c.9,0,1.31-.78,1.31-1.72s-.45-1.75-1.36-1.75A1.24,1.24,0,0,0,99.23,38.18Z"/><path d="M106.19,41.15a2.11,2.11,0,0,1-1.42.6c-1.23,0-1.61-.9-1.61-2.14V37.18h.67v2.44c0,.91.34,1.53.95,1.53a1.89,1.89,0,0,0,1.4-.63V37.18h.67V41.7h-.58Z"/><path d="M107.64,40.65a3,3,0,0,0,1.66.51c.72,0,1.24-.28,1.24-.79s-.41-.71-1.17-.71c-1.13,0-1.7-.4-1.7-1.23s.64-1.36,1.68-1.36a3.78,3.78,0,0,1,1.51.31v.67a3.09,3.09,0,0,0-1.52-.41c-.63,0-1,.31-1,.75s.21.68,1.19.68,1.69.46,1.69,1.28-.75,1.39-1.88,1.39a3.87,3.87,0,0,1-1.66-.38Z"/><path d="M129.23,38.66c0,1.85-1,2.89-2.36,2.89s-2.36-1-2.36-2.88,1-2.91,2.36-2.91S129.23,36.78,129.23,38.66Zm-3.9,0c0,1.62.63,2.25,1.54,2.25s1.54-.63,1.54-2.26-.58-2.26-1.54-2.26S125.32,37.05,125.32,38.67Z"/><path d="M131.15,40.59c0,.23.07.34.27.34a.73.73,0,0,0,.28,0l.2.52a1.45,1.45,0,0,1-.63.15c-.54,0-.85-.32-.85-.94V35.45l.75-.09Z"/><path d="M134.54,41.48a2.17,2.17,0,0,1-2,1.7l-.08-.58a1.46,1.46,0,0,0,1.36-1.14h-.25l-1.44-4.28h.8l1.14,3.73,1.12-3.73H136Z"/><path d="M142.28,38.38v3.07h-.75v-3c0-.64-.28-.83-.6-.83s-.71.3-1,.75v3h-.75v-3c0-.64-.28-.83-.6-.83s-.72.3-1,.75v3h-.75V37.17h.64l.06.62a1.43,1.43,0,0,1,1.23-.72,1.08,1.08,0,0,1,1.08.77,1.48,1.48,0,0,1,1.27-.77A1.16,1.16,0,0,1,142.28,38.38Z"/><path d="M147.33,39.31c0,1.3-.58,2.24-1.68,2.24a1.38,1.38,0,0,1-1.12-.49v2l-.75.09v-6h.64l.06.58a1.56,1.56,0,0,1,1.27-.67C146.88,37.08,147.33,38,147.33,39.31Zm-.8,0c0-1.11-.32-1.64-1-1.64a1.3,1.3,0,0,0-1,.67v2.09a1.1,1.1,0,0,0,.94.52C146.15,40.94,146.53,40.43,146.53,39.31Z"/><path d="M151.15,41.45l-.06-.67a1.44,1.44,0,0,1-1.33.76,1.14,1.14,0,0,1-1.19-1.31V37.17h.75v3c0,.58.19.8.66.8a1.29,1.29,0,0,0,1.07-.74V37.17h.75v4.28Z"/><path d="M155.94,37.56l-.32.5a1.8,1.8,0,0,0-1.1-.39c-.49,0-.79.22-.79.56s.23.51.92.69c.9.23,1.42.58,1.42,1.33s-.82,1.3-1.69,1.3a2.37,2.37,0,0,1-1.62-.56l.41-.47a1.79,1.79,0,0,0,1.19.43c.56,0,.92-.25.92-.63s-.21-.61-1-.83-1.29-.64-1.29-1.25.66-1.17,1.54-1.17A2.27,2.27,0,0,1,155.94,37.56Z"/><path d="M174.49,39.68c0,1.38-.31,2.12-2,2.12s-2-.74-2-2.12V37.48c0-1.38.31-2.12,2-2.12s2,.74,2,2.12Zm-.78-2.2c0-1-.08-1.4-1.25-1.4s-1.25.41-1.25,1.4v2.21c0,1,.08,1.39,1.25,1.39s1.25-.39,1.25-1.39Z"/><path d="M175.52,35.45h.75v5c0,.38.15.48.49.48v.77c-.93,0-1.24-.24-1.24-1.24Z"/><path d="M179,40.71a20.61,20.61,0,0,1,.59-2.26l.46-1.48h.8l-1.49,4.78-.28.91c-.3,1-.83,1.2-1.73.83l.14-.66c.33.14.71.21.91-.4l.19-.68L177.12,37H178l.45,1.53Z"/><path d="M181.59,37h.65l.06.52a1.65,1.65,0,0,1,2.52,0,1.74,1.74,0,0,1,1.45-.59c1,0,1.61.4,1.61,1.74v3.08h-.78v-3.1c0-.7-.37-1-.93-1s-1,.37-1,1.21v2.87h-.78V38.63c0-.86-.37-1-.94-1a.91.91,0,0,0-1,1v3.11h-.78Z"/><path d="M189,37h.65l.1.63a1.18,1.18,0,0,1,1.18-.65c.95,0,1.61.43,1.61,1.72v1.26c0,1.29-.61,1.85-1.61,1.85a1.28,1.28,0,0,1-1.14-.42v2H189ZM190.77,41c.69,0,1-.28,1-1.12V38.66c0-.78-.32-1-.95-1s-1,.31-1,1.25v1C189.79,40.76,190.08,41,190.77,41Z"/><path d="M197.11,41.74h-.69l0-.51a1.3,1.3,0,0,1-1.22.56c-1,0-1.57-.45-1.57-1.72V37h.78v3.07c0,.68.37,1,.93,1a1,1,0,0,0,1-1V37h.78Z"/><path d="M200.52,38.32c0-.45-.27-.7-.87-.7s-.85.24-.85.76.43.55,1,.6,1.58.17,1.58,1.33c0,1-.7,1.48-1.68,1.48S198,41.28,198,40.26h.78a.82.82,0,0,0,.94.81c.58,0,.91-.3.91-.76s-.55-.61-1.14-.65S198,39.45,198,38.37c0-.84.54-1.46,1.65-1.46s1.61.52,1.58,1.4Z"/><path d="M35.75,51.57a3,3,0,0,1,1.23.14,2.21,2.21,0,0,1,.88.56,2.54,2.54,0,0,1,.55.93,4,4,0,0,1,.21,1.22,5.41,5.41,0,0,1-.1,1.31,3,3,0,0,1-.41,1,2.16,2.16,0,0,1-.75.69,2.61,2.61,0,0,1-1.1.31A3,3,0,0,1,35,57.62a2.2,2.2,0,0,1-.87-.56,2.48,2.48,0,0,1-.54-.92,4.56,4.56,0,0,1-.23-1.21,4.3,4.3,0,0,1,.25-1.86,2.25,2.25,0,0,1,1-1.17,2.46,2.46,0,0,1,.51-.22A2.79,2.79,0,0,1,35.75,51.57ZM34.52,53.1a1.54,1.54,0,0,0-.15.36,4,4,0,0,0-.09.43,4.2,4.2,0,0,0,0,.46q0,.24,0,.48a3.83,3.83,0,0,0,.11.9,1.75,1.75,0,0,0,.34.69,1.42,1.42,0,0,0,.61.42,2.27,2.27,0,0,0,.91.12,1.68,1.68,0,0,0,.79-.22,1.45,1.45,0,0,0,.51-.52,2.16,2.16,0,0,0,.26-.76,5.59,5.59,0,0,0,.06-1,3.91,3.91,0,0,0-.11-.9,1.87,1.87,0,0,0-.34-.71,1.41,1.41,0,0,0-.6-.44,2.12,2.12,0,0,0-.91-.11,1.92,1.92,0,0,0-.81.23A1.37,1.37,0,0,0,34.52,53.1Z"/><path d="M40.23,57.29h.46v.36l-.21.06a1.6,1.6,0,0,1-.55,0,.5.5,0,0,1-.29-.1.45.45,0,0,1-.13-.17.69.69,0,0,1,0-.25V51.63a.88.88,0,0,1,0-.17.14.14,0,0,1,0-.09.2.2,0,0,1,.11,0H40l.12,0a.12.12,0,0,1,.05.09.94.94,0,0,1,0,.17Z"/><path d="M44.87,57v1.34a1.53,1.53,0,0,1-.22.87,1.51,1.51,0,0,1-.56.5l-.3.12-.34.09-.32,0h-.61l-.35-.05-.35-.08a.66.66,0,0,1-.18-.07.11.11,0,0,1-.06-.09.52.52,0,0,1,0-.15l.07-.21a.33.33,0,0,1,.08-.12.16.16,0,0,1,.11,0l.18,0,.36.08a2.71,2.71,0,0,0,.51,0,2.38,2.38,0,0,0,.48,0,1.11,1.11,0,0,0,.52-.25.68.68,0,0,0,.18-.54v-1a.73.73,0,0,1-.41.25l-.26,0-.32,0a2,2,0,0,1-1.19-.26,1.06,1.06,0,0,1-.37-.91V54.06H41.1v-.4a1.14,1.14,0,0,1,.2-.14l.23-.09a1,1,0,0,1,.32,0,.43.43,0,0,1,.34.12.46.46,0,0,1,.13.24.52.52,0,0,0,0,.06.71.71,0,0,1,0,.08v2.51a.6.6,0,0,0,.2.52,1.06,1.06,0,0,0,.57.16h.28l.24,0,.24,0,.26-.06V53.74a.45.45,0,0,1,0-.24s.09-.05.18-.05h.32q.15,0,.18.05a.49.49,0,0,1,0,.24Z"/><path d="M49.51,57.4a.45.45,0,0,1,0,.24s-.09.05-.18.05H49q-.15,0-.18-.05a.49.49,0,0,1,0-.24V54.77a.64.64,0,0,0-.2-.54,1,1,0,0,0-.57-.17,2.84,2.84,0,0,0-.6,0l-.57.11v3.2a.45.45,0,0,1,0,.24s-.09.05-.18.05h-.32q-.15,0-.18-.05a.49.49,0,0,1,0-.24V54.06h-.47v-.4a1.13,1.13,0,0,1,.2-.14l.23-.09a1,1,0,0,1,.32,0,.43.43,0,0,1,.34.12.46.46,0,0,1,.13.24l0,0a1.5,1.5,0,0,1,.22-.19.55.55,0,0,1,.24-.09l.3,0,.37,0a2.66,2.66,0,0,1,.79.09,1.12,1.12,0,0,1,.5.29.86.86,0,0,1,.5-.31,5.37,5.37,0,0,1,.9-.06,2,2,0,0,1,1.19.26,1,1,0,0,1,.37.91v2.73h.46v.36l-.22.06a1.6,1.6,0,0,1-.55,0,.5.5,0,0,1-.29-.1.45.45,0,0,1-.13-.17.69.69,0,0,1,0-.25V54.77a.64.64,0,0,0-.2-.54,1,1,0,0,0-.57-.17,3.9,3.9,0,0,0-.61,0q-.33,0-.61.09l0,.18a1.24,1.24,0,0,1,0,.21Z"/><path d="M53.65,59.87h-.22l-.12,0a.12.12,0,0,1-.05-.09.94.94,0,0,1,0-.17V54.09h-.47v-.4a1.13,1.13,0,0,1,.19-.14l.23-.09a1,1,0,0,1,.32,0,.43.43,0,0,1,.34.12.46.46,0,0,1,.13.24h0a2.59,2.59,0,0,1,.44-.24,2,2,0,0,1,.76-.14h.2l.27.05.22.08a1.51,1.51,0,0,1,.73.75,2.87,2.87,0,0,1,.25,1.24,2.71,2.71,0,0,1-.14.88,2.37,2.37,0,0,1-.36.69,1.31,1.31,0,0,1-.45.41,1.94,1.94,0,0,1-.42.16,2.47,2.47,0,0,1-.62.07,3.73,3.73,0,0,1-.48,0,.6.6,0,0,1-.39-.26v2.13a.87.87,0,0,1,0,.17.14.14,0,0,1,0,.09.2.2,0,0,1-.11,0Zm.8-5.72a1.86,1.86,0,0,0-.44.26V57l.39.08a3.51,3.51,0,0,0,.5,0,1.23,1.23,0,0,0,.34,0l.22-.08a1.09,1.09,0,0,0,.35-.33,1.57,1.57,0,0,0,.22-.51,3.49,3.49,0,0,0,.06-.83,1.87,1.87,0,0,0-.24-.92.8.8,0,0,0-.59-.37h-.32A1.54,1.54,0,0,0,54.45,54.15Z"/><path d="M61.5,57.28v.36l-.21.06a1.6,1.6,0,0,1-.55,0,.49.49,0,0,1-.3-.11.45.45,0,0,1-.13-.19.94.94,0,0,1-.21.19.88.88,0,0,1-.22.1l-.26,0H59.3a2,2,0,0,1-1.19-.26,1.06,1.06,0,0,1-.37-.91V54.06h-.47v-.4a1.13,1.13,0,0,1,.19-.14l.23-.09a1,1,0,0,1,.32,0,.43.43,0,0,1,.34.12.46.46,0,0,1,.13.24.52.52,0,0,0,0,.06.71.71,0,0,1,0,.08v2.51a.6.6,0,0,0,.2.52,1.06,1.06,0,0,0,.57.16h.28l.24,0L60,57l.26-.06V53.74a.45.45,0,0,1,0-.24s.09-.05.18-.05h.32q.15,0,.18.05a.5.5,0,0,1,0,.24v3.54Z"/><path d="M63.65,54a.94.94,0,0,0-.72.15.54.54,0,0,0-.17.5.43.43,0,0,0,.37.37l.95.19a2.37,2.37,0,0,1,.73.25.89.89,0,0,1,.33.33,1.24,1.24,0,0,1,.11.59,2.42,2.42,0,0,1-.06.61.94.94,0,0,1-.25.41,1.12,1.12,0,0,1-.48.27,2.77,2.77,0,0,1-.85.07,3.79,3.79,0,0,1-.54,0,5.09,5.09,0,0,1-.67-.15.74.74,0,0,1-.29-.13s0-.12,0-.24l.09-.2a.21.21,0,0,1,.08-.1.19.19,0,0,1,.11,0l.18,0a5.47,5.47,0,0,0,1.15.18,1,1,0,0,0,.62-.12.57.57,0,0,0,.19-.41.85.85,0,0,0,0-.24.7.7,0,0,0,0-.15l-.07-.11a.35.35,0,0,0-.11-.09L64.11,56l-.3-.06-.32-.07-.26,0q-1-.16-1.09-.88a1.33,1.33,0,0,1,.27-1.12,1.31,1.31,0,0,1,1.06-.39l.69,0a5.45,5.45,0,0,1,.69.12l.11,0a.15.15,0,0,1,.12.14A.82.82,0,0,1,65,54l0,.14a.28.28,0,0,1,0,.09.09.09,0,0,1-.07,0l-.13,0-.54-.11A5.5,5.5,0,0,0,63.65,54Z"/><path d="M80.2,51.34a2.94,2.94,0,0,1,1.17.24,3,3,0,0,1,1.6,1.6,3,3,0,0,1,0,2.35,3,3,0,0,1-1.6,1.6,3,3,0,0,1-2.35,0,3,3,0,0,1-1-.65,3.09,3.09,0,0,1-.65-1,3,3,0,0,1,0-2.35,3.09,3.09,0,0,1,.65-1,3,3,0,0,1,1-.65A2.94,2.94,0,0,1,80.2,51.34Zm0,5a2,2,0,0,0,.78-.16,2.07,2.07,0,0,0,.65-.43,2,2,0,0,0,.59-1.43,2,2,0,0,0-.16-.79A2,2,0,0,0,81,52.49a2,2,0,0,0-1.58,0,2,2,0,0,0-1.08,1.08,2,2,0,0,0-.16.79,2,2,0,0,0,.59,1.43,2.07,2.07,0,0,0,.65.43A2,2,0,0,0,80.2,56.38Z"/><path d="M84,57.38v-6h.89v6Z"/><path d="M87.06,53l1.14,2.79L89.32,53h1l-2.45,6.1h-1l.83-2L86,53Z"/><path d="M91.47,57.38V53h.89v.6a1.23,1.23,0,0,1,.28-.3,1.71,1.71,0,0,1,.39-.21,1.68,1.68,0,0,1,.6-.09,1.41,1.41,0,0,1,.59.11,1.47,1.47,0,0,1,.39.24,1,1,0,0,1,.21.26.57.57,0,0,1,.06.15s0,0,.06-.09a1.14,1.14,0,0,1,.23-.26,1.84,1.84,0,0,1,.43-.28,1.56,1.56,0,0,1,.68-.13,1.38,1.38,0,0,1,1.12.5,1.31,1.31,0,0,1,.23.41,1.06,1.06,0,0,1,.07.32v3.11h-.88v-2.7a.44.44,0,0,0-.07-.22.77.77,0,0,0-.18-.21,1.06,1.06,0,0,0-.25-.15A.75.75,0,0,0,96,54a1,1,0,0,0-.73.26,1,1,0,0,0-.29.78v2.31h-.89V54.69a.69.69,0,0,0-.17-.45.61.61,0,0,0-.5-.2,1.34,1.34,0,0,0-.42.06,1,1,0,0,0-.35.2.92.92,0,0,0-.24.32,1.08,1.08,0,0,0-.09.45v2.31Z"/><path d="M101.1,53.06a2,2,0,0,1,.82.17A2.12,2.12,0,0,1,103,54.37a2.26,2.26,0,0,1,0,1.68,2.12,2.12,0,0,1-1.11,1.15,2,2,0,0,1-.82.17,2,2,0,0,1-.73-.14,2.12,2.12,0,0,1-.62-.38v2.29h-.88V53h.88v.52a2.22,2.22,0,0,1,.62-.37A2,2,0,0,1,101.1,53.06ZM101,56.47a1.13,1.13,0,0,0,.47-.1,1.26,1.26,0,0,0,.65-.67,1.25,1.25,0,0,0,.1-.49,1.28,1.28,0,0,0-.36-.9,1.22,1.22,0,0,0-.39-.27,1.18,1.18,0,0,0-.47-.1,1.19,1.19,0,0,0-.48.1,1.22,1.22,0,0,0-.39.27,1.28,1.28,0,0,0-.36.9,1.25,1.25,0,0,0,.1.49,1.26,1.26,0,0,0,.65.67A1.15,1.15,0,0,0,101,56.47Z"/><path d="M104.17,53h.89v2.83a.85.85,0,0,0,0,.15.56.56,0,0,0,.09.21.6.6,0,0,0,.22.18,1,1,0,0,0,.78,0,.6.6,0,0,0,.22-.18.56.56,0,0,0,.09-.2.79.79,0,0,0,0-.15V53h.89v2.83s0,.07,0,.16a1.55,1.55,0,0,1-.07.29,1.86,1.86,0,0,1-.17.35,1.46,1.46,0,0,1-.29.34,1.45,1.45,0,0,1-.44.26,1.72,1.72,0,0,1-.63.1,1.81,1.81,0,0,1-.63-.1,1.53,1.53,0,0,1-.44-.24,1.23,1.23,0,0,1-.28-.32,1.82,1.82,0,0,1-.16-.35,1.6,1.6,0,0,1-.07-.3,1.69,1.69,0,0,1,0-.19Z"/><path d="M109.82,53.06a1.72,1.72,0,0,1,.41,0l.31.09.26.14-.43.67a.53.53,0,0,0-.14-.1l-.17-.07a.84.84,0,0,0-.24,0,.57.57,0,0,0-.42.13.4.4,0,0,0-.13.28.35.35,0,0,0,.16.32,1.36,1.36,0,0,0,.4.16l.52.11a1.71,1.71,0,0,1,.52.19,1.13,1.13,0,0,1,.4.38,1.4,1.4,0,0,1,0,1.19A1.21,1.21,0,0,1,111,57a1.56,1.56,0,0,1-.51.28,2,2,0,0,1-.67.11,2,2,0,0,1-.53-.06,2.22,2.22,0,0,1-.4-.15,1.9,1.9,0,0,1-.3-.18l-.23-.16.44-.67a2,2,0,0,0,.63.37,1.58,1.58,0,0,0,.4.09.77.77,0,0,0,.56-.15.58.58,0,0,0,.14-.41.43.43,0,0,0-.16-.37,1.3,1.3,0,0,0-.39-.19l-.52-.13a2,2,0,0,1-.52-.18,1.09,1.09,0,0,1-.39-.35,1.08,1.08,0,0,1-.16-.63,1,1,0,0,1,.46-.89,1.49,1.49,0,0,1,.46-.2A2.09,2.09,0,0,1,109.82,53.06Z"/><path d="M126.44,56.58a3.11,3.11,0,0,1-4.26,0,3,3,0,0,1,0-4.19,3.11,3.11,0,0,1,4.26,0,3,3,0,0,1,0,4.19Zm-.7-3.55a2,2,0,0,0-2.85,0,2.12,2.12,0,0,0,0,2.92,2,2,0,0,0,2.85,0,2.12,2.12,0,0,0,0-2.92Z"/><path d="M129.25,57.37h-.91v-6h.91Z"/><path d="M131.11,59.09a1.56,1.56,0,0,1-1.07-.43l.41-.74a.86.86,0,0,0,.59.27.63.63,0,0,0,.5-.22.72.72,0,0,0,.19-.48q0-.11-1.75-4.44h1l1.29,3.18L133.54,53h1l-2.09,5.13a1.56,1.56,0,0,1-.54.67A1.32,1.32,0,0,1,131.11,59.09Z"/><path d="M136.14,55v2.34h-.91V53h.91v.79a1.44,1.44,0,0,1,.59-.63,1.67,1.67,0,0,1,.85-.23,1.37,1.37,0,0,1,1.39.84,1.94,1.94,0,0,1,1.6-.84,1.61,1.61,0,0,1,1.18.45,1.74,1.74,0,0,1,.45,1.29v2.65h-.91V55q0-1.19-1-1.19a1.2,1.2,0,0,0-.81.3,1.12,1.12,0,0,0-.36.86v2.4h-.91V55a1.5,1.5,0,0,0-.22-.91.81.81,0,0,0-.69-.29,1.19,1.19,0,0,0-.82.31A1.16,1.16,0,0,0,136.14,55Z"/><path d="M145.78,53a2.05,2.05,0,0,1,1.49.6,2.13,2.13,0,0,1,.62,1.6,2.22,2.22,0,0,1-.61,1.62,1.9,1.9,0,0,1-2.89-.09v2.22h-.91V53h.91v.76A1.62,1.62,0,0,1,145.78,53Zm-1.42,2.23a1.41,1.41,0,0,0,.37,1,1.21,1.21,0,0,0,.91.39,1.29,1.29,0,0,0,.93-.39,1.35,1.35,0,0,0,.4-1,1.44,1.44,0,0,0-.39-1,1.24,1.24,0,0,0-.93-.41,1.19,1.19,0,0,0-.92.41A1.47,1.47,0,0,0,144.36,55.22Z"/><path d="M151.94,55.39V53h.91v4.32h-.91v-.79a1.7,1.7,0,0,1-2.62.41,1.74,1.74,0,0,1-.45-1.29V53h.91v2.37q0,1.19,1,1.19a1.19,1.19,0,0,0,.82-.31A1.16,1.16,0,0,0,151.94,55.39Z"/><path d="M157.24,56.08a1.22,1.22,0,0,1-.45,1,1.74,1.74,0,0,1-1.15.37,3.07,3.07,0,0,1-1-.17,2.94,2.94,0,0,1-.9-.48l.44-.71a2.45,2.45,0,0,0,1.46.57.76.76,0,0,0,.49-.14.44.44,0,0,0,.18-.36q0-.32-.86-.58l-.1,0Q154,55.16,154,54.31a1.16,1.16,0,0,1,.47-1,1.93,1.93,0,0,1,1.21-.36,2.52,2.52,0,0,1,1.41.44l-.34.67a2,2,0,0,0-1.14-.35,1,1,0,0,0-.53.12.38.38,0,0,0-.2.35.32.32,0,0,0,.21.31,2,2,0,0,0,.41.14l.47.13.39.15a2.54,2.54,0,0,1,.41.23A1,1,0,0,1,157.24,56.08Z"/><path d="M171.53,53.54a2.19,2.19,0,1,1-2.19-2.2A2.19,2.19,0,0,1,171.53,53.54ZM171,57a.21.21,0,0,1-.2.21H167.9a.2.2,0,0,1-.2-.21v-.7a.21.21,0,0,1,.2-.2h2.89a.21.21,0,0,1,.2.2Zm-1.14-3.46a.51.51,0,1,0-.51.51A.51.51,0,0,0,169.85,53.54Z"/><path d="M172.14,51.71a.2.2,0,0,1,.2-.2h1.8a.2.2,0,0,1,.2.2v3.46a.2.2,0,0,0,.2.2H175a.2.2,0,0,1,.2.2V57a.2.2,0,0,1-.2.2h-2.67a.2.2,0,0,1-.2-.2Z"/><path d="M179.09,54.06a.55.55,0,0,0-.14.34V57a.2.2,0,0,1-.2.2h-1.61a.2.2,0,0,1-.2-.2V54.39a.55.55,0,0,0-.14-.34l-1.22-1.23a.2.2,0,0,1,0-.28l1-1a.2.2,0,0,1,.28,0l.92.93a.23.23,0,0,0,.36,0l.92-.93a.2.2,0,0,1,.28,0l1,1a.2.2,0,0,1,0,.28Z"/><path d="M186.13,51.51a.2.2,0,0,1,.2.2V57a.2.2,0,0,1-.2.2h-1.56a.2.2,0,0,1-.2-.2V55.65a.2.2,0,0,0-.22-.22h-1a.2.2,0,0,0-.22.22V57a.2.2,0,0,1-.2.2h-1.56a.2.2,0,0,1-.2-.2v-5.3a.2.2,0,0,1,.2-.2h1.56a.4.4,0,0,1,.33.15l.37.4a.27.27,0,0,0,.43,0l.37-.4a.4.4,0,0,1,.33-.15Z"/><path d="M189.45,51.51a2.08,2.08,0,0,1,0,4.16V57a.2.2,0,0,1-.2.2h-1.91a.2.2,0,0,1-.2-.2v-5.3a.2.2,0,0,1,.2-.2h2.11Zm-.14,1.56a.51.51,0,1,0,.51.51A.51.51,0,0,0,189.32,53.07Z"/><path d="M196.25,51.51a.2.2,0,0,1,.2.2v1.88a2.16,2.16,0,1,1-4.32,0V51.71a.2.2,0,0,1,.2-.2h1.42a.2.2,0,0,1,.2.2v1.84c0,.25.09.43.34.43s.34-.19.34-.43V51.71a.2.2,0,0,1,.2-.2Zm-.33,5.5a.2.2,0,0,1-.2.2h-2.85a.2.2,0,0,1-.2-.2v-.69a.2.2,0,0,1,.2-.2h2.85a.2.2,0,0,1,.2.2Z"/><path d="M201.39,53.15a.21.21,0,0,1-.22.2h-.51a.21.21,0,0,0-.22.2V57a.21.21,0,0,1-.22.2h-2.93a.21.21,0,0,1-.22-.2V55.57a.21.21,0,0,1,.22-.2h.51a.21.21,0,0,0,.22-.2V51.71a.21.21,0,0,1,.22-.2h2.93a.21.21,0,0,1,.22.2Z"/><path d="M34.23,72.72a3.06,3.06,0,1,1,2.12.85A2.88,2.88,0,0,1,34.23,72.72Zm2.13-.26a1.67,1.67,0,0,0,1.28-.54,2,2,0,0,0,0-2.66,1.82,1.82,0,0,0-2.58,0,2,2,0,0,0,0,2.66A1.68,1.68,0,0,0,36.35,72.47Z"/><path d="M40.12,73.58V67.63h1.11v5.95Z"/><path d="M44.85,72.21V69.61H46v3.65a2,2,0,0,1-.52,1.39,1.73,1.73,0,0,1-1.23.59l-.24,0a2.25,2.25,0,0,1-1.51-.66L43,74a1.81,1.81,0,0,0,.9.4.93.93,0,0,0,.74-.26,1.09,1.09,0,0,0,.22-.73v-.2a1.59,1.59,0,0,1-2.12-.1,1.55,1.55,0,0,1-.4-1.05V69.61h1.11V71.8a.88.88,0,0,0,.2.61.74.74,0,0,0,1.21-.2Z"/><path d="M48,71v2.54H46.85V69.73L48,69.61V70a1.34,1.34,0,0,1,1-.35,1.44,1.44,0,0,1,1.15.46,1.73,1.73,0,0,1,1.31-.46,1.44,1.44,0,0,1,1.15.46,1.55,1.55,0,0,1,.4,1.05v2.46H51.8V71.4a1,1,0,0,0-.18-.61.74.74,0,0,0-.58-.23.75.75,0,0,0-.57.44,1.57,1.57,0,0,0,0,.25v2.34H49.34V71.4a1,1,0,0,0-.18-.61.74.74,0,0,0-.58-.23A.82.82,0,0,0,48,71Z"/><path d="M53.87,75.24V69.73L55,69.61v.32a1.5,1.5,0,0,1,.87-.32,1.85,1.85,0,0,1,1.45.59,2.07,2.07,0,0,1,0,2.78,1.85,1.85,0,0,1-1.45.59,1.31,1.31,0,0,1-.87-.32v2Zm1.11-4v.64a.86.86,0,0,0,.83.78,1,1,0,0,0,1.07-1q0-1.11-1.07-1.15Q55.06,70.64,55,71.24Z"/><path d="M61,72.17V69.61h1.11v4H61v-.36a1.38,1.38,0,0,1-1,.36,1.44,1.44,0,0,1-1.15-.46,1.55,1.55,0,0,1-.4-1.05V69.61h1.11v2.18a.88.88,0,0,0,.2.61.8.8,0,0,0,.6.23A.77.77,0,0,0,61,72.17Z"/><path d="M65.33,69.73a1.92,1.92,0,0,1,.58.4l-.62.7a.84.84,0,0,0-.67-.32.72.72,0,0,0-.54.15q-.13.15,0,.27a1.2,1.2,0,0,0,.54.2,1.88,1.88,0,0,1,1,.34,1.15,1.15,0,0,1,.38,1,1,1,0,0,1-.44.87,1.77,1.77,0,0,1-1,.31,2.38,2.38,0,0,1-.94-.16A2,2,0,0,1,62.9,73l.61-.69a1.18,1.18,0,0,0,.84.37.81.81,0,0,0,.59-.15.23.23,0,0,0,0-.3q-.09-.15-.63-.2a2.18,2.18,0,0,1-.89-.3,1,1,0,0,1-.4-.91,1.08,1.08,0,0,1,.46-.94,1.62,1.62,0,0,1,.94-.32A2.23,2.23,0,0,1,65.33,69.73Z"/><path d="M85.26,70.62a2.92,2.92,0,1,1-5.84,0,2.92,2.92,0,1,1,5.84,0Zm-4.78,0a1.86,1.86,0,1,0,3.73,0,1.87,1.87,0,1,0-3.73,0Z"/><path d="M87,67.75v5.67H86V67.75Z"/><path d="M91.95,69.43,89.5,75.1H88.41l.75-1.74-1.6-3.94h1.15l.61,1.73.38,1.13.41-1.1.73-1.75Z"/><path d="M95.13,73.43V71.29c0-.53-.28-1-.82-1a.91.91,0,0,0-.85,1v2.14h-1v-4h.92l.07.49a1.16,1.16,0,0,1,1.06-.55,1.2,1.2,0,0,1,1.19.75A1.45,1.45,0,0,1,97,69.37c1.14,0,1.7.7,1.7,1.9v2.16h-1V71.27c0-.53-.22-1-.75-1a.91.91,0,0,0-.87,1v2.14Z"/><path d="M99.66,75.1V69.43h.93l.06.55a1.59,1.59,0,0,1,1.3-.64A2,2,0,0,1,104,71.43a2,2,0,0,1-2,2.09,1.61,1.61,0,0,1-1.33-.57V75.1ZM103,71.43a1.14,1.14,0,1,0-2.27,0,1.14,1.14,0,0,0,2.27,0Z"/><path d="M105.67,69.43v2.09a1,1,0,0,0,1,1.07,1.05,1.05,0,0,0,1-1.12v-2h1v4h-.88l-.06-.54a1.78,1.78,0,0,1-1.36.6c-1,0-1.66-.72-1.66-2v-2.1Z"/><path d="M112.13,70.49a1.35,1.35,0,0,0-1-.36c-.47,0-.73.15-.73.4s.24.41.75.44c.75,0,1.71.22,1.71,1.28,0,.71-.58,1.32-1.72,1.32a2.34,2.34,0,0,1-1.85-.71l.49-.71a2.19,2.19,0,0,0,1.38.56c.37,0,.72-.19.72-.48s-.23-.39-.8-.42c-.76-.06-1.66-.33-1.66-1.24s1-1.25,1.69-1.25a2.15,2.15,0,0,1,1.56.53Z"/><path d="M131,70.9a3.17,3.17,0,0,1-.71,2.2,3,3,0,0,1-4,0,3.19,3.19,0,0,1-.7-2.21,3.14,3.14,0,0,1,.71-2.2,2.61,2.61,0,0,1,2-.77,2.56,2.56,0,0,1,2,.78A3.17,3.17,0,0,1,131,70.9Zm-4.42,0a2.6,2.6,0,0,0,.43,1.62,1.76,1.76,0,0,0,2.56,0,3.29,3.29,0,0,0,0-3.25,1.51,1.51,0,0,0-1.27-.55,1.54,1.54,0,0,0-1.29.55A2.57,2.57,0,0,0,126.57,70.9Z"/><path d="M133.08,73.8h-.93V67.63h.93Z"/><path d="M133.74,69.42h1l.89,2.49a4.72,4.72,0,0,1,.27,1h0a4.17,4.17,0,0,1,.13-.53q.1-.31,1-3h1l-1.88,5a1.78,1.78,0,0,1-1.7,1.37,2.68,2.68,0,0,1-.6-.07v-.74a2.18,2.18,0,0,0,.48,0,1,1,0,0,0,.95-.78l.16-.41Z"/><path d="M142.46,73.8h-.94V71.1a1.23,1.23,0,0,0-.19-.75.7.7,0,0,0-.59-.25.91.91,0,0,0-.79.35,2.06,2.06,0,0,0-.25,1.17V73.8h-.93V69.42h.73l.13.57h0a1.21,1.21,0,0,1,.53-.48,1.71,1.71,0,0,1,.76-.17,1.33,1.33,0,0,1,1.34.69h.06a1.34,1.34,0,0,1,.55-.51,1.74,1.74,0,0,1,.81-.18,1.47,1.47,0,0,1,1.14.4,1.76,1.76,0,0,1,.36,1.21V73.8h-.93V71.1a1.22,1.22,0,0,0-.19-.75.71.71,0,0,0-.6-.25.93.93,0,0,0-.8.34,1.75,1.75,0,0,0-.25,1Z"/><path d="M148.75,73.88a1.54,1.54,0,0,1-1.29-.6h-.06q.06.56.06.67v1.8h-.93V69.42h.75q0,.12.13.59h0a1.46,1.46,0,0,1,1.31-.67,1.52,1.52,0,0,1,1.28.59,3.26,3.26,0,0,1,0,3.35A1.54,1.54,0,0,1,148.75,73.88Zm-.23-3.78a1,1,0,0,0-.81.33,1.69,1.69,0,0,0-.26,1v.14a2.05,2.05,0,0,0,.25,1.16.94.94,0,0,0,.83.36.84.84,0,0,0,.75-.4,2,2,0,0,0,.26-1.13,2,2,0,0,0-.26-1.12A.87.87,0,0,0,148.52,70.1Z"/><path d="M154.68,73.8l-.13-.57h0a1.32,1.32,0,0,1-.55.48,1.85,1.85,0,0,1-.82.17,1.61,1.61,0,0,1-1.19-.4,1.64,1.64,0,0,1-.39-1.2V69.42h.94v2.7a1.17,1.17,0,0,0,.21.76.79.79,0,0,0,.65.25,1,1,0,0,0,.86-.35,1.93,1.93,0,0,0,.28-1.18V69.42h.94V73.8Z"/><path d="M159.68,72.55a1.15,1.15,0,0,1-.47,1,2.24,2.24,0,0,1-1.34.34,3.17,3.17,0,0,1-1.41-.27v-.8a3.46,3.46,0,0,0,1.44.36q.86,0,.86-.52a.41.41,0,0,0-.1-.28,1.13,1.13,0,0,0-.31-.23,5.39,5.39,0,0,0-.61-.27,2.81,2.81,0,0,1-1-.59,1.09,1.09,0,0,1-.27-.76,1,1,0,0,1,.45-.87,2.15,2.15,0,0,1,1.23-.31,3.5,3.5,0,0,1,1.46.31l-.3.7a3.25,3.25,0,0,0-1.19-.29q-.74,0-.74.42a.42.42,0,0,0,.19.35,4.22,4.22,0,0,0,.84.39,3.84,3.84,0,0,1,.79.38,1.15,1.15,0,0,1,.36.4A1.17,1.17,0,0,1,159.68,72.55Z"/><path d="M178.62,74.37a2.17,2.17,0,0,1-.84-.15,1.28,1.28,0,0,1-.56-.43,1.93,1.93,0,0,1-.3-.67,3.72,3.72,0,0,1-.1-.89v-2.5a2.49,2.49,0,0,1,.42-1.56,2,2,0,0,1,2.75,0,2.48,2.48,0,0,1,.42,1.56v2.5a2.57,2.57,0,0,1-.42,1.58A1.62,1.62,0,0,1,178.62,74.37Zm-.45-.8a1.23,1.23,0,0,0,.89,0,.57.57,0,0,0,.27-.25,1.22,1.22,0,0,0,.12-.38,3.22,3.22,0,0,0,0-.51V69.54a3.08,3.08,0,0,0,0-.5,1.17,1.17,0,0,0-.12-.37.55.55,0,0,0-.27-.24,1.32,1.32,0,0,0-.89,0,.55.55,0,0,0-.27.24,1.16,1.16,0,0,0-.12.37,3,3,0,0,0,0,.5v2.89a3.19,3.19,0,0,0,0,.51,1.21,1.21,0,0,0,.12.38A.57.57,0,0,0,178.17,73.57Z"/><path d="M181.32,74.3V67.7h.87v6.6Z"/><path d="M183,75.48v-.66a1.53,1.53,0,0,0,.74-.11q.16-.11.09-.46l-.15-.65-.47-2-.47-2h.88l.63,3.52.61-3.52h.88l-1.13,5a1,1,0,0,1-.47.71,2.07,2.07,0,0,1-1,.21Z"/><path d="M186.28,74.3V69.58h.8V70a1.45,1.45,0,0,1,1.11-.53.73.73,0,0,1,.76.6,1.47,1.47,0,0,1,1.17-.6.75.75,0,0,1,.6.27,1.25,1.25,0,0,1,.23.83v3.7h-.8V70.65a.73.73,0,0,0-.11-.45.35.35,0,0,0-.3-.13,1,1,0,0,0-.73.38s0,.08,0,.14v3.7h-.8V70.65a.73.73,0,0,0-.11-.45.35.35,0,0,0-.3-.13,1.05,1.05,0,0,0-.73.39V74.3Z"/><path d="M191.8,75.85V69.58h.87V70a1.13,1.13,0,0,1,.89-.44.94.94,0,0,1,.42.09.76.76,0,0,1,.3.25,1.9,1.9,0,0,1,.19.33,1.61,1.61,0,0,1,.11.39q0,.22,0,.38t0,.33v1.14q0,1.94-1.17,1.94a1.08,1.08,0,0,1-.8-.42v1.9Zm1.49-2.17a.42.42,0,0,0,.19,0,.31.31,0,0,0,.13-.13,1.07,1.07,0,0,0,.08-.19,1.17,1.17,0,0,0,0-.26c0-.11,0-.21,0-.29s0-.2,0-.33V71.29q0-.2,0-.34a2.27,2.27,0,0,0,0-.29.81.81,0,0,0-.08-.24.42.42,0,0,0-.15-.15.42.42,0,0,0-.22-.06.93.93,0,0,0-.59.24v3A1,1,0,0,0,193.29,73.68Z"/><path d="M196.1,74.36a.67.67,0,0,1-.34-.08.56.56,0,0,1-.22-.23,1.14,1.14,0,0,1-.11-.3,1.78,1.78,0,0,1,0-.35V69.58h.87v3.56a.8.8,0,0,0,.08.4.31.31,0,0,0,.29.13,1,1,0,0,0,.61-.29v-3.8h.87V74.3h-.87v-.47A1.66,1.66,0,0,1,196.1,74.36Z"/><path d="M200.09,74.37a1.23,1.23,0,0,1-.92-.36,1.52,1.52,0,0,1-.4-1l.73-.22a1.53,1.53,0,0,0,.2.68.49.49,0,0,0,.43.22.5.5,0,0,0,.52-.54,1,1,0,0,0-.38-.66l-.8-.69a1.93,1.93,0,0,1-.44-.51,1.23,1.23,0,0,1-.14-.64,1.17,1.17,0,0,1,.34-.86,1.23,1.23,0,0,1,.88-.3,1.06,1.06,0,0,1,.84.35,1.51,1.51,0,0,1,.35.89l-.59.22a1.54,1.54,0,0,0-.18-.61.43.43,0,0,0-.39-.21.45.45,0,0,0-.34.14.47.47,0,0,0-.13.34.62.62,0,0,0,.23.48l.83.76a2.43,2.43,0,0,1,.49.57,1.35,1.35,0,0,1,.18.7,1.13,1.13,0,0,1-.35.9A1.39,1.39,0,0,1,200.09,74.37Z"/><path d="M36.09,89.84A2.46,2.46,0,0,1,35,89.59a2.73,2.73,0,0,1-.86-.66,3,3,0,0,1-.55-.94,3.09,3.09,0,0,1-.2-1.08,3,3,0,0,1,.21-1.1,3,3,0,0,1,.57-.93,2.75,2.75,0,0,1,.86-.65A2.47,2.47,0,0,1,36.1,84a2.37,2.37,0,0,1,1.1.26,2.83,2.83,0,0,1,.85.67,3.11,3.11,0,0,1,.75,2A3,3,0,0,1,38.6,88,3,3,0,0,1,38,89a2.73,2.73,0,0,1-.86.64A2.47,2.47,0,0,1,36.09,89.84Zm-2-2.92a2.57,2.57,0,0,0,.14.85,2.34,2.34,0,0,0,.4.73,2,2,0,0,0,.63.5,1.76,1.76,0,0,0,.81.19,1.7,1.7,0,0,0,.83-.2,2,2,0,0,0,.62-.52,2.32,2.32,0,0,0,.39-.73,2.59,2.59,0,0,0,0-1.67,2.26,2.26,0,0,0-.41-.72,2,2,0,0,0-.63-.5,1.83,1.83,0,0,0-1.63,0,2,2,0,0,0-.62.51,2.33,2.33,0,0,0-.39.72A2.55,2.55,0,0,0,34.12,86.92Z"/><path d="M39.73,83.87h.71V88.7a.52.52,0,0,0,.13.37.46.46,0,0,0,.35.13l.21,0,.23-.07.11.58a2.33,2.33,0,0,1-.42.12,2.23,2.23,0,0,1-.43,0,.89.89,0,0,1-.65-.24.88.88,0,0,1-.24-.66Z"/><path d="M42.07,91l.21,0h.16a.34.34,0,0,0,.17,0,.48.48,0,0,0,.15-.17,3.07,3.07,0,0,0,.17-.36l.24-.61L41.4,85.56h.74l1.45,3.6,1.32-3.6h.68l-2.06,5.35a1.24,1.24,0,0,1-.38.5,1.12,1.12,0,0,1-.73.22h-.15l-.19,0Z"/><path d="M52.69,89.8H52V87.43a1.78,1.78,0,0,0-.21-1,.72.72,0,0,0-.64-.32,1.14,1.14,0,0,0-.78.31,1.72,1.72,0,0,0-.49.81V89.8h-.71V87.43a1.8,1.8,0,0,0-.21-1,.72.72,0,0,0-.63-.31,1.16,1.16,0,0,0-.78.3,1.65,1.65,0,0,0-.5.81V89.8H46.3V85.56H47v.91a1.92,1.92,0,0,1,.67-.73,1.74,1.74,0,0,1,.93-.26,1.2,1.2,0,0,1,.85.29,1.25,1.25,0,0,1,.39.74,1.77,1.77,0,0,1,1.62-1,1.28,1.28,0,0,1,.61.13,1,1,0,0,1,.39.37,1.73,1.73,0,0,1,.21.56,3.62,3.62,0,0,1,.06.71Z"/><path d="M56.09,89.88a1.67,1.67,0,0,1-.93-.26,2,2,0,0,1-.64-.66v2.57h-.71v-6h.63v.8a2,2,0,0,1,.65-.63,1.7,1.7,0,0,1,.89-.24,1.81,1.81,0,0,1,.8.18,2,2,0,0,1,.63.48,2.27,2.27,0,0,1,.42.7,2.32,2.32,0,0,1,.15.83,2.61,2.61,0,0,1-.14.86,2.14,2.14,0,0,1-.39.7,1.88,1.88,0,0,1-.6.47A1.7,1.7,0,0,1,56.09,89.88Zm-.22-.62a1.22,1.22,0,0,0,.57-.13,1.4,1.4,0,0,0,.44-.36,1.63,1.63,0,0,0,.28-.51,1.78,1.78,0,0,0,.1-.58,1.66,1.66,0,0,0-.42-1.11,1.46,1.46,0,0,0-.46-.34,1.31,1.31,0,0,0-.57-.13,1.15,1.15,0,0,0-.4.08,1.78,1.78,0,0,0-.39.2,1.4,1.4,0,0,0-.32.3.91.91,0,0,0-.17.37v1.21a1.82,1.82,0,0,0,.23.39,1.6,1.6,0,0,0,.32.32,1.55,1.55,0,0,0,.38.21A1.18,1.18,0,0,0,55.87,89.26Z"/><path d="M60.17,89.88a1.19,1.19,0,0,1-1-.45,2.18,2.18,0,0,1-.34-1.33V85.56h.71V88q0,1.3.9,1.3a1.38,1.38,0,0,0,.82-.28,1.65,1.65,0,0,0,.57-.77V85.56h.71v3.36q0,.25.23.26v.62l-.19,0h-.13a.51.51,0,0,1-.35-.13.43.43,0,0,1-.15-.31l0-.5a2,2,0,0,1-.75.73A2.06,2.06,0,0,1,60.17,89.88Z"/><path d="M65.23,89.88a3.29,3.29,0,0,1-1-.16,2.48,2.48,0,0,1-.85-.46l.31-.48a3,3,0,0,0,.75.43,2.2,2.2,0,0,0,.79.14,1.3,1.3,0,0,0,.73-.18.59.59,0,0,0,.27-.52.47.47,0,0,0-.07-.26.62.62,0,0,0-.22-.19,1.81,1.81,0,0,0-.37-.15L65,87.92l-.66-.19a1.79,1.79,0,0,1-.45-.21.74.74,0,0,1-.26-.29,1,1,0,0,1-.08-.42,1.23,1.23,0,0,1,.13-.56,1.19,1.19,0,0,1,.35-.41,1.55,1.55,0,0,1,.52-.25,2.3,2.3,0,0,1,.64-.09,2.54,2.54,0,0,1,.89.15,2.2,2.2,0,0,1,.7.41l-.32.43a1.82,1.82,0,0,0-.6-.35,2,2,0,0,0-.68-.12,1.25,1.25,0,0,0-.66.17.58.58,0,0,0-.27.53.51.51,0,0,0,.05.24.46.46,0,0,0,.17.17,1.37,1.37,0,0,0,.31.13l.46.12q.42.1.73.2a2.13,2.13,0,0,1,.52.24.93.93,0,0,1,.31.32.94.94,0,0,1,.1.45,1.13,1.13,0,0,1-.45.94A2,2,0,0,1,65.23,89.88Z"/><path d="M83.86,87.69a2.46,2.46,0,0,1-.66,1.76,2.23,2.23,0,0,1-1.7.7,2.11,2.11,0,0,1-1.64-.7,2.52,2.52,0,0,1-.63-1.76v-1a2.53,2.53,0,0,1,.63-1.76,2.11,2.11,0,0,1,1.64-.7,2.23,2.23,0,0,1,1.7.7,2.47,2.47,0,0,1,.66,1.76Zm-.78-1a2,2,0,0,0-.43-1.3,1.43,1.43,0,0,0-1.15-.51,1.32,1.32,0,0,0-1.09.51,2,2,0,0,0-.41,1.3v1A2,2,0,0,0,80.42,89a1.32,1.32,0,0,0,1.09.51A1.43,1.43,0,0,0,82.66,89a2,2,0,0,0,.43-1.31Z"/><path d="M85.73,90.06h-.78V83.87h.78Z"/><path d="M88.24,88.47l.14.54h0l1.05-3.24h.87l-1.8,4.95a2.22,2.22,0,0,1-.47.75,1.07,1.07,0,0,1-.82.32l-.24,0-.23,0,.08-.61h.35a.48.48,0,0,0,.41-.22,2.3,2.3,0,0,0,.27-.49l.19-.45-1.59-4.2h.87Z"/><path d="M91.71,85.77l.06.56a1.46,1.46,0,0,1,.53-.47,1.6,1.6,0,0,1,.75-.17,1.33,1.33,0,0,1,.74.2,1.2,1.2,0,0,1,.46.59,1.59,1.59,0,0,1,.54-.58,1.41,1.41,0,0,1,.78-.21,1.28,1.28,0,0,1,1,.45A2.06,2.06,0,0,1,97,87.49v2.57h-.78V87.49a1.43,1.43,0,0,0-.22-.9.8.8,0,0,0-.65-.26.83.83,0,0,0-.65.28,1.21,1.21,0,0,0-.29.7v2.76H93.6V87.49a1.41,1.41,0,0,0-.22-.88.78.78,0,0,0-.64-.28,1.07,1.07,0,0,0-.59.15,1,1,0,0,0-.35.41v3.18H91V85.77Z"/><path d="M101.77,88.08a2.36,2.36,0,0,1-.44,1.5,1.47,1.47,0,0,1-1.22.57,1.7,1.7,0,0,1-.7-.13,1.33,1.33,0,0,1-.51-.4v2.1h-.78V85.77h.6l.12.56a1.42,1.42,0,0,1,.52-.47,1.56,1.56,0,0,1,.73-.16,1.43,1.43,0,0,1,1.24.63,2.86,2.86,0,0,1,.44,1.67ZM101,88a2.26,2.26,0,0,0-.29-1.2.93.93,0,0,0-.85-.47,1,1,0,0,0-.58.15,1.14,1.14,0,0,0-.38.42V89a1.11,1.11,0,0,0,.38.41,1.08,1.08,0,0,0,.58.15,1,1,0,0,0,.84-.41,1.78,1.78,0,0,0,.29-1Z"/><path d="M105.45,89.42a1.45,1.45,0,0,1-.52.53,1.42,1.42,0,0,1-.73.19,1.38,1.38,0,0,1-1.09-.45,2.08,2.08,0,0,1-.39-1.4V85.77h.78v2.54a1.6,1.6,0,0,0,.2.94.75.75,0,0,0,.63.26,1.28,1.28,0,0,0,.69-.17,1.05,1.05,0,0,0,.41-.48V85.77h.78v4.29h-.7Z"/><path d="M109.83,88.92a.53.53,0,0,0-.2-.42,1.85,1.85,0,0,0-.74-.29,3.13,3.13,0,0,1-1.18-.46.93.93,0,0,1-.39-.79,1.12,1.12,0,0,1,.44-.89,2,2,0,0,1,2.35,0,1.14,1.14,0,0,1,.42.94v0h-.75a.68.68,0,0,0-.24-.51.87.87,0,0,0-.62-.22.9.9,0,0,0-.62.18.57.57,0,0,0-.2.44.49.49,0,0,0,.18.4,1.85,1.85,0,0,0,.73.26,3.13,3.13,0,0,1,1.21.47,1,1,0,0,1,.4.8,1.11,1.11,0,0,1-.46.92,1.94,1.94,0,0,1-1.21.35,1.89,1.89,0,0,1-1.29-.42,1.19,1.19,0,0,1-.45-1v0H108a.72.72,0,0,0,.31.61,1.2,1.2,0,0,0,.68.19,1.1,1.1,0,0,0,.65-.17A.52.52,0,0,0,109.83,88.92Z"/><path d="M130.89,88.84a2.79,2.79,0,0,1-2,.8,2.84,2.84,0,0,1-2-.8,2.68,2.68,0,0,1,0-3.86,2.81,2.81,0,0,1,2-.8,2.77,2.77,0,0,1,2,.8,2.66,2.66,0,0,1,0,3.86Zm-.27-3.6a2.38,2.38,0,0,0-1.74-.71,2.45,2.45,0,0,0-1.75.71,2.31,2.31,0,0,0,0,3.35,2.44,2.44,0,0,0,1.75.7,2.39,2.39,0,0,0,1.74-.7,2.29,2.29,0,0,0,0-3.35Z"/><path d="M132.21,83.87h.39v5.76h-.39Z"/><path d="M133.47,88.31a1.1,1.1,0,0,0,1.1.95,1.22,1.22,0,0,0,1.11-.71V86h.39v4a1.44,1.44,0,0,1-1.57,1.48,1.83,1.83,0,0,1-1.42-.62v-.55a1.91,1.91,0,0,0,1.42.81,1.09,1.09,0,0,0,1.18-1.24v-.6a1.62,1.62,0,0,1-1.11.43,1.45,1.45,0,0,1-1.49-1.33V86h.39Z"/><path d="M141.77,87.28a1.12,1.12,0,0,0-2.22,0v2.39h-.39V87.28a1.1,1.1,0,0,0-1.1-.95,1.22,1.22,0,0,0-1.11.71v2.6h-.38V86.11h.38v.27a1.62,1.62,0,0,1,1.11-.43,1.53,1.53,0,0,1,1.28.67,2.49,2.49,0,0,1,.21-.24,1.62,1.62,0,0,1,1.11-.43,1.45,1.45,0,0,1,1.49,1.33v2.35h-.39Z"/><path d="M145.89,89.11a1.85,1.85,0,0,1-1.34.53A2.14,2.14,0,0,1,143,89v2.39h-.4v-5.3h.4v.46a2,2,0,0,1,1.51-.62,1.86,1.86,0,0,1,1.34.54,1.83,1.83,0,0,1,0,2.62Zm-.28-2.36a1.53,1.53,0,0,0-2.13,0,1.37,1.37,0,0,0-.44,1,1.43,1.43,0,0,0,.43,1.06,1.5,1.5,0,0,0,1.08.41,1.46,1.46,0,0,0,1.06-.42,1.42,1.42,0,0,0,.45-1A1.38,1.38,0,0,0,145.61,86.75Z"/><path d="M147.32,88.31a1.1,1.1,0,0,0,1.1.95,1.22,1.22,0,0,0,1.11-.71V86h.38v3.69h-.38v-.43a1.62,1.62,0,0,1-1.11.43,1.45,1.45,0,0,1-1.49-1.33V86h.39Z"/><path d="M150.69,88.68a1.74,1.74,0,0,0,1.18.54c.45,0,1.07-.17,1.07-.62s-.54-.57-1.07-.63-1.49-.29-1.49-1,1-1,1.49-1a1.76,1.76,0,0,1,1.31.5l-.31.27a1.32,1.32,0,0,0-1-.37c-.38,0-1.07.13-1.07.58s.75.56,1.07.58c.85.06,1.49.33,1.49,1s-.79,1-1.49,1a2,2,0,0,1-1.48-.71Z"/><path d="M170.74,90.11A3.12,3.12,0,1,1,173.91,87,3.15,3.15,0,0,1,170.74,90.11Zm0-5.68A2.56,2.56,0,1,0,173.3,87,2.59,2.59,0,0,0,170.74,84.43Z"/><path d="M174.78,90V84h.6v6Z"/><path d="M177.6,91.57H177l.72-1.71L176,85.54h.66L178,89.1l1.5-3.56h.64Z"/><path d="M186.75,90V87.42c0-1-.45-1.44-1.18-1.44s-1.22.42-1.22,1.44V90h-.6V87.4c0-1-.52-1.41-1.2-1.41s-1.19.52-1.19,1.41V90h-.6V85.54h.6v.51a1.39,1.39,0,0,1,1.25-.62,1.53,1.53,0,0,1,1.45.86,1.77,1.77,0,0,1,3.29,1.06V90Z"/><path d="M190.82,90.11a2,2,0,0,1-1.73-.87v2.33h-.6v-6h.6v.77a2,2,0,0,1,1.75-.87,2.34,2.34,0,1,1,0,4.67Zm0-4.12a1.78,1.78,0,0,0,0,3.56,1.78,1.78,0,0,0,0-3.56Z"/><path d="M197.34,90v-.69a1.45,1.45,0,0,1-1.43.8c-1.13,0-1.88-.6-1.88-2.16V85.54h.6v2.41c0,1.13.47,1.61,1.33,1.61s1.38-.51,1.38-1.72V85.54h.6V90Z"/><path d="M200,90.11a1.34,1.34,0,0,1-1.43-1.42h.59a.79.79,0,0,0,.84.86.74.74,0,0,0,.75-.77c0-.45-.22-.6-.86-.86s-.64-.26-.82-.43a1.06,1.06,0,0,1-.33-.8A1.22,1.22,0,0,1,200,85.44a1.18,1.18,0,0,1,1.25,1.21h-.61A.6.6,0,0,0,200,86a.64.64,0,0,0-.64.64.63.63,0,0,0,.41.59c.13.07.16.08.84.36a1.15,1.15,0,0,1,.77,1.14A1.31,1.31,0,0,1,200,90.11Z"/><path d="M37.63,100.61a2.65,2.65,0,0,1,1,1.09,3,3,0,0,1,.34,1.4v0a2.73,2.73,0,0,1-.74,1.92,2.6,2.6,0,0,1-2,.87,2.75,2.75,0,0,1-2.12-.87,2.78,2.78,0,0,1-.76-2,2.83,2.83,0,0,1,.75-2,2.68,2.68,0,0,1,2.09-.88h0A2.7,2.7,0,0,1,37.63,100.61ZM35,104.3a1.62,1.62,0,0,0,1.23.56,1.58,1.58,0,0,0,1.23-.58,1.73,1.73,0,0,0,.48-1.19,1.82,1.82,0,0,0-.44-1.23,1.56,1.56,0,0,0-1.27-.58h0a1.51,1.51,0,0,0-1.23.59,1.87,1.87,0,0,0-.45,1.22A1.74,1.74,0,0,0,35,104.3Z"/><path d="M40.77,100.19v5.55l-1,.11v-5.55Z"/><path d="M44.64,101.41l1,.26-2.42,5.57-1.09-.16.83-1.67a.16.16,0,0,0,0-.12l-1.58-3.61,1-.23,1,2.45c0,.07.06.11.12.11s.1,0,.12-.11Z"/><path d="M47.34,101.93s0,0,0,0a.93.93,0,0,1,.88-.45.8.8,0,0,1,.79.54c0,.06.19,0,.19,0a1.28,1.28,0,0,1,1-.52h0a1.2,1.2,0,0,1,.94.39,1.3,1.3,0,0,1,.32.9v3.07l-1,.06v-2.61c0-.58-.16-.85-.5-.85s-.68.26-.68.78c0,0,0,.08,0,.11v0a1.86,1.86,0,0,1,0,.19v2.28l-1,.08v-2.6c0-.6-.17-.89-.5-.89h-.06a.64.64,0,0,0-.51.39,2,2,0,0,0-.07.67v2.35l-1,.08v-4.27l.95-.11v.29Z"/><path d="M54.61,101.49a1.88,1.88,0,0,1,1,.29,2.12,2.12,0,0,1,.76.82,2.14,2.14,0,0,1,.27,1,2.27,2.27,0,0,1-.59,1.56,1.9,1.9,0,0,1-1.49.7h0a1.35,1.35,0,0,1-.94-.39.14.14,0,0,0-.1,0c-.08,0-.12.06-.12.15v1.55l-1.06.11v-5.67l1-.09v.37q0,.15.12.15a.12.12,0,0,0,.11,0,1.44,1.44,0,0,1,1.07-.5Zm-1,3a1.11,1.11,0,0,0,1.73,0,1.37,1.37,0,0,0,0-1.7,1.15,1.15,0,0,0-1.73,0,1.27,1.27,0,0,0-.32.84A1.31,1.31,0,0,0,53.57,104.51Z"/><path d="M60.63,101.52v4.21l-.94.12v-.32c0-.11,0-.16-.12-.16a.15.15,0,0,0-.12.09,1,1,0,0,1-.93.45,1.07,1.07,0,0,1-.87-.42,1.36,1.36,0,0,1-.29-.88v-3l1-.09V104c0,.33,0,1,.54,1s.78-.42.78-1.27V101.6Z"/><path d="M61.76,104.65a1.41,1.41,0,0,0,.94.42h0a1,1,0,0,0,.41-.09.38.38,0,0,0,.24-.35v-.06a.29.29,0,0,0-.2-.29,2.48,2.48,0,0,0-.5-.13,2.33,2.33,0,0,1-.92-.37,1.17,1.17,0,0,1-.4-1,1.23,1.23,0,0,1,.2-.69,1.47,1.47,0,0,1,1.34-.68,1.88,1.88,0,0,1,1.38.57l-.65.62a.93.93,0,0,0-.63-.28.77.77,0,0,0-.39.1.35.35,0,0,0-.2.33v0c0,.15.12.26.38.34l.68.15a1.16,1.16,0,0,1,.95,1.27v0a1.17,1.17,0,0,1-.54,1,1.81,1.81,0,0,1-1.1.36,2.6,2.6,0,0,1-1.58-.58Z"/><path d="M83.41,106.15a2.93,2.93,0,0,1,0-5.81c1.58,0,2.57,1.17,2.57,2.9A2.61,2.61,0,0,1,83.41,106.15Zm0-5.11c-1.11,0-1.79.86-1.79,2.21s.69,2.21,1.79,2.21,1.79-.86,1.79-2.21S84.53,101,83.42,101Z"/><path d="M87.08,106V100.3l.72-.11V106Z"/><path d="M90.6,106.39c-.33.9-.75,1.14-1.39,1.14a1.11,1.11,0,0,1-.25,0l-.1-.63a1.63,1.63,0,0,0,.41.06.61.61,0,0,0,.62-.45l.15-.4-1.41-3.83.71-.11,1.06,3.08,1-3h.74Z"/><path d="M97.69,106v-2.64c0-.4-.15-.67-.57-.67a1.61,1.61,0,0,0-1.1.62V106H95.3v-2.64c0-.4-.15-.67-.57-.67a1.61,1.61,0,0,0-1.1.62V106h-.72v-3.87h.58l.09.56a2,2,0,0,1,1.35-.64,1,1,0,0,1,1,.64,2,2,0,0,1,1.36-.64,1,1,0,0,1,1.1,1.14V106Z"/><path d="M101.23,106.1a2.72,2.72,0,0,1-1-.17v1.53l-.72.11v-5.38h.58l.09.56a1.63,1.63,0,0,1,1.26-.64c.84,0,1.53.62,1.53,1.91S102.17,106.1,101.23,106.1Zm.11-3.36a1.38,1.38,0,0,0-1.09.68v1.86a1.86,1.86,0,0,0,.94.21c.61,0,1.06-.5,1.06-1.45S101.87,102.74,101.34,102.74Z"/><path d="M106.47,106l-.09-.56a2.06,2.06,0,0,1-1.37.64,1,1,0,0,1-1.12-1.14v-2.82h.72v2.64c0,.4.17.67.59.67a1.66,1.66,0,0,0,1.12-.62v-2.68H107V106Z"/><path d="M109.36,106.13a3.17,3.17,0,0,1-1.41-.37l.11-.68a2.42,2.42,0,0,0,1.36.45c.5,0,.79-.19.79-.51s-.22-.49-.92-.66c-.91-.23-1.27-.5-1.27-1.19s.52-1.07,1.36-1.07a3.13,3.13,0,0,1,1.27.26l-.11.68a2.47,2.47,0,0,0-1.18-.33c-.44,0-.67.17-.67.45s.19.41.8.56c1,.24,1.39.52,1.39,1.26S110.36,106.13,109.36,106.13Z"/><path d="M137.06,105.13a1.29,1.29,0,0,1,0,.34.78.78,0,0,1-.14.29.71.71,0,0,1-.26.2.94.94,0,0,1-.4.08,1,1,0,0,1-.4-.08.69.69,0,0,1-.26-.2.77.77,0,0,1-.14-.29,1.35,1.35,0,0,1,0-.34v-4a1.38,1.38,0,0,1,0-.34.83.83,0,0,1,.14-.3.7.7,0,0,1,.26-.21.92.92,0,0,1,.4-.08.9.9,0,0,1,.4.08.71.71,0,0,1,.26.21.84.84,0,0,1,.14.3,1.33,1.33,0,0,1,0,.34Zm-1.53,0a1.11,1.11,0,0,0,0,.28.66.66,0,0,0,.11.24.55.55,0,0,0,.21.17.89.89,0,0,0,.65,0,.55.55,0,0,0,.21-.17.66.66,0,0,0,.11-.24,1.12,1.12,0,0,0,0-.28v-4a1.16,1.16,0,0,0,0-.28.68.68,0,0,0-.11-.24.6.6,0,0,0-.21-.17.82.82,0,0,0-.65,0,.59.59,0,0,0-.21.17.68.68,0,0,0-.11.24,1.14,1.14,0,0,0,0,.28Z"/><path d="M137.89,105.86a.11.11,0,0,1,0,.07.1.1,0,0,1-.1.1.11.11,0,0,1-.08,0,.1.1,0,0,1,0-.07.11.11,0,0,1,0-.07v-5.5a.13.13,0,0,1,0-.07.11.11,0,0,1,.11-.11.1.1,0,0,1,.07,0,.11.11,0,0,1,0,.08.13.13,0,0,1,0,.07Z"/><path d="M139.18,106.7q0,.16-.08.32a1.1,1.1,0,0,1-.13.29.66.66,0,0,1-.56.32l0,0h0a.11.11,0,0,1-.11-.11.1.1,0,0,1,0-.07.11.11,0,0,1,.08,0l.06,0a.51.51,0,0,0,.44-.26,1,1,0,0,0,.1-.24l.07-.26.16-.78-.84-3.92,0,0a.15.15,0,0,1,0,0,.1.1,0,0,1,0-.07.11.11,0,0,1,.15,0,.1.1,0,0,1,0,.07.13.13,0,0,1,0,.06l.77,3.56L140,102a0,0,0,0,1,0,0v0a.1.1,0,0,1,.1-.1.11.11,0,0,1,.08,0,.1.1,0,0,1,0,.07.09.09,0,0,1,0,.08l-.84,3.91Z"/><path d="M143.43,105.86a.11.11,0,0,1,0,.07.1.1,0,0,1,0,.07.11.11,0,0,1-.08,0,.1.1,0,0,1-.1-.1.11.11,0,0,1,0-.07v-3.22a1,1,0,0,0,0-.24.6.6,0,0,0-.1-.21A.5.5,0,0,0,143,102a.6.6,0,0,0-.28-.06.62.62,0,0,0-.27.05.5.5,0,0,0-.18.14.58.58,0,0,0-.1.2.94.94,0,0,0,0,.23v3.27a.11.11,0,0,1,0,.07.1.1,0,0,1,0,.07.11.11,0,0,1-.08,0,.1.1,0,0,1-.1-.1.11.11,0,0,1,0-.07v-3.22a1,1,0,0,0,0-.24.6.6,0,0,0-.1-.21.5.5,0,0,0-.18-.15.6.6,0,0,0-.28-.06.64.64,0,0,0-.28.05.49.49,0,0,0-.18.14.55.55,0,0,0-.1.2.86.86,0,0,0,0,.23v3.27a.11.11,0,0,1,0,.07.1.1,0,0,1,0,.07.11.11,0,0,1-.08,0,.1.1,0,0,1-.1-.1.11.11,0,0,1,0-.07V102a.15.15,0,0,1,0-.08.1.1,0,0,1,.1-.1.11.11,0,0,1,.08,0,.1.1,0,0,1,0,.07.15.15,0,0,1,0,.08v.13a.72.72,0,0,1,.24-.23.69.69,0,0,1,.35-.08.72.72,0,0,1,.44.12.66.66,0,0,1,.22.3.62.62,0,0,1,.28-.32.8.8,0,0,1,.39-.1.79.79,0,0,1,.36.07.62.62,0,0,1,.23.19.72.72,0,0,1,.12.26,1.25,1.25,0,0,1,0,.3Z"/><path d="M145.74,105.1a1.47,1.47,0,0,1,0,.34.8.8,0,0,1-.14.3.72.72,0,0,1-.26.21.89.89,0,0,1-.4.08.79.79,0,0,1-.4-.09.77.77,0,0,1-.27-.28v1.82a.13.13,0,0,1,0,.07.11.11,0,0,1-.11.11.1.1,0,0,1-.07,0,.11.11,0,0,1,0-.08.13.13,0,0,1,0-.07V102a.11.11,0,0,1,0-.07.1.1,0,0,1,.1-.1.11.11,0,0,1,.08,0,.1.1,0,0,1,0,.07.11.11,0,0,1,0,.07v.17a.88.88,0,0,1,.27-.25.79.79,0,0,1,.4-.09.89.89,0,0,1,.4.08.72.72,0,0,1,.26.21.8.8,0,0,1,.14.3,1.47,1.47,0,0,1,0,.34Zm-1.51,0a1,1,0,0,0,0,.28.77.77,0,0,0,.13.25.66.66,0,0,0,.21.18.61.61,0,0,0,.3.07.68.68,0,0,0,.33-.07.59.59,0,0,0,.21-.18.69.69,0,0,0,.11-.25,1.24,1.24,0,0,0,0-.28v-2.36a1.24,1.24,0,0,0,0-.28.71.71,0,0,0-.11-.25.56.56,0,0,0-.21-.18.7.7,0,0,0-.33-.07.65.65,0,0,0-.32.07.62.62,0,0,0-.21.18.72.72,0,0,0-.11.25,1.14,1.14,0,0,0,0,.27Z"/><path d="M148,105.86a.11.11,0,0,1,0,.07.1.1,0,0,1,0,.07.11.11,0,0,1-.08,0,.1.1,0,0,1-.1-.1.11.11,0,0,1,0-.07v-.21a.76.76,0,0,1-.27.29.79.79,0,0,1-.4.09.89.89,0,0,1-.4-.08.72.72,0,0,1-.26-.21.8.8,0,0,1-.14-.3,1.47,1.47,0,0,1,0-.34V102a.15.15,0,0,1,0-.08.1.1,0,0,1,.1-.1.11.11,0,0,1,.08,0,.1.1,0,0,1,0,.07.15.15,0,0,1,0,.08v3.11a1.24,1.24,0,0,0,0,.28.71.71,0,0,0,.11.25.56.56,0,0,0,.21.18.7.7,0,0,0,.33.07.71.71,0,0,0,.31-.06.58.58,0,0,0,.21-.16.68.68,0,0,0,.12-.24,1,1,0,0,0,0-.27V102a.15.15,0,0,1,0-.08.1.1,0,0,1,.1-.1.11.11,0,0,1,.08,0,.1.1,0,0,1,0,.07.15.15,0,0,1,0,.08Z"/><path d="M149.92,104.23a1.14,1.14,0,0,1,.17.19.93.93,0,0,1,.11.2,1,1,0,0,1,.05.21,1.54,1.54,0,0,1,0,.2,1.75,1.75,0,0,1,0,.39.83.83,0,0,1-.14.32.69.69,0,0,1-.27.21,1,1,0,0,1-.43.08A1,1,0,0,1,149,106a.75.75,0,0,1-.27-.2.83.83,0,0,1-.16-.29,1.31,1.31,0,0,1-.06-.34l0,0a.13.13,0,0,1,0,0,.11.11,0,0,1,0-.08.1.1,0,0,1,.07,0,.11.11,0,0,1,.11.11.12.12,0,0,1,0,0,1.09,1.09,0,0,0,0,.28.75.75,0,0,0,.13.25.63.63,0,0,0,.22.18.75.75,0,0,0,.34.07.81.81,0,0,0,.37-.07.57.57,0,0,0,.22-.19.71.71,0,0,0,.11-.27,1.82,1.82,0,0,0,0-.31,1,1,0,0,0-.07-.38.92.92,0,0,0-.22-.32l-.92-.82a1,1,0,0,1-.15-.17.74.74,0,0,1-.09-.18.94.94,0,0,1,0-.19,1.8,1.8,0,0,1,0-.21,1.43,1.43,0,0,1,0-.36.82.82,0,0,1,.14-.3.73.73,0,0,1,.26-.21.91.91,0,0,1,.4-.08.85.85,0,0,1,.36.07.68.68,0,0,1,.25.19.82.82,0,0,1,.14.27,1.27,1.27,0,0,1,.06.32.08.08,0,0,1,0,.06.11.11,0,0,1-.11.11.09.09,0,0,1-.07,0,.1.1,0,0,1,0-.08.07.07,0,0,1,0-.06,1.08,1.08,0,0,0,0-.26.66.66,0,0,0-.12-.22.62.62,0,0,0-.2-.16.64.64,0,0,0-.29-.06.71.71,0,0,0-.32.07.6.6,0,0,0-.21.18.7.7,0,0,0-.12.25,1.21,1.21,0,0,0,0,.29,1.23,1.23,0,0,0,.06.38.61.61,0,0,0,.19.26Z"/><path d="M178.18,101.52a1.5,1.5,0,0,1,3,0v3.12a1.5,1.5,0,0,1-3,0Zm.52,3.12a1,1,0,0,0,1.94,0v-3.12a1,1,0,0,0-1.94,0Z"/><path d="M183.3,105.43v.51a1.3,1.3,0,0,1-1.37-1.29v-4.3h.51v4.3A.82.82,0,0,0,183.3,105.43Z"/><path d="M185,107.62a1.8,1.8,0,0,1-1-.42l.34-.4a1.18,1.18,0,0,0,.67.29.73.73,0,0,0,.72-.73v-.8a.76.76,0,0,1-.71.42,1.27,1.27,0,0,1-1.27-1.23V102h.52v2.72a.73.73,0,0,0,.75.71c.38,0,.71-.2.71-.59V102h.52v4.33A1.26,1.26,0,0,1,185,107.62Z"/><path d="M187.51,105.94H187V102h.42l.07.39a.85.85,0,0,1,.77-.45,1.06,1.06,0,0,0,2,0,1.29,1.29,0,0,1,1.23,1.27v2.7H191v-2.7a.74.74,0,1,0-1.48,0v2.7H189v-2.7a.74.74,0,0,0-1.49,0Z"/><path d="M195,103.19v1.54a1.28,1.28,0,0,1-1.27,1.23.86.86,0,0,1-.73-.41v2.07h-.52V102h.45l.06.36a.73.73,0,0,1,.74-.42A1.29,1.29,0,0,1,195,103.19Zm-.52,0a.75.75,0,0,0-.76-.72.68.68,0,0,0-.73.63v1.66a.66.66,0,0,0,.73.67.73.73,0,0,0,.76-.7Z"/><path d="M195.77,104.73V102h.52v2.7a.72.72,0,1,0,1.44,0V102h.51v2.7A1.23,1.23,0,0,1,197,106,1.24,1.24,0,0,1,195.77,104.73Z"/><path d="M200.9,102.93a.89.89,0,0,0-.67-.44.75.75,0,0,0-.56.24.63.63,0,0,0-.18.46c0,.36.3.47.67.49a1.15,1.15,0,0,1,1.23,1.14,1.16,1.16,0,0,1-1.27,1.17,1.45,1.45,0,0,1-1.22-.73l.45-.24a.92.92,0,0,0,.78.45.68.68,0,0,0,.74-.65.65.65,0,0,0-.71-.61c-.66,0-1.19-.29-1.19-1a1.2,1.2,0,0,1,1.25-1.22,1.36,1.36,0,0,1,1.12.66Z"/></svg>