<svg xmlns="http://www.w3.org/2000/svg" id="Default" viewBox="0 0 235.06 133"><defs><style>.cls-1{fill:#00b2db}.cls-2{fill:#d83939}.cls-3,.cls-4,.cls-9{fill:none}.cls-3,.cls-9{stroke:#000;stroke-miterlimit:10}.cls-3{stroke-width:.25px}.cls-5{fill:#18d340}.cls-6{fill:#19b236}.cls-7{fill:#128926}.cls-8{fill:#d64141}.cls-10{fill:#00a4d6}.cls-11{fill:#d14242}.cls-12{fill:#2ba5c1}.cls-13{fill:#0751aa}.cls-14{fill:#69c2d1}.cls-15{fill:#f72b2b}</style></defs><title>Artboard 4</title><circle cx="188.21" cy="52.6" r="8.75"/><path d="M197.82,52.48a1,1,0,1,0,.67,1.19A.83.83,0,0,0,197.82,52.48Z" class="cls-1"/><path d="M177.73,51.25a.63.63,0,1,0,.14-.87A.53.53,0,0,0,177.73,51.25Z" class="cls-1"/><path d="M181.55,47.85c0-.52-.22-.74-.74-.74s-.74.22-.74.74.22.74.74.74S181.55,48.37,181.55,47.85Z" class="cls-1"/><path d="M192.48,57a.78.78,0,1,0,.56-1A.67.67,0,0,0,192.48,57Z" class="cls-1"/><path d="M185.34,54.16c-1.14,0-1.61.47-1.61,1.61s.47,1.61,1.61,1.61,1.61-.47,1.61-1.61S186.47,54.16,185.34,54.16Z" class="cls-1"/><path d="M196.27,44.43a.67.67,0,1,0,0-.94A.57.57,0,0,0,196.27,44.43Z" class="cls-1"/><path d="M79.87,43.08A9.14,9.14,0,1,0,89,52.21,9.14,9.14,0,0,0,79.87,43.08Zm5.78,12.35H74.08a6.62,6.62,0,1,1,11.57,0Z" class="cls-2"/><circle cx="48.66" cy="18.08" r="5.78" class="cls-3"/><circle cx="48.66" cy="18.08" r="9.14" class="cls-3"/><path d="M53.95,10.63a1.86,1.86,0,0,0-.25-2.06,3.45,3.45,0,0,0-1.58-1,7.7,7.7,0,0,0-2.3-.43,5.33,5.33,0,0,0-2.19.37,4.51,4.51,0,0,0-1.55,1.05,1.61,1.61,0,0,0-.42,1.06,8.86,8.86,0,0,0,0,1.76c.07.81.24,1.89.36,2.67a10.11,10.11,0,0,1,.17,1.82,4.07,4.07,0,0,1-.37,1.69,4,4,0,0,1-1.26,1.37c-.57.43-1.3.87-1.89,1.24a15.23,15.23,0,0,0-1.61,1.1,9.75,9.75,0,0,0-1.62,1.59,3.1,3.1,0,0,0-.61,1.54,5.12,5.12,0,0,0,0,1.61,2.81,2.81,0,0,0,.54,1.19,4.74,4.74,0,0,0,2,1.49,5,5,0,0,0,1.57.31,9.39,9.39,0,0,0,2.21-.1,2.34,2.34,0,0,0,1.15-.57,4.44,4.44,0,0,0,.69-.74,14,14,0,0,0,1-1.42c.29-.5.47-.93.71-1.42a12.35,12.35,0,0,1,.86-1.52,6.47,6.47,0,0,1,1-1.2,7,7,0,0,1,1.08-.77,3.65,3.65,0,0,1,1.19-.51A4.6,4.6,0,0,1,57,21.84" class="cls-3"/><path d="M195.19,18.08a5.72,5.72,0,0,1-.58,2.51,5.09,5.09,0,0,0-1.06.1,3.54,3.54,0,0,0-1.18.51,6.56,6.56,0,0,0-1.08.77,5.85,5.85,0,0,0-1,1.19c-.14.22-.28.44-.41.68l-.44,0a5.78,5.78,0,0,1-5.51-4,16.42,16.42,0,0,0,1.41-.94,3.94,3.94,0,0,0,1.26-1.37,4,4,0,0,0,.37-1.69,10.28,10.28,0,0,0-.18-1.82c0-.3-.1-.64-.15-1a5.79,5.79,0,0,1,8.58,5.06Z" class="cls-4"/><path d="M198.55,18.08a9,9,0,0,1-.81,3.75,5.56,5.56,0,0,0-2.5-1.21c-.2,0-.42,0-.63,0a5.72,5.72,0,0,0,.58-2.51A5.79,5.79,0,0,0,186.61,13c-.08-.58-.17-1.18-.21-1.68a9.13,9.13,0,0,1,0-1.76s0-.1,0-.14a9.24,9.24,0,0,1,3-.5,9.14,9.14,0,0,1,9.14,9.14Z" class="cls-5"/><path d="M183.63,18.08a5.62,5.62,0,0,0,.27,1.75l-.47.29a14.52,14.52,0,0,0-1.62,1.11c-.23.18-.48.39-.72.62a9,9,0,0,1-.82-3.77,9.15,9.15,0,0,1,6.15-8.64s0,.09,0,.14a9.13,9.13,0,0,0,0,1.76c0,.5.13,1.1.21,1.68A5.78,5.78,0,0,0,183.63,18.08Z" class="cls-6"/><path d="M186.94,15.83a4,4,0,0,1-.37,1.69,3.94,3.94,0,0,1-1.26,1.37,16.42,16.42,0,0,1-1.41.94,5.62,5.62,0,0,1-.27-1.75,5.78,5.78,0,0,1,3-5.06c.05.35.1.69.15,1A10.28,10.28,0,0,1,186.94,15.83Z" class="cls-7"/><path d="M190.26,23.16c-.14.22-.28.44-.41.68l-.44,0a5.78,5.78,0,0,1-5.51-4,16.42,16.42,0,0,0,1.41-.94,3.94,3.94,0,0,0,1.26-1.37,4,4,0,0,0,.37-1.69,10.28,10.28,0,0,0-.18-1.82c0-.3-.1-.64-.15-1a5.79,5.79,0,0,1,8.58,5.06,5.72,5.72,0,0,1-.58,2.51,5.09,5.09,0,0,0-1.06.1,3.54,3.54,0,0,0-1.18.51,6.56,6.56,0,0,0-1.08.77A5.85,5.85,0,0,0,190.26,23.16Z" class="cls-4"/><path d="M197.74,21.83a9.15,9.15,0,0,1-8.33,5.38A7.69,7.69,0,0,1,188,27.1a8.06,8.06,0,0,0,.65-1c.29-.5.47-.93.71-1.43.13-.27.28-.56.45-.84a5.77,5.77,0,0,0,4.76-3.25c.21,0,.43,0,.63,0A5.56,5.56,0,0,1,197.74,21.83Z" class="cls-6"/><path d="M189.85,23.84c-.17.28-.32.57-.45.84-.24.5-.42.93-.71,1.43a8.06,8.06,0,0,1-.65,1,9.11,9.11,0,0,1-6.95-5.25c.24-.23.49-.44.72-.62a14.52,14.52,0,0,1,1.62-1.11l.47-.29a5.78,5.78,0,0,0,5.51,4Z" class="cls-5"/><path d="M194.61,20.59a5.77,5.77,0,0,1-4.76,3.25c.13-.24.27-.46.41-.68a5.85,5.85,0,0,1,1-1.19,6.56,6.56,0,0,1,1.08-.77,3.54,3.54,0,0,1,1.18-.51A5.09,5.09,0,0,1,194.61,20.59Z" class="cls-7"/><path d="M188,27.1c-.11.16-.22.31-.32.43a3.9,3.9,0,0,1-.69.74,2.27,2.27,0,0,1-1.15.57,8.92,8.92,0,0,1-2.21.1,5.09,5.09,0,0,1-1.58-.3A4.35,4.35,0,0,1,181,28a4.94,4.94,0,0,1-.86-.85,2.78,2.78,0,0,1-.54-1.19,4.83,4.83,0,0,1,0-1.61,3.06,3.06,0,0,1,.61-1.54,7.19,7.19,0,0,1,.9-1A9.11,9.11,0,0,0,188,27.1Z" class="cls-7"/><path d="M194.69,10.62a9.09,9.09,0,0,0-5.28-1.68,9.24,9.24,0,0,0-3,.5,1.54,1.54,0,0,1,.4-.92,4.47,4.47,0,0,1,1.56-1,5.06,5.06,0,0,1,2.18-.37,7.75,7.75,0,0,1,2.3.42,3.51,3.51,0,0,1,1.58,1A1.85,1.85,0,0,1,194.69,10.62Z" class="cls-7"/><path d="M95.58,8.94a9.14,9.14,0,1,0,9.14,9.14A9.14,9.14,0,0,0,95.58,8.94Zm0,14.92a5.78,5.78,0,1,1,5.78-5.78A5.78,5.78,0,0,1,95.58,23.86Z" class="cls-8"/><path d="M100.86,10.63a1.86,1.86,0,0,0-.25-2.06,3.45,3.45,0,0,0-1.58-1,7.7,7.7,0,0,0-2.3-.43,5.33,5.33,0,0,0-2.19.37A4.51,4.51,0,0,0,93,8.52a1.61,1.61,0,0,0-.42,1.06,8.86,8.86,0,0,0,0,1.76c.07.81.24,1.89.36,2.67a10.11,10.11,0,0,1,.17,1.82,4.07,4.07,0,0,1-.37,1.69,4,4,0,0,1-1.26,1.37c-.57.43-1.3.87-1.89,1.24A15.23,15.23,0,0,0,88,21.23a9.75,9.75,0,0,0-1.62,1.59,3.1,3.1,0,0,0-.61,1.54,5.12,5.12,0,0,0,0,1.61,2.81,2.81,0,0,0,.54,1.19,4.74,4.74,0,0,0,2,1.49,5,5,0,0,0,1.57.31,9.39,9.39,0,0,0,2.21-.1,2.34,2.34,0,0,0,1.15-.57,4.44,4.44,0,0,0,.69-.74,14,14,0,0,0,1-1.42c.29-.5.47-.93.71-1.42a12.35,12.35,0,0,1,.86-1.52,6.47,6.47,0,0,1,1-1.2,7,7,0,0,1,1.08-.77,3.65,3.65,0,0,1,1.19-.51,4.6,4.6,0,0,1,4.19,1.14" class="cls-3"/><path d="M142.5,8.94a9.14,9.14,0,1,0,9.14,9.14A9.14,9.14,0,0,0,142.5,8.94Zm0,14.92a5.78,5.78,0,1,1,5.78-5.78A5.78,5.78,0,0,1,142.5,23.86Z" class="cls-8"/><path d="M147.78,10.63a1.86,1.86,0,0,0-.25-2.06,3.45,3.45,0,0,0-1.58-1,7.7,7.7,0,0,0-2.3-.43,5.33,5.33,0,0,0-2.19.37,4.51,4.51,0,0,0-1.55,1.05,1.61,1.61,0,0,0-.42,1.06,8.86,8.86,0,0,0,0,1.76c.07.81.24,1.89.36,2.67a10.11,10.11,0,0,1,.17,1.82,4.07,4.07,0,0,1-.37,1.69,4,4,0,0,1-1.26,1.37c-.57.43-1.3.87-1.89,1.24a15.23,15.23,0,0,0-1.61,1.1,9.75,9.75,0,0,0-1.62,1.59,3.1,3.1,0,0,0-.61,1.54,5.12,5.12,0,0,0,0,1.61,2.81,2.81,0,0,0,.54,1.19,4.74,4.74,0,0,0,2,1.49,5,5,0,0,0,1.57.31,9.39,9.39,0,0,0,2.21-.1,2.34,2.34,0,0,0,1.15-.57,4.44,4.44,0,0,0,.69-.74,14,14,0,0,0,1-1.42c.29-.5.47-.93.71-1.42a12.35,12.35,0,0,1,.86-1.52,6.47,6.47,0,0,1,1-1.2,7,7,0,0,1,1.08-.77,3.65,3.65,0,0,1,1.19-.51,4.6,4.6,0,0,1,4.19,1.14" class="cls-9"/><path d="M43.8,41.21a5,5,0,0,0-5,5V56.32a5,5,0,0,0,10.07,0V46.25A5,5,0,0,0,43.8,41.21Zm3.36,15.11a3.36,3.36,0,0,1-6.71,0V46.25a3.36,3.36,0,1,1,6.71,0Z" class="cls-10"/><path d="M181.8,110.34a7.88,7.88,0,1,0,11.2,0,9.14,9.14,0,1,1-11.2,0Z"/><path d="M191.6,121.52a7,7,0,1,0-8.41,0,5.78,5.78,0,1,1,8.41,0Z"/><path d="M115.93,43.07a9.14,9.14,0,1,0,9.14,9.14A9.14,9.14,0,0,0,115.93,43.07Zm0,14.92a5.78,5.78,0,1,1,5.79-5.78A5.78,5.78,0,0,1,115.93,58Z" class="cls-11"/><circle cx="115.93" cy="50.08" r="2.24" class="cls-11"/><circle cx="115.93" cy="40.54" r="1.57" class="cls-11"/><path d="M151.73,43.13a9.11,9.11,0,1,0,9.11,9.11A9.1,9.1,0,0,0,151.73,43.13Zm0,14.87a5.76,5.76,0,1,1,5.77-5.76A5.76,5.76,0,0,1,151.73,58Z" class="cls-11"/><circle cx="150.16" cy="53.77" r="1.84" class="cls-11"/><circle cx="160.61" cy="43.25" r=".74" class="cls-11"/><path d="M87.81,111.61a9,9,0,1,0-.46,12.77A9,9,0,0,0,87.81,111.61Zm-2.11,11a6.61,6.61,0,1,1,.33-9.34A6.61,6.61,0,0,1,85.7,122.6Z" class="cls-12"/><path d="M84.31,114.65c1.56,1.56,1.56,4.67-.32,5.45s-5.64-.78-7.2-2.34-.91-3.11,1-3.89S82.76,113.09,84.31,114.65Z"/><path d="M39.19,123.92a9,9,0,1,0,.46-12.77A9,9,0,0,0,39.19,123.92Zm2.11-11a6.61,6.61,0,1,1-.33,9.34A6.61,6.61,0,0,1,41.3,112.93Z" class="cls-12"/><path d="M42.69,120.88c-1.56-1.56-1.56-4.67.32-5.45s5.64.78,7.2,2.34.91,3.11-1,3.89S44.25,122.44,42.69,120.88Z"/><path d="M110,123.92a9,9,0,1,0,.46-12.77A9,9,0,0,0,110,123.92Zm2.11-11a6.61,6.61,0,1,1-.33,9.34A6.61,6.61,0,0,1,112.1,112.93Z" class="cls-13"/><path d="M113.49,120.88c-1.56-1.56-1.56-4.67.32-5.45s5.64.78,7.2,2.34.91,3.11-1,3.89S115,122.44,113.49,120.88Z" class="cls-13"/><path d="M56.07,85.33A9.66,9.66,0,1,0,47,95.54,9.66,9.66,0,0,0,56.07,85.33ZM46.79,92a6.11,6.11,0,1,1,5.74-6.46A6.11,6.11,0,0,1,46.79,92Z" class="cls-14"/><path d="M55.17,75c0,1.56.65,2.21,2.21,2.21s2.21-.65,2.21-2.21-.65-2.21-2.21-2.21S55.17,73.39,55.17,75Z" class="cls-14"/><path d="M91.07,85.33A9.66,9.66,0,1,0,82,95.54,9.67,9.67,0,0,0,91.07,85.33ZM81.78,92a6.11,6.11,0,1,1,5.74-6.46A6.11,6.11,0,0,1,81.78,92Z" class="cls-14"/><path d="M90.81,76.51c1.1,1.1,2,1.1,3.12,0s1.1-2,0-3.12-2-1.1-3.12,0S89.71,75.41,90.81,76.51Z" class="cls-14"/><path d="M126.3,75.8c1.1,1.1,2,1.1,3.12,0s1.1-2,0-3.12-2-1.1-3.12,0S125.19,74.69,126.3,75.8Z" class="cls-14"/><path d="M123.73,78.28c-4.83-4.83-8.83-4.83-13.66,0s-4.82,8.83,0,13.66,8.83,4.83,13.66,0S128.56,83.11,123.73,78.28Zm-6.46,12.93A6.11,6.11,0,1,1,123,84.75,6.11,6.11,0,0,1,117.27,91.21Z" class="cls-14"/><path d="M161.39,75.8c1.1,1.1,2,1.1,3.12,0s1.1-2,0-3.12-2-1.1-3.12,0S160.28,74.69,161.39,75.8Z" class="cls-14"/><path d="M145.17,78.28c-4.83,4.83-4.83,8.83,0,13.66s8.83,4.83,13.66,0,4.83-8.83,0-13.66S150,73.45,145.17,78.28Z" class="cls-14"/><path d="M161.5,107.33a3.36,3.36,0,0,0-5.62,1.54H143.19c-1.19,0-1.68.49-1.68,1.68v15.1c0,1.18.49,1.68,1.68,1.68h15.1c1.19,0,1.68-.5,1.68-1.68V113A3.36,3.36,0,0,0,161.5,107.33ZM158.29,124c0,1.19-.49,1.68-1.68,1.68H144.86c-1.18,0-1.67-.49-1.67-1.68V112.22c0-1.18.49-1.67,1.67-1.67h11a2.94,2.94,0,0,0,2.41,2.41Z" class="cls-15"/><circle cx="154.28" cy="114.6" r="2.37" class="cls-15" transform="translate(-31.86 162.41) rotate(-51.01)"/><circle cx="150.74" cy="118.09" r="1.67" class="cls-15"/><path d="M196.47,75.8c1.1,1.1,2,1.1,3.12,0s1.1-2,0-3.12-2-1.1-3.12,0S195.37,74.69,196.47,75.8Z" class="cls-14"/><path d="M193.91,78.28c-4.83-4.83-8.83-4.83-13.66,0s-4.83,8.83,0,13.66,8.83,4.83,13.66,0S198.74,83.11,193.91,78.28Zm-2.78,10.87c-2.86,2.85-5.23,2.85-8.09,0s-2.85-5.23,0-8.09,5.23-2.86,8.09,0S194,86.29,191.13,89.15Z" class="cls-14"/></svg>