<svg xmlns="http://www.w3.org/2000/svg" id="Default" viewBox="0 0 235.06 104"><defs><style>.cls-1{fill:#13bbe2}.cls-2{fill:#8804bf}.cls-3{fill:#00dd10}.cls-4,.cls-5,.cls-6{fill:none;stroke:#000;stroke-miterlimit:10}.cls-4{stroke-width:.77px}.cls-5{stroke-width:2px}.cls-7{fill:#f7f7f7}.cls-8{fill:#f9e02b}</style></defs><title>Artboard 7</title><path d="M55,17.21a9.14,9.14,0,1,0-8.58,9.66A9.13,9.13,0,0,0,55,17.21Zm-8.77,6.31a5.78,5.78,0,1,1,5.42-6.11A5.78,5.78,0,0,1,46.25,23.52Z" class="cls-1"/><path d="M54.18,7.39c0,1.48.61,2.09,2.09,2.09s2.09-.61,2.09-2.09S57.75,5.3,56.27,5.3,54.18,5.91,54.18,7.39Z" class="cls-1"/><path d="M101.3,14.18a6.27,6.27,0,0,1-4.93-4.94c-9.24-3.83-17,7.83-10,14.9S105.14,23.42,101.3,14.18Zm-8.09,9.27a5.78,5.78,0,1,1,5.42-6.11A5.78,5.78,0,0,1,93.21,23.45Z" class="cls-2"/><path d="M101.14,7.32c0,1.48.61,2.09,2.09,2.09s2.09-.61,2.09-2.09-.61-2.09-2.09-2.09S101.14,5.84,101.14,7.32Z" class="cls-2"/><path d="M148.88,17.21a9.14,9.14,0,1,0-8.58,9.66A9.14,9.14,0,0,0,148.88,17.21Zm-12.26,7.42A3.36,3.36,0,1,1,140,21.28,3.36,3.36,0,0,1,136.62,24.63Z" class="cls-3"/><path d="M148,7.39c0,1.48.61,2.09,2.09,2.09s2.09-.61,2.09-2.09-.61-2.09-2.09-2.09S148,5.91,148,7.39Z" class="cls-3"/><circle cx="185.66" cy="17.75" r="9.14" transform="translate(-0.72 11.01) rotate(-3.39)"/><polyline points="200.16 6.5 200.16 3.6 191.49 3.6 191.49 6.5 197.25 6.5 197.25 12.27 200.16 12.27 200.16 3.6 197.25 3.6"/><path d="M87.9,74.82c-6.39,3.84-6.14,18.75.38,22.37s19.31-4.05,19.18-11.51S94.3,71,87.9,74.82Z" class="cls-4"/><path d="M94.55,73C87.09,73,79.64,85.9,83.36,92.36s18.64,6.46,22.37,0S102,73,94.55,73Z" class="cls-4"/><path d="M49.69,73C42.23,73,34.78,85.9,38.51,92.36s18.64,6.46,22.37,0S57.15,73,49.69,73Z" class="cls-4"/><path d="M130.89,76.81c-5.35,5.19-1.72,19.65,5.45,21.69s17.88-8.34,16.06-15.57S136.24,71.62,130.89,76.81Z" class="cls-4"/><path d="M139.86,73C132.41,73,125,85.9,128.68,92.36s18.64,6.46,22.37,0S147.32,73,139.86,73Z" class="cls-4"/><path d="M174.27,79.75c-3.77,6.43,3.59,19.4,11,19.45s15-12.81,11.32-19.29S178,73.32,174.27,79.75Z" class="cls-4"/><path d="M185.33,73c-7.46,0-14.91,12.91-11.18,19.37s18.64,6.46,22.37,0S192.78,73,185.33,73Z" class="cls-4"/><path d="M189.64,42.09,178,53.69a8.75,8.75,0,0,1-.48-2.41,9.16,9.16,0,0,1,8.59-9.67A9,9,0,0,1,189.64,42.09Z"/><path d="M187.23,59.86a9.14,9.14,0,0,1-8.49-4.62L191.2,42.79a9.14,9.14,0,0,1-4,17.07Z"/><polygon points="195.33 38.66 194.19 37.52 190.79 40.92 191.93 42.06 194.19 39.8 196.46 42.06 197.6 40.92 194.19 37.52 193.05 38.66 195.33 38.66"/><circle cx="140.6" cy="50.74" r="9.14" class="cls-5" transform="translate(-2.76 8.41) rotate(-3.39)"/><circle cx="140.6" cy="50.74" r="5.78" class="cls-6" transform="translate(-2.76 8.41) rotate(-3.39)"/><circle cx="93.62" cy="50.74" r="9.14" class="cls-5" transform="translate(-2.84 5.63) rotate(-3.39)"/><circle cx="94.58" cy="50.74" r="5.78" class="cls-6" transform="translate(-2.84 5.68) rotate(-3.39)"/><circle cx="46.65" cy="50.74" r="9.14" class="cls-7" transform="translate(-2.92 2.85) rotate(-3.39)"/><circle cx="47.6" cy="50.74" r="5.78" class="cls-8" transform="translate(-2.92 2.91) rotate(-3.39)"/></svg>