<svg id="Default" xmlns="http://www.w3.org/2000/svg" viewBox="0 0 235.06 144.4"><defs><style>.cls-1,.cls-10,.cls-3,.cls-9{fill:none;stroke:#000;}.cls-1,.cls-3{stroke-miterlimit:10;}.cls-1{stroke-width:0.43px;}.cls-2{fill:#7200cc;}.cls-3{stroke-width:0.87px;}.cls-4{fill:#a30fe8;}.cls-5{fill:#04afbc;}.cls-6{fill:#15c1ce;}.cls-7{fill:#e88b10;}.cls-8{fill:#00cfff;}.cls-10,.cls-9{stroke-linecap:round;stroke-linejoin:round;}.cls-9{stroke-width:0.47px;}.cls-10{stroke-width:0.89px;}</style></defs><title>Artboard 8</title><path class="cls-1" d="M180.82,99.46a1.45,1.45,0,0,0,2.11-2c-6.2-6.7,2-16.84,9.84-12.18s2.89,16.71-6,14.48"/><path class="cls-1" d="M188.26,90a1.45,1.45,0,1,1-.67-2.83c8.25-1.95,8.18,11.76,0,9.72"/><path class="cls-1" d="M187.67,97c-1.88-.41-2.24,2.87-.32,2.87"/><circle class="cls-1" cx="188.74" cy="92.09" r="10.82" transform="translate(-12.15 153.3) rotate(-42.96)"/><path class="cls-1" d="M190.27,90.66a2.09,2.09,0,1,1-3-.11A1.79,1.79,0,0,1,190.27,90.66Z"/><path class="cls-1" d="M76.53,99.46a1.45,1.45,0,0,0,2.11-2A7.91,7.91,0,1,1,92.29,91"/><path class="cls-1" d="M85.89,93.63c1.17-1.54,3.55.5,2.2,1.89a5,5,0,1,1,1.29-4.25c.32,1.9,3.5,1,2.79-.77"/><circle class="cls-1" cx="84.45" cy="92.09" r="10.82" transform="translate(-40.11 82.24) rotate(-42.96)"/><path class="cls-1" d="M86,90.66a2.09,2.09,0,1,1-3.07,2.85A2.09,2.09,0,1,1,86,90.66Z"/><path d="M127.48,91.35h0l-.85.1a.16.16,0,0,0,0-.09,2,2,0,0,0-.07-.35,7.35,7.35,0,0,0-3.74-5.13A7.48,7.48,0,0,0,111.87,91a7.35,7.35,0,0,0,1.85,6.5,1.86,1.86,0,0,1,.47,1.78,2,2,0,0,1-1.33,1.33s-.09,0-.12.05a3.36,3.36,0,0,1-.42,0,1.85,1.85,0,0,1-1.35-.61l.64-.61a.91.91,0,0,0,.19.17.87.87,0,0,0,.73.16,1.18,1.18,0,0,0,.83-.78.94.94,0,0,0-.28-1A8.34,8.34,0,1,1,127.41,91c0,.05,0,.1,0,.16S127.47,91.28,127.48,91.35Z"/><path d="M127.47,91.35a1.57,1.57,0,0,1-.43,1.11,2.23,2.23,0,0,1-2.17.61,1.6,1.6,0,0,1-1.14-1.35,4.58,4.58,0,1,0-1.2,3.88.83.83,0,0,0,.24-.9,1.25,1.25,0,0,0-.94-.8.78.78,0,0,0-.69.21l-.16.16-.69-.52a.24.24,0,0,1,.05-.07l.24-.24a1.7,1.7,0,0,1,1.23-.4.48.48,0,0,1,.16,0,2.06,2.06,0,0,1,1.61,1.39,1.67,1.67,0,0,1-.43,1.75,5.22,5.22,0,0,1-3.88,1.73,5.6,5.6,0,0,1-2.79-.76,5.43,5.43,0,1,1,8.09-5.58.74.74,0,0,0,.55.66,1.33,1.33,0,0,0,1.26-.36.69.69,0,0,0,.21-.5.88.88,0,0,0-.07-.35l.8-.31a1.53,1.53,0,0,1,.09.26c0,.05,0,.1,0,.16S127.47,91.28,127.47,91.35Z"/><path d="M127.45,84.8a11.25,11.25,0,1,0-8.65,18.9h.42a11.24,11.24,0,0,0,8.23-18.9Zm-1.16,15.26a10.3,10.3,0,0,1-7.45,2.77,10.18,10.18,0,0,1-6-2.18,6.83,6.83,0,0,1-1.06-1,.91.91,0,0,1-.19-.17,10.37,10.37,0,0,1,7.59-17.45h.38a10.39,10.39,0,0,1,6.71,18Z"/><path class="cls-2" d="M126.29,100.06a10.3,10.3,0,0,1-7.45,2.77,10.18,10.18,0,0,1-6-2.18,2,2,0,0,0,1.33-1.33,1.86,1.86,0,0,0-.47-1.78A7.47,7.47,0,0,1,116,85.7a7.42,7.42,0,0,1,6.77.19A7.35,7.35,0,0,1,126.53,91a2,2,0,0,1,.07.35.69.69,0,0,1-.21.5,1.33,1.33,0,0,1-1.26.36.74.74,0,0,1-.55-.66,5.44,5.44,0,1,0-8.09,5.58,5.6,5.6,0,0,0,2.79.76,5.22,5.22,0,0,0,3.88-1.73,1.67,1.67,0,0,0,.43-1.75A2.06,2.06,0,0,0,122,93a.48.48,0,0,0-.16,0,1.37,1.37,0,0,0,.09-.52,2.63,2.63,0,0,0-.85-1.77c-1.18-1.26-2.3-1.32-3.57-.14a2.55,2.55,0,0,0-1,1.77,2.48,2.48,0,0,0,.85,1.82,2.55,2.55,0,0,0,1.8,1,2.63,2.63,0,0,0,1.77-.85l.05-.05.16-.16a.78.78,0,0,1,.69-.21,1.25,1.25,0,0,1,.94.8.83.83,0,0,1-.24.9,4.56,4.56,0,1,1,1.2-3.88,1.6,1.6,0,0,0,1.14,1.35,2.23,2.23,0,0,0,2.17-.61,1.57,1.57,0,0,0,.43-1.11h0c0-.07,0-.16,0-.23s0-.1,0-.16a8.34,8.34,0,1,0-14.33,7.16.94.94,0,0,1,.28,1,1.18,1.18,0,0,1-.83.78.87.87,0,0,1-.73-.16.91.91,0,0,1-.19-.17,10.37,10.37,0,0,1,7.59-17.45h.38a10.39,10.39,0,0,1,6.71,18Z"/><path d="M121.06,90.74c-1.18-1.26-2.3-1.32-3.57-.14a2.55,2.55,0,0,0-1,1.77,2.48,2.48,0,0,0,.85,1.82,2.55,2.55,0,0,0,1.8,1,2.63,2.63,0,0,0,1.77-.85l.05-.05.16-.16a2.64,2.64,0,0,0,.68-1.07,1.37,1.37,0,0,0,.09-.52A2.63,2.63,0,0,0,121.06,90.74Zm-.71,2.93c-.92.85-1.51.83-2.36-.09a1.79,1.79,0,0,1-.61-1.2,1.77,1.77,0,0,1,.69-1.14,1.38,1.38,0,0,1,2.36.09c.74.81.81,1.37.16,2.1Z"/><path class="cls-2" d="M120.59,93.43l-.24.24c-.92.85-1.51.83-2.36-.09a1.79,1.79,0,0,1-.61-1.2,1.77,1.77,0,0,1,.69-1.14,1.38,1.38,0,0,1,2.36.09C121.18,92.15,121.25,92.7,120.59,93.43Z"/><path class="cls-2" d="M161.05,100.06a10.3,10.3,0,0,1-7.45,2.77,10.18,10.18,0,0,1-6-2.18A2,2,0,0,0,149,99.31a1.86,1.86,0,0,0-.47-1.78,7.47,7.47,0,0,1,2.29-11.83,7.42,7.42,0,0,1,6.77.19A7.35,7.35,0,0,1,161.3,91a2,2,0,0,1,.07.35.69.69,0,0,1-.21.5,1.33,1.33,0,0,1-1.26.36.74.74,0,0,1-.55-.66,5.44,5.44,0,1,0-8.09,5.58,5.6,5.6,0,0,0,2.79.76,5.22,5.22,0,0,0,3.88-1.73,1.67,1.67,0,0,0,.43-1.75A2.06,2.06,0,0,0,156.74,93a.48.48,0,0,0-.16,0,1.37,1.37,0,0,0,.09-.52,2.63,2.63,0,0,0-.85-1.77c-1.18-1.26-2.3-1.32-3.57-.14a2.55,2.55,0,0,0-1,1.77,2.48,2.48,0,0,0,.85,1.82,2.55,2.55,0,0,0,1.8,1,2.63,2.63,0,0,0,1.77-.85l.05-.05.16-.16a.78.78,0,0,1,.69-.21,1.25,1.25,0,0,1,.94.8.83.83,0,0,1-.24.9,4.56,4.56,0,1,1,1.2-3.88,1.6,1.6,0,0,0,1.14,1.35,2.23,2.23,0,0,0,2.17-.61,1.57,1.57,0,0,0,.43-1.11h0c0-.07,0-.16,0-.23s0-.1,0-.16a8.34,8.34,0,1,0-14.33,7.16.94.94,0,0,1,.28,1,1.18,1.18,0,0,1-.83.78.87.87,0,0,1-.73-.16.91.91,0,0,1-.19-.17A10.37,10.37,0,0,1,154,82.07h.38a10.39,10.39,0,0,1,6.71,18Z"/><path class="cls-2" d="M155.35,93.42l-.24.24c-.92.85-1.51.83-2.36-.09a1.79,1.79,0,0,1-.61-1.2,1.77,1.77,0,0,1,.69-1.14,1.38,1.38,0,0,1,2.36.09C155.94,92.14,156,92.69,155.35,93.42Z"/><path class="cls-3" d="M54.07,94.5a5,5,0,1,1-5.77-7.22,1.45,1.45,0,1,0-.81-2.79,7.91,7.91,0,0,0-3.6,13,1.45,1.45,0,0,1-2.11,2"/><path class="cls-3" d="M51.22,90.66a2.09,2.09,0,0,1-3.07,2.85,2.09,2.09,0,1,1,3.07-2.85Z"/><path class="cls-3" d="M54,94.6c1.06-1.61-1.86-3.12-2.57-1.33"/><circle class="cls-3" cx="49.69" cy="92.09" r="10.82" transform="translate(-49.43 58.55) rotate(-42.96)"/><path class="cls-4" d="M127.13,47.23a10.82,10.82,0,1,0-.54,15.28A10.8,10.8,0,0,0,127.13,47.23ZM114.31,63.41l-.09-.05A10.08,10.08,0,0,1,114,45.95l2,.49c-.17.68-.35,1.33-.5,2a7.18,7.18,0,0,0,.21,12.44C117.22,61.68,115.84,64.28,114.31,63.41Zm9.3-4.09a6.46,6.46,0,1,1,.33-9.13A6.46,6.46,0,0,1,123.61,59.32Z"/><path class="cls-5" d="M161.89,47.21a10.82,10.82,0,1,0-.54,15.3A10.81,10.81,0,0,0,161.89,47.21Zm-3.52,12.09a6.45,6.45,0,1,1,.33-9.11A6.46,6.46,0,0,1,158.38,59.31Z"/><path d="M150.49,60.87a7.18,7.18,0,0,1-.21-12.44l.5-2-2-.5a10.09,10.09,0,0,0,.29,17.47l-.09-.05c1.61,1.06,3.12-1.86,1.33-2.57"/><path class="cls-6" d="M57.61,47.23a10.82,10.82,0,1,0-.55,15.28A10.82,10.82,0,0,0,57.61,47.23ZM56.57,62a10.09,10.09,0,1,1,.5-14.26A10.1,10.1,0,0,1,56.57,62Z"/><path class="cls-6" d="M54.94,49.71a7.18,7.18,0,1,0-.36,10.14A7.18,7.18,0,0,0,54.94,49.71Zm-.85,9.62a6.46,6.46,0,1,1,.33-9.13A6.46,6.46,0,0,1,54.09,59.32Z"/><path d="M81.71,62.14c0-1-.43-1.45-1.45-1.45s-1.45.43-1.45,1.45.43,1.45,1.45,1.45S81.71,63.17,81.71,62.14Z"/><path class="cls-6" d="M92.37,47.23a10.82,10.82,0,1,0-.55,15.28A10.82,10.82,0,0,0,92.37,47.23ZM91.33,62a10.09,10.09,0,1,1,.5-14.26A10.1,10.1,0,0,1,91.33,62Z"/><path class="cls-6" d="M89.7,49.71a7.18,7.18,0,1,0-.36,10.14A7.18,7.18,0,0,0,89.7,49.71Zm-.85,9.62a6.46,6.46,0,1,1,.33-9.13A6.46,6.46,0,0,1,88.85,59.32Z"/><rect x="78.98" y="46.16" width="2.06" height="2.06" transform="translate(14.82 113.36) rotate(-75.96)"/><path class="cls-7" d="M196.65,47.23a10.81,10.81,0,1,0-.54,15.28A10.8,10.8,0,0,0,196.65,47.23Zm-3.93,9.29h-2.44l-.55,2.39L188.2,57,186,58.06l.54-2.39-2.2-1.07,2.2-1.07L186,51.13l2.22,1.06,1.52-1.91.55,2.39h2.44l-1.51,1.92Z"/><path d="M50,12a6.69,6.69,0,1,1-6.69,6.69A6.7,6.7,0,0,1,50,12M50,8.9a9.78,9.78,0,1,0,9.78,9.78A9.78,9.78,0,0,0,50,8.9Z"/><circle cx="35.29" cy="18.67" r="3.48"/><path class="cls-8" d="M103.92,20.29a9.64,9.64,0,0,1-.65,3.47H99.85a6.51,6.51,0,0,0,1-3.47,6.69,6.69,0,0,0-13.39,0,6.51,6.51,0,0,0,1,3.47H85a9.64,9.64,0,0,1-.65-3.47,9.78,9.78,0,0,1,19.56,0Z"/><circle cx="79.43" cy="20.28" r="3.48"/><path class="cls-8" d="M148.41,20.29a9.64,9.64,0,0,1-.65,3.47h-3.43a6.51,6.51,0,0,0,1-3.47,6.69,6.69,0,0,0-13.39,0,6.51,6.51,0,0,0,1,3.47H129.5a9.64,9.64,0,0,1-.65-3.47,9.78,9.78,0,0,1,19.56,0Z"/><circle cx="123.91" cy="20.28" r="3.48"/><path class="cls-8" d="M140.25,4.49A9.77,9.77,0,0,1,153.17,17.4Z"/><path class="cls-8" d="M196.08,20.29a9.64,9.64,0,0,1-.65,3.47H192a6.51,6.51,0,0,0,1-3.47,6.58,6.58,0,0,0-1-3.49H180.61a6.58,6.58,0,0,0-1,3.49,6.51,6.51,0,0,0,1,3.47h-3.43a9.67,9.67,0,0,1,0-7h0a.3.3,0,0,1,0-.15,2.18,2.18,0,0,1,.12-.28,5.43,5.43,0,0,1,.36-.74,5.89,5.89,0,0,1,.4-.66.88.88,0,0,1,.19-.28,5.86,5.86,0,0,1,.46-.62,9.14,9.14,0,0,1,.63-.69,9.83,9.83,0,0,1,4-2.42,9.33,9.33,0,0,1,.94-.23,9.19,9.19,0,0,1,1-.15c.32,0,.65,0,1,0s.68,0,1,0a11.37,11.37,0,0,1,1.91.39,9.83,9.83,0,0,1,4,2.42,9.14,9.14,0,0,1,.63.69,5.85,5.85,0,0,1,.46.62.88.88,0,0,1,.19.28,5.83,5.83,0,0,1,.4.66,5.38,5.38,0,0,1,.36.74,2.19,2.19,0,0,1,.12.28.3.3,0,0,1,0,.15h0A9.66,9.66,0,0,1,196.08,20.29Z"/><path class="cls-8" d="M177.17,16.8l.06-.15a.3.3,0,0,0,0,.15Z"/><path class="cls-8" d="M179.39,13.37a9.51,9.51,0,0,1,4-2.42A9.83,9.83,0,0,0,179.39,13.37Z"/><path class="cls-8" d="M186.31,10.5a6.94,6.94,0,0,1,1,.06c-.32,0-.66,0-1,0s-.66,0-1,0A7.16,7.16,0,0,1,186.31,10.5Z"/><path class="cls-8" d="M187.29,10.56a8,8,0,0,1,1.91.39A11.37,11.37,0,0,0,187.29,10.56Z"/><path class="cls-8" d="M189.21,10.95a9.5,9.5,0,0,1,4,2.42A9.83,9.83,0,0,0,189.21,10.95Z"/><circle class="cls-9" cx="49.58" cy="128.5" r="4.95" transform="translate(-74.27 68.24) rotate(-42.96)"/><circle class="cls-9" cx="49.58" cy="128.5" r="2.07" transform="translate(-74.27 68.24) rotate(-42.96)"/><circle class="cls-9" cx="49.58" cy="128.5" r="10.71" transform="translate(-74.27 68.24) rotate(-42.96)"/><path class="cls-9" d="M50.68,117.85a1.44,1.44,0,0,0-.25,2.87"/><path class="cls-9" d="M45.73,125.38a1.44,1.44,0,1,0-2.4-1.55"/><path class="cls-9" d="M54.51,128.94a1.44,1.44,0,1,0-2.87-.26"/><circle class="cls-9" cx="49.58" cy="128.5" r="7.83" transform="translate(-74.27 68.24) rotate(-42.96)"/><path class="cls-9" d="M101,128.94a5,5,0,1,1-8.78-3.56"/><circle class="cls-9" cx="96.07" cy="128.5" r="2.07" transform="translate(-61.8 99.92) rotate(-42.96)"/><circle class="cls-9" cx="96.07" cy="128.5" r="10.71" transform="translate(-61.8 99.92) rotate(-42.96)"/><path class="cls-9" d="M97.18,117.85a1.44,1.44,0,0,0-.25,2.87"/><path class="cls-9" d="M92.22,125.38a1.44,1.44,0,1,0-2.4-1.55"/><path class="cls-9" d="M101,128.94a1.44,1.44,0,1,0-2.87-.26"/><path class="cls-9" d="M96.88,120.71a7.83,7.83,0,1,1-6.9,2.86"/><circle class="cls-10" cx="142.57" cy="128.71" r="10.49" transform="translate(-49.48 131.66) rotate(-42.96)"/><path class="cls-10" d="M142.57,136.38a7.67,7.67,0,1,1,6.64-11.51"/><path class="cls-10" d="M146.77,131.14a4.85,4.85,0,0,1-8.4-4.85"/><path class="cls-10" d="M140.81,127.7a2,2,0,1,1,1.76,3"/><circle class="cls-10" cx="189.07" cy="128.71" r="10.49" transform="translate(-37.02 163.34) rotate(-42.96)"/><path class="cls-10" d="M193.62,134.93a7.67,7.67,0,1,1-1.71-13.17"/><path class="cls-10" d="M189.73,124a4.85,4.85,0,0,1-.9,9.66"/><path class="cls-10" d="M190.74,130.22a2,2,0,1,1-.83-3.42"/></svg>