<svg xmlns="http://www.w3.org/2000/svg" id="Default" viewBox="0 0 776.47 263.79"><defs><style>.cls-1{fill:#303030}.cls-2{fill:#f40f5c}.cls-3{fill:#fff}</style></defs><title>Artboard 30</title><rect width="12" height="75.63" x="389.87" y="85.07" class="cls-1"/><path d="M657.15,160.69h-11.4V153h-.2a15.52,15.52,0,0,1-5.55,6.35,16,16,0,0,1-9.35,2.75,18.07,18.07,0,0,1-8.05-1.65,15.87,15.87,0,0,1-5.5-4.35,17.59,17.59,0,0,1-3.15-6.2,26.08,26.08,0,0,1-1-7.2v-30h12v26.61a34.08,34.08,0,0,0,.3,4.4,11.87,11.87,0,0,0,1.3,4.15,8.62,8.62,0,0,0,2.75,3.05,8.09,8.09,0,0,0,4.65,1.2,10.34,10.34,0,0,0,5-1.15,10.48,10.48,0,0,0,3.5-3,13.06,13.06,0,0,0,2.05-4.15,16.56,16.56,0,0,0,.7-4.75V112.68h12Z" class="cls-1"/><path d="M602.33,126.59a24.18,24.18,0,0,0-4.8-8,22.37,22.37,0,0,0-7.41-5.36,22.66,22.66,0,0,0-9.4-1.95,22,22,0,0,0-6,.75,22.72,22.72,0,0,0-4.74,1.9,15.25,15.25,0,0,0-3.55,2.6,17.68,17.68,0,0,0-2.36,2.85h-.29v-6.7h-11.5v72h12V154.29h.19a15.86,15.86,0,0,0,6.55,5.7,20.87,20.87,0,0,0,9.35,2.1,22.87,22.87,0,0,0,9.85-2.06,22.5,22.5,0,0,0,7.41-5.5,24.72,24.72,0,0,0,4.71-8.11,29.64,29.64,0,0,0,1.65-9.95A28.36,28.36,0,0,0,602.33,126.59ZM591,142.09a15.43,15.43,0,0,1-2.55,5,13.34,13.34,0,0,1-4.29,3.6,13.79,13.79,0,0,1-12,0,14.45,14.45,0,0,1-4.46-3.55,15.55,15.55,0,0,1-2.8-4.95,17,17,0,0,1-.95-5.56,17.33,17.33,0,0,1,.95-5.59,15.07,15.07,0,0,1,7.26-8.61,12.32,12.32,0,0,1,5.9-1.4,13.1,13.1,0,0,1,6.11,1.35,12.91,12.91,0,0,1,4.29,3.55,15.56,15.56,0,0,1,2.55,4.95,18.57,18.57,0,0,1,.85,5.56A19.12,19.12,0,0,1,591,142.09Z" class="cls-1"/><path d="M447.11,154.38h.15v3.5a27.2,27.2,0,0,1-.75,6.6,13.49,13.49,0,0,1-2.5,5.2,11.69,11.69,0,0,1-4.7,3.45,18.6,18.6,0,0,1-7.25,1.25,23.92,23.92,0,0,1-8.9-1.75,24.77,24.77,0,0,1-7.9-5.05l-6.9,9.3a29.18,29.18,0,0,0,5.2,3.4,38.53,38.53,0,0,0,6.05,2.5,42.48,42.48,0,0,0,6.4,1.5,40.5,40.5,0,0,0,6.15.5,33.11,33.11,0,0,0,12.1-2,22.32,22.32,0,0,0,8.45-5.65,22.76,22.76,0,0,0,5-8.9,40.25,40.25,0,0,0,1.6-11.75V112.76h-11.4v23.71a17.69,17.69,0,0,1-.94,5.75,15.28,15.28,0,0,1-2.67,4.85,13,13,0,0,1-4.22,3.35,7.69,7.69,0,0,1-4.36,1.25,11.11,11.11,0,0,1-5.39-1.3,12.56,12.56,0,0,1-4-3.45,16.39,16.39,0,0,1-2.53-4.85,17.76,17.76,0,0,1-.89-5.6V112.76H411.37v23.81a29,29,0,0,0,1.59,9.65,25.11,25.11,0,0,0,4.46,8,20.72,20.72,0,0,0,16.18,7.4,14.23,14.23,0,0,0,7.27-1.85A16.07,16.07,0,0,0,447.11,154.38Z" class="cls-1"/><path d="M525.66,111.28a18.07,18.07,0,0,1,8.05,1.65,15.88,15.88,0,0,1,5.5,4.35,17.61,17.61,0,0,1,3.15,6.2,26.09,26.09,0,0,1,1,7.2v30h-12V134.08a34,34,0,0,0-.3-4.4,11.87,11.87,0,0,0-1.3-4.15,8.63,8.63,0,0,0-2.75-3.05,8.08,8.08,0,0,0-4.65-1.2,9.16,9.16,0,0,0-4.8,1.2,10.48,10.48,0,0,0-3.3,3.1,13.27,13.27,0,0,0-1.9,4.25,18.76,18.76,0,0,0-.6,4.65v26.21h-12v-29a12.32,12.32,0,0,0-2.15-7.45q-2.15-3-6.75-3a9.27,9.27,0,0,0-4.7,1.15,9.9,9.9,0,0,0-3.25,3,13.55,13.55,0,0,0-1.9,4.15,17.76,17.76,0,0,0-.65,4.75v26.41h-12v-48h11.4v7.7h.2a14.22,14.22,0,0,1,2.15-3.4,16.79,16.79,0,0,1,3.2-2.9,15.25,15.25,0,0,1,4.25-2.05,17.72,17.72,0,0,1,5.3-.75,16.26,16.26,0,0,1,9.3,2.5,16.6,16.6,0,0,1,5.7,6.6,17.15,17.15,0,0,1,6.4-6.75A18.23,18.23,0,0,1,525.66,111.28Z" class="cls-1"/><path d="M376.43,109.73a33.36,33.36,0,0,0-8-11.66,35.24,35.24,0,0,0-12.1-7.39,43.49,43.49,0,0,0-15.3-2.6,42.84,42.84,0,0,0-15.17,2.6,34.93,34.93,0,0,0-12,7.39A33.91,33.91,0,0,0,306,109.73a39.63,39.63,0,0,0-2.85,15.35A39.11,39.11,0,0,0,306,140.23a34.91,34.91,0,0,0,19.91,19.51,40.81,40.81,0,0,0,15.17,2.76,41.43,41.43,0,0,0,15.3-2.76,35.93,35.93,0,0,0,12.1-7.7,34.76,34.76,0,0,0,8-11.81,38.89,38.89,0,0,0,2.86-15.15A39.4,39.4,0,0,0,376.43,109.73Zm-12.6,25.81a24.42,24.42,0,0,1-5,8.25,23,23,0,0,1-7.76,5.46,24.62,24.62,0,0,1-9.9,1.95,24.27,24.27,0,0,1-9.85-1.95,23,23,0,0,1-7.71-5.46,24.42,24.42,0,0,1-5-8.25,30.06,30.06,0,0,1-1.75-10.46,29.05,29.05,0,0,1,1.75-10.2,24.93,24.93,0,0,1,4.95-8.2,23.16,23.16,0,0,1,7.65-5.51,24.16,24.16,0,0,1,10-2,24.46,24.46,0,0,1,10,2,23,23,0,0,1,7.71,5.51,24.93,24.93,0,0,1,4.95,8.2,29.05,29.05,0,0,1,1.75,10.2A30.06,30.06,0,0,1,363.83,135.54Z" class="cls-1"/><path d="M697.86,125.48l7.8-6.9a17.14,17.14,0,0,0-7.85-5.5,29.5,29.5,0,0,0-10.15-1.8,27.24,27.24,0,0,0-7,.9,19.54,19.54,0,0,0-6.1,2.75,14.17,14.17,0,0,0-4.35,4.75,13.73,13.73,0,0,0-1.65,6.9,12.23,12.23,0,0,0,1.2,5.7,11.59,11.59,0,0,0,3.2,3.85,17.14,17.14,0,0,0,4.55,2.5,39.7,39.7,0,0,0,5.25,1.55,44.35,44.35,0,0,1,8.25,2.6,4.44,4.44,0,0,1,2.75,4.3,4.93,4.93,0,0,1-.7,2.7,5.18,5.18,0,0,1-1.85,1.75,9,9,0,0,1-2.5,1,12.2,12.2,0,0,1-2.65.3,14.9,14.9,0,0,1-7.1-1.7,15.79,15.79,0,0,1-5.2-4.3l-7.9,7.4a23.06,23.06,0,0,0,8.8,5.85,30,30,0,0,0,10.9,2.05,33.19,33.19,0,0,0,7.55-.85,18.54,18.54,0,0,0,6.4-2.75,14,14,0,0,0,4.4-5,15.49,15.49,0,0,0,1.65-7.45,11.82,11.82,0,0,0-1.4-6,13.06,13.06,0,0,0-3.65-4.1,19.91,19.91,0,0,0-5-2.65,43.7,43.7,0,0,0-5.45-1.6,48.46,48.46,0,0,1-7.75-2.35,4,4,0,0,1-2.65-4,4.14,4.14,0,0,1,2.4-4,11.69,11.69,0,0,1,5.3-1.2,12.39,12.39,0,0,1,6.1,1.55A13.85,13.85,0,0,1,697.86,125.48Z" class="cls-1"/><rect width="194.1" height="194.1" x="81.43" y="34.79" class="cls-2"/><path d="M213.5,107.29a9.46,9.46,0,0,1,.61,2.29c0,3.5.57,5.58,5.19,6,4.8.42,5.83,6,2.74,11.08l.09-.11c-1.26,1-2.62,2-4.3,1.93-2.24-.11-3.06.11-3.11,3-.05,3.05,1.1,3,3.18,2.92a5.6,5.6,0,0,1,4.24,2l-.09-.12c4,6.22,2,10.8-5.48,11.6-3.78.4-1.28,2.88-1.95,4.25-.31.65-1.12,2,1,2.34,6.6,1.08,8.52,3,7.86,7s-3.88,5.82-10.15,4.82c.7,3.22,1.16,6.42-1.69,8.8s-6,1.37-9,0c-1.12-2.41-2.08-4.85-1.27-7.62-6.13.41-6.13.41-6.51,6.83,2.77-1.15,5.28.12,7.87.69,0,.16-.11.35-.05.48,1.26,3.09,2.17,6.17-.7,8.89a5.76,5.76,0,0,1-6.75,1.05c-3.71-1.76-4-5.11-2.84-9.19a12,12,0,0,1-7.54.47c.21,6.4-2.26,9.89-6.67,9.7s-6.55-3.69-5.83-9.52c-2.47.08-5,.61-7.37-.54.25,6.76-1.68,9.69-6.09,9.6a5.89,5.89,0,0,1-5.88-6.29c.16-4.19,3-5.92,9.22-5.69-.07-4.06-.09-8.18-6.6-6.17.22,2.44.26,5.3-2.18,7.32a6.39,6.39,0,0,1-4.48,1.51c-4.43-.24-6.32-3.65-5.7-10.12-6.44.69-9.84-1.3-9.95-5.82-.11-4.33,3-6.57,9-6.32.1-3.52,1-6.64-4.81-7-4.82-.27-5.89-6.1-2.7-11.14l-.09.11a5.84,5.84,0,0,1,4.27-2c2.12.06,3.23.1,3.19-2.94s-.9-3.1-3.14-3c-1.69.09-3-.93-4.33-1.93l.1.12C131,120.22,133,116,140.57,115.1c1.89-.22,2.14-.84,1.9-2.32-.32-2,.75-3.74,1.11-5.62l.92-.92c5.88-.05,8.94-2.9,8.83-8.9l.75-.75a37.69,37.69,0,0,1,4.16-1.06,27,27,0,0,1,3.81,0C162,89.42,164.4,86,168.76,86s6.61,3.18,6.77,9.17c3.53.55,6.43.94,6.47-4.45,0-3,3.15-4.79,6.4-4.67a6.35,6.35,0,0,1,6.21,5.16c.34,1.33.06,2.81.06,4.59a14.5,14.5,0,0,1,8,.68l1.1,1.09c-.1,5.81,2.71,8.7,8.56,8.54Zm-67.92,57c2.36-.73,4.41-.49,7.66-.13-2.49-2.24,1.22-6.61-4.71-6.43C142.29,157.94,148.27,162.81,145.58,164.31Zm66.19,0a11.69,11.69,0,0,1-.68-6.4c-5.48-1.13-7.33,1-5.93,6.19C207.18,163.31,209.15,164.3,211.77,164.32Zm-36.47,9.25c2.2-.54,4.23.12,6.4-.14-2-1.41,2.39-5.63-3.23-5.65S177.21,172,175.3,173.58Zm15.59-74.9c-1.85,1.15-3.62.38-5.33.69v5.08C190.76,106.17,191.65,103.53,190.89,98.68Zm-25.05.39c1.62,1.64-2.55,5.36,2.31,5.6,2,.09,3.15.36,3.29-2.66C171.71,96.13,167.17,101.19,165.84,99.07Zm39.47,44.68c1.47-1.48,5.27,2.61,5.1-2.32-.05-1.45.64-2.76-2.21-2.79C203.33,138.58,206,141.85,205.31,143.75Zm-58.8-5.07c1.41,1.5-2.64,5.43,2.46,5.08,1.55-.11,2.75.46,2.8-2.26C151.88,136.31,148.1,140,146.52,138.69Zm5-17.45c1.13-3.27-1.37-2-2.64-2.27-2.26-.51-2.75.54-2.51,2.58.18,1.51-.57,3,2.3,2.74C151.11,124,152.37,123.82,151.55,121.23ZM208.11,119c-1.57.09-3.17-.74-3,2.18.15,2.59.87,2.8,3.16,3.07,3,.35,2-1.37,2.22-2.76C210.79,119.38,210.14,118.44,208.11,119Zm-51.92,29.79c2.25,1-2.55,4.7,2.34,4.56,1,0,2.89,1.27,2.93-1.61C161.52,147.73,159,148.6,156.19,148.76Zm44.21,2.29c0-1.32.73-2.85-1.92-2.61-2.23.21-2.87.8-3,3-.16,2.73,1.6,1.6,2.76,1.86C200.29,153.8,200.83,152.88,200.4,151.05Zm-29,12.74c-.66-2.8.74-5.64-3.38-5.65-3.25,0-1.79,2.2-1.76,3.22C166.43,165.7,169.56,162.19,171.41,163.79Zm19.09-3.27c-.34-.46,1.34-2.44-1.54-2.38-2.59.05-3,1.11-3.24,3.36s1.08,1.76,2.25,1.81C189.59,163.38,191.43,163.73,190.49,160.52Zm-29.11-51c-4.67-1.43-6.15.31-4.81,4.84C160.53,115.1,162.09,113.45,161.39,109.54Zm33.91-1.24c.24,3.79-.21,6.52,3.85,6.21,2.84-.22,1.33-2.15,1.38-3.12C200.78,106.72,197.24,110.48,195.29,108.31Zm-16.89,5.93c2.15.38,2.19-1,2.35-2.58s-.21-2.36-2-2.12c-1.32.17-3.06-.61-2.6,2C176.41,113,176.11,114.6,178.4,114.23Zm-21.71,19.41c1.66-.69,4.49,1.61,4.62-2.19.07-2.12-1.11-2.28-2.69-2.27C154.45,129.21,158,132.35,156.69,133.64Zm43.41-1.89c.06-1.34.65-2.95-1.86-2.6-1.48.2-2.7.06-2.67,2.22,0,2,.83,2.29,2.53,2.36S200.58,133.57,200.1,131.75Zm22-5.22a10.24,10.24,0,0,0,0,9.83l-.09-.12c.89.33,1.77.73,2.68,1,2.87.8,5.44.36,7.22-2.21a5.89,5.89,0,0,0,0-7.15c-1.79-2.57-4.36-3-7.22-2.2-.91.26-1.79.65-2.69,1Zm-87.33,9.83a10.52,10.52,0,0,0,0-9.83l.1.12c-.89-.32-1.77-.7-2.68-1-2.85-.79-5.42-.4-7.21,2.18a5.88,5.88,0,0,0,0,7.13c1.78,2.58,4.35,3,7.21,2.2.91-.25,1.79-.63,2.68-1Zm88.28-32.54c.59-2.77-.18-5.15-2.7-6.61a5.69,5.69,0,0,0-7.12.61c-2.66,2.4-2.59,5.29-.95,8.28l1.19,1.18C218.64,109.18,222.19,107.93,223.07,103.83Zm-15.23-5.2a6,6,0,0,0,2.81-11.08,5.65,5.65,0,0,0-7.09.63c-2.66,2.42-2.48,5.31-.91,8.28l1.1,1.09A7.17,7.17,0,0,0,207.84,98.63ZM135.9,150.92a5.91,5.91,0,1,0-11.81.29c.32,3.62,2.5,5.35,5.43,5.55C133.41,156.67,135.86,154.2,135.9,150.92Zm85.1-.08c.11,3.63,2.08,5.68,5.7,5.91a5.67,5.67,0,0,0,6.15-5.95c-.09-3.66-2.18-5.52-5.09-5.9C223.53,144.77,220.9,147.25,221,150.84Zm11.69-38.73c0-3.61-2.1-5.79-5.71-5.82s-5.77,2.1-5.83,5.71,2.19,5.49,5.71,5.95C230.4,117.56,232.68,115.77,232.69,112.11Zm-108.46-.2c-.07,3.6,2,5.8,5.62,5.9s5.79-2,5.9-5.61-2.11-5.5-5.59-6C126.6,106.51,124.3,108.28,124.23,111.91Zm21.43-9.77a6,6,0,0,0-11.12-2.9,5.66,5.66,0,0,0,.68,7.15c2.47,2.65,5.38,2.47,8.35.78l.92-.92A6.85,6.85,0,0,0,145.66,102.15Zm4.79-15.35A6,6,0,0,0,145,96.72c2.54,2.59,5.4,2.44,8.34.64l.75-.75C156.29,91.4,154.87,87.51,150.45,86.8Zm33.9-3.19a5.76,5.76,0,0,0-5.51-6.53c-3.58-.1-5.8,1.69-6.26,5.27a5.92,5.92,0,1,0,11.77,1.26Zm-25.5-6.31a5.27,5.27,0,0,0-5.45,5.54c0,3.56,2.1,5.78,5.65,5.81s5.4-2.29,5.85-6C164.25,79.49,162.47,77.16,158.85,77.3Zm33.31,5.61a5.27,5.27,0,0,0,5.26,5.74c3.57.25,5.88-1.84,6.1-5.36s-2-5.51-5.48-6.12C194.53,77.53,192.23,79.31,192.16,82.91Zm-29,106.64c0,3.36,2.08,5.37,5.42,5.68a5.64,5.64,0,0,0,5.8-5.81c-.31-3.36-2.38-5.12-5.69-5.52C165.4,184.39,163.2,186.18,163.17,189.55Zm30.56,0c0-3.35-2.15-5.35-5.5-5.6a5.64,5.64,0,0,0-5.72,5.9c.36,3.35,2.46,5.09,5.77,5.44C191.58,194.77,193.77,193,193.74,189.57Zm42.92-73.08c-3.2,0-5.23,1.9-5.29,5.1-.06,3.44,2,5.49,5.45,5.41,3.21-.08,4.87-2.14,5.13-5.3C241.6,118.49,239.87,116.51,236.65,116.49Zm-116,19.32c-3.39-.16-5.55,1.84-5.64,5.24a4.93,4.93,0,0,0,5,5.39c3.39.17,5.29-1.87,5.72-5.24C125.42,138.06,123.76,136,120.61,135.82ZM242,141a5.37,5.37,0,0,0-10.74.09c-.05,3.36,2.1,5.15,5.48,5.55C239.95,146.14,242.07,144.35,242,141Zm-24.86,33.76c-3.2.06-5.09,2-5.07,5.15,0,3.45,2.1,5.35,5.5,5.19,3.21-.15,4.76-2.22,4.91-5.36C222.08,176.53,220.33,174.67,217.13,174.74Zm-102-53.23c-.13,3.18,1.62,5.24,4.81,5.41,3.4.18,5.49-1.7,5.53-5.16,0-3.21-1.88-4.91-5.07-5.25C117.26,116.71,115.25,118.3,115.12,121.51Zm29.71,58.57c.07-3.23-1.72-5.21-5-5.31s-5.21,1.72-5.31,5,1.76,5,5.17,5.4C142.67,184.89,144.75,183.38,144.83,180.08ZM169,68.31c-3.29-.08-5.17,1.7-5.18,5,0,3.05,1.71,4.84,4.77,4.94,3.31.1,5-1.75,5.25-5C173.57,70.23,172,68.38,169,68.31Zm19.27,0c-3.31,0-5.12,1.84-5.06,5.14.06,3.06,1.83,4.79,4.89,4.82,3.33,0,4.94-1.88,5.15-5.41C192.81,70.2,191.35,68.29,188.23,68.3ZM149.49,184.69c-3.26,0-5.07,1.79-5,5,0,3,1.78,4.75,4.8,4.8,3.28.05,4.89-1.84,5.11-5C154.06,186.52,152.53,184.71,149.49,184.69Zm-14.41-14.58c-.08-3.24-2-5-5.2-5s-5,2-5,5.2,2,4.85,5.33,5.06C133.26,175,135.17,173.38,135.08,170.11Zm73,14.59c-3.21-.27-5.24,1.33-5.44,4.62-.18,3,1.37,4.92,4.39,5.19,3.24.29,5.06-1.41,5.51-4.51C212.45,186.93,211.1,185,208.06,184.7Zm18.69-19.6c-3.25.11-5,2.06-4.95,5.28s2.05,5,5.28,4.95,4.84-2.09,5-5.4C231.72,166.87,230,165,226.75,165.1Zm0-77.27c-3,.16-4.75,2-4.64,5s2,4.74,5,4.64,4.53-2,4.76-5.46C231.28,89.64,229.84,87.67,226.73,87.83ZM125.17,92.49c-.1,3,1.62,4.88,4.63,5s4.87-1.61,5-4.63-1.7-4.64-4.6-5.09C127.2,88,125.27,89.44,125.17,92.49Zm106.61,68.13c.07,3.05,1.89,4.79,4.93,4.74s4.78-1.88,4.74-4.93-1.95-4.57-4.95-4.83C233.54,156,231.7,157.54,231.78,160.62ZM217.41,78.17a4.43,4.43,0,0,0-5,4.62c-.11,3,1.62,4.85,4.62,5s4.62-1.7,5.08-4.59C221.9,80.21,220.44,78.27,217.41,78.17Zm-77.74,0a4.79,4.79,0,0,0-.21,9.58c3.07.16,4.67-1.72,5.12-4.68C144.25,80.1,142.75,78.2,139.66,78.18ZM178.3,194.54a4.75,4.75,0,0,0,.08,9.5c3,.07,4.55-1.86,4.94-4.78C182.88,196.34,181.33,194.46,178.3,194.54ZM120.49,155.7c-3-.11-4.89,1.6-5,4.63s1.6,4.88,4.62,5,4.65-1.68,5.11-4.58C125,157.75,123.54,155.81,120.49,155.7Zm120.79-53.46a4.67,4.67,0,1,0-9.32.47c.18,2.75,2.11,4.19,5.07,4.42C239.49,106.53,241.38,105.08,241.28,102.25Zm-116.35.05a4.63,4.63,0,1,0-9.26.37c.15,2.73,2.06,4.18,4.8,4.43C123.16,106.58,125,105.08,124.93,102.3Zm77.41,96.78a4.5,4.5,0,0,0-9,.21c0,2.81,1.84,4.28,4.57,4.61C200.7,203.44,202.46,201.88,202.35,199.07Zm43.86-72.14a4.5,4.5,0,0,0,0,9c2.81.1,4.33-1.73,4.73-4.49C250.52,128.71,249,126.91,246.2,126.94ZM149.37,68.77a4.51,4.51,0,0,0-.22,9c2.81.16,4.37-1.65,4.84-4.43C153.65,70.63,152.18,68.8,149.37,68.77Zm58.29,0a4.53,4.53,0,0,0-.23,9.06c2.77.09,4.29-1.71,4.75-4.45C211.85,70.68,210.41,68.82,207.65,68.75ZM159.12,194.81a4.49,4.49,0,0,0-.34,9c2.79.21,4.38-1.57,4.87-4.36C163.37,196.71,161.93,194.88,159.12,194.81ZM110.94,135.9a4.46,4.46,0,0,0-.45-8.91c-2.78.06-4.21,1.92-4.44,4.61C106.56,134.4,108.16,136.09,110.94,135.9Zm135.31,10.74a4.19,4.19,0,0,0,.12,8.37c2.67,0,4-1.62,4.19-4.36C250.29,148.16,248.91,146.6,246.25,146.64Zm-135.77,0a3.73,3.73,0,0,0-4,3.9c-.1,2.67,1.31,4.3,4,4.37s4.1-1.47,4.31-4.13C114.59,148.15,113.18,146.65,110.48,146.69Zm67.83-87.17a3.66,3.66,0,0,0-3.92,4c0,2.72,1.49,4.21,4.21,4.16,2.49,0,3.76-1.52,4-4C182.41,61,181,59.47,178.31,59.52Zm68.22,48.54c-2.73-.08-4.27,1.39-4.22,4.14,0,2.5,1.52,3.86,4,3.86s3.8-1.44,4.06-4.15C250.17,109.76,249.07,108.13,246.53,108.06ZM155.24,63.87a3.83,3.83,0,0,0,7.65-.31c0-2.47-1.58-3.67-4-3.87C156.54,60.09,155.08,61.4,155.24,63.87Zm46.44-.47a3.84,3.84,0,0,0-7.67.16c0,2.48,1.5,3.71,4.25,4C200.18,67,201.82,65.93,201.68,63.39Zm-81,112.76a3.55,3.55,0,0,0-4.16,3.6,3.49,3.49,0,0,0,3.37,3.92c2.46.25,3.79-1.24,4.29-3.78C123.91,177.94,122.9,176.34,120.69,176.15Zm-6.11-64c0-2.47-1.33-4-3.8-4-2.71-.08-4.22,1.44-4.15,4.15.06,2.49,1.59,3.7,4,3.85C113.1,115.87,114.55,114.61,114.58,112.12Zm125.82,68a3.54,3.54,0,0,0-3.8-4,3.49,3.49,0,0,0-3.77,3.56c-.13,2.49,1.39,3.77,3.76,4.1C238.83,183.52,240.31,182.37,240.4,180.14ZM126.2,189.2a3.56,3.56,0,0,0,3.63,4.2,3.5,3.5,0,0,0,3.95-3.4c.25-2.49-1.22-3.85-3.82-4.32C128,185.95,126.39,187,126.2,189.2Zm96.9.67a3.83,3.83,0,0,0,7.64-.31c0-2.46-1.58-3.66-4-3.87C224.4,186.11,222.94,187.42,223.1,189.88Zm-54.22,15.47a3.64,3.64,0,0,0-.24,7.28c2.23.09,3.44-1.37,3.85-3.54C172.24,206.93,171.09,205.42,168.88,205.35Zm19.15,0a3.64,3.64,0,0,0,.25,7.28c2.21-.08,3.36-1.58,3.6-3.74C191.47,206.72,190.26,205.26,188,205.35Zm32.8-6.21a3.6,3.6,0,0,0-7.19.07c-.07,2.25,1.43,3.44,3.62,3.77C219.45,202.61,220.9,201.4,220.83,199.14Zm-77.57.19a3.58,3.58,0,0,0-7.14-.31c-.2,2.23,1.25,3.49,3.45,3.93C141.72,202.71,143.19,201.56,143.26,199.33Zm103.28-32.55a3.44,3.44,0,1,0-.22,6.87c2,0,3.18-1.31,3.49-3.37C249.63,168.3,248.55,166.93,246.54,166.78Zm-135.73.08a3.36,3.36,0,1,0-.42,6.71c2.06.13,3.27-1.1,3.62-3.22C113.91,168.37,112.87,167,110.81,166.86ZM243.36,92.6a2.95,2.95,0,0,0,5.9.15c0-1.89-1-2.9-2.9-3.06C244.52,89.77,243.39,90.69,243.36,92.6Zm-129.83-.07a2.63,2.63,0,0,0-2.71-2.78,2.68,2.68,0,0,0-3.14,2.83c-.06,1.93,1,2.92,2.94,3.06C112.54,95.47,113.59,94.45,113.53,92.53Zm123-12.76a2.92,2.92,0,0,0-3.08,3,3,3,0,0,0,3.11,3.43c2.09.07,3.17-1.17,3.36-3.22C239.67,80.91,238.57,79.71,236.48,79.76Zm-115.88,0a2.94,2.94,0,0,0-3.48,3.1A2.87,2.87,0,0,0,120,86.14c2.1.15,3.31-1,3.54-3.32A3,3,0,0,0,120.6,79.81Zm106.26-3.36a2.92,2.92,0,0,0,3.22-3.33,2.85,2.85,0,0,0-3.09-3c-2.15,0-3.18,1.24-3.27,3.35C224,75.32,225,76.44,226.86,76.44Zm-96.56-6.29a2.9,2.9,0,0,0-3.44,3.06,2.83,2.83,0,0,0,2.83,3.19c2.08.15,3.28-.94,3.47-3.07C133.08,71.49,132.17,70.28,130.29,70.16Zm87-9.42a2.85,2.85,0,1,0,.42,5.67c1.61-.23,2.43-1.37,2.45-3.3A2.84,2.84,0,0,0,217.25,60.74Zm-80.39,2.82a2.59,2.59,0,0,0,2.67,2.83,2.63,2.63,0,0,0,3-3c-.09-1.67-1.23-2.53-2.9-2.66C137.95,61,136.88,61.87,136.87,63.56Zm54.07-9.69a2.59,2.59,0,0,0-2.69-2.76,2.62,2.62,0,0,0-2.87,3,2.76,2.76,0,0,0,2.92,2.59C189.89,56.44,191,55.54,190.94,53.88Zm-25-.05a2.59,2.59,0,0,0,2.6,2.85,2.62,2.62,0,0,0,3-2.94c-.06-1.64-1.19-2.5-2.82-2.69C167.1,51.3,166,52.16,166,53.82Zm-16.42,152.3a2.67,2.67,0,0,0-3,2.93,2.61,2.61,0,0,0,2.69,2.81c1.93.08,2.93-1,3.1-2.89C152.11,207.27,151.25,206.18,149.55,206.12ZM204.64,209a2.62,2.62,0,0,0,2.56,2.86,2.67,2.67,0,0,0,3.21-2.67c.13-1.88-.93-2.91-2.81-3.15C205.77,206.18,204.66,207.11,204.64,209Zm54.52-67.47a3,3,0,0,0-3-3.59,2.88,2.88,0,0,0-3.33,2.76c-.21,2.07.84,3.36,3,3.62C257.71,144.32,259,143.42,259.16,141.55ZM97.87,121.68a2.73,2.73,0,0,0,2.84,3.1,2.78,2.78,0,0,0,3.22-3.19c-.06-1.9-1.21-2.82-3.05-2.9C99,118.81,97.91,119.77,97.87,121.68Zm158.12-3a2.77,2.77,0,0,0-3.06,3c0,2.16,1.18,3.29,3.31,3.18,1.92-.1,2.81-1.31,2.86-3.35A2.85,2.85,0,0,0,256,118.68ZM101,138a2.89,2.89,0,0,0-3.2,3.31,2.82,2.82,0,0,0,3.07,3c2.13,0,3.16-1.22,3.23-3.23C103.88,139.09,102.85,138,101,138Zm2.58,22.56a2.64,2.64,0,0,0-5.27-.32c-.23,1.65.91,2.57,2.49,3A2.75,2.75,0,0,0,103.55,160.57Zm155.13-.17a2.68,2.68,0,0,0-5.36,0c-.1,1.7,1.06,2.57,2.68,2.87C257.63,163,258.74,162.1,258.69,160.4Z" class="cls-3"/></svg>