<svg id="Default" xmlns="http://www.w3.org/2000/svg" xmlns:xlink="http://www.w3.org/1999/xlink" viewBox="0 0 526.84 131.13"><defs><style>.cls-1{fill:#13bbe2;}.cls-2{fill:none;stroke:#000;stroke-miterlimit:10;stroke-width:1.75px;}.cls-3{fill:url(#linear-gradient);}</style><linearGradient id="linear-gradient" x1="382.34" y1="36.02" x2="446.89" y2="100.58" gradientUnits="userSpaceOnUse"><stop offset="0" stop-color="#df0035"/><stop offset="0.09" stop-color="#d50b3e"/><stop offset="0.25" stop-color="#ba2856"/><stop offset="0.45" stop-color="#8f587c"/><stop offset="0.7" stop-color="#539ab1"/><stop offset="0.97" stop-color="#07edf4"/><stop offset="1" stop-color="#00f5fb"/></linearGradient></defs><title>Artboard 12</title><path class="cls-1" d="M145,66a39.71,39.71,0,1,0-37.28,42A39.71,39.71,0,0,0,145,66ZM106.86,93.4a25.12,25.12,0,1,1,23.59-26.56A25.12,25.12,0,0,1,106.86,93.4Z"/><path d="M144,29.71c4.54,4.54,8.3,4.54,12.83,0s4.54-8.3,0-12.83-8.3-4.54-12.83,0S139.45,25.17,144,29.71Z"/><path class="cls-2" d="M271.12,84.46a18.44,18.44,0,0,0,7.45-6.24,19.57,19.57,0,0,0,2.37-4.59,20.11,20.11,0,0,0,1.11-5.22,20.82,20.82,0,0,0-.31-5.5,21.47,21.47,0,0,0-1.8-5.4,22.21,22.21,0,0,0-3.24-4.88,22.89,22.89,0,0,0-4.54-4,23.57,23.57,0,0,0-5.58-2.72,24.25,24.25,0,0,0-6.27-1.2,24.88,24.88,0,0,0-6.54.49,25.57,25.57,0,0,0-6.35,2.24,26.31,26.31,0,0,0-5.69,3.92,27,27,0,0,0-4.58,5.41,27.61,27.61,0,0,0-3.08,6.57,28.28,28.28,0,0,0-1.29,7.32,29,29,0,0,0,.68,7.58,29.64,29.64,0,0,0,2.69,7.3,30.33,30.33,0,0,0,4.6,6.49A31,31,0,0,0,247,97.25a31.66,31.66,0,0,0,7.57,3.44,32.34,32.34,0,0,0,8.37,1.38,33,33,0,0,0,8.62-.87,33.71,33.71,0,0,0,8.26-3.14,34.36,34.36,0,0,0,7.3-5.28,35.07,35.07,0,0,0,5.78-7.14,35.77,35.77,0,0,0,3.8-8.56,36.4,36.4,0,0,0,1.47-9.42A37.09,37.09,0,0,0,297.14,58a37.77,37.77,0,0,0-3.59-9.21,38.48,38.48,0,0,0-6-8.1,39.11,39.11,0,0,0-8-6.38,39.64,39.64,0,0,0-6.34-3.09"/><circle class="cls-2" cx="261.45" cy="69.37" r="17.93"/><circle class="cls-2" cx="261.45" cy="69.37" r="39.93"/><path class="cls-3" d="M434.84,54.09a5.47,5.47,0,0,1,.35,1.32c0,2,.33,3.22,3,3.46s3.37,3.46,1.58,6.4l.05-.06a3.72,3.72,0,0,1-2.48,1.12c-1.29-.06-1.77.06-1.8,1.72s.64,1.71,1.84,1.69a3.23,3.23,0,0,1,2.45,1.15l0-.07c2.31,3.59,1.15,6.24-3.17,6.7-2.18.23-.74,1.66-1.12,2.46-.18.37-.65,1.15.59,1.35,3.81.63,4.92,1.72,4.54,4.07s-2.24,3.36-5.86,2.78c.4,1.86.67,3.71-1,5.09s-3.46.79-5.19,0a6,6,0,0,1-.73-4.4c-3.54.23-3.54.23-3.76,3.94,1.6-.67,3,.07,4.54.4,0,.09-.06.2,0,.28.73,1.78,1.25,3.56-.4,5.14a3.32,3.32,0,0,1-3.9.61c-2.14-1-2.31-3-1.64-5.31a6.93,6.93,0,0,1-4.35.27c.12,3.7-1.3,5.71-3.85,5.6s-3.78-2.13-3.37-5.5c-1.43,0-2.87.35-4.25-.31.14,3.9-1,5.6-3.52,5.54a3.4,3.4,0,0,1-3.4-3.64c.09-2.42,1.71-3.42,5.32-3.28,0-2.35,0-4.72-3.81-3.57.13,1.41.15,3.06-1.26,4.23a3.69,3.69,0,0,1-2.59.87C395,94,393.94,92,394.3,88.28c-3.72.4-5.68-.75-5.74-3.36s1.74-3.79,5.22-3.65c.06-2,.6-3.83-2.78-4-2.78-.16-3.4-3.53-1.56-6.43l-.05.07a3.37,3.37,0,0,1,2.47-1.14c1.22,0,1.87.06,1.84-1.7s-.52-1.79-1.81-1.72a3.85,3.85,0,0,1-2.5-1.11l.06.07c-2.23-3.71-1.09-6.16,3.28-6.67,1.09-.13,1.23-.48,1.1-1.34-.18-1.16.43-2.16.64-3.24l.53-.53c3.39,0,5.16-1.67,5.1-5.14l.43-.43a21.77,21.77,0,0,1,2.4-.61,15.62,15.62,0,0,1,2.2,0c0-3.52,1.36-5.5,3.88-5.5s3.82,1.84,3.91,5.29c2,.32,3.72.54,3.74-2.57,0-1.75,1.82-2.77,3.7-2.7a3.67,3.67,0,0,1,3.58,3,11.72,11.72,0,0,1,0,2.65,8.37,8.37,0,0,1,4.61.39l.63.63c-.06,3.36,1.57,5,4.94,4.93ZM395.62,87a10.33,10.33,0,0,1,4.42-.08c-1.44-1.29.7-3.82-2.72-3.71C393.72,83.34,397.17,86.15,395.62,87Zm38.23,0a6.75,6.75,0,0,1-.39-3.7c-3.16-.65-4.23.56-3.43,3.57C431.19,86.44,432.34,87,433.85,87Zm-21.06,5.34c1.27-.31,2.44.07,3.69-.08-1.18-.82,1.38-3.25-1.87-3.26S413.88,91.46,412.78,92.37Zm9-43.26c-1.07.67-2.09.22-3.08.4v2.94C421.71,53.44,422.23,51.92,421.79,49.11Zm-14.47.23c.94.94-1.47,3.1,1.33,3.23,1.14.05,1.82.21,1.9-1.54C410.71,47.64,408.09,50.57,407.32,49.34Zm22.8,25.81c.85-.86,3,1.51,2.95-1.34,0-.84.37-1.59-1.27-1.61C429,72.16,430.52,74.05,430.12,75.15Zm-34-2.93c.82.87-1.52,3.13,1.42,2.93.9-.06,1.59.27,1.62-1.31C399.26,70.85,397.07,73,396.16,72.22Zm2.91-10.08c.65-1.89-.79-1.15-1.52-1.31-1.31-.29-1.59.31-1.45,1.49.1.87-.33,1.75,1.33,1.58C398.81,63.76,399.54,63.64,399.07,62.14Zm32.67-1.3c-.91.05-1.83-.43-1.73,1.26.09,1.49.5,1.62,1.82,1.77,1.7.2,1.16-.79,1.28-1.59C433.28,61.07,432.9,60.53,431.73,60.84Zm-30,17.2c1.3.57-1.47,2.72,1.35,2.63.6,0,1.67.73,1.69-.93C404.82,77.45,403.34,77.95,401.75,78Zm25.53,1.32c0-.76.42-1.65-1.11-1.51-1.29.12-1.66.46-1.73,1.76-.09,1.58.92.93,1.59,1.07C427.22,81,427.53,80.42,427.28,79.36Zm-16.74,7.36c-.38-1.62.43-3.26-2-3.26-1.88,0-1,1.27-1,1.86C407.66,87.82,409.47,85.79,410.53,86.72Zm11-1.89c-.2-.27.77-1.41-.89-1.37-1.5,0-1.73.64-1.87,1.94s.62,1,1.3,1C421,86.49,422.1,86.69,421.56,84.83ZM404.75,55.39c-2.7-.82-3.55.18-2.78,2.79C404.25,58.6,405.15,57.64,404.75,55.39Zm19.58-.72c.14,2.19-.12,3.77,2.23,3.59,1.64-.12.77-1.24.8-1.8C427.5,53.76,425.45,55.93,424.33,54.68Zm-9.75,3.42c1.24.22,1.26-.56,1.36-1.49s-.12-1.36-1.16-1.23c-.76.1-1.77-.35-1.5,1.16C413.43,57.38,413.25,58.31,414.58,58.1ZM402,69.31c1-.4,2.59.93,2.67-1.26,0-1.23-.64-1.31-1.55-1.31C400.74,66.75,402.8,68.56,402,69.31Zm25.07-1.09c0-.78.38-1.7-1.08-1.5-.86.12-1.56,0-1.54,1.28s.48,1.32,1.46,1.36S427.38,69.27,427.11,68.22Zm12.72-3a5.91,5.91,0,0,0,0,5.68l0-.07c.52.19,1,.42,1.55.57a3.48,3.48,0,0,0,4.17-1.28,3.4,3.4,0,0,0,0-4.13,3.48,3.48,0,0,0-4.17-1.27c-.53.15-1,.38-1.55.57Zm-50.44,5.68a6.07,6.07,0,0,0,0-5.68l.06.07c-.52-.19-1-.4-1.55-.55A3.48,3.48,0,0,0,383.73,66a3.4,3.4,0,0,0,0,4.12,3.48,3.48,0,0,0,4.16,1.27c.53-.14,1-.37,1.55-.55Zm51-18.79a3.48,3.48,0,0,0-5.67-3.47c-1.54,1.39-1.49,3.06-.55,4.78l.69.68C437.81,55.18,439.87,54.46,440.37,52.09Zm-8.8-3a3.45,3.45,0,0,0,1.62-6.4,3.26,3.26,0,0,0-4.09.37c-1.54,1.4-1.43,3.07-.53,4.78l.63.63A4.14,4.14,0,0,0,431.58,49.09ZM390,79.29a3.41,3.41,0,1,0-6.82.17,3.18,3.18,0,0,0,3.14,3.2A3.44,3.44,0,0,0,390,79.29Zm49.15,0a3.18,3.18,0,0,0,3.29,3.41A3.28,3.28,0,0,0,446,79.22a3.18,3.18,0,0,0-2.94-3.41C440.64,75.74,439.12,77.17,439.18,79.24Zm6.75-22.37a3.33,3.33,0,0,0-6.67-.07c0,2.11,1.26,3.17,3.3,3.44C444.6,60,445.92,59,445.93,56.88Zm-62.64-.12a3.33,3.33,0,0,0,6.65.16c.06-2.1-1.22-3.18-3.23-3.48C384.66,53.64,383.33,54.66,383.29,56.76Zm12.38-5.64a3.47,3.47,0,0,0-6.42-1.68,3.27,3.27,0,0,0,.39,4.13c1.43,1.53,3.11,1.43,4.82.45l.53-.53A4,4,0,0,0,395.67,51.12Zm2.77-8.86A3.44,3.44,0,0,0,395.27,48c1.47,1.5,3.12,1.41,4.82.37l.43-.43C401.8,44.91,401,42.66,398.43,42.26ZM418,40.41a3.33,3.33,0,0,0-3.18-3.77,3.19,3.19,0,0,0-3.62,3,3.42,3.42,0,1,0,6.8.73Zm-14.73-3.65a3,3,0,0,0-3.15,3.2,3.06,3.06,0,0,0,3.27,3.35c2.07,0,3.12-1.32,3.38-3.45C406.4,38,405.37,36.69,403.28,36.77ZM422.52,40a3.28,3.28,0,0,0,6.56.22c.13-2.07-1.17-3.18-3.17-3.53C423.89,36.9,422.56,37.93,422.52,40ZM405.78,101.6a3.1,3.1,0,0,0,3.13,3.28,3.26,3.26,0,0,0,3.35-3.36A3.33,3.33,0,0,0,409,98.33C407.07,98.62,405.79,99.65,405.78,101.6Zm17.65,0a3.1,3.1,0,0,0-3.18-3.23,3.26,3.26,0,0,0-3.3,3.41,3.33,3.33,0,0,0,3.33,3.14C422.19,104.61,423.45,103.56,423.43,101.61ZM448.22,59.4a3,3,0,1,0,.09,6.07c1.85,0,2.81-1.24,3-3.06C451.07,60.55,450.07,59.42,448.22,59.4Zm-67,11.16a2.88,2.88,0,0,0-3.25,3,2.84,2.84,0,0,0,2.89,3.11c2,.1,3.06-1.08,3.3-3C384,71.86,383,70.65,381.2,70.57Zm70.1,3a3.1,3.1,0,0,0-6.2.05c0,1.94,1.21,3,3.16,3.2C450.12,76.53,451.34,75.49,451.3,73.54ZM436.94,93A2.73,2.73,0,0,0,434,96a2.76,2.76,0,0,0,3.18,3c1.85-.09,2.75-1.28,2.83-3.09C439.8,94.08,438.79,93,436.94,93ZM378,62.3a3,3,0,1,0,6,.14c0-1.85-1.09-2.84-2.93-3C379.26,59.53,378.1,60.45,378,62.3Zm17.16,33.83a3,3,0,0,0-5.94-.19c-.06,1.87,1,2.9,3,3.12C393.94,98.91,395.14,98,395.18,96.13Zm13.94-64.55a2.63,2.63,0,0,0-3,2.89,2.59,2.59,0,0,0,2.75,2.85c1.91.06,2.89-1,3-2.87C411.78,32.69,410.9,31.62,409.12,31.58Zm11.13,0a2.64,2.64,0,0,0-2.92,3,2.59,2.59,0,0,0,2.82,2.78c1.92,0,2.85-1.09,3-3.13A2.71,2.71,0,0,0,420.25,31.57ZM397.88,98.79A2.6,2.6,0,0,0,395,101.7a2.56,2.56,0,0,0,2.77,2.77c1.9,0,2.82-1.06,3-2.9C400.52,99.85,399.63,98.8,397.88,98.79Zm-8.32-8.42a2.94,2.94,0,0,0-5.88.12c0,1.88,1.16,2.8,3.08,2.92C388.5,93.21,389.6,92.26,389.56,90.37ZM431.7,98.8a2.61,2.61,0,0,0-3.14,2.67,2.58,2.58,0,0,0,2.54,3,2.7,2.7,0,0,0,3.18-2.6C434.24,100.09,433.46,98.94,431.7,98.8Zm10.8-11.32a3,3,0,0,0,.19,5.91c1.89,0,2.8-1.21,2.9-3.12A2.8,2.8,0,0,0,442.5,87.48Zm0-44.63a2.57,2.57,0,0,0-2.68,2.9,2.56,2.56,0,0,0,2.9,2.68c1.77-.06,2.61-1.18,2.75-3.16A2.76,2.76,0,0,0,442.49,42.85Zm-58.65,2.69a2.78,2.78,0,0,0,5.56.21c.08-1.76-1-2.68-2.65-2.94C385,42.94,383.89,43.78,383.83,45.54ZM445.4,84.89a2.79,2.79,0,0,0,5.59-.11c0-1.78-1.12-2.64-2.86-2.79C446.42,82.21,445.36,83.11,445.4,84.89Zm-8.3-47.62a2.56,2.56,0,0,0-2.88,2.67,2.56,2.56,0,0,0,2.67,2.88c1.75.08,2.67-1,2.94-2.65C439.7,38.45,438.85,37.33,437.1,37.27Zm-44.9,0a2.55,2.55,0,0,0-2.75,2.57,2.57,2.57,0,0,0,2.63,3c1.77.09,2.7-1,3-2.7C394.85,38.39,394,37.29,392.2,37.28Zm22.31,67.21a2.74,2.74,0,0,0,0,5.49c1.75,0,2.63-1.08,2.85-2.76C417.16,105.52,416.26,104.43,414.51,104.48ZM381.13,82.05a2.79,2.79,0,0,0-.22,5.57c1.76.08,2.69-1,3-2.65C383.73,83.23,382.89,82.11,381.13,82.05Zm69.76-30.87a2.69,2.69,0,1,0-5.38.27c.11,1.59,1.22,2.42,2.93,2.55C449.85,53.65,450.95,52.81,450.89,51.18Zm-67.2,0a2.68,2.68,0,1,0-5.35.21A2.69,2.69,0,0,0,381.12,54C382.67,53.68,383.73,52.81,383.69,51.2ZM428.4,107.1a2.6,2.6,0,0,0-5.2.12c0,1.62,1.06,2.47,2.64,2.66C427.45,109.62,428.47,108.72,428.4,107.1Zm25.33-41.66a2.6,2.6,0,0,0,0,5.2c1.62.06,2.5-1,2.73-2.59C456.23,66.46,455.36,65.42,453.73,65.44ZM397.8,31.84a2.61,2.61,0,0,0-.13,5.21c1.62.1,2.53-1,2.79-2.56A2.63,2.63,0,0,0,397.8,31.84Zm33.66,0a2.62,2.62,0,0,0-.13,5.23c1.6,0,2.48-1,2.74-2.57A2.63,2.63,0,0,0,431.47,31.83Zm-28,72.8a2.59,2.59,0,0,0-.2,5.18c1.61.12,2.53-.91,2.81-2.52A2.6,2.6,0,0,0,403.44,104.63Zm-27.83-34a2.58,2.58,0,0,0-.26-5.15,2.55,2.55,0,0,0-2.56,2.66C373.08,69.74,374,70.72,375.61,70.61Zm78.15,6.21a2.42,2.42,0,0,0,.07,4.84c1.54,0,2.31-.94,2.42-2.52A2.29,2.29,0,0,0,453.76,76.82Zm-78.41,0A2.16,2.16,0,0,0,373,79.1a2.19,2.19,0,0,0,2.32,2.53,2.39,2.39,0,1,0,0-4.78ZM414.52,26.5a2.11,2.11,0,0,0-2.27,2.29,2.15,2.15,0,0,0,2.43,2.41,2.2,2.2,0,0,0,2.3-2.32A2.22,2.22,0,0,0,414.52,26.5Zm39.4,28a2.12,2.12,0,0,0-2.43,2.39,2.09,2.09,0,0,0,2.32,2.23c1.45,0,2.19-.83,2.34-2.4A2.17,2.17,0,0,0,453.92,54.53ZM401.2,29a2.21,2.21,0,0,0,4.42-.18c0-1.43-.91-2.12-2.31-2.23A2.18,2.18,0,0,0,401.2,29ZM428,28.73a2.22,2.22,0,0,0-4.43.09c0,1.43.87,2.14,2.45,2.3A2.24,2.24,0,0,0,428,28.73ZM381.24,93.86a2.05,2.05,0,0,0-2.41,2.08,2,2,0,0,0,1.95,2.26c1.42.14,2.19-.71,2.48-2.18A2.21,2.21,0,0,0,381.24,93.86Zm-3.53-37a2.08,2.08,0,0,0-2.19-2.33,2.11,2.11,0,0,0-2.4,2.4,2.3,2.3,0,0,0,4.59-.07Zm72.67,39.28a2,2,0,0,0-2.2-2.32A2,2,0,0,0,446,95.9c-.07,1.44.81,2.18,2.17,2.37A2.16,2.16,0,0,0,450.38,96.16Zm-66,5.24a2.06,2.06,0,0,0,2.1,2.43,2,2,0,0,0,2.28-2c.14-1.44-.71-2.22-2.21-2.5A2.21,2.21,0,0,0,384.42,101.4Zm56,.39a2.21,2.21,0,0,0,4.41-.18c0-1.42-.91-2.12-2.3-2.23A2.18,2.18,0,0,0,440.39,101.79Zm-31.31,8.94a2.1,2.1,0,0,0-.14,4.2c1.29.05,2-.79,2.22-2A2.13,2.13,0,0,0,409.08,110.72Zm11.06,0a2.1,2.1,0,0,0,.14,4.2,2.13,2.13,0,0,0,2.08-2.16C422.12,111.51,421.42,110.67,420.13,110.72Zm18.95-3.59a2.08,2.08,0,0,0-4.16,0c0,1.3.83,2,2.09,2.18C438.28,109.14,439.12,108.44,439.08,107.14Zm-44.8.11a2.07,2.07,0,0,0-4.12-.18c-.12,1.29.72,2,2,2.27A2.1,2.1,0,0,0,394.28,107.25Zm59.65-18.8a2,2,0,1,0-.13,4c1.17,0,1.84-.75,2-1.95A2,2,0,0,0,453.93,88.45Zm-78.39,0a1.94,1.94,0,1,0-.24,3.88,1.94,1.94,0,1,0,.24-3.88ZM452.09,45.6a1.7,1.7,0,0,0,3.41.09,1.7,1.7,0,1,0-3.41-.09Zm-75,0A1.52,1.52,0,0,0,375.54,44a1.55,1.55,0,0,0-1.81,1.63,1.69,1.69,0,1,0,3.38,0Zm71-7.37a1.69,1.69,0,0,0-1.78,1.73,1.71,1.71,0,0,0,1.8,2,1.86,1.86,0,1,0,0-3.71Zm-66.93,0a1.7,1.7,0,0,0-2,1.79,1.66,1.66,0,0,0,1.66,1.87c1.21.09,1.91-.56,2-1.92A1.73,1.73,0,0,0,381.19,38.22Zm61.37-1.94a1.68,1.68,0,0,0,1.86-1.93,1.64,1.64,0,0,0-1.79-1.73c-1.24,0-1.84.71-1.89,1.93A1.72,1.72,0,0,0,442.56,36.27Zm-55.77-3.63a1.67,1.67,0,0,0-2,1.77,1.63,1.63,0,0,0,1.64,1.84,1.72,1.72,0,0,0,2-1.77A1.69,1.69,0,0,0,386.79,32.64ZM437,27.2a1.65,1.65,0,1,0,.24,3.28c.93-.13,1.4-.79,1.42-1.91A1.64,1.64,0,0,0,437,27.2Zm-46.43,1.63a1.5,1.5,0,0,0,1.54,1.64,1.52,1.52,0,0,0,1.71-1.74,1.59,1.59,0,0,0-1.67-1.54A1.61,1.61,0,0,0,390.59,28.83Zm31.23-5.59a1.5,1.5,0,0,0-1.55-1.59,1.51,1.51,0,0,0-1.66,1.75,1.59,1.59,0,0,0,1.69,1.49A1.61,1.61,0,0,0,421.81,23.24Zm-14.42,0a1.49,1.49,0,0,0,1.5,1.65,1.51,1.51,0,0,0,1.72-1.7A1.6,1.6,0,0,0,409,21.61,1.62,1.62,0,0,0,407.4,23.21Zm-9.48,88a1.54,1.54,0,0,0-1.76,1.69,1.5,1.5,0,0,0,1.55,1.62,1.66,1.66,0,1,0,.21-3.31Zm31.82,1.67a1.51,1.51,0,0,0,1.48,1.65,1.54,1.54,0,0,0,1.86-1.54,1.67,1.67,0,1,0-3.34-.11Zm31.49-39a1.7,1.7,0,0,0-1.72-2.07,1.66,1.66,0,0,0-1.92,1.59,1.75,1.75,0,0,0,1.73,2.09A1.72,1.72,0,0,0,461.22,73.88ZM368.07,62.4a1.58,1.58,0,0,0,1.64,1.79,1.76,1.76,0,1,0,.1-3.52A1.63,1.63,0,0,0,368.07,62.4Zm91.33-1.73a1.6,1.6,0,0,0-1.77,1.71,1.63,1.63,0,0,0,1.91,1.84c1.11-.06,1.62-.76,1.65-1.93A1.65,1.65,0,0,0,459.39,60.66ZM369.86,71.83A1.67,1.67,0,0,0,368,73.74a1.63,1.63,0,0,0,1.77,1.71,1.81,1.81,0,1,0,.07-3.62Zm1.49,13a1.53,1.53,0,0,0-3-.18c-.13,1,.53,1.48,1.44,1.73A1.59,1.59,0,0,0,371.35,84.86Zm89.6-.1a1.55,1.55,0,0,0-3.1,0c-.06,1,.61,1.48,1.55,1.66C460.33,86.25,461,85.74,460.94,84.76Z"/></svg>