<svg id="Layer_1" data-name="Layer 1" xmlns="http://www.w3.org/2000/svg" xmlns:xlink="http://www.w3.org/1999/xlink" viewBox="0 0 1184.67 198.16"><defs><style>.cls-1{fill:#fff;}.cls-2,.cls-4{fill:#010101;}.cls-2{fill-rule:evenodd;}.cls-3{fill:#c4c4c4;}.cls-5{mask:url(#mask);}.cls-6{fill:none;stroke:#010101;stroke-width:1.64px;}</style><mask id="mask" x="690.28" y="43.85" width="105.08" height="103.44" maskUnits="userSpaceOnUse"><g id="path-19-outside-1"><rect class="cls-1" x="690.28" y="43.85" width="105.08" height="103.44"/><path class="cls-2" d="M731.53,44.7c-1.06.1-4.6.75-6.11,1.12A37.9,37.9,0,0,0,716.93,49a28,28,0,0,0-4.29,2.42,6.77,6.77,0,0,1-1.24.73.16.16,0,0,0-.16.13,3.87,3.87,0,0,1-.86.72c-.46.33-1,.75-1.24.94a48,48,0,0,0-10.49,12,32.08,32.08,0,0,0-2.16,3.92c-.48,1-1,1.92-1,2.08-.27.52-1.36,3.38-1.88,5a52.33,52.33,0,0,0-2.19,9.91,55.12,55.12,0,0,0,.29,13.73,19.38,19.38,0,0,1,.23,3.41,46.9,46.9,0,0,0,2.48,15.75,51.37,51.37,0,0,0,3.81,8.43,8.08,8.08,0,0,1,.66,1.23.23.23,0,0,0,.13.19,7.84,7.84,0,0,1,.8,1.08c.38.57.76,1.11.85,1.22l.76.94a42.85,42.85,0,0,0,4.55,4.58l1,.73a30.63,30.63,0,0,0,6,3.27c.23.07.65.23.93.35a28,28,0,0,0,4.79,1.3,44.61,44.61,0,0,0,9.87.33,3.31,3.31,0,0,1,1.66,0,40.63,40.63,0,0,0,8.71,2.76c1.81.37,2.31.4,7.13.39,5.54,0,6.49-.12,10.82-1.28a57.87,57.87,0,0,0,14.46-6.37,44.38,44.38,0,0,0,7.31-5.52,58,58,0,0,0,5.47-6c.22-.33.67-1,1-1.45a47.85,47.85,0,0,0,3-5.2,43.1,43.1,0,0,0,4.22-13.22,40.83,40.83,0,0,1,.9-4.69,34.31,34.31,0,0,0,1.25-8.61,41.82,41.82,0,0,0-.56-8.61c-.14-.7-.33-1.62-.41-2A45.54,45.54,0,0,0,790,73.74a38.3,38.3,0,0,0-13.2-15.18,54.51,54.51,0,0,0-10.56-5.86L764.36,52c-.6-.22-2.25-1-3.65-1.65s-2.79-1.36-3.07-1.48a57.68,57.68,0,0,0-12.7-3.73c-2.16-.4-2.87-.44-7.56-.49C734.53,44.66,731.9,44.66,731.53,44.7Zm9.16,1.35a48.32,48.32,0,0,1,11.79,2.58c2.26.76,3,1,2.86,1.17a18.19,18.19,0,0,1-2.35-.18c-1.26-.13-3-.24-3.79-.25A65.75,65.75,0,0,0,736.36,51a69.72,69.72,0,0,0-8.48,2.74,85.19,85.19,0,0,0-11.34,5.71c-.25.16-.72.45-1,.64-.72.42-2.35,1.57-4.07,2.87a39.64,39.64,0,0,0-6.36,6.58c-.19.26-.62.84-1,1.27a70.33,70.33,0,0,0-6.73,10.94A58.24,58.24,0,0,0,694.8,88a40,40,0,0,0-1.3,4.4c-.23,1.29-.41.78-.41-1.14a71.09,71.09,0,0,1,.93-8.8,11.56,11.56,0,0,0,.34-1.39A53.65,53.65,0,0,1,697,72.82a47.69,47.69,0,0,1,10.17-15.28,36.73,36.73,0,0,1,9.94-7.31,26.69,26.69,0,0,1,4.67-2,33.56,33.56,0,0,1,6.58-1.75A47.91,47.91,0,0,1,740.69,46.05Zm13.83,5.18c3.26.51,7.5,1.56,8,2,.14.11.68.45,1.19.75s1.12.69,1.35.87l1.7,1.24a32.51,32.51,0,0,1,4.76,4.22,72.86,72.86,0,0,1,6,6.91c.35.47.73,1,.86,1.1s.4.52.62.86.72,1.06,1.12,1.62c.61.88,2.36,3.74,3.35,5.46.16.28.82,1.58,1.47,2.9a54.38,54.38,0,0,1,5.21,15.51,28.94,28.94,0,0,1,.47,6.57l0,4-.54,1.45a43.28,43.28,0,0,1-1.75,4.09c-.79,1.59-1.78,3.4-2.22,4.09a10.59,10.59,0,0,0-.61,1c-.07.13-.54.87-1.05,1.61a54.91,54.91,0,0,1-14.89,14.92c-8.06,5.37-15.75,8.3-23.92,9.13a35.18,35.18,0,0,1-7.93,0l-.66-.11,1.15-.49a43.28,43.28,0,0,0,7.38-4c1.86-1.25,2.27-1.64,2.12-2s-1.19-.32-2.08.37c-.46.35-1.17.86-1.59,1.14l-1.25.82a43.12,43.12,0,0,1-6.64,3.12l-1.87.63-1.53-.3c-.83-.17-1.79-.4-2.12-.51s-1.13-.38-1.78-.59a38.72,38.72,0,0,1-4.41-1.74,62.36,62.36,0,0,1-10.47-10.12,39,39,0,0,1-8-17.81,63.32,63.32,0,0,1-.69-19.57c.23-2,.45-3.83.5-4a30.57,30.57,0,0,0,.67-4.45c-.14-.24-.87-.2-1.42.09s-.52.43-.75,1.49a69.93,69.93,0,0,0-.61,26,48.77,48.77,0,0,0,3.48,11.11c.32.69.58,1.29.58,1.32s.36.71.8,1.49a40.86,40.86,0,0,0,5.3,7.29c1.35,1.53,1.19,1.58-.52.15a77.45,77.45,0,0,1-7.62-7.21c-1-1.09-3.55-4.22-4.23-5.2a43.81,43.81,0,0,1-4.93-8.78,50.09,50.09,0,0,1-2.21-7.09,12.68,12.68,0,0,1,.07-4c.16-1.5.36-3,.45-3.41s.4-1.65.67-2.82a52.14,52.14,0,0,1,2.7-8c.45-1,2.32-4.8,2.8-5.61.19-.35.66-1.15,1-1.79s1-1.57,1.32-2.06a6.32,6.32,0,0,0,.65-1c0-.15,2.66-3.62,4-5.29a41.89,41.89,0,0,1,4.56-4.68,57.77,57.77,0,0,1,5.22-3.69l1.87-1.09a67.7,67.7,0,0,1,8.48-4.17,57.81,57.81,0,0,1,16.38-4.08A66.78,66.78,0,0,1,754.52,51.23Zm17,6a61.3,61.3,0,0,1,7,5.05,43.21,43.21,0,0,1,6.8,7.72,6.14,6.14,0,0,0,.43.61c.14.17.56.84.94,1.49a41.6,41.6,0,0,1,5.64,20.13c0,1.88,0,1.88-.75-1.28a52.2,52.2,0,0,0-2.87-8.78c-.12-.29-.44-1-.71-1.62a66.08,66.08,0,0,0-4.17-7.71,8.34,8.34,0,0,1-.65-1.07,9.89,9.89,0,0,0-.74-1.16L781.32,69c-2.56-3.75-7.67-9.64-9.89-11.41C770.75,57,770.8,56.88,771.52,57.26ZM695,111.37c0,.55,2.4,4.8,4,7.23a75.9,75.9,0,0,0,10.55,11.63c1.33,1.11,4.16,3.36,4.75,3.77a52.34,52.34,0,0,0,7,4.23c1,.5,2.47,1.39,3.32,2a16,16,0,0,0,1.86,1.16,2.65,2.65,0,0,1,.76.46l.42.35-3.22-.07a25.33,25.33,0,0,1-8.15-1.27,27.93,27.93,0,0,1-8.91-4.8c-4.66-3.83-8.81-10.24-11-17a46.65,46.65,0,0,1-1.83-7.61c-.1-.86-.09-.9.16-.58A1.18,1.18,0,0,1,695,111.37Zm93.53,3.92c-3.75,10.3-10.57,18.26-20.55,24a52,52,0,0,1-5.37,2.7,3.35,3.35,0,0,0-.63.25c-.83.38-3.13,1.21-4.44,1.61a35.09,35.09,0,0,1-10.94,1.62A32.9,32.9,0,0,1,733.73,143c-1.2-.48-.64-.63,1.23-.34a49.12,49.12,0,0,0,6.07.22,33.55,33.55,0,0,0,6.79-.39,54.63,54.63,0,0,0,15.86-5.21,41.42,41.42,0,0,0,4.08-2.23,6.26,6.26,0,0,1,.76-.5,24.21,24.21,0,0,0,2.42-1.55,60.23,60.23,0,0,0,17.6-18.73C789,113.49,789,113.86,788.48,115.29Z"/></g></mask></defs><rect class="cls-3" x="368.46" y="21.77" width="147.19" height="147.19" rx="32.71"/><path d="M448.49,110.44a12.18,12.18,0,0,1-10.08,3.08,19.19,19.19,0,0,1-9.66-4c-6.24-4.88-8.49-11.47-6.27-19.06a25.84,25.84,0,0,1,2.66-6.39C435,68.32,449.28,60,467.87,59.31a28.62,28.62,0,0,1,8,1.18c11.84,3.09,17.21,13,16.41,24.26a38.47,38.47,0,0,1-10,23.16A67.81,67.81,0,0,1,439,131a45,45,0,0,1-29.42-5.78c-11.89-7.08-17.84-17.69-17.86-31.52a29.65,29.65,0,0,1,4.51-15.49,39.17,39.17,0,0,1,20.61-16.92,20.1,20.1,0,0,1,14.19.22,14.58,14.58,0,0,1,4.22,2.78c.63.55.82,1.62,1.52,3.08-1.18-.38-1.71-.39-2-.66-2.89-2.59-6.38-3-9.93-2.42a34.8,34.8,0,0,0-19.32,9.87c-14.78,14.71-9.56,35.5,3.54,44.89a39.7,39.7,0,0,0,28.07,7.19c17.19-1.83,31.42-9.59,42.52-22.87a31.9,31.9,0,0,0,7.72-19.3,25.12,25.12,0,0,0-.56-6.59A15.44,15.44,0,0,0,476.49,65.8a27.52,27.52,0,0,0-15.17-1.11c-12.39,2.41-22.49,8.52-30,18.73a26,26,0,0,0-4.3,8.93,11.74,11.74,0,0,0,3.18,11.93,17.7,17.7,0,0,0,11.95,5.08c1.3.09,2.62.08,3.92.23A13,13,0,0,1,448.49,110.44Z"/><rect class="cls-3" x="67.9" y="21.77" width="147.19" height="147.19" rx="32.71"/><path class="cls-4" d="M163,58.06A43.51,43.51,0,0,1,185.8,82.6a36.31,36.31,0,0,1-21.38,46.73,30.42,30.42,0,0,1-39.12-17.87,6.63,6.63,0,1,1,12.43-4.64,17.16,17.16,0,0,0,22.05,10.08,23.06,23.06,0,0,0,13.58-29.67,30.51,30.51,0,0,0-39.24-18,39.82,39.82,0,0,0-23.43,51.18,6.64,6.64,0,1,1-12.44,4.62,53.08,53.08,0,0,1,31.22-68.24A43.6,43.6,0,0,1,163,58.06Z"/><rect class="cls-3" x="969.58" y="21.77" width="147.19" height="147.19" rx="32.71"/><path d="M1050.28,134.33a73.63,73.63,0,0,1-19.5-3.13,28.23,28.23,0,0,0-6.07-1,46.86,46.86,0,0,1-16.65-3.9c-13.61-6.22-19.86-18.86-16.54-33.4A68.13,68.13,0,0,0,992.7,85,28.83,28.83,0,0,1,999.52,69c8-9.49,18.44-14.62,30.36-17.07a38.72,38.72,0,0,1,19.9.72,18.35,18.35,0,0,1,4.08,1.61c6.32,3.91,12.73,7.7,17.53,13.61a12.54,12.54,0,0,0,3.77,2.73c9.78,5.36,16.65,13.12,19.51,24,3,11.54-.72,22-10.28,29.18-7.1,5.34-15.25,8.14-23.92,9.49C1057.1,133.85,1053.68,134,1050.28,134.33ZM1061.82,97c-.89.67-1.48,1.07-2,1.53a38,38,0,0,1-13.41,7.33c-9.21,2.87-18.45,3.34-27.63-.24a19,19,0,0,1-9.71-8c-3.22-5.39-1.91-10.6,3.44-13.82a23.55,23.55,0,0,1,4-1.81,34.62,34.62,0,0,1,14.07-1.75c10.5.64,19.54,4.88,27.69,11.28,1,.81,2,1.61,3.23,2.52,5.65-6.51,8.19-13.53,5.86-21.82-.29-1.06-1-2.51-1.89-2.79a16.21,16.21,0,0,0-8.07-1c.23,2,.44,3.89.65,5.72l-.57.11c-.69-2-1.39-4-2.17-6.26-2.64.15-5.07.19-7.48.44-10.37,1.08-20.31,4.07-30.23,7.1-5.69,1.73-11.31,3.85-16.94,3-7.44,8.25-6.64,16.63-1.48,25.18.26.42.48.86.73,1.27,6.49,10.45,15.74,17.55,27,22.21a7.79,7.79,0,0,0,3.56.57c13.73-1.24,25.75-6.29,35.51-16.22,1.51-1.53,2.74-3.34,4.24-5.19Zm-1.87-.88a7.25,7.25,0,0,0-.71-1.29c-8.76-7.62-18.79-12.24-30.51-12.6a29.06,29.06,0,0,0-14.22,2.88c-5.66,2.88-6.65,7.59-2.8,12.69a18.89,18.89,0,0,0,10.95,6.91c13.05,3.2,24.9.46,35.58-7.6A13.73,13.73,0,0,1,1060,96.16ZM1074.48,73c2.41,6,3.56,11.62,3.16,17.41a36.52,36.52,0,0,1-5.31,16.38c2.76,2.75,5.26,5.41,8,7.85,1.58,1.43,3.6,2.27,5.71,1,3.57-2.07,6.46-4.69,7.23-9.08C1095.48,93.87,1087.33,78.77,1074.48,73Zm-38.17,56.76a55.23,55.23,0,0,0,25.51.9c7.9-1.48,15.3-4.15,21.72-9.13,1.69-1.32,3.17-2.91,4.76-4.38l-.27-.67c-3.3,1.72-6.4,1.66-9.17-.77-1.38-1.2-2.71-2.46-4-3.76-1.1-1.13-2.12-2.34-3.35-3.72C1062.58,120.15,1050.35,126.37,1036.31,129.79Zm-34.51-53.5a17.8,17.8,0,0,0,3.28.14c3-.59,6-1.19,8.91-2,8.11-2.17,16.15-4.64,24.32-6.58,4.91-1.17,10-1.57,15-2.32a14.47,14.47,0,0,0-13.54-8,60.18,60.18,0,0,0-30.06,10.34A29.82,29.82,0,0,0,1001.8,76.29Zm61.32,19.48,7.71,8.58c6.55-8.8,6-23.65.66-32.39-.41-.67-1.34-1-2.39-1.79C1071,82,1069.92,86.33,1063.12,95.77Zm-69.41.62c-1.52,4-.69,7.44.18,10.78,2.89,11,14.13,19.48,27.2,20.14C1008.16,120.07,998.5,110.64,993.71,96.39Zm2.44-15.66c1-1.66,2.34-3.21,3-5a11.44,11.44,0,0,1,4-5.55,147.85,147.85,0,0,1,13.76-9.65,38.3,38.3,0,0,1,21.05-5.22c4.72.19,9.44.31,13.8.45C1036.35,46.49,1000.18,59.94,996.15,80.73Zm52.81-23c2.33,2.68,4.35,5,6.41,7.36a2.16,2.16,0,0,0,1.14.78c2.59.3,5.18.51,8.17.79C1061.38,59.69,1055.06,59.36,1049,57.75Z"/><rect class="cls-3" x="669.02" y="21.77" width="147.19" height="147.19" rx="32.71"/><path class="cls-2" d="M731.53,44.7c-1.06.1-4.6.75-6.11,1.12A37.9,37.9,0,0,0,716.93,49a28,28,0,0,0-4.29,2.42,6.77,6.77,0,0,1-1.24.73.16.16,0,0,0-.16.13,3.87,3.87,0,0,1-.86.72c-.46.33-1,.75-1.24.94a48,48,0,0,0-10.49,12,32.08,32.08,0,0,0-2.16,3.92c-.48,1-1,1.92-1,2.08-.27.52-1.36,3.38-1.88,5a52.33,52.33,0,0,0-2.19,9.91,55.12,55.12,0,0,0,.29,13.73,19.38,19.38,0,0,1,.23,3.41,46.9,46.9,0,0,0,2.48,15.75,51.37,51.37,0,0,0,3.81,8.43,8.08,8.08,0,0,1,.66,1.23.23.23,0,0,0,.13.19,7.84,7.84,0,0,1,.8,1.08c.38.57.76,1.11.85,1.22l.76.94a42.85,42.85,0,0,0,4.55,4.58l1,.73a30.63,30.63,0,0,0,6,3.27c.23.07.65.23.93.35a28,28,0,0,0,4.79,1.3,44.61,44.61,0,0,0,9.87.33,3.31,3.31,0,0,1,1.66,0,40.63,40.63,0,0,0,8.71,2.76c1.81.37,2.31.4,7.13.39,5.54,0,6.49-.12,10.82-1.28a57.87,57.87,0,0,0,14.46-6.37,44.38,44.38,0,0,0,7.31-5.52,58,58,0,0,0,5.47-6c.22-.33.67-1,1-1.45a47.85,47.85,0,0,0,3-5.2,43.1,43.1,0,0,0,4.22-13.22,40.83,40.83,0,0,1,.9-4.69,34.31,34.31,0,0,0,1.25-8.61,41.82,41.82,0,0,0-.56-8.61c-.14-.7-.33-1.62-.41-2A45.54,45.54,0,0,0,790,73.74a38.3,38.3,0,0,0-13.2-15.18,54.51,54.51,0,0,0-10.56-5.86L764.36,52c-.6-.22-2.25-1-3.65-1.65s-2.79-1.36-3.07-1.48a57.68,57.68,0,0,0-12.7-3.73c-2.16-.4-2.87-.44-7.56-.49C734.53,44.66,731.9,44.66,731.53,44.7Zm9.16,1.35a48.32,48.32,0,0,1,11.79,2.58c2.26.76,3,1,2.86,1.17a18.19,18.19,0,0,1-2.35-.18c-1.26-.13-3-.24-3.79-.25A65.75,65.75,0,0,0,736.36,51a69.72,69.72,0,0,0-8.48,2.74,85.19,85.19,0,0,0-11.34,5.71c-.25.16-.72.45-1,.64-.72.42-2.35,1.57-4.07,2.87a39.64,39.64,0,0,0-6.36,6.58c-.19.26-.62.84-1,1.27a70.33,70.33,0,0,0-6.73,10.94A58.24,58.24,0,0,0,694.8,88a40,40,0,0,0-1.3,4.4c-.23,1.29-.41.78-.41-1.14a71.09,71.09,0,0,1,.93-8.8,11.56,11.56,0,0,0,.34-1.39A53.65,53.65,0,0,1,697,72.82a47.69,47.69,0,0,1,10.17-15.28,36.73,36.73,0,0,1,9.94-7.31,26.69,26.69,0,0,1,4.67-2,33.56,33.56,0,0,1,6.58-1.75A47.91,47.91,0,0,1,740.69,46.05Zm13.83,5.18c3.26.51,7.5,1.56,8,2,.14.11.68.45,1.19.75s1.12.69,1.35.87l1.7,1.24a32.51,32.51,0,0,1,4.76,4.22,72.86,72.86,0,0,1,6,6.91c.35.47.73,1,.86,1.1s.4.52.62.86.72,1.06,1.12,1.62c.61.88,2.36,3.74,3.35,5.46.16.28.82,1.58,1.47,2.9a54.38,54.38,0,0,1,5.21,15.51,28.94,28.94,0,0,1,.47,6.57l0,4-.54,1.45a43.28,43.28,0,0,1-1.75,4.09c-.79,1.59-1.78,3.4-2.22,4.09a10.59,10.59,0,0,0-.61,1c-.07.13-.54.87-1.05,1.61a54.91,54.91,0,0,1-14.89,14.92c-8.06,5.37-15.75,8.3-23.92,9.13a35.18,35.18,0,0,1-7.93,0l-.66-.11,1.15-.49a43.28,43.28,0,0,0,7.38-4c1.86-1.25,2.27-1.64,2.12-2s-1.19-.32-2.08.37c-.46.35-1.17.86-1.59,1.14l-1.25.82a43.12,43.12,0,0,1-6.64,3.12l-1.87.63-1.53-.3c-.83-.17-1.79-.4-2.12-.51s-1.13-.38-1.78-.59a38.72,38.72,0,0,1-4.41-1.74,62.36,62.36,0,0,1-10.47-10.12,39,39,0,0,1-8-17.81,63.32,63.32,0,0,1-.69-19.57c.23-2,.45-3.83.5-4a30.57,30.57,0,0,0,.67-4.45c-.14-.24-.87-.2-1.42.09s-.52.43-.75,1.49a69.93,69.93,0,0,0-.61,26,48.77,48.77,0,0,0,3.48,11.11c.32.69.58,1.29.58,1.32s.36.71.8,1.49a40.86,40.86,0,0,0,5.3,7.29c1.35,1.53,1.19,1.58-.52.15a77.45,77.45,0,0,1-7.62-7.21c-1-1.09-3.55-4.22-4.23-5.2a43.81,43.81,0,0,1-4.93-8.78,50.09,50.09,0,0,1-2.21-7.09,12.68,12.68,0,0,1,.07-4c.16-1.5.36-3,.45-3.41s.4-1.65.67-2.82a52.14,52.14,0,0,1,2.7-8c.45-1,2.32-4.8,2.8-5.61.19-.35.66-1.15,1-1.79s1-1.57,1.32-2.06a6.32,6.32,0,0,0,.65-1c0-.15,2.66-3.62,4-5.29a41.89,41.89,0,0,1,4.56-4.68,57.77,57.77,0,0,1,5.22-3.69l1.87-1.09a67.7,67.7,0,0,1,8.48-4.17,57.81,57.81,0,0,1,16.38-4.08A66.78,66.78,0,0,1,754.52,51.23Zm17,6a61.3,61.3,0,0,1,7,5.05,43.21,43.21,0,0,1,6.8,7.72,6.14,6.14,0,0,0,.43.61c.14.17.56.84.94,1.49a41.6,41.6,0,0,1,5.64,20.13c0,1.88,0,1.88-.75-1.28a52.2,52.2,0,0,0-2.87-8.78c-.12-.29-.44-1-.71-1.62a66.08,66.08,0,0,0-4.17-7.71,8.34,8.34,0,0,1-.65-1.07,9.89,9.89,0,0,0-.74-1.16L781.32,69c-2.56-3.75-7.67-9.64-9.89-11.41C770.75,57,770.8,56.88,771.52,57.26ZM695,111.37c0,.55,2.4,4.8,4,7.23a75.9,75.9,0,0,0,10.55,11.63c1.33,1.11,4.16,3.36,4.75,3.77a52.34,52.34,0,0,0,7,4.23c1,.5,2.47,1.39,3.32,2a16,16,0,0,0,1.86,1.16,2.65,2.65,0,0,1,.76.46l.42.35-3.22-.07a25.33,25.33,0,0,1-8.15-1.27,27.93,27.93,0,0,1-8.91-4.8c-4.66-3.83-8.81-10.24-11-17a46.65,46.65,0,0,1-1.83-7.61c-.1-.86-.09-.9.16-.58A1.18,1.18,0,0,1,695,111.37Zm93.53,3.92c-3.75,10.3-10.57,18.26-20.55,24a52,52,0,0,1-5.37,2.7,3.35,3.35,0,0,0-.63.25c-.83.38-3.13,1.21-4.44,1.61a35.09,35.09,0,0,1-10.94,1.62A32.9,32.9,0,0,1,733.73,143c-1.2-.48-.64-.63,1.23-.34a49.12,49.12,0,0,0,6.07.22,33.55,33.55,0,0,0,6.79-.39,54.63,54.63,0,0,0,15.86-5.21,41.42,41.42,0,0,0,4.08-2.23,6.26,6.26,0,0,1,.76-.5,24.21,24.21,0,0,0,2.42-1.55,60.23,60.23,0,0,0,17.6-18.73C789,113.49,789,113.86,788.48,115.29Z"/><g class="cls-5"><path class="cls-6" d="M731.53,44.7c-1.06.1-4.6.75-6.11,1.12A37.9,37.9,0,0,0,716.93,49a28,28,0,0,0-4.29,2.42,6.77,6.77,0,0,1-1.24.73.16.16,0,0,0-.16.13,3.87,3.87,0,0,1-.86.72c-.46.33-1,.75-1.24.94a48,48,0,0,0-10.49,12,32.08,32.08,0,0,0-2.16,3.92c-.48,1-1,1.92-1,2.08-.27.52-1.36,3.38-1.88,5a52.33,52.33,0,0,0-2.19,9.91,55.12,55.12,0,0,0,.29,13.73,19.38,19.38,0,0,1,.23,3.41,46.9,46.9,0,0,0,2.48,15.75,51.37,51.37,0,0,0,3.81,8.43,8.08,8.08,0,0,1,.66,1.23.23.23,0,0,0,.13.19,7.84,7.84,0,0,1,.8,1.08c.38.57.76,1.11.85,1.22l.76.94a42.85,42.85,0,0,0,4.55,4.58l1,.73a30.63,30.63,0,0,0,6,3.27c.23.07.65.23.93.35a28,28,0,0,0,4.79,1.3,44.61,44.61,0,0,0,9.87.33,3.31,3.31,0,0,1,1.66,0,40.63,40.63,0,0,0,8.71,2.76c1.81.37,2.31.4,7.13.39,5.54,0,6.49-.12,10.82-1.28a57.87,57.87,0,0,0,14.46-6.37,44.38,44.38,0,0,0,7.31-5.52,58,58,0,0,0,5.47-6c.22-.33.67-1,1-1.45a47.85,47.85,0,0,0,3-5.2,43.1,43.1,0,0,0,4.22-13.22,40.83,40.83,0,0,1,.9-4.69,34.31,34.31,0,0,0,1.25-8.61,41.82,41.82,0,0,0-.56-8.61c-.14-.7-.33-1.62-.41-2A45.54,45.54,0,0,0,790,73.74a38.3,38.3,0,0,0-13.2-15.18,54.51,54.51,0,0,0-10.56-5.86L764.36,52c-.6-.22-2.25-1-3.65-1.65s-2.79-1.36-3.07-1.48a57.68,57.68,0,0,0-12.7-3.73c-2.16-.4-2.87-.44-7.56-.49C734.53,44.66,731.9,44.66,731.53,44.7Zm9.16,1.35a48.32,48.32,0,0,1,11.79,2.58c2.26.76,3,1,2.86,1.17a18.19,18.19,0,0,1-2.35-.18c-1.26-.13-3-.24-3.79-.25A65.75,65.75,0,0,0,736.36,51a69.72,69.72,0,0,0-8.48,2.74,85.19,85.19,0,0,0-11.34,5.71c-.25.16-.72.45-1,.64-.72.42-2.35,1.57-4.07,2.87a39.64,39.64,0,0,0-6.36,6.58c-.19.26-.62.84-1,1.27a70.33,70.33,0,0,0-6.73,10.94A58.24,58.24,0,0,0,694.8,88a40,40,0,0,0-1.3,4.4c-.23,1.29-.41.78-.41-1.14a71.09,71.09,0,0,1,.93-8.8,11.56,11.56,0,0,0,.34-1.39A53.65,53.65,0,0,1,697,72.82a47.69,47.69,0,0,1,10.17-15.28,36.73,36.73,0,0,1,9.94-7.31,26.69,26.69,0,0,1,4.67-2,33.56,33.56,0,0,1,6.58-1.75A47.91,47.91,0,0,1,740.69,46.05Zm13.83,5.18c3.26.51,7.5,1.56,8,2,.14.11.68.45,1.19.75s1.12.69,1.35.87l1.7,1.24a32.51,32.51,0,0,1,4.76,4.22,72.86,72.86,0,0,1,6,6.91c.35.47.73,1,.86,1.1s.4.52.62.86.72,1.06,1.12,1.62c.61.88,2.36,3.74,3.35,5.46.16.28.82,1.58,1.47,2.9a54.38,54.38,0,0,1,5.21,15.51,28.94,28.94,0,0,1,.47,6.57l0,4-.54,1.45a43.28,43.28,0,0,1-1.75,4.09c-.79,1.59-1.78,3.4-2.22,4.09a10.59,10.59,0,0,0-.61,1c-.07.13-.54.87-1.05,1.61a54.91,54.91,0,0,1-14.89,14.92c-8.06,5.37-15.75,8.3-23.92,9.13a35.18,35.18,0,0,1-7.93,0l-.66-.11,1.15-.49a43.28,43.28,0,0,0,7.38-4c1.86-1.25,2.27-1.64,2.12-2s-1.19-.32-2.08.37c-.46.35-1.17.86-1.59,1.14l-1.25.82a43.12,43.12,0,0,1-6.64,3.12l-1.87.63-1.53-.3c-.83-.17-1.79-.4-2.12-.51s-1.13-.38-1.78-.59a38.72,38.72,0,0,1-4.41-1.74,62.36,62.36,0,0,1-10.47-10.12,39,39,0,0,1-8-17.81,63.32,63.32,0,0,1-.69-19.57c.23-2,.45-3.83.5-4a30.57,30.57,0,0,0,.67-4.45c-.14-.24-.87-.2-1.42.09s-.52.43-.75,1.49a69.93,69.93,0,0,0-.61,26,48.77,48.77,0,0,0,3.48,11.11c.32.69.58,1.29.58,1.32s.36.71.8,1.49a40.86,40.86,0,0,0,5.3,7.29c1.35,1.53,1.19,1.58-.52.15a77.45,77.45,0,0,1-7.62-7.21c-1-1.09-3.55-4.22-4.23-5.2a43.81,43.81,0,0,1-4.93-8.78,50.09,50.09,0,0,1-2.21-7.09,12.68,12.68,0,0,1,.07-4c.16-1.5.36-3,.45-3.41s.4-1.65.67-2.82a52.14,52.14,0,0,1,2.7-8c.45-1,2.32-4.8,2.8-5.61.19-.35.66-1.15,1-1.79s1-1.57,1.32-2.06a6.32,6.32,0,0,0,.65-1c0-.15,2.66-3.62,4-5.29a41.89,41.89,0,0,1,4.56-4.68,57.77,57.77,0,0,1,5.22-3.69l1.87-1.09a67.7,67.7,0,0,1,8.48-4.17,57.81,57.81,0,0,1,16.38-4.08A66.78,66.78,0,0,1,754.52,51.23Zm17,6a61.3,61.3,0,0,1,7,5.05,43.21,43.21,0,0,1,6.8,7.72,6.14,6.14,0,0,0,.43.61c.14.17.56.84.94,1.49a41.6,41.6,0,0,1,5.64,20.13c0,1.88,0,1.88-.75-1.28a52.2,52.2,0,0,0-2.87-8.78c-.12-.29-.44-1-.71-1.62a66.08,66.08,0,0,0-4.17-7.71,8.34,8.34,0,0,1-.65-1.07,9.89,9.89,0,0,0-.74-1.16L781.32,69c-2.56-3.75-7.67-9.64-9.89-11.41C770.75,57,770.8,56.88,771.52,57.26ZM695,111.37c0,.55,2.4,4.8,4,7.23a75.9,75.9,0,0,0,10.55,11.63c1.33,1.11,4.16,3.36,4.75,3.77a52.34,52.34,0,0,0,7,4.23c1,.5,2.47,1.39,3.32,2a16,16,0,0,0,1.86,1.16,2.65,2.65,0,0,1,.76.46l.42.35-3.22-.07a25.33,25.33,0,0,1-8.15-1.27,27.93,27.93,0,0,1-8.91-4.8c-4.66-3.83-8.81-10.24-11-17a46.65,46.65,0,0,1-1.83-7.61c-.1-.86-.09-.9.16-.58A1.18,1.18,0,0,1,695,111.37Zm93.53,3.92c-3.75,10.3-10.57,18.26-20.55,24a52,52,0,0,1-5.37,2.7,3.35,3.35,0,0,0-.63.25c-.83.38-3.13,1.21-4.44,1.61a35.09,35.09,0,0,1-10.94,1.62A32.9,32.9,0,0,1,733.73,143c-1.2-.48-.64-.63,1.23-.34a49.12,49.12,0,0,0,6.07.22,33.55,33.55,0,0,0,6.79-.39,54.63,54.63,0,0,0,15.86-5.21,41.42,41.42,0,0,0,4.08-2.23,6.26,6.26,0,0,1,.76-.5,24.21,24.21,0,0,0,2.42-1.55,60.23,60.23,0,0,0,17.6-18.73C789,113.49,789,113.86,788.48,115.29Z"/></g></svg>