<svg id="Layer_1" data-name="Layer 1" xmlns="http://www.w3.org/2000/svg" viewBox="0 0 1184.67 751.62"><defs><style>.cls-1,.cls-3{fill:#010101;}.cls-2{fill:none;stroke:#010101;stroke-width:16.35px;}.cls-3{fill-rule:evenodd;}</style></defs><path d="M797.57,705.67c-.78-.33-1.54-.73-2.34-1-10.59-3.3-16.81-10.53-18.69-21.34a32,32,0,0,1,1.24-16.12,25.72,25.72,0,0,0,.79-5.15c.63-5.08,1.21-10.17,1.88-15.25.27-2,.78-4,1.11-6.07a35.25,35.25,0,0,1,9.24-18.1c-2.48,5.13-5.71,8.86-6.58,14.63,2.13-2.61,3.74-4.46,5.23-6.41,1.78-2.3,3.35-4.76,5.2-7,3.16-3.83,7.31-4.62,12-3.5,3.28.79,6.56,1.55,9.82,2.36a12.44,12.44,0,0,1,3.36,1.06c5.13,3.09,11,4,16.57,5.85,8.56,2.91,16.66,6.7,23.53,12.7,5.33,4.66,9.4,10.14,10.31,17.45.94,7.62-1.48,14.24-6.29,20-6.38,7.67-14.93,11.77-24.35,14.26a51,51,0,0,1-18.37,1.57c-1.11-.12-2.9.32-3.38,1.11-3.08,5-7.88,7.29-13.18,8.9Zm29.36-12.78c12.42-.41,23.72-3.81,33-12.44a28.17,28.17,0,0,0,4.47-5.44c5.74-8.92,5.23-18.45-1.61-26.54-8.74-10.35-20.7-14.94-33.62-18.53v4.13c-3.79-5.57-3.83-5.59-9.9-5.68,7.22,7.93,12.06,16.93,15.88,26.56a5.41,5.41,0,0,0,2.56,2.16c2.08,1.08,4.32,1.85,6.39,3,1.77.94,4.06,1.77,3.79,4.33s-2.68,2.86-4.54,3.62c-1.58.65-3.22,1.15-4.87,1.73C838.8,679.72,834.87,687.19,826.93,692.89Zm5.29-38c-4-9.72-8.49-17.9-15.2-24.71-1.2-1.22-2.72-2.85-4.2-3a58.86,58.86,0,0,0-14,0c-5.17.82-6.74,5-4.29,9.6,1.92,3.64,4.09,7.14,6,10.77a3.92,3.92,0,0,0,4.22,2.35c6.69-.45,13.16.89,19.56,2.68Zm-15.46,36.76c0-2.18.44-4.2-.08-5.92-1.28-4.19-3-8.24-4.56-12.36a12.34,12.34,0,0,0-7.32-7.58,25.55,25.55,0,0,1-6.87-4.69,67.52,67.52,0,0,1-5.56-6.13l-7,4.88C790.58,676.87,804,690.52,816.76,691.66Zm19-24.42c-.47-2.21-.93-4-1.26-5.9a4.83,4.83,0,0,0-4-4.1c-3.41-.89-6.76-2-10.18-2.85-5.26-1.28-10.55-2.34-16.13-1.59.74,5.44,5.44,3.45,9.28,4.77l-6.66.62c.92,1.74,1.7,3,2.24,4.32,1.1,2.73,3.08,3.94,6,4.53A49.9,49.9,0,0,0,835.71,667.24ZM780,672l-.93.38c0,3.13-.32,6.28-.07,9.39a23.27,23.27,0,0,0,18.45,21c6.83,1.45,13.21-.82,16.83-6.28C796.91,696.69,785.94,687.88,780,672Zm55.48-1.32-22.17-.7a108.65,108.65,0,0,1,4.43,10.64,117.21,117.21,0,0,1,2.38,11.56C829.45,690.72,836.68,680.76,835.52,670.63Zm-51.58-8c-2.53,2.66-2.68,3-2,5.83a34.88,34.88,0,0,0,7.54,15.28,27.52,27.52,0,0,0,21.25,9.81C797,687.44,789.58,675.81,783.94,662.66Zm5-26.58c-5.64,5.85-8.21,14.67-4,20.38l5.82-3.73Zm6.43,18c3.09,4.64,6.45,7.57,11.26,9L800.83,653Zm3.83-3.85-6.77-11.52a18.67,18.67,0,0,0,1.88,12.75Zm39.24,16.88,6.61-2.68,0-1-8.26-3.92C837.41,662.46,837.84,664.42,838.44,667.13Zm-56.28-10.78-1.11.09.24,3.11.87-.06Z"/><path d="M779.05,512.2a25.76,25.76,0,0,0,1.27-3.43,27.34,27.34,0,0,1,10-15.86,36.11,36.11,0,0,0,4.93-5c3.72-4.42,7.69-8.44,13.38-10.31a4.24,4.24,0,0,0,1.8-1.41c3.19-4,7.34-4.4,11.86-3.28A30.53,30.53,0,0,1,834,479.32c9.53,7.72,16.89,17.27,23,27.81a77.43,77.43,0,0,1,9.76,25.25,43.39,43.39,0,0,1-.34,18.67,26.46,26.46,0,0,1-25.84,19.62c-5.47-.12-10.22-2.25-14.51-5.53a6.7,6.7,0,0,0-3.88-1.69c-14.38-.69-25.2-7.78-33.5-19.11a48.45,48.45,0,0,1-8.43-20.3,25.33,25.33,0,0,0-1.27-3.77Zm11.23-16.54a21.13,21.13,0,0,0-7.85,12.19c-1.67,6.58-1.12,13.14.63,19.6C787,542,795.57,552.82,809.5,559a28.84,28.84,0,0,0,12.11,2.67l-4.87-5.49a2.65,2.65,0,0,1,2,.81c6.37,5.79,6.48,5.82,14.94,3.66l.32-.07a39.26,39.26,0,0,0,20.13-12.74c4.33-5.22,5.76-11.12,3.67-17.6a69.41,69.41,0,0,0-4.36-10.52,123,123,0,0,0-16.77-24.3,92.55,92.55,0,0,0-10.5-10.36,29.23,29.23,0,0,0-7.93-4.2c-2.49-1-4.93-.2-7.67,1.68H814l.08.37-4.25,1.91a42.78,42.78,0,0,0,.5,5.1c.84,3.82,1.66,7.66,2.82,11.4,2.53,8.12,5.31,16.16,7.88,24.27,1.54,4.84,2.45,9.81,1.66,14.91-.9,5.8-3.74,10.38-9.41,12.52s-10.8.68-15.3-3.2a21.22,21.22,0,0,1-6.81-11.72,59.91,59.91,0,0,1,2.12-33.41,17.79,17.79,0,0,1,1.32-2.52,2,2,0,0,1,.19,1.73,65.48,65.48,0,0,0-3,29.16c.76,6.26,2.71,12,7.81,16.24,7.77,6.43,18.36,3.19,21.07-6.5a13.86,13.86,0,0,0,.67-5,60.23,60.23,0,0,0-1.72-10.9c-1.95-6.77-4.32-13.43-6.59-20.1a107.09,107.09,0,0,1-5.2-21.57,54.54,54.54,0,0,0-13.16,6.5,5.65,5.65,0,0,0-1.76,1.94,22.18,22.18,0,0,0-3,10.2,17.71,17.71,0,0,1-.29,2C788.59,502.43,789.64,499.11,790.28,495.66Zm36.53,67.87c1,.71,1.36,1.06,1.81,1.35,14.23,9.29,32.25-.06,35.88-14.53a43.06,43.06,0,0,0-.29-21.63c-5-19.42-15.81-35.23-31.09-48a35.45,35.45,0,0,0-8.94-5.24c-2.17-.91-4.77-.93-7.2-1.05a4.69,4.69,0,0,0-4,2c2.63,1,5.35,1.57,7.48,3A91.37,91.37,0,0,1,833,489a119.75,119.75,0,0,1,19.62,25.54,87.61,87.61,0,0,1,6.19,12.65c3.58,9.09,1.59,17.11-5.34,24C846.24,558.34,837.49,562.18,826.81,563.53Zm-29.59-76.06.45.55,10.26-4.44.92-4.84A28.23,28.23,0,0,0,797.22,487.47Zm13.55-6.57,6.29-2C811.81,477.36,811.19,477.57,810.77,480.9Z"/><path d="M315.84,369l1.47-1.21A41.47,41.47,0,0,1,339.15,358a37,37,0,0,1,5.47-.16,5.48,5.48,0,0,0,2.93-.72c8.36-4.52,16.71-4.49,24.75.67,6.42,4.12,10,10.3,11.24,17.93a36.69,36.69,0,0,1-2.28,19.15,69.13,69.13,0,0,1-27.11,34,36.93,36.93,0,0,1-16.46,6.1,24.49,24.49,0,0,1-22.12-8.71c-4.65-5.31-7.43-11.65-9.13-18.5a75.39,75.39,0,0,1,2.2-43.43c4-11.67,10.27-21.83,19.42-30,8-7.17,17.26-11.88,27.88-13.3,16.38-2.19,30.33,4.36,38.61,19.22a22.8,22.8,0,0,1,2.1,5.17,12.32,12.32,0,0,1,.24,4.16,3.51,3.51,0,0,1-2.8,3.36,3.29,3.29,0,0,1-3.62-2.07,26.55,26.55,0,0,1-1.74-4.2c-2.08-6.82-6.53-11.42-12.68-14.46-8.07-4-16.41-4.26-24.89-1.74-9.34,2.77-17,8.24-23.3,15.72A65,65,0,0,0,316,367.66a7.44,7.44,0,0,0-.25.84A2.18,2.18,0,0,0,315.84,369Zm43.25-6.71c1.79,1.4,3.39,2.53,4.85,3.83a21.61,21.61,0,0,1,7.5,19.1,30.22,30.22,0,0,1-7.26,17.13,22.7,22.7,0,0,1-4.64,4.12c-6.1,4-13.34,3.19-18.54-2a21.61,21.61,0,0,1-4.72-7.06,34.1,34.1,0,0,1,.71-28.9c.27-.58.57-1.13,1-2-1,.24-1.81.39-2.56.6a35.2,35.2,0,0,0-9.49,4.41A35.82,35.82,0,0,0,315.24,382a17.44,17.44,0,0,0-2.9,11.31,73,73,0,0,0,2,12.83,36.75,36.75,0,0,0,7,14.34,16.71,16.71,0,0,0,14.22,6.36,27.57,27.57,0,0,0,13.55-4.53,60.46,60.46,0,0,0,25-31.56,27,27,0,0,0,1.51-13.32c-1.09-7-4.71-12.09-11.41-14.51A11.14,11.14,0,0,0,359.09,362.31Zm-17.62,21.21a25.39,25.39,0,0,0,2.4,11.08,13.45,13.45,0,0,0,3.28,4.46,6.14,6.14,0,0,0,7.63.71,15.14,15.14,0,0,0,3.51-3,22.16,22.16,0,0,0,5-10.84,13.93,13.93,0,0,0-4.87-13.8,26.31,26.31,0,0,0-8.14-4.76c-2-.74-2.12-.72-3.49,1A24.17,24.17,0,0,0,341.47,383.52Z"/><path d="M1036.8,105.24a4.85,4.85,0,0,0-.76.06c-3.32.81-6.37-1-6.91-4.94-.55-4.12-.78-8.28-1.15-12.42-.07-.78-.15-1.56-.23-2.41-.77.07-1.31.15-1.86.17a4.38,4.38,0,0,1-4.68-3.66,7.28,7.28,0,0,1-.11-2,8.55,8.55,0,0,1,.49-2.36c3.22-8.35,8.17-15.32,16.11-19.81a5.28,5.28,0,0,0,2.28-2.3,29.29,29.29,0,0,1,5.85-8.14,19.35,19.35,0,0,1,4-3,8,8,0,0,1,9.88,1.66c.52.53,1,1.1,1.7,1.9,0-.48,0-.66,0-.84-.85-4.2,1.8-7.6,6.11-7.63a17.29,17.29,0,0,1,4.19.73,7,7,0,0,0,2.7.44,2.76,2.76,0,0,1,2.83,1.46,6.23,6.23,0,0,0,2.15,2c4.65,3.21,9.29,6.42,13.87,9.73a25.3,25.3,0,0,1,3.69,3.41,9.24,9.24,0,0,1,2.4,7.92c-.08.54-.12,1.09-.2,1.92.66-.26,1.14-.46,1.62-.63A38.84,38.84,0,0,1,1106,64.7a8.38,8.38,0,0,1,9.48,4.91,14.32,14.32,0,0,1,1.26,6.16,65.64,65.64,0,0,1-2.08,15.47,11.5,11.5,0,0,0,0,5.5,81.18,81.18,0,0,1,1.91,15.69,8.22,8.22,0,0,1-.23,1.6c-1.51-.8-5.53-8-9.91-17.54-.13.78-.23,1.33-.32,1.88a36.79,36.79,0,0,1-8.79,18A61,61,0,0,1,1093,121a33.48,33.48,0,0,0-4.63,5.58A32.33,32.33,0,0,1,1085,131a11,11,0,0,1-11.07,3.26,77.82,77.82,0,0,1-8-2.54,30.36,30.36,0,0,0-7.8-1.68c-1.18-.1-2.35-.23-3.52-.42a15,15,0,0,1-10-6.2,33.42,33.42,0,0,1-4.23-8.26c-.93-2.51-1.76-5-2.65-7.56C1037.43,106.83,1037.12,106.09,1036.8,105.24Zm23.85-33.42c.07.08.1.15.15.17a6.83,6.83,0,0,0,.87.29,30.67,30.67,0,0,1,11.67,5.61,38.5,38.5,0,0,1,8.61,9.22,77.42,77.42,0,0,1,6.7,12.46,14.06,14.06,0,0,1,.83,2.47c.73,3.27-.85,5.4-4.21,5.48a17,17,0,0,0-7.15,1.85c-1.62.79-3.2,1.66-4.85,2.38-5.09,2.2-9,1-12-3.71-.43-.69-.81-1.4-1.22-2.1-.28-.48-.54-1-.86-1.43-.92-1.31-1.38-1.45-2.8-.76-1.06.52-2.05,1.18-3.11,1.7-3.22,1.57-6.16.44-7.3-3a17.32,17.32,0,0,1-.8-4.75,45.43,45.43,0,0,1,1.62-12.53c.15-.62.29-1.24.52-2.21-2.68,1.33-5,1.73-7.41.19-.1,2.39-1,2.84-2.91,1.67l-1.33-.82.48,11.63c.56,0,.86.12,1.16.11a6.75,6.75,0,0,1,6.29,3.62,26.86,26.86,0,0,1,1.94,4.22c1,2.73,1.87,5.53,2.94,8.24a47.61,47.61,0,0,0,2.62,5.55,6.9,6.9,0,0,0,5.89,3.7c1.11.09,2.22.23,3.33.35a25,25,0,0,1,12.52,4.36,17.74,17.74,0,0,0,2.9,1.67c2.59,1.21,4.61.91,6.64-1.12A19.42,19.42,0,0,0,1085,123a30.57,30.57,0,0,1,5.92-6.91c1.82-1.59,3.64-3.2,5.35-4.91a28.3,28.3,0,0,0,8-14.46,15.75,15.75,0,0,0-.26-8.82c-.75-2-2-3.6-4.29-4a15.45,15.45,0,0,0-5.5.29c.24,1.66.49,3.19.69,4.72a25.31,25.31,0,0,1-.65,9.61,3.94,3.94,0,0,1-1.85,2.84c-.17-1-.27-1.82-.44-2.59a105.93,105.93,0,0,0-5.35-17.42,31.91,31.91,0,0,0-2.53-4.76,12.41,12.41,0,0,0-7.36-5.37,35.73,35.73,0,0,0-15.16-.5C1060.89,70.85,1060.55,71.15,1060.65,71.82Zm-17,7.79c1.07-.29,1.86-.45,2.59-.73s1.68-.81,2.53-1.17a3,3,0,0,1,4.43,2,8.83,8.83,0,0,1,.44,2.93c-.13,3.09-.36,6.19-.58,9.28-.18,2.47-.4,4.92-.63,7.69l2.29-1c3.83-1.63,6.73-1.08,9.64,1.91.91.93,1.68,2,2.51,3,.55.68,1.07,1.38,1.64,2a3.25,3.25,0,0,0,2.82,1.16c4.12-.42,7.84-2.11,12-3.47-1.34-2.64-2.48-5-3.75-7.37-4.14-7.66-10.12-13.1-18.7-15.4a15.88,15.88,0,0,1-3.6-1.48,5.27,5.27,0,0,1-2.94-5.37c0-.36,0-.73,0-1.22-1.23.29-2.35.61-3.49.84A4.25,4.25,0,0,1,1046,71c-.14-.21-.3-.42-.63-.88C1044.47,73.32,1043.37,76.15,1043.7,79.61Zm62.43,9.11.31-.06c.32-1.94.73-3.87,1-5.82a75.32,75.32,0,0,0,.54-7.78c0-1.73-.31-1.91-2.07-1.74-2.4.23-4.79.65-7.19.9a9.2,9.2,0,0,1-2.77-.12,3.41,3.41,0,0,1-2.82-2.87,7.91,7.91,0,0,1,0-2.57q.4-2.58,1-5.11a4.67,4.67,0,0,0-1.13-4.49,23.57,23.57,0,0,0-3.42-3.13,61.67,61.67,0,0,0-11.07-6.08,3.08,3.08,0,0,0-.77-.11c-.14.93-.31,1.77-.38,2.63-.2,2.41-.45,4.82-.5,7.24,0,1.75.49,2.15,2.27,2.15,1.05,0,2.1-.11,3.16-.15,4.3-.16,7.13,1.57,8.7,5.58a33,33,0,0,1,1.5,5.74c.37,1.88.47,3.82.79,5.71s.92,2.39,2.82,2.63c.92.11,1.85.19,2.78.29a7.33,7.33,0,0,1,6.29,4.58C1105.52,87,1105.8,87.86,1106.13,88.72Zm-34.31-37.81-.32-.12c-.43.49-.85,1-1.29,1.46a36.09,36.09,0,0,1-3,3.1,4.24,4.24,0,0,1-6.07,0c-1.17-1-2.12-2.26-3.19-3.38a31.29,31.29,0,0,0-2.22-2.24,2.63,2.63,0,0,0-3-.36,11.41,11.41,0,0,0-4.78,4.89c.88-.41,1.69-.85,2.54-1.18a7.9,7.9,0,0,1,6.84.38c1.85,1,3.32,2.31,3.4,4.6l.69,0c2.58-.21,3.58,1,2.82,3.48-.15.5-.3,1-.47,1.55l9.63.53a12.12,12.12,0,0,1-1.64-6.25C1071.77,55.19,1071.82,53.05,1071.82,50.91Zm-13.33,8.17c-2-.66-4-1.2-5.94,0s-4.4,4.35-4.79,6.37Zm-24.8,18.42.82-7.5-.31-.12-3.44,6ZM1069,46.73a1.23,1.23,0,0,0-1.84.58A14.49,14.49,0,0,1,1066,49.2a2,2,0,0,1-2.6.73c-.3-.12-.58-.27-1.06-.5,1.18,2.25,1.18,2.25,2.45,3.2C1066.74,51.08,1067.73,48.84,1069,46.73Zm16.57,21.56c-.25-2.05-1.49-2.86-4-2.5Z"/><path d="M628.58,379.76c3.56-5.28,6.07-10.89,6.3-17.24a21.46,21.46,0,0,0-17.55-22.24c-6.31-1.31-12.44-.48-18.47,1.49a53.93,53.93,0,0,0-12.48,5.93A95.79,95.79,0,0,0,549.82,391a43.41,43.41,0,0,0-3.7,15.68,30.94,30.94,0,0,0,1.48,11.14,7.82,7.82,0,0,1,.38,5,4.3,4.3,0,0,1-6.61,2.59,7.46,7.46,0,0,1-3.21-4.37,40.38,40.38,0,0,1-2-16,57,57,0,0,1,5.07-19.51A106.22,106.22,0,0,1,579.81,340a61.94,61.94,0,0,1,23.91-9.74,39.33,39.33,0,0,1,21.18,1.86,31.43,31.43,0,0,1,20,31.45,42.81,42.81,0,0,1-4.67,16.5c-5.7,11.36-13.82,20.78-23.59,28.82A74.35,74.35,0,0,1,595,421.54a37.68,37.68,0,0,1-14.36,2.7,25.23,25.23,0,0,1-6.29-1,15.65,15.65,0,0,1-11.5-15,26.21,26.21,0,0,1,2.32-11.61,39.74,39.74,0,0,1,10.35-13.91c8-7.1,17.37-11.48,27.57-14.27A51,51,0,0,1,618,366.3a20,20,0,0,1,5.24.76c4.81,1.44,7.1,5.6,6,10.49C629,378.29,628.79,379,628.58,379.76Zm-29.57.53c-8.6,3.45-16,7.83-21.45,14.91a24.09,24.09,0,0,0-3.92,7.28,14,14,0,0,0-.71,6.09,5.47,5.47,0,0,0,4.21,5.06,18.29,18.29,0,0,0,4.83.56,31.37,31.37,0,0,0,11.91-3c11.21-4.83,20.3-12.42,28.11-21.66a5.3,5.3,0,0,0,.48-.8,6,6,0,0,0-1.81,1.08c-2.57,1.77-5.08,3.64-7.75,5.23a12.36,12.36,0,0,1-7,1.62,8.28,8.28,0,0,1-7.76-5.94,13.12,13.12,0,0,1-.11-7C598.29,382.76,598.61,381.76,599,380.29Zm8.56,5.95c4.1-1.13,10.31-6.76,11-9.88a5.24,5.24,0,0,0-1-.12c-1.42.09-2.83.18-4.24.34-3.54.41-3.54.42-4.48,3.82-.27,1-.54,1.91-.75,2.88S607.74,385.19,607.57,386.24Z"/><path d="M1053.38,201c-.44,1.07-1.35.95-2.06,1-5.8.47-10.52,3.19-14.75,7-1,.9-2,1.86-3,2.73-8.3,7-12.73,16.21-14.76,26.69a47.59,47.59,0,0,0,.89,23.2,38.5,38.5,0,0,0,3.16,7.42c4.43,7.94,11.48,12.28,20.25,13.78,15,2.55,29.12-.29,42.52-7.16a50.65,50.65,0,0,0,15-11.77,34.67,34.67,0,0,0,7.89-14.23c2.47-9.6,0-17.88-7.19-24.61a34.83,34.83,0,0,0-17.15-8.57c-14.63-2.95-27,1.31-36.83,12.44a23.25,23.25,0,0,0-6.11,14c-.47,7,2.25,12.56,8.5,15.94,7.92,4.3,16,4,23.84-.22a14.11,14.11,0,0,0,6-6.16,7.23,7.23,0,0,0-.63-8,14.46,14.46,0,0,0-7.07-5.24c-2.07-.74-4.11-1.58-6.12-2.46a12.84,12.84,0,0,1-2-1.4,9.41,9.41,0,0,1,6.72-2.83,16.39,16.39,0,0,1,11.61,4.57c3.57,3.22,5.82,7.16,5.73,12.13a16,16,0,0,1-2.78,8.39,23,23,0,0,1-10.7,8.82,31.76,31.76,0,0,1-23.3,1c-13.67-4.65-20.21-17.56-15.87-31.33a37,37,0,0,1,13.11-18.24c17.27-13.4,39.37-12.2,55.28-.44A31.18,31.18,0,0,1,1116.69,241a32.65,32.65,0,0,1-2.65,15,49,49,0,0,1-14.77,19.25c-8.75,7.19-18.85,11.51-29.84,13.92a75.9,75.9,0,0,1-20.33,1.69,48.26,48.26,0,0,1-14-2.7c-11.49-4.14-18.87-12.35-22.18-23.88-5.1-17.77-2.16-34.44,8.13-49.81.15-.24.34-.45.5-.69,5.45-7.68,13-12,22.2-13.27a73.14,73.14,0,0,1,7.41-.46A2.32,2.32,0,0,1,1053.38,201Z"/><path d="M880.83,121.54c-2.8-.22-5.41-.38-8-.66A25.8,25.8,0,0,1,857.46,114a9.23,9.23,0,0,0-1.94-1.48,38.17,38.17,0,0,1-12.43-10,6.21,6.21,0,0,0-1-.68,38.41,38.41,0,0,0,.4,4,27.1,27.1,0,0,0,22,21.1c2.41.41,4.87.61,7.27,1.08a40.87,40.87,0,0,1,5.75,1.61c.65.23,1.57,1,1.55,1.53s-.84,1.3-1.49,1.65a25.44,25.44,0,0,1-16.39,2.62c-14-2.16-25.57-14.46-27.26-28.53a36.87,36.87,0,0,1,.61-12.44,33.12,33.12,0,0,0,.36-13.2,39.07,39.07,0,0,1,1.31-19.65,20.87,20.87,0,0,1,1.1-2.78,76.41,76.41,0,0,1,10.42-14.89A14.6,14.6,0,0,1,860,38.93a58,58,0,0,0,8.94-.32,33.41,33.41,0,0,1,23.42,6.29c4.5,3.2,9,6.41,13.44,9.69C914.66,61.2,920,70.24,922,81.14a21.21,21.21,0,0,1-4.68,18.11,9.21,9.21,0,0,0-2,4.35A48.37,48.37,0,0,1,903.78,127a22.63,22.63,0,0,1-9.14,6.71c-3.9,1.4-7.52,1-10.58-2-2-2-2.72-4.65-3.06-7.4C880.9,123.44,880.9,122.62,880.83,121.54Zm-6.41-10.74c-.93-.1-1.87-.15-2.79-.3a54.28,54.28,0,0,1-8-1.49c-3.77-1.23-5-4.83-3.27-8.4a9.87,9.87,0,0,1,5.3-4.87A12.93,12.93,0,0,1,873.4,95c2.64.55,5.25,1.26,8.22,2-1.83-11.19-3.77-22.25.93-33.17a20.8,20.8,0,0,0-2.5-.6c-10.66-1.28-20,3.74-24.48,12.64-5.14,10.18-3.19,25,4.47,33.48a4.84,4.84,0,0,0,1.88,1.52C866,112,870.17,112.37,874.42,110.8Zm11.86,10.5a39.66,39.66,0,0,0,.44,4.28c.79,3.59,3.36,5,6.72,3.41a16.33,16.33,0,0,0,4.59-3.28A37.84,37.84,0,0,0,907.58,108a2.76,2.76,0,0,0-.1-1.06c-3.3.9-6.43,1.79-9.58,2.6s-6.26,1.5-9.66,2.31c-.39,1.6-.8,3.31-1.28,5.25,1.82.17,3.34.28,4.86.45,1.8.2,3.61.35,5.37.72,1.38.28,2.76.78,3.18,2.24ZM888.42,97a65.61,65.61,0,0,0,5.24-13.81,26.8,26.8,0,0,0,.42-11.85,4.06,4.06,0,0,0-.71-2,19.31,19.31,0,0,0-8.71-5C881.74,70.48,884.91,89.79,888.42,97ZM843,74.47c7.21-10.43,15.42-19.64,27.46-24.92a4.59,4.59,0,0,0-.84-.66c-1.28-.47-2.54-1-3.85-1.33-7.51-2-7.26-1.85-13.34,2.23a11,11,0,0,0-3.74,3.8C845.29,60.09,844,67.23,843,74.47Zm7.78,30.77c-4.88-14.91-3-17.44-2.8-23.69A46.25,46.25,0,0,0,842.85,94,2.23,2.23,0,0,0,843,95.3,23.45,23.45,0,0,0,850.73,105.24Zm50.92-5.51c2.37-1,4.2-1.72,6-2.49A1.79,1.79,0,0,0,909,95.42a51.91,51.91,0,0,0-2.23-14.19C906.33,88.65,906.33,88.65,901.65,99.73Zm3.22-25.91a79.84,79.84,0,0,0-5-12.11c-1.17-2.34-3.05-3.05-5.46-3.5,1.3,2.69,2.5,5.19,3.73,7.68a4.05,4.05,0,0,0,.67.84Zm10.91,14c2.14-7-.58-12.79-4.75-18.18Q913.42,78.74,915.78,87.83ZM893.67,98.62c5.34-5.24,8.16-14.6,5.84-19.35C898.73,86.18,896.23,92.36,893.67,98.62Zm-6.53-39c-2.87-3.62-6.35-4.22-10.18-1.87Zm-5.77,57.47c.11-.83.19-1.46.3-2.28L876,116.16v.42Zm3-70.84L878.16,44C880.8,46.7,881.93,47.16,884.34,46.24Zm-8.86,56.65.1-.57-4.68-.5-.06.63Z"/><path d="M808.88,410.55c-1.25.35-2.26.69-3.29.9a8.57,8.57,0,0,1-9.52-4,19.14,19.14,0,0,1-2.63-8,54,54,0,0,1,1.27-18.62,73.29,73.29,0,0,1,13.7-30,42.14,42.14,0,0,1,16.89-13.3,29.07,29.07,0,0,1,36.08,10.73,37.14,37.14,0,0,1,6.09,25,56.46,56.46,0,0,1-18.22,37,38.22,38.22,0,0,1-18.07,10,21.89,21.89,0,0,1-12.39-.66,16.29,16.29,0,0,1-9.34-8C809.29,411.23,809.11,410.93,808.88,410.55Zm48-28.46a7.94,7.94,0,0,0,.4-.95,38.54,38.54,0,0,0,1.3-13.72c-.78-8.18-4.39-14.75-11.34-19.32a18.13,18.13,0,0,0-12.39-2.9,24.62,24.62,0,0,0-11.81,5,55.43,55.43,0,0,0-13.93,15.11c-5.5,8.54-9.18,17.77-10,28a21.85,21.85,0,0,0,1.23,9.85c1,2.66,2.48,3.46,5.32,3.11a20.51,20.51,0,0,0,2.07-.48c.13-1.53.13-3,.39-4.34a20.77,20.77,0,0,1,9.79-14.14C830,379.71,842.81,376.92,856.92,382.09Zm-8.38,16.83c-.08-.06-.14-.13-.19-.12l-1,.12a32,32,0,0,1-11.43.1c-3.39-.68-6.18-2.13-7-5.91,0-.11-.19-.18-.29-.27-5,1.9-9.15,5.53-9.48,8.2,1.92-.5,3.63-1.82,6.06-1.6-2,2.65-4.89,3.69-7.1,5.5a8.18,8.18,0,0,0,6.19,7.77c3.79,1,7.32,0,10.71-1.6,5.51-2.63,9.73-6.8,13.36-11.62A2,2,0,0,0,848.54,398.92Zm.13-9.54A35,35,0,0,0,837,390.47,25.55,25.55,0,0,0,848.67,389.38Z"/><path d="M372,245.85c3.51,2.27,4,5.17,1.57,8.34a18.48,18.48,0,0,1-9.05,6.11,16.14,16.14,0,0,0-2.83,1.39c-1.54.88-3,1.89-4.58,2.69a9.51,9.51,0,0,1-3,.94c-4,.55-6.55-2.67-5.21-6.46a12.73,12.73,0,0,1,3.68-5.15,33,33,0,0,1,12.28-7.05l2.37-.74a5.23,5.23,0,0,0-3.16-6.28,12,12,0,0,0-6-1,24.74,24.74,0,0,0-22.26,19.77,23.23,23.23,0,0,0-.1,9.1c1.75,8.84,8.26,13.83,17.82,13.07a40.27,40.27,0,0,0,15.4-4.65,57.13,57.13,0,0,0,21.31-19.2,29.83,29.83,0,0,0,4.91-12.15c1.22-7.93-1.07-15-5.84-21.18-7.28-9.45-16.91-14.08-29-13a37.52,37.52,0,0,0-14.14,4.44,52.41,52.41,0,0,0-10.14,7,77.67,77.67,0,0,0-20,27.54,51.06,51.06,0,0,0-2.49,7.9,16.65,16.65,0,0,0,0,8c.21.93.4,1.9-.74,2.36s-1.77-.32-2.21-1.16a17.53,17.53,0,0,1-1.62-3.66,25.44,25.44,0,0,1,.73-14.28,70.28,70.28,0,0,1,12.82-22.94A65.42,65.42,0,0,1,341.64,209a44.22,44.22,0,0,1,19-5.79c13.81-.76,24.74,4.76,32.95,15.7A34.5,34.5,0,0,1,401,241.35a30.15,30.15,0,0,1-2.27,10.57c-6.54,15.64-17.73,26.72-33.3,33.3a33.1,33.1,0,0,1-16.48,2.49c-10.72-1.11-18.53-8.09-20.41-18.7-1.91-10.81,1-20.41,8.75-28.13a26.83,26.83,0,0,1,23.4-7.8,12.75,12.75,0,0,1,9.74,6.16A12.62,12.62,0,0,1,372,245.85Z"/><path d="M73.27,408.54c-1.76.75-2.9-.06-3.89-1.13a6.3,6.3,0,0,1-1.46-4.13,29,29,0,0,1,1.25-8.83,115.37,115.37,0,0,1,12-27.89A125.9,125.9,0,0,1,97.55,344a59.84,59.84,0,0,1,13-11,29.13,29.13,0,0,1,12.3-4.49,18.63,18.63,0,0,1,13.58,3.87,29.34,29.34,0,0,1,6.72,7.38c7.29,11.14,11.14,23.25,10.24,36.68a56.23,56.23,0,0,1-4.54,18.11,68.73,68.73,0,0,1-10.14,16.95,5,5,0,0,0-1.19,3.67,52.36,52.36,0,0,0,1.14,10.37,5.74,5.74,0,0,1-.09,1.07c-2.55-3.08-3-6.62-4.2-10.16l-1.92,1.66a37,37,0,0,1-17,8.81,21,21,0,0,1-8.47.06,16.37,16.37,0,0,1-12-9.62,27.12,27.12,0,0,1-2.36-13.3A66.93,66.93,0,0,1,108.34,365a30.47,30.47,0,0,1,9.14-7.57,20.48,20.48,0,0,1,4.93-1.94c5-1.17,8.85,1.63,9.64,6.71a20.57,20.57,0,0,1-.79,9.26c-.92,3-2,6-3.13,9.23.52.47,1.16,1,1.74,1.61a17,17,0,0,1,3.8,6.59,65,65,0,0,1,2.62,12.49c.11.77.24,1.53.42,2.62a14.84,14.84,0,0,0,1.22-1.37c7.18-10.56,10.95-22.13,9.82-35a53.84,53.84,0,0,0-9.13-25.85,29.27,29.27,0,0,0-3.69-4.4,13.14,13.14,0,0,0-14.13-3.3A34,34,0,0,0,110.25,340,84.22,84.22,0,0,0,97,353.21,135.19,135.19,0,0,0,73.9,393.26a76.63,76.63,0,0,0-2.16,8.66,6.18,6.18,0,0,0,1.06,5.26A4.53,4.53,0,0,1,73.27,408.54Zm52-22.5a20.73,20.73,0,0,1-2.14,1.86,3.26,3.26,0,0,1-3.8.13,3.19,3.19,0,0,1-1.4-3.33,5.35,5.35,0,0,1,1.83-3.27,6.41,6.41,0,0,0,1.4-1.56,58.59,58.59,0,0,0,5.15-14.39,12.41,12.41,0,0,0,.13-3.6,2.13,2.13,0,0,0-2.84-2.05,8.63,8.63,0,0,0-3.3,1.37,46.17,46.17,0,0,0-5.89,5.18,56.44,56.44,0,0,0-8.53,12.94c-3.7,7.34-6.47,15-7.32,23.22a22.65,22.65,0,0,0,1.35,11.29A9.62,9.62,0,0,0,108,420a19.05,19.05,0,0,0,8-.65A38.9,38.9,0,0,0,132,409.61a2.25,2.25,0,0,0,.76-2.26c-.58-3-1-6-1.66-9a76.92,76.92,0,0,0-2.63-8.52A6.73,6.73,0,0,0,125.25,386Z"/><path d="M829,220.13a12,12,0,0,1,.82-1.87c1.78-2.81-.21-7-4.75-6.55a17.84,17.84,0,0,0-4.86,1.38A31.15,31.15,0,0,0,808,222.41c-7.23,9-10.84,19.23-9.86,30.8a24.92,24.92,0,0,0,19.62,22.52,27.86,27.86,0,0,0,14.45-1.05c7.84-2.57,14.66-6.79,19.8-13.32a28.37,28.37,0,0,0,4.2-7.5,9.58,9.58,0,0,0-3-11.36c-5.85-4.87-12.62-5.73-19.69-3.44-6.79,2.2-10.43,7.34-11.89,14.15a10.45,10.45,0,0,0-.15,2.68c.2,4,2,5.94,6,5.81a59.54,59.54,0,0,0,8.2-1.32c1-.17,2-.41,3.45-.71a7.35,7.35,0,0,1-.56,2.08,25.38,25.38,0,0,1-7.8,7.29c-6.83,3.88-14.49,1.49-17.82-5.65-2.26-4.84-2.17-9.86-.71-14.89,4.67-16.09,21-24.49,37.53-19.33a28,28,0,0,1,9,4.6,20.61,20.61,0,0,1,7,23.81,24.72,24.72,0,0,1-2.8,5.92c-10.31,15-24.42,23.27-42.86,22.72-10.45-.31-18.93-5.19-25-13.75a38.16,38.16,0,0,1-5.9-33.84,54.94,54.94,0,0,1,14.22-24.23,32.14,32.14,0,0,1,16.46-9.2,14.89,14.89,0,0,1,8.54.43c5.86,2.28,7.09,8.43,3.42,13.58a8.31,8.31,0,0,1-2.26,1.53Z"/><path d="M601.75,262.87c-6.59,2.86-13.26-.51-14.47-7.52-1.26-7.29,1-13.61,7.08-17.84,8.78-6.08,18.44-6.86,28.17-2.54,9,4,12.39,13.18,8.82,22.29a21.28,21.28,0,0,1-1.68,3.62c-9.6,15.35-23.3,24.26-41.52,25-15.95.61-30.56-9.66-36.12-24.64a44.89,44.89,0,0,1-.06-31.62A30.41,30.41,0,0,1,562.64,215a52.4,52.4,0,0,1,22.11-9.55,16.91,16.91,0,0,1,9.81.94,13,13,0,0,1,8.4,11.42c.16,1.64-.46,2.62-1.7,2.7s-1.91-.69-2.17-2c-.72-3.67-3.5-5.41-6.75-6a23.53,23.53,0,0,0-8.24.17,30.5,30.5,0,0,0-24.49,33.51,34.87,34.87,0,0,0,3.55,12.4c6.1,11.93,17.77,17.89,31,15.65A43.53,43.53,0,0,0,616,263.69a21.33,21.33,0,0,0,6.23-8.91c1.61-4.59.19-7.83-4.34-9.61a18.11,18.11,0,0,0-15.47.65,11.23,11.23,0,0,0-6.49,9.08c-.36,3.17.56,4.7,3.43,6.12.78.38,1.54.82,2.3,1.25C601.7,262.31,601.68,262.47,601.75,262.87Z"/><path d="M1116.77,400.57c-1.07,1.33-1.35,2-1.83,2.24-11.36,6.23-22.51,12.95-35.32,15.92-9.15,2.13-18.18,2.35-26.8-2.32a9.53,9.53,0,0,0-3.89-.85c-6.79-.42-12.06-3.57-16.2-8.81-4.84-6.12-7.08-13.28-8.23-20.85-2-13.49.48-26.34,5.58-38.79a34.94,34.94,0,0,1,3.66-6.75c4.14-5.88,10.58-6.35,16.54-1.16-1.6,1.43-3.5,1.38-5.27,1.07-4.61-.81-7.63,1.25-9.47,5.18a48.56,48.56,0,0,0-3.25,8.68c-3.34,13.27-2.43,26.24,3.35,38.75a23.2,23.2,0,0,0,6.59,8.78c-.11-1.79-.12-2.82-.24-3.83a30,30,0,0,1,4.28-19.8,10.26,10.26,0,0,0,1.67-5.26c.46-19.33,17.24-31.49,35.9-26a34.17,34.17,0,0,1,8.1,3.6c6.41,3.95,9,10,7.37,17.36a47.61,47.61,0,0,1-3.5,9.88,82.27,82.27,0,0,1-21.13,26.88c-1.09.93-2.16,1.88-3.71,3.22,5.36.67,10-.15,14.54-1,8.74-1.67,17.42-3.7,26.13-5.54C1113,400.91,1114.4,400.85,1116.77,400.57ZM1060,365.89c10.87-2,20.69-1.87,26.7,10.26,1.68-4,3.21-7.26,4.45-10.64,1.3-3.56-.15-6.36-3.07-8.43a20.29,20.29,0,0,0-12.59-3.75C1067.91,353.53,1062.23,358,1060,365.89Zm-.1,13.94a56.24,56.24,0,0,0,2.45,5.28c3.42,5.85,8.65,6.38,13.21,1.3a13.68,13.68,0,0,0,2.48-4.11c1.21-3.13.21-5.17-2.87-6.45C1070.06,373.71,1064.05,375.19,1059.91,379.83Zm-2.37,22.62c2.69-1.36,5.23-2.17,6.76-4.25l-9.06-4.95C1054.88,396.53,1055.78,399.37,1057.54,402.45Z"/><path d="M1035.25,629.13c-3.22-2.12-6.11-4-8.9-5.9-1.59-1.11-3.48-2.32-3-4.63.55-2.53,2.94-2.78,4.95-3a39.91,39.91,0,0,1,16,1.64,27,27,0,0,0,17-.4,50,50,0,0,1,34.47.81,36.79,36.79,0,0,1,14.38,9.84c7.59,8.51,8.76,19.7,3.06,29.55a12.85,12.85,0,0,0-1.9,5.78c-.36,5.42-2.89,10-6.18,14.23a67.59,67.59,0,0,1-14.88,13.51q-5.1,3.56-10.19,7.16c-8.24,5.84-17,10.5-27,12.72-8.39,1.87-16.48,1.24-24.12-3.09a29.67,29.67,0,0,0-4.78-1.77c-10.83-3.86-18.09-11-20.12-22.59a34.8,34.8,0,0,1,1.56-17,63.23,63.23,0,0,1,12.25-21.1A94.93,94.93,0,0,1,1035.25,629.13Zm7.35,4.26c-1,1.17-1.78,2.1-2.58,3a79.66,79.66,0,0,0-16.12,28.05,49.63,49.63,0,0,0-2.72,15.8,3.93,3.93,0,0,0,2.72,4.12,48.07,48.07,0,0,0,25.71,3.86,102.39,102.39,0,0,0,34.5-10.32c2.55-1.26,3.05-1.87,2.22-4.57a32.91,32.91,0,0,0-3.81-8.61,47.82,47.82,0,0,0-7-8C1065.83,647.53,1054.42,640.68,1042.6,633.39Zm2.25-1.47c1.76,1.12,3.33,2.05,4.82,3.1,8.08,5.68,16.37,11.09,24.11,17.19,7.4,5.82,14,12.53,15.41,23.26,3.94-2.76,7.36-5.25,10.88-7.6a7.82,7.82,0,0,0,3.3-5.81,33.66,33.66,0,0,0,.05-12,6.75,6.75,0,0,0-1.4-3.24,60.14,60.14,0,0,0-18.59-12.63c3.19,3.74,6.34,7.42,6.68,12.72-.59,0-.76,0-.82-.06a1.46,1.46,0,0,1-.39-.57c-2.26-7.75-7.77-12.48-14.76-15.76-6.21-2.91-12.79-3.71-19.61-3.49A11.61,11.61,0,0,0,1044.85,631.92Zm-22.94,52.76a20.08,20.08,0,0,0,.47,3c2.57,8.3,8.53,12.72,16.87,13.52,15.51,1.5,29-3.62,40.74-13.65a31.48,31.48,0,0,0,4-4.71,12.07,12.07,0,0,0,1-2.49c-1.48.59-2.38.93-3.25,1.32a98.48,98.48,0,0,1-24.38,7.5c-11.63,1.92-23.07,1.94-33.82-3.92A12.42,12.42,0,0,0,1021.91,684.68Zm4.37-44.27a55.81,55.81,0,0,0-13.62,15.79,47.23,47.23,0,0,0-6.48,18.12,25.72,25.72,0,0,0,13.61,26.57,26.55,26.55,0,0,0,2.78,1,32,32,0,0,1-6.43-13.91,61.68,61.68,0,0,1,8.21-44.62C1025,642.35,1025.63,641.39,1026.28,640.41Zm52.3-23.52c.37.41.49.66.67.71,12.36,3.68,19.8,12.37,24.22,24,1.21,3.19,2.33,6.33,4.52,9a37,37,0,0,1,2.88,5,21.35,21.35,0,0,0-1-24.68,33.09,33.09,0,0,0-15.13-11.08A38.71,38.71,0,0,0,1078.58,616.89Zm22.71,26c-4.89-18.39-26.22-29.28-40.33-21C1075.14,627.21,1089,632.88,1101.29,642.91Zm-54.23,62,0-.43c-3.38-.33-6.8-.41-10.13-1-8.8-1.64-14.73-6.67-17.25-15.43a35.27,35.27,0,0,1-.19-17.41,79.2,79.2,0,0,1,18.09-35.51c.79-.92,2-1.64,2.15-3.66-1.43.92-2.46,1.51-3.42,2.21a41.09,41.09,0,0,0-12.82,15.75,61.49,61.49,0,0,0-5.83,33.84,31.66,31.66,0,0,0,7,17.42c2.06,2.46,4.5,4.16,7.76,4.22C1037.34,704.93,1042.2,704.86,1047.06,704.86Zm52.7-32.69c-.33-.06-.72-.26-.91-.14-3,1.85-6,3.7-9,5.64a4.11,4.11,0,0,0-1.58,1.88c-2.18,6.37-6.91,10.53-12.18,14.2-2.19,1.52-4.54,2.8-7,4.31C1079.38,697.11,1094.28,684.48,1099.76,672.17Zm-50.37-51.37c-8.18-1.85-15.41-3.79-23.07-1.6,3.37,3.52,7.45,5.81,11.27,8.22Zm59.29,43.13c-3.21,1.83-4.61,4.38-5.73,7.3-1,2.66-2.52,5.15-3.81,7.71C1103.78,674.92,1107.33,670.32,1108.68,663.93Zm-46.22,40.29c-3.76.84-7.5,1.83-11.29,2.48s-7.91,1-11.86,1.47C1047.52,709.84,1055.15,708,1062.46,704.22ZM1106.17,653c0,1.91,0,3.31,0,4.71s-.24,2.64-.42,4.45C1109.33,658.82,1109.39,657.32,1106.17,653Zm-43.46-27.49c-4.33-2.67-5.72-2.76-7.86-.57ZM1049,625l-.43-.78-4.4,2.45.4.72Z"/><path d="M124.66,260.58a12.14,12.14,0,0,1-10.08,3.09,19.23,19.23,0,0,1-9.66-4c-6.23-4.88-8.49-11.48-6.27-19.06a25.84,25.84,0,0,1,2.66-6.39c9.85-15.78,24.14-24.1,42.73-24.79a28.57,28.57,0,0,1,8,1.18c11.84,3.09,17.22,13,16.42,24.26a38.55,38.55,0,0,1-10,23.16,67.79,67.79,0,0,1-43.26,23.09,45.09,45.09,0,0,1-29.43-5.78c-11.89-7.09-17.84-17.7-17.86-31.53a29.74,29.74,0,0,1,4.51-15.48A39.17,39.17,0,0,1,93,211.44a20.1,20.1,0,0,1,14.19.22,14.58,14.58,0,0,1,4.22,2.78c.64.55.83,1.62,1.52,3.08a8.44,8.44,0,0,1-2-.66c-2.88-2.6-6.38-3-9.93-2.42a34.8,34.8,0,0,0-19.32,9.87c-14.77,14.71-9.56,35.5,3.55,44.89a39.66,39.66,0,0,0,28.06,7.19c17.2-1.84,31.43-9.59,42.52-22.87a31.9,31.9,0,0,0,7.72-19.31,25.08,25.08,0,0,0-.56-6.58A15.44,15.44,0,0,0,152.66,216a27.52,27.52,0,0,0-15.17-1.11c-12.39,2.41-22.49,8.52-30,18.73a25.82,25.82,0,0,0-4.29,8.93,11.74,11.74,0,0,0,3.17,11.93,17.72,17.72,0,0,0,11.95,5.08c1.3.09,2.62.08,3.92.23A13.51,13.51,0,0,1,124.66,260.58Z"/><path d="M599.36,563.21a73.49,73.49,0,0,1-19.49-3.13,28.43,28.43,0,0,0-6.08-1,46.91,46.91,0,0,1-16.65-3.9c-13.61-6.22-19.85-18.86-16.54-33.4a68.13,68.13,0,0,0,1.18-7.92,29,29,0,0,1,6.82-15.92c8-9.49,18.44-14.62,30.36-17.07a38.76,38.76,0,0,1,19.91.72,18.27,18.27,0,0,1,4.07,1.61c6.33,3.91,12.73,7.7,17.54,13.61a12.5,12.5,0,0,0,3.76,2.73c9.78,5.36,16.65,13.12,19.52,24,3,11.54-.73,22-10.29,29.18-7.1,5.34-15.24,8.14-23.92,9.49C606.19,562.73,602.76,562.88,599.36,563.21Zm11.55-37.29c-.9.67-1.49,1.07-2,1.53a37.89,37.89,0,0,1-13.41,7.33c-9.21,2.87-18.45,3.34-27.62-.24a18.93,18.93,0,0,1-9.72-8c-3.22-5.38-1.91-10.59,3.44-13.81a23.91,23.91,0,0,1,4-1.81,34.62,34.62,0,0,1,14.07-1.75c10.5.64,19.54,4.88,27.7,11.28,1,.81,2,1.6,3.22,2.52,5.65-6.51,8.2-13.53,5.87-21.82-.3-1.06-1-2.51-1.9-2.79a16.19,16.19,0,0,0-8.07-1c.23,2.05.44,3.89.65,5.72l-.56.11c-.7-2-1.4-4-2.18-6.26-2.64.15-5.07.19-7.47.44-10.38,1.08-20.31,4.07-30.24,7.1-5.68,1.73-11.31,3.85-16.94,2.95-7.43,8.25-6.64,16.63-1.47,25.18.25.42.47.86.73,1.27,6.48,10.45,15.73,17.55,27,22.21a7.72,7.72,0,0,0,3.55.57c13.73-1.24,25.76-6.29,35.51-16.22,1.51-1.53,2.74-3.34,4.25-5.19ZM609,525a7.61,7.61,0,0,0-.7-1.29c-8.76-7.62-18.8-12.24-30.51-12.6A29.1,29.1,0,0,0,563.59,514c-5.65,2.88-6.65,7.59-2.79,12.69a18.87,18.87,0,0,0,10.94,6.91c13.06,3.2,24.9.46,35.59-7.6A13,13,0,0,1,609,525Zm14.53-23.13c2.41,6,3.57,11.62,3.17,17.41a36.52,36.52,0,0,1-5.31,16.38c2.76,2.75,5.25,5.41,7.94,7.85,1.59,1.43,3.61,2.27,5.71,1.05,3.57-2.07,6.46-4.69,7.24-9.08C644.57,522.75,636.42,507.65,623.56,501.91Zm-38.17,56.76a55.23,55.23,0,0,0,25.51.9c7.91-1.48,15.31-4.15,21.72-9.13,1.7-1.32,3.18-2.91,4.76-4.38l-.27-.67c-3.3,1.72-6.39,1.66-9.17-.77-1.37-1.2-2.71-2.46-4-3.76-1.11-1.13-2.13-2.34-3.36-3.72C611.66,549,599.43,555.25,585.39,558.67Zm-34.5-53.5a17.67,17.67,0,0,0,3.27.14c3-.59,6-1.19,8.91-2,8.12-2.17,16.16-4.64,24.32-6.58,4.92-1.17,10-1.57,15-2.32a14.45,14.45,0,0,0-13.54-8,60.11,60.11,0,0,0-30,10.34A29.55,29.55,0,0,0,550.89,505.17Zm61.31,19.48,7.71,8.58c6.56-8.8,6-23.65.66-32.39-.41-.67-1.34-1-2.38-1.79C620.06,510.87,619,515.21,612.2,524.65Zm-69.41.62c-1.51,4-.69,7.44.18,10.78,2.89,11,14.14,19.48,27.21,20.14C557.24,549,547.58,539.52,542.79,525.27Zm2.45-15.67c1-1.65,2.33-3.2,3-5a11.37,11.37,0,0,1,4-5.55A149.19,149.19,0,0,1,566,489.41a38.32,38.32,0,0,1,21-5.22c4.72.19,9.44.31,13.8.45C585.43,475.37,549.27,488.82,545.24,509.6Zm52.81-23c2.32,2.68,4.34,5,6.4,7.36a2.19,2.19,0,0,0,1.15.78c2.58.3,5.18.51,8.16.79C610.46,488.57,604.14,488.24,598.05,486.63Z"/><path d="M74.05,650.14a76.15,76.15,0,0,1,7.4-20l-4.12,2.64-.43-.6c2.17-1.82,4.27-3.74,6.53-5.44,2.53-1.91,5.18-3.65,7.82-5.41,4.22-2.83,8.53-4.23,13.23-.9a6,6,0,0,0,2.78.71c10.36,1.15,19.75,4.78,27.6,11.62a105.2,105.2,0,0,1,13.82,14.1c7.1,9.09,9.73,19.57,7.25,31.06a29.31,29.31,0,0,1-10.75,17.43c-11.37,8.85-24.29,12.95-38.68,11.49a31.58,31.58,0,0,1-10.81-3.19,44.33,44.33,0,0,1-18.77-17,63.3,63.3,0,0,1-9-33.55,32.53,32.53,0,0,1,3.68-14.06,9.34,9.34,0,0,1,1.28-1.75c.1-.12.41-.08,1.16-.21-3.86,9-5.28,18-2.51,27.45,2.32-9.79,8-17.34,14.88-23.19V628.14C80.11,634.52,77.72,642.69,74.05,650.14ZM89.55,641c.57,1.53.89,2.71,1.42,3.78q4.43,8.84,8.93,17.62c2.17,4.24,4.47,8.41,6.5,12.7a21.64,21.64,0,0,1,1.93,11.79c-.55,5-2.83,9-7.46,11.44-.55.29-1,.68-1.57,1l.16.74a68.23,68.23,0,0,0,7.57,0,35.39,35.39,0,0,0,15.56-6c9.44-6.22,16.22-14.74,21.12-24.79,5.73-11.75,4.31-20.28-4.72-29.71a25.69,25.69,0,0,0-2.43-2.23,65.4,65.4,0,0,0-23.19-12.15c-1.94-.55-4-.83-6.21-1.29.47,3.14.86,5.74,1.29,8.55,1,.19,2.06.32,3.09.62s2.15.82,3.22,1.24C105.05,631.47,97.39,635.71,89.55,641Zm-2.29,2a41.47,41.47,0,0,0-11.9,15.76,5.75,5.75,0,0,0,0,3.24c1.94,8.72,4.51,17.27,8.93,25.07A54.67,54.67,0,0,0,91,695.61c2,2.29,4.72,2.31,7.45,1.5a10,10,0,0,0,5.49-4.05,14.37,14.37,0,0,0,2.42-9.73c-.43-4.59-2.31-8.68-4.4-12.71-4.65-9-9.25-18-13.89-27C88,643.43,87.72,643.32,87.26,643Zm7.79,58.36a22.7,22.7,0,0,0,10.64,3.4,52.32,52.32,0,0,0,38-11.41,28,28,0,0,0,10.11-16.95,34.21,34.21,0,0,0-3.13-22.43,21.37,21.37,0,0,0-1.49-2.29,26.35,26.35,0,0,1-1.42,13.14c-5.57,14.53-14.72,26.11-28.65,33.47-7.13,3.77-14.67,5.29-22.66,2.91A5.14,5.14,0,0,0,95.05,701.32Zm12.53-69c-.64-2.62-1.11-4.62-1.62-6.6a2.74,2.74,0,0,0-3.18-2.32,53.77,53.77,0,0,0-6.85.77c-7.14,1.62-9.84,7.64-6.54,14.84A38.13,38.13,0,0,1,107.58,632.31ZM85.29,693.13c-5.83-8.94-8.93-18.28-11.2-28.26C71.22,672.1,76.89,686.53,85.29,693.13Zm15-72.15-.15-.69-3.43.21,0,.66Z"/><path d="M565.82,618.65c-10.63,1.88-14.14,9.56-15.71,18.94l2.25-2.51c5.32-6,11.48-10.55,19.44-12.37a22.36,22.36,0,0,1,20.49,5.09c2.51,2.15,5.27,3.86,8,5.73a58.51,58.51,0,0,1,10.45,9.09c9.09,10.27,16,21.83,19.12,35.38a31,31,0,0,1,.72,7.26c-.11,8.71-4.31,14.84-12.22,18.35-10.57,4.68-21.35,4.37-32.18,1a38.73,38.73,0,0,1-5.76-2.32A78,78,0,0,0,568,696.87c-5.25-1.58-8.92-5.48-11.57-10.17-1.72-3.06-3-6.38-4.45-9.61-1.08-2.46-2.17-4.66-4.89-6-3.29-1.63-4.58-4.92-5-8.49a29.61,29.61,0,0,1,2.8-15.32,32.13,32.13,0,0,0,2.6-9.07,28.14,28.14,0,0,1,5.62-14.12C556.37,620,560.42,617.75,565.82,618.65Zm-13.37,53.93a44.81,44.81,0,0,0,2.38,4.53,76.83,76.83,0,0,0,16.37,17.16,10.18,10.18,0,0,0,7.83,2.16c10.83-1.17,19.33-6.31,25.63-15.14a21.34,21.34,0,0,0,4-13.81c-.7-12.21-5.58-22.87-12.59-32.68a4,4,0,0,0-5-1.64,49.72,49.72,0,0,1,.92,5.92,45.4,45.4,0,0,1-6.38,25.19,19.24,19.24,0,0,1-6.34,7c-1.68,1-3.38,2.1-5.61,1.67,7.05-2.28,10.28-8,12.94-14.15a47,47,0,0,0,3.74-16.32,17.66,17.66,0,0,0-1.59-9.35,12.5,12.5,0,0,0-8,5.39c-2.79,3.83-5.19,8-7.73,12-2.87,4.53-5.54,9.2-8.63,13.57A20.27,20.27,0,0,1,552.45,672.58ZM579.51,699c11.82,6.19,24,8,36.63,3.15,9.52-3.69,14-11.11,12.12-21.17-3.31-18-13-32.36-26.83-44-.2-.16-.61-.08-1.17-.13a79.35,79.35,0,0,1,9,19.83c1.27,4.6,2.2,9.26,1.73,14.08-.78,8.17-5.06,14.35-11.22,19.41A41.61,41.61,0,0,1,579.51,699Zm-27.71-28.5a10.38,10.38,0,0,0,6.47-2.91,48.51,48.51,0,0,0,6.3-7.08c2.8-4.13,5.22-8.53,7.69-12.88,3.81-6.69,7.47-13.49,15.11-16.74a5.4,5.4,0,0,0-.6-1.18c-3.33-3.7-7.7-4.59-13.06-2.16a45.92,45.92,0,0,0-23.25,22.86,10.33,10.33,0,0,0-.9,5.28C550.08,660.47,551,665.25,551.8,670.45Zm-2.65-22.21c6.81-11.24,15.47-19.53,27.57-23.86a14.85,14.85,0,0,0-3.62.28c-10.06,2.13-17.08,8.4-22.67,16.64A8.06,8.06,0,0,0,549.15,648.24Zm-1.39,20.69a67.61,67.61,0,0,1-1.16-7.54c-.09-2.4.41-4.82.51-7.24a40.36,40.36,0,0,0-.35-4.44C542.73,657.24,543.16,664.71,547.76,668.93Zm17.2,24.5.94-.86c-1.08-1-2.18-1.89-3.24-2.87s-2-2-3.07-3l-.64.72Q562,690.43,565,693.43ZM591.84,630l-4-2.74C588.54,628.72,588.74,630.83,591.84,630Z"/><path d="M343.42,696.18c6.53,0,12.8-1.7,19.26-2.7-1.14.37-2.28.77-3.43,1.12s-2.56.81-3.86,1.13-2.62.57-3.94.82a16.47,16.47,0,0,1-3.24.53c-6.18-.07-12,1.62-17.85,3.33a24.8,24.8,0,0,1-12.34.29c-8.54-1.88-12.79-7.89-14.76-16a66.37,66.37,0,0,0-2-6.63c-2-5.46-.68-10.51,1.54-15.59,1.89-4.32,3.46-8.79,5.37-13.71l-7.62,1.47-.35-.72a8.79,8.79,0,0,1,1.33-1.91,42.58,42.58,0,0,1,4.07-3.12,77.85,77.85,0,0,0,12.69-10.34c5.71-5.88,12.76-8.88,21.27-7.14a9.59,9.59,0,0,0,3.91-.53c12-2.85,24-3.4,35.78.5a41,41,0,0,1,10.7,5.41c8.08,5.72,10.41,14.44,6.76,23.66a39,39,0,0,1-7.41,11.7c-11.45,12.78-25.23,21.81-42,26a28.61,28.61,0,0,0-4.14,1.74Zm7.25-5.66a9,9,0,0,0,1.48-.15c15.82-5.37,29-14.54,38.84-28a33.44,33.44,0,0,0,4.82-10.16c1.7-5.77.23-11.1-3.95-15.56a27.84,27.84,0,0,0-10.67-6.88,55.67,55.67,0,0,0-25.91-3.21,43.5,43.5,0,0,0-11.93,2.36c1.69,1.64,2.3,3.52,4.79,4,9.57,2,14,9.24,11.85,18.79a4.64,4.64,0,0,0,.42,3.78c3.84,6.5,3.66,13.24,1,20.06a38,38,0,0,1-8.3,12.39C352.34,688.71,351.64,689.48,350.67,690.52Zm-37.15-2.39c-1.78-5.52.28-9,3.9-11.55a35.94,35.94,0,0,1,7.31-4.1c4.62-1.9,9.43-3.33,14.07-5.21A95.71,95.71,0,0,0,350,662a15.59,15.59,0,0,0,7-7.8c-2.26-3.2-5.56-4.77-9-6.06a46.44,46.44,0,0,0-18.34-2.88c-12,.48-10,0-18.27,8.28-4.72,4.72-6.55,10.42-6.84,16.84-.08,1.71.08,3.44-.15,5.13-.57,4.14,1.33,7,4.46,9.36C310.19,685.81,311.49,686.69,313.52,688.13Zm44.92-32.22c-4.58,7.62-12,10.47-19.52,13.12-2.87,1-5.8,1.87-8.64,3a74.78,74.78,0,0,0-9,3.9,19.89,19.89,0,0,0-5.33,4.34c-2.44,2.83-2.15,5.85.53,8.47a8.8,8.8,0,0,0,3,1.95c7.63,2.76,15.49,3.08,23.44,1.94a6.61,6.61,0,0,0,2.74-.93c7.42-5.19,13-11.81,15.28-20.74A17.72,17.72,0,0,0,358.44,655.91Zm-35-12.59c12.24-.15,24.23.21,34.3,8.43,3.36-8-2-16.51-10.26-16.77l.42,5.63-.41,0c-.65-2.14-1.3-4.28-2-6.49C336.76,634.57,329.86,638.26,323.44,643.32Zm-17.5,42c2.08,13.7,17.1,16.56,27,12A67.94,67.94,0,0,1,305.94,685.35Zm6.51-40c3.47-.38,6.11-1,8.57-2.93,6.63-5.09,13.86-9,22.37-9.9.16,0,.28-.33.42-.51-2.3-2.82-2.53-2.93-5.76-1.87a121.84,121.84,0,0,0-21.27,9.47C314.62,640.78,313.41,642.6,312.45,645.33Zm7.9-10,15-6.61C329.22,628.15,324.46,630.93,320.35,635.29ZM309.48,651.2l5.19-3.59C310.44,647.66,310.44,647.66,309.48,651.2Zm.84-7.67-3.74,2.68C308.51,646.67,309.86,646.29,310.32,643.53Zm27.86,52.52.11-.64h-4.73v.39Z"/><path class="cls-1" d="M136,52.46A43.46,43.46,0,0,1,158.81,77a36.33,36.33,0,0,1-21.38,46.74,30.41,30.41,0,0,1-39.11-17.87,6.63,6.63,0,1,1,12.42-4.64A17.17,17.17,0,0,0,132.8,111.3a23.06,23.06,0,0,0,13.58-29.67,30.52,30.52,0,0,0-39.25-17.95A39.82,39.82,0,0,0,83.7,114.86a6.64,6.64,0,1,1-12.44,4.62,53.07,53.07,0,0,1,31.23-68.24A43.57,43.57,0,0,1,136,52.46Z"/><path class="cls-2" d="M251.83,90.34C256.75,74.8,274.27,43.72,305,43.72c38.34,0,54,22.09,54,46.62s-13,40.06-57.44,40.06-6.16-91.25,28.07-37.23"/><path class="cls-1" d="M502.24,29a16.62,16.62,0,0,0-3.57.51A31.83,31.83,0,0,0,494,31.36a34.51,34.51,0,0,0-3.82,2,66.76,66.76,0,0,0-7,4.45c-3.67,2.64-7.16,5.39-10.56,8.32-3.21,2.76-6.32,5.63-9.41,8.55-1.13,1.06-2.23,2.12-3.32,3.19q1.5-2.28,3.11-4.53c2.83-3.57,5.8-7,8.61-10.64.75-1,1.53-2,2.28-3L475,38.27c.27-.36.5-.71.76-1.07s.3-.5.45-.75l.72-1.66a4,4,0,0,0,.17-1.6,3.75,3.75,0,0,0-.48-1.54,3.28,3.28,0,0,0-1.18-1.13,3.41,3.41,0,0,0-1.59-.4,7.57,7.57,0,0,0-2.95.79c-4.46,1.74-8,5.06-11.84,7.84-1.91,1.37-3.84,2.74-5.79,4.06-1.22.8-2.44,1.62-3.66,2.37a26.61,26.61,0,0,1,1.54-2.45c.38-.47.77-.92,1.22-1.38a2.54,2.54,0,0,0,0-3.52,2.41,2.41,0,0,0-1.75-.74,2.56,2.56,0,0,0-.95.19,2.48,2.48,0,0,0-.8.55,49,49,0,0,0-5.11,7L442.36,47a4.85,4.85,0,0,0-.9,1.73,5.08,5.08,0,0,0-.14,1.94c1,3.66,5.43,2.18,7.84,1.22a52.14,52.14,0,0,0,5.77-3.18c1-.61,2.08-1.22,3.12-1.86-1.69,1.87-3.32,3.77-4.89,5.75a94.19,94.19,0,0,0-5.48,7.76,79.47,79.47,0,0,0-4.2,7.34A48.46,48.46,0,0,0,441,73.21a8.52,8.52,0,0,0-.42,4.89,5.35,5.35,0,0,0,2,2.84A5.42,5.42,0,0,0,445.85,82c2.16,0,3.91-1.35,5.48-2.63.82-.66,1.55-1.41,2.32-2.1l3.43-3.15c2.12-1.93,4.22-3.9,6.32-5.85q8.46-7.89,17.52-15c.83-.63,1.67-1.22,2.51-1.86-3.52,3.67-6.92,7.57-10.35,11.39C469.42,66.94,465.5,71,462,75.35q-3,3.68-5.83,7.34c-1.23,1.49-2.28,3-3.41,4.53-.94,1.22-1.78,2.63-2.66,4-1.48,2.21-2.82,4.55-4.08,6.91a79.38,79.38,0,0,0-4.21,9.19,32.85,32.85,0,0,0-2,6.86,29.44,29.44,0,0,0-.39,3.51,10.57,10.57,0,0,0,1.22,4.89,9.57,9.57,0,0,0,3.21,3.18c.77.34,1.55.67,2.33,1a7.74,7.74,0,0,0,2.87.24c4.33-.22,7.75-3.12,10.61-6.11,1-1,2-2.08,2.95-3.13,8.13-8.89,16.28-17.74,24.6-26.42q6.76-7,13.8-13.8c4.51-4.28,9.27-8.24,14.11-12.13,1.51-1.15,3-2.29,4.53-3.4s3-2.15,4.52-3.16l-1.44,1.43c-3.88,4.08-7.75,8.18-11.51,12.37C503,81.79,494.68,91,487.17,100.83a118.92,118.92,0,0,0-10.1,14.77c-.75,1.34-1.5,2.7-2.23,4s-1.41,2.89-2.14,4.32a48.09,48.09,0,0,0-2.19,5.55,19.92,19.92,0,0,0-.91,6.55,10,10,0,0,0,2.65,6.76,8.62,8.62,0,0,0,3.94,2.09,8.51,8.51,0,0,0,4.45-.18,15.56,15.56,0,0,0,5.27-3.29c.79-.62,1.49-1.39,2.22-2.09l3.59-3.46q3.07-3,6.1-5.95c4.18-4,8.38-8,12.72-11.74,3.25-2.84,6.57-5.61,9.84-8.43,2.2-1.9,4.4-3.78,6.64-5.63a111.34,111.34,0,0,0-11.17,12.79,46.1,46.1,0,0,0-3.21,4.6,31,31,0,0,0-2.32,5,11.52,11.52,0,0,0-.45,1.82,5,5,0,0,0,.37,3.13,4.3,4.3,0,0,0,1.49,1.73,4.35,4.35,0,0,0,2.17.72,9.24,9.24,0,0,0,4.49-1.1,42.28,42.28,0,0,0,5-3c4.88-3,9.67-6.11,14.65-8.86,2.44-1.34,4.88-2.59,7.32-3.67.6-.24,1.22-.48,1.79-.66a2.45,2.45,0,0,0,1.36.18,2.47,2.47,0,0,0,2-1.73,2.46,2.46,0,0,0,0-1.37,3.43,3.43,0,0,0-.78-1.5,3.49,3.49,0,0,0-1.38-1,5.55,5.55,0,0,0-2.22-.13A5.43,5.43,0,0,0,544,112c-1.32.61-2.61,1.22-3.89,1.93-2.69,1.4-5.32,2.93-8,4.45-4.69,2.69-9.29,5.6-14.15,8a52.92,52.92,0,0,1,5-7.34c1.78-2.22,3.57-4.43,5.49-6.52s4.18-4.19,6.35-6.2,4.21-4.06,6.31-6.12c1.22-1.14,2.44-2.23,3.66-3.33a15.33,15.33,0,0,0,3-3.6,5.12,5.12,0,0,0,.71-2.44,5.22,5.22,0,0,0-1.22-3.36,4.54,4.54,0,0,0-4-1.51,14.18,14.18,0,0,0-3.45,1,35.84,35.84,0,0,0-4.31,2,83.91,83.91,0,0,0-7.79,4.66,159.3,159.3,0,0,0-13.83,11.31c-4.27,3.67-8.54,7.34-12.94,10.93-3.66,3.09-7.32,6.21-11.14,9.22,1-1.66,2-3.29,3-4.89,2.44-3.88,5.2-7.52,8-11.16,3.59-4.45,7.19-8.88,10.87-13.26s7.5-9,11.36-13.44,8.07-9.11,12.2-13.61c3.92-4.29,7.76-8.64,11.47-13.13,1-1.22,2-2.45,2.93-3.67.51-.72,1-1.43,1.48-2.17l.37-.73q.58-1.34,1.14-2.67a21.74,21.74,0,0,0,.55-3.6A10.45,10.45,0,0,0,551.88,38a9.43,9.43,0,0,0-6.73-5.11,12.25,12.25,0,0,0-3.77-.23,26.69,26.69,0,0,0-4.17.51,43.42,43.42,0,0,0-6.89,2.53c-1.74.73-3.41,1.6-5.09,2.44-1.3.64-2.54,1.43-3.8,2.14s-2.57,1.58-3.85,2.39c-2.38,1.5-4.6,3.13-6.88,4.79-5.22,3.9-10.21,8.07-15.13,12.34-4.5,3.93-8.62,8.19-12.75,12.49S474.89,80.76,471,85.06c2.3-3.24,4.73-6.41,7.15-9.55-.32.43-.64.84-1,1.22,3.46-4.48,7-8.91,10.59-13.3,1.91-2.32,3.82-4.62,5.81-6.86s3.84-4.3,5.69-6.5q3.39-4,6.49-8.2a15.08,15.08,0,0,0,2.44-4.81,7.67,7.67,0,0,0,.07-3.27,5.31,5.31,0,0,0-1.41-2.8,6.07,6.07,0,0,0-4.51-2Zm39.32,60.41a3.61,3.61,0,0,1-.21.49C541.42,89.77,541.5,89.59,541.56,89.43Z"/><path class="cls-1" d="M708.05,64.63a81.89,81.89,0,0,1-25-5.07l-.65-.24.24-.91a28.25,28.25,0,0,0,.86-11.74,12.47,12.47,0,0,0-5.5-8.78,10.11,10.11,0,0,0-9-1c-3.27,1.38-4.79,4.94-4.44,8.33.41,3.94,2.84,7.06,6,9.33a32.93,32.93,0,0,0,5.18,3c1.76.85,3.57,1.64,5.39,2.37a47.91,47.91,0,0,1-9,16.62A49.24,49.24,0,0,1,661.59,86a49.17,49.17,0,0,0-8-4.67c-3.8-1.74-8.4-3.33-12.55-1.84-3.3,1.18-6.19,4.49-5.63,8.17s4.49,6,8.05,6.18a19.52,19.52,0,0,0,6.89-1.15,50.09,50.09,0,0,0,5-2,47.62,47.62,0,0,0,6.19-3.4A51.35,51.35,0,0,1,669.78,95a53.08,53.08,0,0,1,10.27,17.77,51.88,51.88,0,0,1,1.8,6.74,44.07,44.07,0,0,0-5.9,5.36c-2.49,2.74-4.61,6.44-2.86,10.14a4.94,4.94,0,0,0,3.63,2.86,5.7,5.7,0,0,0,4.87-1.93c2.73-3,2.37-7.7,2-11.42-.13-1.53-.33-3.06-.6-4.57a48.91,48.91,0,0,1,25.61-9.46,36.22,36.22,0,0,0,2.74,4.18,30.44,30.44,0,0,0,3.9,4.28,10.52,10.52,0,0,0,5.22,2.76,6.38,6.38,0,0,0,4.73-1.08,4.69,4.69,0,0,0,1.86-4.5,6.85,6.85,0,0,0-1-2.53,6.66,6.66,0,0,0-1.92-1.93,13.25,13.25,0,0,0-5.73-1.91,46.3,46.3,0,0,0-9.19-.41,37.67,37.67,0,0,1-2.65-6.2,35.15,35.15,0,0,1,9.9-37.31l7.35.23c2.34.06,4.69.21,7,.19a13.6,13.6,0,0,0,4.65-.74,5.21,5.21,0,0,0,3.15-2.64,4.23,4.23,0,0,0,.22-2.41,4.18,4.18,0,0,0-1.14-2.14c-3-3.24-7.93-1.55-11.38-.1a36.8,36.8,0,0,0-10.27,6.51c-2.39-.07-4.79,0-7.18-.11ZM672,54.32c-3-2-5.63-4.77-6.28-8.45-.55-3.15.61-6.64,3.71-8A9.1,9.1,0,0,1,677.64,39c3,1.88,4.43,5.26,4.87,8.64a28.56,28.56,0,0,1-1.07,10.95c0,.12-.07.24-.1.37A50.58,50.58,0,0,1,672,54.32ZM656.19,89.19a47.34,47.34,0,0,1-4.7,2,25.21,25.21,0,0,1-6,1.54,9.81,9.81,0,0,1-5.67-.94,6.29,6.29,0,0,1-3.18-3.68c-1-3.42,2-6.71,5.08-7.66,4-1.23,8.32.41,11.91,2.11a49.45,49.45,0,0,1,7,4.11A48.67,48.67,0,0,1,656.19,89.19Zm26.17,33.56c.2,1.71.31,3.43.34,5.15a12.75,12.75,0,0,1-1,5.86,5.33,5.33,0,0,1-4,3,3.78,3.78,0,0,1-3.68-2.26c-1.72-3.46.79-7,3.11-9.44a44,44,0,0,1,4.91-4.44C682.18,121.35,682.29,122.05,682.36,122.75Zm34.75-12.12c3.43.39,7.94,1.31,8.87,5.25a3.63,3.63,0,0,1-1.71,4.06,5.6,5.6,0,0,1-4.66.38,12.31,12.31,0,0,1-4.69-3.29,32.86,32.86,0,0,1-3.46-4.17c-.57-.8-1.1-1.62-1.59-2.45A46.12,46.12,0,0,1,717.11,110.63ZM708.93,65.7c2,.06,4,0,6.06.08a38.38,38.38,0,0,0-5.18,6.2,35.87,35.87,0,0,0-6,21.15,38.1,38.1,0,0,0,4.31,16.29l-1.25.11a50.12,50.12,0,0,0-21.9,7.77c-.72.46-1.42,1-2.12,1.45a53.08,53.08,0,0,0-5.58-15.06A54.21,54.21,0,0,0,663,87.09l-.46-.35c.74-.51,1.48-1,2.2-1.59a50.79,50.79,0,0,0,14-16.61,47.65,47.65,0,0,0,3.35-8.18A82.72,82.72,0,0,0,695,64.12a83.32,83.32,0,0,0,13.08,1.6Zm28.48-2.76A5.47,5.47,0,0,1,734,64.82a17.81,17.81,0,0,1-4.67.3l-7-.2-4.73-.15A35.81,35.81,0,0,1,726,59.53a24.41,24.41,0,0,1,5.32-1.82A5.91,5.91,0,0,1,736.86,59a3.05,3.05,0,0,1,.55,4Z"/><path class="cls-1" d="M403,558.16c-3.78,2-7.52,4-11.4,5.84a95.32,95.32,0,0,1-9.07,3.48c-4.09,1.39-8.18,2.82-12.35,4a74.58,74.58,0,0,1-9.52,1.9,48.64,48.64,0,0,1-14.1-.47,46.35,46.35,0,0,1-15.32-5,58.35,58.35,0,0,1-13.16-9.54c-3-2.89-5.42-6.21-8.22-9.26a8.93,8.93,0,0,0-3-2.08c-7.24-2.82-11.86-7.55-13.23-14.41a28.75,28.75,0,0,1-.07-8.64c.49-4.87,2.59-9.35,5.15-13.63A67.89,67.89,0,0,1,310,496a106.82,106.82,0,0,1,17.49-13.52c2.77-1.74,5.39-3.63,8.12-5.37a22.44,22.44,0,0,1,7.27-2.58c2.56-.59,5-1.49,7.56-2.08,3.92-.87,7.88-1.68,11.87-2.33a54.26,54.26,0,0,1,7.2-.65,62.11,62.11,0,0,1,16.27,1.61c5.36,1.18,10.75,2.33,15.68,4.6a53.46,53.46,0,0,1,6.89,3.82,46.86,46.86,0,0,1,6.06,4.66c4.61,4.26,8.53,8.95,10.91,14.54,1.09,2.61,2.1,5.25,3,7.89a15.21,15.21,0,0,1,.63,3.94c.11,2.33.07,4.66,0,7a36.93,36.93,0,0,1-2.49,11.78,52.39,52.39,0,0,1-8.12,14.6,64.13,64.13,0,0,1-13.08,12.7C404.53,557.1,403.76,557.63,403,558.16Zm-11.86-53.4.53.43c1.19.81,2.34,1.62,3.53,2.46a36.22,36.22,0,0,0,3.19,1.73,20.64,20.64,0,0,0,8.95,2.27c3.61-.06,6.34-2,6.9-5.09a21.34,21.34,0,0,0,.1-3.92,8.78,8.78,0,0,0-2.34-6.33c-1.47-1.53-3.12-2.92-4.66-4.38-.42-.31-.84-.59-1.29-.9s-.67-.5-1-.75v-.16c-.07-.12-.1-.31-.21-.37a49.56,49.56,0,0,0-9.83-5.47c-1.75-.65-3.57-1.18-5.36-1.77h-.14l-1.57-.43h-.21a14.67,14.67,0,0,0-1.89-.87c-3.08-.9-6.23-.68-9.45-.5a88.82,88.82,0,0,0-14.94,2.08,40.64,40.64,0,0,0-4.23,1.34.86.86,0,0,0-.46.78,1.44,1.44,0,0,0,.74.74,3.64,3.64,0,0,0,1.08.25A40.87,40.87,0,0,1,369,489.1c5.6,2.64,10.25,6.37,14.9,10.1,1.55,1.24,3.19,2.33,4.8,3.51C389.52,503.39,390.32,504.07,391.16,504.76Zm26.91.4-.49.09c-.07.5-.1,1-.17,1.49-.49,4.1-2.67,6.34-6.55,7.12-4.69.93-9-.22-13.19-2.08-4.72-2.12-8.47-5.28-12.31-8.36-3.05-2.42-5.95-5-9.1-7.33-5.29-3.85-11.13-6.84-18.06-7.77a3.26,3.26,0,0,0-3.29,1c-.91,1-1.82.8-2.55-.35a1.93,1.93,0,0,0-1.43-.71,53,53,0,0,0-5.88,1.12,19.87,19.87,0,0,0-7.46,4c-2.62,2.09-5.32,4.07-7.7,6.34a62.56,62.56,0,0,0-5.91,6.62c-1.29,1.61-2.59,3.32-2.73,5.4a39.73,39.73,0,0,0,2.17,15.63,36.4,36.4,0,0,0,7.35,12.83c2.1,2.33,4.44,4.53,6.75,6.71a3.35,3.35,0,0,0,3.19.87c5.56-1.12,11.23-2,16.72-3.36,7.81-2,15.43-4.44,23.17-6.61,6-1.71,12-3.51,18.08-4.94,5.39-1.28,11-1.87,16.49-.53a1.86,1.86,0,0,0,2.2-.84,38.37,38.37,0,0,0,5.21-10.81,7.72,7.72,0,0,0,.22-3,29.08,29.08,0,0,0-3.33-10C419,506.84,418.53,506,418.07,505.16Zm-46.64,55.08a44.78,44.78,0,0,0,16.09-3.79,60.74,60.74,0,0,0,12.71-7.27,72.14,72.14,0,0,0,13.54-13c1-1.24.73-1.7-1-2a28.34,28.34,0,0,0-10.11.37c-5.15,1-10.22,2.3-15.23,3.73-6,1.71-11.89,3.79-17.91,5.46-6.51,1.77-13.12,3.27-19.7,4.82-2.21.53-4.48.84-6.72,1.33-1,.22-1.08.63-.28,1.19s1.68,1.11,2.55,1.61a53.39,53.39,0,0,0,11.52,4.88A62.18,62.18,0,0,0,371.43,560.24Zm11.58,2.2c-.07-.12-.14-.25-.21-.4a6.58,6.58,0,0,0-1.08-.06c-2.77.28-5.57.62-8.33.9-4.83.46-9.59,1.15-14.49.68a85.82,85.82,0,0,1-14.41-2.17c-7.42-2-14.24-5-19.74-10a4.08,4.08,0,0,0-1.12-.66c-.28-.09-.81-.12-.91,0a1.15,1.15,0,0,0-.14.9,2,2,0,0,0,.39.81,51.6,51.6,0,0,0,12.87,11.77,35.35,35.35,0,0,0,13.86,4.91,52.33,52.33,0,0,0,11.48.31c6.19-.52,12.21-1.24,17.49-4.44C380.11,564.12,381.54,563.28,383,562.44ZM320,491.74c-.11,0-.18-.09-.28-.12a.93.93,0,0,0-.32.12c-3.43,3.29-7,6.52-10.25,9.94a52.07,52.07,0,0,0-8,11.4c-3.47,6.31-5.46,12.83-4.06,19.91a14.52,14.52,0,0,0,7.56,10.32,7.38,7.38,0,0,0,1.78.49c-.28-.93-.45-1.52-.66-2.11-.53-1.36-1.19-2.7-1.61-4.1A31,31,0,0,1,302.78,525a35.39,35.39,0,0,1,2.62-10.16,59.14,59.14,0,0,1,6.23-10.53c2.49-3.45,4.76-7,7.1-10.5C319.19,493.14,319.54,492.42,320,491.74Zm-1.68,27c-.18,0-.35.09-.53.12a10.13,10.13,0,0,0-.35,1.06,41.77,41.77,0,0,0-.84,10.59A27.81,27.81,0,0,0,322.9,546c1,1.21,2.1,2.42,3.91,2.52s3.61.06,5.39,0a12.93,12.93,0,0,0,2.45-.69C325.31,539.61,319.85,530,318.28,518.77Zm-7.46-6.65a23.67,23.67,0,0,0-4,8.6,28.32,28.32,0,0,0-.83,10.84,37.54,37.54,0,0,0,3.53,11.65c1.12,2.43,3,3.51,5.7,3.82.35,0,.88,0,1-.12a1.15,1.15,0,0,0-.07-.9c-.91-2.92-2-5.81-2.73-8.76-.63-2.64-.66-5.37-1.19-8a58.82,58.82,0,0,1-1.4-11.83Zm89.51-31.72c.07-.15.17-.31.24-.46-1.33-.87-2.55-1.87-3.95-2.61A32.18,32.18,0,0,0,380,473.44c-4.16.13-8.36.28-12.49.72A92.24,92.24,0,0,0,358,476c-.39.09-.67.68-1,1,.49.22,1,.66,1.43.63,1.89-.07,3.75-.41,5.6-.41,4.41,0,8.85,0,13.26.22,2.94.12,5.88.56,8.82.9,3.5.4,7,.87,10.5,1.34C397.85,479.84,399.07,480.15,400.33,480.4Zm-41.71,80.37c0-.07,0-.16.07-.22a7.1,7.1,0,0,0-.7-.41c-.63-.21-1.26-.37-1.89-.56A63,63,0,0,1,339,551.32a5,5,0,0,0-2.42-.71c-2,0-3.92.09-5.88.22a4.71,4.71,0,0,0-1.11.34c.2.34.31.77.63,1a45.26,45.26,0,0,0,4.86,2.77,64.79,64.79,0,0,0,16.23,4.81Zm53.89-72c2.86,7.42,7.35,14.16,11.12,21.49C424.47,503.79,417.61,490.78,412.51,488.73ZM314,549.55c1.93,5.22,17.08,16.59,21.14,16.93-.6-.4-1.09-.68-1.54-1s-1.05-.59-1.54-.93a48.48,48.48,0,0,1-12.7-12.77C317.89,549.68,317,549.21,314,549.55Zm17.08-57.69,1.75-.71c1.68-.78,3.32-1.58,5-2.3,2.63-1.12,5.32-2.2,8-3.29,2.34-1,4.72-1.93,7-2.95a15.58,15.58,0,0,0,1.75-1C351.52,479.59,335.39,486.61,331.05,491.86Zm65.32-9.56A68.43,68.43,0,0,1,410,490.75a11.19,11.19,0,0,0-4.59-6.31A17.64,17.64,0,0,0,396.37,482.3ZM314,514.6c1.92-5.59,5.18-10.78,6.89-16.43C315.65,502.71,314.43,508.55,314,514.6Zm73.9,48a39.39,39.39,0,0,0,9.24-4.38C394.94,558,390,560.36,387.91,562.57ZM328.5,486.3c.1.1.17.19.27.28q4.74-3.12,9.42-6.24a1.16,1.16,0,0,1-.18-.22C334.51,481.77,330.7,483.07,328.5,486.3Zm82.68-1.61a13.82,13.82,0,0,0-5.18-3.82C407.05,482.89,409,483.94,411.18,484.69Zm-62.32-6,.21.56c1.64-.37,3.29-.71,4.9-1.12.17,0,.28-.31.38-.49-.24-.16-.56-.47-.73-.44Zm12.49,1.65c0-.16-.07-.34-.1-.5l-2.77.37c0,.19.07.41.11.59Zm-25.89,86.42c0,.06-.11.13-.07.16a.65.65,0,0,0,.17.09.34.34,0,0,0,.07-.19A.7.7,0,0,1,335.46,566.76Z"/><path class="cls-1" d="M189.36,508.54a28.3,28.3,0,0,1-3.14-6.68,77.9,77.9,0,0,0-2.83-8.73,44.35,44.35,0,0,0-4-7.35,29,29,0,0,0-8.47-8.44c-3-1.88-5.93-3.77-9.07-5.4a37.39,37.39,0,0,0-6.21-2.27c-3-.9-6.1-1.82-9.2-2.43A98.2,98.2,0,0,0,136.23,466a64,64,0,0,0-15.83.39,49.33,49.33,0,0,0-13,3.83A55.15,55.15,0,0,0,96.23,477c-2.31,1.86-4.47,3.9-6.84,5.69a43.09,43.09,0,0,0-7.71,7.42c-1.5,1.85-3,3.77-4.32,5.72a61.84,61.84,0,0,0-4.54,7.07,44.22,44.22,0,0,0-3.28,8.34,38.51,38.51,0,0,0-1.64,10.42c0,2.37.11,4.73.25,7.1a31.63,31.63,0,0,0,.59,5.34c1.36,5.59,3,11.12,6,16.17a36.3,36.3,0,0,0,3.11,5,35.48,35.48,0,0,0,5.06,4.8c1.67,1.34,3.52,2.49,5.29,3.71l.25,0c2.72,1.53,5.37,3.13,8.16,4.57a79.78,79.78,0,0,0,7.61,3.55,84.39,84.39,0,0,0,15.45,4.41,60.83,60.83,0,0,0,16.67.8,43.68,43.68,0,0,0,4.57-.64c2.23-.48,4.43-1,6.62-1.63a40.92,40.92,0,0,0,9.95-4.22c1.71-1,3.35-2.08,5.06-3.13,1.49-1.25,3-2.5,4.53-3.74.49-.39,1-.74,1.5-1.12.17-.23.35-.45.52-.67s.66-.61,1-.93c.56-.48,1.15-1,1.71-1.41.66-.8,1.32-1.56,1.95-2.36a7.83,7.83,0,0,0,.59-.83c.42-.45.84-.93,1.23-1.38.17-.32.34-.61.52-.93.17-.06.31-.16.49-.22.17-.22.34-.45.52-.67s.18-.29.24-.45c.74-1,1.51-2,2.24-3,.07-.23.17-.45.24-.68a3,3,0,0,1,.28-.44c.49-.93,1-1.86,1.46-2.78.84-2,1.71-4.13,2.51-6.17a38.69,38.69,0,0,1,1.89-4.83c1.05-1.89,2.4-3.65,3.35-5.63a27.79,27.79,0,0,0,2.44-6.68A18.66,18.66,0,0,0,189.36,508.54ZM79.17,504.26c2.76-7.1,7.26-13.2,12.59-18.86A11.69,11.69,0,0,1,94,483.58c1.47-1,3.07-.74,4.68-.32a6,6,0,0,0,1.85.25c.35,0,.9-.32.94-.57a1.49,1.49,0,0,0-.42-1.19A16.69,16.69,0,0,0,99,480.54c-.59-.35-.8-.74-.14-1.25a47.2,47.2,0,0,1,15.59-8.47,56.92,56.92,0,0,1,14.34-2.27,72.33,72.33,0,0,1,23.16,2.69c8.3,2.33,15.76,6.07,21.76,11.92a29.62,29.62,0,0,1,6.66,9.75c.81,1.95,1.47,4,2.16,6a8.32,8.32,0,0,1,.18,1.18c-1.68-1.21-3-2.33-4.53-3.26-1.75-1.09-3.63-2-5.45-3a20.47,20.47,0,0,1-3.28-2.08c-4.46-4.06-9.87-6.65-15.65-8.57a38.28,38.28,0,0,0-12-1.89,93.13,93.13,0,0,0-11.09.29,70.15,70.15,0,0,0-17.2,3.84,73.88,73.88,0,0,0-11.37,5c-5,2.91-10.5,5.09-14.89,8.83a48.78,48.78,0,0,0-8.55,9.11c-.17.25-.38.54-.59.8l-.52-.19C78.09,507.33,78.58,505.79,79.17,504.26ZM160.51,489c-7.15-1.24-14.26-2.46-21.55-2.56a159.83,159.83,0,0,0-21.66,1.28c0-.19-.07-.38-.11-.57A69.7,69.7,0,0,1,143,483.86C149.21,484.28,155.25,485.59,160.51,489ZM80.29,512.6q-1.52,6.67-3,13.49C76.8,521.3,77.36,516.7,80.29,512.6Zm3.8,45.11c-.52-.45-1.08-.86-1.57-1.34-.63-.64-1.22-1.31-1.81-2-.18-.23-.35-.42-.49-.64s0-.45-.07-.67l-.21-.23c-.73-1.08-1.47-2.14-2.23-3.23a73.59,73.59,0,0,1-3.56-8.18,59,59,0,0,1-2.2-10A79.64,79.64,0,0,1,71.46,520a41.34,41.34,0,0,1,1.19-6.75,3.45,3.45,0,0,1,.38-.8c.11,0,.21,0,.32,0-.07,1.15-.21,2.27-.25,3.39-.07,2.72-.21,5.44-.14,8.15.07,2.27.42,4.58.7,6.85A40.76,40.76,0,0,0,76,541.09c.94,2.36,1.78,4.76,2.69,7.13.07.16.17.32.24.48.42.48.81,1,1.22,1.4,1.4,2.46,2.8,5,4.15,7.42A1.68,1.68,0,0,0,84.09,557.71Zm24.66,9.82c-3.9-.61-7.88-.9-11.37-2.85-1.43-.8-2.69-1.79-4-2.68-.35-.26-.73-.45-1.11-.71l-.53-.67v-.22a6.34,6.34,0,0,0-.73-.26c-2.82-2.78-5.23-5.82-6.35-9.59a2.82,2.82,0,0,1,1.08.64c.25.22.49.45.77.67.73.77,1.5,1.54,2.24,2.3.94.83,1.88,1.67,2.82,2.53a1.55,1.55,0,0,0,.35.51c.94.77,1.92,1.5,2.86,2.24a1,1,0,0,0,.28,0,36,36,0,0,1,3.28,1.85,51.08,51.08,0,0,0,11.33,5.53,1,1,0,0,1,.59.61A4,4,0,0,1,108.75,567.53ZM124,574.27c.14-.32.28-.61.52-1.12-3.28-.76-6.38-1.53-9.49-2.27,0-.09,0-.19,0-.25a11.77,11.77,0,0,1,1.53-.29,93.34,93.34,0,0,1,14.38.13,34.56,34.56,0,0,0,7.25-.19c3.42-.32,6.87-.74,10.25-1.35,2.83-.54,5.62-1.44,8.41-2.17l1.64-.45C151.2,572.67,133.58,576.67,124,574.27ZM177,546.46a36,36,0,0,1-8.19,10.36,42.6,42.6,0,0,1-12.35,7.09,57.6,57.6,0,0,1-14,3.36c-2.23.26-4.5.38-6.8.45a152,152,0,0,0,22.53-10.07,121.19,121.19,0,0,0,19.61-14.16l.48.25C177.88,544.64,177.53,545.6,177,546.46Zm5.1-13.56c-.25,2.05-1.82,3.39-3.14,4.83-1.78,1.86-3.67,3.58-5.58,5.31a76.84,76.84,0,0,1-13,9.72c-4.25,2.52-8.61,4.92-13,7.16a65.84,65.84,0,0,1-9.53,3.83,112,112,0,0,1-13,3.17,21.28,21.28,0,0,1-6.91-.38,52.75,52.75,0,0,1-15.87-5.7c-1.5-.79-2.89-1.79-4.36-2.68-.2-.1-.45-.19-.66-.29a.33.33,0,0,0,0-.19v-.22c-.31-.16-.62-.32-.9-.48-.8-.51-1.57-1.06-2.37-1.57V555H93.3c-.07-.35-.11-.7-.14-.92-.42-.1-.91-.1-1.15-.32-.77-.68-1.43-1.47-2.17-2.18-1-1-2-1.88-3-2.81a.4.4,0,0,0,0-.19l-.53-.87,0,0-.21-.19c-.42-.7-.84-1.37-1.26-2.08-.14,0-.31,0-.45-.06a4.94,4.94,0,0,0-.56-.64c0-.23,0-.48,0-.7l-.46-.23a.56.56,0,0,0,0-.22l-.21-.23a13.39,13.39,0,0,1-2-7.32c-.07-2.36-.14-4.73,0-7.09.42-7.77,2.1-15.29,7.09-21.74,2.23-2.91,5-5.53,7.53-8.25,3.1-3.26,7.25-4.76,11.69-5.82,1.11-.26,2.23-.64,3.31-1a76.07,76.07,0,0,1,14.65-2.24c4.78-.35,9.56-.67,14.37-.64A90.66,90.66,0,0,1,151,490.29c3.25.45,6.46,1.12,9.63,1.85a51.8,51.8,0,0,1,6.63,2c2.82,1,4.39,3.29,6.14,5.4a38.23,38.23,0,0,1,6.73,12,48,48,0,0,1,2.51,11.28A58,58,0,0,1,182.14,532.9ZM184.55,514c-2.45-4.86-4.89-9.69-7.44-14.8a26.31,26.31,0,0,1,2.41,1.66c1,.86,2,1.82,3,2.75,1.5,1.4,1.64,3.23,1.82,5,.18,1.56.21,3.13.28,4.66A4.91,4.91,0,0,1,184.55,514Zm3.06,8.63c.11-2.43.25-4.86.35-7.29A7,7,0,0,1,187.61,522.61Z"/><path class="cls-3" d="M1040.86,460.56c-1.27.12-5.54.9-7.36,1.34a46,46,0,0,0-10.22,3.76,31.39,31.39,0,0,0-5.16,2.9,8.19,8.19,0,0,1-1.5.87.2.2,0,0,0-.2.15,4.07,4.07,0,0,1-1,.87c-.56.39-1.24.9-1.5,1.13a61.43,61.43,0,0,0-4.61,4.19,60.05,60.05,0,0,0-8,10.22,37.73,37.73,0,0,0-2.61,4.7c-.58,1.18-1.13,2.3-1.23,2.49-.33.62-1.64,4.05-2.27,6A63.54,63.54,0,0,0,992.51,511a65.32,65.32,0,0,0,.36,16.46,24.94,24.94,0,0,1,.27,4.09,56,56,0,0,0,3,18.88,62,62,0,0,0,4.6,10.12,9.8,9.8,0,0,1,.79,1.46.27.27,0,0,0,.15.23,8.86,8.86,0,0,1,1,1.3c.45.67.91,1.33,1,1.46s.52.63.9,1.12a50.83,50.83,0,0,0,5.5,5.49l1.16.88a37.22,37.22,0,0,0,7.26,3.92c.28.09.79.27,1.12.42a35.59,35.59,0,0,0,5.78,1.56,54.42,54.42,0,0,0,11.89.4,3.94,3.94,0,0,1,2,0c1.62.94,6.56,2.49,10.49,3.31,2.18.45,2.78.48,8.58.47,6.68,0,7.83-.15,13-1.54a70,70,0,0,0,17.42-7.64,53.64,53.64,0,0,0,8.8-6.61,68.91,68.91,0,0,0,6.6-7.2c.26-.39.8-1.17,1.2-1.73a60.08,60.08,0,0,0,3.66-6.24,51.33,51.33,0,0,0,5.08-15.84,48.21,48.21,0,0,1,1.09-5.62,41.3,41.3,0,0,0,1.5-10.33,50.15,50.15,0,0,0-.67-10.32c-.17-.84-.39-1.95-.5-2.46a54.66,54.66,0,0,0-4.27-11.67,46.1,46.1,0,0,0-15.9-18.19,65,65,0,0,0-12.72-7l-2.25-.81c-.73-.25-2.72-1.15-4.41-2s-3.35-1.62-3.69-1.76a69.63,69.63,0,0,0-15.31-4.48c-2.59-.47-3.44-.53-9.09-.58C1044.48,460.51,1041.31,460.52,1040.86,460.56Zm11,1.61a58.93,58.93,0,0,1,14.2,3.1c2.73.91,3.59,1.26,3.44,1.41a26.81,26.81,0,0,1-2.83-.22c-1.51-.16-3.56-.3-4.56-.3a79,79,0,0,0-15.46,2,83.62,83.62,0,0,0-10.22,3.29,101.84,101.84,0,0,0-13.66,6.85c-.3.19-.87.53-1.27.76-.86.51-2.83,1.88-4.9,3.44a47.36,47.36,0,0,0-7.67,7.89c-.22.32-.74,1-1.14,1.53A83.08,83.08,0,0,0,999.72,505a69.11,69.11,0,0,0-3.1,7.46,47.94,47.94,0,0,0-1.56,5.27c-.28,1.54-.5.94-.5-1.37a83.76,83.76,0,0,1,1.12-10.54,12.68,12.68,0,0,0,.41-1.67,62,62,0,0,1,3.17-9.88A57,57,0,0,1,1011.51,476a43.69,43.69,0,0,1,12-8.76,31.54,31.54,0,0,1,5.62-2.42,40,40,0,0,1,7.93-2.1A58.1,58.1,0,0,1,1051.9,462.17Zm16.66,6.21c3.93.63,9,1.88,9.61,2.36a14.17,14.17,0,0,0,1.43.91c.62.36,1.36.82,1.64,1l2,1.5a39.67,39.67,0,0,1,5.74,5.05,89.77,89.77,0,0,1,7.18,8.29c.42.56.88,1.16,1,1.32s.49.63.76,1l1.34,1.95c.74,1,2.86,4.48,4,6.54.19.33,1,1.9,1.77,3.47a64.9,64.9,0,0,1,6.28,18.6,35.21,35.21,0,0,1,.57,7.88l0,4.8-.64,1.74a52.45,52.45,0,0,1-2.11,4.9c-1,1.9-2.14,4.08-2.68,4.91-.32.51-.65,1.06-.73,1.23s-.65,1-1.26,1.94a66.35,66.35,0,0,1-17.94,17.89c-9.7,6.42-19,9.94-28.81,10.94a43,43,0,0,1-9.55,0l-.81-.13,1.4-.6a51.58,51.58,0,0,0,8.89-4.79c2.23-1.49,2.73-2,2.56-2.41-.24-.6-1.45-.38-2.52.45-.55.42-1.41,1-1.91,1.36l-1.51,1a50.5,50.5,0,0,1-8,3.74l-2.25.75-1.84-.36a23.24,23.24,0,0,1-2.55-.61c-.39-.14-1.36-.46-2.15-.71a43.65,43.65,0,0,1-5.31-2.08,75.55,75.55,0,0,1-12.62-12.13c-5-6.21-7.89-12.65-9.65-21.36a75.83,75.83,0,0,1-.83-23.45c.28-2.45.56-4.59.6-4.76a37,37,0,0,0,.82-5.33c-.18-.28-1.06-.23-1.72.11-.5.26-.63.52-.9,1.79a83.14,83.14,0,0,0-.73,31.13,58.29,58.29,0,0,0,4.18,13.32c.39.83.71,1.54.71,1.59s.43.84,1,1.78a48.93,48.93,0,0,0,6.38,8.73c1.63,1.84,1.44,1.9-.63.19a93.92,93.92,0,0,1-9.17-8.65c-1.2-1.31-4.27-5-5.1-6.23a53,53,0,0,1-5.94-10.53,60.31,60.31,0,0,1-2.66-8.49,15.11,15.11,0,0,1,.09-4.79c.19-1.8.43-3.64.54-4.09s.48-2,.81-3.37a62.4,62.4,0,0,1,3.24-9.67c.54-1.24,2.8-5.74,3.38-6.72l1.23-2.15c.45-.77,1.16-1.88,1.59-2.46a8.75,8.75,0,0,0,.78-1.18c0-.19,3.2-4.35,4.88-6.34a50.2,50.2,0,0,1,5.5-5.62,65.72,65.72,0,0,1,6.28-4.42l2.25-1.31a83.53,83.53,0,0,1,10.22-5,69.64,69.64,0,0,1,19.73-4.89A82.64,82.64,0,0,1,1068.56,468.38Zm20.47,7.23a73.86,73.86,0,0,1,8.46,6.06,51.13,51.13,0,0,1,8.19,9.25,7.21,7.21,0,0,0,.53.74,18.11,18.11,0,0,1,1.13,1.79c4.36,7.56,6.86,16.45,6.79,24.12,0,2.26,0,2.26-.9-1.53a63.07,63.07,0,0,0-3.46-10.53l-.85-1.94a81.45,81.45,0,0,0-5-9.24,9.41,9.41,0,0,1-.79-1.28,11.67,11.67,0,0,0-.89-1.39l-1.38-2c-3.08-4.5-9.23-11.56-11.91-13.68C1088.11,475.34,1088.17,475.16,1089,475.61ZM996.8,540.49c0,.65,2.89,5.74,4.89,8.67a90.48,90.48,0,0,0,12.7,13.94c1.6,1.33,5,4,5.72,4.51a62.11,62.11,0,0,0,8.38,5.08,43.84,43.84,0,0,1,4,2.35,19.37,19.37,0,0,0,2.25,1.38,3.94,3.94,0,0,1,.91.56l.51.41-3.88-.08a30.47,30.47,0,0,1-9.82-1.52,33.57,33.57,0,0,1-10.73-5.75c-5.62-4.59-10.62-12.28-13.26-20.37a57.81,57.81,0,0,1-2.2-9.12c-.12-1-.1-1.08.2-.69A1.46,1.46,0,0,1,996.8,540.49Zm112.67,4.7c-4.51,12.34-12.74,21.88-24.76,28.73a63.25,63.25,0,0,1-6.46,3.24,4.43,4.43,0,0,0-.76.3c-1,.46-3.77,1.45-5.35,1.93a42.6,42.6,0,0,1-13.19,2,40,40,0,0,1-15.43-2.92c-1.45-.57-.77-.76,1.48-.41a61.44,61.44,0,0,0,7.31.27,40.08,40.08,0,0,0,8.18-.47,66.2,66.2,0,0,0,19.1-6.25,50.55,50.55,0,0,0,4.92-2.67,6.7,6.7,0,0,1,.92-.6,31,31,0,0,0,2.91-1.86A72.35,72.35,0,0,0,1109.53,544C1110.12,543,1110.1,543.47,1109.47,545.19Z"/></svg>