<svg xmlns="http://www.w3.org/2000/svg" xmlns:xlink="http://www.w3.org/1999/xlink" width="1024" height="1024" version="1.1" viewBox="0 0 1024 1024"><title>TIlted Rect Copy 7</title><desc>Created with Sketch.</desc><defs><filter id="filter-1" width="200%" height="200%" x="-50%" y="-50%" filterUnits="objectBoundingBox"><feOffset dx="0" dy="8" in="SourceAlpha" result="shadowOffsetOuter1"/><feGaussianBlur in="shadowOffsetOuter1" result="shadowBlurOuter1" stdDeviation="10"/><feColorMatrix in="shadowBlurOuter1" result="shadowMatrixOuter1" type="matrix" values="0 0 0 0 0 0 0 0 0 0 0 0 0 0 0 0 0 0 0.5 0"/><feMerge><feMergeNode in="shadowMatrixOuter1"/><feMergeNode in="SourceGraphic"/></feMerge></filter><path id="path-2" d="M149,807.83493 L149,804.781377 L70,804.781377 C70,824.580897 54.3299662,840.631579 35,840.631579 L56.2387619,840.631579 L65.5837913,833.12996 L106.95252,809.187134 L149,807.83493 Z M70,55 L70,804.781377 L404,804.781377 L404,55 L70,55 Z"/><filter id="filter-3" width="200%" height="200%" x="-50%" y="-50%" filterUnits="objectBoundingBox"><feOffset dx="0" dy="8" in="SourceAlpha" result="shadowOffsetOuter1"/><feGaussianBlur in="shadowOffsetOuter1" result="shadowBlurOuter1" stdDeviation="10"/><feColorMatrix in="shadowBlurOuter1" type="matrix" values="0 0 0 0 0 0 0 0 0 0 0 0 0 0 0 0 0 0 0.35 0"/></filter></defs><g id="Icon-Templates" fill="none" fill-rule="evenodd" stroke="none" stroke-width="1"><g id="TIlted-Rect-Copy-7"><g id="Group" transform="translate(512.151509, 505.142306) rotate(-9.000000) translate(-512.151509, -505.142306) translate(136.151509, 84.642306)"><g id="Group-2" filter="url(#filter-1)" transform="translate(0.000000, -0.000000)"><rect id="Icon-Shape-(Rect)" width="661" height="770" x="0" y="71" fill="#FFF"/><g id="Combined-Shape"><use fill="#000" fill-opacity="1" filter="url(#filter-3)" xlink:href="#path-2"/><use fill="#FFF" fill-rule="evenodd" xlink:href="#path-2"/></g><path id="Combined-Shape" fill="#FFF" d="M35,840 L35,841 L109.5,841 L752,841 L752,-2.84217094e-13 L70,-2.84217094e-13 L70,805 C70,824.329966 54.3299662,840 35,840 Z"/></g><path id="Combined-Shape" fill="#FC3E5D" d="M295.323851,289.999935 L348.333337,289.999935 C354.776828,289.999935 359.99987,284.776569 359.99987,278.333402 L359.99987,225.323916 C359.99987,222.229692 358.770996,219.26218 356.582872,217.074381 L182.925554,43.4170627 C180.737755,41.2292637 177.770243,40.0000648 174.676343,40.0000648 L121.666533,40.0000648 C115.223366,40.0000648 110,45.2231069 110,51.666598 L110,104.676084 C110,107.770308 111.229199,110.73782 113.416998,112.925619 C171.302771,170.811392 229.188543,228.697165 287.074316,286.582937 C289.262439,288.770736 292.229627,289.999935 295.323851,289.999935 Z M110.000065,278.333402 L110.000065,197.081184 C110.000065,192.362719 112.842486,188.108648 117.201881,186.302927 C121.561599,184.497207 126.579505,185.495344 129.916133,188.831649 C156.99999,215.915829 184.084171,243.00001 211.168351,270.083867 C214.504656,273.420495 215.502793,278.438401 213.697073,282.798119 C211.891352,287.157514 207.637281,289.999935 202.918816,289.999935 L121.666598,289.999935 C115.223431,289.999935 110.000065,284.776569 110.000065,278.333402 Z M360,51.6665331 L360,132.918751 C360,137.637216 357.157579,141.891288 352.798184,143.697008 C348.438466,145.502728 343.42056,144.504591 340.083932,141.168287 L258.831713,59.9160684 C255.495409,56.5794399 254.497272,51.5615344 256.302992,47.2018157 C258.108712,42.8424212 262.362784,40 267.081249,40 L348.333467,40 C354.776634,40 360,45.2233661 360,51.6665331 Z"/><rect id="Rectangle-Copy-17" width="642" height="10" x="110" y="328" fill="#BDBDBD" rx="5"/><rect id="Rectangle-Copy-18" width="642" height="10" x="110" y="376" fill="#BDBDBD" rx="5"/><rect id="Rectangle-Copy-19" width="642" height="10" x="110" y="424" fill="#BDBDBD" rx="5"/><rect id="Rectangle-Copy-20" width="642" height="10" x="110" y="472" fill="#BDBDBD" rx="5"/><rect id="Rectangle-Copy-21" width="642" height="10" x="110" y="520" fill="#BDBDBD" rx="5"/><rect id="Rectangle-Copy-22" width="642" height="10" x="110" y="568" fill="#BDBDBD" rx="5"/><rect id="Rectangle-Copy-23" width="642" height="10" x="110" y="616" fill="#BDBDBD" rx="5"/><rect id="Rectangle-Copy-24" width="642" height="10" x="110" y="664" fill="#BDBDBD" rx="5"/><rect id="Rectangle-Copy-25" width="642" height="10" x="110" y="712" fill="#BDBDBD" rx="5"/><rect id="Rectangle-Copy-26" width="642" height="10" x="110" y="760" fill="#BDBDBD" rx="5"/></g></g></g></svg>