<?xml version="1.0" encoding="utf-8"?>
<!-- Generator: Adobe Illustrator 17.1.0, SVG Export Plug-In . SVG Version: 6.00 Build 0)  -->
<!DOCTYPE svg PUBLIC "-//W3C//DTD SVG 1.1//EN" "http://www.w3.org/Graphics/SVG/1.1/DTD/svg11.dtd">
<svg version="1.1" id="Layer_1" xmlns="http://www.w3.org/2000/svg" xmlns:xlink="http://www.w3.org/1999/xlink" x="0px" y="0px"
	 viewBox="0 0 3456 2592" enable-background="new 0 0 3456 2592" xml:space="preserve">
<path fill="#A8A8A8" d="M1060.3,1709.2c0.6,1.6,13.9,38.5,21.7,56.8c42.5,100.5,103.4,190.8,181,268.4
	c77.5,77.5,167.8,138.4,268.4,180.9c104.1,44.1,214.7,66.4,328.7,66.4c114,0,224.6-22.3,328.7-66.4
	c100.6-42.5,190.9-103.4,268.4-181c77.5-77.5,138.4-167.8,181-268.4c44.1-104.2,66.4-214.8,66.4-328.7c0-114-22.3-224.6-66.4-328.7
	c-42.5-100.6-103.4-190.9-181-268.4c-77.5-77.5-167.8-138.4-268.4-181c-104.2-44.1-214.8-66.4-328.7-66.4
	c-115.3,0-230.6,23-333.3,66.4c-82.1,34.7-221,124.1-302.4,208l-0.5,0.5v-695l1167.5,0c42.5-0.5,42.5-59.8,42.5-79.3
	c0-19.5,0-78.8-42.6-79.3L1129,14c-34.4,0-55.6,28.6-55.6,55.1v978.3c0,31.6,39.3,54.3,75.8,62.2c71.3,15.2,87.8-7.6,105.3-31.7
	l2.3-3.2c26.7-39.6,110-123.5,110.9-124.3c130.1-130.1,304-201.7,489.7-201.7c184.8,0,358.3,71.6,488.3,201.7
	c130.5,130.5,202.4,303.5,202.4,487c0,184.2-71.5,357.1-201.4,487c-128.2,128.2-307.3,201.7-491.3,201.7
	c-124.7,0-245-33.2-348.1-96.1l0.4-594.8c0-79.3,34.4-165.5,92.1-230.6c65.9-74.4,156.7-115.4,255.8-115.4
	c95.9,0,185.5,36.4,252.2,102.5c66.3,65.6,102.8,153.1,102.8,246.3c0,198.8-156.3,354.5-355.8,354.5c-38.5,0-108.4-17-111.3-17.7
	c-40.3-12-57.4,43.9-63.1,62.4c-21.7,70.9,10.9,85,17.7,87.1c64.2,19.9,106.3,23.7,161.6,23.7c281.7,0,510.9-229.3,510.9-511.1
	c0-279.6-229-507-510.5-507c-137.9,0-267.4,52.7-364.7,148.4c-92.7,91.1-145.8,212.6-145.8,333.3l-0.1,3
	c-0.5,15.1-0.7,371.6-0.8,488.7l-0.5-0.6c-53-58.6-105.3-148.4-140-240.1c-13.6-35.9-44.3-29.6-86.2-16.7
	c-18.3,5.6-74,22.8-61.7,63.1L1060.3,1709.2z M1660.4,1569.5c0.2,17.1,15.8,32.1,25.2,41l2.9,2.8c16,15.8,31.3,23.8,45.4,23.8
	c11.7,0,18.8-5.5,21.4-7.9c7.1-6.6,86.9-87.5,94.5-95.2l89.1,88.8c8.2,9.3,17.2,13.9,27.7,14.2c14.2,0,29.7-8.5,46.1-25.1
	c38.4-39.2,19.2-60.4,9.9-70.6l-90.2-90.3l94.1-94.8c20.6-22.3,2.4-46.1-15.8-64.2c-26.4-26.4-51.9-33.2-68.2-18.2l-93.6,93.7
	l-94.6-94.7c-5-4.8-11.3-7.3-18.3-7.3c-12.6,0-27.5,8.5-44.3,25.3c-29.1,29.1-35.3,49.2-20.2,65.3l94.7,94.4l-94.1,94.3
	C1664.2,1552.5,1660.3,1560.8,1660.4,1569.5z M1866.6,290.4c-151.3,0-312.2,30.5-430.4,81.7c-12.6,4.9-20.2,15.1-21.9,29.4
	c-1.6,13.5,2.1,31.2,11.1,54.3c7.3,18.7,26.8,68.5,64.5,54.1c121-46.2,254.8-71.6,376.6-71.6c138.1,0,272,27,398.1,80.3
	c100.2,42.4,194.7,103.6,297.4,192.6c7.5,6.5,15.4,9.8,23.6,9.8c20,0,39.2-19.7,55.7-38.1c27.4-30.8,46.3-56.4,19.2-82
	c-98.1-93-205.6-162.4-338.4-218.5C2177.9,321.4,2024.6,290.4,1866.6,290.4z M2681.7,2158.4L2681.7,2158.4
	c-18.2-18.2-33.7-28.9-47.3-32.8c-13.8-4-26.1-1-35.6,8.5l-9,8.9c-93.8,93.8-202.9,167.4-324.5,218.8
	c-125.8,53.2-259.5,80.2-397.3,80.2c-137.8,0-271.5-27-397.3-80.2c-121.6-51.4-230.7-125-324.5-218.8
	c-97.7-97.7-171.3-206.9-218.8-324.5c-46.3-114.7-61.4-201-66.4-229.3c-0.5-2.7-0.8-4.8-1.1-6.3c-6.4-33.4-37.1-35.7-81.2-29
	c-18.4,2.8-74.2,11.4-68.9,51.6l0.1,0.9c14.8,93.1,40.9,184.3,77.7,271.2c59.1,139.7,143.6,265.1,251.3,372.7
	c107.7,107.7,233.1,192.2,372.7,251.3c144.6,61.2,298.2,92.2,456.5,92.2c158.2,0,311.8-31,456.5-92.2
	c139.6-59,265-143.6,372.7-251.3c0.2-0.2,6.1-6.1,9.4-9.6C2718.5,2227.9,2728.8,2205.4,2681.7,2158.4z"/>
</svg>
