<?xml version="1.0" encoding="utf-8"?>
<!-- Generator: Adobe Illustrator 17.1.0, SVG Export Plug-In . SVG Version: 6.00 Build 0)  -->
<!DOCTYPE svg PUBLIC "-//W3C//DTD SVG 1.1//EN" "http://www.w3.org/Graphics/SVG/1.1/DTD/svg11.dtd">
<svg version="1.1" id="Layer_1" xmlns="http://www.w3.org/2000/svg" xmlns:xlink="http://www.w3.org/1999/xlink" x="0px" y="0px"
	 viewBox="0 0 1047 575" enable-background="new 0 0 1047 575" xml:space="preserve">
<g transform="translate(0.000000,575.000000) scale(0.100000,-0.100000)">
	<path fill="#A8A8A8" d="M421.001,4052.001C292.002,3327.998,183.999,2725,182.002,2712.998L177.998,2690h444.004h443.999l37.998,50
		c57.002,74.004,183.999,190,257.002,232.998c156.997,92.002,400,129.004,611.997,92.002c340-58.999,579.004-297.002,663.003-660
		c15-62.002,18.999-117.002,17.998-245c-1.001-145.996-3.999-177.002-26.997-265c-87.002-325-288.003-547.998-583.003-647.002
		c-61.001-20-87.998-22.998-233.999-22.998c-192.998,0-246.001,10.996-386.001,80c-211.997,104.004-367.998,322.998-406.001,572.002
		L1006.001,1950H512.998C242.002,1950,20,1947.002,20,1942.998c0-5,5-57.002,10-117.998c36.001-372.998,165-652.002,418.999-905
		c183.999-182.998,388.003-307.002,640-390C1327.002,452.002,1560,417.002,1845,417.002c326.001,0,535,45.996,805,175
		c356.001,168.994,629.004,437.002,810.996,795l48.008,95l16.992-44.004c147.002-372.002,495-715,886.006-872.002
		c220-87.998,355-110.996,652.998-110.996c210,0,254.004,2.998,352.002,22.998c290.996,59.004,583.994,202.002,848.994,414.004
		C6382.997,985,6507.997,1105.996,6744.003,1350c163.994,170.996,188.994,192.998,200,177.998
		c43.994-58.994,321.992-350.996,425.996-445.996c354.004-325,709.004-521.006,1090-604.004
		c92.002-18.994,134.004-22.002,340-22.998c260,0,362.998,14.004,552.002,75.996c382.998,125,693.994,392.002,897.002,769.004
		c238.994,445.996,290,1092.998,125.996,1595c-189.004,578.999-622.002,968.999-1207.002,1087.002
		c-98.994,20-142.998,22.998-347.998,22.998c-270,0-350.996-11.001-545-76.001c-197.998-66.001-377.002-157.998-555-285
		c-217.002-155-397.002-331.001-707.998-696.001l-82.998-97.002l-131.006,152.002c-160,184.004-432.002,459.004-547.998,551.001
		c-212.002,168.999-455.996,303.999-675,373.999c-180,58.003-277.998,74.004-500,79.004c-212.002,5.996-347.002-8.003-515-53.003
		c-449.004-121.001-830-447.998-1012.998-870C3527.998,3041,3509.003,2995,3505,2982.998c-2.998-12.998-10-22.998-14.004-22.998
		c-2.998,0-21.992,30-40,67.998C3282.998,3371,2952.998,3651,2595,3755c-153.999,43.999-263.999,58.999-455,57.998
		c-381.001-0.996-633.999-88.999-887.002-310c-55-47.998-75-60-78.999-48.999c-2.998,8.003,37.002,258.999,90,558.999
		c53.003,299.004,96.001,547.002,96.001,550c0,4.004,455,7.002,1010,7.002h1010v400v400H2017.998H655L421.001,4052.001z M5260,3020
		c40.996-11.001,129.004-47.002,195-78.999c225-108.003,422.998-260.005,714.003-546.997l183.994-182.002l-22.002-31.006
		C6294.003,2130,6032.001,1870,5949.003,1802.998C5730.996,1625.996,5490,1497.002,5280,1444.004
		c-114.004-29.004-357.002-27.002-465,3.994c-124.004,36.006-209.004,86.006-300.996,177.998
		c-67.002,67.002-91.006,99.004-132.002,182.002c-70,139.004-87.002,221.006-86.006,407.002c0,105.996,5,170,17.002,217.998
		c60,242.998,219.004,459.004,400,547.002c120,57.998,186.006,70,342.002,66.001C5147.998,3042.998,5205.996,3036,5260,3020z
		 M9014.999,3026c254.004-71.001,450-281.001,527.002-566.997c30.996-117.002,30.996-355,0-474.004
		c-72.998-270-251.006-469.004-482.002-535c-104.004-30-302.998-37.998-425-15.996c-320,55-657.998,267.998-990.996,620.996
		c-65,69.004-122.002,132.002-127.002,140c-6.006,12.002,23.994,50,128.994,160.996c400,423.008,668.008,610.005,969.004,680.005
		C8695.995,3053.999,8932.997,3047.998,9014.999,3026z"/>
</g>
</svg>
