<?xml version="1.0" encoding="utf-8"?>
<!-- Generator: Adobe Illustrator 17.1.0, SVG Export Plug-In . SVG Version: 6.00 Build 0)  -->
<!DOCTYPE svg PUBLIC "-//W3C//DTD SVG 1.1//EN" "http://www.w3.org/Graphics/SVG/1.1/DTD/svg11.dtd">
<svg version="1.1" id="Layer_1" xmlns="http://www.w3.org/2000/svg" xmlns:xlink="http://www.w3.org/1999/xlink" x="0px" y="0px"
	 viewBox="0 0 784 1224" enable-background="new 0 0 784 1224" xml:space="preserve">
<g>
	<g>
		<path id="SVGID_1_" fill="#A8A8A8" d="M392,1003.476c-216.15,0-392-175.615-392-391.475c0-215.863,175.85-391.477,392-391.477
			s392,175.615,392,391.477C784,827.861,608.15,1003.476,392,1003.476L392,1003.476z M722.593,665.589
			c-11.455-3.611-103.636-31.066-208.561-14.295c43.794,120.183,61.618,218.068,65.046,238.409
			C654.198,838.98,707.671,758.627,722.593,665.589L722.593,665.589z M522.79,920.318c-4.982-29.337-24.421-131.581-71.429-253.574
			c-0.736,0.249-1.472,0.49-2.208,0.744C260.296,733.21,192.504,864.003,186.479,876.303
			c56.773,44.209,128.117,70.589,205.521,70.589C438.382,946.892,482.591,937.418,522.79,920.318L522.79,920.318z M143.246,836.088
			c7.584-12.965,99.477-164.915,272.162-220.656c4.364-1.409,8.763-2.733,13.195-3.978c-8.407-18.995-17.562-38.013-27.146-56.748
			c-167.21,49.977-329.466,47.887-344.116,47.588c-0.104,3.393-0.172,6.796-0.172,10.216
			C57.172,698.393,89.77,776.807,143.246,836.088L143.246,836.088z M64.244,544.025c14.976,0.197,152.923,0.796,309.545-40.74
			C318.311,404.795,258.477,321.99,249.651,309.9C155.977,354.025,85.957,440.263,64.244,544.025L64.244,544.025z M313.537,287.425
			c9.256,12.377,70.066,95.081,124.935,195.751c119.061-44.565,169.465-112.221,175.486-120.787
			c-59.128-52.39-136.88-84.258-221.956-84.258C364.986,278.128,338.716,281.365,313.537,287.425L313.537,287.425z M651.177,401.055
			c-7.059,9.535-63.167,81.366-186.963,131.843c7.789,15.928,15.261,32.128,22.213,48.434c2.465,5.781,4.864,11.532,7.212,17.255
			c111.411-13.991,222.109,8.432,233.148,10.763C726.051,530.428,697.811,457.956,651.177,401.055L651.177,401.055z"/>
	</g>
</g>
</svg>
