<?xml version="1.0" encoding="utf-8"?>
<!-- Generator: Adobe Illustrator 24.0.3, SVG Export Plug-In . SVG Version: 6.00 Build 0)  -->
<svg version="1.1" id="Layer_1" xmlns="http://www.w3.org/2000/svg" xmlns:xlink="http://www.w3.org/1999/xlink" x="0px" y="0px"
	 viewBox="0 0 784 1224" style="enable-background:new 0 0 784 1224;" xml:space="preserve">
<style type="text/css">
	.st0{fill:#454D59;}
</style>
<g>
	<g>
		<path id="SVGID_1_" class="st0" d="M392,1003.5C175.9,1003.5,0,827.9,0,612s175.9-391.5,392-391.5S784,396.1,784,612
			S608.2,1003.5,392,1003.5L392,1003.5z M722.6,665.6C711.1,662,619,634.5,514,651.3c43.8,120.2,61.6,218.1,65,238.4
			C654.2,839,707.7,758.6,722.6,665.6L722.6,665.6z M522.8,920.3c-5-29.3-24.4-131.6-71.4-253.6c-0.7,0.2-1.5,0.5-2.2,0.7
			C260.3,733.2,192.5,864,186.5,876.3c56.8,44.2,128.1,70.6,205.5,70.6C438.4,946.9,482.6,937.4,522.8,920.3L522.8,920.3z
			 M143.2,836.1c7.6-13,99.5-164.9,272.2-220.7c4.4-1.4,8.8-2.7,13.2-4c-8.4-19-17.6-38-27.1-56.7c-167.2,50-329.5,47.9-344.1,47.6
			c-0.1,3.4-0.2,6.8-0.2,10.2C57.2,698.4,89.8,776.8,143.2,836.1L143.2,836.1z M64.2,544c15,0.2,152.9,0.8,309.5-40.7
			c-55.4-98.5-115.2-181.3-124-193.4C156,354,86,440.3,64.2,544L64.2,544z M313.5,287.4c9.3,12.4,70.1,95.1,124.9,195.8
			C557.5,438.6,607.9,371,614,362.4c-59.1-52.4-136.9-84.3-222-84.3C365,278.1,338.7,281.4,313.5,287.4L313.5,287.4z M651.2,401.1
			c-7.1,9.5-63.2,81.4-187,131.8c7.8,15.9,15.3,32.1,22.2,48.4c2.5,5.8,4.9,11.5,7.2,17.3c111.4-14,222.1,8.4,233.1,10.8
			C726.1,530.4,697.8,458,651.2,401.1L651.2,401.1z"/>
	</g>
</g>
</svg>
