<?xml version="1.0" encoding="utf-8"?>
<!-- Generator: Adobe Illustrator 24.0.3, SVG Export Plug-In . SVG Version: 6.00 Build 0)  -->
<svg version="1.1" id="Layer_1" xmlns="http://www.w3.org/2000/svg" xmlns:xlink="http://www.w3.org/1999/xlink" x="0px" y="0px"
	 viewBox="0 0 784 1224" style="enable-background:new 0 0 784 1224;" xml:space="preserve">
<style type="text/css">
	.st0{fill:#454D59;}
</style>
<path class="st0" d="M392,229.7c-216.4,0-392,175.5-392,392c0,173.2,112.3,320.1,268.1,371.9c19.6,3.6,26.8-8.5,26.8-18.9
	c0-9.3-0.4-33.9-0.5-66.7c-109.1,23.7-132-52.5-132-52.5c-17.8-45.3-43.5-57.3-43.5-57.3c-35.6-24.3,2.7-23.8,2.7-23.8
	c39.3,2.8,60.1,40.4,60.1,40.4c35,59.9,91.7,42.6,114.1,32.6c3.6-25.4,13.7-42.6,24.9-52.4c-87-10-178.5-43.5-178.5-193.8
	c0-42.8,15.3-77.8,40.4-105.2c-4-10-17.5-49.8,3.8-103.8c0,0,32.9-10.6,107.8,40.2c31.3-8.7,64.8-13.1,98.1-13.2
	c33.3,0.2,66.8,4.5,98.1,13.2c74.9-50.7,107.7-40.2,107.7-40.2C619.5,446.1,606,486,602,496c25.1,27.4,40.3,62.4,40.3,105.2
	c0,150.6-91.6,183.7-179,193.4c14.1,12.1,26.6,36,26.6,72.6c0,52.4-0.5,94.7-0.5,107.5c0,10.5,7.1,22.7,27,18.8
	C671.8,941.6,784,794.8,784,621.7C784,405.2,608.5,229.7,392,229.7z"/>
</svg>
