<?xml version="1.0" encoding="utf-8"?>
<!-- Generator: Adobe Illustrator 17.1.0, SVG Export Plug-In . SVG Version: 6.00 Build 0)  -->
<!DOCTYPE svg PUBLIC "-//W3C//DTD SVG 1.1//EN" "http://www.w3.org/Graphics/SVG/1.1/DTD/svg11.dtd">
<svg version="1.1" id="Layer_1" xmlns="http://www.w3.org/2000/svg" xmlns:xlink="http://www.w3.org/1999/xlink" x="0px" y="0px"
	 viewBox="0 0 784 1224" enable-background="new 0 0 784 1224" xml:space="preserve">
<path fill="#A8A8A8" d="M391.975,229.704C175.53,229.704,0,405.183,0,621.729C0,794.885,112.289,941.825,268.068,993.65
	c19.599,3.586,26.771-8.486,26.771-18.892c0-9.294-0.354-33.944-0.505-66.676c-109.056,23.69-132.039-52.533-132.039-52.533
	c-17.831-45.259-43.542-57.331-43.542-57.331c-35.611-24.296,2.677-23.842,2.677-23.842c39.349,2.778,60.059,40.41,60.059,40.41
	c34.954,59.907,91.73,42.582,114.057,32.58c3.586-25.357,13.689-42.582,24.903-52.381c-87.033-9.951-178.51-43.542-178.51-193.765
	c0-42.784,15.255-77.789,40.359-105.166c-4.041-9.951-17.528-49.805,3.839-103.752c0,0,32.934-10.557,107.793,40.208
	c31.267-8.739,64.757-13.083,98.095-13.234c33.288,0.152,66.828,4.496,98.145,13.184c74.859-50.714,107.692-40.208,107.692-40.208
	c21.367,53.947,7.93,93.801,3.889,103.752c25.105,27.378,40.309,62.383,40.309,105.166c0,150.577-91.629,183.713-178.965,193.411
	c14.093,12.123,26.62,36.015,26.62,72.586c0,52.381-0.505,94.66-0.505,107.54c0,10.507,7.072,22.68,26.974,18.841
	C671.812,941.623,784,794.784,784,621.679C784,405.234,608.47,229.704,391.975,229.704z"/>
</svg>
