<?xml version="1.0" encoding="utf-8"?>
<!-- Generator: Adobe Illustrator 24.0.3, SVG Export Plug-In . SVG Version: 6.00 Build 0)  -->
<svg version="1.1" id="Logo" xmlns="http://www.w3.org/2000/svg" xmlns:xlink="http://www.w3.org/1999/xlink" x="0px" y="0px"
	 viewBox="0 0 503.8 503.8" style="enable-background:new 0 0 503.8 503.8;" xml:space="preserve">
<style type="text/css">
	.st0{fill:#454D59;}
</style>
<g>
	<path class="st0" d="M251.9,45.4c67.3,0,75.2,0.3,101.8,1.5c24.6,1.1,37.9,5.2,46.8,8.7c11.8,4.6,20.2,10,29,18.8
		s14.3,17.2,18.8,29c3.4,8.9,7.6,22.2,8.7,46.8c1.2,26.6,1.5,34.5,1.5,101.8s-0.3,75.2-1.5,101.8c-1.1,24.6-5.2,37.9-8.7,46.8
		c-4.6,11.8-10,20.2-18.8,29s-17.2,14.3-29,18.8c-8.9,3.4-22.2,7.6-46.8,8.7c-26.6,1.2-34.5,1.5-101.8,1.5s-75.2-0.3-101.8-1.5
		c-24.6-1.1-37.9-5.2-46.8-8.7c-11.8-4.6-20.2-10-29-18.8s-14.3-17.2-18.8-29c-3.4-8.9-7.6-22.2-8.7-46.8
		c-1.2-26.6-1.5-34.5-1.5-101.8s0.3-75.2,1.5-101.8c1.1-24.6,5.2-37.9,8.7-46.8c4.6-11.8,10-20.2,18.8-29s17.2-14.3,29-18.8
		c8.9-3.4,22.2-7.6,46.8-8.7C176.7,45.6,184.7,45.4,251.9,45.4 M251.9,0c-68.4,0-77,0.3-103.9,1.5C121.2,2.7,102.9,7,86.9,13.2
		c-16.6,6.4-30.6,15.1-44.6,29.1S19.7,70.4,13.2,86.9c-6.2,16-10.5,34.3-11.7,61.2C0.3,174.9,0,183.5,0,251.9s0.3,77,1.5,103.9
		C2.7,382.6,7,400.9,13.2,417c6.4,16.6,15.1,30.6,29.1,44.6s28.1,22.6,44.6,29.1c16,6.2,34.3,10.5,61.2,11.7s35.4,1.5,103.9,1.5
		s77-0.3,103.9-1.5c26.8-1.2,45.1-5.5,61.2-11.7c16.6-6.4,30.6-15.1,44.6-29.1s22.6-28.1,29.1-44.6c6.2-16,10.5-34.3,11.7-61.2
		c1.2-26.9,1.5-35.4,1.5-103.9s-0.3-77-1.5-103.9c-1.2-26.8-5.5-45.1-11.7-61.2c-6.4-16.6-15.1-30.6-29.1-44.6s-28.1-22.6-44.6-29.1
		c-16-6.2-34.3-10.5-61.2-11.7C328.9,0.3,320.3,0,251.9,0L251.9,0z"/>
	<path class="st0" d="M251.9,122.6c-71.4,0-129.4,57.9-129.4,129.4s57.9,129.4,129.4,129.4S381.3,323.5,381.3,252
		S323.4,122.6,251.9,122.6z M251.9,335.9c-46.4,0-84-37.6-84-84s37.6-84,84-84s84,37.6,84,84S298.3,335.9,251.9,335.9z"/>
	<circle class="st0" cx="386.4" cy="117.4" r="30.2"/>
</g>
</svg>
