<?xml version="1.0" encoding="utf-8"?>
<!-- Generator: Adobe Illustrator 17.1.0, SVG Export Plug-In . SVG Version: 6.00 Build 0)  -->
<!DOCTYPE svg PUBLIC "-//W3C//DTD SVG 1.1//EN" "http://www.w3.org/Graphics/SVG/1.1/DTD/svg11.dtd">
<svg version="1.1" id="Layer_1" xmlns="http://www.w3.org/2000/svg" xmlns:xlink="http://www.w3.org/1999/xlink" x="0px" y="0px"
	 viewBox="0 0 431.954 431.173" enable-background="new 0 0 431.954 431.173" xml:space="preserve">
<g>
	<path fill="#A9A8A8" d="M431.954,273.255v157.918h-89.409V291.136c0-33.416-0.671-76.333-46.604-76.333
		c-46.492,0-53.645,36.434-53.645,73.985v142.384h-89.52V143.165h85.944v39.451h1.229c11.958-22.687,41.128-46.492,84.603-46.492
		C415.19,136.124,431.954,195.693,431.954,273.255z"/>
	<rect x="7.152" y="143.165" fill="#A9A8A8" width="89.52" height="288.007"/>
	<path fill="#A9A8A8" d="M103.825,51.968c0,28.611-23.246,51.857-51.969,51.857C23.246,103.825,0,80.58,0,51.968
		C0,23.246,23.246,0,51.856,0C80.579,0,103.825,23.246,103.825,51.968z"/>
</g>
</svg>
