<?xml version="1.0" encoding="utf-8"?>
<!-- Generator: Adobe Illustrator 24.0.3, SVG Export Plug-In . SVG Version: 6.00 Build 0)  -->
<svg version="1.1" id="Layer_1" xmlns="http://www.w3.org/2000/svg" xmlns:xlink="http://www.w3.org/1999/xlink" x="0px" y="0px"
	 viewBox="0 0 432 431.2" style="enable-background:new 0 0 432 431.2;" xml:space="preserve">
<style type="text/css">
	.st0{fill:#454D59;}
</style>
<g>
	<path class="st0" d="M432,273.3v157.9h-89.4v-140c0-33.4-0.7-76.3-46.6-76.3c-46.5,0-53.6,36.4-53.6,74v142.4h-89.5v-288h85.9v39.5
		h1.2c12-22.7,41.1-46.5,84.6-46.5C415.2,136.1,432,195.7,432,273.3z"/>
	<rect x="7.2" y="143.2" class="st0" width="89.5" height="288"/>
	<path class="st0" d="M103.8,52c0,28.6-23.2,51.9-52,51.9C23.2,103.8,0,80.6,0,52C0,23.2,23.2,0,51.9,0S103.8,23.2,103.8,52z"/>
</g>
</svg>
