<?xml version="1.0" encoding="utf-8"?>
<!-- Generator: Adobe Illustrator 17.1.0, SVG Export Plug-In . SVG Version: 6.00 Build 0)  -->
<!DOCTYPE svg PUBLIC "-//W3C//DTD SVG 1.1//EN" "http://www.w3.org/Graphics/SVG/1.1/DTD/svg11.dtd">
<svg version="1.1" id="Layer_1" xmlns="http://www.w3.org/2000/svg" xmlns:xlink="http://www.w3.org/1999/xlink" x="0px" y="0px"
	 viewBox="0 0 784 1224" enable-background="new 0 0 784 1224" xml:space="preserve">
<path fill="#A8A8A8" d="M727.953,878.008V542.03c-9.333,10.499-19.395,20.124-30.186,28.873
	c-78.162,60.08-140.283,109.368-186.363,147.866c-14.874,12.541-26.977,22.311-36.31,29.311c-9.333,7-21.947,14.072-37.841,21.217
	c-15.895,7.145-30.842,10.718-44.841,10.718h-0.875c-13.999,0-28.946-3.573-44.841-10.718
	c-15.895-7.145-28.509-14.218-37.841-21.217c-9.333-7-21.436-16.77-36.31-29.311c-46.08-38.498-108.201-87.786-186.363-147.866
	c-10.791-8.749-20.853-18.374-30.186-28.873v335.979c0,3.791,1.385,7.072,4.156,9.843c2.771,2.771,6.052,4.156,9.843,4.156h643.959
	c3.791,0,7.072-1.385,9.843-4.156C726.568,885.081,727.953,881.799,727.953,878.008L727.953,878.008z M727.953,418.225v-10.718
	c0,0-0.073-1.896-0.219-5.687c-0.146-3.791-0.583-5.614-1.312-5.468s-1.531-1.167-2.406-3.937s-2.187-3.864-3.937-3.281
	c-1.75,0.583-3.791,0.219-6.125-1.094H69.996c-3.791,0-7.072,1.385-9.843,4.156c-2.771,2.771-4.156,6.052-4.156,9.843
	c0,48.997,21.436,90.411,64.308,124.242c56.288,44.331,114.763,90.557,175.426,138.679c1.75,1.458,6.854,5.76,15.312,12.905
	c8.458,7.145,15.166,12.614,20.124,16.405c4.958,3.791,11.447,8.385,19.467,13.78c8.02,5.396,15.384,9.406,22.092,12.03
	c6.708,2.625,12.978,3.937,18.811,3.937h0.875c5.833,0,12.103-1.312,18.811-3.937c6.708-2.625,14.072-6.635,22.092-12.03
	c8.02-5.396,14.509-9.989,19.467-13.78c4.958-3.791,11.666-9.26,20.124-16.405s13.562-11.447,15.312-12.905
	c60.663-48.122,119.138-94.348,175.426-138.679c15.749-12.541,30.404-29.384,43.966-50.528
	C721.173,454.608,727.953,435.432,727.953,418.225L727.953,418.225z M783.95,402.039v475.97c0,19.249-6.854,35.727-20.561,49.434
	c-13.707,13.708-30.186,20.561-49.434,20.561H69.996c-19.249,0-35.727-6.854-49.434-20.561C6.854,913.735,0,897.257,0,878.008
	v-475.97c0-19.249,6.854-35.727,20.561-49.434s30.186-20.561,49.434-20.561h643.959c19.249,0,35.727,6.854,49.434,20.561
	S783.95,382.79,783.95,402.039z"/>
</svg>
