<svg xmlns="http://www.w3.org/2000/svg" xmlns:xlink="http://www.w3.org/1999/xlink" id="Layer_1" x="0" y="0" version="1.1" viewBox="0 0 784 1224" xml:space="preserve" style="enable-background:new 0 0 784 1224"><style type="text/css">.st0{fill:#454d59}</style><path d="M708.6,937.6c40.3,0,73.1-32.7,73.1-73.1V553.3c0-7.5-8.8-11.9-14.8-7.2c-34.1,26.5-79.1,60.3-234.4,173.1	c-30.9,22.5-86.1,72.9-140.5,72.4c-54,0.3-108.2-49-140.3-72.4C96.4,606.5,51.2,572.8,17.1,546.3c-6.1-4.7-14.8-0.5-14.8,7.2v311.1	c0,40.3,32.7,73.1,73.1,73.1L708.6,937.6L708.6,937.6z M392,742.8c35.3,0.6,86.1-44.4,111.7-63c202-146.6,217.3-159.4,263.9-195.9	c8.8-6.8,14-17.5,14-28.8v-28.9c0-40.3-32.7-73.1-73.1-73.1H75.4c-40.3,0-73.1,32.7-73.1,73.1v28.9c0,11.3,5.2,21.8,14,28.8	c46.6,36.4,61.9,49.3,263.9,195.9C305.8,698.4,356.7,743.4,392,742.8z" class="st0"/></svg>