<?xml version="1.0" encoding="utf-8"?>
<!-- Generator: Adobe Illustrator 17.1.0, SVG Export Plug-In . SVG Version: 6.00 Build 0)  -->
<!DOCTYPE svg PUBLIC "-//W3C//DTD SVG 1.1//EN" "http://www.w3.org/Graphics/SVG/1.1/DTD/svg11.dtd">
<svg version="1.1" id="Layer_1" xmlns="http://www.w3.org/2000/svg" xmlns:xlink="http://www.w3.org/1999/xlink" x="0px" y="0px"
	 viewBox="0 0 784 1224" enable-background="new 0 0 784 1224" xml:space="preserve">
<g>
	<g>
		<path fill="#A8A8A8" d="M391.997,220C175.507,220,0,395.507,0,611.997c0,166.068,103.322,307.912,249.141,365.029
			c-3.427-31.014-6.518-78.591,1.36-112.449c7.119-30.596,45.964-194.85,45.964-194.85s-11.73-23.483-11.73-58.2
			c0-54.508,31.591-95.202,70.931-95.202c33.446,0,49.597,25.108,49.597,55.221c0,33.634-21.416,83.914-32.468,130.52
			c-9.233,39.016,19.567,70.836,58.047,70.836c69.671,0,123.225-73.463,123.225-179.505c0-93.854-67.439-159.479-163.742-159.479
			c-111.536,0-177.003,83.661-177.003,170.119c0,33.693,12.978,69.818,29.171,89.455c3.203,3.88,3.674,7.284,2.72,11.241
			c-2.979,12.383-9.592,39.01-10.887,44.457c-1.714,7.178-5.682,8.697-13.107,5.241c-48.961-22.788-79.569-94.366-79.569-151.86
			c0-123.655,89.844-237.217,259.009-237.217c135.985,0,241.662,96.898,241.662,226.4c0,135.096-85.186,243.823-203.418,243.823
			c-39.723,0-77.066-20.633-89.844-45.01c0,0-19.655,74.846-24.419,93.189c-8.85,34.052-32.739,76.731-48.72,102.763
			C312.599,997.87,351.574,1004,391.985,1004c216.496,0,392.003-175.501,392.003-392.003C784,395.507,608.493,220,391.997,220z"/>
	</g>
</g>
</svg>
