<?xml version="1.0" encoding="utf-8"?>
<!-- Generator: Adobe Illustrator 24.0.3, SVG Export Plug-In . SVG Version: 6.00 Build 0)  -->
<svg version="1.1" id="Layer_1" xmlns="http://www.w3.org/2000/svg" xmlns:xlink="http://www.w3.org/1999/xlink" x="0px" y="0px"
	 viewBox="0 0 784 1224" style="enable-background:new 0 0 784 1224;" xml:space="preserve">
<style type="text/css">
	.st0{fill:#454D59;}
</style>
<g>
	<g>
		<path class="st0" d="M392,220C175.5,220,0,395.5,0,612c0,166.1,103.3,307.9,249.1,365c-3.4-31-6.5-78.6,1.4-112.4
			c7.1-30.6,46-194.8,46-194.8s-11.7-23.5-11.7-58.2c0-54.5,31.6-95.2,70.9-95.2c33.4,0,49.6,25.1,49.6,55.2
			c0,33.6-21.4,83.9-32.5,130.5c-9.2,39,19.6,70.8,58,70.8c69.7,0,123.2-73.5,123.2-179.5c0-93.9-67.4-159.5-163.7-159.5
			c-111.5,0-177,83.7-177,170.1c0,33.7,13,69.8,29.2,89.5c3.2,3.9,3.7,7.3,2.7,11.2c-3,12.4-9.6,39-10.9,44.5
			c-1.7,7.2-5.7,8.7-13.1,5.2c-49-22.8-79.6-94.4-79.6-151.9c0-123.7,89.8-237.2,259-237.2c136,0,241.7,96.9,241.7,226.4
			c0,135.1-85.2,243.8-203.4,243.8c-39.7,0-77.1-20.6-89.8-45c0,0-19.7,74.8-24.4,93.2c-8.9,34.1-32.7,76.7-48.7,102.8
			c36.7,11.4,75.7,17.5,116.1,17.5c216.5,0,392-175.5,392-392C784,395.5,608.5,220,392,220z"/>
	</g>
</g>
</svg>
