<?xml version="1.0" encoding="utf-8"?>
<!-- Generator: Adobe Illustrator 17.1.0, SVG Export Plug-In . SVG Version: 6.00 Build 0)  -->
<!DOCTYPE svg PUBLIC "-//W3C//DTD SVG 1.1//EN" "http://www.w3.org/Graphics/SVG/1.1/DTD/svg11.dtd">
<svg version="1.1" id="Layer_1" xmlns="http://www.w3.org/2000/svg" xmlns:xlink="http://www.w3.org/1999/xlink" x="0px" y="0px"
	 viewBox="745.9 475.3 2035.9 1654.5" enable-background="new 745.9 475.3 2035.9 1654.5" xml:space="preserve">
<g id="layer1" transform="translate(-539.17946,-568.85777)">
	<path id="path3611" fill="#A8A8A8" d="M1925.5,2698.7c768.3,0,1188.4-636.5,1188.4-1188.4c0-18.1-0.4-36.1-1.2-54
		c81.6-59,152.4-132.5,208.3-216.3c-74.8,33.3-155.4,55.7-239.9,65.8c86.2-51.7,152.4-133.5,183.7-231
		c-80.7,47.8-170.1,82.6-265.2,101.4c-76.2-81.2-184.7-132-304.9-132c-230.7,0-417.7,187.1-417.7,417.6c0,32.8,3.7,64.7,10.8,95.2
		c-347.2-17.5-655-183.7-861-436.4c-35.9,61.7-56.6,133.4-56.6,209.9c0,144.9,73.7,272.8,185.9,347.7
		c-68.5-2.1-132.9-20.9-189.2-52.2c-0.1,1.8-0.1,3.5-0.1,5.3c0,202.3,144,371.2,335.1,409.5c-35.1,9.6-72,14.7-110.1,14.7
		c-26.9,0-53.1-2.6-78.5-7.5c53.2,166,207.4,286.7,390.2,290.1c-143,112.1-323,178.8-518.8,178.8c-33.7,0-66.9-1.9-99.6-5.8
		C1470.1,2629.6,1689.6,2698.7,1925.5,2698.7"/>
</g>
</svg>
