<svg xmlns="http://www.w3.org/2000/svg" xmlns:xlink="http://www.w3.org/1999/xlink" id="Layer_1" x="0" y="0" enable-background="new 0 0 266.487 266.487" version="1.1" viewBox="0 0 266.487 266.487" xml:space="preserve"><g><path fill="#53C0E7" d="M0,133.243c0,35.338,14.037,69.228,39.024,94.216c24.988,24.989,58.88,39.028,94.219,39.028 c35.338,0,69.228-14.037,94.216-39.024c24.989-24.988,39.028-58.88,39.028-94.219C177.658,133.243,88.829,133.243,0,133.243z"/><path fill="#313131" d="M0,133.243c0-35.338,14.037-69.228,39.024-94.216C64.012,14.039,97.904,0,133.243,0 c35.338,0,69.228,14.037,94.216,39.024c24.989,24.988,39.028,58.88,39.028,94.219C177.658,133.243,88.829,133.243,0,133.243z"/><path fill="#3C4146" d="M226.514,73.284c0-11.038-8.948-19.987-19.987-19.987c-48.856,0-97.712,0-146.568,0 c-11.038,0-19.987,8.948-19.987,19.987c0,19.987,0,39.973,0,59.96c62.18,0,124.361,0,186.541,0 C226.514,113.257,226.514,93.27,226.514,73.284z"/><path fill="#4B5055" d="M66.622,133.243c0-36.794,29.828-66.622,66.622-66.622s66.622,29.828,66.622,66.622 C155.451,133.243,111.036,133.243,66.622,133.243z"/><path fill="#606667" d="M79.946,133.243c35.532,0,71.063,0,106.595,0c0-29.435-23.862-53.297-53.297-53.297 S79.946,103.808,79.946,133.243z"/><path fill="none" stroke="#FFF" stroke-linecap="round" stroke-linejoin="round" stroke-width="4" d="M122.898,94.632 c-13.794,3.696-24.569,14.471-28.265,28.265"/><path fill="#FFCF56" d="M66.622,133.243c0,36.794,29.828,66.622,66.622,66.622s66.622-29.828,66.622-66.622 C155.451,133.243,111.036,133.243,66.622,133.243z"/><path fill="#606667" d="M199.865,53.297c-8.883,0-17.766,0-26.649,0c0-7.359,5.966-13.324,13.324-13.324 S199.865,45.939,199.865,53.297z"/><line x1="214.018" x2="237.097" y1="179.879" y2="193.203" fill="#724B9E" stroke="#FFCF57" stroke-linecap="round" stroke-linejoin="round" stroke-width="4"/><line x1="179.879" x2="193.203" y1="214.018" y2="237.097" fill="#724B9E" stroke="#FFCF57" stroke-linecap="round" stroke-linejoin="round" stroke-width="4"/><line x1="52.469" x2="29.39" y1="179.879" y2="193.203" fill="#724B9E" stroke="#FFCF57" stroke-linecap="round" stroke-linejoin="round" stroke-width="4"/><line x1="86.608" x2="73.284" y1="214.018" y2="237.097" fill="#724B9E" stroke="#FFCF57" stroke-linecap="round" stroke-linejoin="round" stroke-width="4"/><line x1="133.243" x2="133.243" y1="226.514" y2="253.163" fill="#724B9E" stroke="#FFCF57" stroke-linecap="round" stroke-linejoin="round" stroke-width="4"/></g></svg>