<svg xmlns="http://www.w3.org/2000/svg" id="Layer_1" data-name="Layer 1" viewBox="0 0 1469.89 998.32"><defs><style>.cls-1{fill:#f5f7f9}.cls-2{fill:#313131}.cls-3{fill:#ed214f}.cls-4{fill:#2ac3ea}.cls-5{fill:#ec2450}.cls-6{fill:#fff}.cls-7{fill:#ec234f}.cls-8{fill:#ec2550}.cls-9{fill:#eb2750}.cls-10{fill:#ea2951}.cls-11{fill:#ea2a51}.cls-12{fill:#e92c52}.cls-13{fill:#e92e52}.cls-14{fill:#e82f53}.cls-15{fill:#e83153}.cls-16{fill:#e73254}.cls-17{fill:#e73454}.cls-18{fill:#e63555}.cls-19{fill:#e63655}.cls-20{fill:#e63856}.cls-21{fill:#e53956}.cls-22{fill:#e53a57}.cls-23{fill:#e43c57}.cls-24{fill:#e43d57}.cls-25{fill:#e43e58}.cls-26{fill:#e33f58}.cls-27{fill:#e34059}.cls-28{fill:#e24159}.cls-29{fill:#e2425a}.cls-30{fill:#e1435a}.cls-31{fill:#e1445b}.cls-32{fill:#e1455b}.cls-33{fill:#e0465c}.cls-34{fill:#e0475c}.cls-35{fill:#df495d}.cls-36{fill:#df4a5d}.cls-37{fill:#df4b5e}.cls-38{fill:#de4c5e}.cls-39{fill:#de4d5f}.cls-40{fill:#dd4d5f}.cls-41{fill:#dd4e60}.cls-42{fill:#dd4f60}.cls-43{fill:#dc5061}.cls-44{fill:#dc5161}.cls-45{fill:#db5262}.cls-46{fill:#db5362}.cls-47{fill:#da5463}.cls-48{fill:#da5563}.cls-49{fill:#d95664}.cls-50{fill:#d95764}.cls-51{fill:#d95765}.cls-52{fill:#d85865}.cls-53{fill:#d85966}.cls-54{fill:#d75a66}.cls-55{fill:#d75b67}.cls-56{fill:#d65b67}.cls-57{fill:#d65c68}.cls-58{fill:#d65d68}.cls-59{fill:#d55e69}.cls-60{fill:#d55f69}.cls-61{fill:#d45f6a}.cls-62{fill:#d4606a}.cls-63{fill:#d3616b}.cls-64{fill:#d3626b}.cls-65{fill:#d2626c}.cls-66{fill:#d2636d}.cls-67{fill:#d1646d}.cls-68{fill:#d1656e}.cls-69{fill:#d0666f}.cls-70{fill:#d0676f}.cls-71{fill:#cf6770}.cls-72{fill:#cf6870}.cls-73{fill:#ce6971}.cls-74{fill:#ce6a72}.cls-75{fill:#cd6b73}.cls-76{fill:#cc6c74}.cls-77{fill:#cc6d74}.cls-78{fill:#cb6d75}.cls-79{fill:#cb6e75}.cls-80{fill:#ca6f76}.cls-81{fill:#c97077}.cls-82{fill:#c97178}.cls-83{fill:#c87178}.cls-84{fill:#c87279}.cls-85{fill:#c77279}.cls-86{fill:#c7737a}.cls-87{fill:#c6747a}.cls-88{fill:#c6747b}.cls-89{fill:#c5757b}.cls-90{fill:#c5757c}.cls-91{fill:#c4767d}.cls-92{fill:#c3777e}.cls-93{fill:#c3787e}.cls-94{fill:#c2787f}.cls-95{fill:#c2797f}.cls-96{fill:#c27980}.cls-97{fill:#c17a81}.cls-98{fill:#c07b82}.cls-99{fill:#bf7c83}.cls-100{fill:#bf7d83}.cls-101{fill:#be7d84}.cls-102{fill:#bd7e85}.cls-103{fill:#bc7f86}.cls-104{fill:#bb8087}.cls-105{fill:#bb8088}.cls-106{fill:#ba8188}.cls-107{fill:#ba8189}.cls-108{fill:#b98289}.cls-109{fill:#b9828a}.cls-110{fill:#b8838b}.cls-111{fill:#b7848c}.cls-112{fill:#b6858d}.cls-113{fill:#b6858e}.cls-114{fill:#b5868e}.cls-115{fill:#b4868f}.cls-116{fill:#b4878f}.cls-117{fill:#b38790}.cls-118{fill:#b38891}.cls-119{fill:#b28891}.cls-120{fill:#b28992}.cls-121{fill:#b18992}.cls-122{fill:#b08a93}.cls-123{fill:#b08a94}.cls-124{fill:#af8b94}.cls-125{fill:#af8c95}.cls-126{fill:#ae8c96}.cls-127{fill:#ae8d96}.cls-128{fill:#ad8d97}.cls-129{fill:#ac8e97}.cls-130{fill:#ac8e98}.cls-131{fill:#ab8f99}.cls-132{fill:#aa909a}.cls-133{fill:#a9909b}.cls-134{fill:#a9919b}.cls-135{fill:#a8919c}.cls-136{fill:#a8929c}.cls-137{fill:#a7929d}.cls-138{fill:#a6939e}.cls-139{fill:#a5949f}.cls-140{fill:#a494a0}.cls-141{fill:#a495a0}.cls-142{fill:#a395a1}.cls-143{fill:#a396a2}.cls-144{fill:#a296a2}.cls-145{fill:#a196a3}.cls-146{fill:#a197a4}.cls-147{fill:#a097a4}.cls-148{fill:#9f98a5}.cls-149{fill:#9f98a6}.cls-150{fill:#9e99a6}.cls-151{fill:#9d99a7}.cls-152{fill:#9d9aa7}.cls-153{fill:#9c9aa8}.cls-154{fill:#9b9ba9}.cls-155{fill:#9a9caa}.cls-156{fill:#999cab}.cls-157{fill:#989dab}.cls-158{fill:#989dac}.cls-159{fill:#979ead}.cls-160{fill:#969ead}.cls-161{fill:#969fae}.cls-162{fill:#959faf}.cls-163{fill:#94a0af}.cls-164{fill:#94a0b0}.cls-165{fill:#93a1b1}.cls-166{fill:#92a1b1}.cls-167{fill:#91a2b2}.cls-168{fill:#91a2b3}.cls-169{fill:#90a3b3}.cls-170{fill:#8fa3b4}.cls-171{fill:#8ea3b5}.cls-172{fill:#8da4b6}.cls-173{fill:#8ca5b7}.cls-174{fill:#8ba5b8}.cls-175{fill:#8aa6b8}.cls-176{fill:#89a6b9}.cls-177{fill:#89a7ba}.cls-178{fill:#88a7ba}.cls-179{fill:#87a8bb}.cls-180{fill:#86a8bc}.cls-181{fill:#85a8bc}.cls-182{fill:#84a9bd}.cls-183{fill:#83a9be}.cls-184{fill:#83aabe}.cls-185{fill:#82aabf}.cls-186{fill:#81abc0}.cls-187{fill:#80abc0}.cls-188{fill:#7facc1}.cls-189{fill:#7eacc2}.cls-190{fill:#7dacc3}.cls-191{fill:#7cadc3}.cls-192{fill:#7badc4}.cls-193{fill:#7baec5}.cls-194{fill:#7aaec5}.cls-195{fill:#79afc6}.cls-196{fill:#78afc7}.cls-197{fill:#77afc7}.cls-198{fill:#76b0c8}.cls-199{fill:#75b0c9}.cls-200{fill:#74b1ca}.cls-201{fill:#73b1ca}.cls-202{fill:#71b1cb}.cls-203{fill:#70b2cc}.cls-204{fill:#6fb2cc}.cls-205{fill:#6eb3cd}.cls-206{fill:#6db3ce}.cls-207{fill:#6cb4cf}.cls-208{fill:#6bb4cf}.cls-209{fill:#6ab4d0}.cls-210{fill:#68b5d1}.cls-211{fill:#67b5d1}.cls-212{fill:#66b6d2}.cls-213{fill:#65b6d3}.cls-214{fill:#63b6d4}.cls-215{fill:#62b7d4}.cls-216{fill:#61b7d5}.cls-217{fill:#5fb8d6}.cls-218{fill:#5eb8d7}.cls-219{fill:#5db8d7}.cls-220{fill:#5bb9d8}.cls-221{fill:#5ab9d9}.cls-222{fill:#58bada}.cls-223{fill:#57bada}.cls-224{fill:#55badb}.cls-225{fill:#54bbdc}.cls-226{fill:#52bbdd}.cls-227{fill:#50bcdd}.cls-228{fill:#4fbcde}.cls-229{fill:#4dbcdf}.cls-230{fill:#4bbde0}.cls-231{fill:#49bde0}.cls-232{fill:#47bee1}.cls-233{fill:#45bee2}.cls-234{fill:#43bee3}.cls-235{fill:#41bfe3}.cls-236{fill:#3ebfe4}.cls-237{fill:#3cc0e5}.cls-238{fill:#39c0e6}.cls-239{fill:#36c1e7}.cls-240{fill:#32c1e8}.cls-241{fill:#2fc2e9}</style></defs><rect width="1469.89" height="998.32" class="cls-1"/><polygon points="680.01 696.76 349.94 696.76 349.94 188.43 350.94 188.43 350.94 695.76 680.01 695.76 680.01 696.76" class="cls-2"/><circle cx="447.83" cy="302.34" r="33.91" class="cls-3"/><circle cx="531.49" cy="410.61" r="16.09" class="cls-3"/><circle cx="602.18" cy="308" r="12.61" class="cls-3"/><circle cx="415.66" cy="222.34" r="46.09" class="cls-3"/><circle cx="577.83" cy="479.3" r="36.96" class="cls-3"/><circle cx="410.22" cy="460.82" r="18.48" class="cls-3"/><circle cx="421.75" cy="565.82" r="12.17" class="cls-3"/><circle cx="500.44" cy="556.26" r="14.78" class="cls-3"/><circle cx="635.22" cy="619.3" r="16.96" class="cls-3"/><circle cx="577.4" cy="568.43" r="12.17" class="cls-3"/><circle cx="454.79" cy="419.74" r="13.91" class="cls-3"/><circle cx="504.79" cy="655.39" r="36.09" class="cls-3"/><circle cx="398.49" cy="630.39" r="11.09" class="cls-3"/><circle cx="583.49" cy="647.56" r="6.09" class="cls-3"/><circle cx="662.62" cy="394.52" r="11.3" class="cls-3"/><circle cx="665.66" cy="513.21" r="8.26" class="cls-3"/><circle cx="379.25" cy="389.41" r="19.24" class="cls-3"/><circle cx="579.14" cy="236.26" r="13.91" class="cls-4"/><circle cx="519.31" cy="336.26" r="12.17" class="cls-4"/><circle cx="590.66" cy="400.93" r="11.52" class="cls-4"/><circle cx="469.14" cy="509.74" r="21.3" class="cls-4"/><circle cx="658.7" cy="581.91" r="10.87" class="cls-4"/><circle cx="573.05" cy="618.87" r="16.52" class="cls-4"/><circle cx="640.44" cy="548.87" r="7.39" class="cls-4"/><circle cx="665.66" cy="473.21" r="8.26" class="cls-4"/><circle cx="426.09" cy="630.17" r="11.3" class="cls-4"/><circle cx="369.57" cy="751.04" r="11.3" class="cls-4"/><circle cx="369.57" cy="784.08" r="11.3" class="cls-5"/><path d="M402.61,748.48c0,2.78-1.69,4.25-3.75,4.25s-3.64-1.65-3.64-4.1,1.6-4.24,3.75-4.24S402.61,746.08,402.61,748.48Zm-6.27.13c0,1.73.93,3.27,2.58,3.27s2.59-1.52,2.59-3.36c0-1.6-.84-3.28-2.58-3.28S396.34,746.83,396.34,748.61Z" class="cls-2"/><path d="M404.52,746.8l.77,3c.17.65.32,1.25.43,1.85h0c.13-.59.32-1.22.51-1.84l1-3h.89l.9,2.9c.21.7.38,1.31.51,1.9h0a16.78,16.78,0,0,1,.44-1.89l.83-2.91h1L410,752.6h-1l-.89-2.77a19.64,19.64,0,0,1-.51-1.9h0a19.58,19.58,0,0,1-.53,1.91l-.94,2.76h-1l-1.75-5.8Z" class="cls-2"/><path d="M412.93,748.37c0-.6,0-1.09-.05-1.57h.94l.06,1h0a2.14,2.14,0,0,1,1.92-1.09c.81,0,2.05.48,2.05,2.47v3.46h-1.05v-3.34c0-.94-.35-1.72-1.34-1.72a1.5,1.5,0,0,0-1.42,1.08,1.45,1.45,0,0,0-.07.49v3.49h-1.06Z" class="cls-2"/><path d="M420.18,749.89a1.87,1.87,0,0,0,2,2,3.8,3.8,0,0,0,1.61-.3l.18.75a4.67,4.67,0,0,1-1.93.36,2.69,2.69,0,0,1-2.86-2.92c0-1.75,1-3.13,2.73-3.13a2.45,2.45,0,0,1,2.39,2.73,4.68,4.68,0,0,1,0,.49Zm3.1-.75a1.51,1.51,0,0,0-1.47-1.72,1.76,1.76,0,0,0-1.62,1.72Z" class="cls-2"/><path d="M425.6,748.61c0-.68,0-1.27,0-1.81h.92l0,1.14h0a1.75,1.75,0,0,1,1.61-1.27,1.32,1.32,0,0,1,.3,0v1a1.32,1.32,0,0,0-.36,0A1.48,1.48,0,0,0,426.7,749a2.38,2.38,0,0,0-.05.49v3.09h-1Z" class="cls-2"/><path d="M432,751.33a3.72,3.72,0,0,0,1.88.53c1.06,0,1.69-.56,1.69-1.38s-.44-1.19-1.53-1.61c-1.32-.46-2.13-1.15-2.13-2.29a2.32,2.32,0,0,1,2.61-2.19,3.73,3.73,0,0,1,1.79.39l-.29.86a3.11,3.11,0,0,0-1.53-.39c-1.11,0-1.53.66-1.53,1.21,0,.76.5,1.13,1.61,1.56,1.37.53,2.06,1.19,2.06,2.38s-.92,2.32-2.83,2.32a4.25,4.25,0,0,1-2.06-.51Z" class="cls-2"/><path d="M441.24,752.6l-.09-.73h0a2.16,2.16,0,0,1-1.78.86,1.65,1.65,0,0,1-1.77-1.66c0-1.41,1.25-2.17,3.49-2.16v-.12a1.19,1.19,0,0,0-1.32-1.34,2.84,2.84,0,0,0-1.51.43l-.24-.7a3.61,3.61,0,0,1,1.91-.51c1.77,0,2.2,1.21,2.2,2.37v2.17a8.24,8.24,0,0,0,.1,1.39Zm-.16-3c-1.15,0-2.46.18-2.46,1.31a.94.94,0,0,0,1,1,1.43,1.43,0,0,0,1.4-1,.92.92,0,0,0,.06-.33Z" class="cls-2"/><path d="M445,745.13v1.67h1.51v.8H445v3.13c0,.72.21,1.13.79,1.13a2.78,2.78,0,0,0,.62-.07l0,.79a2.63,2.63,0,0,1-.93.14,1.45,1.45,0,0,1-1.14-.44,2.15,2.15,0,0,1-.41-1.51V747.6h-.9v-.8h.9v-1.39Z" class="cls-2"/><path d="M448.91,745.17a.66.66,0,0,1-1.31,0,.65.65,0,0,1,.66-.66A.63.63,0,0,1,448.91,745.17Zm-1.18,7.43v-5.8h1.06v5.8Z" class="cls-2"/><path d="M450.4,751.52a2.69,2.69,0,0,0,1.39.42c.77,0,1.13-.38,1.13-.86s-.3-.78-1.08-1.07c-1-.37-1.54-1-1.54-1.64a1.79,1.79,0,0,1,2-1.7,2.81,2.81,0,0,1,1.43.36l-.26.76a2.32,2.32,0,0,0-1.19-.33c-.62,0-1,.36-1,.79s.35.69,1.1,1c1,.39,1.52.89,1.52,1.75,0,1-.79,1.74-2.17,1.74a3.33,3.33,0,0,1-1.63-.39Z" class="cls-2"/><path d="M455.4,752.6v-5h-.82v-.8h.82v-.28a2.72,2.72,0,0,1,.67-2,2,2,0,0,1,1.42-.54,2.59,2.59,0,0,1,.9.16l-.15.82a1.58,1.58,0,0,0-.67-.13c-.9,0-1.13.79-1.13,1.68v.31h1.41v.8h-1.41v5Z" class="cls-2"/><path d="M462,752.6l-.08-.73h0a2.14,2.14,0,0,1-1.77.86,1.65,1.65,0,0,1-1.78-1.66c0-1.41,1.25-2.17,3.49-2.16v-.12a1.19,1.19,0,0,0-1.32-1.34,2.84,2.84,0,0,0-1.51.43l-.24-.7a3.63,3.63,0,0,1,1.91-.51c1.77,0,2.2,1.21,2.2,2.37v2.17a8.24,8.24,0,0,0,.1,1.39Zm-.16-3c-1.15,0-2.45.18-2.45,1.31a.93.93,0,0,0,1,1,1.42,1.42,0,0,0,1.4-1,.92.92,0,0,0,.06-.33Z" class="cls-2"/><path d="M468.72,752.39a4,4,0,0,1-1.67.33,2.75,2.75,0,0,1-2.89-3,2.94,2.94,0,0,1,3.12-3.08,3.44,3.44,0,0,1,1.46.3l-.24.81a2.5,2.5,0,0,0-1.22-.27,2,2,0,0,0-2,2.19,2,2,0,0,0,2,2.17,3.07,3.07,0,0,0,1.3-.28Z" class="cls-2"/><path d="M471.38,745.13v1.67h1.51v.8h-1.51v3.13c0,.72.21,1.13.79,1.13a2.78,2.78,0,0,0,.62-.07l0,.79a2.63,2.63,0,0,1-.93.14,1.45,1.45,0,0,1-1.14-.44,2.15,2.15,0,0,1-.41-1.51V747.6h-.9v-.8h.9v-1.39Z" class="cls-2"/><path d="M475.26,745.17a.66.66,0,0,1-1.31,0,.65.65,0,0,1,.66-.66A.63.63,0,0,1,475.26,745.17Zm-1.18,7.43v-5.8h1.06v5.8Z" class="cls-2"/><path d="M482.14,749.65a2.83,2.83,0,0,1-2.89,3.08,2.76,2.76,0,0,1-2.78-3,2.83,2.83,0,0,1,2.88-3.08A2.74,2.74,0,0,1,482.14,749.65Zm-4.6.06c0,1.27.73,2.23,1.76,2.23s1.77-.94,1.77-2.25c0-1-.5-2.23-1.74-2.23S477.54,748.61,477.54,749.71Z" class="cls-2"/><path d="M483.48,748.37c0-.6,0-1.09-.05-1.57h.94l.06,1h0a2.14,2.14,0,0,1,1.92-1.09c.8,0,2.05.48,2.05,2.47v3.46h-1.05v-3.34c0-.94-.35-1.72-1.35-1.72a1.5,1.5,0,0,0-1.41,1.08,1.45,1.45,0,0,0-.07.49v3.49h-1.06Z" class="cls-2"/><path d="M395.7,777.67a10.66,10.66,0,0,1,2-.17,3.32,3.32,0,0,1,2.34.66,2,2,0,0,1,.64,1.54,2.12,2.12,0,0,1-1.52,2.06v0a2,2,0,0,1,1.18,1.63,13,13,0,0,0,.63,2.22h-1.08a9.46,9.46,0,0,1-.54-1.93c-.24-1.12-.68-1.54-1.62-1.58h-1v3.51h-1Zm1,3.68h1.07c1.12,0,1.82-.61,1.82-1.53s-.75-1.5-1.85-1.51a4.34,4.34,0,0,0-1,.09Z" class="cls-2"/><path d="M402.76,782.94a1.85,1.85,0,0,0,2,2,3.75,3.75,0,0,0,1.6-.3l.18.76a4.8,4.8,0,0,1-1.93.36,2.7,2.7,0,0,1-2.85-2.93c0-1.75,1-3.13,2.72-3.13a2.46,2.46,0,0,1,2.4,2.73,2.85,2.85,0,0,1,0,.5Zm3.09-.76a1.5,1.5,0,0,0-1.46-1.71,1.74,1.74,0,0,0-1.62,1.71Z" class="cls-2"/><path d="M408.18,777.13h1.06v8.52h-1.06Z" class="cls-2"/><path d="M412.19,778.21a.66.66,0,0,1-1.31,0,.65.65,0,0,1,.66-.66A.63.63,0,0,1,412.19,778.21ZM411,785.65v-5.81h1.06v5.81Z" class="cls-2"/><path d="M417,785.65l-.09-.73h0a2.19,2.19,0,0,1-1.78.86,1.65,1.65,0,0,1-1.77-1.67c0-1.4,1.24-2.17,3.48-2.16v-.12a1.19,1.19,0,0,0-1.31-1.34,3,3,0,0,0-1.52.43l-.24-.69a3.55,3.55,0,0,1,1.91-.52c1.78,0,2.21,1.21,2.21,2.37v2.18a8.47,8.47,0,0,0,.09,1.39Zm-.16-3c-1.15,0-2.46.18-2.46,1.31a.94.94,0,0,0,1,1,1.45,1.45,0,0,0,1.4-1,1.35,1.35,0,0,0,.06-.34Z" class="cls-2"/><path d="M419.56,785.65c0-.4,0-1,0-1.5v-7h1v3.65h0a2.17,2.17,0,0,1,2-1.07c1.44,0,2.46,1.2,2.45,3,0,2.08-1.31,3.11-2.6,3.11a2.09,2.09,0,0,1-1.95-1.09h0l0,1Zm1.09-2.33a1.58,1.58,0,0,0,.05.38,1.61,1.61,0,0,0,1.58,1.24c1.1,0,1.76-.9,1.76-2.23,0-1.16-.6-2.16-1.72-2.16a1.68,1.68,0,0,0-1.61,1.3,1.71,1.71,0,0,0-.06.43Z" class="cls-2"/><path d="M427.61,778.21a.66.66,0,0,1-1.31,0,.65.65,0,0,1,.66-.66A.63.63,0,0,1,427.61,778.21Zm-1.18,7.44v-5.81h1.06v5.81Z" class="cls-2"/><path d="M429.24,777.13h1.06v8.52h-1.06Z" class="cls-2"/><path d="M433.25,778.21a.66.66,0,0,1-1.31,0,.65.65,0,0,1,.66-.66A.63.63,0,0,1,433.25,778.21Zm-1.18,7.44v-5.81h1.06v5.81Z" class="cls-2"/><path d="M436.15,778.18v1.66h1.51v.81h-1.51v3.13c0,.72.21,1.12.79,1.12a2.29,2.29,0,0,0,.62-.07l0,.79a2.39,2.39,0,0,1-.93.15,1.46,1.46,0,0,1-1.14-.45,2.13,2.13,0,0,1-.41-1.51v-3.16h-.9v-.81h.9v-1.39Z" class="cls-2"/><path d="M439.34,779.84l1.28,3.43c.13.39.27.84.37,1.19h0c.11-.35.23-.79.37-1.21l1.16-3.41h1.11L442.07,784c-.76,2-1.27,3-2,3.63a2.92,2.92,0,0,1-1.3.69l-.26-.89a2.65,2.65,0,0,0,.92-.52,3.09,3.09,0,0,0,.89-1.17.69.69,0,0,0,.08-.25.85.85,0,0,0-.07-.28l-2.15-5.35Z" class="cls-2"/><path d="M400.05,211.34h-3.92V215h4.37v1.09h-5.68V206h5.46v1.1h-4.15v3.19h3.92Z" class="cls-6"/><path d="M402.15,210.79c0-.75,0-1.37-.06-2h1.17l.08,1.2h0a2.67,2.67,0,0,1,2.4-1.36c1,0,2.56.6,2.56,3.09v4.33H407V211.9c0-1.17-.43-2.15-1.68-2.15a1.89,1.89,0,0,0-1.77,1.35,1.93,1.93,0,0,0-.09.62v4.36h-1.32Z" class="cls-6"/><path d="M416.73,208.82c0,.53-.06,1.11-.06,2V215c0,1.67-.33,2.69-1,3.32a3.86,3.86,0,0,1-2.64.87,4.72,4.72,0,0,1-2.42-.6l.33-1a4.09,4.09,0,0,0,2.13.57c1.35,0,2.34-.7,2.34-2.53v-.81h0a2.59,2.59,0,0,1-2.31,1.21,3.25,3.25,0,0,1-3.09-3.54c0-2.46,1.61-3.85,3.27-3.85a2.43,2.43,0,0,1,2.27,1.26h0l.06-1.1Zm-1.36,2.87a1.86,1.86,0,0,0-.08-.6,1.89,1.89,0,0,0-1.84-1.4c-1.26,0-2.16,1.07-2.16,2.75,0,1.42.72,2.61,2.14,2.61a1.93,1.93,0,0,0,1.83-1.35,2.19,2.19,0,0,0,.11-.71Z" class="cls-6"/><path d="M420.24,206.78a.77.77,0,0,1-.84.81.78.78,0,0,1-.79-.81.8.8,0,0,1,.82-.82A.78.78,0,0,1,420.24,206.78Zm-1.47,9.3v-7.26h1.32v7.26Z" class="cls-6"/><path d="M422.28,210.79c0-.75,0-1.37-.06-2h1.17l.08,1.2h0a2.67,2.67,0,0,1,2.4-1.36c1,0,2.56.6,2.56,3.09v4.33h-1.32V211.9c0-1.17-.43-2.15-1.68-2.15a1.89,1.89,0,0,0-1.77,1.35,1.93,1.93,0,0,0-.09.62v4.36h-1.32Z" class="cls-6"/><path d="M431.34,212.69a2.32,2.32,0,0,0,2.49,2.52,4.75,4.75,0,0,0,2-.37l.23.94a5.91,5.91,0,0,1-2.42.45,3.37,3.37,0,0,1-3.57-3.66c0-2.19,1.29-3.91,3.41-3.91,2.37,0,3,2.08,3,3.42a3.87,3.87,0,0,1-.05.61Zm3.87-.94a1.88,1.88,0,0,0-1.83-2.15,2.18,2.18,0,0,0-2,2.15Z" class="cls-6"/><path d="M406.93,229.64c-.07-1.41-.16-3.1-.15-4.36h0c-.35,1.18-.77,2.44-1.28,3.84l-1.78,4.9h-1l-1.64-4.81c-.48-1.43-.88-2.73-1.17-3.93h0c0,1.26-.1,2.95-.19,4.47l-.27,4.33h-1.25l.71-10.11h1.66l1.73,4.89c.42,1.25.76,2.36,1,3.41h0c.26-1,.62-2.13,1.07-3.41l1.8-4.89h1.66l.63,10.11h-1.27Z" class="cls-6"/><path d="M414.54,234.08l-.11-.91h0a2.72,2.72,0,0,1-2.22,1.08,2.07,2.07,0,0,1-2.22-2.09c0-1.75,1.56-2.71,4.36-2.7v-.15a1.49,1.49,0,0,0-1.65-1.68,3.63,3.63,0,0,0-1.89.54l-.3-.87a4.51,4.51,0,0,1,2.39-.64c2.22,0,2.76,1.51,2.76,3v2.71a10.18,10.18,0,0,0,.12,1.74Zm-.2-3.7c-1.44,0-3.07.22-3.07,1.63a1.16,1.16,0,0,0,1.24,1.26,1.81,1.81,0,0,0,1.76-1.21,1.6,1.6,0,0,0,.07-.42Z" class="cls-6"/><path d="M416,236.18a2.14,2.14,0,0,0,1.44-.55c.36-.42.49-1,.49-2.73v-6.08h1.32v6.59a4,4,0,0,1-.87,3,3.31,3.31,0,0,1-2.25.83Zm3.4-11.4a.77.77,0,0,1-.82.81.78.78,0,0,1-.81-.81.8.8,0,0,1,.84-.82A.77.77,0,0,1,419.38,224.78Z" class="cls-6"/><path d="M428,230.39a3.55,3.55,0,0,1-3.61,3.86,3.45,3.45,0,0,1-3.48-3.74,3.54,3.54,0,0,1,3.6-3.85A3.43,3.43,0,0,1,428,230.39Zm-5.76.08c0,1.59.92,2.79,2.21,2.79s2.2-1.19,2.2-2.82c0-1.23-.61-2.79-2.17-2.79S422.2,229.09,422.2,230.47Z" class="cls-6"/><path d="M429.63,229.09c0-.86,0-1.59-.06-2.27h1.15l0,1.43h.06a2.17,2.17,0,0,1,2-1.59,1.4,1.4,0,0,1,.37,0V228a1.93,1.93,0,0,0-.45,0,1.86,1.86,0,0,0-1.77,1.7,3.71,3.71,0,0,0-.06.61v3.87h-1.3Z" class="cls-6"/><polygon points="1119.95 696.76 789.88 696.76 789.88 188.43 790.88 188.43 790.88 695.76 1119.95 695.76 1119.95 696.76" class="cls-2"/><circle cx="887.78" cy="302.34" r="33.91" class="cls-3"/><circle cx="971.43" cy="410.61" r="16.09" class="cls-3"/><circle cx="1042.12" cy="308" r="12.61" class="cls-3"/><circle cx="855.6" cy="222.34" r="101.74" class="cls-3"/><circle cx="1017.78" cy="479.3" r="36.96" class="cls-3"/><circle cx="850.17" cy="460.82" r="18.48" class="cls-3"/><circle cx="861.69" cy="565.82" r="12.17" class="cls-3"/><circle cx="940.39" cy="556.26" r="14.78" class="cls-3"/><circle cx="1075.17" cy="619.3" r="16.96" class="cls-3"/><circle cx="1017.34" cy="568.43" r="12.17" class="cls-3"/><circle cx="894.73" cy="419.74" r="13.91" class="cls-3"/><circle cx="944.73" cy="655.39" r="36.09" class="cls-3"/><circle cx="838.43" cy="630.39" r="11.09" class="cls-3"/><circle cx="1023.43" cy="647.56" r="6.09" class="cls-3"/><circle cx="1102.56" cy="394.52" r="11.3" class="cls-3"/><circle cx="1105.6" cy="513.21" r="8.26" class="cls-3"/><circle cx="819.19" cy="389.41" r="19.24" class="cls-3"/><circle cx="1019.08" cy="236.26" r="13.91" class="cls-4"/><circle cx="959.25" cy="336.26" r="12.17" class="cls-4"/><circle cx="1030.6" cy="400.93" r="11.52" class="cls-4"/><circle cx="909.08" cy="509.74" r="21.3" class="cls-4"/><circle cx="1098.65" cy="581.91" r="10.87" class="cls-4"/><circle cx="1012.99" cy="618.87" r="16.52" class="cls-4"/><circle cx="1080.39" cy="548.87" r="7.39" class="cls-4"/><circle cx="1105.6" cy="473.21" r="8.26" class="cls-4"/><circle cx="866.04" cy="630.17" r="11.3" class="cls-4"/><circle cx="809.52" cy="751.04" r="11.3" class="cls-4"/><circle cx="809.52" cy="784.08" r="11.3" class="cls-5"/><path d="M842.55,748.48c0,2.78-1.69,4.25-3.75,4.25s-3.64-1.65-3.64-4.1,1.6-4.24,3.76-4.24S842.55,746.08,842.55,748.48Zm-6.27.13c0,1.73.93,3.27,2.58,3.27s2.59-1.52,2.59-3.36c0-1.6-.84-3.28-2.58-3.28S836.28,746.83,836.28,748.61Z" class="cls-2"/><path d="M844.46,746.8l.77,3c.17.65.33,1.25.43,1.85h0c.13-.59.32-1.22.51-1.84l.95-3h.89l.9,2.9c.22.7.38,1.31.51,1.9h0a17,17,0,0,1,.45-1.89l.82-2.91h1.05L850,752.6h-1l-.89-2.77a19.67,19.67,0,0,1-.52-1.9h0a19.58,19.58,0,0,1-.53,1.91l-.94,2.76h-1l-1.76-5.8Z" class="cls-2"/><path d="M852.88,748.37c0-.6,0-1.09,0-1.57h.93l.06,1h0a2.14,2.14,0,0,1,1.92-1.09c.8,0,2.05.48,2.05,2.47v3.46h-1.06v-3.34c0-.94-.35-1.72-1.34-1.72a1.5,1.5,0,0,0-1.42,1.08,1.75,1.75,0,0,0-.07.49v3.49h-1Z" class="cls-2"/><path d="M860.12,749.89a1.87,1.87,0,0,0,2,2,3.75,3.75,0,0,0,1.6-.3l.18.75a4.67,4.67,0,0,1-1.93.36,2.69,2.69,0,0,1-2.85-2.92c0-1.75,1-3.13,2.72-3.13a2.46,2.46,0,0,1,2.4,2.73,4.15,4.15,0,0,1,0,.49Zm3.1-.75a1.51,1.51,0,0,0-1.47-1.72,1.75,1.75,0,0,0-1.61,1.72Z" class="cls-2"/><path d="M865.55,748.61c0-.68,0-1.27,0-1.81h.92l0,1.14h0a1.74,1.74,0,0,1,1.6-1.27,1.48,1.48,0,0,1,.31,0v1a1.35,1.35,0,0,0-.37,0,1.48,1.48,0,0,0-1.41,1.36,3.37,3.37,0,0,0,0,.49v3.09h-1Z" class="cls-2"/><path d="M871.91,751.33a3.68,3.68,0,0,0,1.87.53c1.07,0,1.69-.56,1.69-1.38s-.43-1.19-1.52-1.61c-1.32-.46-2.14-1.15-2.14-2.29a2.33,2.33,0,0,1,2.62-2.19,3.72,3.72,0,0,1,1.78.39l-.28.86a3.19,3.19,0,0,0-1.54-.39c-1.1,0-1.52.66-1.52,1.21,0,.76.49,1.13,1.6,1.56,1.37.53,2.07,1.19,2.07,2.38s-.93,2.32-2.83,2.32a4.32,4.32,0,0,1-2.07-.51Z" class="cls-2"/><path d="M881.18,752.6l-.08-.73h0a2.14,2.14,0,0,1-1.77.86,1.65,1.65,0,0,1-1.78-1.66c0-1.41,1.25-2.17,3.49-2.16v-.12a1.19,1.19,0,0,0-1.32-1.34,2.84,2.84,0,0,0-1.51.43l-.24-.7a3.63,3.63,0,0,1,1.91-.51c1.77,0,2.2,1.21,2.2,2.37v2.17a8.24,8.24,0,0,0,.1,1.39Zm-.15-3c-1.16,0-2.46.18-2.46,1.31a.93.93,0,0,0,1,1,1.45,1.45,0,0,0,1.41-1,1.2,1.2,0,0,0,.06-.33Z" class="cls-2"/><path d="M885,745.13v1.67h1.51v.8H885v3.13c0,.72.2,1.13.79,1.13a2.68,2.68,0,0,0,.61-.07l0,.79a2.73,2.73,0,0,1-.94.14,1.45,1.45,0,0,1-1.14-.44,2.15,2.15,0,0,1-.41-1.51V747.6H883v-.8h.9v-1.39Z" class="cls-2"/><path d="M888.85,745.17a.62.62,0,0,1-.67.64.63.63,0,0,1-.64-.64.65.65,0,0,1,.66-.66A.63.63,0,0,1,888.85,745.17Zm-1.17,7.43v-5.8h1.05v5.8Z" class="cls-2"/><path d="M890.34,751.52a2.69,2.69,0,0,0,1.39.42c.77,0,1.13-.38,1.13-.86s-.3-.78-1.08-1.07c-1-.37-1.54-1-1.54-1.64a1.79,1.79,0,0,1,2-1.7,2.79,2.79,0,0,1,1.42.36l-.26.76a2.32,2.32,0,0,0-1.19-.33c-.62,0-1,.36-1,.79s.35.69,1.1,1c1,.39,1.53.89,1.53,1.75,0,1-.79,1.74-2.17,1.74a3.27,3.27,0,0,1-1.63-.39Z" class="cls-2"/><path d="M895.34,752.6v-5h-.81v-.8h.81v-.28a2.69,2.69,0,0,1,.68-2,2,2,0,0,1,1.41-.54,2.55,2.55,0,0,1,.9.16l-.14.82a1.67,1.67,0,0,0-.68-.13c-.89,0-1.12.79-1.12,1.68v.31h1.4v.8h-1.4v5Z" class="cls-2"/><path d="M902,752.6l-.08-.73h0a2.13,2.13,0,0,1-1.77.86,1.65,1.65,0,0,1-1.78-1.66c0-1.41,1.25-2.17,3.49-2.16v-.12a1.19,1.19,0,0,0-1.31-1.34,2.87,2.87,0,0,0-1.52.43l-.24-.7a3.63,3.63,0,0,1,1.91-.51c1.78,0,2.21,1.21,2.21,2.37v2.17a8.32,8.32,0,0,0,.09,1.39Zm-.15-3c-1.15,0-2.46.18-2.46,1.31a.93.93,0,0,0,1,1,1.45,1.45,0,0,0,1.41-1,1.2,1.2,0,0,0,.06-.33Z" class="cls-2"/><path d="M908.66,752.39a4,4,0,0,1-1.67.33,2.75,2.75,0,0,1-2.89-3,3,3,0,0,1,3.12-3.08,3.37,3.37,0,0,1,1.46.3l-.23.81a2.54,2.54,0,0,0-1.23-.27,2,2,0,0,0-2.05,2.19,2,2,0,0,0,2,2.17,3,3,0,0,0,1.29-.28Z" class="cls-2"/><path d="M911.33,745.13v1.67h1.51v.8h-1.51v3.13c0,.72.2,1.13.79,1.13a2.68,2.68,0,0,0,.61-.07l0,.79a2.73,2.73,0,0,1-.94.14,1.45,1.45,0,0,1-1.14-.44,2.15,2.15,0,0,1-.41-1.51V747.6h-.89v-.8h.89v-1.39Z" class="cls-2"/><path d="M915.2,745.17a.62.62,0,0,1-.67.64.63.63,0,0,1-.64-.64.65.65,0,0,1,.66-.66A.63.63,0,0,1,915.2,745.17ZM914,752.6v-5.8h1.05v5.8Z" class="cls-2"/><path d="M922.09,749.65a2.83,2.83,0,0,1-2.89,3.08,2.76,2.76,0,0,1-2.78-3,2.83,2.83,0,0,1,2.87-3.08A2.75,2.75,0,0,1,922.09,749.65Zm-4.61.06c0,1.27.73,2.23,1.77,2.23S921,751,921,749.69c0-1-.49-2.23-1.74-2.23S917.48,748.61,917.48,749.71Z" class="cls-2"/><path d="M923.42,748.37c0-.6,0-1.09,0-1.57h.94l.06,1h0a2.14,2.14,0,0,1,1.92-1.09c.81,0,2.05.48,2.05,2.47v3.46h-1.05v-3.34c0-.94-.35-1.72-1.35-1.72a1.5,1.5,0,0,0-1.41,1.08,1.45,1.45,0,0,0-.07.49v3.49h-1.06Z" class="cls-2"/><path d="M835.64,777.67a10.77,10.77,0,0,1,2-.17,3.36,3.36,0,0,1,2.34.66,2,2,0,0,1,.63,1.54,2.12,2.12,0,0,1-1.52,2.06v0a2,2,0,0,1,1.19,1.63,12.33,12.33,0,0,0,.62,2.22h-1.08a11.07,11.07,0,0,1-.54-1.93c-.24-1.12-.67-1.54-1.62-1.58h-1v3.51h-1.05Zm1.05,3.68h1.06c1.12,0,1.83-.61,1.83-1.53s-.76-1.5-1.86-1.51a4.24,4.24,0,0,0-1,.09Z" class="cls-2"/><path d="M842.7,782.94a1.86,1.86,0,0,0,2,2,3.8,3.8,0,0,0,1.61-.3l.18.76a4.84,4.84,0,0,1-1.93.36,2.7,2.7,0,0,1-2.86-2.93c0-1.75,1-3.13,2.73-3.13a2.46,2.46,0,0,1,2.39,2.73,4.92,4.92,0,0,1,0,.5Zm3.09-.76a1.49,1.49,0,0,0-1.46-1.71,1.75,1.75,0,0,0-1.62,1.71Z" class="cls-2"/><path d="M848.12,777.13h1.06v8.52h-1.06Z" class="cls-2"/><path d="M852.13,778.21a.62.62,0,0,1-.67.65.63.63,0,0,1-.64-.65.65.65,0,0,1,.66-.66A.63.63,0,0,1,852.13,778.21ZM851,785.65v-5.81h1v5.81Z" class="cls-2"/><path d="M857,785.65l-.09-.73h0a2.19,2.19,0,0,1-1.78.86,1.65,1.65,0,0,1-1.77-1.67c0-1.4,1.25-2.17,3.49-2.16v-.12a1.19,1.19,0,0,0-1.32-1.34,2.93,2.93,0,0,0-1.51.43l-.24-.69a3.51,3.51,0,0,1,1.9-.52c1.78,0,2.21,1.21,2.21,2.37v2.18a8.4,8.4,0,0,0,.1,1.39Zm-.16-3c-1.15,0-2.46.18-2.46,1.31a.94.94,0,0,0,1,1,1.45,1.45,0,0,0,1.4-1,1,1,0,0,0,.06-.34Z" class="cls-2"/><path d="M859.5,785.65c0-.4,0-1,0-1.5v-7h1v3.65h0a2.15,2.15,0,0,1,2-1.07c1.44,0,2.46,1.2,2.45,3,0,2.08-1.31,3.11-2.6,3.11a2.07,2.07,0,0,1-1.94-1.09h0l-.05,1Zm1.09-2.33a2.32,2.32,0,0,0,0,.38,1.62,1.62,0,0,0,1.58,1.24c1.11,0,1.77-.9,1.77-2.23,0-1.16-.6-2.16-1.73-2.16a1.69,1.69,0,0,0-1.61,1.3,2.34,2.34,0,0,0-.06.43Z" class="cls-2"/><path d="M867.55,778.21a.62.62,0,0,1-.67.65.63.63,0,0,1-.64-.65.65.65,0,0,1,.66-.66A.63.63,0,0,1,867.55,778.21Zm-1.17,7.44v-5.81h1v5.81Z" class="cls-2"/><path d="M869.18,777.13h1.06v8.52h-1.06Z" class="cls-2"/><path d="M873.19,778.21a.62.62,0,0,1-.67.65.63.63,0,0,1-.64-.65.65.65,0,0,1,.66-.66A.63.63,0,0,1,873.19,778.21ZM872,785.65v-5.81h1.05v5.81Z" class="cls-2"/><path d="M876.1,778.18v1.66h1.51v.81H876.1v3.13c0,.72.2,1.12.79,1.12a2.21,2.21,0,0,0,.61-.07l0,.79a2.48,2.48,0,0,1-.94.15,1.46,1.46,0,0,1-1.14-.45,2.13,2.13,0,0,1-.41-1.51v-3.16h-.9v-.81h.9v-1.39Z" class="cls-2"/><path d="M879.29,779.84l1.27,3.43c.13.39.27.84.37,1.19h0c.1-.35.22-.79.37-1.21l1.15-3.41h1.11L882,784c-.76,2-1.27,3-2,3.63a2.87,2.87,0,0,1-1.3.69l-.26-.89a2.65,2.65,0,0,0,.92-.52,3.09,3.09,0,0,0,.89-1.17.76.76,0,0,0,.09-.25.94.94,0,0,0-.08-.28l-2.14-5.35Z" class="cls-2"/><path d="M819.83,146.43v1.2h-6V151h5.57v1.2h-5.57v3.7h6v1.2h-7.44V146.43Z" class="cls-6"/><path d="M822.59,149.39v1.23h0a2.68,2.68,0,0,1,2.52-1.41,3.39,3.39,0,0,1,1.28.21,2.07,2.07,0,0,1,.82.58,2.13,2.13,0,0,1,.44.89,4.6,4.6,0,0,1,.13,1.15v5.1h-1.27v-5.25a1.54,1.54,0,0,0-.42-1.14,1.57,1.57,0,0,0-1.16-.42,2.57,2.57,0,0,0-1,.18,1.85,1.85,0,0,0-.71.51,2.16,2.16,0,0,0-.43.77,3,3,0,0,0-.14,1v4.38h-1.28v-7.75Z" class="cls-6"/><path d="M835.55,159.33a3.55,3.55,0,0,1-2.73.95,5.22,5.22,0,0,1-1.1-.12,3.28,3.28,0,0,1-1-.39,2.35,2.35,0,0,1-.76-.71,2,2,0,0,1-.33-1.06h1.28a1,1,0,0,0,.21.58,1.61,1.61,0,0,0,.5.39,2.54,2.54,0,0,0,.64.22,3.9,3.9,0,0,0,.66.07A2.41,2.41,0,0,0,834,159a2.11,2.11,0,0,0,.72-.6,2.42,2.42,0,0,0,.41-.92,4.93,4.93,0,0,0,.13-1.19v-.51h0a2.15,2.15,0,0,1-1,1.06,3.12,3.12,0,0,1-1.41.34,3.44,3.44,0,0,1-1.52-.32,3.12,3.12,0,0,1-1.08-.85,3.5,3.5,0,0,1-.65-1.24,5,5,0,0,1-.22-1.51,5.94,5.94,0,0,1,.18-1.42,4,4,0,0,1,.6-1.32,3.28,3.28,0,0,1,1.11-1,3.42,3.42,0,0,1,1.7-.38,2.8,2.8,0,0,1,1.35.32,2.25,2.25,0,0,1,1,1h0v-1.11h1.2v7.09A4.08,4.08,0,0,1,835.55,159.33Zm-1.63-3.49a2,2,0,0,0,.72-.69,2.94,2.94,0,0,0,.39-1,4.43,4.43,0,0,0,.13-1.08,4.29,4.29,0,0,0-.12-1,2.85,2.85,0,0,0-.38-.89,2,2,0,0,0-.68-.64,2,2,0,0,0-1-.24,2.26,2.26,0,0,0-1.05.23,2.19,2.19,0,0,0-.72.63,2.63,2.63,0,0,0-.4.9,4.11,4.11,0,0,0-.13,1.06,5.35,5.35,0,0,0,.11,1,2.93,2.93,0,0,0,.36,1,1.93,1.93,0,0,0,.67.69,1.91,1.91,0,0,0,1.05.27A2,2,0,0,0,833.92,155.84Z" class="cls-6"/><path d="M838.42,148v-1.56h1.27V148Zm1.27,1.4v7.75h-1.27v-7.75Z" class="cls-6"/><path d="M842.87,149.39v1.23h0a2.68,2.68,0,0,1,2.52-1.41,3.39,3.39,0,0,1,1.28.21,2.07,2.07,0,0,1,.82.58,2.13,2.13,0,0,1,.44.89,4.6,4.6,0,0,1,.13,1.15v5.1h-1.27v-5.25a1.54,1.54,0,0,0-.42-1.14,1.57,1.57,0,0,0-1.16-.42,2.57,2.57,0,0,0-1,.18,1.85,1.85,0,0,0-.71.51,2.16,2.16,0,0,0-.43.77,3,3,0,0,0-.14,1v4.38h-1.28v-7.75Z" class="cls-6"/><path d="M855.5,156.65a3.52,3.52,0,0,1-2.19.66,4,4,0,0,1-1.61-.3,3.15,3.15,0,0,1-1.15-.84,3.65,3.65,0,0,1-.7-1.29,6.47,6.47,0,0,1-.26-1.64,4.67,4.67,0,0,1,.27-1.62,3.77,3.77,0,0,1,.76-1.27,3.42,3.42,0,0,1,1.15-.84,3.58,3.58,0,0,1,1.47-.3,3.19,3.19,0,0,1,1.71.42,3.47,3.47,0,0,1,1.1,1.09,4.52,4.52,0,0,1,.57,1.44,6.49,6.49,0,0,1,.13,1.49h-5.81a3,3,0,0,0,.12,1,2,2,0,0,0,.44.81,2.09,2.09,0,0,0,.76.57,2.67,2.67,0,0,0,1.1.21,2.17,2.17,0,0,0,1.32-.38,1.8,1.8,0,0,0,.69-1.14h1.26A3.12,3.12,0,0,1,855.5,156.65Zm-.31-5a2.13,2.13,0,0,0-.46-.7,2.34,2.34,0,0,0-.69-.47,2.39,2.39,0,0,0-1.77,0,2.09,2.09,0,0,0-.68.48,2.29,2.29,0,0,0-.45.69,2.71,2.71,0,0,0-.2.85h4.46A2.72,2.72,0,0,0,855.19,151.67Z" class="cls-6"/><path d="M864.42,146.43l3.38,9,3.39-9h1.95v10.71h-1.35v-8.91h0l-3.34,8.91H867.2l-3.34-8.91h0v8.91h-1.35V146.43Z" class="cls-6"/><path d="M882.17,157.11a1.79,1.79,0,0,1-.92.2,1.09,1.09,0,0,1-.78-.28,1.2,1.2,0,0,1-.3-.91A3,3,0,0,1,879,157a4.08,4.08,0,0,1-1.5.28,4,4,0,0,1-1-.12,2.3,2.3,0,0,1-.82-.38,1.82,1.82,0,0,1-.55-.67,2.6,2.6,0,0,1,0-2.07,1.88,1.88,0,0,1,.59-.69,2.71,2.71,0,0,1,.84-.39,9.61,9.61,0,0,1,1-.23c.36-.07.69-.12,1-.16a4.42,4.42,0,0,0,.83-.15,1.43,1.43,0,0,0,.58-.28.75.75,0,0,0,.21-.55A1.3,1.3,0,0,0,880,151a1.09,1.09,0,0,0-.41-.39,1.62,1.62,0,0,0-.55-.18,4.3,4.3,0,0,0-.61,0,2.64,2.64,0,0,0-1.35.31,1.29,1.29,0,0,0-.58,1.16h-1.28a2.73,2.73,0,0,1,.3-1.21,2.34,2.34,0,0,1,.72-.81,3.09,3.09,0,0,1,1-.44,5.4,5.4,0,0,1,1.23-.13,7.31,7.31,0,0,1,1,.07,2.67,2.67,0,0,1,.94.31,1.81,1.81,0,0,1,.67.65,2.07,2.07,0,0,1,.25,1.09v4a2.62,2.62,0,0,0,.06.66c0,.14.15.21.35.21a1.55,1.55,0,0,0,.39-.06Zm-2.07-4a1.66,1.66,0,0,1-.63.26c-.26,0-.53.1-.82.13l-.86.12a3.41,3.41,0,0,0-.78.22,1.41,1.41,0,0,0-.56.42,1.18,1.18,0,0,0-.22.76,1,1,0,0,0,.13.53,1,1,0,0,0,.33.35,1.33,1.33,0,0,0,.47.19,2.62,2.62,0,0,0,.57.06,3.14,3.14,0,0,0,1.08-.17,2.31,2.31,0,0,0,.73-.43A1.68,1.68,0,0,0,880,155a1.45,1.45,0,0,0,.14-.58Z" class="cls-6"/><path d="M884.2,159.62a1.87,1.87,0,0,1-1.36.48,3.24,3.24,0,0,1-.64-.06v-1.1l.13,0h.38a.64.64,0,0,0,.57-.23,1.65,1.65,0,0,0,.15-.83v-8.52h1.28v8.73A1.94,1.94,0,0,1,884.2,159.62ZM883.43,148v-1.56h1.28V148Z" class="cls-6"/><path d="M886.5,151.67a3.71,3.71,0,0,1,.72-1.29,3.47,3.47,0,0,1,1.19-.86,4.41,4.41,0,0,1,3.25,0,3.49,3.49,0,0,1,1.17.86,3.71,3.71,0,0,1,.72,1.29,5.2,5.2,0,0,1,.24,1.6,5.09,5.09,0,0,1-.24,1.59,3.58,3.58,0,0,1-.72,1.28,3.36,3.36,0,0,1-1.17.86,4.41,4.41,0,0,1-3.25,0,3.34,3.34,0,0,1-1.19-.86,3.58,3.58,0,0,1-.72-1.28,5.09,5.09,0,0,1-.24-1.59A5.2,5.2,0,0,1,886.5,151.67Zm1.3,2.85a2.73,2.73,0,0,0,.52.92,2.3,2.3,0,0,0,3.42,0,2.73,2.73,0,0,0,.52-.92,4.43,4.43,0,0,0,0-2.5,2.73,2.73,0,0,0-.52-.92,2.24,2.24,0,0,0-.77-.57,2.31,2.31,0,0,0-1.88,0,2.24,2.24,0,0,0-.77.57,2.73,2.73,0,0,0-.52.92,4.21,4.21,0,0,0,0,2.5Z" class="cls-6"/><path d="M896.45,149.39V151h0a3.44,3.44,0,0,1,1.14-1.39,2.87,2.87,0,0,1,1.71-.42v1.35a3.63,3.63,0,0,0-1.31.21,2,2,0,0,0-.87.61,2.57,2.57,0,0,0-.48,1,5.35,5.35,0,0,0-.15,1.33v3.45h-1.27v-7.75Z" class="cls-6"/><path d="M786.49,182.89v.69h-1.37v4.52a1.52,1.52,0,0,0,.11.63c.08.15.26.24.56.25a5.58,5.58,0,0,0,.7,0v.69l-.37,0h-.36a1.6,1.6,0,0,1-1.14-.32,1.62,1.62,0,0,1-.32-1.18v-4.58h-1.17v-.69h1.17v-2h.82v2Z" class="cls-6"/><path d="M788.48,180.31V184h0a2.07,2.07,0,0,1,.83-1,2.44,2.44,0,0,1,1.32-.37,3.37,3.37,0,0,1,1.18.18,1.87,1.87,0,0,1,.75.52,1.83,1.83,0,0,1,.41.81,4.46,4.46,0,0,1,.12,1.08v4.31h-.82v-4.18a4,4,0,0,0-.08-.8,1.61,1.61,0,0,0-.27-.64,1.25,1.25,0,0,0-.53-.43,1.86,1.86,0,0,0-.83-.16,2,2,0,0,0-.87.18,1.65,1.65,0,0,0-.65.48,2.09,2.09,0,0,0-.42.73,2.94,2.94,0,0,0-.16.91v3.91h-.82v-9.28Z" class="cls-6"/><path d="M795.26,187.38a2.54,2.54,0,0,0,.39.85,2.17,2.17,0,0,0,.69.62,1.88,1.88,0,0,0,1,.25,2,2,0,0,0,1.41-.47,2.52,2.52,0,0,0,.7-1.25h.82a3.24,3.24,0,0,1-1,1.77,2.83,2.83,0,0,1-2,.63,3.22,3.22,0,0,1-1.37-.28,2.53,2.53,0,0,1-.94-.77,3.48,3.48,0,0,1-.54-1.13,5,5,0,0,1-.18-1.36,4.74,4.74,0,0,1,.18-1.3,3.74,3.74,0,0,1,.54-1.14,2.71,2.71,0,0,1,.94-.8,2.83,2.83,0,0,1,1.37-.31,2.68,2.68,0,0,1,2.31,1.18,3.38,3.38,0,0,1,.51,1.21,4.9,4.9,0,0,1,.13,1.38h-5.16A3.35,3.35,0,0,0,795.26,187.38Zm4-2.5a2.61,2.61,0,0,0-.42-.77,2.14,2.14,0,0,0-.66-.53,2,2,0,0,0-.89-.2,2,2,0,0,0-.89.2,2.19,2.19,0,0,0-.67.53,2.89,2.89,0,0,0-.43.77,4,4,0,0,0-.22.89h4.35A2.93,2.93,0,0,0,799.31,184.88Z" class="cls-6"/><path d="M805.77,182.89V184h0a2.55,2.55,0,0,1,.85-1,2.4,2.4,0,0,1,1.34-.35,2.27,2.27,0,0,1,1.21.33,1.56,1.56,0,0,1,.72,1,2,2,0,0,1,.88-1,2.51,2.51,0,0,1,1.25-.33c1.48,0,2.22.79,2.22,2.35v4.55h-.82v-4.51a1.93,1.93,0,0,0-.35-1.26,1.49,1.49,0,0,0-1.23-.44,1.83,1.83,0,0,0-.89.2,1.7,1.7,0,0,0-.56.54,2.62,2.62,0,0,0-.29.77,4.53,4.53,0,0,0-.08.91v3.79h-.82V185a3.3,3.3,0,0,0-.07-.64,1.51,1.51,0,0,0-.24-.53,1.17,1.17,0,0,0-.43-.36,1.51,1.51,0,0,0-.67-.13,2,2,0,0,0-.9.19,1.58,1.58,0,0,0-.62.52,2.33,2.33,0,0,0-.36.78,3.76,3.76,0,0,0-.12,1v3.74H805v-6.7Z" class="cls-6"/><path d="M816,183.93a2,2,0,0,1,.57-.71,2.43,2.43,0,0,1,.84-.4,3.9,3.9,0,0,1,1.06-.13,4.48,4.48,0,0,1,.89.09,2.18,2.18,0,0,1,.79.31,1.85,1.85,0,0,1,.57.66,2.34,2.34,0,0,1,.22,1.1v3.56a.43.43,0,0,0,.48.49.55.55,0,0,0,.26-.05v.69l-.25,0h-.28a1.16,1.16,0,0,1-.5-.08.7.7,0,0,1-.29-.24.87.87,0,0,1-.14-.37,3.43,3.43,0,0,1,0-.48h0a5.86,5.86,0,0,1-.45.58,2.53,2.53,0,0,1-.5.43,2.44,2.44,0,0,1-.64.25,3.05,3.05,0,0,1-.85.1,3.53,3.53,0,0,1-.88-.11,2,2,0,0,1-.72-.36,1.72,1.72,0,0,1-.48-.61,2.11,2.11,0,0,1-.17-.87,1.71,1.71,0,0,1,.31-1.1,1.92,1.92,0,0,1,.83-.61,4.72,4.72,0,0,1,1.15-.29l1.31-.16.45-.07a.82.82,0,0,0,.33-.13.68.68,0,0,0,.2-.27,1.1,1.1,0,0,0,.07-.44,1.47,1.47,0,0,0-.13-.68,1.22,1.22,0,0,0-.38-.43,1.63,1.63,0,0,0-.56-.21,3.66,3.66,0,0,0-.68-.06,2.07,2.07,0,0,0-1.28.37,1.46,1.46,0,0,0-.52,1.19h-.82A2.73,2.73,0,0,1,816,183.93Zm4.1,2a.58.58,0,0,1-.3.21l-.39.09-1.08.16a6.76,6.76,0,0,0-1,.21,2.15,2.15,0,0,0-.75.41,1,1,0,0,0-.29.76,1.25,1.25,0,0,0,.12.56,1.2,1.2,0,0,0,.33.41,1.42,1.42,0,0,0,.48.27,1.82,1.82,0,0,0,.56.09,3,3,0,0,0,.9-.14,2.39,2.39,0,0,0,.75-.42,1.93,1.93,0,0,0,.5-.66,2,2,0,0,0,.19-.89v-1.06Z" class="cls-6"/><path d="M823.42,180.31v1.32h-.82v-1.32Zm0,2.58v6.7h-.82v-6.7Z" class="cls-6"/><path d="M825.8,182.89V184h0a2,2,0,0,1,.83-1,2.4,2.4,0,0,1,1.31-.37,3.37,3.37,0,0,1,1.18.18,1.91,1.91,0,0,1,.76.52,1.93,1.93,0,0,1,.4.81,4.46,4.46,0,0,1,.12,1.08v4.31h-.82v-4.18a4,4,0,0,0-.08-.8,1.61,1.61,0,0,0-.27-.64,1.25,1.25,0,0,0-.53-.43,1.82,1.82,0,0,0-.82-.16,2,2,0,0,0-.88.18,1.72,1.72,0,0,0-.65.48,2.09,2.09,0,0,0-.42.73,2.94,2.94,0,0,0-.16.91v3.91H825v-6.7Z" class="cls-6"/><path d="M836.34,182.89v1.27h0a2.21,2.21,0,0,1,.93-1.09,2.84,2.84,0,0,1,1.46-.38,2.9,2.9,0,0,1,1.33.29,2.86,2.86,0,0,1,.95.77,3.31,3.31,0,0,1,.55,1.13,5,5,0,0,1,0,2.72,3.31,3.31,0,0,1-.55,1.13,2.74,2.74,0,0,1-.95.77,3,3,0,0,1-1.33.28,2.67,2.67,0,0,1-.73-.1,2.48,2.48,0,0,1-.67-.27,2.22,2.22,0,0,1-.56-.45,2.14,2.14,0,0,1-.37-.64h0v3.74h-.82v-9.17Zm4.49,2.32a2.72,2.72,0,0,0-.39-.92,2,2,0,0,0-.68-.66,1.88,1.88,0,0,0-1-.25,2.52,2.52,0,0,0-1.13.23,2,2,0,0,0-.73.63,2.4,2.4,0,0,0-.38.91,4.8,4.8,0,0,0-.11,1.09,4.46,4.46,0,0,0,.12,1,2.74,2.74,0,0,0,.4.92,2.09,2.09,0,0,0,1.83.91,1.88,1.88,0,0,0,1-.25,2,2,0,0,0,.68-.66,2.72,2.72,0,0,0,.39-.92,4.15,4.15,0,0,0,0-2.06Z" class="cls-6"/><path d="M843.8,182.89v1.57h0a2.53,2.53,0,0,1,1-1.26,2.48,2.48,0,0,1,1.57-.4v.81a2.77,2.77,0,0,0-1,.15,2.43,2.43,0,0,0-.78.5,2.18,2.18,0,0,0-.52.78,2.59,2.59,0,0,0-.18,1v3.57h-.82v-6.7Z" class="cls-6"/><path d="M851.1,183a2.92,2.92,0,0,1,1,.76,3.33,3.33,0,0,1,.61,1.13,4.41,4.41,0,0,1,.21,1.37,4.37,4.37,0,0,1-.21,1.37,3.33,3.33,0,0,1-.61,1.13,2.92,2.92,0,0,1-1,.76,3.42,3.42,0,0,1-2.71,0,2.92,2.92,0,0,1-1-.76,3.33,3.33,0,0,1-.61-1.13,4.37,4.37,0,0,1-.21-1.37,4.41,4.41,0,0,1,.21-1.37,3.33,3.33,0,0,1,.61-1.13,2.92,2.92,0,0,1,1-.76,3.31,3.31,0,0,1,2.71,0Zm-2.38.65a2.2,2.2,0,0,0-.74.65,3.07,3.07,0,0,0-.44.91,3.81,3.81,0,0,0-.15,1.05,3.75,3.75,0,0,0,.15,1,3.07,3.07,0,0,0,.44.91,2.2,2.2,0,0,0,.74.65,2,2,0,0,0,1,.25,2,2,0,0,0,1-.25,2.2,2.2,0,0,0,.74-.65,3.07,3.07,0,0,0,.44-.91,3.75,3.75,0,0,0,.15-1,3.81,3.81,0,0,0-.15-1.05,3.07,3.07,0,0,0-.44-.91,2.2,2.2,0,0,0-.74-.65,2,2,0,0,0-1-.25A2,2,0,0,0,848.72,183.63Z" class="cls-6"/><path d="M855,180.31v3.85h0a2,2,0,0,1,.38-.64,2.45,2.45,0,0,1,.55-.46,2.64,2.64,0,0,1,.67-.28,3.1,3.1,0,0,1,.73-.09,2.9,2.9,0,0,1,1.33.29,2.86,2.86,0,0,1,1,.77,3.52,3.52,0,0,1,.56,1.13,5.23,5.23,0,0,1,0,2.72,3.52,3.52,0,0,1-.56,1.13,2.74,2.74,0,0,1-1,.77,3,3,0,0,1-1.33.28,2.86,2.86,0,0,1-1.46-.38,2.14,2.14,0,0,1-.93-1.08h0v1.27h-.75v-9.28Zm4.42,4.9a2.92,2.92,0,0,0-.38-.92,2.18,2.18,0,0,0-.69-.66,1.86,1.86,0,0,0-1-.25,2.21,2.21,0,0,0-1.1.25,2.08,2.08,0,0,0-.72.66,2.57,2.57,0,0,0-.41.92,4.48,4.48,0,0,0,0,2.06,2.57,2.57,0,0,0,.41.92,2.08,2.08,0,0,0,.72.66,2.21,2.21,0,0,0,1.1.25,1.86,1.86,0,0,0,1-.25,2.18,2.18,0,0,0,.69-.66,2.92,2.92,0,0,0,.38-.92,4.15,4.15,0,0,0,0-2.06Z" class="cls-6"/><path d="M862.43,180.31v9.28h-.82v-9.28Z" class="cls-6"/><path d="M864.61,187.38a2.56,2.56,0,0,0,.4.85,2.17,2.17,0,0,0,.69.62,1.86,1.86,0,0,0,1,.25,2,2,0,0,0,1.4-.47,2.44,2.44,0,0,0,.7-1.25h.82a3.23,3.23,0,0,1-1,1.77,2.84,2.84,0,0,1-2,.63,3.19,3.19,0,0,1-1.37-.28,2.57,2.57,0,0,1-1-.77,3.48,3.48,0,0,1-.54-1.13,5.45,5.45,0,0,1-.17-1.36,5.15,5.15,0,0,1,.17-1.3,3.74,3.74,0,0,1,.54-1.14,2.75,2.75,0,0,1,1-.8,2.8,2.8,0,0,1,1.37-.31,2.76,2.76,0,0,1,1.38.33,2.59,2.59,0,0,1,.92.85,3.58,3.58,0,0,1,.52,1.21,5.3,5.3,0,0,1,.13,1.38h-5.16A3.75,3.75,0,0,0,864.61,187.38Zm4.06-2.5a2.42,2.42,0,0,0-.43-.77,2.14,2.14,0,0,0-.66-.53,1.93,1.93,0,0,0-.88-.2,2,2,0,0,0-.9.2,2.14,2.14,0,0,0-.66.53,2.91,2.91,0,0,0-.44.77,3.49,3.49,0,0,0-.21.89h4.34A2.92,2.92,0,0,0,868.67,184.88Z" class="cls-6"/><path d="M871.51,182.89V184h0a2.55,2.55,0,0,1,.85-1,2.4,2.4,0,0,1,1.34-.35A2.27,2.27,0,0,1,875,183a1.56,1.56,0,0,1,.72,1,2,2,0,0,1,.88-1,2.51,2.51,0,0,1,1.25-.33c1.48,0,2.22.79,2.22,2.35v4.55h-.82v-4.51a1.93,1.93,0,0,0-.35-1.26,1.49,1.49,0,0,0-1.23-.44,1.83,1.83,0,0,0-.89.2,1.7,1.7,0,0,0-.56.54,2.62,2.62,0,0,0-.29.77,5.4,5.4,0,0,0-.08.91v3.79H875V185a3.3,3.3,0,0,0-.07-.64,1.51,1.51,0,0,0-.24-.53,1.17,1.17,0,0,0-.43-.36,1.51,1.51,0,0,0-.67-.13,2,2,0,0,0-.9.19,1.65,1.65,0,0,0-.62.52,2.33,2.33,0,0,0-.36.78,3.76,3.76,0,0,0-.12,1v3.74h-.82v-6.7Z" class="cls-6"/><path d="M885.39,182.89l1.72,5.74h0l1.64-5.74h.92l1.64,5.74h0l1.71-5.74H894l-2.16,6.7h-.9L889.24,184h0l-1.63,5.64h-.9l-2.16-6.7Z" class="cls-6"/><path d="M895,183.93a2.08,2.08,0,0,1,.56-.71,2.51,2.51,0,0,1,.84-.4,4,4,0,0,1,1.07-.13,4.38,4.38,0,0,1,.88.09,2.16,2.16,0,0,1,.8.31,1.85,1.85,0,0,1,.57.66,2.47,2.47,0,0,1,.22,1.1v3.56a.43.43,0,0,0,.48.49.58.58,0,0,0,.26-.05v.69l-.25,0h-.28a1.16,1.16,0,0,1-.5-.08.73.73,0,0,1-.3-.24.86.86,0,0,1-.13-.37,3.32,3.32,0,0,1,0-.48h0a5.86,5.86,0,0,1-.45.58,2.33,2.33,0,0,1-.51.43,2.37,2.37,0,0,1-.63.25,3.13,3.13,0,0,1-.86.1,3.45,3.45,0,0,1-.87-.11,2,2,0,0,1-.72-.36,1.72,1.72,0,0,1-.48-.61,2,2,0,0,1-.18-.87,1.72,1.72,0,0,1,.32-1.1,2,2,0,0,1,.82-.61,4.92,4.92,0,0,1,1.16-.29l1.31-.16.45-.07a.82.82,0,0,0,.33-.13.79.79,0,0,0,.2-.27,1.31,1.31,0,0,0,.07-.44,1.46,1.46,0,0,0-.14-.68,1.11,1.11,0,0,0-.37-.43,1.63,1.63,0,0,0-.56-.21,3.77,3.77,0,0,0-.69-.06,2,2,0,0,0-1.27.37,1.46,1.46,0,0,0-.52,1.19h-.82A2.73,2.73,0,0,1,895,183.93Zm4.09,2a.51.51,0,0,1-.3.21l-.39.09-1.07.16a6.9,6.9,0,0,0-1,.21,2.1,2.1,0,0,0-.74.41,1,1,0,0,0-.3.76,1.25,1.25,0,0,0,.13.56,1.2,1.2,0,0,0,.33.41,1.42,1.42,0,0,0,.48.27,1.77,1.77,0,0,0,.56.09,3,3,0,0,0,.9-.14,2.34,2.34,0,0,0,.74-.42,2,2,0,0,0,.7-1.55v-1.06Z" class="cls-6"/><path d="M905.44,184.19a1.45,1.45,0,0,0-.39-.46,1.66,1.66,0,0,0-.55-.27,2.84,2.84,0,0,0-.66-.08,2.57,2.57,0,0,0-.55.06,1.79,1.79,0,0,0-.52.19,1.16,1.16,0,0,0-.37.36,1,1,0,0,0-.15.55.78.78,0,0,0,.14.46,1.3,1.3,0,0,0,.34.32,2.15,2.15,0,0,0,.46.21c.16.06.31.1.45.14l1.1.25a2.93,2.93,0,0,1,.69.18,2.18,2.18,0,0,1,.61.36,1.84,1.84,0,0,1,.44.55,1.64,1.64,0,0,1,.17.76,1.69,1.69,0,0,1-.25.93,2.1,2.1,0,0,1-.63.63,2.77,2.77,0,0,1-.87.34,4.38,4.38,0,0,1-.94.11,3.1,3.1,0,0,1-1.92-.56,2.39,2.39,0,0,1-.84-1.8H902a1.59,1.59,0,0,0,.6,1.26,2.21,2.21,0,0,0,1.37.42,3.34,3.34,0,0,0,.62-.06,2,2,0,0,0,.59-.23,1.41,1.41,0,0,0,.45-.39,1,1,0,0,0,.18-.59.87.87,0,0,0-.13-.5,1,1,0,0,0-.33-.34,2.06,2.06,0,0,0-.47-.23l-.54-.16-1.06-.23a7.14,7.14,0,0,1-.74-.24,2.28,2.28,0,0,1-.59-.34,1.33,1.33,0,0,1-.39-.49,1.59,1.59,0,0,1-.15-.72,1.61,1.61,0,0,1,.23-.87,1.75,1.75,0,0,1,.59-.59,2.59,2.59,0,0,1,.81-.32,4,4,0,0,1,.9-.11,3.19,3.19,0,0,1,.94.13,2.35,2.35,0,0,1,.77.4,2.06,2.06,0,0,1,.52.68,2.46,2.46,0,0,1,.22.95h-.82A1.69,1.69,0,0,0,905.44,184.19Z" class="cls-6"/><path d="M786.49,198.49v.69h-1.37v4.52a1.52,1.52,0,0,0,.11.63c.08.15.26.24.56.25a5.58,5.58,0,0,0,.7,0v.69l-.37,0h-.36a1.6,1.6,0,0,1-1.14-.32,1.62,1.62,0,0,1-.32-1.18v-4.58h-1.17v-.69h1.17v-2h.82v2Z" class="cls-6"/><path d="M788.48,195.91v3.73h0a2.07,2.07,0,0,1,.83-1,2.44,2.44,0,0,1,1.32-.37,3.37,3.37,0,0,1,1.18.18,1.87,1.87,0,0,1,.75.52,1.83,1.83,0,0,1,.41.81,4.46,4.46,0,0,1,.12,1.08v4.31h-.82V201a4,4,0,0,0-.08-.8,1.72,1.72,0,0,0-.27-.65,1.31,1.31,0,0,0-.53-.42,1.86,1.86,0,0,0-.83-.16,2,2,0,0,0-.87.18,1.65,1.65,0,0,0-.65.48,2.14,2.14,0,0,0-.42.72,3.06,3.06,0,0,0-.16.92v3.91h-.82v-9.28Z" class="cls-6"/><path d="M794.82,199.53a2,2,0,0,1,.57-.71,2.34,2.34,0,0,1,.84-.4,3.9,3.9,0,0,1,1.06-.13,4.48,4.48,0,0,1,.89.09,2.18,2.18,0,0,1,.79.31,1.85,1.85,0,0,1,.57.66,2.34,2.34,0,0,1,.22,1.1V204a.43.43,0,0,0,.48.49.55.55,0,0,0,.26-.05v.69l-.25,0H800a1.16,1.16,0,0,1-.5-.08.7.7,0,0,1-.29-.24.87.87,0,0,1-.14-.37,3.53,3.53,0,0,1,0-.48h0a5.86,5.86,0,0,1-.45.58,2.19,2.19,0,0,1-.5.42,2.15,2.15,0,0,1-.64.26,3.05,3.05,0,0,1-.85.1,3.53,3.53,0,0,1-.88-.11,2.21,2.21,0,0,1-.72-.36,1.72,1.72,0,0,1-.48-.61,2.11,2.11,0,0,1-.17-.87,1.71,1.71,0,0,1,.31-1.1,1.92,1.92,0,0,1,.83-.61,4.72,4.72,0,0,1,1.15-.29l1.31-.16.45-.07a.82.82,0,0,0,.33-.13.68.68,0,0,0,.2-.27,1.1,1.1,0,0,0,.07-.44,1.47,1.47,0,0,0-.13-.68,1.22,1.22,0,0,0-.38-.43,1.63,1.63,0,0,0-.56-.21,3.66,3.66,0,0,0-.68-.06,2.07,2.07,0,0,0-1.28.37,1.46,1.46,0,0,0-.52,1.19h-.82A2.73,2.73,0,0,1,794.82,199.53Zm4.1,2a.58.58,0,0,1-.3.21l-.39.09-1.07.16a6.64,6.64,0,0,0-1,.21,2.06,2.06,0,0,0-.75.41,1,1,0,0,0-.29.76,1.25,1.25,0,0,0,.12.56,1.2,1.2,0,0,0,.33.41,1.42,1.42,0,0,0,.48.27,1.82,1.82,0,0,0,.56.09,3,3,0,0,0,.9-.14,2.39,2.39,0,0,0,.75-.42,1.93,1.93,0,0,0,.5-.66,2,2,0,0,0,.19-.89v-1.06Z" class="cls-6"/><path d="M804.06,198.49v.69H802.7v4.52a1.52,1.52,0,0,0,.11.63c.07.15.26.24.55.25a5.37,5.37,0,0,0,.7,0v.69l-.36,0h-.36a1.65,1.65,0,0,1-1.15-.32,1.62,1.62,0,0,1-.31-1.18v-4.58h-1.17v-.69h1.17v-2h.82v2Z" class="cls-6"/><path d="M806.82,205.19a2.22,2.22,0,0,1-.07.57,1.85,1.85,0,0,1-.22.52,1.57,1.57,0,0,1-.35.42,1.33,1.33,0,0,1-.5.26v-.56a.61.61,0,0,0,.27-.19,1.29,1.29,0,0,0,.19-.32,1.21,1.21,0,0,0,.11-.37,1,1,0,0,0,0-.33h-.54v-1.37h1.09Z" class="cls-6"/><path d="M812.67,198.49l1.72,5.74h0l1.64-5.74H817l1.64,5.74h0l1.71-5.74h.87l-2.15,6.7h-.9l-1.65-5.64h0l-1.64,5.64H814l-2.16-6.7Z" class="cls-6"/><path d="M822.91,195.91v3.73h0a2,2,0,0,1,.83-1,2.43,2.43,0,0,1,1.31-.37,3.37,3.37,0,0,1,1.18.18,1.84,1.84,0,0,1,.76.52,1.82,1.82,0,0,1,.4.81,4.46,4.46,0,0,1,.12,1.08v4.31h-.82V201a3.39,3.39,0,0,0-.08-.8,1.72,1.72,0,0,0-.27-.65,1.24,1.24,0,0,0-.53-.42A1.82,1.82,0,0,0,825,199a2.07,2.07,0,0,0-.88.18,1.81,1.81,0,0,0-.65.48,2.12,2.12,0,0,0-.41.72,3.06,3.06,0,0,0-.17.92v3.91h-.82v-9.28Z" class="cls-6"/><path d="M829.69,203a2.77,2.77,0,0,0,.4.85,2.17,2.17,0,0,0,.69.62,1.88,1.88,0,0,0,1,.25,2,2,0,0,0,1.4-.47,2.53,2.53,0,0,0,.71-1.25h.81a3.23,3.23,0,0,1-1,1.77,2.83,2.83,0,0,1-2,.63,3.19,3.19,0,0,1-1.37-.28,2.55,2.55,0,0,1-.94-.77,3.12,3.12,0,0,1-.54-1.13,5,5,0,0,1-.18-1.36,4.74,4.74,0,0,1,.18-1.3,3.33,3.33,0,0,1,.54-1.14,2.62,2.62,0,0,1,.94-.8,2.8,2.8,0,0,1,1.37-.31,2.68,2.68,0,0,1,2.31,1.18,3.38,3.38,0,0,1,.51,1.21,5.3,5.3,0,0,1,.13,1.38h-5.16A3.75,3.75,0,0,0,829.69,203Zm4.06-2.5a2.49,2.49,0,0,0-.42-.77,2.31,2.31,0,0,0-.67-.53,1.93,1.93,0,0,0-.88-.2,2,2,0,0,0-.9.2,2.14,2.14,0,0,0-.66.53,2.76,2.76,0,0,0-.44.77,4,4,0,0,0-.21.89h4.34A2.92,2.92,0,0,0,833.75,200.48Z" class="cls-6"/><path d="M836.64,198.49v1.15h0a2,2,0,0,1,.83-1,2.43,2.43,0,0,1,1.31-.37,3.37,3.37,0,0,1,1.18.18,1.84,1.84,0,0,1,.76.52,1.93,1.93,0,0,1,.4.81,4.46,4.46,0,0,1,.12,1.08v4.31h-.82V201a4,4,0,0,0-.08-.8,1.72,1.72,0,0,0-.27-.65,1.31,1.31,0,0,0-.53-.42,1.82,1.82,0,0,0-.82-.16,2,2,0,0,0-.88.18,1.72,1.72,0,0,0-.65.48,2.14,2.14,0,0,0-.42.72,3.06,3.06,0,0,0-.16.92v3.91h-.82v-6.7Z" class="cls-6"/><path d="M847.26,195.91v1.32h-.82v-1.32Zm0,2.58v6.7h-.82v-6.7Z" class="cls-6"/><path d="M851.5,198.49v.69h-1.37v4.52a1.36,1.36,0,0,0,.12.63c.07.15.25.24.55.25a5.48,5.48,0,0,0,.7,0v.69l-.36,0h-.37a1.62,1.62,0,0,1-1.14-.32,1.58,1.58,0,0,1-.31-1.18v-4.58h-1.17v-.69h1.17v-2h.81v2Z" class="cls-6"/><path d="M861.8,206a2.67,2.67,0,0,1-.51,1,2.28,2.28,0,0,1-.92.64,4,4,0,0,1-1.38.22,4.07,4.07,0,0,1-1-.12,3.07,3.07,0,0,1-.87-.36,2.36,2.36,0,0,1-.63-.63,1.82,1.82,0,0,1-.29-.92H857a1.5,1.5,0,0,0,.26.63,1.36,1.36,0,0,0,.45.41,2,2,0,0,0,.59.23,3,3,0,0,0,.67.07,2,2,0,0,0,1.65-.65,3,3,0,0,0,.51-1.87v-.91h0a2.41,2.41,0,0,1-.84,1,2.25,2.25,0,0,1-1.29.38,3.2,3.2,0,0,1-1.38-.27,2.46,2.46,0,0,1-.94-.74,2.86,2.86,0,0,1-.54-1.09,4.9,4.9,0,0,1-.17-1.35,4.38,4.38,0,0,1,.2-1.31,3,3,0,0,1,.59-1.07,2.6,2.6,0,0,1,.94-.73,3,3,0,0,1,1.3-.27,2.77,2.77,0,0,1,.71.1,2.11,2.11,0,0,1,.6.3,2.85,2.85,0,0,1,.49.43,2.27,2.27,0,0,1,.33.52h0v-1.15H862v6.16A5.08,5.08,0,0,1,861.8,206Zm-1.88-1.79a2.06,2.06,0,0,0,.68-.6,2.68,2.68,0,0,0,.41-.85,3.64,3.64,0,0,0,.14-1,4.19,4.19,0,0,0-.12-1,3,3,0,0,0-.38-.89,2,2,0,0,0-.67-.65,1.82,1.82,0,0,0-1-.25,2,2,0,0,0-1,.24,2.09,2.09,0,0,0-.69.63,2.67,2.67,0,0,0-.4.89,4.38,4.38,0,0,0-.12,1,3.64,3.64,0,0,0,.13,1,2.47,2.47,0,0,0,.4.85,2,2,0,0,0,.69.6,2.07,2.07,0,0,0,1,.23A1.89,1.89,0,0,0,859.92,204.2Z" class="cls-6"/><path d="M867.72,198.58a3,3,0,0,1,1,.76,3.33,3.33,0,0,1,.61,1.13,4.57,4.57,0,0,1,0,2.74,3.33,3.33,0,0,1-.61,1.13,3,3,0,0,1-1,.76,3.27,3.27,0,0,1-1.36.28,3.24,3.24,0,0,1-1.36-.28,2.88,2.88,0,0,1-1-.76,3.35,3.35,0,0,1-.62-1.13,4.79,4.79,0,0,1,0-2.74,3.35,3.35,0,0,1,.62-1.13,2.88,2.88,0,0,1,1-.76,3.09,3.09,0,0,1,1.36-.29A3.12,3.12,0,0,1,867.72,198.58Zm-2.39.65a2.17,2.17,0,0,0-.73.65,2.65,2.65,0,0,0-.44.91,3.75,3.75,0,0,0,0,2.1,2.65,2.65,0,0,0,.44.91,2.17,2.17,0,0,0,.73.65,2.25,2.25,0,0,0,2.06,0,2.27,2.27,0,0,0,.73-.65,3.07,3.07,0,0,0,.44-.91,3.75,3.75,0,0,0,0-2.1,3.07,3.07,0,0,0-.44-.91,2.27,2.27,0,0,0-.73-.65,2.25,2.25,0,0,0-2.06,0Z" class="cls-6"/><path d="M873.42,198.49v.69h-1.37v4.52a1.52,1.52,0,0,0,.11.63c.08.15.26.24.56.25a5.58,5.58,0,0,0,.7,0v.69l-.37,0h-.36a1.6,1.6,0,0,1-1.14-.32,1.57,1.57,0,0,1-.32-1.18v-4.58h-1.17v-.69h1.17v-2h.82v2Z" class="cls-6"/><path d="M880.88,198.49v.69h-1.37v4.52a1.52,1.52,0,0,0,.11.63c.08.15.26.24.56.25a5.58,5.58,0,0,0,.7,0v.69l-.37,0h-.36a1.6,1.6,0,0,1-1.14-.32,1.58,1.58,0,0,1-.31-1.18v-4.58h-1.18v-.69h1.18v-2h.81v2Z" class="cls-6"/><path d="M886.25,198.58a2.92,2.92,0,0,1,1,.76,3.33,3.33,0,0,1,.61,1.13,4.57,4.57,0,0,1,0,2.74,3.33,3.33,0,0,1-.61,1.13,2.92,2.92,0,0,1-1,.76,3.42,3.42,0,0,1-2.71,0,2.92,2.92,0,0,1-1-.76,3.33,3.33,0,0,1-.61-1.13,4.57,4.57,0,0,1,0-2.74,3.33,3.33,0,0,1,.61-1.13,2.92,2.92,0,0,1,1-.76,3.31,3.31,0,0,1,2.71,0Zm-2.38.65a2.2,2.2,0,0,0-.74.65,3.07,3.07,0,0,0-.44.91,3.75,3.75,0,0,0,0,2.1,3.07,3.07,0,0,0,.44.91,2.2,2.2,0,0,0,.74.65,2,2,0,0,0,1,.25,2,2,0,0,0,1-.25,2.2,2.2,0,0,0,.74-.65,3.07,3.07,0,0,0,.44-.91,3.75,3.75,0,0,0,0-2.1,3.07,3.07,0,0,0-.44-.91,2.2,2.2,0,0,0-.74-.65,2,2,0,0,0-1-.25A2,2,0,0,0,883.87,199.23Z" class="cls-6"/><path d="M893.07,199.53a2,2,0,0,1,.57-.71,2.51,2.51,0,0,1,.84-.4,3.9,3.9,0,0,1,1.06-.13,4.48,4.48,0,0,1,.89.09,2.11,2.11,0,0,1,.79.31,1.85,1.85,0,0,1,.57.66,2.34,2.34,0,0,1,.22,1.1V204a.43.43,0,0,0,.48.49.55.55,0,0,0,.26-.05v.69l-.25,0h-.28a1.19,1.19,0,0,1-.5-.08.7.7,0,0,1-.29-.24.87.87,0,0,1-.14-.37,3.53,3.53,0,0,1,0-.48h0a4.66,4.66,0,0,1-.45.58,2.19,2.19,0,0,1-.5.42,2.15,2.15,0,0,1-.64.26,3.05,3.05,0,0,1-.85.1,3.53,3.53,0,0,1-.88-.11,2.07,2.07,0,0,1-.71-.36,1.64,1.64,0,0,1-.49-.61,2.11,2.11,0,0,1-.17-.87,1.71,1.71,0,0,1,.31-1.1,1.92,1.92,0,0,1,.83-.61,4.84,4.84,0,0,1,1.15-.29l1.31-.16.46-.07a.77.77,0,0,0,.32-.13.68.68,0,0,0,.2-.27,1.1,1.1,0,0,0,.07-.44,1.47,1.47,0,0,0-.13-.68,1.13,1.13,0,0,0-.38-.43,1.63,1.63,0,0,0-.56-.21,3.66,3.66,0,0,0-.68-.06,2.07,2.07,0,0,0-1.28.37,1.46,1.46,0,0,0-.52,1.19h-.81A2.55,2.55,0,0,1,893.07,199.53Zm4.1,2a.51.51,0,0,1-.3.21l-.39.09-1.07.16a6.64,6.64,0,0,0-1,.21,2.15,2.15,0,0,0-.75.41,1,1,0,0,0-.29.76,1.25,1.25,0,0,0,.12.56,1.2,1.2,0,0,0,.33.41,1.42,1.42,0,0,0,.48.27,1.82,1.82,0,0,0,.56.09,3,3,0,0,0,.9-.14,2.28,2.28,0,0,0,.75-.42,1.93,1.93,0,0,0,.5-.66,2,2,0,0,0,.19-.89v-1.06Z" class="cls-6"/><path d="M900.47,195.91v3.85h0a2,2,0,0,1,.37-.64,2.45,2.45,0,0,1,.55-.46,2.64,2.64,0,0,1,.67-.28,3.1,3.1,0,0,1,.73-.09,3,3,0,0,1,1.34.29,2.7,2.7,0,0,1,.94.77,3.32,3.32,0,0,1,.56,1.13,5.23,5.23,0,0,1,0,2.72,3.32,3.32,0,0,1-.56,1.13,2.82,2.82,0,0,1-.94.77,3.11,3.11,0,0,1-1.34.28,2.86,2.86,0,0,1-1.46-.38,2.14,2.14,0,0,1-.93-1.08h0v1.27h-.75v-9.28Zm4.43,4.9a3.19,3.19,0,0,0-.39-.92,2.18,2.18,0,0,0-.69-.66,1.86,1.86,0,0,0-1-.25,2.21,2.21,0,0,0-1.1.25,2.08,2.08,0,0,0-.72.66,2.57,2.57,0,0,0-.41.92,4.48,4.48,0,0,0,0,2.06,2.57,2.57,0,0,0,.41.92,2.08,2.08,0,0,0,.72.66,2.21,2.21,0,0,0,1.1.25,1.86,1.86,0,0,0,1-.25,2.18,2.18,0,0,0,.69-.66,3.19,3.19,0,0,0,.39-.92,4.48,4.48,0,0,0,0-2.06Z" class="cls-6"/><path d="M911.3,198.58a2.92,2.92,0,0,1,1,.76,3.33,3.33,0,0,1,.61,1.13,4.57,4.57,0,0,1,0,2.74,3.33,3.33,0,0,1-.61,1.13,2.92,2.92,0,0,1-1,.76,3.42,3.42,0,0,1-2.71,0,2.92,2.92,0,0,1-1-.76,3.33,3.33,0,0,1-.61-1.13,4.57,4.57,0,0,1,0-2.74,3.33,3.33,0,0,1,.61-1.13,2.92,2.92,0,0,1,1-.76,3.31,3.31,0,0,1,2.71,0Zm-2.38.65a2.2,2.2,0,0,0-.74.65,3.07,3.07,0,0,0-.44.91,3.75,3.75,0,0,0,0,2.1,3.07,3.07,0,0,0,.44.91,2.2,2.2,0,0,0,.74.65,2,2,0,0,0,1,.25,2,2,0,0,0,1-.25,2.2,2.2,0,0,0,.74-.65,3.07,3.07,0,0,0,.44-.91,3.75,3.75,0,0,0,0-2.1,3.07,3.07,0,0,0-.44-.91,2.2,2.2,0,0,0-.74-.65,2,2,0,0,0-1-.25A2,2,0,0,0,908.92,199.23Z" class="cls-6"/><path d="M919,205.19V204h0a2.27,2.27,0,0,1-.94,1,2.67,2.67,0,0,1-1.37.36,3,3,0,0,1-1.09-.18,1.79,1.79,0,0,1-.72-.5,1.92,1.92,0,0,1-.41-.79,3.87,3.87,0,0,1-.13-1.07v-4.35h.82v4.36a2.1,2.1,0,0,0,.42,1.38,2.1,2.1,0,0,0,2.28.24,1.87,1.87,0,0,0,.62-.6,2.63,2.63,0,0,0,.37-.87,4.07,4.07,0,0,0,.12-1v-3.52h.81v6.7Z" class="cls-6"/><path d="M924,198.49v.69h-1.37v4.52a1.52,1.52,0,0,0,.11.63.59.59,0,0,0,.55.25,5.63,5.63,0,0,0,.71,0v.69l-.37,0h-.36a1.65,1.65,0,0,1-1.15-.32,1.62,1.62,0,0,1-.31-1.18v-4.58h-1.17v-.69h1.17v-2h.82v2Z" class="cls-6"/><path d="M784.52,219.05a2.13,2.13,0,0,0,.47.67,2,2,0,0,0,.71.43,2.41,2.41,0,0,0,.87.15,2.24,2.24,0,0,0,.95-.2,2.38,2.38,0,0,0,.71-.55,2.49,2.49,0,0,0,.46-.79,2.94,2.94,0,0,0,.15-.94,2.62,2.62,0,0,0-.17-.94,2.53,2.53,0,0,0-.48-.75,2.25,2.25,0,0,0-.74-.5,2.52,2.52,0,0,0-2.09.1,2.23,2.23,0,0,0-.87.8h-.7l.88-4.72h4.55v.75h-4l-.58,3,0,0a2.29,2.29,0,0,1,.86-.63,2.84,2.84,0,0,1,1.07-.22,3.18,3.18,0,0,1,1.26.24,2.7,2.7,0,0,1,1,.64,2.91,2.91,0,0,1,.62,1,3.72,3.72,0,0,1,.21,1.27,3,3,0,0,1-.25,1.23,3,3,0,0,1-.67,1,3.11,3.11,0,0,1-1,.64,3.4,3.4,0,0,1-1.23.23,3.63,3.63,0,0,1-1.17-.19,2.74,2.74,0,0,1-.94-.55,2.57,2.57,0,0,1-.63-.88,2.87,2.87,0,0,1-.25-1.17h.82A2.17,2.17,0,0,0,784.52,219.05Z" class="cls-6"/><path d="M799.81,220.79v-1.27h0a2.06,2.06,0,0,1-.39.6,2.56,2.56,0,0,1-.57.46,3.33,3.33,0,0,1-.7.29,2.69,2.69,0,0,1-.73.11,3.08,3.08,0,0,1-1.34-.28,2.82,2.82,0,0,1-.94-.77,3.32,3.32,0,0,1-.56-1.13,5.23,5.23,0,0,1,0-2.72,3.24,3.24,0,0,1,.56-1.13,2.7,2.7,0,0,1,.94-.77,2.94,2.94,0,0,1,1.34-.29,3,3,0,0,1,.73.09,2.64,2.64,0,0,1,.67.28,2.45,2.45,0,0,1,.55.46,1.85,1.85,0,0,1,.37.64h0v-3.85h.82v9.28Zm-4.49-2.32a2.81,2.81,0,0,0,.39.92,2.25,2.25,0,0,0,.68.66,1.92,1.92,0,0,0,1,.25,2.14,2.14,0,0,0,1.09-.25,2.12,2.12,0,0,0,.73-.66,2.63,2.63,0,0,0,.4-.92,4.15,4.15,0,0,0,0-2.06,2.55,2.55,0,0,0-.4-.92,2.12,2.12,0,0,0-.73-.66,2.14,2.14,0,0,0-1.09-.25,1.92,1.92,0,0,0-1,.25,2.25,2.25,0,0,0-.68.66,2.72,2.72,0,0,0-.39.92,4.48,4.48,0,0,0,0,2.06Z" class="cls-6"/><path d="M802.73,218.58a2.56,2.56,0,0,0,.4.85,2.17,2.17,0,0,0,.69.62,1.86,1.86,0,0,0,1,.25,2,2,0,0,0,1.4-.47,2.44,2.44,0,0,0,.7-1.25h.82a3.26,3.26,0,0,1-1,1.77,2.84,2.84,0,0,1-2,.63,3.19,3.19,0,0,1-1.37-.28,2.67,2.67,0,0,1-1-.77,3.48,3.48,0,0,1-.54-1.13,5.45,5.45,0,0,1-.17-1.36,5.15,5.15,0,0,1,.17-1.3,3.74,3.74,0,0,1,.54-1.14,2.75,2.75,0,0,1,1-.8,2.8,2.8,0,0,1,1.37-.31,2.68,2.68,0,0,1,2.31,1.18,3.56,3.56,0,0,1,.51,1.21,5.3,5.3,0,0,1,.13,1.38h-5.16A3.75,3.75,0,0,0,802.73,218.58Zm4.06-2.51a2.56,2.56,0,0,0-.42-.76,2.31,2.31,0,0,0-.67-.53,1.93,1.93,0,0,0-.88-.2,2,2,0,0,0-.9.2,2.14,2.14,0,0,0-.66.53,2.76,2.76,0,0,0-.44.77,3.49,3.49,0,0,0-.21.89H807A3,3,0,0,0,806.79,216.07Z" class="cls-6"/><path d="M814.38,221.59a2.75,2.75,0,0,1-.51,1,2.28,2.28,0,0,1-.92.64,4,4,0,0,1-1.38.22,4.07,4.07,0,0,1-1-.12,3.07,3.07,0,0,1-.87-.36,2.36,2.36,0,0,1-.63-.63,1.93,1.93,0,0,1-.3-.92h.82a1.5,1.5,0,0,0,.26.63,1.36,1.36,0,0,0,.45.41,2.34,2.34,0,0,0,.59.23,3,3,0,0,0,.67.07,2,2,0,0,0,1.65-.65,3,3,0,0,0,.5-1.87v-.91h0a2.41,2.41,0,0,1-.84,1,2.25,2.25,0,0,1-1.29.38,3.2,3.2,0,0,1-1.38-.27,2.46,2.46,0,0,1-.94-.74,2.86,2.86,0,0,1-.54-1.09,4.9,4.9,0,0,1-.17-1.35,4.08,4.08,0,0,1,.2-1.31,3.15,3.15,0,0,1,.58-1.07,2.63,2.63,0,0,1,.95-.73,3,3,0,0,1,1.3-.27,2.63,2.63,0,0,1,.7.1,2,2,0,0,1,.61.3,2.85,2.85,0,0,1,.49.43,2.27,2.27,0,0,1,.33.52h0v-1.15h.82v6.16A5.08,5.08,0,0,1,814.38,221.59Zm-1.88-1.79a2.06,2.06,0,0,0,.68-.6,2.68,2.68,0,0,0,.41-.85,3.64,3.64,0,0,0,.13-1,4.77,4.77,0,0,0-.11-1,3,3,0,0,0-.38-.89,2,2,0,0,0-.67-.65,1.82,1.82,0,0,0-1-.25,2,2,0,0,0-1,.24,2.3,2.3,0,0,0-.69.63,2.65,2.65,0,0,0-.39.89,4.38,4.38,0,0,0-.12,1,3.64,3.64,0,0,0,.13,1,2.47,2.47,0,0,0,.4.85,2,2,0,0,0,1.68.83A1.89,1.89,0,0,0,812.5,219.8Z" class="cls-6"/><path d="M816.86,214.09v1.57h0a2.48,2.48,0,0,1,2.54-1.67v.82a2.77,2.77,0,0,0-1,.15,2.43,2.43,0,0,0-.78.5,2.32,2.32,0,0,0-.52.78,2.59,2.59,0,0,0-.18,1v3.57h-.82v-6.7Z" class="cls-6"/><path d="M820.57,218.58a2.54,2.54,0,0,0,.39.85,2.4,2.4,0,0,0,.69.62,1.88,1.88,0,0,0,1,.25,2,2,0,0,0,1.41-.47,2.44,2.44,0,0,0,.7-1.25h.82a3.21,3.21,0,0,1-1,1.77,2.83,2.83,0,0,1-2,.63,3.25,3.25,0,0,1-1.37-.28,2.64,2.64,0,0,1-.94-.77,3.48,3.48,0,0,1-.54-1.13,5,5,0,0,1-.18-1.36,4.74,4.74,0,0,1,.18-1.3,3.74,3.74,0,0,1,.54-1.14,2.71,2.71,0,0,1,.94-.8,2.86,2.86,0,0,1,1.37-.31,2.68,2.68,0,0,1,2.31,1.18,3.58,3.58,0,0,1,.52,1.21,5.77,5.77,0,0,1,.13,1.38h-5.17A3.78,3.78,0,0,0,820.57,218.58Zm4-2.51a2.56,2.56,0,0,0-.42-.76,2.14,2.14,0,0,0-.66-.53,2.08,2.08,0,0,0-1.78,0,2.31,2.31,0,0,0-.67.53,2.74,2.74,0,0,0-.43.77,4,4,0,0,0-.22.89h4.35A3.05,3.05,0,0,0,824.62,216.07Z" class="cls-6"/><path d="M827.31,218.58a2.77,2.77,0,0,0,.4.85,2.17,2.17,0,0,0,.69.62,1.88,1.88,0,0,0,1,.25,2,2,0,0,0,1.41-.47,2.52,2.52,0,0,0,.7-1.25h.82a3.34,3.34,0,0,1-1,1.77,2.83,2.83,0,0,1-2,.63,3.22,3.22,0,0,1-1.37-.28,2.55,2.55,0,0,1-.94-.77,3.29,3.29,0,0,1-.54-1.13,5,5,0,0,1-.18-1.36,4.74,4.74,0,0,1,.18-1.3,3.52,3.52,0,0,1,.54-1.14,2.62,2.62,0,0,1,.94-.8,2.83,2.83,0,0,1,1.37-.31,2.68,2.68,0,0,1,2.31,1.18,3.38,3.38,0,0,1,.51,1.21,4.9,4.9,0,0,1,.13,1.38h-5.16A3.75,3.75,0,0,0,827.31,218.58Zm4.06-2.51a2.56,2.56,0,0,0-.42-.76,2.14,2.14,0,0,0-.66-.53,2.1,2.1,0,0,0-1.79,0,2.14,2.14,0,0,0-.66.53,2.51,2.51,0,0,0-.43.77,4,4,0,0,0-.22.89h4.34A3,3,0,0,0,831.37,216.07Z" class="cls-6"/><path d="M837.32,215.39a1.33,1.33,0,0,0-.39-.46,1.66,1.66,0,0,0-.55-.27,2.84,2.84,0,0,0-.66-.08,2.57,2.57,0,0,0-.55.06,1.79,1.79,0,0,0-.52.19,1.06,1.06,0,0,0-.37.36,1,1,0,0,0-.15.55.78.78,0,0,0,.14.46,1.48,1.48,0,0,0,.34.32,2.78,2.78,0,0,0,.46.21c.16.06.32.1.45.14l1.1.24a3.55,3.55,0,0,1,.69.19,2,2,0,0,1,.61.36,1.7,1.7,0,0,1,.44.55,1.64,1.64,0,0,1,.17.76,1.61,1.61,0,0,1-.25.93,1.9,1.9,0,0,1-.63.63,2.71,2.71,0,0,1-.86.34,4.54,4.54,0,0,1-.95.11,3.1,3.1,0,0,1-1.92-.56,2.39,2.39,0,0,1-.84-1.8h.82a1.63,1.63,0,0,0,.6,1.26,2.22,2.22,0,0,0,1.38.42,2.6,2.6,0,0,0,.61-.07,1.68,1.68,0,0,0,.59-.22,1.23,1.23,0,0,0,.45-.39,1,1,0,0,0,.18-.59.92.92,0,0,0-.13-.51,1,1,0,0,0-.33-.33,1.87,1.87,0,0,0-.47-.23l-.54-.16-1-.23a5.85,5.85,0,0,1-.74-.24,2.18,2.18,0,0,1-.6-.34,1.33,1.33,0,0,1-.39-.49,1.59,1.59,0,0,1-.15-.72,1.67,1.67,0,0,1,.23-.88,1.82,1.82,0,0,1,.59-.58A2.82,2.82,0,0,1,835,214a4.5,4.5,0,0,1,.89-.1,3.19,3.19,0,0,1,.94.13,2.26,2.26,0,0,1,.77.4,2,2,0,0,1,.52.68,2.29,2.29,0,0,1,.22,1h-.82A1.53,1.53,0,0,0,837.32,215.39Z" class="cls-6"/><path d="M847.52,214.18a3,3,0,0,1,1,.76,3.33,3.33,0,0,1,.61,1.13,4.57,4.57,0,0,1,0,2.74,3.28,3.28,0,0,1-.61,1.12,2.88,2.88,0,0,1-1,.77,3.27,3.27,0,0,1-1.36.28,3.24,3.24,0,0,1-1.36-.28,2.79,2.79,0,0,1-1-.77,3.3,3.3,0,0,1-.62-1.12,4.79,4.79,0,0,1,0-2.74,3.35,3.35,0,0,1,.62-1.13,2.88,2.88,0,0,1,1-.76,3.09,3.09,0,0,1,1.36-.29A3.12,3.12,0,0,1,847.52,214.18Zm-2.39.65a2.17,2.17,0,0,0-.73.65,2.65,2.65,0,0,0-.44.91,3.75,3.75,0,0,0,0,2.1,2.65,2.65,0,0,0,.44.91,2.17,2.17,0,0,0,.73.65,2.25,2.25,0,0,0,2.06,0,2.27,2.27,0,0,0,.73-.65,3.07,3.07,0,0,0,.44-.91,3.75,3.75,0,0,0,0-2.1,3.07,3.07,0,0,0-.44-.91,2.27,2.27,0,0,0-.73-.65,2.25,2.25,0,0,0-2.06,0Z" class="cls-6"/><path d="M855.23,220.79v-1.21h0a2.34,2.34,0,0,1-1,1,2.67,2.67,0,0,1-1.37.36,2.91,2.91,0,0,1-1.08-.18,1.76,1.76,0,0,1-.73-.5,2.05,2.05,0,0,1-.41-.79,3.92,3.92,0,0,1-.13-1.07v-4.35h.82v4.36a2.16,2.16,0,0,0,.42,1.38,2.1,2.1,0,0,0,2.28.24,2,2,0,0,0,.63-.6,2.84,2.84,0,0,0,.36-.87,4.07,4.07,0,0,0,.12-1v-3.52H856v6.7Z" class="cls-6"/><path d="M860.2,214.09v.68h-1.37v4.53a1.52,1.52,0,0,0,.11.63c.08.15.26.24.56.25a5.58,5.58,0,0,0,.7,0v.69l-.37,0h-.36a1.6,1.6,0,0,1-1.14-.32,1.64,1.64,0,0,1-.32-1.18v-4.59h-1.17v-.68H858v-2h.82v2Z" class="cls-6"/><path d="M865.24,215.39a1.3,1.3,0,0,0-.38-.46,1.76,1.76,0,0,0-.55-.27,2.86,2.86,0,0,0-.67-.08,2.64,2.64,0,0,0-.55.06,1.63,1.63,0,0,0-.51.19,1,1,0,0,0-.38.36,1,1,0,0,0-.14.55.78.78,0,0,0,.13.46,1.35,1.35,0,0,0,.35.32,3.1,3.1,0,0,0,.45.21l.46.14,1.09.24a3.64,3.64,0,0,1,.7.19,2.34,2.34,0,0,1,.61.36,1.81,1.81,0,0,1,.43.55,1.64,1.64,0,0,1,.17.76,1.61,1.61,0,0,1-.25.93,1.9,1.9,0,0,1-.63.63,2.62,2.62,0,0,1-.86.34,4.47,4.47,0,0,1-1,.11,3.1,3.1,0,0,1-1.92-.56,2.39,2.39,0,0,1-.84-1.8h.82a1.63,1.63,0,0,0,.61,1.26,2.19,2.19,0,0,0,1.37.42,2.74,2.74,0,0,0,.62-.07A1.75,1.75,0,0,0,865,220a1.41,1.41,0,0,0,.45-.39,1,1,0,0,0,.17-.59,1,1,0,0,0-.12-.51,1,1,0,0,0-.33-.33,2.14,2.14,0,0,0-.48-.23l-.54-.16-1-.23a5.85,5.85,0,0,1-.74-.24,2.12,2.12,0,0,1-.59-.34,1.46,1.46,0,0,1-.4-.49,1.74,1.74,0,0,1-.14-.72,1.67,1.67,0,0,1,.22-.88,1.85,1.85,0,0,1,.6-.58,2.65,2.65,0,0,1,.81-.33,4.5,4.5,0,0,1,.89-.1,3.14,3.14,0,0,1,.94.13,2.26,2.26,0,0,1,.77.4,2,2,0,0,1,.53.68,2.46,2.46,0,0,1,.22,1h-.82A1.53,1.53,0,0,0,865.24,215.39Z" class="cls-6"/><path d="M868.47,211.51v1.31h-.82v-1.31Zm0,2.58v6.7h-.82v-6.7Z" class="cls-6"/><path d="M875.19,220.79v-1.27h0a2,2,0,0,1-.38.6,2.61,2.61,0,0,1-.58.46,3.33,3.33,0,0,1-.7.29,2.64,2.64,0,0,1-.73.11,3,3,0,0,1-1.33-.28,2.86,2.86,0,0,1-1-.77,3.52,3.52,0,0,1-.56-1.13,5.23,5.23,0,0,1,0-2.72,3.42,3.42,0,0,1,.56-1.13,2.74,2.74,0,0,1,1-.77,2.9,2.9,0,0,1,1.33-.29,3,3,0,0,1,.73.09,2.64,2.64,0,0,1,.67.28,2.45,2.45,0,0,1,.55.46,1.88,1.88,0,0,1,.38.64h0v-3.85h.82v9.28Zm-4.49-2.32a3,3,0,0,0,.38.92,2.18,2.18,0,0,0,.69.66,1.86,1.86,0,0,0,1,.25,2.21,2.21,0,0,0,1.1-.25,2.08,2.08,0,0,0,.72-.66,2.65,2.65,0,0,0,.41-.92,4.48,4.48,0,0,0,0-2.06,2.57,2.57,0,0,0-.41-.92,2.08,2.08,0,0,0-.72-.66,2.21,2.21,0,0,0-1.1-.25,1.86,1.86,0,0,0-1,.25,2.18,2.18,0,0,0-.69.66,2.92,2.92,0,0,0-.38.92,4.15,4.15,0,0,0,0,2.06Z" class="cls-6"/><path d="M878.1,218.58a2.77,2.77,0,0,0,.4.85,2.17,2.17,0,0,0,.69.62,1.88,1.88,0,0,0,1,.25,2,2,0,0,0,1.41-.47,2.52,2.52,0,0,0,.7-1.25h.82a3.34,3.34,0,0,1-1,1.77,2.83,2.83,0,0,1-2,.63,3.22,3.22,0,0,1-1.37-.28,2.55,2.55,0,0,1-.94-.77,3.29,3.29,0,0,1-.54-1.13,5,5,0,0,1-.18-1.36,4.74,4.74,0,0,1,.18-1.3,3.52,3.52,0,0,1,.54-1.14,2.62,2.62,0,0,1,.94-.8,2.83,2.83,0,0,1,1.37-.31,2.68,2.68,0,0,1,2.31,1.18,3.38,3.38,0,0,1,.51,1.21,4.9,4.9,0,0,1,.13,1.38H878A3.75,3.75,0,0,0,878.1,218.58Zm4.06-2.51a2.56,2.56,0,0,0-.42-.76,2.14,2.14,0,0,0-.66-.53,2.1,2.1,0,0,0-1.79,0,2.14,2.14,0,0,0-.66.53,2.51,2.51,0,0,0-.43.77,4,4,0,0,0-.22.89h4.34A3,3,0,0,0,882.16,216.07Z" class="cls-6"/><path d="M888.62,214.09v1.13h0a2.66,2.66,0,0,1,.86-1,2.4,2.4,0,0,1,1.34-.35,2.26,2.26,0,0,1,1.2.33,1.61,1.61,0,0,1,.73,1,2,2,0,0,1,.88-1,2.49,2.49,0,0,1,1.25-.33c1.48,0,2.22.79,2.22,2.35v4.55h-.82v-4.51A2,2,0,0,0,896,215a1.51,1.51,0,0,0-1.23-.44,1.83,1.83,0,0,0-.89.2,1.7,1.7,0,0,0-.56.54,2.37,2.37,0,0,0-.29.77,4.47,4.47,0,0,0-.08.91v3.79h-.82v-4.55a2.67,2.67,0,0,0-.08-.64,1.34,1.34,0,0,0-.23-.53,1.17,1.17,0,0,0-.43-.36,1.54,1.54,0,0,0-.67-.13,2,2,0,0,0-.9.19,1.58,1.58,0,0,0-.62.52,2,2,0,0,0-.36.78,3.76,3.76,0,0,0-.12,1v3.74h-.82v-6.7Z" class="cls-6"/><path d="M898.81,214.09l2.21,5.72,2.06-5.72h.82L901,221.81a6.88,6.88,0,0,1-.34.71,1.76,1.76,0,0,1-.34.44,1.16,1.16,0,0,1-.44.23,2.39,2.39,0,0,1-.65.07l-.38,0a.86.86,0,0,1-.24,0v-.69l.28.05h.28a1.18,1.18,0,0,0,.45-.07,1.11,1.11,0,0,0,.3-.22,1.12,1.12,0,0,0,.22-.33l.2-.43.28-.75-2.67-6.68Z" class="cls-6"/><path d="M912.43,215a1.76,1.76,0,0,0-1.27-.43,2,2,0,0,0-1,.25,2.17,2.17,0,0,0-.73.65,2.87,2.87,0,0,0-.45.91,3.75,3.75,0,0,0,0,2.1,2.87,2.87,0,0,0,.45.91,2.17,2.17,0,0,0,.73.65,2,2,0,0,0,1,.25,1.87,1.87,0,0,0,.71-.14,1.91,1.91,0,0,0,.6-.4,2.18,2.18,0,0,0,.43-.6,2.44,2.44,0,0,0,.21-.77h.82a3.15,3.15,0,0,1-.9,1.9,2.62,2.62,0,0,1-1.87.69,3.24,3.24,0,0,1-1.36-.28,2.83,2.83,0,0,1-1-.77,3.46,3.46,0,0,1-.61-1.12,4.79,4.79,0,0,1,0-2.74,3.51,3.51,0,0,1,.61-1.13,2.92,2.92,0,0,1,1-.76,3.09,3.09,0,0,1,1.36-.29,2.89,2.89,0,0,1,1.82.57,2.42,2.42,0,0,1,.89,1.73h-.81A2.31,2.31,0,0,0,912.43,215Z" class="cls-6"/><path d="M915.24,215.13a2,2,0,0,1,.56-.71,2.51,2.51,0,0,1,.84-.4,4,4,0,0,1,1.07-.13,4.38,4.38,0,0,1,.88.09,2.16,2.16,0,0,1,.8.31,1.85,1.85,0,0,1,.57.66,2.34,2.34,0,0,1,.22,1.1v3.56a.43.43,0,0,0,.48.49.55.55,0,0,0,.26,0v.69l-.25,0h-.28a1.16,1.16,0,0,1-.5-.08.73.73,0,0,1-.3-.24.91.91,0,0,1-.13-.37,3.45,3.45,0,0,1,0-.48h0a5.86,5.86,0,0,1-.45.58,2,2,0,0,1-.51.42,2.09,2.09,0,0,1-.63.26,3.54,3.54,0,0,1-.85.1,3.07,3.07,0,0,1-.88-.12,1.94,1.94,0,0,1-.72-.35,1.72,1.72,0,0,1-.48-.61,2,2,0,0,1-.17-.87,1.71,1.71,0,0,1,.31-1.1,2,2,0,0,1,.82-.61A4.92,4.92,0,0,1,917,217l1.31-.16.45-.07a.82.82,0,0,0,.33-.13.79.79,0,0,0,.2-.27,1.1,1.1,0,0,0,.07-.44,1.54,1.54,0,0,0-.14-.69,1.15,1.15,0,0,0-.37-.42,1.63,1.63,0,0,0-.56-.21,3.66,3.66,0,0,0-.68-.06,2,2,0,0,0-1.28.37,1.46,1.46,0,0,0-.52,1.19H915A2.73,2.73,0,0,1,915.24,215.13Zm4.09,2a.51.51,0,0,1-.29.21l-.39.09-1.08.16a6.5,6.5,0,0,0-1,.21,2.06,2.06,0,0,0-.75.41,1,1,0,0,0-.29.76,1.25,1.25,0,0,0,.12.56,1.3,1.3,0,0,0,.33.41,1.42,1.42,0,0,0,.48.27,1.77,1.77,0,0,0,.56.09,3,3,0,0,0,.9-.14,2.5,2.5,0,0,0,.75-.42,1.93,1.93,0,0,0,.5-.66,2,2,0,0,0,.19-.89v-1.06Z" class="cls-6"/><path d="M922.57,214.09v1.57h0a2.48,2.48,0,0,1,2.53-1.67v.82a2.71,2.71,0,0,0-1,.15,2.37,2.37,0,0,0-.79.5,2.29,2.29,0,0,0-.51.78,2.59,2.59,0,0,0-.18,1v3.57h-.82v-6.7Z" class="cls-6"/><path d="M784,229.69l1.71,5.74h0l1.64-5.74h.92l1.64,5.74h0l1.71-5.74h.87l-2.15,6.7h-.9l-1.65-5.64h0l-1.64,5.64h-.89l-2.16-6.7Z" class="cls-6"/><path d="M797.65,229.78a3,3,0,0,1,1,.76,3.16,3.16,0,0,1,.61,1.13,4.41,4.41,0,0,1,.21,1.37,4.37,4.37,0,0,1-.21,1.37,3.16,3.16,0,0,1-.61,1.13,3,3,0,0,1-1,.76,3.44,3.44,0,0,1-2.72,0,3,3,0,0,1-1-.76,3.16,3.16,0,0,1-.61-1.13,4.37,4.37,0,0,1-.21-1.37,4.41,4.41,0,0,1,.21-1.37,3.16,3.16,0,0,1,.61-1.13,3,3,0,0,1,1-.76,3.33,3.33,0,0,1,2.72,0Zm-2.39.65a2.17,2.17,0,0,0-.73.65,2.85,2.85,0,0,0-.44.91,3.75,3.75,0,0,0,0,2.1,2.85,2.85,0,0,0,.44.91,2.17,2.17,0,0,0,.73.65,2.25,2.25,0,0,0,2.06,0,2.17,2.17,0,0,0,.73-.65,2.85,2.85,0,0,0,.44-.91,3.75,3.75,0,0,0,0-2.1,2.85,2.85,0,0,0-.44-.91,2.17,2.17,0,0,0-.73-.65,2.25,2.25,0,0,0-2.06,0Z" class="cls-6"/><path d="M805.36,236.39v-1.21h0a2.32,2.32,0,0,1-.94,1,2.71,2.71,0,0,1-1.38.36,2.91,2.91,0,0,1-1.08-.18,1.83,1.83,0,0,1-.73-.5,2.05,2.05,0,0,1-.41-.79,3.87,3.87,0,0,1-.13-1.07v-4.35h.82v4.36a2.22,2.22,0,0,0,.42,1.38,2.1,2.1,0,0,0,2.28.24,1.9,1.9,0,0,0,.63-.6,2.84,2.84,0,0,0,.36-.87,4.07,4.07,0,0,0,.12-1v-3.52h.82v6.7Z" class="cls-6"/><path d="M808.5,227.11v9.28h-.82v-9.28Z" class="cls-6"/><path d="M815.22,236.39v-1.27h0a1.74,1.74,0,0,1-.38.6,2.61,2.61,0,0,1-.58.46,3,3,0,0,1-.69.29,2.76,2.76,0,0,1-.74.11,3,3,0,0,1-1.33-.28,2.72,2.72,0,0,1-.94-.77,3.15,3.15,0,0,1-.56-1.13,5,5,0,0,1,0-2.72,3.15,3.15,0,0,1,.56-1.13,2.72,2.72,0,0,1,.94-.77,2.9,2.9,0,0,1,1.33-.29,3.06,3.06,0,0,1,.74.09,2.57,2.57,0,0,1,.66.28,2.5,2.5,0,0,1,.56.46,2.14,2.14,0,0,1,.37.64h0v-3.85H816v9.28Zm-4.49-2.32a2.72,2.72,0,0,0,.39.92,2,2,0,0,0,.68.66,1.88,1.88,0,0,0,1,.25,2.09,2.09,0,0,0,1.83-.91,2.74,2.74,0,0,0,.4-.92,4.48,4.48,0,0,0,0-2.06,2.74,2.74,0,0,0-.4-.92,2.09,2.09,0,0,0-1.83-.91,1.88,1.88,0,0,0-1,.25,2,2,0,0,0-.68.66,2.72,2.72,0,0,0-.39.92,4.15,4.15,0,0,0,0,2.06Z" class="cls-6"/><path d="M822,229.69v1.15h0a2,2,0,0,1,.83-1,2.43,2.43,0,0,1,1.31-.37,3.37,3.37,0,0,1,1.18.18,1.84,1.84,0,0,1,.76.52,1.93,1.93,0,0,1,.4.81,4.46,4.46,0,0,1,.12,1.08v4.31h-.82v-4.18a3.39,3.39,0,0,0-.08-.8,1.61,1.61,0,0,0-.27-.64,1.25,1.25,0,0,0-.53-.43,1.82,1.82,0,0,0-.82-.16,2.07,2.07,0,0,0-.88.18,1.72,1.72,0,0,0-.65.48,2.14,2.14,0,0,0-.42.72,3.06,3.06,0,0,0-.16.92v3.91h-.82v-6.7Z" class="cls-6"/><path d="M832.32,229.78a3,3,0,0,1,1,.76,3.16,3.16,0,0,1,.61,1.13,4.41,4.41,0,0,1,.21,1.37,4.37,4.37,0,0,1-.21,1.37,3.16,3.16,0,0,1-.61,1.13,3,3,0,0,1-1,.76,3.44,3.44,0,0,1-2.72,0,3,3,0,0,1-1-.76,3.33,3.33,0,0,1-.61-1.13,4.37,4.37,0,0,1-.21-1.37,4.41,4.41,0,0,1,.21-1.37,3.33,3.33,0,0,1,.61-1.13,3,3,0,0,1,1-.76,3.33,3.33,0,0,1,2.72,0Zm-2.39.65a2.17,2.17,0,0,0-.73.65,2.85,2.85,0,0,0-.44.91,3.75,3.75,0,0,0,0,2.1,2.85,2.85,0,0,0,.44.91,2.17,2.17,0,0,0,.73.65,2.25,2.25,0,0,0,2.06,0,2.17,2.17,0,0,0,.73-.65,2.85,2.85,0,0,0,.44-.91,3.75,3.75,0,0,0,0-2.1,2.85,2.85,0,0,0-.44-.91,2.17,2.17,0,0,0-.73-.65,2.25,2.25,0,0,0-2.06,0Z" class="cls-6"/><path d="M838,229.69v.69h-1.36v4.52a1.37,1.37,0,0,0,.11.63c.07.15.25.24.55.25a5.48,5.48,0,0,0,.7,0v.69l-.36,0h-.37a1.62,1.62,0,0,1-1.14-.32,1.58,1.58,0,0,1-.31-1.18v-4.58h-1.17v-.69h1.17v-2h.82v2Z" class="cls-6"/><path d="M846.68,231a1.45,1.45,0,0,0-.39-.46,1.66,1.66,0,0,0-.55-.27,2.84,2.84,0,0,0-.66-.08,2.57,2.57,0,0,0-.55.06,1.79,1.79,0,0,0-.52.19,1.06,1.06,0,0,0-.37.36,1,1,0,0,0-.15.55.78.78,0,0,0,.14.46,1.3,1.3,0,0,0,.34.32,2.78,2.78,0,0,0,.46.21c.16.06.32.1.45.14l1.1.25a2.93,2.93,0,0,1,.69.18,2.18,2.18,0,0,1,.61.36,1.84,1.84,0,0,1,.44.55,1.64,1.64,0,0,1,.17.76,1.69,1.69,0,0,1-.25.93,2.1,2.1,0,0,1-.63.63,2.77,2.77,0,0,1-.87.34,4.38,4.38,0,0,1-.94.11,3.1,3.1,0,0,1-1.92-.56,2.39,2.39,0,0,1-.84-1.8h.82a1.59,1.59,0,0,0,.6,1.26,2.21,2.21,0,0,0,1.37.42,3.34,3.34,0,0,0,.62-.06,2,2,0,0,0,.59-.23,1.41,1.41,0,0,0,.45-.39,1,1,0,0,0,.18-.59.87.87,0,0,0-.13-.5,1,1,0,0,0-.33-.34,2.06,2.06,0,0,0-.47-.23l-.54-.16-1.06-.23a7.14,7.14,0,0,1-.74-.24,2.28,2.28,0,0,1-.59-.34,1.33,1.33,0,0,1-.39-.49,1.59,1.59,0,0,1-.15-.72,1.61,1.61,0,0,1,.23-.87,1.75,1.75,0,0,1,.59-.59,2.59,2.59,0,0,1,.81-.32,4,4,0,0,1,.9-.11,3.19,3.19,0,0,1,.94.13,2.35,2.35,0,0,1,.77.4,2.06,2.06,0,0,1,.52.68,2.46,2.46,0,0,1,.22,1h-.82A1.69,1.69,0,0,0,846.68,231Z" class="cls-6"/><path d="M851.73,229.69v.69h-1.36v4.52a1.52,1.52,0,0,0,.11.63c.07.15.26.24.55.25a5.37,5.37,0,0,0,.7,0v.69l-.36,0H851a1.65,1.65,0,0,1-1.15-.32,1.62,1.62,0,0,1-.31-1.18v-4.58h-1.17v-.69h1.17v-2h.82v2Z" class="cls-6"/><path d="M853.09,230.73a1.87,1.87,0,0,1,.56-.71,2.51,2.51,0,0,1,.84-.4,4,4,0,0,1,1.07-.13,4.38,4.38,0,0,1,.88.09,2.11,2.11,0,0,1,.79.31,1.67,1.67,0,0,1,.57.66,2.33,2.33,0,0,1,.23,1.1v3.56a.43.43,0,0,0,.48.49.58.58,0,0,0,.26,0v.69l-.26,0h-.28a1.22,1.22,0,0,1-.5-.08.76.76,0,0,1-.29-.24,1,1,0,0,1-.14-.37,3.43,3.43,0,0,1,0-.48h0a5.86,5.86,0,0,1-.45.58,2.33,2.33,0,0,1-.51.43,2.44,2.44,0,0,1-.64.25,3,3,0,0,1-.85.1,3.6,3.6,0,0,1-.88-.11,2.07,2.07,0,0,1-.71-.36,1.72,1.72,0,0,1-.48-.61,2,2,0,0,1-.18-.87,1.72,1.72,0,0,1,.32-1.1,1.89,1.89,0,0,1,.82-.61,4.8,4.8,0,0,1,1.16-.29l1.3-.16a4.12,4.12,0,0,0,.46-.07.72.72,0,0,0,.32-.13.71.71,0,0,0,.21-.27,1.31,1.31,0,0,0,.07-.44,1.46,1.46,0,0,0-.14-.68,1.13,1.13,0,0,0-.38-.43,1.56,1.56,0,0,0-.56-.21,3.66,3.66,0,0,0-.68-.06,2,2,0,0,0-1.27.37,1.43,1.43,0,0,0-.52,1.19h-.82A2.73,2.73,0,0,1,853.09,230.73Zm4.09,2a.51.51,0,0,1-.3.21l-.39.09-1.07.16a6.64,6.64,0,0,0-1,.21,2.24,2.24,0,0,0-.75.41,1,1,0,0,0-.29.76,1.13,1.13,0,0,0,.13.56,1.2,1.2,0,0,0,.33.41,1.42,1.42,0,0,0,.48.27,1.77,1.77,0,0,0,.56.09,2.91,2.91,0,0,0,.89-.14,2.28,2.28,0,0,0,.75-.42,2.09,2.09,0,0,0,.51-.66,2.11,2.11,0,0,0,.19-.89v-1.06Z" class="cls-6"/><path d="M860.42,229.69v1.57h0a2.53,2.53,0,0,1,1-1.26,2.48,2.48,0,0,1,1.57-.4v.81a2.8,2.8,0,0,0-1,.15,2.43,2.43,0,0,0-.78.5,2.29,2.29,0,0,0-.51.78,2.41,2.41,0,0,0-.19,1v3.57h-.82v-6.7Z" class="cls-6"/><path d="M866.42,229.69v.69h-1.36v4.52a1.52,1.52,0,0,0,.11.63c.07.15.26.24.55.25a5.37,5.37,0,0,0,.7,0v.69l-.36,0h-.36a1.65,1.65,0,0,1-1.15-.32,1.58,1.58,0,0,1-.31-1.18v-4.58h-1.17v-.69h1.17v-2h.82v2Z" class="cls-6"/><path d="M871.39,230.73A2,2,0,0,1,872,230a2.37,2.37,0,0,1,.83-.4,4,4,0,0,1,1.07-.13,4.38,4.38,0,0,1,.88.09,2.16,2.16,0,0,1,.8.31,1.85,1.85,0,0,1,.57.66,2.34,2.34,0,0,1,.22,1.1v3.56a.43.43,0,0,0,.48.49.55.55,0,0,0,.26,0v.69l-.25,0h-.28a1.16,1.16,0,0,1-.5-.08.73.73,0,0,1-.3-.24.86.86,0,0,1-.13-.37,3.43,3.43,0,0,1,0-.48h0a5.86,5.86,0,0,1-.45.58,2.33,2.33,0,0,1-.51.43,2.24,2.24,0,0,1-.63.25,3.1,3.1,0,0,1-.85.1,3.48,3.48,0,0,1-.88-.11,2.21,2.21,0,0,1-.72-.36,1.72,1.72,0,0,1-.48-.61,2.11,2.11,0,0,1-.17-.87,1.71,1.71,0,0,1,.31-1.1,2,2,0,0,1,.82-.61,4.92,4.92,0,0,1,1.16-.29l1.31-.16.45-.07a.82.82,0,0,0,.33-.13.79.79,0,0,0,.2-.27,1.1,1.1,0,0,0,.07-.44,1.46,1.46,0,0,0-.14-.68,1.11,1.11,0,0,0-.37-.43,1.63,1.63,0,0,0-.56-.21,3.69,3.69,0,0,0-.69-.06,2.06,2.06,0,0,0-1.27.37,1.46,1.46,0,0,0-.52,1.19h-.82A2.73,2.73,0,0,1,871.39,230.73Zm4.09,2a.51.51,0,0,1-.29.21l-.4.09-1.07.16a6.9,6.9,0,0,0-1,.21,2.1,2.1,0,0,0-.74.41,1,1,0,0,0-.3.76,1.25,1.25,0,0,0,.13.56,1.2,1.2,0,0,0,.33.41,1.42,1.42,0,0,0,.48.27,1.77,1.77,0,0,0,.56.09,3,3,0,0,0,.9-.14,2.34,2.34,0,0,0,.74-.42,1.84,1.84,0,0,0,.51-.66,2,2,0,0,0,.19-.89v-1.06Z" class="cls-6"/><path d="M880.63,229.69v.69h-1.36v4.52a1.37,1.37,0,0,0,.11.63c.07.15.26.24.55.25a5.48,5.48,0,0,0,.7,0v.69l-.36,0h-.37a1.63,1.63,0,0,1-1.14-.32,1.58,1.58,0,0,1-.31-1.18v-4.58h-1.17v-.69h1.17v-2h.82v2Z" class="cls-6"/><path d="M885.6,230.73a2,2,0,0,1,.56-.71,2.51,2.51,0,0,1,.84-.4,4,4,0,0,1,1.07-.13,4.38,4.38,0,0,1,.88.09,2.16,2.16,0,0,1,.8.31,1.85,1.85,0,0,1,.57.66,2.47,2.47,0,0,1,.22,1.1v3.56a.43.43,0,0,0,.48.49.58.58,0,0,0,.26,0v.69l-.25,0h-.28a1.16,1.16,0,0,1-.5-.08.73.73,0,0,1-.3-.24.86.86,0,0,1-.13-.37,2.33,2.33,0,0,1,0-.48h0a5.86,5.86,0,0,1-.45.58,2.33,2.33,0,0,1-.51.43,2.37,2.37,0,0,1-.63.25,3.13,3.13,0,0,1-.86.1,3.45,3.45,0,0,1-.87-.11,2,2,0,0,1-.72-.36,1.72,1.72,0,0,1-.48-.61,2,2,0,0,1-.18-.87,1.72,1.72,0,0,1,.32-1.1,1.89,1.89,0,0,1,.82-.61,4.8,4.8,0,0,1,1.16-.29l1.31-.16.45-.07a.82.82,0,0,0,.33-.13.79.79,0,0,0,.2-.27,1.31,1.31,0,0,0,.07-.44,1.46,1.46,0,0,0-.14-.68,1.11,1.11,0,0,0-.37-.43,1.71,1.71,0,0,0-.56-.21,3.77,3.77,0,0,0-.69-.06,2,2,0,0,0-1.27.37,1.46,1.46,0,0,0-.52,1.19h-.82A2.73,2.73,0,0,1,885.6,230.73Zm4.09,2a.51.51,0,0,1-.3.21L889,233l-1.07.16a6.9,6.9,0,0,0-1,.21,2.1,2.1,0,0,0-.74.41,1,1,0,0,0-.3.76,1.13,1.13,0,0,0,.13.56,1.2,1.2,0,0,0,.33.41,1.42,1.42,0,0,0,.48.27,1.77,1.77,0,0,0,.56.09,3,3,0,0,0,.9-.14,2.34,2.34,0,0,0,.74-.42,2,2,0,0,0,.7-1.55v-1.06Z" class="cls-6"/><path d="M893,227.11v9.28h-.82v-9.28Z" class="cls-6"/><path d="M895.41,227.11v9.28h-.82v-9.28Z" class="cls-6"/><path d="M897.47,235h1.09v1.37h-1.09Z" class="cls-6"/><circle cx="792.7" cy="257.42" r="7.25" class="cls-6"/><circle cx="818.29" cy="257.42" r="7.25" class="cls-6"/><circle cx="842.27" cy="257.42" r="7.25" class="cls-6"/><circle cx="984.19" cy="852.98" r="24.74" class="cls-3"/><circle cx="984.69" cy="852.97" r="24.68" class="cls-7"/><circle cx="985.18" cy="852.96" r="24.63" class="cls-8"/><circle cx="985.68" cy="852.96" r="24.58" class="cls-9"/><circle cx="986.18" cy="852.95" r="24.52" class="cls-10"/><circle cx="986.67" cy="852.94" r="24.47" class="cls-11"/><circle cx="987.17" cy="852.94" r="24.42" class="cls-12"/><circle cx="987.66" cy="852.93" r="24.36" class="cls-13"/><circle cx="988.16" cy="852.92" r="24.31" class="cls-14"/><circle cx="988.65" cy="852.91" r="24.26" class="cls-15"/><circle cx="989.15" cy="852.91" r="24.2" class="cls-16"/><circle cx="989.65" cy="852.9" r="24.15" class="cls-17"/><circle cx="990.14" cy="852.89" r="24.1" class="cls-18"/><circle cx="990.64" cy="852.88" r="24.04" class="cls-19"/><circle cx="991.13" cy="852.88" r="23.99" class="cls-20"/><circle cx="991.63" cy="852.87" r="23.94" class="cls-21"/><circle cx="992.12" cy="852.86" r="23.88" class="cls-22"/><circle cx="992.62" cy="852.85" r="23.83" class="cls-23"/><circle cx="993.12" cy="852.85" r="23.77" class="cls-24"/><circle cx="993.61" cy="852.84" r="23.72" class="cls-25"/><circle cx="994.11" cy="852.83" r="23.67" class="cls-26"/><circle cx="994.6" cy="852.83" r="23.61" class="cls-27"/><circle cx="995.1" cy="852.82" r="23.56" class="cls-28"/><circle cx="995.59" cy="852.81" r="23.51" class="cls-29"/><circle cx="996.09" cy="852.8" r="23.45" class="cls-30"/><circle cx="996.59" cy="852.8" r="23.4" class="cls-31"/><circle cx="997.08" cy="852.79" r="23.35" class="cls-32"/><circle cx="997.58" cy="852.78" r="23.29" class="cls-33"/><circle cx="998.07" cy="852.77" r="23.24" class="cls-34"/><circle cx="998.57" cy="852.77" r="23.19" class="cls-35"/><circle cx="999.07" cy="852.76" r="23.13" class="cls-36"/><circle cx="999.56" cy="852.75" r="23.08" class="cls-37"/><circle cx="1000.06" cy="852.74" r="23.03" class="cls-38"/><circle cx="1000.55" cy="852.74" r="22.97" class="cls-39"/><circle cx="1001.05" cy="852.73" r="22.92" class="cls-40"/><circle cx="1001.54" cy="852.72" r="22.87" class="cls-41"/><circle cx="1002.04" cy="852.72" r="22.81" class="cls-42"/><circle cx="1002.54" cy="852.71" r="22.76" class="cls-43"/><circle cx="1003.03" cy="852.7" r="22.71" class="cls-44"/><circle cx="1003.53" cy="852.69" r="22.65" class="cls-45"/><circle cx="1004.02" cy="852.69" r="22.6" class="cls-46"/><circle cx="1004.52" cy="852.68" r="22.55" class="cls-47"/><circle cx="1005.01" cy="852.67" r="22.49" class="cls-48"/><circle cx="1005.51" cy="852.66" r="22.44" class="cls-49"/><circle cx="1006.01" cy="852.66" r="22.39" class="cls-50"/><circle cx="1006.5" cy="852.65" r="22.33" class="cls-51"/><circle cx="1007" cy="852.64" r="22.28" class="cls-52"/><circle cx="1007.49" cy="852.63" r="22.23" class="cls-53"/><circle cx="1007.99" cy="852.63" r="22.17" class="cls-54"/><circle cx="1008.48" cy="852.62" r="22.12" class="cls-55"/><circle cx="1008.98" cy="852.61" r="22.06" class="cls-56"/><circle cx="1009.48" cy="852.61" r="22.01" class="cls-57"/><circle cx="1009.97" cy="852.6" r="21.96" class="cls-58"/><circle cx="1010.47" cy="852.59" r="21.9" class="cls-59"/><circle cx="1010.96" cy="852.58" r="21.85" class="cls-60"/><circle cx="1011.46" cy="852.58" r="21.8" class="cls-61"/><circle cx="1011.95" cy="852.57" r="21.74" class="cls-62"/><circle cx="1012.45" cy="852.56" r="21.69" class="cls-63"/><circle cx="1012.95" cy="852.55" r="21.64" class="cls-64"/><circle cx="1013.44" cy="852.55" r="21.58" class="cls-65"/><circle cx="1013.94" cy="852.54" r="21.53" class="cls-66"/><circle cx="1014.43" cy="852.53" r="21.48" class="cls-67"/><circle cx="1014.93" cy="852.52" r="21.42" class="cls-68"/><circle cx="1015.42" cy="852.52" r="21.37" class="cls-68"/><circle cx="1015.92" cy="852.51" r="21.32" class="cls-69"/><circle cx="1016.42" cy="852.5" r="21.26" class="cls-70"/><circle cx="1016.91" cy="852.5" r="21.21" class="cls-71"/><circle cx="1017.41" cy="852.49" r="21.16" class="cls-72"/><circle cx="1017.9" cy="852.48" r="21.1" class="cls-73"/><circle cx="1018.4" cy="852.47" r="21.05" class="cls-73"/><circle cx="1018.89" cy="852.47" r="21" class="cls-74"/><circle cx="1019.39" cy="852.46" r="20.94" class="cls-75"/><circle cx="1019.89" cy="852.45" r="20.89" class="cls-75"/><circle cx="1020.38" cy="852.44" r="20.84" class="cls-76"/><circle cx="1020.88" cy="852.44" r="20.78" class="cls-77"/><circle cx="1021.37" cy="852.43" r="20.73" class="cls-78"/><circle cx="1021.87" cy="852.42" r="20.68" class="cls-79"/><circle cx="1022.37" cy="852.41" r="20.62" class="cls-80"/><circle cx="1022.86" cy="852.41" r="20.57" class="cls-80"/><circle cx="1023.36" cy="852.4" r="20.52" class="cls-81"/><circle cx="1023.85" cy="852.39" r="20.46" class="cls-82"/><circle cx="1024.35" cy="852.39" r="20.41" class="cls-83"/><circle cx="1024.84" cy="852.38" r="20.36" class="cls-84"/><circle cx="1025.34" cy="852.37" r="20.3" class="cls-85"/><circle cx="1025.84" cy="852.36" r="20.25" class="cls-86"/><circle cx="1026.33" cy="852.36" r="20.19" class="cls-87"/><circle cx="1026.83" cy="852.35" r="20.14" class="cls-88"/><circle cx="1027.32" cy="852.34" r="20.09" class="cls-89"/><circle cx="1027.82" cy="852.33" r="20.03" class="cls-90"/><circle cx="1028.31" cy="852.33" r="19.98" class="cls-91"/><circle cx="1028.81" cy="852.32" r="19.93" class="cls-91"/><circle cx="1029.31" cy="852.31" r="19.87" class="cls-92"/><circle cx="1029.8" cy="852.3" r="19.82" class="cls-93"/><circle cx="1030.3" cy="852.3" r="19.77" class="cls-94"/><circle cx="1030.79" cy="852.29" r="19.71" class="cls-95"/><circle cx="1031.29" cy="852.28" r="19.66" class="cls-96"/><circle cx="1031.78" cy="852.28" r="19.61" class="cls-97"/><circle cx="1032.28" cy="852.27" r="19.55" class="cls-97"/><circle cx="1032.78" cy="852.26" r="19.5" class="cls-98"/><circle cx="1033.27" cy="852.25" r="19.45" class="cls-98"/><circle cx="1033.77" cy="852.25" r="19.39" class="cls-99"/><circle cx="1034.26" cy="852.24" r="19.34" class="cls-100"/><circle cx="1034.76" cy="852.23" r="19.29" class="cls-101"/><circle cx="1035.25" cy="852.22" r="19.23" class="cls-102"/><circle cx="1035.75" cy="852.22" r="19.18" class="cls-102"/><circle cx="1036.25" cy="852.21" r="19.13" class="cls-103"/><circle cx="1036.74" cy="852.2" r="19.07" class="cls-103"/><circle cx="1037.24" cy="852.19" r="19.02" class="cls-104"/><circle cx="1037.73" cy="852.19" r="18.97" class="cls-105"/><circle cx="1038.23" cy="852.18" r="18.91" class="cls-106"/><circle cx="1038.72" cy="852.17" r="18.86" class="cls-107"/><circle cx="1039.22" cy="852.17" r="18.81" class="cls-108"/><circle cx="1039.72" cy="852.16" r="18.75" class="cls-109"/><circle cx="1040.21" cy="852.15" r="18.7" class="cls-110"/><circle cx="1040.71" cy="852.14" r="18.65" class="cls-110"/><circle cx="1041.2" cy="852.14" r="18.59" class="cls-111"/><circle cx="1041.7" cy="852.13" r="18.54" class="cls-111"/><circle cx="1042.19" cy="852.12" r="18.49" class="cls-112"/><circle cx="1042.69" cy="852.11" r="18.43" class="cls-113"/><circle cx="1043.19" cy="852.11" r="18.38" class="cls-114"/><circle cx="1043.68" cy="852.1" r="18.32" class="cls-115"/><circle cx="1044.18" cy="852.09" r="18.27" class="cls-116"/><circle cx="1044.67" cy="852.08" r="18.22" class="cls-117"/><circle cx="1045.17" cy="852.08" r="18.16" class="cls-118"/><circle cx="1045.67" cy="852.07" r="18.11" class="cls-119"/><circle cx="1046.16" cy="852.06" r="18.06" class="cls-120"/><circle cx="1046.66" cy="852.06" r="18" class="cls-121"/><circle cx="1047.15" cy="852.05" r="17.95" class="cls-122"/><circle cx="1047.65" cy="852.04" r="17.9" class="cls-123"/><circle cx="1048.14" cy="852.03" r="17.84" class="cls-124"/><circle cx="1048.64" cy="852.03" r="17.79" class="cls-125"/><circle cx="1049.14" cy="852.02" r="17.74" class="cls-126"/><circle cx="1049.63" cy="852.01" r="17.68" class="cls-127"/><circle cx="1050.13" cy="852" r="17.63" class="cls-128"/><circle cx="1050.62" cy="852" r="17.58" class="cls-129"/><circle cx="1051.12" cy="851.99" r="17.52" class="cls-130"/><circle cx="1051.61" cy="851.98" r="17.47" class="cls-131"/><circle cx="1052.11" cy="851.97" r="17.42" class="cls-131"/><circle cx="1052.61" cy="851.97" r="17.36" class="cls-132"/><circle cx="1053.1" cy="851.96" r="17.31" class="cls-133"/><circle cx="1053.6" cy="851.95" r="17.26" class="cls-134"/><circle cx="1054.09" cy="851.95" r="17.2" class="cls-135"/><circle cx="1054.59" cy="851.94" r="17.15" class="cls-136"/><circle cx="1055.08" cy="851.93" r="17.1" class="cls-137"/><circle cx="1055.58" cy="851.92" r="17.04" class="cls-138"/><circle cx="1056.08" cy="851.92" r="16.99" class="cls-138"/><circle cx="1056.57" cy="851.91" r="16.94" class="cls-139"/><circle cx="1057.07" cy="851.9" r="16.88" class="cls-140"/><circle cx="1057.56" cy="851.89" r="16.83" class="cls-141"/><circle cx="1058.06" cy="851.89" r="16.78" class="cls-142"/><circle cx="1058.55" cy="851.88" r="16.72" class="cls-143"/><circle cx="1059.05" cy="851.87" r="16.67" class="cls-144"/><circle cx="1059.55" cy="851.86" r="16.61" class="cls-145"/><circle cx="1060.04" cy="851.86" r="16.56" class="cls-146"/><circle cx="1060.54" cy="851.85" r="16.51" class="cls-147"/><circle cx="1061.03" cy="851.84" r="16.45" class="cls-148"/><circle cx="1061.53" cy="851.84" r="16.4" class="cls-149"/><circle cx="1062.02" cy="851.83" r="16.35" class="cls-150"/><circle cx="1062.52" cy="851.82" r="16.29" class="cls-151"/><circle cx="1063.02" cy="851.81" r="16.24" class="cls-152"/><circle cx="1063.51" cy="851.81" r="16.19" class="cls-153"/><circle cx="1064.01" cy="851.8" r="16.13" class="cls-154"/><circle cx="1064.5" cy="851.79" r="16.08" class="cls-154"/><circle cx="1065" cy="851.78" r="16.03" class="cls-155"/><circle cx="1065.5" cy="851.78" r="15.97" class="cls-156"/><circle cx="1065.99" cy="851.77" r="15.92" class="cls-157"/><circle cx="1066.49" cy="851.76" r="15.87" class="cls-158"/><circle cx="1066.98" cy="851.75" r="15.81" class="cls-159"/><circle cx="1067.48" cy="851.75" r="15.76" class="cls-160"/><circle cx="1067.97" cy="851.74" r="15.71" class="cls-161"/><circle cx="1068.47" cy="851.73" r="15.65" class="cls-162"/><circle cx="1068.97" cy="851.73" r="15.6" class="cls-163"/><circle cx="1069.46" cy="851.72" r="15.55" class="cls-164"/><circle cx="1069.96" cy="851.71" r="15.49" class="cls-165"/><circle cx="1070.45" cy="851.7" r="15.44" class="cls-166"/><circle cx="1070.95" cy="851.7" r="15.39" class="cls-167"/><circle cx="1071.44" cy="851.69" r="15.33" class="cls-168"/><circle cx="1071.94" cy="851.68" r="15.28" class="cls-169"/><circle cx="1072.44" cy="851.67" r="15.23" class="cls-170"/><circle cx="1072.93" cy="851.67" r="15.17" class="cls-171"/><circle cx="1073.43" cy="851.66" r="15.12" class="cls-172"/><circle cx="1073.92" cy="851.65" r="15.07" class="cls-172"/><circle cx="1074.42" cy="851.64" r="15.01" class="cls-173"/><circle cx="1074.91" cy="851.64" r="14.96" class="cls-174"/><circle cx="1075.41" cy="851.63" r="14.91" class="cls-175"/><circle cx="1075.91" cy="851.62" r="14.85" class="cls-176"/><circle cx="1076.4" cy="851.62" r="14.8" class="cls-177"/><circle cx="1076.9" cy="851.61" r="14.74" class="cls-178"/><circle cx="1077.39" cy="851.6" r="14.69" class="cls-179"/><circle cx="1077.89" cy="851.59" r="14.64" class="cls-180"/><circle cx="1078.38" cy="851.59" r="14.58" class="cls-181"/><circle cx="1078.88" cy="851.58" r="14.53" class="cls-182"/><circle cx="1079.38" cy="851.57" r="14.48" class="cls-183"/><circle cx="1079.87" cy="851.56" r="14.42" class="cls-184"/><circle cx="1080.37" cy="851.56" r="14.37" class="cls-185"/><circle cx="1080.86" cy="851.55" r="14.32" class="cls-186"/><circle cx="1081.36" cy="851.54" r="14.26" class="cls-187"/><circle cx="1081.85" cy="851.53" r="14.21" class="cls-188"/><circle cx="1082.35" cy="851.53" r="14.16" class="cls-189"/><circle cx="1082.85" cy="851.52" r="14.1" class="cls-190"/><circle cx="1083.34" cy="851.51" r="14.05" class="cls-191"/><circle cx="1083.84" cy="851.51" r="14" class="cls-192"/><circle cx="1084.33" cy="851.5" r="13.94" class="cls-193"/><circle cx="1084.83" cy="851.49" r="13.89" class="cls-194"/><circle cx="1085.32" cy="851.48" r="13.84" class="cls-195"/><circle cx="1085.82" cy="851.48" r="13.78" class="cls-196"/><circle cx="1086.32" cy="851.47" r="13.73" class="cls-197"/><circle cx="1086.81" cy="851.46" r="13.68" class="cls-198"/><circle cx="1087.31" cy="851.45" r="13.62" class="cls-199"/><circle cx="1087.8" cy="851.45" r="13.57" class="cls-200"/><circle cx="1088.3" cy="851.44" r="13.52" class="cls-201"/><circle cx="1088.8" cy="851.43" r="13.46" class="cls-202"/><circle cx="1089.29" cy="851.42" r="13.41" class="cls-203"/><circle cx="1089.79" cy="851.42" r="13.36" class="cls-204"/><circle cx="1090.28" cy="851.41" r="13.3" class="cls-205"/><circle cx="1090.78" cy="851.4" r="13.25" class="cls-206"/><circle cx="1091.27" cy="851.4" r="13.2" class="cls-207"/><circle cx="1091.77" cy="851.39" r="13.14" class="cls-208"/><circle cx="1092.27" cy="851.38" r="13.09" class="cls-209"/><circle cx="1092.76" cy="851.37" r="13.03" class="cls-210"/><circle cx="1093.26" cy="851.37" r="12.98" class="cls-211"/><circle cx="1093.75" cy="851.36" r="12.93" class="cls-212"/><circle cx="1094.25" cy="851.35" r="12.87" class="cls-213"/><circle cx="1094.74" cy="851.34" r="12.82" class="cls-214"/><circle cx="1095.24" cy="851.34" r="12.77" class="cls-215"/><circle cx="1095.74" cy="851.33" r="12.71" class="cls-216"/><circle cx="1096.23" cy="851.32" r="12.66" class="cls-217"/><circle cx="1096.73" cy="851.31" r="12.61" class="cls-218"/><circle cx="1097.22" cy="851.31" r="12.55" class="cls-219"/><circle cx="1097.72" cy="851.3" r="12.5" class="cls-220"/><circle cx="1098.21" cy="851.29" r="12.45" class="cls-221"/><circle cx="1098.71" cy="851.29" r="12.39" class="cls-222"/><circle cx="1099.21" cy="851.28" r="12.34" class="cls-223"/><circle cx="1099.7" cy="851.27" r="12.29" class="cls-224"/><circle cx="1100.2" cy="851.26" r="12.23" class="cls-225"/><circle cx="1100.69" cy="851.26" r="12.18" class="cls-226"/><circle cx="1101.19" cy="851.25" r="12.13" class="cls-227"/><circle cx="1101.68" cy="851.24" r="12.07" class="cls-228"/><circle cx="1102.18" cy="851.23" r="12.02" class="cls-229"/><circle cx="1102.68" cy="851.23" r="11.97" class="cls-230"/><circle cx="1103.17" cy="851.22" r="11.91" class="cls-231"/><circle cx="1103.67" cy="851.21" r="11.86" class="cls-232"/><circle cx="1104.16" cy="851.2" r="11.81" class="cls-233"/><circle cx="1104.66" cy="851.2" r="11.75" class="cls-234"/><circle cx="1105.15" cy="851.19" r="11.7" class="cls-235"/><circle cx="1105.65" cy="851.18" r="11.65" class="cls-236"/><circle cx="1106.15" cy="851.18" r="11.59" class="cls-237"/><circle cx="1106.64" cy="851.17" r="11.54" class="cls-238"/><circle cx="1107.14" cy="851.16" r="11.49" class="cls-239"/><circle cx="1107.63" cy="851.15" r="11.43" class="cls-240"/><circle cx="1108.13" cy="851.15" r="11.38" class="cls-241"/><circle cx="1108.62" cy="851.14" r="11.33" class="cls-4"/></svg>