<svg xmlns="http://www.w3.org/2000/svg" viewBox="0 0 444.55 266.91"><defs><style>.cls-1{fill:#f5f7f9;}</style></defs><g id="Layer_3" data-name="Layer 3"><rect class="cls-1" width="444.55" height="266.91"/><path d="M243.61,129.42a12,12,0,0,0,4.76.9,12.43,12.43,0,0,0,5-.93,9,9,0,0,0,3.53-2.78l-2.15-2.26a.94.94,0,0,0-.37-.24A1,1,0,0,0,254,124a1.07,1.07,0,0,0-.46.11,2.26,2.26,0,0,0-.42.26,5.66,5.66,0,0,1-.94.71,4.43,4.43,0,0,1-1,.45,5.24,5.24,0,0,1-1.14.24,11.25,11.25,0,0,1-1.35.07,5.81,5.81,0,0,1-2.39-.49,5.57,5.57,0,0,1-2-1.45,6.9,6.9,0,0,1-1.32-2.34,9.5,9.5,0,0,1-.49-3.19,10.58,10.58,0,0,1,.44-3.16,6.58,6.58,0,0,1,1.25-2.33,5.31,5.31,0,0,1,1.92-1.45,6,6,0,0,1,2.45-.5,7.15,7.15,0,0,1,2.59.44,6.12,6.12,0,0,1,.81.4l.63.4a4.6,4.6,0,0,0,.55.31,1.13,1.13,0,0,0,.54.13,1.07,1.07,0,0,0,.67-.18,2.33,2.33,0,0,0,.42-.41l1.82-2.45a9.38,9.38,0,0,0-1.5-1.25,9.85,9.85,0,0,0-1.85-1,12.25,12.25,0,0,0-4.65-.87,12.28,12.28,0,0,0-4.72.88,10.87,10.87,0,0,0-3.67,2.46,11.13,11.13,0,0,0-2.39,3.77,13,13,0,0,0-.85,4.79,13.81,13.81,0,0,0,.79,4.75,11,11,0,0,0,2.24,3.77A10.36,10.36,0,0,0,243.61,129.42Z"/><path d="M272.81,118.19a7.46,7.46,0,0,0-4.39-4.38,9.66,9.66,0,0,0-3.44-.59,9.77,9.77,0,0,0-3.46.59,7.5,7.5,0,0,0-4.44,4.38,9.67,9.67,0,0,0-.61,3.54,9.89,9.89,0,0,0,.61,3.58,7.51,7.51,0,0,0,4.44,4.41,9.55,9.55,0,0,0,3.46.6,9.45,9.45,0,0,0,3.44-.6,7.47,7.47,0,0,0,4.39-4.41,9.88,9.88,0,0,0,.62-3.58A9.67,9.67,0,0,0,272.81,118.19Zm-5.31,7.24a2.81,2.81,0,0,1-2.52,1.21,2.9,2.9,0,0,1-2.58-1.21,8.7,8.7,0,0,1,0-7.33,2.91,2.91,0,0,1,2.58-1.2,2.83,2.83,0,0,1,2.52,1.2,8.7,8.7,0,0,1,0,7.33Z"/><path d="M279.86,118.23a6,6,0,0,1,1.39-.94,3.42,3.42,0,0,1,1.52-.34,2,2,0,0,1,1.65.68,2.9,2.9,0,0,1,.56,1.89v10.55h5V119.52a8.21,8.21,0,0,0-.37-2.52,5.61,5.61,0,0,0-1.09-2,5,5,0,0,0-1.76-1.31,5.92,5.92,0,0,0-2.41-.47,6.87,6.87,0,0,0-1.48.15,6.31,6.31,0,0,0-1.27.42,5.67,5.67,0,0,0-1.09.64,12.94,12.94,0,0,0-1,.84l-.29-1a1.17,1.17,0,0,0-1.22-.84H274.9v16.6h5Z"/><path d="M298.77,126.53a1.68,1.68,0,0,1-.64.33,3.38,3.38,0,0,1-1,.12,4.32,4.32,0,0,1-1.36-.19,6.27,6.27,0,0,1-.93-.42l-.74-.42a1.67,1.67,0,0,0-.78-.19,1.36,1.36,0,0,0-.76.19,1.47,1.47,0,0,0-.49.5L291,128.27a6.14,6.14,0,0,0,1.15.81,9.23,9.23,0,0,0,1.46.65,11.29,11.29,0,0,0,1.64.43,8.89,8.89,0,0,0,1.7.16,10.12,10.12,0,0,0,3-.41,6.35,6.35,0,0,0,2.19-1.17,4.88,4.88,0,0,0,1.34-1.79,5.68,5.68,0,0,0,.45-2.27,4.11,4.11,0,0,0-.33-1.73,3.91,3.91,0,0,0-.87-1.23,5.67,5.67,0,0,0-1.24-.85c-.45-.22-.92-.42-1.4-.6s-1-.32-1.41-.46a10.81,10.81,0,0,1-1.23-.44,2.75,2.75,0,0,1-.88-.54,1,1,0,0,1-.32-.76,1.14,1.14,0,0,1,.5-1,2.48,2.48,0,0,1,1.45-.36,4.2,4.2,0,0,1,1.17.15,8.14,8.14,0,0,1,.92.33l.76.32a1.62,1.62,0,0,0,.7.16,1.12,1.12,0,0,0,.55-.13,1.31,1.31,0,0,0,.41-.43l1.12-1.75a6.56,6.56,0,0,0-1.07-.85,7.41,7.41,0,0,0-1.35-.68,9.26,9.26,0,0,0-1.57-.45,9.87,9.87,0,0,0-4.62.26,6.08,6.08,0,0,0-2,1.15,4.54,4.54,0,0,0-1.23,1.67,5.05,5.05,0,0,0-.41,2,4.86,4.86,0,0,0,.34,1.93,4.2,4.2,0,0,0,.88,1.36,4.9,4.9,0,0,0,1.24.91,10.91,10.91,0,0,0,1.41.61c.48.17,1,.33,1.42.46a11.1,11.1,0,0,1,1.24.43,3.09,3.09,0,0,1,.88.55,1.08,1.08,0,0,1,.34.82,1.24,1.24,0,0,1-.47,1Z"/><path d="M310.82,130.32a6.87,6.87,0,0,0,1.48-.15,7,7,0,0,0,1.27-.41,6,6,0,0,0,1.09-.65,9.58,9.58,0,0,0,1-.84l.29,1a1.17,1.17,0,0,0,1.22.84h3.07v-16.6h-5V125.3a5.93,5.93,0,0,1-1.39.93,3.43,3.43,0,0,1-1.52.35,2,2,0,0,1-1.65-.67,2.88,2.88,0,0,1-.56-1.91V113.47h-5V124a8.14,8.14,0,0,0,.37,2.53,5.75,5.75,0,0,0,1.08,2,4.93,4.93,0,0,0,1.77,1.32A5.73,5.73,0,0,0,310.82,130.32Z"/><path d="M345.08,114.87a5,5,0,0,0-1.84-1.23,7.1,7.1,0,0,0-2.53-.42,7.32,7.32,0,0,0-1.54.16,6.77,6.77,0,0,0-1.48.49,5.51,5.51,0,0,0-1.29.89,4.79,4.79,0,0,0-1,1.31,4.81,4.81,0,0,0-1.5-2.08,3.91,3.91,0,0,0-2.48-.77,5.44,5.44,0,0,0-1.32.15,5,5,0,0,0-1.12.42,5.16,5.16,0,0,0-1,.62,8,8,0,0,0-.86.79l-.28-.89a1.16,1.16,0,0,0-1.21-.84h-3.08v16.6h5v-12a4.77,4.77,0,0,1,1.13-.82,2.82,2.82,0,0,1,1.27-.3,2.2,2.2,0,0,1,1.65.57,2.81,2.81,0,0,1,.56,2v10.55h5V119.52a2.56,2.56,0,0,1,.67-1.91,2.27,2.27,0,0,1,1.67-.66c1.47,0,2.21.85,2.21,2.57v10.55h5V119.52a8.41,8.41,0,0,0-.39-2.66A5.18,5.18,0,0,0,345.08,114.87Z"/><path d="M361.45,115.22a6.51,6.51,0,0,0-2.35-1.49,8.57,8.57,0,0,0-3-.51,8.65,8.65,0,0,0-3.42.65,7.65,7.65,0,0,0-4.21,4.39,8.71,8.71,0,0,0-.57,3.15,10.45,10.45,0,0,0,.67,3.87,7.88,7.88,0,0,0,1.81,2.79,7.59,7.59,0,0,0,2.67,1.69,9.52,9.52,0,0,0,3.27.56,13.88,13.88,0,0,0,1.78-.12,9.81,9.81,0,0,0,1.88-.43,9.13,9.13,0,0,0,1.82-.86,7.62,7.62,0,0,0,1.66-1.44L362,125.7a1,1,0,0,0-.9-.43,2,2,0,0,0-.86.2l-.89.47a8.25,8.25,0,0,1-1.11.46,4.74,4.74,0,0,1-1.49.21,3.77,3.77,0,0,1-2.64-.93,4.66,4.66,0,0,1-1.27-3h9.57a1.64,1.64,0,0,0,.55-.08.66.66,0,0,0,.35-.29,1.48,1.48,0,0,0,.17-.56,5.75,5.75,0,0,0,.05-.91,8.71,8.71,0,0,0-.55-3.21A6.79,6.79,0,0,0,361.45,115.22Zm-8.53,4.56a4.25,4.25,0,0,1,1.05-2.33,3,3,0,0,1,2.21-.81,3.11,3.11,0,0,1,1.36.27,2.53,2.53,0,0,1,.91.72,2.83,2.83,0,0,1,.49,1,4.37,4.37,0,0,1,.15,1.15Z"/><path d="M373.7,113.15a3.66,3.66,0,0,0-2.29.77,6.94,6.94,0,0,0-1.77,2.11l-.26-1.39a3,3,0,0,0-.15-.54.88.88,0,0,0-.26-.36,1,1,0,0,0-.41-.2,2.65,2.65,0,0,0-.62-.07H365v16.6h5V120a4.46,4.46,0,0,1,1.09-1.6,2.51,2.51,0,0,1,1.74-.58l.42,0,.46,0,.43,0,.34,0a.82.82,0,0,0,.5-.13.78.78,0,0,0,.27-.48l.32-3.65A3,3,0,0,0,373.7,113.15Z"/><path d="M251.59,147a5,5,0,0,0-1-.68,7.88,7.88,0,0,0,2-1.11,6.61,6.61,0,0,0,1.47-1.52,6.84,6.84,0,0,0,.89-1.87,7.15,7.15,0,0,0,.31-2.14,7.36,7.36,0,0,0-.51-2.76,5.51,5.51,0,0,0-1.64-2.19,8.27,8.27,0,0,0-2.91-1.45,15.89,15.89,0,0,0-4.32-.51h-7.58v23.31h5.41v-8.63h1.37a1.91,1.91,0,0,1,1,.2,1.94,1.94,0,0,1,.61.63l3.87,6.77a2.08,2.08,0,0,0,1.95,1h4.9l-5-8.12A4.86,4.86,0,0,0,251.59,147Zm-1.83-5.49a2.77,2.77,0,0,1-.72,1.16,3.28,3.28,0,0,1-1.27.77,5.46,5.46,0,0,1-1.88.29h-2.17V136.8h2.17a4.65,4.65,0,0,1,3.1.87,3,3,0,0,1,1,2.4A4.42,4.42,0,0,1,249.76,141.5Z"/><path d="M269.33,141.22a6.64,6.64,0,0,0-2.36-1.49,8.53,8.53,0,0,0-3-.51,8.65,8.65,0,0,0-3.42.65,7.65,7.65,0,0,0-4.21,4.39,8.71,8.71,0,0,0-.57,3.15,10.45,10.45,0,0,0,.67,3.87,7.88,7.88,0,0,0,1.81,2.79,7.59,7.59,0,0,0,2.67,1.69,9.52,9.52,0,0,0,3.27.56,13.88,13.88,0,0,0,1.78-.12,9.81,9.81,0,0,0,1.88-.43,9.13,9.13,0,0,0,1.82-.86,7.62,7.62,0,0,0,1.66-1.44l-1.44-1.77a1,1,0,0,0-.9-.43,1.93,1.93,0,0,0-.85.2l-.9.47a8.25,8.25,0,0,1-1.11.46,4.7,4.7,0,0,1-1.49.21,3.77,3.77,0,0,1-2.64-.93,4.71,4.71,0,0,1-1.27-3h9.57a1.64,1.64,0,0,0,.55-.08.66.66,0,0,0,.35-.29,1.67,1.67,0,0,0,.18-.56,7.56,7.56,0,0,0,0-.91,8.71,8.71,0,0,0-.55-3.21A6.91,6.91,0,0,0,269.33,141.22Zm-8.54,4.56a4.25,4.25,0,0,1,1-2.33,3,3,0,0,1,2.21-.81,3.08,3.08,0,0,1,1.36.27,2.53,2.53,0,0,1,.91.72,2.67,2.67,0,0,1,.49,1,4.37,4.37,0,0,1,.15,1.15Z"/><path d="M287,141.39a5.57,5.57,0,0,0-1.91-1.66,5.13,5.13,0,0,0-2.4-.58,6.21,6.21,0,0,0-2.95.67,8.64,8.64,0,0,0-2.21,1.7l-.37-1.21a1.17,1.17,0,0,0-1.22-.84h-3.07v21.86h5V155a5.63,5.63,0,0,0,1.6,1,5.58,5.58,0,0,0,2.18.37,6.41,6.41,0,0,0,2.88-.65,6.7,6.7,0,0,0,2.24-1.83,8.6,8.6,0,0,0,1.46-2.75,10.94,10.94,0,0,0,.52-3.45,12.64,12.64,0,0,0-.46-3.58A8.47,8.47,0,0,0,287,141.39ZM283.35,150a4.7,4.7,0,0,1-.66,1.56,2.64,2.64,0,0,1-1,.87,3,3,0,0,1-1.27.28,3.71,3.71,0,0,1-1.37-.26,3.21,3.21,0,0,1-1.22-.87v-7a4.89,4.89,0,0,1,1.34-1.16,3.58,3.58,0,0,1,1.8-.4,2.37,2.37,0,0,1,1.07.24,2.06,2.06,0,0,1,.82.79,4.58,4.58,0,0,1,.54,1.45,10.56,10.56,0,0,1,.19,2.21A9.76,9.76,0,0,1,283.35,150Z"/><path d="M304,141.51a7.54,7.54,0,0,0-2.67-1.7,9.66,9.66,0,0,0-3.44-.59,9.77,9.77,0,0,0-3.46.59,7.71,7.71,0,0,0-2.69,1.7,7.49,7.49,0,0,0-1.74,2.68,9.67,9.67,0,0,0-.62,3.54,9.88,9.88,0,0,0,.62,3.58,7.57,7.57,0,0,0,1.74,2.7,7.73,7.73,0,0,0,2.69,1.71,9.55,9.55,0,0,0,3.46.6,9.45,9.45,0,0,0,3.44-.6A7.56,7.56,0,0,0,304,154a7.83,7.83,0,0,0,1.73-2.7,9.89,9.89,0,0,0,.61-3.58,9.67,9.67,0,0,0-.61-3.54A7.75,7.75,0,0,0,304,141.51Zm-3.59,9.92a2.79,2.79,0,0,1-2.52,1.21,2.87,2.87,0,0,1-2.57-1.21,8.6,8.6,0,0,1,0-7.33,2.88,2.88,0,0,1,2.57-1.2,2.8,2.8,0,0,1,2.52,1.2,8.7,8.7,0,0,1,0,7.33Z"/><path d="M340.82,147.72a5.38,5.38,0,0,0-1.23-.85q-.69-.33-1.41-.6c-.48-.17-.95-.32-1.41-.46a10.81,10.81,0,0,1-1.23-.44,2.81,2.81,0,0,1-.87-.54,1,1,0,0,1-.33-.76,1.17,1.17,0,0,1,.5-1,2.48,2.48,0,0,1,1.45-.36,4.15,4.15,0,0,1,1.17.15,7.49,7.49,0,0,1,.92.33l.76.32a1.65,1.65,0,0,0,.7.16,1.16,1.16,0,0,0,.56-.13,1.29,1.29,0,0,0,.4-.43l1.12-1.75a6.16,6.16,0,0,0-1.07-.85,7.31,7.31,0,0,0-1.34-.68,9.37,9.37,0,0,0-1.58-.45,9.83,9.83,0,0,0-4.61.26,6,6,0,0,0-2.05,1.15,4.65,4.65,0,0,0-1.23,1.67,5.51,5.51,0,0,0-.07,3.94,4.37,4.37,0,0,0,.88,1.36,5.09,5.09,0,0,0,1.24.91,11.67,11.67,0,0,0,1.42.61c.48.17.95.33,1.41.46a10.43,10.43,0,0,1,1.24.43,3,3,0,0,1,.88.55,1.08,1.08,0,0,1,.34.82,1.4,1.4,0,0,1-.11.53,1.37,1.37,0,0,1-.35.46,1.75,1.75,0,0,1-.64.33,3.5,3.5,0,0,1-1,.12,4.3,4.3,0,0,1-1.35-.19,6.42,6.42,0,0,1-.94-.42l-.74-.42a1.67,1.67,0,0,0-.78-.19,1.36,1.36,0,0,0-.76.19,1.47,1.47,0,0,0-.49.5l-1.1,1.75-1.07-1.67a1.4,1.4,0,0,0-.28-.33.57.57,0,0,0-.36-.1.78.78,0,0,0-.28.05l-.26.13a1.63,1.63,0,0,1-.32.13,1.44,1.44,0,0,1-.45.06,1,1,0,0,1-.81-.38,1.53,1.53,0,0,1-.28-1V142.9h4.11v-3.39H325v-4.85h-2.59a1,1,0,0,0-1.09.77l-1,4-2,.4v-.19a3,3,0,0,0-1.82-.53,3.69,3.69,0,0,0-2.3.77,7.09,7.09,0,0,0-1.77,2.11l-.25-1.39a4.06,4.06,0,0,0-.15-.54.88.88,0,0,0-.26-.36,1,1,0,0,0-.42-.2,2.56,2.56,0,0,0-.61-.07h-2.95v16.6h5V146a4.48,4.48,0,0,1,1.1-1.6,2.49,2.49,0,0,1,1.74-.58l.42,0,.46,0,.43,0,.33,0a.86.86,0,0,0,.51-.13.73.73,0,0,0,.26-.48l.06-.63a1,1,0,0,0,.58.2h1.41v8.57a5.71,5.71,0,0,0,.32,2,4.09,4.09,0,0,0,.93,1.53,4.29,4.29,0,0,0,1.52,1,5.87,5.87,0,0,0,2.09.34,8.55,8.55,0,0,0,2.48-.36,6.84,6.84,0,0,0,2.16-1.08l-.29-.46a6,6,0,0,0,1,.66,9,9,0,0,0,1.47.65,11,11,0,0,0,1.64.43,8.79,8.79,0,0,0,1.69.16,10.12,10.12,0,0,0,3-.41,6.5,6.5,0,0,0,2.2-1.17,4.85,4.85,0,0,0,1.33-1.79,5.68,5.68,0,0,0,.45-2.27,4.11,4.11,0,0,0-.33-1.73A3.91,3.91,0,0,0,340.82,147.72Z"/><path d="M119.31,133.62c-.14.15-.28.28-.4.39a24.69,24.69,0,0,1-5.33,3.42,21.72,21.72,0,0,1-12.51,2,20.32,20.32,0,0,1-4.74-1.31c-1.29-.54-2.58-1.46-4-1.28-.72.09-1.62.65-1.54,1.5s.82,1,1.41,1.32a25.56,25.56,0,0,0,5.19,2.14,25.82,25.82,0,0,0,21.33-3.07c1.37-.88,8-5.24,5.14-7.38C122.23,130.15,120.5,132.42,119.31,133.62Z"/><path d="M114.47,91.75c-.47,0-1,0-1.42,0a42.89,42.89,0,0,0-18,4.81,54.51,54.51,0,0,0-17,13.68c-4.43,5.33-8,11.59-8.92,18.45-2.41,18.37,19.59,28.31,30.66,39,2.95,2.85,15.43,13.28,14.4,18.14,2.59-12.2,9.92-21.17,16.93-30.46l.09-.12c4.55-6,9-12.19,11.84-19.46C151.9,113.65,138.54,91.74,114.47,91.75Zm22.15,41.45c-2.59,6.55-6.82,12.39-10.93,17.84l-.08.11c-.51.66-1,1.33-1.52,2-4,5.33-8.18,10.78-11.44,17-1.93-2-4.06-3.95-6.3-6l-1.63-1.5a116,116,0,0,0-10.45-8.56c-11.72-8.89-19.31-15.4-18.12-24.46.62-4.75,3.1-9.76,7.36-14.88a47.46,47.46,0,0,1,14.76-11.92,35.63,35.63,0,0,1,15-4c.4,0,.79,0,1.18,0h0c8.79,0,16,3.53,20.38,9.94C139.46,115.47,140.11,124.41,136.62,133.2Z"/><path d="M206.87,96.68a58.56,58.56,0,0,0-7.82-6c-19.39-12.55-58-15.71-69.77,9-6.29,13.16-.83,25.63,6,37.14,7.38,12.52,17.46,23.51,22.52,37.32-1.71-4.66,15-14.39,18.16-16.32,10.27-6.38,23.76-8.56,32.59-16.78C221.61,128.8,219.43,108.15,206.87,96.68Zm-22,36.08a36.78,36.78,0,0,1-30.48-4.08,36.89,36.89,0,0,1-6.29-5c-.68-.67-1.6-1.32-1.42-2.36s1.67-1.62,2.69-1.46c2.07.32,3.49,2.09,5,3.32a28.91,28.91,0,0,0,6,3.65,31,31,0,0,0,18,2.12,35.23,35.23,0,0,0,8.64-2.63c.22-.1.46-.23.71-.37,2.1-1.19,5.36-3.63,7.09-1.35C197.88,128.67,187.11,132.09,184.88,132.76Z"/></g></svg>