<svg id="Layer_1" data-name="Layer 1" xmlns="http://www.w3.org/2000/svg" viewBox="0 0 1595.4 1336.84"><defs><style>.cls-1{fill:#f5f7f9;}.cls-2{font-size:23px;font-family:HelveticaNeue-Medium, Helvetica Neue;font-weight:500;}.cls-10,.cls-2{fill:#010101;}.cls-3{fill:#5fac45;}.cls-4{fill:#e5227c;}.cls-5{fill:#eb2127;}.cls-6{fill:#1d8fce;}.cls-7{fill:#f57e20;}.cls-8{fill:#fff;}.cls-9{fill:#1cb0c1;}.cls-11{fill:#b7b7b8;}.cls-12,.cls-13,.cls-17,.cls-19,.cls-21,.cls-23,.cls-25,.cls-27,.cls-29,.cls-31,.cls-33,.cls-35,.cls-36,.cls-37,.cls-38,.cls-39,.cls-40,.cls-41,.cls-43{fill:none;}.cls-12,.cls-36,.cls-38,.cls-40,.cls-43{stroke:#010101;}.cls-12,.cls-17,.cls-19,.cls-21,.cls-23,.cls-25,.cls-27,.cls-29,.cls-31,.cls-33,.cls-35,.cls-36,.cls-37,.cls-38,.cls-39,.cls-40,.cls-41{stroke-linecap:round;stroke-linejoin:round;}.cls-12{stroke-width:0.46px;}.cls-14{opacity:0.6;}.cls-15{fill:#ed2224;}.cls-16{fill:#50b849;}.cls-17{stroke:#50b849;}.cls-17,.cls-19,.cls-21,.cls-23,.cls-25,.cls-27,.cls-29,.cls-31,.cls-33,.cls-35{stroke-width:2.72px;}.cls-18{fill:#51b848;}.cls-19{stroke:#51b848;}.cls-20{fill:#6db044;}.cls-21{stroke:#6db044;}.cls-22{fill:#9e9c36;}.cls-23{stroke:#9e9c36;}.cls-24{fill:#ce882a;}.cls-25{stroke:#ce882a;}.cls-26{fill:#f47421;}.cls-27{stroke:#f47421;}.cls-28{fill:#f16022;}.cls-29{stroke:#f16022;}.cls-30{fill:#f04d23;}.cls-31{stroke:#f04d23;}.cls-32{fill:#ef3b24;}.cls-33{stroke:#ef3b24;}.cls-34{fill:#ee2724;}.cls-35{stroke:#ee2724;}.cls-36{stroke-width:1.13px;}.cls-37,.cls-39,.cls-41{stroke:#ed1c24;}.cls-37{stroke-width:2.26px;}.cls-38{stroke-width:1.1px;}.cls-39{stroke-width:2.21px;}.cls-40{stroke-width:1.16px;}.cls-41{stroke-width:2.33px;}.cls-42{fill:#ed1c24;}.cls-43{stroke-miterlimit:10;stroke-width:3.88px;}</style></defs><rect class="cls-1" width="1595.4" height="1336.84"/><text class="cls-2" transform="translate(603.56 310.46)">86</text><path class="cls-3" d="M624,354.5l4.76,31.82a84.7,84.7,0,0,1-88.33-46L601.34,310h0a16.57,16.57,0,0,0,17.31,9Z"/><path class="cls-4" d="M556.83,242.12l47.73,48.57a16.81,16.81,0,0,0-3.15,4.29,16.58,16.58,0,0,0-.06,15h0L540.4,340.34l-20.66,10.3a107.79,107.79,0,0,1,20.92-125Z"/><path class="cls-5" d="M666,206.93a107.8,107.8,0,0,1,56.54,113.41L668,311.22l-35.42-5.93a16.62,16.62,0,0,0-8.72-17.48l31.44-60.4Z"/><path class="cls-6" d="M655.32,227.41l-31.44,60.4-.11-.06a16.62,16.62,0,0,0-19.21,2.94l-47.73-48.57A84.71,84.71,0,0,1,655.32,227.41Z"/><path class="cls-7" d="M632.6,305.29,668,311.22a52.54,52.54,0,0,1-44,43.28L618.66,319a16.66,16.66,0,0,0,13.94-13.68Z"/><circle class="cls-8" cx="615.68" cy="303.84" r="45.83"/><path class="cls-4" d="M241.44,236l39.13,41.46a30.31,30.31,0,0,0-8.67,29l-55.49,13.17A87.31,87.31,0,0,1,241.44,236Z"/><path class="cls-3" d="M292.68,328.54h0l-20.51,68.57-4.24,14.17a116.66,116.66,0,0,1-80.06-84.83l28.54-6.77,55.49-13.17a26.3,26.3,0,0,0,.74,2.59A30.18,30.18,0,0,0,292.68,328.54Z"/><path class="cls-7" d="M322.15,321.56l49.13,52.05a101.86,101.86,0,0,1-99.11,23.51l20.51-68.57h0a30.3,30.3,0,0,0,29.47-7Z"/><path class="cls-9" d="M400.47,276a101.85,101.85,0,0,1-29.19,97.59l-49.13-52.05a30.28,30.28,0,0,0,8.68-29l55.48-13.16Z"/><path class="cls-5" d="M386.31,279.38l-55.48,13.16h0c-.2-.86-.45-1.72-.73-2.58A30.29,30.29,0,0,0,310,270.52l16.35-54.63A87.28,87.28,0,0,1,386.31,279.38Z"/><path class="cls-6" d="M334.79,187.79l-8.4,28.1L310,270.52a30.3,30.3,0,0,0-29.47,7L241.44,236,221.3,214.71A116.63,116.63,0,0,1,334.79,187.79Z"/><path class="cls-9" d="M1186.17,238.46l40,43.91a31.65,31.65,0,0,0-7,9.25l-80.56-40.1a122,122,0,0,1,26.92-35.65Z"/><path class="cls-5" d="M1138.66,251.52l80.56,40.1a31.42,31.42,0,0,0-3.18,11.16l-74.26-6.88-15.33-1.42A121.72,121.72,0,0,1,1138.66,251.52Z"/><path class="cls-6" d="M1217.12,314.32h0L1160,330.58l-14.59,4.16a103.58,103.58,0,0,1-3.6-38.84l74.26,6.88A31.19,31.19,0,0,0,1217.12,314.32Z"/><path class="cls-4" d="M1222.29,324.71l-47.42,35.81a88.59,88.59,0,0,1-14.9-29.93h0l57.15-16.26h0c.12.45.26.9.41,1.35A31.21,31.21,0,0,0,1222.29,324.71Z"/><path class="cls-3" d="M1230.86,332.51h0l-39.27,63.42L1183.48,409a118.6,118.6,0,0,1-33-30.09l24.39-18.42,47.42-35.81A30.88,30.88,0,0,0,1230.86,332.51Z"/><path class="cls-7" d="M1241.67,336.71l-5.35,28.6L1228,410a103.78,103.78,0,0,1-36.38-14.09l39.27-63.42h0A31.31,31.31,0,0,0,1241.67,336.71Z"/><path class="cls-9" d="M1253.27,336.71l5.34,28.6a59.26,59.26,0,0,1-22.29,0l5.35-28.6a31.2,31.2,0,0,0,11.6,0Z"/><path class="cls-5" d="M1264.08,332.52l31.28,50.53a90.84,90.84,0,0,1-31.18,12.07l-5.57-29.81-5.34-28.6h0a31.39,31.39,0,0,0,10.81-4.19Z"/><path class="cls-6" d="M1272.65,324.71l47.42,35.81a91.09,91.09,0,0,1-24.71,22.53l-31.28-50.53A31.11,31.11,0,0,0,1272.65,324.71Z"/><path class="cls-4" d="M1277.82,314.32,1335,330.59a90.88,90.88,0,0,1-14.91,29.93l-47.42-35.81A31.54,31.54,0,0,0,1277.82,314.32Z"/><path class="cls-7" d="M1338.06,297.3l-59.17,5.48a30.65,30.65,0,0,0-1.49-7.07,31.37,31.37,0,0,0-1.69-4.09l39.62-19.72,13.58-6.76A89,89,0,0,1,1338.06,297.3Z"/><path class="cls-9" d="M1315.33,271.9l-39.62,19.72a31.44,31.44,0,0,0-7-9.26l29.8-32.7A73.74,73.74,0,0,1,1315.33,271.9Z"/><path class="cls-5" d="M1319,227.26l-20.43,22.4-29.8,32.7a31.69,31.69,0,0,0-9.87-6.09l26.94-69.56A103.63,103.63,0,0,1,1319,227.26Z"/><path class="cls-3" d="M1247.47,229.87v44.25a31.28,31.28,0,0,0-10,1.64c-.48.16-1,.32-1.43.52h0l-16-41.28A74.17,74.17,0,0,1,1247.47,229.87Z"/><path class="cls-7" d="M1236.06,276.27h0a31.09,31.09,0,0,0-9.85,6.09l-40-43.91a88.93,88.93,0,0,1,28.43-17.61l5.48,14.14Z"/><path class="cls-6" d="M1291.37,192.36l-5.56,14.35-26.94,69.56a31.41,31.41,0,0,0-11.4-2.15v-90A118.6,118.6,0,0,1,1291.37,192.36Z"/><path class="cls-3" d="M1349.56,334.74,1335,330.59l-57.16-16.27a31,31,0,0,0,1.07-11.54l59.17-5.48,15.1-1.4A103.58,103.58,0,0,1,1349.56,334.74Z"/><path class="cls-5" d="M911.42,242.27v26.28a28.66,28.66,0,0,0-20.17,8.37l-18.59-18.59h0A54.77,54.77,0,0,1,911.42,242.27Z"/><path class="cls-6" d="M872.66,258.33l18.59,18.59a28.48,28.48,0,0,0-8.37,20.16H829.19a81.88,81.88,0,0,1,24.08-58.14Z"/><path class="cls-4" d="M891.25,317.27l-38,38a81.85,81.85,0,0,1-24.08-58.15h53.69a28.62,28.62,0,0,0,8.37,20.19Z"/><path class="cls-3" d="M911.42,325.62V393a95.9,95.9,0,0,1-67.83-28.1l9.68-9.69,38-38A28.6,28.6,0,0,0,911.42,325.62Z"/><path class="cls-7" d="M931.58,317.25l57.52,57.51a109.57,109.57,0,0,1-77.68,32.18V325.62a28.5,28.5,0,0,0,20.16-8.37Z"/><path class="cls-9" d="M993.64,297.08h27.62a109.55,109.55,0,0,1-32.16,77.68l-57.52-57.51A28.56,28.56,0,0,0,940,297.08Z"/><path class="cls-5" d="M993.64,297.08H940a28.66,28.66,0,0,0-8.36-20.16l38-38A82.17,82.17,0,0,1,993.64,297.08Z"/><path class="cls-6" d="M989.1,219.4l-19.54,19.54-38,38h0a28.57,28.57,0,0,0-20.16-8.37V187.24A109.93,109.93,0,0,1,989.1,219.4Z"/><path class="cls-10" d="M894.05,674l-5.45-36.52.49-.07a16.19,16.19,0,0,0,12-8.61,16,16,0,0,0,1.55-4.66l.08-.5,36.41,6.1-.08.49a52.88,52.88,0,0,1-44.47,43.69Zm-4.32-35.69,5.16,34.55A51.89,51.89,0,0,0,938,630.51l-34.44-5.77a17.16,17.16,0,0,1-13.78,13.52Z"/><path class="cls-10" d="M886.57,706.64a84.9,84.9,0,0,1-76.11-47.2l-.23-.44.45-.23,61.05-30.43h.42l.15.28a16.07,16.07,0,0,0,16.79,8.74l.5-.08.07.5,10.14,67.84-.49.08A87.2,87.2,0,0,1,886.57,706.64Zm-75-47.2a84,84,0,0,0,87.09,45.34l-9.93-66.37a17.06,17.06,0,0,1-17.11-8.91Z"/><path class="cls-10" d="M875.06,610.28,826.64,561l.35-.35a85,85,0,0,1,99.06-14.79l.45.23-31.93,61.33-.46-.3a16.12,16.12,0,0,0-18.7,2.82Zm-47-49.27,47,47.86a17.09,17.09,0,0,1,19.1-2.85l31-59.52A84,84,0,0,0,828.05,561Z"/><path class="cls-10" d="M790,670.19l-.22-.45a108,108,0,0,1,21-125.56l.36-.35,64.6,65.75-.36.35a16.18,16.18,0,0,0-3,4.16,16,16,0,0,0-.06,14.53l.36.72H872Zm21.14-124.94a107,107,0,0,0-20.69,123.6l80.72-40.24a17,17,0,0,1,.28-15,17.21,17.21,0,0,1,2.89-4.06Z"/><path class="cls-5" d="M993,639.22l-20-3.34-10-1.68-10-1.67-10-1.67-4.54-.76-5.45-.91-10-1.68-10-1.67-10-1.67a16.62,16.62,0,0,0-8.72-17.48l4.67-9,4.68-9,4.68-9,9.36-18,4.67-9,3.38-6.49,1.3-2.5,4.68-9,4.68-9A107.79,107.79,0,0,1,993,639.22Z"/><path class="cls-8" d="M913.59,625.92l-1-.16a26.1,26.1,0,0,0-13.78-27.61l.46-.88A27.09,27.09,0,0,1,913.59,625.92Z"/><path class="cls-8" d="M983.53,637.63l-1-.16a96.8,96.8,0,0,0-51-102.22l.46-.88A97.79,97.79,0,0,1,983.53,637.63Z"/><path class="cls-8" d="M973.54,636l-1-.16a86.71,86.71,0,0,0-45.66-91.56l.47-.88A87.71,87.71,0,0,1,973.54,636Z"/><path class="cls-8" d="M953.55,632.61l-1-.16a66.5,66.5,0,0,0-35-70.25l.46-.88A67.5,67.5,0,0,1,953.55,632.61Z"/><path class="cls-8" d="M963.55,634.28l-1-.16a76.6,76.6,0,0,0-40.34-80.9l.47-.88A77.63,77.63,0,0,1,963.55,634.28Z"/><path class="cls-8" d="M943.56,630.94l-1-.16a56.41,56.41,0,0,0-29.71-59.59l.46-.88A57.39,57.39,0,0,1,943.56,630.94Z"/><path class="cls-8" d="M933.57,629.26l-1-.16a46.3,46.3,0,0,0-24.4-48.92l.47-.88A47.28,47.28,0,0,1,933.57,629.26Z"/><path class="cls-8" d="M923.58,627.59l-1-.16a36.21,36.21,0,0,0-19.09-38.27l.46-.88A37.18,37.18,0,0,1,923.58,627.59Z"/><g id="verticals"><path class="cls-11" d="M945.49,581.88a.25.25,0,0,1-.25-.25V505.89a.25.25,0,0,1,.5,0v75.74A.25.25,0,0,1,945.49,581.88Z"/><path class="cls-11" d="M963.62,572.84a.25.25,0,0,1-.25-.25v-87.7a.25.25,0,0,1,.5,0v87.7A.25.25,0,0,1,963.62,572.84Z"/><path class="cls-11" d="M954.55,577.36a.25.25,0,0,1-.25-.25V495.39a.25.25,0,0,1,.25-.25.25.25,0,0,1,.25.25v81.72A.25.25,0,0,1,954.55,577.36Z"/><path class="cls-11" d="M972.69,568.35a.25.25,0,0,1-.25-.25V474.39a.25.25,0,1,1,.5,0V568.1A.25.25,0,0,1,972.69,568.35Z"/><path class="cls-11" d="M918.29,595.45a.25.25,0,0,1-.25-.25V537.39a.25.25,0,1,1,.5,0V595.2A.25.25,0,0,1,918.29,595.45Z"/><path class="cls-11" d="M936.42,586.4a.25.25,0,0,1-.25-.25V516.39a.25.25,0,0,1,.5,0v69.76A.25.25,0,0,1,936.42,586.4Z"/><path class="cls-11" d="M927.36,590.92a.25.25,0,0,1-.25-.25V526.89a.25.25,0,0,1,.25-.25.25.25,0,0,1,.25.25v63.78A.25.25,0,0,1,927.36,590.92Z"/><path class="cls-11" d="M900.16,604.49a.25.25,0,0,1-.25-.25V558.39a.25.25,0,0,1,.25-.25.25.25,0,0,1,.25.25v45.85A.26.26,0,0,1,900.16,604.49Z"/><path class="cls-11" d="M909.22,600a.25.25,0,0,1-.25-.25V547.89a.25.25,0,0,1,.5,0v51.83A.25.25,0,0,1,909.22,600Z"/></g><path class="cls-10" d="M891.74,584.28a13.41,13.41,0,0,1-.16-2,4.22,4.22,0,0,1,.93-3,3.4,3.4,0,0,1,2.66-1,3.92,3.92,0,0,1,2.88,1.06,4.56,4.56,0,0,1,1.07,3.28,14.43,14.43,0,0,1-.09,1.74Zm6.56-1a6.6,6.6,0,0,0,.05-1,2.85,2.85,0,0,0-3.15-3.15c-1.75,0-2.86,1-2.86,3a5.79,5.79,0,0,0,.1,1.12Z"/><path class="cls-10" d="M895.39,577c-.63,0-1.16,0-1.66,0v-.85l1,0v0a1.61,1.61,0,0,1-1.17-1.48,1.06,1.06,0,0,1,0-.27h.92a1.06,1.06,0,0,0,0,.33,1.37,1.37,0,0,0,1.25,1.3,2.89,2.89,0,0,0,.45,0h2.83v1Z"/><path class="cls-10" d="M892.23,572.27a.57.57,0,0,1,.6.61.6.6,0,0,1-1.2,0A.57.57,0,0,1,892.23,572.27Zm6.82,1.07h-5.32v-1h5.32Z"/><path class="cls-10" d="M893.73,570.4l3-1c.49-.17.93-.32,1.37-.43v0c-.44-.12-.88-.27-1.37-.45l-3-1v-1l5.32,2.09v.93l-5.32,2Z"/><path class="cls-10" d="M896.57,565.05a1.71,1.71,0,0,0,1.85-1.83,3.38,3.38,0,0,0-.28-1.47l.69-.16a4.19,4.19,0,0,1,.33,1.77,2.47,2.47,0,0,1-2.68,2.62,2.58,2.58,0,0,1-2.87-2.5,2.26,2.26,0,0,1,2.51-2.2,4,4,0,0,1,.45,0Zm-.7-2.84a1.38,1.38,0,0,0-1.57,1.34,1.61,1.61,0,0,0,1.57,1.49Z"/><path class="cls-10" d="M907.25,576.41a3.45,3.45,0,0,0,.48-1.72c0-1-.51-1.55-1.26-1.55s-1.09.4-1.48,1.4c-.43,1.21-1,2-2.1,2a2.13,2.13,0,0,1-2-2.39,3.46,3.46,0,0,1,.36-1.64l.78.26a3,3,0,0,0-.35,1.41c0,1,.61,1.4,1.11,1.4.7,0,1-.45,1.43-1.48.49-1.25,1.09-1.89,2.18-1.89s2.14.85,2.14,2.6a3.78,3.78,0,0,1-.48,1.89Z"/><path class="cls-10" d="M901.56,569.75h1.53v-1.38h.74v1.38h2.87c.66,0,1-.19,1-.72a2.46,2.46,0,0,0-.06-.57l.72,0a2.28,2.28,0,0,1,.14.86,1.35,1.35,0,0,1-.41,1,2,2,0,0,1-1.39.38h-2.9v.82h-.74v-.82h-1.28Z"/><path class="cls-10" d="M903.09,566.83l3.15-1.17c.35-.12.77-.25,1.09-.34v0c-.32-.1-.73-.21-1.12-.34l-3.12-1.06v-1l3.8,1.45c1.82.69,2.76,1.16,3.33,1.83a2.66,2.66,0,0,1,.63,1.18l-.82.25a2.51,2.51,0,0,0-.47-.85,2.85,2.85,0,0,0-1.08-.82.71.71,0,0,0-.23-.07.86.86,0,0,0-.25.06l-4.91,2Z"/><path class="cls-10" d="M900.6,562v-1h7.81v1Z"/><path class="cls-10" d="M905.93,558.86a1.71,1.71,0,0,0,1.85-1.82,3.43,3.43,0,0,0-.28-1.48l.69-.16a4.16,4.16,0,0,1,.34,1.77,2.48,2.48,0,0,1-2.69,2.62,2.58,2.58,0,0,1-2.87-2.5,2.26,2.26,0,0,1,2.51-2.2,4,4,0,0,1,.45,0Zm-.7-2.84a1.38,1.38,0,0,0-1.57,1.35,1.61,1.61,0,0,0,1.57,1.48Z"/><path class="cls-10" d="M910.36,576.28v-4h.8v3h2.47v-2.81h.79v2.81h3.35v1Z"/><path class="cls-10" d="M915.29,570.75a1.71,1.71,0,0,0,1.85-1.82,3.43,3.43,0,0,0-.28-1.48l.69-.16a4.19,4.19,0,0,1,.33,1.77,2.47,2.47,0,0,1-2.68,2.62,2.58,2.58,0,0,1-2.87-2.5,2.26,2.26,0,0,1,2.51-2.2,4.16,4.16,0,0,1,.45,0Zm-.7-2.84a1.38,1.38,0,0,0-1.57,1.35,1.6,1.6,0,0,0,1.57,1.48Z"/><path class="cls-10" d="M917.77,562.83l-.67.08v0a2,2,0,0,1,.8,1.63,1.52,1.52,0,0,1-1.53,1.63c-1.29,0-2-1.15-2-3.2h-.11a1.1,1.1,0,0,0-1.24,1.21,2.66,2.66,0,0,0,.4,1.38l-.64.22a3.34,3.34,0,0,1-.47-1.75c0-1.62,1.11-2,2.18-2h2a7,7,0,0,0,1.27-.09Zm-2.71.15c0,1,.16,2.25,1.2,2.25a.86.86,0,0,0,.92-.91,1.32,1.32,0,0,0-.89-1.29,1.12,1.12,0,0,0-.31,0Z"/><path class="cls-10" d="M910.92,559.36h1.53V558h.74v1.39h2.87c.66,0,1-.19,1-.73a2.36,2.36,0,0,0-.06-.56l.72,0a2.25,2.25,0,0,1,.13.85,1.36,1.36,0,0,1-.4,1,2,2,0,0,1-1.39.37h-2.9v.83h-.74v-.83h-1.28Z"/><path class="cls-10" d="M916.32,552.43c.55,0,1,0,1.45,0v.86l-.87.06v0a2,2,0,0,1,1,1.76c0,.83-.47,1.83-2.34,1.83h-3.11v-1h2.95c1,0,1.69-.31,1.69-1.19a1.41,1.41,0,0,0-.88-1.28,1.52,1.52,0,0,0-.49-.09h-3.27v-1Z"/><path class="cls-10" d="M914.11,550.82c-.63,0-1.17,0-1.66,0V550l1,0v0a1.59,1.59,0,0,1-1.16-1.47,1.2,1.2,0,0,1,0-.28h.92a1.11,1.11,0,0,0,0,.33,1.36,1.36,0,0,0,1.24,1.3,3.15,3.15,0,0,0,.46,0h2.83v1Z"/><path class="cls-10" d="M915.29,546.8a1.71,1.71,0,0,0,1.85-1.83,3.46,3.46,0,0,0-.28-1.48l.69-.16a4.19,4.19,0,0,1,.33,1.77,2.47,2.47,0,0,1-2.68,2.62,2.58,2.58,0,0,1-2.87-2.5,2.26,2.26,0,0,1,2.51-2.2,4.16,4.16,0,0,1,.45,0Zm-.7-2.84A1.38,1.38,0,0,0,913,545.3a1.59,1.59,0,0,0,1.57,1.48Z"/><path class="cls-10" d="M916.78,542a2.55,2.55,0,0,0,.39-1.28c0-.71-.35-1-.79-1s-.72.28-1,1c-.34,1-.87,1.4-1.51,1.4a1.64,1.64,0,0,1-1.56-1.83,2.6,2.6,0,0,1,.33-1.31l.7.24a2.08,2.08,0,0,0-.31,1.09c0,.57.33.89.73.89s.64-.32.9-1c.35-.93.82-1.4,1.61-1.4s1.59.73,1.59,2a3.08,3.08,0,0,1-.36,1.5Z"/><path class="cls-10" d="M925.88,559.19a4.7,4.7,0,0,1,.35,2,3.46,3.46,0,0,1-3.75,3.66,3.68,3.68,0,0,1-3.89-3.87,4,4,0,0,1,.33-1.76l.78.23a3.42,3.42,0,0,0-.31,1.5,2.75,2.75,0,0,0,3.06,2.89,2.69,2.69,0,0,0,3-2.85,3.76,3.76,0,0,0-.31-1.56Z"/><path class="cls-10" d="M923.42,553.33a2.6,2.6,0,0,1,2.83,2.65,2.53,2.53,0,0,1-2.74,2.55,2.59,2.59,0,0,1-2.83-2.64A2.52,2.52,0,0,1,923.42,553.33Zm.05,4.22c1.17,0,2-.67,2-1.61s-.87-1.62-2.07-1.62c-.9,0-2.05.45-2.05,1.59S922.46,557.55,923.47,557.55Z"/><path class="cls-10" d="M922.24,552.11c-.55,0-1,0-1.44,0v-.85l.86,0v0a1.83,1.83,0,0,1-1-1.67,1.57,1.57,0,0,1,1.07-1.51v0a2.33,2.33,0,0,1-.7-.6,1.82,1.82,0,0,1-.37-1.17c0-.71.46-1.75,2.31-1.75h3.13v.94h-3c-1,0-1.64.38-1.64,1.16a1.25,1.25,0,0,0,.88,1.14,1.42,1.42,0,0,0,.48.08h3.29v.94h-3.19c-.84,0-1.46.38-1.46,1.12a1.31,1.31,0,0,0,1,1.19,1.22,1.22,0,0,0,.47.08h3.21v1Z"/><path class="cls-10" d="M926.12,542.83h-4.58v.75h-.74v-.75h-.25a2.51,2.51,0,0,1-1.86-.61,1.87,1.87,0,0,1-.5-1.3,2.22,2.22,0,0,1,.16-.83l.74.14a1.52,1.52,0,0,0-.12.61c0,.83.73,1,1.54,1h.29v-1.29h.74v1.29h4.58Z"/><path class="cls-10" d="M923.42,535.05a2.6,2.6,0,0,1,2.83,2.65,2.53,2.53,0,0,1-2.74,2.55,2.6,2.6,0,0,1-2.83-2.64A2.52,2.52,0,0,1,923.42,535.05Zm.05,4.22c1.17,0,2-.67,2-1.62s-.87-1.61-2.07-1.61c-.9,0-2.05.45-2.05,1.59S922.46,539.27,923.47,539.27Z"/><path class="cls-10" d="M922.46,533.83c-.63,0-1.17,0-1.66,0V533l1,0v0a1.61,1.61,0,0,1-1.16-1.48,1.06,1.06,0,0,1,0-.27h.91a1.55,1.55,0,0,0,0,.33,1.35,1.35,0,0,0,1.24,1.29,2.16,2.16,0,0,0,.46,0h2.83v1Z"/><path class="cls-10" d="M919.27,528.8h1.53v-1.39h.74v1.39h2.87c.66,0,1-.19,1-.73a2.36,2.36,0,0,0-.06-.56l.72,0a2.28,2.28,0,0,1,.13.86,1.34,1.34,0,0,1-.4,1,2,2,0,0,1-1.39.37h-2.9v.83h-.74v-.83h-1.28Z"/><path class="cls-10" d="M928.57,542.92a13.27,13.27,0,0,1-.16-2,4.24,4.24,0,0,1,.93-3,3.4,3.4,0,0,1,2.66-1,3.89,3.89,0,0,1,2.88,1.07,4.57,4.57,0,0,1,1.07,3.28,14.14,14.14,0,0,1-.09,1.73Zm6.55-.95a5.46,5.46,0,0,0,.06-1,2.85,2.85,0,0,0-3.15-3.16c-1.75,0-2.86,1-2.86,3a5.91,5.91,0,0,0,.1,1.13Z"/><path class="cls-10" d="M932.22,535.63c-.63,0-1.17,0-1.66,0v-.84l1,0v0a1.59,1.59,0,0,1-1.16-1.47,1.2,1.2,0,0,1,0-.28h.91a1.61,1.61,0,0,0,0,.33,1.36,1.36,0,0,0,1.24,1.3,3.14,3.14,0,0,0,.45,0h2.84v1Z"/><path class="cls-10" d="M929.06,530.91a.6.6,0,0,1,0,1.2.58.58,0,0,1-.6-.6A.57.57,0,0,1,929.06,530.91Zm6.82,1.08h-5.32v-1h5.32Z"/><path class="cls-10" d="M930.56,529l3-1a12.4,12.4,0,0,1,1.36-.43v0c-.44-.12-.88-.27-1.36-.45l-3-1v-1l5.32,2.09v.92l-5.32,2Z"/><path class="cls-10" d="M933.4,523.7a1.71,1.71,0,0,0,1.84-1.83,3.64,3.64,0,0,0-.27-1.48l.69-.16A4.19,4.19,0,0,1,936,522a2.47,2.47,0,0,1-2.68,2.62,2.58,2.58,0,0,1-2.87-2.5,2.25,2.25,0,0,1,2.5-2.2,2.43,2.43,0,0,1,.46,0Zm-.7-2.84a1.38,1.38,0,0,0-1.57,1.34,1.59,1.59,0,0,0,1.57,1.48Z"/><path class="cls-10" d="M944.45,530.25,937,532.67v-1l3.65-1.15c1-.32,1.91-.6,2.78-.79v0c-.86-.21-1.8-.51-2.76-.84L937,527.56v-1l7.42,2.65Z"/><path class="cls-10" d="M944.45,523.18l-.67.08v0a2,2,0,0,1,.79,1.63,1.52,1.52,0,0,1-1.53,1.63c-1.29,0-2-1.14-2-3.2H941a1.1,1.1,0,0,0-1.23,1.21,2.71,2.71,0,0,0,.39,1.39l-.64.22a3.37,3.37,0,0,1-.47-1.75c0-1.63,1.11-2,2.18-2h2a7.2,7.2,0,0,0,1.28-.09Zm-2.72.15c0,1,.17,2.25,1.2,2.25a.85.85,0,0,0,.92-.91,1.34,1.34,0,0,0-.89-1.29,1.12,1.12,0,0,0-.31,0Z"/><path class="cls-10" d="M936.64,520.83v-1h7.81v1Z"/><path class="cls-10" d="M943,513.78c.55,0,1,0,1.46,0v.85l-.87.06v0a2,2,0,0,1,1,1.76c0,.84-.46,1.84-2.33,1.84h-3.12v-1h3c1,0,1.7-.31,1.7-1.19a1.4,1.4,0,0,0-.88-1.27,1.35,1.35,0,0,0-.5-.09h-3.27v-1Z"/><path class="cls-10" d="M942,511.64a1.71,1.71,0,0,0,1.85-1.83,3.46,3.46,0,0,0-.28-1.48l.7-.16a4.36,4.36,0,0,1,.33,1.77,2.48,2.48,0,0,1-2.69,2.62,2.59,2.59,0,0,1-2.87-2.5,2.26,2.26,0,0,1,2.51-2.2,4,4,0,0,1,.45,0Zm-.69-2.84a1.38,1.38,0,0,0-1.58,1.34,1.6,1.6,0,0,0,1.58,1.48Z"/><path class="cls-10" d="M946.67,523.86a15.08,15.08,0,0,1-.15-2,4.27,4.27,0,0,1,.92-3,3.44,3.44,0,0,1,2.67-1.05,3.93,3.93,0,0,1,2.88,1.07,4.58,4.58,0,0,1,1.07,3.28,16.84,16.84,0,0,1-.09,1.74Zm6.56-1a6.42,6.42,0,0,0,.06-1,2.86,2.86,0,0,0-3.15-3.16c-1.75,0-2.86,1-2.86,3a5.09,5.09,0,0,0,.1,1.12Z"/><path class="cls-10" d="M950.33,516.56c-.63,0-1.17,0-1.67.05v-.85l1.05,0v-.05a1.59,1.59,0,0,1-1.17-1.47,1.18,1.18,0,0,1,0-.28h.91a1.61,1.61,0,0,0,0,.33,1.35,1.35,0,0,0,1.24,1.3,2.06,2.06,0,0,0,.45.05H954v.95Z"/><path class="cls-10" d="M947.17,511.84a.6.6,0,0,1,0,1.2.59.59,0,0,1-.61-.6A.59.59,0,0,1,947.17,511.84Zm6.82,1.08h-5.33v-1H954Z"/><path class="cls-10" d="M948.66,510l3-1.05a12.4,12.4,0,0,1,1.36-.43v0c-.44-.12-.88-.28-1.36-.45l-3-1v-1l5.33,2.09V509l-5.33,2Z"/><path class="cls-10" d="M951.5,504.63a1.71,1.71,0,0,0,1.85-1.83,3.56,3.56,0,0,0-.27-1.47l.69-.17a4.44,4.44,0,0,1,.33,1.77,2.47,2.47,0,0,1-2.68,2.62,2.59,2.59,0,0,1-2.88-2.49,2.26,2.26,0,0,1,2.51-2.2,4,4,0,0,1,.45,0Zm-.69-2.84a1.37,1.37,0,0,0-1.57,1.34,1.61,1.61,0,0,0,1.57,1.49Z"/><path class="cls-10" d="M955.34,513.24a13.51,13.51,0,0,1-.15-2,4.27,4.27,0,0,1,.92-3,3.41,3.41,0,0,1,2.66-1,4,4,0,0,1,2.89,1.06,4.6,4.6,0,0,1,1.06,3.28,14.31,14.31,0,0,1-.09,1.74Zm6.56-1a6.6,6.6,0,0,0,.05-1,2.84,2.84,0,0,0-3.14-3.15c-1.75,0-2.86,1-2.86,3a5.88,5.88,0,0,0,.09,1.12Z"/><path class="cls-10" d="M959,506c-.62,0-1.16,0-1.66,0v-.85l1,0v0a1.61,1.61,0,0,1-1.17-1.48,1.12,1.12,0,0,1,0-.27h.92a1.57,1.57,0,0,0,0,.33,1.37,1.37,0,0,0,1.25,1.3,2.89,2.89,0,0,0,.45,0h2.84v1Z"/><path class="cls-10" d="M955.84,501.23a.57.57,0,0,1,.59.61.58.58,0,0,1-.59.59.59.59,0,0,1-.61-.61A.57.57,0,0,1,955.84,501.23Zm6.82,1.08h-5.33v-1h5.33Z"/><path class="cls-10" d="M957.33,499.36l3-1.05c.49-.17.93-.32,1.37-.43v0c-.44-.12-.88-.27-1.37-.45l-3-1v-1l5.33,2.09v.93l-5.33,2Z"/><path class="cls-10" d="M960.17,494a1.71,1.71,0,0,0,1.85-1.82,3.4,3.4,0,0,0-.28-1.48l.7-.16a4.36,4.36,0,0,1,.33,1.77,2.48,2.48,0,0,1-2.69,2.62,2.59,2.59,0,0,1-2.87-2.5,2.26,2.26,0,0,1,2.51-2.2,4,4,0,0,1,.45,0Zm-.69-2.84a1.39,1.39,0,0,0-1.58,1.35,1.61,1.61,0,0,0,1.58,1.48Z"/><path class="cls-10" d="M964.44,503.71a13.61,13.61,0,0,1-.15-2,4.27,4.27,0,0,1,.92-3,3.42,3.42,0,0,1,2.66-1.05,4,4,0,0,1,2.89,1.07,4.58,4.58,0,0,1,1.06,3.28,14.43,14.43,0,0,1-.09,1.74Zm6.56-1a6.6,6.6,0,0,0,0-1,2.85,2.85,0,0,0-3.14-3.16c-1.75,0-2.86,1-2.86,3a5.09,5.09,0,0,0,.1,1.12Z"/><path class="cls-10" d="M968.09,496.41c-.62,0-1.16,0-1.66,0v-.85l1.05,0v-.05a1.59,1.59,0,0,1-1.17-1.47,1.2,1.2,0,0,1,0-.28h.92a1.11,1.11,0,0,0,0,.33,1.36,1.36,0,0,0,1.25,1.3,2.81,2.81,0,0,0,.45,0h2.84v1Z"/><path class="cls-10" d="M964.94,491.69a.6.6,0,0,1,0,1.2.6.6,0,1,1,0-1.2Zm6.82,1.08h-5.33v-1h5.33Z"/><path class="cls-10" d="M966.43,489.82l3-1a13.26,13.26,0,0,1,1.37-.43v0c-.44-.12-.88-.28-1.37-.45l-3-1v-1l5.33,2.09v.92l-5.33,2Z"/><path class="cls-10" d="M969.27,484.48a1.71,1.71,0,0,0,1.85-1.83,3.38,3.38,0,0,0-.28-1.47l.7-.17a4.4,4.4,0,0,1,.33,1.77,2.48,2.48,0,0,1-2.69,2.62,2.58,2.58,0,0,1-2.87-2.49,2.26,2.26,0,0,1,2.51-2.2,4,4,0,0,1,.45,0Zm-.69-2.84A1.38,1.38,0,0,0,967,483a1.62,1.62,0,0,0,1.58,1.49Z"/><path class="cls-10" d="M289.42,604.09a7.2,7.2,0,0,1-2.27-.35,5.22,5.22,0,0,1-1.81-1,4.6,4.6,0,0,1-1.18-1.6,5.13,5.13,0,0,1-.43-2.11,4.07,4.07,0,0,1,.8-2.56,3.78,3.78,0,0,1,2.15-1.38v0a3.41,3.41,0,0,1-1.69-1.28,3.53,3.53,0,0,1-.59-2,4.14,4.14,0,0,1,1.3-3.23,6.53,6.53,0,0,1,7.43,0,4.1,4.1,0,0,1,1.3,3.23,3.53,3.53,0,0,1-.59,2,3.41,3.41,0,0,1-1.69,1.28v0a3.78,3.78,0,0,1,2.15,1.38,4.07,4.07,0,0,1,.8,2.56,5,5,0,0,1-.43,2.11,4.6,4.6,0,0,1-1.18,1.6,5.22,5.22,0,0,1-1.81,1A7.18,7.18,0,0,1,289.42,604.09Zm0-2.07a3.11,3.11,0,0,0,2.18-.79,2.8,2.8,0,0,0,.87-2.2,2.62,2.62,0,0,0-.87-2.09,3.6,3.6,0,0,0-4.37,0,2.62,2.62,0,0,0-.87,2.09,2.8,2.8,0,0,0,.87,2.2A3.12,3.12,0,0,0,289.42,602Zm0-12.61a2.67,2.67,0,0,0-1.8.63,2.3,2.3,0,0,0-.73,1.83,2.16,2.16,0,0,0,.71,1.76,3,3,0,0,0,3.63,0,2.16,2.16,0,0,0,.72-1.76,2.31,2.31,0,0,0-.74-1.83A2.66,2.66,0,0,0,289.42,589.41Z"/><path class="cls-10" d="M304.9,591.73a2.52,2.52,0,0,0-.71-1.59,2.19,2.19,0,0,0-1.64-.61,2.72,2.72,0,0,0-1.23.26,2.76,2.76,0,0,0-.88.7,4.07,4.07,0,0,0-.57,1,8.68,8.68,0,0,0-.36,1.19,10.46,10.46,0,0,0-.19,1.23c0,.4-.08.78-.11,1.14l.05,0a3.36,3.36,0,0,1,1.46-1.43,4.32,4.32,0,0,1,2-.48,5.21,5.21,0,0,1,2.14.42,4.5,4.5,0,0,1,1.6,1.14,4.86,4.86,0,0,1,1,1.71,6.45,6.45,0,0,1,.35,2.14,6.11,6.11,0,0,1-.38,2.17,5.2,5.2,0,0,1-1.1,1.75,4.81,4.81,0,0,1-1.7,1.16,5.54,5.54,0,0,1-2.18.42,5.75,5.75,0,0,1-2.91-.66,4.91,4.91,0,0,1-1.8-1.79,8.09,8.09,0,0,1-.91-2.67,21.28,21.28,0,0,1-.25-3.3,14.56,14.56,0,0,1,.31-2.92,8.74,8.74,0,0,1,1-2.68,5.88,5.88,0,0,1,1.87-2,5.59,5.59,0,0,1,4.68-.44,5.09,5.09,0,0,1,1.51.9,4.73,4.73,0,0,1,1.07,1.38,4.43,4.43,0,0,1,.46,1.79Zm-2.53,10.17a2.5,2.5,0,0,0,1.24-.29,2.87,2.87,0,0,0,.88-.74,3.07,3.07,0,0,0,.53-1.07,4.45,4.45,0,0,0,.17-1.26,4.27,4.27,0,0,0-.17-1.24,2.89,2.89,0,0,0-.53-1,2.81,2.81,0,0,0-.88-.72,2.73,2.73,0,0,0-1.24-.28,2.78,2.78,0,0,0-1.26.27,2.64,2.64,0,0,0-.91.71,3.09,3.09,0,0,0-.55,1,4.54,4.54,0,0,0,0,2.53,3.39,3.39,0,0,0,.55,1.07,2.73,2.73,0,0,0,.91.74A2.66,2.66,0,0,0,302.37,601.9Z"/><path class="cls-3" d="M303.43,647.8l4.76,31.82a84.7,84.7,0,0,1-88.33-46l60.94-30.38h0a16.57,16.57,0,0,0,17.31,9Z"/><path class="cls-4" d="M236.29,535.42,284,584a16.81,16.81,0,0,0-3.15,4.29,16.58,16.58,0,0,0-.06,15h0l-60.94,30.38-20.66,10.3a107.79,107.79,0,0,1,20.92-125Z"/><path class="cls-5" d="M345.44,500.23A107.8,107.8,0,0,1,402,613.64l-54.5-9.12-35.42-5.93a16.62,16.62,0,0,0-8.72-17.48l31.44-60.4Z"/><path class="cls-6" d="M334.78,520.71l-31.44,60.4-.11-.06A16.62,16.62,0,0,0,284,584l-47.73-48.57A84.71,84.71,0,0,1,334.78,520.71Z"/><path class="cls-7" d="M312.06,598.59l35.42,5.93a52.54,52.54,0,0,1-44.05,43.28l-5.31-35.53a16.66,16.66,0,0,0,13.94-13.68Z"/><line class="cls-12" x1="658.83" y1="577.66" x2="658.82" y2="577.66"/><path class="cls-5" d="M671.38,574.68l-12.55,3a64.62,64.62,0,0,0-44.3-46.94l3.69-12.35A77.46,77.46,0,0,1,671.38,574.68Z"/><path class="cls-4" d="M531.49,592.56a64.17,64.17,0,0,0,1.74,14.9l-12.55,3a77.44,77.44,0,0,1,22.19-74.2l8.86,9.39A64.37,64.37,0,0,0,531.49,592.56Z"/><path class="cls-6" d="M625.68,493.44l-7.46,24.93-3.69,12.35a64.66,64.66,0,0,0-62.8,14.91l-8.86-9.39L525,517.32A103.45,103.45,0,0,1,625.68,493.44Z"/><line class="cls-13" x1="614.53" y1="530.72" x2="614.52" y2="530.73"/><line class="cls-12" x1="533.24" y1="607.46" x2="533.23" y2="607.46"/><path class="cls-7" d="M640.33,639.49,658,658.26a89.48,89.48,0,0,1-87.9,20.86h0l7.4-24.72a64.58,64.58,0,0,0,62.8-14.91Z"/><path class="cls-9" d="M683.94,571.7A89.49,89.49,0,0,1,658,658.26l-17.71-18.77a64.65,64.65,0,0,0,18.5-61.83l12.55-3Z"/><path class="cls-3" d="M533.23,607.46a64.62,64.62,0,0,0,44.3,46.94l-7.4,24.72-3.75,12.56a103.47,103.47,0,0,1-71-75.24l25.32-6Z"/><path class="cls-10" d="M567.11,628.68A32,32,0,0,1,557,627.14a23.25,23.25,0,0,1-8-4.46,20.19,20.19,0,0,1-5.28-7.13,22.6,22.6,0,0,1-1.9-9.43,18.16,18.16,0,0,1,3.54-11.39,16.87,16.87,0,0,1,9.59-6.15v-.21a15.31,15.31,0,0,1-7.54-5.69,15.77,15.77,0,0,1-2.62-9.08q0-9.23,5.8-14.41T567.11,554q10.77,0,16.56,5.18t5.8,14.41a15.77,15.77,0,0,1-2.62,9.08,15.31,15.31,0,0,1-7.54,5.69v.21a16.9,16.9,0,0,1,9.59,6.15,18.16,18.16,0,0,1,3.54,11.39,22.6,22.6,0,0,1-1.9,9.43,20.19,20.19,0,0,1-5.28,7.13,23.25,23.25,0,0,1-8,4.46A32,32,0,0,1,567.11,628.68Zm0-9.23a14.06,14.06,0,0,0,9.74-3.49q3.9-3.48,3.9-9.84,0-6-3.9-9.29a15.92,15.92,0,0,0-19.49,0q-3.9,3.34-3.9,9.29,0,6.36,3.9,9.84A14.06,14.06,0,0,0,567.11,619.45Zm0-56.21a11.88,11.88,0,0,0-8,2.82c-2.18,1.88-3.28,4.6-3.28,8.16s1.06,6,3.18,7.84a13.44,13.44,0,0,0,16.21,0q3.18-2.71,3.18-7.84c0-3.56-1.1-6.28-3.28-8.16A11.87,11.87,0,0,0,567.11,563.24Z"/><path class="cls-10" d="M636.14,573.6a11.25,11.25,0,0,0-3.13-7.13,9.94,9.94,0,0,0-7.34-2.71,11.82,11.82,0,0,0-5.48,1.18,12,12,0,0,0-3.9,3.12,16.36,16.36,0,0,0-2.57,4.47,36,36,0,0,0-1.59,5.28,44.07,44.07,0,0,0-.87,5.49c-.17,1.81-.32,3.5-.46,5.07l.21.21a15.08,15.08,0,0,1,6.51-6.41,19.61,19.61,0,0,1,9-2.11,23.5,23.5,0,0,1,9.54,1.85,20.57,20.57,0,0,1,7.13,5.08,21.93,21.93,0,0,1,4.46,7.64,28.66,28.66,0,0,1,1.54,9.54,27,27,0,0,1-1.69,9.69,22.92,22.92,0,0,1-4.87,7.8,22.23,22.23,0,0,1-7.59,5.18,25,25,0,0,1-9.75,1.84q-7.89,0-13-2.92a21.4,21.4,0,0,1-8-8,35.11,35.11,0,0,1-4-11.9,89.43,89.43,0,0,1-1.13-14.72,63.06,63.06,0,0,1,1.38-13,39.14,39.14,0,0,1,4.57-12,26.18,26.18,0,0,1,8.36-8.77,24.85,24.85,0,0,1,20.87-1.95,21.84,21.84,0,0,1,6.72,4,20.67,20.67,0,0,1,4.77,6.15,19.32,19.32,0,0,1,2.05,8Zm-11.29,45.34a11.48,11.48,0,0,0,5.54-1.28,12.54,12.54,0,0,0,4-3.34,13.67,13.67,0,0,0,2.36-4.77,20.5,20.5,0,0,0,.77-5.59,20,20,0,0,0-.77-5.54,13.32,13.32,0,0,0-2.36-4.66,12.1,12.1,0,0,0-4-3.23,11.82,11.82,0,0,0-5.54-1.23,12.53,12.53,0,0,0-5.59,1.18,11.94,11.94,0,0,0-4,3.17,13.72,13.72,0,0,0-2.46,4.67,19.81,19.81,0,0,0,0,11.28,14.8,14.8,0,0,0,2.46,4.77,11.93,11.93,0,0,0,4,3.34A12.14,12.14,0,0,0,624.85,618.94Z"/><path class="cls-10" d="M1208.2,597.33l-.15,0a.51.51,0,0,1-.33-.63l3-9.32a.51.51,0,0,1,.63-.32.5.5,0,0,1,.32.63l-3,9.32A.5.5,0,0,1,1208.2,597.33Z"/><path class="cls-10" d="M1248.49,597.33a.5.5,0,0,1-.48-.34l-3-9.32a.49.49,0,0,1,.32-.63.51.51,0,0,1,.63.32l3,9.32a.49.49,0,0,1-.32.63Z"/><path class="cls-10" d="M1267.12,591.28a.51.51,0,0,1-.48-.35l-3-9.31a.49.49,0,0,1,.32-.63.5.5,0,0,1,.63.32l3,9.31a.49.49,0,0,1-.32.63Z"/><path class="cls-10" d="M1285.75,585.22a.5.5,0,0,1-.48-.34l-3-9.32a.5.5,0,0,1,.32-.63.51.51,0,0,1,.63.32l3,9.32a.49.49,0,0,1-.32.63A.39.39,0,0,1,1285.75,585.22Z"/><path class="cls-10" d="M1304.38,579.17a.5.5,0,0,1-.48-.34l-3-9.32a.5.5,0,0,1,.32-.63.51.51,0,0,1,.63.32l3,9.32a.51.51,0,0,1-.33.63Z"/><path class="cls-10" d="M1235.9,617.45a.51.51,0,0,1-.41-.2.51.51,0,0,1,.11-.7l7.93-5.76a.5.5,0,0,1,.69.11.49.49,0,0,1-.11.7l-7.92,5.76A.52.52,0,0,1,1235.9,617.45Z"/><path class="cls-10" d="M1247.41,633.3a.5.5,0,0,1-.29-.9l7.92-5.76a.5.5,0,0,1,.59.81l-7.93,5.76A.5.5,0,0,1,1247.41,633.3Z"/><path class="cls-10" d="M1258.92,649.15a.49.49,0,0,1-.4-.21.5.5,0,0,1,.11-.69l7.92-5.76a.5.5,0,0,1,.59.81l-7.92,5.75A.47.47,0,0,1,1258.92,649.15Z"/><path class="cls-10" d="M1270.44,665a.48.48,0,0,1-.4-.21.49.49,0,0,1,.11-.7l7.92-5.75a.49.49,0,0,1,.7.11.51.51,0,0,1-.11.7l-7.93,5.75A.46.46,0,0,1,1270.44,665Z"/><path class="cls-10" d="M1186.25,665a.49.49,0,0,1-.3-.1l-7.92-5.75a.51.51,0,0,1-.11-.7.49.49,0,0,1,.7-.11l7.92,5.75a.49.49,0,0,1,.11.7A.48.48,0,0,1,1186.25,665Z"/><path class="cls-10" d="M1197.76,649.15a.46.46,0,0,1-.29-.1l-7.93-5.75a.51.51,0,0,1-.11-.7.5.5,0,0,1,.7-.11l7.93,5.76a.5.5,0,0,1-.3.9Z"/><path class="cls-10" d="M1209.28,633.3a.53.53,0,0,1-.3-.09l-7.92-5.76a.5.5,0,1,1,.59-.81l7.92,5.76a.5.5,0,0,1-.29.9Z"/><path class="cls-10" d="M1220.79,617.45a.52.52,0,0,1-.29-.09l-7.93-5.76a.5.5,0,1,1,.59-.81l7.93,5.76a.51.51,0,0,1,.11.7A.51.51,0,0,1,1220.79,617.45Z"/><path class="cls-10" d="M1233.24,579.14h-9.79a.5.5,0,0,1-.5-.5.5.5,0,0,1,.5-.5h9.79a.5.5,0,0,1,.5.5A.5.5,0,0,1,1233.24,579.14Z"/><path class="cls-10" d="M1233.24,559.55h-9.79a.5.5,0,0,1-.5-.5.5.5,0,0,1,.5-.5h9.79a.5.5,0,0,1,.5.5A.5.5,0,0,1,1233.24,559.55Z"/><path class="cls-10" d="M1233.24,540h-9.79a.5.5,0,0,1,0-1h9.79a.5.5,0,0,1,0,1Z"/><path class="cls-10" d="M1233.24,520.37h-9.79a.5.5,0,0,1,0-1h9.79a.5.5,0,0,1,0,1Z"/><path class="cls-10" d="M1285.92,678H1170.77a.49.49,0,0,1-.47-.35l-35.58-109.51a.47.47,0,0,1,.18-.55l93.15-67.68a.5.5,0,0,1,.59,0l93.15,67.68a.47.47,0,0,1,.18.55l-35.58,109.51A.5.5,0,0,1,1285.92,678Zm-114.78-1h114.41l35.36-108.82-92.57-67.25-92.56,67.25Z"/><path class="cls-10" d="M1228.34,598.73a.5.5,0,0,1-.15-1l93.15-30.27a.5.5,0,0,1,.31,1L1228.5,598.7A.45.45,0,0,1,1228.34,598.73Z"/><path class="cls-10" d="M1285.92,678a.49.49,0,0,1-.41-.21l-57.57-79.24a.5.5,0,1,1,.81-.59l57.57,79.24a.51.51,0,0,1-.11.7A.46.46,0,0,1,1285.92,678Z"/><path class="cls-10" d="M1170.77,678a.46.46,0,0,1-.29-.1.5.5,0,0,1-.11-.7l57.57-79.24a.5.5,0,1,1,.81.59l-57.57,79.24A.49.49,0,0,1,1170.77,678Z"/><path class="cls-10" d="M1228.34,598.73a.51.51,0,0,1-.5-.5v-98a.5.5,0,0,1,.5-.5.5.5,0,0,1,.5.5v98A.5.5,0,0,1,1228.34,598.73Z"/><path class="cls-10" d="M1228.34,598.73l-.15,0L1135,568.44a.49.49,0,0,1-.32-.63.5.5,0,0,1,.63-.33l93.15,30.27a.5.5,0,0,1-.16,1Z"/><path class="cls-10" d="M1152.31,579.17l-.16,0a.51.51,0,0,1-.32-.63l3-9.32a.5.5,0,0,1,1,.31l-3,9.32A.48.48,0,0,1,1152.31,579.17Z"/><path class="cls-10" d="M1170.94,585.22a.39.39,0,0,1-.15,0,.51.51,0,0,1-.33-.63l3-9.32a.51.51,0,0,1,.63-.32.5.5,0,0,1,.32.63l-3,9.32A.48.48,0,0,1,1170.94,585.22Z"/><path class="cls-10" d="M1189.57,591.28l-.16,0a.5.5,0,0,1-.32-.63l3-9.31a.5.5,0,0,1,.63-.32.49.49,0,0,1,.32.63l-3,9.31A.49.49,0,0,1,1189.57,591.28Z"/><g class="cls-14"><polygon class="cls-15" points="1228.34 559.05 1172.45 580.07 1182.29 661.62 1251.37 629.92 1302.87 574.01 1228.34 559.05"/></g><path class="cls-8" d="M1201.56,601.38c0-4.43,2.64-7.57,7-9.4l0-.16c-3.89-1.84-5.56-4.86-5.56-7.89,0-5.56,4.69-9.34,10.85-9.34,6.8,0,10.21,4.27,10.21,8.64,0,3-1.46,6.16-5.78,8.21v.16c4.37,1.73,7.07,4.81,7.07,9.07,0,6.11-5.24,10.21-11.93,10.21C1206,610.88,1201.56,606.51,1201.56,601.38Zm18.9-.22c0-4.27-3-6.32-7.73-7.67-4.1,1.19-6.31,3.89-6.31,7.24-.17,3.56,2.53,6.69,7,6.69C1217.7,607.42,1220.46,604.78,1220.46,601.16Zm-13.07-17.55c0,3.51,2.64,5.4,6.69,6.48,3-1,5.35-3.19,5.35-6.37,0-2.81-1.67-5.73-5.94-5.73C1209.55,578,1207.39,580.58,1207.39,583.61Z"/><path class="cls-8" d="M1230.82,604.83a15.81,15.81,0,0,0,7.78,2.22c6.1,0,8-3.89,7.94-6.81-.06-4.91-4.48-7-9.08-7h-2.64v-3.56h2.64c3.46,0,7.83-1.78,7.83-5.94,0-2.81-1.78-5.29-6.15-5.29a12.88,12.88,0,0,0-7,2.32l-1.24-3.46a16.67,16.67,0,0,1,9.18-2.7c6.91,0,10,4.11,10,8.37,0,3.62-2.16,6.7-6.48,8.26v.11c4.32.87,7.83,4.11,7.83,9,0,5.62-4.37,10.53-12.8,10.53a17.77,17.77,0,0,1-9.12-2.38Z"/><path class="cls-10" d="M1098.41,556.17a15.86,15.86,0,0,1,2.51-.19,4.14,4.14,0,0,1,2.83.84,2.69,2.69,0,0,1,.89,2.11,3,3,0,0,1-.78,2.16,4.18,4.18,0,0,1-3.09,1.11,4.24,4.24,0,0,1-1-.09v4h-1.31Zm1.31,4.88a4.61,4.61,0,0,0,1.08.1c1.57,0,2.53-.76,2.53-2.16s-.94-2-2.38-2a5.37,5.37,0,0,0-1.23.11Z"/><path class="cls-10" d="M1106.11,561.17c0-.86,0-1.59-.06-2.27h1.15l0,1.43h.06a2.17,2.17,0,0,1,2-1.59,1.4,1.4,0,0,1,.37,0V560a1.93,1.93,0,0,0-.45,0,1.86,1.86,0,0,0-1.77,1.7,3.71,3.71,0,0,0-.06.61v3.87h-1.3Z"/><path class="cls-10" d="M1112.54,556.86a.77.77,0,0,1-.84.81.78.78,0,0,1-.79-.81.8.8,0,0,1,.82-.82A.78.78,0,0,1,1112.54,556.86Zm-1.47,9.3V558.9h1.32v7.26Z"/><path class="cls-10" d="M1119.76,565.89a4.89,4.89,0,0,1-2.09.42,3.44,3.44,0,0,1-3.61-3.7,3.69,3.69,0,0,1,3.9-3.86,4.4,4.4,0,0,1,1.83.38l-.3,1a3.07,3.07,0,0,0-1.53-.35,2.51,2.51,0,0,0-2.57,2.75,2.48,2.48,0,0,0,2.52,2.71,3.66,3.66,0,0,0,1.62-.36Z"/><path class="cls-10" d="M1122,562.77a2.32,2.32,0,0,0,2.49,2.52,4.82,4.82,0,0,0,2-.37l.22.94a5.85,5.85,0,0,1-2.41.45,3.37,3.37,0,0,1-3.57-3.66c0-2.19,1.29-3.91,3.4-3.91,2.37,0,3,2.08,3,3.42,0,.27,0,.48,0,.61Zm3.87-.94a1.89,1.89,0,0,0-1.83-2.15,2.19,2.19,0,0,0-2,2.15Z"/><path class="cls-10" d="M1184.63,485.55v4.23h4.89v-4.23h1.32v10.11h-1.32v-4.74h-4.89v4.74h-1.3V485.55Z"/><path class="cls-10" d="M1193.8,492.27a2.32,2.32,0,0,0,2.49,2.52,4.82,4.82,0,0,0,2-.37l.22.94a5.85,5.85,0,0,1-2.41.45,3.37,3.37,0,0,1-3.57-3.66c0-2.19,1.29-3.91,3.4-3.91,2.37,0,3,2.08,3,3.42,0,.27,0,.48,0,.61Zm3.87-.94a1.89,1.89,0,0,0-1.83-2.15,2.19,2.19,0,0,0-2,2.15Z"/><path class="cls-10" d="M1204.6,495.66l-.11-.91h0a2.72,2.72,0,0,1-2.22,1.08,2.07,2.07,0,0,1-2.22-2.09c0-1.75,1.56-2.71,4.36-2.7v-.15a1.49,1.49,0,0,0-1.65-1.68,3.63,3.63,0,0,0-1.89.54l-.3-.87a4.51,4.51,0,0,1,2.39-.64c2.22,0,2.76,1.51,2.76,3v2.71a10.18,10.18,0,0,0,.12,1.74Zm-.2-3.7c-1.44,0-3.07.22-3.07,1.63a1.16,1.16,0,0,0,1.24,1.26,1.81,1.81,0,0,0,1.76-1.21,1.6,1.6,0,0,0,.07-.42Z"/><path class="cls-10" d="M1207.81,485h1.32v10.65h-1.32Z"/><path class="cls-10" d="M1212.94,486.32v2.08h1.89v1h-1.89v3.91c0,.9.25,1.41,1,1.41a2.69,2.69,0,0,0,.76-.09l.06,1a3.11,3.11,0,0,1-1.17.18,1.82,1.82,0,0,1-1.42-.55,2.67,2.67,0,0,1-.51-1.89v-4h-1.13v-1h1.13v-1.74Z"/><path class="cls-10" d="M1216.31,485h1.32v4.53h0a2.5,2.5,0,0,1,.95-.93,2.75,2.75,0,0,1,1.35-.37c1,0,2.53.6,2.53,3.1v4.32h-1.32v-4.17c0-1.17-.43-2.16-1.68-2.16a1.9,1.9,0,0,0-1.77,1.32,1.71,1.71,0,0,0-.09.63v4.38h-1.32Z"/><path class="cls-10" d="M1234.19,495.66c-.28-.28-.55-.57-.94-1a4.16,4.16,0,0,1-3,1.16,2.86,2.86,0,0,1-3.1-2.84,3.31,3.31,0,0,1,2-2.95V490a3.43,3.43,0,0,1-.84-2.11,2.45,2.45,0,0,1,2.56-2.49,2.11,2.11,0,0,1,2.24,2.14c0,1.07-.62,1.91-2.22,2.7v0c.85,1,1.81,2.1,2.46,2.82a7.44,7.44,0,0,0,1-3h1.2a7.73,7.73,0,0,1-1.45,3.74l1.66,1.78Zm-1.59-1.74c-.6-.66-1.72-1.89-2.85-3.18a2.49,2.49,0,0,0-1.3,2.06,2,2,0,0,0,2.07,2A2.8,2.8,0,0,0,1232.6,493.92Zm-3.07-6.16a2.84,2.84,0,0,0,.76,1.81c1-.58,1.68-1.12,1.68-2a1.19,1.19,0,0,0-1.17-1.3A1.31,1.31,0,0,0,1229.53,487.76Z"/><path class="cls-10" d="M1239.94,494.07a4.61,4.61,0,0,0,2.34.66c1.33,0,2.11-.7,2.11-1.72s-.54-1.49-1.9-2c-1.65-.59-2.67-1.44-2.67-2.87s1.3-2.74,3.27-2.74a4.65,4.65,0,0,1,2.23.49L1245,487a4,4,0,0,0-1.92-.48c-1.38,0-1.9.82-1.9,1.51,0,.95.61,1.41,2,1.95,1.71.66,2.58,1.49,2.58,3s-1.16,2.91-3.54,2.91a5.21,5.21,0,0,1-2.58-.64Z"/><path class="cls-10" d="M1251.53,495.66l-.1-.91h0a2.69,2.69,0,0,1-2.22,1.08,2.07,2.07,0,0,1-2.22-2.09c0-1.75,1.56-2.71,4.37-2.7v-.15a1.5,1.5,0,0,0-1.65-1.68,3.6,3.6,0,0,0-1.89.54l-.3-.87a4.5,4.5,0,0,1,2.38-.64c2.22,0,2.76,1.51,2.76,3v2.71a10.18,10.18,0,0,0,.12,1.74Zm-.19-3.7c-1.44,0-3.08.22-3.08,1.63a1.17,1.17,0,0,0,1.25,1.26,1.81,1.81,0,0,0,1.75-1.21,1.3,1.3,0,0,0,.08-.42Z"/><path class="cls-10" d="M1254.88,495.66v-6.25h-1v-1h1v-.34a3.42,3.42,0,0,1,.84-2.54,2.5,2.5,0,0,1,1.77-.67,2.93,2.93,0,0,1,1.12.21l-.18,1a1.93,1.93,0,0,0-.84-.17c-1.12,0-1.41,1-1.41,2.1v.39h1.76v1h-1.76v6.25Z"/><path class="cls-10" d="M1259.66,492.27a2.32,2.32,0,0,0,2.49,2.52,4.75,4.75,0,0,0,2-.37l.23.94a5.91,5.91,0,0,1-2.42.45,3.37,3.37,0,0,1-3.57-3.66c0-2.19,1.29-3.91,3.41-3.91,2.37,0,3,2.08,3,3.42a3.87,3.87,0,0,1,0,.61Zm3.87-.94a1.88,1.88,0,0,0-1.83-2.15,2.18,2.18,0,0,0-2,2.15Z"/><path class="cls-10" d="M1268,486.32v2.08h1.89v1H1268v3.91c0,.9.26,1.41,1,1.41a2.77,2.77,0,0,0,.77-.09l.06,1a3.14,3.14,0,0,1-1.17.18,1.84,1.84,0,0,1-1.43-.55,2.72,2.72,0,0,1-.51-1.89v-4h-1.12v-1h1.12v-1.74Z"/><path class="cls-10" d="M1272,488.4l1.59,4.29c.17.48.34,1.05.47,1.49h0c.13-.44.28-1,.46-1.52l1.44-4.26h1.4l-2,5.18c-1,2.49-1.59,3.76-2.49,4.54a3.62,3.62,0,0,1-1.62.86l-.33-1.11a3.59,3.59,0,0,0,1.15-.65,3.92,3.92,0,0,0,1.11-1.47,1,1,0,0,0,.11-.31,1.17,1.17,0,0,0-.09-.35l-2.69-6.69Z"/><path class="cls-10" d="M1336.16,562.18c-.08-1.41-.17-3.11-.15-4.37h0c-.34,1.19-.76,2.45-1.27,3.84l-1.79,4.91h-1l-1.63-4.82c-.48-1.42-.89-2.73-1.17-3.93h0c0,1.26-.11,3-.2,4.47l-.27,4.34h-1.24l.7-10.11h1.67l1.72,4.89c.42,1.24.77,2.35,1,3.4h0c.25-1,.61-2.13,1.06-3.4l1.8-4.89h1.67l.63,10.11h-1.28Z"/><path class="cls-10" d="M1343.76,566.62l-.1-.92h-.05a2.69,2.69,0,0,1-2.22,1.08,2.06,2.06,0,0,1-2.22-2.08c0-1.76,1.56-2.72,4.37-2.7v-.15a1.5,1.5,0,0,0-1.65-1.68,3.6,3.6,0,0,0-1.89.54l-.3-.87a4.5,4.5,0,0,1,2.38-.65c2.22,0,2.76,1.52,2.76,3v2.72a10.26,10.26,0,0,0,.12,1.74Zm-.19-3.71c-1.44,0-3.08.23-3.08,1.64a1.17,1.17,0,0,0,1.25,1.26,1.8,1.8,0,0,0,1.75-1.22,1.2,1.2,0,0,0,.08-.42Z"/><path class="cls-10" d="M1348.44,557.32a.77.77,0,0,1-.84.81.78.78,0,0,1-.79-.81.8.8,0,0,1,.82-.83A.78.78,0,0,1,1348.44,557.32Zm-1.47,9.3v-7.26h1.32v7.26Z"/><path class="cls-10" d="M1350.48,561.32c0-.75,0-1.36-.06-2h1.17l.08,1.2h0a2.67,2.67,0,0,1,2.4-1.37c1,0,2.56.6,2.56,3.09v4.34h-1.32v-4.19c0-1.17-.43-2.14-1.68-2.14a1.94,1.94,0,0,0-1.86,2v4.37h-1.32Z"/><path class="cls-10" d="M1360.34,557.27v2.09h1.88v1h-1.88v3.92c0,.9.25,1.41,1,1.41a3.13,3.13,0,0,0,.76-.09l.06,1a3.37,3.37,0,0,1-1.17.18,1.86,1.86,0,0,1-1.43-.56,2.71,2.71,0,0,1-.51-1.89v-4h-1.12v-1H1359v-1.74Z"/><path class="cls-10" d="M1364.36,563.23a2.32,2.32,0,0,0,2.49,2.52,4.8,4.8,0,0,0,2-.38l.22,1a5.87,5.87,0,0,1-2.42.45,3.37,3.37,0,0,1-3.56-3.66c0-2.19,1.28-3.92,3.4-3.92,2.37,0,3,2.09,3,3.42a4.15,4.15,0,0,1,0,.62Zm3.86-1a1.87,1.87,0,0,0-1.83-2.14,2.18,2.18,0,0,0-2,2.14Z"/><path class="cls-10" d="M1371.13,561.32c0-.75,0-1.36-.05-2h1.17l.07,1.2h0a2.67,2.67,0,0,1,2.4-1.37c1,0,2.56.6,2.56,3.09v4.34H1376v-4.19c0-1.17-.43-2.14-1.68-2.14a1.94,1.94,0,0,0-1.86,2v4.37h-1.32Z"/><path class="cls-10" d="M1383.48,566.62l-.11-.92h0a2.72,2.72,0,0,1-2.22,1.08,2.06,2.06,0,0,1-2.22-2.08c0-1.76,1.56-2.72,4.36-2.7v-.15a1.49,1.49,0,0,0-1.65-1.68,3.63,3.63,0,0,0-1.89.54l-.3-.87a4.51,4.51,0,0,1,2.39-.65c2.22,0,2.76,1.52,2.76,3v2.72a10.26,10.26,0,0,0,.12,1.74Zm-.19-3.71c-1.45,0-3.08.23-3.08,1.64a1.17,1.17,0,0,0,1.24,1.26,1.81,1.81,0,0,0,1.76-1.22,1.49,1.49,0,0,0,.08-.42Z"/><path class="cls-10" d="M1386.69,561.32c0-.75,0-1.36-.06-2h1.17l.07,1.2h0a2.67,2.67,0,0,1,2.4-1.37c1,0,2.57.6,2.57,3.09v4.34h-1.32v-4.19c0-1.17-.44-2.14-1.68-2.14a1.94,1.94,0,0,0-1.86,2v4.37h-1.32Z"/><path class="cls-10" d="M1400.19,566.35a4.89,4.89,0,0,1-2.09.42,3.45,3.45,0,0,1-3.61-3.71,3.69,3.69,0,0,1,3.9-3.85,4.42,4.42,0,0,1,1.83.37l-.3,1a3.08,3.08,0,0,0-1.53-.34,2.74,2.74,0,0,0-.05,5.46,3.81,3.81,0,0,0,1.62-.36Z"/><path class="cls-10" d="M1402.38,563.23a2.33,2.33,0,0,0,2.49,2.52,4.8,4.8,0,0,0,2-.38l.22,1a5.85,5.85,0,0,1-2.41.45,3.37,3.37,0,0,1-3.57-3.66c0-2.19,1.29-3.92,3.4-3.92,2.37,0,3,2.09,3,3.42,0,.27,0,.48,0,.62Zm3.87-1a1.88,1.88,0,0,0-1.83-2.14,2.19,2.19,0,0,0-2,2.14Z"/><path class="cls-10" d="M1286.89,682.51h1.3v9h4.32v1.1h-5.62Z"/><path class="cls-10" d="M1300.28,688.93a3.55,3.55,0,0,1-3.61,3.85,3.45,3.45,0,0,1-3.48-3.73,3.55,3.55,0,0,1,3.6-3.86A3.44,3.44,0,0,1,1300.28,688.93Zm-5.76.07c0,1.59.92,2.79,2.21,2.79s2.2-1.18,2.2-2.82c0-1.23-.61-2.79-2.17-2.79S1294.52,687.62,1294.52,689Z"/><path class="cls-10" d="M1302,687.32c0-.75,0-1.36-.06-2h1.17l.07,1.2h0a2.67,2.67,0,0,1,2.4-1.37c1,0,2.57.6,2.57,3.09v4.34h-1.32v-4.19c0-1.17-.44-2.14-1.68-2.14a1.94,1.94,0,0,0-1.86,2v4.37H1302Z"/><path class="cls-10" d="M1316.53,685.36c0,.52-.06,1.11-.06,2v4.22c0,1.66-.33,2.68-1,3.31a3.83,3.83,0,0,1-2.64.87,4.65,4.65,0,0,1-2.41-.6l.33-1a4.09,4.09,0,0,0,2.13.57c1.35,0,2.34-.71,2.34-2.54v-.81h0a2.6,2.6,0,0,1-2.31,1.22,3.25,3.25,0,0,1-3.09-3.54c0-2.46,1.6-3.86,3.27-3.86a2.4,2.4,0,0,1,2.26,1.26h0l.06-1.09Zm-1.37,2.86a1.91,1.91,0,0,0-1.92-2c-1.26,0-2.16,1.06-2.16,2.74,0,1.43.72,2.61,2.15,2.61a1.93,1.93,0,0,0,1.83-1.35,2.42,2.42,0,0,0,.1-.7Z"/><path class="cls-10" d="M1319.39,689.23a2.33,2.33,0,0,0,2.49,2.52,4.73,4.73,0,0,0,2-.38l.23,1a5.91,5.91,0,0,1-2.42.45,3.37,3.37,0,0,1-3.57-3.66c0-2.19,1.29-3.92,3.41-3.92,2.37,0,3,2.09,3,3.42a4.15,4.15,0,0,1,0,.62Zm3.87-1a1.87,1.87,0,0,0-1.83-2.14,2.18,2.18,0,0,0-2,2.14Z"/><path class="cls-10" d="M1326.68,685.36l1.43,4.08a18.59,18.59,0,0,1,.58,1.86h0c.16-.6.37-1.2.61-1.86l1.41-4.08h1.38l-2.85,7.26H1328l-2.76-7.26Z"/><path class="cls-10" d="M1334.86,683.32a.82.82,0,0,1-1.64,0,.81.81,0,0,1,.83-.83A.79.79,0,0,1,1334.86,683.32Zm-1.47,9.3v-7.26h1.32v7.26Z"/><path class="cls-10" d="M1338.49,683.27v2.09h1.89v1h-1.89v3.92c0,.9.25,1.41,1,1.41a3.13,3.13,0,0,0,.76-.09l.06,1a3.32,3.32,0,0,1-1.17.18,1.82,1.82,0,0,1-1.42-.56,2.66,2.66,0,0,1-.51-1.89v-4h-1.13v-1h1.13v-1.74Z"/><path class="cls-10" d="M1342.48,685.36l1.59,4.29c.16.48.34,1.05.46,1.48h0c.14-.43.29-1,.47-1.51l1.44-4.26h1.39l-2,5.17c-.94,2.49-1.59,3.77-2.49,4.55a3.53,3.53,0,0,1-1.62.85l-.33-1.11a3.4,3.4,0,0,0,1.16-.64,4.09,4.09,0,0,0,1.11-1.47.93.93,0,0,0,.1-.32,1.13,1.13,0,0,0-.09-.34l-2.68-6.69Z"/><path class="cls-10" d="M1094.07,692.29a6.48,6.48,0,0,1-2.67.48,4.72,4.72,0,0,1-5-5.12,5,5,0,0,1,5.28-5.31,5.44,5.44,0,0,1,2.4.45l-.32,1.07a4.74,4.74,0,0,0-2-.42c-2.37,0-3.94,1.51-3.94,4.17,0,2.47,1.42,4.06,3.88,4.06a5.11,5.11,0,0,0,2.13-.42Z"/><path class="cls-10" d="M1102.07,688.93a3.55,3.55,0,0,1-3.62,3.85,3.45,3.45,0,0,1-3.48-3.73,3.55,3.55,0,0,1,3.6-3.86A3.44,3.44,0,0,1,1102.07,688.93Zm-5.76.07c0,1.59.91,2.79,2.2,2.79s2.21-1.18,2.21-2.82c0-1.23-.62-2.79-2.18-2.79S1096.31,687.62,1096.31,689Z"/><path class="cls-10" d="M1103.73,687.32c0-.75,0-1.36-.06-2h1.17l.08,1.2h0a2.67,2.67,0,0,1,2.4-1.37c1,0,2.56.6,2.56,3.09v4.34h-1.32v-4.19c0-1.17-.43-2.14-1.68-2.14a1.94,1.94,0,0,0-1.86,2v4.37h-1.32Z"/><path class="cls-10" d="M1112.37,685.36l1.43,4.08a18.59,18.59,0,0,1,.58,1.86h0c.16-.6.37-1.2.61-1.86l1.41-4.08h1.38l-2.85,7.26h-1.26l-2.76-7.26Z"/><path class="cls-10" d="M1119.66,689.23a2.33,2.33,0,0,0,2.49,2.52,4.73,4.73,0,0,0,2-.38l.23,1a5.91,5.91,0,0,1-2.42.45,3.37,3.37,0,0,1-3.57-3.66c0-2.19,1.29-3.92,3.41-3.92,2.37,0,3,2.09,3,3.42a4.15,4.15,0,0,1,0,.62Zm3.87-1a1.87,1.87,0,0,0-1.83-2.14,2.18,2.18,0,0,0-2,2.14Z"/><path class="cls-10" d="M1126.44,687.32c0-.75,0-1.36-.06-2h1.17l.08,1.2h0a2.67,2.67,0,0,1,2.4-1.37c1,0,2.56.6,2.56,3.09v4.34h-1.32v-4.19c0-1.17-.43-2.14-1.68-2.14a1.94,1.94,0,0,0-1.86,2v4.37h-1.32Z"/><path class="cls-10" d="M1136.24,683.32a.82.82,0,0,1-1.64,0,.81.81,0,0,1,.83-.83A.79.79,0,0,1,1136.24,683.32Zm-1.47,9.3v-7.26h1.32v7.26Z"/><path class="cls-10" d="M1139,689.23a2.33,2.33,0,0,0,2.49,2.52,4.73,4.73,0,0,0,2-.38l.23,1a5.91,5.91,0,0,1-2.42.45,3.37,3.37,0,0,1-3.57-3.66c0-2.19,1.29-3.92,3.41-3.92,2.37,0,3,2.09,3,3.42a4.15,4.15,0,0,1-.05.62Zm3.87-1a1.87,1.87,0,0,0-1.83-2.14,2.18,2.18,0,0,0-2,2.14Z"/><path class="cls-10" d="M1145.79,687.32c0-.75,0-1.36-.06-2h1.17l.08,1.2h0a2.66,2.66,0,0,1,2.4-1.37c1,0,2.56.6,2.56,3.09v4.34h-1.32v-4.19c0-1.17-.44-2.14-1.68-2.14a1.94,1.94,0,0,0-1.86,2v4.37h-1.32Z"/><path class="cls-10" d="M1159.29,692.35a4.85,4.85,0,0,1-2.09.42,3.45,3.45,0,0,1-3.61-3.71,3.69,3.69,0,0,1,3.9-3.85,4.42,4.42,0,0,1,1.83.37l-.3,1a3.08,3.08,0,0,0-1.53-.34,2.74,2.74,0,0,0,0,5.46,3.84,3.84,0,0,0,1.62-.36Z"/><path class="cls-10" d="M1161.48,689.23a2.33,2.33,0,0,0,2.49,2.52,4.8,4.8,0,0,0,2-.38l.22,1a5.81,5.81,0,0,1-2.41.45,3.37,3.37,0,0,1-3.57-3.66c0-2.19,1.29-3.92,3.4-3.92,2.37,0,3,2.09,3,3.42,0,.27,0,.48,0,.62Zm3.87-1a1.88,1.88,0,0,0-1.83-2.14,2.19,2.19,0,0,0-2,2.14Z"/><path class="cls-16" d="M285.41,1101.74a48.51,48.51,0,0,1-9.32,28.67l-15.79-11.47a29,29,0,0,0,5.6-17.2Z"/><path class="cls-16" d="M276.09,1130.41a48.72,48.72,0,0,1-24.37,17.72l-6.05-18.56a29,29,0,0,0,14.63-10.63Z"/><path class="cls-16" d="M251.72,1148.13a48.93,48.93,0,0,1-30.15,0l6-18.57a29.16,29.16,0,0,0,18.07,0Z"/><path class="cls-16" d="M227.6,1129.58l-6,18.57a48.88,48.88,0,0,1-24.38-17.74L213,1118.94A29.17,29.17,0,0,0,227.6,1129.58Z"/><path class="cls-16" d="M213,1118.94l-15.79,11.47a48.5,48.5,0,0,1-9.31-28.67h19.5A29,29,0,0,0,213,1118.94Z"/><path class="cls-16" d="M213,1084.55a29,29,0,0,0-5.6,17.19h-19.5a48.49,48.49,0,0,1,9.31-28.66Z"/><path class="cls-16" d="M227.6,1073.92A29.09,29.09,0,0,0,213,1084.55l-15.79-11.47a48.82,48.82,0,0,1,24.38-17.74Z"/><path class="cls-16" d="M251.72,1055.35l-6.05,18.57a29.06,29.06,0,0,0-18.07,0l-6-18.58a49,49,0,0,1,30.15,0Z"/><path class="cls-16" d="M276.09,1073.08l-15.79,11.47a29,29,0,0,0-14.63-10.63l6.05-18.57A48.8,48.8,0,0,1,276.09,1073.08Z"/><path class="cls-16" d="M285.41,1101.74H265.9a29,29,0,0,0-5.6-17.19l15.79-11.47A48.5,48.5,0,0,1,285.41,1101.74Z"/><circle class="cls-17" cx="236.64" cy="1101.74" r="48.77"/><path class="cls-18" d="M404.09,1101.74a48.57,48.57,0,0,1-9.31,28.67L379,1118.94a29.07,29.07,0,0,0,5.59-17.2Z"/><path class="cls-18" d="M394.78,1130.41a48.79,48.79,0,0,1-24.38,17.72l-6-18.56A29,29,0,0,0,379,1118.94Z"/><path class="cls-18" d="M370.4,1148.13a48.25,48.25,0,0,1-15.08,2.39,48.76,48.76,0,0,1-15.07-2.37l6-18.57a29,29,0,0,0,9,1.43,28.7,28.7,0,0,0,9-1.44Z"/><path class="cls-18" d="M346.28,1129.58l-6,18.57a48.88,48.88,0,0,1-24.38-17.74l15.79-11.47A29.17,29.17,0,0,0,346.28,1129.58Z"/><path class="cls-18" d="M331.66,1118.94l-15.79,11.47a48.5,48.5,0,0,1-9.31-28.67h19.5A29,29,0,0,0,331.66,1118.94Z"/><path class="cls-18" d="M331.66,1084.55a29,29,0,0,0-5.6,17.19h-19.5a48.49,48.49,0,0,1,9.31-28.66Z"/><path class="cls-18" d="M346.28,1073.92a29.09,29.09,0,0,0-14.62,10.63l-15.79-11.47a48.82,48.82,0,0,1,24.38-17.74Z"/><path class="cls-18" d="M370.4,1055.35l-6,18.57a29.06,29.06,0,0,0-18.07,0l-6-18.58a49,49,0,0,1,30.15,0Z"/><path class="cls-18" d="M394.78,1073.08,379,1084.55a29,29,0,0,0-14.64-10.63l6-18.57A48.86,48.86,0,0,1,394.78,1073.08Z"/><circle class="cls-19" cx="355.32" cy="1101.74" r="48.77"/><path class="cls-20" d="M522.77,1101.74a48.57,48.57,0,0,1-9.31,28.67l-15.79-11.47a29.07,29.07,0,0,0,5.59-17.2Z"/><path class="cls-20" d="M513.46,1130.41a48.79,48.79,0,0,1-24.38,17.72L483,1129.57a29,29,0,0,0,14.64-10.63Z"/><path class="cls-20" d="M489.08,1148.13a48.25,48.25,0,0,1-15.08,2.39,48.76,48.76,0,0,1-15.07-2.37l6-18.57a29,29,0,0,0,9,1.43,28.7,28.7,0,0,0,9-1.44Z"/><path class="cls-20" d="M465,1129.58l-6,18.57a48.93,48.93,0,0,1-24.38-17.74l15.79-11.47A29.17,29.17,0,0,0,465,1129.58Z"/><path class="cls-20" d="M450.34,1118.94l-15.79,11.47a48.57,48.57,0,0,1-9.31-28.67h19.5A29,29,0,0,0,450.34,1118.94Z"/><path class="cls-20" d="M450.34,1084.55a29,29,0,0,0-5.6,17.19h-19.5a48.56,48.56,0,0,1,9.31-28.66Z"/><path class="cls-20" d="M465,1073.92a29.09,29.09,0,0,0-14.62,10.63l-15.79-11.47a48.87,48.87,0,0,1,24.38-17.74Z"/><path class="cls-20" d="M489.08,1055.35,483,1073.92a29.06,29.06,0,0,0-18.07,0l-6-18.58a49,49,0,0,1,30.15,0Z"/><circle class="cls-21" cx="474" cy="1101.74" r="48.77"/><path class="cls-22" d="M632.14,1130.41a48.74,48.74,0,0,1-24.38,17.72l-6-18.56a29.06,29.06,0,0,0,14.63-10.63Z"/><path class="cls-22" d="M641.45,1101.74a48.57,48.57,0,0,1-9.31,28.67l-15.79-11.47a29.07,29.07,0,0,0,5.59-17.2Z"/><path class="cls-22" d="M607.76,1148.13a48.2,48.2,0,0,1-15.08,2.39,48.76,48.76,0,0,1-15.07-2.37l6-18.57a29.19,29.19,0,0,0,18.08,0Z"/><path class="cls-22" d="M583.64,1129.58l-6,18.57a48.93,48.93,0,0,1-24.38-17.74L569,1118.94A29.17,29.17,0,0,0,583.64,1129.58Z"/><path class="cls-22" d="M569,1118.94l-15.79,11.47a48.57,48.57,0,0,1-9.31-28.67h19.51A29,29,0,0,0,569,1118.94Z"/><path class="cls-22" d="M569,1084.55a29,29,0,0,0-5.59,17.19H543.92a48.56,48.56,0,0,1,9.31-28.66Z"/><path class="cls-22" d="M583.64,1073.92A29.09,29.09,0,0,0,569,1084.55l-15.79-11.47a48.87,48.87,0,0,1,24.38-17.74Z"/><circle class="cls-23" cx="592.68" cy="1101.74" r="48.77"/><path class="cls-24" d="M760.13,1101.74a48.57,48.57,0,0,1-9.31,28.67L735,1118.94a29,29,0,0,0,5.59-17.2Z"/><path class="cls-24" d="M750.82,1130.41a48.74,48.74,0,0,1-24.38,17.72l-6-18.56A29,29,0,0,0,735,1118.94Z"/><path class="cls-24" d="M726.44,1148.13a48.2,48.2,0,0,1-15.08,2.39,48.76,48.76,0,0,1-15.07-2.37l6-18.57a29.19,29.19,0,0,0,18.08,0Z"/><path class="cls-24" d="M702.32,1129.58l-6,18.57a48.93,48.93,0,0,1-24.38-17.74l15.79-11.47A29.21,29.21,0,0,0,702.32,1129.58Z"/><path class="cls-24" d="M687.7,1118.94l-15.79,11.47a48.57,48.57,0,0,1-9.31-28.67h19.51A29.07,29.07,0,0,0,687.7,1118.94Z"/><path class="cls-24" d="M687.7,1084.55a29.06,29.06,0,0,0-5.59,17.19H662.6a48.56,48.56,0,0,1,9.31-28.66Z"/><circle class="cls-25" cx="711.37" cy="1101.74" r="48.77"/><path class="cls-26" d="M878.81,1101.74a48.57,48.57,0,0,1-9.31,28.67l-15.79-11.47a29,29,0,0,0,5.6-17.2Z"/><path class="cls-26" d="M869.5,1130.41a48.74,48.74,0,0,1-24.38,17.72l-6-18.56a29,29,0,0,0,14.63-10.63Z"/><path class="cls-26" d="M845.12,1148.13a48.2,48.2,0,0,1-15.08,2.39,48.81,48.81,0,0,1-15.07-2.37l6-18.57a29.19,29.19,0,0,0,18.08,0Z"/><path class="cls-26" d="M821,1129.58l-6,18.57a48.93,48.93,0,0,1-24.38-17.74l15.79-11.47A29.21,29.21,0,0,0,821,1129.58Z"/><path class="cls-26" d="M806.38,1118.94l-15.79,11.47a48.57,48.57,0,0,1-9.31-28.67h19.51A29.07,29.07,0,0,0,806.38,1118.94Z"/><circle class="cls-27" cx="830.05" cy="1101.74" r="48.77"/><path class="cls-28" d="M997.49,1101.74a48.5,48.5,0,0,1-9.31,28.67l-15.79-11.47a29,29,0,0,0,5.6-17.2Z"/><path class="cls-28" d="M988.18,1130.41a48.74,48.74,0,0,1-24.38,17.72l-6-18.56a29,29,0,0,0,14.63-10.63Z"/><path class="cls-28" d="M963.8,1148.13a48.2,48.2,0,0,1-15.08,2.39,48.81,48.81,0,0,1-15.07-2.37l6-18.57a29.05,29.05,0,0,0,9,1.43,28.72,28.72,0,0,0,9-1.44Z"/><path class="cls-28" d="M939.68,1129.58l-6,18.57a48.93,48.93,0,0,1-24.38-17.74l15.79-11.47A29.21,29.21,0,0,0,939.68,1129.58Z"/><circle class="cls-29" cx="948.73" cy="1101.74" r="48.77"/><path class="cls-30" d="M1116.17,1105.18a48.55,48.55,0,0,1-9.31,28.67l-15.79-11.48a29,29,0,0,0,5.6-17.19Z"/><path class="cls-30" d="M1106.86,1133.85a48.8,48.8,0,0,1-24.38,17.72l-6-18.57a28.9,28.9,0,0,0,14.63-10.63Z"/><path class="cls-30" d="M1082.48,1151.57a49,49,0,0,1-30.15,0l6-18.56a29.39,29.39,0,0,0,9,1.43,28.72,28.72,0,0,0,9-1.45Z"/><circle class="cls-31" cx="1067.41" cy="1103.11" r="48.77"/><path class="cls-32" d="M1234.66,1105.18a48.62,48.62,0,0,1-9.31,28.67l-15.79-11.48a29,29,0,0,0,5.59-17.19Z"/><path class="cls-32" d="M1225.35,1133.85a48.85,48.85,0,0,1-24.38,17.72l-6-18.57a28.93,28.93,0,0,0,14.64-10.63Z"/><circle class="cls-33" cx="1186.09" cy="1103.11" r="48.77"/><path class="cls-34" d="M1352.91,1106.37a48.62,48.62,0,0,1-9.31,28.67l-15.79-11.48a29,29,0,0,0,5.59-17.19Z"/><circle class="cls-35" cx="1304.77" cy="1103.11" r="48.77"/><line class="cls-36" x1="579.15" y1="900.06" x2="531.29" y2="947.93"/><line class="cls-36" x1="570.77" y1="879.81" x2="516.83" y2="879.81"/><path class="cls-36" d="M531.29,947.93a96.35,96.35,0,0,0,68.12,28.21"/><line class="cls-36" x1="579.15" y1="859.56" x2="541.02" y2="821.42"/><path class="cls-36" d="M599.41,824.76a55.06,55.06,0,0,0-38.93,16.12"/><path class="cls-36" d="M677.41,801.81a110.31,110.31,0,0,0-78-32.31"/><path class="cls-36" d="M541,821.42a82.57,82.57,0,0,0,0,116.78"/><line class="cls-36" x1="628.05" y1="879.81" x2="709.72" y2="879.81"/><line class="cls-36" x1="619.66" y1="900.06" x2="677.41" y2="957.81"/><line class="cls-36" x1="599.41" y1="908.45" x2="599.41" y2="990.12"/><path class="cls-36" d="M599.41,990.12A110.31,110.31,0,0,0,709.72,879.81"/><path class="cls-36" d="M682,879.81a82.57,82.57,0,0,0-24.19-58.39"/><line class="cls-36" x1="599.41" y1="851.17" x2="599.41" y2="769.5"/><line class="cls-36" x1="619.66" y1="859.56" x2="677.41" y2="801.81"/><path class="cls-36" d="M572.24,888.87a28.64,28.64,0,1,0,18.11-36.23A28.64,28.64,0,0,0,572.24,888.87Z"/><path class="cls-37" d="M536.15,816.55a89.46,89.46,0,0,0,0,126.51"/><path class="cls-37" d="M541,938.2a82.59,82.59,0,0,0,58.39,24.18"/><path class="cls-37" d="M599.41,935.07a55.26,55.26,0,0,0,55.26-55.26"/><path class="cls-37" d="M668.22,879.81a68.81,68.81,0,0,0-20.16-48.66"/><path class="cls-37" d="M667.68,811.54a96.55,96.55,0,0,0-68.27-28.28"/><path class="cls-37" d="M599.41,811a68.83,68.83,0,0,0-48.66,20.15"/><path class="cls-38" d="M371,863.47a80.55,80.55,0,0,0-55.29-58.58"/><path class="cls-38" d="M265.65,972.1C335,992.84,400.72,930.76,384,860.37"/><path class="cls-38" d="M323.42,779a107.62,107.62,0,0,0-104.71,24.84"/><path class="cls-38" d="M187.87,906.91a107.64,107.64,0,0,0,73.87,78.26"/><path class="cls-38" d="M237.29,823.49a80.55,80.55,0,0,0-23.09,77.17"/><path class="cls-38" d="M266.07,890.9a27.94,27.94,0,1,0,17.68-35.34A27.95,27.95,0,0,0,266.07,890.9Z"/><line class="cls-38" x1="273.4" y1="861.75" x2="218.71" y2="803.81"/><line class="cls-38" x1="300.59" y1="855.3" x2="323.42" y2="778.97"/><line class="cls-38" x1="319.77" y1="875.62" x2="384.02" y2="860.37"/><line class="cls-38" x1="311.76" y1="902.39" x2="357.09" y2="950.41"/><line class="cls-38" x1="284.57" y1="908.84" x2="261.74" y2="985.17"/><line class="cls-38" x1="265.39" y1="888.52" x2="187.87" y2="906.91"/><path class="cls-39" d="M223.46,808.84a100.68,100.68,0,0,0-28.85,96.47"/><path class="cls-39" d="M200.94,903.81a94.16,94.16,0,0,0,64.65,68.49"/><path class="cls-39" d="M273.34,946.38c49.51,14.81,96.48-29.53,84.56-79.81"/><path class="cls-39" d="M377.49,861.92a87.29,87.29,0,0,0-59.9-63.46"/><path class="cls-39" d="M311.88,817.55a67.33,67.33,0,0,0-65.52,15.55"/><path class="cls-40" d="M986.88,782.11a110.56,110.56,0,0,0-41-7.66"/><line class="cls-40" x1="965.76" y1="866.08" x2="1012.63" y2="814.66"/><line class="cls-40" x1="972.28" y1="874.71" x2="1021.9" y2="850"/><path class="cls-40" d="M1009.24,856.31a68.91,68.91,0,0,0-15.67-20.74"/><line class="cls-40" x1="975.24" y1="885.12" x2="1044.52" y2="878.7"/><path class="cls-40" d="M1030.44,880a83,83,0,0,0-8.54-30"/><path class="cls-40" d="M1041.16,914.93a96.4,96.4,0,0,0,3.36-36.23"/><line class="cls-40" x1="974.24" y1="895.89" x2="1041.16" y2="914.93"/><line class="cls-40" x1="969.42" y1="905.58" x2="1013.66" y2="938.98"/><line class="cls-40" x1="961.42" y1="912.86" x2="990.61" y2="960"/><path class="cls-40" d="M961.52,971.26a84.86,84.86,0,0,0,66-60.2"/><line class="cls-40" x1="951.33" y1="916.77" x2="961.52" y2="971.26"/><path class="cls-40" d="M935.53,943.45a55.07,55.07,0,0,0,20.79,0"/><line class="cls-40" x1="940.52" y1="916.77" x2="927.73" y2="985.17"/><path class="cls-40" d="M893.8,972a96.82,96.82,0,0,0,33.93,13.15"/><line class="cls-40" x1="930.43" y1="912.86" x2="886.24" y2="984.24"/><line class="cls-40" x1="922.43" y1="905.58" x2="855.44" y2="956.16"/><path class="cls-40" d="M855.44,956.16a110.79,110.79,0,0,0,30.8,28.08"/><path class="cls-40" d="M864.29,911.06A82.69,82.69,0,0,0,878.2,939"/><line class="cls-40" x1="917.61" y1="895.89" x2="850.69" y2="914.93"/><line class="cls-40" x1="916.61" y1="885.12" x2="833.02" y2="877.37"/><path class="cls-40" d="M847.33,878.7a96.61,96.61,0,0,0,3.36,36.23"/><path class="cls-40" d="M945.93,817.11a69.12,69.12,0,0,0-25.55,4.77"/><path class="cls-40" d="M869.54,804A113.38,113.38,0,0,0,833,877.37"/><path class="cls-40" d="M915.27,808.69a82.88,82.88,0,0,0-26.52,16.42"/><line class="cls-40" x1="935.29" y1="860.38" x2="915.27" y2="808.69"/><path class="cls-40" d="M918,897.14a29.43,29.43,0,1,0,18.62-37.23A29.43,29.43,0,0,0,918,897.14Z"/><line class="cls-40" x1="945.93" y1="858.4" x2="945.93" y2="774.45"/><line class="cls-40" x1="926.09" y1="866.08" x2="869.54" y2="804.04"/><line class="cls-40" x1="919.57" y1="874.71" x2="844.43" y2="837.29"/><line class="cls-40" x1="956.56" y1="860.38" x2="986.88" y2="782.11"/><path class="cls-40" d="M1012.63,814.66A96.54,96.54,0,0,0,981.7,795.5"/><path class="cls-41" d="M958.92,957.36a70.71,70.71,0,0,0,55-50.17"/><path class="cls-41" d="M866.73,947.64a96.92,96.92,0,0,0,26.95,24.57"/><path class="cls-41" d="M898.31,901.38a48.17,48.17,0,0,0,8.11,16.29"/><path class="cls-41" d="M882.54,882a62.1,62.1,0,0,0,2.16,23.29"/><path class="cls-41" d="M893.36,830.18a78,78,0,0,0-25.12,50.46"/><path class="cls-41" d="M928,841.67a48.06,48.06,0,0,0-15.47,9.58"/><path class="cls-41" d="M945.93,831.25a55.38,55.38,0,0,0-20.44,3.82"/><path class="cls-41" d="M979.22,801.89a90.05,90.05,0,0,0-33.29-6.22"/><path class="cls-41" d="M998.34,830.34A75.87,75.87,0,0,0,974,815.29"/><path class="cls-41" d="M1002.91,859.46a62.28,62.28,0,0,0-14.1-18.67"/><path class="cls-41" d="M1002.27,882.61a55.34,55.34,0,0,0-5.69-20"/><path class="cls-41" d="M1034.36,913a89.77,89.77,0,0,0,3.12-33.65"/><path class="cls-41" d="M934.23,950.41a62.16,62.16,0,0,0,23.39,0"/><path class="cls-41" d="M901.25,960a82.84,82.84,0,0,0,29.08,11.26"/><path class="cls-10" d="M1275.87,818.55l-1.67-32.9-4.86.62c-.41.06-.83.12-1.28.16s-.74.09-1.7.25c-1.65.27-3.45.56-5.39.93s-4.11.77-6.09,1.32-3.83,1.16-5.9,1.82a97.93,97.93,0,0,0-27.54,14.18,99.17,99.17,0,0,0-26.39,29,95.48,95.48,0,0,0-6.9,14.26l49.94,20.88a41.71,41.71,0,0,1,3.15-4.22,41.18,41.18,0,0,1,13-10,36.78,36.78,0,0,1,11.5-3.41c.82-.08,1.57-.17,2.29-.27s.87.1,1.28.08a7.29,7.29,0,0,0,1,0,9.05,9.05,0,0,1,1.08,0l1.28,0,4.91.11Z"/><path class="cls-42" d="M1353.37,899.37a76.84,76.84,0,0,1-4.53,21,83.82,83.82,0,0,1-10.68,19.88A87.44,87.44,0,0,1,1321.67,957a88.46,88.46,0,0,1-21.35,11.74l-5.93,1.92-1.49.46-1.67.37-3.35.72-3.37.64-.81.15-.64.08-1.28.15-5.08.66-7.17.1a46.76,46.76,0,0,1-6.35-.33l-3.18-.29a23.57,23.57,0,0,1-3.16-.45l-6.31-1.24a92.34,92.34,0,0,1-23.86-9.57,90.16,90.16,0,0,1-34.82-36.83c-1.08-1.84-1.78-3.84-2.67-5.76a58,58,0,0,1-2.31-5.89c-.64-2-1.27-4-1.89-6a31.17,31.17,0,0,1-.8-3.32l-.7-3.43c-1-5.31-1.14-7.44-1.59-10.62l-.05-.56,0-.27,0-.15s0-1.67,0-1.67l0-1.26,0-3c0-2-.08-4,.1-6a97.92,97.92,0,0,1,6.37-29.06l49.94,20.88a44.48,44.48,0,0,0-6,13.86c-.27.89-.31,1.86-.5,2.79l-.26,1.43-.13.74c0-.39,0-1,0-1.16l0,.15v.27l0,.56c-.06,2.83-.21,6.81-.06,7.56l0,1.12a5.56,5.56,0,0,0,0,1.26q.24,1.52.45,3.09a19.61,19.61,0,0,0,.64,3.08A25.23,25.23,0,0,0,1233,907a51.23,51.23,0,0,0,5.79,12,54.73,54.73,0,0,0,9.52,10.52,55.9,55.9,0,0,0,12.63,7.63l3.56,1.3a9,9,0,0,0,1.83.56l1.86.49a22.65,22.65,0,0,0,3.79.81l1.94.29,1,.16.48.07.24,0,.07,0h.06c.14,0,.45,0-.71,0l5.11.12,1.28,0,.64,0a2.58,2.58,0,0,0,.45,0l1.68-.1,1.69-.08.85,0,1-.15,4-.62a59.94,59.94,0,0,0,15.15-5.47,62.24,62.24,0,0,0,13.12-9.74,61.28,61.28,0,0,0,9.82-13,58.43,58.43,0,0,0,5.8-15.1,57.71,57.71,0,0,0,1.35-7.9l.08-.49,0-.25a.5.5,0,0,1,0,.16l0-1.13.06-2.23,0-2.22a20.26,20.26,0,0,0,0-2.08c-.1-1.22-.18-2.44-.26-3.64,0-.62,0-1.22-.13-1.84l-.33-1.9c-.21-1.28-.43-2.54-.64-3.78s-.66-2.44-1-3.64a65.06,65.06,0,0,0-5.54-13.54,66,66,0,0,0-17.09-19.83,65,65,0,0,0-18.23-10l-3.94-1.34c-1.26-.39-2.46-.6-3.58-.87s-2.15-.51-3.1-.72-1.84-.27-2.64-.39l-4.86-.62,4.92-.11c.8,0,1.71-.1,2.69,0s2.08.15,3.24.25,2.44.13,3.78.33,2.75.5,4.24.75a69.93,69.93,0,0,1,20.81,7.64,74.28,74.28,0,0,1,22.3,19.16,76.85,76.85,0,0,1,8.9,14.8c.6,1.38,1.24,2.77,1.84,4.19s1,2.94,1.47,4.42l.74,2.24c.23.78.38,1.61.58,2.43.35,1.64.7,3.31,1.06,5a21.25,21.25,0,0,1,.35,2.3l.29,2.21.27,2.23.14,1.1.06,1.67A74.91,74.91,0,0,1,1353.37,899.37Z"/><line class="cls-43" x1="1188.15" y1="848.22" x2="1168.27" y2="839.89"/><line class="cls-43" x1="1275.52" y1="884.78" x2="1238.09" y2="869.1"/></svg>