<svg xmlns="http://www.w3.org/2000/svg" id="Layer_1" data-name="Layer 1" viewBox="0 0 1244.37 1098.07"><defs><style>.cls-1{fill:#f5f7f9}.cls-2{fill:#d62d2d}.cls-3{opacity:.75}.cls-10,.cls-4,.cls-5,.cls-9{fill:none}.cls-10,.cls-4,.cls-5,.cls-8,.cls-9{stroke:#000}.cls-10,.cls-11,.cls-12,.cls-4{stroke-miterlimit:10}.cls-4{stroke-width:5.33px}.cls-10,.cls-11,.cls-5,.cls-8,.cls-9{stroke-linecap:round}.cls-5,.cls-8,.cls-9{stroke-linejoin:round}.cls-5{stroke-width:7.49px}.cls-6{fill:#fff}.cls-7{opacity:.4}.cls-8{stroke-width:1.59px}.cls-9{stroke-width:6.31px}.cls-10{stroke-width:7.12px}.cls-11,.cls-12{stroke:#fff;stroke-width:1.43px}</style></defs><rect width="1244.37" height="1098.07" class="cls-1"/><path d="M893.53,362.94c.13-.51.19-1.05.3-1.57.53-2.52-.05-5-.5-7.42a49.6,49.6,0,0,0-1.25-4.94c-.44-1.53-.94-3.06-1.52-4.54-.73-1.87-1.18-3.82-2.45-5.5a23.85,23.85,0,0,1-2.94-5.27,43.59,43.59,0,0,0-4.49-7.66,47.15,47.15,0,0,0-4.38-3.71c-1.33-1.06-2.69-2.08-4-3.13l-.16-.13a24.26,24.26,0,0,1-7.57-4.66l-1.16-.51a29.13,29.13,0,0,1-3.14-1.11c-2.41-1.43-5.12-2.08-7.69-3.07-2.13-.82-4.42-1.19-6.56-2a25,25,0,0,0-7-1.31c-1.27-.08-2.57.11-3.82-.07-2.21-.31-4.39-.87-6.59-1.22a50.61,50.61,0,0,0-6.35-.73c-2.71-.07-5.43.26-8.14.22-3.61-.06-6.91,1.24-10.25,2.29-2.42.75-4.68,2-7.09,2.81-3.54,1.21-6.46,3.46-9.57,5.4a5,5,0,0,0-.6.53c-.86.78-1.69,1.6-2.59,2.34a2.16,2.16,0,0,0-1,2,2.88,2.88,0,0,1-.22,1.21c-.25.75-.53,1.5-.85,2.23a33.09,33.09,0,0,1-1.81,3.91,24.94,24.94,0,0,0-3.08,7.32c-.49,2.13-.8,4.3-1.41,6.4a7,7,0,0,0,.57,5,51.55,51.55,0,0,0,6.69,11,5.68,5.68,0,0,0,2.38,1.8,7.88,7.88,0,0,1,2.13,1.07c2.34,1.94,4.62,3.94,6.89,5.95,1,.92,2,1.88,3.07,2.85,2.24,1.05,3.89,3,5.52,4.88a4.13,4.13,0,0,1,.78,1.3,15.83,15.83,0,0,1,1.78,2.07,32.21,32.21,0,0,1,3.75,6.47c1.23,3.05,2.76,6,4.13,9,.84,1.84,1.69,3.69,2.42,5.57a49,49,0,0,1,2.12,6.18c.68,2.83,1.09,5.73,1.6,8.6a18,18,0,0,1,.46,3,8.35,8.35,0,0,0,.78,3.55c.48,1,.4,1.69-.2,2.13v2.11a4,4,0,0,1-.13,1,2.34,2.34,0,0,1,.1.55,10.54,10.54,0,0,1,0,1.12,2.68,2.68,0,0,0,1.25,2.54c2.34-.69,2.34-.69,3.06-2.85a6.25,6.25,0,0,0,.44-1.54,2.24,2.24,0,0,1,1.57-2.2c-.83-1.31-.43-2.19.45-3.11a13.45,13.45,0,0,0,1.27-2.2c1.22-2,2.41-4,3.74-5.92,1.69-2.45,4.47-3.74,6.53-5.83a46.22,46.22,0,0,1,4-3.19,10,10,0,0,1,3.1-1.89c3.59-1.2,7.16-2.45,10.73-3.69,1.15-.41,2.31-.82,3.43-1.31,1.75-.77,3.47-1.63,5.22-2.41,1-.46,2.1-.79,3.11-1.25,1.3-.61,2.52-1.42,3.85-1.91a35.48,35.48,0,0,0,7.13-3.9c1.9-1.26,3.66-2.74,5.54-4.05a20,20,0,0,0,4.69-4.71,19,19,0,0,0,1.55-2.8,14.42,14.42,0,0,0,1.07-2.46,11.09,11.09,0,0,1,1.92-4.3A5.88,5.88,0,0,1,893.53,362.94Zm-3.69,7.7A3,3,0,0,1,888,373l0,.08a17.74,17.74,0,0,1-4.44,4.54c-2.87,2-5.59,4.27-8.5,6.21a37.45,37.45,0,0,1-5.42,2.69c-3.24,1.48-6.45,3-9.79,4.28a64.55,64.55,0,0,1-7.78,2.84,46.37,46.37,0,0,0-5.65,1.68,17.92,17.92,0,0,0-6.92,4.45,21.18,21.18,0,0,1-4.25,3.36,21.46,21.46,0,0,0-6.49,6.06c-.78,1.14-1.33,2.43-2,3.64-.55,1-1.15,1.91-1.71,2.88-.26.46-.62.85-1.13.57a1.57,1.57,0,0,1-.59-1c-.34-1.93-.61-3.88-.93-5.82a38.94,38.94,0,0,1-.68-3.93,20.76,20.76,0,0,0-2.14-7.47c-1.06-2.33-1.77-4.8-2.76-7.16s-2-4.37-3-6.52-2.29-4.55-3.5-6.79c-.68-1.26-1.48-2.45-2.24-3.67-.49-.8-1-1.62-1.5-2.41a4.83,4.83,0,0,0-.93-1.08c-2.4-2-4.84-3.94-7.21-6a18.59,18.59,0,0,1-2.76-2.85,21.7,21.7,0,0,0-5.14-4.27c-1.42-1-2.63-2.3-4.36-2.86a2.67,2.67,0,0,1-1.15-1.09c-1.62-2.37-3.26-4.74-4.78-7.17a9.11,9.11,0,0,1-1.18-6,7.24,7.24,0,0,1,.13-1,49.06,49.06,0,0,1,3.07-9.21c1.41-2.81,2.64-5.71,3.83-8.61a4.52,4.52,0,0,1,2.79-2.44c.49-.2,1-.37,1.49-.53a1.3,1.3,0,0,0,.86-1,3.74,3.74,0,0,1,1.09-1.67,18.11,18.11,0,0,1,5.19-3.1,4,4,0,0,0,.61-.2c2.88-1.82,6.24-2.4,9.38-3.54a31.48,31.48,0,0,1,8.6-1.63,51.07,51.07,0,0,1,7.64.34,6.92,6.92,0,0,0,1.44,0,10.51,10.51,0,0,1,4.41.5,16.6,16.6,0,0,0,3.47.5c1.32.1,2.65.07,4,.13a3.74,3.74,0,0,1,1.26.21,25,25,0,0,0,5.94,1.17,4.86,4.86,0,0,1,.94.16c2.46,1,5.11,1,7.63,1.67a41.76,41.76,0,0,1,4.63,1.74l.26.11a3.34,3.34,0,0,1,.65.18c5.18,1.91,9.49,5.05,13.63,8.64a3.85,3.85,0,0,1,.4.41l1.37.77a16.33,16.33,0,0,1,3.17,2.4,21,21,0,0,1,5.27,7.3,16.46,16.46,0,0,0,1.54,2.39,4.85,4.85,0,0,1,.28.4c2.59,5.19,5.19,10.4,6.08,16.22a51.5,51.5,0,0,1,.76,7.62c0,.36,0,.71-.06,1.07a3.9,3.9,0,0,1,.16,1.17A47.51,47.51,0,0,1,889.84,370.64Z"/><path d="M801.42,433.2a39,39,0,0,1-3.07-3.23c-1-1.13-1.85-2.32-2.71-3.54a3,3,0,0,1-.41-1.33,1.54,1.54,0,0,0-1.1-1.43c-2.61-.87-3.79-2.94-4.59-5.35-.21-.6-.48-1.18-.67-1.79a9.77,9.77,0,0,1-.65-2.42,6.54,6.54,0,0,0-1.15-3.43c-.59-.94-1.07-1.95-1.58-2.94a23.47,23.47,0,0,0-1.33-2.54,7.83,7.83,0,0,1-1.32-3.4,4.84,4.84,0,0,0-1.45-2.57,27.1,27.1,0,0,1-3.86-4.65c-1.26-2.17-2.11-4.68-4.3-6.24-.19-.13-.25-.45-.38-.69a8.61,8.61,0,0,0-3.19-3.68,8.76,8.76,0,0,1-2.46-2.21,11.12,11.12,0,0,0-5.62-3.17c-1.9-.55-4-.37-6-.53-2.22-.19-4.45,0-6.67-.63A11,11,0,0,0,738.18,380c-1.61,1.45-3.07,3.06-4.61,4.58-1.32,1.31-2.58,2.7-4,3.87a7,7,0,0,0-2.33,2.78,43.24,43.24,0,0,0-2.23,6.95,27.67,27.67,0,0,0-.71,8.42,11.4,11.4,0,0,1,0,2.86c-.45,2.9.54,5.57,1.33,8.22a78.67,78.67,0,0,0,3,7.34,5.73,5.73,0,0,1,.33,1.23,1.51,1.51,0,0,1,0,.3,12.35,12.35,0,0,1,2.15,3.38,5.83,5.83,0,0,1,1.13,1.05,41.09,41.09,0,0,0,3.32,3.86,51.28,51.28,0,0,0,5.06,4.11,57.12,57.12,0,0,0,5,3.11,6.77,6.77,0,0,0,4.56,1.18c3.56-.61,7.24-.31,10.76-1.3,3,.22,5.47-1.63,8.28-2.16,1.24-.23,2.48-.51,3.7-.84a8.63,8.63,0,0,0,1.72-.73,20,20,0,0,1,2.06-1.16c1.55-.56,3.15-1,4.72-1.5a9.79,9.79,0,0,1,6.71-.07,17.88,17.88,0,0,0,3.46.6c.94.15,1.9.24,2.83.46,1.66.38,3.3.91,5,1.24a7.08,7.08,0,0,0,2.34-.05c.73-.1,1-.65,1.08-1.38A3.83,3.83,0,0,0,801.42,433.2ZM791,431c-1.78-.34-3.55-.73-5.33-1a6.27,6.27,0,0,0-2.36.19c-2.78.75-5.55,1.55-8.3,2.38q-2.91.87-5.77,1.87c-1.64.59-3.23,1.35-4.88,1.87a21.58,21.58,0,0,1-3.76.75c-3,.4-5.93.7-8.89,1.1a6.55,6.55,0,0,1-3.57-.53c-3.94-1.71-7-4.52-10.11-7.42-.55-.52-.64-.66-.57-1.29q-.63-.59-1.29-1.14a3.62,3.62,0,0,1-.91-1.09,4.53,4.53,0,0,1-.84-.9,27.13,27.13,0,0,1-2.82-5.13,89.48,89.48,0,0,1-3.11-8.71,14.23,14.23,0,0,1,.06-8.35,13.06,13.06,0,0,0,.33-2.34c.05-.42,0-.85.08-1.27.22-1.61.49-3.22.7-4.84a5.1,5.1,0,0,1,1.73-3.15c.82-.76,1.61-1.54,2.37-2.36a20.12,20.12,0,0,1,3.77-3.17c1.22-.82,2.21-2,3.36-2.94a6.46,6.46,0,0,1,4.78-1.8c2.75.29,5.5.61,8.24,1a7.78,7.78,0,0,1,1.75.74c1.47.61,2.9,1.37,4.59,1.13a1,1,0,0,1,.62.08c1.52,1,3.29,1.5,4.6,2.84,2.24,2.28,4.61,4.44,6.18,7.29a1.21,1.21,0,0,0,.21.24,12.44,12.44,0,0,1,3,4.27c.62,1.68,2,2.85,3,4.29a37.6,37.6,0,0,1,2.45,4.28c.85,1.71,1.58,3.47,2.35,5.22a16,16,0,0,1,.83,2.07,2.44,2.44,0,0,1,0,1.23,3.52,3.52,0,0,0,1.59,4.35c.35.25.68.51,1,.79a6.76,6.76,0,0,1,3.41,3.93,2,2,0,0,1,.36.27,10.93,10.93,0,0,1,3,4.31,3,3,0,0,1,0,.58A1.78,1.78,0,0,1,791,431Z"/><path d="M636.56,590.14c-5.31-9.75-17.94-10.9-27.49-7.45-9.15,3.32-16.29,11-21.08,19.26a62.47,62.47,0,0,0-5.23,12.22c-1.3,4.06-3,8.47-3.61,12.69a4.76,4.76,0,0,0,1-1.28,21.68,21.68,0,0,1,16.61-8.34c4.34,0,8.56,1.22,12.78,2.23s8.65,1.85,12.85.72a21.39,21.39,0,0,0,10-6.12C638.09,607.92,640.72,597.78,636.56,590.14Z"/><path d="M587.09,591c-7.45,9.87-15.24,19.4-18,32.35,1.09-5.15-12.16-16.24-15.3-19.26-11.75-11.32-35.13-21.89-32.57-41.39,1-7.29,4.78-13.95,9.48-19.6,9.21-11.09,22.68-19.14,37.09-19.65,26.51-.93,41.45,22.78,32,46.75C596.68,577.93,592,584.52,587.09,591Z"/><path d="M554.2,630.62c-2.17.09-4.56-1.79-6.79-2.14-9.52-1.46-18.54,2.15-26.32,7.12-5,3.17-11.57,5.75-16.51,2.53-8.44-5.48-6-23.76-4.05-31.86,1.68-6.95,5.68-13.68,12-17,9.62-5,17.91,1.06,24.28,8a66.7,66.7,0,0,1,10.8,16.12C548.49,615.21,554,630.63,554.2,630.62Z"/><path d="M1105.52,364.85c.14-.54.2-1.09.32-1.64.55-2.63-.06-5.19-.53-7.75a51.06,51.06,0,0,0-1.3-5.15c-.46-1.6-1-3.19-1.59-4.74-.76-1.95-1.23-4-2.56-5.75a25.31,25.31,0,0,1-3.07-5.5,24.52,24.52,0,0,0-2.38-4.54,25.24,25.24,0,0,0-2.3-3.45,48.52,48.52,0,0,0-4.58-3.87c-1.38-1.11-2.81-2.18-4.21-3.27l-.17-.13a25.6,25.6,0,0,1-7.9-4.87l-1.21-.53a31,31,0,0,1-3.28-1.16c-2.52-1.49-5.35-2.17-8-3.21-2.21-.85-4.6-1.24-6.84-2a25.8,25.8,0,0,0-7.35-1.37c-1.32-.08-2.68.11-4-.07-2.31-.33-4.58-.91-6.89-1.27a51.2,51.2,0,0,0-6.63-.77c-2.82-.07-5.66.28-8.49.23-3.78-.06-7.21,1.3-10.7,2.39-2.53.78-4.89,2.08-7.4,2.94-3.7,1.26-6.75,3.61-10,5.63a4.6,4.6,0,0,0-.62.55c-.9.82-1.77,1.67-2.7,2.45a2.23,2.23,0,0,0-1.08,2.1,3,3,0,0,1-.23,1.27c-.26.78-.56,1.57-.89,2.33a34.31,34.31,0,0,1-1.88,4.08,25.83,25.83,0,0,0-3.22,7.64c-.51,2.22-.84,4.49-1.48,6.68a7.29,7.29,0,0,0,.61,5.18,53.26,53.26,0,0,0,7,11.51,5.66,5.66,0,0,0,2.48,1.88,8.42,8.42,0,0,1,2.22,1.12c2.44,2,4.83,4.11,7.2,6.21,1.08,1,2.13,2,3.2,3,2.34,1.1,4.06,3.12,5.77,5.09a4.5,4.5,0,0,1,.81,1.36,17.25,17.25,0,0,1,1.86,2.16,34.74,34.74,0,0,1,3.91,6.75c1.29,3.19,2.88,6.25,4.31,9.38.88,1.92,1.77,3.85,2.53,5.82a50.09,50.09,0,0,1,2.21,6.45c.72,2.95,1.14,6,1.67,9a18.7,18.7,0,0,1,.48,3.12,8.62,8.62,0,0,0,.82,3.71c.5,1.06.42,1.76-.22,2.22v2.2a4,4,0,0,1-.13,1.06,2.41,2.41,0,0,1,.1.57,9.14,9.14,0,0,1,0,1.17,2.81,2.81,0,0,0,1.31,2.66c2.44-.73,2.44-.73,3.19-3a6.31,6.31,0,0,0,.46-1.6,2.34,2.34,0,0,1,1.64-2.3c-.87-1.37-.45-2.29.47-3.25a13.55,13.55,0,0,0,1.33-2.3c1.28-2.07,2.52-4.18,3.9-6.18,1.77-2.56,4.67-3.91,6.82-6.08a48.28,48.28,0,0,1,4.17-3.33,10.3,10.3,0,0,1,3.25-2c3.74-1.25,7.47-2.56,11.19-3.86,1.21-.42,2.42-.85,3.58-1.36,1.84-.81,3.63-1.71,5.46-2.52,1.06-.48,2.18-.82,3.24-1.31,1.36-.63,2.63-1.48,4-2a37.3,37.3,0,0,0,7.44-4.07c2-1.32,3.82-2.87,5.78-4.23a20.85,20.85,0,0,0,4.91-4.92,20.13,20.13,0,0,0,1.61-2.92,14.6,14.6,0,0,0,1.12-2.57,11.42,11.42,0,0,1,2-4.49A6.13,6.13,0,0,1,1105.52,364.85Zm51.13,30.86c-2.48,5.6-7.53,9.69-12.82,12.8-9.71,5.7-20.68,8.82-30.9,13.53s-20.18,11.59-24.72,21.89a88.12,88.12,0,0,0-33.38-60.87c-4.23-3.27-8.94-6.35-11.35-11.11-2.59-5.11-2-11.31-.09-16.7,5.07-14,17.79-21.3,31.71-24.25,11.87-2.52,22.83,0,34.47,1.84a4.46,4.46,0,0,1,1,.17c5.91,2.31,12.11,2.9,17.91,5.84a54.74,54.74,0,0,1,29.7,42.34c.57,4.76.49,9.74-1.36,14.17Z"/><path d="M896.72,590.73c-.05.14-.11.26-.16.39-2.68,6.06-8.14,10.49-13.88,13.85-10.5,6.16-22.38,9.54-33.43,14.65s-21.85,12.54-26.76,23.68a95.36,95.36,0,0,0-36.13-65.87c-4.57-3.54-9.67-6.88-12.28-12-2.79-5.52-2.2-12.23-.09-18.06.08-.24.18-.49.28-.73,5.65-14.7,19.22-22.37,34-25.52,13.14-2.78,27-1.09,39.81,2.44s25.15,8.47,34.48,18.42a59.89,59.89,0,0,1,15.6,33.46C898.81,580.56,898.73,585.94,896.72,590.73Z"/><path d="M792.69,548.11c8.36,0,15.24,3.35,19.38,9.44,4.38,6.45,5,14.94,1.68,23.31-2.47,6.22-6.48,11.77-10.38,16.93l0,.05h0l-.05.06-1.44,1.9C798,604.89,794.06,610.06,791,616c-1.83-1.86-3.86-3.75-6-5.7-.64-.58-1.17-1.06-1.54-1.42a111.49,111.49,0,0,0-9.93-8.14c-11.14-8.45-18.36-14.64-17.23-23.25.59-4.51,3-9.27,7-14.14a45,45,0,0,1,14-11.33,33.81,33.81,0,0,1,14.29-3.85c.37,0,.74,0,1.11,0h0m0-6.66-1.35,0a40.59,40.59,0,0,0-17.07,4.57,51.75,51.75,0,0,0-16.12,13c-4.21,5.07-7.62,11-8.48,17.54-2.29,17.46,18.62,26.91,29.14,37,2.81,2.71,14.67,12.62,13.69,17.24,2.46-11.6,9.43-20.12,16.09-29l.09-.12c4.32-5.72,8.51-11.58,11.25-18.49,8.34-21-4.36-41.86-27.24-41.86Z" class="cls-2"/><path d="M1156.66,590.73l-.16.39c-2.68,6.06-8.15,10.49-13.88,13.85-10.5,6.16-22.38,9.54-33.44,14.65s-21.84,12.54-26.75,23.68a95.36,95.36,0,0,0-36.13-65.87c-4.57-3.54-9.67-6.88-12.28-12-2.8-5.52-2.21-12.23-.1-18.06.09-.24.18-.49.29-.73,5.64-14.7,19.22-22.37,34-25.52,13.14-2.78,27-1.09,39.8,2.44s25.16,8.47,34.49,18.42a59.81,59.81,0,0,1,15.59,33.46C1158.75,580.56,1158.67,585.94,1156.66,590.73Z" class="cls-3"/><path d="M1079.87,590c-2.74,6.91-6.93,12.77-11.25,18.49l-.09.12c-6.66,8.83-13.63,17.35-16.09,28.95,1-4.62-10.88-14.53-13.69-17.24-10.52-10.13-31.43-19.58-29.14-37,.85-6.52,4.27-12.47,8.48-17.54a51.75,51.75,0,0,1,16.12-13,40.74,40.74,0,0,1,17.07-4.57C1075,547.3,1088.37,568.52,1079.87,590Z" class="cls-3"/><path d="M387.61,575.46a28.72,28.72,0,0,1-7.81,17.14c-9.1,9.79-22.74,12.79-32,22.24a40.35,40.35,0,0,0-6.13,8.32c-.71,1.25-1.8,6.07-3.68,5.85s-2.89-9.25-3.51-10.91c-5-13.22-16.66-19.89-28.54-26.12-3.75-2-7.87-4.06-9.57-7.94-1.33-3-.86-6.5-.11-9.71A57.56,57.56,0,0,1,313,545.24a44.17,44.17,0,0,1,32.66-11.18,48.68,48.68,0,0,1,28.46,11.36C383.28,553.16,388.61,564.49,387.61,575.46Z" class="cls-4"/><path d="M358.43,574.92c1.54-1.56,3.79-4.51,5.87-2.94,3.68,2.78-4.9,8.44-6.68,9.59a33.46,33.46,0,0,1-27.71,4,32.81,32.81,0,0,1-6.74-2.79c-.76-.41-1.73-.76-1.83-1.71s1.06-1.83,2-1.95c1.9-.23,3.57,1,5.24,1.66a26.33,26.33,0,0,0,6.16,1.71A28.16,28.16,0,0,0,351,579.87a32,32,0,0,0,6.92-4.45C358.06,575.28,358.24,575.11,358.43,574.92Z"/><path d="M635.2,349.8a43.39,43.39,0,0,0-1.9-5.52l0-.07a8.46,8.46,0,0,1-.92-2.36c-.63-1-1.2-1.93-1.83-2.89a8.26,8.26,0,0,0-1-1.39c-3.11-3.12-7.07-4.45-11.29-5.12a23,23,0,0,0-7.45.36,12.53,12.53,0,0,0-4,.95,18,18,0,0,0-6.16,5c-1,1.37-2,2.74-3,4.14l-.1.15a2.27,2.27,0,0,1-.05.35,35.8,35.8,0,0,1-1.56,5.11c-.53,2.76-1.12,5.51-1.59,8.27-.27,1.62-.23,3.3-.51,4.92a25.91,25.91,0,0,1-1.09,3.82c-.62,1.9-1.24,3.8-2,5.65-1.17,2.85-2.44,5.66-3.66,8.49-.18.43-.54.94-.43,1.31.27,1-.21,1.48-.83,2.05l-.53.5a10.69,10.69,0,0,1-1,1.46,15,15,0,0,0-1.24,1.35,3.94,3.94,0,0,0-.38.86h0c0,.37,0,.68.11,1,.25,1.22.88,1.53,1.94.88.67-.42,1.22-1,1.86-1.49a6.72,6.72,0,0,1,1.33-.89c.13-.16.25-.33.38-.48h0l.07-.06c.3-.36.61-.71.92-1.06l-.23-.11a3,3,0,0,1,1.3-2,26.57,26.57,0,0,0,2.54-2.43,50.82,50.82,0,0,1,8-7.12c2-1.57,4.58-2.43,7-3.51a6,6,0,0,1,2.62-.56,62.44,62.44,0,0,1,8.77.63,13.68,13.68,0,0,0,6.76-.17,6,6,0,0,1,.93-.21,13.1,13.1,0,0,0,6.79-3.37,3.85,3.85,0,0,0,1.35-2.09c.27-2.27.94-4.5,1.09-6.73A27.93,27.93,0,0,0,635.2,349.8Zm-5.93,13.7a7.68,7.68,0,0,1-.69.59,5.57,5.57,0,0,1-3.6,2.71,5.28,5.28,0,0,1-1.41-.17c-.75-.12-1.49-.22-2.24-.29a30.85,30.85,0,0,1-3.19,0h-.34a20.69,20.69,0,0,1-2.47-.11c-3-.13-5.91-.24-8.87-.27a4.44,4.44,0,0,1-.74-.06l-1.52,1c-1.6,1-3.22,2.07-4.74,3.21-1.23.92-2.33,2-3.5,3-.89.77-1.81,1.53-2.71,2.29l-.22-.17a3.26,3.26,0,0,1,.22-.69,19.79,19.79,0,0,0,2.17-6.12c.34-1.76.84-3.49,1.3-5.22.58-2.16,1.26-4.28,1.76-6.45.4-1.75.64-3.55.89-5.33a10.6,10.6,0,0,1,2.17-4.78,4.91,4.91,0,0,1,1.53-2.58,16.36,16.36,0,0,1,3.55-4.26,17.88,17.88,0,0,1,5.78-2.87c1.57-.45,3.19-.78,4.79-1.12a2,2,0,0,1,.93.08q2.58.8,5.14,1.65a6.26,6.26,0,0,1,3.71,3.94,2,2,0,0,1,.16.75c2.22,2.63,3.17,5.71,3.83,9.24C631.73,355.57,632.58,360.26,629.27,363.5Zm2.89,0a1.58,1.58,0,0,1,.61-2C633.05,362.51,633,363.09,632.16,363.53Z"/><path d="M584.77,351.51a16.37,16.37,0,0,0,2-3,2.46,2.46,0,0,1,1-1,9.79,9.79,0,0,1,.83-1.09c0-.08.07-.17.11-.25l-.28,0c.26-.51.38-.79.54-1.05a19.56,19.56,0,0,0,1.68-2.89c.85-2.29,1.56-4.63,2.25-7,.63-2.14,1.19-4.31,1.72-6.47a14.68,14.68,0,0,0,.34-7.12,13.29,13.29,0,0,1-.19-1.9,9.44,9.44,0,0,0-1.26-4.24,36.63,36.63,0,0,1-1.7-3.37.93.93,0,0,1,0-.47,2.64,2.64,0,0,0-.84-2.14,1.78,1.78,0,0,1-.36-1.24,6,6,0,0,1-.77-1.07,4.1,4.1,0,0,1-2.88-2.16,6.07,6.07,0,0,0-3.8-3,29.68,29.68,0,0,1-4.12-1.73,14.39,14.39,0,0,0-6.12-1.57,14.94,14.94,0,0,1-4.73-.62,8.91,8.91,0,0,0-6.27-.11,16.24,16.24,0,0,1-5,1.09,17,17,0,0,0-7.31,2.5,40.39,40.39,0,0,0-6.33,3.93c-1.77,1.51-3.79,2.72-5.25,4.61a4.33,4.33,0,0,1-2.17,1.51,9.5,9.5,0,0,1-1,.84l-.24.25h.05a19.88,19.88,0,0,1-1.31,2.12,16.8,16.8,0,0,0-2.91,4.93c-.66,1.85-1.44,3.66-2.17,5.49-1.43,3.54-2.26,7.16-1.3,11,.36,1.44.69,2.9,1.19,4.3a17.29,17.29,0,0,0,4.63,7.16c1.06,1,2,2.06,3.23,3.32a17.66,17.66,0,0,1,3.26,2.42c.67.42,1.34.81,2,1.18a36.07,36.07,0,0,1,6.88,4.6c1,.9,2.24,1.63,3.22,2.6a30.69,30.69,0,0,1,4.15,4.62c2.31,3.5,4.41,7.15,6.51,10.79a16.7,16.7,0,0,1,1.11,3,33.74,33.74,0,0,0,1.31,3.74,8.41,8.41,0,0,1,.84,2.87c0,.12.1.23.15.36l.3.91a3.57,3.57,0,0,1,.16.79c.1.29.19.59.3.88a4,4,0,0,1,.2,1.74l.39,2.08a8.1,8.1,0,0,0,.3,1.4,1.22,1.22,0,0,0,1.41.8,1.53,1.53,0,0,0,1-.87,4.12,4.12,0,0,0,.15-2,8.66,8.66,0,0,1,.24-3.62l0-.17c-.07-.9-.11-1.8-.11-2.71a2.35,2.35,0,0,1-.25-1.14c0-2.9-.49-5.82.35-8.68.59-2,1.16-4.08,1.75-6.12a28.43,28.43,0,0,1,2.89-6.73.5.5,0,0,0,.08-.14c.4-3.09,2.94-4.71,4.75-6.79C581.12,354.94,583.07,353.34,584.77,351.51Zm-5-.63-.3.21a42.38,42.38,0,0,0-6,4.81,4.29,4.29,0,0,0-1.29,1.76c-.63,1.81-1.27,3.61-1.94,5.41-.18.49-.52.93-.71,1.42a20.64,20.64,0,0,0-1.16,3.28c-.55,2.55-1,5.13-1.43,7.69-.06.36-.18.7-.32,1.21-.35-.23-.69-.34-.8-.56a33.49,33.49,0,0,1-1.94-4.54A10.12,10.12,0,0,0,562,368c-2.3-2.85-4.65-5.67-7.11-8.38a46.3,46.3,0,0,0-4-3.6,8.46,8.46,0,0,1-.86-.7,9.48,9.48,0,0,0-3.26-2.52,6.7,6.7,0,0,1-1.36-1.05l0,0-.44-.19a3.44,3.44,0,0,1-1.16-.91,2.31,2.31,0,0,1-1.06-.29,17.08,17.08,0,0,1-2.32-1.41c-1.18-.89-2.33-1.84-3.45-2.8-.85-.73-1.57-1.61-2.47-2.27a8.5,8.5,0,0,1-2.73-3.47c-.55-1.2-1.17-2.36-1.68-3.57a10.66,10.66,0,0,1-.17-7.05c.08-.31.47-.54.79-.89-.9-1.36.08-2.67.63-3.79a24.82,24.82,0,0,1,2.11-4.18c.92-1.23,1.74-2.54,2.71-3.74.82-1,1.74-1.92,2.61-2.89a23.91,23.91,0,0,1,12.1-10.86v0a3.42,3.42,0,0,1,.91-.53,5.48,5.48,0,0,0,2.91-1.54,1.2,1.2,0,0,1,1-.3c1.61.55,3-.33,4.52-.55,1-.15,2-.41,2.94-.6.79-.15,1.57-.29,2.36-.39a3.24,3.24,0,0,1,2.75.5,3.33,3.33,0,0,0,2.21.7c2.68.26,5.36.46,7.83,1.68,1.85.92,3.78,1.68,5.59,2.67a16.1,16.1,0,0,1,2.55,2.11,4.56,4.56,0,0,1,1.62,1.5,1.36,1.36,0,0,0,1.19-.09,3.05,3.05,0,0,0,.37,2.88,10.4,10.4,0,0,1,.68,1.7,7.27,7.27,0,0,1,1.8,5.16,6.69,6.69,0,0,1,.32,1.74c0,1.22.29,2.43.44,3.64.06.52,0,.65-.58,1.48-.08-.13-.15-.26-.22-.39.15,3.44-1,7-1.71,10.28a20.06,20.06,0,0,1-4.21,8.71,10.85,10.85,0,0,1-2.51,4.89A8.93,8.93,0,0,1,579.75,350.88Z"/><path d="M537.06,386.48c-.28-1.24-.59-2.47-.95-3.69s-.83-2.29-1.18-3.46c-.5-1.62-.92-3.27-1.42-4.9a5.85,5.85,0,0,0-.61-1.29q-3-5.29-6-10.57c-1.45-2.54-2.9-5.06-4.38-7.57-.37-.63-.49-1.06-.31-1.34-.15-.17-.3-.33-.44-.51h0c-.26-.31-.52-.62-.77-1a4.8,4.8,0,0,1-.43-.71,7.41,7.41,0,0,1-.64-1A29.32,29.32,0,0,0,512.3,342a2.88,2.88,0,0,1-1-1,12.64,12.64,0,0,1-3.81-1.09,13.69,13.69,0,0,0-5.21-1.17l-1.18-.06-1.28.13a4.31,4.31,0,0,0-1.67.44,9.68,9.68,0,0,1-3.84,1.19,4.45,4.45,0,0,1-.95.55c-.07.88-.77,1.25-1.5,1.67a7.93,7.93,0,0,0-2.91,2.67c-.4.63-1,1.15-1.34,1.79a17.94,17.94,0,0,0-1.74,3.37c-1.17,3.48-2.17,7-3.29,10.51a8.84,8.84,0,0,1-1,1.68c.47,1.53-.25,3-.55,4.58a22.56,22.56,0,0,0-.7,6.8c.24,2.27.33,4.56.49,6.84,0,.42.05.84.1,1.26a21.89,21.89,0,0,0,1.93,5.55,10.74,10.74,0,0,0,5.54,6.05,4.78,4.78,0,0,0,2.15.48,20.3,20.3,0,0,0,3.63-.56,18.65,18.65,0,0,0,6.06-2.36c2.09-1.35,4.34-2.46,6.43-3.81a9.78,9.78,0,0,1,3.12-1.5,17,17,0,0,0,2.38-.89c1.28-.52,2.49-1.22,4-1.05a3.87,3.87,0,0,0,1.08-.23c2.32-.42,4.62-1.47,7-.2.27.14.64,0,1,.12a12.13,12.13,0,0,1,3.64,1.07,34.65,34.65,0,0,1,4.44,3.89,2.64,2.64,0,0,1,.76,2.06,5.14,5.14,0,0,1,.2.55,4.82,4.82,0,0,1,.15,1.14,9.59,9.59,0,0,1,.41,3.91,37.62,37.62,0,0,0-.38,4c-.06,1,.39,1.77,1,1.83a2.43,2.43,0,0,0,1.83-1.39,3.19,3.19,0,0,0,.1-.63c.29-2.32.61-4.64.85-7,0-.32.06-.56.09-.75a15.9,15.9,0,0,1-.5-3C537.41,388.48,537.29,387.46,537.06,386.48Zm-5.09-4.2c-1.5.07-3.31-1.53-4.94-1.77a32.81,32.81,0,0,0-15.22,1.76,96.21,96.21,0,0,0-14,6.49c-2.19,1.17-4.6,2.37-7,1.94a7.28,7.28,0,0,1-4.7-3.46,16.43,16.43,0,0,1-1.95-5.65c-2-10.42,0-22.56,5.68-31.62a19.22,19.22,0,0,1,6.51-6.45,9,9,0,0,1,9-.32,29.33,29.33,0,0,1,9.75,7.81,85.38,85.38,0,0,1,10.38,14.88c1.4,2.67,3,5.21,4.23,8C530,374.47,532.55,382.26,532,382.28Z"/><path d="M607.21,418.13a1.62,1.62,0,0,0-2,.47c-1.18,1.37-2.36,2.73-3.5,4.13a5.14,5.14,0,0,1-.38.42,13,13,0,0,1-3.27,3.54,21.28,21.28,0,0,1-1.93,2.19c-2.09,2-4.2,3.92-6.41,5.75a65.91,65.91,0,0,1-5.65,4.18,64.94,64.94,0,0,1-5.65,3.29,18.28,18.28,0,0,1-5.64,1.67c-3.25.52-6.46,1.29-9.7,1.91a16.38,16.38,0,0,1-2.33.15,7,7,0,0,0-.92.08,20.87,20.87,0,0,1-6.29.71c-2.29-.2-4.58-.35-6.84-.71a19.84,19.84,0,0,1-3.6-1.22c-1.7-.64-3.42-1.22-5.05-2a19.48,19.48,0,0,1-2.9-1.93c-2.37-1.7-4.73-3.44-7.11-5.14-.64-.46-1.37-.8-2-1.25a9.68,9.68,0,0,1-1-1h.08a10.71,10.71,0,0,1-.94-.52,3,3,0,0,1-1.8-.73,3.57,3.57,0,0,1-2.58-2.08c-.27-.66-.58-1.15-1.42-.89a1.18,1.18,0,0,1-.61.07c-.71-.2-1.43-.3-1.85.44s.25,1.25.65,1.79a1.27,1.27,0,0,1,.3.73l.06,0c1,.9,2.17,1.62,3.25,2.44a8.63,8.63,0,0,1,2.61,1.46,37.14,37.14,0,0,0,3.87,2.79c2.47,1.76,4.89,3.6,7.46,5.21,1.88,1.17,3.59,2.65,5.82,3.25a31.67,31.67,0,0,1,3.57,1.38,10.64,10.64,0,0,0,4.35.91,28.13,28.13,0,0,1,3,.28,28.68,28.68,0,0,0,3.81.25,59.82,59.82,0,0,0,7.87-.9c.77-.15,1.57-.21,2.35-.37,1.81-.37,3.61-.81,5.44-1.15.93-.18,1.91-.12,2.84-.29a35.94,35.94,0,0,0,5-1.1,18.83,18.83,0,0,0,4.15-2c2.06-1.31,4-2.84,6-4.23,1.09-.74,2.3-1.31,3.35-2.1a27,27,0,0,0,2-2c1.94-1.81,4-3.52,5.86-5.39a32.74,32.74,0,0,0,3.48-4.14,3.9,3.9,0,0,1,1.17-1.1,12.52,12.52,0,0,1,1.37-1.22l.68-.67H606a8.75,8.75,0,0,1,.36-.93c.47-.83,1-1.62,1.42-2.48A1.46,1.46,0,0,0,607.21,418.13Z"/><path d="M184.36,561.51a4.69,4.69,0,0,0,0-2.94,39.35,39.35,0,0,1-.84-3.94c-.76-3.13-1.13-6.38-3-9.16a16.16,16.16,0,0,1-1.25-3.15,4.31,4.31,0,0,0-.45-.85c-1.06-1.46-2.1-2.93-3.2-4.36-1.46-1.9-2.64-4.05-5-5.16a16.23,16.23,0,0,1-4.42-3.44,12.93,12.93,0,0,0-6.41-4,41.63,41.63,0,0,1-5.89-2.15,9.79,9.79,0,0,0-1.11-.48c-3.46-.86-6.91-1.79-10.41-2.48a15.7,15.7,0,0,0-4.84-.11c-2.32.27-2.31.4-3-1.87a23.4,23.4,0,0,0-9.09,1.2,74.84,74.84,0,0,0-8.18,3.43,37,37,0,0,0-8.51,5,26.15,26.15,0,0,1-2.7,1.77,4.29,4.29,0,0,0-.8.6,101.07,101.07,0,0,0-11,13.75,12.84,12.84,0,0,1-1,3.83c-.71,1.7-2,4.18-2.41,5.24a5.86,5.86,0,0,1-1,1.75,28.44,28.44,0,0,1-1.9,4.12c-1.26,2.11-1.43,4.88-2,7.37a3,3,0,0,0,.17,2c1,1.63,1.22,3.55,2.08,5.17,1.75,3.27,3.63,6.43,7.2,8.2s7.13,4.15,10.85,5.87,7,4.34,10.19,6.88a.71.71,0,0,1,.14.26,4.85,4.85,0,0,1,2.25,1.91,3.94,3.94,0,0,1,1.19.72,14.52,14.52,0,0,1,3,3.84c1.26,2.36,2,5,3.59,7.21a3.43,3.43,0,0,1,.39,1.35c.39,2,.62,4,1.18,5.94a38.24,38.24,0,0,1,1.83,7.83c.06.87.14,1.75.24,2.62.37,3.13.75,6.26,1.1,9.39a4.68,4.68,0,0,1,.5,2.13c0,2.89,0,5.77-.11,8.64a1.09,1.09,0,0,0,.62.27,1.5,1.5,0,0,0,1.11-.9,2.22,2.22,0,0,1,1-1.32l.09-.66c-.16,1.12,0-.29,0-.44a.38.38,0,0,1,0-.1c-.48-.32-.48-.78-.46-2,0-1,0-2,0-3,0-2.35,0-4.7-.14-7-.34-5.31-.13-10.51,2.66-15.25,1.63-2.77,3.22-5.59,5.08-8.21a18.11,18.11,0,0,1,4.41-4.69c3.79-2.57,7.83-4.77,11.78-7.1.34-.2.76-.26,1.13-.43,1.4-.63,2.79-1.29,4.19-1.91.9-.4,1.8-.81,2.72-1.13.1-.11.2-.23.31-.34a10.53,10.53,0,0,1,1.08-.94l-.18-.13c.9-.76,1.66-1.43,2.43-2.06,2.09-1.7,4.3-3.27,6.25-5.12A27.49,27.49,0,0,0,180,578a35.22,35.22,0,0,0,2.61-5.47c.6-1.43,1.15-2.9.48-4.51a2.21,2.21,0,0,1,0-1.19C183.52,565,183.88,563.26,184.36,561.51Zm-1.66,1.72c-.76,2.58-1.34,5.21-2.1,7.78a21.33,21.33,0,0,1-3.87,6.83c-.61.8-1.35,1.5-2,2.28a14,14,0,0,1-4.51,3.91,24.94,24.94,0,0,0-5.48,4.11,12.31,12.31,0,0,1-5.93,3,4.19,4.19,0,0,1-3.9,2.28h-.47a3.05,3.05,0,0,1-1.17.89c-2.77,1.62-5.65,3.1-8.27,4.95a15,15,0,0,0-4.79,4.82c-1.41,2.53-3.16,4.87-4.64,7.36-.86,1.44-1.45,3-2.19,4.53-.34.71-.73,1.39-1.15,2.18a2.71,2.71,0,0,1-1.11-2c-.67-2.69-1.19-5.41-1.92-8.07a25.83,25.83,0,0,0-1.63-3.89c-.85-1.83-1.77-3.62-2.65-5.44-.27-.54-.48-1.12-.8-1.63a3.54,3.54,0,0,1-.9-2.78c-2.66-.66-4.32-2.85-6.45-4.34-3.24-2.27-6.08-5.11-9.94-6.47a24.32,24.32,0,0,1-3.86-2.19,19.14,19.14,0,0,0-2.13-1.17A27.81,27.81,0,0,1,93,575c-2-1.75-2.75-4.13-3.83-6.37a.89.89,0,0,1,0-.6c1.1-3.13.52-6.73,2.67-9.59a5,5,0,0,0,.69-2.11,11.23,11.23,0,0,1,1.49-4,4.46,4.46,0,0,1,.3-1l.47-1.11h0a39.75,39.75,0,0,1,5.56-9.77c0-.08.09-.16.14-.23,2.26-3.38,4.67-6.59,8.13-8.87a71.46,71.46,0,0,1,6.4-4.23c3.66-1.88,7.47-3.44,11.23-5.09a2.42,2.42,0,0,1,2.51.11A2.07,2.07,0,0,0,131,522a4.87,4.87,0,0,1,2.07-.68c2.09,0,4.18,0,6.27.16,1.34.08,2.67.31,4,.47a10.12,10.12,0,0,1,3.63,1.11c1.21.62,2.71.64,4,1.08,3.07,1,6.1,2.15,9.17,3.17a10.18,10.18,0,0,1,4.15,2.72,13,13,0,0,0,6,3.93,3.42,3.42,0,0,1,1.78,1.55c1,1.62,1.76,3.34,2.56,5a7.56,7.56,0,0,1,.31,1.77,5.25,5.25,0,0,1,3.33,3.85,5.81,5.81,0,0,0,.89,1.56,13.93,13.93,0,0,1,2.31,5.77c.3,1.93.81,3.82,1.14,5.75A8.58,8.58,0,0,1,182.7,563.23Z"/><path d="M153.27,560.38c0-.36-.05-.8-.08-1.37l1.72.09-.43-.79c.69-1,1.37-1.9,2-2.84a1.48,1.48,0,0,1,1.87-.77c.75.28.5.95.55,1.55.21,2.53-1.42,4.31-2.56,6.22a17.16,17.16,0,0,1-12.25,8.14c-2.71.49-5.45.9-8.2,1.21a17.46,17.46,0,0,1-4-.09c-2.48-.29-5-.6-7.4-1.13a30.17,30.17,0,0,1-4.72-1.68c-1-.41-1.94-.94-2.91-1.42-1.16-.59-1.41-1.62-.69-2.88s1.34-1.32,2.5-.58a26.06,26.06,0,0,0,10.84,3.56c1.2.15,2.42.24,3.62.38,3.52.44,6.83-.59,10.1-1.63,1.1-.34,2-1.34,3-2s1.83-1.09,2.76-1.62C150.33,562,151.67,561.26,153.27,560.38Z"/><path d="M625.71,866.34c-14.17,28.12-5.58,40.56-2,55.59s2,32.62-38.1,43.13" class="cls-5"/><path d="M657.9,922.36a15.85,15.85,0,1,0,10.71-5.7A15.79,15.79,0,0,0,657.9,922.36Z" class="cls-5"/><polygon points="639.65 974.29 622.49 1007.99 669.49 1003.91 639.65 974.29" class="cls-5"/><path d="M732.8,1011.28a9.63,9.63,0,0,0-12.42-14.72A9.63,9.63,0,0,1,708,981.85a9.63,9.63,0,1,0-12.42-14.71" class="cls-5"/><line x1="716.49" x2="709.83" y1="890.81" y2="917.21" class="cls-5"/><path d="M166.35,938c-2.77,7-7.11,13.33-11.51,19.23a116.78,116.78,0,0,0-10.34-12.33,4.33,4.33,0,0,0,.51-.31c1.63-1,9.5-6.23,6.12-8.78-1.9-1.44-4,1.26-5.38,2.69a6.6,6.6,0,0,1-.48.46,28.42,28.42,0,0,1-3.92,2.79,112.55,112.55,0,0,0-9.29-8c-5.72-4.43-12.1-8.6-15.38-15.07a24.29,24.29,0,0,1-2.26-13,52.67,52.67,0,0,1,6.29-3.78A42.32,42.32,0,0,1,138.59,897c.47,0,.94,0,1.4,0,10.46,0,19.08,4.21,24.26,11.84C169.73,916.91,170.5,927.55,166.35,938Z"/><path d="M270.26,950.38c-.07.16-.14.32-.2.48-3.36,7.59-10.2,13.13-17.38,17.35-13.15,7.71-28,11.95-41.87,18.34s-27.35,15.7-33.51,29.66A118.45,118.45,0,0,0,160,964.93l-.24-.38.13-.17.11-.14c4.81-6.37,9.49-12.86,12.88-20.32.43-.92.83-1.88,1.21-2.84.54-1.35,1-2.69,1.39-4,7.4-24.92-8.32-48.4-35.5-48.39-.56,0-1.13,0-1.69,0a51,51,0,0,0-21,5.55c7.26-17.85,24-27.22,42.26-31.1,16.46-3.48,33.78-1.37,49.85,3.06s31.51,10.61,43.18,23.07a74.81,74.81,0,0,1,19.54,41.9C272.88,937.64,272.77,944.38,270.26,950.38Z"/><path d="M145,944.6a4.33,4.33,0,0,1-.51.31q-1.53-1.62-3.15-3.15a28.42,28.42,0,0,0,3.92-2.79,6.6,6.6,0,0,0,.48-.46c1.42-1.43,3.48-4.13,5.38-2.69C154.51,938.37,146.64,943.56,145,944.6Z" class="cls-6"/><path d="M144.5,944.91a30.68,30.68,0,0,1-24.88,3.35,30.51,30.51,0,0,1-6.17-2.55c-.71-.38-1.59-.7-1.68-1.57s1-1.68,1.82-1.79c1.74-.21,3.27.88,4.81,1.51a24.42,24.42,0,0,0,5.63,1.58,25.91,25.91,0,0,0,14.9-2.4c.82-.39,1.63-.82,2.42-1.28Q143,943.29,144.5,944.91Z"/><path d="M219.43,952.15a59.64,59.64,0,0,1-25.37.56,59,59,0,0,1-21.17-8.79c.43-.92.83-1.88,1.21-2.84.54-1.35,1-2.69,1.39-4a46.37,46.37,0,0,0,5.46,3.38,49.63,49.63,0,0,0,28.46,5.07,55.69,55.69,0,0,0,14-3.39c.36-.14.75-.31,1.17-.52,3.45-1.71,8.89-5.28,11.43-1.48C240.55,946.85,223.05,951.29,219.43,952.15Z" class="cls-6"/><path d="M159.77,964.55q-2.33-3.75-4.93-7.31c-.5.67-1,1.32-1.48,2l0,.06h0l-.06.07c-.61.8-1.2,1.6-1.81,2.39-4.82,6.35-9.74,12.84-13.63,20.23-2.28-2.34-4.82-4.7-7.49-7.14l-1.94-1.79A138.63,138.63,0,0,0,116,962.86c-14-10.58-23-18.33-21.57-29.11.74-5.66,3.69-11.62,8.76-17.71a58.12,58.12,0,0,1,11.28-10.41,36.31,36.31,0,0,1,2.15-9.6c.1-.31.22-.62.35-.92l.35-.86-.35.17A64.91,64.91,0,0,0,96.74,910.7c-5.28,6.35-9.55,13.8-10.62,22-2.87,21.87,23.32,33.7,36.49,46.39,3.51,3.39,18.37,15.81,17.14,21.59C142.82,986.19,151.48,975.55,159.77,964.55Z"/><path d="M175.49,937.06c-.39,1.33-.85,2.67-1.39,4-.38,1-.78,1.92-1.21,2.84-3.39,7.46-8.07,14-12.88,20.32l-.11.14-.13.17q-2.33-3.75-4.93-7.31c4.4-5.9,8.74-12.22,11.51-19.23,4.15-10.46,3.38-21.1-2.1-29.17C159.07,901.21,150.45,897,140,897c-.46,0-.93,0-1.4,0a42.32,42.32,0,0,0-17.88,4.82,52.67,52.67,0,0,0-6.29,3.78,36.31,36.31,0,0,1,2.15-9.6c.1-.31.22-.62.35-.92l.35-.86a51,51,0,0,1,21-5.55c.56,0,1.13,0,1.69,0C167.17,888.66,182.89,912.14,175.49,937.06Z" class="cls-6"/><path d="M630.86,752c1.42-1.44,3.48-4.13,5.38-2.7,3.38,2.55-4.48,7.74-6.12,8.79a30.69,30.69,0,0,1-25.39,3.65,30,30,0,0,1-6.17-2.55c-.7-.38-1.59-.69-1.68-1.57s1-1.68,1.83-1.78c1.73-.22,3.27.88,4.8,1.52a23.84,23.84,0,0,0,5.64,1.56A25.79,25.79,0,0,0,624,756.57a29,29,0,0,0,6.34-4.08A6.31,6.31,0,0,0,630.86,752Z"/><path d="M625.1,702.19l-1.69,0A51.19,51.19,0,0,0,602,708a65.07,65.07,0,0,0-20.19,16.28c-5.27,6.35-9.54,13.8-10.61,22A24.11,24.11,0,0,0,571,750h4.5a30.45,30.45,0,0,1,3.84.26,16.16,16.16,0,0,1,.11-2.93c.74-5.65,3.69-11.61,8.76-17.71a56.54,56.54,0,0,1,17.57-14.19,42.46,42.46,0,0,1,17.88-4.82c.47,0,.94,0,1.4,0,10.46,0,19.08,4.2,24.26,11.83,5.49,8.07,6.25,18.71,2.1,29.18-3.08,7.79-8.11,14.74-13,21.2l-.05.08-.06.07-1.81,2.39c-2.27,3-4.49,6-6.63,9.1-1.06,1.55-2.14,3.08-3.17,4.66s-1.66,3.05-2.6,4.45a22.31,22.31,0,0,0-3.61,9.52,3.71,3.71,0,0,0,.41,3c.62.95,1.51,1.69,2.11,2.65,1,1.58,2.21,3.6,1.8,5.55,3.08-14.52,11.81-25.2,20.15-36.26l.11-.14c5.41-7.17,10.66-14.51,14.09-23.16C669.65,728.27,653.75,702.19,625.1,702.19Z"/><path d="M864.34,752c1.42-1.44,3.48-4.13,5.38-2.7,3.38,2.55-4.48,7.74-6.12,8.79a30.69,30.69,0,0,1-25.39,3.65,30,30,0,0,1-6.17-2.55c-.7-.38-1.59-.69-1.68-1.57s1-1.68,1.83-1.78c1.73-.22,3.27.88,4.8,1.52a23.84,23.84,0,0,0,5.64,1.56,25.79,25.79,0,0,0,14.89-2.39,29,29,0,0,0,6.34-4.08A6.31,6.31,0,0,0,864.34,752Z"/><path d="M858.58,710.53c10.46,0,19.08,4.2,24.26,11.83,5.49,8.07,6.25,18.71,2.1,29.18-3.08,7.79-8.11,14.74-13,21.23l-.09.12L870,775.28c-4.82,6.35-9.73,12.83-13.62,20.22-2.29-2.33-4.83-4.71-7.5-7.14-.81-.74-1.51-1.38-1.93-1.79a140.21,140.21,0,0,0-12.44-10.18c-13.95-10.59-23-18.33-21.57-29.12.74-5.65,3.69-11.61,8.76-17.71a56.54,56.54,0,0,1,17.57-14.19,42.46,42.46,0,0,1,17.88-4.82c.47,0,.94,0,1.4,0h0m0-8.34-1.69,0A51.19,51.19,0,0,0,835.51,708a65.07,65.07,0,0,0-20.19,16.28c-5.27,6.35-9.54,13.8-10.61,22-2.87,21.87,23.31,33.7,36.49,46.39,3.51,3.39,18.37,15.8,17.14,21.59,3.08-14.52,11.81-25.2,20.15-36.26l.11-.14c5.41-7.17,10.66-14.51,14.09-23.16,10.44-26.34-5.46-52.42-34.11-52.42Z"/><path d="M392,412.05a54.57,54.57,0,0,1-108.87-5.46h21.83a32.74,32.74,0,0,0,65.44,1.64c.87.33,1.74.64,2.62.93A62,62,0,0,0,392,412.05Z"/><path d="M377.56,378.35a54.51,54.51,0,1,0-10.9,9q10,8.32,25.58,8.33Q382.91,391,377.56,378.35Zm-16.61-14a32.94,32.94,0,1,1,9.63-23.27A32.9,32.9,0,0,1,361,364.38Z"/><path d="M195,406.59a54.57,54.57,0,0,1-109.14,0h21.83a32.75,32.75,0,0,0,65.49,0Z"/><path d="M180.36,378.35a54.51,54.51,0,1,0-10.9,9q10,8.32,25.58,8.33Q185.71,391,180.36,378.35Zm-16.61-14a32.93,32.93,0,1,1,9.63-23.26A32.89,32.89,0,0,1,163.75,364.37Z"/><path d="M902.41,906.57a40.44,40.44,0,0,0-5.36-4.13c-13.29-8.6-39.72-10.77-47.81,6.15-4.31,9-.57,17.56,4.09,25.46,5.06,8.57,12,16.11,15.43,25.57-1.17-3.19,10.32-9.86,12.45-11.19,7-4.37,16.28-5.86,22.33-11.49C912.51,928.58,911,914.44,902.41,906.57ZM887.34,931.3a25.46,25.46,0,0,1-25.2-6.2c-.46-.46-1.09-.91-1-1.62s1.15-1.11,1.84-1c1.42.22,2.39,1.43,3.46,2.27a20,20,0,0,0,4.1,2.51,21.3,21.3,0,0,0,12.31,1.45,24.07,24.07,0,0,0,5.93-1.81c.15-.07.31-.15.48-.25,1.44-.82,3.68-2.49,4.86-.92C896.25,928.49,888.87,930.83,887.34,931.3Z"/><path d="M855.05,977.71c1.93-4.77,10.47-15.22,3.26-19.33a11.63,11.63,0,0,0-6.48-1.06c-5.55.3-11.14.46-16.58,1.71-4,.91-11.23,2.13-11.82,7.14,0,3.92,2.27,5.5,5.22,7.62a90.1,90.1,0,0,1,10.07,8.41c3.4,3.28,6.15,7.5,9.9,10.34,1.88,1.43,4.45,2.44,6.75,1.46C852.56,988.71,852.85,983.16,855.05,977.71Zm-9.89-1.8a17.13,17.13,0,0,1-7.2-.25,16.68,16.68,0,0,1-3.48-1.27c-.39-.19-.89-.35-1-.83s.5-.95,1-1a5.38,5.38,0,0,1,2.69.73,13.62,13.62,0,0,0,3.15.74,14.36,14.36,0,0,0,8.18-1.66,16,16,0,0,0,3.41-2.4,2.12,2.12,0,0,0,.26-.26c.75-.83,1.83-2.36,2.92-1.61,1.92,1.33-2.31,4.38-3.19,5A17.23,17.23,0,0,1,845.16,975.91Z"/><path d="M927.76,969.31c-2.9-9-9-20.75-19.58-22a16,16,0,0,0-13.76,5.3c-7,8-3.37,20.33,2,28.22a71.4,71.4,0,0,0,7.79,9.32c.32.33,6.28,7.29,6.6,6.69l.11-.23c.58-1.34.31-2.93.3-4.41-.08-7.81,10.35-4.65,14.64-9.21C929.12,979.46,929.23,973.91,927.76,969.31ZM916,976.85a15.33,15.33,0,0,1-14.76-5c-.25-.29-.61-.59-.49-1s.74-.61,1.15-.51c.84.21,1.35,1,2,1.54a11.84,11.84,0,0,0,2.33,1.71,12.74,12.74,0,0,0,7.29,1.51,14.25,14.25,0,0,0,3.64-.78l.3-.12c.9-.42,2.33-1.3,3-.3C921.48,975.63,917,976.65,916,976.85Z"/><path d="M945.87,898.14c-2-4.55-6.39-8.36-11.59-8.31a15.22,15.22,0,0,0-9.29,3.66,24,24,0,0,0-8.53,14.23,15.37,15.37,0,0,0,.1,6.58,29.4,29.4,0,0,1,.8,11.51,31.69,31.69,0,0,1-1.3,5.77c-.31.94-.67,1.86-1,2.77a4,4,0,0,0-.4,2.12c2.57-.82,5.33-2.74,7.76-4,6.08-3.21,12.49-6.73,17.44-11.6C945.88,914.87,949.55,906.32,945.87,898.14Zm-12.41,19.2a11.68,11.68,0,0,1-9.3-3.1,11.35,11.35,0,0,1-1.67-1.93c-.18-.25-.43-.51-.31-.82a.73.73,0,0,1,.93-.3c.63.23,1,.86,1.38,1.34a9.09,9.09,0,0,0,1.66,1.5,9.83,9.83,0,0,0,5.5,1.74,11.45,11.45,0,0,0,2.86-.31l.25-.07c.72-.25,1.89-.82,2.3,0C937.77,916.83,934.2,917.26,933.46,917.34Z"/><path d="M832.73,922.63a12,12,0,0,1,.82-8.06c1.29-3,3.42-5.4,5.15-8.12a14.37,14.37,0,0,0-.6-16.89c-2.63-3.28-6.42-5.44-10.33-7-5.95-2.35-12.09-2.73-16.44.64a13.61,13.61,0,0,0-4.26,6c-6.93,17.84,4.41,39.08,21.49,45.83,1.9.75,10.75,4,12.08,2.07,1.11-1.64-2.35-6.23-3.33-7.43C835.51,927.51,833.51,925.35,832.73,922.63Zm-.75-13c-.13.47-.64.56-1.06.71a16.46,16.46,0,0,1-3.59.85,17.1,17.1,0,0,1-7.18-.62,17.35,17.35,0,0,1-6.37-3.62c-.8-.72-4.63-4.25-2.56-5.34,1.16-.62,2,1,2.7,1.95a2.43,2.43,0,0,0,.22.29,16.12,16.12,0,0,0,3.1,2.79,14.37,14.37,0,0,0,7.93,2.62,13.34,13.34,0,0,0,3.21-.36,5.48,5.48,0,0,1,2.76-.4C831.6,908.62,832.12,909.08,832,909.62Z"/><circle cx="1090.84" cy="936.71" r="60.25" class="cls-7"/><path d="M1108.18,906.74c-13.29-8.6-39.72-10.77-47.81,6.15-4.31,9-.57,17.57,4.09,25.46,5,8.57,12,16.11,15.43,25.57-1.17-3.19,10.32-9.86,12.44-11.18,7-4.38,16.29-5.87,22.34-11.5,9-8.36,7.47-22.5-1.14-30.37A41.21,41.21,0,0,0,1108.18,906.74Z"/><path d="M1100.42,931c1.44-.82,3.67-2.49,4.86-.92,2.09,2.77-5.28,5.11-6.81,5.57a25.46,25.46,0,0,1-25.2-6.2c-.46-.46-1.1-.91-1-1.62s1.14-1.11,1.84-1c1.42.22,2.39,1.43,3.45,2.28a20.51,20.51,0,0,0,4.11,2.5A21.29,21.29,0,0,0,1094,933a24.2,24.2,0,0,0,5.93-1.81A4.5,4.5,0,0,0,1100.42,931Z" class="cls-6"/><path d="M1034.56,970.47c.58-5,7.85-6.23,11.82-7.14,5.43-1.25,11-1.41,16.57-1.71a11.67,11.67,0,0,1,6.49,1.06c7.21,4.11-1.33,14.56-3.26,19.33-2.21,5.46-2.5,11,.31,16.29-2.29,1-4.87,0-6.75-1.46-3.74-2.84-6.49-7.06-9.89-10.34a92,92,0,0,0-10.07-8.41C1036.83,976,1034.56,974.39,1034.56,970.47Z"/><path d="M1063.31,974c.75-.82,1.83-2.36,2.91-1.61,1.92,1.33-2.3,4.38-3.18,5a17.07,17.07,0,0,1-17.43,1.32c-.39-.19-.89-.34-1-.83s.5-1,1-1a5.41,5.41,0,0,1,2.69.73,13.62,13.62,0,0,0,3.15.74,14.37,14.37,0,0,0,8.18-1.66,16.26,16.26,0,0,0,3.41-2.4A3.18,3.18,0,0,0,1063.31,974Z" class="cls-6"/><path d="M1122,1000.9c.58-1.34.31-2.93.3-4.41-.08-7.81,10.34-4.65,14.63-9.21,3.31-3.52,3.41-9.07,1.94-13.67-2.89-9.05-9-20.75-19.57-22a16.06,16.06,0,0,0-13.77,5.3c-7,8.05-3.36,20.33,2,28.22a70.74,70.74,0,0,0,7.79,9.32c.31.33,6.28,7.29,6.6,6.69Z"/><path d="M1129.8,977c.52-.84,1.21-2.37,2.28-1.89,1.91.85-1.29,4.22-2,4.9a15.14,15.14,0,0,1-11.79,4.6,15,15,0,0,1-3.26-.54c-.37-.1-.84-.16-1-.57s.28-.91.68-1.06a4.89,4.89,0,0,1,2.48.2,12.07,12.07,0,0,0,2.88.12,12.81,12.81,0,0,0,6.9-2.81,15.22,15.22,0,0,0,2.59-2.67A2.27,2.27,0,0,0,1129.8,977Z" class="cls-6"/><path d="M1157,902.44c-2-4.55-6.39-8.36-11.59-8.31a15.22,15.22,0,0,0-9.29,3.66,24,24,0,0,0-8.53,14.23,15.37,15.37,0,0,0,.1,6.58,29.44,29.44,0,0,1,.8,11.52,31.59,31.59,0,0,1-1.3,5.76c-.31.94-.67,1.86-1,2.77a3.91,3.91,0,0,0-.4,2.13c2.57-.83,5.32-2.75,7.76-4,6.07-3.22,12.49-6.74,17.43-11.6C1157,919.18,1160.67,910.63,1157,902.44Z"/><path d="M1145.88,919.69c.73-.25,1.9-.82,2.3,0,.72,1.45-2.86,1.87-3.59,1.95a11.68,11.68,0,0,1-9.3-3.1,11.47,11.47,0,0,1-1.68-1.93c-.17-.25-.42-.51-.3-.82a.73.73,0,0,1,.93-.3c.63.23,1,.87,1.38,1.34a9.09,9.09,0,0,0,1.66,1.5,9.8,9.8,0,0,0,5.5,1.74,11.05,11.05,0,0,0,2.86-.31Z" class="cls-6"/><path d="M1022.45,887.53c4.36-3.38,10.5-3,16.45-.65,3.91,1.54,7.69,3.7,10.32,7a14.37,14.37,0,0,1,.61,16.9c-1.73,2.71-3.86,5.13-5.15,8.12a12.07,12.07,0,0,0-.83,8c.79,2.72,2.79,4.88,4.58,7.07,1,1.2,4.44,5.8,3.34,7.43-1.34,2-10.18-1.32-12.09-2.07-17.08-6.75-28.41-28-21.48-45.83A13.56,13.56,0,0,1,1022.45,887.53Z"/><path d="M1025,907.85c-.64-.91-1.53-2.56-2.7-2-2.06,1.09,1.77,4.62,2.57,5.34a17.27,17.27,0,0,0,6.37,3.62,17.05,17.05,0,0,0,7.17.62,16.41,16.41,0,0,0,3.6-.85c.42-.14.93-.24,1-.71s-.38-1-.83-1.13a5.48,5.48,0,0,0-2.76.4,13.42,13.42,0,0,1-3.22.36,14.28,14.28,0,0,1-7.92-2.62,15.83,15.83,0,0,1-3.1-2.79Z" class="cls-6"/><path d="M1098.22,697.93a60.25,60.25,0,1,0,60.25,60.25A60.24,60.24,0,0,0,1098.22,697.93Zm33.43,74.13c-7.51,7-19,8.84-27.71,14.27-2.64,1.64-16.9,9.91-15.45,13.88-4.29-11.74-12.86-21.09-19.15-31.73-5.77-9.8-10.41-20.39-5.07-31.59,10-21,42.84-18.3,59.34-7.63a51.19,51.19,0,0,1,6.64,5.11C1140.93,744.13,1142.79,761.69,1131.65,772.06Z"/><path d="M1111.56,765.06a31.57,31.57,0,0,1-31.28-7.69c-.57-.57-1.35-1.12-1.2-2s1.42-1.37,2.29-1.24c1.76.27,3,1.77,4.28,2.82a24.62,24.62,0,0,0,5.09,3.11,26.38,26.38,0,0,0,15.29,1.8,29.6,29.6,0,0,0,7.35-2.24l.6-.31c1.78-1,4.56-3.08,6-1.14C1122.61,761.58,1113.45,764.49,1111.56,765.06Z"/><path d="M166.14,717.31C144.69,703.44,102,699.94,89,727.25c-7,14.56-.92,28.35,6.59,41.09,8.17,13.84,19.32,26,24.92,41.28-1.89-5.16,16.65-15.92,20.09-18.06,11.36-7,26.28-9.46,36.05-18.56,14.48-13.49,12.06-36.32-1.83-49A66.6,66.6,0,0,0,166.14,717.31Z"/><path d="M127,779.18a90.52,90.52,0,0,0-7.94-12.94c-1.84-2.65-3.75-5.4-5.4-8.19-4.2-7.13-7.57-14.8-3.81-22.68,4.64-9.71,15.48-11.16,21.53-11.16,7.61,0,15.87,2.29,21.55,6a37.25,37.25,0,0,1,4.88,3.76,19.65,19.65,0,0,1,6.31,14.17,16.54,16.54,0,0,1-5.25,12.34c-3.18,3-7.36,4.64-11.79,6.42a57.73,57.73,0,0,0-9.14,4.3l-.59.36C132.18,774.66,128.82,777.12,127,779.18Z"/><path d="M131.37,725.76c7.33,0,15.26,2.19,20.71,5.71a35.47,35.47,0,0,1,4.67,3.61,18,18,0,0,1,5.81,13,15,15,0,0,1-4.76,11.2c-3,2.76-7,4.39-11.31,6.11a59.76,59.76,0,0,0-9.38,4.42l-.58.36a64.38,64.38,0,0,0-9.11,6.36,105.27,105.27,0,0,0-7.1-11.2c-1.82-2.63-3.71-5.35-5.33-8.1-4.61-7.8-7-14.4-3.75-21.22,4.28-8.94,14.45-10.28,20.13-10.28m0-3.09c-9.58,0-18.79,3.38-22.92,12s-.54,16.65,3.87,24.12c4.79,8.13,11.34,15.28,14.63,24.25-1.11-3,9.78-9.35,11.79-10.61,6.68-4.14,15.44-5.56,21.17-10.9,8.51-7.92,7.09-21.32-1.07-28.78a39.48,39.48,0,0,0-5.08-3.92c-5.79-3.74-14.23-6.2-22.39-6.2Z" class="cls-6"/><path d="M146.41,751.82c1.36-.77,3.48-2.35,4.6-.87,2,2.62-5,4.84-6.45,5.28a24.11,24.11,0,0,1-23.89-5.88c-.44-.43-1-.86-.91-1.53s1.08-1.05,1.74-1c1.35.21,2.26,1.36,3.27,2.16a19.16,19.16,0,0,0,3.9,2.37,20.12,20.12,0,0,0,11.67,1.37,22.6,22.6,0,0,0,5.61-1.71A3.42,3.42,0,0,0,146.41,751.82Z" class="cls-6"/><path d="M408.71,717.31c-21.45-13.87-64.12-17.37-77.18,9.94-7,14.56-.91,28.35,6.6,41.09,8.17,13.84,19.32,26,24.91,41.28-1.89-5.16,16.66-15.92,20.09-18.06,11.36-7,26.28-9.46,36.05-18.56,14.49-13.49,12.07-36.32-1.83-49A66.51,66.51,0,0,0,408.71,717.31Z"/><path d="M367.44,786a147.16,147.16,0,0,0-9-14c-2.51-3.61-4.88-7-7-10.61-6-10.08-9.05-18.57-4.9-27.26C352,722.7,365.11,721,372.42,721c9.52,0,19.82,2.83,26.88,7.4a47.31,47.31,0,0,1,6.05,4.67,23.07,23.07,0,0,1,7.42,16.63,19.07,19.07,0,0,1-6,14.22c-3.81,3.55-9.08,5.67-14.67,7.91a78.79,78.79,0,0,0-12.45,5.88l-.76.46A92.77,92.77,0,0,0,367.44,786Z"/><path d="M372.42,725.78c8.65,0,17.95,2.54,24.28,6.63a40.89,40.89,0,0,1,5.43,4.19A18.18,18.18,0,0,1,408,749.72a14.19,14.19,0,0,1-4.52,10.71c-3.15,2.94-8,4.9-13.19,7a82.58,82.58,0,0,0-13.19,6.25l-.73.44c-2.33,1.42-5,3-7.53,4.81-2.07-3.33-4.27-6.5-6.44-9.63-2.46-3.53-4.78-6.87-6.81-10.31-6.27-10.64-7.55-16.81-4.7-22.77,4.33-9.06,15.35-10.41,21.54-10.41m0-9.56c-12.6,0-24.72,4.45-30.16,15.85-5.38,11.25-.71,21.9,5.09,31.75,6.31,10.69,14.93,20.09,19.26,31.9-1.46-4,12.86-12.31,15.52-14,8.78-5.45,20.31-7.31,27.86-14.34,11.19-10.42,9.32-28.07-1.42-37.88a51.4,51.4,0,0,0-6.68-5.15c-7.63-4.93-18.73-8.17-29.47-8.17Z" class="cls-6"/><path d="M389,751.82c1.36-.77,3.48-2.35,4.6-.87,2,2.62-5,4.84-6.45,5.28a24.06,24.06,0,0,1-23.89-5.88c-.44-.43-1-.86-.92-1.53s1.08-1.05,1.75-1c1.34.21,2.26,1.36,3.27,2.16a19.09,19.09,0,0,0,3.89,2.37,20.13,20.13,0,0,0,11.67,1.37,22.54,22.54,0,0,0,5.62-1.71A4.14,4.14,0,0,0,389,751.82Z" class="cls-6"/><circle cx="849.76" cy="184.49" r="16.26"/><circle cx="751.18" cy="184.49" r="16.26"/><circle cx="800.47" cy="99.13" r="16.26"/><path d="M849.76,127.58a56.93,56.93,0,0,0,7.62-28.45H841.12a40.65,40.65,0,0,1-81.3,0H743.56a56.93,56.93,0,0,0,7.62,28.45,56.84,56.84,0,0,0-28.45,7.63l8.13,14.08a40.65,40.65,0,0,1,40.65,70.41l8.13,14.08A56.93,56.93,0,0,0,800.47,213a56.85,56.85,0,0,0,20.83,20.83l8.13-14.08a40.65,40.65,0,1,1,40.65-70.41l8.13-14.08A56.84,56.84,0,0,0,849.76,127.58Z"/><path d="M580.4,104.67a13.85,13.85,0,1,1-13.85-13.84A13.85,13.85,0,0,1,580.4,104.67Z" class="cls-8"/><path d="M629.5,116.79a72.68,72.68,0,0,1-63,36.34A72.69,72.69,0,0,1,629.5,116.79Z" class="cls-8"/><path d="M566.55,225.82a72.71,72.71,0,0,1,0-72.69A72.66,72.66,0,0,1,566.55,225.82Z" class="cls-8"/><path d="M566.55,153.13a72.66,72.66,0,0,1-62.94-36.34A72.67,72.67,0,0,1,566.55,153.13Z" class="cls-8"/><path d="M1000.25,223l-11.76,11.77a58.23,58.23,0,1,1,82.34-82.35,41.59,41.59,0,1,0,58.82-58.82l11.77-11.76a58.23,58.23,0,0,1,1.38,80.91q5.7,13.5,15.67,18.49-16.62,0-27.3-8.89a58.24,58.24,0,0,1-72.1-8.16A41.59,41.59,0,1,0,1000.25,223Z"/><circle cx="1100.24" cy="123.03" r="27.73"/><circle cx="1029.66" cy="193.61" r="27.73"/><path d="M403.41,892.58a61,61,0,0,0-45.67,102.69q-6,14.16-16.42,19.38,17.42,0,28.62-9.32A61,61,0,1,0,429,898.7" class="cls-9"/><path d="M419.07,920.81a36.8,36.8,0,1,1-24-3.28" class="cls-9"/><path d="M463.06,960.08a36.8,36.8,0,1,0-24-3.27" class="cls-9"/><path d="M429.09,978.92a61,61,0,1,1,71.27-13.26q6,14.18,16.42,19.39-17.41,0-28.62-9.32A61.08,61.08,0,0,1,454.69,985" class="cls-9"/><path d="M410.38,158.32a64.59,64.59,0,1,0-64.59,64.59" class="cls-10"/><path d="M410.38,222.91a64.6,64.6,0,0,0-64.59-64.59" class="cls-10"/><path d="M103.28,171.7a37,37,0,0,0,5.09,12.38,15.52,15.52,0,0,0,5.22,5,8.36,8.36,0,0,0,6,.87,8.57,8.57,0,0,0,2.1-.79,12.08,12.08,0,0,0,2.71-1.94l.36-.34a18,18,0,0,0,1.48-1.67,19.31,19.31,0,0,0,1.19-1.66,29.19,29.19,0,0,0,1.54-2.7l2.83,5.68,1.1,2.19,7.31,14.63a45.69,45.69,0,0,1-8.4,12.06,22.54,22.54,0,0,1-10.12,6.08l-.24.06a16.69,16.69,0,0,1-12-1.74A30.89,30.89,0,0,1,99,209.84a58.65,58.65,0,0,1-5.86-11,87.78,87.78,0,0,1-4.34-13.78,122.87,122.87,0,0,1,0-53.48,86.27,86.27,0,0,1,4.33-13.77,58.57,58.57,0,0,1,5.85-11,31.14,31.14,0,0,1,10.43-10,16.77,16.77,0,0,1,12-1.73l.23.06a22.46,22.46,0,0,1,10.12,6.09,45.48,45.48,0,0,1,8.4,12L132.9,128l-1.1,2.2L129,135.82a29,29,0,0,0-1.54-2.69,19.31,19.31,0,0,0-1.19-1.66,16.82,16.82,0,0,0-1.48-1.67l-.36-.34a11.77,11.77,0,0,0-2.71-1.94,8.64,8.64,0,0,0-2.11-.79,8.34,8.34,0,0,0-6,.86,15.52,15.52,0,0,0-5.21,5,36.32,36.32,0,0,0-5.1,12.39,61.13,61.13,0,0,0,0,26.74Z" class="cls-11"/><path d="M188,113.33l-21.13,22.49a30.17,30.17,0,0,0-3.56-3.22L180,113.33c-9.37-10.84-22.37-17.93-36.71-18.59A57.88,57.88,0,0,1,188,113.33Z" class="cls-12"/><path d="M166.84,180.82,188,203.32a57.84,57.84,0,0,1-44.71,18.58c14.34-.66,27.34-7.75,36.71-18.58l-16.69-19.27A30.26,30.26,0,0,0,166.84,180.82Z" class="cls-12"/><path d="M132.9,128a17.1,17.1,0,0,1,1.57.88c-.91.4-1.8.83-2.67,1.32Z" class="cls-12"/><path d="M131.8,186.5c.87.48,1.76.92,2.67,1.31a13.41,13.41,0,0,1-1.57.88Z" class="cls-12"/><path d="M137.63,221.83a39,39,0,0,0,14.51-4.11,49.57,49.57,0,0,0,17-14.4l-13.69-17.88a27.8,27.8,0,0,0,5.07-4.62l2.79,3.23L180,203.32c-9.37,10.83-22.37,17.92-36.71,18.58a46.05,46.05,0,0,1-5.63-.06Z" class="cls-12"/><path d="M143.26,94.74c14.34.66,27.34,7.75,36.71,18.59L163.28,132.6l-2.79,3.22a28.54,28.54,0,0,0-5.07-4.62l13.69-17.87a49.68,49.68,0,0,0-17-14.4,39,39,0,0,0-14.51-4.11h0A46.06,46.06,0,0,1,143.26,94.74Z" class="cls-12"/><path d="M124.4,187.19a28.18,28.18,0,0,1-10.69-12.58,40.29,40.29,0,0,1,0-32.58,28.15,28.15,0,0,1,10.69-12.57l.36.34a16.82,16.82,0,0,1,1.48,1.67c-8.48,6.21-12.79,16.69-12.79,26.85s4.31,20.65,12.79,26.86a18,18,0,0,1-1.48,1.67Z" class="cls-12"/><path d="M137.63,221.83a36.66,36.66,0,0,1-7.25-.11h0a29.12,29.12,0,0,0,11-4,44.72,44.72,0,0,0,14.33-14.44L145.23,187a25.7,25.7,0,0,0,6.65-6.17l3.54,4.62,13.69,17.88a49.57,49.57,0,0,1-17,14.4A39,39,0,0,1,137.63,221.83Z" class="cls-12"/><path d="M141.4,98.88a29.1,29.1,0,0,0-11-3.94h0a36.66,36.66,0,0,1,7.25-.11,39,39,0,0,1,14.51,4.11,49.68,49.68,0,0,1,17,14.4L155.42,131.2l-3.54,4.62a25.84,25.84,0,0,0-6.65-6.16l10.5-16.33A44.75,44.75,0,0,0,141.4,98.88Z" class="cls-12"/><path d="M113.71,174.61a28.18,28.18,0,0,0,10.69,12.58,12.08,12.08,0,0,1-2.71,1.94c-5.73-2.31-9.62-7.84-11.89-13.11a47.1,47.1,0,0,1,0-35.39c2.27-5.27,6.16-10.8,11.89-13.11a11.77,11.77,0,0,1,2.71,1.94A28.15,28.15,0,0,0,113.71,142a40.29,40.29,0,0,0,0,32.58Z" class="cls-12"/><path d="M155.73,113.33l-10.5,16.33-4,6.16a22.63,22.63,0,0,0-6.79-7,17.1,17.1,0,0,0-1.57-.88l7.31-14.62a45.48,45.48,0,0,0-8.4-12,22.46,22.46,0,0,0-10.12-6.09,26.25,26.25,0,0,1,8.69-.25,29.1,29.1,0,0,1,11,3.94A44.75,44.75,0,0,1,155.73,113.33Z" class="cls-12"/><path d="M145.23,187l10.5,16.33a44.72,44.72,0,0,1-14.33,14.44,29.12,29.12,0,0,1-11,4,26.52,26.52,0,0,1-8.69-.25,22.54,22.54,0,0,0,10.12-6.08,45.69,45.69,0,0,0,8.4-12.06l-7.31-14.63a13.41,13.41,0,0,0,1.57-.88,22.53,22.53,0,0,0,6.79-7Z" class="cls-12"/><path d="M109.8,176c2.27,5.27,6.16,10.8,11.89,13.11a8.57,8.57,0,0,1-2.1.79,8.36,8.36,0,0,1-6-.87,15.52,15.52,0,0,1-5.22-5,37,37,0,0,1-5.09-12.38,61.13,61.13,0,0,1,0-26.74,36.32,36.32,0,0,1,5.1-12.39,15.52,15.52,0,0,1,5.21-5,8.34,8.34,0,0,1,6-.86,8.64,8.64,0,0,1,2.11.79c-5.73,2.31-9.62,7.84-11.89,13.11a47.1,47.1,0,0,0,0,35.39Z" class="cls-12"/></svg>