<svg xmlns="http://www.w3.org/2000/svg" viewBox="0 0 696.99 332.94"><defs><style>.cls-1{fill:#f4f6f8}.cls-2{fill:#ddd}.cls-3{fill:#008cff}.cls-4{fill:#df1f26}.cls-5{fill:red}.cls-6{fill:#e01717}.cls-7{fill:#911d26}.cls-8{fill:#313131}</style></defs><g id="Layer_4" data-name="Layer 4"><rect width="696.99" height="332.94" class="cls-1"/></g><g id="Layer_3" data-name="Layer 3"><path d="M226.49,265.78a96.39,96.39,0,0,1-57-18.77,97.4,97.4,0,0,1-39.67-86.7,99.05,99.05,0,0,1,53.71-80.73A100.71,100.71,0,0,1,282,82.75a102.39,102.39,0,0,1,50,86.85.49.49,0,0,1-.49.5.5.5,0,0,1-.51-.49,101.36,101.36,0,0,0-49.53-86A99.71,99.71,0,0,0,184,80.47a98.05,98.05,0,0,0-53.17,79.92A96.37,96.37,0,0,0,170,246.2a94.93,94.93,0,0,0,98.52,8.71,93.15,93.15,0,0,0,52.14-81.85A91.35,91.35,0,0,0,273,90.67a89.58,89.58,0,0,0-93.23,4.24,87.63,87.63,0,0,0-37.08,91.21,85.67,85.67,0,0,0,69.14,67,83.73,83.73,0,0,0,86-38.17,81.78,81.78,0,0,0-3.15-91.85,80.14,80.14,0,0,0-93.84-27.64,78,78,0,0,0-49.2,81.49,75.8,75.8,0,0,0,64.48,66.39,73.66,73.66,0,0,0,78.29-44.21,71.8,71.8,0,0,0,1.44-51.94,70.34,70.34,0,0,0-34.14-39.1,69.43,69.43,0,0,0-49.88-5.39,67.93,67.93,0,0,0-40.26,29.86,66.93,66.93,0,0,0-9,47.54,65.52,65.52,0,0,0,25.61,41,64.5,64.5,0,0,0,44.95,12.29,63,63,0,0,0,41.33-21.45,61.91,61.91,0,0,0,14.32-51.24,60.19,60.19,0,0,0-29.74-42.32,59,59,0,0,0-50.59-3.7,57.27,57.27,0,0,0-33.87,35.73,56.12,56.12,0,0,0,6.09,47.85A54.37,54.37,0,0,0,220.34,223a53.18,53.18,0,0,0,43.32-14.66,51.5,51.5,0,0,0,15.55-41.44,50.14,50.14,0,0,0-33.48-43.28,48.22,48.22,0,0,0-51.11,12.64,46.32,46.32,0,0,0-8.72,49.82,44.43,44.43,0,0,0,40.34,26.95h.3a42.53,42.53,0,0,0,38.89-24.92,40.65,40.65,0,0,0-6.67-43.87,38.72,38.72,0,0,0-40.83-11.05,36.84,36.84,0,0,0-25.29,31.3,34.75,34.75,0,0,0,24.66,36.9,32.46,32.46,0,0,0,38.14-16.31A30.17,30.17,0,0,0,247,147.46a27.89,27.89,0,0,0-35.66,1.27,25.61,25.61,0,0,0-4.82,32.43,23.34,23.34,0,0,0,28.27,9.69A21.05,21.05,0,0,0,248,167.32a18.79,18.79,0,0,0-18.21-15.38h-.35a16.46,16.46,0,0,0-16.2,13.66,14.18,14.18,0,0,0,9.18,15.84,11.9,11.9,0,0,0,14.46-5.35,9.58,9.58,0,0,0-2.37-12.3,7.36,7.36,0,0,0-9.65.38c-1.68,1.73-2.36,4.73-.57,6.76a3.43,3.43,0,0,0,2.41,1.17,1.94,1.94,0,0,0,1.51-.61,1.28,1.28,0,0,0,.29-1.2c0-.1-.12-.2-.35-.2a.5.5,0,0,1-.5-.5.5.5,0,0,1,.5-.5,1.32,1.32,0,0,1,1.27.81,2.21,2.21,0,0,1-.49,2.27,2.82,2.82,0,0,1-2.25.93,4.44,4.44,0,0,1-3.14-1.51c-2.17-2.46-1.39-6.06.61-8.12a8.35,8.35,0,0,1,11-.48,10.57,10.57,0,0,1,2.65,13.57,12.88,12.88,0,0,1-15.66,5.83,15.19,15.19,0,0,1-9.85-16.94A17.47,17.47,0,0,1,229.46,151,19.82,19.82,0,0,1,249,167.12a22.06,22.06,0,0,1-13.83,24.66,24.34,24.34,0,0,1-29.49-10.09,26.62,26.62,0,0,1,5-33.7,28.9,28.9,0,0,1,36.94-1.33,31.18,31.18,0,0,1,8.69,38.9A33.46,33.46,0,0,1,217,202.39a35.76,35.76,0,0,1-25.37-38,37.84,37.84,0,0,1,26-32.15A39.75,39.75,0,0,1,259.5,143.6a41.63,41.63,0,0,1,6.84,45,43.51,43.51,0,0,1-39.8,25.51h-.31A45.45,45.45,0,0,1,185,186.51a47.32,47.32,0,0,1,8.91-50.9,49.23,49.23,0,0,1,52.17-12.91,51.13,51.13,0,0,1,34.14,44.15,52.43,52.43,0,0,1-15.84,42.23A54.23,54.23,0,0,1,220.22,224a55.4,55.4,0,0,1-40.36-25.24,57.1,57.1,0,0,1-6.2-48.7,58.25,58.25,0,0,1,34.46-36.35,60,60,0,0,1,51.44,3.76,61.17,61.17,0,0,1,30.24,43,62.89,62.89,0,0,1-14.56,52.07,64.07,64.07,0,0,1-42,21.79,65.52,65.52,0,0,1-45.65-12.49,66.41,66.41,0,0,1-26-41.62A67.91,67.91,0,0,1,170.76,132a68.89,68.89,0,0,1,40.85-30.29,70.38,70.38,0,0,1,50.6,5.46,71.34,71.34,0,0,1,34.63,39.66,72.9,72.9,0,0,1-1.47,52.66A74.63,74.63,0,0,1,216,244.32a76.81,76.81,0,0,1-65.33-67.26,79,79,0,0,1,49.82-82.54,81.13,81.13,0,0,1,95,28,82.78,82.78,0,0,1,3.2,93,84.74,84.74,0,0,1-87,38.63,86.69,86.69,0,0,1-69.95-67.77,88.64,88.64,0,0,1,37.5-92.25,90.59,90.59,0,0,1,94.26-4.29,92.37,92.37,0,0,1,48.19,83.29A94.15,94.15,0,0,1,269,255.8,95.77,95.77,0,0,1,226.49,265.78Z" class="cls-2"/><path d="M198.77,155.59a.46.46,0,0,1-.23-.06l-7.36-3.77a.51.51,0,0,1-.21-.68.5.5,0,0,1,.67-.21l7.36,3.77a.5.5,0,0,1,.21.67A.48.48,0,0,1,198.77,155.59Z" class="cls-3"/><path d="M226.61,203.71a34.76,34.76,0,0,1-17.3-4.6A36.13,36.13,0,0,1,194.64,153a.49.49,0,0,1,.66-.25.5.5,0,0,1,.26.66,35.11,35.11,0,0,0,14.25,44.83,33.69,33.69,0,0,0,25.44,3.33,31.76,31.76,0,0,0,19.4-15A30.82,30.82,0,0,0,257,161.08a28.76,28.76,0,0,0-16.8-17.47,28,28,0,0,0-25.45,2.5,25.77,25.77,0,0,0-11.91,20.64,24.54,24.54,0,0,0,11.79,22.35,22.81,22.81,0,0,0,23.47.14,21,21,0,0,0,9.68-23.07A18.87,18.87,0,0,0,230.31,152a17,17,0,0,0-13,5.37,15.33,15.33,0,0,0-4.16,12A14.37,14.37,0,0,0,219,179.65a12.58,12.58,0,0,0,10.26,2.19,11.7,11.7,0,0,0,8.35-7.16,9.29,9.29,0,0,0-1.19-9,8.48,8.48,0,0,0-7.3-3.44,6.12,6.12,0,0,0-5.15,3.32,5.41,5.41,0,0,0,.22,5.22,2.89,2.89,0,0,0,2.84,1.33,1.74,1.74,0,0,0,1.62-1.24.82.82,0,0,0-.14-.61.32.32,0,0,0-.27-.13.5.5,0,0,1-.5-.5.5.5,0,0,1,.5-.5,1.36,1.36,0,0,1,1,.48,1.8,1.8,0,0,1,.36,1.43,2.71,2.71,0,0,1-2.5,2.07,3.9,3.9,0,0,1-3.77-1.77,6.43,6.43,0,0,1-.28-6.25,7.11,7.11,0,0,1,6-3.85,9.51,9.51,0,0,1,8.18,3.85,10.4,10.4,0,0,1,1.31,10,12.69,12.69,0,0,1-9.06,7.78,13.62,13.62,0,0,1-11.07-2.36,15.42,15.42,0,0,1-6.2-11,16.34,16.34,0,0,1,4.43-12.8A18.23,18.23,0,0,1,230.33,151a19.88,19.88,0,0,1,18.41,15,22,22,0,0,1-10.14,24.18,23.77,23.77,0,0,1-24.49-.13,25.53,25.53,0,0,1-12.28-23.25,26.79,26.79,0,0,1,12.37-21.44,29,29,0,0,1,26.36-2.59,29.78,29.78,0,0,1,17.37,18.07,31.82,31.82,0,0,1-2.41,26.34,32.74,32.74,0,0,1-20,15.44A34,34,0,0,1,226.61,203.71Z" class="cls-3"/><path d="M243.49,72.33a2.59,2.59,0,1,0-2.59-2.58A2.58,2.58,0,0,0,243.49,72.33Z" class="cls-4"/><path d="M171.2,250.24a2.59,2.59,0,1,0-2.58-2.58A2.59,2.59,0,0,0,171.2,250.24Z" class="cls-5"/><circle cx="211.32" cy="81.07" r="2.58" class="cls-4"/><path d="M212.79,168.13a2.59,2.59,0,1,0-2.59-2.58A2.59,2.59,0,0,0,212.79,168.13Z" class="cls-6"/><path d="M361.07,205.77a2.59,2.59,0,1,0-2.59-2.59A2.58,2.58,0,0,0,361.07,205.77Z" class="cls-6"/><path d="M230.39,143.72a2.58,2.58,0,1,0-2.59-2.58A2.58,2.58,0,0,0,230.39,143.72Z" class="cls-4"/><path d="M193.77,139.06a2.58,2.58,0,1,0-2.59-2.58A2.58,2.58,0,0,0,193.77,139.06Z" class="cls-7"/><path d="M245.55,114.85a2.59,2.59,0,1,0-2.59-2.59A2.59,2.59,0,0,0,245.55,114.85Z" class="cls-7"/><path d="M279.72,208.47a2.59,2.59,0,1,0-2.58-2.59A2.58,2.58,0,0,0,279.72,208.47Z" class="cls-7"/><path d="M207.83,212a2.59,2.59,0,1,0-2.59-2.59A2.59,2.59,0,0,0,207.83,212Z" class="cls-5"/><path d="M309.58,159.2a2.59,2.59,0,1,0-2.58-2.58A2.59,2.59,0,0,0,309.58,159.2Z" class="cls-4"/><circle cx="277.85" cy="92.9" r="2.58" class="cls-7"/><path d="M141.6,185.48A2.59,2.59,0,1,0,139,182.9,2.58,2.58,0,0,0,141.6,185.48Z" class="cls-7"/><path d="M157.21,139.29a2.59,2.59,0,1,0-2.58-2.59A2.59,2.59,0,0,0,157.21,139.29Z" class="cls-7"/><circle cx="221.64" cy="244.4" r="2.58" class="cls-4"/><path d="M271.65,256.46a2.59,2.59,0,1,0-2.58-2.58A2.58,2.58,0,0,0,271.65,256.46Z" class="cls-4"/><path d="M228.19,172.19a2.59,2.59,0,1,0-2.59-2.59A2.59,2.59,0,0,0,228.19,172.19Z" class="cls-6"/><path d="M362.36,129.65a2.42,2.42,0,0,0,.68-.16,1.35,1.35,0,0,0,.52-.39,1.07,1.07,0,0,0,.2-.67,1.18,1.18,0,0,0-.42-1,1.51,1.51,0,0,0-1-.33,1.34,1.34,0,0,0-1.14.49,2,2,0,0,0-.38,1.26H359a4,4,0,0,1,.28-1.38,3,3,0,0,1,.68-1.07,3.21,3.21,0,0,1,1.06-.7,3.75,3.75,0,0,1,1.37-.24,4.37,4.37,0,0,1,1.18.17,3.4,3.4,0,0,1,1.06.53,2.94,2.94,0,0,1,.76.85,2.35,2.35,0,0,1,.29,1.16,2.29,2.29,0,0,1-.34,1.26,1.7,1.7,0,0,1-1,.75v0a2.16,2.16,0,0,1,1.27.79,2.28,2.28,0,0,1,.47,1.44,3,3,0,0,1-.3,1.37,3.09,3.09,0,0,1-.81,1,3.59,3.59,0,0,1-1.16.62,4.72,4.72,0,0,1-2.88,0,3.16,3.16,0,0,1-1.15-.69,3.09,3.09,0,0,1-.74-1.12,4,4,0,0,1-.24-1.51h1.89a3.09,3.09,0,0,0,.12.75,2,2,0,0,0,.32.62,1.67,1.67,0,0,0,.53.41,1.73,1.73,0,0,0,.75.15,1.65,1.65,0,0,0,1.13-.41,1.7,1.7,0,0,0,.25-2,1.25,1.25,0,0,0-.56-.43,2.11,2.11,0,0,0-.73-.15c-.27,0-.52,0-.76,0v-1.4Z" class="cls-8"/><path d="M369.22,127.32l-.39,2.23,0,0a2.37,2.37,0,0,1,.87-.58,2.85,2.85,0,0,1,1-.18,2.9,2.9,0,0,1,1.28.27,2.7,2.7,0,0,1,.95.71,3.13,3.13,0,0,1,.59,1.06,4.2,4.2,0,0,1,.2,1.29,3.49,3.49,0,0,1-.29,1.41,3.77,3.77,0,0,1-.79,1.13,3.68,3.68,0,0,1-1.16.73,3.63,3.63,0,0,1-1.4.25,5,5,0,0,1-1.36-.19,3.51,3.51,0,0,1-1.16-.58,2.93,2.93,0,0,1-.8-1,2.86,2.86,0,0,1-.32-1.35h2a1.61,1.61,0,0,0,.5,1.07,1.56,1.56,0,0,0,1.11.4,1.51,1.51,0,0,0,.71-.16,1.82,1.82,0,0,0,.53-.42,1.93,1.93,0,0,0,.33-.6,2.16,2.16,0,0,0,.12-.71,2.07,2.07,0,0,0-.11-.71,1.7,1.7,0,0,0-.33-.59,1.5,1.5,0,0,0-.54-.39,1.58,1.58,0,0,0-.71-.14,1.7,1.7,0,0,0-.87.19,2,2,0,0,0-.63.59h-1.79l1-5.42h5.48v1.64Z" class="cls-8"/><path d="M377.1,133.33v2.15a2.13,2.13,0,0,1-.17.88,2.22,2.22,0,0,1-.47.69,2.38,2.38,0,0,1-.69.48,2.79,2.79,0,0,1-.85.26v-1a1.27,1.27,0,0,0,.4-.17,1.6,1.6,0,0,0,.33-.3,1.47,1.47,0,0,0,.21-.39,1.4,1.4,0,0,0,.06-.45h-1v-2.15Z" class="cls-8"/><path d="M378.53,128.14a4.37,4.37,0,0,1,.77-1.56,2.87,2.87,0,0,1,1.14-.84,4,4,0,0,1,2.78,0,2.87,2.87,0,0,1,1.14.84,4.08,4.08,0,0,1,.79,1.56,8.65,8.65,0,0,1,.29,2.4,9,9,0,0,1-.29,2.46,4.06,4.06,0,0,1-.79,1.57,2.69,2.69,0,0,1-1.14.84,3.85,3.85,0,0,1-2.78,0,2.69,2.69,0,0,1-1.14-.84,4.34,4.34,0,0,1-.77-1.57,8.64,8.64,0,0,1-.29-2.46A8.29,8.29,0,0,1,378.53,128.14Zm1.72,3.42a5.32,5.32,0,0,0,.18,1.14,2.42,2.42,0,0,0,.47,1,1.12,1.12,0,0,0,.92.39,1.18,1.18,0,0,0,.95-.39,2.29,2.29,0,0,0,.47-1,5.32,5.32,0,0,0,.18-1.14q0-.6,0-1c0-.17,0-.37,0-.61a4.68,4.68,0,0,0-.06-.73,6.58,6.58,0,0,0-.14-.75,2.35,2.35,0,0,0-.27-.67,1.47,1.47,0,0,0-.46-.47,1.27,1.27,0,0,0-.69-.18,1.23,1.23,0,0,0-.68.18,1.41,1.41,0,0,0-.44.47,2.7,2.7,0,0,0-.28.67,6.58,6.58,0,0,0-.14.75c0,.25,0,.5,0,.73v.61C380.23,130.82,380.24,131.16,380.25,131.56Z" class="cls-8"/><path d="M386.31,128.14a4.22,4.22,0,0,1,.78-1.56,2.74,2.74,0,0,1,1.14-.84,3.72,3.72,0,0,1,1.38-.25,3.77,3.77,0,0,1,1.39.25,2.9,2.9,0,0,1,1.15.84,4.22,4.22,0,0,1,.78,1.56,8.65,8.65,0,0,1,.29,2.4,9,9,0,0,1-.29,2.46,4.19,4.19,0,0,1-.78,1.57,2.72,2.72,0,0,1-1.15.84,3.77,3.77,0,0,1-1.39.26,3.72,3.72,0,0,1-1.38-.26,2.58,2.58,0,0,1-1.14-.84,4.19,4.19,0,0,1-.78-1.57,9,9,0,0,1-.29-2.46A8.65,8.65,0,0,1,386.31,128.14Zm1.73,3.42a6,6,0,0,0,.17,1.14,2.57,2.57,0,0,0,.47,1,1.32,1.32,0,0,0,1.87,0,2.44,2.44,0,0,0,.48-1,5.32,5.32,0,0,0,.17-1.14q0-.6,0-1c0-.17,0-.37,0-.61a6.25,6.25,0,0,0-.05-.73,6.58,6.58,0,0,0-.14-.75,2.11,2.11,0,0,0-.28-.67,1.47,1.47,0,0,0-.46-.47,1.37,1.37,0,0,0-1.36,0,1.56,1.56,0,0,0-.45.47,2.35,2.35,0,0,0-.27.67,4.94,4.94,0,0,0-.14.75,6.25,6.25,0,0,0-.05.73c0,.24,0,.44,0,.61S388,131.16,388,131.56Z" class="cls-8"/><path d="M394.09,128.14a4.38,4.38,0,0,1,.78-1.56,2.87,2.87,0,0,1,1.14-.84,3.79,3.79,0,0,1,1.38-.25,3.73,3.73,0,0,1,1.39.25,2.83,2.83,0,0,1,1.15.84,4.23,4.23,0,0,1,.79,1.56,8.69,8.69,0,0,1,.28,2.4,9.05,9.05,0,0,1-.28,2.46,4.2,4.2,0,0,1-.79,1.57,2.66,2.66,0,0,1-1.15.84,3.74,3.74,0,0,1-1.39.26,3.8,3.8,0,0,1-1.38-.26,2.69,2.69,0,0,1-1.14-.84,4.35,4.35,0,0,1-.78-1.57,9.05,9.05,0,0,1-.28-2.46A8.69,8.69,0,0,1,394.09,128.14Zm1.73,3.42a5.32,5.32,0,0,0,.18,1.14,2.42,2.42,0,0,0,.47,1,1.12,1.12,0,0,0,.92.39,1.18,1.18,0,0,0,.95-.39,2.42,2.42,0,0,0,.47-1,5.32,5.32,0,0,0,.18-1.14q0-.6,0-1c0-.17,0-.37,0-.61a6.33,6.33,0,0,0-.06-.73,6.58,6.58,0,0,0-.14-.75,2.35,2.35,0,0,0-.27-.67,1.59,1.59,0,0,0-.46-.47,1.27,1.27,0,0,0-.69-.18,1.21,1.21,0,0,0-.68.18,1.56,1.56,0,0,0-.45.47,3.12,3.12,0,0,0-.27.67,6.58,6.58,0,0,0-.14.75c0,.25,0,.5-.05.73v.61C395.8,130.82,395.8,131.16,395.82,131.56Z" class="cls-8"/><path d="M408.13,125.49l3.15,8.4,3.16-8.4h1.82v10H415v-8.31h0l-3.13,8.31h-1.13l-3.12-8.31h0v8.31h-1.26v-10Z" class="cls-8"/><path d="M418.35,126.94v-1.45h1.19v1.45Zm1.19,1.31v7.23h-1.19v-7.23Z" class="cls-8"/><path d="M422.65,125.49v10h-1.19v-10Z" class="cls-8"/><path d="M429.62,135a3.28,3.28,0,0,1-2,.62,3.87,3.87,0,0,1-1.51-.28,3,3,0,0,1-1.07-.79,3.16,3.16,0,0,1-.65-1.2,5.7,5.7,0,0,1-.25-1.53,4.31,4.31,0,0,1,.26-1.51,3.53,3.53,0,0,1,.7-1.19,3.24,3.24,0,0,1,2.44-1.06,3,3,0,0,1,1.61.4,3.17,3.17,0,0,1,1,1,4,4,0,0,1,.53,1.35,5.53,5.53,0,0,1,.12,1.38h-5.42a2.65,2.65,0,0,0,.12.9,1.92,1.92,0,0,0,.4.76,2,2,0,0,0,.72.53,2.44,2.44,0,0,0,1,.19,2,2,0,0,0,1.24-.35,1.68,1.68,0,0,0,.63-1.06h1.18A2.9,2.9,0,0,1,429.62,135Zm-.29-4.65a2.23,2.23,0,0,0-.43-.65,2.1,2.1,0,0,0-.65-.43,2,2,0,0,0-.81-.16,2.06,2.06,0,0,0-.84.16,1.79,1.79,0,0,0-.63.44,2.23,2.23,0,0,0-.43.65,2.6,2.6,0,0,0-.18.79h4.16A2.46,2.46,0,0,0,429.33,130.37Z" class="cls-8"/><path d="M432.92,133.87a1.39,1.39,0,0,0,.44.43,1.85,1.85,0,0,0,.62.23,3.29,3.29,0,0,0,.71.07,4.18,4.18,0,0,0,.59,0,2.42,2.42,0,0,0,.56-.15,1.18,1.18,0,0,0,.43-.33.91.91,0,0,0,.17-.56.81.81,0,0,0-.35-.7,3.42,3.42,0,0,0-.88-.38q-.52-.15-1.14-.27a6.33,6.33,0,0,1-1.14-.33,2.52,2.52,0,0,1-.88-.61,1.6,1.6,0,0,1-.34-1.09,1.75,1.75,0,0,1,.24-.94,1.93,1.93,0,0,1,.63-.64,3.07,3.07,0,0,1,.87-.36,4,4,0,0,1,1-.12,5.66,5.66,0,0,1,1.13.1,2.51,2.51,0,0,1,.92.37,1.78,1.78,0,0,1,.63.7,2.51,2.51,0,0,1,.28,1.1h-1.19a1,1,0,0,0-.18-.58,1.18,1.18,0,0,0-.39-.38,1.81,1.81,0,0,0-.52-.2,3,3,0,0,0-.59-.06,3.23,3.23,0,0,0-.53,0,1.83,1.83,0,0,0-.5.15,1,1,0,0,0-.37.28.69.69,0,0,0-.14.45.67.67,0,0,0,.22.51,1.71,1.71,0,0,0,.56.34,4.46,4.46,0,0,0,.75.22l.84.19c.3.07.59.15.88.24a2.91,2.91,0,0,1,.75.37,1.73,1.73,0,0,1,.53.58,1.7,1.7,0,0,1,.21.87,1.94,1.94,0,0,1-.28,1.09,2.07,2.07,0,0,1-.71.7,2.94,2.94,0,0,1-1,.37,6,6,0,0,1-1.1.11,4.77,4.77,0,0,1-1.15-.13,2.73,2.73,0,0,1-1-.41,2.06,2.06,0,0,1-.67-.76,2.59,2.59,0,0,1-.28-1.14h1.19A1.39,1.39,0,0,0,432.92,133.87Z" class="cls-8"/><path d="M359.25,151.4a1.86,1.86,0,0,1,.07-.52,1.68,1.68,0,0,1,.2-.48,1.37,1.37,0,0,1,.33-.39,1.31,1.31,0,0,1,.47-.24v.52a.68.68,0,0,0-.26.18.88.88,0,0,0-.18.29,1.35,1.35,0,0,0-.11.34,1.16,1.16,0,0,0,0,.32h.5v1.27h-1Zm1.85,0a1.86,1.86,0,0,1,.07-.52,2,2,0,0,1,.19-.48,1.41,1.41,0,0,1,.34-.39,1.31,1.31,0,0,1,.47-.24v.52a.71.71,0,0,0-.27.18,1.41,1.41,0,0,0-.18.29,1.91,1.91,0,0,0-.1.34,1.77,1.77,0,0,0,0,.32h.51v1.27h-1Z" class="cls-8"/><path d="M364.6,149.77v7.87h4.8v.7h-5.61v-8.57Z" class="cls-8"/><path d="M374,152.23a2.81,2.81,0,0,1,.92.71,3.25,3.25,0,0,1,.56,1,4,4,0,0,1,.19,1.26,4.07,4.07,0,0,1-.19,1.27,3.25,3.25,0,0,1-.56,1,2.78,2.78,0,0,1-.92.7,3,3,0,0,1-1.26.26,2.91,2.91,0,0,1-1.25-.26,2.78,2.78,0,0,1-.92-.7,3.07,3.07,0,0,1-.56-1,4.07,4.07,0,0,1-.19-1.27A4,4,0,0,1,370,154a3.07,3.07,0,0,1,.56-1,2.81,2.81,0,0,1,.92-.71,2.91,2.91,0,0,1,1.25-.26A3,3,0,0,1,374,152.23Zm-2.2.6a2.08,2.08,0,0,0-.68.6,2.68,2.68,0,0,0-.41.85,3.48,3.48,0,0,0-.14,1,3.55,3.55,0,0,0,.14,1,2.68,2.68,0,0,0,.41.85,2.2,2.2,0,0,0,.68.6,1.89,1.89,0,0,0,.94.22,1.93,1.93,0,0,0,.95-.22,2.32,2.32,0,0,0,.68-.6,2.68,2.68,0,0,0,.41-.85,3.55,3.55,0,0,0,.14-1,3.48,3.48,0,0,0-.14-1,2.68,2.68,0,0,0-.41-.85,2.18,2.18,0,0,0-.68-.6,1.93,1.93,0,0,0-.95-.22A1.89,1.89,0,0,0,371.76,152.83Z" class="cls-8"/><path d="M376.9,152.15l2,5.43h0l1.92-5.43h.78l-2.31,6.19h-.81l-2.39-6.19Z" class="cls-8"/><path d="M383.08,149.77V151h-.75v-1.21Zm0,2.38v6.19h-.75v-6.19Z" class="cls-8"/><path d="M385.28,152.15v1.07h0a1.84,1.84,0,0,1,.77-.91,2.24,2.24,0,0,1,1.21-.34,3.08,3.08,0,0,1,1.09.17,1.7,1.7,0,0,1,.7.47,1.66,1.66,0,0,1,.37.75,3.88,3.88,0,0,1,.11,1v4h-.75v-3.86a3.43,3.43,0,0,0-.08-.74,1.47,1.47,0,0,0-.25-.6,1.24,1.24,0,0,0-.48-.39,1.77,1.77,0,0,0-.77-.14,1.92,1.92,0,0,0-.81.16,1.73,1.73,0,0,0-.6.44,2.09,2.09,0,0,0-.38.67,2.85,2.85,0,0,0-.15.85v3.61h-.76v-6.19Z" class="cls-8"/><path d="M396.06,159.07a2.52,2.52,0,0,1-.47.94,2.2,2.2,0,0,1-.85.59,3.66,3.66,0,0,1-1.28.2,4,4,0,0,1-.91-.11,2.7,2.7,0,0,1-.8-.33,2.13,2.13,0,0,1-.58-.58,1.68,1.68,0,0,1-.27-.85h.75a1.36,1.36,0,0,0,.66,1,2.17,2.17,0,0,0,.54.21,3.15,3.15,0,0,0,.61.06,1.82,1.82,0,0,0,1.53-.6,2.75,2.75,0,0,0,.47-1.72V157h0a2.16,2.16,0,0,1-.77.92,2.09,2.09,0,0,1-1.2.35,2.91,2.91,0,0,1-1.27-.25,2.34,2.34,0,0,1-.87-.68,2.73,2.73,0,0,1-.5-1,5,5,0,0,1-.15-1.24,4,4,0,0,1,.18-1.21,3.15,3.15,0,0,1,.54-1,2.57,2.57,0,0,1,.88-.68,2.84,2.84,0,0,1,1.19-.24,2.34,2.34,0,0,1,.66.09,2.63,2.63,0,0,1,.56.27,2.88,2.88,0,0,1,.45.41,1.75,1.75,0,0,1,.3.48h0v-1.07h.75v5.69A4.71,4.71,0,0,1,396.06,159.07Zm-1.73-1.65a1.92,1.92,0,0,0,.62-.55,2.32,2.32,0,0,0,.38-.79,3.45,3.45,0,0,0,.13-.91,4,4,0,0,0-.11-.91,2.66,2.66,0,0,0-.35-.83,2,2,0,0,0-.62-.6,1.77,1.77,0,0,0-.92-.22,1.79,1.79,0,0,0-.92.22,1.87,1.87,0,0,0-.64.58,2.44,2.44,0,0,0-.36.82,3.73,3.73,0,0,0-.12.94,3.44,3.44,0,0,0,.12.91,2.32,2.32,0,0,0,.38.79,1.86,1.86,0,0,0,.63.55,1.88,1.88,0,0,0,.91.21A1.75,1.75,0,0,0,394.33,157.42Z" class="cls-8"/><path d="M403.45,152.15v.63h-1.26V157a1.31,1.31,0,0,0,.1.58q.1.21.51.24c.22,0,.43,0,.65,0v.64h-.67a1.53,1.53,0,0,1-1.06-.29,1.49,1.49,0,0,1-.29-1.09v-4.24h-1.08v-.63h1.08v-1.86h.76v1.86Z" class="cls-8"/><path d="M405.28,149.77v3.45h0a1.79,1.79,0,0,1,.77-.91,2.21,2.21,0,0,1,1.21-.34,3.06,3.06,0,0,1,1.08.17,1.73,1.73,0,0,1,.71.47,1.76,1.76,0,0,1,.37.75,4.37,4.37,0,0,1,.11,1v4h-.76v-3.86a3.45,3.45,0,0,0-.07-.74,1.62,1.62,0,0,0-.25-.6,1.27,1.27,0,0,0-.49-.39,1.72,1.72,0,0,0-.76-.14,1.86,1.86,0,0,0-.81.16,1.56,1.56,0,0,0-.6.44,2.11,2.11,0,0,0-.39.67,2.85,2.85,0,0,0-.15.85v3.61h-.75v-8.57Z" class="cls-8"/><path d="M411.75,149.77V151H411v-1.21Zm0,2.38v6.19H411v-6.19Z" class="cls-8"/><path d="M416.77,153.36a1.17,1.17,0,0,0-.36-.43,1.52,1.52,0,0,0-.51-.25,2.37,2.37,0,0,0-.61-.07,2.21,2.21,0,0,0-.51,0,1.48,1.48,0,0,0-.47.18.93.93,0,0,0-.35.33.87.87,0,0,0-.13.5.75.75,0,0,0,.12.43,1.28,1.28,0,0,0,.32.29,2,2,0,0,0,.42.2c.15,0,.29.1.42.13l1,.23a2.53,2.53,0,0,1,.64.17,2,2,0,0,1,.57.33,1.67,1.67,0,0,1,.4.5,1.77,1.77,0,0,1-.07,1.57,1.89,1.89,0,0,1-.59.57,2.3,2.3,0,0,1-.79.32,3.83,3.83,0,0,1-.88.1,2.8,2.8,0,0,1-1.77-.52,2.17,2.17,0,0,1-.77-1.65h.75a1.47,1.47,0,0,0,.56,1.15,2,2,0,0,0,1.27.39,2.74,2.74,0,0,0,.56-.06,1.73,1.73,0,0,0,.55-.2,1.13,1.13,0,0,0,.41-.37.87.87,0,0,0,.17-.54.83.83,0,0,0-.12-.46.89.89,0,0,0-.3-.31,2,2,0,0,0-.44-.22l-.5-.14-1-.22a3.88,3.88,0,0,1-.68-.22,2.25,2.25,0,0,1-.55-.31,1.28,1.28,0,0,1-.37-.46,1.58,1.58,0,0,1-.13-.66,1.53,1.53,0,0,1,.21-.81,1.67,1.67,0,0,1,.55-.54,2.8,2.8,0,0,1,.75-.3,3.81,3.81,0,0,1,.82-.09,3,3,0,0,1,.87.12,2,2,0,0,1,.71.37,2,2,0,0,1,.48.62,2.32,2.32,0,0,1,.21.88h-.76A1.4,1.4,0,0,0,416.77,153.36Z" class="cls-8"/><path d="M426.1,153a1.65,1.65,0,0,0-1.17-.39,1.93,1.93,0,0,0-.95.22,2.18,2.18,0,0,0-.68.6,2.91,2.91,0,0,0-.41.85,3.48,3.48,0,0,0-.14,1,3.55,3.55,0,0,0,.14,1,2.91,2.91,0,0,0,.41.85,2.32,2.32,0,0,0,.68.6,1.93,1.93,0,0,0,.95.22,1.65,1.65,0,0,0,.66-.13,2,2,0,0,0,.55-.36,2.28,2.28,0,0,0,.4-.56,2.32,2.32,0,0,0,.19-.71h.75a2.88,2.88,0,0,1-.82,1.76,2.44,2.44,0,0,1-1.73.63,3,3,0,0,1-1.26-.26,2.78,2.78,0,0,1-.92-.7,3.25,3.25,0,0,1-.56-1,4.07,4.07,0,0,1-.19-1.27,4,4,0,0,1,.19-1.26,3.25,3.25,0,0,1,.56-1,2.81,2.81,0,0,1,.92-.71,3,3,0,0,1,1.26-.26,2.64,2.64,0,0,1,1.68.53,2.25,2.25,0,0,1,.83,1.59h-.76A2.05,2.05,0,0,0,426.1,153Z" class="cls-8"/><path d="M428.7,153.11a1.67,1.67,0,0,1,.52-.65,2.2,2.2,0,0,1,.77-.37,3.81,3.81,0,0,1,1-.12,3.74,3.74,0,0,1,.82.08,2,2,0,0,1,.73.29,1.51,1.51,0,0,1,.53.61,2.11,2.11,0,0,1,.2,1v3.29a.4.4,0,0,0,.45.45.61.61,0,0,0,.24,0v.63l-.23,0h-.26a1.12,1.12,0,0,1-.46-.08.62.62,0,0,1-.28-.22.86.86,0,0,1-.12-.34,2.94,2.94,0,0,1,0-.44h0a4.91,4.91,0,0,1-.42.53,1.9,1.9,0,0,1-1.05.63,3.12,3.12,0,0,1-.79.09,3.45,3.45,0,0,1-.81-.1,1.86,1.86,0,0,1-.66-.33,1.36,1.36,0,0,1-.44-.56,1.86,1.86,0,0,1-.17-.81,1.6,1.6,0,0,1,.29-1,1.72,1.72,0,0,1,.76-.56,4.19,4.19,0,0,1,1.07-.27c.4-.06.8-.11,1.21-.15l.42-.06a.83.83,0,0,0,.3-.13.52.52,0,0,0,.18-.25.93.93,0,0,0,.07-.4,1.28,1.28,0,0,0-.13-.63.93.93,0,0,0-.34-.39,1.41,1.41,0,0,0-.52-.2,3.22,3.22,0,0,0-.63,0,1.92,1.92,0,0,0-1.18.34,1.34,1.34,0,0,0-.48,1.09h-.75A2.4,2.4,0,0,1,428.7,153.11Zm3.77,1.85a.44.44,0,0,1-.27.19,2.18,2.18,0,0,1-.36.08q-.48.09-1,.15a5.83,5.83,0,0,0-.93.2,1.77,1.77,0,0,0-.69.38.9.9,0,0,0-.27.7,1.19,1.19,0,0,0,.11.51,1.15,1.15,0,0,0,.31.38,1.48,1.48,0,0,0,.44.25,1.53,1.53,0,0,0,.52.08,2.57,2.57,0,0,0,.83-.13,2.11,2.11,0,0,0,.69-.38,2,2,0,0,0,.47-.61,2,2,0,0,0,.17-.82v-1Z" class="cls-8"/><path d="M435.46,152.15v1.45h0a2.38,2.38,0,0,1,.89-1.16,2.34,2.34,0,0,1,1.45-.38v.76a2.19,2.19,0,0,0-.94.14,2.07,2.07,0,0,0-.72.46,2,2,0,0,0-.48.71,2.46,2.46,0,0,0-.17.91v3.3h-.75v-6.19Z" class="cls-8"/><path d="M438.89,158.34a2.24,2.24,0,0,1-.06.52,1.57,1.57,0,0,1-.2.48,1.55,1.55,0,0,1-.33.39,1.26,1.26,0,0,1-.46.24v-.51a.72.72,0,0,0,.25-.18,1.49,1.49,0,0,0,.18-.3,1.39,1.39,0,0,0,.1-.33,1.15,1.15,0,0,0,0-.31h-.5v-1.27h1Z" class="cls-8"/><path d="M444.29,152.15l1.59,5.3h0l1.52-5.3h.85l1.51,5.3h0l1.59-5.3h.8l-2,6.19h-.83l-1.52-5.21h0l-1.51,5.21h-.83l-2-6.19Z" class="cls-8"/><path d="M453.77,149.77V151H453v-1.21Zm0,2.38v6.19H453v-6.19Z" class="cls-8"/><path d="M458.79,153.36a1.25,1.25,0,0,0-.35-.43,1.52,1.52,0,0,0-.51-.25,2.43,2.43,0,0,0-.61-.07,2.35,2.35,0,0,0-.52,0,1.48,1.48,0,0,0-.47.18,1,1,0,0,0-.35.33.87.87,0,0,0-.13.5.69.69,0,0,0,.13.43,1.23,1.23,0,0,0,.31.29,2,2,0,0,0,.42.2l.42.13,1,.23a2.6,2.6,0,0,1,.65.17,2,2,0,0,1,.56.33,1.53,1.53,0,0,1,.4.5,1.69,1.69,0,0,1-.07,1.57,1.86,1.86,0,0,1-.58.57,2.44,2.44,0,0,1-.8.32,3.83,3.83,0,0,1-.88.1,2.82,2.82,0,0,1-1.77-.52,2.17,2.17,0,0,1-.77-1.65h.75a1.51,1.51,0,0,0,.56,1.15,2,2,0,0,0,1.27.39,2.91,2.91,0,0,0,.57-.06,1.82,1.82,0,0,0,.55-.2,1.32,1.32,0,0,0,.41-.37.87.87,0,0,0,.16-.54.84.84,0,0,0-.42-.77,1.81,1.81,0,0,0-.44-.22l-.5-.14-1-.22a4.51,4.51,0,0,1-.68-.22,2.25,2.25,0,0,1-.55-.31,1.37,1.37,0,0,1-.36-.46,1.43,1.43,0,0,1-.14-.66,1.62,1.62,0,0,1,.21-.81,1.89,1.89,0,0,1,.55-.54,3.09,3.09,0,0,1,.75-.3,3.88,3.88,0,0,1,.82-.09,3,3,0,0,1,.87.12,1.93,1.93,0,0,1,.71.37,1.85,1.85,0,0,1,.49.62,2.33,2.33,0,0,1,.2.88h-.75A1.4,1.4,0,0,0,458.79,153.36Z" class="cls-8"/><path d="M461.74,149.77v3.45h0a1.79,1.79,0,0,1,.77-.91,2.21,2.21,0,0,1,1.21-.34,3.06,3.06,0,0,1,1.08.17,1.8,1.8,0,0,1,.71.47,1.89,1.89,0,0,1,.37.75,4.4,4.4,0,0,1,.1,1v4h-.75v-3.86a3.45,3.45,0,0,0-.07-.74,1.63,1.63,0,0,0-.26-.6,1.17,1.17,0,0,0-.48-.39,1.72,1.72,0,0,0-.76-.14,1.86,1.86,0,0,0-.81.16,1.56,1.56,0,0,0-.6.44,2.11,2.11,0,0,0-.39.67,2.85,2.85,0,0,0-.15.85v3.61H461v-8.57Z" class="cls-8"/><path d="M471.55,149.77V151h-.76v-1.21Zm0,2.38v6.19h-.76v-6.19Z" class="cls-8"/><path d="M481.09,158.34v-1.18h0a2,2,0,0,1-.35.56,2.45,2.45,0,0,1-.54.42,2.42,2.42,0,0,1-.64.27,2.29,2.29,0,0,1-.68.1,2.79,2.79,0,0,1-1.23-.26,2.59,2.59,0,0,1-.87-.71,3.06,3.06,0,0,1-.51-1,4.72,4.72,0,0,1,0-2.51,3,3,0,0,1,.51-1,2.75,2.75,0,0,1,.87-.72,2.79,2.79,0,0,1,1.23-.26,3,3,0,0,1,.68.08,2.62,2.62,0,0,1,.62.26,2.33,2.33,0,0,1,.51.43,1.68,1.68,0,0,1,.34.58h0v-3.55h.75v8.57Zm-4.15-2.14a2.67,2.67,0,0,0,.36.84,1.93,1.93,0,0,0,.63.61,1.7,1.7,0,0,0,.92.23,2,2,0,0,0,1-.23,2.07,2.07,0,0,0,.67-.61,2.29,2.29,0,0,0,.37-.84,4,4,0,0,0,.12-1,3.87,3.87,0,0,0-.12-1,2.29,2.29,0,0,0-.37-.84,2,2,0,0,0-.67-.61,2,2,0,0,0-1-.23,1.7,1.7,0,0,0-.92.23,1.84,1.84,0,0,0-.63.61,2.67,2.67,0,0,0-.36.84,3.85,3.85,0,0,0-.11,1A3.93,3.93,0,0,0,476.94,156.2Z" class="cls-8"/><path d="M484,149.77V151h-.76v-1.21Zm0,2.38v6.19h-.76v-6.19Z" class="cls-8"/><path d="M490.19,158.34v-1.18h0a2,2,0,0,1-.35.56,2.45,2.45,0,0,1-.54.42,2.42,2.42,0,0,1-.64.27,2.29,2.29,0,0,1-.68.1,2.79,2.79,0,0,1-1.23-.26,2.41,2.41,0,0,1-.87-.71,3.06,3.06,0,0,1-.51-1,4.72,4.72,0,0,1,0-2.51,3,3,0,0,1,.51-1,2.55,2.55,0,0,1,.87-.72A2.79,2.79,0,0,1,488,152a3.08,3.08,0,0,1,.68.08,2.62,2.62,0,0,1,.62.26,2.33,2.33,0,0,1,.51.43,1.68,1.68,0,0,1,.34.58h0v-3.55h.76v8.57Zm-4.14-2.14a2.28,2.28,0,0,0,.36.84,1.93,1.93,0,0,0,.63.61,1.68,1.68,0,0,0,.92.23,2,2,0,0,0,1-.23,2.07,2.07,0,0,0,.67-.61,2.47,2.47,0,0,0,.37-.84,3.93,3.93,0,0,0,.11-1,3.85,3.85,0,0,0-.11-1,2.47,2.47,0,0,0-.37-.84,2,2,0,0,0-.67-.61,2,2,0,0,0-1-.23,1.68,1.68,0,0,0-.92.23,1.84,1.84,0,0,0-.63.61,2.28,2.28,0,0,0-.36.84,3.87,3.87,0,0,0-.12,1A4,4,0,0,0,486.05,156.2Z" class="cls-8"/><path d="M493.07,152.15v1.07h0a1.79,1.79,0,0,1,.77-.91,2.21,2.21,0,0,1,1.21-.34,3.06,3.06,0,0,1,1.08.17,1.73,1.73,0,0,1,.71.47,1.76,1.76,0,0,1,.37.75,4.37,4.37,0,0,1,.11,1v4h-.76v-3.86a3.45,3.45,0,0,0-.07-.74,1.62,1.62,0,0,0-.25-.6,1.27,1.27,0,0,0-.49-.39,1.72,1.72,0,0,0-.76-.14,1.86,1.86,0,0,0-.81.16,1.56,1.56,0,0,0-.6.44,2.11,2.11,0,0,0-.39.67,2.85,2.85,0,0,0-.15.85v3.61h-.75v-6.19Z" class="cls-8"/><path d="M500.25,151.06a1.86,1.86,0,0,1-.07.52,2,2,0,0,1-.19.48,1.55,1.55,0,0,1-.33.39,1.28,1.28,0,0,1-.48.24v-.52a.59.59,0,0,0,.27-.17,1,1,0,0,0,.17-.3,1.35,1.35,0,0,0,.11-.34,1.77,1.77,0,0,0,0-.32h-.51v-1.27h1Z" class="cls-8"/><path d="M504.35,152.15v.63h-1.26V157a1.3,1.3,0,0,0,.11.58q.09.21.51.24c.21,0,.43,0,.64,0v.64h-.67a1.52,1.52,0,0,1-1.05-.29,1.49,1.49,0,0,1-.29-1.09v-4.24h-1.08v-.63h1.08v-1.86h.75v1.86Z" class="cls-8"/><path d="M509.54,149.77v3.55h0a1.68,1.68,0,0,1,.34-.58,2.33,2.33,0,0,1,.51-.43,2.7,2.7,0,0,1,.63-.26,3.07,3.07,0,0,1,.67-.08,2.79,2.79,0,0,1,1.23.26,2.55,2.55,0,0,1,.87.72,3.17,3.17,0,0,1,.52,1,5,5,0,0,1,0,2.51,3.28,3.28,0,0,1-.52,1,2.41,2.41,0,0,1-.87.71,2.79,2.79,0,0,1-1.23.26,2.64,2.64,0,0,1-1.35-.35,2,2,0,0,1-.86-1h0v1.18h-.7v-8.57Zm4.08,4.52a2.28,2.28,0,0,0-.36-.84,1.84,1.84,0,0,0-.63-.61,1.68,1.68,0,0,0-.92-.23,2,2,0,0,0-1,.23,2,2,0,0,0-.68.61,2.47,2.47,0,0,0-.37.84,4.4,4.4,0,0,0-.11,1,4.49,4.49,0,0,0,.11,1,2.47,2.47,0,0,0,.37.84,2.1,2.1,0,0,0,.68.61,2,2,0,0,0,1,.23,1.68,1.68,0,0,0,.92-.23,1.93,1.93,0,0,0,.63-.61,2.28,2.28,0,0,0,.36-.84,4,4,0,0,0,.12-1A3.87,3.87,0,0,0,513.62,154.29Z" class="cls-8"/><path d="M520,158.34v-1.12h0a2.14,2.14,0,0,1-.87,1,2.47,2.47,0,0,1-1.26.33,2.91,2.91,0,0,1-1-.16,1.66,1.66,0,0,1-.67-.47,1.7,1.7,0,0,1-.38-.73,3.65,3.65,0,0,1-.12-1v-4h.75v4a2.06,2.06,0,0,0,.39,1.27,2,2,0,0,0,2.11.22,1.9,1.9,0,0,0,.58-.55,2.59,2.59,0,0,0,.33-.8,4.06,4.06,0,0,0,.11-.92v-3.25h.75v6.19Z" class="cls-8"/><path d="M522.22,152.15l2,5.28,1.91-5.28h.75l-2.68,7.13c-.12.26-.22.48-.32.65a1.52,1.52,0,0,1-.31.41,1.07,1.07,0,0,1-.41.21,2.06,2.06,0,0,1-.6.07l-.35,0a.72.72,0,0,1-.22,0v-.64l.26.05h.25a1,1,0,0,0,.42-.07.8.8,0,0,0,.28-.2.93.93,0,0,0,.2-.3c.06-.12.12-.25.18-.4l.27-.69-2.47-6.17Z" class="cls-8"/><path d="M531.16,153.11a1.76,1.76,0,0,1,.52-.65,2.17,2.17,0,0,1,.78-.37,3.7,3.7,0,0,1,1-.12,3.86,3.86,0,0,1,.82.08,2,2,0,0,1,.73.29,1.59,1.59,0,0,1,.53.61,2.24,2.24,0,0,1,.2,1v3.29a.4.4,0,0,0,.45.45.67.67,0,0,0,.24,0v.63l-.24,0h-.26a1.19,1.19,0,0,1-.46-.08.59.59,0,0,1-.27-.22,1,1,0,0,1-.13-.34c0-.13,0-.28,0-.44h0a3.89,3.89,0,0,1-.41.53,2.22,2.22,0,0,1-.47.4,2.07,2.07,0,0,1-.59.23,3,3,0,0,1-.78.09,3.61,3.61,0,0,1-.82-.1,1.74,1.74,0,0,1-.65-.33,1.47,1.47,0,0,1-.45-.56,1.86,1.86,0,0,1-.16-.81,1.54,1.54,0,0,1,.29-1,1.67,1.67,0,0,1,.76-.56,4.19,4.19,0,0,1,1.07-.27q.59-.09,1.2-.15l.42-.06a.83.83,0,0,0,.3-.13.62.62,0,0,0,.19-.25,1.12,1.12,0,0,0,.06-.4,1.41,1.41,0,0,0-.12-.63,1,1,0,0,0-.35-.39,1.41,1.41,0,0,0-.52-.2,3.1,3.1,0,0,0-.63,0,1.89,1.89,0,0,0-1.17.34,1.34,1.34,0,0,0-.48,1.09h-.76A2.59,2.59,0,0,1,531.16,153.11Zm3.78,1.85a.47.47,0,0,1-.27.19,2.07,2.07,0,0,1-.37.08c-.32.06-.64.11-1,.15a6.08,6.08,0,0,0-.93.2,1.66,1.66,0,0,0-.68.38.87.87,0,0,0-.28.7,1.07,1.07,0,0,0,.12.51,1.26,1.26,0,0,0,.3.38,1.41,1.41,0,0,0,.45.25,1.51,1.51,0,0,0,.51.08,2.53,2.53,0,0,0,.83-.13,1.92,1.92,0,0,0,.69-.38,1.88,1.88,0,0,0,.47-.61,1.83,1.83,0,0,0,.17-.82v-1Z" class="cls-8"/><path d="M541.33,149.77v3.55h0a1.68,1.68,0,0,1,.34-.58,2.33,2.33,0,0,1,.51-.43,2.53,2.53,0,0,1,.63-.26,3,3,0,0,1,.67-.08,2.79,2.79,0,0,1,1.23.26,2.55,2.55,0,0,1,.87.72,3,3,0,0,1,.51,1,4.72,4.72,0,0,1,0,2.51,3.06,3.06,0,0,1-.51,1,2.41,2.41,0,0,1-.87.71,2.79,2.79,0,0,1-1.23.26,2.61,2.61,0,0,1-1.35-.35,1.92,1.92,0,0,1-.86-1h0v1.18h-.69v-8.57Zm4.08,4.52a2.67,2.67,0,0,0-.36-.84,1.84,1.84,0,0,0-.63-.61,1.68,1.68,0,0,0-.92-.23,2,2,0,0,0-1,.23,2,2,0,0,0-.67.61,2.29,2.29,0,0,0-.37.84,3.85,3.85,0,0,0-.11,1,3.93,3.93,0,0,0,.11,1,2.29,2.29,0,0,0,.37.84,2.07,2.07,0,0,0,.67.61,2,2,0,0,0,1,.23,1.68,1.68,0,0,0,.92-.23,1.93,1.93,0,0,0,.63-.61,2.67,2.67,0,0,0,.36-.84,3.93,3.93,0,0,0,.11-1A3.85,3.85,0,0,0,545.41,154.29Z" class="cls-8"/><path d="M548.22,149.77v8.57h-.75v-8.57Z" class="cls-8"/><path d="M549.83,153.11a1.76,1.76,0,0,1,.52-.65,2.17,2.17,0,0,1,.78-.37,3.7,3.7,0,0,1,1-.12,3.8,3.8,0,0,1,.82.08,2,2,0,0,1,.73.29,1.59,1.59,0,0,1,.53.61,2.24,2.24,0,0,1,.2,1v3.29a.4.4,0,0,0,.45.45.67.67,0,0,0,.24,0v.63l-.24,0h-.26a1.19,1.19,0,0,1-.46-.08.64.64,0,0,1-.27-.22.86.86,0,0,1-.12-.34,2.94,2.94,0,0,1,0-.44h0a3.89,3.89,0,0,1-.41.53,2.22,2.22,0,0,1-.47.4,2.07,2.07,0,0,1-.59.23,3,3,0,0,1-.78.09,3.45,3.45,0,0,1-.81-.1,1.71,1.71,0,0,1-.66-.33,1.47,1.47,0,0,1-.45-.56,1.86,1.86,0,0,1-.16-.81,1.6,1.6,0,0,1,.29-1,1.67,1.67,0,0,1,.76-.56,4.19,4.19,0,0,1,1.07-.27c.39-.06.8-.11,1.2-.15l.42-.06a.83.83,0,0,0,.3-.13.54.54,0,0,0,.19-.25,1.1,1.1,0,0,0,.07-.4,1.41,1.41,0,0,0-.13-.63.89.89,0,0,0-.35-.39,1.43,1.43,0,0,0-.51-.2,3.22,3.22,0,0,0-.63,0,1.9,1.9,0,0,0-1.18.34,1.34,1.34,0,0,0-.48,1.09h-.76A2.59,2.59,0,0,1,549.83,153.11Zm3.78,1.85a.47.47,0,0,1-.27.19,2.18,2.18,0,0,1-.36.08q-.48.09-1,.15a5.83,5.83,0,0,0-.93.2,1.77,1.77,0,0,0-.69.38.9.9,0,0,0-.27.7,1.06,1.06,0,0,0,.11.51,1.15,1.15,0,0,0,.31.38,1.26,1.26,0,0,0,.44.25,1.53,1.53,0,0,0,.52.08,2.51,2.51,0,0,0,.82-.13,1.92,1.92,0,0,0,.69-.38,1.76,1.76,0,0,0,.47-.61,1.83,1.83,0,0,0,.18-.82v-1Z" class="cls-8"/><path d="M559.7,153a1.68,1.68,0,0,0-1.18-.39,1.93,1.93,0,0,0-.95.22,2.18,2.18,0,0,0-.68.6,2.66,2.66,0,0,0-.4.85,3.14,3.14,0,0,0-.14,1,3.21,3.21,0,0,0,.14,1,2.66,2.66,0,0,0,.4.85,2.32,2.32,0,0,0,.68.6,1.93,1.93,0,0,0,.95.22,1.65,1.65,0,0,0,.66-.13,1.87,1.87,0,0,0,.55-.36,2.28,2.28,0,0,0,.4-.56,2.07,2.07,0,0,0,.19-.71h.76a2.89,2.89,0,0,1-.83,1.76,2.44,2.44,0,0,1-1.73.63,2.91,2.91,0,0,1-1.25-.26,2.68,2.68,0,0,1-.92-.7,3.09,3.09,0,0,1-.57-1,4.38,4.38,0,0,1-.19-1.27,4.31,4.31,0,0,1,.19-1.26,3.09,3.09,0,0,1,.57-1,2.71,2.71,0,0,1,.92-.71,2.91,2.91,0,0,1,1.25-.26,2.67,2.67,0,0,1,1.69.53,2.24,2.24,0,0,1,.82,1.59h-.76A2,2,0,0,0,559.7,153Z" class="cls-8"/><path d="M562.89,149.77v5.38l3.43-3h1l-2.64,2.29,2.82,3.9h-1L564.11,155l-1.22,1v2.35h-.76v-8.57Z" class="cls-8"/><path d="M360,164.17v1.21h-.75v-1.21Zm0,2.38v6.19h-.75v-6.19Z" class="cls-8"/><path d="M362.17,166.55v1.07h0a1.84,1.84,0,0,1,.77-.91,2.24,2.24,0,0,1,1.21-.34,2.9,2.9,0,0,1,1.09.17,1.7,1.7,0,0,1,.7.47,1.66,1.66,0,0,1,.37.75,3.88,3.88,0,0,1,.11,1v4h-.76v-3.86a3.45,3.45,0,0,0-.07-.74,1.62,1.62,0,0,0-.25-.6,1.2,1.2,0,0,0-.49-.39,1.69,1.69,0,0,0-.76-.15,1.92,1.92,0,0,0-.81.17,1.86,1.86,0,0,0-.6.44,2.09,2.09,0,0,0-.38.67,2.85,2.85,0,0,0-.15.85v3.61h-.76v-6.19Z" class="cls-8"/><path d="M370.33,166.55v.63h-1.26v4.18a1.31,1.31,0,0,0,.1.58q.1.21.51.24c.22,0,.43,0,.65,0v.64h-.67a1.53,1.53,0,0,1-1.06-.29,1.49,1.49,0,0,1-.29-1.09v-4.24h-1.08v-.63h1.08v-1.86h.76v1.86Z" class="cls-8"/><path d="M372,170.7a2.32,2.32,0,0,0,.36.78,2.23,2.23,0,0,0,.64.58,1.79,1.79,0,0,0,.92.22,1.82,1.82,0,0,0,1.3-.43,2.29,2.29,0,0,0,.65-1.15h.75a3,3,0,0,1-.88,1.63,2.6,2.6,0,0,1-1.82.58,2.89,2.89,0,0,1-1.26-.26,2.26,2.26,0,0,1-.87-.71,3,3,0,0,1-.5-1,4.73,4.73,0,0,1-.16-1.26,4.38,4.38,0,0,1,.16-1.19,3.14,3.14,0,0,1,.5-1.06,2.52,2.52,0,0,1,.87-.74,2.63,2.63,0,0,1,1.26-.28,2.58,2.58,0,0,1,1.28.3,2.55,2.55,0,0,1,.85.78,3.42,3.42,0,0,1,.48,1.12,5.5,5.5,0,0,1,.12,1.28h-4.77A3.28,3.28,0,0,0,372,170.7Zm3.74-2.32a2.29,2.29,0,0,0-.39-.7,1.94,1.94,0,0,0-.61-.49,1.86,1.86,0,0,0-1.64,0,2,2,0,0,0-.62.49,2.72,2.72,0,0,0-.4.71,3.93,3.93,0,0,0-.2.82h4A2.9,2.9,0,0,0,375.72,168.38Z" class="cls-8"/><path d="M378.34,166.55V168h0a2.38,2.38,0,0,1,.89-1.16,2.34,2.34,0,0,1,1.45-.38v.76a2.19,2.19,0,0,0-.94.14,2.07,2.07,0,0,0-.72.46,2,2,0,0,0-.48.71,2.46,2.46,0,0,0-.17.91v3.3h-.75v-6.19Z" class="cls-8"/><path d="M382.2,164.17v1.21h-.76v-1.21Zm0,2.38v6.19h-.76v-6.19Z" class="cls-8"/><path d="M387.52,166.63a2.81,2.81,0,0,1,.92.71,3.25,3.25,0,0,1,.56,1,4.31,4.31,0,0,1,0,2.53,3.25,3.25,0,0,1-.56,1,2.78,2.78,0,0,1-.92.7,3,3,0,0,1-1.26.26,2.91,2.91,0,0,1-1.25-.26,2.78,2.78,0,0,1-.92-.7,3.07,3.07,0,0,1-.56-1,4.31,4.31,0,0,1,0-2.53,3.07,3.07,0,0,1,.56-1,2.81,2.81,0,0,1,.92-.71,2.91,2.91,0,0,1,1.25-.26A3,3,0,0,1,387.52,166.63Zm-2.2.6a2,2,0,0,0-.68.6,2.68,2.68,0,0,0-.41.85,3.48,3.48,0,0,0-.14,1,3.55,3.55,0,0,0,.14,1,2.68,2.68,0,0,0,.41.85,2.2,2.2,0,0,0,.68.6,1.89,1.89,0,0,0,.94.22,1.93,1.93,0,0,0,.95-.22,2.32,2.32,0,0,0,.68-.6,2.68,2.68,0,0,0,.41-.85,3.55,3.55,0,0,0,.14-1,3.48,3.48,0,0,0-.14-1,2.68,2.68,0,0,0-.41-.85,2.06,2.06,0,0,0-.68-.6,1.94,1.94,0,0,0-.95-.23A1.9,1.9,0,0,0,385.32,167.23Z" class="cls-8"/><path d="M391,166.55V168h0a2.38,2.38,0,0,1,.89-1.16,2.34,2.34,0,0,1,1.45-.38v.76a2.21,2.21,0,0,0-.94.14,2.07,2.07,0,0,0-.72.46,2.17,2.17,0,0,0-.48.71,2.45,2.45,0,0,0-.16.91v3.3h-.76v-6.19Z" class="cls-8"/><path d="M399.9,166.55v.63h-1.26v4.18a1.31,1.31,0,0,0,.1.58q.11.21.51.24c.21,0,.43,0,.65,0v.64h-.68a1.52,1.52,0,0,1-1.05-.29,1.49,1.49,0,0,1-.29-1.09v-4.24H396.8v-.63h1.08v-1.86h.76v1.86Z" class="cls-8"/><path d="M401.73,164.17v3.45h0a1.82,1.82,0,0,1,.76-.91,2.27,2.27,0,0,1,1.22-.34,2.85,2.85,0,0,1,1.08.17,1.7,1.7,0,0,1,.7.47,1.78,1.78,0,0,1,.38.75,4.4,4.4,0,0,1,.1,1v4h-.75v-3.86a4.23,4.23,0,0,0-.07-.74,1.63,1.63,0,0,0-.26-.6,1.24,1.24,0,0,0-.48-.39,1.75,1.75,0,0,0-.76-.15,1.86,1.86,0,0,0-.81.17,1.67,1.67,0,0,0-.6.44,1.94,1.94,0,0,0-.39.67,2.85,2.85,0,0,0-.15.85v3.61H401v-8.57Z" class="cls-8"/><path d="M411.3,166.63a2.71,2.71,0,0,1,.92.71,2.9,2.9,0,0,1,.56,1,4.1,4.1,0,0,1,0,2.53,2.9,2.9,0,0,1-.56,1,2.68,2.68,0,0,1-.92.7,2.91,2.91,0,0,1-1.25.26,3,3,0,0,1-1.26-.26,2.64,2.64,0,0,1-.91-.7,3.09,3.09,0,0,1-.57-1,4.31,4.31,0,0,1,0-2.53,3.09,3.09,0,0,1,.57-1,2.67,2.67,0,0,1,.91-.71,3,3,0,0,1,1.26-.26A2.91,2.91,0,0,1,411.3,166.63Zm-2.2.6a2.06,2.06,0,0,0-.68.6,2.91,2.91,0,0,0-.41.85,3.47,3.47,0,0,0-.13,1,3.54,3.54,0,0,0,.13,1,2.91,2.91,0,0,0,.41.85,2.32,2.32,0,0,0,.68.6,1.93,1.93,0,0,0,.95.22,2,2,0,0,0,.95-.22,2.28,2.28,0,0,0,.67-.6,2.68,2.68,0,0,0,.41-.85,3.55,3.55,0,0,0,.14-1,3.48,3.48,0,0,0-.14-1,2.68,2.68,0,0,0-.41-.85,2,2,0,0,0-.67-.6,2,2,0,0,0-.95-.23A1.94,1.94,0,0,0,409.1,167.23Z" class="cls-8"/><path d="M418.42,172.74v-1.12h0a2.14,2.14,0,0,1-.87,1,2.48,2.48,0,0,1-1.27.33,3,3,0,0,1-1-.16,1.73,1.73,0,0,1-.67-.47,1.88,1.88,0,0,1-.38-.73,3.65,3.65,0,0,1-.12-1v-4h.76v4a1.94,1.94,0,0,0,.39,1.27,1.56,1.56,0,0,0,1.26.43,1.59,1.59,0,0,0,.84-.21,1.61,1.61,0,0,0,.58-.55,2.88,2.88,0,0,0,.34-.8,4.05,4.05,0,0,0,.1-.92v-3.25h.76v6.19Z" class="cls-8"/><path d="M425.63,173.47a2.52,2.52,0,0,1-.47.94,2.2,2.2,0,0,1-.85.59,3.66,3.66,0,0,1-1.28.2,4,4,0,0,1-.91-.11,2.59,2.59,0,0,1-.8-.33,2.07,2.07,0,0,1-.59-.59,1.81,1.81,0,0,1-.27-.84h.76a1.44,1.44,0,0,0,.23.58,1.51,1.51,0,0,0,.42.38,2.41,2.41,0,0,0,.55.21,3.08,3.08,0,0,0,.61.06,1.83,1.83,0,0,0,1.53-.6,2.75,2.75,0,0,0,.46-1.72v-.84h0a2.23,2.23,0,0,1-.77.92,2.09,2.09,0,0,1-1.2.35,2.91,2.91,0,0,1-1.27-.25,2.34,2.34,0,0,1-.87-.68,2.73,2.73,0,0,1-.5-1,5,5,0,0,1-.15-1.24,4,4,0,0,1,.18-1.21,3,3,0,0,1,.54-1,2.57,2.57,0,0,1,.88-.68,2.81,2.81,0,0,1,1.19-.24,2.39,2.39,0,0,1,.66.09,2.35,2.35,0,0,1,.55.27,2.2,2.2,0,0,1,.45.41,1.57,1.57,0,0,1,.31.48h0v-1.07h.76v5.69A4.71,4.71,0,0,1,425.63,173.47Zm-1.73-1.65a2,2,0,0,0,.62-.55,2.52,2.52,0,0,0,.38-.79,3.44,3.44,0,0,0,.12-.91,4,4,0,0,0-.1-.91,2.92,2.92,0,0,0-.35-.83,1.87,1.87,0,0,0-.62-.6,2,2,0,0,0-1.84,0,1.87,1.87,0,0,0-.64.58,2.25,2.25,0,0,0-.36.82,3.73,3.73,0,0,0-.12.94,3.44,3.44,0,0,0,.12.91,2.5,2.5,0,0,0,.37.79,1.89,1.89,0,0,0,.64.55,1.85,1.85,0,0,0,.91.21A1.75,1.75,0,0,0,423.9,171.82Z" class="cls-8"/><path d="M428,164.17v3.45h0a1.82,1.82,0,0,1,.76-.91,2.27,2.27,0,0,1,1.22-.34,2.85,2.85,0,0,1,1.08.17,1.7,1.7,0,0,1,.7.47,1.67,1.67,0,0,1,.38.75,4.37,4.37,0,0,1,.11,1v4h-.76v-3.86a3.45,3.45,0,0,0-.07-.74,1.62,1.62,0,0,0-.25-.6,1.27,1.27,0,0,0-.49-.39,1.75,1.75,0,0,0-.76-.15,1.86,1.86,0,0,0-.81.17,1.67,1.67,0,0,0-.6.44,2.11,2.11,0,0,0-.39.67,2.85,2.85,0,0,0-.15.85v3.61h-.75v-8.57Z" class="cls-8"/><path d="M435.12,172.74a2.25,2.25,0,0,1-.07.52,2,2,0,0,1-.2.48,1.55,1.55,0,0,1-.33.39,1.19,1.19,0,0,1-.46.24v-.51a.64.64,0,0,0,.25-.18,1.49,1.49,0,0,0,.18-.3,1.26,1.26,0,0,0,.1-.33,1.15,1.15,0,0,0,0-.31h-.5v-1.27h1Z" class="cls-8"/><path d="M445.42,173.47a2.39,2.39,0,0,1-.48.94,2.09,2.09,0,0,1-.84.59,3.7,3.7,0,0,1-1.28.2,3.91,3.91,0,0,1-.91-.11,2.5,2.5,0,0,1-.8-.33,2.07,2.07,0,0,1-.59-.59,1.81,1.81,0,0,1-.27-.84H441a1.31,1.31,0,0,0,.23.58,1.51,1.51,0,0,0,.42.38,2.41,2.41,0,0,0,.55.21,3.08,3.08,0,0,0,.61.06,1.81,1.81,0,0,0,1.52-.6,2.69,2.69,0,0,0,.47-1.72v-.84h0a2.25,2.25,0,0,1-.78.92,2.06,2.06,0,0,1-1.19.35,2.88,2.88,0,0,1-1.27-.25,2.34,2.34,0,0,1-.87-.68,2.59,2.59,0,0,1-.5-1,5,5,0,0,1-.16-1.24,3.7,3.7,0,0,1,.19-1.21,2.79,2.79,0,0,1,.54-1,2.63,2.63,0,0,1,.87-.68,2.86,2.86,0,0,1,1.2-.24,2.27,2.27,0,0,1,.65.09,2.42,2.42,0,0,1,.56.27,2.2,2.2,0,0,1,.45.41,2.07,2.07,0,0,1,.31.48h0v-1.07h.76v5.69A4.71,4.71,0,0,1,445.42,173.47Zm-1.74-1.65a2,2,0,0,0,.63-.55,2.5,2.5,0,0,0,.37-.79,3.08,3.08,0,0,0,.13-.91,3.54,3.54,0,0,0-.11-.91,2.9,2.9,0,0,0-.34-.83,1.87,1.87,0,0,0-.62-.6,1.77,1.77,0,0,0-.92-.23,1.83,1.83,0,0,0-.93.23,1.94,1.94,0,0,0-.63.58,2.45,2.45,0,0,0-.37.82,4.24,4.24,0,0,0-.11.94,3.44,3.44,0,0,0,.12.91,2.3,2.3,0,0,0,.37.79,1.89,1.89,0,0,0,.64.55,1.85,1.85,0,0,0,.91.21A1.71,1.71,0,0,0,443.68,171.82Z" class="cls-8"/><path d="M447.56,170.7a2.34,2.34,0,0,0,.37.78,2.23,2.23,0,0,0,.64.58,1.77,1.77,0,0,0,.92.22,1.86,1.86,0,0,0,1.3-.43,2.28,2.28,0,0,0,.64-1.15h.76a3,3,0,0,1-.88,1.63,2.62,2.62,0,0,1-1.82.58,2.94,2.94,0,0,1-1.27-.26,2.41,2.41,0,0,1-.87-.71,3,3,0,0,1-.49-1,4.73,4.73,0,0,1-.16-1.26,4.38,4.38,0,0,1,.16-1.19,3.13,3.13,0,0,1,.49-1.06,2.72,2.72,0,0,1,.87-.74,2.67,2.67,0,0,1,1.27-.28,2.47,2.47,0,0,1,2.13,1.08,3.21,3.21,0,0,1,.47,1.12,4.6,4.6,0,0,1,.12,1.28h-4.76A3.74,3.74,0,0,0,447.56,170.7Zm3.75-2.32a2.29,2.29,0,0,0-.39-.7,1.94,1.94,0,0,0-.61-.49,1.89,1.89,0,0,0-1.65,0,1.94,1.94,0,0,0-.61.49,2.46,2.46,0,0,0-.4.71,3.39,3.39,0,0,0-.2.82h4A2.9,2.9,0,0,0,451.31,168.38Z" class="cls-8"/><path d="M455.7,166.55v.63h-1.27v4.18a1.3,1.3,0,0,0,.11.58q.09.21.51.24c.21,0,.43,0,.65,0v.64H455a1.52,1.52,0,0,1-1-.29,1.49,1.49,0,0,1-.29-1.09v-4.24H452.6v-.63h1.08v-1.86h.75v1.86Z" class="cls-8"/><path d="M460.35,167.75a1.31,1.31,0,0,0-.35-.42,1.52,1.52,0,0,0-.51-.25,2.51,2.51,0,0,0-.62-.08,2.35,2.35,0,0,0-.51.06,1.28,1.28,0,0,0-.47.18,1,1,0,0,0-.35.33.87.87,0,0,0-.13.5.69.69,0,0,0,.13.43,1.23,1.23,0,0,0,.31.29,2,2,0,0,0,.42.2l.42.13,1,.22a2.91,2.91,0,0,1,.64.18,1.89,1.89,0,0,1,.57.33,1.53,1.53,0,0,1,.4.5,1.69,1.69,0,0,1-.07,1.57,1.86,1.86,0,0,1-.58.57,2.44,2.44,0,0,1-.8.32,3.83,3.83,0,0,1-.88.1,2.8,2.8,0,0,1-1.77-.52,2.17,2.17,0,0,1-.77-1.65h.75a1.51,1.51,0,0,0,.56,1.15,2,2,0,0,0,1.27.39,2.91,2.91,0,0,0,.57-.06,1.67,1.67,0,0,0,.54-.2,1.37,1.37,0,0,0,.42-.37.87.87,0,0,0,.16-.54.89.89,0,0,0-.11-.46,1,1,0,0,0-.31-.32,2.25,2.25,0,0,0-.44-.21l-.5-.14-1-.22a4.17,4.17,0,0,1-.68-.22,2,2,0,0,1-.55-.31,1.3,1.3,0,0,1-.36-.45,1.67,1.67,0,0,1,.07-1.48,1.77,1.77,0,0,1,.55-.54,2.8,2.8,0,0,1,.75-.3,3.88,3.88,0,0,1,.82-.09,3,3,0,0,1,.87.12,1.93,1.93,0,0,1,.71.37,2,2,0,0,1,.49.62,2.37,2.37,0,0,1,.2.88h-.75A1.48,1.48,0,0,0,460.35,167.75Z" class="cls-8"/><path d="M468.35,166.55v.63h-1.26v4.18a1.3,1.3,0,0,0,.11.58q.09.21.51.24c.21,0,.43,0,.64,0v.64h-.67a1.52,1.52,0,0,1-1.05-.29,1.49,1.49,0,0,1-.29-1.09v-4.24h-1.08v-.63h1.08v-1.86h.75v1.86Z" class="cls-8"/><path d="M473.32,166.63a2.67,2.67,0,0,1,.91.71,3.09,3.09,0,0,1,.57,1,4.31,4.31,0,0,1,0,2.53,3.09,3.09,0,0,1-.57,1,2.64,2.64,0,0,1-.91.7,3,3,0,0,1-1.26.26,2.91,2.91,0,0,1-1.25-.26,2.68,2.68,0,0,1-.92-.7,2.9,2.9,0,0,1-.56-1,4.1,4.1,0,0,1,0-2.53,2.9,2.9,0,0,1,.56-1,2.71,2.71,0,0,1,.92-.71,2.91,2.91,0,0,1,1.25-.26A3,3,0,0,1,473.32,166.63Zm-2.21.6a2,2,0,0,0-.67.6,2.68,2.68,0,0,0-.41.85,3.48,3.48,0,0,0-.14,1,3.55,3.55,0,0,0,.14,1,2.68,2.68,0,0,0,.41.85,2.28,2.28,0,0,0,.67.6,2,2,0,0,0,.95.22,1.93,1.93,0,0,0,.95-.22,2.32,2.32,0,0,0,.68-.6,2.91,2.91,0,0,0,.41-.85,3.54,3.54,0,0,0,.13-1,3.47,3.47,0,0,0-.13-1,2.91,2.91,0,0,0-.41-.85,2.06,2.06,0,0,0-.68-.6,1.94,1.94,0,0,0-.95-.23A2,2,0,0,0,471.11,167.23Z" class="cls-8"/><path d="M480,166.63a2.81,2.81,0,0,1,.92.71,3.25,3.25,0,0,1,.56,1,4.31,4.31,0,0,1,0,2.53,3.25,3.25,0,0,1-.56,1,2.78,2.78,0,0,1-.92.7,3,3,0,0,1-1.26.26,2.91,2.91,0,0,1-1.25-.26,2.78,2.78,0,0,1-.92-.7,3.07,3.07,0,0,1-.56-1,4.31,4.31,0,0,1,0-2.53,3.07,3.07,0,0,1,.56-1,2.81,2.81,0,0,1,.92-.71,2.91,2.91,0,0,1,1.25-.26A3,3,0,0,1,480,166.63Zm-2.2.6a2,2,0,0,0-.68.6,2.68,2.68,0,0,0-.41.85,3.48,3.48,0,0,0-.14,1,3.55,3.55,0,0,0,.14,1,2.68,2.68,0,0,0,.41.85,2.2,2.2,0,0,0,.68.6,1.89,1.89,0,0,0,.94.22,1.93,1.93,0,0,0,.95-.22,2.32,2.32,0,0,0,.68-.6,2.68,2.68,0,0,0,.41-.85,3.55,3.55,0,0,0,.14-1,3.48,3.48,0,0,0-.14-1,2.68,2.68,0,0,0-.41-.85,2.06,2.06,0,0,0-.68-.6,1.94,1.94,0,0,0-.95-.23A1.9,1.9,0,0,0,477.79,167.23Z" class="cls-8"/><path d="M486.87,164.17v3.45h0a1.84,1.84,0,0,1,.77-.91,2.24,2.24,0,0,1,1.21-.34,2.87,2.87,0,0,1,1.09.17,1.7,1.7,0,0,1,.7.47,1.66,1.66,0,0,1,.37.75,3.88,3.88,0,0,1,.11,1v4h-.75v-3.86a3.43,3.43,0,0,0-.08-.74,1.47,1.47,0,0,0-.25-.6,1.24,1.24,0,0,0-.48-.39,1.76,1.76,0,0,0-.77-.15,1.92,1.92,0,0,0-.81.17,1.86,1.86,0,0,0-.6.44,2.09,2.09,0,0,0-.38.67,2.85,2.85,0,0,0-.15.85v3.61h-.76v-8.57Z" class="cls-8"/><path d="M496.44,166.63a2.81,2.81,0,0,1,.92.71,3.07,3.07,0,0,1,.56,1,4.31,4.31,0,0,1,0,2.53,3.07,3.07,0,0,1-.56,1,2.78,2.78,0,0,1-.92.7,2.91,2.91,0,0,1-1.25.26,3,3,0,0,1-1.26-.26,2.78,2.78,0,0,1-.92-.7,3.25,3.25,0,0,1-.56-1,4.31,4.31,0,0,1,0-2.53,3.25,3.25,0,0,1,.56-1,2.81,2.81,0,0,1,.92-.71,3,3,0,0,1,1.26-.26A2.91,2.91,0,0,1,496.44,166.63Zm-2.2.6a2.06,2.06,0,0,0-.68.6,2.68,2.68,0,0,0-.41.85,3.48,3.48,0,0,0-.14,1,3.55,3.55,0,0,0,.14,1,2.68,2.68,0,0,0,.41.85,2.32,2.32,0,0,0,.68.6,1.93,1.93,0,0,0,.95.22,1.89,1.89,0,0,0,.94-.22,2.2,2.2,0,0,0,.68-.6,2.68,2.68,0,0,0,.41-.85,3.55,3.55,0,0,0,.14-1,3.48,3.48,0,0,0-.14-1,2.68,2.68,0,0,0-.41-.85,2,2,0,0,0-.68-.6,1.9,1.9,0,0,0-.94-.23A1.94,1.94,0,0,0,494.24,167.23Z" class="cls-8"/><path d="M501.7,166.55v.63h-1.26v4.18a1.48,1.48,0,0,0,.1.58q.1.21.51.24c.22,0,.44,0,.65,0v.64H501a1.54,1.54,0,0,1-1.06-.29,1.49,1.49,0,0,1-.28-1.09v-4.24h-1.08v-.63h1.08v-1.86h.75v1.86Z" class="cls-8"/><path d="M506.9,164.17v1.21h-.76v-1.21Zm0,2.38v6.19h-.76v-6.19Z" class="cls-8"/><path d="M509.09,166.55v1.07h0a1.79,1.79,0,0,1,.77-.91,2.21,2.21,0,0,1,1.21-.34,2.85,2.85,0,0,1,1.08.17,1.73,1.73,0,0,1,.71.47,1.76,1.76,0,0,1,.37.75,4.37,4.37,0,0,1,.11,1v4h-.76v-3.86a3.45,3.45,0,0,0-.07-.74,1.62,1.62,0,0,0-.25-.6,1.27,1.27,0,0,0-.49-.39A1.72,1.72,0,0,0,511,167a1.86,1.86,0,0,0-.81.17,1.67,1.67,0,0,0-.6.44,2.11,2.11,0,0,0-.39.67,2.85,2.85,0,0,0-.15.85v3.61h-.75v-6.19Z" class="cls-8"/><path d="M520.59,166.55v.63h-1.26v4.18a1.31,1.31,0,0,0,.1.58q.11.21.51.24c.22,0,.43,0,.65,0v.64h-.67a1.12,1.12,0,0,1-1.35-1.38v-4.24h-1.08v-.63h1.08v-1.86h.76v1.86Z" class="cls-8"/><path d="M522.42,164.17v3.45h0a1.79,1.79,0,0,1,.77-.91,2.21,2.21,0,0,1,1.21-.34,2.94,2.94,0,0,1,1.09.17,1.63,1.63,0,0,1,1.07,1.22,4.37,4.37,0,0,1,.11,1v4h-.76v-3.86a3.45,3.45,0,0,0-.07-.74,1.62,1.62,0,0,0-.25-.6,1.27,1.27,0,0,0-.49-.39,1.72,1.72,0,0,0-.76-.15,1.89,1.89,0,0,0-.81.17,1.67,1.67,0,0,0-.6.44,1.92,1.92,0,0,0-.38.67,2.57,2.57,0,0,0-.16.85v3.61h-.75v-8.57Z" class="cls-8"/><path d="M528.68,170.7a2.25,2.25,0,0,0,1,1.36,1.83,1.83,0,0,0,.93.22,1.86,1.86,0,0,0,1.3-.43,2.28,2.28,0,0,0,.64-1.15h.76a3.06,3.06,0,0,1-.88,1.63,2.62,2.62,0,0,1-1.82.58,2.94,2.94,0,0,1-1.27-.26,2.41,2.41,0,0,1-.87-.71,3.24,3.24,0,0,1-.5-1,5.18,5.18,0,0,1-.16-1.26,4.8,4.8,0,0,1,.16-1.19,3.34,3.34,0,0,1,.5-1.06,2.72,2.72,0,0,1,.87-.74,2.67,2.67,0,0,1,1.27-.28,2.54,2.54,0,0,1,1.27.3,2.58,2.58,0,0,1,.86.78,3.21,3.21,0,0,1,.47,1.12,4.6,4.6,0,0,1,.12,1.28h-4.76A3.74,3.74,0,0,0,528.68,170.7Zm3.75-2.32a2.52,2.52,0,0,0-.39-.7,1.87,1.87,0,0,0-.62-.49,1.79,1.79,0,0,0-.81-.19,1.85,1.85,0,0,0-.83.19,1.94,1.94,0,0,0-.61.49,2.46,2.46,0,0,0-.4.71,3.39,3.39,0,0,0-.2.82h4A2.9,2.9,0,0,0,532.43,168.38Z" class="cls-8"/><path d="M362.77,182.15a1.31,1.31,0,0,0-.35-.42,1.48,1.48,0,0,0-.52-.25,2.37,2.37,0,0,0-.61-.08,2.22,2.22,0,0,0-.51.06,1.28,1.28,0,0,0-.47.18,1,1,0,0,0-.35.33.89.89,0,0,0-.13.5.69.69,0,0,0,.13.43,1.08,1.08,0,0,0,.31.29,2,2,0,0,0,.42.2l.42.13,1,.22a2.91,2.91,0,0,1,.64.18,2,2,0,0,1,.57.33,1.67,1.67,0,0,1,.4.5,1.77,1.77,0,0,1-.07,1.57,1.89,1.89,0,0,1-.59.57,2.3,2.3,0,0,1-.79.32,3.83,3.83,0,0,1-.88.1,2.8,2.8,0,0,1-1.77-.52,2.17,2.17,0,0,1-.77-1.65h.75a1.47,1.47,0,0,0,.56,1.15,2,2,0,0,0,1.27.39,2.91,2.91,0,0,0,.57-.06,1.76,1.76,0,0,0,.54-.2,1.37,1.37,0,0,0,.42-.37.93.93,0,0,0,.16-.54.81.81,0,0,0-.12-.46.91.91,0,0,0-.3-.32,2.56,2.56,0,0,0-.44-.21l-.5-.14-1-.22a3.88,3.88,0,0,1-.68-.22,2.25,2.25,0,0,1-.55-.31,1.25,1.25,0,0,1-.36-.46,1.46,1.46,0,0,1-.14-.66,1.53,1.53,0,0,1,.21-.81,1.67,1.67,0,0,1,.55-.54,2.8,2.8,0,0,1,.75-.3,3.81,3.81,0,0,1,.82-.09,3,3,0,0,1,.87.12,2,2,0,0,1,.71.37,2,2,0,0,1,.48.62,2.32,2.32,0,0,1,.21.88h-.76A1.48,1.48,0,0,0,362.77,182.15Z" class="cls-8"/><path d="M369.3,187.14V186h0a2.14,2.14,0,0,1-.87,1,2.47,2.47,0,0,1-1.26.33,3,3,0,0,1-1-.16,1.73,1.73,0,0,1-.67-.47,1.88,1.88,0,0,1-.38-.73,3.65,3.65,0,0,1-.12-1v-4h.76v4a2.06,2.06,0,0,0,.39,1.27,1.58,1.58,0,0,0,1.27.43,1.64,1.64,0,0,0,.84-.21,1.76,1.76,0,0,0,.57-.55,2.61,2.61,0,0,0,.34-.8,4.06,4.06,0,0,0,.11-.92V181H370v6.19Z" class="cls-8"/><path d="M372.12,181v1h0a2.39,2.39,0,0,1,.79-.9,2.24,2.24,0,0,1,1.24-.32,2.1,2.1,0,0,1,1.11.3,1.5,1.5,0,0,1,.67.91,1.86,1.86,0,0,1,.81-.91,2.35,2.35,0,0,1,1.15-.3c1.37,0,2.06.72,2.06,2.17v4.2h-.76V183a1.83,1.83,0,0,0-.32-1.17,1.4,1.4,0,0,0-1.14-.41,1.68,1.68,0,0,0-.82.19,1.39,1.39,0,0,0-.52.5,2.5,2.5,0,0,0-.27.71,4.61,4.61,0,0,0-.07.84v3.5h-.76v-4.2a2.22,2.22,0,0,0-.07-.59,1.33,1.33,0,0,0-.21-.5,1.08,1.08,0,0,0-.4-.33,1.63,1.63,0,0,0-.62-.12,1.81,1.81,0,0,0-.83.18,1.51,1.51,0,0,0-.58.48,2.39,2.39,0,0,0-.33.72,3.65,3.65,0,0,0-.1.9v3.46h-.76V181Z" class="cls-8"/><path d="M382.11,181v1h0a2.45,2.45,0,0,1,.78-.9,2.27,2.27,0,0,1,1.25-.32,2.15,2.15,0,0,1,1.11.3,1.45,1.45,0,0,1,.66.91,1.92,1.92,0,0,1,.82-.91,2.32,2.32,0,0,1,1.15-.3c1.37,0,2.05.72,2.05,2.17v4.2h-.75V183a1.78,1.78,0,0,0-.33-1.17,1.37,1.37,0,0,0-1.14-.41,1.62,1.62,0,0,0-.81.19,1.39,1.39,0,0,0-.52.5,2,2,0,0,0-.27.71,4.6,4.6,0,0,0-.08.84v3.5h-.75v-4.2a2.73,2.73,0,0,0-.07-.59,1.34,1.34,0,0,0-.22-.5,1,1,0,0,0-.4-.33,1.58,1.58,0,0,0-.61-.12,1.78,1.78,0,0,0-.83.18,1.51,1.51,0,0,0-.58.48,2,2,0,0,0-.33.72,3.64,3.64,0,0,0-.11.9v3.46h-.75V181Z" class="cls-8"/><path d="M392,185.09a2.3,2.3,0,0,0,.37.79,2.19,2.19,0,0,0,.63.58,2.12,2.12,0,0,0,2.22-.21,2.29,2.29,0,0,0,.65-1.15h.76a3,3,0,0,1-.89,1.63,2.57,2.57,0,0,1-1.81.58,2.94,2.94,0,0,1-1.27-.26,2.26,2.26,0,0,1-.87-.71,3.14,3.14,0,0,1-.5-1,4.73,4.73,0,0,1-.16-1.26,4.5,4.5,0,0,1,.16-1.2,3.4,3.4,0,0,1,.5-1.05,2.52,2.52,0,0,1,.87-.74,2.67,2.67,0,0,1,1.27-.28,2.54,2.54,0,0,1,1.27.3,2.58,2.58,0,0,1,.86.78,3.41,3.41,0,0,1,.47,1.12,4.6,4.6,0,0,1,.12,1.28h-4.76A3.13,3.13,0,0,0,392,185.09Zm3.74-2.31a2.29,2.29,0,0,0-.39-.7,1.84,1.84,0,0,0-.61-.49,1.79,1.79,0,0,0-.81-.19,1.81,1.81,0,0,0-.83.19,1.84,1.84,0,0,0-.61.49,2.49,2.49,0,0,0-.41.71,3.37,3.37,0,0,0-.19.82h4A2.34,2.34,0,0,0,395.71,182.78Z" class="cls-8"/><path d="M398.34,181v1.45h0a2.38,2.38,0,0,1,.89-1.16,2.34,2.34,0,0,1,1.45-.38v.76a2.21,2.21,0,0,0-.94.14,2.07,2.07,0,0,0-.72.46,2.17,2.17,0,0,0-.48.71,2.45,2.45,0,0,0-.16.91v3.3h-.76V181Z" class="cls-8"/><path d="M402.52,179.86a2.31,2.31,0,0,1-.06.52,2,2,0,0,1-.2.48,1.55,1.55,0,0,1-.33.39,1.23,1.23,0,0,1-.47.24V181a.56.56,0,0,0,.26-.17,1.26,1.26,0,0,0,.18-.3,1.33,1.33,0,0,0,.1-.34,1.17,1.17,0,0,0,0-.32h-.5v-1.27h1Zm1.85,0a2.31,2.31,0,0,1-.06.52,2,2,0,0,1-.2.48,1.55,1.55,0,0,1-.33.39,1.21,1.21,0,0,1-.48.24V181a.55.55,0,0,0,.27-.17,1.26,1.26,0,0,0,.18-.3,1.33,1.33,0,0,0,.1-.34,1.17,1.17,0,0,0,0-.32h-.51v-1.27h1Z" class="cls-8"/><path d="M409.2,183.49h3v.7h-3Z" class="cls-8"/><path d="M419.65,178.57v.7h-3v7.87h-.82v-7.87h-3v-.7Z" class="cls-8"/><path d="M421.36,178.57v1.21h-.75v-1.21Zm0,2.38v6.19h-.75V181Z" class="cls-8"/><path d="M423.56,181V182h0a1.84,1.84,0,0,1,.77-.91,2.24,2.24,0,0,1,1.21-.34,2.87,2.87,0,0,1,1.09.17,1.7,1.7,0,0,1,.7.47,1.66,1.66,0,0,1,.37.75,3.88,3.88,0,0,1,.11,1v4h-.75v-3.86a3.43,3.43,0,0,0-.08-.74,1.37,1.37,0,0,0-.25-.59,1.18,1.18,0,0,0-.48-.4,1.76,1.76,0,0,0-.77-.15,1.92,1.92,0,0,0-.81.17,1.73,1.73,0,0,0-.6.44,2.09,2.09,0,0,0-.38.67,2.85,2.85,0,0,0-.15.85v3.61h-.76V181Z" class="cls-8"/><path d="M433.92,178.57l2.84,7.51,2.95-7.51h1.2v8.57h-.81v-7.4h0l-2.93,7.4h-.76l-2.82-7.4h0v7.4h-.81v-8.57Z" class="cls-8"/><path d="M442.6,181.91a1.79,1.79,0,0,1,.53-.65,2.12,2.12,0,0,1,.77-.37,4.14,4.14,0,0,1,1.8,0,2,2,0,0,1,.73.29,1.59,1.59,0,0,1,.53.61,2.11,2.11,0,0,1,.2,1v3.29a.4.4,0,0,0,.45.45.61.61,0,0,0,.24,0v.63l-.24,0h-.25a1.21,1.21,0,0,1-.47-.08.64.64,0,0,1-.27-.22.92.92,0,0,1-.12-.34,2.94,2.94,0,0,1,0-.44h0a3.89,3.89,0,0,1-.41.53,1.91,1.91,0,0,1-.47.39,1.83,1.83,0,0,1-.59.24,3,3,0,0,1-.78.09,3.45,3.45,0,0,1-.81-.1,1.86,1.86,0,0,1-.66-.33,1.55,1.55,0,0,1-.45-.56,2,2,0,0,1-.16-.81,1.65,1.65,0,0,1,.29-1,1.78,1.78,0,0,1,.76-.55,4.19,4.19,0,0,1,1.07-.27c.4-.06.8-.11,1.21-.15l.42-.06a.83.83,0,0,0,.3-.13.52.52,0,0,0,.18-.25.93.93,0,0,0,.07-.4,1.28,1.28,0,0,0-.13-.63.89.89,0,0,0-.35-.39,1.21,1.21,0,0,0-.51-.2,3.21,3.21,0,0,0-.63-.06,1.92,1.92,0,0,0-1.18.35,1.34,1.34,0,0,0-.48,1.09h-.75A2.54,2.54,0,0,1,442.6,181.91Zm3.78,1.85a.44.44,0,0,1-.27.19,2.18,2.18,0,0,1-.36.08q-.48.09-1,.15a5.83,5.83,0,0,0-.93.2,1.77,1.77,0,0,0-.69.38.9.9,0,0,0-.27.7,1.19,1.19,0,0,0,.11.51,1.15,1.15,0,0,0,.31.38,1.36,1.36,0,0,0,.44.25,1.53,1.53,0,0,0,.52.08,2.57,2.57,0,0,0,.83-.13,2.11,2.11,0,0,0,.69-.38,1.85,1.85,0,0,0,.46-.61,1.83,1.83,0,0,0,.18-.82v-1Z" class="cls-8"/><path d="M449.42,181V182h0a1.84,1.84,0,0,1,.77-.91,2.24,2.24,0,0,1,1.21-.34,2.87,2.87,0,0,1,1.09.17,1.7,1.7,0,0,1,.7.47,1.66,1.66,0,0,1,.37.75,3.88,3.88,0,0,1,.11,1v4h-.75v-3.86a3.43,3.43,0,0,0-.08-.74,1.37,1.37,0,0,0-.25-.59,1.18,1.18,0,0,0-.48-.4,1.76,1.76,0,0,0-.77-.15,1.92,1.92,0,0,0-.81.17,1.73,1.73,0,0,0-.6.44,2.09,2.09,0,0,0-.38.67,2.85,2.85,0,0,0-.15.85v3.61h-.76V181Z" class="cls-8"/><path d="M456.57,187.14a2.24,2.24,0,0,1-.06.52,2,2,0,0,1-.2.48,1.55,1.55,0,0,1-.33.39,1.26,1.26,0,0,1-.46.24v-.51a.72.72,0,0,0,.25-.18,1.49,1.49,0,0,0,.18-.3,1.39,1.39,0,0,0,.1-.33,1.15,1.15,0,0,0,0-.31h-.51v-1.27h1Z" class="cls-8"/><path d="M461.73,181.16a4.23,4.23,0,0,1,.76-1.42,3.6,3.6,0,0,1,1.26-1,4.42,4.42,0,0,1,3.54,0,3.7,3.7,0,0,1,1.26,1,4.2,4.2,0,0,1,.75,1.42,5.66,5.66,0,0,1,0,3.39,4.07,4.07,0,0,1-.75,1.41,3.7,3.7,0,0,1-1.26,1,4.42,4.42,0,0,1-3.54,0,3.6,3.6,0,0,1-1.26-1,4.09,4.09,0,0,1-.76-1.41,5.87,5.87,0,0,1,0-3.39Zm.75,3.07a3.77,3.77,0,0,0,.58,1.21,2.88,2.88,0,0,0,1,.86,3.05,3.05,0,0,0,1.46.32,3,3,0,0,0,1.46-.32,2.88,2.88,0,0,0,1-.86,3.55,3.55,0,0,0,.57-1.21,4.92,4.92,0,0,0,.19-1.37,4.84,4.84,0,0,0-.19-1.38,3.64,3.64,0,0,0-.57-1.21,2.88,2.88,0,0,0-1-.86,3.12,3.12,0,0,0-1.46-.32,3.18,3.18,0,0,0-1.46.32,2.88,2.88,0,0,0-1,.86,3.87,3.87,0,0,0-.58,1.21,5.22,5.22,0,0,0-.18,1.38A5.31,5.31,0,0,0,462.48,184.23Z" class="cls-8"/><path d="M476.58,178.57v.72l-5.64,7.16h5.76v.69H470v-.72l5.64-7.15h-5.25v-.7Z" class="cls-8"/><path d="M368.92,207.63a2.87,2.87,0,0,1,.22-1.1,3.53,3.53,0,0,1,.54-.87,5.09,5.09,0,0,1,.76-.7c.28-.21.56-.42.86-.61l.88-.6a5.75,5.75,0,0,0,.79-.66,2.74,2.74,0,0,0,.52-.71,1.93,1.93,0,0,0,.17-.87,1.73,1.73,0,0,0-.15-.73,1.65,1.65,0,0,0-.4-.54,2,2,0,0,0-.6-.33,2.19,2.19,0,0,0-.73-.12,1.84,1.84,0,0,0-.88.2,1.65,1.65,0,0,0-.6.51,2.32,2.32,0,0,0-.33.75,4.17,4.17,0,0,0-.09.88h-.75a3.77,3.77,0,0,1,.15-1.19,2.5,2.5,0,0,1,.5-.94,2.2,2.2,0,0,1,.84-.62,3,3,0,0,1,1.2-.22,3.35,3.35,0,0,1,1,.15,2.54,2.54,0,0,1,.83.44,1.94,1.94,0,0,1,.55.74,2.56,2.56,0,0,1,.2,1,2.69,2.69,0,0,1-.17,1,3.3,3.3,0,0,1-.47.79,4.71,4.71,0,0,1-.67.67c-.26.2-.52.39-.8.57s-.44.29-.71.45a8,8,0,0,0-.79.55,4.06,4.06,0,0,0-.66.65,1.7,1.7,0,0,0-.36.77h4.67v.7Z" class="cls-8"/><path d="M376.53,206a1.82,1.82,0,0,0,.43.62,2.15,2.15,0,0,0,.65.4,2.37,2.37,0,0,0,.81.13,2,2,0,0,0,.87-.18,2.16,2.16,0,0,0,1.08-1.24,2.49,2.49,0,0,0,.15-.87,2.2,2.2,0,0,0-.17-.86,2,2,0,0,0-1.12-1.15,2,2,0,0,0-.86-.17,2.17,2.17,0,0,0-1.07.26,2,2,0,0,0-.8.73h-.65l.81-4.35h4.2V200h-3.67l-.54,2.79,0,0a1.92,1.92,0,0,1,.79-.57,2.43,2.43,0,0,1,1-.21,2.94,2.94,0,0,1,1.17.22,2.41,2.41,0,0,1,.89.6,2.58,2.58,0,0,1,.56.92,3.13,3.13,0,0,1,.2,1.17,2.69,2.69,0,0,1-.23,1.13,2.73,2.73,0,0,1-.62.9,2.79,2.79,0,0,1-.93.59,3.06,3.06,0,0,1-1.13.21,3.16,3.16,0,0,1-1.09-.18,2.38,2.38,0,0,1-.86-.5,2.42,2.42,0,0,1-.59-.81,2.67,2.67,0,0,1-.22-1.08h.75A2,2,0,0,0,376.53,206Z" class="cls-8"/><path d="M384,207.63a1.81,1.81,0,0,1-.07.52,1.68,1.68,0,0,1-.2.48,1.23,1.23,0,0,1-.33.39,1.19,1.19,0,0,1-.46.24v-.51a.64.64,0,0,0,.25-.18.92.92,0,0,0,.18-.3,1.42,1.42,0,0,0,.11-.33,1.1,1.1,0,0,0,0-.31H383v-1.27h1Z" class="cls-8"/><path d="M390,199.56a2.77,2.77,0,0,1,.89,1,4.35,4.35,0,0,1,.43,1.39,9.67,9.67,0,0,1,.12,1.5,9.8,9.8,0,0,1-.12,1.51,4.35,4.35,0,0,1-.43,1.39,2.66,2.66,0,0,1-.89,1,3,3,0,0,1-3,0,2.66,2.66,0,0,1-.89-1,4.36,4.36,0,0,1-.44-1.39,10.35,10.35,0,0,1,0-3,4.36,4.36,0,0,1,.44-1.39,2.77,2.77,0,0,1,.89-1,3,3,0,0,1,3,0Zm-2.64.61a2.29,2.29,0,0,0-.66.92,4.58,4.58,0,0,0-.29,1.2,10.33,10.33,0,0,0-.07,1.19,10.2,10.2,0,0,0,.07,1.19,4.58,4.58,0,0,0,.29,1.2,2.39,2.39,0,0,0,.66.93,1.67,1.67,0,0,0,1.15.37,1.69,1.69,0,0,0,1.15-.37,2.27,2.27,0,0,0,.65-.93,4.59,4.59,0,0,0,.3-1.2,10.2,10.2,0,0,0,.07-1.19,10.33,10.33,0,0,0-.07-1.19,4.59,4.59,0,0,0-.3-1.2,2.18,2.18,0,0,0-.65-.92,1.7,1.7,0,0,0-1.15-.38A1.68,1.68,0,0,0,387.36,200.17Z" class="cls-8"/><path d="M396.67,199.56a2.77,2.77,0,0,1,.89,1A4.35,4.35,0,0,1,398,202a9.67,9.67,0,0,1,.12,1.5A9.8,9.8,0,0,1,398,205a4.35,4.35,0,0,1-.43,1.39,2.66,2.66,0,0,1-.89,1,2.5,2.5,0,0,1-1.49.4,2.54,2.54,0,0,1-1.49-.4,2.66,2.66,0,0,1-.89-1,4.35,4.35,0,0,1-.43-1.39,9.5,9.5,0,0,1,0-3,4.35,4.35,0,0,1,.43-1.39,2.77,2.77,0,0,1,.89-1,2.54,2.54,0,0,1,1.49-.4A2.5,2.5,0,0,1,396.67,199.56Zm-2.64.61a2.29,2.29,0,0,0-.66.92,5,5,0,0,0-.29,1.2,10.33,10.33,0,0,0-.07,1.19,10.2,10.2,0,0,0,.07,1.19,5,5,0,0,0,.29,1.2,2.39,2.39,0,0,0,.66.93,2,2,0,0,0,2.3,0,2.39,2.39,0,0,0,.66-.93,5,5,0,0,0,.29-1.2,10.2,10.2,0,0,0,.07-1.19,10.33,10.33,0,0,0-.07-1.19,5,5,0,0,0-.29-1.2,2.29,2.29,0,0,0-.66-.92,1.93,1.93,0,0,0-2.3,0Z" class="cls-8"/><path d="M403.35,199.56a2.74,2.74,0,0,1,.88,1,4.36,4.36,0,0,1,.44,1.39,11,11,0,0,1,.11,1.5,11.19,11.19,0,0,1-.11,1.51,4.36,4.36,0,0,1-.44,1.39,2.64,2.64,0,0,1-.88,1,3,3,0,0,1-3,0,2.66,2.66,0,0,1-.89-1A4.35,4.35,0,0,1,399,205a9.5,9.5,0,0,1,0-3,4.35,4.35,0,0,1,.43-1.39,2.77,2.77,0,0,1,.89-1,3,3,0,0,1,3,0Zm-2.65.61a2.18,2.18,0,0,0-.65.92,4.59,4.59,0,0,0-.3,1.2,10.33,10.33,0,0,0-.07,1.19,10.2,10.2,0,0,0,.07,1.19,4.59,4.59,0,0,0,.3,1.2,2.27,2.27,0,0,0,.65.93,1.69,1.69,0,0,0,1.15.37,1.67,1.67,0,0,0,1.15-.37,2.39,2.39,0,0,0,.66-.93,4.58,4.58,0,0,0,.29-1.2,10.2,10.2,0,0,0,.07-1.19,10.33,10.33,0,0,0-.07-1.19,4.58,4.58,0,0,0-.29-1.2,2.29,2.29,0,0,0-.66-.92,1.68,1.68,0,0,0-1.15-.38A1.7,1.7,0,0,0,400.7,200.17Z" class="cls-8"/><path d="M409.94,201.44v1h0a2.45,2.45,0,0,1,.78-.9,2.26,2.26,0,0,1,1.24-.32,2.1,2.1,0,0,1,1.11.3,1.43,1.43,0,0,1,.67.91,1.87,1.87,0,0,1,.82-.91,2.32,2.32,0,0,1,1.15-.3c1.37,0,2.05.72,2.05,2.17v4.2H417v-4.16a1.78,1.78,0,0,0-.32-1.17,1.4,1.4,0,0,0-1.14-.41,1.68,1.68,0,0,0-.82.19,1.44,1.44,0,0,0-.51.5,2,2,0,0,0-.27.71,4.6,4.6,0,0,0-.08.84v3.5h-.76v-4.2a2.74,2.74,0,0,0-.06-.59,1.52,1.52,0,0,0-.22-.5,1,1,0,0,0-.4-.33,1.41,1.41,0,0,0-.61-.12,1.86,1.86,0,0,0-.84.18,1.47,1.47,0,0,0-.57.48,2,2,0,0,0-.33.72,3.64,3.64,0,0,0-.11.9v3.46h-.76v-6.19Z" class="cls-8"/><path d="M419.4,202.4a1.67,1.67,0,0,1,.52-.65,2.2,2.2,0,0,1,.77-.37,3.84,3.84,0,0,1,1-.12,3.71,3.71,0,0,1,.81.08,2,2,0,0,1,.73.29,1.51,1.51,0,0,1,.53.61,2.11,2.11,0,0,1,.21,1v3.29c0,.3.14.45.44.45a.61.61,0,0,0,.24,0v.63l-.23,0h-.26a1.15,1.15,0,0,1-.46-.08.54.54,0,0,1-.27-.22.78.78,0,0,1-.13-.34,2.94,2.94,0,0,1,0-.44h0a4.91,4.91,0,0,1-.42.53,1.75,1.75,0,0,1-.47.39,1.77,1.77,0,0,1-.58.24,3.07,3.07,0,0,1-.79.09,3.45,3.45,0,0,1-.81-.1,1.86,1.86,0,0,1-.66-.33,1.43,1.43,0,0,1-.44-.56,1.86,1.86,0,0,1-.17-.81,1.65,1.65,0,0,1,.29-1,1.78,1.78,0,0,1,.76-.55,4.3,4.3,0,0,1,1.07-.27c.4-.06.8-.11,1.21-.15l.42-.06a.83.83,0,0,0,.3-.13.52.52,0,0,0,.18-.25.93.93,0,0,0,.07-.4,1.28,1.28,0,0,0-.13-.63.93.93,0,0,0-.34-.39,1.26,1.26,0,0,0-.52-.2,3.21,3.21,0,0,0-.63-.06,1.92,1.92,0,0,0-1.18.35,1.34,1.34,0,0,0-.48,1.09h-.75A2.36,2.36,0,0,1,419.4,202.4Zm3.78,1.85a.47.47,0,0,1-.28.19,2.18,2.18,0,0,1-.36.08q-.48.09-1,.15a5.83,5.83,0,0,0-.93.2,1.77,1.77,0,0,0-.69.38.9.9,0,0,0-.27.7,1.19,1.19,0,0,0,.11.51,1.15,1.15,0,0,0,.31.38,1.48,1.48,0,0,0,.44.25,1.53,1.53,0,0,0,.52.08,2.57,2.57,0,0,0,.83-.13,2.11,2.11,0,0,0,.69-.38,2,2,0,0,0,.47-.61,2,2,0,0,0,.17-.82v-1Z" class="cls-8"/><path d="M426.24,199.06v1.21h-.76v-1.21Zm0,2.38v6.19h-.76v-6.19Z" class="cls-8"/><path d="M428.43,201.44v1.07h0a1.82,1.82,0,0,1,.76-.91,2.27,2.27,0,0,1,1.22-.34,2.85,2.85,0,0,1,1.08.17,1.7,1.7,0,0,1,.7.47,1.78,1.78,0,0,1,.38.75,4.4,4.4,0,0,1,.1,1v4H432v-3.86a4.23,4.23,0,0,0-.07-.74,1.63,1.63,0,0,0-.26-.6,1.24,1.24,0,0,0-.48-.39,1.75,1.75,0,0,0-.76-.15,1.86,1.86,0,0,0-.81.17,1.56,1.56,0,0,0-.6.44,1.94,1.94,0,0,0-.39.67,2.85,2.85,0,0,0-.15.85v3.61h-.75v-6.19Z" class="cls-8"/><path d="M436.59,201.44v.63h-1.26v4.18a1.48,1.48,0,0,0,.1.58q.1.21.51.24c.22,0,.43,0,.65,0v.64h-.67a1.54,1.54,0,0,1-1.06-.29,1.49,1.49,0,0,1-.28-1.09v-4.24H433.5v-.63h1.08v-1.86h.75v1.86Z" class="cls-8"/><path d="M437.84,202.4a1.76,1.76,0,0,1,.52-.65,2.2,2.2,0,0,1,.77-.37,4.19,4.19,0,0,1,1.81,0,2,2,0,0,1,.73.29,1.68,1.68,0,0,1,.53.61,2.24,2.24,0,0,1,.2,1v3.29a.39.39,0,0,0,.44.45.61.61,0,0,0,.24,0v.63l-.23,0h-.26a1.19,1.19,0,0,1-.46-.08.54.54,0,0,1-.27-.22.78.78,0,0,1-.13-.34,2.94,2.94,0,0,1,0-.44h0a3.92,3.92,0,0,1-.42.53,1.87,1.87,0,0,1-.46.39,1.93,1.93,0,0,1-.59.24,3,3,0,0,1-.79.09,3.52,3.52,0,0,1-.81-.1,1.86,1.86,0,0,1-.66-.33,1.53,1.53,0,0,1-.44-.56,1.86,1.86,0,0,1-.16-.81,1.65,1.65,0,0,1,.28-1,1.81,1.81,0,0,1,.77-.55,4.11,4.11,0,0,1,1.06-.27c.4-.06.8-.11,1.21-.15l.42-.06a.83.83,0,0,0,.3-.13.62.62,0,0,0,.19-.25,1.12,1.12,0,0,0,.06-.4,1.41,1.41,0,0,0-.12-.63,1,1,0,0,0-.35-.39,1.26,1.26,0,0,0-.52-.2,3.06,3.06,0,0,0-.63-.06,1.87,1.87,0,0,0-1.17.35,1.29,1.29,0,0,0-.48,1.09h-.76A2.36,2.36,0,0,1,437.84,202.4Zm3.78,1.85a.47.47,0,0,1-.28.19,1.82,1.82,0,0,1-.36.08q-.48.09-1,.15a5.83,5.83,0,0,0-.93.2,1.77,1.77,0,0,0-.69.38.9.9,0,0,0-.27.7,1.07,1.07,0,0,0,.12.51,1.13,1.13,0,0,0,.3.38,1.41,1.41,0,0,0,.45.25,1.47,1.47,0,0,0,.51.08,2.53,2.53,0,0,0,.83-.13,2,2,0,0,0,.69-.38,1.88,1.88,0,0,0,.47-.61,2,2,0,0,0,.17-.82v-1Z" class="cls-8"/><path d="M444.68,199.06v1.21h-.76v-1.21Zm0,2.38v6.19h-.76v-6.19Z" class="cls-8"/><path d="M446.87,201.44v1.07h0a1.79,1.79,0,0,1,.77-.91,2.24,2.24,0,0,1,1.21-.34,2.85,2.85,0,0,1,1.08.17,1.73,1.73,0,0,1,.71.47,1.76,1.76,0,0,1,.37.75,4.37,4.37,0,0,1,.11,1v4h-.76v-3.86a3.45,3.45,0,0,0-.07-.74,1.62,1.62,0,0,0-.25-.6,1.2,1.2,0,0,0-.49-.39,1.72,1.72,0,0,0-.76-.15,1.89,1.89,0,0,0-.81.17,1.56,1.56,0,0,0-.6.44,2.32,2.32,0,0,0-.39.67,2.85,2.85,0,0,0-.15.85v3.61h-.75v-6.19Z" class="cls-8"/><path d="M452.73,202.4a1.76,1.76,0,0,1,.52-.65,2.17,2.17,0,0,1,.78-.37,3.7,3.7,0,0,1,1-.12,3.86,3.86,0,0,1,.82.08,2,2,0,0,1,.73.29,1.68,1.68,0,0,1,.53.61,2.24,2.24,0,0,1,.2,1v3.29a.39.39,0,0,0,.44.45.61.61,0,0,0,.24,0v.63l-.23,0h-.26a1.19,1.19,0,0,1-.46-.08.54.54,0,0,1-.27-.22.93.93,0,0,1-.13-.34,2.94,2.94,0,0,1,0-.44h0a4.89,4.89,0,0,1-.41.53,1.91,1.91,0,0,1-.47.39,1.83,1.83,0,0,1-.59.24,3,3,0,0,1-.79.09,3.59,3.59,0,0,1-.81-.1,1.86,1.86,0,0,1-.66-.33,1.64,1.64,0,0,1-.44-.56,1.86,1.86,0,0,1-.16-.81,1.59,1.59,0,0,1,.29-1,1.72,1.72,0,0,1,.76-.55,4.09,4.09,0,0,1,1.07-.27q.58-.09,1.2-.15L456,204a.83.83,0,0,0,.3-.13.62.62,0,0,0,.19-.25,1.1,1.1,0,0,0,.07-.4,1.41,1.41,0,0,0-.13-.63.89.89,0,0,0-.35-.39,1.26,1.26,0,0,0-.52-.2,3,3,0,0,0-.62-.06,1.88,1.88,0,0,0-1.18.35,1.29,1.29,0,0,0-.48,1.09h-.76A2.54,2.54,0,0,1,452.73,202.4Zm3.78,1.85a.47.47,0,0,1-.28.19,1.82,1.82,0,0,1-.36.08q-.48.09-1,.15a5.47,5.47,0,0,0-.92.2,1.74,1.74,0,0,0-.7.38.89.89,0,0,0-.26.7,1.06,1.06,0,0,0,.11.51,1,1,0,0,0,.31.38,1.26,1.26,0,0,0,.44.25,1.51,1.51,0,0,0,.51.08,2.53,2.53,0,0,0,.83-.13,1.92,1.92,0,0,0,.69-.38,1.76,1.76,0,0,0,.47-.61,1.83,1.83,0,0,0,.18-.82v-1Z" class="cls-8"/><path d="M459.55,201.44v1.07h0a1.79,1.79,0,0,1,.77-.91,2.24,2.24,0,0,1,1.21-.34,2.94,2.94,0,0,1,1.09.17,1.63,1.63,0,0,1,1.07,1.22,4.37,4.37,0,0,1,.11,1v4h-.76v-3.86A3.45,3.45,0,0,0,463,203a1.62,1.62,0,0,0-.25-.6,1.2,1.2,0,0,0-.49-.39,1.72,1.72,0,0,0-.76-.15,1.92,1.92,0,0,0-.81.17,1.64,1.64,0,0,0-.6.44,2.09,2.09,0,0,0-.38.67,2.34,2.34,0,0,0-.15.85v3.61h-.76v-6.19Z" class="cls-8"/><path d="M469,202.29a1.67,1.67,0,0,0-1.18-.4,1.9,1.9,0,0,0-.94.23,2,2,0,0,0-.68.6,2.68,2.68,0,0,0-.41.85,3.48,3.48,0,0,0-.14,1,3.55,3.55,0,0,0,.14,1,2.68,2.68,0,0,0,.41.85,2.2,2.2,0,0,0,.68.6,1.89,1.89,0,0,0,.94.22,1.65,1.65,0,0,0,.66-.13,1.87,1.87,0,0,0,.55-.36,2,2,0,0,0,.4-.56,2.07,2.07,0,0,0,.19-.71h.76a2.89,2.89,0,0,1-.83,1.76,2.42,2.42,0,0,1-1.73.63,2.91,2.91,0,0,1-1.25-.26,2.68,2.68,0,0,1-.92-.7,2.9,2.9,0,0,1-.56-1,4.07,4.07,0,0,1-.2-1.27,4,4,0,0,1,.2-1.26,2.9,2.9,0,0,1,.56-1,2.71,2.71,0,0,1,.92-.71,2.91,2.91,0,0,1,1.25-.26,2.65,2.65,0,0,1,1.69.53,2.24,2.24,0,0,1,.82,1.59h-.76A2,2,0,0,0,469,202.29Z" class="cls-8"/><path d="M472,205.58a2.3,2.3,0,0,0,.37.79,2.33,2.33,0,0,0,.63.58,2.12,2.12,0,0,0,2.22-.21,2.22,2.22,0,0,0,.65-1.15h.76a3.06,3.06,0,0,1-.88,1.63,2.62,2.62,0,0,1-1.82.58,2.94,2.94,0,0,1-1.27-.26,2.41,2.41,0,0,1-.87-.71,3.24,3.24,0,0,1-.5-1,5.18,5.18,0,0,1-.16-1.26,5,5,0,0,1,.16-1.2,3.4,3.4,0,0,1,.5-1.05,2.72,2.72,0,0,1,.87-.74,2.67,2.67,0,0,1,1.27-.28,2.54,2.54,0,0,1,1.27.3,2.58,2.58,0,0,1,.86.78,3.21,3.21,0,0,1,.47,1.12,4.6,4.6,0,0,1,.12,1.28h-4.76A3.59,3.59,0,0,0,472,205.58Zm3.75-2.31a2.8,2.8,0,0,0-.39-.7,2,2,0,0,0-.62-.49,1.79,1.79,0,0,0-.81-.19,1.85,1.85,0,0,0-.83.19,1.94,1.94,0,0,0-.61.49,2.46,2.46,0,0,0-.4.71,3.39,3.39,0,0,0-.2.82h4A2.9,2.9,0,0,0,475.78,203.27Z" class="cls-8"/></g></svg>