<svg xmlns="http://www.w3.org/2000/svg" xmlns:xlink="http://www.w3.org/1999/xlink" id="Layer_1" x="0" y="0" enable-background="new 0 0 467.515 286.84" version="1.1" viewBox="0 0 467.515 286.84" xml:space="preserve"><g><g><path fill="#6CBE45" d="M32.231,235.621c0,0-1.324-0.583-3.807-1.677c-0.616-0.237-1.319-0.653-2.09-1.114 c-0.774-0.459-1.62-0.96-2.533-1.502c-0.229-0.137-0.463-0.277-0.701-0.42c-0.218-0.157-0.44-0.317-0.666-0.48 c-0.449-0.33-0.914-0.672-1.394-1.024c-0.477-0.359-0.969-0.73-1.476-1.111c-0.253-0.193-0.509-0.389-0.769-0.587 c-0.241-0.219-0.486-0.442-0.734-0.667c-0.994-0.91-2.041-1.868-3.139-2.873c-1.008-1.094-2.03-2.276-3.111-3.503 c-1.05-1.25-1.986-2.675-3.042-4.1c-0.549-0.701-0.964-1.504-1.439-2.292c-0.469-0.792-0.935-1.605-1.401-2.437l-0.352-0.626 l-0.296-0.661c-0.197-0.443-0.396-0.89-0.597-1.34c-0.399-0.904-0.804-1.822-1.214-2.753c-0.331-0.922-0.667-1.857-1.008-2.806 c-0.309-1.02-0.629-2.114-0.922-3.186c-1.053-4.192-1.609-8.763-1.536-13.498c0.039-4.742,0.8-9.611,2.017-14.47 c1.291-4.834,3.04-9.673,5.26-14.374c4.394-9.441,10.27-18.512,16.656-27.409c0.802-1.107,1.608-2.218,2.416-3.333l1.221-1.664 l0.613-0.832l0.393-0.521l0.317-0.405c1.69-2.162,3.391-4.339,5.104-6.529l1.286-1.645c0.442-0.548,0.939-1.092,1.407-1.64 c0.951-1.093,1.904-2.189,2.859-3.288c1.914-2.195,3.805-4.443,5.876-6.465c2.037-2.07,4.052-4.179,6.13-6.234 c2.153-1.979,4.312-3.963,6.475-5.952l1.624-1.491l1.698-1.41l3.409-2.81l3.412-2.81c1.142-0.931,2.362-1.766,3.539-2.653 c2.389-1.73,4.718-3.542,7.154-5.198c2.465-1.614,4.928-3.226,7.385-4.835c1.212-0.831,2.489-1.556,3.762-2.283 c1.272-0.728,2.543-1.455,3.811-2.181c1.268-0.725,2.535-1.449,3.799-2.172c1.304-0.661,2.605-1.321,3.904-1.98 c2.542-1.272,5.001-2.58,7.716-3.733c1.326-0.592,2.649-1.183,3.969-1.772c1.318-0.595,2.633-1.185,3.96-1.676 c2.648-1.027,5.268-2.077,7.89-3.062c2.653-0.896,5.288-1.786,7.9-2.669c10.528-3.288,20.939-5.618,30.891-7.237 c9.962-1.607,19.486-2.227,28.26-2.518c2.196,0.003,4.346,0.005,6.447,0.008c1.05,0.002,2.088,0.003,3.113,0.005 c1.025,0.047,2.037,0.094,3.036,0.14c1.997,0.097,3.942,0.192,5.833,0.284c1.89,0.096,3.717,0.337,5.491,0.49 c1.772,0.173,3.487,0.34,5.142,0.502c1.646,0.237,3.233,0.466,4.758,0.686c1.523,0.221,2.985,0.432,4.381,0.635 c1.394,0.212,2.709,0.516,3.963,0.751c2.503,0.506,4.745,0.914,6.678,1.348c1.924,0.477,3.56,0.883,4.886,1.212 c2.65,0.658,4.063,1.009,4.063,1.009c1.123,0.279,1.807,1.415,1.528,2.537c-0.269,1.085-1.339,1.76-2.424,1.553l-0.106-0.021 c0,0-1.401-0.27-4.026-0.777c-1.311-0.253-2.929-0.566-4.83-0.934c-1.909-0.324-4.119-0.606-6.582-0.972 c-1.234-0.167-2.527-0.388-3.894-0.54c-1.369-0.138-2.801-0.282-4.294-0.432c-1.492-0.15-3.044-0.306-4.655-0.468 c-1.616-0.087-3.291-0.177-5.021-0.269c-1.73-0.074-3.51-0.233-5.35-0.246c-1.839-0.018-3.73-0.037-5.671-0.056 c-0.97-0.01-1.952-0.021-2.947-0.032c-0.994,0.035-2.001,0.069-3.019,0.105c-2.035,0.07-4.117,0.142-6.243,0.215 c-2.12,0.168-4.285,0.339-6.49,0.514c-1.102,0.091-2.214,0.184-3.336,0.277c-1.117,0.141-2.244,0.284-3.381,0.427 c-2.27,0.314-4.591,0.517-6.923,0.906c-2.331,0.393-4.697,0.792-7.096,1.196c-9.555,1.825-19.501,4.377-29.527,7.777 c-2.489,0.897-4.999,1.802-7.527,2.713c-2.494,0.997-4.984,2.056-7.5,3.089c-1.273,0.499-2.49,1.078-3.71,1.659 c-1.223,0.575-2.45,1.152-3.679,1.73c-2.448,1.083-4.956,2.478-7.461,3.797c-9.695,5.291-19.32,11.245-28.156,18.222 c-1.113,0.86-2.267,1.667-3.346,2.57l-3.222,2.724l-3.219,2.719l-1.604,1.363l-1.531,1.443c-2.04,1.921-4.077,3.839-6.107,5.75 c-1.956,1.986-3.852,4.023-5.77,6.018l-1.432,1.5c-0.489,0.492-0.954,0.997-1.387,1.519c-0.89,1.03-1.778,2.058-2.664,3.084 c-0.887,1.024-1.771,2.046-2.654,3.065c-0.439,0.516-0.887,1.002-1.318,1.541l-1.279,1.651c-1.703,2.197-3.396,4.382-5.077,6.55 l-0.315,0.406l-0.223,0.301l-0.601,0.822l-1.194,1.64c-0.785,1.093-1.568,2.181-2.347,3.265 c-6.175,8.669-11.646,17.256-15.581,25.812c-1.983,4.268-3.565,8.508-4.73,12.664c-1.123,4.156-1.853,8.227-2.045,12.133 c-0.413,7.802,1.07,14.968,3.685,20.847c2.542,5.911,5.858,10.662,9.063,14.125c0.192,0.226,0.381,0.45,0.568,0.67 c0.206,0.201,0.408,0.398,0.608,0.593c0.403,0.39,0.794,0.768,1.173,1.135c0.766,0.712,1.433,1.517,2.145,2.035 c0.696,0.574,1.34,1.106,1.93,1.592c0.591,0.49,1.113,0.956,1.71,1.323c2.241,1.529,3.436,2.344,3.436,2.344 c0.96,0.655,1.208,1.964,0.554,2.924C34.238,235.732,33.142,236.023,32.231,235.621z"/><path fill="#6CBE45" d="M390.951,128.52c-1.137-8.323-8.61-13.15-16.513-9.789c-6.941,2.953-11.187,11.038-10.182,18.398 c1.137,8.323,8.61,13.15,16.513,9.789C387.71,143.965,391.956,135.879,390.951,128.52z M379.758,128.336 c-1.884,0.446-3.773-0.719-4.219-2.603s0.719-3.772,2.603-4.219c1.884-0.446,3.773,0.719,4.219,2.603 C382.807,126.001,381.642,127.89,379.758,128.336z"/><path fill="#6CBE45" d="M256.584,65.15c0,0,0.409-1.488,1.177-4.277c0.362-1.367,0.963-3.146,1.709-5.216 c0.703-2.106,1.653-4.385,2.738-6.958c1.143-2.54,2.413-5.364,4.036-8.309c1.557-2.984,3.423-6.109,5.529-9.371 c0.539-0.805,1.087-1.622,1.643-2.452l0.419-0.625l0.514-0.718c0.288-0.398,0.577-0.799,0.869-1.202 c1.22-1.625,2.265-3.195,3.912-5.039c2.876-3.685,6.853-7.102,11.126-9.787c0.487-0.309,0.977-0.619,1.469-0.931 c0.458-0.31,1.115-0.634,1.669-0.95c1.153-0.616,2.341-1.321,3.506-1.867c1.166-0.547,2.343-1.098,3.53-1.655 c1.223-0.489,2.458-0.982,3.702-1.48l0.468-0.185l0.611-0.206l0.892-0.291c0.596-0.195,1.195-0.39,1.796-0.587 c0.561-0.202,1.291-0.382,1.99-0.564c0.701-0.18,1.406-0.361,2.112-0.542c1.416-0.361,2.759-0.553,4.158-0.836 c1.387-0.247,2.774-0.39,4.176-0.588l0.263-0.035l0.131-0.017l0.257-0.024l0.495-0.042l0.993-0.084 c0.663-0.056,1.328-0.112,1.996-0.169c1.423-0.078,2.975-0.101,4.471-0.144c1.492,0.01,2.963,0.104,4.459,0.158 c1.49,0.084,2.977,0.317,4.477,0.476l0.562,0.067l0.281,0.034l0.141,0.017c0.136,0.022-0.105-0.025,0.34,0.053l1.026,0.202 c0.685,0.135,1.371,0.27,2.059,0.405c0.701,0.149,1.349,0.241,2.098,0.437c0.757,0.207,1.517,0.414,2.278,0.622 c3.124,0.764,5.906,1.897,8.818,2.94c1.399,0.628,2.803,1.259,4.213,1.892l1.057,0.479l0.529,0.24l0.265,0.12l0.399,0.21 l1.928,1.045c1.291,0.706,2.574,1.379,3.883,2.12c1.338,0.833,2.68,1.669,4.026,2.507l2.018,1.265l1.903,1.335 c1.266,0.894,2.536,1.791,3.809,2.69c1.261,0.914,2.459,1.913,3.696,2.87l1.843,1.454l1.023,0.815l0.854,0.748 c2.279,2.026,4.558,3.894,6.871,6.224l3.45,3.359l3.238,3.451c2.209,2.268,4.184,4.713,6.262,7.087l0.771,0.896l0.243,0.291 l0.18,0.225l0.36,0.45l1.44,1.801l2.881,3.604c1.897,2.512,3.818,5.055,5.655,7.603c1.774,2.576,3.623,5.092,5.327,7.708 l2.569,3.907l0.641,0.975l0.358,0.557l0.3,0.488l1.198,1.95c0.797,1.301,1.594,2.601,2.389,3.898 c0.777,1.373,1.554,2.743,2.328,4.111l1.158,2.05l1.072,2.073c0.708,1.383,1.414,2.762,2.119,4.138 c0.671,1.394,1.295,2.809,1.941,4.207l0.958,2.098l0.12,0.262l0.152,0.355l0.209,0.517l0.417,1.033 c0.556,1.376,1.11,2.748,1.663,4.115c0.544,1.388,1.044,2.875,1.563,4.3c1.082,2.88,1.904,5.727,2.806,8.554 c0.44,1.414,0.793,2.852,1.191,4.267l0.578,2.123l0.167,0.631l0.119,0.519l0.237,1.037c0.316,1.381,0.63,2.756,0.942,4.124 c0.259,1.479,0.517,2.95,0.774,4.414c0.298,1.455,0.376,2.943,0.546,4.404c0.074,0.733,0.147,1.463,0.221,2.191 c0.01,0.754,0.021,1.505,0.031,2.254c0.006,0.749,0.011,1.496,0.017,2.241l0.003,0.558l-0.045,0.647l-0.079,1.003 c-0.028,0.606-0.166,1.492-0.274,2.273c-0.098,0.819-0.274,1.549-0.432,2.298c-0.662,2.984-1.771,5.871-3.225,8.454 c-0.341,0.662-0.76,1.261-1.137,1.888l-0.145,0.232l-0.073,0.116l-0.144,0.211l-0.277,0.388l-0.552,0.774 c-0.162,0.24-0.408,0.548-0.648,0.847l-0.714,0.888c-0.477,0.603-0.958,1.075-1.436,1.613c-1.946,2.057-4.099,3.833-6.354,5.327 c-0.569,0.365-1.121,0.755-1.708,1.071l-0.868,0.494l-0.433,0.245l-0.216,0.122l-0.313,0.159 c-0.529,0.258-1.055,0.516-1.579,0.772c-0.537,0.258-1.215,0.528-1.813,0.784c-2.431,0.996-4.706,1.713-6.993,2.3 c-1.136,0.307-2.256,0.568-3.361,0.796c-1.107,0.256-2.194,0.443-3.268,0.643c-1.076,0.211-2.13,0.359-3.172,0.527l-0.779,0.122 l-0.489,0.074l-0.377,0.045c-0.502,0.06-1,0.119-1.494,0.178c-1.985,0.227-3.884,0.484-5.776,0.667 c-1.933,0.129-3.804,0.253-5.609,0.374c-1.803,0.114-3.555,0.261-5.186,0.258c-3.287,0.056-6.306,0.107-9.033,0.153 c-5.437-0.017-9.686-0.167-12.592-0.205c-2.903-0.058-4.451-0.089-4.451-0.089c-1.932-0.039-3.467-1.636-3.429-3.569 c0.038-1.9,1.583-3.415,3.471-3.429l0.101-0.001c0,0,1.528-0.01,4.393-0.028c2.861-0.039,7.074,0,12.402-0.124 c2.655-0.107,5.594-0.225,8.794-0.354c1.615-0.028,3.228-0.201,4.918-0.341c1.687-0.143,3.436-0.29,5.242-0.443 c1.836-0.214,3.767-0.512,5.736-0.777c0.493-0.069,0.99-0.138,1.49-0.207l0.376-0.052c0.054-0.007-0.132,0.017-0.01-0.001 l0.091-0.016l0.182-0.032l0.731-0.13c0.976-0.178,1.976-0.336,2.96-0.552c0.989-0.205,1.999-0.398,2.989-0.649 c1.004-0.228,2.004-0.481,2.995-0.771c1.982-0.543,4.008-1.245,5.832-2.034c0.457-0.211,0.862-0.36,1.371-0.616 c0.519-0.266,1.04-0.534,1.563-0.802c0.415-0.246,0.832-0.493,1.251-0.741c0.459-0.252,0.873-0.569,1.31-0.859 c1.721-1.192,3.336-2.58,4.779-4.167c0.337-0.401,0.745-0.812,1.032-1.205l0.458-0.589c0.153-0.193,0.305-0.375,0.492-0.663 l0.536-0.784l0.269-0.393c-0.012,0.017,0.122-0.178-0.01,0.014l0.052-0.088l0.104-0.176c0.265-0.473,0.583-0.927,0.815-1.416 c1.018-1.919,1.773-3.958,2.233-6.141c0.106-0.546,0.24-1.108,0.285-1.614c0.063-0.538,0.16-0.969,0.19-1.704l0.067-1.004 l0.017-0.252l0.008-0.126c0.009-0.167-0.002,0.085-0.003,0.018l-0.012-0.452c-0.015-0.603-0.029-1.208-0.044-1.816 c-0.012-0.607-0.025-1.216-0.037-1.827c-0.073-0.628-0.147-1.259-0.221-1.891c-0.166-1.262-0.233-2.541-0.516-3.805 c-0.235-1.269-0.471-2.544-0.708-3.827c-0.329-1.363-0.659-2.734-0.991-4.11l-0.249-1.034l-0.125-0.518 c-0.015-0.066,0.025,0.109-0.009-0.024l-0.036-0.125l-0.071-0.249l-0.571-1.999c-0.393-1.333-0.738-2.684-1.172-4.018 c-0.885-2.657-1.709-5.393-2.725-7.986c-0.5-1.321-0.944-2.62-1.492-3.971c-0.569-1.361-1.139-2.726-1.712-4.095l-0.43-1.028 l-0.215-0.514l-0.054-0.129c0.061,0.148-0.017-0.028-0.017-0.028l-0.115-0.244l-0.925-1.958c-0.623-1.305-1.222-2.624-1.867-3.926 c-0.679-1.287-1.36-2.578-2.043-3.871l-1.03-1.937l-1.098-1.887c-0.731-1.26-1.464-2.522-2.198-3.786 c-0.809-1.285-1.619-2.572-2.43-3.861l-1.221-1.936l-0.305-0.484l-0.11-0.169l-0.157-0.233l-0.63-0.933l-2.522-3.737 c-1.67-2.502-3.491-4.914-5.231-7.38l-5.414-7.161l-2.896-3.593l-1.448-1.796l-0.362-0.449l-0.181-0.224 c-0.078-0.097,0.006,0.005-0.037-0.044l-0.092-0.106l-0.736-0.848c-1.981-2.241-3.875-4.574-5.957-6.688l-3.057-3.236 l-3.125-3.019c-1.979-2.011-4.408-4.002-6.664-5.99l-0.857-0.745c0.167,0.141-0.016-0.009-0.006,0.001l-0.108-0.084l-0.215-0.168 l-0.43-0.336l-1.719-1.342c-1.152-0.883-2.268-1.812-3.441-2.653c-1.182-0.827-2.362-1.653-3.538-2.476l-1.761-1.228l-1.766-1.093 c-1.173-0.731-2.343-1.46-3.509-2.187c-1.259-0.707-2.583-1.395-3.865-2.09l-1.932-1.037l-0.121-0.065 c0.03,0.015-0.237-0.126,0.036,0.018l-0.234-0.104l-0.468-0.208l-0.934-0.416c-1.244-0.555-2.482-1.107-3.716-1.658 c-2.524-0.881-5.057-1.899-7.452-2.461l-1.809-0.508c-0.613-0.166-1.361-0.275-2.032-0.415c-0.689-0.133-1.376-0.265-2.061-0.397 l-1.026-0.198c0.36,0.063,0.032,0.01,0.082,0.021l-0.118-0.013l-0.237-0.026l-0.472-0.052c-1.26-0.121-2.507-0.324-3.757-0.386 c-1.248-0.033-2.504-0.114-3.723-0.119c-1.215,0.05-2.361,0.055-3.613,0.122c-0.667,0.059-1.332,0.118-1.995,0.176l-0.993,0.088 l-0.495,0.044c0.018-0.002-0.216,0.02,0.01-0.002l-0.114,0.016l-0.229,0.032c-1.214,0.181-2.442,0.308-3.62,0.524 c-1.153,0.244-2.379,0.421-3.449,0.706c-0.537,0.139-1.072,0.277-1.605,0.414c-0.535,0.137-1.043,0.246-1.673,0.473 c-0.6,0.199-1.198,0.397-1.793,0.594l-0.891,0.295l-0.222,0.074l-0.111,0.037c-0.184,0.063,0.125-0.045,0.057-0.019l-0.399,0.162 c-1.064,0.43-2.118,0.855-3.164,1.278c-1.024,0.486-2.039,0.967-3.044,1.444c-1.009,0.474-1.859,1.006-2.786,1.49 c-0.467,0.27-0.878,0.439-1.386,0.784c-0.491,0.314-0.979,0.626-1.465,0.937c-0.486,0.311-0.969,0.62-1.45,0.928l-0.18,0.115 c-0.174,0.115,0.135-0.092,0.078-0.049l-0.073,0.057l-0.294,0.227l-0.586,0.451c-0.391,0.298-0.779,0.594-1.165,0.889l-0.58,0.438 l-0.525,0.49c-0.699,0.65-1.391,1.293-2.074,1.928c-0.644,0.687-1.245,1.411-1.863,2.096c-1.213,1.25-2.477,3.078-3.688,4.609 c-0.307,0.392-0.611,0.782-0.913,1.169l-0.359,0.46l-0.413,0.57c-0.55,0.757-1.091,1.502-1.624,2.236 c-1.01,1.498-2.042,2.919-2.945,4.343c-0.93,1.409-1.844,2.76-2.639,4.106c-0.819,1.333-1.609,2.611-2.307,3.863 c-0.706,1.248-1.427,2.417-2.031,3.568c-1.187,2.308-2.351,4.349-3.168,6.142c-0.859,1.792-1.655,3.286-2.209,4.656 c-1.189,2.637-1.824,4.044-1.824,4.044c-0.797,1.767-2.876,2.554-4.643,1.757C256.927,68.56,256.131,66.789,256.584,65.15z"/><path fill="#6CBE45" d="M367.574,155.276c0,0,0.589,0.306,1.694,0.881c0.138,0.072,0.284,0.148,0.438,0.228 c0.151,0.076,0.332,0.185,0.449,0.204c0.264,0.085,0.551,0.178,0.862,0.278c0.322,0.095,0.613,0.254,1.023,0.341 c0.419,0.082,0.865,0.169,1.336,0.261c1.891,0.287,4.315,0.423,7.079-0.255c0.688-0.158,1.386-0.404,2.116-0.605 c0.727-0.22,1.437-0.576,2.196-0.858l0.284-0.113l0.036-0.014c0.037-0.017-0.2,0.106-0.081,0.044l0.076-0.04l0.153-0.079 l0.616-0.32c0.413-0.215,0.831-0.432,1.254-0.652c0.773-0.444,1.413-0.896,2.164-1.35c2.973-2.089,5.869-4.946,8.295-8.466 c0.328-0.424,0.574-0.904,0.869-1.359l0.428-0.694l0.216-0.349c0.043-0.08-0.028,0.06-0.011,0.027l0.025-0.049l0.051-0.097 l0.102-0.194c0.543-1.037,1.13-2.108,1.518-3.079c0.468-0.972,0.834-2.064,1.228-3.145c0.204-0.54,0.326-1.105,0.496-1.661 c0.158-0.559,0.334-1.118,0.434-1.694c0.551-2.283,0.717-4.666,0.751-7.06c-0.026-0.598-0.052-1.198-0.078-1.799l-0.009-0.226 l-0.005-0.113l-0.002-0.057c-0.01-0.1,0.012,0.073,0.006,0.033l-0.065-0.48l-0.135-0.961c-0.086-0.647-0.172-1.3-0.329-1.832 l-0.411-1.699c-0.708-2.308-1.739-4.508-3.119-6.462c-1.439-1.911-3.24-3.486-5.253-4.746l-1.66-0.799 c-0.29-0.122-0.621-0.334-0.876-0.382l-0.797-0.229c-0.545-0.133-1.012-0.377-1.625-0.427l-1.744-0.278 c-2.357-0.168-4.74,0.074-7.033,0.709c-1.122,0.408-2.269,0.715-3.327,1.271l-0.806,0.374L376,107.492 c-0.037,0.017,0.143-0.077,0.042-0.022l-0.052,0.03l-0.105,0.061l-0.209,0.122l-1.666,0.971c-0.54,0.325-0.938,0.662-1.414,0.986 l-0.685,0.485l-0.673,0.562c-0.446,0.378-0.89,0.755-1.332,1.13c-0.414,0.409-0.827,0.817-1.238,1.222 c-1.601,1.663-3.034,3.448-4.213,5.34c-0.63,0.919-1.135,1.9-1.661,2.85l-0.151,0.275l-0.185,0.396l-0.367,0.789 c-0.224,0.511-0.532,1.075-0.679,1.531c-0.352,0.956-0.737,1.857-1.011,2.863c-0.145,0.49-0.309,0.971-0.437,1.456 c-0.113,0.489-0.225,0.974-0.336,1.454c-0.264,0.953-0.346,1.919-0.519,2.849c-0.133,0.936-0.168,1.86-0.261,2.759 c0.009,0.9-0.028,1.782,0.007,2.637c0.034,0.426,0.067,0.847,0.1,1.263l0.047,0.619l0.011,0.154l0.006,0.077 c0.017,0.145-0.021-0.155-0.014-0.108l0.007,0.042l0.055,0.337c0.074,0.448,0.146,0.89,0.218,1.326 c0.076,0.422,0.128,0.911,0.238,1.213c0.206,0.683,0.341,1.338,0.559,1.988c0.848,2.707,2.174,4.715,3.315,6.241 c0.305,0.368,0.594,0.716,0.866,1.044c0.277,0.323,0.592,0.564,0.85,0.827c0.265,0.257,0.51,0.494,0.735,0.711 c0.221,0.222,0.48,0.352,0.68,0.508c0.826,0.596,1.267,0.915,1.267,0.915L367.574,155.276z M364.305,161.357 c0,0-0.654-0.434-1.88-1.247c-0.297-0.216-0.664-0.415-1.001-0.716c-0.338-0.301-0.707-0.63-1.106-0.985 c-0.385-0.368-0.851-0.72-1.242-1.187c-0.387-0.47-0.798-0.97-1.232-1.498c-1.651-2.151-3.319-5.057-4.27-8.594 c-0.26-0.893-0.444-1.884-0.663-2.866c-0.128-0.527-0.145-0.911-0.209-1.362c-0.054-0.439-0.11-0.884-0.166-1.334l-0.042-0.339 l-0.005-0.043c0.002,0.019-0.036-0.309-0.021-0.193l-0.004-0.095l-0.008-0.19l-0.031-0.766c-0.019-0.514-0.038-1.033-0.057-1.559 c-0.001-1.049,0.078-2.118,0.122-3.209c0.144-1.078,0.241-2.188,0.442-3.296c0.241-1.099,0.401-2.241,0.748-3.351 c0.159-0.559,0.319-1.122,0.48-1.69c0.178-0.562,0.395-1.115,0.594-1.679c0.37-1.119,0.911-2.273,1.424-3.43 c0.255-0.615,0.532-1.047,0.799-1.581l0.406-0.77l0.204-0.387l0.07-0.134l0.031-0.05l0.062-0.1l0.123-0.201 c0.659-1.071,1.304-2.166,2.08-3.192c1.466-2.107,3.223-4.072,5.155-5.911c0.494-0.449,0.991-0.9,1.489-1.352 c0.521-0.428,1.065-0.835,1.6-1.253c0.271-0.207,0.532-0.418,0.814-0.621l0.894-0.584c0.591-0.372,1.214-0.81,1.785-1.121 c0.566-0.3,1.134-0.601,1.704-0.903l0.524-0.274l0.485-0.204l0.972-0.406c1.273-0.592,2.666-0.93,4.021-1.345 c2.786-0.637,5.7-0.878,8.621-0.597c1.449,0.261,2.886,0.448,4.37,1.031l1.098,0.38c0.39,0.121,0.618,0.291,0.936,0.435 l1.915,0.959c2.494,1.563,4.709,3.554,6.438,5.901c1.649,2.39,2.909,4.985,3.744,7.679c0.341,1.37,0.766,2.873,0.893,4.098 l0.142,0.96l0.074,0.479l0.018,0.153l0.005,0.064l0.009,0.128l0.018,0.257c0.046,0.685,0.091,1.369,0.137,2.05 c0.041,2.723-0.123,5.423-0.642,8.01c-0.49,2.607-1.155,5.069-2.139,7.497c-0.467,1.271-0.983,2.301-1.48,3.363l-0.093,0.199 l-0.047,0.099l-0.087,0.173l-0.225,0.406l-0.45,0.808c-0.31,0.53-0.574,1.086-0.921,1.585c-2.573,4.119-5.685,7.631-9.099,10.309 c-0.91,0.645-1.849,1.343-2.704,1.889c-0.41,0.243-0.816,0.483-1.216,0.721l-0.597,0.354l-0.148,0.088l-0.074,0.044l-0.2,0.104 l-0.342,0.162c-0.916,0.417-1.786,0.875-2.688,1.203c-0.911,0.308-1.784,0.647-2.661,0.891c-3.511,1.027-6.854,1.063-9.539,0.763 c-0.674-0.103-1.313-0.201-1.914-0.293c-0.605-0.106-1.216-0.333-1.76-0.487c-0.548-0.176-1.056-0.338-1.521-0.487 c-0.463-0.155-0.695-0.306-1.003-0.435c-1.13-0.524-1.732-0.804-1.732-0.804L364.305,161.357z"/></g><g><path fill="#6CBE45" d="M96.225,239.841c-2.45,3.44-5.88,6.12-9.67,7.98c-3.18,1.45-6.56,2.49-10.03,2.95 c-0.82,0.11-1.64,0.18-2.47,0.21c-2.15,0.09-4.32-0.11-6.43-0.54c-5.47-1.14-10.58-3.93-14.54-7.88 c-2.03-2.02-3.75-4.34-5.11-6.86c-1.41-2.63-2.42-5.47-3.01-8.4c-0.6-2.96-0.77-6-0.5-9.01c0.24-2.58,0.81-5.14,1.72-7.57 c1.75-4.65,4.77-8.84,8.63-11.98c3.91-3.18,8.68-5.27,13.66-6.05c2.47-0.34,4.98-0.45,7.47-0.29c2.37,0.17,4.72,0.58,6.98,1.29 c2.24,0.7,4.39,1.69,6.37,2.93c2.07,1.29,3.96,2.86,5.64,4.63c0.75,0.85,1.17,2.04,1.01,3.14c-0.14,0.97-0.72,1.87-1.5,2.5 c-0.77,0.64-1.73,1.01-2.71,1.01c-1.09,0.01-2.18-0.45-2.93-1.24c-1.27-1.35-2.69-2.56-4.28-3.51c-1.42-0.86-2.97-1.51-4.57-1.94 c-1.61-0.43-3.26-0.64-4.92-0.69c-1.77-0.06-3.55,0.05-5.31,0.25c-2.38,0.37-4.72,1.06-6.87,2.15c-2.02,1.03-3.88,2.41-5.37,4.11 c-1.54,1.76-2.69,3.85-3.45,6.06c-0.89,2.56-1.27,5.27-1.25,7.98c0.04,2.95,0.55,5.9,1.65,8.62c1.03,2.56,2.58,4.92,4.5,6.9 c1.87,1.93,4.09,3.5,6.56,4.57c2.49,1.08,5.22,1.66,7.93,1.65c3.25-0.02,6.47-0.87,9.38-2.36c2.54-1.31,4.84-3.11,6.59-5.36 c0.62-0.91,1.67-1.5,2.75-1.61c0.99-0.1,2,0.19,2.85,0.75c0.86,0.56,1.56,1.39,1.83,2.34 C97.125,237.651,96.885,238.901,96.225,239.841z"/><path fill="#6CBE45" d="M415.495,225.521c-0.38-4.77-2.08-9.46-5.02-13.23c-1.43-1.85-3.17-3.47-5.11-4.8 c-2.01-1.38-4.25-2.44-6.59-3.07c-2.15-0.58-4.39-0.81-6.63-0.82c-2.3,0-4.59,0.22-6.8,0.82c-2.35,0.64-4.6,1.7-6.61,3.09 c-1.92,1.33-3.63,2.96-5.05,4.81c-1.42,1.87-2.55,3.96-3.38,6.16c-0.85,2.26-1.38,4.64-1.59,7.04c-0.13,3.15,0.19,6.33,1.13,9.33 c0.91,2.87,2.38,5.58,4.33,7.89c2.17,2.57,4.91,4.64,7.97,6.01c3.13,1.41,6.57,2.08,10,2.08c3.42,0,6.85-0.68,9.97-2.08 c3.07-1.37,5.84-3.44,8-6.02c1.94-2.3,3.39-5.01,4.29-7.89C415.335,231.841,415.665,228.661,415.495,225.521z M406.155,232.811 c-0.58,1.7-1.45,3.3-2.59,4.68c-2.12,2.43-5.04,4.16-8.19,4.87c-1.6,0.36-3.25,0.45-4.88,0.28c-1.59-0.17-3.17-0.59-4.62-1.26 c-1.46-0.67-2.79-1.58-3.95-2.69c-0.56-0.53-1.07-1.11-1.55-1.73c-0.41-0.54-0.79-1.12-1.12-1.72c-1.34-2.38-1.92-5.12-1.93-7.85 c-0.01-2.59,0.49-5.17,1.58-7.51c1.01-2.18,2.53-4.14,4.48-5.54c0.99-0.71,2.09-1.27,3.24-1.68c0.55-0.2,1.11-0.37,1.67-0.5 c0.51-0.12,1.02-0.22,1.54-0.29c1.12-0.15,2.25-0.19,3.38-0.11c1.1,0.07,2.19,0.25,3.26,0.52c1.61,0.41,3.14,1.12,4.48,2.08 c1.31,0.94,2.44,2.12,3.33,3.45c0.92,1.38,1.6,2.91,2.05,4.5c0.5,1.71,0.74,3.48,0.72,5.25 C407.035,229.351,406.735,231.121,406.155,232.811z"/><path fill="#6CBE45" d="M308.235,195.111v51.24c0,2.27-1.94,4.05-4.22,4.05c-2.41,0-4.31-1.82-4.31-4.05v-51.24 c0-2.23,1.9-4.06,4.31-4.06C306.295,191.051,308.235,192.841,308.235,195.111z"/><path fill="#6CBE45" d="M362.725,226.952c-0.05-2.67-0.45-5.34-1.27-7.88c-0.76-2.34-1.88-4.57-3.35-6.54 c-1.44-1.93-3.22-3.61-5.22-4.94c-2.09-1.4-4.43-2.42-6.86-3.08c-2.21-0.6-4.51-0.9-6.8-0.9c-2.25,0-4.5,0.28-6.67,0.89 c-1.99,0.55-3.91,1.39-5.67,2.47c-1.66,1.02-3.19,2.26-4.51,3.69c-2.57,2.77-4.39,6.22-5.36,9.89c-0.98,3.69-1.11,7.59-0.4,11.34 c0.72,3.84,2.31,7.53,4.68,10.64c2.12,2.66,4.99,4.68,8.13,6.01c3.18,1.36,6.64,2,10.1,2.04c2.91,0.04,5.82-0.35,8.59-1.24 c2.74-0.88,5.33-2.26,7.43-4.22c0.67-0.68,1.22-1.52,1.43-2.45c0.18-0.79,0.1-1.66-0.23-2.4c-0.43-0.92-1.26-1.65-2.22-2 c-0.74-0.28-1.56-0.34-2.33-0.19c-0.85,0.16-1.65,0.57-2.29,1.16c-1.51,1.15-3.24,2-5.06,2.55c-1.8,0.54-3.68,0.78-5.56,0.76 c-1.75-0.02-3.5-0.26-5.16-0.81c-1.5-0.5-2.93-1.26-4.18-2.24c-2.39-1.87-4.12-4.53-4.88-7.46h32.32c1.96,0,3.45-0.61,4.33-1.64 C362.605,229.361,362.815,228.051,362.725,226.952z M324.675,224.531c0.82-6,4.36-10.59,10.39-12.17c2.42-0.72,5.17-0.8,7.62-0.32 c0.31,0.08,0.61,0.16,0.92,0.24c5.82,1.49,9.77,6.04,10.7,12.25H324.675z"/><path fill="#6CBE45" d="M291.745,226.952v-0.09c-0.05-2.64-0.45-5.28-1.26-7.79c-0.76-2.34-1.88-4.57-3.35-6.54 c-1.45-1.93-3.22-3.61-5.22-4.94c-2.1-1.4-4.43-2.42-6.86-3.08c-2.21-0.6-4.51-0.9-6.8-0.9c-2.25,0-4.5,0.28-6.67,0.89 c-1.99,0.55-3.91,1.39-5.67,2.47c-1.66,1.02-3.19,2.26-4.51,3.69c-2.58,2.77-4.39,6.22-5.36,9.89c-0.98,3.69-1.11,7.59-0.4,11.34 c0.72,3.84,2.31,7.53,4.68,10.64c2.12,2.66,4.99,4.68,8.13,6.01c3.18,1.36,6.64,2,10.1,2.04c2.91,0.04,5.82-0.35,8.59-1.24 c2.73-0.88,5.33-2.26,7.43-4.22c0.67-0.68,1.22-1.52,1.43-2.45c0.18-0.79,0.1-1.66-0.23-2.4c-0.43-0.92-1.26-1.65-2.22-2 c-0.74-0.28-1.56-0.34-2.33-0.19c-0.85,0.16-1.65,0.57-2.29,1.16c-1.51,1.15-3.24,2-5.06,2.55c-1.8,0.54-3.68,0.78-5.56,0.76 c-1.75-0.02-3.5-0.26-5.16-0.81c-1.5-0.5-2.93-1.26-4.19-2.24c-2.38-1.87-4.11-4.53-4.87-7.46h32.32c1.96,0,3.44-0.61,4.33-1.64 C291.635,229.361,291.845,228.051,291.745,226.952z M253.705,224.531c0.82-6,4.35-10.59,10.39-12.17c2.42-0.72,5.17-0.8,7.62-0.32 c0.3,0.08,0.61,0.16,0.92,0.24c5.82,1.49,9.77,6.04,10.7,12.25H253.705z"/><line x1="290.602" x2="290.602" y1="226.965" y2="227.051" fill="#6CBE45"/><path fill="#6CBE45" d="M291.751,227.033c0-0.029-0.001-0.057,0.001-0.086c0-0.029-0.003-0.057-0.005-0.085"/><path fill="#6CBE45" d="M236.665,223.551v22.89c0,1.12-0.45,2.28-1.25,3.04c-0.79,0.74-1.92,1.1-3.06,1.1 c-1.14,0.01-2.3-0.36-3.07-1.12c-0.76-0.76-1.15-1.92-1.15-3.02v-22.62c-0.16-6.73-5.48-11.51-12.09-11.51 c-8.4,0-14.91,6.07-14.91,15.34v18.79c0,1.12-0.45,2.28-1.25,3.04c-0.79,0.74-1.92,1.1-3.06,1.1c-1.13,0-2.26-0.36-3.05-1.1 c-0.81-0.76-1.26-1.92-1.26-3.04v-21.18c0-1.67-0.24-3.34-0.76-4.92c-0.5-1.5-1.25-2.92-2.27-4.13c-0.5-0.59-1.06-1.12-1.68-1.58 c-0.45-0.33-0.92-0.63-1.41-0.88c-0.77-0.4-1.59-0.71-2.43-0.93c-0.85-0.22-1.73-0.35-2.61-0.4c-0.79-0.04-1.58-0.03-2.37,0.05 c-1.42,0.13-2.83,0.46-4.15,0.98c-2.63,1.04-4.96,2.83-6.59,5.14c-0.84,1.2-1.5,2.54-1.93,3.94c-0.48,1.51-0.71,3.1-0.71,4.69 v19.22c0,1.16-0.52,2.33-1.39,3.08c-0.77,0.66-1.83,0.99-2.88,0.98c-1.05,0-2.09-0.34-2.87-1.01c-0.86-0.74-1.39-1.9-1.39-3.05 v-38.18c0-2.27,1.9-4.14,4.23-4.14c2.43,0,4.13,1.99,4.13,4.14v2.25c3.78-4.35,9.28-6.39,14.91-6.39c7,0,14.05,3.16,17.41,9.66 c1.36-2.34,3.27-4.35,5.49-5.89c2.19-1.51,4.68-2.57,7.27-3.17c4.25-0.98,8.76-0.75,12.88,0.67c1.82,0.63,3.56,1.5,5.15,2.59 c1.59,1.09,3.03,2.42,4.22,3.93c1.23,1.57,2.2,3.35,2.85,5.24C236.335,219.202,236.665,221.381,236.665,223.551z"/><path fill="#6CBE45" d="M144.555,205.981c-0.46-0.68-1.13-1.21-1.89-1.52c-1.08-0.45-2.34-0.46-3.42-0.02 c-0.76,0.31-1.44,0.84-1.87,1.53c-0.43,0.69-0.62,1.53-0.62,2.35c-3.44-3.33-8.25-4.47-12.32-4.54c-3.3-0.09-6.59,0.36-9.51,1.64 c-2.08,0.8-4.02,1.94-5.74,3.37c-1.69,1.39-3.16,3.06-4.35,4.89c-2.4,3.69-3.64,8.07-3.8,12.49c-0.14,4.13,0.66,8.29,2.42,12.02 c0.85,1.79,1.92,3.48,3.19,5c1.3,1.53,2.81,2.88,4.46,4.02c1.9,1.35,4.06,2.29,6.3,2.94c2.17,0.62,4.42,0.97,6.66,0.93 c2.3-0.03,4.59-0.48,6.73-1.33c2.24-0.89,4.31-2.23,5.95-3.98v0.5c0,1.11,0.38,2.26,1.14,3.04c0.77,0.79,1.93,1.19,3.09,1.19 c1.15,0,2.29-0.39,3.07-1.17c0.8-0.77,1.24-1.93,1.24-3.06v-37.92C145.285,207.511,145.025,206.661,144.555,205.981z M132.705,239.722c-2.33,2.06-5.54,3.18-9.19,3.18c-1.46-0.12-2.91-0.41-4.28-0.9c-1.38-0.5-2.69-1.21-3.85-2.1 c-1.98-1.65-3.62-3.78-4.6-6.15c-0.95-2.32-1.28-4.89-1.19-7.43c0.06-2.04,0.39-4.06,1.18-5.92c0.54-1.33,1.3-2.57,2.25-3.65 c0.92-1.04,2.02-1.94,3.22-2.65c2.41-1.44,5.23-2.17,8.04-2.13c1.7,0.08,3.4,0.36,5.01,0.94c1.43,0.52,2.8,1.28,3.93,2.3 c1.11,1,2,2.26,2.59,3.64c0.68,1.61,0.93,3.38,0.93,5.12c0.01,2.24,0.01,4.48,0.01,6.72 C136.555,234.671,135.045,237.671,132.705,239.722z"/><path fill="#6CBE45" d="M467.515,223.801v22.64c0,1.1-0.39,2.26-1.15,3.02c-0.78,0.76-1.93,1.13-3.08,1.12 c-1.13,0-2.26-0.36-3.05-1.1c-0.8-0.76-1.26-1.92-1.26-3.04v-22.64c0-7.24-5.77-12.17-12.08-12.17c-7.66,0-14.91,6.32-14.91,14.99 v19.82c0,1.1-0.39,2.26-1.15,3.02c-0.78,0.76-1.93,1.12-3.07,1.12c-1.16,0.01-2.32-0.34-3.13-1.1c-0.81-0.75-1.27-1.91-1.27-3.04 v-38.27c0-1.16,0.51-2.33,1.36-3.09c0.77-0.67,1.82-1.03,2.87-1.03c1.05,0.01,2.1,0.36,2.87,1.05c0.86,0.78,1.35,1.98,1.35,3.16 v1.48c1.37-1.6,3.07-2.9,4.93-3.88c1.87-0.97,3.91-1.61,5.99-1.97c2.04-0.36,4.13-0.46,6.19-0.28c1.93,0.17,3.84,0.58,5.66,1.24 c1.8,0.66,3.52,1.57,5.07,2.7c1.57,1.16,2.97,2.55,4.11,4.12c1.21,1.65,2.13,3.51,2.75,5.46 C467.195,219.281,467.515,221.541,467.515,223.801z"/></g><g><path fill="#6CBE45" d="M185.548,280.47h-8.45c-0.65,0-1.202-0.52-1.202-1.17v-18.331c0-0.649,0.552-1.17,1.202-1.17h7.703 c3.022,0,7.702,1.008,7.702,5.623c0,1.689-0.812,3.185-2.502,3.867c2.372,0.748,3.997,2.405,3.997,5.038 C193.999,279.17,189.644,280.47,185.548,280.47z M178.268,261.911v6.631h6.631c2.795,0,5.232-0.748,5.232-3.12 c0-2.795-3.315-3.511-5.33-3.511H178.268z M178.268,278.357h7.28c2.86,0,6.013-0.748,6.013-4.03c0-2.567-2.21-3.673-5.037-3.673 h-8.256V278.357z"/><path fill="#6CBE45" d="M200.108,266.624c1.04-2.178,2.99-2.763,4.843-2.763c0.747,0,1.235,0.391,1.235,1.138 c0,0.715-0.488,1.105-1.235,1.105c-3.348,0-4.777,2.665-4.777,5.947v7.346c0,0.683-0.553,1.138-1.171,1.138 c-0.715,0-1.202-0.455-1.202-1.138v-14.398c0-1.43,2.308-1.56,2.308,0V266.624z"/><path fill="#6CBE45" d="M210.995,261.489c0,1.462-2.438,1.495-2.438,0v-1.463c0-1.495,2.438-1.495,2.438,0V261.489z M208.59,264.999c0-1.397,2.372-1.43,2.372-0.032v14.658c0,1.43-2.372,1.397-2.372,0V264.999z"/><path fill="#6CBE45" d="M228.967,270.914c0-2.99-2.405-5.07-5.037-5.07c-3.153,0-6.11,2.601-6.11,6.144v7.54 c0,0.715-0.423,1.138-1.17,1.138c-0.748,0-1.235-0.423-1.235-1.138v-14.561c0-1.495,2.34-1.527,2.34,0.032v2.016 c1.17-2.373,3.673-3.381,6.208-3.381c3.77,0,7.378,2.601,7.378,7.28v8.613c0,0.715-0.423,1.138-1.17,1.138 c-0.716,0-1.203-0.423-1.203-1.138V270.914z"/><path fill="#6CBE45" d="M251.424,279.69c0,4.713-3.575,7.15-8.027,7.15c-2.471,0-4.453-0.585-6.208-2.242 c-1.3-1.268,0.487-2.763,1.593-1.69c1.625,1.235,2.795,1.625,4.615,1.625c2.957,0,5.72-1.495,5.72-4.843v-1.755 c-1.138,2.048-3.25,2.828-5.2,2.86c-1.235,0.032-2.405-0.163-3.51-0.618c-3.022-1.234-4.875-4.192-4.94-7.475 c-0.098-3.771,1.657-6.988,5.2-8.45c1.008-0.391,2.08-0.553,3.055-0.553c1.983,0,4.258,0.747,5.331,2.535v-1.235 c0-0.715,0.422-1.17,1.17-1.17c0.715,0,1.202,0.455,1.202,1.17V279.69z M240.212,267.145h0.032 c-1.787,1.462-2.47,3.412-2.405,5.524c0.033,0.846,0.195,1.723,0.488,2.405c0.91,2.275,3.25,3.511,5.558,3.478h-0.032 c2.925-0.13,5.2-2.242,5.2-5.005v-2.567c0-2.048-0.846-3.607-2.763-4.453C244.339,265.649,241.999,265.779,240.212,267.145z"/><path fill="#6CBE45" d="M258.606,261.489c0,1.462-2.438,1.495-2.438,0v-1.463c0-1.495,2.438-1.495,2.438,0V261.489z M256.202,264.999c0-1.397,2.372-1.43,2.372-0.032v14.658c0,1.43-2.372,1.397-2.372,0V264.999z"/><path fill="#6CBE45" d="M276.579,270.914c0-2.99-2.405-5.07-5.037-5.07c-3.153,0-6.11,2.601-6.11,6.144v7.54 c0,0.715-0.423,1.138-1.17,1.138c-0.748,0-1.235-0.423-1.235-1.138v-14.561c0-1.495,2.34-1.527,2.34,0.032v2.016 c1.17-2.373,3.673-3.381,6.208-3.381c3.77,0,7.378,2.601,7.378,7.28v8.613c0,0.715-0.423,1.138-1.17,1.138 c-0.716,0-1.203-0.423-1.203-1.138V270.914z"/><path fill="#6CBE45" d="M299.036,279.69c0,4.713-3.575,7.15-8.027,7.15c-2.471,0-4.453-0.585-6.208-2.242 c-1.3-1.268,0.487-2.763,1.593-1.69c1.625,1.235,2.795,1.625,4.615,1.625c2.957,0,5.72-1.495,5.72-4.843v-1.755 c-1.138,2.048-3.25,2.828-5.2,2.86c-1.235,0.032-2.405-0.163-3.51-0.618c-3.022-1.234-4.875-4.192-4.94-7.475 c-0.098-3.771,1.657-6.988,5.2-8.45c1.008-0.391,2.08-0.553,3.055-0.553c1.983,0,4.258,0.747,5.331,2.535v-1.235 c0-0.715,0.422-1.17,1.17-1.17c0.715,0,1.202,0.455,1.202,1.17V279.69z M287.823,267.145h0.032 c-1.787,1.462-2.47,3.412-2.405,5.524c0.033,0.846,0.195,1.723,0.488,2.405c0.91,2.275,3.25,3.511,5.558,3.478h-0.032 c2.925-0.13,5.2-2.242,5.2-5.005v-2.567c0-2.048-0.846-3.607-2.763-4.453C291.951,265.649,289.61,265.779,287.823,267.145z"/><path fill="#6CBE45" d="M320.257,265.649c-3.543,0-5.947,2.893-5.947,6.598c0,1.463,0.422,3.12,1.397,4.29 c1.138,1.397,2.925,2.146,4.68,2.146c1.723,0,3.607-0.586,4.745-2.146c0.812-1.105,2.763,0.162,1.658,1.43 c-1.593,1.95-4.03,2.893-6.436,2.893c-2.438,0-4.907-1.007-6.533-2.893c-1.364-1.689-2.047-3.997-1.917-6.37 c0.26-4.81,3.673-8.093,8.612-8.093c2.341,0,4.226,0.78,5.98,2.763c0.942,1.072-0.812,2.438-1.723,1.365 C323.541,266.202,321.882,265.649,320.257,265.649z"/><path fill="#6CBE45" d="M331.404,277.837c-1.462-1.723-2.08-3.803-1.982-6.24c0.325-3.607,2.438-6.63,6.013-7.638 c0.78-0.228,1.658-0.292,2.471-0.292c0.779,0,1.56,0.064,2.404,0.292c3.543,1.008,5.753,3.998,6.046,7.638 c0.13,2.438-0.521,4.518-1.95,6.24c-1.593,1.918-3.933,2.926-6.5,2.926C335.304,280.763,332.997,279.755,331.404,277.837z M337.872,265.877c-0.617,0-1.234,0.098-1.723,0.228c-2.729,0.715-4.322,3.25-4.322,6.175c0,1.463,0.455,2.99,1.43,4.128 c1.138,1.365,2.86,2.145,4.648,2.145c1.755,0,3.542-0.845,4.68-2.145c0.91-1.105,1.43-2.665,1.43-4.062 c0-2.958-1.592-5.525-4.354-6.24C339.139,265.975,338.49,265.877,337.872,265.877z"/><path fill="#6CBE45" d="M352.008,279.495c0,0.617-0.52,1.104-1.17,1.104c-0.715,0-1.202-0.487-1.202-1.104v-19.501 c0-0.618,0.487-1.105,1.202-1.105c0.65,0,1.17,0.487,1.17,1.105V279.495z"/><path fill="#6CBE45" d="M357.435,277.837c-1.462-1.723-2.08-3.803-1.982-6.24c0.325-3.607,2.438-6.63,6.013-7.638 c0.78-0.228,1.658-0.292,2.471-0.292c0.779,0,1.56,0.064,2.404,0.292c3.543,1.008,5.753,3.998,6.046,7.638 c0.13,2.438-0.521,4.518-1.95,6.24c-1.593,1.918-3.933,2.926-6.5,2.926C361.336,280.763,359.028,279.755,357.435,277.837z M363.903,265.877c-0.617,0-1.234,0.098-1.723,0.228c-2.729,0.715-4.322,3.25-4.322,6.175c0,1.463,0.455,2.99,1.43,4.128 c1.138,1.365,2.86,2.145,4.648,2.145c1.755,0,3.542-0.845,4.68-2.145c0.91-1.105,1.43-2.665,1.43-4.062 c0-2.958-1.592-5.525-4.354-6.24C365.171,265.975,364.521,265.877,363.903,265.877z"/><path fill="#6CBE45" d="M378.462,266.624c1.04-2.178,2.99-2.763,4.843-2.763c0.747,0,1.235,0.391,1.235,1.138 c0,0.715-0.488,1.105-1.235,1.105c-3.348,0-4.777,2.665-4.777,5.947v7.346c0,0.683-0.553,1.138-1.171,1.138 c-0.715,0-1.202-0.455-1.202-1.138v-14.398c0-1.43,2.308-1.56,2.308,0V266.624z"/><path fill="#6CBE45" d="M406.802,280.274l0.032-0.032c-1.008,0.423-2.112,0.617-3.12,0.617c-1.95,0-4.226-0.845-5.33-2.859v1.527 c0,0.715-0.357,1.138-1.105,1.138c-0.747,0-1.202-0.423-1.202-1.138v-19.631c0-1.495,2.372-1.495,2.372,0v6.468 c0.976-1.723,3.088-2.633,5.266-2.633c4.875,0,8.19,3.478,8.32,8.093C412.132,275.595,410.344,278.813,406.802,280.274z M407.257,277.382c1.755-1.462,2.438-3.412,2.404-5.525c-0.032-0.845-0.228-1.722-0.487-2.404 c-0.942-2.243-3.25-3.478-5.558-3.478c-2.958,0.13-5.168,2.145-5.168,5.005v2.567c0,3.186,2.503,5.07,5.461,5.07 C405.144,278.52,406.314,278.13,407.257,277.382z"/><path fill="#6CBE45" d="M420.127,264.349c1.072-0.487,2.243-0.649,3.478-0.617c1.853,0.032,3.966,0.617,5.136,2.535v-1.235 c0-0.683,0.422-1.17,1.17-1.17c0.715,0,1.202,0.487,1.202,1.17v14.431c0,0.715-0.487,1.17-1.202,1.17 c-0.748,0-1.17-0.455-1.17-1.17v-1.56c-0.942,1.885-3.348,2.957-5.266,2.957c-1.56,0-3.315-0.422-4.68-1.397 c-2.471-1.689-3.738-4.452-3.641-7.638c0.065-3.282,1.885-6.305,5.005-7.508L420.127,264.349z M428.74,273.547v-2.567 c0-3.218-2.243-4.875-5.168-5.005c-2.308-0.033-4.647,1.202-5.558,3.478c-0.293,0.683-0.455,1.56-0.487,2.404 c-0.065,2.113,0.617,4.063,2.372,5.525c0.976,0.748,2.146,1.138,3.348,1.235C426.237,278.617,428.577,276.797,428.74,273.547z"/><path fill="#6CBE45" d="M443.494,265.649c-3.543,0-5.947,2.893-5.947,6.598c0,1.463,0.422,3.12,1.397,4.29 c1.138,1.397,2.925,2.146,4.68,2.146c1.723,0,3.607-0.586,4.745-2.146c0.812-1.105,2.763,0.162,1.658,1.43 c-1.593,1.95-4.03,2.893-6.436,2.893c-2.438,0-4.907-1.007-6.533-2.893c-1.364-1.689-2.047-3.997-1.917-6.37 c0.26-4.81,3.673-8.093,8.612-8.093c2.341,0,4.226,0.78,5.98,2.763c0.942,1.072-0.812,2.438-1.723,1.365 C446.777,266.202,445.119,265.649,443.494,265.649z"/><path fill="#6CBE45" d="M464.13,264.122c1.268-1.138,2.926,0.454,1.69,1.625l-6.078,5.622l6.695,7.378 c1.105,1.333-0.845,2.697-1.853,1.397l-6.63-7.442l-1.918,1.723v5.07c0,1.462-2.372,1.527-2.372,0v-19.437 c0-1.332,2.372-1.332,2.372,0v11.733l2.243-2.21L464.13,264.122z"/></g></g></svg>