<?xml version="1.0" encoding="utf-8"?>
<!-- Generator: Adobe Illustrator 17.1.0, SVG Export Plug-In . SVG Version: 6.00 Build 0)  -->
<!DOCTYPE svg PUBLIC "-//W3C//DTD SVG 1.1//EN" "http://www.w3.org/Graphics/SVG/1.1/DTD/svg11.dtd">
<svg version="1.1" id="Layer_1" xmlns="http://www.w3.org/2000/svg" xmlns:xlink="http://www.w3.org/1999/xlink" x="0px" y="0px"
	 viewBox="0 0 162.05 107.4" enable-background="new 0 0 162.05 107.4" xml:space="preserve">
<g>
	<path fill="#7C1F5E" d="M66.33,71.51c0,1.34-0.11,2.49-0.35,3.43c-0.24,0.94-0.56,1.7-0.98,2.29c-0.41,0.59-0.9,1.01-1.46,1.28
		c-0.57,0.27-1.19,0.4-1.86,0.4l-2.72-0.74c-0.38-0.23-0.75-0.53-1.09-0.91V66.92c0.63-0.75,1.29-1.32,1.98-1.71
		c0.69-0.39,1.56-0.59,2.63-0.59c0.58,0,1.1,0.12,1.57,0.35c0.47,0.24,0.88,0.63,1.21,1.17c0.34,0.54,0.6,1.25,0.79,2.12
		C66.24,69.14,66.33,70.22,66.33,71.51z"/>
	<g>
		<path fill="#7C1F5E" d="M114.35,18.86L100.9,68.24c-0.15-0.63-0.33-1.22-0.55-1.8c-0.6-1.54-1.45-2.85-2.54-3.93
			c-1.09-1.09-2.39-1.92-3.91-2.5c-1.52-0.57-3.21-0.86-5.05-0.86c-1.87,0-3.57,0.29-5.09,0.86c-1.53,0.58-2.85,1.41-3.95,2.5
			c-1.11,1.08-1.96,2.39-2.56,3.93c-0.14,0.35-0.26,0.71-0.37,1.09l-6.43-41.96l-33.74,5.17L45.09,0L114.35,18.86z"/>
		<path fill="#7C1F5E" d="M97.33,81.32l-1.85,6.8l-16.11-4.39l-0.63-4.09c0.32,0.44,0.68,0.85,1.07,1.23
			c1.1,1.09,2.42,1.93,3.95,2.52c1.52,0.58,3.22,0.88,5.09,0.88c1.84,0,3.53-0.3,5.05-0.88C95.2,82.88,96.35,82.19,97.33,81.32z"/>
		<path fill="#7C1F5E" d="M75.88,82.78l-8.2-53.44l-31.92,4.9L0,39.72l3.85,25.1V49.65h22.04v6.11H11.84v7.99H22.6v5.88H11.84v8.15
			h14.05v6.11H6.77l3.61,23.51l67.68-10.38L75.88,82.78z M46.26,79.31c-0.44,1.02-1.09,1.89-1.96,2.63s-1.94,1.31-3.22,1.72
			c-1.28,0.4-2.74,0.61-4.4,0.61c-0.83,0-1.67-0.08-2.5-0.24c-0.83-0.15-1.63-0.37-2.4-0.63c-0.78-0.27-1.5-0.59-2.15-0.95
			c-0.66-0.37-1.23-0.77-1.7-1.19l1.7-2.68c0.18-0.31,0.42-0.56,0.71-0.74c0.29-0.18,0.66-0.27,1.12-0.27c0.42,0,0.8,0.09,1.14,0.28
			c0.33,0.19,0.7,0.39,1.09,0.61s0.85,0.43,1.38,0.61c0.52,0.19,1.18,0.29,1.98,0.29c0.57,0,1.04-0.06,1.44-0.18
			c0.39-0.12,0.7-0.28,0.94-0.48c0.23-0.21,0.4-0.43,0.51-0.68s0.17-0.51,0.17-0.78c0-0.49-0.17-0.88-0.5-1.2
			c-0.33-0.31-0.76-0.58-1.29-0.81c-0.53-0.23-1.14-0.44-1.82-0.63c-0.68-0.2-1.38-0.42-2.08-0.67c-0.71-0.25-1.4-0.55-2.08-0.91
			c-0.68-0.35-1.29-0.8-1.82-1.34c-0.43-0.44-0.8-0.96-1.09-1.56c-0.08-0.14-0.14-0.28-0.2-0.42c-0.33-0.79-0.5-1.73-0.5-2.85
			c0-1.03,0.2-2.01,0.6-2.95c0.4-0.93,1-1.75,1.8-2.45c0.8-0.71,1.8-1.27,3.01-1.68c1.2-0.42,2.61-0.62,4.23-0.62
			c0.87,0,1.72,0.07,2.55,0.23c0.82,0.16,1.59,0.38,2.31,0.66c0.72,0.28,1.38,0.61,1.98,1c0.59,0.38,1.12,0.8,1.57,1.25l-1.64,2.57
			c-0.19,0.29-0.39,0.51-0.6,0.63c-0.22,0.13-0.49,0.19-0.81,0.19c-0.35,0-0.69-0.08-1.04-0.22c-0.34-0.15-0.72-0.31-1.11-0.49
			c-0.4-0.17-0.85-0.33-1.36-0.48c-0.5-0.15-1.07-0.22-1.71-0.22c-0.93,0-1.63,0.17-2.13,0.53c-0.49,0.35-0.74,0.84-0.74,1.47
			c0,0.45,0.16,0.83,0.48,1.12c0.32,0.3,0.75,0.56,1.28,0.79c0.54,0.23,1.14,0.44,1.81,0.65c0.68,0.2,1.37,0.43,2.07,0.68
			c0.71,0.25,1.4,0.54,2.07,0.88c0.67,0.34,1.28,0.75,1.81,1.25c0.53,0.49,0.96,1.09,1.28,1.79c0.19,0.43,0.33,0.91,0.4,1.44
			c0.06,0.34,0.08,0.71,0.08,1.1C46.92,77.18,46.7,78.29,46.26,79.31z M73.09,76.58c-0.51,1.55-1.22,2.9-2.14,4.04
			c-0.19,0.23-0.38,0.45-0.58,0.66c-0.79,0.84-1.69,1.51-2.71,2.02c-1.28,0.65-2.69,0.97-4.24,0.97c-1.27,0-2.34-0.18-3.2-0.54
			c-0.86-0.36-1.64-0.85-2.35-1.46v9.35h-7.28v-32.1h4.51c0.91,0,1.5,0.41,1.79,1.22l0.54,1.79c0.95-1.02,2.04-1.85,3.25-2.5
			s2.66-0.98,4.34-0.98c1.27,0,2.44,0.28,3.52,0.85c1.08,0.56,2.01,1.38,2.8,2.44c0.78,1.07,1.4,2.37,1.84,3.91
			c0.45,1.55,0.67,3.3,0.67,5.26C73.85,73.34,73.6,75.03,73.09,76.58z"/>
		<path fill="#7C1F5E" d="M93.73,71.69c0,2.42-0.39,4.22-1.18,5.4c-0.79,1.18-2.03,1.77-3.7,1.77c-1.73,0-2.99-0.59-3.79-1.77
			c-0.8-1.18-1.2-2.98-1.2-5.4c0-2.41,0.4-4.2,1.2-5.38c0.8-1.17,2.06-1.76,3.79-1.76c1.67,0,2.91,0.59,3.7,1.76
			C93.34,67.49,93.73,69.28,93.73,71.69z"/>
		<path fill="#7C1F5E" d="M120.38,59.83l-0.47,5.35c-0.08,0.35-0.21,0.58-0.39,0.71c-0.18,0.13-0.42,0.19-0.74,0.19
			c-0.12,0-0.29-0.01-0.49-0.03c-0.2-0.01-0.41-0.03-0.63-0.05c-0.22-0.03-0.45-0.05-0.67-0.08c-0.23-0.02-0.44-0.03-0.63-0.03
			c-1.06,0-1.91,0.28-2.55,0.85c-0.63,0.56-1.17,1.34-1.61,2.35v14.8h-7.28V59.52h4.32c0.36,0,0.66,0.03,0.91,0.1
			c0.24,0.06,0.44,0.16,0.61,0.29c0.16,0.13,0.29,0.31,0.37,0.53c0.09,0.22,0.17,0.48,0.23,0.8l0.37,2.04
			c0.76-1.31,1.62-2.35,2.6-3.1c0.98-0.75,2.1-1.13,3.37-1.13C118.8,59.05,119.69,59.31,120.38,59.83z"/>
		<path fill="#7C1F5E" d="M138.31,59.83l-0.47,5.35c-0.08,0.35-0.21,0.58-0.39,0.71s-0.42,0.19-0.74,0.19
			c-0.12,0-0.29-0.01-0.49-0.03c-0.2-0.01-0.41-0.03-0.63-0.05c-0.22-0.03-0.45-0.05-0.67-0.08c-0.23-0.02-0.44-0.03-0.63-0.03
			c-1.06,0-1.91,0.28-2.55,0.85c-0.63,0.56-1.17,1.34-1.61,2.35v14.8h-7.28V59.52h4.32c0.36,0,0.66,0.03,0.91,0.1
			c0.24,0.06,0.44,0.16,0.61,0.29c0.16,0.13,0.29,0.31,0.37,0.53c0.09,0.22,0.16,0.48,0.23,0.8l0.37,2.04
			c0.76-1.31,1.62-2.35,2.6-3.1c0.98-0.75,2.1-1.13,3.37-1.13C136.73,59.05,137.62,59.31,138.31,59.83z"/>
		<path fill="#7C1F5E" d="M161.21,72.89c0.21-0.08,0.38-0.22,0.51-0.42c0.12-0.2,0.21-0.48,0.26-0.82c0.04-0.35,0.07-0.79,0.07-1.34
			c0-1.76-0.27-3.33-0.81-4.71c-0.54-1.39-1.3-2.56-2.26-3.52c-0.96-0.95-2.12-1.68-3.45-2.18c-1.34-0.5-2.82-0.75-4.43-0.75
			c-1.87,0-3.54,0.32-5.02,0.96c-1.48,0.64-2.74,1.51-3.79,2.61c-1.04,1.09-1.84,2.37-2.39,3.83c-0.56,1.45-0.84,3-0.84,4.63
			c0,2.16,0.33,4.06,0.98,5.68c0.65,1.63,1.53,3,2.65,4.09c1.12,1.1,2.43,1.93,3.93,2.48c1.49,0.56,3.1,0.84,4.81,0.84
			c0.83,0,1.7-0.06,2.62-0.18c0.91-0.12,1.83-0.33,2.74-0.63c0.92-0.31,1.81-0.73,2.68-1.27s1.68-1.24,2.44-2.11l-2.12-2.6
			c-0.3-0.43-0.74-0.64-1.32-0.64c-0.43,0-0.85,0.1-1.25,0.31c-0.4,0.2-0.84,0.43-1.32,0.68c-0.48,0.25-1.02,0.48-1.63,0.68
			c-0.61,0.2-1.34,0.3-2.19,0.3c-1.58,0-2.87-0.45-3.88-1.37c-1-0.92-1.62-2.39-1.85-4.43h14.05
			C160.73,73.01,161,72.97,161.21,72.89z M146.44,68.78c0.25-1.49,0.77-2.63,1.55-3.42c0.79-0.79,1.87-1.19,3.25-1.19
			c0.78,0,1.45,0.14,1.99,0.4c0.55,0.27,0.99,0.62,1.33,1.05c0.34,0.43,0.58,0.92,0.73,1.47c0.15,0.55,0.22,1.11,0.22,1.69H146.44z"
			/>
	</g>
</g>
</svg>
