<svg xmlns="http://www.w3.org/2000/svg" id="Layer_01" data-name="Layer 01" viewBox="0 0 536.93 92.84"><defs><style>.cls-1{fill:#878787}.cls-2{fill:#c1c1c1}.cls-3{fill:#c2c1c0}.cls-4{fill:none;stroke:red;stroke-linecap:round;stroke-linejoin:round;stroke-width:.25px}.cls-5{fill:#333}</style></defs><title>Artboard 2</title><path d="M536.53,59.65A.6.6,0,0,0,536,59a78.57,78.57,0,0,0-12.15-2.5,63.19,63.19,0,0,0-9-.52c-1.27,0-2.44.1-3.42.2a21.62,21.62,0,0,0-3.37.65,48.87,48.87,0,0,0-9.58,3.44c-4.41,2.35-6.07,3.53-7.91,4.17a14.69,14.69,0,0,1-7.82,0c-1.85-.64-3.51-1.82-7.92-4.17a48.41,48.41,0,0,0-9.58-3.44A21.75,21.75,0,0,0,462,56.2c-1-.1-2.16-.18-3.42-.2a63.11,63.11,0,0,0-9,.52A78.57,78.57,0,0,0,437.41,59a.58.58,0,0,0-.48.63c-.13,3.23-.27,6.47-.4,9.7a7.06,7.06,0,0,1,.86,2.43,30.68,30.68,0,0,0,3.39,9.53,26.54,26.54,0,0,0,7.9,8.46A17.72,17.72,0,0,0,453.32,92a21.27,21.27,0,0,0,4.81.84,25.16,25.16,0,0,0,4.83-.18,26.36,26.36,0,0,0,4.38-1,18.84,18.84,0,0,0,3.61-1.52,22.62,22.62,0,0,0,2.71-1.83,24.08,24.08,0,0,0,4.22-4.09,22.21,22.21,0,0,0,1.74-2.6c.68-1.19,1.75-3.82,2.57-5.85a31.2,31.2,0,0,1,1.89-4.24,2.35,2.35,0,0,1,.85-.81,3.55,3.55,0,0,1,3.6,0,2.32,2.32,0,0,1,.84.81,30.91,30.91,0,0,1,1.9,4.24,61.65,61.65,0,0,0,2.57,5.85,23.35,23.35,0,0,0,1.73,2.6,24.49,24.49,0,0,0,4.23,4.09,22.62,22.62,0,0,0,2.71,1.83,18.76,18.76,0,0,0,3.6,1.52,26.25,26.25,0,0,0,4.39,1,25.06,25.06,0,0,0,4.82.18,21.18,21.18,0,0,0,4.81-.84,17.42,17.42,0,0,0,4.64-2.18,26.43,26.43,0,0,0,7.9-8.46,30.41,30.41,0,0,0,3.39-9.53,7.33,7.33,0,0,1,.87-2.43C536.79,66.12,536.66,62.88,536.53,59.65Zm-57.1,15.62A23.48,23.48,0,0,1,476.78,82a14,14,0,0,1-3.41,3.64,17.68,17.68,0,0,1-5.18,3.33,24.2,24.2,0,0,1-9.31,1.63,17.85,17.85,0,0,1-9.51-3,20.61,20.61,0,0,1-6.93-8,19.51,19.51,0,0,1-1.86-9.42A11.75,11.75,0,0,1,443,63.3a12.37,12.37,0,0,1,5.66-3.66,26.25,26.25,0,0,1,8-1.39,36.6,36.6,0,0,1,9.29,1,25,25,0,0,1,8.21,3.4,13.44,13.44,0,0,1,5,5.76A11.31,11.31,0,0,1,479.43,75.27ZM531,79.57a20.69,20.69,0,0,1-6.93,8,17.88,17.88,0,0,1-9.51,3,24.16,24.16,0,0,1-9.31-1.63,17.41,17.41,0,0,1-5.18-3.33A14,14,0,0,1,496.67,82,23.47,23.47,0,0,1,494,75.27a11.24,11.24,0,0,1,.27-6.9,13.44,13.44,0,0,1,5-5.76,25,25,0,0,1,8.21-3.4,36.56,36.56,0,0,1,9.29-1,26.3,26.3,0,0,1,8,1.39,12.33,12.33,0,0,1,5.65,3.66,11.69,11.69,0,0,1,2.41,6.85A19.61,19.61,0,0,1,531,79.57Z" class="cls-1"/><path d="M479.43,75.27A23.48,23.48,0,0,1,476.78,82a14,14,0,0,1-3.41,3.64,17.68,17.68,0,0,1-5.18,3.33,24.2,24.2,0,0,1-9.31,1.63,17.85,17.85,0,0,1-9.51-3,20.61,20.61,0,0,1-6.93-8,19.51,19.51,0,0,1-1.86-9.42A11.75,11.75,0,0,1,443,63.3a12.37,12.37,0,0,1,5.66-3.66,26.25,26.25,0,0,1,8-1.39,36.6,36.6,0,0,1,9.29,1,25,25,0,0,1,8.21,3.4,13.44,13.44,0,0,1,5,5.76A11.31,11.31,0,0,1,479.43,75.27Z" class="cls-2"/><path d="M531,79.57a20.69,20.69,0,0,1-6.93,8,17.88,17.88,0,0,1-9.51,3,24.16,24.16,0,0,1-9.31-1.63,17.41,17.41,0,0,1-5.18-3.33A14,14,0,0,1,496.67,82,23.47,23.47,0,0,1,494,75.27a11.24,11.24,0,0,1,.27-6.9,13.44,13.44,0,0,1,5-5.76,25,25,0,0,1,8.21-3.4,36.56,36.56,0,0,1,9.29-1,26.3,26.3,0,0,1,8,1.39,12.33,12.33,0,0,1,5.65,3.66,11.69,11.69,0,0,1,2.41,6.85A19.61,19.61,0,0,1,531,79.57Z" class="cls-2"/><path d="M90.55,28.19a2,2,0,0,1-1.44-1.51A42.44,42.44,0,0,1,88,6.6,2,2,0,0,1,89.3,4.94a28.59,28.59,0,0,1,6.45-2.15A53.3,53.3,0,0,1,102,1.84c2.11-.21,4.36-.35,6.41-.38s3.89.07,6.38.14,5.62.09,9.89.09,7.4,0,9.89-.09,4.33-.16,6.38-.14,4.3.17,6.41.38a53.3,53.3,0,0,1,6.28.95,28.59,28.59,0,0,1,6.45,2.15A2,2,0,0,1,161.4,6.6a42.44,42.44,0,0,1-1.08,20.07,2,2,0,0,1-1.44,1.51,20.56,20.56,0,0,1-6.09,1.32,35.34,35.34,0,0,1-4.8,0c-1.78-.12-4-.33-5.75-.53a40.36,40.36,0,0,1-4.31-.69,16.43,16.43,0,0,1-3.42-1.1,4.78,4.78,0,0,1-1.88-1.61,16.83,16.83,0,0,1-1.46-2.48c-.45-.92-.85-1.89-1.39-3.13a24.1,24.1,0,0,0-2-3.81,3.57,3.57,0,0,0-6.14,0,24.1,24.1,0,0,0-2,3.81c-.54,1.23-.94,2.21-1.39,3.13a16.83,16.83,0,0,1-1.46,2.48,4.78,4.78,0,0,1-1.88,1.61,16.43,16.43,0,0,1-3.42,1.1,40.36,40.36,0,0,1-4.31.69c-1.75.21-4,.42-5.75.53a35.34,35.34,0,0,1-4.8,0A20.56,20.56,0,0,1,90.55,28.19Z" class="cls-3"/><path d="M163.63,20.5a48.19,48.19,0,0,0,.11-12.16.41.41,0,0,0-.2-.33,5,5,0,0,0-2-.78,43.22,43.22,0,0,1,0,14,4.85,4.85,0,0,0,1.8-.34A.4.4,0,0,0,163.63,20.5Z" class="cls-1"/><path d="M85.79,20.5a48.19,48.19,0,0,1-.11-12.16.41.41,0,0,1,.2-.33,5,5,0,0,1,2-.78,43.22,43.22,0,0,0,0,14,4.85,4.85,0,0,1-1.8-.34A.4.4,0,0,1,85.79,20.5Z" class="cls-1"/><path d="M5,12A2.58,2.58,0,1,1,5.8,8.5,2.58,2.58,0,0,1,5,12Z" class="cls-4"/><path d="M21.66,21.07C15.5,30.78.48,24.59,3,13.36A3.73,3.73,0,0,0,6.7,7.47C15.79.43,27.81,11.36,21.66,21.07Z" class="cls-4"/><path d="M36.13,21.07C30,11.36,42,.43,51.09,7.47a3.73,3.73,0,0,0,3.73,5.89C57.31,24.59,42.29,30.78,36.13,21.07Z" class="cls-4"/><path d="M56.38,11.21a2.58,2.58,0,1,1-.84-3.55A2.58,2.58,0,0,1,56.38,11.21Z" class="cls-4"/><path d="M57.53,6.57l-5.93-1a14.58,14.58,0,0,0-14.77.62,2.58,2.58,0,0,1-1.27.34,5.54,5.54,0,0,1-.61,0,5.83,5.83,0,0,1-.75-.09,4.14,4.14,0,0,1-.81-.24c-.27-.11-.55-.25-.79-.37a3.14,3.14,0,0,0-.69-.33A5.2,5.2,0,0,0,30.8,5.3c-.49,0-1.13,0-1.91,0s-1.41,0-1.9,0a5.2,5.2,0,0,0-1.11.15,3.45,3.45,0,0,0-.7.33c-.23.12-.51.26-.78.37a4.14,4.14,0,0,1-.81.24,5.83,5.83,0,0,1-.75.09,5.54,5.54,0,0,1-.61,0A2.58,2.58,0,0,1,21,6.17,14.58,14.58,0,0,0,6.19,5.55l-5.93,1a20.25,20.25,0,0,0,.17,7.29,28.66,28.66,0,0,0,1.9,6.41,14.39,14.39,0,0,0,2.76,4.12,7.68,7.68,0,0,0,2.79,1.86,12.93,12.93,0,0,0,6,.9A16.16,16.16,0,0,0,18.44,26a11.21,11.21,0,0,0,3.22-2,13.22,13.22,0,0,0,2.24-2.63,14.15,14.15,0,0,0,1.23-2.52,17.46,17.46,0,0,0,1.11-6,.4.4,0,0,0-.25-.43,5.43,5.43,0,0,1-2.26-2.12.39.39,0,0,1,0-.43A2,2,0,0,1,24,9.38a2.87,2.87,0,0,1,.77-.66,5.37,5.37,0,0,1,.93-.42,4.43,4.43,0,0,1,.89-.22,13,13,0,0,1,2.31-.15,13,13,0,0,1,2.32.15,4.61,4.61,0,0,1,.89.22,5.37,5.37,0,0,1,.93.42,2.87,2.87,0,0,1,.77.66,2,2,0,0,1,.28.43.39.39,0,0,1,0,.43,5.4,5.4,0,0,1-2.27,2.12.41.41,0,0,0-.24.43,17.46,17.46,0,0,0,1.11,6,14.15,14.15,0,0,0,1.23,2.52,13.22,13.22,0,0,0,2.24,2.63,11.21,11.21,0,0,0,3.22,2,16.16,16.16,0,0,0,4.52,1.18,12.93,12.93,0,0,0,6-.9,7.68,7.68,0,0,0,2.79-1.86,14.39,14.39,0,0,0,2.76-4.12,28.66,28.66,0,0,0,1.9-6.41A20.25,20.25,0,0,0,57.53,6.57ZM1.41,11.21A2.58,2.58,0,1,1,5,12,2.58,2.58,0,0,1,1.41,11.21Zm20.25,9.86C15.5,30.78.48,24.59,3,13.36A3.73,3.73,0,0,0,6.7,7.47C15.79.43,27.81,11.36,21.66,21.07Zm14.47,0C30,11.36,42,.43,51.09,7.47a3.73,3.73,0,0,0,3.73,5.89C57.31,24.59,42.29,30.78,36.13,21.07Zm20.25-9.86a2.58,2.58,0,1,1-.84-3.55A2.58,2.58,0,0,1,56.38,11.21Z" class="cls-1"/><path d="M1.41,11.21A2.58,2.58,0,1,1,5,12,2.58,2.58,0,0,1,1.41,11.21Z" class="cls-5"/><path d="M21.66,21.07C15.5,30.78.48,24.59,3,13.36A3.73,3.73,0,0,0,6.7,7.47C15.79.43,27.81,11.36,21.66,21.07Z" class="cls-2"/><path d="M54.82,13.36c2.49,11.23-12.53,17.42-18.69,7.71S42,.43,51.09,7.47A3.73,3.73,0,0,0,54.82,13.36Z" class="cls-2"/><path d="M56.38,11.21a2.58,2.58,0,1,1-.84-3.55A2.58,2.58,0,0,1,56.38,11.21Z" class="cls-5"/><path d="M199.55,25.63a31.56,31.56,0,0,1-.26-4.16,37,37,0,0,1,.41-5.39A36.62,36.62,0,0,1,201,10a7.72,7.72,0,0,1,2.31-3.67,12.64,12.64,0,0,1,5.56-2.65,61.5,61.5,0,0,1,11.8-1.63,56,56,0,0,1,12.21.61,12.13,12.13,0,0,1,5.8,2.47,4.89,4.89,0,0,1,1.67,2.35,5.87,5.87,0,0,1,.28,2.29,9.39,9.39,0,0,1-.81,2.86c-.54,1.33-1.41,3.24-2.14,4.81s-1.33,2.81-2.1,4.38-1.71,3.47-2.29,4.44a6.4,6.4,0,0,1-3.48,3.09,12,12,0,0,1-2.3.68c-1.11.23-2.74.48-4.22.64a39.53,39.53,0,0,1-4.92.18c-2.11,0-5-.13-7.14-.27a44.88,44.88,0,0,1-4.84-.51,14.92,14.92,0,0,1-3.4-.92,7.18,7.18,0,0,1-2.9-2.33A2.15,2.15,0,0,1,199.55,25.63Z" class="cls-3"/><path d="M287.51,25.63a31.53,31.53,0,0,0,.26-4.16,36.91,36.91,0,0,0-.41-5.39A36.59,36.59,0,0,0,286.09,10a7.72,7.72,0,0,0-2.31-3.67,12.64,12.64,0,0,0-5.56-2.65,61.5,61.5,0,0,0-11.8-1.63,56,56,0,0,0-12.21.61,12.13,12.13,0,0,0-5.81,2.47,4.89,4.89,0,0,0-1.67,2.35,5.87,5.87,0,0,0-.28,2.29,9.39,9.39,0,0,0,.81,2.86c.54,1.33,1.41,3.24,2.14,4.81s1.33,2.81,2.1,4.38,1.71,3.47,2.29,4.44a6.4,6.4,0,0,0,3.48,3.09,12,12,0,0,0,2.3.68c1.11.23,2.74.48,4.22.64a39.53,39.53,0,0,0,4.92.18c2.11,0,5-.13,7.14-.27a44.88,44.88,0,0,0,4.84-.51,14.92,14.92,0,0,0,3.4-.92,7.18,7.18,0,0,0,2.9-2.33A2.15,2.15,0,0,0,287.51,25.63Z" class="cls-3"/><path d="M196.82,21.13c0,.33.16.46.49.43,2-.17,2-.76,2-1.67a40.77,40.77,0,0,1,.42-4.15A37.36,37.36,0,0,1,201,10a6.78,6.78,0,0,1,2.29-3.53,13.44,13.44,0,0,1,4.18-2,35.16,35.16,0,0,1,5.61-1.19c2.29-.33,5.14-.62,7.41-.77s4-.17,5.59-.13,3.19.11,4.41.23a8,8,0,0,1,3,.73,8.59,8.59,0,0,1,2.43,1.91,6.23,6.23,0,0,1,1.29,2.22,5.87,5.87,0,0,1,.28,2.29,9.38,9.38,0,0,1-.81,2.86c-.54,1.33-1.41,3.24-2.14,4.81s-1.33,2.81-1.95,4.07-1.24,2.52-1.64,3.31a4.57,4.57,0,0,0-.59,1.35.78.78,0,0,0,.38.65,2.25,2.25,0,0,0,1,.45c.39.07.83,0,1.6-1.05a38.89,38.89,0,0,0,3-5.52c1.09-2.37,2.19-5,2.91-6.8a11.6,11.6,0,0,1,1.52-3.07c.43-.46.93-.52,2.86-.6,1.93.08,2.43.14,2.86.6a11.6,11.6,0,0,1,1.52,3.07c.73,1.76,1.82,4.43,2.91,6.8a38.86,38.86,0,0,0,3,5.52c.77,1.07,1.21,1.12,1.6,1.05a2.25,2.25,0,0,0,1-.45.78.78,0,0,0,.38-.65,4.56,4.56,0,0,0-.59-1.35c-.4-.79-1-2.05-1.64-3.31s-1.21-2.49-1.95-4.07S251,14,250.43,12.64a9.38,9.38,0,0,1-.81-2.86,5.87,5.87,0,0,1,.28-2.29,6.23,6.23,0,0,1,1.29-2.22,8.59,8.59,0,0,1,2.43-1.91,8,8,0,0,1,3-.73c1.22-.12,2.78-.2,4.41-.23s3.32,0,5.59.13,5.13.45,7.41.77a35.16,35.16,0,0,1,5.61,1.19,13.44,13.44,0,0,1,4.18,2A6.78,6.78,0,0,1,286.09,10a37.34,37.34,0,0,1,1.24,5.73,40.86,40.86,0,0,1,.42,4.15c0,.91,0,1.49,2,1.67.33,0,.48-.1.49-.43.18-3.7.22-5.84.14-7.55a24,24,0,0,0-.53-4.27,4.46,4.46,0,0,0-1-2.24,12.31,12.31,0,0,0-2.89-2.24,28.38,28.38,0,0,0-4.87-2.31,32.18,32.18,0,0,0-6-1.47,72.1,72.1,0,0,0-8-.77c-3.12-.14-6.72-.15-10.64,0s-8.16.44-12.89.36c-4.73.08-9-.22-12.89-.36S223.12.14,220,.28A72.1,72.1,0,0,0,212,1a32.18,32.18,0,0,0-6,1.47,28.39,28.39,0,0,0-4.87,2.31,12.31,12.31,0,0,0-2.89,2.24,4.46,4.46,0,0,0-1,2.24,24,24,0,0,0-.53,4.27C196.6,15.28,196.64,17.42,196.82,21.13Z" class="cls-1"/><path d="M360.84,14.79a18.76,18.76,0,0,1-.8,3.73,24.26,24.26,0,0,1-1.53,3.68,11.73,11.73,0,0,1-1.5,2.26,6.57,6.57,0,0,1-1.64,1.45A11.92,11.92,0,0,1,352.8,27a17.85,17.85,0,0,1-3.59.78,50,50,0,0,1-5.11.31,42.39,42.39,0,0,1-5-.16,24.11,24.11,0,0,1-5-1,45.89,45.89,0,0,1-4.84-2,8.53,8.53,0,0,1-2.65-1.62,8.39,8.39,0,0,1-1.71-3.05,23.67,23.67,0,0,1-1.14-5,18.07,18.07,0,0,1,0-4.63,8.3,8.3,0,0,1,.94-2.8,4,4,0,0,1,1.64-1.74A15,15,0,0,1,330.2,5a57.6,57.6,0,0,1,6.35-1,50.67,50.67,0,0,1,6.86,0,42.38,42.38,0,0,1,6.74.78,27.79,27.79,0,0,1,5.74,1.89,12.17,12.17,0,0,1,3.39,2.21,4.83,4.83,0,0,1,1.48,2.49A10.23,10.23,0,0,1,360.84,14.79Z" class="cls-4"/><path d="M410.91,15.29a24.29,24.29,0,0,1-1.14,5,8.24,8.24,0,0,1-1.72,3.05A8.3,8.3,0,0,1,405.4,25a44.19,44.19,0,0,1-4.84,2,24,24,0,0,1-5,1,42.39,42.39,0,0,1-5,.16,50,50,0,0,1-5.11-.31A17.54,17.54,0,0,1,381.9,27a12.24,12.24,0,0,1-2.58-1.12,6.52,6.52,0,0,1-1.63-1.45,11.73,11.73,0,0,1-1.5-2.26,23.27,23.27,0,0,1-1.53-3.68,18.8,18.8,0,0,1-.81-3.73,10.79,10.79,0,0,1,.08-3.43,4.85,4.85,0,0,1,1.49-2.49,12,12,0,0,1,3.39-2.21,27.79,27.79,0,0,1,5.74-1.89A42.39,42.39,0,0,1,391.28,4a50.66,50.66,0,0,1,6.86,0,56.86,56.86,0,0,1,6.35,1,14.92,14.92,0,0,1,3.8,1.12,4,4,0,0,1,1.64,1.74,8.3,8.3,0,0,1,.94,2.8A18.07,18.07,0,0,1,410.91,15.29Z" class="cls-4"/><path d="M415.08,11.18c-.12-1.32-.34-2.62-.57-3.92-.45-2.54-.5-2.75-2.93-3.76-4.9-2-9.74-2.4-14.9-2.37a64.81,64.81,0,0,0-15.06,1.73c-4.93,1.19-9,4.32-14.27,4.91C362.11,7.18,358,4,353.07,2.86a64.66,64.66,0,0,0-15-1.73c-5.16,0-10,.34-14.91,2.38-2.43,1-2.47,1.21-2.92,3.75-.23,1.3-.45,2.6-.57,3.92a22,22,0,0,0,.26,6c1.07,6,3.83,8.84,9.54,10.67a46.19,46.19,0,0,0,15,2.06c4-.06,11-.13,14.12-4.11a36.31,36.31,0,0,0,3.76-7c1.12-2.33,1.88-4.37,5.06-4.37s3.94,2,5,4.38a37.13,37.13,0,0,0,3.77,7c3.07,4,10.14,4,14.13,4.11a46.07,46.07,0,0,0,15-2.06c5.72-1.83,8.48-4.68,9.55-10.67A22,22,0,0,0,415.08,11.18Zm-54.24,3.61a18.76,18.76,0,0,1-.8,3.73,24.26,24.26,0,0,1-1.53,3.68,11.73,11.73,0,0,1-1.5,2.26,6.57,6.57,0,0,1-1.64,1.45A11.92,11.92,0,0,1,352.8,27a17.85,17.85,0,0,1-3.59.78,50,50,0,0,1-5.11.31,42.39,42.39,0,0,1-5-.16,24.11,24.11,0,0,1-5-1,45.89,45.89,0,0,1-4.84-2,8.53,8.53,0,0,1-2.65-1.62,8.39,8.39,0,0,1-1.71-3.05,23.67,23.67,0,0,1-1.14-5,18.07,18.07,0,0,1,0-4.63,8.3,8.3,0,0,1,.94-2.8,4,4,0,0,1,1.64-1.74A15,15,0,0,1,330.2,5a57.6,57.6,0,0,1,6.35-1,50.67,50.67,0,0,1,6.86,0,42.38,42.38,0,0,1,6.74.78,27.79,27.79,0,0,1,5.74,1.89,12.17,12.17,0,0,1,3.39,2.21,4.83,4.83,0,0,1,1.48,2.49A10.23,10.23,0,0,1,360.84,14.79Zm50.07.5a24.29,24.29,0,0,1-1.14,5,8.24,8.24,0,0,1-1.72,3.05A8.3,8.3,0,0,1,405.4,25a44.19,44.19,0,0,1-4.84,2,24,24,0,0,1-5,1,42.39,42.39,0,0,1-5,.16,50,50,0,0,1-5.11-.31A17.54,17.54,0,0,1,381.9,27a12.24,12.24,0,0,1-2.58-1.12,6.52,6.52,0,0,1-1.63-1.45,11.73,11.73,0,0,1-1.5-2.26,23.27,23.27,0,0,1-1.53-3.68,18.8,18.8,0,0,1-.81-3.73,10.79,10.79,0,0,1,.08-3.43,4.85,4.85,0,0,1,1.49-2.49,12,12,0,0,1,3.39-2.21,27.79,27.79,0,0,1,5.74-1.89A42.39,42.39,0,0,1,391.28,4a50.66,50.66,0,0,1,6.86,0,56.86,56.86,0,0,1,6.35,1,14.92,14.92,0,0,1,3.8,1.12,4,4,0,0,1,1.64,1.74,8.3,8.3,0,0,1,.94,2.8A18.07,18.07,0,0,1,410.91,15.29Z" class="cls-1"/><path d="M360.76,11.36a10.23,10.23,0,0,1,.08,3.43,18.76,18.76,0,0,1-.8,3.73,24.26,24.26,0,0,1-1.53,3.68,11.73,11.73,0,0,1-1.5,2.26,6.57,6.57,0,0,1-1.64,1.45A11.92,11.92,0,0,1,352.8,27a17.85,17.85,0,0,1-3.59.78,50,50,0,0,1-5.11.31,42.39,42.39,0,0,1-5-.16,24.11,24.11,0,0,1-5-1,45.89,45.89,0,0,1-4.84-2,8.53,8.53,0,0,1-2.65-1.62,8.39,8.39,0,0,1-1.71-3.05,23.67,23.67,0,0,1-1.14-5,18.07,18.07,0,0,1,0-4.63,8.3,8.3,0,0,1,.94-2.8,4,4,0,0,1,1.64-1.74A15,15,0,0,1,330.2,5a57.6,57.6,0,0,1,6.35-1,50.67,50.67,0,0,1,6.86,0,42.38,42.38,0,0,1,6.74.78,27.79,27.79,0,0,1,5.74,1.89,12.17,12.17,0,0,1,3.39,2.21A4.83,4.83,0,0,1,360.76,11.36Z" class="cls-3"/><path d="M410.91,15.29a24.29,24.29,0,0,1-1.14,5,8.24,8.24,0,0,1-1.72,3.05A8.3,8.3,0,0,1,405.4,25a44.19,44.19,0,0,1-4.84,2,24,24,0,0,1-5,1,42.39,42.39,0,0,1-5,.16,50,50,0,0,1-5.11-.31A17.54,17.54,0,0,1,381.9,27a12.24,12.24,0,0,1-2.58-1.12,6.52,6.52,0,0,1-1.63-1.45,11.73,11.73,0,0,1-1.5-2.26,23.27,23.27,0,0,1-1.53-3.68,18.8,18.8,0,0,1-.81-3.73,10.79,10.79,0,0,1,.08-3.43,4.85,4.85,0,0,1,1.49-2.49,12,12,0,0,1,3.39-2.21,27.79,27.79,0,0,1,5.74-1.89A42.39,42.39,0,0,1,391.28,4a50.66,50.66,0,0,1,6.86,0,56.86,56.86,0,0,1,6.35,1,14.92,14.92,0,0,1,3.8,1.12,4,4,0,0,1,1.64,1.74,8.3,8.3,0,0,1,.94,2.8A18.07,18.07,0,0,1,410.91,15.29Z" class="cls-3"/><path d="M486.35,8.43a13.21,13.21,0,0,1-.39,3c-.27,1.29-.66,3-1.16,4.74a46.49,46.49,0,0,1-1.66,5,20.64,20.64,0,0,1-1.69,3.24,7.72,7.72,0,0,1-1.34,1.69,8.31,8.31,0,0,1-1.81,1.24,15.47,15.47,0,0,1-2.71,1,27.32,27.32,0,0,1-4.25.92,35.08,35.08,0,0,1-5.09.21c-1.77,0-3.6-.16-5.17-.34a25.64,25.64,0,0,1-3.87-.68A5.53,5.53,0,0,1,455,27.42,6.17,6.17,0,0,1,453.24,25a25.08,25.08,0,0,1-1.54-5.17,39,39,0,0,1-.7-6.28,19.28,19.28,0,0,1,.34-4.26,7.24,7.24,0,0,1,.94-2.61,7,7,0,0,1,2-2,10.39,10.39,0,0,1,2.82-1.34,26.5,26.5,0,0,1,3.8-.81c1.42-.2,3-.35,4.67-.51s3.57-.34,5.39-.34a36.2,36.2,0,0,1,5.27.39,31.14,31.14,0,0,1,4.64.93A12.39,12.39,0,0,1,484,4.44a5.18,5.18,0,0,1,1.76,1.72A4.65,4.65,0,0,1,486.35,8.43Z" class="cls-4"/><path d="M533.34,13.55a39,39,0,0,1-.69,6.28A25,25,0,0,1,531.1,25a6.17,6.17,0,0,1-1.74,2.42,5.53,5.53,0,0,1-2.23,1.07,25.41,25.41,0,0,1-3.87.68c-1.57.18-3.4.3-5.17.34A35.08,35.08,0,0,1,513,29.3a27.32,27.32,0,0,1-4.25-.92,15.47,15.47,0,0,1-2.71-1,8.31,8.31,0,0,1-1.81-1.24,8,8,0,0,1-1.34-1.69,19.9,19.9,0,0,1-1.68-3.24,44.31,44.31,0,0,1-1.67-5c-.49-1.75-.89-3.45-1.16-4.74a13.21,13.21,0,0,1-.39-3,4.65,4.65,0,0,1,.59-2.27,5.18,5.18,0,0,1,1.76-1.72A12.56,12.56,0,0,1,503.48,3a31,31,0,0,1,4.65-.93,36,36,0,0,1,5.27-.39c1.81,0,3.68.17,5.38.34s3.25.31,4.67.51a26.21,26.21,0,0,1,3.8.81,10.45,10.45,0,0,1,2.83,1.34,7,7,0,0,1,2,2A7.06,7.06,0,0,1,533,9.29,19.27,19.27,0,0,1,533.34,13.55Z" class="cls-4"/><path d="M536.91,8.5q0-.72,0-1.44c0-1-.08-1.95-.15-2.92s-.7-.81-1.3-1l-2.61-.63c-1.44-.35-2.89-.68-4.33-1-2-.44-4.07-.84-6.14-1.1A55.3,55.3,0,0,0,507.2.58c-5,.75-9.88,2.08-15,2.13s-10-1.38-15-2.13A55.45,55.45,0,0,0,462,.46c-2.06.26-4.1.66-6.13,1.1-1.45.31-2.9.65-4.34,1l-2.62.64c-.59.14-1.21.12-1.27,1s-.13,1.94-.16,2.91c0,.48,0,1,0,1.44,0,.14-.08,1.28.1,1.4.39.26.84.36,1.09.84a4.93,4.93,0,0,1,.33,2.14c.14,1.91.33,3.82.63,5.72.4,2.59,1.37,6.64,3.18,8.81a8.15,8.15,0,0,0,5,2.64,39.61,39.61,0,0,0,15.11.48c5.51-.89,9.57-2.08,12-7.86,1.22-2.89,2-5.92,3.27-8.79.85-1.93,1.43-3.61,4-3.61s3.18,1.68,4,3.61c1.27,2.87,2,5.9,3.27,8.79,2.44,5.78,6.5,7,12,7.86a39.61,39.61,0,0,0,15.11-.48,8,8,0,0,0,5-2.64c1.81-2.17,2.78-6.22,3.18-8.81.3-1.9.49-3.81.63-5.73a5,5,0,0,1,.33-2.14c.25-.47.71-.57,1.09-.83C537,9.78,536.91,8.63,536.91,8.5ZM486,11.43c-.27,1.29-.66,3-1.16,4.74a46.49,46.49,0,0,1-1.66,5,20.64,20.64,0,0,1-1.69,3.24,7.72,7.72,0,0,1-1.34,1.69,8.31,8.31,0,0,1-1.81,1.24,15.47,15.47,0,0,1-2.71,1,27.32,27.32,0,0,1-4.25.92,35.08,35.08,0,0,1-5.09.21c-1.77,0-3.6-.16-5.17-.34a25.64,25.64,0,0,1-3.87-.68A5.53,5.53,0,0,1,455,27.42,6.17,6.17,0,0,1,453.24,25a25.08,25.08,0,0,1-1.54-5.17,39,39,0,0,1-.7-6.28,19.28,19.28,0,0,1,.34-4.26,7.24,7.24,0,0,1,.94-2.61,7,7,0,0,1,2-2,10.39,10.39,0,0,1,2.82-1.34,26.5,26.5,0,0,1,3.8-.81c1.42-.2,3-.35,4.67-.51s3.57-.34,5.39-.34a36.2,36.2,0,0,1,5.27.39,31.14,31.14,0,0,1,4.64.93A12.39,12.39,0,0,1,484,4.44a5.18,5.18,0,0,1,1.76,1.72,4.65,4.65,0,0,1,.59,2.27A13.21,13.21,0,0,1,486,11.43Zm46.69,8.4A25,25,0,0,1,531.1,25a6.17,6.17,0,0,1-1.74,2.42,5.53,5.53,0,0,1-2.23,1.07,25.41,25.41,0,0,1-3.87.68c-1.57.18-3.4.3-5.17.34A35.08,35.08,0,0,1,513,29.3a27.32,27.32,0,0,1-4.25-.92,15.47,15.47,0,0,1-2.71-1,8.31,8.31,0,0,1-1.81-1.24,8,8,0,0,1-1.34-1.69,19.9,19.9,0,0,1-1.68-3.24,44.31,44.31,0,0,1-1.67-5c-.49-1.75-.89-3.45-1.16-4.74a13.21,13.21,0,0,1-.39-3,4.65,4.65,0,0,1,.59-2.27,5.18,5.18,0,0,1,1.76-1.72A12.56,12.56,0,0,1,503.48,3a31,31,0,0,1,4.65-.93,36,36,0,0,1,5.27-.39c1.81,0,3.68.17,5.38.34s3.25.31,4.67.51a26.21,26.21,0,0,1,3.8.81,10.45,10.45,0,0,1,2.83,1.34,7,7,0,0,1,2,2A7.06,7.06,0,0,1,533,9.29a19.27,19.27,0,0,1,.34,4.26A39,39,0,0,1,532.65,19.83Z" class="cls-1"/><path d="M485.76,6.16a4.65,4.65,0,0,1,.59,2.27,13.21,13.21,0,0,1-.39,3c-.27,1.29-.66,3-1.16,4.74a46.49,46.49,0,0,1-1.66,5,20.64,20.64,0,0,1-1.69,3.24,7.72,7.72,0,0,1-1.34,1.69,8.31,8.31,0,0,1-1.81,1.24,15.47,15.47,0,0,1-2.71,1,27.32,27.32,0,0,1-4.25.92,35.08,35.08,0,0,1-5.09.21c-1.77,0-3.6-.16-5.17-.34a25.64,25.64,0,0,1-3.87-.68A5.53,5.53,0,0,1,455,27.42,6.17,6.17,0,0,1,453.24,25a25.08,25.08,0,0,1-1.54-5.17,39,39,0,0,1-.7-6.28,19.28,19.28,0,0,1,.34-4.26,7.24,7.24,0,0,1,.94-2.61,7,7,0,0,1,2-2,10.39,10.39,0,0,1,2.82-1.34,26.5,26.5,0,0,1,3.8-.81c1.42-.2,3-.35,4.67-.51s3.57-.34,5.39-.34a36.2,36.2,0,0,1,5.27.39,31.14,31.14,0,0,1,4.64.93A12.39,12.39,0,0,1,484,4.44,5.18,5.18,0,0,1,485.76,6.16Z" class="cls-3"/><path d="M533.34,13.55a39,39,0,0,1-.69,6.28A25,25,0,0,1,531.1,25a6.17,6.17,0,0,1-1.74,2.42,5.53,5.53,0,0,1-2.23,1.07,25.41,25.41,0,0,1-3.87.68c-1.57.18-3.4.3-5.17.34A35.08,35.08,0,0,1,513,29.3a27.32,27.32,0,0,1-4.25-.92,15.47,15.47,0,0,1-2.71-1,8.31,8.31,0,0,1-1.81-1.24,8,8,0,0,1-1.34-1.69,19.9,19.9,0,0,1-1.68-3.24,44.31,44.31,0,0,1-1.67-5c-.49-1.75-.89-3.45-1.16-4.74a13.21,13.21,0,0,1-.39-3,4.65,4.65,0,0,1,.59-2.27,5.18,5.18,0,0,1,1.76-1.72A12.56,12.56,0,0,1,503.48,3a31,31,0,0,1,4.65-.93,36,36,0,0,1,5.27-.39c1.81,0,3.68.17,5.38.34s3.25.31,4.67.51a26.21,26.21,0,0,1,3.8.81,10.45,10.45,0,0,1,2.83,1.34,7,7,0,0,1,2,2A7.06,7.06,0,0,1,533,9.29,19.27,19.27,0,0,1,533.34,13.55Z" class="cls-3"/><path d="M72.88,69c-.94-.13-1.41-.16-1.8-.19a4.4,4.4,0,0,0-.89,0,3.46,3.46,0,0,0-.43-.94,3.27,3.27,0,0,0-1.32-1.2,14,14,0,0,0-4-1.41,43.71,43.71,0,0,0-7.87-.87,39.23,39.23,0,0,0-7.84.59,20.34,20.34,0,0,0-4.59,1.44,10,10,0,0,0-2,1.09,2.4,2.4,0,0,0-.86,1,8.63,8.63,0,0,1-1.51.26c-.66.06-1.18.13-3.09.17s-2.43-.11-3.09-.17A8.63,8.63,0,0,1,32,68.5a2.4,2.4,0,0,0-.86-1,10,10,0,0,0-2-1.09,20.34,20.34,0,0,0-4.59-1.44,39.23,39.23,0,0,0-7.84-.59,43.7,43.7,0,0,0-7.87.87,14,14,0,0,0-4,1.41,3.27,3.27,0,0,0-1.32,1.2,3.19,3.19,0,0,0-.43.94,4.4,4.4,0,0,0-.89,0c-.39,0-.86.06-1.81.19a.39.39,0,0,0-.39.46V73.1c0,.3.12.43.43.45.76,0,1.57.09,2.35.09,0,.53,0,1,.06,1.5a12,12,0,0,0,.56,3.39A7.7,7.7,0,0,0,5,81.35a8.24,8.24,0,0,0,2.74,1.83,12,12,0,0,0,3.56.86,60.63,60.63,0,0,0,6.09.45,30.92,30.92,0,0,0,4.32-.21c1.11-.13,2-.25,2.79-.42a12.24,12.24,0,0,0,2-.63,11,11,0,0,0,1.6-.84,5.08,5.08,0,0,0,1.59-1.58,21.46,21.46,0,0,0,1.8-3.47,12,12,0,0,0,1-3.82,17.3,17.3,0,0,0,0-2.88,13,13,0,0,1,4.15-.35,13,13,0,0,1,4.15.35,17.3,17.3,0,0,0,0,2.88,12.22,12.22,0,0,0,1,3.82,21.45,21.45,0,0,0,1.8,3.47,5.08,5.08,0,0,0,1.59,1.58,11,11,0,0,0,1.6.84,11.94,11.94,0,0,0,2,.63c.78.17,1.68.29,2.79.42a30.83,30.83,0,0,0,4.32.21A60.63,60.63,0,0,0,62,84a12,12,0,0,0,3.56-.86,8.34,8.34,0,0,0,2.74-1.83,7.85,7.85,0,0,0,1.61-2.82,12,12,0,0,0,.56-3.39c0-.46,0-1,.06-1.5.78,0,1.59,0,2.35-.09.31,0,.43-.15.43-.45V69.41A.4.4,0,0,0,72.88,69ZM32,73.72a12,12,0,0,1-.58,2.52,19.76,19.76,0,0,1-1.08,2.51c-.2.39-.41.78-.63,1.16a10.71,10.71,0,0,1-.59.9,5.77,5.77,0,0,1-.51.6c-.15.14-.31.27-.48.4a7.74,7.74,0,0,1-1,.61,9.18,9.18,0,0,1-1.11.5,10.63,10.63,0,0,1-1.32.42,16.14,16.14,0,0,1-1.66.31c-.84.12-1.68.22-2.52.29-1,.08-2.1.12-3.16.1-1.41,0-2.83-.13-4.24-.26-.64-.06-1.28-.12-1.92-.21-.47-.06-1-.13-1.42-.23a9.48,9.48,0,0,1-1.08-.27,9.85,9.85,0,0,1-1-.37A8.93,8.93,0,0,1,6,81.61,6.39,6.39,0,0,1,4.55,80a7.44,7.44,0,0,1-.46-.94,7.89,7.89,0,0,1-.36-1A10.72,10.72,0,0,1,3.36,76c-.1-1.09-.13-2.18-.13-3.27,0-.58,0-1.16,0-1.74a12.35,12.35,0,0,1,.12-1.34,4.84,4.84,0,0,1,.18-.84,3.53,3.53,0,0,1,.23-.53A3.62,3.62,0,0,1,4,67.85a2.43,2.43,0,0,1,.3-.34,5.21,5.21,0,0,1,.47-.35,8.25,8.25,0,0,1,.77-.42,13.71,13.71,0,0,1,2.79-1A35.87,35.87,0,0,1,13.22,65a46.46,46.46,0,0,1,5.78-.2q1.37,0,2.73.18c.82.08,1.64.18,2.45.33a21.6,21.6,0,0,1,3.55,1,21,21,0,0,1,2.06.89,8.61,8.61,0,0,1,1.13.67,2.51,2.51,0,0,1,.39.33,2,2,0,0,1,.3.48,4.09,4.09,0,0,1,.26.84A10.76,10.76,0,0,1,32,70.75,15.51,15.51,0,0,1,32,73.72ZM69.92,76a10.71,10.71,0,0,1-.37,2.11,7.88,7.88,0,0,1-.36,1,7.43,7.43,0,0,1-.46.94,6.39,6.39,0,0,1-1.4,1.62,9.2,9.2,0,0,1-1.84,1.09,9.84,9.84,0,0,1-1,.37,9.47,9.47,0,0,1-1.08.27c-.47.1-1,.17-1.42.23-.64.09-1.28.15-1.92.21-1.41.13-2.83.23-4.24.26-1.06,0-2.11,0-3.16-.1-.84-.07-1.68-.17-2.52-.29a16.15,16.15,0,0,1-1.66-.31,10.64,10.64,0,0,1-1.32-.42,9.19,9.19,0,0,1-1.11-.5,7.86,7.86,0,0,1-1-.61c-.16-.13-.32-.26-.47-.4a5.77,5.77,0,0,1-.51-.6,10.71,10.71,0,0,1-.59-.9c-.22-.38-.43-.77-.63-1.16a19.76,19.76,0,0,1-1.08-2.51,12,12,0,0,1-.58-2.52,15.51,15.51,0,0,1,0-3,10.77,10.77,0,0,1,.17-1.27,4.09,4.09,0,0,1,.26-.84,2,2,0,0,1,.3-.48,2.52,2.52,0,0,1,.39-.33,9.21,9.21,0,0,1,1.12-.67,21.16,21.16,0,0,1,2.07-.89,21.6,21.6,0,0,1,3.55-1c.81-.15,1.63-.25,2.45-.33s1.82-.15,2.73-.18a46.46,46.46,0,0,1,5.78.2,35.87,35.87,0,0,1,4.84.78,13.71,13.71,0,0,1,2.79,1,8.25,8.25,0,0,1,.77.42,4,4,0,0,1,.46.35,2,2,0,0,1,.31.34,3.62,3.62,0,0,1,.27.41,3.53,3.53,0,0,1,.23.53,4.84,4.84,0,0,1,.18.84A12.36,12.36,0,0,1,70,71c0,.58,0,1.16,0,1.74C70,73.8,70,74.89,69.92,76Z" class="cls-1"/><path d="M32,73.72a12,12,0,0,1-.58,2.52,19.76,19.76,0,0,1-1.08,2.51c-.2.39-.41.78-.63,1.16a10.71,10.71,0,0,1-.59.9,5.77,5.77,0,0,1-.51.6c-.15.14-.31.27-.48.4a7.74,7.74,0,0,1-1,.61,9.18,9.18,0,0,1-1.11.5,10.63,10.63,0,0,1-1.32.42,16.14,16.14,0,0,1-1.66.31c-.84.12-1.68.22-2.52.29-1,.08-2.1.12-3.16.1-1.41,0-2.83-.13-4.24-.26-.64-.06-1.28-.12-1.92-.21-.47-.06-1-.13-1.42-.23a9.48,9.48,0,0,1-1.08-.27,9.85,9.85,0,0,1-1-.37A8.93,8.93,0,0,1,6,81.61,6.39,6.39,0,0,1,4.55,80a7.44,7.44,0,0,1-.46-.94,7.89,7.89,0,0,1-.36-1A10.72,10.72,0,0,1,3.36,76c-.1-1.09-.13-2.18-.13-3.27,0-.58,0-1.16,0-1.74a12.35,12.35,0,0,1,.12-1.34,4.84,4.84,0,0,1,.18-.84,3.53,3.53,0,0,1,.23-.53A3.62,3.62,0,0,1,4,67.85a2.43,2.43,0,0,1,.3-.34,5.21,5.21,0,0,1,.47-.35,8.25,8.25,0,0,1,.77-.42,13.71,13.71,0,0,1,2.79-1A35.87,35.87,0,0,1,13.22,65a46.46,46.46,0,0,1,5.78-.2q1.37,0,2.73.18c.82.08,1.64.18,2.45.33a21.6,21.6,0,0,1,3.55,1,21,21,0,0,1,2.06.89,8.61,8.61,0,0,1,1.13.67,2.51,2.51,0,0,1,.39.33,2,2,0,0,1,.3.48,4.09,4.09,0,0,1,.26.84A10.76,10.76,0,0,1,32,70.75,15.51,15.51,0,0,1,32,73.72Z" class="cls-2"/><path d="M70,72.71c0,1.09,0,2.18-.13,3.27a10.71,10.71,0,0,1-.37,2.11,7.88,7.88,0,0,1-.36,1,7.43,7.43,0,0,1-.46.94,6.39,6.39,0,0,1-1.4,1.62,9.2,9.2,0,0,1-1.84,1.09,9.84,9.84,0,0,1-1,.37,9.47,9.47,0,0,1-1.08.27c-.47.1-1,.17-1.42.23-.64.09-1.28.15-1.92.21-1.41.13-2.83.23-4.24.26-1.06,0-2.11,0-3.16-.1-.84-.07-1.68-.17-2.52-.29a16.15,16.15,0,0,1-1.66-.31,10.64,10.64,0,0,1-1.32-.42,9.19,9.19,0,0,1-1.11-.5,7.86,7.86,0,0,1-1-.61c-.16-.13-.32-.26-.47-.4a5.77,5.77,0,0,1-.51-.6,10.71,10.71,0,0,1-.59-.9c-.22-.38-.43-.77-.63-1.16a19.76,19.76,0,0,1-1.08-2.51,12,12,0,0,1-.58-2.52,15.51,15.51,0,0,1,0-3,10.77,10.77,0,0,1,.17-1.27,4.09,4.09,0,0,1,.26-.84,2,2,0,0,1,.3-.48,2.52,2.52,0,0,1,.39-.33,9.21,9.21,0,0,1,1.12-.67,21.16,21.16,0,0,1,2.07-.89,21.6,21.6,0,0,1,3.55-1c.81-.15,1.63-.25,2.45-.33s1.82-.15,2.73-.18a46.46,46.46,0,0,1,5.78.2,35.87,35.87,0,0,1,4.84.78,13.71,13.71,0,0,1,2.79,1,8.25,8.25,0,0,1,.77.42,4,4,0,0,1,.46.35,2,2,0,0,1,.31.34,3.62,3.62,0,0,1,.27.41,3.53,3.53,0,0,1,.23.53,4.84,4.84,0,0,1,.18.84A12.36,12.36,0,0,1,70,71C70,71.55,70.06,72.13,70,72.71Z" class="cls-2"/><path d="M173.84,72.2a14.54,14.54,0,0,1-.07,1.87,9.51,9.51,0,0,1-.39,2,7.28,7.28,0,0,1-1.08,2,9.58,9.58,0,0,1-2,1.94,17.3,17.3,0,0,1-3,1.7A26.67,26.67,0,0,1,164,82.92a20.77,20.77,0,0,1-3,.63,25.7,25.7,0,0,1-3.51.15,31.07,31.07,0,0,1-3.6-.22,10.19,10.19,0,0,1-2.44-.57,5.93,5.93,0,0,1-1.46-.85,6.05,6.05,0,0,1-1.19-1.34c-.24-.35-.44-.71-.64-1.07s-.49-1-.72-1.45c-.49-1-.94-2.13-1.37-3.21-.3-.77-.6-1.54-.85-2.34a11.73,11.73,0,0,1-.39-1.55,7.52,7.52,0,0,1-.15-1.33,3.92,3.92,0,0,1,.12-1.13,2.38,2.38,0,0,1,.37-.79,1.44,1.44,0,0,1,.33-.32,2.26,2.26,0,0,1,.43-.24,7.52,7.52,0,0,1,.8-.27c.61-.19,1.23-.34,1.85-.48a42.19,42.19,0,0,1,4.19-.73c1.86-.24,3.74-.36,5.61-.42s3.78-.08,5.67,0a35.17,35.17,0,0,1,4.11.3,9.31,9.31,0,0,1,2.56.68,4.82,4.82,0,0,1,2.48,2.53,7.68,7.68,0,0,1,.5,1.63A10.78,10.78,0,0,1,173.84,72.2Z" class="cls-4"/><path d="M133.23,69.77a8.58,8.58,0,0,1-.14,1.33,13.55,13.55,0,0,1-.4,1.55c-.24.8-.54,1.57-.85,2.34-.43,1.08-.88,2.16-1.37,3.21-.23.49-.47,1-.72,1.45s-.4.72-.63,1.07a6.61,6.61,0,0,1-1.19,1.34,5.81,5.81,0,0,1-1.47.85,10,10,0,0,1-2.43.57,31.1,31.1,0,0,1-3.61.22,25.77,25.77,0,0,1-3.51-.15,20.37,20.37,0,0,1-3-.63,26.81,26.81,0,0,1-3.28-1.21,16.86,16.86,0,0,1-3-1.7,9.35,9.35,0,0,1-2-1.94,6.79,6.79,0,0,1-1.08-2,8.37,8.37,0,0,1-.39-2A13,13,0,0,1,104,72.2a10.78,10.78,0,0,1,.18-1.7,7.69,7.69,0,0,1,.5-1.63,5.34,5.34,0,0,1,.94-1.44,5.07,5.07,0,0,1,1.54-1.09,9.4,9.4,0,0,1,2.56-.68,35.5,35.5,0,0,1,4.11-.3q2.84-.08,5.67,0c1.88.06,3.75.18,5.61.42a42.18,42.18,0,0,1,4.19.73c.63.14,1.25.29,1.86.48a8.2,8.2,0,0,1,.79.27,2.34,2.34,0,0,1,.44.24,1.62,1.62,0,0,1,.32.32,2.2,2.2,0,0,1,.37.79A3.92,3.92,0,0,1,133.23,69.77Z" class="cls-4"/><path d="M177.5,69.41a.59.59,0,0,0-.66-.5h-2.69a6.71,6.71,0,0,0-.8-1.52,5.87,5.87,0,0,0-3.06-2.17,17.16,17.16,0,0,0-4.57-.7c-3.82-.33-9.25-.36-26.79-.25-17.54-.11-23-.08-26.79.25a17.07,17.07,0,0,0-4.56.7,5.9,5.9,0,0,0-3.07,2.17,6.67,6.67,0,0,0-.79,1.52H101a.59.59,0,0,0-.66.5,2.66,2.66,0,0,0-.07,1.09c0,.43.24.59.67.59h2.24a13,13,0,0,0,0,2.51,9.46,9.46,0,0,0,.87,3.71A9.84,9.84,0,0,0,107.36,81,23.21,23.21,0,0,0,113,83.58a19.89,19.89,0,0,0,5.48,1,33.05,33.05,0,0,0,6.23-.28,7.62,7.62,0,0,0,3.6-1.36A8,8,0,0,0,130.59,80a53.61,53.61,0,0,0,2.34-5.29,19.55,19.55,0,0,0,1-3.29l.06-.32a12.85,12.85,0,0,1,2.7-1.2,7.86,7.86,0,0,1,4.44,0,12.63,12.63,0,0,1,2.7,1.2l.06.32a18.87,18.87,0,0,0,1,3.29A53.5,53.5,0,0,0,147.27,80a8,8,0,0,0,2.33,2.93,7.62,7.62,0,0,0,3.6,1.36,33.06,33.06,0,0,0,6.23.28,19.89,19.89,0,0,0,5.48-1,23.28,23.28,0,0,0,5.6-2.62,9.72,9.72,0,0,0,3.33-3.65,9.49,9.49,0,0,0,.88-3.71,13.89,13.89,0,0,0,0-2.51h2.23a.58.58,0,0,0,.68-.59A2.66,2.66,0,0,0,177.5,69.41ZM133.09,71.1a13.55,13.55,0,0,1-.4,1.55c-.24.8-.54,1.57-.85,2.34-.43,1.08-.88,2.16-1.37,3.21-.23.49-.47,1-.72,1.45s-.4.72-.63,1.07a6.61,6.61,0,0,1-1.19,1.34,5.81,5.81,0,0,1-1.47.85,10,10,0,0,1-2.43.57,31.1,31.1,0,0,1-3.61.22,25.77,25.77,0,0,1-3.51-.15,20.37,20.37,0,0,1-3-.63,26.81,26.81,0,0,1-3.28-1.21,16.86,16.86,0,0,1-3-1.7,9.35,9.35,0,0,1-2-1.94,6.79,6.79,0,0,1-1.08-2,8.37,8.37,0,0,1-.39-2A13,13,0,0,1,104,72.2a10.78,10.78,0,0,1,.18-1.7,7.69,7.69,0,0,1,.5-1.63,5.34,5.34,0,0,1,.94-1.44,5.07,5.07,0,0,1,1.54-1.09,9.4,9.4,0,0,1,2.56-.68,35.5,35.5,0,0,1,4.11-.3q2.84-.08,5.67,0c1.88.06,3.75.18,5.61.42a42.18,42.18,0,0,1,4.19.73c.63.14,1.25.29,1.86.48a8.2,8.2,0,0,1,.79.27,2.34,2.34,0,0,1,.44.24,1.62,1.62,0,0,1,.32.32,2.2,2.2,0,0,1,.37.79,3.92,3.92,0,0,1,.12,1.13A8.58,8.58,0,0,1,133.09,71.1ZM143.76,69c0,.16,0,.33,0,.5a14.74,14.74,0,0,1-2.26-.47,11.57,11.57,0,0,0-5.06,0,14.73,14.73,0,0,1-2.26.47c0-.17,0-.34,0-.5a3.32,3.32,0,0,0-.83-1.88,5.15,5.15,0,0,0-2.59-1.14A40.62,40.62,0,0,0,125.9,65c-.09,0-.08-.13,0-.14q2.64-.14,13,0,10.39-.11,13,0a.07.07,0,0,1,0,.14,40.38,40.38,0,0,0-4.77.94,5.2,5.2,0,0,0-2.6,1.14A3.32,3.32,0,0,0,143.76,69Zm30,5.12a9.51,9.51,0,0,1-.39,2,7.28,7.28,0,0,1-1.08,2,9.58,9.58,0,0,1-2,1.94,17.3,17.3,0,0,1-3,1.7A26.67,26.67,0,0,1,164,82.92a20.77,20.77,0,0,1-3,.63,25.7,25.7,0,0,1-3.51.15,31.07,31.07,0,0,1-3.6-.22,10.19,10.19,0,0,1-2.44-.57,5.93,5.93,0,0,1-1.46-.85,6.05,6.05,0,0,1-1.19-1.34c-.24-.35-.44-.71-.64-1.07s-.49-1-.72-1.45c-.49-1-.94-2.13-1.37-3.21-.3-.77-.6-1.54-.85-2.34a11.73,11.73,0,0,1-.39-1.55,7.52,7.52,0,0,1-.15-1.33,3.92,3.92,0,0,1,.12-1.13,2.38,2.38,0,0,1,.37-.79,1.44,1.44,0,0,1,.33-.32,2.26,2.26,0,0,1,.43-.24,7.52,7.52,0,0,1,.8-.27c.61-.19,1.23-.34,1.85-.48a42.19,42.19,0,0,1,4.19-.73c1.86-.24,3.74-.36,5.61-.42s3.78-.08,5.67,0a35.17,35.17,0,0,1,4.11.3,9.31,9.31,0,0,1,2.56.68,4.82,4.82,0,0,1,2.48,2.53,7.68,7.68,0,0,1,.5,1.63,10.78,10.78,0,0,1,.19,1.7A14.54,14.54,0,0,1,173.77,74.07Z" class="cls-1"/><path d="M133.11,68.64a3.92,3.92,0,0,1,.12,1.13,8.58,8.58,0,0,1-.14,1.33,13.55,13.55,0,0,1-.4,1.55c-.24.8-.54,1.57-.85,2.34-.43,1.08-.88,2.16-1.37,3.21-.23.49-.47,1-.72,1.45s-.4.72-.63,1.07a6.61,6.61,0,0,1-1.19,1.34,5.81,5.81,0,0,1-1.47.85,10,10,0,0,1-2.43.57,31.1,31.1,0,0,1-3.61.22,25.77,25.77,0,0,1-3.51-.15,20.37,20.37,0,0,1-3-.63,26.81,26.81,0,0,1-3.28-1.21,16.86,16.86,0,0,1-3-1.7,9.35,9.35,0,0,1-2-1.94,6.79,6.79,0,0,1-1.08-2,8.37,8.37,0,0,1-.39-2A13,13,0,0,1,104,72.2a10.78,10.78,0,0,1,.18-1.7,7.69,7.69,0,0,1,.5-1.63,5.34,5.34,0,0,1,.94-1.44,5.07,5.07,0,0,1,1.54-1.09,9.4,9.4,0,0,1,2.56-.68,35.5,35.5,0,0,1,4.11-.3q2.84-.08,5.67,0c1.88.06,3.75.18,5.61.42a42.18,42.18,0,0,1,4.19.73c.63.14,1.25.29,1.86.48a8.2,8.2,0,0,1,.79.27,2.34,2.34,0,0,1,.44.24,1.62,1.62,0,0,1,.32.32A2.2,2.2,0,0,1,133.11,68.64Z" class="cls-2"/><path d="M173.84,72.2a14.54,14.54,0,0,1-.07,1.87,9.51,9.51,0,0,1-.39,2,7.28,7.28,0,0,1-1.08,2,9.58,9.58,0,0,1-2,1.94,17.3,17.3,0,0,1-3,1.7A26.67,26.67,0,0,1,164,82.92a20.77,20.77,0,0,1-3,.63,25.7,25.7,0,0,1-3.51.15,31.07,31.07,0,0,1-3.6-.22,10.19,10.19,0,0,1-2.44-.57,5.93,5.93,0,0,1-1.46-.85,6.05,6.05,0,0,1-1.19-1.34c-.24-.35-.44-.71-.64-1.07s-.49-1-.72-1.45c-.49-1-.94-2.13-1.37-3.21-.3-.77-.6-1.54-.85-2.34a11.73,11.73,0,0,1-.39-1.55,7.52,7.52,0,0,1-.15-1.33,3.92,3.92,0,0,1,.12-1.13,2.38,2.38,0,0,1,.37-.79,1.44,1.44,0,0,1,.33-.32,2.26,2.26,0,0,1,.43-.24,7.52,7.52,0,0,1,.8-.27c.61-.19,1.23-.34,1.85-.48a42.19,42.19,0,0,1,4.19-.73c1.86-.24,3.74-.36,5.61-.42s3.78-.08,5.67,0a35.17,35.17,0,0,1,4.11.3,9.31,9.31,0,0,1,2.56.68,4.82,4.82,0,0,1,2.48,2.53,7.68,7.68,0,0,1,.5,1.63A10.78,10.78,0,0,1,173.84,72.2Z" class="cls-2"/><path d="M289.64,66c-.69,0-.89-.47-1.21-.93a10.07,10.07,0,0,0-1.27-1.42,12.27,12.27,0,0,0-3-2.12,16.55,16.55,0,0,0-6.43-1.42c-2.32-.18-4.63-.21-6.94-.18h-.87c-.42,0-.34-.45-.63-.57a4.55,4.55,0,0,0-1.72-.07H232.87a4.55,4.55,0,0,0-1.72.07c-.29.12-.21.58-.63.57h-.87c-2.31,0-4.62,0-6.94.18a16.55,16.55,0,0,0-6.43,1.42,12.27,12.27,0,0,0-3,2.12A10.07,10.07,0,0,0,212,65.12c-.32.46-.52.93-1.21.93-2,0-1.48.59-1.48,2.17,0,.58,0,1.15,0,1.73,0,.89,1.12,0,1.36.75a5.73,5.73,0,0,1,0,1.75c0,.58.09,1.16.16,1.74.15,1.15.33,2.29.55,3.42.93,5,1.91,8.85,7.58,10.62a38.21,38.21,0,0,0,13.76,1.08c5.43-.79,8.1-3.63,10.68-8.06a41.14,41.14,0,0,0,2.9-7c.74-2.07.84-4.33,3.85-4.33s3.1,2.26,3.84,4.33a41.14,41.14,0,0,0,2.9,7c2.58,4.43,5.25,7.27,10.68,8.06a38.21,38.21,0,0,0,13.76-1.08c5.67-1.77,6.65-5.58,7.58-10.62.22-1.13.4-2.27.55-3.42.07-.58.13-1.16.16-1.74a5.73,5.73,0,0,1,0-1.75c.24-.71,1.31.14,1.36-.75,0-.58,0-1.15,0-1.73C291.11,66.64,291.66,66,289.64,66ZM243.7,77.79a20.1,20.1,0,0,1-6,8.12c-2.39,1.78-5,2.25-8.29,2.26a38.16,38.16,0,0,1-10-1.25,7.16,7.16,0,0,1-4.82-3.78,19.85,19.85,0,0,1-1.9-6.7,27.47,27.47,0,0,1,.12-6.9,10.57,10.57,0,0,1,1.59-4.6,6.74,6.74,0,0,1,4.2-2.79,38,38,0,0,1,7.89-.79c2.52-.06,4.4,0,6.27.09s3.73.28,5.41.55a19.12,19.12,0,0,1,4.24,1.1,4.76,4.76,0,0,1,2.2,1.8,6.33,6.33,0,0,1,1,4A24.85,24.85,0,0,1,243.7,77.79ZM253.75,66.2c-.15.6-.08,1.48-1,1.2a8.1,8.1,0,0,0-3.63-.31c-.6.08-1.09.52-1.79.31-.88-.25-.55-1-.73-1.59a6.6,6.6,0,0,0-.81-1.64c-.35-.51-.94-.77-1.15-1.43-.29-.9.52-.89,1.2-.89H255c1.81,0,0,1.8-.56,2.65A6.51,6.51,0,0,0,253.75,66.2Zm34,10.24a19.85,19.85,0,0,1-1.9,6.7A7.16,7.16,0,0,1,281,86.92a38.16,38.16,0,0,1-10,1.25c-3.32,0-5.9-.48-8.29-2.26a20.1,20.1,0,0,1-6-8.12,24.85,24.85,0,0,1-1.92-8.87,6.33,6.33,0,0,1,1-4,4.76,4.76,0,0,1,2.2-1.8,19.12,19.12,0,0,1,4.24-1.1c1.68-.27,3.54-.44,5.41-.55s3.75-.15,6.27-.09a38,38,0,0,1,7.89.79,6.74,6.74,0,0,1,4.2,2.79,10.57,10.57,0,0,1,1.59,4.6A27.46,27.46,0,0,1,287.74,76.44Z" class="cls-1"/><path d="M245.62,68.92a24.85,24.85,0,0,1-1.92,8.87,20.1,20.1,0,0,1-6,8.12c-2.39,1.78-5,2.25-8.29,2.26a38.16,38.16,0,0,1-10-1.25,7.16,7.16,0,0,1-4.82-3.78,19.85,19.85,0,0,1-1.9-6.7,27.47,27.47,0,0,1,.12-6.9,10.57,10.57,0,0,1,1.59-4.6,6.74,6.74,0,0,1,4.2-2.79,38,38,0,0,1,7.89-.79c2.52-.06,4.4,0,6.27.09s3.73.28,5.41.55a19.12,19.12,0,0,1,4.24,1.1,4.76,4.76,0,0,1,2.2,1.8A6.33,6.33,0,0,1,245.62,68.92Z" class="cls-2"/><path d="M287.74,76.44a19.85,19.85,0,0,1-1.9,6.7A7.16,7.16,0,0,1,281,86.92a38.16,38.16,0,0,1-10,1.25c-3.32,0-5.9-.48-8.29-2.26a20.1,20.1,0,0,1-6-8.12,24.85,24.85,0,0,1-1.92-8.87,6.33,6.33,0,0,1,1-4,4.76,4.76,0,0,1,2.2-1.8,19.12,19.12,0,0,1,4.24-1.1c1.68-.27,3.54-.44,5.41-.55s3.75-.15,6.27-.09a38,38,0,0,1,7.89.79,6.74,6.74,0,0,1,4.2,2.79,10.57,10.57,0,0,1,1.59,4.6A27.46,27.46,0,0,1,287.74,76.44Z" class="cls-2"/><path d="M398.83,69.17a9.65,9.65,0,0,0-.51-1.82,7.71,7.71,0,0,0-.83-1.55,4.67,4.67,0,0,0-1.12-1.14,6,6,0,0,0-1.53-.73,16.17,16.17,0,0,0-2.16-.52,26,26,0,0,0-3.18-.33c-1.5-.06-3,0-4.5.08-1.77.11-3.53.27-5.29.5s-3.35.48-5,.83a23.46,23.46,0,0,0-3.93,1.12,7.28,7.28,0,0,0-2.44,1.46,4.57,4.57,0,0,0-1.16,1.84,6.45,6.45,0,0,0-.25,2.19A14.82,14.82,0,0,0,367.4,74a33.07,33.07,0,0,0,1.12,3.63,24.3,24.3,0,0,0,1.72,3.69,14.75,14.75,0,0,0,2.22,3A8.36,8.36,0,0,0,375,86.12a9.91,9.91,0,0,0,2.75.69c1,.13,2.07.18,3.1.22s2.1.09,3.15.07a33.08,33.08,0,0,0,3.3-.25,24.66,24.66,0,0,0,3.2-.58,17.79,17.79,0,0,0,2.67-.89,8.28,8.28,0,0,0,1.95-1.15,5.12,5.12,0,0,0,1.18-1.36,8.49,8.49,0,0,0,.69-1.61c.23-.66.43-1.33.62-2s.43-1.63.61-2.45.38-1.86.52-2.79a21.39,21.39,0,0,0,.25-2.65A11.52,11.52,0,0,0,398.83,69.17Zm-.31,2.68a32.54,32.54,0,0,1-.78,5.1,41.68,41.68,0,0,1-1.15,4.12A5.6,5.6,0,0,1,395,83.72a10.3,10.3,0,0,1-3.91,1.92,28.49,28.49,0,0,1-5.94,1,46.24,46.24,0,0,1-5.82-.1,10.3,10.3,0,0,1-5-1.23,12.83,12.83,0,0,1-4.14-5,30,30,0,0,1-2.45-6.79,8.24,8.24,0,0,1-.14-4.46,4.67,4.67,0,0,1,3-2.89,34.33,34.33,0,0,1,8-1.89,71.64,71.64,0,0,1,9.52-.76,23.09,23.09,0,0,1,5.73.61,5.62,5.62,0,0,1,2.73,1.3,6.47,6.47,0,0,1,1.5,2.63A10.11,10.11,0,0,1,398.52,71.85Z" class="cls-5"/><path d="M398.52,71.85a32.54,32.54,0,0,1-.78,5.1,41.68,41.68,0,0,1-1.15,4.12A5.6,5.6,0,0,1,395,83.72a10.3,10.3,0,0,1-3.91,1.92,28.49,28.49,0,0,1-5.94,1,46.24,46.24,0,0,1-5.82-.1,10.3,10.3,0,0,1-5-1.23,12.83,12.83,0,0,1-4.14-5,30,30,0,0,1-2.45-6.79,8.24,8.24,0,0,1-.14-4.46,4.67,4.67,0,0,1,3-2.89,34.33,34.33,0,0,1,8-1.89,71.64,71.64,0,0,1,9.52-.76,23.09,23.09,0,0,1,5.73.61,5.62,5.62,0,0,1,2.73,1.3,6.47,6.47,0,0,1,1.5,2.63A10.11,10.11,0,0,1,398.52,71.85Z" class="cls-2"/><path d="M355.87,68.91a4.55,4.55,0,0,0-1.15-1.84,7.23,7.23,0,0,0-2.45-1.46,23.2,23.2,0,0,0-3.93-1.12c-1.65-.35-3.32-.62-5-.83s-3.52-.39-5.29-.5c-1.5-.09-3-.14-4.5-.08a26.16,26.16,0,0,0-3.18.33,16.17,16.17,0,0,0-2.16.52,6,6,0,0,0-1.53.73,4.81,4.81,0,0,0-1.11,1.14,6.82,6.82,0,0,0-.83,1.55,9.68,9.68,0,0,0-.52,1.82,11.52,11.52,0,0,0-.16,2.2A19.61,19.61,0,0,0,324.3,74c.14.93.32,1.86.52,2.79s.38,1.64.61,2.45.4,1.34.62,2a9.18,9.18,0,0,0,.69,1.61,5.31,5.31,0,0,0,1.18,1.36,8.48,8.48,0,0,0,2,1.15,18.17,18.17,0,0,0,2.67.89,24.66,24.66,0,0,0,3.2.58c1.1.14,2.2.22,3.3.25s2.1,0,3.15-.07,2.07-.09,3.1-.22a9.9,9.9,0,0,0,2.76-.69,8.44,8.44,0,0,0,2.54-1.83,14.75,14.75,0,0,0,2.22-3,24.3,24.3,0,0,0,1.72-3.69A31,31,0,0,0,355.65,74a14.1,14.1,0,0,0,.47-2.87A6.21,6.21,0,0,0,355.87,68.91Zm-.57,4.6a30.52,30.52,0,0,1-2.46,6.79,12.83,12.83,0,0,1-4.14,5,10.27,10.27,0,0,1-5,1.23,46.08,46.08,0,0,1-5.81.1,28.48,28.48,0,0,1-5.95-1A10.3,10.3,0,0,1,328,83.72a5.58,5.58,0,0,1-1.55-2.65,39.1,39.1,0,0,1-1.15-4.12,32.59,32.59,0,0,1-.79-5.1A10.31,10.31,0,0,1,325,68a6.49,6.49,0,0,1,1.51-2.63,5.54,5.54,0,0,1,2.72-1.3,23.18,23.18,0,0,1,5.74-.61,71.77,71.77,0,0,1,9.52.76,34.46,34.46,0,0,1,8,1.89,4.72,4.72,0,0,1,3,2.89A8.34,8.34,0,0,1,355.3,73.51Z" class="cls-5"/><path d="M355.3,73.51a30.52,30.52,0,0,1-2.46,6.79,12.83,12.83,0,0,1-4.14,5,10.27,10.27,0,0,1-5,1.23,46.08,46.08,0,0,1-5.81.1,28.48,28.48,0,0,1-5.95-1A10.3,10.3,0,0,1,328,83.72a5.58,5.58,0,0,1-1.55-2.65,39.1,39.1,0,0,1-1.15-4.12,32.59,32.59,0,0,1-.79-5.1A10.31,10.31,0,0,1,325,68a6.49,6.49,0,0,1,1.51-2.63,5.54,5.54,0,0,1,2.72-1.3,23.18,23.18,0,0,1,5.74-.61,71.77,71.77,0,0,1,9.52.76,34.46,34.46,0,0,1,8,1.89,4.72,4.72,0,0,1,3,2.89A8.34,8.34,0,0,1,355.3,73.51Z" class="cls-2"/><path d="M367,71.59q0-.25,0-.49a6.26,6.26,0,0,1,.25-2.19,4.55,4.55,0,0,1,1.15-1.84,7.3,7.3,0,0,1,2.44-1.46,23.74,23.74,0,0,1,3.93-1.12c1.65-.35,3.32-.62,5-.83s3.52-.39,5.29-.5a44.08,44.08,0,0,1,4.5-.08,24.91,24.91,0,0,1,3.18.33,14.71,14.71,0,0,1,2.16.52,5.83,5.83,0,0,1,1.53.73,4.8,4.8,0,0,1,1.12,1.14,7.24,7.24,0,0,1,.83,1.55,9.5,9.5,0,0,1,.52,1.82,10.72,10.72,0,0,1,.16,1.54l1.55-.32a.59.59,0,0,0,.53-.54,4.68,4.68,0,0,1,.66-1.54A3.71,3.71,0,0,1,403,67a.6.6,0,0,0,.29-.61l-.2-3.16a.58.58,0,0,0-.58-.63,67.63,67.63,0,0,0-8.64-.8c-2.62-.1-5.24-.14-8.46,0s-7.05.6-9.78,1a44.25,44.25,0,0,0-5.53,1.06,13.7,13.7,0,0,0-2.54.92,3.4,3.4,0,0,0-1.36,1,1.81,1.81,0,0,0-.14.25.59.59,0,0,1-.62.39h-7.79a.59.59,0,0,1-.62-.39,1.81,1.81,0,0,0-.14-.25,3.4,3.4,0,0,0-1.36-1A13.7,13.7,0,0,0,353,63.9a44.25,44.25,0,0,0-5.53-1.06c-2.73-.38-6.56-.8-9.78-1s-5.84-.14-8.46,0a67.63,67.63,0,0,0-8.64.8.58.58,0,0,0-.58.63l-.2,3.16a.6.6,0,0,0,.29.61,3.71,3.71,0,0,1,1.25,1.29,4.68,4.68,0,0,1,.66,1.54.59.59,0,0,0,.53.54l1.55.32a10.72,10.72,0,0,1,.16-1.54,9.51,9.51,0,0,1,.52-1.82,7.24,7.24,0,0,1,.83-1.55,4.79,4.79,0,0,1,1.12-1.14,5.83,5.83,0,0,1,1.53-.73,14.71,14.71,0,0,1,2.16-.52,24.9,24.9,0,0,1,3.18-.33,44.07,44.07,0,0,1,4.5.08q2.65.16,5.29.5c1.68.21,3.35.48,5,.83a23.74,23.74,0,0,1,3.93,1.12,7.3,7.3,0,0,1,2.44,1.46,4.55,4.55,0,0,1,1.15,1.84,6.27,6.27,0,0,1,.25,2.19q0,.25,0,.49c1.22-.54,1.42-.7,1.51-.87a.52.52,0,0,0,.05-.15A1.89,1.89,0,0,1,359.09,69,11.11,11.11,0,0,1,364,69a1.89,1.89,0,0,1,1.44,1.52.52.52,0,0,0,.05.15C365.55,70.89,365.75,71.05,367,71.59Z" class="cls-1"/></svg>