<?xml version="1.0" encoding="utf-8"?>
<!-- Generator: Adobe Illustrator 21.0.0, SVG Export Plug-In . SVG Version: 6.00 Build 0)  -->
<svg version="1.1" id="Layer_1" xmlns="http://www.w3.org/2000/svg" xmlns:xlink="http://www.w3.org/1999/xlink" x="0px" y="0px"
	 viewBox="0 0 1330 362" style="enable-background:new 0 0 1330 362;" xml:space="preserve">
<style type="text/css">
	.st0{fill:none;stroke:#000000;stroke-width:4;stroke-linecap:round;stroke-miterlimit:10;}
	.st1{opacity:0.4;fill:#444445;}
	.st2{fill:#E82730;}
	.st3{opacity:0.5;fill:#D9E5E4;}
	.st4{fill:#30302F;}
	.st5{fill:#CA2027;}
	.st6{fill:#A61E22;}
	.st7{fill:#FFEC3D;}
	.st8{fill:#EE6022;}
	.st9{fill:#DF0022;}
	.st10{fill:#900378;}
	.st11{fill:#132A7A;}
	.st12{fill:#0069AD;}
	.st13{fill:#008B3B;}
	.st14{fill:#B1C931;}
	.st15{fill:#0472C3;}
	.st16{fill:none;stroke:#FF0000;stroke-linecap:round;stroke-linejoin:round;}
	.st17{fill:#F9B840;}
	.st18{fill:#F9B840;stroke:#EF8152;stroke-width:3;stroke-linecap:round;stroke-linejoin:round;}
	.st19{fill:#F9B840;stroke:#EF8152;stroke-width:3;stroke-miterlimit:10;}
	.st20{fill:none;stroke:#0472C3;stroke-width:7;stroke-linecap:round;stroke-linejoin:round;}
	.st21{fill:#F35790;}
	.st22{fill:#EF8152;}
	.st23{fill:none;stroke:#F35790;stroke-width:7;stroke-linecap:round;stroke-linejoin:round;}
	.st24{fill:#313131;}
</style>
<line class="st0" x1="206.7" y1="222.7" x2="206.7" y2="276.7"/>
<line class="st0" x1="232" y1="222.7" x2="232" y2="276.7"/>
<path class="st1" d="M284.4,278.3c-3.5-0.6-7.5-1.1-13.2-1.6c-4.9-0.4-11.4-0.8-17.7-1.1c-7.3-0.4-14.6-0.7-24.1-0.7
	c-10.3-0.1-20.9,0.2-30,0.5c-2.4,0.1-4.7,0.2-7,0.3c-7,0-13.2,0.3-17.4,0.7c-9.1,0.4-16.1,1.1-21.2,1.7c-5.7,0.7-10.2,1.5-6.2,2.2
	c7.3,1.4,35.2,1.8,54.7,1.9c23.9,0.2,49.5,0,70.5-0.8c6.7-0.3,12.8-0.6,15.3-1.1C290.8,279.4,287.5,278.8,284.4,278.3z"/>
<path class="st2" d="M309.6,152.7c-4.8-12.1-10.3-24.2-18.2-34.6c-6.8-8.9-15.7-16.7-24.4-23.7c-10-8.2-20.2-14.4-33.2-15.8
	c-14.2-1.6-28.8,3.3-41.3,9.6c-3.3,1.6-6.5,3.4-9.6,5.4c-9.6,0.9-18.2,6.2-24,13.9c-12.5,8.9-22.2,22.7-29.2,35.3
	c-7.9,14.3-14.1,31.3-8.5,47.5c10.1,29.3,48.5,37.4,75.4,40.2c33,3.5,68.3-0.6,97.2-17.8c9.3-5.5,17.6-13.6,21.1-24
	C318.5,177.1,313.9,163.4,309.6,152.7z"/>
<circle cx="207.9" cy="146.5" r="8.4"/>
<circle cx="232.8" cy="146.5" r="8.4"/>
<path class="st3" d="M308,111.8v32.3c0,0.1,0,0.2,0,0.3c0,0.4,0,0.8,0,1.2c0,0.1,0,0.1,0,0.2c-1.3,25.1-20.7,45.1-44.4,45.1
	c-22.7,0-41.5-18.3-44.1-41.9c-2.7,23.6-21.4,41.9-44.2,41.9c-24.6,0-44.5-21.4-44.5-47.7c0-1.4,0-2.7,0.2-4v-27.3
	c0-9,6.3-16.4,14.1-16.4h148.9C301.7,95.5,308,102.8,308,111.8z"/>
<path class="st4" d="M307.3,107.3h-176c1.7-6.8,7.1-11.8,13.5-11.8h148.9C300.2,95.5,305.6,100.5,307.3,107.3z"/>
<g>
	<path d="M230.8,189.8c-0.2,0.3-0.5,0.8-0.7,1.3c-0.2,0.5-0.4,1-0.6,1.5c-0.4,1-0.6,2-0.7,3c-0.1,0.5,0,1-0.1,1.5
		c0.1,0.5,0.1,1,0.3,1.4c0.1,0.5,0.3,0.9,0.6,1.4c0.1,0.2,0.3,0.4,0.4,0.6c0.2,0.2,0.3,0.4,0.5,0.6c0.7,0.7,1.6,1.5,2.6,2.1
		c1,0.6,2,1.1,3.1,1.5c2.2,0.7,4.7,0.9,7,0.1c-2.1,1.2-4.8,1.5-7.3,1.1c-1.3-0.2-2.5-0.5-3.7-1c-1.2-0.5-2.3-1.1-3.4-1.9
		c-2.2-1.7-3.6-4.6-3.7-7.4c-0.1-1.4,0-2.8,0.3-4.2c0.1-0.7,0.3-1.3,0.5-2c0.2-0.7,0.4-1.3,0.7-2l0.1-0.1c0.6-1.3,2.1-1.8,3.3-1.3
		c1.3,0.6,1.8,2.1,1.3,3.3C231,189.6,230.9,189.7,230.8,189.8z"/>
</g>
<g>
	<path d="M207.9,189.7c0.3,0.8,0.5,1.3,0.7,2c0.2,0.7,0.4,1.3,0.5,2c0.3,1.3,0.4,2.7,0.3,4.2c-0.1,2.8-1.5,5.8-3.7,7.4
		c-1.1,0.8-2.2,1.4-3.4,1.9c-1.2,0.5-2.4,0.9-3.7,1c-2.5,0.4-5.1,0.1-7.3-1.1c2.3,0.8,4.8,0.6,7-0.1c1.1-0.4,2.1-0.9,3.1-1.5
		c1-0.6,1.9-1.4,2.6-2.1c0.2-0.2,0.3-0.4,0.5-0.6c0.1-0.2,0.3-0.4,0.4-0.6c0.2-0.5,0.5-0.9,0.6-1.4c0.2-0.5,0.2-1,0.3-1.4
		c0-0.5,0-1-0.1-1.5c-0.1-1-0.4-2-0.7-3c-0.2-0.5-0.4-1-0.6-1.5c-0.2-0.5-0.5-1-0.7-1.3c-0.8-1.1-0.6-2.7,0.6-3.5
		c1.1-0.8,2.7-0.6,3.5,0.6c0.1,0.1,0.2,0.3,0.3,0.4L207.9,189.7z"/>
</g>
<g>
	<path d="M211,173.2h16.7c0,4.6-3.7,8.3-8.3,8.3S211,177.8,211,173.2z"/>
	<path class="st5" d="M223.5,180.4c-1.2,0.7-2.6,1.1-4.2,1.1c-1.5,0-2.9-0.4-4.1-1.1c0.1-2.2,1.9-3.9,4.2-3.9
		C221.6,176.5,223.4,178.3,223.5,180.4z"/>
	<g>
		<path class="st6" d="M219.3,177.4c0.2,0.6,0.3,1.2,0.5,1.9c0,0.3,0.1,0.7,0,1c-0.1,0.3-0.2,0.6-0.4,0.9c0.1-0.3,0.2-0.6,0.3-0.9
			c0.1-0.3,0.1-0.6,0-0.9C219.6,178.7,219.4,178,219.3,177.4z"/>
	</g>
</g>
<path class="st7" d="M681.5,156.9c-3.6-0.8-7.1,1.5-7.9,5.1c-4.7,21.6-9.4,43.2-14.1,64.8c-0.8,3.6,1.5,7.1,5.1,7.9
	c43.2,9.4,86.4,18.8,129.6,28.2c3.6,0.8,7.1-1.5,7.9-5.1c4.7-21.6,9.4-43.2,14.1-64.8c0.8-3.6-1.5-7.1-5.1-7.9
	C767.9,175.7,724.7,166.3,681.5,156.9z"/>
<path class="st8" d="M652.5,153.6c-3.6,0.6-6.1,3.9-5.5,7.6c3.4,21.8,6.7,43.7,10.1,65.5c0.6,3.6,3.9,6.1,7.6,5.5
	c43.7-6.7,87.4-13.5,131-20.2c3.6-0.6,6.1-3.9,5.5-7.6c-3.4-21.8-6.7-43.7-10.1-65.5c-0.6-3.6-3.9-6.1-7.6-5.5
	C739.9,140.1,696.2,146.9,652.5,153.6z"/>
<path class="st9" d="M624.3,160.9c-3.2,1.8-4.3,5.9-2.5,9c11,19.2,22,38.3,33,57.5c1.8,3.2,5.9,4.3,9,2.5
	c38.3-22,76.7-43.9,115-65.9c3.2-1.8,4.3-5.9,2.5-9c-11-19.2-22-38.3-33-57.5c-1.8-3.2-5.9-4.3-9-2.5C701,117,662.7,139,624.3,160.9
	z"/>
<path class="st10" d="M600.6,177.9c-2.3,2.8-1.9,7,1,9.3c17.1,14,34.3,27.9,51.4,41.9c2.8,2.3,7,1.9,9.3-1
	c27.9-34.3,55.8-68.5,83.7-102.8c2.3-2.8,1.9-7-1-9.3c-17.1-14-34.3-27.9-51.4-41.9c-2.8-2.3-7-1.9-9.3,1
	C656.4,109.3,628.5,143.6,600.6,177.9z"/>
<path class="st11" d="M584.6,202.2c-1.1,3.5,0.8,7.2,4.2,8.4c21,6.9,42,13.7,63,20.6c3.5,1.1,7.2-0.8,8.4-4.2
	c13.7-42,27.5-84,41.2-126c1.1-3.5-0.8-7.2-4.2-8.4c-21-6.9-42-13.7-63-20.6c-3.5-1.1-7.2,0.8-8.4,4.2
	C612,118.2,598.3,160.2,584.6,202.2z"/>
<path class="st12" d="M578.3,230.7c0.2,3.7,3.3,6.5,7,6.3c22.1-1.1,44.1-2.3,66.2-3.4c3.7-0.2,6.5-3.3,6.3-7
	c-2.3-44.1-4.5-88.3-6.8-132.4c-0.2-3.7-3.3-6.5-7-6.3c-22.1,1.1-44.1,2.3-66.2,3.4c-3.7,0.2-6.5,3.3-6.3,7
	C573.8,142.4,576.1,186.6,578.3,230.7z"/>
<path class="st13" d="M582.7,259.5c1.5,3.3,5.4,4.9,8.8,3.4c20.2-9,40.4-17.9,60.6-26.9c3.3-1.5,4.9-5.4,3.4-8.8
	c-17.9-40.4-35.9-80.8-53.8-121.2c-1.5-3.3-5.4-4.9-8.8-3.4c-20.2,9-40.4,17.9-60.6,26.9c-3.3,1.5-4.9,5.4-3.4,8.8
	C546.8,178.7,564.8,219.1,582.7,259.5z"/>
<path class="st14" d="M597.2,284.8c2.6,2.6,6.8,2.6,9.4,0c15.6-15.6,31.3-31.3,46.9-46.9c2.6-2.6,2.6-6.8,0-9.4
	c-31.3-31.3-62.5-62.5-93.8-93.8c-2.6-2.6-6.8-2.6-9.4,0c-15.6,15.6-31.3,31.3-46.9,46.9c-2.6,2.6-2.6,6.8,0,9.4
	C534.7,222.3,565.9,253.6,597.2,284.8z"/>
<rect x="1132.2" y="114.9" transform="matrix(0.7027 -0.7115 0.7115 0.7027 252.4309 845.7073)" class="st15" width="11.9" height="11.9"/>
<path class="st16" d="M1160.9,226.5c3-3.1,3.5-7.4,3.2-11.4c-0.6-6.9-3.1-12.6-6.4-18.5c-5.2-9.5-11.8-17.6-19.5-25.1
	c-7.7-7.6-15.9-14-25.5-19c-5.9-3.1-11.7-5.6-18.6-6c-4-0.2-8.3,0.3-11.3,3.5c-3,3.1-3.5,7.4-3.2,11.4c0.6,6.9,3.1,12.6,6.4,18.5
	c5.2,9.5,11.8,17.6,19.5,25.1c7.7,7.6,15.9,14,25.5,19c5.9,3.1,11.7,5.6,18.6,6C1153.6,230.2,1157.9,229.6,1160.9,226.5z"/>
<rect x="1221.3" y="192.3" transform="matrix(0.8747 -0.4846 0.4846 0.8747 57.7 619.5747)" class="st17" width="11.9" height="11.9"/>
<path class="st18" d="M1167.3,237.7c-42.9,14.3-85.9,28.7-128.8,43c-4.4,1.5-8.7-2.7-7.3-7.2c13.5-43.2,27-86.4,40.5-129.6"/>
<path class="st19" d="M1173.4,234.1c3.8-3.9,4.5-9.4,4.1-14.4c-0.7-8.1-4.2-16.4-8-23.3c-6.6-12-14.9-22.1-24.6-31.6
	c-9.7-9.5-20-17.6-32.1-23.9c-7-3.7-15.3-7-23.4-7.5c-5-0.3-10.4,0.4-14.3,4.3c-3.8,3.9-4.5,9.4-4.1,14.4c0.7,8.1,4.2,16.4,8,23.3
	c6.6,12,14.9,22.1,24.6,31.6c9.7,9.5,20,17.6,32.1,23.9c7,3.7,15.3,7,23.4,7.5C1164.2,238.8,1169.6,238.1,1173.4,234.1z"/>
<path class="st20" d="M1104,215.8c41.9-26.9,75.4-37.9,114.2-37.6"/>
<path class="st20" d="M1096.3,207.1c4.5-8.6,8.5-17.4,11.7-26.6c5.7-15.6,9.6-32.9,6.2-49.5c-2.5-12.5-10.3-30-23.9-33.7"/>
<rect x="1210" y="248.4" transform="matrix(0.8747 -0.4846 0.4846 0.8747 29.0686 621.0926)" class="st21" width="11.9" height="11.9"/>
<rect x="1187.6" y="203.4" transform="matrix(0.8747 -0.4846 0.4846 0.8747 48.0526 604.6293)" class="st22" width="11.9" height="11.9"/>
<rect x="1187.1" y="80.2" transform="matrix(0.8747 -0.4846 0.4846 0.8747 107.6971 588.9384)" class="st22" width="11.9" height="11.9"/>
<path class="st23" d="M1175.1,150.2c-3-23.6-1.8-28.2,0.5-30c2.2-1.8,5.4-0.9,9.8,2c4.3,2.9,9.8,7.8,14,10.5c4.2,2.6,7.2,2.9,9,1.8
	c1.8-1.1,2.5-3.7,1.6-6.9s-3.5-6.9-6.2-10.3s-5.4-6.6-5.9-9c-0.5-2.5,1.2-4.3,4.7-4.1c3.5,0.1,8.7,2.1,13.2,2.9
	c4.4,0.8,8.1,0.3,10.8-1.4c2.7-1.7,4.5-4.6,4.6-8.9c0.1-4.3-1.6-10-8.8-15"/>
<path class="st20" d="M1046.8,155.1c13.8-13.3,15.3-17.8,15.9-21.2c0.6-3.4,0.2-5.9-2.9-6.8c-3.1-1-8.9-0.5-14.7,0
	c-5.9,0.5-11.8,1.1-15.5,0.4c-3.7-0.7-5.3-2.7-5.4-4.7c-0.1-2,1.2-4.1,4.3-6c3-1.9,7.8-3.6,11.3-5.1c3.5-1.5,5.8-2.7,6.5-4.6
	c0.7-1.9,0-4.4-2.8-6c-2.8-1.6-7.6-2.4-11.7-3.9c-4.1-1.4-7.3-3.6-9.3-6.1c-2-2.5-2.6-5.5-1.7-8.7c0.9-3.2,3.4-6.6,16.7-10.3"/>
<rect x="1030.7" y="180.7" transform="matrix(0.4469 -0.8946 0.8946 0.4469 406.4399 1030.6101)" class="st21" width="11.9" height="11.9"/>
<rect x="1199" y="225.8" transform="matrix(0.3331 -0.9429 0.9429 0.3331 584.979 1290.6038)" class="st17" width="11.9" height="11.9"/>
<rect x="1065" y="92.1" transform="matrix(0.6178 -0.7863 0.7863 0.6178 332.1985 879.6018)" class="st21" width="11.9" height="11.9"/>
<rect x="1121.7" y="80" transform="matrix(0.7011 -0.713 0.713 0.7011 275.7595 829.7457)" class="st15" width="11.9" height="11.9"/>
<rect x="1164.2" y="247.2" transform="matrix(0.8747 -0.4846 0.4846 0.8747 23.9157 598.7886)" class="st15" width="11.9" height="11.9"/>
<path class="st18" d="M1167.1,237.7c-42.8,14.3-85.6,28.6-128.4,42.9c-4.4,1.5-8.7-2.7-7.3-7.2c13.5-43.1,26.9-86.2,40.4-129.4
	c-0.6,2.6-0.7,5.3-0.5,7.9c0.7,8.1,4.2,16.4,8,23.3c6.6,12,14.9,22.1,24.6,31.7c9.7,9.5,20,17.6,32.2,23.9c7,3.7,15.3,7,23.4,7.5
	C1161.9,238.5,1164.6,238.4,1167.1,237.7z"/>
<rect x="1064.5" y="203.7" transform="matrix(0.7287 -0.6849 0.6849 0.7287 146.9031 789.9529)" class="st15" width="11.9" height="11.9"/>
<rect x="868.3" y="162.9" class="st24" width="90.5" height="13.4"/>
<rect x="868.3" y="195.5" class="st24" width="90.5" height="13.4"/>
<rect x="362.9" y="167.9" class="st24" width="90.5" height="13.4"/>
<rect x="362.9" y="167.9" transform="matrix(-1.836970e-16 1 -1 -1.836970e-16 582.7618 -233.5075)" class="st24" width="90.5" height="13.4"/>
</svg>
