<svg xmlns="http://www.w3.org/2000/svg" id="Layer_1" data-name="Layer 1" viewBox="0 0 608.83 354.44"><defs><style>.cls-1{fill:#231f20}.cls-2,.cls-3,.cls-4{fill:none;stroke-linecap:round;stroke-linejoin:round}.cls-2,.cls-4{stroke:#010101}.cls-2{stroke-width:.49px}.cls-3{stroke:#000}.cls-3,.cls-4{stroke-width:1.48px}</style></defs><title>Artboard 4</title><path d="M27.85,119v3.46H16.27V77.73h3.85V119Z" class="cls-1"/><path d="M40.69,117.3l-9.28,0a2.46,2.46,0,0,0,.71,1.09,3.22,3.22,0,0,0,2.22.91,3.27,3.27,0,0,0,2.22-.94.47.47,0,0,0,.1-.1l3.21,1c-1.33,2-2.74,3.21-5.5,3.24a6.36,6.36,0,1,1,6.32-6.4C40.69,116.27,40.71,117.13,40.69,117.3Zm-8.59-3.38a3.32,3.32,0,0,0-.67,1h5.8A3,3,0,0,0,34.32,113,3.11,3.11,0,0,0,32.1,113.92Z" class="cls-1"/><path d="M52,121a6.46,6.46,0,0,1-4.2,1.53A6.36,6.36,0,1,1,52,111.36l-2.29,2.27a3.19,3.19,0,0,0-4.1.27,3.11,3.11,0,0,0-.91,2.22,2.94,2.94,0,0,0,.89,2.22,3.27,3.27,0,0,0,2.22.94,3.11,3.11,0,0,0,1.87-.62Z" class="cls-1"/><path d="M66.11,116.44v6h-3.2v-6.27h0v-.08a3.11,3.11,0,0,0-3.13-3.1,3.13,3.13,0,0,0-2.22.93,3,3,0,0,0-.89,2.22v0h0v6.27H53.16V77.73h3.46v33.65a4,4,0,0,1,3.1-1.55c3.48-.3,6.39,2,6.39,6.31Z" class="cls-1"/><path d="M67.6,109.73h3.21v6.41c0,.84.57,3.11,2.89,3.11a2.88,2.88,0,0,0,2.89-3.13v-6.39H80v12.76H76.59v-1.34a3.89,3.89,0,0,1-3.11,1.34,5.92,5.92,0,0,1-5.88-6.1Z" class="cls-1"/><path d="M94.24,109.75v12.71a6.34,6.34,0,0,1-12.64.77h3.26a3,3,0,0,0,.84,1.45,3.12,3.12,0,0,0,2.22.92A3.16,3.16,0,0,0,91,122.46l0-1.26a4.48,4.48,0,0,1-3.06,1.26,6.36,6.36,0,1,1-.07-12.71A3.91,3.91,0,0,1,91,111.06v-1.31Zm-3.24,6a3,3,0,0,0-.91-1.88,3.22,3.22,0,0,0-2.22-.88,3.09,3.09,0,0,0-2.2.91,3.13,3.13,0,0,0,0,4.44,3.11,3.11,0,0,0,4.42,0,3.07,3.07,0,0,0,.88-1.83Z" class="cls-1"/><path d="M108.31,109.73v12.76h-3.45v-1.44a4,4,0,0,1-3.21,1.39,6.36,6.36,0,0,1-.08-12.71,4.23,4.23,0,0,1,3.29,1.4v-1.4Zm-3.58,6.34A3.12,3.12,0,0,0,101.6,113a3.11,3.11,0,0,0-2.22.91,3.13,3.13,0,0,0,0,4.45,3.11,3.11,0,0,0,2.22.91,3.19,3.19,0,0,0,2.2-.94A3.11,3.11,0,0,0,104.73,116.07Z" class="cls-1"/><path d="M16.27,25.79h2.15V40.62h7.11v1.8H16.27Z" class="cls-1"/><path d="M28.72,36.84c.05,2.94,1.92,4.15,4.09,4.15a7.92,7.92,0,0,0,3.31-.62l.37,1.55a9.6,9.6,0,0,1-4,.74c-3.68,0-5.88-2.41-5.88-6s2.13-6.44,5.61-6.44c3.89,0,4.93,3.43,4.93,5.63a9.47,9.47,0,0,1-.07,1Zm6.36-1.55c0-1.39-.56-3.53-3-3.53-2.19,0-3.16,2-3.33,3.53Z" class="cls-1"/><path d="M48.39,42a8,8,0,0,1-3.43.69c-3.6,0-6-2.44-6-6.09a6.07,6.07,0,0,1,6.42-6.34,7.38,7.38,0,0,1,3,.61L48,32.52A5.13,5.13,0,0,0,45.43,32c-2.74,0-4.22,2-4.22,4.52,0,2.76,1.78,4.47,4.15,4.47A6.19,6.19,0,0,0,48,40.35Z" class="cls-1"/><path d="M50.94,24.9h2.17v7.45h0a4,4,0,0,1,1.55-1.53,4.51,4.51,0,0,1,2.22-.62c1.61,0,4.17,1,4.17,5.11v7.11H58.93V35.56c0-1.93-.71-3.56-2.76-3.56a3.11,3.11,0,0,0-2.91,2.18,2.46,2.46,0,0,0-.15,1v7.21H50.94Z" class="cls-1"/><path d="M74.64,39.16c0,1.23,0,2.32.09,3.26H72.81l-.12-2h0a4.51,4.51,0,0,1-4,2.22c-1.88,0-4.12-1-4.12-5.23v-7h2.17v6.62c0,2.27.69,3.8,2.66,3.8a3.14,3.14,0,0,0,2.87-2,3.23,3.23,0,0,0,.19-1.11V30.47h2.18Z" class="cls-1"/><path d="M88.54,30.47c-.05.87-.1,1.83-.1,3.29v6.93c0,2.74-.55,4.42-1.71,5.45a6.3,6.3,0,0,1-4.34,1.44,7.71,7.71,0,0,1-4-1L79,44.93a6.66,6.66,0,0,0,3.5.94c2.23,0,3.85-1.16,3.85-4.17V40.37h0a4.26,4.26,0,0,1-3.8,2c-3,0-5.08-2.52-5.08-5.83,0-4,2.64-6.34,5.38-6.34a4,4,0,0,1,3.73,2.08h.05l.09-1.81Zm-2.25,4.72a3.4,3.4,0,0,0-.12-1,3.13,3.13,0,0,0-3-2.29c-2.07,0-3.55,1.75-3.55,4.51,0,2.35,1.18,4.29,3.53,4.29a3.17,3.17,0,0,0,3-2.22,3.83,3.83,0,0,0,.17-1.16Z" class="cls-1"/><path d="M98.66,42.42l-.17-1.51h-.08a4.43,4.43,0,0,1-3.65,1.78,3.4,3.4,0,0,1-3.65-3.43c0-2.89,2.56-4.47,7.18-4.44v-.25a2.46,2.46,0,0,0-2.72-2.76,5.94,5.94,0,0,0-3.1.88L92,31.26A7.45,7.45,0,0,1,95.9,30.2c3.65,0,4.54,2.49,4.54,4.89v4.47a17.81,17.81,0,0,0,.19,2.86Zm-.32-6.1c-2.37,0-5.06.37-5.06,2.69a1.93,1.93,0,0,0,2,2.08,3,3,0,0,0,2.89-2,2.44,2.44,0,0,0,.12-.69Z" class="cls-1"/><path d="M150,43.59a.47.47,0,0,1-.54.52h-7.83a.47.47,0,0,1-.54-.52V25.42c0-.35.18-.52.54-.52a.46.46,0,0,1,.52.52v17.5c0,.08,0,.13.12.13h7.19A.48.48,0,0,1,150,43.59Z" class="cls-1"/><path d="M161.78,37.14a.45.45,0,0,1-.51.52h-6.9c-.08,0-.12,0-.12.13V39.9a3.19,3.19,0,0,0,3.2,3.19h.1a3,3,0,0,0,2.8-1.65.46.46,0,0,1,.72-.2.45.45,0,0,1,.19.69,4,4,0,0,1-3.72,2.23h-.1a4.27,4.27,0,0,1-4.25-4.25V34.33a4.27,4.27,0,0,1,4.25-4.25h.1a4.27,4.27,0,0,1,4.24,4.25Zm-1.06-.66V34.33a3.18,3.18,0,0,0-3.18-3.19h-.1a3.18,3.18,0,0,0-3.19,3.19v2.15a.11.11,0,0,0,.12.12h6.2Q160.72,36.6,160.72,36.48Z" class="cls-1"/><path d="M173,41.93a4,4,0,0,1-3.73,2.23h-.1A4.25,4.25,0,0,1,165,39.91V34.33a4.25,4.25,0,0,1,4.24-4.25h.1A4,4,0,0,1,173,32.31a.47.47,0,0,1-.22.71.44.44,0,0,1-.69-.22,3,3,0,0,0-2.8-1.66h-.1a3.11,3.11,0,0,0-2.27.93,3,3,0,0,0-.93,2.25v5.57a3.18,3.18,0,0,0,3.2,3.2h.1a3,3,0,0,0,2.8-1.65.46.46,0,0,1,.71-.22A.47.47,0,0,1,173,41.93Z" class="cls-1"/><path d="M184.82,43.59a.53.53,0,0,1-1.06,0V34.41a3.11,3.11,0,0,0-.94-2.25,3,3,0,0,0-2.25-.94h-.1a3,3,0,0,0-2.25.94,3.1,3.1,0,0,0-.93,2.25v9.18a.53.53,0,0,1-1.06,0V25.42a.53.53,0,0,1,1.06,0v6c0,.09,0,.11.1.05a4.07,4.07,0,0,1,3.1-1.36h.09a4,4,0,0,1,3,1.25,4.09,4.09,0,0,1,1.25,3Z" class="cls-1"/><path d="M196.57,39.91a4.27,4.27,0,0,1-4.25,4.25h-.1A4.25,4.25,0,0,1,188,39.91V30.68a.53.53,0,0,1,1.06,0v9.22a3.11,3.11,0,0,0,.93,2.27,3.06,3.06,0,0,0,2.25.93h.1a3.18,3.18,0,0,0,3.19-3.2V30.67c0-.34.17-.51.53-.51a.46.46,0,0,1,.53.52Z" class="cls-1"/><path d="M208.32,45.1a4.27,4.27,0,0,1-4.25,4.27H204a4,4,0,0,1-3.76-2.25.53.53,0,1,1,.94-.49A3,3,0,0,0,204,48.3h.1a3.19,3.19,0,0,0,3.2-3.2V42.77c0-.1,0-.11-.1-.05a4,4,0,0,1-3.1,1.39H204a4.25,4.25,0,0,1-4.23-4.26V34.41A4.27,4.27,0,0,1,204,30.16h.09a4.25,4.25,0,0,1,4.25,4.24Zm-1.06-5.26V34.4a3.19,3.19,0,0,0-3.19-3.18H204a3.19,3.19,0,0,0-3.19,3.18v5.44a3.13,3.13,0,0,0,.93,2.27,3.08,3.08,0,0,0,2.26.94h.09a3.08,3.08,0,0,0,2.26-.94A3.13,3.13,0,0,0,207.26,39.84Z" class="cls-1"/><path d="M220.07,39.85a4.25,4.25,0,0,1-4.24,4.26h-.1a4.27,4.27,0,0,1-4.25-4.26v-.77a4.25,4.25,0,0,1,4.25-4.26h.1a4.16,4.16,0,0,1,3.11,1.34c.05.08.07.07.07,0V34.4a3.21,3.21,0,0,0-3.18-3.18h-.1a3.12,3.12,0,0,0-2.27.91.44.44,0,0,1-.74,0,.46.46,0,0,1,0-.74,4.15,4.15,0,0,1,3-1.23h.1a4.25,4.25,0,0,1,4.24,4.25Zm-1.06,0v-.77a3.18,3.18,0,0,0-3.17-3.19h-.1a3.19,3.19,0,0,0-3.2,3.19v.77a3.21,3.21,0,0,0,3.2,3.2h.1a3.19,3.19,0,0,0,3.17-3.2Z" class="cls-1"/><path d="M257.82,34.67c.27-9.85.27-11.22.55-11.5s1.1-.27,1.64-.27c1.1,0,1.38,0,1.93.55s.55.82.55,4.39c0,4.12-.28,11.5-.55,13.42-.28,1.37-.31,1.37,3.53,1.1,3.57,0,3.85.24,4.67.79a1.28,1.28,0,0,1,0,2.19c-1.65,1.38-10.13,1.93-11.77.83C257.54,45.62,257.54,45.62,257.82,34.67Z" class="cls-1"/><path d="M273.31,33.06a5.91,5.91,0,0,1,3.74-2,5.46,5.46,0,0,1,4,.82,4.07,4.07,0,0,1,1.4,1.89,3.43,3.43,0,0,1-1.68,3.3c-.2.13-.44.24-.51.31a5.45,5.45,0,0,1-.52.37,6,6,0,0,1-3.43.86.73.73,0,0,1-.58-.58.9.9,0,0,1,.58-.65,10.71,10.71,0,0,0,1.79-1c.82-.54,1.51-1.47,1.44-2a1.54,1.54,0,0,0-1.44-1.3c-.73-.07-1.58.68-2,1.68a3.8,3.8,0,0,0-.51,2.37,4.16,4.16,0,0,0,.27,1.85,4.77,4.77,0,0,0,1.21,1.82,1.17,1.17,0,0,0,.89.34c.41,0,.82-.24,1.61-1a6.26,6.26,0,0,1,1.2-1c.42-.21.38-.18,1.1-.18a1.85,1.85,0,0,1,1.37.42c.83,1-.55,2.85-2.67,3.67a6.06,6.06,0,0,1-2.71.58,5.57,5.57,0,0,1-5.67-3.91,6.63,6.63,0,0,1-.34-2.85A5.81,5.81,0,0,1,273.31,33.06Z" class="cls-1"/><path d="M287.62,35.15a4.28,4.28,0,0,1,1.51-.48,8.68,8.68,0,0,1,2.27.07,3.6,3.6,0,0,1,2.09,1.41c.11.27.11.34,0,.44-.1.28-.41.38-.86.38a.69.69,0,0,1-.79-.27,3.37,3.37,0,0,0-1.16-.55.83.83,0,0,0-.72,0,2.67,2.67,0,0,0-1.62,1.58,3.48,3.48,0,0,0-.41,2.26,4.73,4.73,0,0,0,.14,1.41c.45,1.37,1.27,2.37,2,2.26.51,0,.85-.17,1.54-.92a5.44,5.44,0,0,1,1.06-.86,1.75,1.75,0,0,1,1.07-.21c.58,0,.69,0,1,.21s.31.17.41.48c.28.44.1.86-.27,1.37a3.84,3.84,0,0,1-1,.93s-.14.17-.24.27a6.29,6.29,0,0,1-1.72.79,6.81,6.81,0,0,1-4.42-.38,5.54,5.54,0,0,1-2.78-4.11,9.09,9.09,0,0,1,.27-3,2.66,2.66,0,0,0,.28-.62,1.71,1.71,0,0,1,.27-.48c.1-.11.14-.24.24-.35A6.19,6.19,0,0,1,287.62,35.15Z" class="cls-1"/><path d="M296.59,30c.17-6.21.17-6.21.68-6.56a3.36,3.36,0,0,1,2.85-.17c1,.52,1.17,1.17,1,4.36v5.22A17,17,0,0,0,301,35a11.81,11.81,0,0,1,1.2-.68,4.4,4.4,0,0,1,2.16-.52,2.2,2.2,0,0,1,1.85.52c1.17.82,1.69,2.33,2.2,6,.34,2.37.34,4,0,4.53-.51,1.34-3.53,1.2-3.88-.14a5.27,5.27,0,0,1,0-1.68,40.11,40.11,0,0,0-.48-6.9c-.17-.82-.17-.86-.68-.69a3.77,3.77,0,0,0-1.51.69c-.83.52-.86.48-.86,1.17-.17,1.16-.66,6.9-1,7.72-.34,1.51-2,2.2-2.85,1.2-.68-.69-.85-1.54-.68-6.07C296.42,38,296.59,33.5,296.59,30Z" class="cls-1"/><path d="M317.84,33.3A1.85,1.85,0,0,1,319.15,32c.27-.21.65-.21,1.3-.21a2.1,2.1,0,0,1,1.75.55,1.13,1.13,0,0,1,0,1.3,6.41,6.41,0,0,0-.27,1.79c0,.82,0,2.57.1,4,.07,2.78,0,4.67-.28,5.22s-.85.89-1.78.82c-.76,0-1.34-.17-1.55-.55a2.78,2.78,0,0,1-.2-1c-.07-.37-.1-.65-.1-.65a4,4,0,0,0-.83.38c-.82.38-1.41.65-2.06.93a4.15,4.15,0,0,1-2.4.1A3.65,3.65,0,0,1,310.5,42a25.92,25.92,0,0,1-.66-7.42c.07-.92.11-1.13.38-1.4a1.65,1.65,0,0,1,1.58-.66,2.33,2.33,0,0,1,2,.55c.27.28.24.28.17,1.41-.21,4.29-.07,7.79.21,8.44.2.28.17.31.54.31a6.12,6.12,0,0,0,2.06-.86c.28-.06.62-.31.83-.37.48-.21.48-.18.48-.72,0-.28-.14-1-.21-1.69-.07-.82-.17-1.95-.17-3.53C317.67,34.05,317.64,33.67,317.84,33.3Z" class="cls-1"/><path d="M331.89,30a7.81,7.81,0,0,1,.82-.34,2.79,2.79,0,0,1,2.3.82,9,9,0,0,1,.14,2.44,58.31,58.31,0,0,0,.24,7.58c.37,8.35.34,8.83.1,10a3.58,3.58,0,0,1-.72,1.58,4.72,4.72,0,0,1-6.52.1,1.86,1.86,0,0,1-.59-1.92c0-.62.21-.86,1.07-1.34s1.68,0,2.06,1.2c.48,1.44.75.62.62-2-.14-2.88-.35-8.34-.48-8.34s-.24,0-.62,0a5.42,5.42,0,0,1-1.82.24,5.23,5.23,0,0,1-3.61-1.09A3.14,3.14,0,0,1,323.55,37a3.58,3.58,0,0,1,.37-2.3,9.22,9.22,0,0,1,1.31-1.2s.34-.1.72-.24a7.45,7.45,0,0,1,3.26-.48c1.58,0,1.34.14,1.58-1.2A1.78,1.78,0,0,1,331.89,30Zm-1.1,6.9c0-1-.14-1.82-.14-2.06s-.1-.38-.82-.38a2.43,2.43,0,0,0-2.41,1.24A2,2,0,0,0,329,38.58a3.45,3.45,0,0,0,1.2,0C330.79,38.44,330.79,38.48,330.79,36.9Z" class="cls-1"/><path d="M339.07,33.71a13.44,13.44,0,0,1,3.05-.86,5.14,5.14,0,0,1,3.47.41,5.22,5.22,0,0,1,1.68,1.79,7.17,7.17,0,0,1,.48,2.09c.1.59-.17,4.26-.41,8.07-.1,1.44-.07,1.44.24,1.71s.24.21.24.48a1,1,0,0,1-.31.76,2.56,2.56,0,0,1-2.54.55,2.52,2.52,0,0,1-1.92-1.41c-.11-.34,0-.27-.93-.38-2.47,0-4.5-1-5.15-2.5a3.9,3.9,0,0,1-.07-2.51,4.46,4.46,0,0,1,3-2.3,7.52,7.52,0,0,1,3,0h.54a13.08,13.08,0,0,0,.24-3.12,4.09,4.09,0,0,0-.51-1.55,5.25,5.25,0,0,0-2.68-.17c-.89.11-1.68,0-1.88-.27S338.65,34,339.07,33.71Zm4.11,9.09c.11-.82.18-1.64.18-1.75s-.11-.06-.79-.06-1,0-1.31.17a2.07,2.07,0,0,0-.79,2.78c.42.82.76,1.06,1.92,1.16C343.08,45.21,342.94,45.45,343.18,42.8Z" class="cls-1"/><path d="M390.43,38.43v3.45H378.86v-16h3.85V38.43Z" class="cls-1"/><path d="M403.27,36.7l-9.28,0a2.43,2.43,0,0,0,.72,1.09,3.18,3.18,0,0,0,2.22.91,3.22,3.22,0,0,0,2.22-.93l.1-.1,3.21,1c-1.34,2.05-2.74,3.21-5.51,3.23a6.36,6.36,0,1,1,6.32-6.39C403.27,35.66,403.29,36.53,403.27,36.7Zm-8.59-3.38a3.19,3.19,0,0,0-.66,1h5.79a3,3,0,0,0-2.91-1.94A3.13,3.13,0,0,0,394.68,33.32Z" class="cls-1"/><path d="M414.6,40.35a6.44,6.44,0,0,1-4.19,1.53,6.36,6.36,0,0,1,.07-12.71,6.53,6.53,0,0,1,4.15,1.58L412.33,33a3.17,3.17,0,0,0-1.87-.61,3.22,3.22,0,0,0-2.22.88,3.12,3.12,0,0,0-.92,2.23,3,3,0,0,0,.89,2.22,3.15,3.15,0,0,0,4.1.32Z" class="cls-1"/><path d="M428.7,35.84v6h-3.21V35.61h0v-.07a3.12,3.12,0,0,0-3.14-3.11,3.14,3.14,0,0,0-2.22.94,3,3,0,0,0-.89,2.22v0h0v6.27h-3.46v-16h3.46v4.94a4,4,0,0,1,3.11-1.56c3.48-.29,6.39,2,6.39,6.32Z" class="cls-1"/><path d="M430.19,29.12h3.21v6.42c0,.84.56,3.11,2.88,3.11a2.88,2.88,0,0,0,2.89-3.13v-6.4h3.45V41.88h-3.45V40.55a3.87,3.87,0,0,1-3.11,1.33,5.9,5.9,0,0,1-5.87-6.09Z" class="cls-1"/><path d="M456.82,29.15V41.86a6.34,6.34,0,0,1-12.63.76h3.25a3.1,3.1,0,0,0,.84,1.46,3.13,3.13,0,0,0,2.22.91,3.16,3.16,0,0,0,3.11-3.13l0-1.26a4.54,4.54,0,0,1-3.06,1.26,6.36,6.36,0,0,1-.08-12.71,3.91,3.91,0,0,1,3.14,1.31V29.15Zm-3.23,6a3.16,3.16,0,0,0-.91-1.87,3.22,3.22,0,0,0-2.23-.89,3.06,3.06,0,0,0-2.19.91,3.15,3.15,0,0,0,0,4.45,3.13,3.13,0,0,0,2.22.91,3.19,3.19,0,0,0,2.2-.94,3.08,3.08,0,0,0,.89-1.83Z" class="cls-1"/><path d="M470.89,29.12V41.88h-3.45V40.45a4,4,0,0,1-3.21,1.38,6.36,6.36,0,1,1-.07-12.71,4.21,4.21,0,0,1,3.28,1.41V29.12Zm-3.57,6.35a3.06,3.06,0,0,0-.94-2.23,3,3,0,0,0-2.2-.88,3.12,3.12,0,1,0,3.14,3.11Z" class="cls-1"/><path d="M503.73,25h2.07v15.3h7.75v2h-9.82Z" class="cls-1"/><path d="M525.8,36.6a5.39,5.39,0,0,1,0,.67h-9.2a3.84,3.84,0,0,0,3.92,3.33,4.39,4.39,0,0,0,3.43-1.68l1.31,1.36a6.37,6.37,0,0,1-4.74,2.24,5.83,5.83,0,0,1-6-6,5.67,5.67,0,0,1,5.7-6C523.43,30.53,525.8,32.92,525.8,36.6Zm-2-1.06a3.43,3.43,0,0,0-3.53-3.08,3.53,3.53,0,0,0-3.62,3.08Z" class="cls-1"/><path d="M537.92,40.33a6.17,6.17,0,0,1-4.67,2.19,6,6,0,0,1,0-12,6.09,6.09,0,0,1,4.54,2l-1.4,1.26a4.22,4.22,0,0,0-3.14-1.38,3.82,3.82,0,0,0-3.8,4.07,3.83,3.83,0,0,0,3.8,4.07A4.21,4.21,0,0,0,536.59,39Z" class="cls-1"/><path d="M550.11,34.9v7.33H548v-7a2.52,2.52,0,0,0-2.74-2.78,3.6,3.6,0,0,0-2.84,1.92v7.85h-2.07V23.57h2.07v8.64a4,4,0,0,1,3.36-1.68A4.15,4.15,0,0,1,550.11,34.9Z" class="cls-1"/><path d="M553.28,38.16V30.83h2.07v7a2.53,2.53,0,0,0,2.74,2.79,3.43,3.43,0,0,0,2.84-1.88V30.83H563v11.4h-1.92V40.48a4.05,4.05,0,0,1-3.51,2A4.14,4.14,0,0,1,553.28,38.16Z" class="cls-1"/><path d="M574.58,40.8a4.61,4.61,0,0,1-3.68,1.72,5.72,5.72,0,0,1-5.52-6,5.73,5.73,0,0,1,5.52-6,4.44,4.44,0,0,1,3.85,1.95V30.83h1.9V42.28c0,3.94-2.69,5.92-6,5.92a7,7,0,0,1-5-2.17l1.26-1.56a5,5,0,0,0,3.73,1.8c2.42,0,3.92-1.33,3.92-3.89Zm0-6.42a4.11,4.11,0,0,0-3.36-1.92,3.79,3.79,0,0,0-3.77,4.07,3.79,3.79,0,0,0,3.77,4.07,4,4,0,0,0,3.36-1.93Z" class="cls-1"/><path d="M590.31,30.83v11.4h-1.9V40.57a4.48,4.48,0,0,1-3.9,2,5.72,5.72,0,0,1-5.48-6,5.72,5.72,0,0,1,5.48-6,4.48,4.48,0,0,1,3.9,1.95V30.83Zm-2.08,3.55a4.09,4.09,0,0,0-3.33-1.92,3.8,3.8,0,0,0-3.8,4.07,3.81,3.81,0,0,0,3.8,4.07,4.09,4.09,0,0,0,3.33-1.93Z" class="cls-1"/><path d="M199.19,110a5,5,0,1,0-9.9,0v9.9a5,5,0,1,0,9.9,0" class="cls-2"/><path d="M209.09,110a4.95,4.95,0,0,0-9.9,0v9.9a4.95,4.95,0,0,0,9.9,0" class="cls-2"/><path d="M189.29,105.06v14.85a4.95,4.95,0,1,1-9.89,0V105.06" class="cls-2"/><line x1="144.75" x2="144.75" y1="124.86" y2="85.27" class="cls-2"/><path d="M154.65,115h4.95V110a5,5,0,1,0-9.9,0v9.9a4.95,4.95,0,1,0,9.9,0" class="cls-2"/><path d="M169.5,110a5,5,0,1,0-9.9,0v9.9a4.95,4.95,0,1,0,9.9,0" class="cls-2"/><path d="M169.5,110a4.95,4.95,0,0,1,9.9,0v14.85" class="cls-2"/><line x1="169.5" x2="169.5" y1="124.86" y2="85.27" class="cls-2"/><path d="M189.29,139.7a5,5,0,0,0,9.9,0V105.06" class="cls-2"/><line x1="209.09" x2="209.09" y1="124.86" y2="105.06" class="cls-2"/><path d="M304.49,93.23v14.85a4.95,4.95,0,1,1-9.9,0V93.23" class="cls-3"/><line x1="249.05" x2="249.05" y1="126.22" y2="86.63" class="cls-3"/><path d="M258.21,109.73h4.94v-5a4.95,4.95,0,1,0-9.89,0v9.9a4.95,4.95,0,1,0,9.89,0" class="cls-3"/><path d="M276.93,108.08a4.95,4.95,0,1,0-9.89,0V118a4.95,4.95,0,1,0,9.89,0" class="cls-3"/><path d="M280.81,104.78a4.95,4.95,0,0,1,9.9,0v14.85" class="cls-3"/><line x1="280.81" x2="280.81" y1="119.63" y2="80.03" class="cls-3"/><path d="M318.27,104.78a5,5,0,1,0-9.9,0v9.9a4.95,4.95,0,1,0,9.9,0" class="cls-3"/><path d="M308.37,134.47a4.95,4.95,0,1,0,9.9,0V99.83" class="cls-3"/><path d="M332.05,111.38a4.95,4.95,0,1,0-9.9,0v9.9a5,5,0,0,0,9.9,0" class="cls-3"/><line x1="332.05" x2="332.05" y1="126.22" y2="106.43" class="cls-3"/><path d="M327.58,264.8a14.22,14.22,0,0,1-10-4.35c-4.18-4.44-4.5-10-4.8-15.79-.33-6.57-.09-13.16.16-19.74l.42-11.44c.05-1.19.39-2.71,1.57-2.84,1.38-.15,1.91,1.76,1.9,3.15l-.08,29.91a34.65,34.65,0,0,0,.73,8.81,11.7,11.7,0,0,0,4.83,7.17c4.61,2.84,11.53.74,14.19-3.85,1.84-3.18,1.87-7.06,1.86-10.74L338.27,214a5.35,5.35,0,0,1,.32-2.26,1.84,1.84,0,0,1,1.81-1.16c1.22.2,1.54,1.78,1.57,3q.33,13.16.26,26.32c-.05,9,.46,20.67-10,24.2A13.61,13.61,0,0,1,327.58,264.8Z"/><path d="M198.79,298.41a1.34,1.34,0,0,1-1.31-.39,2.37,2.37,0,0,1-.42-1.3c-.77-7.06-.26-14.47-.28-21.58q0-11.13,0-22.28c.05-14.71.15-29.42.15-44.13,0-3.27-.52-6.52-.33-9.8.08-1.26.06-3.5,1-4.49,2.24-2.27,3,1.65,3.06,3.18.1,3.27,0,6.57,0,9.85q0,41.24,0,82.49c0,1.7,0,3.4-.08,5.09a4.48,4.48,0,0,1-.73,2.68A2,2,0,0,1,198.79,298.41Z"/><path d="M222.17,281.4a14.08,14.08,0,0,1-13.71-10.06,33.69,33.69,0,0,1-.89-10.46c.14-4.85-.11-9.65-.14-14.48s.68-9.68,3.51-13.46a14.18,14.18,0,0,1,12-5.54,14.49,14.49,0,0,1,11.31,6.91c3.48,5.81,3,13.77,2.3,20.24a1.65,1.65,0,0,1-1.95,1.86c-3.81,0-7.62.17-11.42,0-1.24-.05-2.83-.44-3-1.68a1.85,1.85,0,0,1,1.17-1.75,5.49,5.49,0,0,1,2.21-.31l8.46,0a.75.75,0,0,0,.52-.13.77.77,0,0,0,.19-.52,48.77,48.77,0,0,0,.35-8.79c-.4-5.12-2.62-10-7.88-11.6A11,11,0,0,0,213,236.31c-2.4,3.68-1.66,9.31-1.66,13.54,0,4.72-.22,9.51-.08,14.23.13,4.35,1.33,9,4.74,11.71A10.1,10.1,0,0,0,225,277.5a10.71,10.71,0,0,0,6.77-6.16c.62-1.51.9-3.15,1.53-4.66a2.22,2.22,0,0,1,.72-1,1.67,1.67,0,0,1,2.23.69,4,4,0,0,1,.33,2.54,14.53,14.53,0,0,1-6.13,10.1A14.31,14.31,0,0,1,222.17,281.4Z"/><path d="M257.29,289.78c-4.89.08-9.77-2.09-12.26-6.6a24.28,24.28,0,0,1-2.53-9.87,106.72,106.72,0,0,1,.13-15c.26-4.57-.25-9.73,1.56-14A14.43,14.43,0,0,1,258.85,236a15.4,15.4,0,0,1,12.89,12.4,4.61,4.61,0,0,1-.15,2.58,2,2,0,0,1-2.08,1.22c-1.32-.32-1.52-2.06-1.7-3.41a10.79,10.79,0,0,0-11.77-9.1,10.57,10.57,0,0,0-7.74,5.11c-2,3.42-1.83,7.88-1.91,11.74-.1,4.49.13,9,.23,13.47.09,4.32.18,9,2.8,12.42a9.88,9.88,0,0,0,17.05-2.36c.8-2,1-4.47,2.68-5.89a1.76,1.76,0,0,1,1-.47c1.12-.06,1.58,1.44,1.53,2.56a14.31,14.31,0,0,1-4.83,9.95A14.92,14.92,0,0,1,257.29,289.78Z"/><path d="M306.58,242a1.23,1.23,0,0,1,0,.2c1,12.12.34,24.52.28,36.68,0,1-.14,2.24-1.05,2.67a1.89,1.89,0,0,1-2.3-1,5.56,5.56,0,0,1-.43-2.69l.3-29.09c.05-5-.07-10.39-3.35-14.1a10.29,10.29,0,0,0-8.86-3.35c-5.54.69-8.89,5.75-9.74,10.9-.88,5.36.28,10.9.3,16.3s0,10.58-.08,15.87c0,1.62.66,5.59-.53,6.78-1.46,1.47-3.16-.32-3.27-1.91-.53-7.06,0-14.34,0-21.42l0-22.33c0-18.49.06-37,.07-55.49,0-1.15.18-2.57,1.25-3a2,2,0,0,1,2.32,1.1,5.86,5.86,0,0,1,.43,2.76l-.4,51.13c0-1.09,4.4-2.94,5.26-3.28a15.48,15.48,0,0,1,6.79-1.11c3.91.28,8.28,2.36,10.53,5.66C305.86,235.8,306.33,238.93,306.58,242Z"/><path d="M375.35,227.46a2.25,2.25,0,0,0-1.93,1.63,6.09,6.09,0,0,0,.13,3.08,14.93,14.93,0,0,0-11.74-4.69,14.77,14.77,0,0,0-12.23,8.21c-2.89,6.19-.84,13.94-1,20.49-.14,5.62-1.37,11.3.93,16.67a14.55,14.55,0,0,0,10.93,8.66c5.17.83,8.69-1.44,12.75-4.1,1.12,1.56.27,6.37.27,8.38,0,3.11,0,6.22,0,9.34,0,6.21,0,12.43.2,18.64.09,3.83-.42,7.91-2.82,10.88a10.69,10.69,0,0,1-11.69,3.14,11.4,11.4,0,0,1-6.82-7.53c-.33-1.18.05-3.29-1-4.09a2,2,0,0,0-3,1.07c-.57,1.8.59,4.78,1.34,6.39a14.22,14.22,0,0,0,26.52-1c1.07-3.05,1.08-6.37,1.08-9.61l0-44.58q0-18.77.05-37.54c0-1.33-.25-3-1.54-3.37A1.83,1.83,0,0,0,375.35,227.46Zm-12.62,50.47a11.69,11.69,0,0,1-1.32-.08,10.69,10.69,0,0,1-8.35-6.22c-1.16-2.66-1.16-5.67-1.14-8.58,0-7.09-.73-14.73.25-21.76.71-5.13,4.16-9.14,9.41-9.84a10.31,10.31,0,0,1,8.22,2.49c6.18,5.68,3.43,16.41,3.52,23.75,0,3.38.5,6.77,0,10.12C372.62,273.31,368.31,277.9,362.73,277.93Z"/><path d="M410.5,244.06c-1.68-.18-1.86,3.4-1.88,4.44-2.8-1.42-5.3-3.22-8.45-3.86a14.13,14.13,0,0,0-14.24,6.06c-2.88,4.36-3.05,9.8-2.8,14.85.27,5.59-.13,11.2.23,16.8.26,4,1.23,8.16,3.78,11.28,5.46,6.66,15.78,5.89,21.55.14a6,6,0,0,0,0,3.34c1.76,4.32,3.69-2.44,3.68-4.07-.09-12.73,0-25.48,0-38.22v-7a4.37,4.37,0,0,0-.73-3A1.92,1.92,0,0,0,410.5,244.06Zm-12.63,50.31a10.76,10.76,0,0,1-8.38-4.17c-2.53-3.46-2.54-8.08-2.55-12.36,0-5.68-.21-11.37.33-17a19.4,19.4,0,0,1,2.14-8.05c3.87-6.64,14.45-5.41,17.75,1.13,1.45,2.87,1.48,6.23,1.49,9.45l0,17C408.68,287.37,406.32,294.64,397.87,294.37Z"/><path d="M435.12,106.43v14.85a5,5,0,0,1-9.9,0V106.43" class="cls-4"/><line x1="379.68" x2="379.68" y1="126.22" y2="86.63" class="cls-4"/><path d="M388.84,116.33h4.94v-5a4.95,4.95,0,1,0-9.89,0v9.9a4.95,4.95,0,0,0,9.89,0" class="cls-4"/><path d="M407.56,111.38a4.95,4.95,0,0,0-9.9,0v9.9a5,5,0,0,0,9.9,0" class="cls-4"/><path d="M411.44,111.38a4.95,4.95,0,0,1,9.9,0v14.84" class="cls-4"/><line x1="411.44" x2="411.44" y1="126.22" y2="86.63" class="cls-4"/><path d="M448.9,91.58a5,5,0,1,0-9.9,0v9.9a4.95,4.95,0,1,0,9.9,0" class="cls-4"/><path d="M439,121.28a5,5,0,0,0,9.9,0V86.63" class="cls-4"/><path d="M462.68,111.38a4.95,4.95,0,1,0-9.9,0v9.9a5,5,0,0,0,9.9,0" class="cls-4"/><line x1="462.68" x2="462.68" y1="126.22" y2="106.43" class="cls-4"/><path d="M562.75,109.73v14.85a5,5,0,0,1-9.9,0V109.73" class="cls-3"/><line x1="507.31" x2="507.31" y1="129.52" y2="89.93" class="cls-3"/><path d="M516.46,119.63h4.95v-4.95a4.95,4.95,0,1,0-9.89,0v9.9a4.95,4.95,0,0,0,9.89,0" class="cls-3"/><path d="M535.19,114.68a4.95,4.95,0,0,0-9.9,0v9.9a5,5,0,0,0,9.9,0" class="cls-3"/><path d="M539.07,114.68a4.95,4.95,0,0,1,9.9,0v14.84" class="cls-3"/><line x1="539.07" x2="539.07" y1="129.52" y2="89.93" class="cls-3"/><path d="M576.53,114.68a5,5,0,1,0-9.9,0v9.9a5,5,0,0,0,9.9,0" class="cls-3"/><path d="M566.63,144.37a5,5,0,1,0,9.9,0V109.73" class="cls-3"/><path d="M590.31,114.68a5,5,0,1,0-9.9,0v9.9a5,5,0,0,0,9.9,0" class="cls-3"/><line x1="590.31" x2="590.31" y1="129.52" y2="109.73" class="cls-3"/></svg>