<?xml version="1.0" encoding="utf-8"?>
<!-- Generator: Adobe Illustrator 23.1.1, SVG Export Plug-In . SVG Version: 6.00 Build 0)  -->
<svg version="1.1" id="Layer_1" xmlns="http://www.w3.org/2000/svg" xmlns:xlink="http://www.w3.org/1999/xlink" x="0px" y="0px"
	 viewBox="0 0 1000 650" style="enable-background:new 0 0 1000 650;" xml:space="preserve">
<style type="text/css">
	.st0{enable-background:new    ;}
	.st1{fill:#00E59F;}
	.st2{fill:none;stroke:#000000;stroke-width:4;stroke-linecap:round;stroke-miterlimit:10;}
	.st3{opacity:0.4;fill:#444445;enable-background:new    ;}
	.st4{fill:#862EED;}
	.st5{opacity:0.5;fill:#D9E5E4;enable-background:new    ;}
	.st6{fill:#30302F;}
	.st7{fill:#CA2027;}
	.st8{fill:#A61E22;}
	.st9{fill:#7600E5;}
	.st10{fill:#2E2940;}
</style>
<title>Artboard 1 copy 13</title>
<g class="st0">
	<path class="st1" d="M338.4,336c0.4,4.8,1.8,8.4,4.1,10.6c2.3,2.2,5.3,3.3,9.1,3.3c1.9,0,3.5-0.2,4.9-0.7c1.4-0.5,2.6-1,3.6-1.5
		c1-0.5,2-1,2.9-1.5c0.8-0.5,1.7-0.7,2.5-0.7c1.1,0,1.9,0.4,2.5,1.2l4,5c-1.5,1.7-3.1,3.1-4.9,4.2c-1.8,1.1-3.6,2-5.5,2.7
		c-1.9,0.6-3.8,1.1-5.8,1.3c-1.9,0.2-3.8,0.4-5.6,0.4c-3.6,0-7-0.6-10.1-1.8c-3.1-1.2-5.8-2.9-8.2-5.2c-2.3-2.3-4.1-5.2-5.5-8.6
		c-1.3-3.4-2-7.4-2-11.9c0-3.5,0.6-6.8,1.7-9.9c1.2-3.1,2.8-5.8,5-8.1c2.2-2.3,4.8-4.1,7.9-5.5c3.1-1.3,6.6-2,10.5-2
		c3.3,0,6.3,0.5,9.1,1.6c2.8,1.1,5.2,2.6,7.2,4.6c2,2,3.6,4.5,4.7,7.4c1.1,2.9,1.7,6.2,1.7,10c0,1,0,1.9-0.1,2.5s-0.3,1.2-0.5,1.6
		c-0.2,0.4-0.6,0.7-1,0.8s-0.9,0.2-1.5,0.2H338.4z M360.1,327.8c0-1.4-0.2-2.8-0.6-4.1c-0.4-1.3-1-2.5-1.8-3.5
		c-0.8-1-1.9-1.8-3.1-2.4c-1.3-0.6-2.8-0.9-4.6-0.9c-3.3,0-5.9,0.9-7.8,2.8c-1.9,1.9-3.1,4.5-3.6,8H360.1z"/>
</g>
<g class="st0">
	<path class="st1" d="M427.7,359.6h-13.2c-1,0-1.8-0.2-2.4-0.8c-0.6-0.5-1.1-1.1-1.5-1.8l-10.1-17c-0.3,1.1-0.7,2.1-1.3,3l-8.7,14
		c-0.4,0.6-0.9,1.2-1.5,1.7c-0.6,0.5-1.3,0.8-2.2,0.8h-12.3l17.5-26.6l-16.8-24.9h13.2c1,0,1.7,0.1,2.2,0.4c0.5,0.3,0.9,0.7,1.2,1.3
		l10.1,16.3c0.2-0.6,0.4-1.1,0.6-1.7s0.6-1.2,1-1.7l7.8-12.6c0.8-1.3,1.8-2,3.1-2H427l-16.8,24.3L427.7,359.6z"/>
	<path class="st1" d="M446.4,314.9c1-1.1,2.1-2.2,3.3-3.1s2.4-1.8,3.8-2.5c1.3-0.7,2.8-1.2,4.3-1.6s3.2-0.6,5-0.6
		c2.8,0,5.3,0.6,7.6,1.8c2.3,1.2,4.3,2.9,6,5.2c1.7,2.2,3,5,3.9,8.3s1.4,7,1.4,11.2c0,3.9-0.5,7.4-1.6,10.7s-2.5,6.1-4.5,8.5
		c-1.9,2.4-4.3,4.3-7,5.6c-2.7,1.4-5.7,2-9.1,2c-2.8,0-5.2-0.4-7.1-1.2c-2-0.8-3.7-2-5.2-3.4v20.6h-13.8v-68.2h8.5
		c1.7,0,2.9,0.8,3.5,2.4L446.4,314.9z M447.2,346c1.3,1.5,2.7,2.5,4.2,3.1c1.5,0.6,3.1,0.9,4.9,0.9c1.7,0,3.2-0.3,4.5-1
		c1.4-0.6,2.5-1.6,3.5-3c1-1.4,1.7-3.1,2.3-5.2c0.5-2.1,0.8-4.6,0.8-7.5c0-2.9-0.2-5.3-0.7-7.3c-0.5-2-1.1-3.6-1.9-4.8
		s-1.8-2.1-3-2.7c-1.2-0.6-2.5-0.8-3.9-0.8c-2.4,0-4.5,0.5-6.1,1.4c-1.6,1-3.2,2.3-4.7,4.2V346z"/>
	<path class="st1" d="M506.3,293.4c0,1.2-0.2,2.2-0.7,3.2s-1.1,1.9-1.9,2.7s-1.7,1.4-2.8,1.8c-1,0.4-2.2,0.7-3.4,0.7
		c-1.1,0-2.2-0.2-3.2-0.7c-1-0.4-1.9-1-2.7-1.8c-0.8-0.8-1.4-1.7-1.8-2.7s-0.7-2.1-0.7-3.2c0-1.2,0.2-2.3,0.7-3.3s1.1-1.9,1.8-2.7
		c0.8-0.8,1.7-1.4,2.7-1.8c1-0.4,2.1-0.6,3.2-0.6c1.2,0,2.3,0.2,3.4,0.6c1,0.4,2,1,2.8,1.8c0.8,0.8,1.4,1.7,1.9,2.7
		S506.3,292.3,506.3,293.4z M504.7,308.1v51.5h-13.8v-51.5H504.7z"/>
	<path class="st1" d="M532.3,293.4c0,1.2-0.2,2.2-0.7,3.2c-0.5,1-1.1,1.9-1.9,2.7c-0.8,0.8-1.7,1.4-2.8,1.8
		c-1.1,0.4-2.2,0.7-3.4,0.7c-1.1,0-2.2-0.2-3.2-0.7c-1-0.4-1.9-1-2.7-1.8c-0.8-0.8-1.4-1.7-1.8-2.7s-0.7-2.1-0.7-3.2
		c0-1.2,0.2-2.3,0.7-3.3s1.1-1.9,1.8-2.7c0.8-0.8,1.7-1.4,2.7-1.8c1-0.4,2.1-0.6,3.2-0.6c1.2,0,2.3,0.2,3.4,0.6c1,0.4,2,1,2.8,1.8
		c0.8,0.8,1.4,1.7,1.9,2.7C532.1,291.2,532.3,292.3,532.3,293.4z M530.7,308.1v51.5h-13.8v-51.5H530.7z"/>
</g>
<line class="st2" x1="828" y1="373.3" x2="828" y2="427.3"/>
<line class="st2" x1="853.2" y1="373.3" x2="853.2" y2="427.3"/>
<path class="st3" d="M905.7,428.9c-3.5-0.6-7.5-1.1-13.2-1.6c-4.9-0.4-11.4-0.8-17.7-1.1c-7.3-0.4-14.6-0.7-24.1-0.8
	c-10.3-0.1-20.9,0.2-30,0.5c-2.4,0.1-4.7,0.2-7,0.3c-7,0-13.2,0.3-17.4,0.7c-9.1,0.4-16.1,1.1-21.2,1.7c-5.7,0.7-10.2,1.5-6.2,2.2
	c7.3,1.4,35.2,1.8,54.7,1.9c23.9,0.2,49.5,0,70.5-0.8c5.1-0.1,10.2-0.5,15.3-1.1C912.1,430.1,908.7,429.4,905.7,428.9z"/>
<path class="st4" d="M930.9,303.3c-4.8-12.1-10.3-24.2-18.2-34.6c-6.8-8.9-15.6-16.7-24.4-23.7c-10-8.2-20.2-14.4-33.2-15.9
	c-14.2-1.6-28.8,3.3-41.3,9.6c-3.3,1.6-6.5,3.4-9.6,5.4c-9.6,0.9-18.2,6.2-24,13.9c-12.5,8.9-22.2,22.8-29.2,35.3
	c-7.9,14.3-14.1,31.3-8.5,47.5c10.1,29.3,48.5,37.4,75.4,40.2c33,3.5,68.2-0.6,97.2-17.8c9.3-5.5,17.6-13.6,21.1-24
	C939.7,327.7,935.1,314,930.9,303.3z"/>
<circle cx="829.1" cy="297.1" r="8.4"/>
<circle cx="854" cy="297.1" r="8.4"/>
<path class="st5" d="M929.2,262.5v32.3c0,0.1,0,0.2,0,0.3c0,0.4,0,0.8,0,1.2c0,0.1,0,0.1,0,0.2c-1.3,25.1-20.7,45.1-44.4,45.1
	c-22.7,0-41.5-18.3-44.1-41.9c-2.7,23.6-21.4,41.9-44.2,41.9c-24.6,0-44.5-21.4-44.5-47.7c0-1.4,0-2.7,0.2-4v-27.4
	c0-9,6.3-16.4,14.1-16.4h148.9C922.9,246.1,929.2,253.4,929.2,262.5z"/>
<path class="st6" d="M928.6,257.9h-176c1.7-6.8,7.1-11.8,13.5-11.8H915C921.5,246.1,926.9,251.1,928.6,257.9z"/>
<path d="M852,340.4l-0.1,0.2c-0.1,0.1-0.2,0.4-0.4,0.7s-0.3,0.7-0.5,1.1s-0.4,1-0.6,1.5l-0.2,0.9l-0.2,1l-0.1,1c0,0.3,0,0.7,0,1
	s0.1,0.7,0.2,1c0.1,0.3,0.2,0.7,0.3,1c0.3,0.7,0.7,1.3,1.2,1.9l0.8,0.8l1.1,0.8c0.7,0.5,1.4,0.9,2.1,1.3c0.7,0.3,1.4,0.6,2.2,0.9
	c0.4,0.1,0.7,0.2,1.1,0.3s0.7,0.1,1,0.1c1.1,0.1,2.2,0.1,3.2-0.1c0.4-0.1,0.8-0.2,1.2-0.3c-0.4,0.2-0.7,0.4-1.1,0.5
	c-1.1,0.4-2.2,0.6-3.3,0.7c-0.3,0-0.7,0-1.1,0s-0.8,0-1.2-0.1c-0.9-0.1-1.7-0.3-2.5-0.5c-0.9-0.3-1.8-0.6-2.6-1l-1.2-0.6
	c-0.5-0.3-0.9-0.6-1.3-0.9c-0.8-0.7-1.5-1.4-2.1-2.3c-0.3-0.4-0.5-0.9-0.8-1.4c-0.2-0.5-0.3-1-0.5-1.5s-0.2-1-0.3-1.5l-0.1-1.4v-1.3
	l0.1-1.2c0.1-0.8,0.2-1.5,0.4-2.1s0.3-1.1,0.5-1.6s0.3-0.8,0.4-1l0.2-0.4c0.5-1.3,2-1.9,3.3-1.4s1.9,2,1.4,3.3
	C852.1,340.1,852,340.2,852,340.4L852,340.4z"/>
<path d="M829.2,340.4l0.2,0.4c0.1,0.3,0.2,0.6,0.4,1s0.3,1,0.5,1.6s0.3,1.3,0.4,2.1l0.1,1.2v1.3l-0.1,1.4c-0.1,0.5-0.2,1-0.3,1.5
	s-0.3,1-0.5,1.5s-0.5,1-0.8,1.4c-0.6,0.9-1.3,1.7-2.1,2.3c-0.4,0.3-0.8,0.6-1.3,0.9l-1.2,0.6c-0.8,0.4-1.7,0.7-2.6,1
	c-0.8,0.2-1.7,0.4-2.5,0.5c-0.4,0-0.8,0.1-1.2,0.1s-0.8,0-1.1,0c-1.1-0.1-2.2-0.3-3.3-0.7c-0.4-0.1-0.8-0.3-1.1-0.5
	c0.4,0.1,0.8,0.3,1.2,0.3c1.1,0.2,2.1,0.2,3.2,0.1c0.3,0,0.7-0.1,1-0.1s0.7-0.2,1.1-0.3c0.7-0.2,1.5-0.5,2.2-0.9s1.4-0.8,2.1-1.3
	l1.1-0.8l0.8-0.8c0.5-0.6,0.9-1.2,1.2-1.9c0.1-0.3,0.2-0.7,0.3-1s0.1-0.7,0.2-1s0-0.7,0-1l-0.1-1l-0.2-1l-0.2-0.9
	c-0.2-0.6-0.4-1.1-0.6-1.5s-0.4-0.8-0.5-1.1s-0.3-0.5-0.4-0.7l-0.1-0.2l0,0c-0.8-1.2-0.4-2.8,0.8-3.5c1.2-0.8,2.8-0.4,3.5,0.8
	C829.1,340.1,829.1,340.2,829.2,340.4z"/>
<path d="M832.2,323.8h16.7c0,4.6-3.7,8.3-8.3,8.3C836,332.2,832.2,328.4,832.2,323.8z"/>
<path class="st7" d="M844.7,331.1c-1.3,0.7-2.7,1.1-4.2,1.1s-2.9-0.4-4.2-1.1c0.1-2.3,2.1-4.1,4.4-4
	C842.9,327.2,844.6,328.9,844.7,331.1L844.7,331.1z"/>
<path class="st8" d="M840.6,328c0,0,0.1,0.2,0.2,0.6s0.2,0.8,0.3,1.3v0.4c0,0.1,0,0.2,0,0.4c0,0.1,0,0.2-0.1,0.3l-0.1,0.3
	c-0.1,0.1-0.1,0.3-0.2,0.4l-0.1,0.1c0,0,0.1-0.2,0.2-0.6l0.1-0.3c0-0.1,0-0.2,0-0.3c0-0.1,0-0.2,0-0.3l-0.1-0.4
	c-0.1-0.5-0.1-1-0.2-1.3S840.6,328,840.6,328z"/>
<path class="st9" d="M58,482.4L58,482.4c8.5,0,15.5,6.9,15.5,15.5v124.8c0,8.5-6.9,15.5-15.5,15.5l0,0c-8.5,0-15.5-6.9-15.5-15.5
	V497.8C42.5,489.3,49.4,482.4,58,482.4z"/>
<path class="st9" d="M141.2,232L141.2,232c8.5,0,15.4,6.9,15.4,15.5v164.8c0,8.5-6.9,15.5-15.4,15.5l0,0c-8.5,0-15.5-6.9-15.5-15.5
	V247.5C125.8,239,132.7,232,141.2,232z"/>
<path class="st9" d="M100.1,22L100.1,22c8.5,0,15.5,6.9,15.5,15.5v104.8c0,8.5-6.9,15.4-15.4,15.4l0,0c-8.5,0-15.4-6.9-15.4-15.4
	V37.5C84.6,29,91.6,22,100.1,22z"/>
<path class="st10" d="M100.1,376.8L100.1,376.8c8.5,0,15.5,6.9,15.5,15.4v230.3c0,8.5-6.9,15.4-15.4,15.4l0,0
	c-8.5,0-15.4-6.9-15.4-15.5V392.3C84.6,383.7,91.6,376.8,100.1,376.8z"/>
<path class="st10" d="M58,166.8L58,166.8c8.5,0,15.5,6.9,15.5,15.4v270.3c0,8.5-6.9,15.5-15.5,15.5l0,0c-8.5,0-15.5-6.9-15.5-15.5
	V182.3C42.5,173.7,49.4,166.8,58,166.8z"/>
<path class="st10" d="M141.2,130.5L141.2,130.5c8.5,0,15.4,6.9,15.4,15.4v60.6c0,8.5-6.9,15.5-15.4,15.5l0,0
	c-8.5,0-15.5-6.9-15.5-15.5v-60.6C125.8,137.4,132.7,130.5,141.2,130.5z"/>
<path class="st1" d="M141.2,530.9L141.2,530.9c8.5,0,15.4,6.9,15.4,15.5v76.2c0,8.5-6.9,15.5-15.4,15.5l0,0
	c-8.5,0-15.5-6.9-15.5-15.5v-76.2C125.8,537.8,132.7,530.9,141.2,530.9z"/>
<path class="st1" d="M58,21L58,21c8.5,0,15.5,6.9,15.5,15.5v105.8c0,8.5-6.9,15.4-15.5,15.4l0,0c-8.5,0-15.5-6.9-15.5-15.4V36.5
	C42.5,28,49.4,21,58,21z"/>
<path class="st1" d="M100.1,257.9L100.1,257.9c8.5,0,15.5,6.9,15.5,15.5v76.2c0,8.5-6.9,15.5-15.4,15.5l0,0
	c-8.5,0-15.4-6.9-15.4-15.5v-76.2C84.6,264.8,91.6,257.9,100.1,257.9z"/>
</svg>
