<svg height="61" viewBox="0 0 134 61" width="134" xmlns="http://www.w3.org/2000/svg"><path d="m402.845597 449.783461v10.182146.0995c0 .998013.199 8.085112 5.889333 17.070245 5.590833 8.885633 14.973965 12.078672 16.271985 12.577679 1.297267-.499761 10.680399-3.6928 16.271232-12.577679 5.690333-8.985133 5.890086-16.072232 5.890086-17.070245v-10.082269.199376l-44.322636.0995zm45.420149 9.781886c0 .299253.299253 7.987119-5.988832 17.769758-6.289593 9.981639-16.671492 13.176185-17.170499 13.276439h-.299253c-.399507-.100254-10.781406-3.2948-17.070245-13.276439-5.789833-8.985133-6.08984-16.172485-6.08984-17.470505v-28.849664h46.618669zm-24.657104-24.756605c-.0995 0-1.996026-.299253-4.29206-.299253-1.797026 0-3.394299.499007-4.093059.799014-.69876-.299254-2.296034-.799014-4.09306-.799014-2.296033 0-4.19256.299253-4.292813.299253l-.199754.0995v12.078672l.299254-.0995s1.597273-.399506 3.893306-.399506c1.797027 0 3.594053.499006 4.292059.798259h.199754c.69876-.299253 2.495786-.798259 4.292059-.798259 2.296033 0 3.793807.399506 3.893306.399506l.299254.0995v-12.078672zm13.676699 8.884126c-.100254.69876-.300007 1.197766-.598507 1.797026.0995.199754.398753.299254.598507.499007.515707-.73044.794621-1.601651.799013-2.495786-.300007.100253-.49976.199753-.799013.199753zm-.998767-9.483386c-2.395533 0-4.392313 1.996026-4.49332 4.491059.299253-.0995.49976-.199753.799013-.299253.199754-1.89728 1.796273-3.2948 3.693553-3.2948 2.09628 0 3.693553 1.598027 3.693553 3.594053 0 2.09628-1.597273 3.693553-3.693553 3.693553h-.299253c0 .300007-.0995.59926-.0995.799014l.399507.100253c2.495033 0 4.491813-2.09628 4.491813-4.592066 0-2.395533-1.996027-4.491813-4.491813-4.491813zm2.69554 4.69232c-.79826 0-1.497774.199-2.195026.59926.199.0995.499007.299253.598506.598506.499007-.299253 1.097513-.398752 1.597274-.398752h.299253c.0995-.200508.0995-.499761.0995-.799014zm-5.390326 8.984416c.79826 0 1.497773-.19979 2.196533-.600804-.199753-.098746-.399507-.299254-.59926-.598507-.499007.300007-.998767.399507-1.597273.399507-1.99678 0-3.693553-1.696773-3.693553-3.693553 0-1.996026 1.696773-3.692799 3.693553-3.692799 1.412957-.003739 2.699042.814705 3.294046 2.09628.300007 0 .59926-.0995.799014-.299254-.699514-1.597273-2.296034-2.595326-4.09306-2.595326-1.19284-.004996-2.338278.46663-3.181751 1.310102-.843472.843473-1.315098 1.988911-1.310102 3.181751-.004995 1.192908.466607 2.338423 1.310058 3.182015.84345.843592 1.988886 1.315386 3.181795 1.310588zm-.59926-7.586896c-.299253.0995-.59926.199753-.799014.300007.399507.897759.998013 1.596519 1.797027 1.996026 0-.300007.100253-.49976.199753-.799013-.504075-.405264-.912967-.916315-1.197766-1.49702zm5.989586 7.586896c1.193046.004795 2.338635-.466952 3.182324-1.310499s1.315628-1.989057 1.31103-3.182104c0-1.597273-.799047-3.094293-2.196567-3.893307 0 .299254-.0995.59926-.199754.898514.998013.699513 1.597274 1.797026 1.597274 2.994793 0 1.99678-1.597274 3.693553-3.693553 3.693553-1.99678 0-3.693553-1.696773-3.693553-3.693553 0-.69876.199753-1.39752.69876-2.09628-.199754-.199753-.399507-.299253-.69876-.499007-.499761.799014-.799054 1.697527-.799054 2.595287-.004995 1.192908.466607 2.338423 1.310058 3.182015.84345.843592 1.988886 1.315386 3.181795 1.310588zm-24.057845-11.979209v8.983625c-.898513-.299253-2.495786-.598506-3.992806-.598506-1.237415-.004451-2.472994.095656-3.693553.299253v-9.184132c.598507-.0995 2.09628-.299254 3.893307-.299254 1.596519 0 3.094293.499761 3.793052.799014zm4.392313-.799014c1.797027 0 3.294047.199754 3.893307.300007v9.184133c-.59926-.0995-1.89728-.299253-3.594053-.299253-1.597274 0-3.194547.299253-4.09306.598506v-8.984379c.699514-.299253 2.196533-.799014 3.793806-.799014zm-10.382652 1.597274c-.199754 0-.299254.199753-.299254.399506.0995.199754.299254.299254.598507.299254 0 0 1.098266-.299254 2.096279-.299254.898514 0 1.896527.499007 1.896527.499007.299253 0 .49976-.0995.598506-.299253.100254-.0995 0-.398753-.299253-.398753 0 0-1.098267-.499009-2.196533-.499009-1.096759-.000752-2.294526.199002-2.394779.298502zm0 1.797026c-.199754 0-.299254.199754-.299254.399507.0995.199753.299254.299253.598507.299253 0 0 1.098266-.199753 2.096279-.199753.898514 0 1.896527.399507 1.896527.399507.299253 0 .49976-.100254.598506-.199754.100254-.199753 0-.399507-.299253-.499006 0 0-1.098267-.499008-2.196533-.499008-1.096759-.000753-2.294526.299254-2.394779.299254zm0 1.797027c-.199754 0-.299254.199753-.299254.399507.0995.199753.299254.299253.598507.299253 0 0 1.098266-.199754 2.096279-.199754.898514 0 1.896527.399507 1.896527.399507.299253.0995.49976 0 .598506-.199753.100254-.199754 0-.399507-.299253-.499007 0 0-1.098267-.499006-2.196533-.499006-1.096759 0-2.294526.299253-2.394779.299253zm0 1.796273c-.187112.095269-.303338.289076-.299254.499006.0995.199754.299254.299253.598507.199754 0 0 1.098266-.199754 2.096279-.199754.898514 0 1.896527.399507 1.896527.399507.299253.0995.49976 0 .598506-.199753.100254-.199754 0-.399507-.299253-.499761 0 0-1.098267-.398753-2.196533-.398753-1.096759.000754-2.294526.199754-2.394779.199754zm12.578432-5.390326c0-.0995-1.197767-.299254-2.395533-.298502-.998767 0-2.09628.499009-2.196533.499009-.199754 0-.300007.299253-.199754.398753.09527.187112.289077.303337.499007.299253 0 0 .998013-.499007 1.896526-.499007.998767 0 2.196534.299254 2.196534.299254.199753 0 .499006-.0995.499006-.299254.100254-.199753 0-.399506-.299253-.399506zm0 1.797026s-1.197767-.300007-2.395533-.299254c-.998767 0-2.09628.499008-2.196533.499008-.199754.099499-.300007.299253-.199754.499006.0995.0995.299253.199754.499007.199754 0 0 .998013-.399507 1.896526-.399507.998767 0 2.196534.199753 2.196534.199753.199753 0 .499006-.0995.499006-.299253.100254-.199753 0-.399507-.299253-.399507zm0 1.797027s-1.197767-.299253-2.395533-.299253c-.998767 0-2.09628.499006-2.196533.499006-.199754.0995-.300007.299253-.199754.499007.0995.199753.299253.299253.499007.199753 0 0 .998013-.399507 1.896526-.399507.998767 0 2.196534.199754 2.196534.199754.199753 0 .499006-.0995.499006-.299253.100254-.199754 0-.399507-.299253-.399507zm0 1.796273s-1.197767-.199-2.395533-.199754c-.998767 0-2.09628.398753-2.196533.398753-.199754.100254-.300007.300007-.199754.499761.0995.199753.299253.299253.499007.199753 0 0 .998013-.399507 1.896526-.399507.998767 0 2.196534.199754 2.196534.199754.199753.099499.499006 0 .499006-.199754.100254-.199753 0-.399507-.299253-.499006zm23.659091 15.971978c.0995.300007.0995.59926.094224.796752 0 .598507-.199754 1.197767-.599261 1.59652-1.197766 1.597273-4.392312 1.996026-6.089085 2.096279.199753.599261.399506 1.49702.399506 2.795794v1.896526c0 1.198521.0995 2.296787.598507 2.896047.399506.499007.69876.597753.898513.698007.199753.200507.300007.200507.399507.499006.199753.100254.499006.100254.69876.200507.300007.199.799013.499007.799013.499007s-.69876.198246-.998013.398753l-.799013.59926c.399506.100253.59926.499006.59926.499006l-1.49702.89776c-.100254.0995-.199753.199753-.399507.300007-.299253.597752-.598506 1.297266-.799013 1.896526-.199754.299253-.69876 1.597274-.79826 1.796273-.299253.401014-.59926.59926-1.197766.699514l-.799014.200507c-1.197766.399507-2.09628.597753-2.495786.199-.0995 0-.199754-.100254-.199754-.199-.299253.097992-.598506.298499-.598506.298499s0-.200507.299253-.59926c-.0995-.198246-.199753-.298499-.299253-.398753h-.0995c-.199753 0-.598506.2985-.598506.2985s0-.299254.199753-.597753c.100254-.100253.100254-.200507.199753-.200507-.099499-.0995-.099499-.199753-.099499-.298499h-.0995c-.399507 0-.59926.198999-.59926.198999s-.0995-.198999.199753-.59926c.199753-.097992.398753-.198246.598506-.298499l.199754-.200508c.299253-.298499.79826-.398752 1.497019-.398752h1.696773c.199754-.398753.599261-1.197767.898514-1.996027.300007-.998013.59926-1.896526.69876-2.196533-.399507-.499007-2.09628-2.295279-2.09628-2.295279-.59926-.599261-.898513-1.098267-1.098267-1.298774-.299253.59926-.798259 1.79778-.499006 2.296787.199753.299253.299253.499006.299253.698006.199753 0 .399507.100253.499006.100253.399507.200508.799014.499007.799014.499007s-.59926.199753-.998013.398753c-.399507.200507-.799014.699514-.799014.699514.398753 0 .598507.398753.598507.398753s-.998013.49976-1.39752.799767l-.499007.499006c-.100253.299254-.300007.499007-.399506.698007-.0995.200507-.199754.499006-.299254.699513l-.299253.499007c-.199753.399507-.59926.59926-1.197766.699514l-.799014.298499c-1.19852.300761-2.09628.499006-2.495786.200507l-.299253-.300007c-.199 0-.598507.300007-.598507.300007s0-.200507.199754-.59926c.099499 0 .099499-.100254.099499-.100254-.100253-.099499-.100253-.198245-.199753-.298499-.299253 0-.69876.298499-.69876.298499s0-.198999.199753-.59926c.100254-.098746.100254-.198999.199754-.198999-.0995-.0995-.0995-.300007-.0995-.300007h-.0995c-.299253 0-.69876.200507-.69876.200507s0-.200507.299253-.59926c.0995-.199754.399507-.2985.69876-.2985 0-.100253.0995-.100253.0995-.100253.299253-.398753.79826-.499007 1.49702-.499007.399507.100254 1.39752 0 1.797026 0 .200508-.49976.799014-1.898034.799014-1.898034l.199753-.398753c.0995-.399506.499007-1.098266.499007-1.297266 0-.100254-.0995-.100254-.0995-.100254-.598506-.59926-1.29802-1.597273-1.896526-2.296786l-.499007-.998014c-.399507.0995-.69876.199754-1.098267.300007.399507.2985.499007.599261.499007.998013-.69876-.200507-1.39752-.200507-2.395533.398753-.199753.199754-.299253.300007-.499007.300007.399507.299254.69876.79826.69876.79826s-.699513.100254-1.29802.398753c-.499006.200507-1.098266.799767-1.098266.799767.49976.098746.799013.597753.799013.597753s-1.19852.59926-1.797026.999521c-.399507.198245-.898514.698006-1.29802.998013-.499007.798259-.898514 1.39752-.898514 1.39752-.399507.59926-.499006.897759-.69876 1.497019l-.099499.200507c0 .299254-.100254.398753-.199754.597753-.199753.401014-.598506.59926-1.197766.699514l-.799014.200507c-1.39752.398753-2.395533.596999-2.894539.298499-.0995-.0995-.199754-.199753-.199754-.298499-.299253.097992-.598506.298499-.598506.298499s0-.200507.199753-.59926c0-.100254 0-.100254.0995-.100254-.198999-.098746-.299253-.298499-.398753-.398753-.199753 0-.59926.200508-.59926.200508s0-.200508.299253-.59926l.0995-.100254c-.0995-.0995-.0995-.198246-.0995-.298499v-.100254h-.0995c-.299253 0-.69876.298499-.69876.298499s0-.299253.299254-.597752c.188739-.18157.437128-.288213.69876-.300007.100253 0 .100253-.100254.100253-.100254.299253-.298499.898513-.499006 1.597273-.398753.299254 0 1.197767-.100253 1.696773-.100253.199754-.299253.499007-.998013.898514-2.29528.300007-1.19852.59926-2.69554.799013-3.493799-.398753-.400261-1.097513-1.398274-1.197766-1.597273-.398753-.900021-.299253-1.298774-.299253-1.797781h-.199754c-.199753.300007-.69876.59926-.799013.998013-.299253-.398753-.499007-.698006-.598507-.998013-.69876.300007-2.096279.799014-2.595286.499007-.199.200507-.398753.59926-.598506.799767-.499007.399507-1.098267.698006-1.098267.698006s.100254-.79826.199753-1.297266c0-.799014-.199753-1.49702-.199753-1.49702-.299253.398753-.897759.499007-.897759.499007s.099499-1.098267 0-2.09628c-.0995-.499007-.199754-1.19852-.299254-1.697527-.100253-.100253-.199753-.298499-.199753-.398753-.59926-.898513-.998767-1.697527-1.098267-1.79778-.199753-.2985-.59926-.89776-.898513-1.59652-.0995-.099499-.898513-.69876-.898513-.69876-.299253-.299253-.499007-.698759-.499007-1.098266 0-.199754 0-.299253.0995-.499007h.0995c-.0995 0-.0995-.0995-.0995-.0995-.199753-.199753-.59926-.299253-.59926-.299253s.100253-.199753.59926-.199753v-.0995c0-.399507.0995-.59926.299253-.898513-.199753-.0995-.499006-.299253-.499006-.299253s.199753-.100254.698759 0h.0995c0-.100254.100254-.100254.100254-.199754h.0995s.100253-.0995.200507-.0995c0-.100253 0-.199753-.100254-.199753-.100253-.300007-.499006-.59926-.499006-.59926s.300007-.100254.69876.0995c.199753 0 .399506.299253.59926.49976h.499006c.399507.0995.59926.79826.898514 1.696773v.299253l.199753.499007c.199753.598506.499007 1.597273.598506 1.696773.399507.499006 1.098267 1.098267 1.797027 1.696773-.0995-.598506 0-.998013.499006-1.49702-.59926.199754-1.397519-.399507-1.597273-.79826 0 0 1.098267-.299253 1.098267-.898513 0-.0995-.699514 0-.998767-.998013.699514-.399507.49976-.499006.799014-.998013.399506-.399507.799013-.69876 1.29802-.59926-.100254 0-.199754 0-.399507-.199753-.399507-.100254-.59926-.599261-.898513-.499007.598506-.998767 2.295279-1.197767 3.094292-.898513-.199753-.300007-.499006-.499761-.499006-.799014.898513.199754 1.896526-.299253 2.79504-.0995.799013.199754 1.19852.499007 1.497773 1.197767.299253-.69876.698006-.998013 1.49702-1.197767.998013-.199753 1.896526.299254 2.795039.0995 0 .300007-.299253.49976-.399506.799014.698759-.299254 2.396286-.100254 2.994793.898513-.299254-.100254-.499007.398753-.898514.499007-.199753.199753-.199753.100253-.399506.199753.49976-.0995.998766.199753 1.29802.59926.300007.499007.100253.598506.799013.998013-.300007.998013-.998767.898513-.998767.998013 0 .59926 1.098267.898513 1.098267.898513-.199753.398753-.998013.998014-1.597273.79826.299253.300007.499006.59926.499006.898514.799014.299253 1.797781.498252 2.995547.598506 2.396287.300761 3.793807.200507 5.290826.100253.69876-.100253 1.49702-.200507 2.296033-.200507 1.298021.0995 2.296034.300007 2.495787.300007 1.39752-.100253 4.79182-.300007 5.690333-1.29802.100254-.198999.199753-.398753.199753-.598506 0-.0995 0-.199754-.099499-.299253 0-.299254-.199754-.499007-.399507-.69876-.998767-.499007-3.294046.300007-4.09306.59926-.998767.300007-1.598027.49976-3.2948.799013-1.49702.199754-5.889333.599261-7.486606-.69876-.49976-.398753-.799013-.998013-.898513-1.696773-.100254-.898513.199753-1.596519.69876-2.096279.59926-.69876 1.597273-.998013 3.294046-.998013.69876 0 1.696773.100253 3.094293.199753.399507-.399507 1.49702-1.197767 2.79504-1.098267 1.696773 0 1.597273.300007 2.495786.399507.79826 0 1.696773-.299253 1.696773-.299253s-.0995.299253-.299253.499006c-.199753.199754-.499007.299254-.499007.299254s.898514-.0995 1.597274 0c.798259.099499 1.497019.898513 1.497019.898513s-.798259-.100254-1.497019 0c-.69876.198999-1.098267.598506-1.896527.598506-.598506 0-.998013-.199753-.998013-.199753s0 .299253.199754.499006c.299253.199754.698759.299254.698759.299254s-2.096279.698759-3.992806.199753c-1.298774-.199753-1.697526-.598506-1.89728-.79826l-2.994793-.0995c-1.097513 0-1.896526.199754-2.195779.499007-.0995.199753-.299254.69876-.299254 1.098267.100254.198999.199754.499006.399507.598506 1.197767.998013 4.991573.59926 6.18934.399507 1.497773-.299253 1.89728-.399507 3.2948-.799014 1.696773-.69876 3.693553-1.197766 5.290826-.399507.59926.299254.998013.69876 1.197766 1.49702zm-23.858844-1.297266c.199753-.199754.898513-.69876.499006-1.29802-.299253-.69876-1.197766-.399507-1.39752-.299253 0-.100254-1.896526-.898514-1.896526-.898514l-.69876.898514s-.799014-.898514-.69876-.898514c-.0995 0-1.896526.799014-1.896526.898514-.299254-.100254-1.098267-.399507-1.49702.299253-.299253.598506.299253 1.098266.598506 1.29802l-.598506 1.098267 1.696773 2.096279v1.29802l.69876.499007c.199753.499006.199753.79826.299253 1.098267.100254.098746.69876.198999 1.29802.298499h.100254c.598506-.100254 1.297266-.200507 1.297266-.298499.0995-.300007.199753-.599261.299253-1.098267l.69876-.499007v-1.29802l1.797027-2.096279zm-5.989587.100253h1.59652l-.0995.898514zm3.594054.89776c0 .0995.199753 2.196533.199753 2.196533l-1.098267.598507v.799767s.199754.199.399507.199c.399507.200507.79826.100253.79826.100253h.100253l-.100253.298499c-.0995 0-.499007.100254-.79826 0-.185434-.063392-.355453-.165095-.499006-.298499h-.199754c-.0995 0-.199753.200507-.499006.298499-.399507.100254-.799014 0-.799014 0h-.0995v-.298499h.0995s.299253.100254.69876-.100253c.199753 0 .399507-.199.499007-.199v-.799767c-.0995 0-1.197767-.79826-1.197767-.79826h2.09628v-2.895293h1.896526c0 .000753-1.39752.898513-1.497019.898513zm14.075452 14.474959c.199753-.199.299253-.2985.299253-.499007 0-.098746-.0995-.198999-.199754-.499006-.199753-.199-.199753-.398753-.199753-.698006 0-.799768.499007-1.797781.799014-2.196534-.099185-.100066-.198938-.199567-.299254-.298499l-.099499-.100254c-.199754-.100253-.598507-.398753-.799014-.799767 0 0-.0995 0-.0995-.098746-.499006 0-1.597273 0-2.69554.298499.299254.200507.399507.499007.399507.79826-.615987-.179405-1.265238-.213209-1.896526-.098746.199753.298499.399507.698006.499006.79826.499007.699513 1.197767 1.697527 1.797027 2.296787.0995.098746.199753.198999.199753.398753 0 .298499-.299253.897759-.598506 1.497019l-.0995.398753-.898513 2.09628h-.0995c-.100253 0-1.497773.100254-1.99678.100254-.499006-.100254-.898513 0-1.098267.198999v.400261c-.100253.098746-.199753.198999-.199753.198999v.100254c.299253-.100254.499007-.100254.499007-.100254s.199753.200507.099499.400261c0 .198999-.099499.298499-.199753.398753 0 0 .0995 0 .0995.100253.299253-.200507.59926-.200507.59926-.200507s.199753.2985.199753.499007c-.099499.200507-.099499.200507-.199753.298499.398753.100254 1.39752-.198999 1.996026-.298499l.898513-.2985c.399507-.100253.69876-.200507.898514-.499006l.199753-.500514c.100254-.199.199753-.499007.299253-.698006.299253-.398753.59926-1.098267.898514-1.697527.398753-.797506.69876-1.396766.998013-1.696773zm-18.767018-7.885359c-.299254.398753-.799014.59926-1.497774.698006.0995-.698006 0-1.096759-.199753-1.595766-.199754-.500514-.79826-1.298773-.89776-1.79778-.100253-.200507-.100253-.298499-.199753-.398753-.898513-.699514-1.896527-1.497773-2.395533-2.196533-.100254-.0995-.299253-.69876-.59926-1.797027l-.199754-.499006v-.299254c-.299253-.798259-.499006-1.297266-.598506-1.397519h-.199753s-.0995.299253-.499007.199753h-.300007l-.0995.0995c.199754.199753.398753.499006.398753.499006s-.099499.299254-.398753.399507c-.299253 0-.49976-.199753-.49976-.199753v-.199754c-.0995.199754-.0995.499007-.0995.69876.299253.199754.59926.499007.59926.499007s0 .299253-.299253.399507c-.114562.099555-.284944.099555-.399507 0 0 .299253.100254.598506.399507.897759l.89776.69876.100253.0995c.299253.69876.598507 1.297266.799014 1.497773.0995.100254.398753.59926 1.098266 1.896527 1.098267 1.79778 2.595287 4.393066 2.994794 4.892073.099499.100253 1.197766-.100254 2.196533-.59926-.300761-.998013-.001508-1.597273-.101007-2.495033zm30.546437-6.190093c-.199754-.69876-.499007-.998013-.998014-1.197767-1.397519-.799013-3.2948-.199753-4.991573.399507-1.397519.399507-1.797026.59926-3.294046.799013-1.597273.199754-5.290826.69876-6.588846-.399506-.199753-.199754-.499007-.69876-.499007-.998013 0-.499007.199754-1.098267.399507-1.39752.399507-.399507 1.197767-.59926 2.495787-.59926h3.094293l.199753-.199754-.199753-.199753c-1.39752-.100254-2.395533-.199753-3.094293-.199753-1.597274 0-2.495787.299253-2.994793.898513-.399507.399507-.599261.998013-.599261 1.797026.100254.499007.299254.998014.799014 1.39752 1.39752 1.098267 5.390326.79826 7.087853.499007 1.696773-.299253 2.195779-.399507 3.193792-.699514h.100254c.898513-.299253 3.294046-1.098267 4.392313-.499006.299253.100253.499006.399506.69876.799013.0995.59926 0 .998767-.299253 1.29802-.998013 1.297266-4.29206 1.39752-5.989586 1.497774h-.100254s-.998767-.200508-2.396287-.200508c-.799013 0-1.497019 0-2.296033.100254-1.39752.100254-2.894539.200507-5.390326-.100254-.976545-.091252-1.944544-.258088-2.895293-.499006-.0995.300007-.199754.699514-.398753 1.19852-.100254.499007-.69876 1.297266-.898513 1.79778-.199754.499007-.299254.89776-.199754 1.595766-.69876-.098746-1.197766-.298499-1.39752-.698006-.199753 1.197013.399507 1.896526-.998013 3.892553-.0995-.599261-.898513-.79826-.898513-1.39752-.199753.59926.199753.998013-.399507 2.196533-.0995.298499-.998013 1.49702-1.39752 1.796273-.199753.799767-.499006 2.196533-.799013 3.395054-.399507 1.497019-.799014 2.295279-.998013 2.495786v.100254h-.100254c-.499006.098746-1.597273.098746-1.996026.098746s-.799014 0-1.098267.200507c.100439.113944.100439.284809 0 .398753-.0995.200507-.199753.200507-.299253.300007h.0995c.299253-.100254.59926-.100254.59926-.100254s.0995.2985 0 .59926c-.100254.098746-.100254.199-.199753.199 0 .100253.099499.100253.099499.200507.299254-.200507.69876-.200507.69876-.200507s.199754.200507.0995.59926c-.0995.100254-.0995.200507-.199753.200507.499006.098746 1.696773-.200507 2.395533-.40026l.799013-.199c.499007-.100254.799014-.200507.998013-.59926 0 0 .0995-.200507.0995-.398753l.100254-.300007c.199753-.499007.398753-.89776.798259-1.49702.799014-1.39752 3.4938-5.690333 3.594054-6.089086 0-.298499-.0995-.798259-.199754-1.098266l-.0995-.199s8.485373-2.49654 8.98438-2.595286c-.100254-.300007-.499007-.899267-.499007-.899267l.299253-.2985s.69876.499007 1.098267.89776c.299253.300007.598506.799767.898513 1.298774l.199754.198999c.299253.59926.69876.998013.69876.998013v.100254s.299253.499006 1.197766 1.49702l2.19578 2.39704v.098746s-.299254 1.19852-.69876 2.49654c-.299253.79826-.799014 1.69602-.998013 2.09628v.098746h-1.99678c-.499007 0-.898514.100254-1.098267.200507 0 .200508.0995.2985 0 .499007-.0995.100253-.199753.200507-.299253.200507l.0995.098746c.299253-.098746.499006-.098746.499006-.098746s.199753.199.100254.499007c0 .198999-.100254.298499-.199754.298499l.0995.100254c.299253-.200508.799014-.200508.799014-.200508s.099499.200508.099499.499007c-.099499.100254-.199753.200507-.199753.300007.399507 0 1.29802-.200507 1.797027-.400261l.898513-.198999c.499006-.100254.69876-.300007.898513-.59926.0995-.100254.598507-1.198521.799014-1.697527.499006-1.297266 1.29802-2.89454 1.797026-3.792299l.299253-.499007c.199754-.200507.299254-.40026.299254-.59926 0-.200507 0-.200507-.199754-.300007-.199753-.098746-.499006-.298499-.998013-.798259-.69876-.89776-.69876-2.495787-.69876-3.992807v-1.098266c0-1.39752-.299253-2.397041-.399506-2.896047l-.0995-.2985h.199753c1.597273-.100253 4.89132-.398753 6.08984-1.896526.49976-.600768.59926-1.299528.399507-2.098541zm10.182899 7.586859h1.197767l2.795039 4.990819v-4.990819h.89776v6.18934h-1.197013l-2.79504-5.091073v5.091073h-.898513zm9.083879 4.491813v-.399507h-.59926c-.399507 0-1.597273 0-1.597273.799767 0 .499761.499006.79826.898513.79826.799013 0 1.29802-.59926 1.29802-1.19852zm-2.495786-1.796273v-.699514c.399506-.198246.898513-.398753 1.497773-.398753 1.29802 0 1.797027.59926 1.797027 1.896527v2.69554h-.799014v-.599261c-.199753.300761-.59926.699514-1.39752.699514-.998013 0-1.597273-.399507-1.597273-1.39752 0-1.098266 1.197766-1.498527 2.09628-1.498527h.898513c0-.698006-.299253-1.096759-1.197766-1.096759-.399507 0-.898514.098746-1.29802.398753zm7.087852-.300007h-1.197766v2.49654c0 .499007.299253.79826.69876.79826.299253 0 .49976-.100254.59926-.200507v.699514c-.200507.100253-.49976.100253-.699514.100253-.898513 0-1.39752-.398753-1.39752-1.298774v-2.595286h-.998767v-.698006h.998767v-1.098267l.799014-.200507v1.298774h1.197766zm1.198521 3.793807v-4.491813h.798259v4.491813zm-.100254-5.489826v-.998013h.998013v.998013zm2.994793 3.293292c0 .799768.499007 1.697527 1.49702 1.697527.898513 0 1.39752-.897759 1.39752-1.697527 0-.897759-.599261-1.696019-1.39752-1.696019-.89776 0-1.49702.79826-1.49702 1.696019zm-.898513 0c0-1.396766.998767-2.395533 2.395533-2.395533 1.297266 0 2.296787.998013 2.296787 2.395533 0 1.298774-.999521 2.296787-2.296787 2.296787-1.39752 0-2.395533-.998013-2.395533-2.296787zm5.789079-2.295279h.799767v.698006c.298499-.499007.89776-.79826 1.49702-.79826 1.19852 0 1.697526.699514 1.697526 1.896527v2.69554h-.799767v-2.296787c0-1.096759-.298499-1.595766-.998013-1.595766-.998013 0-1.39752.698006-1.39752 1.796273v2.09628h-.799767v-4.491813zm8.087373 2.794286v-.399507h-.499006c-.499007 0-1.597274 0-1.597274.799767 0 .499761.499007.79826.89776.79826.79826 0 1.19852-.59926 1.19852-1.19852zm-2.39704-1.796273-.097239-.699514c.499007-.198246.998013-.398753 1.49702-.398753 1.297266 0 1.896526.59926 1.896526 1.896527v2.69554h-.799767v-.599261c-.199.300761-.597753.699514-1.39752.699514-.998013 0-1.696019-.399507-1.696019-1.39752 0-1.098266 1.296512-1.498527 2.094772-1.498527h.899267c0-.698006-.300007-1.096759-1.098266-1.096759-.499007 0-.998767.098746-1.298774.398753zm4.791819-3.094293h.79826v6.588093h-.79826zm9.48414 4.09306c0 1.697527-.899267 2.595286-2.397041 2.595286-1.597273 0-2.395533-.897759-2.395533-2.595286v-3.693553h.89776v3.493799c0 1.198521.300007 2.09628 1.49702 2.09628 1.098266 0 1.497019-.897759 1.497019-2.09628v-3.493799h.899267v3.693553zm1.497773-1.99678h.79826v.698006c.300007-.499007.89776-.79826 1.49702-.79826 1.19852 0 1.697527.699514 1.697527 1.896527v2.69554h-.799768v-2.296787c0-1.096759-.298499-1.595766-.998013-1.595766-.897759 0-1.39752.698006-1.39752 1.796273v2.09628h-.798259v-4.491813zm5.489826 0h.89776v4.491813h-.89776zm0-1.996026h.89776v.998013h-.89776zm4.391559 6.487839h-.998013l-1.597273-4.491813h.899267l1.197013 3.694307h.100253l1.198521-3.694307h.897759zm3.095047-2.69554h2.296787c0-.698006-.398753-1.197013-1.098267-1.197013-.79826 0-1.19852.597753-1.19852 1.197013zm2.795793 1.697526h.000754v.799014c-.299253.199753-.59926.300007-1.39752.300007-1.597273 0-2.296787-.898513-2.296787-2.397041 0-1.397519.799014-2.295279 2.09628-2.295279 1.49702 0 1.996026 1.098267 1.996026 2.595286h-3.194546c0 .797506.69876 1.49702 1.49702 1.49702.499006 0 1.098266-.298499 1.298773-.499007zm1.49702-3.493799h.79826v.698006c.200507-.499007.699513-.79826 1.19852-.79826h.59926v.79826c-.200507-.098746-.398753-.098746-.499006-.098746-.79826 0-1.198521.698006-1.198521 1.896526v1.996027h-.897759v-4.491813zm3.094293 3.594053c.398753.298499.799767.398753 1.098267.398753.398753 0 .798259-.200507.798259-.699514 0-.798259-1.896526-.698006-1.896526-1.996026 0-.998013.699514-1.39752 1.597273-1.39752.398753 0 .699514.100254.998013.200507l-.100253.698007c-.100254-.100254-.59926-.199-.79826-.199-.499007 0-.799767.098746-.799767.499007 0 .897759 1.898034.698006 1.898034 2.096279 0 .998013-.699514 1.39752-1.597274 1.39752-.398753 0-.799767 0-1.19852-.200507v-.797506zm3.89406-3.594053h.89776v4.491813h-.89776zm0-1.996026h.89776v.998013h-.89776zm4.791066 2.694032h-1.197013v2.49654c0 .499007.2985.79826.698006.79826.300007 0 .499007-.100254.599261-.200507v.699514c-.200508.100253-.398753.100253-.699514.100253-.89776 0-1.39752-.398753-1.39752-1.298774v-2.595286h-.998013v-.698006h.998013v-1.098267l.799767-.200507v1.298774h1.197013zm.699514 5.091073h.398753c.799767 0 .998013-.998013.998013-1.096759 0-.100254-.100254-.300007-.100254-.499007l-1.597273-4.192559h.899267l1.297266 3.792299 1.198521-3.792299h.897759l-1.697527 4.592066c-.298499.897759-.597752 1.896526-1.696019 1.896526-.300007 0-.499007 0-.59926-.100253v-.600014zm-73.373561 6.988353c0 .79826.499006 1.697527 1.39752 1.697527.998013 0 1.497019-.899267 1.497019-1.697527 0-.89776-.598506-1.697527-1.497019-1.697527-.898514 0-1.39752.799767-1.39752 1.697527zm-.89776 0c0-1.396766.998013-2.394779 2.296033-2.395533 1.39752 0 2.296034.998013 2.296034 2.395533 0 1.297266-.898514 2.395533-2.296034 2.395533-1.29802 0-2.296033-1.098267-2.296033-2.395533zm6.28884-1.597273h-1.098267v-.699514h1.098267v-.398753c0-1.098267.299253-1.796273 1.497019-1.796273h.598507v.698006c-.0995 0-.299254-.100253-.398753-.100253-.799014 0-.799014.500514-.799014 1.098266v.499007h1.197767v.699514h-1.197767v3.793806h-.898513v-3.793806zm8.085866-1.396766c-.499007-.200508-.698007-.300007-1.197013-.300007-.499007 0-1.098267.200507-1.098267.799767 0 1.197013 2.696294.998013 2.696294 2.994793 0 1.297266-.999521 1.896526-2.296787 1.896526-.398753 0-.89776-.198999-1.297266-.298499l.099499-.799767c.299254.100253.898514.300007 1.29802.300007.499007 0 1.197767-.300007 1.197767-.998013 0-1.398274-2.595286-.998014-2.595286-2.994794 0-1.098266.798259-1.697526 1.99678-1.697526.398753 0 .898513.100253 1.297266.298499zm1.597273.697252h.897759v4.49332h-.897759zm0-1.895773h.897759v.89776h-.897759zm2.396286 1.895773h.79826v.699514c.2985-.499007.89776-.79826 1.49702-.79826 1.19852 0 1.697527.698006 1.697527 1.996026v2.595286h-.799768v-2.296787c0-1.098266-.298499-1.597273-.998013-1.597273-.897759 0-1.39752.699514-1.39752 1.797781v2.096279h-.798259v-4.492566zm7.286853 3.89406c.799013 0 1.298774-.699514 1.298774-1.597273 0-.89776-.399507-1.697527-1.298774-1.697527-.898513 0-1.297266.89776-1.297266 1.697527 0 .797506.499006 1.597273 1.297266 1.597273zm2.09628-3.89406h-.001508v4.393067c0 1.296512-.698006 2.096279-2.295279 2.096279-.499007 0-.899267 0-1.597274-.300007l.100254-.798259c.597753.298499.998013.398753 1.597273.398753.898514 0 1.39752-.499007 1.39752-1.49702v-.499006c-.398753.499006-.998013.699513-1.49702.699513-1.29802 0-1.996026-.998013-1.996026-2.196533 0-1.098267.698006-2.395533 2.09628-2.395533.79826 0 1.197013.299253 1.39752.79826h.100253v-.699514zm4.192559 2.795793v-.399506h-.59926c-.398753 0-1.597273 0-1.597273.798259 0 .499761.499006.799768.899267.799768.79826 0 1.297266-.499007 1.297266-1.198521zm-2.495033-1.797026h.001508v-.699514c.398753-.199753.89776-.398753 1.49702-.398753 1.298773 0 1.79778.597753 1.79778 1.896527v2.696293h-.699514v-.499006h-.100253c-.199.198999-.59926.698006-1.39752.698006-.998013 0-1.597273-.499007-1.597273-1.49702 0-1.098267 1.19852-1.497019 2.096279-1.497019.2985 0 .499007 0 .89776.100253 0-.799767-.299253-1.19852-1.19852-1.19852-.399507 0-.898514.199753-1.297267.398753zm8.085113 1.29802c.100253-.89776-.2985-1.697527-1.197013-1.697527-.899267 0-1.398274.799767-1.398274 1.697527 0 .699514.400261 1.697527 1.398274 1.697527.898513 0 1.297266-.998013 1.197013-1.697527zm-3.393546 4.09306v-6.389847h.798259v.699514c.300007-.399507.799014-.79826 1.597273-.79826 1.298774 0 1.896527 1.096759 1.896527 2.295279 0 1.198521-.499007 2.495787-1.896527 2.495787-.797505 0-1.296512-.399507-1.497019-.79826h-.100254v2.495787zm5.989586-4.09306c0 .79826.499006 1.697527 1.497019 1.697527.899267 0 1.398274-.899267 1.398274-1.697527 0-.89776-.499007-1.697527-1.398274-1.697527-.897759 0-1.497019.799767-1.497019 1.697527zm-.898514 0c0-1.396766.998013-2.394779 2.395533-2.395533 1.298774 0 2.296787.998013 2.296787 2.395533 0 1.297266-.998013 2.395533-2.296787 2.395533-1.39752 0-2.395533-1.098267-2.395533-2.395533zm5.790587-2.296787h.79826v.699514c.200507-.499007.699513-.79826 1.19852-.79826.198999 0 .298499 0 .499006.098746v.699514c-.100253 0-.300007-.100254-.398753-.100254-.799767 0-1.298773.699514-1.298773 1.896526v1.997534h-.79826zm3.992806 1.79778h2.395533c0-.59926-.398753-1.19852-1.098267-1.19852-.898513 0-1.197012.699514-1.297266 1.19852zm2.89454 1.697527h.000753v.899267c-.299253.0995-.698006.2985-1.39752.2985-1.597273 0-2.296786-.998767-2.296786-2.495787 0-1.297266.799013-2.295279 2.096279-2.295279 1.49702 0 1.996027 1.096759 1.996027 2.593778h-3.293293c0 .899268.69876 1.498528 1.49702 1.498528.59926 0 1.19852-.300007 1.39752-.499007zm5.890086-28.052158c1.696019 1.597273 5.091073 2.994793 9.184132 3.094293 3.594054.0995 6.487839-.998013 6.688347-3.992806.398753-6.389093-16.172486-3.893307-15.472972-14.774212.298499-5.390326 5.690333-7.187353 11.480165-7.087853 3.194547 0 6.289593.799013 8.085866 1.696773v3.793807c-2.096279-1.39752-5.091073-2.296034-7.486605-2.396287-3.693553 0-6.688347.59926-6.688347 3.294046-.100253 5.690333 16.569731 4.292813 15.971979 15.074219-.400261 6.08984-6.289593 7.986366-12.478933 7.886113-3.594053-.0995-7.087099-.799014-9.184132-1.897281zm-15.573226 6.588846c-7.686359 0-12.077918-3.3943-12.077918-10.482152v-18.068259h5.690333v18.068259c0 4.393066 2.195026 6.988353 6.388339 6.988353 4.193314 0 6.289593-2.595287 6.289593-6.988353v-18.068259h5.790587v18.068259c-.001508 7.087852-4.394574 10.482152-12.080934 10.482152zm-21.462558-28.550411h3.793053v27.651898h-4.291305c-1.198521 0-2.196534-.59926-2.896047-1.497773l-13.076686-18.767019v20.264792h-3.893306v-27.651898h4.392313c1.098267 0 2.19578.599261 2.79504 1.49702l13.176938 18.767772z" fill="#1f2937" transform="translate(-401 -430)"/></svg>