<svg xmlns="http://www.w3.org/2000/svg" xmlns:xlink="http://www.w3.org/1999/xlink" width="60" height="60" version="1.1" viewBox="0 0 60 60"><title>Combined Shape</title><desc>Created with Sketch.</desc><g id="Welcome" fill="none" fill-rule="evenodd" stroke="none" stroke-width="1"><g id="Artboard" fill="#1F2937" transform="translate(-163.000000, -451.000000)"><path id="Combined-Shape" d="M163,451 L222.997401,451 L222.997401,511 L163,511 L163,451 Z M191.775053,482.473863 C191.989157,482.098744 192.554851,481.61659 193.004799,481.423406 C193.45475,481.616492 194.020451,482.098744 194.234549,482.473863 C194.438193,482.098744 194.855948,481.648793 195.285012,481.392059 C195.713204,481.491397 196.338955,481.85247 196.656618,482.063088 C195.856804,480.596593 194.813305,478.298976 194.813305,477.534858 C194.813305,477.329602 194.942971,477.198061 195.192759,477.126682 C195.305913,477.093788 195.560029,477.057934 195.560029,477.057934 C195.560029,477.057934 194.915999,475.618445 194.674053,475.220696 C194.011747,474.132807 193.556576,473.785549 192.808112,473.785549 C192.56618,473.785549 192.432138,473.808575 192.423435,473.942123 C192.408633,474.178956 193.443435,474.902056 193.410364,475.197112 C193.387667,475.392828 191.711522,475.104681 191.835975,474.05873 C191.863935,473.826502 191.815252,473.814331 191.755912,473.76203 C191.395606,473.461712 190.53835,472.909988 189.796846,472.892587 C188.977016,472.872851 188.344302,473.84035 188.074505,474.628875 C188.074505,474.628875 188.501826,474.422632 188.736811,474.422632 C189.151076,474.422632 189.437408,474.591376 189.913467,475.158034 C190.565329,475.935211 190.984821,476.696763 190.984821,477.858597 C190.984821,479.431272 190.160636,480.708004 189.320787,482.131835 C189.632355,481.906514 190.296404,481.477352 190.725468,481.392059 C191.15366,481.648957 191.571409,482.098744 191.775059,482.473863 Z M183.642884,461.074679 L202.362366,461.074679 C203.970697,461.074679 204.639095,459.915444 204.639095,458.756175 L181.365283,458.756175 C181.365283,459.915444 182.033681,461.074679 183.642884,461.074679 Z M188.597552,475.434801 C188.480057,475.434801 188.364304,475.47822 188.329503,475.494009 L188.329503,476.581043 C188.892591,477.933496 189.141501,479.096218 189.141501,480.319892 C189.534881,479.516598 189.878652,478.632353 189.878652,477.850801 C189.878652,476.86998 189.543585,476.297303 189.248549,475.882186 C188.977013,475.500094 188.833413,475.434801 188.597556,475.434801 Z M193.003059,503.70246 C193.003059,503.70246 195.725388,502.745092 195.725388,502.168961 C195.725388,501.899234 195.537401,501.52405 195.292844,500.973148 C195.056997,500.439647 194.788934,499.84697 194.788934,499.84697 L193.003059,499.484944 L191.218056,499.84697 C191.218056,499.84697 190.945664,500.444022 190.713278,500.973148 C190.470457,501.524938 190.281602,501.899168 190.281602,502.168961 C190.281602,502.745092 193.003059,503.70246 193.003059,503.70246 Z M195.413817,482.587017 C195.016956,482.83339 194.534805,483.358108 194.341594,483.712306 C194.041342,483.294558 193.45475,482.790661 193.004799,482.619187 C192.554851,482.790562 191.968263,483.294558 191.668004,483.712306 C191.475675,483.358108 190.992646,482.833291 190.596653,482.587017 C188.795983,483.208409 188.272929,484.944664 188.272929,486.699208 C188.272929,489.926332 189.752456,493.566829 190.728942,495.954081 L191.557475,495.823493 C192.515688,495.67284 193.491305,495.673827 194.449515,495.826782 L195.177091,495.943555 C196.134433,493.856555 197.736673,490.011526 197.736673,486.698254 C197.736673,484.94371 197.213615,483.207455 195.413817,482.586063 L195.413817,482.587017 Z M194.6932,497.390971 C194.6932,496.888785 194.446038,496.457122 193.919497,496.457122 C193.556576,496.457122 193.412104,496.691324 193.412104,496.975821 C193.412104,497.196866 193.509568,497.384886 193.509568,497.758228 C193.509568,498.262157 193.413847,498.729509 193.413847,498.729509 C193.412976,498.729509 194.6932,498.154234 194.6932,497.390971 Z M196.487779,497.711223 C196.487779,497.234299 196.266734,496.812208 195.771515,496.812208 C195.45646,496.812208 195.297196,497.01253 195.297196,497.323079 C195.297196,497.457284 195.345944,497.7678 195.345944,497.860066 C195.345944,498.561522 195.279795,498.875721 195.279795,498.875721 C195.279795,498.875721 196.487786,498.392679 196.487786,497.711223 Z M198.175309,498.06371 C198.175309,497.757471 197.961204,497.405773 197.546074,497.405773 C197.241479,497.405773 197.123974,497.61991 197.091774,497.847863 C197.075327,497.967924 197.071709,498.1393 197.071709,498.210811 C197.071709,498.775626 196.745339,499.091536 196.745339,499.091536 C196.745339,499.091536 198.175256,498.749509 198.175256,498.06371 L198.175309,498.06371 Z M179.10683,454.42465 L179.10683,457.536876 L206.888845,457.536876 L206.888845,454.42465 L179.10683,454.42465 Z M179.107701,504.446546 L179.107701,507.558772 L206.889717,507.558772 L206.889717,504.446546 L179.107701,504.446546 Z M202.25358,501.757298 C203.477234,502.720751 205.649527,503.064522 206.972395,503.19853 C206.708687,502.526646 205.4363,500.229029 204.212646,499.266464 C203.578188,498.767798 202.757487,498.263868 201.842792,498.263868 C201.358901,498.263868 200.946372,498.336234 200.776665,498.604185 C200.695714,498.731154 200.653939,498.9147 200.653939,499.122884 C200.653939,500.306494 201.491179,501.158536 202.25357,501.757298 Z M210.19167,500.665067 C210.744315,500.665067 211.275204,500.630199 211.743431,500.578885 C210.579827,498.863485 208.960183,496.685996 206.602513,496.685996 C205.960226,496.685996 205.52681,496.907041 205.263109,497.07414 C205.109924,497.170847 205.035946,497.340578 205.035946,497.521493 C205.035946,498.8574 206.729571,500.665067 210.19166,500.665067 Z M211.978416,497.079403 C213.096762,497.079403 214.244702,496.758362 215.122842,496.446662 C214.275161,495.671229 212.467527,493.91583 210.337882,493.91583 C209.923613,493.91583 209.504125,493.981946 209.115967,494.165492 C208.880976,494.277001 208.320505,494.572813 208.320505,494.974871 C208.320505,495.329958 208.673851,495.761653 208.815712,495.920924 C209.356173,496.527514 210.478874,497.079304 211.978416,497.079304 L211.978416,497.079403 Z M213.586748,493.023756 C214.987074,493.023756 216.393495,492.347529 217.419591,491.734821 C216.873034,491.378879 215.012313,490.174349 213.350894,490.174349 C212.681625,490.174349 211.933158,490.286516 211.345702,490.723508 C211.145511,490.872515 210.739966,491.247436 210.739966,491.518973 C210.739966,491.753175 210.894007,491.908005 210.947952,491.981128 C211.594591,492.84794 212.71816,493.023756 213.586732,493.023756 L213.586748,493.023756 Z M185.35391,499.122884 C185.35391,498.914996 185.312135,498.731253 185.231184,498.603297 C185.061486,498.336201 184.648948,498.263868 184.165057,498.263868 C183.250362,498.263868 182.429657,498.767798 181.795202,499.266464 C180.571548,500.229917 179.287843,502.526646 179.023267,503.19853 C180.34701,503.064653 182.529746,502.720751 183.754268,501.757298 C184.51666,501.158536 185.35391,500.307382 185.35391,499.122884 Z M180.971902,497.521526 C180.971902,497.341269 180.897925,497.170781 180.744739,497.074173 C180.481031,496.907073 180.047622,496.686029 179.405332,496.686029 C177.047665,496.686029 175.427149,498.863518 174.264417,500.578918 C174.731773,500.629245 175.262662,500.665099 175.815307,500.665099 C179.277399,500.665099 180.971902,498.857466 180.971902,497.521558 L180.971902,497.521526 Z M177.19215,495.921023 C177.33402,495.761818 177.687356,495.330056 177.687356,494.97497 C177.687356,494.572912 177.126876,494.276113 176.891894,494.165591 C176.503737,493.982044 176.084245,493.915928 175.66998,493.915928 C173.540331,493.915928 171.7327,495.671327 170.884148,496.446761 C171.76316,496.758263 172.910228,497.079502 174.029445,497.079502 C175.528988,497.079502 176.650817,496.527712 177.19215,495.921121 L177.19215,495.921023 Z M175.059893,491.981128 C175.113838,491.908104 175.267879,491.753175 175.267879,491.518973 C175.267879,491.247272 174.862314,490.872351 174.662143,490.723508 C174.074684,490.286615 173.325348,490.174349 172.656082,490.174349 C170.995532,490.174349 169.133962,491.378879 168.588258,491.734821 C169.614373,492.347529 171.020771,493.023756 172.421097,493.023756 C173.288797,493.023756 174.413234,492.848104 175.059876,491.981128 L175.059893,491.981128 Z M199.472069,502.667661 C199.949,502.667661 200.333677,502.49793 200.678319,502.438721 L198.748841,499.428334 C198.071743,500.041898 196.916843,500.232483 196.259757,500.232483 C196.259757,500.232483 196.499979,500.725097 196.793258,501.318629 C197.275409,502.296851 198.404199,502.667628 199.472069,502.667628 L199.472069,502.667661 Z M189.213732,501.31955 C189.507044,500.72513 189.747233,500.232516 189.747233,500.232516 C189.09015,500.232516 187.934378,500.04272 187.258149,499.428367 L185.32867,502.437899 C185.674185,502.497765 186.057122,502.667496 186.535793,502.667496 C187.60366,502.667496 188.731581,502.29672 189.213732,501.319386 L189.213732,501.31955 Z M181.821326,471.769929 C182.617657,473.139782 184.5393,476.443482 185.659389,478.369467 C186.695057,480.151017 187.505315,483.017791 187.611495,484.083938 C187.816027,483.698392 188.044036,482.717538 188.030112,481.468668 C188.016954,480.182331 187.762062,478.030927 186.387837,474.981362 C185.974441,474.062316 185.116316,472.129357 183.489709,468.467117 C182.27911,465.741292 181.86223,464.075528 181.848306,462.756134 C180.731697,463.284404 179.955382,464.604654 179.971049,466.048518 C179.990128,467.890953 180.390538,469.309555 181.821326,471.769929 Z M183.141586,481.461694 C182.19556,481.468273 181.827418,481.698528 181.55327,481.83678 C181.699482,482.503467 182.360916,483.208409 182.971003,483.588725 C182.467965,483.626882 181.846566,483.826217 181.456665,484.177915 C181.709913,485.063015 182.404434,485.778418 183.309554,486.17791 C182.930968,486.472966 182.677711,486.810618 182.530627,487.358033 C183.162473,488.094323 184.467938,488.325828 185.415704,488.494671 C185.089333,488.799266 184.84826,489.261388 184.699439,489.800119 C185.35391,490.294477 186.479222,490.324936 187.405229,490.324936 C187.184184,489.25096 186.971817,487.801011 186.971817,486.963771 C186.971817,484.553888 186.148504,482.70971 185.638502,481.695798 C185.18333,480.761094 184.67942,479.79593 183.464469,479.407753 C183.057165,480.039606 183.064128,480.949081 183.141586,481.461694 Z M184.660276,496.975821 C185.730755,496.975821 186.525349,496.706094 187.430468,495.372719 C187.53405,495.219435 188.467008,493.864483 188.467008,493.864483 C188.467008,493.864483 187.782943,492.337069 187.662842,491.613838 C187.662842,491.613838 185.655037,493.229143 184.635905,494.048983 C184.013634,494.549393 182.718614,495.535477 181.91358,495.73649 C182.232121,496.150784 183.571518,496.975821 184.660276,496.975821 Z M181.067639,494.043753 C182.567182,494.043753 183.105903,493.580743 183.848275,492.982836 C184.50362,492.456309 185.852599,491.371018 185.852599,491.371018 C185.164183,491.412793 184.128515,491.043069 183.710767,490.60167 C183.710767,490.60167 182.085899,491.384965 180.957107,491.731334 C179.236506,492.257894 178.502834,492.356213 178.112068,492.424994 C178.496742,493.410157 179.751731,494.043753 181.067639,494.043753 Z M178.829201,490.710482 C179.970178,490.671338 182.267794,490.01771 183.430527,489.28142 C182.721226,489.210041 181.83699,488.854099 181.389651,488.270995 C180.558506,488.397964 179.767395,488.49204 179.091166,488.493684 C177.10686,488.483816 175.798784,488.049818 175.388,487.9889 C175.793564,489.777389 177.040715,490.772157 178.829201,490.710383 L178.829201,490.710482 Z M173.55861,482.616588 C173.55861,485.052588 175.039005,487.1187 179.119885,487.139587 C179.999769,487.142877 181.264326,487.077089 181.264326,487.077089 C181.31393,486.862952 181.54629,486.352115 181.699482,486.159786 C181.130301,486.013739 178.219986,485.045779 176.602079,484.266859 C174.840575,483.419191 173.901509,482.546262 173.574274,482.298211 C173.565721,482.367945 173.558485,482.482744 173.558485,482.616621 L173.55861,482.616588 Z M177.079009,480.029146 C174.85363,478.380783 173.84581,477.251118 173.429802,476.503546 C173.325365,476.684461 173.174811,477.095334 173.174811,477.826394 C173.174811,479.714979 173.912834,481.246735 177.467177,483.076999 C178.421906,483.568726 180.339198,484.436393 180.339198,484.436393 C180.274792,484.282451 180.260878,484.003875 180.296567,483.868978 C180.296567,483.868978 180.601162,483.50432 181.225186,483.244099 C181.225186,483.244099 177.977192,480.694945 177.079032,480.029146 L177.079009,480.029146 Z M177.118172,474.263361 C175.489825,472.23988 174.632569,471.037981 174.300113,470.085021 C173.956339,470.498395 173.743985,471.365239 173.743985,472.344317 C173.743985,475.183263 175.280079,476.937807 177.299199,478.544428 C178.925806,479.83856 180.412294,481.083977 180.412294,481.083977 C180.391571,481.157988 181.141613,480.482584 182.234723,480.533076 C182.234723,480.533076 178.327903,475.766401 177.118172,474.263361 Z M177.078141,463.015467 C175.930201,463.534198 175.108628,465.250454 175.108628,466.467122 C175.108628,468.107656 175.512452,470.156367 177.952801,473.187675 C179.897943,475.606242 182.471445,478.802906 182.471445,478.802906 C182.533252,478.573967 182.706437,478.218913 182.883973,478.057044 C183.345237,478.047176 183.868294,478.207697 184.105016,478.332034 C184.105016,478.332034 179.792634,470.915255 178.718672,469.06759 C177.307031,466.640274 177.085101,464.75432 177.078141,463.015467 Z M206.038552,466.04763 C206.054341,464.603799 205.277905,463.284404 204.161296,462.756134 C204.147481,464.075528 203.730492,465.741292 202.519893,468.467117 C200.893286,472.130245 200.035161,474.062316 199.621764,474.980507 C198.247543,478.030071 197.992545,480.182331 197.978618,481.468668 C197.965461,482.717538 198.193578,483.698392 198.398107,484.084793 C198.504287,483.017791 199.314545,480.151017 200.350212,478.370355 C201.470301,476.443482 203.391945,473.139782 204.188275,471.769929 C205.619064,469.3087 206.019408,467.890953 206.038552,466.04763 Z M207.898405,492.425849 C207.507636,492.356115 206.773096,492.257763 205.052495,491.731334 C203.923702,491.384965 202.298835,490.600814 202.298835,490.600814 C201.881086,491.042937 200.846287,491.412793 200.157002,491.371018 C200.157002,491.371018 201.505981,492.456309 202.161327,492.982836 C202.903699,493.580743 203.44242,494.043753 204.941963,494.043753 C206.25787,494.043753 207.513728,493.409301 207.898405,492.425849 Z M210.621602,487.988998 C210.210817,488.049851 208.902741,488.484211 206.919308,488.493783 C206.242206,488.49204 205.451096,488.398063 204.619951,488.271751 C204.172611,488.854001 203.288376,489.209942 202.579075,489.282177 C203.740936,490.017611 206.039424,490.672062 207.1804,490.710383 C208.969755,490.772223 210.216037,489.778278 210.621602,487.9889 L210.621602,487.988998 Z M204.784438,483.244099 C205.408449,483.504287 205.713057,483.868978 205.713057,483.868978 C205.748747,484.003842 205.734767,484.281497 205.671282,484.436393 C205.671282,484.436393 207.587705,483.568726 208.542435,483.076999 C212.096777,481.246735 212.834801,479.714979 212.834801,477.827282 C212.834801,477.095334 212.684247,476.684559 212.57981,476.503546 C212.16467,477.251118 211.155981,478.380783 208.930602,480.029146 C208.032443,480.69409 204.784438,483.244099 204.784438,483.244099 Z M207.290929,469.067623 C206.216967,470.915288 201.903714,478.332067 201.903714,478.332067 C202.141304,478.20773 202.664365,478.045893 203.125628,478.057077 C203.303155,478.218913 203.476363,478.574032 203.538157,478.802939 C203.538157,478.802939 206.111658,475.606275 208.056801,473.188564 C210.497149,470.1564 210.900971,468.107689 210.900971,466.467155 C210.900971,465.251342 210.079401,463.534231 208.931461,463.015532 C208.925211,464.754386 208.702587,466.640339 207.290929,469.067656 L207.290929,469.067623 Z M185.095429,462.260921 L185.095429,468.942298 L187.144136,473.613253 L187.144136,464.678632 C187.144136,464.265258 187.408699,464.052897 187.717672,464.052897 L187.822965,464.052897 C188.131934,464.052897 188.395629,464.269666 188.395629,464.678632 L188.395629,472.516646 C188.540985,472.361718 189.111893,471.776903 189.982205,471.776903 C190.305088,471.776903 190.552257,471.866373 190.625363,471.897951 L190.625363,464.678731 C190.625363,464.265357 190.889926,464.052996 191.198895,464.052996 L191.304221,464.052996 C191.61319,464.052996 191.877753,464.269765 191.877753,464.678731 L191.877753,472.595953 L192.055313,472.723909 C192.160638,472.807459 192.21807,472.854496 192.379051,472.854496 C192.464344,472.854496 192.638417,472.808445 192.922124,472.808445 C193.532212,472.808445 193.905573,473.01107 194.131855,473.13475 L194.131855,464.678796 C194.131855,464.265423 194.396418,464.053062 194.705388,464.053062 L194.810713,464.053062 C195.119682,464.053062 195.384245,464.26983 195.384245,464.678796 L195.384245,474.358391 L196.83157,477.563739 C196.83157,477.563739 196.518258,477.600251 196.330271,477.656828 C196.140541,477.715049 196.062222,477.820309 196.062222,477.885767 C196.062222,477.999908 196.130969,478.182467 196.162317,478.274767 C196.192908,478.367856 196.590509,479.336572 196.882933,479.918788 C196.936023,478.605512 197.1771,477.663834 197.612253,476.458449 L197.613121,464.678796 C197.613121,464.265423 197.877684,464.053062 198.186657,464.053062 L198.291094,464.053062 C198.600919,464.053062 198.865498,464.26983 198.865498,464.678796 L198.865498,464.778135 L198.864626,464.784714 L198.864626,473.484343 L200.915946,468.795099 L200.915946,462.262565 L185.095429,462.262565 L185.095429,462.260921 Z M191.87775,464.678632 L191.87775,464.778628 L191.87775,464.678632 Z M204.096894,495.73649 C203.290988,495.536168 201.995967,494.549393 201.373696,494.048983 C200.354564,493.229143 198.34676,491.613838 198.34676,491.613838 C198.16749,492.348385 197.542594,493.863595 197.542594,493.863595 C197.542594,493.863595 198.475564,495.220422 198.579133,495.373575 C199.485124,496.706028 200.279718,496.975821 201.350197,496.975821 C202.438955,496.975821 203.778362,496.150784 204.096894,495.73649 Z M212.444032,482.298014 C212.116806,482.546064 211.177731,483.419027 209.416223,484.266695 C207.79832,485.045615 204.888004,486.01341 204.319692,486.159622 C204.471989,486.352049 204.704369,486.862821 204.753976,487.076925 C204.753976,487.076925 206.018537,487.144028 206.89842,487.139423 C210.9793,487.119687 212.459695,485.052424 212.459695,482.616424 C212.459695,482.482547 212.452788,482.367419 212.443907,482.298014 L212.444032,482.298014 Z M203.774879,480.533076 C204.867988,480.482419 205.618195,481.157955 205.597308,481.083977 C205.597308,481.083977 207.083795,479.83856 208.710403,478.544428 C210.729523,476.937807 212.265617,475.183263 212.265617,472.344317 C212.265617,471.365239 212.053256,470.498395 211.709488,470.085021 C211.377033,471.037981 210.519777,472.240768 208.891429,474.263361 C207.681699,475.766401 203.774879,480.533076 203.774879,480.533076 Z M202.545132,479.408641 C201.330181,479.79593 200.826271,480.761094 200.3711,481.695798 C199.861098,482.70971 199.037785,484.553033 199.037785,486.963771 C199.037785,487.801899 198.825424,489.25096 198.604372,490.324936 C199.531251,490.324936 200.655692,490.295332 201.310162,489.800119 C201.161352,489.261388 200.920265,488.799266 200.59477,488.494671 C201.541664,488.326585 202.847128,488.094323 203.478974,487.357178 C203.331907,486.80973 203.078633,486.472933 202.700048,486.17791 C203.605167,485.778418 204.300548,485.06216 204.552937,484.177915 C204.163036,483.826315 203.541637,483.627013 203.038598,483.588725 C203.648686,483.207521 204.31012,482.503467 204.456332,481.83678 C204.182196,481.698298 203.814042,481.466924 202.868016,481.461694 C202.94548,480.949081 202.952453,480.039606 202.545132,479.408641 Z M192.592274,498.729509 C192.592274,498.729509 192.495666,498.262157 192.495666,497.759116 C192.495666,497.383997 192.594018,497.196899 192.594018,496.975821 C192.594018,496.691292 192.449549,496.457977 192.086627,496.457977 C191.56009,496.457977 191.312053,496.888785 191.312053,497.390971 C191.312053,498.154234 192.592277,498.729509 192.592277,498.729509 Z M190.725461,498.875721 C190.725461,498.875721 190.660201,498.561588 190.660201,497.859178 C190.660201,497.767734 190.709804,497.457975 190.709804,497.323079 C190.709804,497.012234 190.549678,496.813064 190.234617,496.813064 C189.73941,496.813064 189.517481,497.234299 189.517481,497.711223 C189.517481,498.392679 190.725471,498.875721 190.725471,498.875721 Z M189.26073,499.091536 C189.26073,499.091536 188.93436,498.774771 188.93436,498.209922 C188.93436,498.13953 188.930741,497.968155 188.914295,497.847863 C188.882059,497.61991 188.764596,497.405773 188.459992,497.405773 C188.044855,497.405773 187.83076,497.757373 187.83076,498.06371 C187.83076,498.749509 189.260677,499.091536 189.260677,499.091536 L189.26073,499.091536 Z"/></g></g></svg>