<svg id="Layer_01" data-name="Layer 01" xmlns="http://www.w3.org/2000/svg" viewBox="0 0 218.72 207.24"><defs><style>.cls-1{fill:#0f0f0f;}.cls-2,.cls-3{fill:none;stroke-linecap:round;stroke-linejoin:round;}.cls-2{stroke:#ffcafd;stroke-width:2.55px;}.cls-3{stroke:#686868;stroke-width:1.28px;}.cls-4{fill:#d6f2fe;}.cls-5{fill:#fff7d8;}.cls-6{fill:#ffcafd;}</style></defs><path class="cls-1" d="M80.54,50.64a2.9,2.9,0,0,1-3.28-1A196.79,196.79,0,0,0,25.19.47,2.91,2.91,0,0,0,21,1.64C.38,44.1-2.18,91.6,1.3,124.22c3.56,33.36,13.44,51.14,21.75,61.64s15.05,13.69,26.71,16.41,28.21,5,59.6,5,48-2.25,59.6-5,18.4-5.92,26.71-16.41,18.19-28.28,21.75-61.64c3.48-32.62.92-80.12-19.69-122.58A2.92,2.92,0,0,0,193.52.47,196.75,196.75,0,0,0,141.46,49.6a2.9,2.9,0,0,1-3.28,1A90,90,0,0,0,80.54,50.64Z"/><path class="cls-2" d="M191.45,16a183.44,183.44,0,0,0-37.56,36.35"/><path class="cls-3" d="M97.82,181.39a9.67,9.67,0,0,0,11.54-7.91,9.67,9.67,0,0,0,11.54,7.91"/><path class="cls-4" d="M138.69,152.14c-6-6.49-4.3-19.33-.86-28s8.62-13.25,14.4-15.24A23.72,23.72,0,0,1,169.88,110a25,25,0,0,1,12.59,13.52c2.56,6.38,3.13,14.56,1.07,20.74s-6.75,10.39-15.95,12.43S144.69,158.63,138.69,152.14Z"/><path class="cls-5" d="M80,152.14c6-6.49,4.29-19.33.85-28s-8.61-13.25-14.4-15.24A23.73,23.73,0,0,0,48.83,110a25,25,0,0,0-12.58,13.52c-2.56,6.38-3.14,14.56-1.08,20.74s6.75,10.39,15.95,12.43S74,158.63,80,152.14Z"/><path class="cls-6" d="M109.36,155.14c-5.62,0-11.23,0-11.23,3.34s5.61,10,11.23,10,11.23-6.67,11.23-10S115,155.14,109.36,155.14Z"/><path class="cls-1" d="M167.35,139.47c-1.06,6-5,10.11-9.35,11.28s-9.15-.6-11.4-5.84-1.95-13.95,1.51-19,10.11-6.59,14.32-3.41S168.42,133.49,167.35,139.47Z"/><path class="cls-1" d="M51.36,139.47c1.07,6,5,10.11,9.35,11.28s9.16-.6,11.41-5.84,1.95-13.95-1.52-19-10.1-6.59-14.31-3.41S50.29,133.49,51.36,139.47Z"/><path class="cls-2" d="M64.82,52.38A183.64,183.64,0,0,0,27.27,16"/></svg>