<?xml version="1.0" encoding="UTF-8"?>
<svg width="104px" height="60px" viewBox="0 0 104 60" version="1.1" xmlns="http://www.w3.org/2000/svg" xmlns:xlink="http://www.w3.org/1999/xlink">
    <!-- Generator: Sketch 55.2 (78181) - https://sketchapp.com -->
    <title>Group 2 Copy 4</title>
    <desc>Created with Sketch.</desc>
    <defs>
        <polygon id="path-1" points="55.884608 6.16875 63.56064 43.79125 90.555296 48.2745833 92.044992 17.1845833"></polygon>
    </defs>
    <g id="Welcome" stroke="none" stroke-width="1" fill="none" fill-rule="evenodd">
        <g id="Artboard" transform="translate(-254.000000, -431.000000)" fill-rule="nonzero">
            <g id="Group-2-Copy-4" transform="translate(254.000000, 431.000000)">
                <polygon id="Path" fill-opacity="0.44" fill="#1F2937" points="55.884608 6.16875 57.450432 13.84125 38.943008 16.1579167 37.263616 0.48625"></polygon>
                <polygon id="Path" fill-opacity="0.44" fill="#1F2937" points="90.164256 55.99375 90.5632 47.7775 70.834816 43.79125 72.269184 52.93875"></polygon>
                <polyline id="Path" fill-opacity="0.49" fill="#1F2937" points="1.98951966e-13 21.0670833 22.31424 59.9233333 72.268768 52.93875 72.123168 51.4633333 41.901184 47.7125 38.942592 16.1579167 1.98951966e-13 21.0670833"></polyline>
                <polygon id="Path" fill="#1F2937" points="57.450432 13.84125 71.158048 43.4229167 72.269184 52.93875 41.908256 47.71375 38.943008 16.1579167"></polygon>
                <polygon id="Path" fill-opacity="0.32" fill="#1F2937" points="104 5.82645043e-13 97.991712 49.3625 90.555296 48.2745833 92.044992 17.1845833 55.884608 6.16875 55.36128 3.6375"></polygon>
                <g id="Path">
                    <use fill="#FFFFFF" xlink:href="#path-1"></use>
                    <use fill-opacity="0.82" fill="#1F2937" xlink:href="#path-1"></use>
                </g>
                <path d="M82.080544,19.3675 C81.76272,19.3675 81.491904,19.4854167 81.264768,19.71625 C81.041792,19.9445833 80.926976,20.22 80.926976,20.5483333 C80.926976,20.87625 81.03888,21.1575 81.264768,21.3870833 C81.485248,21.6191667 81.76272,21.7358333 82.080544,21.7358333 C82.403776,21.7358333 82.676672,21.6191667 82.900896,21.3870833 C83.123872,21.1575 83.240352,20.87625 83.240352,20.5483333 C83.240352,20.22 83.123872,19.9445833 82.900896,19.71625 C82.670848,19.4854167 82.40336,19.3675 82.080544,19.3675 Z M83.428384,20.54375 C83.428384,20.9245833 83.294848,21.24875 83.031936,21.51625 C82.771104,21.7841667 82.454528,21.9195833 82.083872,21.9195833 C81.713216,21.9195833 81.39664,21.7845833 81.137888,21.51625 C80.879968,21.2483333 80.74768,20.9270833 80.74768,20.54375 C80.74768,20.16875 80.880384,19.8475 81.137888,19.58125 C81.399968,19.315 81.71488,19.18 82.083872,19.18 C82.454112,19.18 82.771104,19.315 83.031936,19.58125 C83.294848,19.8475 83.428384,20.16875 83.428384,20.54375 Z M82.436224,20.2466667 C82.436224,20.1395833 82.405856,20.065 82.339712,20.0283333 C82.275648,19.9904167 82.170816,19.97125 82.027296,19.97125 L81.807232,19.97125 L81.807232,20.5170833 L82.041024,20.5170833 C82.1496,20.5170833 82.229056,20.5070833 82.2848,20.4820833 C82.386304,20.44375 82.436224,20.3654167 82.436224,20.2466667 Z M81.54224,19.79 L82.056416,19.79 C82.24112,19.79 82.37632,19.81 82.462432,19.8475 C82.61552,19.9079167 82.689568,20.0345833 82.689568,20.225 C82.689568,20.3629167 82.637984,20.46 82.546048,20.5233333 C82.497376,20.5575 82.421664,20.5804167 82.33056,20.59625 C82.445792,20.6125 82.529824,20.6641667 82.580992,20.7425 C82.637568,20.8216667 82.661696,20.8983333 82.661696,20.9779167 L82.661696,21.085 L82.66544,21.1966667 L82.68,21.2741667 L82.689152,21.2958333 L82.445376,21.2958333 L82.439968,21.2783333 L82.429568,21.215 L82.429568,21.0958333 C82.429568,20.92 82.385888,20.8058333 82.293952,20.74875 C82.24112,20.7191667 82.145024,20.70125 82.007328,20.70125 L81.806816,20.70125 L81.806816,21.2958333 L81.54224,21.2958333 L81.54224,19.79 Z M38.117248,27.9345833 C36.295168,26.1091667 33.609888,24.9570833 30.34928,24.9570833 C25.21792,24.9570833 21.8608,28.75125 21.8608,34.2270833 C21.8608,39.84625 25.50496,43.4970833 30.588064,43.4970833 C33.849504,43.4970833 36.199072,42.5358333 38.597312,40.5666667 L38.597312,46.8583333 C35.958208,48.44375 33.226336,48.9716667 30.348864,48.9716667 C21.429408,48.9716667 15.627456,42.9204167 15.627456,34.2270833 C15.627456,25.4854167 21.668608,19.4804167 30.348864,19.4804167 C33.226336,19.4804167 35.814688,20.0570833 38.116832,21.4020833 L38.116832,27.9345833 L38.117248,27.9345833 Z M60.23888,43.16 L60.23888,48.4920833 L41.777632,48.4920833 L41.777632,19.96125 L59.952256,19.96125 L59.952256,25.2925 L47.77136,25.2925 L47.77136,31.5370833 L58.94512,31.5370833 L58.94512,36.77125 L47.77136,36.77125 L47.77136,43.1595833 L60.23888,43.1595833 L60.23888,43.16 Z M62.9512,40.8545833 C65.108576,42.4879167 67.506816,43.7841667 70.671328,43.7841667 C73.117408,43.7841667 75.274784,42.92 75.274784,40.56625 C75.274784,38.4045833 73.500544,37.5879167 70.526976,36.7233333 C64.820704,35.1379167 62.471968,32.7375 62.471968,27.9341667 C62.471968,22.5066667 66.692288,19.48 71.966336,19.48 C75.180352,19.4804167 77.528256,20.2975 79.54336,21.59375 L79.54336,27.5975 C77.28864,25.7729167 74.987744,24.6679167 72.158944,24.6679167 C69.712448,24.6679167 68.370016,25.8691667 68.370016,27.6458333 C68.370016,29.66375 69.999904,30.48 73.309184,31.3929167 C79.015872,33.0254167 81.221504,35.5708333 81.221504,40.3741667 C81.221504,46.3304167 76.522368,48.9720833 70.671744,48.9712502 C67.554656,48.9712502 64.772864,48.1079167 62.951616,46.9066667 L62.951616,40.8545833 L62.9512,40.8545833 Z" id="Combined-Shape" fill="#FFFFFF"></path>
            </g>
        </g>
    </g>
</svg>