<svg xmlns="http://www.w3.org/2000/svg" xmlns:xlink="http://www.w3.org/1999/xlink" width="95" height="61" version="1.1" viewBox="0 0 95 61"><title>Combined Shape</title><desc>Created with Sketch.</desc><g id="Welcome" fill="none" fill-rule="evenodd" stroke="none" stroke-width="1"><g id="Artboard" fill="#1F2937" transform="translate(-120.000000, -594.000000)"><path id="Combined-Shape" d="M193.352419,609.759007 L194.889318,609.759007 L194.889318,610.368408 L188.744126,610.368408 L188.744126,609.759007 L190.279994,609.759007 L190.279994,601.191326 L189.087644,601.191326 L189.087644,600.54139 L193.352419,600.54139 L193.352419,609.759007 Z M132.686462,594.590285 L132.686462,599.916874 L132.131336,599.916874 C131.770299,597.614617 130.000495,594.73044 127.426858,594.73044 C125.147273,594.73044 123.793125,596.666507 123.793125,602.423525 C123.793125,607.908476 124.785892,610.135159 127.359529,610.135159 C130.271187,610.135159 131.690946,607.433734 132.006639,605.605531 L132.141986,604.838112 L132.754135,604.838112 L132.754135,610.368408 L132.141986,610.368408 C132.141986,609.861375 132.054388,609.44297 131.580334,609.44297 C130.858259,609.44297 129.842476,610.729789 127.133837,610.729789 C122.663982,610.729789 120.001031,606.734675 120.001031,602.693873 C120.001031,598.675057 122.799328,594.115543 127.426858,594.115543 C129.052729,594.115543 130.438137,595.267015 131.386933,595.267015 C131.860301,595.267015 132.108664,595.063652 132.131336,594.590285 L132.686462,594.590285 Z M144.666307,608.454326 L145.232424,608.454326 C145.232424,609.767595 144.297712,610.635665 142.851158,610.635665 C141.848772,610.635665 141.024673,610.168137 140.623787,609.233424 C140.045647,610.302109 138.509434,610.635665 137.640334,610.635665 C135.926179,610.635665 134.189353,609.856566 134.189353,607.919468 C134.189353,605.604157 136.393364,605.0693 138.419776,604.913686 L140.601802,604.7354 L140.601802,602.865976 C140.601802,601.529691 140.378859,600.913763 138.709705,600.913763 C137.951905,600.913763 136.642414,601.076934 136.642414,601.581219 C136.642414,601.607669 137.818276,601.622097 137.818276,602.754676 C137.818276,603.533775 137.306434,604.08993 136.461037,604.08993 C135.458651,604.08993 135.013109,603.422131 135.013109,602.643033 C135.013109,601.396062 136.638636,600.305393 138.865662,600.305393 C141.157614,600.305393 143.540598,600.928878 143.540598,603.466789 L143.540598,608.587954 C143.540598,609.278082 143.631631,609.700609 144.032859,609.700609 C144.285345,609.700609 144.666307,609.033153 144.666307,608.454326 Z M140.601802,607.719197 L140.601802,605.318694 L138.842647,605.497667 C137.395749,605.65328 137.261777,606.432036 137.261777,607.612363 C137.261777,608.589328 137.329107,609.866528 138.842647,609.866528 C139.889689,609.866528 140.557488,608.899525 140.601802,607.719197 Z M195.739525,648.032747 L197.275737,648.032747 L197.275737,648.642147 L191.130888,648.642147 L191.130888,648.032747 L192.666757,648.032747 L192.666757,639.464722 L191.130888,639.464722 L191.130888,638.815129 L195.739525,638.815129 L195.739525,648.032747 Z M137.939195,614.68849 L136.483709,614.68849 L136.483709,629.102503 L137.939195,629.102503 L137.939195,629.718087 L131.826293,629.718087 L131.826293,629.102503 L133.311321,629.102503 L133.311321,614.846164 L133.266663,614.846164 L128.079886,629.718087 L127.478042,629.718087 L122.157636,614.57822 L122.112979,614.57822 L122.112979,627.202505 C122.112979,629.005631 122.58085,629.102503 123.782476,629.102503 L123.850149,629.102503 L123.850149,629.718087 L120,629.718087 L120,629.102503 C121.271016,629.102503 121.50667,628.359473 121.50667,627.402432 L121.50667,614.68849 L120,614.68849 L120,614.04508 L125.585945,614.04508 L129.175365,624.611693 L132.864747,614.059165 L137.953279,614.059165 L137.939195,614.68849 Z M141.497353,624.330695 L141.497353,626.200807 C141.497353,627.71469 141.720984,629.336095 143.790679,629.336095 C145.527506,629.336095 146.61371,628.15989 147.102879,626.089507 L147.709532,626.089507 C147.220363,628.293174 145.861406,629.985344 143.123224,629.985344 C140.273055,629.985344 138.158359,627.82599 138.158359,624.931508 C138.158359,621.926069 140.429356,619.655072 143.055894,619.655072 C145.393878,619.610758 147.620217,621.926069 147.64289,624.330695 L141.497353,624.330695 Z M141.497353,623.72576 L144.302865,623.72576 L144.302865,622.229739 C144.302865,621.005441 143.969652,620.271 142.899937,620.271 C142.143511,620.271 141.497353,620.738184 141.497353,622.229739 L141.497353,623.72576 Z M167.075013,643.252694 L167.075013,645.122806 C167.075013,646.636346 167.298643,648.258094 169.368339,648.258094 C171.105166,648.258094 172.19137,647.081889 172.680539,645.011506 L173.287192,645.011506 C172.798022,647.215174 171.439065,648.907343 168.700884,648.907343 C165.850715,648.907343 163.736019,646.747989 163.736019,643.853507 C163.736019,640.848069 166.007016,638.577415 168.633554,638.577415 C170.971537,638.533101 173.198221,640.848069 173.220549,643.252694 L167.075013,643.252694 Z M167.075013,642.647759 L169.880524,642.647759 L169.880524,641.151738 C169.880524,639.927441 169.547312,639.192999 168.477597,639.192999 C167.72117,639.192999 167.075013,639.660184 167.075013,641.151738 L167.075013,642.647759 Z M147.68102,614.079776 L152.289657,614.079776 L152.289657,629.088419 L153.825869,629.088419 L153.825869,629.718087 L147.68102,629.718087 L147.68102,629.088419 L149.217576,629.088419 L149.217576,614.64555 L147.68102,614.64555 L147.68102,614.079776 Z M154.255267,614.079776 L158.863904,614.079776 L158.863904,629.088419 L160.400116,629.088419 L160.400116,629.718087 L154.255267,629.718087 L154.255267,629.088419 L155.791822,629.088419 L155.791822,614.64555 L154.255267,614.64555 L154.255267,614.079776 Z M170.937529,624.820208 C170.937529,627.870304 168.577904,629.985344 165.639108,629.985344 C162.700312,629.985344 160.340344,627.870304 160.340344,624.820208 C160.340344,621.770112 162.700312,619.655072 165.639108,619.655072 C168.577904,619.655072 170.937529,621.770112 170.937529,624.820208 Z M167.464563,627.021128 L167.464563,622.6399 C167.464563,620.969715 166.774091,620.279588 165.639108,620.279588 C164.503438,620.279588 163.813654,620.969715 163.813654,622.6399 L163.813654,627.021128 C163.813654,628.690968 164.503438,629.381439 165.639108,629.381439 C166.774091,629.381439 167.464563,628.690968 167.464563,627.021128 Z M120,633.547969 L120,632.951621 L126.295997,632.951621 L126.295997,633.547969 L124.836389,633.547969 L124.836389,643.147921 C125.02979,645.998433 125.675947,648.180459 128.92597,648.180459 C130.832152,648.180459 132.711538,646.800204 132.711538,643.77175 L132.711538,635.182427 C132.711538,633.891487 132.554894,633.547969 131.419567,633.547969 L131.13857,633.547969 L131.13857,632.951621 L135.053987,632.951621 L135.053987,633.547969 L134.603635,633.547969 C133.801864,633.547969 133.445636,633.802859 133.445636,635.093799 L133.445636,643.549494 C133.445636,646.822189 131.664839,648.98223 127.568044,648.98223 C123.938777,648.98223 121.55648,646.889519 121.55648,643.438538 L121.55648,633.547969 L120,633.547969 Z M158.574318,648.892229 L154.477523,639.444798 L153.431511,639.444798 L153.431511,638.829214 L159.019174,638.829214 L159.019174,639.444798 L157.783883,639.444798 L160.207059,644.897115 L161.719912,641.334147 C161.985108,640.69005 162.098125,640.338288 162.098125,639.981373 C162.098125,639.403232 161.802356,639.444798 161.156886,639.444798 L160.733328,639.444798 L160.733328,638.829214 L164.206982,638.829214 L164.206982,639.438271 L164.006367,639.438271 C163.494526,639.4606 163.136923,639.645412 162.470842,641.100211 L159.175131,648.892229 L158.574318,648.892229 Z M183.38078,648.892229 L183.38078,645.152349 L183.90911,645.152349 C184.309996,646.778219 185.473835,648.240231 187.165661,648.240231 C188.367973,648.240231 189.347343,647.703313 189.347343,646.523672 C189.347343,645.499302 188.769546,645.397277 187.165661,645.196662 C185.473491,644.996735 183.291122,644.751807 183.291122,641.87931 C183.291122,640.454741 184.382478,638.561957 186.608818,638.561957 C187.632845,638.561957 188.211673,639.05147 188.92516,639.05147 C189.347687,639.05147 189.578187,638.829214 189.578187,638.561957 L190.082128,638.561957 L190.082128,641.723696 L189.555859,641.723696 C188.999703,640.276798 188.352859,639.169296 186.682331,639.169296 C185.480705,639.169296 184.567978,639.607625 184.567978,640.654324 C184.567978,641.634038 185.27322,641.812324 186.52019,641.990266 C188.902144,642.324509 190.772256,642.52478 190.772256,645.241663 C190.772256,647.067118 189.325701,648.892229 187.210318,648.892229 C185.964035,648.892229 185.27322,648.358745 184.694049,648.358745 C184.24885,648.358745 184.020067,648.536 183.90911,648.892229 L183.38078,648.892229 Z M152.61703,648.032747 L154.153585,648.032747 L154.153585,648.642147 L148.008393,648.642147 L148.008393,648.032747 L149.544605,648.032747 L149.544605,639.464722 L148.008393,639.464722 L148.008393,638.815129 L152.61703,638.815129 L152.61703,648.032747 Z M149.547697,635.742705 C149.547697,634.890093 150.229236,634.208554 151.081504,634.208554 C151.934116,634.208554 152.615312,634.890093 152.615312,635.742705 C152.615312,636.594629 151.934116,637.276169 151.081504,637.276169 C150.229236,637.276169 149.547697,636.594629 149.547697,635.742705 Z M192.662978,635.742705 C192.662978,634.890093 193.344175,634.208554 194.196443,634.208554 C195.049398,634.208554 195.73025,634.890093 195.73025,635.742705 C195.73025,636.594629 195.049398,637.276169 194.196443,637.276169 C193.344175,637.276169 192.662978,636.594629 192.662978,635.742705 Z M171.454867,604.978955 L171.454867,606.84941 C171.454867,608.363293 171.678497,609.984698 173.748193,609.984698 C175.48502,609.984698 176.571223,608.808493 177.060393,606.73811 L177.667046,606.73811 C177.177876,608.941778 175.818919,610.633947 173.080738,610.633947 C170.230569,610.633947 168.115873,608.474593 168.115873,605.580111 C168.115873,602.574329 170.38687,600.303675 173.013408,600.303675 C175.351391,600.259361 177.578075,602.574329 177.600403,604.978955 L171.454867,604.978955 Z M171.454867,604.374019 L174.260378,604.374019 L174.260378,602.878342 C174.260378,601.654044 173.927166,600.919259 172.857451,600.919259 C172.101024,600.919259 171.454867,601.386787 171.454867,602.878342 L171.454867,604.374019 Z M198.335147,604.978955 L198.335147,606.84941 C198.335147,608.363293 198.558777,609.984698 200.628473,609.984698 C202.365299,609.984698 203.451503,608.808493 203.940673,606.73811 L204.547325,606.73811 C204.058156,608.941778 202.699199,610.633947 199.961017,610.633947 C197.110849,610.633947 194.996152,608.474593 194.996152,605.580111 C194.996152,602.574329 197.26715,600.303675 199.893688,600.303675 C202.231671,600.259361 204.458354,602.574329 204.480683,604.978955 L198.335147,604.978955 Z M198.335147,604.374019 L201.140658,604.374019 L201.140658,602.878342 C201.140658,601.380604 200.536066,600.919259 199.737731,600.919259 C198.981304,600.919259 198.335147,601.386787 198.335147,602.878342 L198.335147,604.374019 Z M146.036943,648.03893 L147.573155,648.03893 L147.573155,648.640086 L141.69522,648.640086 L141.69522,648.03893 L142.964862,648.03893 L142.964862,641.203953 C142.964862,639.70965 142.554702,639.430714 141.74606,639.430714 C140.529663,639.430714 139.482277,641.337925 139.290938,642.164429 L139.290938,648.03893 L140.604894,648.03893 L140.604894,648.640086 L134.682644,648.640086 L134.682644,648.03893 L136.217826,648.03893 L136.217826,639.445141 L134.682644,639.445141 L134.682644,638.844672 L139.290938,638.844672 L139.290938,640.647798 L139.291281,640.647798 C139.893125,639.356514 141.405634,638.500123 142.89822,638.500123 C145.012916,638.500123 146.036943,639.623427 146.036943,642.028053 L146.036943,648.03893 Z M182.285301,629.116931 L183.821513,629.116931 L183.821513,629.718087 L177.943578,629.718087 L177.943578,629.116931 L179.212876,629.116931 L179.212876,622.281954 C179.212876,620.787307 178.80306,620.508371 177.994075,620.508371 C176.777678,620.508371 175.730635,622.415926 175.538952,623.24243 L175.538952,629.116931 L176.852908,629.116931 L176.852908,629.718087 L170.931002,629.718087 L170.931002,629.116931 L172.466184,629.116931 L172.466184,620.523142 L170.931002,620.523142 L170.931002,619.922329 L175.538952,619.922329 L175.538952,621.725798 L175.539639,621.725798 C176.141482,620.434171 177.653649,619.578124 179.146578,619.578124 C181.261274,619.578124 182.285301,620.701428 182.285301,623.106053 L182.285301,629.116931 Z M166.555271,609.765534 L168.091139,609.765534 L168.091139,610.367034 L162.213547,610.367034 L162.213547,609.765534 L163.482846,609.765534 L163.482846,602.930214 C163.482846,601.43591 163.072686,601.156974 162.264044,601.156974 C161.047304,601.156974 160.000604,603.064529 159.808921,603.89069 L159.808921,609.765534 L161.122878,609.765534 L161.122878,610.367034 L155.200628,610.367034 L155.200628,609.765534 L156.736153,609.765534 L156.736153,601.171745 L155.200628,601.171745 L155.200628,600.570932 L159.808921,600.570932 L159.808921,602.374058 L159.809265,602.374058 C160.411108,601.082774 161.923618,600.226727 163.416547,600.226727 C165.5309,600.226727 166.555271,601.350031 166.555271,603.754657 L166.555271,609.765534 Z M190.2903,597.497477 C190.2903,596.645209 190.97184,595.963326 191.824108,595.963326 C192.677063,595.963326 193.357915,596.645209 193.357915,597.497477 C193.357915,598.349745 192.677063,599.031285 191.824108,599.031285 C190.97184,599.031285 190.2903,598.349745 190.2903,597.497477 Z M210.683243,638.818565 L214.156553,638.818565 L214.156553,639.458539 L214.153805,639.458539 C213.345851,639.458539 213.087182,639.645412 212.420757,641.100211 L209.289247,648.50371 L209.290965,648.504053 L208.904164,649.410254 L208.904164,649.410597 C208.501904,650.357333 208.160447,651.16563 207.965329,651.636593 C207.878076,651.84717 207.784639,652.068739 207.68124,652.289621 C207.225391,653.26212 206.563776,654.215039 205.271805,654.107175 C205.072908,654.103052 204.886378,654.059082 204.713588,653.988661 C204.682672,653.976638 204.653473,653.96221 204.623586,653.948126 C204.607785,653.940225 204.590952,653.934385 204.57515,653.925797 C204.577555,653.925797 204.582364,653.925454 204.582364,653.925454 C204.085981,653.672968 203.744868,653.163531 203.744868,652.564092 C203.744868,651.711824 204.426407,651.030284 205.278675,651.030284 C205.984605,651.030284 206.566524,651.50056 206.748245,652.145 C206.748932,652.147748 206.749276,652.151183 206.749963,652.154619 C206.777101,652.226757 206.842025,652.280003 206.923783,652.280003 C206.999013,652.280003 207.062564,652.235002 207.092794,652.171794 L207.09245,652.173512 C207.092794,652.172825 207.093481,652.172481 207.093824,652.171451 L207.097259,652.163893 L208.504652,648.847228 L204.436369,639.465752 L201.332684,639.465752 L201.332684,646.800204 C201.332684,647.534989 201.567994,647.851026 202.013194,647.851026 C202.569693,647.851026 202.925921,647.316855 203.192834,646.916313 L203.669637,647.178761 C202.979853,648.33676 202.067126,648.892229 200.708512,648.892229 C200.085027,648.892229 198.260603,648.469358 198.260603,646.354661 L198.260603,639.465752 L197.079245,639.465752 L197.079245,638.829214 C199.328601,638.829214 200.931112,636.401916 200.931112,634.042634 L201.332684,634.042634 L201.332684,638.818565 L209.007906,638.818565 L209.007906,639.465752 L207.743073,639.465752 L210.156974,644.897115 L211.67017,641.334147 C211.934679,640.69005 212.047696,640.338288 212.047696,639.981373 C212.047696,639.551975 211.631696,639.46163 210.683243,639.465409 L210.683243,638.818565 Z M152.957112,600.200276 C154.003468,600.200276 154.715924,600.845747 154.715924,601.914431 C154.715924,602.760859 154.092096,603.539958 153.023755,603.539958 C152.155685,603.539958 151.478955,602.901358 151.509528,602.093747 C151.519146,601.839888 151.568269,601.632059 151.628385,601.45927 L151.627354,601.456178 C151.635255,601.37923 151.600216,601.302969 151.527734,601.266556 C151.462466,601.234609 151.38964,601.246289 151.334677,601.28545 C150.393094,602.09306 150.017973,603.559195 150.017973,604.990978 L150.017973,609.787862 L152.06637,609.787862 L152.06637,610.39692 L145.409336,610.39692 L145.409336,609.787862 L146.945892,609.787862 L146.945892,601.221212 L145.409336,601.221212 L145.409336,600.598757 L149.973315,600.598757 L149.973315,602.293331 L150.017973,602.293331 C150.440843,601.179646 151.5322,600.200276 152.957112,600.200276 Z M183.887125,603.564004 L183.887125,603.556103 C183.86514,600.995177 183.530897,600.92613 182.484885,600.92613 C181.326886,600.92613 181.126271,601.693205 181.126271,603.497018 C181.126271,606.066532 181.593456,606.238291 182.484885,606.238291 C183.286312,606.238291 183.887125,606.152412 183.887125,603.564004 Z M183.508912,611.169835 L180.166482,611.169835 C179.565669,611.815992 179.078561,612.461463 179.078561,613.441176 C179.122875,614.50986 180.083351,615.738624 182.087778,615.738624 C184.33576,615.738624 186.32679,614.246382 186.32679,612.621542 C186.32679,611.262928 185.735595,611.169835 183.508912,611.169835 Z M186.467289,600.925786 L186.460762,600.927847 C186.369042,600.954985 186.294156,600.993459 186.197971,601.047392 C186.080831,601.11266 185.83178,601.256594 185.617769,601.426292 C185.581699,601.454804 185.579982,601.507362 185.611585,601.54034 C186.140603,602.096152 186.425379,602.990329 186.425379,603.644731 C186.425379,605.760114 184.377325,606.851127 182.462556,606.851127 C182.106672,606.851127 181.816743,606.804753 181.548799,606.717499 C181.485935,606.696888 181.244442,606.58387 181.096729,606.58387 C180.251331,606.58387 179.397002,607.18537 179.397002,607.741182 C179.397002,608.342682 179.768689,608.365011 180.325188,608.365011 L184.020754,608.365011 C186.203467,608.320697 187.271464,609.30041 187.271464,611.459764 C187.271464,614.175617 185.245739,616.268672 182.150986,616.268672 C179.679374,616.268672 177.742276,615.00006 177.742276,613.352205 C177.742276,612.28352 178.766647,611.392778 179.657732,611.147506 L179.657732,611.103536 C178.721989,610.835936 178.209461,609.990194 178.209461,608.877196 C178.209461,607.028726 179.568074,606.427913 180.436831,606.316613 L180.436831,606.2723 C179.256503,605.737786 178.588361,604.780058 178.588361,603.556103 C178.588361,601.529691 180.592445,600.305393 182.462556,600.305393 C183.517156,600.305393 184.316523,600.544138 184.928672,600.900709 C185.040315,600.965634 185.145775,601.034681 185.245395,601.10682 C185.246426,601.107851 185.247456,601.108881 185.248143,601.109912 C185.683381,600.730325 186.290377,600.41257 186.882945,600.41257 C187.247074,600.41257 187.583035,600.493984 187.864033,600.671239 C188.144687,600.848151 188.389615,601.145294 188.389615,601.538966 C188.389615,602.14768 187.834834,602.616925 187.198295,602.472304 C186.889472,602.402226 186.629429,602.165886 186.526374,601.865995 C186.421257,601.559233 186.472785,601.276175 186.607444,601.049109 L186.609505,601.044987 C186.634238,601.001704 186.634582,600.958077 186.601604,600.924412 C186.567252,600.889717 186.511946,600.914794 186.467289,600.925786 Z M181.018063,638.416649 C182.064419,638.416649 182.776875,639.062119 182.776875,640.130803 C182.776875,640.977575 182.15339,641.75633 181.085049,641.75633 C180.216636,641.75633 179.540249,641.11773 179.570479,640.309776 C179.580097,640.060038 179.627846,639.854271 179.687275,639.682512 L179.68384,639.675298 C179.692084,639.598694 179.657045,639.522089 179.583876,639.485676 C179.519982,639.453729 179.448186,639.465409 179.393223,639.504226 C178.453358,640.311837 178.079267,641.776598 178.079267,643.207693 L178.079267,648.004235 L180.127321,648.004235 L180.127321,648.613292 L173.47063,648.613292 L173.47063,648.004235 L175.006843,648.004235 L175.006843,639.437584 L173.47063,639.437584 L173.47063,638.815129 L178.034953,638.815129 L178.034953,640.510047 L178.079267,640.510047 C178.501794,639.396018 179.593494,638.416649 181.018063,638.416649 Z"/></g></g></svg>