<svg xmlns="http://www.w3.org/2000/svg" xmlns:xlink="http://www.w3.org/1999/xlink" width="99" height="60" version="1.1" viewBox="0 0 99 60"><title>Shape</title><desc>Created with Sketch.</desc><g id="Welcome" fill="none" fill-rule="evenodd" stroke="none" stroke-width="1"><g id="Desktop-HD-Copy-19" fill="#1F2937" fill-rule="nonzero" transform="translate(-81.000000, -1812.000000)"><path id="Shape" d="M131.828516,1871.15222 L146.818882,1871.15222 L146.818882,1852.57803 L151.250482,1852.57803 L162.078998,1871.15222 L179.420039,1871.15222 L166.240848,1849.7264 C172.483622,1846.4894 176.83815,1839.97688 176.83815,1832.38536 C176.83815,1821.55684 168.013487,1812.80925 157.262042,1812.80925 L131.828516,1812.80925 L131.828516,1820.40077 C126.317919,1815.23699 119.073218,1812 110.980732,1812 C94.4874759,1812 81,1825.33333 81,1841.98073 C81,1858.62813 94.4874759,1872 111.019268,1872 C119.111753,1872 126.356455,1868.76301 131.867052,1863.59923 L131.867052,1871.15222 L131.828516,1871.15222 Z M121.655106,1852.57803 C118.919075,1855.31407 115.142582,1857.00963 110.980732,1857.00963 C102.734104,1857.00963 95.9903661,1850.2659 95.9903661,1842.01927 C95.9903661,1833.77264 102.734104,1827.0289 110.980732,1827.0289 C115.142582,1827.0289 118.880539,1828.68593 121.655106,1831.4605 L131.828516,1821.28709 L131.828516,1862.75145 L121.655106,1852.57803 Z M146.818882,1839.47592 L146.818882,1825.91137 L154.988439,1825.91137 C158.726397,1825.91137 161.809249,1828.99422 161.809249,1832.73218 C161.809249,1836.47013 158.726397,1839.47592 154.988439,1839.47592 L146.818882,1839.47592 Z"/></g></g></svg>