<svg xmlns="http://www.w3.org/2000/svg" xmlns:xlink="http://www.w3.org/1999/xlink" width="93" height="60" version="1.1" viewBox="0 0 93 60"><title>Combined Shape Copy</title><desc>Created with Sketch.</desc><g id="Welcome" fill="none" fill-rule="evenodd" stroke="none" stroke-width="1"><g id="Desktop-HD-Copy-19" fill="#1F2937" transform="translate(-414.000000, -2207.000000)"><path id="Combined-Shape-Copy" d="M449.796642,2248.53656 C450.942177,2251.16723 452.37372,2253.54274 454.110001,2255.6953 C453.441601,2256.5721 452.676954,2257.36919 451.881136,2258.11903 C449.462374,2260.35115 446.756237,2262.05777 443.779677,2263.25354 C440.787532,2264.44931 437.826558,2265.32597 434.865447,2265.89982 C431.906114,2266.47436 429.120682,2266.79278 426.478254,2266.88865 C423.851411,2266.96795 421.71893,2267 420.095986,2267 L414,2267 L414,2207.08023 L420.095986,2207.08023 C421.830763,2207.08023 423.692822,2207.09584 425.666713,2207.12762 C427.656327,2207.15953 429.692561,2207.27087 431.809593,2207.49439 C433.926625,2207.71776 436.043794,2208.0681 438.160826,2208.5469 C440.277858,2209.04145 442.346494,2209.72651 444.353333,2210.58756 C446.134593,2211.40122 447.965618,2212.48496 449.843262,2213.80838 C451.434898,2214.94046 452.883667,2216.35975 454.204745,2218.03364 C452.421981,2220.21837 450.957763,2222.64197 449.796642,2225.30455 C448.220591,2228.92404 447.440222,2232.79883 447.440222,2236.92822 C447.440222,2241.05788 448.220591,2244.93281 449.796642,2248.53656 Z M507,2236.92825 C507,2241.05777 506.219631,2244.9327 504.645084,2248.53658 C503.068896,2252.15608 500.951864,2255.31294 498.261312,2258.03948 C495.572401,2260.74972 492.420026,2262.90241 488.823327,2264.48125 C485.211043,2266.05941 481.342144,2266.84102 477.220186,2266.84102 C473.097818,2266.84102 469.230697,2266.05941 465.632357,2264.48125 C462.020073,2262.90241 458.867834,2260.74972 456.194372,2258.03948 C455.462263,2257.28992 454.761189,2256.50899 454.110015,2255.69533 C455.541558,2253.95762 456.766388,2251.94818 457.77056,2249.68415 C459.29835,2246.28816 460.046181,2242.07838 460.046181,2237.0878 C460.046181,2233.00607 459.568772,2229.49792 458.581827,2226.53226 C457.61197,2223.56686 456.3855,2221.0474 454.888744,2218.94306 C454.666445,2218.62381 454.442506,2218.32086 454.204758,2218.03366 C454.826538,2217.26835 455.494938,2216.51933 456.194372,2215.80154 C458.867834,2213.09144 462.020073,2210.93861 465.632357,2209.3762 C469.230697,2207.79723 473.097818,2207 477.220186,2207 C481.342144,2207 485.211043,2207.79723 488.823327,2209.3762 C492.420026,2210.93861 495.572401,2213.09144 498.261312,2215.80154 C500.951864,2218.52794 503.068896,2221.68507 504.645084,2225.30457 C506.219631,2228.92407 507,2232.79886 507,2236.92825 Z"/></g></g></svg>