<?xml version="1.0" encoding="UTF-8"?>
<svg width="1145px" height="274px" viewBox="0 0 1145 274" version="1.1" xmlns="http://www.w3.org/2000/svg" xmlns:xlink="http://www.w3.org/1999/xlink">
    <title>duquesne</title>
    <g id="duquesne" stroke="none" stroke-width="1" fill="none" fill-rule="evenodd">
        <path d="M190.273978,-0.00120175439 C202.242666,12.0572018 214.158416,24.1660789 226.228166,36.1211316 C228.280697,38.1545 229.057916,40.1518158 229.055515,43.0119912 C228.976103,105.669061 228.976103,168.328535 229.055515,230.988009 C229.057916,233.848184 228.280697,235.8455 226.228166,237.876465 C214.158416,249.833921 202.242666,261.942798 190.273978,273.998798 L38.8486656,273.998798 C25.8982281,261.065518 12.9501969,248.129833 -0.000240624999,235.196553 L-0.000240624999,38.8034474 L38.8486656,-0.00120175439 L190.273978,-0.00120175439 Z M396.728868,151 C398.024901,151.857797 399.712143,152.563792 400.844971,153.787839 L414.614978,168.679442 L442.11449,198.499695 C446.699767,203.467905 451.288232,208.433216 455.883147,213.392654 C464.031351,222.189888 472.354759,230.823273 480.898972,239.847004 L480.898972,153.903497 L490,153.903497 C489.445586,192.299532 488.888772,230.784721 488.319958,270 C487.20633,269.226537 485.891097,268.626562 484.995875,267.643469 C459.308033,239.478345 433.665792,211.269848 407.99475,183.090267 C406.845121,181.827667 405.489087,180.757831 403.933848,179.324154 C402.557298,205.773452 403.37176,232.140189 404.256773,258.470528 L404.446726,264.112203 C404.478307,265.052395 404.509785,265.992545 404.541064,266.932654 L394,266.932654 C394.897622,228.772754 395.804845,190.270699 396.728868,151 Z M899.442935,156.630579 C901.560408,158.017784 902.212122,159.160189 901.082962,161.6682 C899.803407,164.512212 899.235246,167.675425 898.24932,170.663437 C898.111391,171.082106 897.845259,171.459293 897.554895,171.828743 L897.20148,172.270529 C897.084234,172.417993 896.969764,172.566379 896.864726,172.717846 C896.234498,172.177844 895.427614,171.748242 895.009848,171.076239 C894.047795,169.521033 893.396081,167.769025 892.402993,166.237819 C886.029088,156.407378 872.187928,154.309769 862.760756,161.6946 C853.913681,168.625829 852.447921,182.577087 860.297134,190.809122 C863.453052,194.118736 867.804973,196.463546 871.946817,198.589955 C876.936129,201.150765 882.343205,202.878773 887.463814,205.206782 C909.81545,215.366025 913.732895,242.162138 895.341673,258.755807 C881.342956,271.38466 856.799842,272.486265 841.707773,261.230218 C840.141749,260.061413 839.630882,259.120609 840.265885,257.0422 C841.48576,253.055783 842.163733,248.901366 843.359736,243.489343 C844.858916,245.517352 845.806647,246.614156 846.546688,247.835761 C852.927754,258.347806 863.715648,263.342227 875.630314,261.254218 C884.771018,259.651011 891.354999,252.863783 893.334013,242.999741 C895.25812,233.421301 892.25021,225.794069 883.746896,220.809248 C878.473505,217.718035 872.648663,215.589226 867.119838,212.925215 C863.11884,210.998007 859.086808,209.094799 855.264853,206.848389 C837.293784,196.285945 838.764318,167.795425 854.959287,157.261781 C867.265459,149.257748 887.468588,148.796946 899.442935,156.630579 Z M283.570921,153 C283.12484,161.852039 282.417345,170.790958 282.278244,179.73953 C282.050407,194.557285 281.99045,209.382279 282.278244,224.19762 C282.369379,229.026663 283.343084,233.947412 284.635761,238.624417 C288.142059,251.313627 297.349087,259.137594 310.383783,260.291159 C316.089311,260.797955 322.027472,260.940341 327.62028,259.919508 C341.264142,257.428967 349.885988,247.642975 352.33464,232.048133 C353.538581,224.371378 354.00145,216.520865 354.104577,208.740337 C354.3516,190.220557 354.18372,171.693538 354.18372,153 L365,153 C364.781756,156.243495 364.489165,159.491817 364.359657,162.747379 C363.556231,182.975786 362.77199,203.204192 362.01653,223.432599 C360.879741,253.910354 341.515962,270.489828 310.875432,268.894627 C306.69042,268.677429 302.467034,268.148913 298.377953,267.22944 C280.671391,263.249883 270.222049,251.171241 268.845432,232.262918 C268.157123,222.80031 268.802263,213.243583 268.701535,203.732708 C268.528858,187.585217 268.241063,171.437727 268.006031,155.290236 C267.99404,154.520388 268.003633,153.748128 268.003633,153 L283.570921,153 Z M728.121995,154 L728.121995,163.320629 C714.107686,162.622905 699.888348,161.913152 685.010507,161.172121 L685.010507,204.231311 C698.006909,203.702004 711.128741,203.167884 724.356705,202.628952 L724.356705,212.231077 C711.215576,211.77876 698.072036,211.326442 684.643868,210.864501 L684.643868,259.859156 C699.68332,259.2697 714.293418,258.697085 729,258.122064 L729,267 L670,267 L670,154 L728.121995,154 Z M1044,154 L1044,163.707308 C1032.79263,163.192217 1021.32094,162.66509 1009.46237,162.118708 L1009.46237,267 L994.508797,267 L994.508797,162.125929 C982.842464,162.660276 971.464485,163.180182 960,163.704901 L960,154 L1044,154 Z M534,154 L534,267 L519,267 L519,154 L534,154 Z M943,154 L943,267 L928,267 L928,154 L943,154 Z M794.772316,154.017115 C796.969642,154.031507 799.20766,154.556791 801.35472,155.125249 C810.850137,157.631742 818.167377,162.632734 820.288108,172.936937 C822.530912,183.835982 819.814175,193.269509 811.314496,200.724226 C804.696188,206.533532 796.739856,209.407004 787.57715,211.143559 C802.417479,229.792344 816.937066,248.035772 832,266.965188 C825.422383,266.965188 819.59157,267.099507 813.777512,266.840463 C812.750657,266.79489 811.654387,265.21664 810.833382,264.158876 C798.353144,248.074149 785.868118,231.99422 773.502773,215.820746 C771.099597,212.678636 768.29669,211.767184 764.002569,212.985652 C764.228764,221.873506 764.455558,230.805135 764.682352,239.748756 L765.135762,257.642572 C765.211271,260.624401 765.286736,263.605209 765.362134,266.583817 L750,266.583817 L750,154.127449 C752.037691,154.127449 754.250965,154.131622 756.544904,154.132852 L758.528678,154.13302 C759.861412,154.132431 761.211629,154.130217 762.561621,154.125051 C773.299317,154.079478 784.03462,153.954753 794.772316,154.017115 Z M1065.05425,153.179883 C1066.27511,153.251952 1067.82828,154.719769 1068.50975,155.94255 C1077.80228,172.600231 1086.96479,189.332384 1096.17304,206.03571 C1096.72207,207.03027 1097.38909,207.957565 1098.64848,209.925065 C1109.24135,190.531142 1119.42966,171.874731 1129.6252,153.211113 L1142,153.211113 C1136.92872,161.107536 1131.92486,168.62199 1127.20515,176.314217 C1119.42966,188.993657 1111.76976,201.745168 1104.24953,214.575955 C1103.12258,216.49781 1102.50131,219.022648 1102.5302,221.256805 C1102.70358,234.950024 1103.13462,248.640841 1103.47174,262.331659 C1103.50304,263.619302 1103.47655,264.909347 1103.47655,266 L1088.51796,266 C1088.51796,252.131411 1088.65521,238.202764 1088.40719,224.281324 C1088.35421,221.31446 1087.48973,218.025685 1085.99676,215.469618 C1073.86277,194.689556 1061.48797,174.04883 1049,153.050157 C1054.53603,153.050157 1059.80959,152.874788 1065.05425,153.179883 Z M566.251164,153 C578.678808,185.096939 591.077667,217.119262 603.476525,249.139178 C604.05701,249.194539 604.639893,249.249899 605.220377,249.307666 C617.456125,217.294971 629.691872,185.282276 642.016372,153.038512 L653,153.038512 C637.319725,190.726841 621.634653,228.432019 606.004751,266 L595.74313,266 C580.576176,228.530705 565.330065,190.871259 550,153 L566.251164,153 Z M26.6730406,30.2709912 C30.8743531,38.0823947 34.5583219,45.8337105 39.0676344,53.0706754 C43.7381656,60.5648158 50.7427594,64.6603947 59.9129781,64.5378158 C68.1014469,64.4296579 76.2923219,64.5065702 84.4831969,64.5233947 C85.7392594,64.5257982 86.9953219,64.6411667 88.2586031,64.7036579 L88.2586031,200.026009 C57.6823844,207.647535 46.4355719,217.586044 37.4771031,245.39464 C70.1034469,221.37157 103.189384,228.553254 136.410072,242.474377 C151.160384,217.232728 173.293072,203.484658 202.076634,199.288132 C194.229853,184.028254 193.243291,167.718044 193.505572,151.09057 C193.799134,132.492219 193.575353,113.884254 193.572947,95.2810965 C193.570541,60.8556404 167.137884,34.4771316 132.641884,34.4723246 C107.809384,34.4699211 82.9768844,34.5276053 58.1419781,34.4266579 C53.2765406,34.4074298 48.3774156,34.034886 43.5552906,33.3787281 C38.0209156,32.6264298 32.5563219,31.3766053 26.6730406,30.2709912 Z M152.82247,165.802284 C156.354383,166.843211 159.734413,168.387735 163.244629,169.515406 C166.000245,170.402122 167.051381,172.016522 167.21773,174.968225 C167.610701,181.941472 168.53165,188.885805 168.994536,195.856643 C169.074095,197.054191 168.273688,198.738468 167.321397,199.502297 C162.497261,203.379268 157.386233,206.902035 152.603081,210.824788 C151.019144,212.123537 149.982474,212.330759 148.138164,211.521149 C132.313261,204.569587 115.82055,200.285402 98.0259734,199.54085 C98.0259734,189.406269 97.9078411,179.647578 98.1754468,169.900935 C98.2091989,168.693748 100.089672,166.939594 101.468685,166.457683 C118.486964,160.508496 135.649895,160.742223 152.82247,165.802284 Z M773.236285,160.376974 L771.196762,160.434255 C769.837675,160.471832 768.480127,160.506086 767.126219,160.524402 C766.434468,160.533996 765.180221,162.232175 765.17304,163.15562 C765.046179,177.081644 765.084477,191.007669 765.084477,205.646066 C775.819779,206.794975 786.777687,206.955678 796.581879,200.422007 C805.294588,194.617498 807.534999,185.961104 805.837936,176.17499 C804.267733,167.115638 797.96538,162.081066 789.446553,160.874591 C784.124924,160.122753 778.676691,160.22599 773.236285,160.376974 Z M79.9401969,74.4907456 C79.0402594,74.6734123 78.4026031,74.728693 77.8130719,74.9281842 C62.3288531,80.1870614 53.3150406,92.3848684 53.6663531,108.656623 C53.7986969,114.713465 53.0840406,119.441167 47.2368531,122.748395 C44.3758219,124.365956 42.1620719,127.339096 40.0517906,130.011798 C36.9116344,133.992009 34.8398531,138.498588 34.9794156,143.964167 C36.7119156,143.178219 38.2374781,142.4115 39.8183844,141.788991 C41.4065094,141.161675 43.0162906,140.515132 44.6790094,140.154605 C51.2167906,138.736535 53.5243844,140.606465 53.5340094,147.271395 C53.5375094,149.766237 53.5472935,152.261317 53.5589071,154.756521 L53.5947821,162.242383 C53.6326457,170.97605 53.6383531,179.709805 53.4209156,188.438693 C53.2981969,193.353868 51.8159469,198.235395 50.9569156,203.131342 C50.9232281,203.453412 50.8895406,203.775482 50.8558531,204.095149 L51.6138219,203.604833 C61.8163219,196.117904 70.7627594,187.407588 76.7663531,176.163974 C78.5108844,172.900009 79.8559781,168.965465 79.8848531,165.324149 C80.1158531,138.013079 79.9690719,110.697202 79.9401969,83.3837281 L79.939506,82.3033556 L79.9395624,77.9215901 C79.9396611,77.5492011 79.9397645,77.174357 79.9398585,76.7965743 L79.9401969,74.4907456 Z M166,109 L166,164 C143.974486,153.912085 121.240965,153.673332 98,160.966149 L98,112.301543 C120.926833,119.49066 143.496038,119.449662 166,109 Z M601.296867,9.27401878 C624.136147,17.035082 637.514914,36.5027365 638.07947,61.2086272 C638.444629,77.289242 635.249485,92.1734399 624.287495,104.599807 C617.659372,112.115328 609.373617,117.045433 599.925117,120.129155 C598.572586,120.572095 597.21525,120.988554 594.997868,121.686664 C601.688453,126.903235 607.804873,131.758714 614.053423,136.438462 C614.858215,137.040281 616.342876,136.826033 617.512828,136.826033 C792.683637,136.840477 967.856849,136.840477 1143.03006,136.835662 C1143.68591,136.835662 1144.34175,136.761037 1145,136.72252 L1145,139.895312 C1143.57059,139.774949 1142.13878,139.546257 1140.70938,139.546257 C968.308494,139.531813 795.905208,139.531813 623.501922,139.531813 L619.581263,139.531813 C619.42511,139.799021 619.271358,140.063822 619.117607,140.328622 C623.19442,143.400309 627.273635,146.469588 630.944447,149.233142 C626.855623,151.390063 622.783615,153.539762 618.127833,156 C613.777151,152.059286 608.614469,147.598601 603.716048,142.863486 C601.162335,140.396026 598.481296,139.459595 594.91859,139.462002 C487.415181,139.548664 379.911772,139.539035 272.405961,139.471632 C272.162144,139.471254 271.886171,139.505054 271.594165,139.546439 L271.372406,139.578485 L271.146147,139.610882 C269.664113,139.817205 267.99267,139.887807 268,136.741779 L596.739582,136.741779 C591.18051,132.037958 586.546349,128.01299 581.765644,124.173382 C580.996887,123.557119 579.56748,123.607672 578.445576,123.614894 C566.995907,123.694334 555.832119,122.223487 545.40826,117.173018 C526.47042,107.991661 516.995495,92.2889892 515.037568,71.7669471 C514.19674,62.9394599 514.660396,54.1143799 517.130027,45.4554021 C521.951573,28.5635347 532.433089,16.7197286 548.673073,10.3284064 C566.001328,3.50858876 583.776423,3.3208211 601.296867,9.27401878 Z M953.76476,4 C955.485215,5.12469831 957.107015,5.78841512 958.189819,6.9541432 C976.527709,26.7329043 994.759724,46.608206 1013.10002,66.38214 C1017.41611,71.0353982 1021.79663,75.6279738 1026.1904,80.2076022 L1032.78458,87.0733015 C1033.88313,88.2179552 1034.98091,89.3632916 1036.07712,90.5100563 C1036.7686,91.2322056 1037.52306,91.8956884 1038.69571,92.9672239 L1039.18792,93.4187073 C1039.35998,93.5771935 1039.54032,93.7440403 1039.72978,93.920354 C1039.30629,64.3716814 1038.89723,35.8608206 1038.49057,7.39098954 L1048,7.39098954 C1047.41529,45.7127916 1046.82817,84.3145615 1046.23864,122.918745 C1046.01967,123.278359 1045.8007,123.640386 1045.58174,124 C1031.85659,108.700724 1018.24695,93.2976669 1004.37743,78.1335479 C990.49107,62.9525342 976.347242,48.0104586 961.755854,32.3612228 L961.755854,120.683829 L951,120.683829 C951.923993,101.385358 953.204108,82.1520515 953.663698,62.8994368 C954.123288,43.5985519 953.76476,24.2759453 953.76476,4 Z M675.590034,8 C675.199228,15.4868403 674.487146,23.2115488 674.458375,30.93866 C674.391242,48.7235098 673.74869,66.5756355 675.019409,84.2787932 C676.549068,105.598028 689.584732,116.126697 710.942411,115.449133 C731.580814,114.793194 743.607096,103.596571 745.028863,81.7247138 C745.798727,69.8553329 745.890908,57.9423007 745.927629,46.0258677 L745.942904,40.5258807 C745.956129,35.9426012 745.975309,31.3597347 746.035848,26.7795712 C746.117366,20.4868771 746.047836,14.194183 746.047836,8 L757,8 C756.743459,12.0029127 756.386218,16.1788204 756.220785,20.3595336 C755.458353,39.7109495 754.842174,59.0671708 753.991032,78.4137813 C753.247781,95.3336559 747.668603,110.112717 731.650344,117.904701 C714.100029,126.441526 695.823246,125.864875 678.45275,117.092586 C666.416878,111.016136 661.904625,99.3870255 660.830507,86.6622802 C660.101642,78.0413614 660.739399,69.309918 660.648291,60.6289314 C660.48046,44.4202585 660.223918,28.2139883 660.008136,12.0077181 C659.991353,10.7030473 660.005738,9.40077917 660.005738,8 L675.590034,8 Z M410.666903,8 C410.249256,16.3707199 409.514774,24.8660183 409.469169,33.3661083 C409.377959,50.1746288 408.816296,67.0502301 410.01643,83.7844827 C411.559803,105.303031 424.936499,115.722109 446.562918,115.139944 C469.547889,114.521843 478.184055,100.099481 480.118671,82.5866121 C481.018898,74.4345351 481.193247,66.1927074 481.285083,57.9560142 L481.321265,54.4265938 C481.338706,52.6623174 481.356578,50.8988992 481.381212,49.1372729 C481.575634,35.4863393 481.429218,21.8330099 481.429218,8.01197871 L492,8.01197871 C491.479142,18.9868693 490.888676,29.9881131 490.449427,40.9941484 C489.935769,53.8520916 489.738947,66.7244093 489.076473,79.5751653 C487.600308,108.175524 468.362156,124.540833 439.542133,122.885376 C432.530948,122.482891 425.262935,121.558135 418.705402,119.219891 C403.158863,113.67375 397.083784,100.82539 395.780438,85.4567101 C395.407796,81.0581292 395.433871,76.6269531 395.513915,72.1904708 L395.57149,69.2323293 C395.619826,66.7670554 395.661174,64.3020155 395.636422,61.8418887 C395.458802,44.376935 395.209174,26.9143771 395,9.45181919 C394.99315,8.94871353 395.098761,8.44081639 395.146767,8 L410.666903,8 Z M920.817313,10.5325434 C921.93351,11.1742907 922.93737,12.0123935 923.922109,12.7068215 C922.657723,16.8757843 921.60845,20.5179396 920.425329,24.1122033 C920.095489,25.1155321 919.364105,25.9847644 918.816762,26.9162558 C918.099719,26.1116771 917.153222,25.4172491 916.701485,24.4809686 C913.438938,17.7330437 908.80684,12.8552855 900.957607,11.6939144 C891.784235,10.3361879 882.457894,15.1660546 878.961113,23.3483325 C875.055618,32.4884421 877.591561,42.6701938 885.804095,48.1681482 C890.218691,51.1230592 895.276235,53.1416896 900.118667,55.4213292 C901.775036,56.2007648 903.467258,56.9023766 905.166352,57.5896209 L907.716523,58.6176438 C908.565883,58.9620142 909.413339,59.3107249 910.255267,59.6717077 C931.831095,68.921968 931.663785,87.6930761 925.153033,102.141968 C920.807752,111.78494 912.996762,117.989295 902.960548,120.795742 C889.429943,124.579177 876.272201,123.887144 864.197195,115.609083 C862.175133,114.222621 861.481991,113.027726 862.397416,110.49905 C863.410837,107.704576 863.578147,104.61078 864.252168,101.67742 C864.484012,100.664513 865.131741,99.7449943 865.588258,98.7823734 C866.384176,99.507931 867.407158,100.094603 867.93777,100.978203 C874.383988,111.686762 883.650575,116.792005 896.215562,115.470197 C905.367423,114.507576 912.913107,107.716549 915.12877,98.454316 C917.535645,88.399477 914.590988,80.092681 905.962568,75.0329347 C902.455032,72.9765896 898.725288,71.3000099 894.976986,69.6547654 L892.727408,68.6685916 C891.228377,68.0099326 889.732894,67.3451375 888.253993,66.6519067 C885.412112,65.3205206 882.531988,64.0585772 879.776152,62.5667542 C868.399067,56.4126851 863.327182,46.6428011 864.328653,33.9204006 C865.327733,21.1956056 871.974723,12.254246 884.044949,7.99428924 C896.559742,3.57629021 908.97654,3.74630535 920.817313,10.5325434 Z M845.091863,8 L845.091863,17.4340794 C830.817009,16.6751259 816.6361,15.9185743 801.939697,15.1380051 L801.939697,58.1509703 C815.120933,57.6538077 828.126322,57.1614487 841.295513,56.6642862 L841.295513,66.1584093 L832.593215,65.8924574 C822.438637,65.5818111 812.257343,65.2692276 801.838525,64.9479266 L801.838525,113.809156 C816.705957,113.177496 831.286735,112.557844 846,111.930987 L846,121 L787,121 L787,8 L845.091863,8 Z M1136.25277,8 L1136.25277,17.4138642 C1122.05291,16.6644063 1107.85064,15.9149483 1093.06074,15.134263 L1093.06074,58.139216 C1105.94508,57.6539901 1118.99143,57.1639599 1132.27961,56.6667234 L1132.27961,65.6674249 L1092.88663,65.6674249 L1092.88663,113.820097 C1107.7394,113.193147 1122.27539,112.580609 1137,111.960865 L1137,121 L1078,121 L1078,8 L1136.25277,8 Z M317.693006,7.05555536 C324.491085,7.21125185 331.438466,8.05680357 338.002959,9.78144163 C353.679718,13.8966197 363.748003,24.1462395 368.044061,39.72547 C371.824785,53.4267612 372.106533,67.2717724 368.14761,80.9586916 C361.903395,102.552597 342.925124,117.640785 319.277539,119.695979 C312.091755,120.318765 304.802423,119.791792 297.558845,119.791792 L267,119.791792 L267,7.70468996 C272.637372,7.70468996 278.539636,7.79331719 284.437084,7.68792265 C287.605461,7.63111909 290.774035,7.53442595 293.942357,7.43119628 L298.694593,7.2756185 C305.030505,7.07276263 311.364508,6.91046676 317.693006,7.05555536 Z M534.62885,40.5349266 C530.864345,51.7504333 530.436724,63.2451841 531.57064,74.9180735 C534.021052,100.139122 549.237629,115.72143 573.965166,117.120058 C594.99066,118.306846 612.328525,108.299793 618.608306,86.6102212 C619.850328,82.3204524 620.581856,77.8823462 621.257409,73.4277582 L621.806865,69.7820921 C622.053712,68.1625391 622.309549,66.5455618 622.596231,64.9375003 C622.404042,64.8821329 622.211853,64.8291728 622.022066,64.7738054 C621.690539,60.8354992 621.503155,56.8779347 621.008268,52.9588866 C618.271975,31.2885731 606.051147,13.4626819 579.80051,11.7414784 C559.315548,10.4006247 541.646157,19.6325346 534.62885,40.5349266 Z M290.085522,14.9379716 L288.485059,15.0938688 C287.417252,15.1991674 286.347774,15.3068295 285.27659,15.4146315 L283.668527,15.5761615 L282.057877,15.7362336 L282.057877,15.7362336 L282.057877,112.433336 C295.499916,114.229834 308.301399,115.207129 321.10529,112.052479 C337.186611,108.090602 347.307874,98.0254225 351.791764,82.3168441 C354.715203,72.072015 355.155886,61.5660948 353.75437,51.0673606 C353.101773,46.1689094 351.936251,41.2393189 350.250578,36.5947728 C346.886456,27.3152619 340.266577,20.8981711 330.908683,17.5926148 C317.526148,12.8634595 303.945421,13.6070439 290.085522,14.9379716 Z M151.083899,73.762629 C160.458703,79.3212114 165.401651,87.9174552 165.996724,98.8776661 C166.056711,99.9956607 165.284076,101.840473 164.405863,102.234065 C145.092375,110.890675 125.215007,113.962142 104.557805,107.664669 C98.2638377,105.745615 98.0104795,105.564946 98.0004095,99.7038683 L98,64.3019315 C116.473668,63.3964283 134.609007,63.9904384 151.083899,73.762629 Z" id="Combined-Shape" fill="#1F2937"></path>
    </g>
</svg>