<?xml version="1.0" encoding="UTF-8"?>
<svg width="60px" height="60px" viewBox="0 0 60 60" version="1.1" xmlns="http://www.w3.org/2000/svg" xmlns:xlink="http://www.w3.org/1999/xlink">
    <!-- Generator: Sketch 55.2 (78181) - https://sketchapp.com -->
    <title>path16 copy</title>
    <desc>Created with Sketch.</desc>
    <g id="Welcome" stroke="none" stroke-width="1" fill="none" fill-rule="evenodd">
        <g id="Desktop-HD-Copy-19" transform="translate(-241.000000, -1497.000000)" fill="#1F2937" fill-rule="nonzero">
            <path d="M277.729796,1519.18898 C277.729796,1515.77755 280.039184,1512.46898 281.299184,1513.09224 C282.73551,1513.81224 280.222857,1517.02531 277.729796,1519.18898 M262.025714,1520.43184 C262.025714,1517.68898 264.731837,1512.47755 266.384898,1513.02857 C268.339184,1513.68 264.766122,1518.93673 262.025714,1520.43184 M259.281633,1540.04816 C258.037551,1540.10449 257.204898,1539.30857 257.204898,1537.98 C257.204898,1534.41061 262.157959,1531.00041 265.898776,1529.1698 C265.235102,1534.15347 263.551429,1539.85592 259.281633,1540.04816 M282.133061,1528.41673 C279.308163,1528.41673 277.149388,1530.49469 277.149388,1532.98653 C277.149388,1535.06449 278.398367,1536.72612 280.055102,1536.72612 C280.641633,1536.72612 281.222041,1536.39184 281.222041,1535.6498 C281.222041,1534.56367 279.789388,1534.30286 279.897143,1532.68776 C279.969388,1531.62245 280.973469,1530.9098 281.970204,1530.9098 C283.962449,1530.9098 284.894286,1532.84082 284.894286,1534.83306 C284.813469,1537.9102 282.548163,1540.04694 279.893469,1540.04694 C276.401224,1540.04694 274.157959,1536.72612 274.157959,1533.15184 C274.157959,1527.8302 277.650204,1525.75347 279.479592,1525.25755 C279.496735,1525.25755 284.257551,1526.10367 284.109388,1524.0049 C284.040816,1523.08163 282.668163,1522.72653 281.676327,1522.68857 C280.573061,1522.64571 279.458776,1523.04245 279.458776,1523.04245 C278.880816,1522.74857 278.479184,1522.17429 278.230612,1521.51306 C281.638367,1518.93429 284.048163,1516.44367 284.048163,1513.61755 C284.048163,1512.12245 283.04898,1510.79265 281.137551,1510.79265 C277.729796,1510.79265 275.153469,1515.11388 275.153469,1519.02 C275.153469,1519.68245 275.153469,1520.3498 275.324898,1520.9302 C273.162449,1522.50735 271.554694,1523.49061 268.64898,1525.23551 C268.64898,1524.87184 268.724898,1523.93265 268.969796,1522.71796 C269.965306,1521.63673 271.333061,1520.01673 271.333061,1518.76898 C271.333061,1518.18857 271.003673,1517.68776 270.332653,1517.68776 C268.673469,1517.68776 267.429388,1520.18327 267.096327,1521.92816 C266.348163,1522.84653 264.851837,1524.0098 263.602857,1524.0098 C262.607347,1524.0098 262.273061,1523.0951 262.188571,1522.76082 C265.347755,1521.67959 269.253878,1517.35837 269.253878,1513.45224 C269.253878,1512.62327 268.920816,1510.79265 266.42898,1510.79265 C262.689388,1510.79265 259.535102,1516.36286 259.535102,1520.67918 C258.201633,1520.67918 257.705714,1519.26857 257.705714,1518.18735 C257.705714,1517.1049 258.120816,1516.02857 258.120816,1515.69429 C258.120816,1515.36122 257.954286,1514.94735 257.453469,1514.94735 C256.209388,1514.94735 255.461224,1516.60898 255.461224,1518.52041 C255.546939,1521.18 257.290612,1522.84653 259.615918,1523.00939 C259.94898,1524.5902 261.359592,1526.08653 263.103265,1526.08653 C264.185714,1526.08653 265.514286,1525.75347 266.42898,1524.92449 C266.348163,1525.5049 266.267347,1526.00571 266.181633,1526.50163 C262.522857,1528.41673 259.863265,1529.74531 257.453469,1531.90531 C255.546939,1533.65265 254.465714,1535.97796 254.465714,1537.80367 C254.465714,1540.30041 256.042857,1542.62571 259.282857,1542.62571 C263.103265,1542.62571 266.015102,1539.55224 267.429388,1535.31184 C268.091837,1533.31959 268.357551,1530.41755 268.527755,1527.75429 C272.345714,1525.59061 274.157959,1524.34408 276.153878,1522.92857 C276.402449,1523.34367 276.653469,1523.67551 276.982857,1523.92408 C275.239184,1524.83878 271.08449,1527.41633 271.08449,1533.48122 C271.08449,1537.80245 273.990204,1542.62449 279.728163,1542.62449 C284.46449,1542.62449 287.70449,1538.71714 287.70449,1534.97633 C287.703265,1531.57224 285.791837,1528.41673 282.133061,1528.41673 M296.421633,1535.55551 C296.409388,1535.58122 296.362857,1535.61551 296.268571,1535.5849 C296.195102,1535.55918 296.179184,1535.5249 296.179184,1535.47714 C296.182857,1535.43061 297.183265,1532.47224 297.174694,1529.08286 C297.166122,1525.41918 295.679592,1523.17469 293.773061,1523.17469 C292.606122,1523.17469 291.775918,1524.00857 291.775918,1525.25755 C291.775918,1527.50082 294.516327,1527.66857 294.516327,1532.5702 C294.516327,1534.56245 294.101224,1536.47388 293.44,1538.55061 C290.361633,1548.93673 280.555918,1553.75878 271.003673,1553.75878 C266.596735,1553.75878 263.466939,1552.85265 262.536327,1552.4351 C262.498367,1552.41306 262.462857,1552.34082 262.493469,1552.26735 C262.514286,1552.21224 262.579184,1552.16939 262.617143,1552.18653 C262.994286,1552.33224 265.682041,1553.17837 269.007755,1553.17837 C272.662857,1553.17837 274.825306,1551.68327 274.825306,1549.85265 C274.825306,1548.69061 273.910612,1547.77592 272.748571,1547.77592 C270.504082,1547.77592 270.333878,1550.60082 265.51551,1550.60082 C263.438776,1550.60082 261.609388,1550.18571 259.450612,1549.51837 C249.142857,1546.36163 244.236327,1536.64163 244.239998,1527.00245 C244.243673,1522.30531 245.561224,1518.56449 245.582041,1518.5302 C245.599184,1518.50571 245.657959,1518.47878 245.730204,1518.50571 C245.803673,1518.5302 245.819592,1518.5902 245.815918,1518.61224 C245.697143,1519.00163 244.824082,1521.68204 244.824082,1525.00776 C244.824082,1528.66653 246.319184,1530.82531 248.230612,1530.82531 C249.308163,1530.82531 250.222857,1529.99633 250.222857,1528.83306 C250.222857,1526.58612 247.478776,1526.33755 247.478776,1521.51673 C247.478776,1519.43878 247.897551,1517.60939 248.56,1515.45061 C251.719184,1505.14531 261.444082,1500.31592 271.001224,1500.24122 C275.442449,1500.20694 279.327755,1501.53673 279.477143,1501.65551 C279.502857,1501.67755 279.528571,1501.73388 279.502857,1501.80122 C279.467347,1501.88204 279.415918,1501.89061 279.391429,1501.88571 C279.344898,1501.88204 276.817551,1500.82531 272.992245,1500.82531 C269.419184,1500.82163 267.174694,1502.31796 267.174694,1504.23184 C267.174694,1505.30939 268.008571,1506.22408 269.251429,1506.22408 C271.495918,1506.22408 271.662449,1503.48367 276.48449,1503.48367 C278.556327,1503.48367 280.386939,1503.89388 282.545714,1504.56122 C292.936735,1507.71918 297.66449,1517.5249 297.753878,1527.00122 C297.802857,1531.85388 296.435102,1535.5249 296.421633,1535.55551 M271.002449,1498.41429 C255.212653,1498.41429 242.41551,1511.20776 242.41551,1527.00122 C242.41551,1542.79102 255.212653,1555.58449 271.002449,1555.58449 C286.788571,1555.58449 299.585714,1542.79102 299.585714,1527.00122 C299.585714,1511.29347 286.788571,1498.41429 271.002449,1498.41429 M271.002449,1557 C254.46449,1557 241,1543.62122 241,1527.00245 C241,1510.45959 254.46449,1497 271.002449,1497 C287.53551,1497 301,1510.45959 301,1527.00245 C301,1543.62122 287.53551,1557 271.002449,1557" id="path16-copy"></path>
        </g>
    </g>
</svg>