<svg xmlns="http://www.w3.org/2000/svg" xmlns:xlink="http://www.w3.org/1999/xlink" id="Layer_1" x="0" y="0" enable-background="new 0 0 297.32 562.103" version="1.1" viewBox="0 0 297.32 562.103" xml:space="preserve"><line id="Center_Line" x1="-459.21" x2="-459.21" y1="116.955" y2="176.86" fill="none" stroke="#ED2224" stroke-linecap="round" stroke-linejoin="round" display="none"/><g><path id="Helmet_Back" fill="#BCBCBC" d="M262.888,146.172c0,32.464-12.84,63.469-35.805,86.435 c-22.965,22.945-53.971,35.785-86.435,35.785c-32.464,0-63.469-12.84-86.414-35.785c-22.965-22.965-35.805-53.971-35.805-86.435 c0-32.464,12.84-63.469,35.805-86.435c22.945-22.945,53.951-35.785,86.414-35.785c32.484,0,63.489,12.84,86.435,35.785 C250.049,82.703,262.888,113.709,262.888,146.172z"/><g id="Tanks"><path fill="#E2E2E2" d="M157.367,509.477c0,10.184,8.256,18.44,18.44,18.44c5.795,0,11.589,0,17.384,0 c10.184,0,18.44-8.256,18.44-18.44c0-44.753,0-89.506,0-134.259c0-10.184-8.256-18.44-18.44-18.44c-5.795,0-11.589,0-17.384,0 c-10.184,0-18.44,8.256-18.44,18.44C157.367,419.971,157.367,464.724,157.367,509.477z"/><path fill="#D1D2D2" d="M211.63,500.947c0,5.1,4.135,9.235,9.235,9.235c2.902,0,5.804,0,8.706,0c5.1,0,9.235-4.135,9.235-9.235 c0-22.413,0-44.827,0-67.24c0-5.1-4.135-9.235-9.235-9.235c-2.902,0-5.804,0-8.706,0c-5.1,0-9.235,4.135-9.235,9.235 C211.63,456.12,211.63,478.534,211.63,500.947z"/><path fill="none" stroke="#E2E2E2" stroke-linecap="round" stroke-linejoin="round" stroke-width="4.05" d="M208.567,386.255 c1.835,1.153,2.168,0.433,3.063,1.185c0.233,0.196,0.505,0.493,0.812,0.88c0.356,0.448,0.759,1.018,1.202,1.688 c0.443,0.669,0.927,1.438,1.441,2.277c0.514,0.839,1.057,1.747,1.619,2.692c0.561,0.944,1.14,1.924,1.723,2.903 c0.583,0.979,1.17,1.957,1.747,2.898c0.577,0.94,1.144,1.843,1.687,2.675c0.543,0.831,1.063,1.591,1.547,2.25 c0.484,0.659,0.933,1.217,1.336,1.653c0.403,0.436,0.762,0.749,1.068,0.925c0.306,0.176,0.56,0.216,0.759,0.115 c0.199-0.101,0.342-0.343,0.43-0.721c0.088-0.378,0.121-0.891,0.102-1.526c-0.018-0.635-0.088-1.391-0.202-2.246 c-0.114-0.855-0.272-1.809-0.463-2.832c-0.191-1.023-0.417-2.116-0.663-3.244c-0.246-1.128-0.514-2.292-0.788-3.455 s-0.556-2.325-0.83-3.451c-0.274-1.125-0.54-2.214-0.784-3.232c-0.244-1.018-0.466-1.965-0.653-2.813s-0.339-1.596-0.445-2.223 c-0.106-0.627-0.166-1.132-0.172-1.502c-0.006-0.37,0.042-0.605,0.149-0.7c0.107-0.095,0.272-0.05,0.497,0.13 s0.508,0.495,0.848,0.93c0.34,0.435,0.735,0.991,1.179,1.644c0.444,0.653,0.936,1.404,1.466,2.224 c0.53,0.819,1.098,1.706,1.689,2.628c0.592,0.921,1.208,1.876,1.833,2.828c0.625,0.952,1.259,1.902,1.885,2.813 c0.627,0.911,1.246,1.782,1.843,2.582c0.597,0.799,1.171,1.526,1.707,2.152c0.537,0.626,1.036,1.152,1.487,1.555 c0.45,0.403,0.852,0.684,1.195,0.83c0.343,0.146,0.629,0.157,0.851,0.029c0.222-0.128,0.382-0.395,0.477-0.795 c0.095-0.4,0.127-0.933,0.098-1.585c-0.029-0.651-0.119-1.421-0.263-2.287c-0.143-0.865-0.34-1.826-0.58-2.854 c-0.24-1.027-0.522-2.121-0.833-3.248c-0.311-1.127-0.651-2.286-1.003-3.443c-0.353-1.157-0.718-2.31-1.08-3.426 c-0.361-1.115-0.719-2.192-1.055-3.198c-0.336-1.006-0.652-1.941-0.93-2.776c-0.279-0.836-0.52-1.572-0.712-2.188 c-0.191-0.616-0.332-1.112-0.412-1.474c-0.08-0.362-0.098-0.592-0.049-0.684c0.049-0.092,0.166-0.047,0.353,0.13 c0.187,0.177,0.443,0.485,0.767,0.909c0.324,0.425,0.714,0.966,1.165,1.601c0.45,0.635,0.96,1.363,1.518,2.156 c0.558,0.793,1.163,1.649,1.802,2.536c0.638,0.887,1.309,1.804,1.995,2.715c0.686,0.911,1.387,1.817,2.084,2.682 c0.697,0.865,1.39,1.688,2.061,2.439c0.671,0.751,1.319,1.428,1.927,2.005c0.608,0.577,1.177,1.053,1.691,1.409 s0.973,0.592,1.366,0.696s0.72,0.075,0.974-0.088c0.254-0.163,0.435-0.461,0.54-0.887c0.105-0.426,0.135-0.98,0.092-1.647 c-0.043-0.667-0.159-1.446-0.34-2.316c-0.181-0.869-0.428-1.829-0.728-2.849c-0.3-1.021-0.654-2.102-1.045-3.212 c-0.392-1.11-0.821-2.248-1.27-3.379c-0.449-1.131-0.918-2.256-1.387-3.34c-0.469-1.084-0.937-2.127-1.385-3.098 c-0.448-0.971-0.876-1.87-1.264-2.671c-0.388-0.801-0.737-1.503-1.029-2.088c-0.292-0.585-0.528-1.051-0.693-1.388 c-0.083-0.169-0.148-0.305-0.236-0.515c-0.058-0.182,0.004-0.127,0.149,0.054c0.145,0.181,0.373,0.487,0.681,0.903 s0.697,0.941,1.158,1.554c0.461,0.612,0.995,1.311,1.588,2.067c0.593,0.756,1.246,1.57,1.941,2.408 c0.695,0.838,1.432,1.701,2.191,2.553c0.759,0.853,1.54,1.695,2.32,2.494c0.78,0.799,1.56,1.554,2.318,2.234 c0.758,0.681,1.493,1.288,2.184,1.795c0.692,0.508,1.34,0.916,1.927,1.208c0.587,0.291,1.113,0.466,1.562,0.513 c0.45,0.047,0.824-0.032,1.114-0.24c0.289-0.208,0.494-0.543,0.61-0.999c0.116-0.456,0.143-1.032,0.084-1.712 c-0.059-0.68-0.205-1.465-0.43-2.331c-0.225-0.866-0.528-1.813-0.897-2.814c-0.369-1-0.804-2.054-1.286-3.129 c-0.483-1.075-1.013-2.171-1.57-3.254s-1.141-2.156-1.729-3.184c-0.588-1.028-1.179-2.012-1.75-2.923 c-0.078-0.125-0.156-0.249-0.234-0.371c-0.248-0.392-0.526-0.821-0.795-1.228c-0.205-0.31-0.406-0.608-0.6-0.891 c-0.508-0.741-0.972-1.385-1.373-1.916c-0.401-0.53-0.738-0.947-0.995-1.24c-0.129-0.147-0.237-0.262-0.422-0.428 c-0.184-0.127-0.179-0.049-0.077,0.144c0.102,0.193,0.3,0.502,0.592,0.911c0.293,0.409,0.68,0.917,1.154,1.501 c0.474,0.585,1.034,1.246,1.666,1.955c0.632,0.709,1.336,1.466,2.092,2.24c0.756,0.774,1.564,1.564,2.401,2.338 c0.837,0.774,1.702,1.532,2.571,2.243s1.741,1.374,2.59,1.963c0.849,0.589,1.676,1.103,2.455,1.52 c0.779,0.417,1.511,0.737,2.174,0.945s1.258,0.304,1.766,0.28c0.509-0.024,0.931-0.167,1.256-0.429s0.553-0.642,0.678-1.132 c0.125-0.49,0.148-1.089,0.07-1.78c-0.078-0.692-0.257-1.476-0.529-2.33c-0.272-0.854-0.636-1.778-1.078-2.744 c-0.442-0.966-0.962-1.975-1.54-2.995c-0.578-1.021-1.213-2.053-1.883-3.067c-0.669-1.014-1.372-2.009-2.082-2.956 c-0.71-0.947-1.427-1.846-2.123-2.67c-0.696-0.825-1.372-1.575-2.001-2.232c-0.629-0.656-1.21-1.218-1.72-1.671 c-0.51-0.453-0.95-0.798-1.299-1.028c-0.349-0.23-0.608-0.346-0.762-0.348c-0.155-0.003-0.206,0.108-0.147,0.321 s0.228,0.53,0.506,0.932c0.278,0.403,0.664,0.891,1.151,1.443c0.486,0.552,1.073,1.167,1.743,1.818 c0.67,0.651,1.424,1.338,2.239,2.031c0.815,0.693,1.693,1.393,2.605,2.069c0.913,0.676,1.86,1.329,2.815,1.93 c0.954,0.601,1.915,1.151,2.852,1.626c0.937,0.474,1.852,0.874,2.715,1.179c0.863,0.305,1.675,0.517,2.411,0.623 c0.736,0.106,1.395,0.106,1.959-0.003c0.563-0.109,1.031-0.329,1.389-0.654c0.358-0.325,0.606-0.757,0.738-1.284 c0.132-0.527,0.148-1.15,0.049-1.85c-0.099-0.701-0.313-1.479-0.632-2.313s-0.745-1.723-1.259-2.641 c-0.515-0.918-1.119-1.865-1.79-2.813c-0.671-0.948-1.409-1.897-2.188-2.818s-1.596-1.816-2.424-2.657 c-0.828-0.841-1.665-1.63-2.482-2.343c-0.816-0.714-1.611-1.352-2.355-1.9c-0.743-0.547-1.436-1.004-2.049-1.359 s-1.149-0.609-1.584-0.758c-0.435-0.15-0.77-0.196-0.99-0.142c-0.219,0.053-0.324,0.206-0.305,0.446 c0.019,0.24,0.16,0.568,0.423,0.966s0.648,0.865,1.145,1.379c0.497,0.514,1.106,1.076,1.809,1.659s1.501,1.187,2.369,1.786 c0.868,0.598,1.806,1.191,2.786,1.751c0.98,0.56,2,1.089,3.03,1.561c1.03,0.472,2.069,0.888,3.084,1.228 c1.015,0.34,2.007,0.605,2.943,0.779c0.936,0.175,1.818,0.259,2.616,0.247c0.798-0.013,1.513-0.122,2.123-0.33 s1.114-0.514,1.497-0.911c0.383-0.397,0.646-0.886,0.78-1.454s0.14-1.214,0.018-1.921s-0.37-1.474-0.736-2.28 c-0.366-0.806-0.849-1.649-1.432-2.506c-0.583-0.857-1.265-1.727-2.022-2.586c-0.757-0.858-1.59-1.704-2.467-2.513 c-0.877-0.809-1.799-1.582-2.734-2.296c-0.934-0.714-1.88-1.37-2.803-1.951c-0.923-0.581-1.825-1.086-2.67-1.503 s-1.636-0.749-2.341-0.987s-1.325-0.384-1.836-0.438s-0.913-0.018-1.19,0.102c-0.277,0.12-0.428,0.323-0.445,0.596 c-0.017,0.273,0.099,0.615,0.347,1.009c0.249,0.393,0.63,0.838,1.133,1.311c0.503,0.473,1.129,0.975,1.858,1.481 c0.729,0.506,1.561,1.017,2.47,1.509c0.909,0.492,1.896,0.964,2.929,1.394c1.032,0.43,2.111,0.818,3.2,1.145 c1.089,0.327,2.19,0.592,3.266,0.781c1.076,0.189,2.128,0.303,3.12,0.331c0.993,0.028,1.927-0.028,2.772-0.173 c0.845-0.144,1.602-0.377,2.245-0.693c0.643-0.317,1.172-0.717,1.572-1.193c0.399-0.476,0.668-1.026,0.799-1.636 s0.123-1.28-0.022-1.99c-0.145-0.711-0.427-1.462-0.836-2.232c-0.409-0.77-0.944-1.559-1.587-2.344s-1.393-1.566-2.224-2.32 c-0.831-0.754-1.743-1.481-2.704-2.162c-0.961-0.68-1.97-1.314-2.993-1.883c-1.023-0.569-2.058-1.075-3.07-1.505 c-1.012-0.43-2-0.784-2.929-1.055c-0.929-0.272-1.799-0.461-2.579-0.568c-0.78-0.107-1.469-0.131-2.042-0.079 c-0.573,0.052-1.031,0.182-1.354,0.377c-0.324,0.195-0.514,0.456-0.563,0.766c-0.048,0.31,0.045,0.67,0.279,1.06 c0.234,0.39,0.609,0.81,1.113,1.238c0.504,0.429,1.138,0.866,1.882,1.289c0.744,0.424,1.597,0.834,2.533,1.21 c0.936,0.376,1.954,0.717,3.02,1.006c1.067,0.289,2.183,0.525,3.311,0.695c1.128,0.17,2.268,0.273,3.383,0.299 c1.115,0.027,2.204-0.022,3.232-0.151s1.994-0.337,2.867-0.622c0.873-0.285,1.652-0.648,2.311-1.08 c0.66-0.432,1.2-0.933,1.603-1.491s0.67-1.171,0.79-1.824s0.096-1.345-0.073-2.056c-0.169-0.711-0.482-1.442-0.928-2.171 c-0.446-0.729-1.025-1.456-1.717-2.159c-0.692-0.704-1.496-1.385-2.385-2.024c-0.889-0.639-1.863-1.236-2.887-1.775 c-1.024-0.539-2.1-1.02-3.188-1.432c-1.089-0.412-2.191-0.754-3.268-1.02c-1.077-0.266-2.129-0.457-3.119-0.571 c-0.99-0.114-1.918-0.151-2.752-0.117c-0.834,0.034-1.573,0.14-2.192,0.308s-1.117,0.396-1.476,0.672 c-0.359,0.275-0.58,0.598-0.653,0.948c-0.073,0.351,0,0.729,0.22,1.117c0.219,0.387,0.584,0.782,1.083,1.165 c0.499,0.383,1.132,0.753,1.879,1.09c0.746,0.338,1.606,0.643,2.551,0.898c0.944,0.255,1.974,0.461,3.053,0.603 c1.079,0.142,2.209,0.221,3.351,0.227c1.142,0.006,2.296-0.06,3.424-0.201c1.128-0.142,2.229-0.359,3.267-0.651 c1.038-0.291,2.011-0.656,2.889-1.087c0.877-0.431,1.658-0.927,2.316-1.478s1.193-1.154,1.587-1.794 c0.394-0.64,0.647-1.318,0.751-2.012c0.104-0.695,0.058-1.407-0.136-2.116c-0.193-0.709-0.534-1.416-1.011-2.098 c-0.477-0.683-1.09-1.342-1.817-1.96c-0.728-0.617-1.57-1.193-2.498-1.71c-0.928-0.518-1.942-0.978-3.007-1.369 c-1.065-0.391-2.181-0.713-3.31-0.96c-1.129-0.247-2.271-0.419-3.386-0.515c-1.116-0.096-2.205-0.117-3.23-0.067 c-1.026,0.05-1.988,0.17-2.853,0.351c-0.865,0.181-1.634,0.422-2.28,0.708s-1.169,0.618-1.551,0.977 c-0.382,0.359-0.623,0.744-0.715,1.137s-0.035,0.792,0.169,1.177c0.204,0.385,0.556,0.756,1.042,1.093 c0.487,0.337,1.108,0.639,1.844,0.89c0.736,0.251,1.585,0.45,2.519,0.584c0.934,0.134,1.953,0.202,3.021,0.197 c1.068-0.006,2.187-0.086,3.316-0.243c1.13-0.158,2.271-0.393,3.384-0.703s2.199-0.697,3.22-1.15 c1.021-0.453,1.976-0.974,2.834-1.549c0.858-0.575,1.618-1.204,2.254-1.871c0.636-0.667,1.148-1.37,1.519-2.091 c0.371-0.721,0.6-1.459,0.679-2.193c0.079-0.734,0.009-1.464-0.208-2.169c-0.217-0.705-0.582-1.384-1.082-2.018 c-0.5-0.634-1.135-1.224-1.884-1.752c-0.749-0.528-1.611-0.995-2.558-1.389c-0.947-0.394-1.979-0.715-3.06-0.956 c-1.081-0.241-2.212-0.403-3.354-0.484c-1.142-0.081-2.296-0.082-3.423-0.008c-1.126,0.074-2.225,0.224-3.26,0.437 c-1.035,0.214-2.005,0.492-2.878,0.818c-0.874,0.327-1.65,0.702-2.304,1.107c-0.654,0.405-1.186,0.839-1.577,1.281 c-0.392,0.442-0.643,0.891-0.747,1.326c-0.104,0.435-0.061,0.855,0.128,1.238c0.189,0.384,0.523,0.731,0.989,1.024 c0.467,0.292,1.066,0.529,1.777,0.696c0.711,0.167,1.533,0.263,2.437,0.279c0.904,0.016,1.89-0.048,2.924-0.197 s2.115-0.382,3.206-0.699c1.091-0.316,2.191-0.715,3.262-1.188c1.071-0.473,2.114-1.022,3.091-1.631 c0.977-0.609,1.889-1.279,2.703-1.992s1.532-1.469,2.127-2.246c0.595-0.777,1.068-1.576,1.402-2.372 c0.334-0.797,0.529-1.591,0.578-2.361c0.049-0.769-0.049-1.514-0.29-2.211c-0.241-0.697-0.625-1.347-1.14-1.932 s-1.161-1.104-1.917-1.544c-0.756-0.44-1.621-0.8-2.566-1.073c-0.946-0.273-1.972-0.458-3.045-0.553 c-1.073-0.095-2.193-0.101-3.322-0.021c-1.129,0.08-2.267,0.244-3.377,0.483s-2.192,0.553-3.21,0.925 c-1.018,0.372-1.972,0.802-2.831,1.269c-0.859,0.467-1.623,0.972-2.267,1.491s-1.169,1.052-1.557,1.574 c-0.389,0.522-0.641,1.033-0.751,1.509s-0.077,0.916,0.095,1.3c0.173,0.383,0.485,0.71,0.925,0.961 c0.44,0.251,1.006,0.427,1.679,0.515s1.451,0.088,2.306-0.006c0.855-0.094,1.788-0.283,2.764-0.565 c0.976-0.283,1.996-0.659,3.022-1.123s2.06-1.015,3.063-1.639c1.003-0.624,1.976-1.322,2.885-2.075 c0.908-0.753,1.752-1.56,2.501-2.4c0.749-0.839,1.404-1.711,1.94-2.588c0.536-0.878,0.955-1.762,1.24-2.626 c0.285-0.864,0.437-1.708,0.449-2.508c0.012-0.799-0.115-1.554-0.378-2.241c-0.263-0.687-0.662-1.308-1.185-1.844 c-0.523-0.536-1.168-0.987-1.917-1.343c-0.748-0.355-1.599-0.614-2.525-0.773c-0.926-0.158-1.926-0.215-2.968-0.173 s-2.127,0.182-3.218,0.412c-1.091,0.23-2.189,0.549-3.257,0.942c-1.069,0.393-2.109,0.86-3.086,1.379 c-0.977,0.519-1.892,1.09-2.716,1.688c-0.823,0.598-1.555,1.224-2.173,1.849c-0.618,0.625-1.121,1.25-1.495,1.846 c-0.374,0.597-0.62,1.165-0.73,1.68c-0.11,0.515-0.086,0.975,0.07,1.359c0.156,0.384,0.443,0.692,0.849,0.907 c0.406,0.215,0.93,0.336,1.552,0.354c0.622,0.018,1.342-0.068,2.132-0.261c0.79-0.193,1.65-0.492,2.549-0.895 c0.898-0.402,1.835-0.907,2.775-1.502c0.94-0.595,1.883-1.281,2.796-2.039c0.912-0.758,1.794-1.589,2.612-2.468 s1.574-1.808,2.239-2.758c0.665-0.95,1.239-1.922,1.702-2.886c0.463-0.964,0.814-1.922,1.04-2.843 c0.226-0.921,0.327-1.806,0.299-2.629c-0.029-0.823-0.187-1.583-0.471-2.259c-0.284-0.676-0.694-1.266-1.217-1.756 c-0.523-0.489-1.159-0.878-1.888-1.155c-0.729-0.277-1.551-0.444-2.44-0.498c-0.889-0.054-1.845,0.005-2.837,0.171 c-0.992,0.166-2.021,0.438-3.053,0.803c-1.032,0.365-2.068,0.823-3.074,1.354c-1.006,0.531-1.983,1.134-2.9,1.785 c-0.917,0.65-1.774,1.348-2.545,2.063c-0.771,0.715-1.455,1.448-2.032,2.168c-0.577,0.72-1.048,1.427-1.398,2.09 c-0.351,0.664-0.581,1.284-0.688,1.834c-0.106,0.55-0.088,1.029,0.05,1.416s0.397,0.68,0.763,0.865 c0.366,0.185,0.84,0.26,1.402,0.218c0.562-0.042,1.211-0.201,1.922-0.477c0.711-0.277,1.484-0.671,2.288-1.174 c0.804-0.503,1.64-1.116,2.476-1.822s1.671-1.506,2.476-2.376c0.804-0.871,1.577-1.812,2.289-2.798 c0.712-0.985,1.363-2.014,1.93-3.055s1.048-2.096,1.426-3.131c0.378-1.035,0.653-2.051,0.814-3.017 c0.16-0.966,0.206-1.882,0.134-2.721c-0.072-0.839-0.262-1.6-0.565-2.262c-0.303-0.662-0.719-1.224-1.237-1.67 c-0.517-0.447-1.136-0.778-1.836-0.986c-0.7-0.208-1.483-0.293-2.323-0.256c-0.84,0.037-1.738,0.197-2.666,0.47 c-0.928,0.273-1.885,0.659-2.843,1.14c-0.958,0.482-1.915,1.059-2.844,1.708c-0.928,0.649-1.827,1.37-2.669,2.133 c-0.842,0.763-1.627,1.568-2.332,2.383c-0.705,0.815-1.33,1.64-1.856,2.441c-0.527,0.801-0.956,1.578-1.276,2.3 c-0.32,0.721-0.531,1.387-0.63,1.968c-0.099,0.581-0.086,1.078,0.034,1.468c0.12,0.39,0.348,0.674,0.67,0.835 c0.323,0.162,0.74,0.202,1.234,0.113c0.494-0.089,1.064-0.305,1.686-0.648c0.622-0.343,1.297-0.811,1.996-1.395 c0.699-0.583,1.423-1.281,2.143-2.075c0.72-0.794,1.436-1.683,2.121-2.641c0.684-0.959,1.337-1.987,1.932-3.054 c0.595-1.067,1.134-2.173,1.594-3.285c0.46-1.111,0.842-2.228,1.129-3.316c0.288-1.088,0.482-2.147,0.573-3.145 c0.091-0.998,0.08-1.935-0.036-2.782c-0.116-0.848-0.337-1.606-0.657-2.252c-0.32-0.646-0.74-1.181-1.247-1.589 c-0.507-0.408-1.102-0.69-1.768-0.839c-0.665-0.149-1.401-0.165-2.184-0.052c-0.783,0.114-1.615,0.357-2.469,0.718 c-0.364,0.154-0.732,0.329-1.198,0.576c-0.532,0.289-0.97,0.553-1.407,0.841c-0.874,0.577-1.744,1.251-2.585,1.996 c-0.841,0.745-1.653,1.561-2.411,2.415c-0.758,0.854-1.464,1.747-2.096,2.643s-1.191,1.795-1.662,2.662 c-0.471,0.867-0.854,1.702-1.139,2.471c-0.286,0.769-0.475,1.472-0.566,2.08c-0.091,0.608-0.082,1.121,0.019,1.517 c0.101,0.396,0.296,0.674,0.573,0.821c0.277,0.147,0.635,0.162,1.057,0.041c0.422-0.121,0.909-0.379,1.438-0.769 c0.529-0.39,1.1-0.912,1.689-1.553c0.589-0.641,1.196-1.4,1.796-2.256c0.6-0.856,1.192-1.808,1.753-2.829 c0.561-1.021,1.09-2.11,1.566-3.234c0.476-1.124,0.899-2.284,1.25-3.443c0.352-1.159,0.632-2.317,0.829-3.44 c0.197-1.122,0.31-2.208,0.333-3.225c0.023-1.017-0.045-1.963-0.204-2.812c-0.159-0.849-0.408-1.599-0.744-2.229 c-0.061-0.115-0.126-0.226-0.193-0.333c-1.724-2.755-5.298-2.781-6.814-6.241"/></g><g id="Neck_2_"><path id="Neck_3_" fill="#DBB17F" d="M201.343,562.103H79.974c15.999-172.586,39.005-314.166,39.876-357.829 c4.557,4.395,10.632,11.321,20.799,11.321c10.187,0,16.262-6.926,20.819-11.321C162.318,247.937,185.344,389.518,201.343,562.103z"/><g id="Spots_1_"><path fill="#8F5C40" d="M164.413,327.774c-10.785-2.965-29.616,12.943-28.247,23.863c1.369,10.919,22.938,16.85,32.354,8.896 S175.197,330.739,164.413,327.774z"/><path fill="#8F5C40" d="M85.664,504.457c-0.737,7.045-1.467,14.161-2.189,21.343c8.589,8.367,27.216,10.884,27.947,3.774 C112.154,522.461,94.982,505.717,85.664,504.457z"/><path fill="#8F5C40" d="M191.354,464.759c0.825,7.387,1.647,14.87,2.464,22.444c-1.093,0.877-2.52,1.507-4.353,1.791 c-9.261,1.431-28.9-5.988-30.947-12.239c-2.047-6.251,13.498-11.333,22.758-12.764 C186.074,463.25,189.185,463.488,191.354,464.759z"/><path fill="#8F5C40" d="M168.385,276.069c0.828,6.811,1.714,13.97,2.649,21.459c-3.346-0.05-9.228-7.346-10.021-13.212 C160.201,278.301,164.738,273.788,168.385,276.069z"/><path fill="#8F5C40" d="M110.109,298.899c0.264,0.473,0.554,0.894,0.872,1.255c5.633,6.409,19.916-5.704,21.425-18.17 s-9.756-25.285-16.898-19.229c-0.385,0.326-0.757,0.707-1.117,1.137C113.128,274.576,111.686,286.277,110.109,298.899z"/><path fill="#8F5C40" d="M143.182,260.506c-4.463-4.509-9.094-3.138-9.825,2.026c-0.731,5.164,2.437,14.121,6.9,18.63 c4.463,4.509,10.221,4.57,10.952-0.594C151.941,275.403,147.645,265.015,143.182,260.506z"/><path fill="#8F5C40" d="M135.825,448.301c7.83,5.094,14.663,26.355,14.522,33.505c-0.141,7.15-7.254,0.191-15.085-4.904 c-7.83-5.094-16.377-8.323-16.236-15.474C119.166,454.278,127.994,443.206,135.825,448.301z"/><path fill="#8F5C40" d="M135.787,425.92c-2.417,1.127-3.689,4.87-0.145,12.011c3.543,7.141,11.902,17.681,18.644,21.57 c6.742,3.889,11.866,1.127,10.103-5.27c-1.763-6.396-10.412-16.427-16.518-22.187 C141.765,426.283,138.204,424.793,135.787,425.92z"/><path fill="#8F5C40" d="M126.939,355.743c-3.107-1.891-7.382,1.167-11.147,5.393c-3.765,4.225-7.02,9.618-8.845,15.373 c-1.825,5.754-2.22,11.871,2.483,13.991c4.702,2.121,14.501,0.247,19.434-3.617s4.998-9.717,4.061-16.063 C131.986,364.474,130.046,357.634,126.939,355.743z"/><path fill="#8F5C40" d="M149.427,396.484c-13.995-3.702-32.751-1.78-35.367,4.224c-2.616,6.004,10.908,16.09,24.903,19.792 c13.995,3.702,28.462,1.019,31.078-4.985C172.657,409.51,163.422,400.185,149.427,396.484z"/><path fill="#8F5C40" d="M126.299,482.733c-11.695-1.619-27.392,5.953-30.252,13.448c-2.86,7.495,7.117,14.912,18.812,16.531 c11.695,1.619,25.108-2.562,27.968-10.056C145.688,495.16,137.994,484.351,126.299,482.733z"/><path fill="#8F5C40" d="M146.797,289.247c-10.699,2.364-24.247,15.294-31.315,26.162s-7.655,19.673-5.889,25.802 c1.766,6.129,5.884,9.582,16.876,2.815c10.992-6.767,28.858-23.752,33.867-36.347 C165.345,295.086,157.496,286.884,146.797,289.247z"/><path fill="#8F5C40" d="M137.594,252.726c2.326-3.042-0.114-17.198-3.32-25.456c-3.206-8.257-7.179-10.616-9.505-7.574 c-2.326,3.042-3.007,11.486,0.199,19.743C128.175,247.697,135.268,255.769,137.594,252.726z"/><path fill="#8F5C40" d="M151.81,264.736c4.03,7.438,8.824,3.372,10.379-7.677c1.555-11.049-0.13-29.082-4.16-36.521 c-4.03-7.438-10.404-4.282-11.959,6.768C144.515,238.356,147.78,257.298,151.81,264.736z"/><path fill="#8F5C40" d="M126.272,434.691c-2.836-5.015-17.891-2.223-25.852,2.954c-7.961,5.176-8.827,12.736-5.992,17.751 c2.836,5.015,9.373,7.485,17.334,2.308C119.723,452.528,129.107,439.706,126.272,434.691z"/><path fill="#8F5C40" d="M150.711,517.531c-10.023-4.927-23.873-2.569-26.546,2.757c-2.673,5.326,5.832,13.619,15.856,18.545 c10.023,4.927,21.564,6.488,24.237,1.162C166.93,534.669,160.734,522.458,150.711,517.531z"/><path fill="#8F5C40" d="M151.99,490.72c-3.628,8.264,8.754,32.213,19.468,44.798c10.714,12.586,19.759,13.809,23.387,5.544 c3.628-8.265,1.84-26.017-8.874-38.602C175.257,489.875,155.618,482.456,151.99,490.72z"/><path fill="#8F5C40" d="M120.288,474.851c0.607-5.513-14.478-11.212-22.626-8.548c-8.149,2.664-9.362,13.69-1.82,16.54 C103.384,485.693,119.681,480.365,120.288,474.851z"/><path fill="#8F5C40" d="M124.202,423.237c0.766-6.439-12.758-16.525-20.286-15.129c-7.528,1.396-9.06,14.275-2.298,19.318 C108.381,432.469,123.436,429.677,124.202,423.237z"/><path fill="#8F5C40" d="M154.567,432.137c-1.609-7.936,12.858-10.619,21.7-4.024c8.842,6.594,12.059,22.466,4.826,23.807 C173.859,453.261,156.175,440.073,154.567,432.137z"/><path fill="#8F5C40" d="M138.519,370.697c0.985,8.141,24.525,30.354,35.309,33.319c10.785,2.965,8.815-13.317-2.955-24.423 C159.104,368.487,137.534,362.556,138.519,370.697z"/><path fill="#8F5C40" d="M111.568,356.845c0.488-3.907-3.421-7.596-5.863-5.532c-2.442,2.063-3.418,9.878-1.464,11.722 C106.196,364.879,111.08,360.752,111.568,356.845z"/></g></g><g id="Head_1_"><path fill="#DBB17F" d="M248.935,150.061c-0.365,0.932-1.053,1.539-2.288,1.985c-1.256,0.445-3.078,0.729-5.691,1.215 c-2.613,0.506-6.035,1.215-9.741,1.742c-3.706,0.547-7.716,0.871-10.794,1.053c-3.099,0.162-5.286,0.162-7.574-0.081 c-2.309-0.263-4.698-0.77-6.764-1.64c-2.066-0.851-3.807-2.045-5.184-3.281c-1.357-1.215-2.349-2.491-3.078-3.787 c-0.749-1.296-1.215-2.633-1.924-3.564c-0.709-0.911-1.62-1.438-2.876-1.884c-1.256-0.466-2.855-0.871-5.913-2.369 c0.122-0.223,0.223-0.466,0.344-0.729c0.425-1.013,0.871-2.288,1.276-3.747c0.304-1.114,0.587-2.329,0.81-3.564 c0.486-2.856,0.668-5.893,0.749-8.749c0.081-2.511,0.081-4.86-0.445-7.108c-0.02-0.162-0.061-0.344-0.101-0.527 c8.526,2.126,11.766,2.997,14.419,3.483c2.653,0.506,4.739,0.648,6.562,0.709c1.802,0.041,3.341,0.02,5.103,0.02 c1.762,0.02,3.747,0.101,5.711,0.425c1.964,0.344,3.929,0.972,5.792,2.066c1.884,1.094,3.706,2.653,5.529,4.617 c1.823,1.944,3.686,4.273,5.711,6.865c2.045,2.592,4.253,5.468,6.096,7.736c1.863,2.288,3.321,3.949,4.03,5.427 C249.38,147.853,249.32,149.109,248.935,150.061z"/><linearGradient id="SVGID_1_" x1="233.456" x2="199.503" y1="136.892" y2="136.892" gradientUnits="userSpaceOnUse"><stop offset="0" style="stop-color:#edce91"/><stop offset=".857" style="stop-color:#edce91;stop-opacity:.1426"/><stop offset="1" style="stop-color:#edce91;stop-opacity:0"/></linearGradient><path fill="url(#SVGID_1_)" d="M199.503,137.144c5.231,5.847,8.924,7.693,12.104,8.616c3.18,0.923,5.847,0.923,9.411,0.718 c3.565-0.205,8.027-0.615,12.437-2.154c-5.129-7.18-7.591-9.642-9.796-11.283s-4.154-2.462-7.206-3.513 c-3.052-1.051-7.206-2.334-13.668-2.334"/><path fill="#EDCE91" d="M190.286,122.66c-0.081,2.855-0.263,5.893-0.749,8.749c-0.223,1.235-0.506,2.45-0.81,3.564 c-0.405,1.458-0.851,2.734-1.276,3.747c-0.122,0.263-0.223,0.506-0.344,0.729c-0.628,1.316-1.195,2.147-1.6,3.281 c-0.466,1.357-0.668,3.159-0.608,5.266c0.081,2.106,0.405,4.496,0.77,7.088c0.101,0.709,0.202,1.418,0.283,2.167 c0.243,1.924,0.446,3.969,0.425,6.076c-0.041,2.876-0.486,5.893-1.701,9.296c-1.215,3.402-3.2,7.189-5.407,11.159 c-2.228,3.969-4.698,8.101-7.453,11.138c-0.972,1.073-1.964,1.985-3.058,2.916l-0.041-0.061 c1.033-10.369-0.243-15.128-1.681-18.672c-1.235-3.018-2.552-5.144-4.962-8.162c-1.215-4.314-1.944-7.635-2.349-10.328 c-0.628-4.01-0.567-6.602-0.385-8.951c0.283-3.747,0.871-6.825,1.701-9.356c0.81-2.531,1.883-4.516,3.24-6.602 c1.377-2.086,3.038-4.273,4.982-6.339c1.62-1.742,3.443-3.402,5.286-4.941c0.324-0.263,0.668-0.547,0.992-0.81 c2.187-1.721,4.334-3.22,6.622-4.638c2.126-1.337,4.395-2.592,7.676-3.423C190.367,117.8,190.367,120.149,190.286,122.66z"/><path fill="#8F5C40" d="M178.621,73.003l-17.761-4.921c1.519-1.62,2.936-2.612,4.253-3.159c1.559-0.668,2.997-0.749,4.84-0.587 c1.863,0.142,4.111,0.526,5.67,1.195c1.559,0.668,2.41,1.62,2.896,2.451C179.005,68.75,179.147,69.398,178.621,73.003z"/><path fill="#DBB17F" d="M189.84,115.552c-3.281,0.83-5.549,2.086-7.676,3.423c-2.288,1.418-4.435,2.916-6.622,4.638 c-0.324,0.263-0.668,0.547-0.992,0.81c-1.843,1.539-3.666,3.2-5.286,4.941c-1.944,2.066-3.605,4.253-4.982,6.339 c-1.357,2.086-2.43,4.071-3.24,6.602c-0.83,2.531-1.418,5.61-1.701,9.356c-0.182,2.349-0.243,4.941,0.385,8.951 c0.405,2.694,1.134,6.015,2.349,10.328c-0.405-0.486-0.81-1.013-1.276-1.559c-3.24-3.929-8.182-9.458-20.151-15.715 c-11.969,6.258-16.89,11.787-20.13,15.715c-0.466,0.547-0.871,1.073-1.276,1.559c1.215-4.314,1.944-7.635,2.349-10.328 c0.628-4.01,0.567-6.602,0.385-8.951c-0.304-3.747-0.871-6.825-1.701-9.356c-0.81-2.531-1.883-4.516-3.24-6.602 c-1.377-2.086-3.038-4.273-4.982-6.339c-1.62-1.742-3.443-3.402-5.286-4.941c-0.324-0.263-0.668-0.547-0.992-0.81 c-2.187-1.721-4.334-3.22-6.622-4.638c-2.126-1.337-4.395-2.592-7.675-3.423c0.02-0.162,0.061-0.344,0.101-0.527 c0.041-0.142,0.081-0.263,0.122-0.405c0.749-2.531,2.248-4.941,3.969-6.845c1.742-1.924,3.686-3.362,5.549-4.536 c1.863-1.175,3.645-2.106,4.698-2.876s1.397-1.377,1.337-2.552c-0.081-1.175-0.547-2.937-1.499-7.635 c-0.932-4.698-2.329-12.354-2.957-16.525c-0.648-4.172-0.506-4.86,0-5.67c0.486-0.83,1.337-1.782,2.896-2.451 c1.559-0.668,3.807-1.053,5.65-1.195c1.863-0.162,3.301-0.081,4.86,0.587c1.58,0.648,3.281,1.924,5.144,4.152 c1.863,2.207,3.888,5.387,6.035,9.215c2.167,3.807,4.455,8.242,5.711,10.875c1.276,2.633,1.519,3.463,2.329,3.828 c0.81,0.344,2.187,0.243,5.225,1.276c3.058-1.033,4.435-0.931,5.245-1.276c0.81-0.365,1.053-1.195,2.329-3.828 c1.256-2.633,3.544-7.068,5.711-10.875c2.147-3.827,4.172-7.007,6.035-9.215c0.304-0.365,0.587-0.688,0.891-0.992l17.761,4.921 c-0.04,0.203-0.061,0.425-0.101,0.648c-0.628,4.172-2.025,11.827-2.977,16.525c-0.932,4.698-1.418,6.46-1.478,7.635 c-0.061,1.175,0.263,1.782,1.337,2.552c1.053,0.77,2.835,1.701,4.698,2.876c1.863,1.175,3.807,2.613,5.529,4.536 c1.742,1.904,3.24,4.314,3.99,6.845c0.041,0.142,0.081,0.263,0.122,0.405C189.779,115.207,189.82,115.39,189.84,115.552z"/><path fill="#EDCE91" d="M121.592,160.612c-0.405,2.694-1.134,6.015-2.349,10.328c-2.41,3.018-3.747,5.144-4.962,8.162 c-1.438,3.544-2.714,8.303-1.681,18.672l-0.061,0.061c-1.094-0.932-2.086-1.863-3.058-2.916 c-2.734-3.038-5.205-7.169-7.432-11.138c-2.228-3.969-4.192-7.756-5.407-11.159c-1.215-3.402-1.661-6.42-1.701-9.296 c-0.02-2.106,0.162-4.131,0.405-6.076c0.101-0.729,0.203-1.458,0.304-2.167c0.344-2.592,0.689-4.982,0.77-7.088 c0.061-2.106-0.142-3.909-0.608-5.266c-0.405-1.134-0.972-1.964-1.6-3.281c-0.122-0.223-0.223-0.466-0.344-0.729 c-0.425-0.992-0.891-2.288-1.276-3.726c-0.324-1.114-0.587-2.329-0.81-3.584c-0.506-2.856-0.668-5.893-0.749-8.749 c-0.081-2.511-0.081-4.86,0.446-7.108c3.281,0.83,5.549,2.086,7.675,3.423c2.288,1.418,4.435,2.916,6.622,4.638 c0.324,0.263,0.668,0.547,0.992,0.81c1.843,1.539,3.666,3.2,5.286,4.941c1.944,2.066,3.605,4.253,4.982,6.339 c1.357,2.086,2.43,4.071,3.24,6.602c0.83,2.531,1.397,5.61,1.701,9.356C122.159,154.01,122.219,156.602,121.592,160.612z"/><path fill="#CAA378" d="M168.717,197.774l0.041,0.061c-2.005,1.762-4.334,3.564-7.291,6.44c-0.83,0.81-1.721,1.681-2.673,2.612 c-0.02,0.02-0.061,0.041-0.081,0.061c-12.07,6.987-24.12,6.967-36.19-0.061c-0.952-0.911-1.843-1.802-2.673-2.612 c-2.957-2.876-5.286-4.678-7.311-6.44l0.061-0.061c-1.033-10.369,0.243-15.128,1.681-18.672c1.215-3.018,2.552-5.144,4.962-8.162 c0.405-0.486,0.81-1.013,1.276-1.559c3.24-3.929,8.162-9.458,20.13-15.715c11.969,6.258,16.91,11.787,20.151,15.715 c0.466,0.547,0.871,1.073,1.276,1.559c2.41,3.018,3.726,5.144,4.962,8.162C168.474,182.646,169.75,187.405,168.717,197.774z"/><path fill="#9E7D5C" d="M158.713,206.948c-4.233,4.071-9.782,8.648-18.065,8.648c-8.303,0-13.872-4.617-18.125-8.708 C134.593,213.915,146.643,213.935,158.713,206.948z"/><path fill="#DBB17F" d="M94.211,139.449c-3.058,1.499-4.658,1.904-5.913,2.369c-1.256,0.446-2.187,0.972-2.876,1.884 c-0.709,0.932-1.175,2.268-1.924,3.564c-0.729,1.296-1.721,2.572-3.078,3.787c-1.377,1.235-3.119,2.43-5.184,3.281 c-2.066,0.871-4.476,1.377-6.764,1.64c-2.288,0.243-4.476,0.243-7.574,0.081c-3.078-0.182-7.088-0.506-10.794-1.053 c-3.706-0.527-7.129-1.235-9.741-1.742c-2.633-0.486-4.435-0.77-5.691-1.215c-1.235-0.446-1.924-1.053-2.309-1.985 c-0.365-0.952-0.446-2.207,0.263-3.686c0.709-1.478,2.167-3.139,4.01-5.427c1.863-2.268,4.071-5.144,6.116-7.736 c2.025-2.592,3.868-4.921,5.711-6.865c1.823-1.964,3.645-3.524,5.508-4.617c1.883-1.094,3.848-1.721,5.812-2.066 c1.964-0.324,3.949-0.405,5.711-0.425c1.742,0,3.281,0.02,5.103-0.02c1.802-0.061,3.888-0.202,6.562-0.709 c2.653-0.486,5.893-1.357,14.419-3.483c-0.041,0.182-0.081,0.365-0.101,0.527c-0.527,2.248-0.527,4.597-0.446,7.108 c0.081,2.855,0.243,5.893,0.749,8.749c0.223,1.256,0.486,2.471,0.81,3.584c0.385,1.438,0.851,2.734,1.276,3.726 C93.988,138.983,94.09,139.226,94.211,139.449z"/><linearGradient id="SVGID_2_" x1="47.859" x2="81.812" y1="136.892" y2="136.892" gradientUnits="userSpaceOnUse"><stop offset="0" style="stop-color:#edce91"/><stop offset=".857" style="stop-color:#edce91;stop-opacity:.1426"/><stop offset="1" style="stop-color:#edce91;stop-opacity:0"/></linearGradient><path fill="url(#SVGID_2_)" d="M78.529,127.194c-6.462,0-10.617,1.282-13.668,2.334c-3.052,1.051-5.001,1.872-7.206,3.513 s-4.667,4.103-9.796,11.283c4.411,1.539,8.873,1.949,12.437,2.154c3.565,0.205,6.232,0.205,9.411-0.718 c3.18-0.923,6.873-2.77,12.104-8.616"/><path fill="#8F5C40" d="M102.711,73.003l17.761-4.921c-1.519-1.62-2.936-2.612-4.253-3.159c-1.559-0.668-2.997-0.749-4.84-0.587 c-1.863,0.142-4.111,0.526-5.67,1.195c-1.559,0.668-2.41,1.62-2.896,2.451C102.326,68.75,102.184,69.398,102.711,73.003z"/></g><g id="Eyes_1_"><path fill="none" stroke="#9E7D5C" stroke-linecap="round" stroke-linejoin="round" stroke-width="2.025" d="M98.983,149.056 c0.615-5.125,1.332-7.2,2.11-8.597c0.777-1.397,1.614-2.114,2.511-2.037c0.897,0.077,1.853,0.948,2.678,2.242 c0.824,1.294,1.516,3.011,2.746,8.289"/><path fill="none" stroke="#9E7D5C" stroke-linecap="round" stroke-linejoin="round" stroke-width="2.025" d="M182.331,149.056 c-0.615-5.125-1.332-7.2-2.11-8.597c-0.777-1.397-1.614-2.114-2.511-2.037c-0.897,0.077-1.854,0.948-2.678,2.242 c-0.824,1.294-1.516,3.011-2.746,8.289"/></g><g id="Glasses_2_"><path fill="none" stroke="#313131" stroke-linecap="round" stroke-linejoin="round" stroke-width="4.05" d="M129.178,150.832 c7.653-3.031,15.305-3.031,22.958,0"/><circle cx="170.937" cy="144.083" r="19.976" fill="none" stroke="#313131" stroke-linecap="round" stroke-linejoin="round" stroke-width="4.05"/><circle cx="110.377" cy="144.083" r="19.976" fill="none" stroke="#313131" stroke-linecap="round" stroke-linejoin="round" stroke-width="4.05"/></g><g id="Neck_Piece"><path fill="#D1D2D2" d="M183.805,325.259c-15.533,5.772-29.912,8.648-43.157,8.648c-13.224,0-27.623-2.876-43.136-8.648 c1.458-11.746,2.937-23.492,4.415-35.218c0.344-2.795,0.689-5.569,1.033-8.344h75.397c0.344,2.775,0.689,5.549,1.033,8.344 C180.848,301.767,182.327,313.513,183.805,325.259z"/><path fill="#E2E2E2" d="M183.805,325.259c-3.18,9.539-5.306,15.088-6.359,23.188c-24.525,4.253-49.05,4.253-73.575,0 c-1.053-8.101-3.2-13.65-6.359-23.188c15.513,5.772,29.912,8.648,43.136,8.648C153.893,333.906,168.272,331.03,183.805,325.259z"/></g><path fill="#E2E2E2" d="M269.389,16.257c-0.729-3.848-3.828-6.805-7.716-7.372c-80.683-11.847-161.366-11.847-242.049,0 c-3.868,0.567-6.967,3.524-7.716,7.372C3.969,57.773,0,101.072,0,146.172c0,37.304,14.804,73.089,41.192,99.456 c26.388,26.388,62.153,41.212,99.456,41.212c37.324,0,73.089-14.824,99.477-41.192c26.368-26.388,41.192-62.173,41.192-99.477 C281.317,101.072,277.348,57.773,269.389,16.257z M227.083,232.607c-22.965,22.945-53.971,35.785-86.435,35.785 c-32.464,0-63.469-12.84-86.414-35.785c-22.965-22.965-35.805-53.971-35.805-86.435c0-32.464,12.84-63.469,35.805-86.435 c22.945-22.945,53.951-35.785,86.414-35.785c32.484,0,63.489,12.84,86.435,35.785c22.966,22.966,35.805,53.971,35.805,86.435 C262.888,178.636,250.049,209.641,227.083,232.607z"/><circle cx="252.563" cy="32.812" r="10.506" fill="#313131"/><circle cx="263.368" cy="58.969" r="5.588" fill="#FFF"/><circle cx="17.946" cy="58.969" r="5.588" fill="#FFF"/><circle cx="28.751" cy="32.812" r="10.506" fill="#313131"/></g></svg>