<svg xmlns="http://www.w3.org/2000/svg" xmlns:xlink="http://www.w3.org/1999/xlink" width="110" height="72" version="1.1" viewBox="0 0 110 72"><title>new-school</title><g id="new-school" fill="none" fill-rule="evenodd" stroke="none" stroke-width="1"><path id="Combined-Shape" fill="#1F2937" d="M109.524,68.369 L109.524,72 L4.501,72 L4.501,68.369 L109.524,68.369 Z M109.524,61.179 L109.524,64.81 L4.501,64.81 L4.501,61.179 L109.524,61.179 Z M9.9403,40.8466 C12.0193,40.8466 14.3043,41.3826 15.6013,42.1236 L14.8193,45.6236 C13.4403,44.7996 11.3813,44.3676 9.7963,44.3676 C8.5203,44.3676 7.6553,44.8616 7.6553,45.7256 C7.6553,48.4026 16.0953,46.8996 16.0953,52.4376 C16.0953,55.3816 13.9963,57.9746 9.6113,57.9746 C7.7373,57.9746 5.6173,57.7276 3.9083,56.9246 L4.0733,53.1576 C5.7823,53.9816 7.6553,54.4546 9.7343,54.4546 C11.5463,54.4546 11.9993,53.8166 11.9993,53.0546 C11.9993,50.5846 3.5793,52.0256 3.5793,46.1996 C3.5793,42.7206 6.3583,40.8466 9.9403,40.8466 Z M25.8347,40.8679 C27.2137,40.8679 28.7367,40.9089 30.0127,41.3409 L29.6217,45.0879 C28.1807,44.6149 27.1517,44.5529 25.9577,44.5529 C22.9107,44.5529 21.1197,46.3439 21.1197,49.3909 C21.1197,52.4579 23.1577,54.2079 26.0607,54.2079 C27.9137,54.2079 28.4897,54.0229 29.7457,53.6109 L29.7457,57.4189 C28.4277,57.9129 27.3167,57.9749 25.4637,57.9749 C20.3587,57.9749 16.8797,53.9609 16.8797,49.3909 C16.8797,44.7169 20.4817,40.8679 25.8347,40.8679 Z M61.5136,40.8475 C67.1746,40.8475 71.2506,43.7705 71.2506,49.3285 C71.2506,55.1135 66.8456,57.9745 61.4926,57.9745 C56.0996,57.9745 51.6936,55.0725 51.6936,49.3495 C51.6936,43.9555 55.7076,40.8475 61.5136,40.8475 Z M81.7928,40.8475 C87.4538,40.8475 91.5298,43.7705 91.5298,49.3285 C91.5298,55.1135 87.1248,57.9745 81.7718,57.9745 C76.3788,57.9745 71.9728,55.0725 71.9728,49.3495 C71.9728,43.9555 75.9868,40.8475 81.7928,40.8475 Z M35.7579,41.1766 L35.7579,47.4556 L46.5659,47.4556 L46.5659,41.1766 L50.6829,41.1766 L50.6829,57.6456 L46.5659,57.6456 L46.5659,51.3666 L35.7579,51.3666 L35.7579,57.6456 L31.6409,57.6456 L31.6409,41.1766 L35.7579,41.1766 Z M96.7809,41.1767 L96.7809,53.7347 L109.5239,53.7347 L109.5239,57.6457 L92.6639,57.6457 L92.6639,41.1767 L96.7809,41.1767 Z M61.4726,44.3055 C58.2606,44.3055 55.9346,45.9115 55.9346,49.3705 C55.9346,52.8495 58.2606,54.5165 61.4516,54.5165 C64.6836,54.5165 67.0096,52.8695 67.0096,49.2465 C67.0096,45.9525 64.6836,44.3055 61.4726,44.3055 Z M81.7518,44.3055 C78.5398,44.3055 76.2138,45.9115 76.2138,49.3705 C76.2138,52.8495 78.5398,54.5165 81.7308,54.5165 C84.9628,54.5165 87.2888,52.8695 87.2888,49.2465 C87.2888,45.9525 84.9628,44.3055 81.7518,44.3055 Z M9.324,20.588 L18.917,30.881 L19.535,30.881 L19.535,20.588 L23.652,20.588 L23.652,37.058 L19,37.058 L9.242,26.517 L8.624,26.517 L8.624,37.058 L4.507,37.058 L4.507,20.588 L9.324,20.588 Z M37.2623,20.5886 L37.2623,24.2936 L29.6653,24.2936 L29.6653,27.0736 L35.8203,27.0736 L35.8203,30.5726 L29.6653,30.5726 L29.6653,33.3516 L37.2623,33.3516 L37.2623,37.0576 L25.5483,37.0576 L25.5483,20.5886 L37.2623,20.5886 Z M42.2245,20.5883 L45.7855,33.7013 L46.7535,33.7013 L50.0055,20.5883 L57.7465,20.5883 L61.4725,33.7013 L62.4395,33.7013 L65.5275,20.5883 L70.2005,20.5883 L65.6515,37.0573 L58.3225,37.0573 L54.5345,23.9443 L53.3815,23.9443 L49.9235,37.0573 L42.5945,37.0573 L37.6335,20.5883 L42.2245,20.5883 Z M14.411,3.44613227e-13 L14.411,3.705 L9.264,3.705 L9.264,16.469 L5.146,16.469 L5.146,3.705 L8.8817842e-16,3.705 L8.8817842e-16,3.44613227e-13 L14.411,3.44613227e-13 Z M19.7434,3.44613227e-13 L19.7434,6.278 L30.5514,6.278 L30.5514,3.44613227e-13 L34.6684,3.44613227e-13 L34.6684,16.469 L30.5514,16.469 L30.5514,10.191 L19.7434,10.191 L19.7434,16.469 L15.6264,16.469 L15.6264,3.44613227e-13 L19.7434,3.44613227e-13 Z M48.2783,3.44613227e-13 L48.2783,3.705 L40.6823,3.705 L40.6823,6.484 L46.8373,6.484 L46.8373,9.985 L40.6823,9.985 L40.6823,12.764 L48.2783,12.764 L48.2783,16.469 L36.5643,16.469 L36.5643,3.44613227e-13 L48.2783,3.44613227e-13 Z"/></g></svg>