<?xml version="1.0" encoding="UTF-8"?>
<svg width="134px" height="61px" viewBox="0 0 134 61" version="1.1" xmlns="http://www.w3.org/2000/svg" xmlns:xlink="http://www.w3.org/1999/xlink">
    <!-- Generator: Sketch 55.2 (78181) - https://sketchapp.com -->
    <title>Combined Shape</title>
    <desc>Created with Sketch.</desc>
    <g id="Welcome" stroke="none" stroke-width="1" fill="none" fill-rule="evenodd">
        <g id="Artboard" transform="translate(-401.000000, -430.000000)" fill="#1F2937" fill-rule="nonzero">
            <path d="M402.845597,449.783461 L402.845597,459.965607 L402.845597,460.065107 C402.845597,461.06312 403.044597,468.150219 408.73493,477.135352 C414.325763,486.020985 423.708895,489.214024 425.006915,489.713031 C426.304182,489.21327 435.687314,486.020231 441.278147,477.135352 C446.96848,468.150219 447.168233,461.06312 447.168233,460.065107 L447.168233,449.982838 L447.168233,450.182214 L402.845597,450.281714 L402.845597,449.783461 Z M448.265746,459.565347 C448.265746,459.8646 448.564999,467.552466 442.276914,477.335105 C435.987321,487.316744 425.605422,490.51129 425.106415,490.611544 L424.807162,490.611544 C424.407655,490.51129 414.025756,487.316744 407.736917,477.335105 C401.947084,468.349972 401.647077,461.16262 401.647077,459.8646 L401.647077,431.014936 L448.265746,431.014936 L448.265746,459.565347 Z M423.608642,434.808742 C423.509142,434.808742 421.612616,434.509489 419.316582,434.509489 C417.519556,434.509489 415.922283,435.008496 415.223523,435.308503 C414.524763,435.009249 412.927489,434.509489 411.130463,434.509489 C408.83443,434.509489 406.937903,434.808742 406.83765,434.808742 L406.637896,434.908242 L406.637896,446.986914 L406.93715,446.887414 C406.93715,446.887414 408.534423,446.487908 410.830456,446.487908 C412.627483,446.487908 414.424509,446.986914 415.122515,447.286167 L415.322269,447.286167 C416.021029,446.986914 417.818055,446.487908 419.614328,446.487908 C421.910361,446.487908 423.408135,446.887414 423.507634,446.887414 L423.806888,446.986914 L423.806888,434.908242 L423.608642,434.808742 Z M437.285341,443.692868 C437.185087,444.391628 436.985334,444.890634 436.686834,445.489894 C436.786334,445.689648 437.085587,445.789148 437.285341,445.988901 C437.801048,445.258461 438.079962,444.38725 438.084354,443.493115 C437.784347,443.593368 437.584594,443.692868 437.285341,443.692868 Z M436.286574,434.209482 C433.891041,434.209482 431.894261,436.205508 431.793254,438.700541 C432.092507,438.601041 432.293014,438.500788 432.592267,438.401288 C432.792021,436.504008 434.38854,435.106488 436.28582,435.106488 C438.3821,435.106488 439.979373,436.704515 439.979373,438.700541 C439.979373,440.796821 438.3821,442.394094 436.28582,442.394094 L435.986567,442.394094 C435.986567,442.694101 435.887067,442.993354 435.887067,443.193108 L436.286574,443.293361 C438.781607,443.293361 440.778387,441.197081 440.778387,438.701295 C440.778387,436.305762 438.78236,434.209482 436.286574,434.209482 Z M438.982114,438.901802 C438.183854,438.901802 437.48434,439.100802 436.787088,439.501062 C436.986088,439.600562 437.286095,439.800315 437.385594,440.099568 C437.884601,439.800315 438.483107,439.700816 438.982868,439.700816 L439.282121,439.700816 C439.381621,439.500308 439.381621,439.201055 439.381621,438.901802 L438.982114,438.901802 Z M433.591788,447.886218 C434.390048,447.886218 435.089561,447.686428 435.788321,447.285414 C435.588568,447.186668 435.388814,446.98616 435.189061,446.686907 C434.690054,446.986914 434.190294,447.086414 433.591788,447.086414 C431.595008,447.086414 429.898235,445.389641 429.898235,443.392861 C429.898235,441.396835 431.595008,439.700062 433.591788,439.700062 C435.004745,439.696323 436.29083,440.514767 436.885834,441.796342 C437.185841,441.796342 437.485094,441.696842 437.684848,441.497088 C436.985334,439.899815 435.388814,438.901762 433.591788,438.901762 C432.398948,438.896766 431.25351,439.368392 430.410037,440.211864 C429.566565,441.055337 429.094939,442.200775 429.099935,443.393615 C429.09494,444.586523 429.566542,445.732038 430.409993,446.57563 C431.253443,447.419222 432.398879,447.891016 433.591788,447.886218 Z M432.992528,440.299322 C432.693275,440.398822 432.393268,440.499075 432.193514,440.599329 C432.593021,441.497088 433.191527,442.195848 433.990541,442.595355 C433.990541,442.295348 434.090794,442.095595 434.190294,441.796342 C433.686219,441.391078 433.277327,440.880027 432.992528,440.299322 Z M438.982114,447.886218 C440.17516,447.891013 441.320749,447.419266 442.164438,446.575719 C443.008127,445.732172 443.480066,444.586662 443.475468,443.393615 C443.475468,441.796342 442.676421,440.299322 441.278901,439.500308 C441.278901,439.799562 441.179401,440.099568 441.079147,440.398822 C442.07716,441.098335 442.676421,442.195848 442.676421,443.393615 C442.676421,445.390395 441.079147,447.087168 438.982868,447.087168 C436.986088,447.087168 435.289315,445.390395 435.289315,443.393615 C435.289315,442.694855 435.489068,441.996095 435.988075,441.297335 C435.788321,441.097582 435.588568,440.998082 435.289315,440.798328 C434.789554,441.597342 434.490261,442.495855 434.490261,443.393615 C434.485266,444.586523 434.956868,445.732038 435.800319,446.57563 C436.643769,447.419222 437.789205,447.891016 438.982114,447.886218 Z M414.924269,435.907009 L414.924269,444.890634 C414.025756,444.591381 412.428483,444.292128 410.931463,444.292128 C409.694048,444.287677 408.458469,444.387784 407.23791,444.591381 L407.23791,435.407249 C407.836417,435.307749 409.33419,435.107995 411.131217,435.107995 C412.727736,435.107995 414.22551,435.607756 414.924269,435.907009 Z M419.316582,435.107995 C421.113609,435.107995 422.610629,435.307749 423.209889,435.408002 L423.209889,444.592135 C422.610629,444.492635 421.312609,444.292882 419.615836,444.292882 C418.018562,444.292882 416.421289,444.592135 415.522776,444.891388 L415.522776,435.907009 C416.22229,435.607756 417.719309,435.107995 419.316582,435.107995 Z M408.93393,436.705269 C408.734176,436.705269 408.634676,436.905022 408.634676,437.104775 C408.734176,437.304529 408.93393,437.404029 409.233183,437.404029 C409.233183,437.404029 410.331449,437.104775 411.329462,437.104775 C412.227976,437.104775 413.225989,437.603782 413.225989,437.603782 C413.525242,437.603782 413.725749,437.504282 413.824495,437.304529 C413.924749,437.205029 413.824495,436.905776 413.525242,436.905776 C413.525242,436.905776 412.426975,436.406767 411.328709,436.406767 C410.23195,436.406015 409.034183,436.605769 408.93393,436.705269 Z M408.93393,438.502295 C408.734176,438.502295 408.634676,438.702049 408.634676,438.901802 C408.734176,439.101555 408.93393,439.201055 409.233183,439.201055 C409.233183,439.201055 410.331449,439.001302 411.329462,439.001302 C412.227976,439.001302 413.225989,439.400809 413.225989,439.400809 C413.525242,439.400809 413.725749,439.300555 413.824495,439.201055 C413.924749,439.001302 413.824495,438.801548 413.525242,438.702049 C413.525242,438.702049 412.426975,438.203041 411.328709,438.203041 C410.23195,438.202288 409.034183,438.502295 408.93393,438.502295 Z M408.93393,440.299322 C408.734176,440.299322 408.634676,440.499075 408.634676,440.698829 C408.734176,440.898582 408.93393,440.998082 409.233183,440.998082 C409.233183,440.998082 410.331449,440.798328 411.329462,440.798328 C412.227976,440.798328 413.225989,441.197835 413.225989,441.197835 C413.525242,441.297335 413.725749,441.197835 413.824495,440.998082 C413.924749,440.798328 413.824495,440.598575 413.525242,440.499075 C413.525242,440.499075 412.426975,440.000069 411.328709,440.000069 C410.23195,440.000069 409.034183,440.299322 408.93393,440.299322 Z M408.93393,442.095595 C408.746818,442.190864 408.630592,442.384671 408.634676,442.594601 C408.734176,442.794355 408.93393,442.893854 409.233183,442.794355 C409.233183,442.794355 410.331449,442.594601 411.329462,442.594601 C412.227976,442.594601 413.225989,442.994108 413.225989,442.994108 C413.525242,443.093608 413.725749,442.994108 413.824495,442.794355 C413.924749,442.594601 413.824495,442.394848 413.525242,442.294594 C413.525242,442.294594 412.426975,441.895841 411.328709,441.895841 C410.23195,441.896595 409.034183,442.095595 408.93393,442.095595 Z M421.512362,436.705269 C421.512362,436.605769 420.314595,436.406015 419.116829,436.406767 C418.118062,436.406767 417.020549,436.905776 416.920296,436.905776 C416.720542,436.905776 416.620289,437.205029 416.720542,437.304529 C416.815812,437.491641 417.009619,437.607866 417.219549,437.603782 C417.219549,437.603782 418.217562,437.104775 419.116075,437.104775 C420.114842,437.104775 421.312609,437.404029 421.312609,437.404029 C421.512362,437.404029 421.811615,437.304529 421.811615,437.104775 C421.911869,436.905022 421.811615,436.705269 421.512362,436.705269 Z M421.512362,438.502295 C421.512362,438.502295 420.314595,438.202288 419.116829,438.203041 C418.118062,438.203041 417.020549,438.702049 416.920296,438.702049 C416.720542,438.801548 416.620289,439.001302 416.720542,439.201055 C416.820042,439.300555 417.019795,439.400809 417.219549,439.400809 C417.219549,439.400809 418.217562,439.001302 419.116075,439.001302 C420.114842,439.001302 421.312609,439.201055 421.312609,439.201055 C421.512362,439.201055 421.811615,439.101555 421.811615,438.901802 C421.911869,438.702049 421.811615,438.502295 421.512362,438.502295 Z M421.512362,440.299322 C421.512362,440.299322 420.314595,440.000069 419.116829,440.000069 C418.118062,440.000069 417.020549,440.499075 416.920296,440.499075 C416.720542,440.598575 416.620289,440.798328 416.720542,440.998082 C416.820042,441.197835 417.019795,441.297335 417.219549,441.197835 C417.219549,441.197835 418.217562,440.798328 419.116075,440.798328 C420.114842,440.798328 421.312609,440.998082 421.312609,440.998082 C421.512362,440.998082 421.811615,440.898582 421.811615,440.698829 C421.911869,440.499075 421.811615,440.299322 421.512362,440.299322 Z M421.512362,442.095595 C421.512362,442.095595 420.314595,441.896595 419.116829,441.895841 C418.118062,441.895841 417.020549,442.294594 416.920296,442.294594 C416.720542,442.394848 416.620289,442.594601 416.720542,442.794355 C416.820042,442.994108 417.019795,443.093608 417.219549,442.994108 C417.219549,442.994108 418.217562,442.594601 419.116075,442.594601 C420.114842,442.594601 421.312609,442.794355 421.312609,442.794355 C421.512362,442.893854 421.811615,442.794355 421.811615,442.594601 C421.911869,442.394848 421.811615,442.195094 421.512362,442.095595 Z M445.171453,458.067573 C445.270953,458.36758 445.270953,458.666833 445.265677,458.864325 C445.265677,459.462832 445.065923,460.062092 444.666416,460.460845 C443.46865,462.058118 440.274104,462.456871 438.577331,462.557124 C438.777084,463.156385 438.976837,464.054144 438.976837,465.352918 L438.976837,467.249444 C438.976837,468.447965 439.076337,469.546231 439.575344,470.145491 C439.97485,470.644498 440.274104,470.743244 440.473857,470.843498 C440.67361,471.044005 440.773864,471.044005 440.873364,471.342504 C441.073117,471.442758 441.37237,471.442758 441.572124,471.543011 C441.872131,471.742011 442.371137,472.042018 442.371137,472.042018 C442.371137,472.042018 441.672377,472.240264 441.373124,472.440771 L440.574111,473.040031 C440.973617,473.140284 441.173371,473.539037 441.173371,473.539037 L439.676351,474.436797 C439.576097,474.536297 439.476598,474.63655 439.276844,474.736804 C438.977591,475.334556 438.678338,476.03407 438.477831,476.63333 C438.278077,476.932583 437.779071,478.230604 437.679571,478.429603 C437.380318,478.830617 437.080311,479.028863 436.481805,479.129117 L435.682791,479.329624 C434.485025,479.729131 433.586511,479.927377 433.187005,479.528624 C433.087505,479.528624 432.987251,479.42837 432.987251,479.329624 C432.687998,479.427616 432.388745,479.628123 432.388745,479.628123 C432.388745,479.628123 432.388745,479.427616 432.687998,479.028863 C432.588498,478.830617 432.488245,478.730364 432.388745,478.63011 L432.289245,478.63011 C432.089492,478.63011 431.690739,478.92861 431.690739,478.92861 C431.690739,478.92861 431.690739,478.629356 431.890492,478.330857 C431.990746,478.230604 431.990746,478.13035 432.090245,478.13035 C431.990746,478.03085 431.990746,477.930597 431.990746,477.831851 L431.891246,477.831851 C431.491739,477.831851 431.291986,478.03085 431.291986,478.03085 C431.291986,478.03085 431.192486,477.831851 431.491739,477.43159 C431.691492,477.333598 431.890492,477.233344 432.090245,477.133091 L432.289999,476.932583 C432.589252,476.634084 433.088259,476.533831 433.787018,476.533831 L435.483791,476.533831 C435.683545,476.135078 436.083052,475.336064 436.382305,474.537804 C436.682312,473.539791 436.981565,472.641278 437.081065,472.341271 C436.681558,471.842264 434.984785,470.045992 434.984785,470.045992 C434.385525,469.446731 434.086272,468.947725 433.886518,468.747218 C433.587265,469.346478 433.088259,470.544998 433.387512,471.044005 C433.587265,471.343258 433.686765,471.543011 433.686765,471.742011 C433.886518,471.742011 434.086272,471.842264 434.185771,471.842264 C434.585278,472.042772 434.984785,472.341271 434.984785,472.341271 C434.984785,472.341271 434.385525,472.541024 433.986772,472.740024 C433.587265,472.940531 433.187758,473.439538 433.187758,473.439538 C433.586511,473.439538 433.786265,473.838291 433.786265,473.838291 C433.786265,473.838291 432.788252,474.338051 432.388745,474.638058 L431.889738,475.137064 C431.789485,475.436318 431.589731,475.636071 431.490232,475.835071 C431.390732,476.035578 431.290478,476.334077 431.190978,476.534584 L430.891725,477.033591 C430.691972,477.433098 430.292465,477.632851 429.693959,477.733105 L428.894945,478.031604 C427.696425,478.332365 426.798665,478.53061 426.399159,478.232111 L426.099906,477.932104 C425.900906,477.932104 425.501399,478.232111 425.501399,478.232111 C425.501399,478.232111 425.501399,478.031604 425.701153,477.632851 C425.800652,477.632851 425.800652,477.532597 425.800652,477.532597 C425.700399,477.433098 425.700399,477.334352 425.600899,477.234098 C425.301646,477.234098 424.902139,477.532597 424.902139,477.532597 C424.902139,477.532597 424.902139,477.333598 425.101892,476.933337 C425.202146,476.834591 425.202146,476.734338 425.301646,476.734338 C425.202146,476.634838 425.202146,476.434331 425.202146,476.434331 L425.102646,476.434331 C424.803393,476.434331 424.403886,476.634838 424.403886,476.634838 C424.403886,476.634838 424.403886,476.434331 424.703139,476.035578 C424.802639,475.835824 425.102646,475.737078 425.401899,475.737078 C425.401899,475.636825 425.501399,475.636825 425.501399,475.636825 C425.800652,475.238072 426.299659,475.137818 426.998419,475.137818 C427.397926,475.238072 428.395939,475.137818 428.795445,475.137818 C428.995953,474.638058 429.594459,473.239784 429.594459,473.239784 L429.794212,472.841031 C429.893712,472.441525 430.293219,471.742765 430.293219,471.543765 C430.293219,471.443511 430.193719,471.443511 430.193719,471.443511 C429.595213,470.844251 428.895699,469.846238 428.297193,469.146725 L427.798186,468.148711 C427.398679,468.248211 427.099426,468.348465 426.699919,468.448718 C427.099426,468.747218 427.198926,469.047979 427.198926,469.446731 C426.500166,469.246224 425.801406,469.246224 424.803393,469.845484 C424.60364,470.045238 424.50414,470.145491 424.304386,470.145491 C424.703893,470.444745 425.003146,470.943751 425.003146,470.943751 C425.003146,470.943751 424.303633,471.044005 423.705126,471.342504 C423.20612,471.543011 422.60686,472.142271 422.60686,472.142271 C423.10662,472.241017 423.405873,472.740024 423.405873,472.740024 C423.405873,472.740024 422.207353,473.339284 421.608847,473.739545 C421.20934,473.93779 420.710333,474.437551 420.310827,474.737558 C419.81182,475.535817 419.412313,476.135078 419.412313,476.135078 C419.012806,476.734338 418.913307,477.032837 418.713553,477.632097 L418.614054,477.832604 C418.614054,478.131858 418.5138,478.231357 418.4143,478.430357 C418.214547,478.831371 417.815794,479.029617 417.216534,479.129871 L416.41752,479.330378 C415.02,479.729131 414.021987,479.927377 413.522981,479.628877 C413.423481,479.529377 413.323227,479.429124 413.323227,479.330378 C413.023974,479.42837 412.724721,479.628877 412.724721,479.628877 C412.724721,479.628877 412.724721,479.42837 412.924474,479.029617 C412.924474,478.929363 412.924474,478.929363 413.023974,478.929363 C412.824975,478.830617 412.724721,478.630864 412.625221,478.53061 C412.425468,478.53061 412.025961,478.731118 412.025961,478.731118 C412.025961,478.731118 412.025961,478.53061 412.325214,478.131858 L412.424714,478.031604 C412.325214,477.932104 412.325214,477.833358 412.325214,477.733105 L412.325214,477.632851 L412.225714,477.632851 C411.926461,477.632851 411.526954,477.93135 411.526954,477.93135 C411.526954,477.93135 411.526954,477.632097 411.826208,477.333598 C412.014947,477.152028 412.263336,477.045385 412.524968,477.033591 C412.625221,477.033591 412.625221,476.933337 412.625221,476.933337 C412.924474,476.634838 413.523734,476.434331 414.222494,476.534584 C414.521748,476.534584 415.420261,476.434331 415.919267,476.434331 C416.119021,476.135078 416.418274,475.436318 416.817781,474.139051 C417.117788,472.940531 417.417041,471.443511 417.616794,470.645252 C417.218041,470.244991 416.519281,469.246978 416.419028,469.047979 C416.020275,468.147958 416.119775,467.749205 416.119775,467.250198 L415.920021,467.250198 C415.720268,467.550205 415.221261,467.849458 415.121008,468.248211 C414.821755,467.849458 414.622001,467.550205 414.522501,467.250198 C413.823741,467.550205 412.426222,468.049212 411.927215,467.749205 C411.728215,467.949712 411.528462,468.348465 411.328709,468.548972 C410.829702,468.948479 410.230442,469.246978 410.230442,469.246978 C410.230442,469.246978 410.330696,468.448718 410.430195,467.949712 C410.430195,467.150698 410.230442,466.452692 410.230442,466.452692 C409.931189,466.851445 409.332683,466.951699 409.332683,466.951699 C409.332683,466.951699 409.432182,465.853432 409.332683,464.855419 C409.233183,464.356412 409.132929,463.656899 409.033429,463.157892 C408.933176,463.057639 408.833676,462.859393 408.833676,462.759139 C408.234416,461.860626 407.834909,461.061612 407.735409,460.961359 C407.535656,460.662859 407.136149,460.063599 406.836896,459.364839 C406.737396,459.26534 405.938383,458.666079 405.938383,458.666079 C405.63913,458.366826 405.439376,457.96732 405.439376,457.567813 C405.439376,457.368059 405.439376,457.26856 405.538876,457.068806 L405.638376,457.068806 C405.538876,457.068806 405.538876,456.969306 405.538876,456.969306 C405.339123,456.769553 404.939616,456.670053 404.939616,456.670053 C404.939616,456.670053 405.039869,456.4703 405.538876,456.4703 L405.538876,456.3708 C405.538876,455.971293 405.638376,455.77154 405.838129,455.472287 C405.638376,455.372787 405.339123,455.173034 405.339123,455.173034 C405.339123,455.173034 405.538876,455.07278 406.037882,455.173034 L406.137382,455.173034 C406.137382,455.07278 406.237636,455.07278 406.237636,454.97328 L406.337136,454.97328 C406.337136,454.97328 406.437389,454.87378 406.537643,454.87378 C406.537643,454.773527 406.537643,454.674027 406.437389,454.674027 C406.337136,454.37402 405.938383,454.074767 405.938383,454.074767 C405.938383,454.074767 406.23839,453.974513 406.637143,454.174267 C406.836896,454.174267 407.036649,454.47352 407.236403,454.674027 L407.735409,454.674027 C408.134916,454.773527 408.334669,455.472287 408.633923,456.3708 L408.633923,456.670053 L408.833676,457.16906 C409.033429,457.767566 409.332683,458.766333 409.432182,458.865833 C409.831689,459.364839 410.530449,459.9641 411.229209,460.562606 C411.129709,459.9641 411.229209,459.564593 411.728215,459.065586 C411.128955,459.26534 410.330696,458.666079 410.130942,458.267326 C410.130942,458.267326 411.229209,457.968073 411.229209,457.368813 C411.229209,457.269313 410.529695,457.368813 410.230442,456.3708 C410.929956,455.971293 410.730202,455.871794 411.029456,455.372787 C411.428962,454.97328 411.828469,454.674027 412.327476,454.773527 C412.227222,454.773527 412.127722,454.773527 411.927969,454.573774 C411.528462,454.47352 411.328709,453.974513 411.029456,454.074767 C411.627962,453.076 413.324735,452.877 414.123748,453.176254 C413.923995,452.876247 413.624742,452.676493 413.624742,452.37724 C414.523255,452.576994 415.521268,452.077987 416.419782,452.27774 C417.218795,452.477494 417.618302,452.776747 417.917555,453.475507 C418.216808,452.776747 418.615561,452.477494 419.414575,452.27774 C420.412588,452.077987 421.311101,452.576994 422.209614,452.37724 C422.209614,452.677247 421.910361,452.877 421.810108,453.176254 C422.508867,452.877 424.206394,453.076 424.804901,454.074767 C424.505647,453.974513 424.305894,454.47352 423.906387,454.573774 C423.706634,454.773527 423.706634,454.674027 423.506881,454.773527 C424.006641,454.674027 424.505647,454.97328 424.804901,455.372787 C425.104908,455.871794 424.905154,455.971293 425.603914,456.3708 C425.303907,457.368813 424.605147,457.269313 424.605147,457.368813 C424.605147,457.968073 425.703414,458.267326 425.703414,458.267326 C425.503661,458.666079 424.705401,459.26534 424.106141,459.065586 C424.405394,459.365593 424.605147,459.664846 424.605147,459.9641 C425.404161,460.263353 426.402928,460.462352 427.600694,460.562606 C429.996981,460.863367 431.394501,460.763113 432.89152,460.662859 C433.59028,460.562606 434.38854,460.462352 435.187553,460.462352 C436.485574,460.561852 437.483587,460.762359 437.68334,460.762359 C439.08086,460.662106 442.47516,460.462352 443.373673,459.464339 C443.473927,459.26534 443.573426,459.065586 443.573426,458.865833 C443.573426,458.766333 443.573426,458.666079 443.473927,458.56658 C443.473927,458.267326 443.274173,458.067573 443.07442,457.86782 C442.075653,457.368813 439.780374,458.167827 438.98136,458.46708 C437.982593,458.767087 437.383333,458.96684 435.68656,459.266093 C434.18954,459.465847 429.797227,459.865354 428.199954,458.567333 C427.700194,458.16858 427.400941,457.56932 427.301441,456.87056 C427.201187,455.972047 427.501194,455.274041 428.000201,454.774281 C428.599461,454.075521 429.597474,453.776268 431.294247,453.776268 C431.993007,453.776268 432.99102,453.876521 434.38854,453.976021 C434.788047,453.576514 435.88556,452.778254 437.18358,452.877754 C438.880353,452.877754 438.780853,453.177761 439.679366,453.277261 C440.477626,453.277261 441.376139,452.978008 441.376139,452.978008 C441.376139,452.978008 441.276639,453.277261 441.076886,453.477014 C440.877133,453.676768 440.577879,453.776268 440.577879,453.776268 C440.577879,453.776268 441.476393,453.676768 442.175153,453.776268 C442.973412,453.875767 443.672172,454.674781 443.672172,454.674781 C443.672172,454.674781 442.873913,454.574527 442.175153,454.674781 C441.476393,454.87378 441.076886,455.273287 440.278626,455.273287 C439.68012,455.273287 439.280613,455.073534 439.280613,455.073534 C439.280613,455.073534 439.280613,455.372787 439.480367,455.57254 C439.77962,455.772294 440.179126,455.871794 440.179126,455.871794 C440.179126,455.871794 438.082847,456.570553 436.18632,456.071547 C434.887546,455.871794 434.488794,455.473041 434.28904,455.273287 L431.294247,455.173787 C430.196734,455.173787 429.397721,455.373541 429.098468,455.672794 C428.998968,455.872547 428.799214,456.371554 428.799214,456.771061 C428.899468,456.97006 428.998968,457.270067 429.198721,457.369567 C430.396488,458.36758 434.190294,457.968827 435.388061,457.769074 C436.885834,457.469821 437.285341,457.369567 438.682861,456.97006 C440.379634,456.2713 442.376414,455.772294 443.973687,456.570553 C444.572947,456.869807 444.9717,457.269313 445.171453,458.067573 Z M421.312609,456.770307 C421.512362,456.570553 422.211122,456.071547 421.811615,455.472287 C421.512362,454.773527 420.613849,455.07278 420.414095,455.173034 C420.414095,455.07278 418.517569,454.27452 418.517569,454.27452 L417.818809,455.173034 C417.818809,455.173034 417.019795,454.27452 417.120049,454.27452 C417.020549,454.27452 415.223523,455.073534 415.223523,455.173034 C414.924269,455.07278 414.125256,454.773527 413.726503,455.472287 C413.42725,456.070793 414.025756,456.570553 414.325009,456.770307 L413.726503,457.868574 L415.423276,459.964853 L415.423276,461.262873 L416.122036,461.76188 C416.321789,462.260886 416.321789,462.56014 416.421289,462.860147 C416.521543,462.958893 417.120049,463.059146 417.719309,463.158646 L417.819563,463.158646 C418.418069,463.058392 419.116829,462.958139 419.116829,462.860147 C419.216329,462.56014 419.316582,462.260886 419.416082,461.76188 L420.114842,461.262873 L420.114842,459.964853 L421.911869,457.868574 L421.312609,456.770307 Z M415.323022,456.87056 L416.919542,456.87056 L416.820042,457.769074 L415.323022,456.87056 Z M418.917076,457.76832 C418.917076,457.86782 419.116829,459.964853 419.116829,459.964853 L418.018562,460.56336 L418.018562,461.363127 C418.018562,461.363127 418.218316,461.562127 418.418069,461.562127 C418.817576,461.762634 419.216329,461.66238 419.216329,461.66238 L419.316582,461.66238 L419.216329,461.960879 C419.116829,461.960879 418.717322,462.061133 418.418069,461.960879 C418.232635,461.897487 418.062616,461.795784 417.919063,461.66238 L417.719309,461.66238 C417.619809,461.66238 417.519556,461.862887 417.220303,461.960879 C416.820796,462.061133 416.421289,461.960879 416.421289,461.960879 L416.321789,461.960879 L416.321789,461.66238 L416.421289,461.66238 C416.421289,461.66238 416.720542,461.762634 417.120049,461.562127 C417.319802,461.562127 417.519556,461.363127 417.619056,461.363127 L417.619056,460.56336 C417.519556,460.56336 416.421289,459.7651 416.421289,459.7651 L418.517569,459.7651 L418.517569,456.869807 L420.414095,456.869807 C420.414095,456.87056 419.016575,457.76832 418.917076,457.76832 Z M432.992528,472.243279 C433.192281,472.044279 433.291781,471.944779 433.291781,471.744272 C433.291781,471.645526 433.192281,471.545273 433.092027,471.245266 C432.892274,471.046266 432.892274,470.846513 432.892274,470.54726 C432.892274,469.747492 433.391281,468.749479 433.691288,468.350726 C433.592103,468.25066 433.49235,468.151159 433.392034,468.052227 L433.292535,467.951973 C433.092781,467.85172 432.694028,467.55322 432.493521,467.152206 C432.493521,467.152206 432.394021,467.152206 432.394021,467.05346 C431.895015,467.05346 430.796748,467.05346 429.698481,467.351959 C429.997735,467.552466 430.097988,467.850966 430.097988,468.150219 C429.482001,467.970814 428.83275,467.93701 428.201462,468.051473 C428.401215,468.349972 428.600969,468.749479 428.700468,468.849733 C429.199475,469.549246 429.898235,470.54726 430.497495,471.14652 C430.596995,471.245266 430.697248,471.345519 430.697248,471.545273 C430.697248,471.843772 430.397995,472.443032 430.098742,473.042292 L429.999242,473.441045 L429.100729,475.537325 L429.001229,475.537325 C428.900976,475.537325 427.503456,475.637579 427.004449,475.637579 C426.505443,475.537325 426.105936,475.637579 425.906182,475.836578 L425.906182,476.236839 C425.805929,476.335585 425.706429,476.435838 425.706429,476.435838 L425.706429,476.536092 C426.005682,476.435838 426.205436,476.435838 426.205436,476.435838 C426.205436,476.435838 426.405189,476.636345 426.304935,476.836099 C426.304935,477.035098 426.205436,477.134598 426.105182,477.234852 C426.105182,477.234852 426.204682,477.234852 426.204682,477.335105 C426.503935,477.134598 426.803942,477.134598 426.803942,477.134598 C426.803942,477.134598 427.003695,477.433098 427.003695,477.633605 C426.904196,477.834112 426.904196,477.834112 426.803942,477.932104 C427.202695,478.032358 428.201462,477.733105 428.799968,477.633605 L429.698481,477.335105 C430.097988,477.234852 430.397241,477.134598 430.596995,476.836099 L430.796748,476.335585 C430.897002,476.136585 430.996501,475.836578 431.096001,475.637579 C431.395254,475.238826 431.695261,474.539312 431.994515,473.940052 C432.393268,473.142546 432.693275,472.543286 432.992528,472.243279 Z M414.22551,464.35792 C413.926256,464.756673 413.426496,464.95718 412.727736,465.055926 C412.827236,464.35792 412.727736,463.959167 412.527983,463.46016 C412.328229,462.959646 411.729723,462.161387 411.630223,461.66238 C411.52997,461.461873 411.52997,461.363881 411.43047,461.263627 C410.531957,460.564113 409.533943,459.765854 409.034937,459.067094 C408.934683,458.967594 408.735684,458.368334 408.435677,457.270067 L408.235923,456.771061 L408.235923,456.471807 C407.93667,455.673548 407.736917,455.174541 407.637417,455.074288 L407.437664,455.074288 C407.437664,455.074288 407.338164,455.373541 406.938657,455.274041 L406.63865,455.274041 L406.53915,455.373541 C406.738904,455.573294 406.937903,455.872547 406.937903,455.872547 C406.937903,455.872547 406.838404,456.171801 406.53915,456.272054 C406.239897,456.272054 406.03939,456.072301 406.03939,456.072301 L406.03939,455.872547 C405.93989,456.072301 405.93989,456.371554 405.93989,456.571307 C406.239143,456.771061 406.53915,457.070314 406.53915,457.070314 C406.53915,457.070314 406.53915,457.369567 406.239897,457.469821 C406.125335,457.569376 405.954953,457.569376 405.84039,457.469821 C405.84039,457.769074 405.940644,458.068327 406.239897,458.36758 L407.137657,459.06634 L407.23791,459.16584 C407.537163,459.8646 407.836417,460.463106 408.036924,460.663613 C408.136424,460.763867 408.435677,461.262873 409.13519,462.56014 C410.233457,464.35792 411.730477,466.953206 412.129984,467.452213 C412.229483,467.552466 413.32775,467.351959 414.326517,466.852953 C414.025756,465.85494 414.325009,465.25568 414.22551,464.35792 Z M444.771947,458.167827 C444.572193,457.469067 444.27294,457.169814 443.773933,456.97006 C442.376414,456.171047 440.479133,456.770307 438.78236,457.369567 C437.384841,457.769074 436.985334,457.968827 435.488314,458.16858 C433.891041,458.368334 430.197488,458.86734 428.899468,457.769074 C428.699715,457.56932 428.400461,457.070314 428.400461,456.771061 C428.400461,456.272054 428.600215,455.672794 428.799968,455.373541 C429.199475,454.974034 429.997735,454.774281 431.295755,454.774281 L434.390048,454.774281 L434.589801,454.574527 L434.390048,454.374774 C432.992528,454.27452 431.994515,454.175021 431.295755,454.175021 C429.698481,454.175021 428.799968,454.474274 428.300962,455.073534 C427.901455,455.473041 427.701701,456.071547 427.701701,456.87056 C427.801955,457.369567 428.000955,457.868574 428.500715,458.26808 C429.898235,459.366347 433.891041,459.06634 435.588568,458.767087 C437.285341,458.467834 437.784347,458.36758 438.78236,458.067573 L438.882614,458.067573 C439.781127,457.76832 442.17666,456.969306 443.274927,457.568567 C443.57418,457.66882 443.773933,457.968073 443.973687,458.36758 C444.073187,458.96684 443.973687,459.366347 443.674434,459.6656 C442.676421,460.962866 439.382374,461.06312 437.684848,461.163374 L437.584594,461.163374 C437.584594,461.163374 436.585827,460.962866 435.188307,460.962866 C434.389294,460.962866 433.691288,460.962866 432.892274,461.06312 C431.494754,461.163374 429.997735,461.263627 427.501948,460.962866 C426.525403,460.871614 425.557404,460.704778 424.606655,460.46386 C424.507155,460.763867 424.406901,461.163374 424.207902,461.66238 C424.107648,462.161387 423.509142,462.959646 423.309389,463.46016 C423.109635,463.959167 423.010135,464.35792 423.109635,465.055926 C422.410875,464.95718 421.911869,464.757427 421.712115,464.35792 C421.512362,465.554933 422.111622,466.254446 420.714102,468.250473 C420.614602,467.651212 419.815589,467.452213 419.815589,466.852953 C419.615836,467.452213 420.015342,467.850966 419.416082,469.049486 C419.316582,469.347985 418.418069,470.546506 418.018562,470.845759 C417.818809,471.645526 417.519556,473.042292 417.219549,474.240813 C416.820042,475.737832 416.420535,476.536092 416.221536,476.736599 L416.221536,476.836853 L416.121282,476.836853 C415.622276,476.935599 414.524009,476.935599 414.125256,476.935599 C413.726503,476.935599 413.326242,476.935599 413.026989,477.136106 C413.127428,477.25005 413.127428,477.420915 413.026989,477.534859 C412.927489,477.735366 412.827236,477.735366 412.727736,477.834866 L412.827236,477.834866 C413.126489,477.734612 413.426496,477.734612 413.426496,477.734612 C413.426496,477.734612 413.525996,478.033112 413.426496,478.333872 C413.326242,478.432618 413.326242,478.532872 413.226743,478.532872 C413.226743,478.633125 413.326242,478.633125 413.326242,478.733379 C413.625496,478.532872 414.025002,478.532872 414.025002,478.532872 C414.025002,478.532872 414.224756,478.733379 414.124502,479.132132 C414.025002,479.232386 414.025002,479.332639 413.924749,479.332639 C414.423755,479.431385 415.621522,479.132132 416.320282,478.932379 L417.119295,478.733379 C417.618302,478.633125 417.918309,478.532872 418.117308,478.134119 C418.117308,478.134119 418.216808,477.933612 418.216808,477.735366 L418.317062,477.435359 C418.516815,476.936352 418.715815,476.537599 419.115321,475.938339 C419.914335,474.540819 422.609121,470.248006 422.709375,469.849253 C422.709375,469.550754 422.609875,469.050994 422.509621,468.750987 L422.410121,468.551987 C422.410121,468.551987 430.895494,466.055447 431.394501,465.956701 C431.294247,465.656694 430.895494,465.057434 430.895494,465.057434 L431.194747,464.758934 C431.194747,464.758934 431.893507,465.257941 432.293014,465.656694 C432.592267,465.956701 432.89152,466.456461 433.191527,466.955468 L433.391281,467.154467 C433.690534,467.753727 434.090041,468.15248 434.090041,468.15248 L434.090041,468.252734 C434.090041,468.252734 434.389294,468.75174 435.287807,469.749754 L437.483587,472.146794 L437.483587,472.24554 C437.483587,472.24554 437.184333,473.44406 436.784827,474.74208 C436.485574,475.54034 435.985813,476.4381 435.786814,476.83836 L435.786814,476.937106 L433.790034,476.937106 C433.291027,476.937106 432.89152,477.03736 432.691767,477.137613 C432.691767,477.338121 432.791267,477.436113 432.691767,477.63662 C432.592267,477.736873 432.492014,477.837127 432.392514,477.837127 L432.492014,477.935873 C432.791267,477.837127 432.99102,477.837127 432.99102,477.837127 C432.99102,477.837127 433.190773,478.036127 433.091274,478.336134 C433.091274,478.535133 432.99102,478.634633 432.89152,478.634633 L432.99102,478.734887 C433.290273,478.534379 433.790034,478.534379 433.790034,478.534379 C433.790034,478.534379 433.889533,478.734887 433.889533,479.033386 C433.790034,479.13364 433.68978,479.233893 433.68978,479.333393 C434.089287,479.333393 434.9878,479.132886 435.486807,478.933132 L436.38532,478.734133 C436.884326,478.633879 437.08408,478.434126 437.283833,478.134873 C437.383333,478.034619 437.88234,476.936352 438.082847,476.437346 C438.581853,475.14008 439.380867,473.542806 439.879873,472.645047 L440.179126,472.14604 C440.37888,471.945533 440.47838,471.74578 440.47838,471.54678 C440.47838,471.346273 440.47838,471.346273 440.278626,471.246773 C440.078873,471.148027 439.77962,470.948274 439.280613,470.448514 C438.581853,469.550754 438.581853,467.952727 438.581853,466.455707 L438.581853,465.357441 C438.581853,463.959921 438.2826,462.9604 438.182347,462.461394 L438.082847,462.162894 L438.2826,462.162894 C439.879873,462.062641 443.17392,461.764141 444.37244,460.266368 C444.8722,459.6656 444.9717,458.96684 444.771947,458.167827 Z M454.954846,465.754686 L456.152613,465.754686 L458.947652,470.745505 L458.947652,465.754686 L459.845412,465.754686 L459.845412,471.944026 L458.648399,471.944026 L455.853359,466.852953 L455.853359,471.944026 L454.954846,471.944026 L454.954846,465.754686 Z M464.038725,470.246499 L464.038725,469.846992 L463.439465,469.846992 C463.039958,469.846992 461.842192,469.846992 461.842192,470.646759 C461.842192,471.14652 462.341198,471.445019 462.740705,471.445019 C463.539718,471.445019 464.038725,470.845759 464.038725,470.246499 Z M461.542939,468.450226 L461.542939,467.750712 C461.942445,467.552466 462.441452,467.351959 463.040712,467.351959 C464.338732,467.351959 464.837739,467.951219 464.837739,469.248486 L464.837739,471.944026 L464.038725,471.944026 L464.038725,471.344765 C463.838972,471.645526 463.439465,472.044279 462.641205,472.044279 C461.643192,472.044279 461.043932,471.644772 461.043932,470.646759 C461.043932,469.548493 462.241698,469.148232 463.140212,469.148232 L464.038725,469.148232 C464.038725,468.450226 463.739472,468.051473 462.840959,468.051473 C462.441452,468.051473 461.942445,468.150219 461.542939,468.450226 Z M468.630791,468.150219 L467.433025,468.150219 L467.433025,470.646759 C467.433025,471.145766 467.732278,471.445019 468.131785,471.445019 C468.431038,471.445019 468.631545,471.344765 468.731045,471.244512 L468.731045,471.944026 C468.530538,472.044279 468.231285,472.044279 468.031531,472.044279 C467.133018,472.044279 466.634011,471.645526 466.634011,470.745505 L466.634011,468.150219 L465.635244,468.150219 L465.635244,467.452213 L466.634011,467.452213 L466.634011,466.353946 L467.433025,466.153439 L467.433025,467.452213 L468.630791,467.452213 L468.630791,468.150219 Z M469.829312,471.944026 L469.829312,467.452213 L470.627571,467.452213 L470.627571,471.944026 L469.829312,471.944026 Z M469.729058,466.4542 L469.729058,465.456187 L470.727071,465.456187 L470.727071,466.4542 L469.729058,466.4542 Z M472.723851,469.747492 C472.723851,470.54726 473.222858,471.445019 474.220871,471.445019 C475.119384,471.445019 475.618391,470.54726 475.618391,469.747492 C475.618391,468.849733 475.01913,468.051473 474.220871,468.051473 C473.323111,468.051473 472.723851,468.849733 472.723851,469.747492 Z M471.825338,469.747492 C471.825338,468.350726 472.824105,467.351959 474.220871,467.351959 C475.518137,467.351959 476.517658,468.349972 476.517658,469.747492 C476.517658,471.046266 475.518137,472.044279 474.220871,472.044279 C472.823351,472.044279 471.825338,471.046266 471.825338,469.747492 Z M477.614417,467.452213 L478.414184,467.452213 L478.414184,468.150219 C478.712683,467.651212 479.311944,467.351959 479.911204,467.351959 C481.109724,467.351959 481.60873,468.051473 481.60873,469.248486 L481.60873,471.944026 L480.808963,471.944026 L480.808963,469.647239 C480.808963,468.55048 480.510464,468.051473 479.81095,468.051473 C478.812937,468.051473 478.41343,468.749479 478.41343,469.847746 L478.41343,471.944026 L477.613663,471.944026 L477.613663,467.452213 L477.614417,467.452213 Z M485.70179,470.246499 L485.70179,469.846992 L485.202784,469.846992 C484.703777,469.846992 483.60551,469.846992 483.60551,470.646759 C483.60551,471.14652 484.104517,471.445019 484.50327,471.445019 C485.30153,471.445019 485.70179,470.845759 485.70179,470.246499 Z M483.30475,468.450226 L483.207511,467.750712 C483.706518,467.552466 484.205524,467.351959 484.704531,467.351959 C486.001797,467.351959 486.601057,467.951219 486.601057,469.248486 L486.601057,471.944026 L485.80129,471.944026 L485.80129,471.344765 C485.60229,471.645526 485.203537,472.044279 484.40377,472.044279 C483.405757,472.044279 482.707751,471.644772 482.707751,470.646759 C482.707751,469.548493 484.004263,469.148232 484.802523,469.148232 L485.70179,469.148232 C485.70179,468.450226 485.401783,468.051473 484.603524,468.051473 C484.104517,468.051473 483.604757,468.150219 483.30475,468.450226 Z M488.096569,465.355933 L488.894829,465.355933 L488.894829,471.944026 L488.096569,471.944026 L488.096569,465.355933 Z M497.580709,469.448993 C497.580709,471.14652 496.681442,472.044279 495.183668,472.044279 C493.586395,472.044279 492.788135,471.14652 492.788135,469.448993 L492.788135,465.75544 L493.685895,465.75544 L493.685895,469.249239 C493.685895,470.44776 493.985902,471.345519 495.182915,471.345519 C496.281181,471.345519 496.679934,470.44776 496.679934,469.249239 L496.679934,465.75544 L497.579201,465.75544 L497.579201,469.448993 L497.580709,469.448993 Z M499.078482,467.452213 L499.876742,467.452213 L499.876742,468.150219 C500.176749,467.651212 500.774502,467.351959 501.373762,467.351959 C502.572282,467.351959 503.071289,468.051473 503.071289,469.248486 L503.071289,471.944026 L502.271521,471.944026 L502.271521,469.647239 C502.271521,468.55048 501.973022,468.051473 501.273508,468.051473 C500.375749,468.051473 499.875988,468.749479 499.875988,469.847746 L499.875988,471.944026 L499.077729,471.944026 L499.077729,467.452213 L499.078482,467.452213 Z M504.568308,467.452213 L505.466068,467.452213 L505.466068,471.944026 L504.568308,471.944026 L504.568308,467.452213 Z M504.568308,465.456187 L505.466068,465.456187 L505.466068,466.4542 L504.568308,466.4542 L504.568308,465.456187 Z M508.959867,471.944026 L507.961854,471.944026 L506.364581,467.452213 L507.263848,467.452213 L508.460861,471.14652 L508.561114,471.14652 L509.759635,467.452213 L510.657394,467.452213 L508.959867,471.944026 Z M512.054914,469.248486 L514.351701,469.248486 C514.351701,468.55048 513.952948,468.051473 513.253434,468.051473 C512.455174,468.051473 512.054914,468.649226 512.054914,469.248486 Z M514.850707,470.946012 L514.851461,470.946012 L514.851461,471.745026 C514.552208,471.944779 514.252201,472.045033 513.453941,472.045033 C511.856668,472.045033 511.157154,471.14652 511.157154,469.647992 C511.157154,468.250473 511.956168,467.352713 513.253434,467.352713 C514.750454,467.352713 515.24946,468.45098 515.24946,469.947999 L512.054914,469.947999 C512.054914,470.745505 512.753674,471.445019 513.551934,471.445019 C514.05094,471.445019 514.6502,471.14652 514.850707,470.946012 Z M516.347727,467.452213 L517.145987,467.452213 L517.145987,468.150219 C517.346494,467.651212 517.8455,467.351959 518.344507,467.351959 L518.943767,467.351959 L518.943767,468.150219 C518.74326,468.051473 518.545014,468.051473 518.444761,468.051473 C517.646501,468.051473 517.24624,468.749479 517.24624,469.947999 L517.24624,471.944026 L516.348481,471.944026 L516.348481,467.452213 L516.347727,467.452213 Z M519.44202,471.046266 C519.840773,471.344765 520.241787,471.445019 520.540287,471.445019 C520.93904,471.445019 521.338546,471.244512 521.338546,470.745505 C521.338546,469.947246 519.44202,470.047499 519.44202,468.749479 C519.44202,467.751466 520.141534,467.351959 521.039293,467.351959 C521.438046,467.351959 521.738807,467.452213 522.037306,467.552466 L521.937053,468.250473 C521.836799,468.150219 521.337793,468.051473 521.138793,468.051473 C520.639786,468.051473 520.339026,468.150219 520.339026,468.55048 C520.339026,469.448239 522.23706,469.248486 522.23706,470.646759 C522.23706,471.644772 521.537546,472.044279 520.639786,472.044279 C520.241033,472.044279 519.840019,472.044279 519.441266,471.843772 L519.441266,471.046266 L519.44202,471.046266 Z M523.33608,467.452213 L524.23384,467.452213 L524.23384,471.944026 L523.33608,471.944026 L523.33608,467.452213 Z M523.33608,465.456187 L524.23384,465.456187 L524.23384,466.4542 L523.33608,466.4542 L523.33608,465.456187 Z M528.127146,468.150219 L526.930133,468.150219 L526.930133,470.646759 C526.930133,471.145766 527.228633,471.445019 527.628139,471.445019 C527.928146,471.445019 528.127146,471.344765 528.2274,471.244512 L528.2274,471.944026 C528.026892,472.044279 527.828647,472.044279 527.527886,472.044279 C526.630126,472.044279 526.130366,471.645526 526.130366,470.745505 L526.130366,468.150219 L525.132353,468.150219 L525.132353,467.452213 L526.130366,467.452213 L526.130366,466.353946 L526.930133,466.153439 L526.930133,467.452213 L528.127146,467.452213 L528.127146,468.150219 Z M528.82666,473.241292 L529.225413,473.241292 C530.02518,473.241292 530.223426,472.243279 530.223426,472.144533 C530.223426,472.044279 530.123172,471.844526 530.123172,471.645526 L528.525899,467.452967 L529.425166,467.452967 L530.722432,471.245266 L531.920953,467.452967 L532.818712,467.452967 L531.121185,472.045033 C530.822686,472.942792 530.523433,473.941559 529.425166,473.941559 C529.125159,473.941559 528.926159,473.941559 528.825906,473.841306 L528.825906,473.241292 L528.82666,473.241292 Z M455.453099,480.229645 C455.453099,481.027905 455.952105,481.927172 456.850619,481.927172 C457.848632,481.927172 458.347638,481.027905 458.347638,480.229645 C458.347638,479.331885 457.749132,478.532118 456.850619,478.532118 C455.952105,478.532118 455.453099,479.331885 455.453099,480.229645 Z M454.555339,480.229645 C454.555339,478.832879 455.553352,477.834866 456.851372,477.834112 C458.248892,477.834112 459.147406,478.832125 459.147406,480.229645 C459.147406,481.526911 458.248892,482.625178 456.851372,482.625178 C455.553352,482.625178 454.555339,481.526911 454.555339,480.229645 Z M460.844179,478.632372 L459.745912,478.632372 L459.745912,477.932858 L460.844179,477.932858 L460.844179,477.534105 C460.844179,476.435838 461.143432,475.737832 462.341198,475.737832 L462.939705,475.737832 L462.939705,476.435838 C462.840205,476.435838 462.640451,476.335585 462.540952,476.335585 C461.741938,476.335585 461.741938,476.836099 461.741938,477.433851 L461.741938,477.932858 L462.939705,477.932858 L462.939705,478.632372 L461.741938,478.632372 L461.741938,482.426178 L460.843425,482.426178 L460.843425,478.632372 L460.844179,478.632372 Z M468.930045,477.235606 C468.431038,477.035098 468.232038,476.935599 467.733032,476.935599 C467.234025,476.935599 466.634765,477.136106 466.634765,477.735366 C466.634765,478.932379 469.331059,478.733379 469.331059,480.730159 C469.331059,482.027425 468.331538,482.626685 467.034272,482.626685 C466.635519,482.626685 466.136512,482.427686 465.737006,482.328186 L465.836505,481.528419 C466.135759,481.628672 466.735019,481.828426 467.134525,481.828426 C467.633532,481.828426 468.332292,481.528419 468.332292,480.830413 C468.332292,479.432139 465.737006,479.832399 465.737006,477.835619 C465.737006,476.737353 466.535265,476.138093 467.733786,476.138093 C468.132539,476.138093 468.632299,476.238346 469.031052,476.436592 L468.930045,477.235606 Z M470.527318,477.932858 L471.425077,477.932858 L471.425077,482.426178 L470.527318,482.426178 L470.527318,477.932858 Z M470.527318,476.037085 L471.425077,476.037085 L471.425077,476.934845 L470.527318,476.934845 L470.527318,476.037085 Z M472.923604,477.932858 L473.721864,477.932858 L473.721864,478.632372 C474.020364,478.133365 474.619624,477.834112 475.218884,477.834112 C476.417404,477.834112 476.916411,478.532118 476.916411,479.830138 L476.916411,482.425424 L476.116643,482.425424 L476.116643,480.128637 C476.116643,479.030371 475.818144,478.531364 475.11863,478.531364 C474.220871,478.531364 473.72111,479.230878 473.72111,480.329145 L473.72111,482.425424 L472.922851,482.425424 L472.922851,477.932858 L472.923604,477.932858 Z M480.210457,481.826918 C481.00947,481.826918 481.509231,481.127404 481.509231,480.229645 C481.509231,479.331885 481.109724,478.532118 480.210457,478.532118 C479.311944,478.532118 478.913191,479.429878 478.913191,480.229645 C478.913191,481.027151 479.412197,481.826918 480.210457,481.826918 Z M482.306737,477.932858 L482.305229,477.932858 L482.305229,482.325925 C482.305229,483.622437 481.607223,484.422204 480.00995,484.422204 C479.510943,484.422204 479.110683,484.422204 478.412676,484.122197 L478.51293,483.323938 C479.110683,483.622437 479.510943,483.722691 480.110203,483.722691 C481.008717,483.722691 481.507723,483.223684 481.507723,482.225671 L481.507723,481.726665 C481.10897,482.225671 480.50971,482.426178 480.010703,482.426178 C478.712683,482.426178 478.014677,481.428165 478.014677,480.229645 C478.014677,479.131378 478.712683,477.834112 480.110957,477.834112 C480.909217,477.834112 481.30797,478.133365 481.508477,478.632372 L481.60873,478.632372 L481.60873,477.932858 L482.306737,477.932858 Z M486.499296,480.728651 L486.499296,480.329145 L485.900036,480.329145 C485.501283,480.329145 484.302763,480.329145 484.302763,481.127404 C484.302763,481.627165 484.801769,481.927172 485.20203,481.927172 C486.00029,481.927172 486.499296,481.428165 486.499296,480.728651 Z M484.004263,478.931625 L484.005771,478.931625 L484.005771,478.232111 C484.404524,478.032358 484.903531,477.833358 485.502791,477.833358 C486.801564,477.833358 487.300571,478.431111 487.300571,479.729885 L487.300571,482.426178 L486.601057,482.426178 L486.601057,481.927172 L486.500804,481.927172 C486.301804,482.126171 485.901544,482.625178 485.103284,482.625178 C484.105271,482.625178 483.506011,482.126171 483.506011,481.128158 C483.506011,480.029891 484.704531,479.631139 485.60229,479.631139 C485.90079,479.631139 486.101297,479.631139 486.50005,479.731392 C486.50005,478.931625 486.200797,478.532872 485.30153,478.532872 C484.902023,478.532872 484.403016,478.732625 484.004263,478.931625 Z M492.089376,480.229645 C492.189629,479.331885 491.790876,478.532118 490.892363,478.532118 C489.993096,478.532118 489.494089,479.331885 489.494089,480.229645 C489.494089,480.929159 489.89435,481.927172 490.892363,481.927172 C491.790876,481.927172 492.189629,480.929159 492.089376,480.229645 Z M488.69583,484.322705 L488.69583,477.932858 L489.494089,477.932858 L489.494089,478.632372 C489.794096,478.232865 490.293103,477.834112 491.091362,477.834112 C492.390136,477.834112 492.987889,478.930871 492.987889,480.129391 C492.987889,481.327912 492.488882,482.625178 491.091362,482.625178 C490.293857,482.625178 489.79485,482.225671 489.594343,481.826918 L489.494089,481.826918 L489.494089,484.322705 L488.69583,484.322705 Z M494.685416,480.229645 C494.685416,481.027905 495.184422,481.927172 496.182435,481.927172 C497.081702,481.927172 497.580709,481.027905 497.580709,480.229645 C497.580709,479.331885 497.081702,478.532118 496.182435,478.532118 C495.284676,478.532118 494.685416,479.331885 494.685416,480.229645 Z M493.786902,480.229645 C493.786902,478.832879 494.784915,477.834866 496.182435,477.834112 C497.481209,477.834112 498.479222,478.832125 498.479222,480.229645 C498.479222,481.526911 497.481209,482.625178 496.182435,482.625178 C494.784915,482.625178 493.786902,481.526911 493.786902,480.229645 Z M499.577489,477.932858 L500.375749,477.932858 L500.375749,478.632372 C500.576256,478.133365 501.075262,477.834112 501.574269,477.834112 C501.773268,477.834112 501.872768,477.834112 502.073275,477.932858 L502.073275,478.632372 C501.973022,478.632372 501.773268,478.532118 501.674522,478.532118 C500.874755,478.532118 500.375749,479.231632 500.375749,480.428644 L500.375749,482.426178 L499.577489,482.426178 L499.577489,477.932858 Z M503.570295,479.730638 L505.965828,479.730638 C505.965828,479.131378 505.567075,478.532118 504.867561,478.532118 C503.969048,478.532118 503.670549,479.231632 503.570295,479.730638 Z M506.464835,481.428165 L506.465588,481.428165 L506.465588,482.327432 C506.166335,482.426932 505.767582,482.625932 505.068068,482.625932 C503.470795,482.625932 502.771282,481.627165 502.771282,480.130145 C502.771282,478.832879 503.570295,477.834866 504.867561,477.834866 C506.364581,477.834866 506.863588,478.931625 506.863588,480.428644 L503.570295,480.428644 C503.570295,481.327912 504.269055,481.927172 505.067315,481.927172 C505.666575,481.927172 506.265835,481.627165 506.464835,481.428165 Z M512.354921,453.376007 C514.05094,454.97328 517.445994,456.3708 521.539053,456.4703 C525.133107,456.5698 528.026892,455.472287 528.2274,452.477494 C528.626153,446.088401 512.054914,448.584187 512.754428,437.703282 C513.052927,432.312956 518.444761,430.515929 524.234593,430.615429 C527.42914,430.615429 530.524186,431.414442 532.320459,432.312202 L532.320459,436.106009 C530.22418,434.708489 527.229386,433.809975 524.833854,433.709722 C521.140301,433.709722 518.145507,434.308982 518.145507,437.003768 C518.045254,442.694101 534.715238,441.296581 534.117486,452.077987 C533.717225,458.167827 527.827893,460.064353 521.638553,459.9641 C518.0445,459.8646 514.551454,459.165086 512.454421,458.066819 L512.354921,453.376007 Z M496.781695,459.964853 C489.095336,459.964853 484.703777,456.570553 484.703777,449.482701 L484.703777,431.414442 L490.39411,431.414442 L490.39411,449.482701 C490.39411,453.875767 492.589136,456.471054 496.782449,456.471054 C500.975763,456.471054 503.072042,453.875767 503.072042,449.482701 L503.072042,431.414442 L508.862629,431.414442 L508.862629,449.482701 C508.861121,456.570553 504.468055,459.964853 496.781695,459.964853 Z M475.319137,431.414442 L479.11219,431.414442 L479.11219,459.06634 L474.820885,459.06634 C473.622364,459.06634 472.624351,458.46708 471.924838,457.568567 L458.848152,438.801548 L458.848152,459.06634 L454.954846,459.06634 L454.954846,431.414442 L459.347159,431.414442 C460.445426,431.414442 461.542939,432.013703 462.142199,432.911462 L475.319137,451.679234 L475.319137,431.414442 Z" id="Combined-Shape"></path>
        </g>
    </g>
</svg>