<svg xmlns="http://www.w3.org/2000/svg" xmlns:xlink="http://www.w3.org/1999/xlink" id="Layer_1" x="0" y="0" version="1.1" viewBox="0 0 346.1 445.9" xml:space="preserve" style="enable-background:new 0 0 346.1 445.9"><style type="text/css">.st0{fill:#f2d02a}.st1{fill:#8c623a}.st2{fill:#db2f2d}.st3{fill:#5d4429}.st4{fill:#d29d62}.st5{fill:#5089c8}</style><g id="Bear"><g id="Buttons"><path d="M136.8,249.2c0-3-0.2-6,0.2-9c0.1-0.7,2.3-1.6,3.4-1.6c0.8,0,2.2,1.9,2,2.6c-0.9,2.9-2.3,5.7-3.5,8.6 C138.2,249.6,137.5,249.4,136.8,249.2z" class="st0"/><path d="M137.6,285.1c0.4,2.8,0.8,5.6,1.2,8.9c-1.9,0.5-3.6,1-6.9,1.8c1.4-4.6,2.3-7.9,3.3-11.2 C136,284.8,136.8,285,137.6,285.1z" class="st0"/><path d="M131.2,303.5c2.9,0.1,4.4,0.2,6.2,0.3c0,1.7,0,3.1,0,4.8c-0.9,0.2-2.3,0.8-2.6,0.5 C133.5,307.7,132.7,306,131.2,303.5z" class="st0"/><path d="M144.1,230.7c-2.1,0-3.5,0-5.7,0c1.2-2.4,2.1-4.2,3-6c0.4,0,0.7,0,1.1-0.1C143,226.5,143.5,228.4,144.1,230.7 z" class="st0"/><path d="M132.2,297.9c1.9-0.2,3.7-0.4,6.9-0.7c-1,1.9-1.6,3.8-2.2,3.8c-1.7,0-3.5-0.7-5.2-1.1 C131.8,299.3,132,298.6,132.2,297.9z" class="st0"/></g><g id="Case"><path d="M289.9,420.2c-3.5,1.2-7.1,2.2-10.5,3.6c-10.6,4.3-21.1,8.8-29.9,12.5c-4.4-3.7-8.4-6.6-11.8-10 c-1.3-1.3-1.9-3.8-2-5.7c-0.4-16.5-0.6-32.9-0.9-49.4c0-0.8,0.2-1.7-0.1-2.5c-2.3-7.7-0.4-14.2,5.6-19.4c2.3-2,4.7-4.2,7.5-5.3 c22.9-8.9,46.2-16.9,68.8-26.5c9.2-3.9,15,0.7,21.9,3.8c0.4,2.2,0.8,4.4,1.3,6.6c-0.3,0.9-0.9,1.8-0.9,2.7 c0.7,14.1,1.1,28.2,2.4,42.3c0.6,6.1,0.5,11.4-3.8,16.2c-3.8,4.3-7,9.3-11.5,12.8c-4.1,3.2-9.4,4.8-14.2,7.1 c-0.7,1-1.2,2.4-2.2,2.9c-5.7,2.8-11.6,5.4-17.4,8.1C291.6,420.3,290.7,420.1,289.9,420.2z M286.4,352.5c5.2,0.4,4.5,4.1,4.5,7.1 c0.1,7.7-0.1,15.3-0.2,23c0,0.9-0.5,1.8-0.7,2.8c-0.4,1.4-0.8,2.8-1.2,4.2c1.7,0.1,3.6,0.8,5,0.2c4.5-1.8,8.9-3.8,13-6.2 c10.8-6.3,10.8-17.7,0.1-24.1c-0.4-0.2-0.6-0.7-0.9-1c3-7.1,2.6-9.9-1.5-12.2C299.5,343.7,290.2,346.5,286.4,352.5z M272.4,379.4 c3.6-2.9,7.6-5.4,10.6-8.8c5.3-5.9,3.7-15.9-2.4-18.5c-5.6-2.4-16.6,1.8-20,8c1.6,0.6,3.2,1.2,5,1.9c0.7,8.2,1.7,16.2,2.1,24.3 c0.2,3.3,1.5,7.5-3.3,9.4c-0.5,0.2-0.8,2.1-0.5,2.6c0.6,0.7,2.1,1.3,2.9,1c3.6-1.3,7.2-2.6,10.5-4.5c2.2-1.2,1.5-3.2-0.6-4.1 c-0.9-0.4-2.2-0.1-3.5-0.1C272.9,386.8,272.7,383.1,272.4,379.4z M322.7,380.5c-1.7-1.3-2.5-2.4-3.6-2.6c-0.6-0.1-2.3,1.3-2.2,1.8 c0.1,1,1.1,2.5,1.9,2.7C319.7,382.5,320.8,381.4,322.7,380.5z M287.8,390.6c-1.3-1-2.3-2.3-2.8-2.1c-0.9,0.4-1.9,1.5-2.1,2.5 c-0.1,0.5,1.4,1.8,2.2,1.8C285.9,392.8,286.6,391.6,287.8,390.6z" class="st1"/><path d="M217,436.1c-0.8-2.1-2.1-4.1-2.2-6.2c-0.7-21.8-1.2-43.6-1.7-65.3c-0.1-6.9,0-13.9,1-21.7 c1.7,1.6,3.3,3.2,4.9,4.8c2.3,2.4,4.2,5.4,6.9,7.1c5.4,3.5,6.3,8.7,6.4,14.2c0.3,15.6,0.5,31.2,0.7,46.9c0.1,4.4-0.5,8.3-4.6,11.3 c-2.5,1.8-3.9,4.9-6.2,7.1c-1.1,1.1-3.1,1.3-4.6,2l-0.4,0.1L217,436.1z" class="st1"/><path d="M211.9,432.4c-5.2-1.4-8.5-2.9-10.8-7.8c-4.1-8.9-3.5-18.2-4.1-27.4c-1-14.4-1.2-28.9-2.1-43.4 c-0.2-3.6,0.9-5.6,3.6-7.4c1.9-1.3,3.5-3,5.4-4.4c1.1-0.7,2.7-1.6,3.7-1.3c1.1,0.3,2.3,1.9,2.5,3.1c0.6,4.3,0.9,8.6,1,12.9 c0.4,22.1,0.6,44.3,0.9,66.4C211.9,426,211.9,428.8,211.9,432.4z" class="st1"/><path d="M215.4,339.7c6.4-1.6,12.7-3.1,19.1-4.7c1.8-0.4,3.5-1,5.2-1.6c13.9-5,27.7-10.1,41.7-14.8 c3.3-1.1,7.3,0,10.7-1.1c2.7-0.8,4.8-3.6,7.4-5.1c2.8-1.6,6.1-2.4,8.9-4.1c3.2-1.9,6.5-2.6,9.9-1.1c1.3,0.6,3.1,1.8,3.1,2.7 c0.1,1.2-1.1,3.2-2.3,3.7c-4.6,2.2-9.4,4-14.2,5.8c-20,7.6-39.9,15.3-60,22.7c-1.9,0.7-4.3-0.1-6.5-0.1 c-5.6-0.1-11.1-0.1-16.7-0.2c-2,0-4,0-6.1,0C215.7,341.2,215.5,340.5,215.4,339.7z" class="st1"/><path d="M203.8,332.8c9.8-3,19.2-5.9,29.2-9c-0.3,5.6-3.5,8.3-6.8,10.1c-3.7,2.1-8,3.4-12.1,4.7 C209.7,340.1,206.2,338.3,203.8,332.8z" class="st1"/><path d="M282.4,310.8c0.6,1.6,1,2.5,1.6,4.2c-12.8,4.3-25.4,8.6-38.6,13c-0.3-2-0.6-3.4-0.8-4.4 C258.1,321.7,271.4,320.6,282.4,310.8z" class="st1"/><path d="M305.3,307.1c-4,0.7-8.1,5.2-12.4-1.3c4.6,0,8.6,0,12.6,0C305.4,306.3,305.3,306.7,305.3,307.1z" class="st1"/><path d="M295.3,384.1c0-6-0.2-10.9,0.1-15.7c0.2-2.6,6.7-4.8,10.4-3.8c3.7,1,5.2,3.8,4.1,7.6 C308,379.1,302.2,381.2,295.3,384.1z" class="st1"/><path d="M295.7,361c-0.4-2.5-1.1-5.1-1.2-7.6c-0.1-1.1,0.8-2.9,1.5-3.1c1.8-0.4,3.9-0.4,5.6,0.2 c0.7,0.2,1.3,2.9,0.8,3.7c-1.6,2.6-3.7,5-5.6,7.4C296.5,361.5,296.1,361.2,295.7,361z" class="st1"/><path d="M270.7,357.1c4-1.8,8-2.4,9.6,0.8c1.2,2.4,0.5,6.5-0.7,9.2c-1.1,2.5-4.1,4.3-6.2,6.3c-0.5-0.2-1-0.4-1.5-0.6 C271.4,367.5,271.1,362.2,270.7,357.1z" class="st1"/></g><g id="Hat"><path d="M274.8,121.1c-4.9,8.5-12.2,14.3-21.1,18.2c-5.9,2.6-11.7,3.7-18.2,2.4c-5.3-1.1-10.8-1.3-16.4-2 c1.1-2.8-0.1-6.2,3.8-8.4c1.5-0.9,1-5.3,1.5-8.5c5.3-1.7,5.3-1.7-0.9-8.2c1.1-1.8,2.3-3.7,4.2-6.8c-4.3,0.2-7.6,0.4-11,0.6 c1.8-1.4,3.5-2.7,5.3-3.9c-0.3-0.7-0.6-1.4-0.9-2.1c-2.1-1-4.2-1.9-6.4-2.9c0.2-1,1.1-3.1,0.4-3.9c-0.8-1-2.9-1.3-4.5-1.3 c-5.9,0.1-9.8-2.5-11.9-7.9c-1.7-4.5-3.4-8.9-5.3-13.6c-21-9.6-81.8,1.9-93,13.6c2.8-0.8,4.5-1.3,6.6-1.8 c-0.3,2.3-0.5,4.6-0.8,6.8c-0.1,0.2-0.2,0.4-0.3,0.6c-0.8,0.7-2,1.3-2.2,2.2c-1.7,6.6-6.1,8.7-12.4,8.1c-1.3-0.1-2.6,0-4.6,0 c0.4,2.5,0.8,4.5,1.1,6.4c-1.7,2-3.4,3.9-5.7,6.7c-4.5-11.3-7.5-21.4-0.9-31.9c3.9-4,7.9-8,11.8-12c2-2.7,3.9-5.5,5.9-8.2 c0.4-0.4,0.7-0.8,1.1-1.2c3-4.3,5.9-8.6,8.9-12.9c0.4-0.6,0.8-1.3,1.2-1.9c2.3-2.7,4.5-5.4,6.8-8c4.3-3.3,8.6-6.6,12.9-9.9 c0.9,0.1,1.8,0.5,2.7,0.4c6.7-0.8,13.4-2.7,20-2.3c13.2,0.9,24.3,7.1,33.5,16.6c10.8,11.1,21.6,22.1,36.8,27.3 c9.4,3.2,18.8,6.4,28.2,9.5c0.8,0.6,1.6,1.1,2.4,1.7c2.9,1.5,5.7,3,8.6,4.5c1.4,1.1,2.8,2.1,4.3,3.2c1,1.5,1.8,3.1,3,4.4 c3.8,4.1,6.4,8.5,6.1,14.4c-0.2,3.4,0.6,6.9,0.9,10.3C275.6,119.9,275.2,120.5,274.8,121.1z" class="st2"/><path d="M240.1,64.2c1.6,1.2,3.2,2.5,4.8,3.7c1,2.8,2,5.7,3.4,9.8c-7.5-2.7-13.8-5.3-20.3-7.2 c-13.6-4-25.1-11.9-34.4-21.7c-10.1-10.7-20.5-19.5-35.5-23.6c0.9-1.6,1.3-3.4,2.4-4.1c4.2-2.5,8.8-3.9,13.6-1.8 c3,1.3,5.9,2.7,8.8,4.1c0.4,0.5,0.9,1.1,1.3,1.6l0,0c0.3,0,0.6,0.2,0.7,0.5c4.2,4.4,8.2,8.8,12.5,13c1.5,1.5,3.7,2.4,5.5,3.6 c0,0-0.1,0-0.1,0c5.4,3.4,10.7,6.7,16.1,10.1l-0.1-0.1c2.2,1,4.4,2.1,6.7,3.1c0.3,0.3,0.5,0.7,0.8,1 C230.9,59,235.5,61.6,240.1,64.2z" class="st2"/></g><g id="Outline"><path d="M62.4,115.7c3.5-2.2,7-4.5,10.7-6.4c2.5-1.3,3.1-3.1,2.8-5.7c-1.2-12.2-0.1-24.3,2.7-36.2 c1.5-6.4,1.2-6.4-4.9-9.6c-11.5-5.9-23.8-8.9-36.2-11.6c-4.3-0.9-8.9-0.7-13.4-0.6c-1.3,0-3.2,1.4-3.7,2.6 c-2.1,5.4-3.7,10.9-5.5,16.2c4.6,1.2,8.8,2.1,12.9,3.3c2.9,0.9,4.1,3,3.2,6.2c-1.7,6-3.2,12-4.7,18c-5.2-1.7-9.3-3-14.4-4.7 c-1.1,5.1-2.5,9.2-2.8,13.4c-0.5,9-0.1,18-0.5,27C8,138.7,13.7,147,19,155.7c1.1,1.8,1.8,3.8,2.7,5.7c-8.4-9.8-15.1-20.3-15-33.9 c0.1-6.8-0.2-13.7,0.5-20.4c0.4-4.3-2.9-6-4.4-8.9c1.2,0.1,2.5,0.1,3.7,0.2c0.4-1.8,0.8-3.4,1.2-4.9c0.3-1.4,0.7-2.9,1.1-4.8 c-7,2.3-7,2.3-6,9.6C-1,92.9-1,88,3,82.3C2.9,84.2,2.7,86,2.6,88C13,85,15,85,24.9,89.2c1.4-5.5,2.9-10.9,4-16.4 c0.2-0.9-1.3-3-2.2-3.1c-5.5-0.6-11.2-1.5-16.6-0.9c-3.9,0.4-6.5,3.5-5.5,8.4c0.3,1.6-1.1,3.5-1.7,5.2c0-0.7,0-1.3-0.1-2 c-1.2-7.1,0.9-12.1,8.3-14.1c0.9-0.3,2.1-1.2,2.4-2.1c1.8-5.3,3.7-10.6,4.9-16c0.6-2.9,1.7-4.3,4.5-3.9c4.5,0.6,6.3-1.4,6.8-5.6 c0.2-1.3,1.4-2.4,2.2-3.6c-0.4,2.5-0.7,5.1-1,7.3c5.2,1.4,10,2.5,14.6,3.9c8.2,2.3,16.5,4.4,24.4,7.3c2.8,1,4.8,1.1,7.1-0.4 c0.9,2.2,1.7,4.3,2.6,6.5c0.5-0.1,1-0.2,1.4-0.3c-0.7,3.9-1.3,7.8-2.1,11.6c-0.7,3.9-1.5,7.7-2.3,11.8c1.7,0.2,3,0.4,4.3,0.6 c-6.6,10.5-3.6,20.6,0.9,31.9c2.3-2.7,4-4.7,5.7-6.7c-0.3-1.9-0.7-3.9-1.1-6.4c2,0,3.4-0.1,4.6,0c6.3,0.6,10.7-1.5,12.4-8.1 c0.2-0.9,1.5-1.4,2.2-2.2c-0.5,4,0,8.7-4.9,10.4c-3.9,1.3-8,1.9-11.9,2.8c2.2,0.8,4.5,1.6,6.8,2.4c-6.7,2.7-8.7,4.2-9.8,8.4 c2.5-0.9,4.8-1.7,7.1-2.5c0.3,0.4,0.5,0.7,0.8,1.1c-4.2,2.8-7.9,5.9-8.6,11.8c3.1-1.1,5.6-2,8.1-2.9c0.2,0.2,0.4,0.5,0.6,0.7 c-2,2.5-4.1,5-6.1,7.5c0.2,0.3,0.5,0.6,0.7,0.9c2.3-0.4,4.5-0.7,7.4-1.2c-2.2,4.1-6.3,6.7-5,12.6c2.5-2.7,4.3-4.7,6.3-6.8 c0.3,4.8,0.6,9.1,0.9,13.5c0.3-0.1,0.7-0.1,1-0.2c0.7-1.7,1.5-3.4,2.2-5.1c0.4,0.1,0.8,0.2,1.3,0.3c0.7,3.5,1.5,7.1,2.2,10.6 c-0.9,0.1-1.8,0.2-1.7,0.2c3.4,11.9,6.8,23.7,10.3,35.8c10.5-1,21.1-1.5,32,4.2c-6.9-11.5-15.3-19.9-25.2-26.7 c-2.1-1.4-3.9-3.8-7-1.5c-0.4,0.3-2.4-0.5-2.8-1.2c-2-3.5-3.7-7.2-5.5-10.8c0.9,0.3,2.1,0.3,2.6,1c1.9,2.4,3.5,5,5.3,7.6 c0.8-1.2,1.6-2.4,2.1-3.1c2.4,2.2,4.5,4.4,6.7,6.3c2.1,1.9,4.6,3.3,6.5,5.3c6.9,7.1,13.7,14.4,20.2,21.3c3.8-5.2,7.6-11.5,12.4-17 c8.5-9.9,17.8-19.1,29.7-25c6.2-3.1,12.4-6.4,18.5-9.7c1.3-0.7,2.1-2.2,3.3-3.6c0.6,0.9,1.2,1.8,2.5,3.9c1.2-3.4,2.4-5.7,2.7-8.1 c0.3-2.7-0.2-5.5-0.3-8.3c1.3,0.1,2.3,0.1,5,0.3c-2.1-3.2-3.5-5.4-5.3-8c2.9,0.4,5.6,0.8,8.2,1.1c0.1-0.4,0.3-0.8,0.4-1.2 c-2.7-1.2-5.4-2.5-8.3-3.8c1.9-1.5,3.7-2.9,5.3-4.1c-4.1-0.3-7.8-0.6-11.5-0.9c0-0.5-0.1-1-0.1-1.5c2.3-1.6,4.6-3.2,7.8-5.4 c-4.9-0.3-8.6-0.5-13.4-0.9c3-2.1,5-3.5,7.7-5.4c-3.4-0.5-5.7-0.7-7.9-1.1c-4.1-0.7-7.4-2.2-8.1-7.2c-0.5-3.4-1.9-6.7-3.3-9.9 c-1.4-3.3-3.6-5.9-7.8-5.9c-11,0-22.1-0.6-33.1-0.1c-6.5,0.3-13,2.5-19.5,3.4c-11.1,1.5-21.7,3.5-26.9,15.2 c0.2-2.2,0.5-4.4,0.8-6.8c-2.1,0.6-3.7,1-6.6,1.8c11.2-11.7,72-23.2,93-13.6c1.8,4.7,3.5,9.1,5.3,13.6c2.1,5.5,6,8.1,11.9,7.9 c1.5,0,3.6,0.3,4.5,1.3c0.6,0.8-0.3,2.8-0.4,3.9c2.2,1,4.3,2,6.4,2.9c0.3,0.7,0.6,1.4,0.9,2.1c-1.7,1.3-3.4,2.6-5.3,3.9 c3.4-0.2,6.7-0.3,11-0.6c-1.9,3.1-3.1,5-4.2,6.8c6.2,6.6,6.2,6.6,0.9,8.2c-0.5,3.1,0.1,7.6-1.5,8.5c-3.9,2.2-2.7,5.6-3.8,8.4 c5.7,0.7,11.1,0.9,16.4,2c6.4,1.3,12.3,0.2,18.2-2.4c8.9-4,16.2-9.7,21.1-18.2c0,7.4-5.8,10.7-10.4,14.9c-1.3,1.2-2.2,2.8-3.3,4.3 c-3.6,0.9-7.3,1.9-10.9,2.8c0.1,0.7,0.2,1.4,0.2,2.1c7,0.3,14,0.7,21.1,0.8c0.6,0,1.1-1.1,1.7-1.7c3.5,0.3,3.6,2.9,3,5.2 c-0.6,2.2-2.1,4.2-3.2,6.2c0.3-2.3,0.6-4.6,1.1-7.8c-5.7,0-11.3,0-16.8,0c-1.7-0.2-3.3-0.4-5-0.6c-5.7-1.2-11.4-2.9-17.2-3.4 c-7-0.6-14.4-3.4-20.9,2.1c-13-4.9-58.4,32-62.9,51.6c9.5-4.7,19-5.3,28.5-0.5c0.9-1,1.7-1.8,2.4-2.7c8.3-12.1,19-21.7,30.5-30.6 c8.7-6.7,18.5-11,29.4-12.7c1.3-0.1,2.7-0.3,4-0.4c1.1,0,2.2-0.1,3.3-0.1c1.8,0.4,3.5,0.8,5.3,1.1c0,0.2-0.1,0.5-0.1,0.7 c-2,0.1-4.1,0.2-7.1,0.4c1.4,0.9,1.9,1.2,2.4,1.5c2.8,1.5,5.5,3,8.3,4.4c-0.3,0.2-0.5,0.5-0.8,0.7c-4-1.6-8-3.2-12.6-5 c6.5,7.9,12.5,15.2,18.4,22.3c1.8-3.4,3.3-6.3,4.8-9.2c-0.9,3.6-2.1,7.2-2.7,10.8c-0.2,1.6,0.5,3.5,1.3,5 c1.8,3.5,3.9,6.9,5.8,10.3c-0.4,0.2-0.8,0.4-1.2,0.5c-2.5-4.1-5.3-8-7.5-12.3c-4.4-8.7-12.2-12.8-20.6-16.4 c-4.1-1.7-7.5-0.6-10.3,2.6c-11.1,12.5-14.1,27.2-10.1,43c2.5,9.8,5.8,19.4,9.7,28.7c2,4.7,0.4,11.4,6.8,14.5 c-2.3-0.5-4.6-1.1-7.4-1.8c0.3,1.7,0.4,3,0.7,4.2c2,8.8,4.9,17.3,4,26.8c-1.1,11.2-0.2,11.3,11.2,12.9c4.7,0,9.4,0,14.1,0 c2.5-0.4,5.1-0.5,7.6-1.2c6.8-2,13.7-3.9,20.3-6.4c3.5-1.3,5.8-4.1,5.3-8.5c-0.7-6.5-0.8-13.1-1.6-19.6 c-0.6-5.2-1.7-10.4-2.5-15.6c4,12.5,6.7,25.3,6.2,38.5c-0.1,1.5-1.4,3.4-2.7,4.3c-4.8,3.2-3.6,7.8-3.9,11.8c0.8,0.5,0.9,0.7,1,0.7 c5.4-0.7,10.2,0.7,15.3,2.7c5.9,2.3,12.3,3.4,18.9,2.3c2.9-0.5,6.2,0.6,9.1,1.6c1.4,0.5,3.1,2.2,3.3,3.6c0.6,3.5,0.4,7.2,0.5,10.8 c-6.9-3.2-12.8-7.7-21.9-3.8c-22.6,9.6-45.9,17.6-68.8,26.5c-2.8,1.1-5.2,3.3-7.5,5.3c-6,5.2-8,11.7-5.6,19.4 c0.2,0.8,0.1,1.7,0.1,2.5c0.3,16.5,0.5,32.9,0.9,49.4c0.1,2,0.7,4.4,2,5.7c3.4,3.4,7.3,6.3,11.8,10c8.8-3.7,19.3-8.2,29.9-12.5 c3.4-1.4,7-2.4,10.5-3.6c-4.5,2.4-8.9,5.2-13.6,7.3c-9.2,3.9-18.5,7.3-27.7,11.1c-2.4,1-4.3,2.9-6.5,4.4c-4.4,3-9,4.4-13.8,1 c-3.6-2.5-7-5.2-10.5-7.8c1.6-0.6,3.5-0.9,4.6-2c2.3-2.2,3.7-5.3,6.2-7.1c4-3,4.6-6.8,4.6-11.3c-0.2-15.6-0.4-31.3-0.7-46.9 c-0.1-5.6-1-10.8-6.4-14.2c-2.7-1.7-4.6-4.7-6.9-7.1c-1.6-1.7-3.3-3.2-4.9-4.8c-1,7.8-1.2,14.8-1,21.7c0.5,21.8,1,43.6,1.7,65.3 c0.1,2.1,1.4,4.2,2.2,6.2c-2.4-0.6-4.9-1.2-7.3-2c-4.2-1.4-8.5-2.7-12.6-4.5c-2.1-1-3.7-3-6.3-5.2c-4.7-1.8-10.5-4.1-16.4-6.3 c5.9,1.2,11.7,2.5,18.6,3.9c0.6-7.9,1.6-14.8,1.7-21.8c0.1-7.2-0.8-14.5-1.2-21.8c-12.1,0.8-23.7,1.6-35.1,2.3 c-0.6,8.3-1.2,16.6-1.8,24.8c-0.3,3.8,2.1,5.7,5,7.3c2,1.1,4,2.2,5.9,3.2c-9.2,0.4-13.6-5.1-12.3-14.1c1-7.3,1.1-14.7,1.6-22.5 c-3.4,0-5.8,0.2-8.1-0.1c-2.2-0.3-4.4-1-6.2-1.5c-1.9-2.4,0.2-7.3-5.4-6.5c-1.5,5.4-3.1,10.8-4.5,16.1c-0.4,1.5-0.6,3.3-0.3,4.8 c1,5.1,2.4,10.1,3.4,15.2c0.5,2.5,1.2,5.5-2.9,5.9c0.3-1,0.8-2,0.7-2.9c-1-6.7-2.3-13.5-3.4-20.2c-0.5-3-2.5-6.6,2.8-7.6 c-0.5-1.8-0.9-3.1-1.5-5.2c-24.9,3.6-49.2,1.3-73.3-7.7c0,2.5,0,4,0,5.5c-1-2.2-2-4.4-2.7-5.9c-3.6-1.9-6.7-3.6-9.8-5.2 c10.2,2.9,20.5,5.6,30.7,8.7c18.1,5.5,36.3,4.5,54.7,2.4c3.3-0.4,4.2-2,5.1-4.9c1.9-7.2,0.9-14.1,0-21.2 c-1.3-10.2-1.3-20.6-2.1-30.9c-0.2-2.8-1.5-5.6-2.3-8.4c-0.9-3.3-1.8-6.6-2.8-10.4c-4.3-0.3-8.9-0.7-14-1 c-0.3,1.8-0.6,3.7-1.1,6.4c-4.7-2.6-9-5-13.4-7.4c-0.1-0.5-0.1-1-0.2-1.5c4.4-2.2,8.8-4.3,13.9-6.8c0.3,2.7,0.5,4.5,0.7,6.9 c4.7,0.2,9.6,0.5,14.3,0.7c6.5-19.2,7.8-38.3,4.3-58.4c-3.7-0.5-8-1.1-12.5-1.7c-1,2.4-1.9,4.5-3.2,7.5c-4-3.1-7.5-5.9-12-9.4 c5.7-2.1,10.3-3.8,15.5-5.8c0,2.4,0,3.7,0,5.7c4.3,0.4,8.5,0.8,13.9,1.3c3.4-11.2,6.8-22.3,10-33.5c0.3-1.2-0.9-3.8-2-4.3 c-4.2-1.8-8.6-3.6-13.1-4.1c-5-0.5-10.3,0.3-15.4,0.7c-3,0.2-4.5-0.8-4.9-4c-1.6-13.5-5.2-26.3-12.8-37.9 c-1.6-2.4-1.9-5.6-2.6-7.9c-1.9,0.2-3.8,0.3-5.7,0.5c0-3.3,0-6.5,0-9.8c0.5-0.1,0.9-0.2,1.4-0.2c-1.6-0.7-3.7-1-4.6-2.2 c-0.7-0.9,0.2-3,0.4-4.6c-0.9-0.3-2.2-0.8-4.1-1.5c1.2-2.6,2.3-4.8,3.2-6.9c-1.4-1.6-2.7-3-4.8-5.3c-5,7.1-9.8,13.7-14.5,20.4 c-0.3-0.2-0.5-0.3-0.8-0.5c2.4-3.9,5-7.7,7-11.8c2-4.1,6.7-6.9,6.5-12c-0.4-0.5-0.9-0.9-1.3-1.4c-3.8,2.1-7.7,4-11.3,6.4 c-3.6,2.3-6.8,5.1-10.2,7.6c-0.5-0.3-1.1-0.5-1.6-0.8c0.5-1.7,0.6-3.9,1.7-5c1.6-1.5,2.4-5.2,6-3.2c-0.7,0.6-1.4,1.3-2,1.9 c-0.9,0.9-1.9,1.7-2.8,2.6c0.3,0.2,0.5,0.5,0.8,0.7c0.9-0.8,1.9-1.7,2.8-2.5C60.9,117,61.6,116.3,62.4,115.7z M219.4,190.3 c1.6-10.4,6.7-19,14.1-26.2c-5.4-6.8-7.2-7.5-13.6-3.1c-12.5,8.6-24.6,17.7-33.3,30.5c-1.9,2.9-4.1,5.6-6.5,8.8 c-9.6-6.5-19.2-5.2-28.5-0.4c-2,1-3.6,3.6-4.6,5.8c-4.5,9.8-1.5,19.9-0.4,30.1c5.5,0,11,0,16.3,0c0.6-2.3,1-3.8,1.5-5.9 c4.7,2.4,8.8,4.6,14.1,7.4c-5.6,2.6-10,4.6-14.7,6.8c-0.6-2.3-1.1-4-1.4-5.4c-5.8,0-11.3,0-15.8,0c-2.3,4.6-4.2,8.5-6.2,12.5 c-0.5,1-1.4,2-1.5,3.1c-0.9,8.1-1.7,16.2-2.3,24.3c-0.1,1.3,0.7,2.7,1.2,4.1c1,2.5,2.4,5,2.9,7.6c0.5,2.7,0.1,5.5,0.1,9.1 c6.6-0.4,12.7-0.8,18.6-1.2c0.7-2,1.3-3.6,2-5.5c4.1,2.3,7.7,4.3,12.5,7c-5.1,2.7-9.1,4.7-13.4,7c-0.5-2.3-0.9-3.9-1.3-5.4 c-6.3,0-12.2,0-17.4,0c-5.4,11.2-6,22.4-4.5,33.9c0.9,6.6,1,13.3,1.9,19.9c0.9,6.2,2.1,12.3,3.7,18.3c0.4,1.5,2.5,3.7,3.8,3.7 c14.6-0.1,29.2-0.5,43.8-1.2c1.2-0.1,3.4-2.3,3.3-3.4c-0.7-8.4-1-17-3.2-25.1c-2.5-9.2-1.7-12.9,7.1-16.6c0.4-0.2,0.8-0.6,1.3-1 c-1-7.7-1.9-15.4-3-23.1c-0.4-2.7,0.3-4,3.1-4.5c4.8-0.8,9.6-1.9,14.4-3c6.6-1.5,13.1-3.3,19.6-4.9c0.4-6.7,1.3-12.7,0.8-18.6 c-0.5-6-2.5-11.9-3.8-17.9c-0.1-0.3,0-0.7-0.2-1c-1.8-3.7-1.5-7.1,2.4-9.6c-1.8-5.7-3.6-11.2-5.4-16.7c-2.5-7.9-5-15.8-7.4-23.7 c-0.1-1.5-0.1-3-0.2-4.5c0-0.6,0-1.2,0-1.8C219.2,197,219.3,193.7,219.4,190.3z M211.9,432.4c0-3.6,0-6.4,0-9.2 c-0.3-22.1-0.5-44.3-0.9-66.4c-0.1-4.3-0.4-8.6-1-12.9c-0.2-1.2-1.4-2.8-2.5-3.1c-1-0.3-2.6,0.6-3.7,1.3c-1.9,1.3-3.5,3.1-5.4,4.4 c-2.7,1.8-3.9,3.8-3.6,7.4c0.9,14.4,1.2,28.9,2.1,43.4c0.6,9.2,0,18.5,4.1,27.4C203.4,429.5,206.7,431,211.9,432.4z M215.4,339.7 c0.1,0.8,0.3,1.5,0.4,2.3c2,0,4,0,6.1,0c5.6,0.1,11.1,0.1,16.7,0.2c2.2,0,4.6,0.8,6.5,0.1c20-7.4,40-15.1,60-22.7 c4.8-1.8,9.6-3.6,14.2-5.8c1.2-0.5,2.4-2.5,2.3-3.7c-0.1-1-1.9-2.2-3.1-2.7c-3.4-1.5-6.6-0.8-9.9,1.1c-2.8,1.6-6.1,2.5-8.9,4.1 c-2.6,1.5-4.7,4.2-7.4,5.1c-3.4,1-7.4,0-10.7,1.1c-14,4.7-27.8,9.8-41.7,14.8c-1.7,0.6-3.5,1.2-5.2,1.6 C228.1,336.6,221.8,338.2,215.4,339.7z M201.4,331c10-3.1,19.5-6,28.9-9c0.6-0.2,1.2-1.1,1.5-1.8c1.5-3.8,2.9-7.6,4.5-11.3 c1.5-3.6,3-7.1,5.2-12.2c-15.2,3.1-28.9,5.8-43.3,8.7C199.2,313.7,200.3,321.8,201.4,331z M246.7,320.5c5.7-0.8,10.9-1.3,16-2.3 c8.8-1.6,15.9-6.3,21.5-13.1c2.9-3.5,5-7.7,4.7-12.8c-15,5.5-29.7,8.7-45.5,6.4c-1.4,3.1-2.9,6.4-4.4,9.8 c3.8,0.8,7.2,1.5,11.3,2.3C249,314.4,248,317.2,246.7,320.5z M203.8,332.8c2.5,5.5,5.9,7.3,10.3,5.8c4.1-1.3,8.3-2.6,12.1-4.7 c3.3-1.9,6.5-4.5,6.8-10.1C223,326.8,213.6,329.7,203.8,332.8z M229.6,156.8c2.2,1.9,4,4.5,6.4,5.3c5.1,1.8,10.4,2.7,15.4,3.9 C246.4,156,237.5,152,229.6,156.8z M282.4,310.8c-11,9.8-24.3,10.9-37.7,12.8c0.2,1.1,0.4,2.4,0.8,4.4c13.1-4.4,25.7-8.7,38.6-13 C283.4,313.4,283,312.5,282.4,310.8z M136.8,249.2c0.7,0.2,1.4,0.4,2.1,0.6c1.2-2.8,2.6-5.6,3.5-8.6c0.2-0.7-1.2-2.5-2-2.6 c-1.2-0.1-3.3,0.9-3.4,1.6C136.6,243.1,136.8,246.2,136.8,249.2z M137.6,285.1c-0.8-0.1-1.6-0.3-2.4-0.4c-1,3.3-2,6.6-3.3,11.2 c3.3-0.9,5-1.3,6.9-1.8C138.3,290.7,138,287.9,137.6,285.1z M305.3,307.1c0.1-0.4,0.1-0.9,0.2-1.3c-4,0-8,0-12.6,0 C297.2,312.4,301.3,307.9,305.3,307.1z M131.2,303.5c1.5,2.5,2.4,4.2,3.6,5.6c0.3,0.3,1.7-0.3,2.6-0.5c0-1.7,0-3.1,0-4.8 C135.6,303.8,134.1,303.7,131.2,303.5z M144.1,230.7c-0.6-2.3-1.1-4.2-1.6-6.1c-0.4,0-0.7,0-1.1,0.1c-0.9,1.8-1.8,3.7-3,6 C140.6,230.7,141.9,230.7,144.1,230.7z M132.2,297.9c-0.2,0.7-0.3,1.4-0.5,2c1.7,0.4,3.5,1.1,5.2,1.1c0.6,0,1.1-1.9,2.2-3.8 C135.9,297.5,134,297.7,132.2,297.9z" class="st3"/><path d="M182.9,23.4c-2.9-1.4-5.9-2.8-8.8-4.1c-4.9-2.1-9.4-0.7-13.6,1.8c-1.1,0.7-1.5,2.5-2.4,4.1 c15,4.1,25.5,12.9,35.5,23.6c9.3,9.8,20.8,17.8,34.4,21.7c6.5,1.9,12.8,4.5,20.3,7.2c-1.4-4.1-2.4-6.9-3.4-9.8 c1.7,2.5,3.5,4.9,4.9,7.5c0.8,1.5,0.7,3.5,1,5.2c-9.4-3.2-18.8-6.3-28.2-9.5c-15.1-5.2-26-16.2-36.8-27.3 c-9.3-9.5-20.3-15.7-33.5-16.6c-6.6-0.5-13.3,1.5-20,2.3c-0.9,0.1-1.8-0.3-2.7-0.4c6.4-3.8,13.4-5.1,20.6-4.5 c3.2,0.2,5.5-0.7,7.2-3c4-5.2,10.8-6,17.9-3.5C178.3,19.2,182.7,18.4,182.9,23.4z" class="st3"/><path d="M311.9,409.1c4.8-2.3,10.1-3.9,14.2-7.1c4.4-3.5,7.7-8.5,11.5-12.8c4.2-4.7,4.3-10.1,3.8-16.2 c-1.3-14-1.7-28.2-2.4-42.3c0-0.9,0.6-1.8,0.9-2.7c0.7,6,1.8,12.1,2.1,18.1c0.6,10.8,0.6,21.5,1.3,32.3c0.3,4.5,2,9,2.7,13.5 c0.9,5.7-0.1,6.7-5.5,8.4c-7,2.2-13.7,5-20.7,7.3C317.2,408.4,314.5,408.6,311.9,409.1z" class="st3"/><path d="M40,334.8c0.5,0.4,1.2,0.7,1.4,1.2c2.7,7.7,5,9.4,13.1,9.3c0.7-16.8,1.4-33.6,2.1-50.6 c-4.2-1.2-8.7-2.5-12.9-3.7c-1.2,2.7-2.5,5.6-3.7,8.5c3.7-13.3,2.5-27,4-40.5c0.4,1,0.8,2,1.2,3c-0.1,5.6-0.3,11.3-0.4,16.9 c-0.1,6.1,1.4,8.2,7.2,10.6c1.4,0.6,2.8,1.1,4.2,1.6c3,0.9,4,2.6,3.5,6c-2,15.7-4,31.4-1.7,47.2c0.4,3-1.2,4-3.7,3.9 c-2-0.1-4-0.5-5.8-1.2c-2.7-1-4.8-0.5-6.5,1.7C41.3,343.9,40.7,339.3,40,334.8z" class="st3"/><path d="M84.8,42.5c1-3.3,2-6.5,3.1-10.4c-2-0.7-4.6-0.9-6.1-2.3c-1.6-1.5-2.6-4.1-3-6.3c-0.6-3.3-0.5-6.8-0.7-10.2 c-0.4-0.1-0.9-0.1-1.3-0.2c-0.8,2.3-1.6,4.5-2.4,6.8c-0.4-0.1-0.8-0.1-1.2-0.2c0.5-3.9,1.3-7.8,1.4-11.7c0-2-0.8-5.2-2.1-5.7 c-1.8-0.7-4.9,0-6.4,1.2c-2.5,2-4.2,5.1-6.2,7.7c-0.8,1-1.7,2.1-2.5,3.1c-0.4-0.2-0.7-0.5-1.1-0.7c0.9-1.8,1.7-3.7,3.1-6.7 c-3.8,2.1-6.6,3.8-9.5,5.4c4-3.2,7.7-6.6,12-9.4C64.1,1.4,67.2,1,70,0.2c3.7-1,5.7,1.1,6.5,4.3c1.4,5.5,2.8,11,3.4,16.6 c0.6,6.2,2.5,8.5,10.9,9.7C88.6,35,86.7,38.8,84.8,42.5z" class="st3"/><path d="M50.7,429.2c3.1-1.8,6.2-3.6,10.4-6c-1.5,2.7-2.4,4.4-3.7,6.7c10.3,1.3,20.1,1.3,29.7-0.7 c9.4-2,18.5-4.8,27.8-7.2c2.6-0.7,5.3-1.2,7.9-1.8c-4.6,1.9-9,4.3-13.8,5.6c-8.4,2.4-16.8,4.8-25.4,5.9c-8.9,1.2-18,2.9-26.9,0.2 C54.7,431.3,52.7,430.1,50.7,429.2z" class="st3"/><path d="M50.5,192.3c1.4,0.9,2.9,1.9,4.7,3c0.7-2.3,1.3-4.3,1.9-6.2c0.3,0.3,0.6,0.6,0.9,0.9c-0.1,2-0.3,3.9-0.4,5.9 c-0.2,2-0.4,3.9-0.7,6.6c3-3.4,5.5-6.3,8-9.2l0,0c-3.6,7-7.3,14.1-10.9,21.1c0.5-3.7,0.9-7.3,1.6-11c0.8-3.7-0.6-6.2-3.6-8.3 C51.2,194.6,51,193.3,50.5,192.3z" class="st3"/><path d="M72.1,397.9c1.7,1.3,3.4,2.7,5.7,4.5c-5.7,1.5-10.4,2.8-14.3,3.8c-1.9,5.6-6.8,6.7-10.6,9 c-0.1-0.1-0.2-0.3-0.3-0.4c-0.1,0-0.3,0.1-0.4,0.2c1.8-2.2,3.2-4.9,5.4-6.5c4-2.9,8.5-5.1,12.8-7.6c0.3,0.4,0.6,0.8,0.9,1.2 C71.7,400.7,71.9,399.3,72.1,397.9z" class="st3"/><path d="M276.1,119.3c-0.3-3.4-1.1-6.9-0.9-10.3c0.3-5.9-2.3-10.4-6.1-14.4c-1.2-1.3-2-2.9-3-4.4 c6.3,2.2,8.6,7.9,10.5,13.3C278.4,108.4,279.8,114.1,276.1,119.3z" class="st3"/><path d="M287.1,234.3c-3.3-9.2-6.6-18.3-9.9-27.5c-0.5-1.5-0.9-3.1-1.3-4.6c3,7,6,13.9,8.8,20.9 c1.3,3.2,2.1,6.5,3.1,9.8C287.6,233.3,287.3,233.8,287.1,234.3z" class="st3"/><path d="M47,423.4c1.6-1.2,3.3-2.5,4.9-3.7c0.3,0.3,0.6,0.6,0.9,0.9c-1.6,1.7-3.3,3.5-4.9,5.3 c0.7,1.2,1.3,2.2,1.9,3.3c-4,1.2-4-3.4-6.5-4.4c1.1-1.7,2.1-3.4,3.2-5.1c0.1-0.1,0.3-0.1,0.4,0c0.1,0.1,0.2,0.2,0.2,0.4 c-0.3,0.9-0.5,1.8-0.8,2.7c-0.3,0.4-0.6,0.8-0.8,1.3C46,423.8,46.5,423.6,47,423.4z" class="st3"/><path d="M203,42.2c-1.9-1.2-4-2.1-5.5-3.6c-4.3-4.2-8.4-8.7-12.5-13c1.1,0.6,2.4,1,3.2,1.8 C193.1,32.3,198,37.3,203,42.2z" class="st3"/><path d="M219,52.2c-5.4-3.4-10.7-6.7-16.1-10.1C208.3,45.5,213.6,48.9,219,52.2z" class="st3"/><path d="M108.8,49c-3,4.3-5.9,8.6-8.9,12.9C102.1,57.1,104,52,108.8,49z" class="st3"/><path d="M41.9,20.4c-2.8,3.9-5.7,7.9-8.5,11.8C34.8,27.3,36.8,22.8,41.9,20.4z" class="st3"/><path d="M240.1,64.2c-4.6-2.6-9.2-5.3-13.8-7.9C230.9,59,235.5,61.6,240.1,64.2z" class="st3"/><path d="M261.8,86.9c-2.9-1.5-5.7-3-8.6-4.5C256.1,83.9,258.9,85.4,261.8,86.9z" class="st3"/><path d="M116.8,39.1c-2.3,2.7-4.5,5.4-6.8,8C112.2,44.4,114.5,41.7,116.8,39.1z" class="st3"/><path d="M98.8,63.1c-2,2.7-3.9,5.5-5.9,8.2C94.9,68.6,96.8,65.9,98.8,63.1z" class="st3"/><path d="M49.9,12.2c-2.6,2.4-5.3,4.8-7.9,7.2C43.6,15.9,45.6,12.8,49.9,12.2z" class="st3"/><path d="M51.7,222.4c-0.9,2.7-1.8,5.4-2.6,8.1C49.9,227.8,50.8,225.1,51.7,222.4z" class="st3"/><path d="M39.8,310c-0.3,4.5-0.6,9-0.9,13.5C37.6,318.9,36.1,314.3,39.8,310z" class="st3"/><path d="M29.8,170.3c2.1,2.6,4.2,5.2,6.2,7.9C33.9,175.5,31.9,172.9,29.8,170.3z" class="st3"/><path d="M271.6,143.5c-2.2-1-4.4-2-6.6-3C267.2,141.5,269.4,142.5,271.6,143.5z" class="st3"/><path d="M225.5,55.3c-2.2-1-4.4-2.1-6.7-3.1C221.1,53.2,223.3,54.2,225.5,55.3z" class="st3"/><path d="M39.6,355c-0.2,2.1-0.3,4.1-0.5,6.2C36.3,358.7,36.4,358.1,39.6,355z" class="st3"/><path d="M27.3,168.2c0.9,0.7,1.7,1.4,2.6,2.2C29,169.6,28.2,168.9,27.3,168.2z" class="st3"/><path d="M184.2,25.1L184.2,25.1c-0.1-0.1-0.2-0.2-0.3-0.3C184,24.9,184.1,25,184.2,25.1z" class="st3"/><path d="M35.8,178.2l0,0.1L35.8,178.2z" class="st3"/><polygon points="64.9 193.3 65 193.1 64.9 193.3" class="st3"/><path d="M286.4,352.5c3.8-6.1,13.1-8.9,18-6.2c4.2,2.3,4.6,5.1,1.5,12.2c0.3,0.3,0.5,0.8,0.9,1 c10.7,6.4,10.8,17.7-0.1,24.1c-4.2,2.4-8.6,4.4-13,6.2c-1.4,0.6-3.4-0.1-5-0.2c0.4-1.4,0.8-2.8,1.2-4.2c0.3-0.9,0.7-1.8,0.7-2.8 c0.1-7.7,0.3-15.3,0.2-23C290.9,356.6,291.6,353,286.4,352.5z M295.3,384.1c6.9-3,12.6-5.1,14.6-11.9c1.1-3.9-0.4-6.6-4.1-7.6 c-3.7-1-10.2,1.2-10.4,3.8C295.1,373.3,295.3,378.2,295.3,384.1z M295.7,361c0.4,0.2,0.7,0.4,1.1,0.7c1.9-2.4,4-4.8,5.6-7.4 c0.5-0.9-0.1-3.5-0.8-3.7c-1.7-0.6-3.8-0.6-5.6-0.2c-0.7,0.2-1.6,2.1-1.5,3.1C294.6,356,295.3,358.5,295.7,361z" class="st3"/><path d="M272.4,379.4c0.2,3.6,0.5,7.4,0.8,11.2c1.3,0,2.5-0.3,3.5,0.1c2.1,0.9,2.8,2.9,0.6,4.1 c-3.3,1.9-6.9,3.2-10.5,4.5c-0.8,0.3-2.2-0.3-2.9-1c-0.4-0.4,0-2.4,0.5-2.6c4.8-1.8,3.5-6,3.3-9.4c-0.4-8.1-1.3-16.2-2.1-24.3 c-1.8-0.7-3.4-1.3-5-1.9c3.4-6.3,14.4-10.5,20-8c6.1,2.7,7.6,12.6,2.4,18.5C280,374,276,376.5,272.4,379.4z M270.7,357.1 c0.4,5.1,0.7,10.4,1.1,15.7c0.5,0.2,1,0.4,1.5,0.6c2.2-2.1,5.1-3.8,6.2-6.3c1.2-2.7,2-6.8,0.7-9.2 C278.7,354.7,274.7,355.3,270.7,357.1z" class="st3"/><path d="M322.7,380.5c-1.8,0.9-3,2-3.8,1.8c-0.9-0.2-1.8-1.7-1.9-2.7c-0.1-0.5,1.6-1.9,2.2-1.8 C320.1,378,321,379.2,322.7,380.5z" class="st3"/><path d="M287.8,390.6c-1.2,1-2,2.2-2.7,2.2c-0.8,0-2.3-1.4-2.2-1.8c0.2-1,1.2-2.1,2.1-2.5 C285.5,388.3,286.6,389.6,287.8,390.6z" class="st3"/><path d="M81.4,402.4c4.1,1.1,8.2,2.3,12.5,3.5c-1.6,5.3-4.7,3.7-6.9,2.6c-2.2-1-4-2.9-5.9-4.4 C81.2,403.6,81.3,403,81.4,402.4z" class="st3"/><path d="M158.6,101.1c-0.4-6.1-0.4-6.1,3.1-8.8c5.7,3.1-1.3,8.3,2.3,12.3c-7.2,0-14-0.6-20.7,0.2 c-6.4,0.7-12.7,2.7-19.2,3.2C134.9,103.1,146.4,101.3,158.6,101.1z" class="st3"/><path d="M146,111.4c-1.2,3.6-7,2.4-6.5,7.5c0.3,3.2,0.1,6.4,0.1,9.7c-0.6,0-1.1,0.1-1.7,0.1 c-0.5-4.2-0.9-8.4-1.4-12.1c-2.2-1-4.1-1.9-6.2-2.9C134.6,108.3,142.1,107.6,146,111.4z" class="st3"/><path d="M150.2,144.4c3.3-2.2,5.9-3.8,8.4-5.5c2.3-1.6,4.6-3.4,7.9-5.8c0.6,1,1.8,3,3.6,5.9 C161.9,137.6,158.2,146.1,150.2,144.4z" class="st3"/><path d="M126.9,104.5c-0.3-1.3-1.1-2.7-0.9-3.9c0.3-1.8,1.2-3.5,2-5.2c0.1-0.2,2.3,0.3,2.4,0.6c0.2,1.8,0.4,3.8,0,5.6 c-0.2,1.1-1.3,2.1-2,3.1C127.9,104.6,127.4,104.5,126.9,104.5z" class="st3"/><path d="M156.4,76.3c6.4-1.7,9.7,0.1,9.7,4.8C163.1,79.6,160.2,78.2,156.4,76.3z" class="st3"/><path d="M130.4,78.8c-3,2.6-5.7,4.8-8.3,7.1C120.8,81.6,125.2,77.7,130.4,78.8z" class="st3"/><path d="M141.6,159.3c2-0.6,4.1-1.3,7.5-2.3c-0.9,1.8-1.1,3-1.7,3.2c-1.8,0.5-3.6,0.7-5.5,1 C141.8,160.5,141.7,159.9,141.6,159.3z" class="st3"/><path d="M19.9,79.4c-1,0.6-2,1.2-3,1.8c-0.7-1.3-2.2-3-1.9-3.8c0.6-1.4,2.3-2.8,3.8-3.1c1-0.2,2.3,1.7,3.4,2.7 C21.5,77.8,20.7,78.6,19.9,79.4c-0.5-1.1-1-2.1-1.5-3.1c-0.5,0.4-0.9,0.8-1.4,1.3C18,78.2,19,78.8,19.9,79.4z" class="st3"/><path d="M275.9,202.1c-1.6-2.7-3.3-5.3-4.9-8c0.4-0.2,0.8-0.4,1.2-0.5C273.4,196.4,274.7,199.3,275.9,202.1z" class="st3"/><path d="M45.1,261.8c-0.4-1-0.8-2-1.2-3c0.7-3.8,1.3-7.7,2-11.5C45.7,252.1,45.4,257,45.1,261.8z" class="st3"/><path d="M287.1,234.3c0.3-0.5,0.6-0.9,0.8-1.4c0.6,2.5,1.2,5.1,1.8,7.6C288.8,238.4,288,236.3,287.1,234.3z" class="st3"/></g><g id="Fur"><path d="M58.1,375.4c0-1.5,0-2.9,0-5.5c24.1,9,48.4,11.4,73.3,7.7c0.6,2,1,3.4,1.5,5.2c-5.4,1-3.3,4.6-2.8,7.6 c1.1,6.7,2.3,13.5,3.4,20.2c0.1,0.9-0.5,1.9-0.7,2.9c-3.3,2.3-6.6,4.5-9.9,6.8c-2.6,0.6-5.3,1.1-7.9,1.8 c-9.3,2.4-18.5,5.3-27.8,7.2c-9.6,2-19.3,2-29.7,0.7c1.2-2.3,2.2-4,3.7-6.7c-4.2,2.4-7.3,4.2-10.4,6l-0.4,0l-0.4-0.1 c-0.6-1.1-1.2-2.1-1.9-3.3c1.7-1.8,3.3-3.5,4.9-5.3c-0.3-0.3-0.6-0.6-0.9-0.9c-1.6,1.2-3.3,2.5-4.9,3.7c-0.2-0.2-0.4-0.5-0.6-0.7 c0.3-0.9,0.5-1.8,0.8-2.7c1.9-1.6,3.9-3.3,5.8-4.9c3.8-2.4,8.7-3.4,10.6-9c3.9-1,8.5-2.3,14.3-3.8c-2.3-1.8-4-3.1-5.7-4.5 C65.6,391.6,60.2,384.5,58.1,375.4z M81.4,402.4c-0.1,0.6-0.2,1.1-0.3,1.7c2,1.5,3.7,3.4,5.9,4.4c2.3,1.1,5.3,2.7,6.9-2.6 C89.6,404.7,85.5,403.6,81.4,402.4z" class="st4"/><path d="M77.1,53.2c-2.3,1.5-4.3,1.4-7.1,0.4c-8-2.9-16.3-5-24.4-7.3c-4.7-1.3-9.4-2.5-14.6-3.9 c0.3-2.2,0.7-4.7,1-7.3c0.5-1,1-1.9,1.4-2.9c2.8-3.9,5.7-7.9,8.5-11.8c0-0.3,0.1-0.7,0.1-1c2.6-2.4,5.3-4.8,7.9-7.2l-0.1,0.1 c2.9-1.6,5.8-3.3,9.5-5.4c-1.4,3-2.2,4.8-3.1,6.7c0.4,0.2,0.7,0.5,1.1,0.7c0.8-1,1.7-2.1,2.5-3.1c2-2.6,3.7-5.6,6.2-7.7 c1.6-1.3,4.7-1.9,6.4-1.2C73.7,2.8,74.5,6,74.5,8c-0.1,3.9-0.9,7.8-1.4,11.7c0.4,0.1,0.8,0.1,1.2,0.2c0.8-2.3,1.6-4.5,2.4-6.8 c0.4,0.1,0.9,0.1,1.3,0.2c0.2,3.4,0.1,6.9,0.7,10.2c0.4,2.2,1.4,4.8,3,6.3c1.5,1.4,4.1,1.6,6.1,2.3c-1.1,3.8-2.1,7.1-3.1,10.4 C82.2,46.1,79.7,49.6,77.1,53.2z" class="st4"/><path d="M167.6,416c-2-1.1-4-2.2-5.9-3.2c-2.9-1.6-5.3-3.5-5-7.3c0.6-8.2,1.2-16.5,1.8-24.8c11.4-0.8,23-1.5,35.1-2.3 c0.4,7.3,1.3,14.6,1.2,21.8c-0.1,7-1,14-1.7,21.8c-6.9-1.4-12.7-2.7-18.6-3.9C172.2,417.4,169.9,416.7,167.6,416z" class="st4"/><path d="M105.9,92c0-0.2,0.1-0.4,0.3-0.6c5.2-11.7,15.9-13.7,26.9-15.2c6.5-0.9,13-3.1,19.5-3.4 c11-0.5,22.1,0.1,33.1,0.1c4.2,0,6.4,2.6,7.8,5.9c1.4,3.2,2.8,6.5,3.3,9.9c0.8,4.9,4,6.4,8.1,7.2c2.2,0.4,4.5,0.7,7.9,1.1 c-2.7,1.9-4.7,3.3-7.7,5.4c4.8,0.3,8.4,0.5,13.4,0.9c-3.3,2.3-5.5,3.8-7.8,5.4c0,0.5,0.1,1,0.1,1.5c3.7,0.3,7.4,0.6,11.5,0.9 c-1.6,1.3-3.3,2.6-5.3,4.1c2.9,1.3,5.6,2.5,8.3,3.8c-0.1,0.4-0.3,0.8-0.4,1.2c-2.6-0.4-5.2-0.7-8.2-1.1c1.7,2.6,3.2,4.8,5.3,8 c-2.7-0.1-3.8-0.2-5-0.3c0.2,2.8,0.7,5.6,0.3,8.3c-0.3,2.4-1.5,4.7-2.7,8.1c-1.4-2.1-1.9-3-2.5-3.9c-1.2,1.3-2,2.9-3.3,3.6 c-6.1,3.4-12.3,6.6-18.5,9.7c-11.9,5.9-21.2,15.1-29.7,25c-4.7,5.5-8.6,11.8-12.4,17c-6.5-6.9-13.3-14.2-20.2-21.3 c-1.9-2-4.4-3.5-6.5-5.3c-2.2-2-4.3-4.1-6.7-6.3c-0.5,0.7-1.3,1.9-2.1,3.1c-1.8-2.6-3.4-5.2-5.3-7.6c-0.5-0.6-1.7-0.7-2.6-1l0,0 c-0.7-3.5-1.5-7.1-2.2-10.6c-0.4-0.1-0.8-0.2-1.3-0.3c-0.7,1.7-1.5,3.4-2.2,5.1c-0.3,0.1-0.7,0.1-1,0.2c-0.3-4.4-0.6-8.7-0.9-13.5 c-2,2.1-3.8,4.1-6.3,6.8c-1.3-5.9,2.8-8.5,5-12.6c-2.9,0.5-5.1,0.8-7.4,1.2c-0.2-0.3-0.5-0.6-0.7-0.9c2-2.5,4.1-5,6.1-7.5 c-0.2-0.2-0.4-0.5-0.6-0.7c-2.5,0.9-5,1.8-8.1,2.9c0.7-5.9,4.4-9,8.6-11.8c-0.3-0.4-0.5-0.7-0.8-1.1c-2.3,0.8-4.6,1.6-7.1,2.5 c1.1-4.2,3.1-5.7,9.8-8.4c-2.3-0.8-4.6-1.7-6.8-2.4c3.9-0.9,8.1-1.5,11.9-2.8C105.9,100.7,105.4,96,105.9,92z M158.6,101.1 c-12.1,0.2-23.6,2-34.6,6.8c6.5-0.5,12.8-2.5,19.2-3.2c6.7-0.7,13.5-0.2,20.7-0.2c-3.5-3.9,3.4-9.1-2.3-12.3 C158.1,95,158.1,95,158.6,101.1z M146,111.4c-3.9-3.8-11.4-3.1-15.6,2.2c2.1,1,4,1.9,6.2,2.9c0.4,3.7,0.9,7.9,1.4,12.1 c0.6,0,1.1-0.1,1.7-0.1c0-3.2,0.3-6.5-0.1-9.7C139,113.9,144.8,115,146,111.4z M150.2,144.4c8,1.6,11.7-6.8,19.8-5.4 c-1.8-2.9-3-4.9-3.6-5.9c-3.3,2.4-5.5,4.2-7.9,5.8C156.1,140.7,153.5,142.3,150.2,144.4z M126.9,104.5c0.5,0,1,0.1,1.5,0.1 c0.7-1,1.8-2,2-3.1c0.3-1.8,0.2-3.7,0-5.6c0-0.3-2.3-0.8-2.4-0.6c-0.9,1.6-1.7,3.4-2,5.2C125.8,101.8,126.6,103.2,126.9,104.5z M156.4,76.3c3.7,1.9,6.7,3.3,9.7,4.8C166.1,76.4,162.8,74.5,156.4,76.3z M130.4,78.8c-5.2-1.1-9.6,2.8-8.3,7.1 C124.8,83.7,127.4,81.4,130.4,78.8z M141.6,159.3c0.1,0.6,0.2,1.2,0.3,1.8c1.8-0.3,3.7-0.4,5.5-1c0.6-0.2,0.8-1.4,1.7-3.2 C145.7,158,143.7,158.7,141.6,159.3z" class="st4"/><path d="M246.7,320.5c1.2-3.4,2.2-6.1,3.5-9.6c-4.1-0.8-7.5-1.5-11.3-2.3c1.5-3.4,3-6.7,4.4-9.8 c15.8,2.2,30.6-1,45.5-6.4c0.3,5.1-1.8,9.3-4.7,12.8c-5.6,6.8-12.7,11.5-21.5,13.1C257.6,319.2,252.4,319.7,246.7,320.5z" class="st4"/></g><g id="Jacket"><path d="M39.6,355c0.8-2.2,1.6-4.3,2.4-6.5c1.7-2.2,3.8-2.7,6.5-1.7c1.8,0.7,3.9,1.1,5.8,1.2c2.5,0.1,4.1-0.9,3.7-3.9 c-2.3-15.8-0.3-31.5,1.7-47.2c0.4-3.3-0.5-5-3.5-6c-1.4-0.4-2.8-1-4.2-1.6c-5.8-2.4-7.3-4.5-7.2-10.6c0.1-5.7,0.3-11.3,0.4-16.9 c0.3-4.8,0.5-9.7,0.8-14.5c1-5.6,2.1-11.2,3.1-16.8c0.9-2.7,1.8-5.4,2.6-8.1c0.8-2.7,1.6-5.4,2.3-8c3.6-7,7.3-14.1,10.9-21.1 l0.1-0.1l-0.1,0.2c-2.5,2.9-5,5.7-8,9.2c0.3-2.6,0.5-4.6,0.7-6.6c0.2-2,0.3-3.9,0.4-5.9c1-1.9,1.9-3.8,2.9-5.7 c-0.6-0.3-1.3-0.5-1.9-0.8c-0.6,1.9-1.2,3.7-1.8,5.6c-0.6,1.9-1.2,3.9-1.9,6.2c-1.8-1.2-3.3-2.1-4.7-3c-4.9-4.7-9.7-9.3-14.6-14 l0-0.1l0.2-0.1c-2.1-2.6-4.2-5.2-6.2-7.9l0.1,0.1c-0.9-0.7-1.7-1.4-2.6-2.2c-1.9-2.3-3.7-4.6-5.6-6.8c-0.9-1.9-1.6-3.9-2.7-5.7 c-5.3-8.6-11.1-17-10.6-27.9c0.4-9,0-18,0.5-27c0.2-4.2,1.7-8.3,2.8-13.4c5.1,1.6,9.2,3,14.4,4.7c1.6-5.9,3-12,4.7-18 c0.9-3.3-0.3-5.3-3.2-6.2c-4.1-1.3-8.3-2.2-12.9-3.3c1.8-5.3,3.4-10.9,5.5-16.2c0.5-1.2,2.4-2.6,3.7-2.6c4.5-0.2,9.1-0.4,13.4,0.6 c12.4,2.7,24.8,5.6,36.2,11.6c6.1,3.2,6.5,3.2,4.9,9.6c-2.9,11.9-3.9,24-2.7,36.2c0.2,2.6-0.3,4.4-2.8,5.7 c-3.7,1.9-7.1,4.3-10.7,6.4c-0.3-0.3-0.6-0.6-0.9-0.9c-3.6-2.1-4.4,1.7-6,3.2c-1.1,1-1.2,3.3-1.7,5c0.5,0.3,1.1,0.5,1.6,0.8 c3.4-2.6,6.7-5.3,10.2-7.6c3.6-2.3,7.5-4.3,11.3-6.4c0.4,0.5,0.9,0.9,1.3,1.4c0.2,5.1-4.5,7.9-6.5,12c-2,4.1-4.7,7.9-7,11.8 c0.3,0.2,0.5,0.3,0.8,0.5c4.7-6.6,9.4-13.3,14.5-20.4c2.2,2.4,3.4,3.8,4.8,5.3c-1,2.1-2,4.3-3.2,6.9c1.9,0.7,3.2,1.2,4.1,1.5 c-0.2,1.6-1.1,3.6-0.4,4.6c0.9,1.2,3,1.5,4.6,2.2c-0.5,0.1-0.9,0.2-1.4,0.2c0,3.3,0,6.5,0,9.8c1.9-0.2,3.8-0.3,5.7-0.5 c0.7,2.3,1.1,5.5,2.6,7.9c7.6,11.6,11.2,24.4,12.8,37.9c0.4,3.2,1.9,4.3,4.9,4c5.1-0.4,10.3-1.3,15.4-0.7 c4.5,0.5,8.9,2.4,13.1,4.1c1.1,0.5,2.3,3.1,2,4.3c-3.1,11.2-6.6,22.3-10,33.5c-5.3-0.5-9.6-0.9-13.9-1.3c0-2,0-3.3,0-5.7 c-5.2,1.9-9.9,3.7-15.5,5.8c4.5,3.5,8.1,6.3,12,9.4c1.3-3,2.2-5,3.2-7.5c4.5,0.6,8.8,1.2,12.5,1.7c3.5,20.1,2.2,39.1-4.3,58.4 c-4.7-0.2-9.6-0.5-14.3-0.7c-0.3-2.5-0.4-4.2-0.7-6.9c-5.1,2.5-9.5,4.7-13.9,6.8c0.1,0.5,0.1,1,0.2,1.5c4.3,2.4,8.7,4.8,13.4,7.4 c0.5-2.7,0.8-4.6,1.1-6.4c5.1,0.4,9.7,0.7,14,1c1,3.8,1.9,7.1,2.8,10.4c0.8,2.8,2.1,5.5,2.3,8.4c0.8,10.3,0.9,20.7,2.1,30.9 c0.9,7.2,2,14.1,0,21.2c-0.8,3-1.7,4.5-5.1,4.9c-18.4,2.1-36.6,3.1-54.7-2.4c-10.2-3.1-20.4-5.8-30.7-8.7c-2.2-1-4.4-2-6.6-3 C39.2,359.1,39.4,357,39.6,355z" class="st5"/><path d="M290.8,245c0.9,5.2,1.9,10.4,2.5,15.6c0.7,6.5,0.9,13.1,1.6,19.6c0.4,4.4-1.8,7.2-5.3,8.5 c-6.7,2.5-13.5,4.5-20.3,6.4c-2.4,0.7-5,0.8-7.6,1.2c-4.7,0-9.4,0-14.1,0c-11.5-1.6-12.3-1.7-11.2-12.9c0.9-9.5-2-18-4-26.8 c-0.3-1.2-0.4-2.5-0.7-4.2c2.8,0.7,5.1,1.2,7.4,1.8c-6.4-3.1-4.8-9.8-6.8-14.5c-3.9-9.3-7.2-18.9-9.7-28.7c-4-15.9-1-30.5,10.1-43 c2.8-3.2,6.2-4.3,10.3-2.6c8.4,3.5,16.2,7.7,20.6,16.4c2.2,4.3,5,8.2,7.5,12.3c1.6,2.7,3.3,5.3,4.9,8l0,0c0.4,1.5,0.8,3.1,1.3,4.6 c3.3,9.2,6.6,18.3,9.9,27.5c0.9,2.1,1.8,4.2,2.6,6.2C290.1,242,290.5,243.5,290.8,245z" class="st5"/><path d="M267.8,167.4c-1.5,2.9-3,5.8-4.8,9.2c-5.9-7.1-11.8-14.4-18.4-22.3c4.5,1.8,8.5,3.4,12.6,5 c0.6,0.2,1.2,0.5,1.8,0.7c-0.4-0.5-0.7-0.9-1.1-1.4c-2.8-1.5-5.5-3-8.3-4.4c2.9-0.5,5.8-1.1,9.6-1.8c-3.5-3.1-7-1.9-10.1-2 c-1.1,0-2.2,0.1-3.3,0.1c-1.3,0.1-2.7,0.3-4,0.4c-10.9,1.7-20.7,6-29.4,12.7c-11.5,8.9-22.2,18.6-30.5,30.6 c-0.6,0.9-1.5,1.7-2.4,2.7c-9.5-4.7-19-4.2-28.5,0.5c4.5-19.6,49.9-56.6,62.9-51.6c6.5-5.5,13.9-2.7,20.9-2.1 c5.8,0.5,11.5,2.2,17.2,3.4c1.7,0.2,3.3,0.4,5,0.6c5.5,0,11.1,0,16.8,0c-0.4,3.2-0.7,5.5-1.1,7.8 C271.2,159.5,269.5,163.5,267.8,167.4z" class="st5"/><path d="M40,334.8c-0.4-3.7-0.8-7.5-1.1-11.2c0.3-4.5,0.6-9,0.9-13.5c0-3.5,0.1-7.1,0.1-10.6c1.3-2.9,2.5-5.8,3.7-8.5 c4.2,1.2,8.7,2.5,12.9,3.7c-0.7,17-1.4,33.8-2.1,50.6c-8.1,0.1-10.4-1.6-13.1-9.3C41.2,335.5,40.5,335.2,40,334.8z" class="st5"/><path d="M273.1,144.2c-0.6,0.6-1.1,1.8-1.7,1.7c-7-0.2-14-0.5-21.1-0.8c-0.1-0.7-0.2-1.4-0.2-2.1 c3.6-0.9,7.3-1.9,10.9-2.8c1.3,0.1,2.7,0.2,4,0.2c2.2,1,4.4,2,6.6,3C272.1,143.7,272.6,143.9,273.1,144.2z" class="st5"/><path d="M219.3,206.6c2.5,7.9,4.9,15.8,7.4,23.7c1.7,5.5,3.5,11,5.4,16.7c-3.9,2.5-4.1,5.9-2.4,9.6 c0.1,0.3,0.1,0.7,0.2,1c1.3,6,3.3,11.9,3.8,17.9c0.5,5.9-0.5,11.9-0.8,18.6c-6.5,1.6-13,3.3-19.6,4.9c-4.8,1.1-9.6,2.1-14.4,3 c-2.8,0.5-3.5,1.8-3.1,4.5c1.1,7.7,2,15.5,3,23.1c-0.6,0.5-0.9,0.9-1.3,1c-8.7,3.7-9.6,7.4-7.1,16.6c2.2,8.1,2.4,16.7,3.2,25.1 c0.1,1.1-2.1,3.4-3.3,3.4c-14.6,0.6-29.2,1-43.8,1.2c-1.3,0-3.4-2.2-3.8-3.7c-1.5-6-2.8-12.1-3.7-18.3c-0.9-6.6-1-13.3-1.9-19.9 c-1.5-11.5-0.8-22.6,4.5-33.9c5.2,0,11.1,0,17.4,0c0.3,1.4,0.7,3.1,1.3,5.4c4.3-2.3,8.3-4.3,13.4-7c-4.8-2.6-8.4-4.7-12.5-7 c-0.7,1.9-1.3,3.5-2,5.5c-5.9,0.4-12,0.8-18.6,1.2c0-3.6,0.4-6.4-0.1-9.1c-0.5-2.6-1.9-5.1-2.9-7.6c-0.5-1.3-1.3-2.8-1.2-4.1 c0.6-8.1,1.4-16.2,2.3-24.3c0.1-1.1,1-2,1.5-3.1c2-4,3.9-7.9,6.2-12.5c4.6,0,10,0,15.8,0c0.4,1.4,0.8,3,1.4,5.4 c4.7-2.1,9-4.2,14.7-6.8c-5.3-2.8-9.4-4.9-14.1-7.4c-0.5,2-0.9,3.5-1.5,5.9c-5.3,0-10.8,0-16.3,0c-1.1-10.2-4.1-20.2,0.4-30.1 c1-2.2,2.6-4.8,4.6-5.8c9.4-4.8,19-6.1,28.5,0.4c2.4-3.2,4.5-6,6.5-8.8c8.7-12.8,20.8-21.9,33.3-30.5c6.4-4.4,8.2-3.7,13.6,3.1 c-7.4,7.3-12.5,15.8-14.1,26.2c-0.1,3.3-0.2,6.7-0.2,10c0,0.6,0,1.2,0,1.8C219.2,203.6,219.3,205.1,219.3,206.6z" class="st5"/><path d="M201.4,331c-1.2-9.2-2.2-17.3-3.3-25.6c14.4-2.9,28.2-5.7,43.3-8.7c-2.2,5.1-3.7,8.6-5.2,12.2 c-1.5,3.8-2.9,7.6-4.5,11.3c-0.3,0.7-0.9,1.6-1.5,1.8C220.9,325,211.5,327.9,201.4,331z" class="st5"/><path d="M104.8,156.3c1.8,3.6,3.5,7.3,5.5,10.8c0.4,0.7,2.4,1.5,2.8,1.2c3.1-2.3,4.9,0.1,7,1.5 c9.9,6.9,18.4,15.2,25.2,26.7c-10.9-5.7-21.5-5.2-32-4.2c-3.5-12.1-6.8-23.9-10.3-35.8C103,156.6,103.9,156.4,104.8,156.3 L104.8,156.3z" class="st5"/><path d="M2.9,82.4c0.6-1.7,2-3.6,1.7-5.2c-1-4.9,1.6-8,5.5-8.4c5.5-0.6,11.1,0.3,16.6,0.9c0.9,0.1,2.4,2.2,2.2,3.1 c-1.1,5.5-2.6,10.9-4,16.4C15,85,13,85,2.6,88C2.7,86,2.9,84.2,2.9,82.4L2.9,82.4z M20,79.4c0.7-0.8,1.5-1.6,2.2-2.4 c-1.1-1-2.5-2.9-3.4-2.7c-1.5,0.2-3.2,1.7-3.8,3.1c-0.4,0.8,1.2,2.5,1.9,3.8C17.9,80.6,18.9,80,20,79.4L20,79.4z" class="st5"/><path d="M229.6,156.8c7.9-4.8,16.7-0.8,21.8,9.2c-4.9-1.2-10.3-2.1-15.4-3.9C233.6,161.3,231.8,158.7,229.6,156.8z" class="st5"/><path d="M2.9,98.2c-1-7.3-1-7.3,6-9.6c-0.4,1.9-0.8,3.3-1.1,4.8c-0.4,1.6-0.8,3.2-1.2,4.9C5.4,98.3,4.1,98.2,2.9,98.2 L2.9,98.2z" class="st5"/><path d="M60.1,117.6c-0.9,0.8-1.9,1.7-2.8,2.5c-0.3-0.2-0.5-0.5-0.8-0.7c0.9-0.9,1.9-1.7,2.8-2.6 C59.7,117.1,59.9,117.3,60.1,117.6z" class="st5"/><path d="M59.4,116.8c0.7-0.6,1.4-1.3,2-1.9c0.3,0.3,0.6,0.6,0.9,0.9c-0.7,0.6-1.5,1.2-2.2,1.9 C59.9,117.3,59.7,117.1,59.4,116.8z" class="st5"/><path d="M58,190c-0.3-0.3-0.6-0.6-0.9-0.9c0.6-1.9,1.2-3.7,1.8-5.6c0.6,0.3,1.3,0.5,1.9,0.8 C59.9,186.2,59,188.1,58,190z" class="st5"/><g><path d="M249.1,150.4c3.2,0.1,6.6-1.1,10.1,2c-3.8,0.7-6.7,1.3-9.6,1.8c-0.5-0.3-1-0.6-2.4-1.5c3-0.2,5-0.3,7.1-0.4 c0-0.2,0.1-0.5,0.1-0.7C252.7,151.1,250.9,150.8,249.1,150.4z" class="st5"/><path d="M257.9,158.6c0.4,0.5,0.7,0.9,1.1,1.4c-0.6-0.2-1.2-0.5-1.8-0.7C257.4,159.1,257.7,158.8,257.9,158.6z" class="st5"/></g><path d="M19.9,79.4c-1-0.6-1.9-1.2-2.9-1.8c0.5-0.4,0.9-0.8,1.4-1.3C18.9,77.3,19.5,78.3,19.9,79.4L19.9,79.4z" class="st5"/></g></g></svg>