<svg id="Layer_01" data-name="Layer 01" xmlns="http://www.w3.org/2000/svg" viewBox="0 0 234.78 62.32"><defs><style>.cls-1{fill:#0f0f0f;}.cls-2{fill:#686868;}</style></defs><path class="cls-1" d="M72.1,29.9C72.1,39,67.31,46.73,60.34,52a36.14,36.14,0,0,1-6.12,3.73,41.17,41.17,0,0,1-2.62-9.2,104.66,104.66,0,0,1-1.36-11.76v0a2.51,2.51,0,0,0-5,0,112.61,112.61,0,0,0-.48,12.52,48.16,48.16,0,0,0,1.48,11.36,42.78,42.78,0,0,1-20.49,0,48,48,0,0,0,1.53-11.34,112.61,112.61,0,0,0-.42-12.51,2.51,2.51,0,0,0-5,0v0a107.52,107.52,0,0,1-1.3,11.77A41.2,41.2,0,0,1,18,55.77,35.84,35.84,0,0,1,11.75,52C4.79,46.73,0,39,0,29.9S4.79,13.07,11.75,7.81A40.52,40.52,0,0,1,36.05,0,40.49,40.49,0,0,1,60.34,7.81C67.3,13.07,72.1,20.85,72.1,29.9Z"/><path class="cls-2" d="M54.22,55.73a38.92,38.92,0,0,1-8,2.85,48.16,48.16,0,0,1-1.48-11.36,112.61,112.61,0,0,1,.48-12.52,2.51,2.51,0,0,1,5,0v0A104.66,104.66,0,0,0,51.6,46.53,41.17,41.17,0,0,0,54.22,55.73Z"/><path class="cls-2" d="M27.28,47.21a48,48,0,0,1-1.53,11.34A39.3,39.3,0,0,1,18,55.77a41.2,41.2,0,0,0,2.6-9.23,107.52,107.52,0,0,0,1.3-11.77v0a2.51,2.51,0,0,1,5,0A112.61,112.61,0,0,1,27.28,47.21Z"/><path class="cls-1" d="M234.78,32.41c0,9.05-4.79,16.83-11.76,22.1a36.14,36.14,0,0,1-6.12,3.73,41.17,41.17,0,0,1-2.62-9.2,104.66,104.66,0,0,1-1.36-11.76v0a2.51,2.51,0,0,0-5,0,112.61,112.61,0,0,0-.48,12.52,48.16,48.16,0,0,0,1.48,11.36,42.78,42.78,0,0,1-20.49,0A48,48,0,0,0,190,49.72a112.61,112.61,0,0,0-.42-12.51,2.51,2.51,0,0,0-5,0v0a107.52,107.52,0,0,1-1.3,11.77,41.2,41.2,0,0,1-2.6,9.23,35.84,35.84,0,0,1-6.21-3.77c-7-5.27-11.75-13-11.75-22.1s4.79-16.83,11.75-22.09a41.69,41.69,0,0,1,48.59,0C230,15.58,234.78,23.36,234.78,32.41Z"/><path class="cls-2" d="M216.9,58.24a38.92,38.92,0,0,1-8,2.85,48.16,48.16,0,0,1-1.48-11.36,112.61,112.61,0,0,1,.48-12.52,2.51,2.51,0,0,1,5,0v0A104.66,104.66,0,0,0,214.28,49,41.17,41.17,0,0,0,216.9,58.24Z"/><path class="cls-2" d="M190,49.72a48,48,0,0,1-1.53,11.34,39.3,39.3,0,0,1-7.79-2.78,41.2,41.2,0,0,0,2.6-9.23,107.52,107.52,0,0,0,1.3-11.77v0a2.51,2.51,0,0,1,5,0A112.61,112.61,0,0,1,190,49.72Z"/></svg>