<?xml version="1.0" encoding="utf-8"?>
<!-- Generator: Adobe Illustrator 17.1.0, SVG Export Plug-In . SVG Version: 6.00 Build 0)  -->
<!DOCTYPE svg PUBLIC "-//W3C//DTD SVG 1.1//EN" "http://www.w3.org/Graphics/SVG/1.1/DTD/svg11.dtd">
<svg version="1.1" id="Layer_1" xmlns="http://www.w3.org/2000/svg" xmlns:xlink="http://www.w3.org/1999/xlink" x="0px" y="0px"
	 viewBox="0 0 527.94 181.45" enable-background="new 0 0 527.94 181.45" xml:space="preserve">
<g>
	<path fill="#FFFFFF" d="M231.79,38.08V0H80.53C37.27,0,7.35,20.67,7.35,55.22c0,29.93,15.5,47.88,38.91,54.68
		C29.2,136.29,14.6,158.87,0,181.45h51.75c10.87-20.22,21.74-40.44,38.47-71.55h15.06v71.55h126.51v-38.36h-79.71V109.9h69.1V81.88
		h-69.1v-43.8H231.79z M105.28,81.88H77.54c-12.25,0-23.4-9.25-23.4-23.66c0-10.89,11.15-20.14,23.4-20.14h27.74V81.88z"/>
	<polygon fill="#FFFFFF" points="527.94,181.45 473.42,181.45 407.42,81.93 407.42,181.45 360.63,181.45 360.63,109.9 302.41,109.9 
		302.41,181.45 255.62,181.45 255.62,0 302.41,0 302.41,81.88 360.63,81.88 360.63,0 407.42,0 	"/>
	<polygon fill="#FFFFFF" points="527.94,0 527.94,138.37 481.15,67.92 481.15,0 	"/>
</g>
</svg>
