<?xml version="1.0" encoding="utf-8"?>
<!-- Generator: Adobe Illustrator 24.0.3, SVG Export Plug-In . SVG Version: 6.00 Build 0)  -->
<svg version="1.1" id="Layer_1" xmlns="http://www.w3.org/2000/svg" xmlns:xlink="http://www.w3.org/1999/xlink" x="0px" y="0px"
	 viewBox="0 0 527.9 181.4" style="enable-background:new 0 0 527.9 181.4;" xml:space="preserve">
<style type="text/css">
	.st0{fill:#454D59;}
</style>
<g>
	<path class="st0" d="M231.8,38.1V0H80.5C37.3,0,7.3,20.7,7.3,55.2c0,29.9,15.5,47.9,38.9,54.7c-17.1,26.4-31.7,49-46.3,71.5h51.8
		c10.9-20.2,21.7-40.4,38.5-71.6h15.1v71.6h126.5v-38.4h-79.7v-33.2h69.1v-28h-69.1V38.1C152.1,38.1,231.8,38.1,231.8,38.1z
		 M105.3,81.9H77.5c-12.2,0-23.4-9.2-23.4-23.7c0-10.9,11.2-20.1,23.4-20.1h27.7V81.9z"/>
	<polygon class="st0" points="527.9,181.4 473.4,181.4 407.4,81.9 407.4,181.4 360.6,181.4 360.6,109.9 302.4,109.9 302.4,181.4 
		255.6,181.4 255.6,0 302.4,0 302.4,81.9 360.6,81.9 360.6,0 407.4,0 	"/>
	<polygon class="st0" points="527.9,0 527.9,138.4 481.1,67.9 481.1,0 	"/>
</g>
</svg>
