<svg id="Layer_01" data-name="Layer 01" xmlns="http://www.w3.org/2000/svg" viewBox="0 0 599.55 599.55"><defs><style>.cls-1{fill:#e52351;}.cls-2{fill:none;stroke:#fff;stroke-linecap:round;stroke-linejoin:round;stroke-width:9.28px;}.cls-3{fill:#fff;}</style></defs><circle class="cls-1" cx="299.78" cy="299.78" r="299.78"/><polygon class="cls-2" points="35.88 259.24 238.78 315.35 194.84 363.82 128.57 361.83 35.88 259.24"/><polygon class="cls-2" points="565.09 286.96 305.69 320.83 342.7 366.95 565.09 286.96"/><polygon class="cls-2" points="271.94 278.76 194.84 363.82 271.46 366.13 271.94 278.76"/><polygon class="cls-2" points="342.7 366.95 271.94 278.76 271.46 366.13 339.3 368.17 342.7 366.95"/><polygon class="cls-2" points="339.3 368.17 565.09 286.96 437.14 477.89 339.3 368.17"/><polygon class="cls-2" points="128.57 361.83 339.3 368.17 437.14 477.89 122.23 440.26 128.57 361.83"/><polygon class="cls-2" points="35.88 259.24 122.23 440.26 128.57 361.83 35.88 259.24"/><path class="cls-3" d="M188.37,143.84A21.55,21.55,0,0,1,196,158.77H175.84a5.49,5.49,0,0,0-2.45-4.7,10.82,10.82,0,0,0-6.1-1.57,8.71,8.71,0,0,0-4.28.89,3,3,0,0,0-1.57,2.77c0,1.25.84,2.26,2.51,3a49.62,49.62,0,0,0,7.82,2.51,84,84,0,0,1,10.7,3.28,20.64,20.64,0,0,1,7.51,5.12,12.51,12.51,0,0,1,3.19,8.92,17.34,17.34,0,0,1-.42,4q-1.37,6.78-8,11t-17.9,4.22q-12.1,0-19.52-5.37t-7.93-15.19h20.14a4.65,4.65,0,0,0,2.25,4.75,12.39,12.39,0,0,0,6.73,1.62q5,0,5.74-3.34c.27-1.53-.42-2.71-2.09-3.55a42.17,42.17,0,0,0-8.24-2.61,103.73,103.73,0,0,1-10.6-3.23,18.74,18.74,0,0,1-7.2-4.91,12.56,12.56,0,0,1-3.07-8.87,28.72,28.72,0,0,1,.41-3.86q1.15-6.78,7.72-11.11t17.85-4.33Q181.69,138.21,188.37,143.84Z"/><path class="cls-3" d="M260.74,143.27q4.63,4.84,4.64,13.62a36.53,36.53,0,0,1-.63,6.57l-5.95,34H238.35l5.53-31.41a14.34,14.34,0,0,0,.31-2.82,8,8,0,0,0-2.13-5.95,8.26,8.26,0,0,0-6-2.08,11.35,11.35,0,0,0-7.51,2.61,13.35,13.35,0,0,0-4.28,7.41l-5.63,32.24H198.07l13.56-77.22h20.56l-5,28.38a25.19,25.19,0,0,1,8.72-7.46,24.67,24.67,0,0,1,11.63-2.76Q256.1,138.42,260.74,143.27Z"/><path class="cls-3" d="M300.44,138.94l-10.33,58.54H269.55l10.33-58.54Zm-17.69-20.61a13.21,13.21,0,0,1,5.06-4.44,15.53,15.53,0,0,1,7.21-1.67,11,11,0,0,1,7.51,2.4,8,8,0,0,1,2.71,6.26,11,11,0,0,1-1.82,6.06,12.77,12.77,0,0,1-5,4.43,15.57,15.57,0,0,1-7.15,1.62q-4.9,0-7.62-2.4a7.84,7.84,0,0,1-2.71-6.16A10.89,10.89,0,0,1,282.75,118.33Z"/><path class="cls-3" d="M364.2,144.16q5.54,5.94,5.53,16.38a39.67,39.67,0,0,1-.73,7.62,43.92,43.92,0,0,1-6.05,16,31.06,31.06,0,0,1-10.65,10.43,26.16,26.16,0,0,1-13.25,3.6,18,18,0,0,1-10.23-2.66,12.91,12.91,0,0,1-5.32-7.36l-6.57,37.26H296.37l15.24-86.51h20.56l-1.68,9.29a20.4,20.4,0,0,1,7.94-7.36,23.35,23.35,0,0,1,11.16-2.66Q358.68,138.21,364.2,144.16Zm-20.45,32.92a14.78,14.78,0,0,0,4.49-8.92,16.15,16.15,0,0,0,.31-3,8.21,8.21,0,0,0-8.87-9,11.69,11.69,0,0,0-8.19,3.23,15.43,15.43,0,0,0-4.54,8.77,16.88,16.88,0,0,0-.32,3.13,8.87,8.87,0,0,0,2.4,6.63,8.74,8.74,0,0,0,6.37,2.34A12.12,12.12,0,0,0,343.75,177.08Z"/><path class="cls-3" d="M422.43,138.94,412.1,197.48H391.54l10.33-58.54Zm-17.69-20.61a13.21,13.21,0,0,1,5.06-4.44,15.52,15.52,0,0,1,7.2-1.67q4.8,0,7.52,2.4a8,8,0,0,1,2.71,6.26,11,11,0,0,1-1.82,6.06,12.77,12.77,0,0,1-5,4.43,15.57,15.57,0,0,1-7.15,1.62q-4.9,0-7.62-2.4a7.84,7.84,0,0,1-2.71-6.16A10.81,10.81,0,0,1,404.74,118.33Z"/><path class="cls-3" d="M450.08,174.94a7.88,7.88,0,0,0-.1,1.46,3.31,3.31,0,0,0,1,2.72,5.64,5.64,0,0,0,3.45.83h5.63l-3.23,17.53h-8.35q-19.51,0-19.52-16.59a35.61,35.61,0,0,1,.63-6.37L433,156.05h-7.62l3-17.11H436l2.5-14.19H459l-2.5,14.19h10.64l-3,17.11H453.42Z"/></svg>