<svg xmlns="http://www.w3.org/2000/svg" xmlns:xlink="http://www.w3.org/1999/xlink" width="187" height="60" version="1.1" viewBox="0 0 187 60"><title>Shape</title><desc>Created with Sketch.</desc><g id="Welcome" fill="none" fill-rule="evenodd" stroke="none" stroke-width="1"><g id="Desktop-HD-Copy-19" fill="#1F2937" fill-rule="nonzero" transform="translate(-69.000000, -1916.000000)"><path id="Shape" d="M69.1457103,1958.43177 C68.9160116,1956.47516 69.0266231,1953.6244 69.0266231,1952.19526 L72.0129317,1918.5467 L82.9884274,1918.5467 L80.0017431,1952.49281 C79.3636435,1959.86083 82.2393707,1965.07627 89.5901802,1965.07627 C97.051744,1965.07627 101.016507,1959.80139 101.646169,1953.26749 L104.811082,1918.54594 L115.837672,1918.54594 L112.791854,1952.79938 C111.533282,1966.02903 102.803679,1975.88121 88.6716107,1975.88121 C77.6450208,1975.88121 70.5233841,1968.76859 69.1460935,1958.43177 L69.1457103,1958.43177 Z M120.312476,1947.03925 C121.750629,1930.89948 132.666765,1917.48273 151.442399,1917.48273 C156.436637,1917.48273 161.201401,1918.61432 165.923111,1921.70267 L164.655222,1935.05179 C160.350156,1929.29189 155.177239,1928.40698 150.4127,1928.40698 C138.697089,1928.40698 132.265225,1936.54074 131.34628,1946.80993 C130.478429,1956.89203 135.651346,1965.02503 147.026954,1965.02503 C151.970098,1965.02503 157.193959,1963.59574 162.707629,1958.08245 L161.499476,1971.78848 C156.156445,1974.69822 151.161907,1976 146.167444,1976 C127.492496,1976 118.942474,1962.16623 120.310748,1947.03858 L120.312476,1947.03925 Z M174.763693,1918.54527 L185.730172,1918.54527 L181.705899,1964.24231 L197.445934,1964.24231 C198.594502,1964.24231 202.329492,1964.19127 203.359041,1964.19127 C203.308022,1964.72727 202.329567,1974.69039 202.329567,1974.69039 L169.76074,1974.69039 L174.763468,1918.54527 L174.763693,1918.54527 Z M234.839035,1916.0015 L234.03926,1916.0015 L203.946249,1974.69828 L215.66186,1974.69828 L219.847832,1965.79059 L241.100785,1965.79059 L243.746716,1974.69828 L255.342857,1974.69828 L234.857819,1916 L234.839035,1916.0015 Z M232.05019,1939.4996 C232.399014,1938.72537 232.679792,1937.72137 232.849966,1937.1854 L233.028638,1937.1854 C233.079657,1937.90008 233.198789,1938.73379 233.42851,1939.55918 C233.998549,1942.11157 238.312069,1956.30232 238.312069,1956.30232 L224.401659,1956.30232 C224.401659,1956.30232 231.871639,1939.91534 232.050018,1939.49832 L232.05019,1939.4996 Z"/></g></g></svg>