<svg xmlns="http://www.w3.org/2000/svg" xmlns:xlink="http://www.w3.org/1999/xlink" width="291" height="60" version="1.1" viewBox="0 0 291 60"><title>Group</title><desc>Created with Sketch.</desc><g id="Welcome" fill="none" fill-rule="evenodd" stroke="none" stroke-width="1"><g id="Artboard" fill="#1F2937" transform="translate(-332.000000, -217.000000)"><g id="Group" transform="translate(332.000000, 217.000000)"><path id="Combined-Shape" d="M290.723416,47.6968037 C287.502966,49.4016706 284.42185,51.4864192 281.033147,52.7364798 C272.988594,55.7032374 264.777103,55.8491435 256.739122,52.6063473 C247.391929,48.8351343 242.416662,40.2950259 242.696644,29.4453945 C243.076526,14.7561978 252.97711,7.26109266 264.70875,5.48392988 C273.008311,4.22598256 281.01343,5.49970352 288.814807,8.38627856 C289.164456,8.51509657 289.623205,8.992249 289.629778,9.3156085 C289.691558,12.3507186 289.666583,15.3884576 289.666583,18.4209388 C288.505906,18.7916192 287.821068,18.7508706 287.43067,17.464005 C286.628844,14.8153489 284.783329,12.9185694 282.371277,11.6921694 C275.905402,8.40862454 269.15823,7.95513256 262.415001,10.5564677 C256.405246,12.8751919 253.704012,17.8990944 252.881154,23.9811448 C252.168711,29.2547965 252.644549,34.4732404 254.710895,39.4393062 C257.636904,46.474347 263.019657,49.968207 270.580486,50.3191703 C276.93726,50.614926 282.322642,48.5472654 286.753718,43.9807984 C287.038958,43.6889861 287.366261,43.4392369 287.679105,43.1671417 C288.724108,44.6130582 289.723105,45.9971946 290.723416,47.381331 L290.723416,47.6968037 Z M121.484416,6.05979897 C122.107474,6.01642148 122.622746,5.95201247 123.138018,5.94938353 C136.807187,5.89943369 150.475041,5.81925105 164.142895,5.85342726 C166.214499,5.85868514 168.35314,6.16101313 170.343247,6.7354363 C178.034208,8.95426083 181.512295,16.4388502 178.373341,23.8287978 C176.120341,29.1313678 171.778648,31.9127853 166.386694,33.0511158 C163.379188,33.6860046 160.25075,33.7517281 157.172263,34.0395969 C156.403298,34.1118927 155.623818,34.0501127 154.468399,34.0501127 C154.468399,35.9692382 154.443424,37.6872498 154.474971,39.403947 C154.517034,41.7699921 154.618249,44.1334083 154.664255,46.4981389 C154.736551,50.2509494 155.75395,51.4129404 159.592201,51.9755334 C159.639522,52.1871629 159.724963,52.4290253 159.738107,52.6761456 C159.752566,52.9324672 159.697359,53.1927321 159.659239,53.5831296 L140.729564,53.5831296 L140.729564,52.0373134 C141.514302,51.8664324 142.232002,51.7389288 142.933929,51.5522742 C144.528381,51.1303295 145.432736,50.0537789 145.668026,48.4488117 C145.821819,47.4130097 145.946693,46.3601196 145.949322,45.3151164 C145.979555,35.0109899 145.996643,24.7068634 145.984813,14.4027369 C145.97824,9.25658882 144.671658,7.96972317 139.54917,7.92766014 C138.655331,7.9210878 137.756234,7.91582992 136.871596,8.0157296 C133.062263,8.44950454 131.7938,9.73374125 131.676812,13.5890803 C131.544051,17.8926535 131.592686,22.2041135 131.541422,26.5129445 C131.482271,31.5513061 131.576913,36.601498 130.41755,41.5623059 C128.590438,49.3781416 123.410113,53.8157907 115.429969,54.6110447 C111.361686,55.0159013 107.360441,54.9488634 103.389428,53.9551244 C95.409284,51.9584452 90.3853816,45.871137 90.1829533,37.6254697 C90.000242,30.2171196 90.0567642,22.8035116 90.0028709,15.391218 C89.9976131,14.6564296 89.9713237,13.9203266 89.935833,13.1842237 C89.7412915,9.25001647 89.6492786,9.16063254 85.8859524,7.90399969 C85.5205299,7.78175403 85.2918122,7.25070835 85,6.90894628 C85.3838251,6.59610253 85.7650213,6.0111636 86.1488463,6.00853466 C91.8786189,5.97698739 97.6083915,6.00984913 103.338164,6.08083049 C103.66941,6.08477389 104.287211,6.58953018 104.259607,6.79458743 C104.209657,7.18498487 103.836348,7.79095531 103.515617,7.84879197 C99.7641215,8.51917142 99.2606797,10.1938056 99.2199311,13.5391305 C99.1266038,21.3194755 99.1213459,29.101135 99.2291324,36.8801655 C99.2580508,38.9543984 99.6418758,41.0733233 100.186066,43.0831471 C101.716109,48.7235358 105.539901,51.579878 111.402435,51.4878652 C113.272925,51.4589468 115.178905,51.1842227 116.995502,50.7267873 C123.026288,49.211204 126.199418,44.8708257 126.631878,39.0529836 C127.219446,31.1622232 127.040678,23.2149405 127.176069,15.2913183 C127.187899,14.5591588 127.099829,13.8230559 127.040678,13.0895819 C126.76464,9.69825057 125.910234,8.69925374 122.63852,7.92371674 C121.398975,7.62927557 121.398975,7.62927557 121.484416,6.05979897 Z M154.557783,30.5983157 C163.242483,32.0126849 170.364279,26.1094024 170.529902,17.7257159 C170.6206,13.1789658 168.351826,9.78237662 164.199417,8.73737336 C162.40648,8.28519585 160.458437,8.17740935 158.605035,8.29571161 C155.930089,8.46659264 154.756268,9.94011296 154.665569,12.6452912 C154.632708,13.6416591 154.564355,14.6367125 154.563041,15.6330804 C154.552525,20.6083475 154.557783,25.5836146 154.557783,30.5983157 Z M210.384223,41.5575738 C212.284946,37.131755 214.002958,33.1397111 215.717026,29.1450383 C218.757394,22.0574187 221.830624,14.9816293 224.809211,7.86772033 C225.433584,6.3731685 226.298505,5.85263858 227.906102,5.90653183 C231.477515,6.02614855 235.055501,5.97619871 238.628229,5.93150675 C239.955844,5.91441865 240.518437,6.33636336 240.041284,7.68106566 C236.381801,8.55518789 235.629924,9.3004921 235.353886,13.0914222 C235.159344,15.7584808 235.189577,18.4505143 235.265816,21.1280887 C235.507679,29.5840711 235.799491,38.0387389 236.11102,46.4934068 C236.243782,50.0556192 236.686758,50.5196269 240.1517,51.7157942 C240.589418,51.8669582 240.853626,52.518935 241.196703,52.9382508 C240.873343,53.190629 240.551298,53.6598946 240.227939,53.661209 C234.236587,53.6914418 228.245235,53.6664669 222.253883,53.6467499 C222.157926,53.6467499 222.064599,53.5718251 221.863485,53.4876991 L221.863485,52.0851601 C226.078989,51.0874778 227.020149,50.0661349 227.012262,45.66792 C226.997803,36.1025254 226.842696,26.5371308 226.730966,16.9717361 C226.725708,16.4801245 226.583745,15.9898274 226.156543,15.4522094 C225.904165,15.9937708 225.633384,16.5274455 225.399408,17.0768937 C220.45306,28.7704144 215.485679,40.4560484 210.606368,52.177173 C210.075323,53.4508939 209.37471,53.7098444 208.139109,53.7571653 C206.850929,53.8058007 206.482878,53.1472515 206.051732,52.1508836 C201.290723,41.1750632 196.486337,30.2202743 191.688523,19.2602276 C191.546561,18.9368681 191.352019,18.6345401 191.097012,18.16396 C190.899842,18.466288 190.732904,18.6069362 190.71713,18.7620436 C189.83775,27.218026 188.967571,35.6753228 188.106594,44.1326196 C187.97909,45.385309 187.833184,46.6419419 187.82004,47.8972603 C187.796379,50.1620912 188.462815,50.9810057 190.650092,51.6119511 C190.95242,51.7000205 191.333616,51.7026495 191.538674,51.894562 C191.800253,52.1403678 192.078921,52.5517968 192.052631,52.8672695 C192.027656,53.1590817 191.61097,53.6520078 191.363849,53.6546367 C186.806584,53.7019576 182.248003,53.6888129 177.626328,53.6888129 L177.626328,52.0404681 C178.620067,51.7999202 179.628266,51.5580578 180.633835,51.3109376 C182.37945,50.8824205 183.321925,49.7164861 183.52041,47.9827008 C184.17633,42.2476703 184.790187,36.507382 185.427705,30.7697226 C186.000814,25.6078008 186.627816,20.4498225 187.131257,15.2813284 C187.282421,13.7341977 187.19961,12.1450041 187.03793,10.5939301 C186.886766,9.13486894 186.019216,8.21474028 184.443167,8.13192871 C184.080374,8.11221166 183.649228,8.08592227 183.38239,7.88612291 C183.031427,7.62322901 182.646288,7.2052277 182.598967,6.81483026 C182.568734,6.5716534 183.130012,6.01168939 183.429711,6.00906045 C187.266648,5.96173955 191.104899,5.95385273 194.939206,6.05638135 C195.324346,6.06689711 195.835675,6.80300003 196.043361,7.30381292 C200.385054,17.7696191 204.687312,28.2525135 209.010602,38.7262065 C209.345792,39.5359197 209.772995,40.3061988 210.384223,41.5575738 Z"/><path id="path16-copy" fill-rule="nonzero" d="M36.7297959,22.1889796 C36.7297959,18.777551 39.0391837,15.4689796 40.2991837,16.0922449 C41.7355102,16.8122449 39.2228571,20.0253061 36.7297959,22.1889796 M21.0257143,23.4318367 C21.0257143,20.6889796 23.7318367,15.477551 25.384898,16.0285714 C27.3391837,16.68 23.7661224,21.9367347 21.0257143,23.4318367 M18.2816327,43.0481633 C17.037551,43.1044898 16.204898,42.3085714 16.204898,40.98 C16.204898,37.4106122 21.1579592,34.0004082 24.8987755,32.1697959 C24.235102,37.1534694 22.5514286,42.8559184 18.2816327,43.0481633 M41.1330612,31.4167347 C38.3081633,31.4167347 36.1493878,33.4946939 36.1493878,35.9865306 C36.1493878,38.0644898 37.3983673,39.7261224 39.055102,39.7261224 C39.6416327,39.7261224 40.2220408,39.3918367 40.2220408,38.6497959 C40.2220408,37.5636735 38.7893878,37.3028571 38.8971429,35.6877551 C38.9693878,34.622449 39.9734694,33.9097959 40.9702041,33.9097959 C42.962449,33.9097959 43.8942857,35.8408163 43.8942857,37.8330612 C43.8134694,40.9102041 41.5481633,43.0469388 38.8934694,43.0469388 C35.4012245,43.0469388 33.1579592,39.7261224 33.1579592,36.1518367 C33.1579592,30.8302041 36.6502041,28.7534694 38.4795918,28.257551 C38.4967347,28.257551 43.257551,29.1036735 43.1093878,27.004898 C43.0408163,26.0816327 41.6681633,25.7265306 40.6763265,25.6885714 C39.5730612,25.6457143 38.4587755,26.042449 38.4587755,26.042449 C37.8808163,25.7485714 37.4791837,25.1742857 37.2306122,24.5130612 C40.6383673,21.9342857 43.0481633,19.4436735 43.0481633,16.617551 C43.0481633,15.122449 42.0489796,13.7926531 40.137551,13.7926531 C36.7297959,13.7926531 34.1534694,18.1138776 34.1534694,22.02 C34.1534694,22.682449 34.1534694,23.3497959 34.324898,23.9302041 C32.162449,25.5073469 30.5546939,26.4906122 27.6489796,28.2355102 C27.6489796,27.8718367 27.724898,26.9326531 27.9697959,25.7179592 C28.9653061,24.6367347 30.3330612,23.0167347 30.3330612,21.7689796 C30.3330612,21.1885714 30.0036735,20.6877551 29.3326531,20.6877551 C27.6734694,20.6877551 26.4293878,23.1832653 26.0963265,24.9281633 C25.3481633,25.8465306 23.8518367,27.0097959 22.6028571,27.0097959 C21.6073469,27.0097959 21.2730612,26.095102 21.1885714,25.7608163 C24.3477551,24.6795918 28.2538776,20.3583673 28.2538776,16.4522449 C28.2538776,15.6232653 27.9208163,13.7926531 25.4289796,13.7926531 C21.6893878,13.7926531 18.535102,19.3628571 18.535102,23.6791837 C17.2016327,23.6791837 16.7057143,22.2685714 16.7057143,21.1873469 C16.7057143,20.104898 17.1208163,19.0285714 17.1208163,18.6942857 C17.1208163,18.3612245 16.9542857,17.9473469 16.4534694,17.9473469 C15.2093878,17.9473469 14.4612245,19.6089796 14.4612245,21.5204082 C14.5469388,24.18 16.2906122,25.8465306 18.6159184,26.0093878 C18.9489796,27.5902041 20.3595918,29.0865306 22.1032653,29.0865306 C23.1857143,29.0865306 24.5142857,28.7534694 25.4289796,27.9244898 C25.3481633,28.504898 25.2673469,29.0057143 25.1816327,29.5016327 C21.5228571,31.4167347 18.8632653,32.7453061 16.4534694,34.9053061 C14.5469388,36.6526531 13.4657143,38.9779592 13.4657143,40.8036735 C13.4657143,43.3004082 15.0428571,45.6257143 18.2828571,45.6257143 C22.1032653,45.6257143 25.015102,42.5522449 26.4293878,38.3118367 C27.0918367,36.3195918 27.357551,33.417551 27.5277551,30.7542857 C31.3457143,28.5906122 33.1579592,27.3440816 35.1538776,25.9285714 C35.402449,26.3436735 35.6534694,26.6755102 35.9828571,26.9240816 C34.2391837,27.8387755 30.0844898,30.4163265 30.0844898,36.4812245 C30.0844898,40.802449 32.9902041,45.6244898 38.7281633,45.6244898 C43.4644898,45.6244898 46.7044898,41.7171429 46.7044898,37.9763265 C46.7032653,34.5722449 44.7918367,31.4167347 41.1330612,31.4167347 M55.4216327,38.5555102 C55.4093878,38.5812245 55.3628571,38.6155102 55.2685714,38.584898 C55.195102,38.5591837 55.1791837,38.524898 55.1791837,38.4771429 C55.1828571,38.4306122 56.1832653,35.4722449 56.1746939,32.0828571 C56.1661224,28.4191837 54.6795918,26.1746939 52.7730612,26.1746939 C51.6061224,26.1746939 50.7759184,27.0085714 50.7759184,28.257551 C50.7759184,30.5008163 53.5163265,30.6685714 53.5163265,35.5702041 C53.5163265,37.562449 53.1012245,39.4738776 52.44,41.5506122 C49.3616327,51.9367347 39.5559184,56.7587755 30.0036735,56.7587755 C25.5967347,56.7587755 22.4669388,55.8526531 21.5363265,55.435102 C21.4983673,55.4130612 21.4628571,55.3408163 21.4934694,55.2673469 C21.5142857,55.2122449 21.5791837,55.1693878 21.6171429,55.1865306 C21.9942857,55.3322449 24.6820408,56.1783673 28.0077551,56.1783673 C31.6628571,56.1783673 33.8253061,54.6832653 33.8253061,52.8526531 C33.8253061,51.6906122 32.9106122,50.7759184 31.7485714,50.7759184 C29.5040816,50.7759184 29.3338776,53.6008163 24.5155102,53.6008163 C22.4387755,53.6008163 20.6093878,53.1857143 18.4506122,52.5183673 C8.14285714,49.3616327 3.23632653,39.6416327 3.23999794,30.002449 C3.24367347,25.3053061 4.56122449,21.5644898 4.58204082,21.5302041 C4.59918367,21.5057143 4.65795918,21.4787755 4.73020408,21.5057143 C4.80367347,21.5302041 4.81959184,21.5902041 4.81591837,21.6122449 C4.69714286,22.0016327 3.82408163,24.6820408 3.82408163,28.0077551 C3.82408163,31.6665306 5.31918367,33.8253061 7.23061224,33.8253061 C8.30816327,33.8253061 9.22285714,32.9963265 9.22285714,31.8330612 C9.22285714,29.5861224 6.47877551,29.337551 6.47877551,24.5167347 C6.47877551,22.4387755 6.89755102,20.6093878 7.56,18.4506122 C10.7191837,8.14530612 20.4440816,3.31591837 30.0012245,3.24122449 C34.442449,3.20693878 38.3277551,4.53673469 38.4771429,4.6555102 C38.5028571,4.67755102 38.5285714,4.73387755 38.5028571,4.80122449 C38.4673469,4.88204082 38.4159184,4.89061224 38.3914286,4.88571429 C38.344898,4.88204082 35.817551,3.82530612 31.9922449,3.82530612 C28.4191837,3.82163265 26.1746939,5.31795918 26.1746939,7.23183673 C26.1746939,8.30938776 27.0085714,9.22408163 28.2514286,9.22408163 C30.4959184,9.22408163 30.662449,6.48367347 35.4844898,6.48367347 C37.5563265,6.48367347 39.3869388,6.89387755 41.5457143,7.56122449 C51.9367347,10.7191837 56.6644898,20.524898 56.7538776,30.0012245 C56.8028571,34.8538776 55.435102,38.524898 55.4216327,38.5555102 M30.002449,1.41428571 C14.2126531,1.41428571 1.4155102,14.2077551 1.4155102,30.0012245 C1.4155102,45.7910204 14.2126531,58.5844898 30.002449,58.5844898 C45.7885714,58.5844898 58.5857143,45.7910204 58.5857143,30.0012245 C58.5857143,14.2934694 45.7885714,1.41428571 30.002449,1.41428571 M30.002449,60 C13.4644898,60 0,46.6212245 0,30.002449 C0,13.4595918 13.4644898,0 30.002449,0 C46.5355102,0 60,13.4595918 60,30.002449 C60,46.6212245 46.5355102,60 30.002449,60"/></g></g></g></svg>