<?xml version="1.0" encoding="UTF-8"?>
<svg width="157px" height="39px" viewBox="0 0 157 39" version="1.1" xmlns="http://www.w3.org/2000/svg" xmlns:xlink="http://www.w3.org/1999/xlink">
    <!-- Generator: Sketch 55.2 (78181) - https://sketchapp.com -->
    <title>Combined Shape</title>
    <desc>Created with Sketch.</desc>
    <g id="Welcome" stroke="none" stroke-width="1" fill="none" fill-rule="evenodd">
        <g id="Desktop-HD-Copy-19" transform="translate(-144.000000, -1624.000000)" fill="#1F2937">
            <path d="M300.5066,1656.482 C298.0566,1657.779 295.7126,1659.365 293.1346,1660.316 C287.0146,1662.573 280.7676,1662.684 274.6526,1660.217 C267.5416,1657.348 263.7566,1650.851 263.9696,1642.597 C264.2586,1631.422 271.7906,1625.72 280.7156,1624.368 C287.0296,1623.411 293.1196,1624.38 299.0546,1626.576 C299.3206,1626.674 299.6696,1627.037 299.6746,1627.283 C299.7216,1629.592 299.7026,1631.903 299.7026,1634.21 C298.8196,1634.492 298.2986,1634.461 298.0016,1633.482 C297.3916,1631.467 295.9876,1630.024 294.1526,1629.091 C289.2336,1626.593 284.1006,1626.248 278.9706,1628.227 C274.3986,1629.991 272.3436,1633.813 271.7176,1638.44 C271.1756,1642.452 271.5376,1646.422 273.1096,1650.2 C275.3356,1655.552 279.4306,1658.21 285.1826,1658.477 C290.0186,1658.702 294.1156,1657.129 297.4866,1653.655 C297.7036,1653.433 297.9526,1653.243 298.1906,1653.036 C298.9856,1654.136 299.7456,1655.189 300.5066,1656.242 L300.5066,1656.482 Z M171.7558,1624.8061 C172.2298,1624.7731 172.6218,1624.7241 173.0138,1624.7221 C183.4128,1624.6841 193.8108,1624.6231 204.2088,1624.6491 C205.7848,1624.6531 207.4118,1624.8831 208.9258,1625.3201 C214.7768,1627.0081 217.4228,1632.7021 215.0348,1638.3241 C213.3208,1642.3581 210.0178,1644.4741 205.9158,1645.3401 C203.6278,1645.8231 201.2478,1645.8731 198.9058,1646.0921 C198.3208,1646.1471 197.7278,1646.1001 196.8488,1646.1001 C196.8488,1647.5601 196.8298,1648.8671 196.8538,1650.1731 C196.8858,1651.9731 196.9628,1653.7711 196.9978,1655.5701 C197.0528,1658.4251 197.8268,1659.3091 200.7468,1659.7371 C200.7828,1659.8981 200.8478,1660.0821 200.8578,1660.2701 C200.8688,1660.4651 200.8268,1660.6631 200.7978,1660.9601 L186.3968,1660.9601 L186.3968,1659.7841 C186.9938,1659.6541 187.5398,1659.5571 188.0738,1659.4151 C189.2868,1659.0941 189.9748,1658.2751 190.1538,1657.0541 C190.2708,1656.2661 190.3658,1655.4651 190.3678,1654.6701 C190.3908,1646.8311 190.4038,1638.9921 190.3948,1631.1531 C190.3898,1627.2381 189.3958,1626.2591 185.4988,1626.2271 C184.8188,1626.2221 184.1348,1626.2181 183.4618,1626.2941 C180.5638,1626.6241 179.5988,1627.6011 179.5098,1630.5341 C179.4088,1633.8081 179.4458,1637.0881 179.4068,1640.3661 C179.3618,1644.1991 179.4338,1648.0411 178.5518,1651.8151 C177.1618,1657.7611 173.2208,1661.1371 167.1498,1661.7421 C164.0548,1662.0501 161.0108,1661.9991 157.9898,1661.2431 C151.9188,1659.7241 148.0968,1655.0931 147.9428,1648.8201 C147.8038,1643.1841 147.8468,1637.5441 147.8058,1631.9051 C147.8018,1631.3461 147.7818,1630.7861 147.7548,1630.2261 C147.6068,1627.2331 147.5368,1627.1651 144.6738,1626.2091 C144.3958,1626.1161 144.2218,1625.7121 143.9998,1625.4521 C144.2918,1625.2141 144.5818,1624.7691 144.8738,1624.7671 C149.2328,1624.7431 153.5918,1624.7681 157.9508,1624.8221 C158.2028,1624.8251 158.6728,1625.2091 158.6518,1625.3651 C158.6138,1625.6621 158.3298,1626.1231 158.0858,1626.1671 C155.2318,1626.6771 154.8488,1627.9511 154.8178,1630.4961 C154.7468,1636.4151 154.7428,1642.3351 154.8248,1648.2531 C154.8468,1649.8311 155.1388,1651.4431 155.5528,1652.9721 C156.7168,1657.2631 159.6258,1659.4361 164.0858,1659.3661 C165.5088,1659.3441 166.9588,1659.1351 168.3408,1658.7871 C172.9288,1657.6341 175.3428,1654.3321 175.6718,1649.9061 C176.1188,1643.9031 175.9828,1637.8571 176.0858,1631.8291 C176.0948,1631.2721 176.0278,1630.7121 175.9828,1630.1541 C175.7728,1627.5741 175.1228,1626.8141 172.6338,1626.2241 C171.6908,1626.0001 171.6908,1626.0001 171.7558,1624.8061 Z M196.9168,1643.4741 C203.5238,1644.5501 208.9418,1640.0591 209.0678,1633.6811 C209.1368,1630.2221 207.4108,1627.6381 204.2518,1626.8431 C202.8878,1626.4991 201.4058,1626.4171 199.9958,1626.5071 C197.9608,1626.6371 197.0678,1627.7581 196.9988,1629.8161 C196.9738,1630.5741 196.9218,1631.3311 196.9208,1632.0891 C196.9128,1635.8741 196.9168,1639.6591 196.9168,1643.4741 Z M239.3875,1651.8115 C240.8335,1648.4445 242.1405,1645.4075 243.4445,1642.3685 C245.7575,1636.9765 248.0955,1631.5935 250.3615,1626.1815 C250.8365,1625.0445 251.4945,1624.6485 252.7175,1624.6895 C255.4345,1624.7805 258.1565,1624.7425 260.8745,1624.7085 C261.8845,1624.6955 262.3125,1625.0165 261.9495,1626.0395 C259.1655,1626.7045 258.5935,1627.2715 258.3835,1630.1555 C258.2355,1632.1845 258.2585,1634.2325 258.3165,1636.2695 C258.5005,1642.7025 258.7225,1649.1345 258.9595,1655.5665 C259.0605,1658.2765 259.3975,1658.6295 262.0335,1659.5395 C262.3665,1659.6545 262.5675,1660.1505 262.8285,1660.4695 C262.5825,1660.6615 262.3375,1661.0185 262.0915,1661.0195 C257.5335,1661.0425 252.9755,1661.0235 248.4175,1661.0085 C248.3445,1661.0085 248.2735,1660.9515 248.1205,1660.8875 L248.1205,1659.8205 C251.3275,1659.0615 252.0435,1658.2845 252.0375,1654.9385 C252.0265,1647.6615 251.9085,1640.3845 251.8235,1633.1075 C251.8195,1632.7335 251.7115,1632.3605 251.3865,1631.9515 C251.1945,1632.3635 250.9885,1632.7695 250.8105,1633.1875 C247.0475,1642.0835 243.2685,1650.9735 239.5565,1659.8905 C239.1525,1660.8595 238.6195,1661.0565 237.6795,1661.0925 C236.6995,1661.1295 236.4195,1660.6285 236.0915,1659.8705 C232.4695,1651.5205 228.8145,1643.1865 225.1645,1634.8485 C225.0565,1634.6025 224.9085,1634.3725 224.7145,1634.0145 C224.5645,1634.2445 224.4375,1634.3515 224.4255,1634.4695 C223.7565,1640.9025 223.0945,1647.3365 222.4395,1653.7705 C222.3425,1654.7235 222.2315,1655.6795 222.2215,1656.6345 C222.2035,1658.3575 222.7105,1658.9805 224.3745,1659.4605 C224.6045,1659.5275 224.8945,1659.5295 225.0505,1659.6755 C225.2495,1659.8625 225.4615,1660.1755 225.4415,1660.4155 C225.4225,1660.6375 225.1055,1661.0125 224.9175,1661.0145 C221.4505,1661.0505 217.9825,1661.0405 214.4665,1661.0405 L214.4665,1659.7865 C215.2225,1659.6035 215.9895,1659.4195 216.7545,1659.2315 C218.0825,1658.9055 218.7995,1658.0185 218.9505,1656.6995 C219.4495,1652.3365 219.9165,1647.9695 220.4015,1643.6045 C220.8375,1639.6775 221.3145,1635.7535 221.6975,1631.8215 C221.8125,1630.6445 221.7495,1629.4355 221.6265,1628.2555 C221.5115,1627.1455 220.8515,1626.4455 219.6525,1626.3825 C219.3765,1626.3675 219.0485,1626.3475 218.8455,1626.1955 C218.5785,1625.9955 218.2855,1625.6775 218.2495,1625.3805 C218.2265,1625.1955 218.6535,1624.7695 218.8815,1624.7675 C221.8005,1624.7315 224.7205,1624.7255 227.6375,1624.8035 C227.9305,1624.8115 228.3195,1625.3715 228.4775,1625.7525 C231.7805,1633.7145 235.0535,1641.6895 238.3425,1649.6575 C238.5975,1650.2735 238.9225,1650.8595 239.3875,1651.8115 Z" id="Combined-Shape"></path>
        </g>
    </g>
</svg>