<?xml version="1.0" encoding="UTF-8"?>
<svg width="218px" height="140px" viewBox="0 0 218 140" version="1.1" xmlns="http://www.w3.org/2000/svg" xmlns:xlink="http://www.w3.org/1999/xlink">
    <!-- Generator: Sketch 55.2 (78181) - https://sketchapp.com -->
    <title>Combined Shape</title>
    <desc>Created with Sketch.</desc>
    <g id="Welcome" stroke="none" stroke-width="1" fill="none" fill-rule="evenodd">
        <g id="Desktop-HD-Copy-19" transform="translate(-108.000000, -1867.000000)" fill="#1F2937" fill-rule="nonzero">
            <path d="M252.475919,1867.01051 L252.476119,1867.01089 C252.779537,1867.01086 253.10992,1867.01121 253.453081,1867.01197 C255.685268,1867.01691 255.976559,1867.02228 256.211526,1867.06297 C257.642135,1867.31063 258.825376,1868.06 259.601944,1869.20962 C259.919843,1869.68031 260.157584,1870.20632 260.297304,1870.74821 C260.466074,1871.40267 260.455167,1870.44851 260.447643,1883.90636 C260.443881,1890.63949 260.437849,1896.1345 260.434255,1896.11733 C260.40914,1895.99712 260.143539,1895.50165 259.965183,1895.24224 C259.92048,1895.17722 259.875929,1895.0727 259.866156,1895.00996 C259.843895,1894.86705 259.771665,1894.72463 259.674872,1894.63292 C259.633806,1894.59401 259.464247,1894.49353 259.298085,1894.40962 L258.995969,1894.25707 L258.909769,1894.07795 C258.828436,1893.90901 258.814275,1893.89453 258.660195,1893.82253 C258.57037,1893.78054 258.361665,1893.71076 258.196461,1893.66747 C258.031272,1893.62418 257.88224,1893.57364 257.865322,1893.55515 C257.75303,1893.43237 257.600723,1892.69702 257.496499,1891.77449 C257.45516,1891.4085 257.348876,1890.93943 257.219688,1890.55289 C257.059457,1890.07339 256.923647,1889.76005 256.519579,1888.93723 C256.345724,1888.58322 256.179213,1888.21432 256.149517,1888.11745 C256.076536,1887.87941 255.981355,1887.421 255.883361,1886.83556 C255.741115,1885.98564 255.646229,1885.4928 255.553146,1885.12072 L255.462581,1884.75883 L255.462371,1884.04361 C255.462232,1883.65024 255.450023,1883.15697 255.435227,1882.94746 C255.302129,1881.0631 254.818471,1879.72612 253.939782,1878.81326 C253.660197,1878.52281 253.41964,1878.3283 252.969146,1878.02852 C252.775351,1877.89958 252.53299,1877.73232 252.430593,1877.6569 C252.263215,1877.53364 252.09175,1877.41867 251.883212,1877.28997 C251.823978,1877.25342 251.810967,1877.2266 251.810967,1877.14092 C251.810967,1877.04412 251.799143,1877.02715 251.650622,1876.9116 C251.416601,1876.72951 251.050069,1876.51558 250.565003,1876.27786 C250.091116,1876.04563 250.075019,1876.02949 250.073108,1875.78437 C250.072052,1875.64547 250.114125,1875.47238 250.164716,1875.4075 C250.181542,1875.38592 250.239084,1875.348 250.292633,1875.32325 C250.577998,1875.19137 250.914223,1874.73848 251.358433,1873.88759 L251.541661,1873.53659 L251.682868,1873.48887 C251.83761,1873.43663 251.932942,1873.34378 252.034352,1873.14649 C252.068319,1873.08041 252.169571,1872.90901 252.259357,1872.76556 C252.637874,1872.16083 252.681488,1871.93942 252.469471,1871.69857 L252.36947,1871.58497 L252.508212,1871.29527 C252.813034,1870.65861 252.940862,1870.15619 252.940126,1869.59773 C252.939601,1869.19471 252.898007,1868.95937 252.784348,1868.71648 C252.636117,1868.39967 252.469665,1868.22285 252.247959,1868.14663 C252.178207,1868.12264 252.125163,1868.06798 252.021988,1867.91372 C251.947836,1867.80286 251.825702,1867.65775 251.750557,1867.59124 C251.580952,1867.44116 251.262422,1867.25051 250.975208,1867.12719 L250.756823,1867.0334 L250.85698,1867.01975 C250.898299,1867.0141 251.565706,1867.01051 252.475919,1867.01051 Z M252.097618,1883.65681 L252.09782,1883.65618 C252.161921,1883.65618 252.154828,1883.62976 252.284081,1884.35248 C252.555974,1885.87493 252.863081,1887.45308 253.048291,1888.28009 C253.242149,1889.14467 253.290761,1889.28679 253.618096,1889.94646 C254.215749,1891.14988 254.579864,1891.9028 254.856234,1892.50966 C255.203596,1893.27075 255.26631,1893.42642 255.2363,1893.45289 C255.223417,1893.46423 255.088758,1893.51214 254.937043,1893.55936 C253.802392,1893.91254 252.791908,1894.80624 252.286414,1895.90377 C251.615602,1897.36023 251.772324,1899.05578 252.698573,1900.36436 C252.925343,1900.6847 253.410052,1901.16951 253.728791,1901.39485 C255.060831,1902.3364 256.771404,1902.48369 258.241082,1901.78333 C258.865468,1901.48577 259.441116,1901.0199 259.859769,1900.47327 C260.005436,1900.28307 260.261991,1899.85172 260.369677,1899.61591 L260.453672,1899.43202 L260.453885,1910.86743 C260.45404,1918.71423 260.445453,1922.38293 260.426433,1922.55798 C260.312522,1923.606 259.850974,1924.62289 259.142122,1925.38767 C258.588919,1925.98448 257.855688,1926.4657 257.12439,1926.71183 C256.841463,1926.80705 256.517299,1926.88934 256.342736,1926.91025 C256.230771,1926.92365 256.218706,1926.92099 256.260897,1926.89238 C256.727111,1926.57625 256.98284,1926.29954 257.190235,1925.88682 C257.492288,1925.28572 257.498319,1924.44915 257.208036,1923.41735 C257.171467,1923.2873 257.023882,1922.825 256.880071,1922.38997 C256.73627,1921.95495 256.618601,1921.58089 256.618601,1921.55874 C256.618601,1921.53658 256.641997,1921.46692 256.670578,1921.40393 C256.699159,1921.34094 256.722699,1921.23879 256.72312,1921.17693 C256.723843,1921.0362 256.636476,1920.76922 256.546869,1920.63827 C256.444978,1920.48941 256.368477,1920.18805 256.250344,1919.47056 C256.191724,1919.11454 256.131793,1918.76979 256.117145,1918.70446 C255.998568,1918.17539 256.050606,1917.63215 256.328846,1916.49497 C256.387178,1916.25656 256.453923,1915.96102 256.477184,1915.8382 C256.554778,1915.4285 256.482018,1915.09841 256.193374,1914.55093 C256.016077,1914.21464 255.931821,1914.08541 255.572456,1913.59824 C255.361841,1913.31271 255.317843,1913.23516 255.276099,1913.07616 C255.231313,1912.90572 255.127427,1912.30125 254.832121,1910.49216 C254.606717,1909.11138 254.41103,1908.12391 254.25847,1907.59773 C254.105279,1907.06929 253.83162,1906.49694 253.349307,1905.69616 C253.009971,1905.13276 252.741503,1904.60228 252.493254,1904.00448 C252.236467,1903.38621 252.155629,1903.00407 252.048288,1901.90176 C251.823346,1899.5916 251.596428,1898.29085 251.106697,1896.50298 C251.065138,1896.35126 251.00358,1896.12665 250.969903,1896.00384 L250.90869,1895.78053 L251.062364,1895.63292 L251.215988,1895.48529 L251.107722,1895.09436 L250.763132,1893.84963 C250.422577,1892.6196 250.017742,1891.20454 249.849997,1890.65782 C249.637497,1889.96517 249.475942,1889.64395 249.212161,1889.38933 C249.078684,1889.26049 248.855372,1889.12166 248.781066,1889.12124 C248.736561,1889.12101 248.733551,1889.09812 248.742479,1888.82543 L248.752176,1888.52989 L248.992103,1887.89939 C249.518047,1886.51681 250.020084,1885.25896 250.152752,1884.99152 C250.238773,1884.81796 250.270256,1884.78296 250.481411,1884.62614 C251.030347,1884.21848 251.966808,1883.65681 252.097618,1883.65681 Z M244.794097,1867.00129 L244.793656,1867.00011 C246.925593,1866.99902 249.019331,1867.0059 249.045339,1867.02206 C249.064656,1867.03399 248.991644,1867.07809 248.858671,1867.13479 C248.476776,1867.29762 248.217325,1867.46733 247.96008,1867.7225 C247.606957,1868.07278 247.458469,1868.39438 247.346917,1869.05052 C247.298375,1869.33606 247.244933,1869.95988 247.232239,1870.389 L247.22646,1870.58603 L247.012614,1870.60231 C246.623662,1870.63128 246.541184,1870.75876 246.54701,1871.32201 C246.554219,1872.01664 246.756778,1872.55196 246.997272,1872.51179 C247.025275,1872.50711 247.040304,1872.51926 247.036576,1872.5436 C247.033255,1872.56527 246.989036,1872.92182 246.938264,1873.33593 C246.837268,1874.15979 246.795451,1874.3778 246.699577,1874.58046 C246.506286,1874.9891 246.098687,1875.13151 244.967252,1875.18565 L244.62573,1875.20197 L244.546558,1875.29187 L244.467336,1875.38177 L243.758442,1875.44677 C242.70149,1875.54368 242.378147,1875.60896 241.942891,1875.81343 C241.621461,1875.96444 241.414152,1876.10933 241.135176,1876.37794 C240.591516,1876.90126 240.064038,1877.69756 239.376707,1879.03235 C239.066038,1879.63572 238.767978,1880.35641 238.453232,1881.26538 C238.405713,1881.40264 238.222136,1881.81049 238.045276,1882.17173 C237.015436,1884.2751 236.482851,1885.53411 236.271885,1886.36414 C236.248325,1886.45683 236.188382,1886.66109 236.138683,1886.81802 C235.99632,1887.26757 236.009203,1887.4637 236.214264,1887.96898 C236.265109,1888.09426 236.331787,1888.30707 236.362448,1888.44186 C236.466208,1888.89795 236.488004,1888.95272 236.605822,1889.05357 C236.80132,1889.22093 237.068001,1889.26069 237.998937,1889.26153 L238.701694,1889.26216 L238.701694,1889.58151 L238.701694,1889.9008 L238.410612,1890.18767 C238.098346,1890.49464 237.894727,1890.74528 237.80676,1890.93116 C237.660777,1891.23948 237.37264,1892.60229 237.270161,1893.46872 C237.110371,1894.81968 237.392835,1895.85958 238.479799,1897.92174 C239.24174,1899.36727 239.508084,1899.95663 239.716381,1900.65791 C239.769375,1900.83632 239.821395,1900.99208 239.831984,1901.00399 C239.842555,1901.01592 240.132544,1901.0662 240.476377,1901.11575 C240.820211,1901.16529 241.103989,1901.20871 241.107047,1901.21226 C241.110107,1901.21582 241.18549,1901.35938 241.274525,1901.5313 C242.075893,1903.07834 244.475393,1906.61726 245.542602,1907.82581 C245.625536,1907.91972 245.711994,1908.03203 245.734758,1908.07538 C245.817437,1908.23279 246.001838,1908.42232 246.491339,1908.85296 C246.76588,1909.09446 247.244662,1909.54834 247.55531,1909.86153 C248.057064,1910.36593 248.661841,1910.94914 249.001513,1911.25389 C250.146714,1912.28108 251.31661,1913.16641 252.279702,1913.73911 L252.518347,1913.88068 L252.690493,1914.26888 C252.898625,1914.73827 253.001485,1914.99263 253.101075,1915.2843 L253.176347,1915.50468 L253.098459,1915.59335 C252.967176,1915.7429 252.931014,1915.83666 252.93278,1916.02289 C252.935554,1916.31857 253.038073,1916.55866 253.542181,1917.44988 C253.893643,1918.07122 254.120712,1918.52186 254.272701,1918.89957 C254.403089,1919.22361 254.543312,1919.67499 254.543312,1919.77071 C254.543312,1919.80539 254.51213,1919.90728 254.474043,1919.99715 C254.336468,1920.32177 254.397269,1920.56342 254.698481,1920.8896 L254.840457,1921.04338 L254.823064,1921.52546 C254.805401,1922.01414 254.731181,1922.81021 254.609912,1923.81229 C254.471315,1924.95759 254.464689,1925.46395 254.582462,1925.91072 C254.679412,1926.27856 254.944223,1926.64093 255.275825,1926.85971 C255.36342,1926.91751 255.435388,1926.97344 255.435808,1926.98399 C255.436859,1927.00967 240.709999,1927.00245 240.352316,1926.97659 C239.146145,1926.88941 238.056365,1926.38787 237.190139,1925.52135 C236.272234,1924.60313 235.806443,1923.54931 235.732356,1922.22298 C235.713914,1921.89302 235.708068,1913.68515 235.71409,1896.62251 C235.722392,1873.10076 235.725792,1871.49057 235.767708,1871.25743 C235.97798,1870.08785 236.449112,1869.18858 237.261282,1868.40651 C238.101951,1867.59707 239.122986,1867.13587 240.313331,1867.028 C240.492183,1867.01179 242.66258,1867.00249 244.794097,1867.00129 Z M238.859394,1914.78911 L238.859312,1914.78921 L238.859312,1919.32083 L238.859312,1923.85246 L239.38473,1923.85246 C239.867381,1923.85246 239.910169,1923.84872 239.910695,1923.80649 C239.917561,1923.2466 239.905773,1919.33612 239.896534,1919.11051 C239.889436,1918.93712 239.871795,1918.44651 239.857333,1918.02027 C239.842874,1917.59403 239.825417,1917.13297 239.818595,1916.9957 L239.806229,1916.74613 L239.869649,1917.06138 C239.942136,1917.42152 240.068509,1918.09635 240.317284,1919.45203 C240.412721,1919.97219 240.577566,1920.86475 240.683585,1921.43548 C240.789614,1922.00624 240.9336,1922.7835 241.003564,1923.16281 L241.130762,1923.85246 L241.899659,1923.85246 L242.668619,1923.85246 L242.668619,1919.32078 L242.668619,1914.78911 L242.127249,1914.78911 L241.585942,1914.78911 L241.602207,1916.26688 C241.611145,1917.07964 241.623486,1917.80372 241.629657,1917.87597 C241.635827,1917.9482 241.648097,1918.22602 241.656903,1918.49333 C241.665709,1918.76064 241.677636,1919.05027 241.68343,1919.13697 C241.689224,1919.22366 241.700872,1919.43055 241.709342,1919.59671 C241.726178,1919.92701 241.743406,1920.21853 241.762808,1920.50306 C241.815716,1921.27897 241.854946,1921.9691 241.846648,1921.9774 C241.84118,1921.98286 241.775582,1921.64748 241.700876,1921.23206 C241.626162,1920.81665 241.458669,1919.8916 241.32867,1919.17638 C241.198686,1918.46116 241.045703,1917.61588 240.988703,1917.29801 C240.931698,1916.98013 240.825002,1916.38903 240.751593,1915.98446 C240.678183,1915.57989 240.599465,1915.14542 240.576675,1915.01899 L240.535268,1914.78911 L239.697331,1914.78911 L238.859394,1914.78911 Z M243.509344,1914.78911 L243.509344,1914.79053 L243.509344,1919.32488 L243.509344,1923.85924 L244.566738,1923.84611 C245.463584,1923.83709 245.647798,1923.82865 245.779865,1923.79059 C246.212095,1923.66602 246.517665,1923.42309 246.693252,1923.06444 C246.882713,1922.67744 246.885153,1922.65648 246.885153,1921.42251 C246.885153,1920.35448 246.883296,1920.31317 246.826609,1920.13296 C246.745274,1919.87435 246.649814,1919.71273 246.479035,1919.54439 L246.332748,1919.40016 L246.492786,1919.24228 C246.662202,1919.07513 246.761573,1918.9004 246.836662,1918.63779 C246.875004,1918.50371 246.883258,1918.32134 246.891975,1917.4162 C246.903255,1916.24474 246.890124,1916.06991 246.76452,1915.72393 C246.581968,1915.22106 246.178762,1914.90366 245.611017,1914.8159 C245.517114,1914.80139 245.005798,1914.78932 244.47481,1914.78932 L243.509344,1914.78911 Z M248.371773,1914.78911 L248.371683,1914.78891 L248.358394,1914.87429 C248.340257,1914.9903 248.332123,1915.05756 247.988122,1917.92823 C247.821919,1919.31534 247.668405,1920.5921 247.64702,1920.76549 C247.47189,1922.18572 247.292216,1923.70908 247.292216,1923.77382 L247.292216,1923.85248 L247.892685,1923.85248 L248.493153,1923.85248 L248.508496,1923.70142 C248.516923,1923.61834 248.548795,1923.23115 248.579356,1922.84104 C248.609916,1922.45093 248.64039,1922.10514 248.647084,1922.07263 C248.659232,1922.01373 248.660535,1922.01352 249.194738,1922.01352 L249.730223,1922.01352 L249.746028,1922.16458 C249.754714,1922.24765 249.785814,1922.62301 249.815091,1922.99869 C249.844367,1923.37434 249.874389,1923.72014 249.881844,1923.7671 L249.895389,1923.85248 L250.524714,1923.85248 C250.870965,1923.85248 251.154165,1923.84197 251.154165,1923.83146 C251.154165,1923.81045 251.110828,1923.4374 250.642156,1919.4127 C250.520132,1918.36522 250.354838,1916.94071 250.274825,1916.24716 C250.19481,1915.55361 250.122458,1914.94181 250.114018,1914.88763 L250.098676,1914.78911 L249.235225,1914.78911 L248.371773,1914.78911 Z M249.16051,1915.80641 L249.160527,1915.80646 C249.199345,1915.80625 249.234001,1916.19296 249.578592,1920.06739 C249.621535,1920.55023 249.649756,1920.95217 249.641293,1920.9606 C249.632844,1920.96903 249.430369,1920.97594 249.191409,1920.97594 C248.871997,1920.97594 248.753652,1920.96741 248.744488,1920.94367 C248.73763,1920.92591 248.774338,1920.42349 248.826121,1919.82716 C248.877905,1919.23083 248.955639,1918.27003 248.998833,1917.69207 C249.042026,1917.11411 249.083541,1916.56439 249.091088,1916.47047 C249.098633,1916.37655 249.112153,1916.19331 249.121154,1916.06327 C249.130156,1915.93323 249.142251,1915.82171 249.14799,1915.81544 C249.152442,1915.81057 249.156494,1915.80641 249.16051,1915.80641 Z M244.717785,1915.94039 L244.717669,1915.93955 L245.070498,1915.95006 C245.463259,1915.95964 245.519308,1915.98079 245.623973,1916.15848 C245.674435,1916.24416 245.676515,1916.29488 245.676515,1917.44298 L245.676515,1918.63831 L245.617143,1918.73288 C245.528032,1918.87619 245.436441,1918.90669 245.063731,1918.91713 C244.885534,1918.92209 244.734806,1918.92127 244.728766,1918.91524 C244.722726,1918.90921 244.717785,1918.23739 244.717785,1917.42232 L244.717785,1915.94039 Z M244.717785,1919.90498 L244.717766,1919.90796 L245.039574,1919.91584 C245.412663,1919.92842 245.536872,1919.97215 245.623398,1920.1215 C245.674552,1920.20979 245.676656,1920.25628 245.676656,1921.29055 C245.676656,1922.32621 245.674559,1922.3717 245.622576,1922.47274 C245.532939,1922.64701 245.402257,1922.69605 245.027487,1922.69605 L244.717785,1922.69605 L244.717785,1921.30051 L244.717785,1919.90498 Z M325.587252,1872.83991 L325.603984,1872.80672 L325.603984,1912.0999 C325.520325,1913.41027 325.020049,1919.08314 314.425006,1920.60962 C310.278623,1921.21057 307.158726,1922.55356 304.914175,1924.71418 C304.113565,1925.49025 303.498676,1926.27663 303.029075,1927 C302.561704,1926.27468 301.950998,1925.48829 301.143417,1924.71418 C298.932607,1922.55356 295.812432,1921.21447 291.632864,1920.60962 C281.012724,1919.10796 280.454444,1913.43481 280.453887,1912.0999 L280.453887,1872.80672 C280.453887,1872.80672 285.292682,1876.56075 291.966661,1874.89204 C299.908899,1872.92329 302.979158,1867 302.979158,1867 C302.979158,1867 306.090689,1872.91492 313.991377,1874.89204 C320.773554,1876.58585 325.587252,1872.83991 325.587252,1872.83991 Z M284.166362,1887.35629 L284.157997,1887.36438 L283.495423,1889.48372 L285.289057,1888.22383 L287.08269,1889.48372 L286.420395,1887.36438 L288.222395,1886.00465 L286.019951,1886.00465 L285.293518,1883.91905 L284.566807,1886.00465 L282.364363,1886.00465 L284.166362,1887.35629 Z M291.966661,1887.35629 L291.958016,1887.36438 L291.295721,1889.48372 L293.089355,1888.22383 L294.882989,1889.48372 L294.220694,1887.36438 L296.022693,1886.00465 L293.82025,1886.00465 L293.093817,1883.91905 L292.367105,1886.00465 L290.164661,1886.00465 L291.966661,1887.35629 Z M284.166362,1880.34852 L284.157997,1880.3566 L283.495423,1882.47567 L285.289057,1881.21605 L287.08269,1882.47567 L286.420395,1880.3566 L288.222395,1878.99688 L286.019951,1878.99688 L285.293518,1876.91128 L284.566807,1878.99688 L282.364363,1878.99688 L284.166362,1880.34852 Z M291.966661,1880.34852 L291.958016,1880.3566 L291.295721,1882.47567 L293.089355,1881.21605 L294.882989,1882.47567 L294.220694,1880.3566 L296.022693,1878.99688 L293.82025,1878.99688 L293.093817,1876.91128 L292.367105,1878.99688 L290.164661,1878.99688 L291.966661,1880.34852 Z M322.58392,1889.44189 L322.575554,1889.44189 L321.912422,1887.32283 L323.714422,1885.9631 L321.512257,1885.9631 L320.785545,1883.8775 L320.059113,1885.9631 L317.856948,1885.9631 L319.658668,1887.32283 L318.996373,1889.44189 L320.790007,1888.18228 L322.58392,1889.44189 Z M314.741792,1889.44189 L314.734542,1889.44189 L314.071131,1887.32283 L315.87341,1885.9631 L313.670966,1885.9631 L312.943418,1883.8775 L312.216985,1885.9631 L310.01482,1885.9631 L311.81682,1887.32283 L311.154246,1889.44189 L312.948158,1888.18228 L314.741792,1889.44189 Z M322.58392,1882.43384 L322.575554,1882.43384 L321.912422,1880.31477 L323.714422,1878.95505 L321.512257,1878.95505 L320.785545,1876.86945 L320.059113,1878.95505 L317.856948,1878.95505 L319.658668,1880.31477 L318.996373,1882.43384 L320.790007,1881.17422 L322.58392,1882.43384 Z M314.741792,1882.43384 L314.734542,1882.43384 L314.071131,1880.31477 L315.87341,1878.95505 L313.670966,1878.95505 L312.943418,1876.86945 L312.216985,1878.95505 L310.01482,1878.95505 L311.81682,1880.31477 L311.154246,1882.43384 L312.948158,1881.17422 L314.741792,1882.43384 Z M304.730963,1878.76319 C303.929238,1878.10257 303.029075,1877.67842 302.07788,1877.47011 C302.309056,1877.25149 302.546087,1877.06353 302.75356,1876.89008 C303.946527,1877.17703 304.747416,1877.71189 305.298166,1878.16671 C305.102963,1878.36693 304.913617,1878.56185 304.734309,1878.76152 L304.730963,1878.76319 Z M303.57118,1880.15638 C302.806822,1879.51472 301.877379,1879.03843 300.826352,1878.82147 C300.987534,1878.61372 301.176044,1878.39259 301.357024,1878.18734 C302.161259,1878.33012 303.192487,1878.75399 304.093487,1879.49715 C303.909996,1879.71745 303.738497,1879.94082 303.5762,1880.15359 L303.57118,1880.15638 Z M302.52824,1881.6165 C301.703927,1880.92994 300.742972,1880.50691 299.800144,1880.33151 C299.800144,1880.33151 300.089601,1879.85939 300.25385,1879.61511 C301.404988,1879.8435 302.339451,1880.38254 302.998679,1880.93329 C302.830247,1881.17339 302.670738,1881.404 302.527961,1881.61566 L302.527961,1881.6165 L302.52824,1881.6165 Z M307.976068,1874.64218 C307.976068,1874.64218 307.041326,1875.12852 305.740161,1876.41072 C306.033801,1876.57664 306.363973,1876.80865 306.553319,1876.96621 C306.356443,1877.14078 306.155385,1877.32929 305.968827,1877.50609 C305.117464,1876.8081 304.241841,1876.45478 303.557516,1876.2883 C303.784509,1876.12572 304.025724,1875.96538 304.263592,1875.81005 C304.630294,1875.90347 304.985842,1876.04792 304.985842,1876.04792 C306.454324,1874.92997 307.73067,1874.44614 307.73067,1874.44614 C307.73067,1874.44614 307.582874,1874.37392 307.190238,1874.37922 C301.408892,1874.45367 296.094639,1878.7671 297.09575,1886.14185 C297.203391,1886.92545 297.507907,1888.35266 297.894966,1888.97843 C298.023521,1887.752 298.485872,1885.03226 299.855637,1882.11231 C299.379342,1881.94137 298.987822,1881.87138 298.987822,1881.87138 C299.12781,1881.57773 299.322455,1881.20322 299.322455,1881.20322 C300.340018,1881.39424 301.232931,1881.81895 302.008443,1882.43774 C301.822443,1882.73891 301.696677,1882.93495 301.607441,1883.09028 C301.335552,1882.87583 301.060316,1882.69151 300.756637,1882.52307 C299.213141,1885.21771 298.503998,1887.76231 298.212031,1889.08858 C298.227926,1889.17084 298.395521,1889.21295 298.530769,1889.19538 C304.862864,1888.37553 307.790904,1885.14102 308.708914,1881.6455 C309.301773,1879.35131 309.107685,1876.94864 308.313211,1874.98825 C308.257438,1874.85049 308.148961,1874.62211 307.964356,1874.63856 L307.976068,1874.64218 Z M303.062259,1923.08758 C303.062259,1923.08758 306.132518,1919.30009 314.074478,1918.07394 C323.251234,1916.66374 322.917716,1912.3757 322.917716,1912.15902 L322.917716,1891.55259 L283.123422,1891.55259 L283.123422,1912.15902 C283.123422,1912.3757 282.853206,1916.66374 291.966382,1918.07394 C299.941805,1919.30874 302.97888,1923.08758 302.97888,1923.08758 L303.062259,1923.08758 Z M293.718465,1906.62753 L293.717071,1896.86657 L292.490919,1896.17834 L292.490919,1893.6421 L298.088495,1893.6421 L298.088495,1896.17834 L296.920626,1896.86657 L296.920626,1916.80568 L293.934025,1915.91305 L289.612517,1903.14902 L289.61168,1911.57453 L290.988417,1912.62583 L290.988417,1915.22091 L284.990118,1913.69387 L284.990118,1911.48306 L286.366575,1910.9457 L286.366575,1896.84649 L284.956654,1896.15017 L284.956654,1893.61393 L289.494837,1893.61393 L293.732966,1906.62837 L293.718465,1906.62753 Z M304.06337,1915.55415 L305.264703,1916.98917 L305.264703,1919.52541 L299.316599,1917.30624 L299.316599,1915.15371 L300.62613,1914.61606 L300.62613,1896.84621 L299.324686,1896.1867 L299.324686,1893.617 L309.669311,1893.617 L309.669311,1898.78122 L307.40022,1898.78122 L306.712828,1896.66216 L304.084842,1896.66216 L304.084842,1902.63536 L306.053879,1902.63536 L306.829392,1901.50096 L308.414716,1901.50096 L308.414716,1906.81549 L306.829392,1906.81549 L306.082602,1905.73908 L304.08038,1905.73908 L304.08038,1915.58371 L304.06337,1915.55415 Z M310.654248,1916.47188 L310.654248,1913.93564 L312.130817,1912.72567 L312.130817,1896.87465 L310.870644,1896.21515 L310.870644,1893.64572 L316.819306,1893.64572 L316.819306,1896.21515 L315.651436,1896.87465 L315.651436,1911.80849 L318.212495,1911.11664 L318.703291,1907.21258 L321.147786,1907.21258 L321.147786,1913.73626 L310.636122,1916.53965 L310.654248,1916.47188 Z M108,1897.35759 C108,1880.59481 132.149132,1867 162.057713,1867 C185.547627,1867 205.543689,1875.38699 213.046332,1887.10738 C214.773358,1890.0807 215.71181,1893.24992 215.71181,1896.53979 C215.71181,1913.40519 191.461307,1927 161.552727,1927 C139.627521,1927 120.743423,1919.69512 112.223968,1909.15075 C109.503141,1905.52505 108,1901.5399 108,1897.35759 Z M162.057713,1869.0442 C137.504343,1869.0442 117.59908,1881.71859 117.59908,1897.35759 C117.59908,1899.70839 118.003317,1902.05918 118.91254,1904.206 L121.034474,1900.7308 C120.832356,1899.6064 120.730985,1898.482 120.730985,1897.35759 C120.730985,1885.09179 133.159726,1874.7682 150.23595,1871.39499 L150.23595,1874.35961 L151.44804,1874.35961 L151.44804,1871.19101 C153.469226,1870.78179 155.591161,1870.57719 157.713095,1870.3732 L157.713095,1876.7104 L158.925185,1876.7104 L158.925185,1870.3732 C159.935778,1870.27059 161.04712,1870.27059 162.057713,1870.27059 C163.169054,1870.27059 164.179647,1870.27059 165.290989,1870.3732 L165.290989,1876.7104 L166.402952,1876.7104 L166.402952,1870.3732 C168.625635,1870.57719 170.646199,1870.78179 172.768134,1871.19101 L172.768134,1874.35961 L173.980845,1874.35961 L173.980845,1871.39499 C191.05707,1874.7682 203.485188,1885.09179 203.485188,1897.35759 C203.485188,1898.89059 203.28307,1900.4242 202.878832,1901.8552 L206.01136,1901.8552 C206.415597,1900.4242 206.617716,1898.89059 206.617716,1897.35759 C206.617716,1881.71859 186.712453,1869.0442 162.057713,1869.0442 Z M166.605071,1914.12038 L141.950331,1914.12038 L141.041108,1909.6234 L131.542777,1909.6234 L130.229317,1913.20121 C137.605713,1919.12919 149.123987,1922.91098 162.057713,1922.91098 C174.283712,1922.91098 185.196874,1919.5384 192.674019,1914.22299 L180.548768,1914.22299 L179.033189,1893.47319 L175.900661,1893.47319 L176.405647,1904.00139 L166.605071,1904.00139 L166.605071,1914.12038 Z M130.734924,1881.10539 L146.497067,1881.10539 L151.953026,1897.97079 L152.458633,1881.10539 L193.381123,1881.10539 C188.733017,1877.5282 182.569332,1874.7682 175.395676,1873.13321 L175.395676,1875.8926 L171.252555,1875.8926 L171.252555,1872.4174 C170.141214,1872.21279 169.02925,1872.1108 167.918531,1872.00819 L167.918531,1878.24339 L163.77541,1878.24339 L163.77541,1871.8042 C163.169054,1871.8042 162.664068,1871.8042 162.057713,1871.8042 C161.552727,1871.8042 160.946371,1871.8042 160.441386,1871.8042 L160.441386,1878.24339 L156.298265,1878.24339 L156.298265,1872.00819 C155.085553,1872.1108 153.974212,1872.21279 152.964241,1872.4174 L152.964241,1875.8926 L148.720371,1875.8926 L148.720371,1873.13321 C141.646842,1874.7682 135.483779,1877.5282 130.734924,1881.10539 Z M192.774767,1886.21619 L194.795953,1901.8552 L202.07098,1901.8552 C202.475217,1900.4242 202.676714,1898.89059 202.676714,1897.35759 C202.676714,1892.55339 200.555401,1888.05641 196.917888,1884.27461 L192.774767,1886.21619 Z M130.229317,1885.8076 L127.096789,1884.3766 C123.560646,1888.1584 121.53946,1892.656 121.53946,1897.35759 C121.53946,1898.1754 121.53946,1898.89059 121.64083,1899.70839 L130.229317,1885.8076 Z M207.42619,1910.54319 L205.708493,1903.5928 L192.976886,1903.5928 L190.754203,1886.11358 L187.621675,1886.11358 L195.401687,1882.741 L180.245279,1882.741 L182.467962,1910.54319 L207.42619,1910.54319 Z M173.778727,1894.189 L163.977529,1894.189 L163.977529,1889.5894 L178.7297,1889.5894 L178.224714,1882.741 L154.378449,1882.741 L153.569975,1907.8858 L153.267108,1907.8858 L144.880118,1882.741 L128.309501,1882.741 L135.584527,1886.11358 L132.149132,1886.11358 L117.194842,1910.54319 L128.107382,1910.54319 L130.330687,1906.1482 L142.556686,1906.1482 L143.56728,1910.54319 L163.977529,1910.54319 L163.977529,1900.32221 L174.081594,1900.32221 L173.778727,1894.189 Z M138.919173,1889.99799 L141.445345,1901.0374 L132.856237,1901.0374 L138.312817,1889.99799 L138.919173,1889.99799 Z M162.057713,1924.4446 C148.92249,1924.4446 137.302224,1920.4582 129.724331,1914.22299 L126.389685,1914.22299 C134.473186,1921.17339 147.40629,1925.569 162.057713,1925.569 C176.709136,1925.569 189.74361,1921.07139 197.827111,1914.22299 L194.492465,1914.22299 C186.914571,1920.4582 175.192935,1924.4446 162.057713,1924.4446 Z M324.868084,1993.75822 C323.960704,1995.85445 322.886663,1997.78402 321.642256,1999.55804 C319.946011,2001.97649 318.557164,2003.65051 317.486826,2004.58011 C315.827617,2006.10599 314.049893,2006.88745 312.146246,2006.93189 C310.779621,2006.93189 309.131523,2006.54302 307.213062,2005.75415 C305.288306,2004.96899 303.51947,2004.58011 301.902112,2004.58011 C300.205867,2004.58011 298.386662,2004.96899 296.440795,2005.75415 C294.491965,2006.54302 292.922013,2006.95411 291.721679,2006.99485 C289.896178,2007.07263 288.076603,2006.26895 286.260362,2004.58011 C285.101138,2003.56903 283.651182,2001.83575 281.914197,1999.38027 C280.05055,1996.75813 278.518374,1993.71748 277.31804,1990.25092 C276.032523,1986.50658 275.388098,1982.88077 275.388098,1979.3705 C275.388098,1975.34951 276.256961,1971.88147 277.997278,1968.97526 C279.365015,1966.64089 281.18459,1964.79946 283.461928,1963.44765 C285.739267,1962.09584 288.199933,1961.40697 290.849853,1961.3629 C292.299809,1961.3629 294.201233,1961.8114 296.564125,1962.69286 C298.92035,1963.57728 300.433267,1964.02578 301.09658,1964.02578 C301.592491,1964.02578 303.273181,1963.50135 306.122354,1962.45583 C308.816717,1961.48623 311.090723,1961.08476 312.953629,1961.2429 C318.001625,1961.6503 321.794103,1963.64024 324.316249,1967.22531 C319.801571,1969.96079 317.568305,1973.79215 317.612748,1978.70719 C317.653487,1982.53559 319.042334,1985.72142 321.771881,1988.25098 C323.008881,1989.42501 324.390321,1990.33239 325.927311,1990.97682 C325.593988,1991.94346 325.242147,1992.86935 324.868084,1993.75822 Z M313.290656,1948.20033 C313.290656,1951.20102 312.194393,1954.00275 310.009274,1956.59601 C307.372317,1959.67888 304.182783,1961.4603 300.723999,1961.1792 C300.679926,1960.81921 300.654371,1960.44033 300.654371,1960.0422 C300.654371,1957.16154 301.908408,1954.07867 304.135377,1951.55801 C305.247196,1950.28175 306.661227,1949.22056 308.37599,1948.37403 C310.087049,1947.54013 311.705519,1947.07896 313.227695,1947 C313.272138,1947.40114 313.290656,1947.80231 313.290656,1948.2003 L313.290656,1948.20033 Z M245.691219,1947.05247 C247.160443,1946.96852 248.629667,1947.01049 250.098891,1947.01049 C251.86196,1947.01049 253.625029,1947.01049 255.388098,1947.01049 C254.884364,1949.73905 254.38063,1952.50959 253.876896,1955.23815 C253.667007,1956.24562 253.03734,1957.25309 252.113827,1957.75682 C251.442182,1958.13462 250.602625,1958.21858 249.847024,1958.1766 C246.782643,1958.1766 243.760239,1958.1766 240.695857,1958.1766 C236.374043,1958.1766 232.688385,1958.1766 227.220973,1958.1766 C222.729345,1958.1766 218.19574,1958.1766 213.704112,1958.1766 C214.249824,1955.44804 214.753558,1952.71948 215.299269,1949.99092 C215.509159,1949.10939 215.970915,1948.31181 216.684538,1947.7661 C217.356183,1947.30434 218.153762,1947.05247 218.993319,1947.09445 C222.225612,1947.09445 225.457904,1947.09445 228.64822,1947.09445 C231.712601,1947.09445 234.776983,1947.09445 237.799387,1947.09445 C240.44399,1947.05247 243.046616,1947.05247 245.691219,1947.05247 Z M211.395331,1961.87065 C212.150932,1961.82867 212.864555,1961.74471 213.620156,1961.78669 C217.859917,1961.9546 222.015722,1963.25592 225.793727,1965.10294 C224.072636,1973.45653 222.393523,1981.85209 220.71441,1990.20568 C224.366481,1990.20568 228.018552,1990.20568 231.670624,1990.20568 C232.384247,1990.24766 233.139848,1990.1637 233.811493,1989.86986 C234.525116,1989.53404 235.112806,1988.90437 235.40665,1988.19075 C235.742473,1987.43515 235.826429,1986.59559 235.952362,1985.79801 C236.665985,1981.64221 237.379609,1977.52838 238.051254,1973.37257 C242.794749,1977.61233 247.076488,1982.48176 249.972958,1988.19075 C250.938448,1990.07975 251.736027,1992.05271 252.239761,1994.10962 C252.617561,1995.70478 252.82745,1997.38389 252.659539,1999.02103 C252.491628,2000.57421 251.987894,2002.08541 251.106359,2003.38672 C250.686581,2004.10034 249.972958,2004.60408 249.34329,2005.06583 C247.076488,2006.66099 244.221995,2007.16473 241.535414,2006.95484 C238.722899,2006.74495 235.99434,2005.90539 233.349737,2004.9399 C227.053062,2002.58914 221.260121,1998.85312 216.348715,1994.27753 C211.983021,1990.28964 208.12106,1985.6301 205.518435,1980.29891 C204.343055,1977.78024 203.335587,1975.13564 203.083721,1972.3651 C202.957787,1971.06379 202.999765,1969.76248 203.29361,1968.50314 C203.67141,1966.99194 204.385033,1965.52272 205.518435,1964.47327 C207.071614,1962.92009 209.254462,1962.08054 211.395331,1961.87065 Z M176.347057,1967.15907 L176.347057,1964.46623 L170.153537,1964.46623 L170.153537,1955.00417 L167.012121,1955.00417 L167.012121,1964.83761 L168.963114,1967.15907 L176.347057,1967.15907 Z M146.779801,1955.00408 L143.831602,1955.00408 L143.831602,1967.15907 L146.794671,1967.15907 L146.794671,1960.43436 L146.854059,1960.43436 L151.126326,1967.15907 L154.044784,1967.15907 L154.044784,1957.57722 L160.625566,1957.57722 C161.846555,1957.57722 162.44172,1958.11291 162.44172,1959.24394 C162.44172,1960.26997 161.830767,1960.88 160.80373,1960.88 L158.943058,1960.88 L158.943058,1958.96068 L155.816512,1958.96068 L155.816512,1967.15907 L158.943058,1967.15907 L158.943058,1963.52823 L160.446484,1963.52823 L163.394499,1967.15907 L167.25105,1967.15907 L163.618374,1962.79933 C164.808797,1962.07043 165.46436,1960.77601 165.46436,1959.16959 C165.46436,1956.56597 163.692632,1955.00408 160.848524,1955.00408 L151.00755,1955.00408 L151.00755,1961.75834 L150.94807,1961.75834 L146.779801,1955.00408 Z M139.00777,1951.16542 C139.00777,1951.16542 148.833782,1950.00474 159.508484,1950.00474 C169.841451,1950.00474 180.024067,1951.16542 180.024067,1951.16542 L180.024067,1970.72942 L159.508484,1982.55664 L139.00777,1970.72942 L139.00777,1951.16542 Z M139.00777,1977.51343 L159.508484,1989.35551 L180.024067,1977.51343 L180.024067,1981.20264 L159.508484,1993.04565 L139.00777,1981.20255 L139.00777,1977.51343 Z M139.156286,1988.09074 L159.508484,1999.82965 L179.860773,1988.09074 C179.428902,1990.8281 178.074267,1992.82168 175.766762,1994.14584 L159.508484,2003.53365 L143.251307,1994.14584 C140.942884,1992.82168 139.588065,1990.8281 139.156286,1988.09074 Z M181.513541,1986.00794 L181.513541,1949.82649 C181.513541,1949.82649 170.853618,1948.50223 159.508484,1948.50223 C148.179045,1948.50223 137.504344,1949.82649 137.504344,1949.82649 L137.504344,1969.86678 L137.504344,1969.85099 L137.504344,1975.77245 C137.504344,1975.86158 137.504344,1975.95162 137.504344,1976.02597 L137.504344,1980.3401 L137.504344,1986.24659 C137.504344,1986.61806 137.519122,1986.79714 137.534084,1987.15393 L137.548954,1987.15393 C137.801468,1990.96284 139.439458,1993.68551 142.506524,1995.45531 L159.508484,2005.25976 L176.511361,1995.45541 C179.54777,1993.7002 181.20063,1990.90336 181.483893,1987.13906 C181.498855,1986.79714 181.513541,1986.61806 181.513541,1986.24659 L181.513541,1986.12772 L181.513541,1986.00794 Z M159.508484,1947 C171.747009,1947 183.016784,1948.50232 183.016784,1948.50232 L183.016784,1986.00794 C183.016784,1990.99249 181.022374,1994.57771 177.269913,1996.74964 L159.508484,2007 L141.746963,1996.74964 C137.995511,1994.57771 136,1990.99258 136,1986.00794 L136,1948.50232 C136,1948.50232 147.270968,1947 159.508484,1947 Z" id="Combined-Shape"></path>
        </g>
    </g>
</svg>